<?xml version="1.0" encoding="UTF-8"?><svg width="52.9167mm" height="41.0104mm" viewBox="0 0 200 155" xmlns="http://www.w3.org/2000/svg" xmlns:xlink="http://www.w3.org/1999/xlink"><g fill="none" stroke="black" stroke-width="1" fill-rule="evenodd" stroke-linecap="square" stroke-linejoin="bevel"><g clip-path="none" fill="none" opacity="1" stroke="none" stroke-opacity="0" transform="matrix(1,0,0,1,0,0)"><path d="M0,0 L200,0 L200,155 L0,155 L0,0 z" fill-rule="evenodd" vector-effect="none"/></g><defs><clipPath id="clip3"><path d="M-42,-19 L7,-19 L7,19 L-42,19 L-42,-19 z"/></clipPath></defs><g clip-path="url(#clip3)" fill="none" opacity="1" stroke="#000000" stroke-linecap="round" stroke-linejoin="miter" stroke-miterlimit="2" stroke-opacity="1" stroke-width="2" transform="matrix(4.08163,0,0,4.08163,171.429,77.551)"><path d="M0,-5 L5,0 L0,5" fill-rule="evenodd" vector-effect="none"/></g><defs><clipPath id="clip6"><path d="M7,19 L-42,19 L-42,-19 L7,-19 L7,19 z"/></clipPath></defs><g clip-path="url(#clip6)" fill="none" opacity="1" stroke="#000000" stroke-linecap="round" stroke-linejoin="miter" stroke-miterlimit="2" stroke-opacity="1" stroke-width="2" transform="matrix(-4.08163,0,0,-4.08163,28.5714,77.551)"><path d="M5,-5 L0,0 L5,5" fill-rule="evenodd" vector-effect="none"/></g><defs><clipPath id="clip9"><path d="M-7,-2 L42,-2 L42,36 L-7,36 L-7,-2 z"/></clipPath></defs><g clip-path="url(#clip9)" fill="#ffffff" fill-opacity="1" opacity="1" stroke="none" stroke-opacity="0" transform="matrix(4.08163,0,0,4.08163,28.5714,8.16327)"><path d="M0,0 L35,0 L35,34 L0,34 L0,0 z" fill-rule="evenodd" vector-effect="none"/></g><defs><clipPath id="clip13"><path d="M205,38 L240,38 L240,72 L205,72 L205,38 z"/></clipPath></defs><g clip-path="url(#clip13)" fill="none" opacity="1" stroke="#000000" stroke-linecap="butt" stroke-linejoin="miter" stroke-miterlimit="2" stroke-opacity="1" stroke-width="0.245" transform="matrix(4.08163,0,0,4.08163,-806.122,-144.898)"><polyline fill="none" points="208,61 237,61" vector-effect="none"/></g><defs><clipPath id="clip14"><path d="M205,38 L240,38 L240,72 L205,72 L205,38 z"/></clipPath></defs><g clip-path="url(#clip14)" fill="none" opacity="1" stroke="#000000" stroke-linecap="butt" stroke-linejoin="miter" stroke-miterlimit="2" stroke-opacity="1" stroke-width="0.245" transform="matrix(4.08163,0,0,4.08163,-806.122,-144.898)"><polyline fill="none" points="217,69 217,41" vector-effect="none"/></g><defs><clipPath id="clip15"><path d="M205,38 L240,38 L240,72 L205,72 L205,38 z"/></clipPath></defs><g clip-path="url(#clip15)" fill="none" opacity="1" stroke="#000000" stroke-linecap="butt" stroke-linejoin="miter" stroke-miterlimit="2" stroke-opacity="1" stroke-width="0.245" transform="matrix(4.08163,0,0,4.08163,-806.122,-144.898)"><polyline fill="none" points="208,59 214,59" vector-effect="none"/></g><defs><clipPath id="clip16"><path d="M205,38 L240,38 L240,72 L205,72 L205,38 z"/></clipPath></defs><g clip-path="url(#clip16)" fill="none" opacity="1" stroke="#000000" stroke-linecap="butt" stroke-linejoin="miter" stroke-miterlimit="2" stroke-opacity="1" stroke-width="0.245" transform="matrix(4.08163,0,0,4.08163,-806.122,-144.898)"><polyline fill="none" points="214,59 214,54" vector-effect="none"/></g><defs><clipPath id="clip17"><path d="M205,38 L240,38 L240,72 L205,72 L205,38 z"/></clipPath></defs><g clip-path="url(#clip17)" fill="none" opacity="1" stroke="#000000" stroke-linecap="butt" stroke-linejoin="miter" stroke-miterlimit="2" stroke-opacity="1" stroke-width="0.245" transform="matrix(4.08163,0,0,4.08163,-806.122,-144.898)"><polyline fill="none" points="214,54 214,48" vector-effect="none"/></g><defs><clipPath id="clip18"><path d="M205,38 L240,38 L240,72 L205,72 L205,38 z"/></clipPath></defs><g clip-path="url(#clip18)" fill="none" opacity="1" stroke="#000000" stroke-linecap="butt" stroke-linejoin="miter" stroke-miterlimit="2" stroke-opacity="1" stroke-width="0.245" transform="matrix(4.08163,0,0,4.08163,-806.122,-144.898)"><polyline fill="none" points="214,48 224,48" vector-effect="none"/></g><defs><clipPath id="clip19"><path d="M205,38 L240,38 L240,72 L205,72 L205,38 z"/></clipPath></defs><g clip-path="url(#clip19)" fill="none" opacity="1" stroke="#000000" stroke-linecap="butt" stroke-linejoin="miter" stroke-miterlimit="2" stroke-opacity="1" stroke-width="0.245" transform="matrix(4.08163,0,0,4.08163,-806.122,-144.898)"><polyline fill="none" points="224,48 224,54" vector-effect="none"/></g><defs><clipPath id="clip20"><path d="M205,38 L240,38 L240,72 L205,72 L205,38 z"/></clipPath></defs><g clip-path="url(#clip20)" fill="none" opacity="1" stroke="#000000" stroke-linecap="butt" stroke-linejoin="miter" stroke-miterlimit="2" stroke-opacity="1" stroke-width="0.245" transform="matrix(4.08163,0,0,4.08163,-806.122,-144.898)"><polyline fill="none" points="224,54 224,59" vector-effect="none"/></g><defs><clipPath id="clip21"><path d="M205,38 L240,38 L240,72 L205,72 L205,38 z"/></clipPath></defs><g clip-path="url(#clip21)" fill="none" opacity="1" stroke="#000000" stroke-linecap="butt" stroke-linejoin="miter" stroke-miterlimit="2" stroke-opacity="1" stroke-width="0.245" transform="matrix(4.08163,0,0,4.08163,-806.122,-144.898)"><polyline fill="none" points="224,59 237,59" vector-effect="none"/></g><defs><clipPath id="clip26"><path d="M-7,-2 L42,-2 L42,36 L-7,36 L-7,-2 z"/></clipPath></defs><g clip-path="url(#clip26)" fill="none" opacity="1" stroke="#000000" stroke-linecap="butt" stroke-linejoin="miter" stroke-miterlimit="2" stroke-opacity="1" stroke-width="0.569727" transform="matrix(4.08163,0,0,4.08163,28.5714,8.16327)"><path d="M0,0 L35,0 L35,34 L0,34 L0,0 z" fill-rule="evenodd" vector-effect="none"/></g></g></svg>
