<?xml version="1.0" encoding="UTF-8"?><svg width="52.9167mm" height="38.6292mm" viewBox="0 0 200 146" xmlns="http://www.w3.org/2000/svg" xmlns:xlink="http://www.w3.org/1999/xlink"><g fill="none" stroke="black" stroke-width="1" fill-rule="evenodd" stroke-linecap="square" stroke-linejoin="bevel"><g clip-path="none" fill="none" opacity="1" stroke="none" stroke-opacity="0" transform="matrix(1,0,0,1,0,0)"><path d="M0,0 L200,0 L200,146 L0,146 L0,0 z" fill-rule="evenodd" vector-effect="none"/></g><defs><clipPath id="clip3"><path d="M-42,-18 L7,-18 L7,18 L-42,18 L-42,-18 z"/></clipPath></defs><g clip-path="url(#clip3)" fill="none" opacity="1" stroke="#000000" stroke-linecap="round" stroke-linejoin="miter" stroke-miterlimit="2" stroke-opacity="1" stroke-width="2" transform="matrix(4.08163,0,0,4.08163,171.429,73.4694)"><path d="M0,-5 L5,0 L0,5" fill-rule="evenodd" vector-effect="none"/></g><defs><clipPath id="clip6"><path d="M7,18 L-42,18 L-42,-18 L7,-18 L7,18 z"/></clipPath></defs><g clip-path="url(#clip6)" fill="none" opacity="1" stroke="#000000" stroke-linecap="round" stroke-linejoin="miter" stroke-miterlimit="2" stroke-opacity="1" stroke-width="2" transform="matrix(-4.08163,0,0,-4.08163,28.5714,73.4694)"><path d="M5,-5 L0,0 L5,5" fill-rule="evenodd" vector-effect="none"/></g><defs><clipPath id="clip9"><path d="M7,8 L-42,8 L-42,-28 L7,-28 L7,8 z"/></clipPath></defs><g clip-path="url(#clip9)" fill="none" opacity="1" stroke="#000000" stroke-linecap="round" stroke-linejoin="miter" stroke-miterlimit="2" stroke-opacity="1" stroke-width="2" transform="matrix(-4.08163,0,0,-4.08163,28.5714,32.6531)"><path d="M5,-5 L0,0 L5,5" fill-rule="evenodd" vector-effect="none"/></g><defs><clipPath id="clip12"><path d="M7,28 L-42,28 L-42,-8 L7,-8 L7,28 z"/></clipPath></defs><g clip-path="url(#clip12)" fill="none" opacity="1" stroke="#000000" stroke-linecap="round" stroke-linejoin="miter" stroke-miterlimit="2" stroke-opacity="1" stroke-width="2" transform="matrix(-4.08163,0,0,-4.08163,28.5714,114.286)"><path d="M5,-5 L0,0 L5,5" fill-rule="evenodd" vector-effect="none"/></g><defs><clipPath id="clip15"><path d="M-7,-2 L42,-2 L42,34 L-7,34 L-7,-2 z"/></clipPath></defs><g clip-path="url(#clip15)" fill="#ffffff" fill-opacity="1" opacity="1" stroke="none" stroke-opacity="0" transform="matrix(4.08163,0,0,4.08163,28.5714,8.16327)"><path d="M0,0 L35,0 L35,32 L0,32 L0,0 z" fill-rule="evenodd" vector-effect="none"/></g><defs><clipPath id="clip20"><path d="M-15,-31 L164,-31 L164,133 L-15,133 L-15,-31 z"/></clipPath></defs><g clip-path="url(#clip20)" fill="none" opacity="1" stroke="#000000" stroke-linecap="butt" stroke-linejoin="miter" stroke-miterlimit="2" stroke-opacity="1" stroke-width="0.245" transform="matrix(0.797194,0,0,0.797194,40.8163,32.6531)"><text fill="#000000" fill-opacity="1" font-family="Liberation Sans" font-size="36" font-style="normal" font-weight="400" stroke="none" textLength="39" x="0" xml:space="preserve" y="16">up</text></g><defs><clipPath id="clip23"><path d="M-15,-82 L164,-82 L164,82 L-15,82 L-15,-82 z"/></clipPath></defs><g clip-path="url(#clip23)" fill="none" opacity="1" stroke="#000000" stroke-linecap="butt" stroke-linejoin="miter" stroke-miterlimit="2" stroke-opacity="1" stroke-width="0.245" transform="matrix(0.797194,0,0,0.797194,40.8163,73.4694)"><text fill="#000000" fill-opacity="1" font-family="Liberation Sans" font-size="36" font-style="normal" font-weight="400" stroke="none" textLength="19" x="0" xml:space="preserve" y="16">u</text></g><defs><clipPath id="clip26"><path d="M-15,-133 L164,-133 L164,31 L-15,31 L-15,-133 z"/></clipPath></defs><g clip-path="url(#clip26)" fill="none" opacity="1" stroke="#000000" stroke-linecap="butt" stroke-linejoin="miter" stroke-miterlimit="2" stroke-opacity="1" stroke-width="0.245" transform="matrix(0.797194,0,0,0.797194,40.8163,114.286)"><text fill="#000000" fill-opacity="1" font-family="Liberation Sans" font-size="36" font-style="normal" font-weight="400" stroke="none" textLength="27" x="0" xml:space="preserve" y="16">lo</text></g><defs><clipPath id="clip29"><path d="M-164,-82 L15,-82 L15,82 L-164,82 L-164,-82 z"/></clipPath></defs><g clip-path="url(#clip29)" fill="none" opacity="1" stroke="#000000" stroke-linecap="butt" stroke-linejoin="miter" stroke-miterlimit="2" stroke-opacity="1" stroke-width="0.245" transform="matrix(0.797194,0,0,0.797194,159.184,73.4694)"><text fill="#000000" fill-opacity="1" font-family="Liberation Sans" font-size="36" font-style="normal" font-weight="400" stroke="none" textLength="17" x="-23.0312" xml:space="preserve" y="16">y</text></g><defs><clipPath id="clip31"><path d="M280,39 L315,39 L315,71 L280,71 L280,39 z"/></clipPath></defs><g clip-path="url(#clip31)" fill="none" opacity="1" stroke="#000000" stroke-linecap="butt" stroke-linejoin="miter" stroke-miterlimit="2" stroke-opacity="1" stroke-width="0.245" transform="matrix(4.08163,0,0,4.08163,-1112.24,-148.98)"><polyline fill="none" points="293,60 312,60" vector-effect="none"/></g><defs><clipPath id="clip32"><path d="M280,39 L315,39 L315,71 L280,71 L280,39 z"/></clipPath></defs><g clip-path="url(#clip32)" fill="none" opacity="1" stroke="#000000" stroke-linecap="butt" stroke-linejoin="miter" stroke-miterlimit="2" stroke-opacity="1" stroke-width="0.245" transform="matrix(4.08163,0,0,4.08163,-1112.24,-148.98)"><polyline fill="none" points="299,68 299,42" vector-effect="none"/></g><defs><clipPath id="clip33"><path d="M280,39 L315,39 L315,71 L280,71 L280,39 z"/></clipPath></defs><g clip-path="url(#clip33)" fill="none" opacity="1" stroke="#000000" stroke-linecap="butt" stroke-linejoin="miter" stroke-miterlimit="2" stroke-opacity="1" stroke-width="0.245" transform="matrix(4.08163,0,0,4.08163,-1112.24,-148.98)"><polyline fill="none" points="293,59 297,59" vector-effect="none"/></g><defs><clipPath id="clip34"><path d="M280,39 L315,39 L315,71 L280,71 L280,39 z"/></clipPath></defs><g clip-path="url(#clip34)" fill="none" opacity="1" stroke="#000000" stroke-linecap="butt" stroke-linejoin="miter" stroke-miterlimit="2" stroke-opacity="1" stroke-width="0.245" transform="matrix(4.08163,0,0,4.08163,-1112.24,-148.98)"><polyline fill="none" points="297,59 297,54" vector-effect="none"/></g><defs><clipPath id="clip35"><path d="M280,39 L315,39 L315,71 L280,71 L280,39 z"/></clipPath></defs><g clip-path="url(#clip35)" fill="none" opacity="1" stroke="#000000" stroke-linecap="butt" stroke-linejoin="miter" stroke-miterlimit="2" stroke-opacity="1" stroke-width="0.245" transform="matrix(4.08163,0,0,4.08163,-1112.24,-148.98)"><polyline fill="none" points="297,54 297,49" vector-effect="none"/></g><defs><clipPath id="clip36"><path d="M280,39 L315,39 L315,71 L280,71 L280,39 z"/></clipPath></defs><g clip-path="url(#clip36)" fill="none" opacity="1" stroke="#000000" stroke-linecap="butt" stroke-linejoin="miter" stroke-miterlimit="2" stroke-opacity="1" stroke-width="0.245" transform="matrix(4.08163,0,0,4.08163,-1112.24,-148.98)"><polyline fill="none" points="297,49 304,49" vector-effect="none"/></g><defs><clipPath id="clip37"><path d="M280,39 L315,39 L315,71 L280,71 L280,39 z"/></clipPath></defs><g clip-path="url(#clip37)" fill="none" opacity="1" stroke="#000000" stroke-linecap="butt" stroke-linejoin="miter" stroke-miterlimit="2" stroke-opacity="1" stroke-width="0.245" transform="matrix(4.08163,0,0,4.08163,-1112.24,-148.98)"><polyline fill="none" points="304,49 304,54" vector-effect="none"/></g><defs><clipPath id="clip38"><path d="M280,39 L315,39 L315,71 L280,71 L280,39 z"/></clipPath></defs><g clip-path="url(#clip38)" fill="none" opacity="1" stroke="#000000" stroke-linecap="butt" stroke-linejoin="miter" stroke-miterlimit="2" stroke-opacity="1" stroke-width="0.245" transform="matrix(4.08163,0,0,4.08163,-1112.24,-148.98)"><polyline fill="none" points="304,54 304,59" vector-effect="none"/></g><defs><clipPath id="clip39"><path d="M280,39 L315,39 L315,71 L280,71 L280,39 z"/></clipPath></defs><g clip-path="url(#clip39)" fill="none" opacity="1" stroke="#000000" stroke-linecap="butt" stroke-linejoin="miter" stroke-miterlimit="2" stroke-opacity="1" stroke-width="0.245" transform="matrix(4.08163,0,0,4.08163,-1112.24,-148.98)"><polyline fill="none" points="304,59 312,59" vector-effect="none"/></g><defs><clipPath id="clip44"><path d="M-7,-2 L42,-2 L42,34 L-7,34 L-7,-2 z"/></clipPath></defs><g clip-path="url(#clip44)" fill="none" opacity="1" stroke="#000000" stroke-linecap="butt" stroke-linejoin="miter" stroke-miterlimit="2" stroke-opacity="1" stroke-width="0.569727" transform="matrix(4.08163,0,0,4.08163,28.5714,8.16327)"><path d="M0,0 L35,0 L35,32 L0,32 L0,0 z" fill-rule="evenodd" vector-effect="none"/></g></g></svg>
