<?xml version="1.0" encoding="UTF-8"?><svg width="52.9167mm" height="17.1979mm" viewBox="0 0 200 65" xmlns="http://www.w3.org/2000/svg" xmlns:xlink="http://www.w3.org/1999/xlink"><g fill="none" stroke="black" stroke-width="1" fill-rule="evenodd" stroke-linecap="square" stroke-linejoin="bevel"><g clip-path="none" fill="none" opacity="1" stroke="none" stroke-opacity="0" transform="matrix(1,0,0,1,0,0)"><path d="M0,0 L200,0 L200,65 L0,65 L0,0 z" fill-rule="evenodd" vector-effect="none"/></g><defs><clipPath id="clip3"><path d="M-97,-17 L7,-17 L7,17 L-97,17 L-97,-17 z"/></clipPath></defs><g clip-path="url(#clip3)" fill="none" opacity="1" stroke="#000000" stroke-linecap="round" stroke-linejoin="miter" stroke-miterlimit="2" stroke-opacity="1" stroke-width="2" transform="matrix(1.92308,0,0,1.92308,186.538,32.6923)"><path d="M0,-5 L5,0 L0,5" fill-rule="evenodd" vector-effect="none"/></g><defs><clipPath id="clip6"><path d="M7,17 L-97,17 L-97,-17 L7,-17 L7,17 z"/></clipPath></defs><g clip-path="url(#clip6)" fill="none" opacity="1" stroke="#000000" stroke-linecap="round" stroke-linejoin="miter" stroke-miterlimit="2" stroke-opacity="1" stroke-width="2" transform="matrix(-1.92308,0,0,-1.92308,13.4615,32.6923)"><path d="M5,-5 L0,0 L5,5" fill-rule="evenodd" vector-effect="none"/></g><defs><clipPath id="clip9"><path d="M-7,-2 L97,-2 L97,32 L-7,32 L-7,-2 z"/></clipPath></defs><g clip-path="url(#clip9)" fill="#ffffff" fill-opacity="1" opacity="1" stroke="none" stroke-opacity="0" transform="matrix(1.92308,0,0,1.92308,13.4615,3.84615)"><path d="M0,0 L90,0 L90,30 L0,30 L0,0 z" fill-rule="evenodd" vector-effect="none"/></g><defs><clipPath id="clip14"><path d="M-15,-97 L446,-97 L446,57 L-15,57 L-15,-97 z"/></clipPath></defs><g clip-path="url(#clip14)" fill="none" opacity="1" stroke="#000000" stroke-linecap="butt" stroke-linejoin="miter" stroke-miterlimit="2" stroke-opacity="1" stroke-width="0.52" transform="matrix(0.375601,0,0,0.375601,19.2308,40.3846)"><text fill="#000000" fill-opacity="1" font-family="Liberation Sans" font-size="40" font-style="normal" font-weight="400" stroke="none" textLength="63" x="0" xml:space="preserve" y="1.28125">day</text></g><defs><clipPath id="clip17"><path d="M-445,-77 L16,-77 L16,77 L-445,77 L-445,-77 z"/></clipPath></defs><g clip-path="url(#clip17)" fill="none" opacity="1" stroke="#000000" stroke-linecap="butt" stroke-linejoin="miter" stroke-miterlimit="2" stroke-opacity="1" stroke-width="0.52" transform="matrix(0.375601,0,0,0.375601,180.769,32.6923)"><text fill="#000000" fill-opacity="1" font-family="Liberation Sans" font-size="40" font-style="normal" font-weight="400" stroke="none" textLength="49" x="-62.5469" xml:space="preserve" y="17.9219">JD</text></g><defs><clipPath id="clip19"><path d="M270,250 L360,250 L360,280 L270,280 L270,250 z"/></clipPath></defs><g clip-path="url(#clip19)" fill="#000000" fill-opacity="1" opacity="1" stroke="#000000" stroke-linecap="butt" stroke-linejoin="miter" stroke-miterlimit="2" stroke-opacity="1" stroke-width="0.52" transform="matrix(1.92308,0,0,1.92308,-505.769,-476.923)"><path d="M309,265 L319,265 L319,268 L322,265 L319,261 L319,264 L309,264 L309,265 z" fill-rule="evenodd" vector-effect="none"/></g><defs><clipPath id="clip24"><path d="M-7,-2 L97,-2 L97,32 L-7,32 L-7,-2 z"/></clipPath></defs><g clip-path="url(#clip24)" fill="none" opacity="1" stroke="#000000" stroke-linecap="butt" stroke-linejoin="miter" stroke-miterlimit="2" stroke-opacity="1" stroke-width="0.769842" transform="matrix(1.92308,0,0,1.92308,13.4615,3.84615)"><path d="M0,0 L90,0 L90,30 L0,30 L0,0 z" fill-rule="evenodd" vector-effect="none"/></g></g></svg>
