<?xml version="1.0" encoding="UTF-8"?><svg width="52.9167mm" height="40.7458mm" viewBox="0 0 200 154" xmlns="http://www.w3.org/2000/svg" xmlns:xlink="http://www.w3.org/1999/xlink"><g fill="none" stroke="black" stroke-width="1" fill-rule="evenodd" stroke-linecap="square" stroke-linejoin="bevel"><g clip-path="none" fill="none" opacity="1" stroke="none" stroke-opacity="0" transform="matrix(1,0,0,1,0,0)"><path d="M0,0 L200,0 L200,154 L0,154 L0,0 z" fill-rule="evenodd" vector-effect="none"/></g><defs><clipPath id="clip3"><path d="M-37,-17 L7,-17 L7,17 L-37,17 L-37,-17 z"/></clipPath></defs><g clip-path="url(#clip3)" fill="none" opacity="1" stroke="#000000" stroke-linecap="round" stroke-linejoin="miter" stroke-miterlimit="2" stroke-opacity="1" stroke-width="2" transform="matrix(4.54545,0,0,4.54545,168.182,77.2727)"><path d="M0,-5 L5,0 L0,5" fill-rule="evenodd" vector-effect="none"/></g><defs><clipPath id="clip6"><path d="M7,17 L-37,17 L-37,-17 L7,-17 L7,17 z"/></clipPath></defs><g clip-path="url(#clip6)" fill="none" opacity="1" stroke="#000000" stroke-linecap="round" stroke-linejoin="miter" stroke-miterlimit="2" stroke-opacity="1" stroke-width="2" transform="matrix(-4.54545,0,0,-4.54545,31.8182,77.2727)"><path d="M5,-5 L0,0 L5,5" fill-rule="evenodd" vector-effect="none"/></g><defs><clipPath id="clip9"><path d="M-7,-2 L37,-2 L37,32 L-7,32 L-7,-2 z"/></clipPath></defs><g clip-path="url(#clip9)" fill="#ffffff" fill-opacity="1" opacity="1" stroke="none" stroke-opacity="0" transform="matrix(4.54545,0,0,4.54545,31.8182,9.09091)"><path d="M0,0 L30,0 L30,30 L0,30 L0,0 z" fill-rule="evenodd" vector-effect="none"/></g><defs><clipPath id="clip13"><path d="M90,105 L120,105 L120,135 L90,135 L90,105 z"/></clipPath></defs><g clip-path="url(#clip13)" fill="none" opacity="1" stroke="#000000" stroke-linecap="butt" stroke-linejoin="miter" stroke-miterlimit="2" stroke-opacity="1" stroke-width="0.22" transform="matrix(4.54545,0,0,4.54545,-375,-465.909)"><polyline fill="none" points="99,129 96,129" vector-effect="none"/></g><defs><clipPath id="clip14"><path d="M90,105 L120,105 L120,135 L90,135 L90,105 z"/></clipPath></defs><g clip-path="url(#clip14)" fill="none" opacity="1" stroke="#000000" stroke-linecap="butt" stroke-linejoin="miter" stroke-miterlimit="2" stroke-opacity="1" stroke-width="0.22" transform="matrix(4.54545,0,0,4.54545,-375,-465.909)"><polyline fill="none" points="96,129 96,111" vector-effect="none"/></g><defs><clipPath id="clip15"><path d="M90,105 L120,105 L120,135 L90,135 L90,105 z"/></clipPath></defs><g clip-path="url(#clip15)" fill="none" opacity="1" stroke="#000000" stroke-linecap="butt" stroke-linejoin="miter" stroke-miterlimit="2" stroke-opacity="1" stroke-width="0.22" transform="matrix(4.54545,0,0,4.54545,-375,-465.909)"><polyline fill="none" points="96,111 99,111" vector-effect="none"/></g><defs><clipPath id="clip16"><path d="M90,105 L120,105 L120,135 L90,135 L90,105 z"/></clipPath></defs><g clip-path="url(#clip16)" fill="none" opacity="1" stroke="#000000" stroke-linecap="butt" stroke-linejoin="miter" stroke-miterlimit="2" stroke-opacity="1" stroke-width="0.22" transform="matrix(4.54545,0,0,4.54545,-375,-465.909)"><polyline fill="none" points="111,111 114,111" vector-effect="none"/></g><defs><clipPath id="clip17"><path d="M90,105 L120,105 L120,135 L90,135 L90,105 z"/></clipPath></defs><g clip-path="url(#clip17)" fill="none" opacity="1" stroke="#000000" stroke-linecap="butt" stroke-linejoin="miter" stroke-miterlimit="2" stroke-opacity="1" stroke-width="0.22" transform="matrix(4.54545,0,0,4.54545,-375,-465.909)"><polyline fill="none" points="114,111 114,129" vector-effect="none"/></g><defs><clipPath id="clip18"><path d="M90,105 L120,105 L120,135 L90,135 L90,105 z"/></clipPath></defs><g clip-path="url(#clip18)" fill="none" opacity="1" stroke="#000000" stroke-linecap="butt" stroke-linejoin="miter" stroke-miterlimit="2" stroke-opacity="1" stroke-width="0.22" transform="matrix(4.54545,0,0,4.54545,-375,-465.909)"><polyline fill="none" points="114,129 111,129" vector-effect="none"/></g><defs><clipPath id="clip19"><path d="M90,105 L120,105 L120,135 L90,135 L90,105 z"/></clipPath></defs><g clip-path="url(#clip19)" fill="none" opacity="1" stroke="#000000" stroke-linecap="butt" stroke-linejoin="miter" stroke-miterlimit="2" stroke-opacity="1" stroke-width="0.22" transform="matrix(4.54545,0,0,4.54545,-375,-465.909)"><polyline fill="none" points="100,116 100,117" vector-effect="none"/></g><defs><clipPath id="clip20"><path d="M90,105 L120,105 L120,135 L90,135 L90,105 z"/></clipPath></defs><g clip-path="url(#clip20)" fill="none" opacity="1" stroke="#000000" stroke-linecap="butt" stroke-linejoin="miter" stroke-miterlimit="2" stroke-opacity="1" stroke-width="0.22" transform="matrix(4.54545,0,0,4.54545,-375,-465.909)"><polyline fill="none" points="105,116 105,117" vector-effect="none"/></g><defs><clipPath id="clip21"><path d="M90,105 L120,105 L120,135 L90,135 L90,105 z"/></clipPath></defs><g clip-path="url(#clip21)" fill="none" opacity="1" stroke="#000000" stroke-linecap="butt" stroke-linejoin="miter" stroke-miterlimit="2" stroke-opacity="1" stroke-width="0.22" transform="matrix(4.54545,0,0,4.54545,-375,-465.909)"><polyline fill="none" points="109,116 109,117" vector-effect="none"/></g><defs><clipPath id="clip22"><path d="M90,105 L120,105 L120,135 L90,135 L90,105 z"/></clipPath></defs><g clip-path="url(#clip22)" fill="none" opacity="1" stroke="#000000" stroke-linecap="butt" stroke-linejoin="miter" stroke-miterlimit="2" stroke-opacity="1" stroke-width="0.22" transform="matrix(4.54545,0,0,4.54545,-375,-465.909)"><polyline fill="none" points="100,120 100,121" vector-effect="none"/></g><defs><clipPath id="clip23"><path d="M90,105 L120,105 L120,135 L90,135 L90,105 z"/></clipPath></defs><g clip-path="url(#clip23)" fill="none" opacity="1" stroke="#000000" stroke-linecap="butt" stroke-linejoin="miter" stroke-miterlimit="2" stroke-opacity="1" stroke-width="0.22" transform="matrix(4.54545,0,0,4.54545,-375,-465.909)"><polyline fill="none" points="105,120 105,121" vector-effect="none"/></g><defs><clipPath id="clip24"><path d="M90,105 L120,105 L120,135 L90,135 L90,105 z"/></clipPath></defs><g clip-path="url(#clip24)" fill="none" opacity="1" stroke="#000000" stroke-linecap="butt" stroke-linejoin="miter" stroke-miterlimit="2" stroke-opacity="1" stroke-width="0.22" transform="matrix(4.54545,0,0,4.54545,-375,-465.909)"><polyline fill="none" points="109,120 109,121" vector-effect="none"/></g><defs><clipPath id="clip25"><path d="M90,105 L120,105 L120,135 L90,135 L90,105 z"/></clipPath></defs><g clip-path="url(#clip25)" fill="none" opacity="1" stroke="#000000" stroke-linecap="butt" stroke-linejoin="miter" stroke-miterlimit="2" stroke-opacity="1" stroke-width="0.22" transform="matrix(4.54545,0,0,4.54545,-375,-465.909)"><polyline fill="none" points="100,123 100,125" vector-effect="none"/></g><defs><clipPath id="clip26"><path d="M90,105 L120,105 L120,135 L90,135 L90,105 z"/></clipPath></defs><g clip-path="url(#clip26)" fill="none" opacity="1" stroke="#000000" stroke-linecap="butt" stroke-linejoin="miter" stroke-miterlimit="2" stroke-opacity="1" stroke-width="0.22" transform="matrix(4.54545,0,0,4.54545,-375,-465.909)"><polyline fill="none" points="105,123 105,125" vector-effect="none"/></g><defs><clipPath id="clip27"><path d="M90,105 L120,105 L120,135 L90,135 L90,105 z"/></clipPath></defs><g clip-path="url(#clip27)" fill="none" opacity="1" stroke="#000000" stroke-linecap="butt" stroke-linejoin="miter" stroke-miterlimit="2" stroke-opacity="1" stroke-width="0.22" transform="matrix(4.54545,0,0,4.54545,-375,-465.909)"><polyline fill="none" points="109,123 109,125" vector-effect="none"/></g><defs><clipPath id="clip32"><path d="M-7,-2 L37,-2 L37,32 L-7,32 L-7,-2 z"/></clipPath></defs><g clip-path="url(#clip32)" fill="none" opacity="1" stroke="#000000" stroke-linecap="butt" stroke-linejoin="miter" stroke-miterlimit="2" stroke-opacity="1" stroke-width="0.545719" transform="matrix(4.54545,0,0,4.54545,31.8182,9.09091)"><path d="M0,0 L30,0 L30,30 L0,30 L0,0 z" fill-rule="evenodd" vector-effect="none"/></g></g></svg>
