<?xml version="1.0" encoding="UTF-8"?><svg width="52.9167mm" height="34.3958mm" viewBox="0 0 200 130" xmlns="http://www.w3.org/2000/svg" xmlns:xlink="http://www.w3.org/1999/xlink"><g fill="none" stroke="black" stroke-width="1" fill-rule="evenodd" stroke-linecap="square" stroke-linejoin="bevel"><g clip-path="none" fill="none" opacity="1" stroke="none" stroke-opacity="0" transform="matrix(1,0,0,1,0,0)"><path d="M0,0 L200,0 L200,130 L0,130 L0,0 z" fill-rule="evenodd" vector-effect="none"/></g><defs><clipPath id="clip3"><path d="M7,15 L-77,15 L-77,-40 L7,-40 L7,15 z"/></clipPath></defs><g clip-path="url(#clip3)" fill="none" opacity="1" stroke="#000000" stroke-linecap="round" stroke-linejoin="miter" stroke-miterlimit="2" stroke-opacity="1" stroke-width="2" transform="matrix(-2.38095,0,0,-2.38095,16.6667,35.7143)"><path d="M5,-5 L0,0 L5,5" fill-rule="evenodd" vector-effect="none"/></g><defs><clipPath id="clip6"><path d="M7,40 L-77,40 L-77,-15 L7,-15 L7,40 z"/></clipPath></defs><g clip-path="url(#clip6)" fill="none" opacity="1" stroke="#000000" stroke-linecap="round" stroke-linejoin="miter" stroke-miterlimit="2" stroke-opacity="1" stroke-width="2" transform="matrix(-2.38095,0,0,-2.38095,16.6667,95.2381)"><path d="M5,-5 L0,0 L5,5" fill-rule="evenodd" vector-effect="none"/></g><defs><clipPath id="clip9"><path d="M-7,-2 L77,-2 L77,53 L-7,53 L-7,-2 z"/></clipPath></defs><g clip-path="url(#clip9)" fill="#ffffff" fill-opacity="1" opacity="1" stroke="none" stroke-opacity="0" transform="matrix(2.38095,0,0,2.38095,16.6667,4.7619)"><path d="M0,0 L75,0 L75,51 L0,51 L0,0 z" fill-rule="evenodd" vector-effect="none"/></g><defs><clipPath id="clip14"><path d="M-189,-102 L195,-102 L195,159 L-189,159 L-189,-102 z"/></clipPath></defs><g clip-path="url(#clip14)" fill="none" opacity="1" stroke="#000000" stroke-linecap="butt" stroke-linejoin="miter" stroke-miterlimit="2" stroke-opacity="1" stroke-width="0.42" transform="matrix(0.46503,0,0,0.46503,104.762,52.381)"><text fill="#000000" fill-opacity="1" font-family="Liberation Sans" font-size="40" font-style="normal" font-weight="400" stroke="none" textLength="205" x="-132.234" xml:space="preserve" y="17.9219">  Error Rate</text></g><defs><clipPath id="clip17"><path d="M-189,-154 L195,-154 L195,107 L-189,107 L-189,-154 z"/></clipPath></defs><g clip-path="url(#clip17)" fill="none" opacity="1" stroke="#000000" stroke-linecap="butt" stroke-linejoin="miter" stroke-miterlimit="2" stroke-opacity="1" stroke-width="0.42" transform="matrix(0.46503,0,0,0.46503,104.762,76.1905)"><text fill="#000000" fill-opacity="1" font-family="Liberation Sans" font-size="40" font-style="normal" font-weight="400" stroke="none" textLength="214" x="-140.797" xml:space="preserve" y="17.9219">  Calculation</text></g><defs><clipPath id="clip20"><path d="M-15,-67 L369,-67 L369,194 L-15,194 L-15,-67 z"/></clipPath></defs><g clip-path="url(#clip20)" fill="none" opacity="1" stroke="#000000" stroke-linecap="butt" stroke-linejoin="miter" stroke-miterlimit="2" stroke-opacity="1" stroke-width="0.42" transform="matrix(0.46503,0,0,0.46503,23.8095,35.7143)"><text fill="#000000" fill-opacity="1" font-family="Liberation Sans" font-size="40" font-style="normal" font-weight="400" stroke="none" textLength="42" x="0" xml:space="preserve" y="17.9219">Tx</text></g><defs><clipPath id="clip23"><path d="M-15,-195 L369,-195 L369,66 L-15,66 L-15,-195 z"/></clipPath></defs><g clip-path="url(#clip23)" fill="none" opacity="1" stroke="#000000" stroke-linecap="butt" stroke-linejoin="miter" stroke-miterlimit="2" stroke-opacity="1" stroke-width="0.42" transform="matrix(0.46503,0,0,0.46503,23.8095,95.2381)"><text fill="#000000" fill-opacity="1" font-family="Liberation Sans" font-size="40" font-style="normal" font-weight="400" stroke="none" textLength="47" x="0" xml:space="preserve" y="17.9219">Rx</text></g><defs><clipPath id="clip29"><path d="M-7,-2 L77,-2 L77,53 L-7,53 L-7,-2 z"/></clipPath></defs><g clip-path="url(#clip29)" fill="none" opacity="1" stroke="#000000" stroke-linecap="butt" stroke-linejoin="miter" stroke-miterlimit="2" stroke-opacity="1" stroke-width="0.706805" transform="matrix(2.38095,0,0,2.38095,16.6667,4.7619)"><path d="M0,0 L75,0 L75,51 L0,51 L0,0 z" fill-rule="evenodd" vector-effect="none"/></g></g></svg>
