<?xml version="1.0" encoding="UTF-8"?><svg width="52.9167mm" height="34.925mm" viewBox="0 0 200 132" xmlns="http://www.w3.org/2000/svg" xmlns:xlink="http://www.w3.org/1999/xlink"><g fill="none" stroke="black" stroke-width="1" fill-rule="evenodd" stroke-linecap="square" stroke-linejoin="bevel"><g clip-path="none" fill="none" opacity="1" stroke="none" stroke-opacity="0" transform="matrix(1,0,0,1,0,0)"><path d="M0,0 L200,0 L200,132 L0,132 L0,0 z" fill-rule="evenodd" vector-effect="none"/></g><defs><clipPath id="clip3"><path d="M-2,-2 L96,-2 L96,63 L-2,63 L-2,-2 z"/></clipPath></defs><g clip-path="url(#clip3)" fill="#e8d152" fill-opacity="1" opacity="1" stroke="none" stroke-opacity="0" transform="matrix(2.04082,0,0,2.04082,4.08163,4.08163)"><path d="M0,0 L94,0 L94,61 L0,61 L0,0 z" fill-rule="evenodd" vector-effect="none"/></g><defs><clipPath id="clip8"><path d="M-241,-123 L240,-123 L240,189 L-241,189 L-241,-123 z"/></clipPath></defs><g clip-path="url(#clip8)" fill="none" opacity="1" stroke="#000000" stroke-linecap="butt" stroke-linejoin="miter" stroke-miterlimit="2" stroke-opacity="1" stroke-width="0.49" transform="matrix(0.398597,0,0,0.398597,100,53.0612)"><text fill="#000000" fill-opacity="1" font-family="Liberation Sans" font-size="48" font-style="normal" font-weight="400" stroke="none" textLength="183" x="-116.078" xml:space="preserve" y="21.125">Random</text></g><defs><clipPath id="clip11"><path d="M-241,-189 L240,-189 L240,123 L-241,123 L-241,-189 z"/></clipPath></defs><g clip-path="url(#clip11)" fill="none" opacity="1" stroke="#000000" stroke-linecap="butt" stroke-linejoin="miter" stroke-miterlimit="2" stroke-opacity="1" stroke-width="0.49" transform="matrix(0.398597,0,0,0.398597,100,79.5918)"><text fill="#000000" fill-opacity="1" font-family="Liberation Sans" font-size="48" font-style="normal" font-weight="400" stroke="none" textLength="292" x="-186.078" xml:space="preserve" y="21.125">Data Sources</text></g><defs><clipPath id="clip17"><path d="M-2,-2 L96,-2 L96,63 L-2,63 L-2,-2 z"/></clipPath></defs><g clip-path="url(#clip17)" fill="none" opacity="1" stroke="#000000" stroke-linecap="butt" stroke-linejoin="miter" stroke-miterlimit="2" stroke-opacity="1" stroke-width="0.751759" transform="matrix(2.04082,0,0,2.04082,4.08163,4.08163)"><path d="M0,0 L94,0 L94,61 L0,61 L0,0 z" fill-rule="evenodd" vector-effect="none"/></g></g></svg>
