<?xml version="1.0" encoding="UTF-8"?><svg width="52.9167mm" height="26.9875mm" viewBox="0 0 200 102" xmlns="http://www.w3.org/2000/svg" xmlns:xlink="http://www.w3.org/1999/xlink"><g fill="none" stroke="black" stroke-width="1" fill-rule="evenodd" stroke-linecap="square" stroke-linejoin="bevel"><g clip-path="none" fill="none" opacity="1" stroke="none" stroke-opacity="0" transform="matrix(1,0,0,1,0,0)"><path d="M0,0 L200,0 L200,102 L0,102 L0,0 z" fill-rule="evenodd" vector-effect="none"/></g><defs><clipPath id="clip3"><path d="M-87,-24 L7,-24 L7,24 L-87,24 L-87,-24 z"/></clipPath></defs><g clip-path="url(#clip3)" fill="none" opacity="1" stroke="#000000" stroke-linecap="round" stroke-linejoin="miter" stroke-miterlimit="2" stroke-opacity="1" stroke-width="2" transform="matrix(2.12766,0,0,2.12766,185.106,51.0638)"><path d="M0,-5 L5,0 L0,5" fill-rule="evenodd" vector-effect="none"/></g><defs><clipPath id="clip6"><path d="M-2,-2 L92,-2 L92,46 L-2,46 L-2,-2 z"/></clipPath></defs><g clip-path="url(#clip6)" fill="#ffffff" fill-opacity="1" opacity="1" stroke="none" stroke-opacity="0" transform="matrix(2.12766,0,0,2.12766,4.25532,4.25532)"><path d="M0,0 L85,0 L85,44 L0,44 L0,0 z" fill-rule="evenodd" vector-effect="none"/></g><defs><clipPath id="clip11"><path d="M-215,-87 L220,-87 L220,138 L-215,138 L-215,-87 z"/></clipPath></defs><g clip-path="url(#clip11)" fill="none" opacity="1" stroke="#000000" stroke-linecap="butt" stroke-linejoin="miter" stroke-miterlimit="2" stroke-opacity="1" stroke-width="0.47" transform="matrix(0.415559,0,0,0.415559,93.617,40.4255)"><text fill="#000000" fill-opacity="1" font-family="Liberation Sans" font-size="40" font-style="normal" font-weight="400" stroke="none" textLength="117" x="-75.3594" xml:space="preserve" y="17.9219">Barker</text></g><defs><clipPath id="clip14"><path d="M-215,-138 L220,-138 L220,87 L-215,87 L-215,-138 z"/></clipPath></defs><g clip-path="url(#clip14)" fill="none" opacity="1" stroke="#000000" stroke-linecap="butt" stroke-linejoin="miter" stroke-miterlimit="2" stroke-opacity="1" stroke-width="0.47" transform="matrix(0.415559,0,0,0.415559,93.617,61.7021)"><text fill="#000000" fill-opacity="1" font-family="Liberation Sans" font-size="40" font-style="normal" font-weight="400" stroke="none" textLength="283" x="-183.469" xml:space="preserve" y="17.9219">Code Generator</text></g><defs><clipPath id="clip20"><path d="M-2,-2 L92,-2 L92,46 L-2,46 L-2,-2 z"/></clipPath></defs><g clip-path="url(#clip20)" fill="none" opacity="1" stroke="#000000" stroke-linecap="butt" stroke-linejoin="miter" stroke-miterlimit="2" stroke-opacity="1" stroke-width="0.739331" transform="matrix(2.12766,0,0,2.12766,4.25532,4.25532)"><path d="M0,0 L85,0 L85,44 L0,44 L0,0 z" fill-rule="evenodd" vector-effect="none"/></g></g></svg>
