<?xml version="1.0" encoding="UTF-8"?><svg width="52.9167mm" height="38.6292mm" viewBox="0 0 200 146" xmlns="http://www.w3.org/2000/svg" xmlns:xlink="http://www.w3.org/1999/xlink"><g fill="none" stroke="black" stroke-width="1" fill-rule="evenodd" stroke-linecap="square" stroke-linejoin="bevel"><g clip-path="none" fill="none" opacity="1" stroke="none" stroke-opacity="0" transform="matrix(1,0,0,1,0,0)"><path d="M0,0 L200,0 L200,146 L0,146 L0,0 z" fill-rule="evenodd" vector-effect="none"/></g><defs><clipPath id="clip3"><path d="M-102,-65 L7,-65 L7,15 L-102,15 L-102,-65 z"/></clipPath></defs><g clip-path="url(#clip3)" fill="none" opacity="1" stroke="#000000" stroke-linecap="round" stroke-linejoin="miter" stroke-miterlimit="2" stroke-opacity="1" stroke-width="2" transform="matrix(1.83486,0,0,1.83486,187.156,119.266)"><path d="M0,-5 L5,0 L0,5" fill-rule="evenodd" vector-effect="none"/></g><defs><clipPath id="clip6"><path d="M-102,-15 L7,-15 L7,65 L-102,65 L-102,-15 z"/></clipPath></defs><g clip-path="url(#clip6)" fill="none" opacity="1" stroke="#000000" stroke-linecap="round" stroke-linejoin="miter" stroke-miterlimit="2" stroke-opacity="1" stroke-width="2" transform="matrix(1.83486,0,0,1.83486,187.156,27.5229)"><path d="M0,-5 L5,0 L0,5" fill-rule="evenodd" vector-effect="none"/></g><defs><clipPath id="clip9"><path d="M7,65 L-102,65 L-102,-15 L7,-15 L7,65 z"/></clipPath></defs><g clip-path="url(#clip9)" fill="none" opacity="1" stroke="#000000" stroke-linecap="round" stroke-linejoin="miter" stroke-miterlimit="2" stroke-opacity="1" stroke-width="2" transform="matrix(-1.83486,0,0,-1.83486,12.844,119.266)"><path d="M5,-5 L0,0 L5,5" fill-rule="evenodd" vector-effect="none"/></g><defs><clipPath id="clip12"><path d="M7,40 L-102,40 L-102,-40 L7,-40 L7,40 z"/></clipPath></defs><g clip-path="url(#clip12)" fill="none" opacity="1" stroke="#000000" stroke-linecap="round" stroke-linejoin="miter" stroke-miterlimit="2" stroke-opacity="1" stroke-width="2" transform="matrix(-1.83486,0,0,-1.83486,12.844,73.3945)"><path d="M5,-5 L0,0 L5,5" fill-rule="evenodd" vector-effect="none"/></g><defs><clipPath id="clip15"><path d="M7,15 L-102,15 L-102,-65 L7,-65 L7,15 z"/></clipPath></defs><g clip-path="url(#clip15)" fill="none" opacity="1" stroke="#000000" stroke-linecap="round" stroke-linejoin="miter" stroke-miterlimit="2" stroke-opacity="1" stroke-width="2" transform="matrix(-1.83486,0,0,-1.83486,12.844,27.5229)"><path d="M5,-5 L0,0 L5,5" fill-rule="evenodd" vector-effect="none"/></g><defs><clipPath id="clip18"><path d="M-102,-40 L7,-40 L7,40 L-102,40 L-102,-40 z"/></clipPath></defs><g clip-path="url(#clip18)" fill="none" opacity="1" stroke="#000000" stroke-linecap="round" stroke-linejoin="miter" stroke-miterlimit="2" stroke-opacity="1" stroke-width="2" transform="matrix(1.83486,0,0,1.83486,187.156,73.3945)"><path d="M0,-5 L5,0 L0,5" fill-rule="evenodd" vector-effect="none"/></g><defs><clipPath id="clip21"><path d="M-7,-2 L102,-2 L102,78 L-7,78 L-7,-2 z"/></clipPath></defs><g clip-path="url(#clip21)" fill="#ffffff" fill-opacity="1" opacity="1" stroke="none" stroke-opacity="0" transform="matrix(1.83486,0,0,1.83486,12.844,3.66972)"><path d="M0,0 L95,0 L95,76 L0,76 L0,0 z" fill-rule="evenodd" vector-effect="none"/></g><defs><clipPath id="clip26"><path d="M-15,-67 L471,-67 L471,322 L-15,322 L-15,-67 z"/></clipPath></defs><g clip-path="url(#clip26)" fill="none" opacity="1" stroke="#000000" stroke-linecap="butt" stroke-linejoin="miter" stroke-miterlimit="2" stroke-opacity="1" stroke-width="0.545" transform="matrix(0.358372,0,0,0.358372,18.3486,27.5229)"><text fill="#000000" fill-opacity="1" font-family="Liberation Sans" font-size="36" font-style="normal" font-weight="400" stroke="none" textLength="77" x="0" xml:space="preserve" y="16">Input</text></g><defs><clipPath id="clip29"><path d="M-15,-195 L471,-195 L471,194 L-15,194 L-15,-195 z"/></clipPath></defs><g clip-path="url(#clip29)" fill="none" opacity="1" stroke="#000000" stroke-linecap="butt" stroke-linejoin="miter" stroke-miterlimit="2" stroke-opacity="1" stroke-width="0.545" transform="matrix(0.358372,0,0,0.358372,18.3486,73.3945)"><text fill="#000000" fill-opacity="1" font-family="Liberation Sans" font-size="36" font-style="normal" font-weight="400" stroke="none" textLength="123" x="0" xml:space="preserve" y="16">Desired</text></g><defs><clipPath id="clip32"><path d="M-15,-323 L471,-323 L471,66 L-15,66 L-15,-323 z"/></clipPath></defs><g clip-path="url(#clip32)" fill="none" opacity="1" stroke="#000000" stroke-linecap="butt" stroke-linejoin="miter" stroke-miterlimit="2" stroke-opacity="1" stroke-width="0.545" transform="matrix(0.358372,0,0,0.358372,18.3486,119.266)"><text fill="#000000" fill-opacity="1" font-family="Liberation Sans" font-size="36" font-style="normal" font-weight="400" stroke="none" textLength="89" x="0" xml:space="preserve" y="16">Mode</text></g><defs><clipPath id="clip35"><path d="M-471,-67 L15,-67 L15,322 L-471,322 L-471,-67 z"/></clipPath></defs><g clip-path="url(#clip35)" fill="none" opacity="1" stroke="#000000" stroke-linecap="butt" stroke-linejoin="miter" stroke-miterlimit="2" stroke-opacity="1" stroke-width="0.545" transform="matrix(0.358372,0,0,0.358372,181.651,27.5229)"><text fill="#000000" fill-opacity="1" font-family="Liberation Sans" font-size="36" font-style="normal" font-weight="400" stroke="none" textLength="154" x="-202.297" xml:space="preserve" y="16">Equalized</text></g><defs><clipPath id="clip38"><path d="M-471,-195 L15,-195 L15,194 L-471,194 L-471,-195 z"/></clipPath></defs><g clip-path="url(#clip38)" fill="none" opacity="1" stroke="#000000" stroke-linecap="butt" stroke-linejoin="miter" stroke-miterlimit="2" stroke-opacity="1" stroke-width="0.545" transform="matrix(0.358372,0,0,0.358372,181.651,73.3945)"><text fill="#000000" fill-opacity="1" font-family="Liberation Sans" font-size="36" font-style="normal" font-weight="400" stroke="none" textLength="48" x="-61.3906" xml:space="preserve" y="16">Err</text></g><defs><clipPath id="clip41"><path d="M-471,-323 L15,-323 L15,66 L-471,66 L-471,-323 z"/></clipPath></defs><g clip-path="url(#clip41)" fill="none" opacity="1" stroke="#000000" stroke-linecap="butt" stroke-linejoin="miter" stroke-miterlimit="2" stroke-opacity="1" stroke-width="0.545" transform="matrix(0.358372,0,0,0.358372,181.651,119.266)"><text fill="#000000" fill-opacity="1" font-family="Liberation Sans" font-size="36" font-style="normal" font-weight="400" stroke="none" textLength="64" x="-79.3125" xml:space="preserve" y="16">Wts</text></g><defs><clipPath id="clip47"><path d="M-7,-2 L102,-2 L102,78 L-7,78 L-7,-2 z"/></clipPath></defs><g clip-path="url(#clip47)" fill="none" opacity="1" stroke="#000000" stroke-linecap="butt" stroke-linejoin="miter" stroke-miterlimit="2" stroke-opacity="1" stroke-width="0.784438" transform="matrix(1.83486,0,0,1.83486,12.844,3.66972)"><path d="M0,0 L95,0 L95,76 L0,76 L0,0 z" fill-rule="evenodd" vector-effect="none"/></g></g></svg>
