<?xml version="1.0" encoding="UTF-8"?><svg width="52.9167mm" height="25.9292mm" viewBox="0 0 200 98" xmlns="http://www.w3.org/2000/svg" xmlns:xlink="http://www.w3.org/1999/xlink"><g fill="none" stroke="black" stroke-width="1" fill-rule="evenodd" stroke-linecap="square" stroke-linejoin="bevel"><g clip-path="none" fill="none" opacity="1" stroke="none" stroke-opacity="0" transform="matrix(1,0,0,1,0,0)"><path d="M0,0 L200,0 L200,98 L0,98 L0,0 z" fill-rule="evenodd" vector-effect="none"/></g><defs><clipPath id="clip3"><path d="M-127,-33 L7,-33 L7,33 L-127,33 L-127,-33 z"/></clipPath></defs><g clip-path="url(#clip3)" fill="none" opacity="1" stroke="#000000" stroke-linecap="round" stroke-linejoin="miter" stroke-miterlimit="2" stroke-opacity="1" stroke-width="2" transform="matrix(1.49254,0,0,1.49254,189.552,49.2537)"><path d="M0,-5 L5,0 L0,5" fill-rule="evenodd" vector-effect="none"/></g><defs><clipPath id="clip6"><path d="M7,33 L-127,33 L-127,-33 L7,-33 L7,33 z"/></clipPath></defs><g clip-path="url(#clip6)" fill="none" opacity="1" stroke="#000000" stroke-linecap="round" stroke-linejoin="miter" stroke-miterlimit="2" stroke-opacity="1" stroke-width="2" transform="matrix(-1.49254,0,0,-1.49254,10.4478,49.2537)"><path d="M5,-5 L0,0 L5,5" fill-rule="evenodd" vector-effect="none"/></g><defs><clipPath id="clip9"><path d="M-7,-2 L127,-2 L127,64 L-7,64 L-7,-2 z"/></clipPath></defs><g clip-path="url(#clip9)" fill="#ffffff" fill-opacity="1" opacity="1" stroke="none" stroke-opacity="0" transform="matrix(1.49254,0,0,1.49254,10.4478,2.98507)"><path d="M0,0 L120,0 L120,62 L0,62 L0,0 z" fill-rule="evenodd" vector-effect="none"/></g><defs><clipPath id="clip13"><path d="M360,93 L480,93 L480,155 L360,155 L360,93 z"/></clipPath></defs><g clip-path="url(#clip13)" fill="none" opacity="1" stroke="#000000" stroke-linecap="butt" stroke-linejoin="miter" stroke-miterlimit="2" stroke-opacity="1" stroke-width="0.67" transform="matrix(1.49254,0,0,1.49254,-526.119,-136.567)"><polyline fill="none" points="392,108 403,108" vector-effect="none"/></g><defs><clipPath id="clip14"><path d="M360,93 L480,93 L480,155 L360,155 L360,93 z"/></clipPath></defs><g clip-path="url(#clip14)" fill="none" opacity="1" stroke="#000000" stroke-linecap="butt" stroke-linejoin="miter" stroke-miterlimit="2" stroke-opacity="1" stroke-width="0.67" transform="matrix(1.49254,0,0,1.49254,-526.119,-136.567)"><polyline fill="none" points="403,108 403,103" vector-effect="none"/></g><defs><clipPath id="clip15"><path d="M360,93 L480,93 L480,155 L360,155 L360,93 z"/></clipPath></defs><g clip-path="url(#clip15)" fill="none" opacity="1" stroke="#000000" stroke-linecap="butt" stroke-linejoin="miter" stroke-miterlimit="2" stroke-opacity="1" stroke-width="0.67" transform="matrix(1.49254,0,0,1.49254,-526.119,-136.567)"><polyline fill="none" points="403,103 392,103" vector-effect="none"/></g><defs><clipPath id="clip16"><path d="M360,93 L480,93 L480,155 L360,155 L360,93 z"/></clipPath></defs><g clip-path="url(#clip16)" fill="none" opacity="1" stroke="#000000" stroke-linecap="butt" stroke-linejoin="miter" stroke-miterlimit="2" stroke-opacity="1" stroke-width="0.67" transform="matrix(1.49254,0,0,1.49254,-526.119,-136.567)"><polyline fill="none" points="392,103 392,114" vector-effect="none"/></g><defs><clipPath id="clip17"><path d="M360,93 L480,93 L480,155 L360,155 L360,93 z"/></clipPath></defs><g clip-path="url(#clip17)" fill="none" opacity="1" stroke="#000000" stroke-linecap="butt" stroke-linejoin="miter" stroke-miterlimit="2" stroke-opacity="1" stroke-width="0.67" transform="matrix(1.49254,0,0,1.49254,-526.119,-136.567)"><polyline fill="none" points="392,114 403,114" vector-effect="none"/></g><defs><clipPath id="clip18"><path d="M360,93 L480,93 L480,155 L360,155 L360,93 z"/></clipPath></defs><g clip-path="url(#clip18)" fill="none" opacity="1" stroke="#000000" stroke-linecap="butt" stroke-linejoin="miter" stroke-miterlimit="2" stroke-opacity="1" stroke-width="0.67" transform="matrix(1.49254,0,0,1.49254,-526.119,-136.567)"><polyline fill="none" points="403,114 403,103" vector-effect="none"/></g><defs><clipPath id="clip19"><path d="M360,93 L480,93 L480,155 L360,155 L360,93 z"/></clipPath></defs><g clip-path="url(#clip19)" fill="none" opacity="1" stroke="#000000" stroke-linecap="butt" stroke-linejoin="miter" stroke-miterlimit="2" stroke-opacity="1" stroke-width="0.67" transform="matrix(1.49254,0,0,1.49254,-526.119,-136.567)"><polyline fill="none" points="403,103 403,108" vector-effect="none"/></g><defs><clipPath id="clip20"><path d="M360,93 L480,93 L480,155 L360,155 L360,93 z"/></clipPath></defs><g clip-path="url(#clip20)" fill="none" opacity="1" stroke="#000000" stroke-linecap="butt" stroke-linejoin="miter" stroke-miterlimit="2" stroke-opacity="1" stroke-width="0.67" transform="matrix(1.49254,0,0,1.49254,-526.119,-136.567)"><polyline fill="none" points="403,108 403,107" vector-effect="none"/></g><defs><clipPath id="clip21"><path d="M360,93 L480,93 L480,155 L360,155 L360,93 z"/></clipPath></defs><g clip-path="url(#clip21)" fill="none" opacity="1" stroke="#000000" stroke-linecap="butt" stroke-linejoin="miter" stroke-miterlimit="2" stroke-opacity="1" stroke-width="0.67" transform="matrix(1.49254,0,0,1.49254,-526.119,-136.567)"><polyline fill="none" points="403,107 409,108" vector-effect="none"/></g><defs><clipPath id="clip22"><path d="M360,93 L480,93 L480,155 L360,155 L360,93 z"/></clipPath></defs><g clip-path="url(#clip22)" fill="none" opacity="1" stroke="#000000" stroke-linecap="butt" stroke-linejoin="miter" stroke-miterlimit="2" stroke-opacity="1" stroke-width="0.67" transform="matrix(1.49254,0,0,1.49254,-526.119,-136.567)"><polyline fill="none" points="409,108 403,110" vector-effect="none"/></g><defs><clipPath id="clip23"><path d="M360,93 L480,93 L480,155 L360,155 L360,93 z"/></clipPath></defs><g clip-path="url(#clip23)" fill="none" opacity="1" stroke="#000000" stroke-linecap="butt" stroke-linejoin="miter" stroke-miterlimit="2" stroke-opacity="1" stroke-width="0.67" transform="matrix(1.49254,0,0,1.49254,-526.119,-136.567)"><polyline fill="none" points="403,110 426,110" vector-effect="none"/></g><defs><clipPath id="clip24"><path d="M360,93 L480,93 L480,155 L360,155 L360,93 z"/></clipPath></defs><g clip-path="url(#clip24)" fill="none" opacity="1" stroke="#000000" stroke-linecap="butt" stroke-linejoin="miter" stroke-miterlimit="2" stroke-opacity="1" stroke-width="0.67" transform="matrix(1.49254,0,0,1.49254,-526.119,-136.567)"><polyline fill="none" points="426,110 426,112" vector-effect="none"/></g><defs><clipPath id="clip25"><path d="M360,93 L480,93 L480,155 L360,155 L360,93 z"/></clipPath></defs><g clip-path="url(#clip25)" fill="none" opacity="1" stroke="#000000" stroke-linecap="butt" stroke-linejoin="miter" stroke-miterlimit="2" stroke-opacity="1" stroke-width="0.67" transform="matrix(1.49254,0,0,1.49254,-526.119,-136.567)"><polyline fill="none" points="426,112 437,108" vector-effect="none"/></g><defs><clipPath id="clip26"><path d="M360,93 L480,93 L480,155 L360,155 L360,93 z"/></clipPath></defs><g clip-path="url(#clip26)" fill="none" opacity="1" stroke="#000000" stroke-linecap="butt" stroke-linejoin="miter" stroke-miterlimit="2" stroke-opacity="1" stroke-width="0.67" transform="matrix(1.49254,0,0,1.49254,-526.119,-136.567)"><polyline fill="none" points="437,108 426,104" vector-effect="none"/></g><defs><clipPath id="clip27"><path d="M360,93 L480,93 L480,155 L360,155 L360,93 z"/></clipPath></defs><g clip-path="url(#clip27)" fill="none" opacity="1" stroke="#000000" stroke-linecap="butt" stroke-linejoin="miter" stroke-miterlimit="2" stroke-opacity="1" stroke-width="0.67" transform="matrix(1.49254,0,0,1.49254,-526.119,-136.567)"><polyline fill="none" points="426,104 426,107" vector-effect="none"/></g><defs><clipPath id="clip28"><path d="M360,93 L480,93 L480,155 L360,155 L360,93 z"/></clipPath></defs><g clip-path="url(#clip28)" fill="none" opacity="1" stroke="#000000" stroke-linecap="butt" stroke-linejoin="miter" stroke-miterlimit="2" stroke-opacity="1" stroke-width="0.67" transform="matrix(1.49254,0,0,1.49254,-526.119,-136.567)"><polyline fill="none" points="426,107 403,107" vector-effect="none"/></g><defs><clipPath id="clip29"><path d="M360,93 L480,93 L480,155 L360,155 L360,93 z"/></clipPath></defs><g clip-path="url(#clip29)" fill="none" opacity="1" stroke="#000000" stroke-linecap="butt" stroke-linejoin="miter" stroke-miterlimit="2" stroke-opacity="1" stroke-width="0.67" transform="matrix(1.49254,0,0,1.49254,-526.119,-136.567)"><polyline fill="none" points="403,107 426,107" vector-effect="none"/></g><defs><clipPath id="clip30"><path d="M360,93 L480,93 L480,155 L360,155 L360,93 z"/></clipPath></defs><g clip-path="url(#clip30)" fill="none" opacity="1" stroke="#000000" stroke-linecap="butt" stroke-linejoin="miter" stroke-miterlimit="2" stroke-opacity="1" stroke-width="0.67" transform="matrix(1.49254,0,0,1.49254,-526.119,-136.567)"><polyline fill="none" points="426,107 426,104" vector-effect="none"/></g><defs><clipPath id="clip31"><path d="M360,93 L480,93 L480,155 L360,155 L360,93 z"/></clipPath></defs><g clip-path="url(#clip31)" fill="none" opacity="1" stroke="#000000" stroke-linecap="butt" stroke-linejoin="miter" stroke-miterlimit="2" stroke-opacity="1" stroke-width="0.67" transform="matrix(1.49254,0,0,1.49254,-526.119,-136.567)"><polyline fill="none" points="426,104 437,108" vector-effect="none"/></g><defs><clipPath id="clip32"><path d="M360,93 L480,93 L480,155 L360,155 L360,93 z"/></clipPath></defs><g clip-path="url(#clip32)" fill="none" opacity="1" stroke="#000000" stroke-linecap="butt" stroke-linejoin="miter" stroke-miterlimit="2" stroke-opacity="1" stroke-width="0.67" transform="matrix(1.49254,0,0,1.49254,-526.119,-136.567)"><polyline fill="none" points="437,108 437,100" vector-effect="none"/></g><defs><clipPath id="clip33"><path d="M360,93 L480,93 L480,155 L360,155 L360,93 z"/></clipPath></defs><g clip-path="url(#clip33)" fill="none" opacity="1" stroke="#000000" stroke-linecap="butt" stroke-linejoin="miter" stroke-miterlimit="2" stroke-opacity="1" stroke-width="0.67" transform="matrix(1.49254,0,0,1.49254,-526.119,-136.567)"><polyline fill="none" points="437,100 449,100" vector-effect="none"/></g><defs><clipPath id="clip34"><path d="M360,93 L480,93 L480,155 L360,155 L360,93 z"/></clipPath></defs><g clip-path="url(#clip34)" fill="none" opacity="1" stroke="#000000" stroke-linecap="butt" stroke-linejoin="miter" stroke-miterlimit="2" stroke-opacity="1" stroke-width="0.67" transform="matrix(1.49254,0,0,1.49254,-526.119,-136.567)"><polyline fill="none" points="449,100 449,117" vector-effect="none"/></g><defs><clipPath id="clip35"><path d="M360,93 L480,93 L480,155 L360,155 L360,93 z"/></clipPath></defs><g clip-path="url(#clip35)" fill="none" opacity="1" stroke="#000000" stroke-linecap="butt" stroke-linejoin="miter" stroke-miterlimit="2" stroke-opacity="1" stroke-width="0.67" transform="matrix(1.49254,0,0,1.49254,-526.119,-136.567)"><polyline fill="none" points="449,117 437,117" vector-effect="none"/></g><defs><clipPath id="clip36"><path d="M360,93 L480,93 L480,155 L360,155 L360,93 z"/></clipPath></defs><g clip-path="url(#clip36)" fill="none" opacity="1" stroke="#000000" stroke-linecap="butt" stroke-linejoin="miter" stroke-miterlimit="2" stroke-opacity="1" stroke-width="0.67" transform="matrix(1.49254,0,0,1.49254,-526.119,-136.567)"><polyline fill="none" points="437,117 437,105" vector-effect="none"/></g><defs><clipPath id="clip37"><path d="M360,93 L480,93 L480,155 L360,155 L360,93 z"/></clipPath></defs><g clip-path="url(#clip37)" fill="none" opacity="1" stroke="#000000" stroke-linecap="butt" stroke-linejoin="miter" stroke-miterlimit="2" stroke-opacity="1" stroke-width="0.67" transform="matrix(1.49254,0,0,1.49254,-526.119,-136.567)"><polyline fill="none" points="437,105 449,105" vector-effect="none"/></g><defs><clipPath id="clip38"><path d="M360,93 L480,93 L480,155 L360,155 L360,93 z"/></clipPath></defs><g clip-path="url(#clip38)" fill="none" opacity="1" stroke="#000000" stroke-linecap="butt" stroke-linejoin="miter" stroke-miterlimit="2" stroke-opacity="1" stroke-width="0.67" transform="matrix(1.49254,0,0,1.49254,-526.119,-136.567)"><polyline fill="none" points="449,105 437,105" vector-effect="none"/></g><defs><clipPath id="clip39"><path d="M360,93 L480,93 L480,155 L360,155 L360,93 z"/></clipPath></defs><g clip-path="url(#clip39)" fill="none" opacity="1" stroke="#000000" stroke-linecap="butt" stroke-linejoin="miter" stroke-miterlimit="2" stroke-opacity="1" stroke-width="0.67" transform="matrix(1.49254,0,0,1.49254,-526.119,-136.567)"><polyline fill="none" points="437,105 437,111" vector-effect="none"/></g><defs><clipPath id="clip40"><path d="M360,93 L480,93 L480,155 L360,155 L360,93 z"/></clipPath></defs><g clip-path="url(#clip40)" fill="none" opacity="1" stroke="#000000" stroke-linecap="butt" stroke-linejoin="miter" stroke-miterlimit="2" stroke-opacity="1" stroke-width="0.67" transform="matrix(1.49254,0,0,1.49254,-526.119,-136.567)"><polyline fill="none" points="437,111 449,111" vector-effect="none"/></g><defs><clipPath id="clip42"><path d="M-307,-184 L307,-184 L307,133 L-307,133 L-307,-184 z"/></clipPath></defs><g clip-path="url(#clip42)" fill="none" opacity="1" stroke="#000000" stroke-linecap="butt" stroke-linejoin="miter" stroke-miterlimit="2" stroke-opacity="1" stroke-width="0.67" transform="matrix(0.291511,0,0,0.291511,100,56.7164)"><text fill="#000000" fill-opacity="1" font-family="Liberation Sans" font-size="40" font-style="normal" font-weight="400" stroke="none" textLength="243" x="-156.438" xml:space="preserve" y="17.9219">BCH Encoder</text></g><defs><clipPath id="clip48"><path d="M-7,-2 L127,-2 L127,64 L-7,64 L-7,-2 z"/></clipPath></defs><g clip-path="url(#clip48)" fill="none" opacity="1" stroke="#000000" stroke-linecap="butt" stroke-linejoin="miter" stroke-miterlimit="2" stroke-opacity="1" stroke-width="0.851981" transform="matrix(1.49254,0,0,1.49254,10.4478,2.98507)"><path d="M0,0 L120,0 L120,62 L0,62 L0,0 z" fill-rule="evenodd" vector-effect="none"/></g></g></svg>
