<?xml version="1.0" encoding="UTF-8"?><svg width="52.9167mm" height="22.7542mm" viewBox="0 0 200 86" xmlns="http://www.w3.org/2000/svg" xmlns:xlink="http://www.w3.org/1999/xlink"><g fill="none" stroke="black" stroke-width="1" fill-rule="evenodd" stroke-linecap="square" stroke-linejoin="bevel"><g clip-path="none" fill="none" opacity="1" stroke="none" stroke-opacity="0" transform="matrix(1,0,0,1,0,0)"><path d="M0,0 L200,0 L200,86 L0,86 L0,0 z" fill-rule="evenodd" vector-effect="none"/></g><defs><clipPath id="clip3"><path d="M-177,-55 L7,-55 L7,25 L-177,25 L-177,-55 z"/></clipPath></defs><g clip-path="url(#clip3)" fill="none" opacity="1" stroke="#000000" stroke-linecap="round" stroke-linejoin="miter" stroke-miterlimit="2" stroke-opacity="1" stroke-width="2" transform="matrix(1.08696,0,0,1.08696,192.391,59.7826)"><path d="M0,-5 L5,0 L0,5" fill-rule="evenodd" vector-effect="none"/></g><defs><clipPath id="clip6"><path d="M-177,-40 L7,-40 L7,40 L-177,40 L-177,-40 z"/></clipPath></defs><g clip-path="url(#clip6)" fill="none" opacity="1" stroke="#000000" stroke-linecap="round" stroke-linejoin="miter" stroke-miterlimit="2" stroke-opacity="1" stroke-width="2" transform="matrix(1.08696,0,0,1.08696,192.391,43.4783)"><path d="M0,-5 L5,0 L0,5" fill-rule="evenodd" vector-effect="none"/></g><defs><clipPath id="clip9"><path d="M-177,-10 L7,-10 L7,70 L-177,70 L-177,-10 z"/></clipPath></defs><g clip-path="url(#clip9)" fill="none" opacity="1" stroke="#000000" stroke-linecap="round" stroke-linejoin="miter" stroke-miterlimit="2" stroke-opacity="1" stroke-width="2" transform="matrix(1.08696,0,0,1.08696,192.391,10.8696)"><path d="M0,-5 L5,0 L0,5" fill-rule="evenodd" vector-effect="none"/></g><defs><clipPath id="clip12"><path d="M-177,-70 L7,-70 L7,10 L-177,10 L-177,-70 z"/></clipPath></defs><g clip-path="url(#clip12)" fill="none" opacity="1" stroke="#000000" stroke-linecap="round" stroke-linejoin="miter" stroke-miterlimit="2" stroke-opacity="1" stroke-width="2" transform="matrix(1.08696,0,0,1.08696,192.391,76.087)"><path d="M0,-5 L5,0 L0,5" fill-rule="evenodd" vector-effect="none"/></g><defs><clipPath id="clip15"><path d="M7,70 L-177,70 L-177,-10 L7,-10 L7,70 z"/></clipPath></defs><g clip-path="url(#clip15)" fill="none" opacity="1" stroke="#000000" stroke-linecap="round" stroke-linejoin="miter" stroke-miterlimit="2" stroke-opacity="1" stroke-width="2" transform="matrix(-1.08696,0,0,-1.08696,7.6087,76.087)"><path d="M5,-5 L0,0 L5,5" fill-rule="evenodd" vector-effect="none"/></g><defs><clipPath id="clip18"><path d="M7,50 L-177,50 L-177,-30 L7,-30 L7,50 z"/></clipPath></defs><g clip-path="url(#clip18)" fill="none" opacity="1" stroke="#000000" stroke-linecap="round" stroke-linejoin="miter" stroke-miterlimit="2" stroke-opacity="1" stroke-width="2" transform="matrix(-1.08696,0,0,-1.08696,7.6087,54.3478)"><path d="M5,-5 L0,0 L5,5" fill-rule="evenodd" vector-effect="none"/></g><defs><clipPath id="clip21"><path d="M7,10 L-177,10 L-177,-70 L7,-70 L7,10 z"/></clipPath></defs><g clip-path="url(#clip21)" fill="none" opacity="1" stroke="#000000" stroke-linecap="round" stroke-linejoin="miter" stroke-miterlimit="2" stroke-opacity="1" stroke-width="2" transform="matrix(-1.08696,0,0,-1.08696,7.6087,10.8696)"><path d="M5,-5 L0,0 L5,5" fill-rule="evenodd" vector-effect="none"/></g><defs><clipPath id="clip24"><path d="M7,30 L-177,30 L-177,-50 L7,-50 L7,30 z"/></clipPath></defs><g clip-path="url(#clip24)" fill="none" opacity="1" stroke="#000000" stroke-linecap="round" stroke-linejoin="miter" stroke-miterlimit="2" stroke-opacity="1" stroke-width="2" transform="matrix(-1.08696,0,0,-1.08696,7.6087,32.6087)"><path d="M5,-5 L0,0 L5,5" fill-rule="evenodd" vector-effect="none"/></g><defs><clipPath id="clip27"><path d="M-177,-25 L7,-25 L7,55 L-177,55 L-177,-25 z"/></clipPath></defs><g clip-path="url(#clip27)" fill="none" opacity="1" stroke="#000000" stroke-linecap="round" stroke-linejoin="miter" stroke-miterlimit="2" stroke-opacity="1" stroke-width="2" transform="matrix(1.08696,0,0,1.08696,192.391,27.1739)"><path d="M0,-5 L5,0 L0,5" fill-rule="evenodd" vector-effect="none"/></g><defs><clipPath id="clip30"><path d="M-7,-2 L177,-2 L177,78 L-7,78 L-7,-2 z"/></clipPath></defs><g clip-path="url(#clip30)" fill="#ffffff" fill-opacity="1" opacity="1" stroke="none" stroke-opacity="0" transform="matrix(1.08696,0,0,1.08696,7.6087,2.17391)"><path d="M0,0 L170,0 L170,76 L0,76 L0,0 z" fill-rule="evenodd" vector-effect="none"/></g><defs><clipPath id="clip35"><path d="M-435,-118 L435,-118 L435,271 L-435,271 L-435,-118 z"/></clipPath></defs><g clip-path="url(#clip35)" fill="none" opacity="1" stroke="#000000" stroke-linecap="butt" stroke-linejoin="miter" stroke-miterlimit="2" stroke-opacity="1" stroke-width="0.92" transform="matrix(0.212296,0,0,0.212296,100,27.1739)"><text fill="#000000" fill-opacity="1" font-family="Liberation Sans" font-size="40" font-style="normal" font-weight="400" stroke="none" textLength="237" x="-153.578" xml:space="preserve" y="17.9219">General CRC</text></g><defs><clipPath id="clip38"><path d="M-435,-169 L435,-169 L435,220 L-435,220 L-435,-169 z"/></clipPath></defs><g clip-path="url(#clip38)" fill="none" opacity="1" stroke="#000000" stroke-linecap="butt" stroke-linejoin="miter" stroke-miterlimit="2" stroke-opacity="1" stroke-width="0.92" transform="matrix(0.212296,0,0,0.212296,100,38.0435)"><text fill="#000000" fill-opacity="1" font-family="Liberation Sans" font-size="40" font-style="normal" font-weight="400" stroke="none" textLength="180" x="-116.609" xml:space="preserve" y="17.9219">Syndrome</text></g><defs><clipPath id="clip41"><path d="M-435,-220 L435,-220 L435,169 L-435,169 L-435,-220 z"/></clipPath></defs><g clip-path="url(#clip41)" fill="none" opacity="1" stroke="#000000" stroke-linecap="butt" stroke-linejoin="miter" stroke-miterlimit="2" stroke-opacity="1" stroke-width="0.92" transform="matrix(0.212296,0,0,0.212296,100,48.913)"><text fill="#000000" fill-opacity="1" font-family="Liberation Sans" font-size="40" font-style="normal" font-weight="400" stroke="none" textLength="150" x="-96.6875" xml:space="preserve" y="17.9219">Detector</text></g><defs><clipPath id="clip44"><path d="M-435,-271 L435,-271 L435,118 L-435,118 L-435,-271 z"/></clipPath></defs><g clip-path="url(#clip44)" fill="none" opacity="1" stroke="#000000" stroke-linecap="butt" stroke-linejoin="miter" stroke-miterlimit="2" stroke-opacity="1" stroke-width="0.92" transform="matrix(0.212296,0,0,0.212296,100,59.7826)"><text fill="#000000" fill-opacity="1" font-family="Liberation Sans" font-size="40" font-style="normal" font-weight="400" stroke="none" textLength="268" x="-172.828" xml:space="preserve" y="17.9219">HDL Optimized</text></g><defs><clipPath id="clip47"><path d="M-15,-41 L855,-41 L855,348 L-15,348 L-15,-41 z"/></clipPath></defs><g clip-path="url(#clip47)" fill="none" opacity="1" stroke="#000000" stroke-linecap="butt" stroke-linejoin="miter" stroke-miterlimit="2" stroke-opacity="1" stroke-width="0.92" transform="matrix(0.212296,0,0,0.212296,10.8696,10.8696)"><text fill="#000000" fill-opacity="1" font-family="Liberation Sans" font-size="40" font-style="normal" font-weight="400" stroke="none" textLength="108" x="0" xml:space="preserve" y="17.9219">dataIn</text></g><defs><clipPath id="clip50"><path d="M-15,-143 L855,-143 L855,246 L-15,246 L-15,-143 z"/></clipPath></defs><g clip-path="url(#clip50)" fill="none" opacity="1" stroke="#000000" stroke-linecap="butt" stroke-linejoin="miter" stroke-miterlimit="2" stroke-opacity="1" stroke-width="0.92" transform="matrix(0.212296,0,0,0.212296,10.8696,32.6087)"><text fill="#000000" fill-opacity="1" font-family="Liberation Sans" font-size="40" font-style="normal" font-weight="400" stroke="none" textLength="107" x="0" xml:space="preserve" y="17.9219">startIn</text></g><defs><clipPath id="clip53"><path d="M-15,-246 L855,-246 L855,143 L-15,143 L-15,-246 z"/></clipPath></defs><g clip-path="url(#clip53)" fill="none" opacity="1" stroke="#000000" stroke-linecap="butt" stroke-linejoin="miter" stroke-miterlimit="2" stroke-opacity="1" stroke-width="0.92" transform="matrix(0.212296,0,0,0.212296,10.8696,54.3478)"><text fill="#000000" fill-opacity="1" font-family="Liberation Sans" font-size="40" font-style="normal" font-weight="400" stroke="none" textLength="96" x="0" xml:space="preserve" y="17.9219">endIn</text></g><defs><clipPath id="clip56"><path d="M-15,-348 L855,-348 L855,41 L-15,41 L-15,-348 z"/></clipPath></defs><g clip-path="url(#clip56)" fill="none" opacity="1" stroke="#000000" stroke-linecap="butt" stroke-linejoin="miter" stroke-miterlimit="2" stroke-opacity="1" stroke-width="0.92" transform="matrix(0.212296,0,0,0.212296,10.8696,76.087)"><text fill="#000000" fill-opacity="1" font-family="Liberation Sans" font-size="40" font-style="normal" font-weight="400" stroke="none" textLength="110" x="0" xml:space="preserve" y="17.9219">validIn</text></g><defs><clipPath id="clip59"><path d="M-855,-41 L15,-41 L15,348 L-855,348 L-855,-41 z"/></clipPath></defs><g clip-path="url(#clip59)" fill="none" opacity="1" stroke="#000000" stroke-linecap="butt" stroke-linejoin="miter" stroke-miterlimit="2" stroke-opacity="1" stroke-width="0.92" transform="matrix(0.212296,0,0,0.212296,189.13,10.8696)"><text fill="#000000" fill-opacity="1" font-family="Liberation Sans" font-size="40" font-style="normal" font-weight="400" stroke="none" textLength="140" x="-182.094" xml:space="preserve" y="17.9219">dataOut</text></g><defs><clipPath id="clip62"><path d="M-855,-118 L15,-118 L15,271 L-855,271 L-855,-118 z"/></clipPath></defs><g clip-path="url(#clip62)" fill="none" opacity="1" stroke="#000000" stroke-linecap="butt" stroke-linejoin="miter" stroke-miterlimit="2" stroke-opacity="1" stroke-width="0.92" transform="matrix(0.212296,0,0,0.212296,189.13,27.1739)"><text fill="#000000" fill-opacity="1" font-family="Liberation Sans" font-size="40" font-style="normal" font-weight="400" stroke="none" textLength="139" x="-182.031" xml:space="preserve" y="17.9219">startOut</text></g><defs><clipPath id="clip65"><path d="M-855,-195 L15,-195 L15,194 L-855,194 L-855,-195 z"/></clipPath></defs><g clip-path="url(#clip65)" fill="none" opacity="1" stroke="#000000" stroke-linecap="butt" stroke-linejoin="miter" stroke-miterlimit="2" stroke-opacity="1" stroke-width="0.92" transform="matrix(0.212296,0,0,0.212296,189.13,43.4783)"><text fill="#000000" fill-opacity="1" font-family="Liberation Sans" font-size="40" font-style="normal" font-weight="400" stroke="none" textLength="128" x="-167.875" xml:space="preserve" y="17.9219">endOut</text></g><defs><clipPath id="clip68"><path d="M-855,-271 L15,-271 L15,118 L-855,118 L-855,-271 z"/></clipPath></defs><g clip-path="url(#clip68)" fill="none" opacity="1" stroke="#000000" stroke-linecap="butt" stroke-linejoin="miter" stroke-miterlimit="2" stroke-opacity="1" stroke-width="0.92" transform="matrix(0.212296,0,0,0.212296,189.13,59.7826)"><text fill="#000000" fill-opacity="1" font-family="Liberation Sans" font-size="40" font-style="normal" font-weight="400" stroke="none" textLength="142" x="-187.734" xml:space="preserve" y="17.9219">validOut</text></g><defs><clipPath id="clip71"><path d="M-855,-348 L15,-348 L15,41 L-855,41 L-855,-348 z"/></clipPath></defs><g clip-path="url(#clip71)" fill="none" opacity="1" stroke="#000000" stroke-linecap="butt" stroke-linejoin="miter" stroke-miterlimit="2" stroke-opacity="1" stroke-width="0.92" transform="matrix(0.212296,0,0,0.212296,189.13,76.087)"><text fill="#000000" fill-opacity="1" font-family="Liberation Sans" font-size="40" font-style="normal" font-weight="400" stroke="none" textLength="48" x="-62.5312" xml:space="preserve" y="17.9219">err</text></g><defs><clipPath id="clip77"><path d="M-7,-2 L177,-2 L177,78 L-7,78 L-7,-2 z"/></clipPath></defs><g clip-path="url(#clip77)" fill="none" opacity="1" stroke="#000000" stroke-linecap="butt" stroke-linejoin="miter" stroke-miterlimit="2" stroke-opacity="1" stroke-width="0.967197" transform="matrix(1.08696,0,0,1.08696,7.6087,2.17391)"><path d="M0,0 L170,0 L170,76 L0,76 L0,0 z" fill-rule="evenodd" vector-effect="none"/></g></g></svg>
