<?xml version="1.0" encoding="UTF-8"?><svg width="52.9167mm" height="36.7771mm" viewBox="0 0 200 139" xmlns="http://www.w3.org/2000/svg" xmlns:xlink="http://www.w3.org/1999/xlink"><g fill="none" stroke="black" stroke-width="1" fill-rule="evenodd" stroke-linecap="square" stroke-linejoin="bevel"><g clip-path="none" fill="none" opacity="1" stroke="none" stroke-opacity="0" transform="matrix(1,0,0,1,0,0)"><path d="M0,0 L200,0 L200,139 L0,139 L0,0 z" fill-rule="evenodd" vector-effect="none"/></g><defs><clipPath id="clip3"><path d="M7,31 L-82,31 L-82,-31 L7,-31 L7,31 z"/></clipPath></defs><g clip-path="url(#clip3)" fill="none" opacity="1" stroke="#000000" stroke-linecap="round" stroke-linejoin="miter" stroke-miterlimit="2" stroke-opacity="1" stroke-width="2" transform="matrix(-2.24719,0,0,-2.24719,15.7303,69.6629)"><path d="M5,-5 L0,0 L5,5" fill-rule="evenodd" vector-effect="none"/></g><defs><clipPath id="clip6"><path d="M-82,-31 L7,-31 L7,31 L-82,31 L-82,-31 z"/></clipPath></defs><g clip-path="url(#clip6)" fill="none" opacity="1" stroke="#000000" stroke-linecap="round" stroke-linejoin="miter" stroke-miterlimit="2" stroke-opacity="1" stroke-width="2" transform="matrix(2.24719,0,0,2.24719,184.27,69.6629)"><path d="M0,-5 L5,0 L0,5" fill-rule="evenodd" vector-effect="none"/></g><defs><clipPath id="clip9"><path d="M-7,-2 L82,-2 L82,60 L-7,60 L-7,-2 z"/></clipPath></defs><g clip-path="url(#clip9)" fill="#ffffff" fill-opacity="1" opacity="1" stroke="none" stroke-opacity="0" transform="matrix(2.24719,0,0,2.24719,15.7303,4.49438)"><path d="M0,0 L75,0 L75,58 L0,58 L0,0 z" fill-rule="evenodd" vector-effect="none"/></g><defs><clipPath id="clip13"><path d="M20,60 L95,60 L95,118 L20,118 L20,60 z"/></clipPath></defs><g clip-path="url(#clip13)" fill="none" opacity="1" stroke="#000000" stroke-linecap="butt" stroke-linejoin="miter" stroke-miterlimit="2" stroke-opacity="1" stroke-width="0.445" transform="matrix(2.24719,0,0,2.24719,-28.0899,-131.461)"><polyline fill="none" points="26,72 30,69" vector-effect="none"/></g><defs><clipPath id="clip14"><path d="M20,60 L95,60 L95,118 L20,118 L20,60 z"/></clipPath></defs><g clip-path="url(#clip14)" fill="none" opacity="1" stroke="#000000" stroke-linecap="butt" stroke-linejoin="miter" stroke-miterlimit="2" stroke-opacity="1" stroke-width="0.445" transform="matrix(2.24719,0,0,2.24719,-28.0899,-131.461)"><polyline fill="none" points="30,69 33,67" vector-effect="none"/></g><defs><clipPath id="clip15"><path d="M20,60 L95,60 L95,118 L20,118 L20,60 z"/></clipPath></defs><g clip-path="url(#clip15)" fill="none" opacity="1" stroke="#000000" stroke-linecap="butt" stroke-linejoin="miter" stroke-miterlimit="2" stroke-opacity="1" stroke-width="0.445" transform="matrix(2.24719,0,0,2.24719,-28.0899,-131.461)"><polyline fill="none" points="33,67 36,67" vector-effect="none"/></g><defs><clipPath id="clip16"><path d="M20,60 L95,60 L95,118 L20,118 L20,60 z"/></clipPath></defs><g clip-path="url(#clip16)" fill="none" opacity="1" stroke="#000000" stroke-linecap="butt" stroke-linejoin="miter" stroke-miterlimit="2" stroke-opacity="1" stroke-width="0.445" transform="matrix(2.24719,0,0,2.24719,-28.0899,-131.461)"><polyline fill="none" points="36,67 39,69" vector-effect="none"/></g><defs><clipPath id="clip17"><path d="M20,60 L95,60 L95,118 L20,118 L20,60 z"/></clipPath></defs><g clip-path="url(#clip17)" fill="none" opacity="1" stroke="#000000" stroke-linecap="butt" stroke-linejoin="miter" stroke-miterlimit="2" stroke-opacity="1" stroke-width="0.445" transform="matrix(2.24719,0,0,2.24719,-28.0899,-131.461)"><polyline fill="none" points="39,69 42,72" vector-effect="none"/></g><defs><clipPath id="clip18"><path d="M20,60 L95,60 L95,118 L20,118 L20,60 z"/></clipPath></defs><g clip-path="url(#clip18)" fill="none" opacity="1" stroke="#000000" stroke-linecap="butt" stroke-linejoin="miter" stroke-miterlimit="2" stroke-opacity="1" stroke-width="0.445" transform="matrix(2.24719,0,0,2.24719,-28.0899,-131.461)"><polyline fill="none" points="42,72 45,75" vector-effect="none"/></g><defs><clipPath id="clip19"><path d="M20,60 L95,60 L95,118 L20,118 L20,60 z"/></clipPath></defs><g clip-path="url(#clip19)" fill="none" opacity="1" stroke="#000000" stroke-linecap="butt" stroke-linejoin="miter" stroke-miterlimit="2" stroke-opacity="1" stroke-width="0.445" transform="matrix(2.24719,0,0,2.24719,-28.0899,-131.461)"><polyline fill="none" points="45,75 48,77" vector-effect="none"/></g><defs><clipPath id="clip20"><path d="M20,60 L95,60 L95,118 L20,118 L20,60 z"/></clipPath></defs><g clip-path="url(#clip20)" fill="none" opacity="1" stroke="#000000" stroke-linecap="butt" stroke-linejoin="miter" stroke-miterlimit="2" stroke-opacity="1" stroke-width="0.445" transform="matrix(2.24719,0,0,2.24719,-28.0899,-131.461)"><polyline fill="none" points="48,77 51,77" vector-effect="none"/></g><defs><clipPath id="clip21"><path d="M20,60 L95,60 L95,118 L20,118 L20,60 z"/></clipPath></defs><g clip-path="url(#clip21)" fill="none" opacity="1" stroke="#000000" stroke-linecap="butt" stroke-linejoin="miter" stroke-miterlimit="2" stroke-opacity="1" stroke-width="0.445" transform="matrix(2.24719,0,0,2.24719,-28.0899,-131.461)"><polyline fill="none" points="51,77 54,75" vector-effect="none"/></g><defs><clipPath id="clip22"><path d="M20,60 L95,60 L95,118 L20,118 L20,60 z"/></clipPath></defs><g clip-path="url(#clip22)" fill="none" opacity="1" stroke="#000000" stroke-linecap="butt" stroke-linejoin="miter" stroke-miterlimit="2" stroke-opacity="1" stroke-width="0.445" transform="matrix(2.24719,0,0,2.24719,-28.0899,-131.461)"><polyline fill="none" points="54,75 58,72" vector-effect="none"/></g><defs><clipPath id="clip23"><path d="M20,60 L95,60 L95,118 L20,118 L20,60 z"/></clipPath></defs><g clip-path="url(#clip23)" fill="none" opacity="1" stroke="#000000" stroke-linecap="butt" stroke-linejoin="miter" stroke-miterlimit="2" stroke-opacity="1" stroke-width="0.445" transform="matrix(2.24719,0,0,2.24719,-28.0899,-131.461)"><polyline fill="none" points="58,72 58,65" vector-effect="none"/></g><defs><clipPath id="clip24"><path d="M20,60 L95,60 L95,118 L20,118 L20,60 z"/></clipPath></defs><g clip-path="url(#clip24)" fill="none" opacity="1" stroke="#000000" stroke-linecap="butt" stroke-linejoin="miter" stroke-miterlimit="2" stroke-opacity="1" stroke-width="0.445" transform="matrix(2.24719,0,0,2.24719,-28.0899,-131.461)"><polyline fill="none" points="58,65 58,77" vector-effect="none"/></g><defs><clipPath id="clip25"><path d="M20,60 L95,60 L95,118 L20,118 L20,60 z"/></clipPath></defs><g clip-path="url(#clip25)" fill="none" opacity="1" stroke="#000000" stroke-linecap="butt" stroke-linejoin="miter" stroke-miterlimit="2" stroke-opacity="1" stroke-width="0.445" transform="matrix(2.24719,0,0,2.24719,-28.0899,-131.461)"><polyline fill="none" points="58,77 58,72" vector-effect="none"/></g><defs><clipPath id="clip26"><path d="M20,60 L95,60 L95,118 L20,118 L20,60 z"/></clipPath></defs><g clip-path="url(#clip26)" fill="none" opacity="1" stroke="#000000" stroke-linecap="butt" stroke-linejoin="miter" stroke-miterlimit="2" stroke-opacity="1" stroke-width="0.445" transform="matrix(2.24719,0,0,2.24719,-28.0899,-131.461)"><polyline fill="none" points="58,72 58,67" vector-effect="none"/></g><defs><clipPath id="clip27"><path d="M20,60 L95,60 L95,118 L20,118 L20,60 z"/></clipPath></defs><g clip-path="url(#clip27)" fill="none" opacity="1" stroke="#000000" stroke-linecap="butt" stroke-linejoin="miter" stroke-miterlimit="2" stroke-opacity="1" stroke-width="0.445" transform="matrix(2.24719,0,0,2.24719,-28.0899,-131.461)"><polyline fill="none" points="58,67 59,72" vector-effect="none"/></g><defs><clipPath id="clip28"><path d="M20,60 L95,60 L95,118 L20,118 L20,60 z"/></clipPath></defs><g clip-path="url(#clip28)" fill="none" opacity="1" stroke="#000000" stroke-linecap="butt" stroke-linejoin="miter" stroke-miterlimit="2" stroke-opacity="1" stroke-width="0.445" transform="matrix(2.24719,0,0,2.24719,-28.0899,-131.461)"><polyline fill="none" points="59,72 59,76" vector-effect="none"/></g><defs><clipPath id="clip29"><path d="M20,60 L95,60 L95,118 L20,118 L20,60 z"/></clipPath></defs><g clip-path="url(#clip29)" fill="none" opacity="1" stroke="#000000" stroke-linecap="butt" stroke-linejoin="miter" stroke-miterlimit="2" stroke-opacity="1" stroke-width="0.445" transform="matrix(2.24719,0,0,2.24719,-28.0899,-131.461)"><polyline fill="none" points="59,76 60,76" vector-effect="none"/></g><defs><clipPath id="clip30"><path d="M20,60 L95,60 L95,118 L20,118 L20,60 z"/></clipPath></defs><g clip-path="url(#clip30)" fill="none" opacity="1" stroke="#000000" stroke-linecap="butt" stroke-linejoin="miter" stroke-miterlimit="2" stroke-opacity="1" stroke-width="0.445" transform="matrix(2.24719,0,0,2.24719,-28.0899,-131.461)"><polyline fill="none" points="60,76 60,70" vector-effect="none"/></g><defs><clipPath id="clip31"><path d="M20,60 L95,60 L95,118 L20,118 L20,60 z"/></clipPath></defs><g clip-path="url(#clip31)" fill="none" opacity="1" stroke="#000000" stroke-linecap="butt" stroke-linejoin="miter" stroke-miterlimit="2" stroke-opacity="1" stroke-width="0.445" transform="matrix(2.24719,0,0,2.24719,-28.0899,-131.461)"><polyline fill="none" points="60,70 61,67" vector-effect="none"/></g><defs><clipPath id="clip32"><path d="M20,60 L95,60 L95,118 L20,118 L20,60 z"/></clipPath></defs><g clip-path="url(#clip32)" fill="none" opacity="1" stroke="#000000" stroke-linecap="butt" stroke-linejoin="miter" stroke-miterlimit="2" stroke-opacity="1" stroke-width="0.445" transform="matrix(2.24719,0,0,2.24719,-28.0899,-131.461)"><polyline fill="none" points="61,67 61,70" vector-effect="none"/></g><defs><clipPath id="clip33"><path d="M20,60 L95,60 L95,118 L20,118 L20,60 z"/></clipPath></defs><g clip-path="url(#clip33)" fill="none" opacity="1" stroke="#000000" stroke-linecap="butt" stroke-linejoin="miter" stroke-miterlimit="2" stroke-opacity="1" stroke-width="0.445" transform="matrix(2.24719,0,0,2.24719,-28.0899,-131.461)"><polyline fill="none" points="61,70 62,76" vector-effect="none"/></g><defs><clipPath id="clip34"><path d="M20,60 L95,60 L95,118 L20,118 L20,60 z"/></clipPath></defs><g clip-path="url(#clip34)" fill="none" opacity="1" stroke="#000000" stroke-linecap="butt" stroke-linejoin="miter" stroke-miterlimit="2" stroke-opacity="1" stroke-width="0.445" transform="matrix(2.24719,0,0,2.24719,-28.0899,-131.461)"><polyline fill="none" points="62,76 62,75" vector-effect="none"/></g><defs><clipPath id="clip35"><path d="M20,60 L95,60 L95,118 L20,118 L20,60 z"/></clipPath></defs><g clip-path="url(#clip35)" fill="none" opacity="1" stroke="#000000" stroke-linecap="butt" stroke-linejoin="miter" stroke-miterlimit="2" stroke-opacity="1" stroke-width="0.445" transform="matrix(2.24719,0,0,2.24719,-28.0899,-131.461)"><polyline fill="none" points="62,75 63,69" vector-effect="none"/></g><defs><clipPath id="clip36"><path d="M20,60 L95,60 L95,118 L20,118 L20,60 z"/></clipPath></defs><g clip-path="url(#clip36)" fill="none" opacity="1" stroke="#000000" stroke-linecap="butt" stroke-linejoin="miter" stroke-miterlimit="2" stroke-opacity="1" stroke-width="0.445" transform="matrix(2.24719,0,0,2.24719,-28.0899,-131.461)"><polyline fill="none" points="63,69 63,67" vector-effect="none"/></g><defs><clipPath id="clip37"><path d="M20,60 L95,60 L95,118 L20,118 L20,60 z"/></clipPath></defs><g clip-path="url(#clip37)" fill="none" opacity="1" stroke="#000000" stroke-linecap="butt" stroke-linejoin="miter" stroke-miterlimit="2" stroke-opacity="1" stroke-width="0.445" transform="matrix(2.24719,0,0,2.24719,-28.0899,-131.461)"><polyline fill="none" points="63,67 64,73" vector-effect="none"/></g><defs><clipPath id="clip38"><path d="M20,60 L95,60 L95,118 L20,118 L20,60 z"/></clipPath></defs><g clip-path="url(#clip38)" fill="none" opacity="1" stroke="#000000" stroke-linecap="butt" stroke-linejoin="miter" stroke-miterlimit="2" stroke-opacity="1" stroke-width="0.445" transform="matrix(2.24719,0,0,2.24719,-28.0899,-131.461)"><polyline fill="none" points="64,73 64,77" vector-effect="none"/></g><defs><clipPath id="clip39"><path d="M20,60 L95,60 L95,118 L20,118 L20,60 z"/></clipPath></defs><g clip-path="url(#clip39)" fill="none" opacity="1" stroke="#000000" stroke-linecap="butt" stroke-linejoin="miter" stroke-miterlimit="2" stroke-opacity="1" stroke-width="0.445" transform="matrix(2.24719,0,0,2.24719,-28.0899,-131.461)"><polyline fill="none" points="64,77 64,72" vector-effect="none"/></g><defs><clipPath id="clip40"><path d="M20,60 L95,60 L95,118 L20,118 L20,60 z"/></clipPath></defs><g clip-path="url(#clip40)" fill="none" opacity="1" stroke="#000000" stroke-linecap="butt" stroke-linejoin="miter" stroke-miterlimit="2" stroke-opacity="1" stroke-width="0.445" transform="matrix(2.24719,0,0,2.24719,-28.0899,-131.461)"><polyline fill="none" points="64,72 65,67" vector-effect="none"/></g><defs><clipPath id="clip41"><path d="M20,60 L95,60 L95,118 L20,118 L20,60 z"/></clipPath></defs><g clip-path="url(#clip41)" fill="none" opacity="1" stroke="#000000" stroke-linecap="butt" stroke-linejoin="miter" stroke-miterlimit="2" stroke-opacity="1" stroke-width="0.445" transform="matrix(2.24719,0,0,2.24719,-28.0899,-131.461)"><polyline fill="none" points="65,67 65,71" vector-effect="none"/></g><defs><clipPath id="clip42"><path d="M20,60 L95,60 L95,118 L20,118 L20,60 z"/></clipPath></defs><g clip-path="url(#clip42)" fill="none" opacity="1" stroke="#000000" stroke-linecap="butt" stroke-linejoin="miter" stroke-miterlimit="2" stroke-opacity="1" stroke-width="0.445" transform="matrix(2.24719,0,0,2.24719,-28.0899,-131.461)"><polyline fill="none" points="65,71 66,77" vector-effect="none"/></g><defs><clipPath id="clip43"><path d="M20,60 L95,60 L95,118 L20,118 L20,60 z"/></clipPath></defs><g clip-path="url(#clip43)" fill="none" opacity="1" stroke="#000000" stroke-linecap="butt" stroke-linejoin="miter" stroke-miterlimit="2" stroke-opacity="1" stroke-width="0.445" transform="matrix(2.24719,0,0,2.24719,-28.0899,-131.461)"><polyline fill="none" points="66,77 66,74" vector-effect="none"/></g><defs><clipPath id="clip44"><path d="M20,60 L95,60 L95,118 L20,118 L20,60 z"/></clipPath></defs><g clip-path="url(#clip44)" fill="none" opacity="1" stroke="#000000" stroke-linecap="butt" stroke-linejoin="miter" stroke-miterlimit="2" stroke-opacity="1" stroke-width="0.445" transform="matrix(2.24719,0,0,2.24719,-28.0899,-131.461)"><polyline fill="none" points="66,74 67,68" vector-effect="none"/></g><defs><clipPath id="clip45"><path d="M20,60 L95,60 L95,118 L20,118 L20,60 z"/></clipPath></defs><g clip-path="url(#clip45)" fill="none" opacity="1" stroke="#000000" stroke-linecap="butt" stroke-linejoin="miter" stroke-miterlimit="2" stroke-opacity="1" stroke-width="0.445" transform="matrix(2.24719,0,0,2.24719,-28.0899,-131.461)"><polyline fill="none" points="67,68 68,74" vector-effect="none"/></g><defs><clipPath id="clip46"><path d="M20,60 L95,60 L95,118 L20,118 L20,60 z"/></clipPath></defs><g clip-path="url(#clip46)" fill="none" opacity="1" stroke="#000000" stroke-linecap="butt" stroke-linejoin="miter" stroke-miterlimit="2" stroke-opacity="1" stroke-width="0.445" transform="matrix(2.24719,0,0,2.24719,-28.0899,-131.461)"><polyline fill="none" points="68,74 68,77" vector-effect="none"/></g><defs><clipPath id="clip47"><path d="M20,60 L95,60 L95,118 L20,118 L20,60 z"/></clipPath></defs><g clip-path="url(#clip47)" fill="none" opacity="1" stroke="#000000" stroke-linecap="butt" stroke-linejoin="miter" stroke-miterlimit="2" stroke-opacity="1" stroke-width="0.445" transform="matrix(2.24719,0,0,2.24719,-28.0899,-131.461)"><polyline fill="none" points="68,77 69,71" vector-effect="none"/></g><defs><clipPath id="clip48"><path d="M20,60 L95,60 L95,118 L20,118 L20,60 z"/></clipPath></defs><g clip-path="url(#clip48)" fill="none" opacity="1" stroke="#000000" stroke-linecap="butt" stroke-linejoin="miter" stroke-miterlimit="2" stroke-opacity="1" stroke-width="0.445" transform="matrix(2.24719,0,0,2.24719,-28.0899,-131.461)"><polyline fill="none" points="69,71 69,67" vector-effect="none"/></g><defs><clipPath id="clip49"><path d="M20,60 L95,60 L95,118 L20,118 L20,60 z"/></clipPath></defs><g clip-path="url(#clip49)" fill="none" opacity="1" stroke="#000000" stroke-linecap="butt" stroke-linejoin="miter" stroke-miterlimit="2" stroke-opacity="1" stroke-width="0.445" transform="matrix(2.24719,0,0,2.24719,-28.0899,-131.461)"><polyline fill="none" points="69,67 70,69" vector-effect="none"/></g><defs><clipPath id="clip50"><path d="M20,60 L95,60 L95,118 L20,118 L20,60 z"/></clipPath></defs><g clip-path="url(#clip50)" fill="none" opacity="1" stroke="#000000" stroke-linecap="butt" stroke-linejoin="miter" stroke-miterlimit="2" stroke-opacity="1" stroke-width="0.445" transform="matrix(2.24719,0,0,2.24719,-28.0899,-131.461)"><polyline fill="none" points="70,69 70,75" vector-effect="none"/></g><defs><clipPath id="clip51"><path d="M20,60 L95,60 L95,118 L20,118 L20,60 z"/></clipPath></defs><g clip-path="url(#clip51)" fill="none" opacity="1" stroke="#000000" stroke-linecap="butt" stroke-linejoin="miter" stroke-miterlimit="2" stroke-opacity="1" stroke-width="0.445" transform="matrix(2.24719,0,0,2.24719,-28.0899,-131.461)"><polyline fill="none" points="70,75 71,77" vector-effect="none"/></g><defs><clipPath id="clip52"><path d="M20,60 L95,60 L95,118 L20,118 L20,60 z"/></clipPath></defs><g clip-path="url(#clip52)" fill="none" opacity="1" stroke="#000000" stroke-linecap="butt" stroke-linejoin="miter" stroke-miterlimit="2" stroke-opacity="1" stroke-width="0.445" transform="matrix(2.24719,0,0,2.24719,-28.0899,-131.461)"><polyline fill="none" points="71,77 71,72" vector-effect="none"/></g><defs><clipPath id="clip53"><path d="M20,60 L95,60 L95,118 L20,118 L20,60 z"/></clipPath></defs><g clip-path="url(#clip53)" fill="none" opacity="1" stroke="#000000" stroke-linecap="butt" stroke-linejoin="miter" stroke-miterlimit="2" stroke-opacity="1" stroke-width="0.445" transform="matrix(2.24719,0,0,2.24719,-28.0899,-131.461)"><polyline fill="none" points="71,72 71,67" vector-effect="none"/></g><defs><clipPath id="clip54"><path d="M20,60 L95,60 L95,118 L20,118 L20,60 z"/></clipPath></defs><g clip-path="url(#clip54)" fill="none" opacity="1" stroke="#000000" stroke-linecap="butt" stroke-linejoin="miter" stroke-miterlimit="2" stroke-opacity="1" stroke-width="0.445" transform="matrix(2.24719,0,0,2.24719,-28.0899,-131.461)"><polyline fill="none" points="71,67 72,67" vector-effect="none"/></g><defs><clipPath id="clip55"><path d="M20,60 L95,60 L95,118 L20,118 L20,60 z"/></clipPath></defs><g clip-path="url(#clip55)" fill="none" opacity="1" stroke="#000000" stroke-linecap="butt" stroke-linejoin="miter" stroke-miterlimit="2" stroke-opacity="1" stroke-width="0.445" transform="matrix(2.24719,0,0,2.24719,-28.0899,-131.461)"><polyline fill="none" points="72,67 72,71" vector-effect="none"/></g><defs><clipPath id="clip56"><path d="M20,60 L95,60 L95,118 L20,118 L20,60 z"/></clipPath></defs><g clip-path="url(#clip56)" fill="none" opacity="1" stroke="#000000" stroke-linecap="butt" stroke-linejoin="miter" stroke-miterlimit="2" stroke-opacity="1" stroke-width="0.445" transform="matrix(2.24719,0,0,2.24719,-28.0899,-131.461)"><polyline fill="none" points="72,71 73,76" vector-effect="none"/></g><defs><clipPath id="clip57"><path d="M20,60 L95,60 L95,118 L20,118 L20,60 z"/></clipPath></defs><g clip-path="url(#clip57)" fill="none" opacity="1" stroke="#000000" stroke-linecap="butt" stroke-linejoin="miter" stroke-miterlimit="2" stroke-opacity="1" stroke-width="0.445" transform="matrix(2.24719,0,0,2.24719,-28.0899,-131.461)"><polyline fill="none" points="73,76 73,77" vector-effect="none"/></g><defs><clipPath id="clip58"><path d="M20,60 L95,60 L95,118 L20,118 L20,60 z"/></clipPath></defs><g clip-path="url(#clip58)" fill="none" opacity="1" stroke="#000000" stroke-linecap="butt" stroke-linejoin="miter" stroke-miterlimit="2" stroke-opacity="1" stroke-width="0.445" transform="matrix(2.24719,0,0,2.24719,-28.0899,-131.461)"><polyline fill="none" points="73,77 74,74" vector-effect="none"/></g><defs><clipPath id="clip59"><path d="M20,60 L95,60 L95,118 L20,118 L20,60 z"/></clipPath></defs><g clip-path="url(#clip59)" fill="none" opacity="1" stroke="#000000" stroke-linecap="butt" stroke-linejoin="miter" stroke-miterlimit="2" stroke-opacity="1" stroke-width="0.445" transform="matrix(2.24719,0,0,2.24719,-28.0899,-131.461)"><polyline fill="none" points="74,74 74,70" vector-effect="none"/></g><defs><clipPath id="clip60"><path d="M20,60 L95,60 L95,118 L20,118 L20,60 z"/></clipPath></defs><g clip-path="url(#clip60)" fill="none" opacity="1" stroke="#000000" stroke-linecap="butt" stroke-linejoin="miter" stroke-miterlimit="2" stroke-opacity="1" stroke-width="0.445" transform="matrix(2.24719,0,0,2.24719,-28.0899,-131.461)"><polyline fill="none" points="74,70 75,67" vector-effect="none"/></g><defs><clipPath id="clip61"><path d="M20,60 L95,60 L95,118 L20,118 L20,60 z"/></clipPath></defs><g clip-path="url(#clip61)" fill="none" opacity="1" stroke="#000000" stroke-linecap="butt" stroke-linejoin="miter" stroke-miterlimit="2" stroke-opacity="1" stroke-width="0.445" transform="matrix(2.24719,0,0,2.24719,-28.0899,-131.461)"><polyline fill="none" points="75,67 76,69" vector-effect="none"/></g><defs><clipPath id="clip62"><path d="M20,60 L95,60 L95,118 L20,118 L20,60 z"/></clipPath></defs><g clip-path="url(#clip62)" fill="none" opacity="1" stroke="#000000" stroke-linecap="butt" stroke-linejoin="miter" stroke-miterlimit="2" stroke-opacity="1" stroke-width="0.445" transform="matrix(2.24719,0,0,2.24719,-28.0899,-131.461)"><polyline fill="none" points="76,69 76,72" vector-effect="none"/></g><defs><clipPath id="clip63"><path d="M20,60 L95,60 L95,118 L20,118 L20,60 z"/></clipPath></defs><g clip-path="url(#clip63)" fill="none" opacity="1" stroke="#000000" stroke-linecap="butt" stroke-linejoin="miter" stroke-miterlimit="2" stroke-opacity="1" stroke-width="0.445" transform="matrix(2.24719,0,0,2.24719,-28.0899,-131.461)"><polyline fill="none" points="76,72 77,75" vector-effect="none"/></g><defs><clipPath id="clip64"><path d="M20,60 L95,60 L95,118 L20,118 L20,60 z"/></clipPath></defs><g clip-path="url(#clip64)" fill="none" opacity="1" stroke="#000000" stroke-linecap="butt" stroke-linejoin="miter" stroke-miterlimit="2" stroke-opacity="1" stroke-width="0.445" transform="matrix(2.24719,0,0,2.24719,-28.0899,-131.461)"><polyline fill="none" points="77,75 77,77" vector-effect="none"/></g><defs><clipPath id="clip65"><path d="M20,60 L95,60 L95,118 L20,118 L20,60 z"/></clipPath></defs><g clip-path="url(#clip65)" fill="none" opacity="1" stroke="#000000" stroke-linecap="butt" stroke-linejoin="miter" stroke-miterlimit="2" stroke-opacity="1" stroke-width="0.445" transform="matrix(2.24719,0,0,2.24719,-28.0899,-131.461)"><polyline fill="none" points="77,77 78,77" vector-effect="none"/></g><defs><clipPath id="clip66"><path d="M20,60 L95,60 L95,118 L20,118 L20,60 z"/></clipPath></defs><g clip-path="url(#clip66)" fill="none" opacity="1" stroke="#000000" stroke-linecap="butt" stroke-linejoin="miter" stroke-miterlimit="2" stroke-opacity="1" stroke-width="0.445" transform="matrix(2.24719,0,0,2.24719,-28.0899,-131.461)"><polyline fill="none" points="78,77 78,76" vector-effect="none"/></g><defs><clipPath id="clip67"><path d="M20,60 L95,60 L95,118 L20,118 L20,60 z"/></clipPath></defs><g clip-path="url(#clip67)" fill="none" opacity="1" stroke="#000000" stroke-linecap="butt" stroke-linejoin="miter" stroke-miterlimit="2" stroke-opacity="1" stroke-width="0.445" transform="matrix(2.24719,0,0,2.24719,-28.0899,-131.461)"><polyline fill="none" points="78,76 78,74" vector-effect="none"/></g><defs><clipPath id="clip68"><path d="M20,60 L95,60 L95,118 L20,118 L20,60 z"/></clipPath></defs><g clip-path="url(#clip68)" fill="none" opacity="1" stroke="#000000" stroke-linecap="butt" stroke-linejoin="miter" stroke-miterlimit="2" stroke-opacity="1" stroke-width="0.445" transform="matrix(2.24719,0,0,2.24719,-28.0899,-131.461)"><polyline fill="none" points="78,74 79,71" vector-effect="none"/></g><defs><clipPath id="clip69"><path d="M20,60 L95,60 L95,118 L20,118 L20,60 z"/></clipPath></defs><g clip-path="url(#clip69)" fill="none" opacity="1" stroke="#000000" stroke-linecap="butt" stroke-linejoin="miter" stroke-miterlimit="2" stroke-opacity="1" stroke-width="0.445" transform="matrix(2.24719,0,0,2.24719,-28.0899,-131.461)"><polyline fill="none" points="79,71 79,69" vector-effect="none"/></g><defs><clipPath id="clip70"><path d="M20,60 L95,60 L95,118 L20,118 L20,60 z"/></clipPath></defs><g clip-path="url(#clip70)" fill="none" opacity="1" stroke="#000000" stroke-linecap="butt" stroke-linejoin="miter" stroke-miterlimit="2" stroke-opacity="1" stroke-width="0.445" transform="matrix(2.24719,0,0,2.24719,-28.0899,-131.461)"><polyline fill="none" points="79,69 80,67" vector-effect="none"/></g><defs><clipPath id="clip71"><path d="M20,60 L95,60 L95,118 L20,118 L20,60 z"/></clipPath></defs><g clip-path="url(#clip71)" fill="none" opacity="1" stroke="#000000" stroke-linecap="butt" stroke-linejoin="miter" stroke-miterlimit="2" stroke-opacity="1" stroke-width="0.445" transform="matrix(2.24719,0,0,2.24719,-28.0899,-131.461)"><polyline fill="none" points="80,67 81,67" vector-effect="none"/></g><defs><clipPath id="clip72"><path d="M20,60 L95,60 L95,118 L20,118 L20,60 z"/></clipPath></defs><g clip-path="url(#clip72)" fill="none" opacity="1" stroke="#000000" stroke-linecap="butt" stroke-linejoin="miter" stroke-miterlimit="2" stroke-opacity="1" stroke-width="0.445" transform="matrix(2.24719,0,0,2.24719,-28.0899,-131.461)"><polyline fill="none" points="81,67 81,68" vector-effect="none"/></g><defs><clipPath id="clip73"><path d="M20,60 L95,60 L95,118 L20,118 L20,60 z"/></clipPath></defs><g clip-path="url(#clip73)" fill="none" opacity="1" stroke="#000000" stroke-linecap="butt" stroke-linejoin="miter" stroke-miterlimit="2" stroke-opacity="1" stroke-width="0.445" transform="matrix(2.24719,0,0,2.24719,-28.0899,-131.461)"><polyline fill="none" points="81,68 82,70" vector-effect="none"/></g><defs><clipPath id="clip74"><path d="M20,60 L95,60 L95,118 L20,118 L20,60 z"/></clipPath></defs><g clip-path="url(#clip74)" fill="none" opacity="1" stroke="#000000" stroke-linecap="butt" stroke-linejoin="miter" stroke-miterlimit="2" stroke-opacity="1" stroke-width="0.445" transform="matrix(2.24719,0,0,2.24719,-28.0899,-131.461)"><polyline fill="none" points="82,70 82,72" vector-effect="none"/></g><defs><clipPath id="clip75"><path d="M20,60 L95,60 L95,118 L20,118 L20,60 z"/></clipPath></defs><g clip-path="url(#clip75)" fill="none" opacity="1" stroke="#000000" stroke-linecap="butt" stroke-linejoin="miter" stroke-miterlimit="2" stroke-opacity="1" stroke-width="0.445" transform="matrix(2.24719,0,0,2.24719,-28.0899,-131.461)"><polyline fill="none" points="82,72 83,75" vector-effect="none"/></g><defs><clipPath id="clip76"><path d="M20,60 L95,60 L95,118 L20,118 L20,60 z"/></clipPath></defs><g clip-path="url(#clip76)" fill="none" opacity="1" stroke="#000000" stroke-linecap="butt" stroke-linejoin="miter" stroke-miterlimit="2" stroke-opacity="1" stroke-width="0.445" transform="matrix(2.24719,0,0,2.24719,-28.0899,-131.461)"><polyline fill="none" points="83,75 83,76" vector-effect="none"/></g><defs><clipPath id="clip77"><path d="M20,60 L95,60 L95,118 L20,118 L20,60 z"/></clipPath></defs><g clip-path="url(#clip77)" fill="none" opacity="1" stroke="#000000" stroke-linecap="butt" stroke-linejoin="miter" stroke-miterlimit="2" stroke-opacity="1" stroke-width="0.445" transform="matrix(2.24719,0,0,2.24719,-28.0899,-131.461)"><polyline fill="none" points="83,76 84,77" vector-effect="none"/></g><defs><clipPath id="clip78"><path d="M20,60 L95,60 L95,118 L20,118 L20,60 z"/></clipPath></defs><g clip-path="url(#clip78)" fill="none" opacity="1" stroke="#000000" stroke-linecap="butt" stroke-linejoin="miter" stroke-miterlimit="2" stroke-opacity="1" stroke-width="0.445" transform="matrix(2.24719,0,0,2.24719,-28.0899,-131.461)"><polyline fill="none" points="84,77 84,76" vector-effect="none"/></g><defs><clipPath id="clip79"><path d="M20,60 L95,60 L95,118 L20,118 L20,60 z"/></clipPath></defs><g clip-path="url(#clip79)" fill="none" opacity="1" stroke="#000000" stroke-linecap="butt" stroke-linejoin="miter" stroke-miterlimit="2" stroke-opacity="1" stroke-width="0.445" transform="matrix(2.24719,0,0,2.24719,-28.0899,-131.461)"><polyline fill="none" points="84,76 85,74" vector-effect="none"/></g><defs><clipPath id="clip80"><path d="M20,60 L95,60 L95,118 L20,118 L20,60 z"/></clipPath></defs><g clip-path="url(#clip80)" fill="none" opacity="1" stroke="#000000" stroke-linecap="butt" stroke-linejoin="miter" stroke-miterlimit="2" stroke-opacity="1" stroke-width="0.445" transform="matrix(2.24719,0,0,2.24719,-28.0899,-131.461)"><polyline fill="none" points="85,74 85,71" vector-effect="none"/></g><defs><clipPath id="clip81"><path d="M20,60 L95,60 L95,118 L20,118 L20,60 z"/></clipPath></defs><g clip-path="url(#clip81)" fill="none" opacity="1" stroke="#000000" stroke-linecap="butt" stroke-linejoin="miter" stroke-miterlimit="2" stroke-opacity="1" stroke-width="0.445" transform="matrix(2.24719,0,0,2.24719,-28.0899,-131.461)"><polyline fill="none" points="85,71 85,68" vector-effect="none"/></g><defs><clipPath id="clip82"><path d="M20,60 L95,60 L95,118 L20,118 L20,60 z"/></clipPath></defs><g clip-path="url(#clip82)" fill="none" opacity="1" stroke="#000000" stroke-linecap="butt" stroke-linejoin="miter" stroke-miterlimit="2" stroke-opacity="1" stroke-width="0.445" transform="matrix(2.24719,0,0,2.24719,-28.0899,-131.461)"><polyline fill="none" points="85,68 86,67" vector-effect="none"/></g><defs><clipPath id="clip83"><path d="M20,60 L95,60 L95,118 L20,118 L20,60 z"/></clipPath></defs><g clip-path="url(#clip83)" fill="none" opacity="1" stroke="#000000" stroke-linecap="butt" stroke-linejoin="miter" stroke-miterlimit="2" stroke-opacity="1" stroke-width="0.445" transform="matrix(2.24719,0,0,2.24719,-28.0899,-131.461)"><polyline fill="none" points="86,67 86,68" vector-effect="none"/></g><defs><clipPath id="clip84"><path d="M20,60 L95,60 L95,118 L20,118 L20,60 z"/></clipPath></defs><g clip-path="url(#clip84)" fill="none" opacity="1" stroke="#000000" stroke-linecap="butt" stroke-linejoin="miter" stroke-miterlimit="2" stroke-opacity="1" stroke-width="0.445" transform="matrix(2.24719,0,0,2.24719,-28.0899,-131.461)"><polyline fill="none" points="86,68 87,71" vector-effect="none"/></g><defs><clipPath id="clip85"><path d="M20,60 L95,60 L95,118 L20,118 L20,60 z"/></clipPath></defs><g clip-path="url(#clip85)" fill="none" opacity="1" stroke="#000000" stroke-linecap="butt" stroke-linejoin="miter" stroke-miterlimit="2" stroke-opacity="1" stroke-width="0.445" transform="matrix(2.24719,0,0,2.24719,-28.0899,-131.461)"><polyline fill="none" points="87,71 87,75" vector-effect="none"/></g><defs><clipPath id="clip86"><path d="M20,60 L95,60 L95,118 L20,118 L20,60 z"/></clipPath></defs><g clip-path="url(#clip86)" fill="none" opacity="1" stroke="#000000" stroke-linecap="butt" stroke-linejoin="miter" stroke-miterlimit="2" stroke-opacity="1" stroke-width="0.445" transform="matrix(2.24719,0,0,2.24719,-28.0899,-131.461)"><polyline fill="none" points="87,75 88,77" vector-effect="none"/></g><defs><clipPath id="clip87"><path d="M20,60 L95,60 L95,118 L20,118 L20,60 z"/></clipPath></defs><g clip-path="url(#clip87)" fill="none" opacity="1" stroke="#000000" stroke-linecap="butt" stroke-linejoin="miter" stroke-miterlimit="2" stroke-opacity="1" stroke-width="0.445" transform="matrix(2.24719,0,0,2.24719,-28.0899,-131.461)"><polyline fill="none" points="88,77 88,75" vector-effect="none"/></g><defs><clipPath id="clip89"><path d="M-189,-148 L195,-148 L195,149 L-189,149 L-189,-148 z"/></clipPath></defs><g clip-path="url(#clip89)" fill="none" opacity="1" stroke="#000000" stroke-linecap="butt" stroke-linejoin="miter" stroke-miterlimit="2" stroke-opacity="1" stroke-width="0.445" transform="matrix(0.438904,0,0,0.438904,98.8764,69.6629)"><text fill="#000000" fill-opacity="1" font-family="Liberation Sans" font-size="40" font-style="normal" font-weight="400" stroke="none" textLength="57" x="-36.9375" xml:space="preserve" y="17.9219">FM</text></g><defs><clipPath id="clip95"><path d="M-7,-2 L82,-2 L82,60 L-7,60 L-7,-2 z"/></clipPath></defs><g clip-path="url(#clip95)" fill="none" opacity="1" stroke="#000000" stroke-linecap="butt" stroke-linejoin="miter" stroke-miterlimit="2" stroke-opacity="1" stroke-width="0.723343" transform="matrix(2.24719,0,0,2.24719,15.7303,4.49438)"><path d="M0,0 L75,0 L75,58 L0,58 L0,0 z" fill-rule="evenodd" vector-effect="none"/></g></g></svg>
