<?xml version="1.0" encoding="UTF-8"?><svg width="52.9167mm" height="36.7771mm" viewBox="0 0 200 139" xmlns="http://www.w3.org/2000/svg" xmlns:xlink="http://www.w3.org/1999/xlink"><g fill="none" stroke="black" stroke-width="1" fill-rule="evenodd" stroke-linecap="square" stroke-linejoin="bevel"><g clip-path="none" fill="none" opacity="1" stroke="none" stroke-opacity="0" transform="matrix(1,0,0,1,0,0)"><path d="M0,0 L200,0 L200,139 L0,139 L0,0 z" fill-rule="evenodd" vector-effect="none"/></g><defs><clipPath id="clip3"><path d="M-82,-31 L7,-31 L7,31 L-82,31 L-82,-31 z"/></clipPath></defs><g clip-path="url(#clip3)" fill="none" opacity="1" stroke="#000000" stroke-linecap="round" stroke-linejoin="miter" stroke-miterlimit="2" stroke-opacity="1" stroke-width="2" transform="matrix(2.24719,0,0,2.24719,184.27,69.6629)"><path d="M0,-5 L5,0 L0,5" fill-rule="evenodd" vector-effect="none"/></g><defs><clipPath id="clip6"><path d="M7,31 L-82,31 L-82,-31 L7,-31 L7,31 z"/></clipPath></defs><g clip-path="url(#clip6)" fill="none" opacity="1" stroke="#000000" stroke-linecap="round" stroke-linejoin="miter" stroke-miterlimit="2" stroke-opacity="1" stroke-width="2" transform="matrix(-2.24719,0,0,-2.24719,15.7303,69.6629)"><path d="M5,-5 L0,0 L5,5" fill-rule="evenodd" vector-effect="none"/></g><defs><clipPath id="clip9"><path d="M-7,-2 L82,-2 L82,60 L-7,60 L-7,-2 z"/></clipPath></defs><g clip-path="url(#clip9)" fill="#ffffff" fill-opacity="1" opacity="1" stroke="none" stroke-opacity="0" transform="matrix(2.24719,0,0,2.24719,15.7303,4.49438)"><path d="M0,0 L75,0 L75,58 L0,58 L0,0 z" fill-rule="evenodd" vector-effect="none"/></g><defs><clipPath id="clip13"><path d="M149,60 L224,60 L224,118 L149,118 L149,60 z"/></clipPath></defs><g clip-path="url(#clip13)" fill="none" opacity="1" stroke="#000000" stroke-linecap="butt" stroke-linejoin="miter" stroke-miterlimit="2" stroke-opacity="1" stroke-width="0.445" transform="matrix(2.24719,0,0,2.24719,-320.225,-131.461)"><polyline fill="none" points="156,72 157,67" vector-effect="none"/></g><defs><clipPath id="clip14"><path d="M149,60 L224,60 L224,118 L149,118 L149,60 z"/></clipPath></defs><g clip-path="url(#clip14)" fill="none" opacity="1" stroke="#000000" stroke-linecap="butt" stroke-linejoin="miter" stroke-miterlimit="2" stroke-opacity="1" stroke-width="0.445" transform="matrix(2.24719,0,0,2.24719,-320.225,-131.461)"><polyline fill="none" points="157,67 158,72" vector-effect="none"/></g><defs><clipPath id="clip15"><path d="M149,60 L224,60 L224,118 L149,118 L149,60 z"/></clipPath></defs><g clip-path="url(#clip15)" fill="none" opacity="1" stroke="#000000" stroke-linecap="butt" stroke-linejoin="miter" stroke-miterlimit="2" stroke-opacity="1" stroke-width="0.445" transform="matrix(2.24719,0,0,2.24719,-320.225,-131.461)"><polyline fill="none" points="158,72 158,76" vector-effect="none"/></g><defs><clipPath id="clip16"><path d="M149,60 L224,60 L224,118 L149,118 L149,60 z"/></clipPath></defs><g clip-path="url(#clip16)" fill="none" opacity="1" stroke="#000000" stroke-linecap="butt" stroke-linejoin="miter" stroke-miterlimit="2" stroke-opacity="1" stroke-width="0.445" transform="matrix(2.24719,0,0,2.24719,-320.225,-131.461)"><polyline fill="none" points="158,76 159,76" vector-effect="none"/></g><defs><clipPath id="clip17"><path d="M149,60 L224,60 L224,118 L149,118 L149,60 z"/></clipPath></defs><g clip-path="url(#clip17)" fill="none" opacity="1" stroke="#000000" stroke-linecap="butt" stroke-linejoin="miter" stroke-miterlimit="2" stroke-opacity="1" stroke-width="0.445" transform="matrix(2.24719,0,0,2.24719,-320.225,-131.461)"><polyline fill="none" points="159,76 159,70" vector-effect="none"/></g><defs><clipPath id="clip18"><path d="M149,60 L224,60 L224,118 L149,118 L149,60 z"/></clipPath></defs><g clip-path="url(#clip18)" fill="none" opacity="1" stroke="#000000" stroke-linecap="butt" stroke-linejoin="miter" stroke-miterlimit="2" stroke-opacity="1" stroke-width="0.445" transform="matrix(2.24719,0,0,2.24719,-320.225,-131.461)"><polyline fill="none" points="159,70 160,67" vector-effect="none"/></g><defs><clipPath id="clip19"><path d="M149,60 L224,60 L224,118 L149,118 L149,60 z"/></clipPath></defs><g clip-path="url(#clip19)" fill="none" opacity="1" stroke="#000000" stroke-linecap="butt" stroke-linejoin="miter" stroke-miterlimit="2" stroke-opacity="1" stroke-width="0.445" transform="matrix(2.24719,0,0,2.24719,-320.225,-131.461)"><polyline fill="none" points="160,67 160,70" vector-effect="none"/></g><defs><clipPath id="clip20"><path d="M149,60 L224,60 L224,118 L149,118 L149,60 z"/></clipPath></defs><g clip-path="url(#clip20)" fill="none" opacity="1" stroke="#000000" stroke-linecap="butt" stroke-linejoin="miter" stroke-miterlimit="2" stroke-opacity="1" stroke-width="0.445" transform="matrix(2.24719,0,0,2.24719,-320.225,-131.461)"><polyline fill="none" points="160,70 161,76" vector-effect="none"/></g><defs><clipPath id="clip21"><path d="M149,60 L224,60 L224,118 L149,118 L149,60 z"/></clipPath></defs><g clip-path="url(#clip21)" fill="none" opacity="1" stroke="#000000" stroke-linecap="butt" stroke-linejoin="miter" stroke-miterlimit="2" stroke-opacity="1" stroke-width="0.445" transform="matrix(2.24719,0,0,2.24719,-320.225,-131.461)"><polyline fill="none" points="161,76 161,75" vector-effect="none"/></g><defs><clipPath id="clip22"><path d="M149,60 L224,60 L224,118 L149,118 L149,60 z"/></clipPath></defs><g clip-path="url(#clip22)" fill="none" opacity="1" stroke="#000000" stroke-linecap="butt" stroke-linejoin="miter" stroke-miterlimit="2" stroke-opacity="1" stroke-width="0.445" transform="matrix(2.24719,0,0,2.24719,-320.225,-131.461)"><polyline fill="none" points="161,75 162,69" vector-effect="none"/></g><defs><clipPath id="clip23"><path d="M149,60 L224,60 L224,118 L149,118 L149,60 z"/></clipPath></defs><g clip-path="url(#clip23)" fill="none" opacity="1" stroke="#000000" stroke-linecap="butt" stroke-linejoin="miter" stroke-miterlimit="2" stroke-opacity="1" stroke-width="0.445" transform="matrix(2.24719,0,0,2.24719,-320.225,-131.461)"><polyline fill="none" points="162,69 162,67" vector-effect="none"/></g><defs><clipPath id="clip24"><path d="M149,60 L224,60 L224,118 L149,118 L149,60 z"/></clipPath></defs><g clip-path="url(#clip24)" fill="none" opacity="1" stroke="#000000" stroke-linecap="butt" stroke-linejoin="miter" stroke-miterlimit="2" stroke-opacity="1" stroke-width="0.445" transform="matrix(2.24719,0,0,2.24719,-320.225,-131.461)"><polyline fill="none" points="162,67 163,73" vector-effect="none"/></g><defs><clipPath id="clip25"><path d="M149,60 L224,60 L224,118 L149,118 L149,60 z"/></clipPath></defs><g clip-path="url(#clip25)" fill="none" opacity="1" stroke="#000000" stroke-linecap="butt" stroke-linejoin="miter" stroke-miterlimit="2" stroke-opacity="1" stroke-width="0.445" transform="matrix(2.24719,0,0,2.24719,-320.225,-131.461)"><polyline fill="none" points="163,73 163,77" vector-effect="none"/></g><defs><clipPath id="clip26"><path d="M149,60 L224,60 L224,118 L149,118 L149,60 z"/></clipPath></defs><g clip-path="url(#clip26)" fill="none" opacity="1" stroke="#000000" stroke-linecap="butt" stroke-linejoin="miter" stroke-miterlimit="2" stroke-opacity="1" stroke-width="0.445" transform="matrix(2.24719,0,0,2.24719,-320.225,-131.461)"><polyline fill="none" points="163,77 163,72" vector-effect="none"/></g><defs><clipPath id="clip27"><path d="M149,60 L224,60 L224,118 L149,118 L149,60 z"/></clipPath></defs><g clip-path="url(#clip27)" fill="none" opacity="1" stroke="#000000" stroke-linecap="butt" stroke-linejoin="miter" stroke-miterlimit="2" stroke-opacity="1" stroke-width="0.445" transform="matrix(2.24719,0,0,2.24719,-320.225,-131.461)"><polyline fill="none" points="163,72 164,67" vector-effect="none"/></g><defs><clipPath id="clip28"><path d="M149,60 L224,60 L224,118 L149,118 L149,60 z"/></clipPath></defs><g clip-path="url(#clip28)" fill="none" opacity="1" stroke="#000000" stroke-linecap="butt" stroke-linejoin="miter" stroke-miterlimit="2" stroke-opacity="1" stroke-width="0.445" transform="matrix(2.24719,0,0,2.24719,-320.225,-131.461)"><polyline fill="none" points="164,67 164,71" vector-effect="none"/></g><defs><clipPath id="clip29"><path d="M149,60 L224,60 L224,118 L149,118 L149,60 z"/></clipPath></defs><g clip-path="url(#clip29)" fill="none" opacity="1" stroke="#000000" stroke-linecap="butt" stroke-linejoin="miter" stroke-miterlimit="2" stroke-opacity="1" stroke-width="0.445" transform="matrix(2.24719,0,0,2.24719,-320.225,-131.461)"><polyline fill="none" points="164,71 165,77" vector-effect="none"/></g><defs><clipPath id="clip30"><path d="M149,60 L224,60 L224,118 L149,118 L149,60 z"/></clipPath></defs><g clip-path="url(#clip30)" fill="none" opacity="1" stroke="#000000" stroke-linecap="butt" stroke-linejoin="miter" stroke-miterlimit="2" stroke-opacity="1" stroke-width="0.445" transform="matrix(2.24719,0,0,2.24719,-320.225,-131.461)"><polyline fill="none" points="165,77 165,74" vector-effect="none"/></g><defs><clipPath id="clip31"><path d="M149,60 L224,60 L224,118 L149,118 L149,60 z"/></clipPath></defs><g clip-path="url(#clip31)" fill="none" opacity="1" stroke="#000000" stroke-linecap="butt" stroke-linejoin="miter" stroke-miterlimit="2" stroke-opacity="1" stroke-width="0.445" transform="matrix(2.24719,0,0,2.24719,-320.225,-131.461)"><polyline fill="none" points="165,74 166,68" vector-effect="none"/></g><defs><clipPath id="clip32"><path d="M149,60 L224,60 L224,118 L149,118 L149,60 z"/></clipPath></defs><g clip-path="url(#clip32)" fill="none" opacity="1" stroke="#000000" stroke-linecap="butt" stroke-linejoin="miter" stroke-miterlimit="2" stroke-opacity="1" stroke-width="0.445" transform="matrix(2.24719,0,0,2.24719,-320.225,-131.461)"><polyline fill="none" points="166,68 167,74" vector-effect="none"/></g><defs><clipPath id="clip33"><path d="M149,60 L224,60 L224,118 L149,118 L149,60 z"/></clipPath></defs><g clip-path="url(#clip33)" fill="none" opacity="1" stroke="#000000" stroke-linecap="butt" stroke-linejoin="miter" stroke-miterlimit="2" stroke-opacity="1" stroke-width="0.445" transform="matrix(2.24719,0,0,2.24719,-320.225,-131.461)"><polyline fill="none" points="167,74 167,77" vector-effect="none"/></g><defs><clipPath id="clip34"><path d="M149,60 L224,60 L224,118 L149,118 L149,60 z"/></clipPath></defs><g clip-path="url(#clip34)" fill="none" opacity="1" stroke="#000000" stroke-linecap="butt" stroke-linejoin="miter" stroke-miterlimit="2" stroke-opacity="1" stroke-width="0.445" transform="matrix(2.24719,0,0,2.24719,-320.225,-131.461)"><polyline fill="none" points="167,77 168,71" vector-effect="none"/></g><defs><clipPath id="clip35"><path d="M149,60 L224,60 L224,118 L149,118 L149,60 z"/></clipPath></defs><g clip-path="url(#clip35)" fill="none" opacity="1" stroke="#000000" stroke-linecap="butt" stroke-linejoin="miter" stroke-miterlimit="2" stroke-opacity="1" stroke-width="0.445" transform="matrix(2.24719,0,0,2.24719,-320.225,-131.461)"><polyline fill="none" points="168,71 168,67" vector-effect="none"/></g><defs><clipPath id="clip36"><path d="M149,60 L224,60 L224,118 L149,118 L149,60 z"/></clipPath></defs><g clip-path="url(#clip36)" fill="none" opacity="1" stroke="#000000" stroke-linecap="butt" stroke-linejoin="miter" stroke-miterlimit="2" stroke-opacity="1" stroke-width="0.445" transform="matrix(2.24719,0,0,2.24719,-320.225,-131.461)"><polyline fill="none" points="168,67 169,69" vector-effect="none"/></g><defs><clipPath id="clip37"><path d="M149,60 L224,60 L224,118 L149,118 L149,60 z"/></clipPath></defs><g clip-path="url(#clip37)" fill="none" opacity="1" stroke="#000000" stroke-linecap="butt" stroke-linejoin="miter" stroke-miterlimit="2" stroke-opacity="1" stroke-width="0.445" transform="matrix(2.24719,0,0,2.24719,-320.225,-131.461)"><polyline fill="none" points="169,69 169,75" vector-effect="none"/></g><defs><clipPath id="clip38"><path d="M149,60 L224,60 L224,118 L149,118 L149,60 z"/></clipPath></defs><g clip-path="url(#clip38)" fill="none" opacity="1" stroke="#000000" stroke-linecap="butt" stroke-linejoin="miter" stroke-miterlimit="2" stroke-opacity="1" stroke-width="0.445" transform="matrix(2.24719,0,0,2.24719,-320.225,-131.461)"><polyline fill="none" points="169,75 169,77" vector-effect="none"/></g><defs><clipPath id="clip39"><path d="M149,60 L224,60 L224,118 L149,118 L149,60 z"/></clipPath></defs><g clip-path="url(#clip39)" fill="none" opacity="1" stroke="#000000" stroke-linecap="butt" stroke-linejoin="miter" stroke-miterlimit="2" stroke-opacity="1" stroke-width="0.445" transform="matrix(2.24719,0,0,2.24719,-320.225,-131.461)"><polyline fill="none" points="169,77 170,72" vector-effect="none"/></g><defs><clipPath id="clip40"><path d="M149,60 L224,60 L224,118 L149,118 L149,60 z"/></clipPath></defs><g clip-path="url(#clip40)" fill="none" opacity="1" stroke="#000000" stroke-linecap="butt" stroke-linejoin="miter" stroke-miterlimit="2" stroke-opacity="1" stroke-width="0.445" transform="matrix(2.24719,0,0,2.24719,-320.225,-131.461)"><polyline fill="none" points="170,72 170,67" vector-effect="none"/></g><defs><clipPath id="clip41"><path d="M149,60 L224,60 L224,118 L149,118 L149,60 z"/></clipPath></defs><g clip-path="url(#clip41)" fill="none" opacity="1" stroke="#000000" stroke-linecap="butt" stroke-linejoin="miter" stroke-miterlimit="2" stroke-opacity="1" stroke-width="0.445" transform="matrix(2.24719,0,0,2.24719,-320.225,-131.461)"><polyline fill="none" points="170,67 171,67" vector-effect="none"/></g><defs><clipPath id="clip42"><path d="M149,60 L224,60 L224,118 L149,118 L149,60 z"/></clipPath></defs><g clip-path="url(#clip42)" fill="none" opacity="1" stroke="#000000" stroke-linecap="butt" stroke-linejoin="miter" stroke-miterlimit="2" stroke-opacity="1" stroke-width="0.445" transform="matrix(2.24719,0,0,2.24719,-320.225,-131.461)"><polyline fill="none" points="171,67 171,71" vector-effect="none"/></g><defs><clipPath id="clip43"><path d="M149,60 L224,60 L224,118 L149,118 L149,60 z"/></clipPath></defs><g clip-path="url(#clip43)" fill="none" opacity="1" stroke="#000000" stroke-linecap="butt" stroke-linejoin="miter" stroke-miterlimit="2" stroke-opacity="1" stroke-width="0.445" transform="matrix(2.24719,0,0,2.24719,-320.225,-131.461)"><polyline fill="none" points="171,71 172,76" vector-effect="none"/></g><defs><clipPath id="clip44"><path d="M149,60 L224,60 L224,118 L149,118 L149,60 z"/></clipPath></defs><g clip-path="url(#clip44)" fill="none" opacity="1" stroke="#000000" stroke-linecap="butt" stroke-linejoin="miter" stroke-miterlimit="2" stroke-opacity="1" stroke-width="0.445" transform="matrix(2.24719,0,0,2.24719,-320.225,-131.461)"><polyline fill="none" points="172,76 172,77" vector-effect="none"/></g><defs><clipPath id="clip45"><path d="M149,60 L224,60 L224,118 L149,118 L149,60 z"/></clipPath></defs><g clip-path="url(#clip45)" fill="none" opacity="1" stroke="#000000" stroke-linecap="butt" stroke-linejoin="miter" stroke-miterlimit="2" stroke-opacity="1" stroke-width="0.445" transform="matrix(2.24719,0,0,2.24719,-320.225,-131.461)"><polyline fill="none" points="172,77 173,74" vector-effect="none"/></g><defs><clipPath id="clip46"><path d="M149,60 L224,60 L224,118 L149,118 L149,60 z"/></clipPath></defs><g clip-path="url(#clip46)" fill="none" opacity="1" stroke="#000000" stroke-linecap="butt" stroke-linejoin="miter" stroke-miterlimit="2" stroke-opacity="1" stroke-width="0.445" transform="matrix(2.24719,0,0,2.24719,-320.225,-131.461)"><polyline fill="none" points="173,74 173,70" vector-effect="none"/></g><defs><clipPath id="clip47"><path d="M149,60 L224,60 L224,118 L149,118 L149,60 z"/></clipPath></defs><g clip-path="url(#clip47)" fill="none" opacity="1" stroke="#000000" stroke-linecap="butt" stroke-linejoin="miter" stroke-miterlimit="2" stroke-opacity="1" stroke-width="0.445" transform="matrix(2.24719,0,0,2.24719,-320.225,-131.461)"><polyline fill="none" points="173,70 174,67" vector-effect="none"/></g><defs><clipPath id="clip48"><path d="M149,60 L224,60 L224,118 L149,118 L149,60 z"/></clipPath></defs><g clip-path="url(#clip48)" fill="none" opacity="1" stroke="#000000" stroke-linecap="butt" stroke-linejoin="miter" stroke-miterlimit="2" stroke-opacity="1" stroke-width="0.445" transform="matrix(2.24719,0,0,2.24719,-320.225,-131.461)"><polyline fill="none" points="174,67 175,69" vector-effect="none"/></g><defs><clipPath id="clip49"><path d="M149,60 L224,60 L224,118 L149,118 L149,60 z"/></clipPath></defs><g clip-path="url(#clip49)" fill="none" opacity="1" stroke="#000000" stroke-linecap="butt" stroke-linejoin="miter" stroke-miterlimit="2" stroke-opacity="1" stroke-width="0.445" transform="matrix(2.24719,0,0,2.24719,-320.225,-131.461)"><polyline fill="none" points="175,69 175,72" vector-effect="none"/></g><defs><clipPath id="clip50"><path d="M149,60 L224,60 L224,118 L149,118 L149,60 z"/></clipPath></defs><g clip-path="url(#clip50)" fill="none" opacity="1" stroke="#000000" stroke-linecap="butt" stroke-linejoin="miter" stroke-miterlimit="2" stroke-opacity="1" stroke-width="0.445" transform="matrix(2.24719,0,0,2.24719,-320.225,-131.461)"><polyline fill="none" points="175,72 176,75" vector-effect="none"/></g><defs><clipPath id="clip51"><path d="M149,60 L224,60 L224,118 L149,118 L149,60 z"/></clipPath></defs><g clip-path="url(#clip51)" fill="none" opacity="1" stroke="#000000" stroke-linecap="butt" stroke-linejoin="miter" stroke-miterlimit="2" stroke-opacity="1" stroke-width="0.445" transform="matrix(2.24719,0,0,2.24719,-320.225,-131.461)"><polyline fill="none" points="176,75 176,77" vector-effect="none"/></g><defs><clipPath id="clip52"><path d="M149,60 L224,60 L224,118 L149,118 L149,60 z"/></clipPath></defs><g clip-path="url(#clip52)" fill="none" opacity="1" stroke="#000000" stroke-linecap="butt" stroke-linejoin="miter" stroke-miterlimit="2" stroke-opacity="1" stroke-width="0.445" transform="matrix(2.24719,0,0,2.24719,-320.225,-131.461)"><polyline fill="none" points="176,77 177,76" vector-effect="none"/></g><defs><clipPath id="clip53"><path d="M149,60 L224,60 L224,118 L149,118 L149,60 z"/></clipPath></defs><g clip-path="url(#clip53)" fill="none" opacity="1" stroke="#000000" stroke-linecap="butt" stroke-linejoin="miter" stroke-miterlimit="2" stroke-opacity="1" stroke-width="0.445" transform="matrix(2.24719,0,0,2.24719,-320.225,-131.461)"><polyline fill="none" points="177,76 177,74" vector-effect="none"/></g><defs><clipPath id="clip54"><path d="M149,60 L224,60 L224,118 L149,118 L149,60 z"/></clipPath></defs><g clip-path="url(#clip54)" fill="none" opacity="1" stroke="#000000" stroke-linecap="butt" stroke-linejoin="miter" stroke-miterlimit="2" stroke-opacity="1" stroke-width="0.445" transform="matrix(2.24719,0,0,2.24719,-320.225,-131.461)"><polyline fill="none" points="177,74 178,71" vector-effect="none"/></g><defs><clipPath id="clip55"><path d="M149,60 L224,60 L224,118 L149,118 L149,60 z"/></clipPath></defs><g clip-path="url(#clip55)" fill="none" opacity="1" stroke="#000000" stroke-linecap="butt" stroke-linejoin="miter" stroke-miterlimit="2" stroke-opacity="1" stroke-width="0.445" transform="matrix(2.24719,0,0,2.24719,-320.225,-131.461)"><polyline fill="none" points="178,71 178,69" vector-effect="none"/></g><defs><clipPath id="clip56"><path d="M149,60 L224,60 L224,118 L149,118 L149,60 z"/></clipPath></defs><g clip-path="url(#clip56)" fill="none" opacity="1" stroke="#000000" stroke-linecap="butt" stroke-linejoin="miter" stroke-miterlimit="2" stroke-opacity="1" stroke-width="0.445" transform="matrix(2.24719,0,0,2.24719,-320.225,-131.461)"><polyline fill="none" points="178,69 179,67" vector-effect="none"/></g><defs><clipPath id="clip57"><path d="M149,60 L224,60 L224,118 L149,118 L149,60 z"/></clipPath></defs><g clip-path="url(#clip57)" fill="none" opacity="1" stroke="#000000" stroke-linecap="butt" stroke-linejoin="miter" stroke-miterlimit="2" stroke-opacity="1" stroke-width="0.445" transform="matrix(2.24719,0,0,2.24719,-320.225,-131.461)"><polyline fill="none" points="179,67 180,67" vector-effect="none"/></g><defs><clipPath id="clip58"><path d="M149,60 L224,60 L224,118 L149,118 L149,60 z"/></clipPath></defs><g clip-path="url(#clip58)" fill="none" opacity="1" stroke="#000000" stroke-linecap="butt" stroke-linejoin="miter" stroke-miterlimit="2" stroke-opacity="1" stroke-width="0.445" transform="matrix(2.24719,0,0,2.24719,-320.225,-131.461)"><polyline fill="none" points="180,67 180,68" vector-effect="none"/></g><defs><clipPath id="clip59"><path d="M149,60 L224,60 L224,118 L149,118 L149,60 z"/></clipPath></defs><g clip-path="url(#clip59)" fill="none" opacity="1" stroke="#000000" stroke-linecap="butt" stroke-linejoin="miter" stroke-miterlimit="2" stroke-opacity="1" stroke-width="0.445" transform="matrix(2.24719,0,0,2.24719,-320.225,-131.461)"><polyline fill="none" points="180,68 181,70" vector-effect="none"/></g><defs><clipPath id="clip60"><path d="M149,60 L224,60 L224,118 L149,118 L149,60 z"/></clipPath></defs><g clip-path="url(#clip60)" fill="none" opacity="1" stroke="#000000" stroke-linecap="butt" stroke-linejoin="miter" stroke-miterlimit="2" stroke-opacity="1" stroke-width="0.445" transform="matrix(2.24719,0,0,2.24719,-320.225,-131.461)"><polyline fill="none" points="181,70 181,72" vector-effect="none"/></g><defs><clipPath id="clip61"><path d="M149,60 L224,60 L224,118 L149,118 L149,60 z"/></clipPath></defs><g clip-path="url(#clip61)" fill="none" opacity="1" stroke="#000000" stroke-linecap="butt" stroke-linejoin="miter" stroke-miterlimit="2" stroke-opacity="1" stroke-width="0.445" transform="matrix(2.24719,0,0,2.24719,-320.225,-131.461)"><polyline fill="none" points="181,72 182,75" vector-effect="none"/></g><defs><clipPath id="clip62"><path d="M149,60 L224,60 L224,118 L149,118 L149,60 z"/></clipPath></defs><g clip-path="url(#clip62)" fill="none" opacity="1" stroke="#000000" stroke-linecap="butt" stroke-linejoin="miter" stroke-miterlimit="2" stroke-opacity="1" stroke-width="0.445" transform="matrix(2.24719,0,0,2.24719,-320.225,-131.461)"><polyline fill="none" points="182,75 182,76" vector-effect="none"/></g><defs><clipPath id="clip63"><path d="M149,60 L224,60 L224,118 L149,118 L149,60 z"/></clipPath></defs><g clip-path="url(#clip63)" fill="none" opacity="1" stroke="#000000" stroke-linecap="butt" stroke-linejoin="miter" stroke-miterlimit="2" stroke-opacity="1" stroke-width="0.445" transform="matrix(2.24719,0,0,2.24719,-320.225,-131.461)"><polyline fill="none" points="182,76 183,77" vector-effect="none"/></g><defs><clipPath id="clip64"><path d="M149,60 L224,60 L224,118 L149,118 L149,60 z"/></clipPath></defs><g clip-path="url(#clip64)" fill="none" opacity="1" stroke="#000000" stroke-linecap="butt" stroke-linejoin="miter" stroke-miterlimit="2" stroke-opacity="1" stroke-width="0.445" transform="matrix(2.24719,0,0,2.24719,-320.225,-131.461)"><polyline fill="none" points="183,77 183,76" vector-effect="none"/></g><defs><clipPath id="clip65"><path d="M149,60 L224,60 L224,118 L149,118 L149,60 z"/></clipPath></defs><g clip-path="url(#clip65)" fill="none" opacity="1" stroke="#000000" stroke-linecap="butt" stroke-linejoin="miter" stroke-miterlimit="2" stroke-opacity="1" stroke-width="0.445" transform="matrix(2.24719,0,0,2.24719,-320.225,-131.461)"><polyline fill="none" points="183,76 183,74" vector-effect="none"/></g><defs><clipPath id="clip66"><path d="M149,60 L224,60 L224,118 L149,118 L149,60 z"/></clipPath></defs><g clip-path="url(#clip66)" fill="none" opacity="1" stroke="#000000" stroke-linecap="butt" stroke-linejoin="miter" stroke-miterlimit="2" stroke-opacity="1" stroke-width="0.445" transform="matrix(2.24719,0,0,2.24719,-320.225,-131.461)"><polyline fill="none" points="183,74 184,71" vector-effect="none"/></g><defs><clipPath id="clip67"><path d="M149,60 L224,60 L224,118 L149,118 L149,60 z"/></clipPath></defs><g clip-path="url(#clip67)" fill="none" opacity="1" stroke="#000000" stroke-linecap="butt" stroke-linejoin="miter" stroke-miterlimit="2" stroke-opacity="1" stroke-width="0.445" transform="matrix(2.24719,0,0,2.24719,-320.225,-131.461)"><polyline fill="none" points="184,71 184,68" vector-effect="none"/></g><defs><clipPath id="clip68"><path d="M149,60 L224,60 L224,118 L149,118 L149,60 z"/></clipPath></defs><g clip-path="url(#clip68)" fill="none" opacity="1" stroke="#000000" stroke-linecap="butt" stroke-linejoin="miter" stroke-miterlimit="2" stroke-opacity="1" stroke-width="0.445" transform="matrix(2.24719,0,0,2.24719,-320.225,-131.461)"><polyline fill="none" points="184,68 185,67" vector-effect="none"/></g><defs><clipPath id="clip69"><path d="M149,60 L224,60 L224,118 L149,118 L149,60 z"/></clipPath></defs><g clip-path="url(#clip69)" fill="none" opacity="1" stroke="#000000" stroke-linecap="butt" stroke-linejoin="miter" stroke-miterlimit="2" stroke-opacity="1" stroke-width="0.445" transform="matrix(2.24719,0,0,2.24719,-320.225,-131.461)"><polyline fill="none" points="185,67 185,68" vector-effect="none"/></g><defs><clipPath id="clip70"><path d="M149,60 L224,60 L224,118 L149,118 L149,60 z"/></clipPath></defs><g clip-path="url(#clip70)" fill="none" opacity="1" stroke="#000000" stroke-linecap="butt" stroke-linejoin="miter" stroke-miterlimit="2" stroke-opacity="1" stroke-width="0.445" transform="matrix(2.24719,0,0,2.24719,-320.225,-131.461)"><polyline fill="none" points="185,68 186,71" vector-effect="none"/></g><defs><clipPath id="clip71"><path d="M149,60 L224,60 L224,118 L149,118 L149,60 z"/></clipPath></defs><g clip-path="url(#clip71)" fill="none" opacity="1" stroke="#000000" stroke-linecap="butt" stroke-linejoin="miter" stroke-miterlimit="2" stroke-opacity="1" stroke-width="0.445" transform="matrix(2.24719,0,0,2.24719,-320.225,-131.461)"><polyline fill="none" points="186,71 186,75" vector-effect="none"/></g><defs><clipPath id="clip72"><path d="M149,60 L224,60 L224,118 L149,118 L149,60 z"/></clipPath></defs><g clip-path="url(#clip72)" fill="none" opacity="1" stroke="#000000" stroke-linecap="butt" stroke-linejoin="miter" stroke-miterlimit="2" stroke-opacity="1" stroke-width="0.445" transform="matrix(2.24719,0,0,2.24719,-320.225,-131.461)"><polyline fill="none" points="186,75 187,77" vector-effect="none"/></g><defs><clipPath id="clip73"><path d="M149,60 L224,60 L224,118 L149,118 L149,60 z"/></clipPath></defs><g clip-path="url(#clip73)" fill="none" opacity="1" stroke="#000000" stroke-linecap="butt" stroke-linejoin="miter" stroke-miterlimit="2" stroke-opacity="1" stroke-width="0.445" transform="matrix(2.24719,0,0,2.24719,-320.225,-131.461)"><polyline fill="none" points="187,77 187,75" vector-effect="none"/></g><defs><clipPath id="clip74"><path d="M149,60 L224,60 L224,118 L149,118 L149,60 z"/></clipPath></defs><g clip-path="url(#clip74)" fill="none" opacity="1" stroke="#000000" stroke-linecap="butt" stroke-linejoin="miter" stroke-miterlimit="2" stroke-opacity="1" stroke-width="0.445" transform="matrix(2.24719,0,0,2.24719,-320.225,-131.461)"><polyline fill="none" points="187,75 188,72" vector-effect="none"/></g><defs><clipPath id="clip75"><path d="M149,60 L224,60 L224,118 L149,118 L149,60 z"/></clipPath></defs><g clip-path="url(#clip75)" fill="none" opacity="1" stroke="#000000" stroke-linecap="butt" stroke-linejoin="miter" stroke-miterlimit="2" stroke-opacity="1" stroke-width="0.445" transform="matrix(2.24719,0,0,2.24719,-320.225,-131.461)"><polyline fill="none" points="188,72 188,65" vector-effect="none"/></g><defs><clipPath id="clip76"><path d="M149,60 L224,60 L224,118 L149,118 L149,60 z"/></clipPath></defs><g clip-path="url(#clip76)" fill="none" opacity="1" stroke="#000000" stroke-linecap="butt" stroke-linejoin="miter" stroke-miterlimit="2" stroke-opacity="1" stroke-width="0.445" transform="matrix(2.24719,0,0,2.24719,-320.225,-131.461)"><polyline fill="none" points="188,65 188,77" vector-effect="none"/></g><defs><clipPath id="clip77"><path d="M149,60 L224,60 L224,118 L149,118 L149,60 z"/></clipPath></defs><g clip-path="url(#clip77)" fill="none" opacity="1" stroke="#000000" stroke-linecap="butt" stroke-linejoin="miter" stroke-miterlimit="2" stroke-opacity="1" stroke-width="0.445" transform="matrix(2.24719,0,0,2.24719,-320.225,-131.461)"><polyline fill="none" points="188,77 188,72" vector-effect="none"/></g><defs><clipPath id="clip78"><path d="M149,60 L224,60 L224,118 L149,118 L149,60 z"/></clipPath></defs><g clip-path="url(#clip78)" fill="none" opacity="1" stroke="#000000" stroke-linecap="butt" stroke-linejoin="miter" stroke-miterlimit="2" stroke-opacity="1" stroke-width="0.445" transform="matrix(2.24719,0,0,2.24719,-320.225,-131.461)"><polyline fill="none" points="188,72 191,69" vector-effect="none"/></g><defs><clipPath id="clip79"><path d="M149,60 L224,60 L224,118 L149,118 L149,60 z"/></clipPath></defs><g clip-path="url(#clip79)" fill="none" opacity="1" stroke="#000000" stroke-linecap="butt" stroke-linejoin="miter" stroke-miterlimit="2" stroke-opacity="1" stroke-width="0.445" transform="matrix(2.24719,0,0,2.24719,-320.225,-131.461)"><polyline fill="none" points="191,69 194,67" vector-effect="none"/></g><defs><clipPath id="clip80"><path d="M149,60 L224,60 L224,118 L149,118 L149,60 z"/></clipPath></defs><g clip-path="url(#clip80)" fill="none" opacity="1" stroke="#000000" stroke-linecap="butt" stroke-linejoin="miter" stroke-miterlimit="2" stroke-opacity="1" stroke-width="0.445" transform="matrix(2.24719,0,0,2.24719,-320.225,-131.461)"><polyline fill="none" points="194,67 197,67" vector-effect="none"/></g><defs><clipPath id="clip81"><path d="M149,60 L224,60 L224,118 L149,118 L149,60 z"/></clipPath></defs><g clip-path="url(#clip81)" fill="none" opacity="1" stroke="#000000" stroke-linecap="butt" stroke-linejoin="miter" stroke-miterlimit="2" stroke-opacity="1" stroke-width="0.445" transform="matrix(2.24719,0,0,2.24719,-320.225,-131.461)"><polyline fill="none" points="197,67 200,69" vector-effect="none"/></g><defs><clipPath id="clip82"><path d="M149,60 L224,60 L224,118 L149,118 L149,60 z"/></clipPath></defs><g clip-path="url(#clip82)" fill="none" opacity="1" stroke="#000000" stroke-linecap="butt" stroke-linejoin="miter" stroke-miterlimit="2" stroke-opacity="1" stroke-width="0.445" transform="matrix(2.24719,0,0,2.24719,-320.225,-131.461)"><polyline fill="none" points="200,69 203,72" vector-effect="none"/></g><defs><clipPath id="clip83"><path d="M149,60 L224,60 L224,118 L149,118 L149,60 z"/></clipPath></defs><g clip-path="url(#clip83)" fill="none" opacity="1" stroke="#000000" stroke-linecap="butt" stroke-linejoin="miter" stroke-miterlimit="2" stroke-opacity="1" stroke-width="0.445" transform="matrix(2.24719,0,0,2.24719,-320.225,-131.461)"><polyline fill="none" points="203,72 206,75" vector-effect="none"/></g><defs><clipPath id="clip84"><path d="M149,60 L224,60 L224,118 L149,118 L149,60 z"/></clipPath></defs><g clip-path="url(#clip84)" fill="none" opacity="1" stroke="#000000" stroke-linecap="butt" stroke-linejoin="miter" stroke-miterlimit="2" stroke-opacity="1" stroke-width="0.445" transform="matrix(2.24719,0,0,2.24719,-320.225,-131.461)"><polyline fill="none" points="206,75 209,77" vector-effect="none"/></g><defs><clipPath id="clip85"><path d="M149,60 L224,60 L224,118 L149,118 L149,60 z"/></clipPath></defs><g clip-path="url(#clip85)" fill="none" opacity="1" stroke="#000000" stroke-linecap="butt" stroke-linejoin="miter" stroke-miterlimit="2" stroke-opacity="1" stroke-width="0.445" transform="matrix(2.24719,0,0,2.24719,-320.225,-131.461)"><polyline fill="none" points="209,77 212,77" vector-effect="none"/></g><defs><clipPath id="clip86"><path d="M149,60 L224,60 L224,118 L149,118 L149,60 z"/></clipPath></defs><g clip-path="url(#clip86)" fill="none" opacity="1" stroke="#000000" stroke-linecap="butt" stroke-linejoin="miter" stroke-miterlimit="2" stroke-opacity="1" stroke-width="0.445" transform="matrix(2.24719,0,0,2.24719,-320.225,-131.461)"><polyline fill="none" points="212,77 215,75" vector-effect="none"/></g><defs><clipPath id="clip87"><path d="M149,60 L224,60 L224,118 L149,118 L149,60 z"/></clipPath></defs><g clip-path="url(#clip87)" fill="none" opacity="1" stroke="#000000" stroke-linecap="butt" stroke-linejoin="miter" stroke-miterlimit="2" stroke-opacity="1" stroke-width="0.445" transform="matrix(2.24719,0,0,2.24719,-320.225,-131.461)"><polyline fill="none" points="215,75 219,72" vector-effect="none"/></g><defs><clipPath id="clip89"><path d="M-189,-148 L195,-148 L195,149 L-189,149 L-189,-148 z"/></clipPath></defs><g clip-path="url(#clip89)" fill="none" opacity="1" stroke="#000000" stroke-linecap="butt" stroke-linejoin="miter" stroke-miterlimit="2" stroke-opacity="1" stroke-width="0.445" transform="matrix(0.438904,0,0,0.438904,98.8764,69.6629)"><text fill="#000000" fill-opacity="1" font-family="Liberation Sans" font-size="40" font-style="normal" font-weight="400" stroke="none" textLength="57" x="-36.9375" xml:space="preserve" y="17.9219">FM</text></g><defs><clipPath id="clip95"><path d="M-7,-2 L82,-2 L82,60 L-7,60 L-7,-2 z"/></clipPath></defs><g clip-path="url(#clip95)" fill="none" opacity="1" stroke="#000000" stroke-linecap="butt" stroke-linejoin="miter" stroke-miterlimit="2" stroke-opacity="1" stroke-width="0.723343" transform="matrix(2.24719,0,0,2.24719,15.7303,4.49438)"><path d="M0,0 L75,0 L75,58 L0,58 L0,0 z" fill-rule="evenodd" vector-effect="none"/></g></g></svg>
