<?xml version="1.0" encoding="UTF-8"?><svg width="52.9167mm" height="30.6917mm" viewBox="0 0 200 116" xmlns="http://www.w3.org/2000/svg" xmlns:xlink="http://www.w3.org/1999/xlink"><g fill="none" stroke="black" stroke-width="1" fill-rule="evenodd" stroke-linecap="square" stroke-linejoin="bevel"><g clip-path="none" fill="none" opacity="1" stroke="none" stroke-opacity="0" transform="matrix(1,0,0,1,0,0)"><path d="M0,0 L200,0 L200,116 L0,116 L0,0 z" fill-rule="evenodd" vector-effect="none"/></g><defs><clipPath id="clip3"><path d="M-82,-26 L7,-26 L7,26 L-82,26 L-82,-26 z"/></clipPath></defs><g clip-path="url(#clip3)" fill="none" opacity="1" stroke="#000000" stroke-linecap="round" stroke-linejoin="miter" stroke-miterlimit="2" stroke-opacity="1" stroke-width="2" transform="matrix(2.24719,0,0,2.24719,184.27,58.427)"><path d="M0,-5 L5,0 L0,5" fill-rule="evenodd" vector-effect="none"/></g><defs><clipPath id="clip6"><path d="M7,26 L-82,26 L-82,-26 L7,-26 L7,26 z"/></clipPath></defs><g clip-path="url(#clip6)" fill="none" opacity="1" stroke="#000000" stroke-linecap="round" stroke-linejoin="miter" stroke-miterlimit="2" stroke-opacity="1" stroke-width="2" transform="matrix(-2.24719,0,0,-2.24719,15.7303,58.427)"><path d="M5,-5 L0,0 L5,5" fill-rule="evenodd" vector-effect="none"/></g><defs><clipPath id="clip9"><path d="M-7,-2 L82,-2 L82,50 L-7,50 L-7,-2 z"/></clipPath></defs><g clip-path="url(#clip9)" fill="#ffffff" fill-opacity="1" opacity="1" stroke="none" stroke-opacity="0" transform="matrix(2.24719,0,0,2.24719,15.7303,4.49438)"><path d="M0,0 L75,0 L75,48 L0,48 L0,0 z" fill-rule="evenodd" vector-effect="none"/></g><defs><clipPath id="clip13"><path d="M35,60 L110,60 L110,108 L35,108 L35,60 z"/></clipPath></defs><g clip-path="url(#clip13)" fill="none" opacity="1" stroke="#000000" stroke-linecap="butt" stroke-linejoin="miter" stroke-miterlimit="2" stroke-opacity="1" stroke-width="0.445" transform="matrix(2.24719,0,0,2.24719,-61.7978,-131.461)"><polyline fill="none" points="41,70 45,68" vector-effect="none"/></g><defs><clipPath id="clip14"><path d="M35,60 L110,60 L110,108 L35,108 L35,60 z"/></clipPath></defs><g clip-path="url(#clip14)" fill="none" opacity="1" stroke="#000000" stroke-linecap="butt" stroke-linejoin="miter" stroke-miterlimit="2" stroke-opacity="1" stroke-width="0.445" transform="matrix(2.24719,0,0,2.24719,-61.7978,-131.461)"><polyline fill="none" points="45,68 48,66" vector-effect="none"/></g><defs><clipPath id="clip15"><path d="M35,60 L110,60 L110,108 L35,108 L35,60 z"/></clipPath></defs><g clip-path="url(#clip15)" fill="none" opacity="1" stroke="#000000" stroke-linecap="butt" stroke-linejoin="miter" stroke-miterlimit="2" stroke-opacity="1" stroke-width="0.445" transform="matrix(2.24719,0,0,2.24719,-61.7978,-131.461)"><polyline fill="none" points="48,66 51,66" vector-effect="none"/></g><defs><clipPath id="clip16"><path d="M35,60 L110,60 L110,108 L35,108 L35,60 z"/></clipPath></defs><g clip-path="url(#clip16)" fill="none" opacity="1" stroke="#000000" stroke-linecap="butt" stroke-linejoin="miter" stroke-miterlimit="2" stroke-opacity="1" stroke-width="0.445" transform="matrix(2.24719,0,0,2.24719,-61.7978,-131.461)"><polyline fill="none" points="51,66 54,68" vector-effect="none"/></g><defs><clipPath id="clip17"><path d="M35,60 L110,60 L110,108 L35,108 L35,60 z"/></clipPath></defs><g clip-path="url(#clip17)" fill="none" opacity="1" stroke="#000000" stroke-linecap="butt" stroke-linejoin="miter" stroke-miterlimit="2" stroke-opacity="1" stroke-width="0.445" transform="matrix(2.24719,0,0,2.24719,-61.7978,-131.461)"><polyline fill="none" points="54,68 57,70" vector-effect="none"/></g><defs><clipPath id="clip18"><path d="M35,60 L110,60 L110,108 L35,108 L35,60 z"/></clipPath></defs><g clip-path="url(#clip18)" fill="none" opacity="1" stroke="#000000" stroke-linecap="butt" stroke-linejoin="miter" stroke-miterlimit="2" stroke-opacity="1" stroke-width="0.445" transform="matrix(2.24719,0,0,2.24719,-61.7978,-131.461)"><polyline fill="none" points="57,70 60,73" vector-effect="none"/></g><defs><clipPath id="clip19"><path d="M35,60 L110,60 L110,108 L35,108 L35,60 z"/></clipPath></defs><g clip-path="url(#clip19)" fill="none" opacity="1" stroke="#000000" stroke-linecap="butt" stroke-linejoin="miter" stroke-miterlimit="2" stroke-opacity="1" stroke-width="0.445" transform="matrix(2.24719,0,0,2.24719,-61.7978,-131.461)"><polyline fill="none" points="60,73 63,74" vector-effect="none"/></g><defs><clipPath id="clip20"><path d="M35,60 L110,60 L110,108 L35,108 L35,60 z"/></clipPath></defs><g clip-path="url(#clip20)" fill="none" opacity="1" stroke="#000000" stroke-linecap="butt" stroke-linejoin="miter" stroke-miterlimit="2" stroke-opacity="1" stroke-width="0.445" transform="matrix(2.24719,0,0,2.24719,-61.7978,-131.461)"><polyline fill="none" points="63,74 66,74" vector-effect="none"/></g><defs><clipPath id="clip21"><path d="M35,60 L110,60 L110,108 L35,108 L35,60 z"/></clipPath></defs><g clip-path="url(#clip21)" fill="none" opacity="1" stroke="#000000" stroke-linecap="butt" stroke-linejoin="miter" stroke-miterlimit="2" stroke-opacity="1" stroke-width="0.445" transform="matrix(2.24719,0,0,2.24719,-61.7978,-131.461)"><polyline fill="none" points="66,74 69,73" vector-effect="none"/></g><defs><clipPath id="clip22"><path d="M35,60 L110,60 L110,108 L35,108 L35,60 z"/></clipPath></defs><g clip-path="url(#clip22)" fill="none" opacity="1" stroke="#000000" stroke-linecap="butt" stroke-linejoin="miter" stroke-miterlimit="2" stroke-opacity="1" stroke-width="0.445" transform="matrix(2.24719,0,0,2.24719,-61.7978,-131.461)"><polyline fill="none" points="69,73 73,70" vector-effect="none"/></g><defs><clipPath id="clip23"><path d="M35,60 L110,60 L110,108 L35,108 L35,60 z"/></clipPath></defs><g clip-path="url(#clip23)" fill="none" opacity="1" stroke="#000000" stroke-linecap="butt" stroke-linejoin="miter" stroke-miterlimit="2" stroke-opacity="1" stroke-width="0.445" transform="matrix(2.24719,0,0,2.24719,-61.7978,-131.461)"><polyline fill="none" points="73,70 73,64" vector-effect="none"/></g><defs><clipPath id="clip24"><path d="M35,60 L110,60 L110,108 L35,108 L35,60 z"/></clipPath></defs><g clip-path="url(#clip24)" fill="none" opacity="1" stroke="#000000" stroke-linecap="butt" stroke-linejoin="miter" stroke-miterlimit="2" stroke-opacity="1" stroke-width="0.445" transform="matrix(2.24719,0,0,2.24719,-61.7978,-131.461)"><polyline fill="none" points="73,64 73,75" vector-effect="none"/></g><defs><clipPath id="clip25"><path d="M35,60 L110,60 L110,108 L35,108 L35,60 z"/></clipPath></defs><g clip-path="url(#clip25)" fill="none" opacity="1" stroke="#000000" stroke-linecap="butt" stroke-linejoin="miter" stroke-miterlimit="2" stroke-opacity="1" stroke-width="0.445" transform="matrix(2.24719,0,0,2.24719,-61.7978,-131.461)"><polyline fill="none" points="73,75 73,70" vector-effect="none"/></g><defs><clipPath id="clip26"><path d="M35,60 L110,60 L110,108 L35,108 L35,60 z"/></clipPath></defs><g clip-path="url(#clip26)" fill="none" opacity="1" stroke="#000000" stroke-linecap="butt" stroke-linejoin="miter" stroke-miterlimit="2" stroke-opacity="1" stroke-width="0.445" transform="matrix(2.24719,0,0,2.24719,-61.7978,-131.461)"><polyline fill="none" points="73,70 73,67" vector-effect="none"/></g><defs><clipPath id="clip27"><path d="M35,60 L110,60 L110,108 L35,108 L35,60 z"/></clipPath></defs><g clip-path="url(#clip27)" fill="none" opacity="1" stroke="#000000" stroke-linecap="butt" stroke-linejoin="miter" stroke-miterlimit="2" stroke-opacity="1" stroke-width="0.445" transform="matrix(2.24719,0,0,2.24719,-61.7978,-131.461)"><polyline fill="none" points="73,67 74,70" vector-effect="none"/></g><defs><clipPath id="clip28"><path d="M35,60 L110,60 L110,108 L35,108 L35,60 z"/></clipPath></defs><g clip-path="url(#clip28)" fill="none" opacity="1" stroke="#000000" stroke-linecap="butt" stroke-linejoin="miter" stroke-miterlimit="2" stroke-opacity="1" stroke-width="0.445" transform="matrix(2.24719,0,0,2.24719,-61.7978,-131.461)"><polyline fill="none" points="74,70 74,74" vector-effect="none"/></g><defs><clipPath id="clip29"><path d="M35,60 L110,60 L110,108 L35,108 L35,60 z"/></clipPath></defs><g clip-path="url(#clip29)" fill="none" opacity="1" stroke="#000000" stroke-linecap="butt" stroke-linejoin="miter" stroke-miterlimit="2" stroke-opacity="1" stroke-width="0.445" transform="matrix(2.24719,0,0,2.24719,-61.7978,-131.461)"><polyline fill="none" points="74,74 75,74" vector-effect="none"/></g><defs><clipPath id="clip30"><path d="M35,60 L110,60 L110,108 L35,108 L35,60 z"/></clipPath></defs><g clip-path="url(#clip30)" fill="none" opacity="1" stroke="#000000" stroke-linecap="butt" stroke-linejoin="miter" stroke-miterlimit="2" stroke-opacity="1" stroke-width="0.445" transform="matrix(2.24719,0,0,2.24719,-61.7978,-131.461)"><polyline fill="none" points="75,74 75,69" vector-effect="none"/></g><defs><clipPath id="clip31"><path d="M35,60 L110,60 L110,108 L35,108 L35,60 z"/></clipPath></defs><g clip-path="url(#clip31)" fill="none" opacity="1" stroke="#000000" stroke-linecap="butt" stroke-linejoin="miter" stroke-miterlimit="2" stroke-opacity="1" stroke-width="0.445" transform="matrix(2.24719,0,0,2.24719,-61.7978,-131.461)"><polyline fill="none" points="75,69 76,66" vector-effect="none"/></g><defs><clipPath id="clip32"><path d="M35,60 L110,60 L110,108 L35,108 L35,60 z"/></clipPath></defs><g clip-path="url(#clip32)" fill="none" opacity="1" stroke="#000000" stroke-linecap="butt" stroke-linejoin="miter" stroke-miterlimit="2" stroke-opacity="1" stroke-width="0.445" transform="matrix(2.24719,0,0,2.24719,-61.7978,-131.461)"><polyline fill="none" points="76,66 76,69" vector-effect="none"/></g><defs><clipPath id="clip33"><path d="M35,60 L110,60 L110,108 L35,108 L35,60 z"/></clipPath></defs><g clip-path="url(#clip33)" fill="none" opacity="1" stroke="#000000" stroke-linecap="butt" stroke-linejoin="miter" stroke-miterlimit="2" stroke-opacity="1" stroke-width="0.445" transform="matrix(2.24719,0,0,2.24719,-61.7978,-131.461)"><polyline fill="none" points="76,69 77,74" vector-effect="none"/></g><defs><clipPath id="clip34"><path d="M35,60 L110,60 L110,108 L35,108 L35,60 z"/></clipPath></defs><g clip-path="url(#clip34)" fill="none" opacity="1" stroke="#000000" stroke-linecap="butt" stroke-linejoin="miter" stroke-miterlimit="2" stroke-opacity="1" stroke-width="0.445" transform="matrix(2.24719,0,0,2.24719,-61.7978,-131.461)"><polyline fill="none" points="77,74 77,73" vector-effect="none"/></g><defs><clipPath id="clip35"><path d="M35,60 L110,60 L110,108 L35,108 L35,60 z"/></clipPath></defs><g clip-path="url(#clip35)" fill="none" opacity="1" stroke="#000000" stroke-linecap="butt" stroke-linejoin="miter" stroke-miterlimit="2" stroke-opacity="1" stroke-width="0.445" transform="matrix(2.24719,0,0,2.24719,-61.7978,-131.461)"><polyline fill="none" points="77,73 78,68" vector-effect="none"/></g><defs><clipPath id="clip36"><path d="M35,60 L110,60 L110,108 L35,108 L35,60 z"/></clipPath></defs><g clip-path="url(#clip36)" fill="none" opacity="1" stroke="#000000" stroke-linecap="butt" stroke-linejoin="miter" stroke-miterlimit="2" stroke-opacity="1" stroke-width="0.445" transform="matrix(2.24719,0,0,2.24719,-61.7978,-131.461)"><polyline fill="none" points="78,68 78,67" vector-effect="none"/></g><defs><clipPath id="clip37"><path d="M35,60 L110,60 L110,108 L35,108 L35,60 z"/></clipPath></defs><g clip-path="url(#clip37)" fill="none" opacity="1" stroke="#000000" stroke-linecap="butt" stroke-linejoin="miter" stroke-miterlimit="2" stroke-opacity="1" stroke-width="0.445" transform="matrix(2.24719,0,0,2.24719,-61.7978,-131.461)"><polyline fill="none" points="78,67 79,71" vector-effect="none"/></g><defs><clipPath id="clip38"><path d="M35,60 L110,60 L110,108 L35,108 L35,60 z"/></clipPath></defs><g clip-path="url(#clip38)" fill="none" opacity="1" stroke="#000000" stroke-linecap="butt" stroke-linejoin="miter" stroke-miterlimit="2" stroke-opacity="1" stroke-width="0.445" transform="matrix(2.24719,0,0,2.24719,-61.7978,-131.461)"><polyline fill="none" points="79,71 79,74" vector-effect="none"/></g><defs><clipPath id="clip39"><path d="M35,60 L110,60 L110,108 L35,108 L35,60 z"/></clipPath></defs><g clip-path="url(#clip39)" fill="none" opacity="1" stroke="#000000" stroke-linecap="butt" stroke-linejoin="miter" stroke-miterlimit="2" stroke-opacity="1" stroke-width="0.445" transform="matrix(2.24719,0,0,2.24719,-61.7978,-131.461)"><polyline fill="none" points="79,74 79,70" vector-effect="none"/></g><defs><clipPath id="clip40"><path d="M35,60 L110,60 L110,108 L35,108 L35,60 z"/></clipPath></defs><g clip-path="url(#clip40)" fill="none" opacity="1" stroke="#000000" stroke-linecap="butt" stroke-linejoin="miter" stroke-miterlimit="2" stroke-opacity="1" stroke-width="0.445" transform="matrix(2.24719,0,0,2.24719,-61.7978,-131.461)"><polyline fill="none" points="79,70 80,66" vector-effect="none"/></g><defs><clipPath id="clip41"><path d="M35,60 L110,60 L110,108 L35,108 L35,60 z"/></clipPath></defs><g clip-path="url(#clip41)" fill="none" opacity="1" stroke="#000000" stroke-linecap="butt" stroke-linejoin="miter" stroke-miterlimit="2" stroke-opacity="1" stroke-width="0.445" transform="matrix(2.24719,0,0,2.24719,-61.7978,-131.461)"><polyline fill="none" points="80,66 80,69" vector-effect="none"/></g><defs><clipPath id="clip42"><path d="M35,60 L110,60 L110,108 L35,108 L35,60 z"/></clipPath></defs><g clip-path="url(#clip42)" fill="none" opacity="1" stroke="#000000" stroke-linecap="butt" stroke-linejoin="miter" stroke-miterlimit="2" stroke-opacity="1" stroke-width="0.445" transform="matrix(2.24719,0,0,2.24719,-61.7978,-131.461)"><polyline fill="none" points="80,69 81,74" vector-effect="none"/></g><defs><clipPath id="clip43"><path d="M35,60 L110,60 L110,108 L35,108 L35,60 z"/></clipPath></defs><g clip-path="url(#clip43)" fill="none" opacity="1" stroke="#000000" stroke-linecap="butt" stroke-linejoin="miter" stroke-miterlimit="2" stroke-opacity="1" stroke-width="0.445" transform="matrix(2.24719,0,0,2.24719,-61.7978,-131.461)"><polyline fill="none" points="81,74 81,72" vector-effect="none"/></g><defs><clipPath id="clip44"><path d="M35,60 L110,60 L110,108 L35,108 L35,60 z"/></clipPath></defs><g clip-path="url(#clip44)" fill="none" opacity="1" stroke="#000000" stroke-linecap="butt" stroke-linejoin="miter" stroke-miterlimit="2" stroke-opacity="1" stroke-width="0.445" transform="matrix(2.24719,0,0,2.24719,-61.7978,-131.461)"><polyline fill="none" points="81,72 82,67" vector-effect="none"/></g><defs><clipPath id="clip45"><path d="M35,60 L110,60 L110,108 L35,108 L35,60 z"/></clipPath></defs><g clip-path="url(#clip45)" fill="none" opacity="1" stroke="#000000" stroke-linecap="butt" stroke-linejoin="miter" stroke-miterlimit="2" stroke-opacity="1" stroke-width="0.445" transform="matrix(2.24719,0,0,2.24719,-61.7978,-131.461)"><polyline fill="none" points="82,67 83,72" vector-effect="none"/></g><defs><clipPath id="clip46"><path d="M35,60 L110,60 L110,108 L35,108 L35,60 z"/></clipPath></defs><g clip-path="url(#clip46)" fill="none" opacity="1" stroke="#000000" stroke-linecap="butt" stroke-linejoin="miter" stroke-miterlimit="2" stroke-opacity="1" stroke-width="0.445" transform="matrix(2.24719,0,0,2.24719,-61.7978,-131.461)"><polyline fill="none" points="83,72 83,74" vector-effect="none"/></g><defs><clipPath id="clip47"><path d="M35,60 L110,60 L110,108 L35,108 L35,60 z"/></clipPath></defs><g clip-path="url(#clip47)" fill="none" opacity="1" stroke="#000000" stroke-linecap="butt" stroke-linejoin="miter" stroke-miterlimit="2" stroke-opacity="1" stroke-width="0.445" transform="matrix(2.24719,0,0,2.24719,-61.7978,-131.461)"><polyline fill="none" points="83,74 84,70" vector-effect="none"/></g><defs><clipPath id="clip48"><path d="M35,60 L110,60 L110,108 L35,108 L35,60 z"/></clipPath></defs><g clip-path="url(#clip48)" fill="none" opacity="1" stroke="#000000" stroke-linecap="butt" stroke-linejoin="miter" stroke-miterlimit="2" stroke-opacity="1" stroke-width="0.445" transform="matrix(2.24719,0,0,2.24719,-61.7978,-131.461)"><polyline fill="none" points="84,70 84,66" vector-effect="none"/></g><defs><clipPath id="clip49"><path d="M35,60 L110,60 L110,108 L35,108 L35,60 z"/></clipPath></defs><g clip-path="url(#clip49)" fill="none" opacity="1" stroke="#000000" stroke-linecap="butt" stroke-linejoin="miter" stroke-miterlimit="2" stroke-opacity="1" stroke-width="0.445" transform="matrix(2.24719,0,0,2.24719,-61.7978,-131.461)"><polyline fill="none" points="84,66 85,68" vector-effect="none"/></g><defs><clipPath id="clip50"><path d="M35,60 L110,60 L110,108 L35,108 L35,60 z"/></clipPath></defs><g clip-path="url(#clip50)" fill="none" opacity="1" stroke="#000000" stroke-linecap="butt" stroke-linejoin="miter" stroke-miterlimit="2" stroke-opacity="1" stroke-width="0.445" transform="matrix(2.24719,0,0,2.24719,-61.7978,-131.461)"><polyline fill="none" points="85,68 85,73" vector-effect="none"/></g><defs><clipPath id="clip51"><path d="M35,60 L110,60 L110,108 L35,108 L35,60 z"/></clipPath></defs><g clip-path="url(#clip51)" fill="none" opacity="1" stroke="#000000" stroke-linecap="butt" stroke-linejoin="miter" stroke-miterlimit="2" stroke-opacity="1" stroke-width="0.445" transform="matrix(2.24719,0,0,2.24719,-61.7978,-131.461)"><polyline fill="none" points="85,73 86,74" vector-effect="none"/></g><defs><clipPath id="clip52"><path d="M35,60 L110,60 L110,108 L35,108 L35,60 z"/></clipPath></defs><g clip-path="url(#clip52)" fill="none" opacity="1" stroke="#000000" stroke-linecap="butt" stroke-linejoin="miter" stroke-miterlimit="2" stroke-opacity="1" stroke-width="0.445" transform="matrix(2.24719,0,0,2.24719,-61.7978,-131.461)"><polyline fill="none" points="86,74 86,71" vector-effect="none"/></g><defs><clipPath id="clip53"><path d="M35,60 L110,60 L110,108 L35,108 L35,60 z"/></clipPath></defs><g clip-path="url(#clip53)" fill="none" opacity="1" stroke="#000000" stroke-linecap="butt" stroke-linejoin="miter" stroke-miterlimit="2" stroke-opacity="1" stroke-width="0.445" transform="matrix(2.24719,0,0,2.24719,-61.7978,-131.461)"><polyline fill="none" points="86,71 86,67" vector-effect="none"/></g><defs><clipPath id="clip54"><path d="M35,60 L110,60 L110,108 L35,108 L35,60 z"/></clipPath></defs><g clip-path="url(#clip54)" fill="none" opacity="1" stroke="#000000" stroke-linecap="butt" stroke-linejoin="miter" stroke-miterlimit="2" stroke-opacity="1" stroke-width="0.445" transform="matrix(2.24719,0,0,2.24719,-61.7978,-131.461)"><polyline fill="none" points="86,67 87,67" vector-effect="none"/></g><defs><clipPath id="clip55"><path d="M35,60 L110,60 L110,108 L35,108 L35,60 z"/></clipPath></defs><g clip-path="url(#clip55)" fill="none" opacity="1" stroke="#000000" stroke-linecap="butt" stroke-linejoin="miter" stroke-miterlimit="2" stroke-opacity="1" stroke-width="0.445" transform="matrix(2.24719,0,0,2.24719,-61.7978,-131.461)"><polyline fill="none" points="87,67 87,70" vector-effect="none"/></g><defs><clipPath id="clip56"><path d="M35,60 L110,60 L110,108 L35,108 L35,60 z"/></clipPath></defs><g clip-path="url(#clip56)" fill="none" opacity="1" stroke="#000000" stroke-linecap="butt" stroke-linejoin="miter" stroke-miterlimit="2" stroke-opacity="1" stroke-width="0.445" transform="matrix(2.24719,0,0,2.24719,-61.7978,-131.461)"><polyline fill="none" points="87,70 88,74" vector-effect="none"/></g><defs><clipPath id="clip57"><path d="M35,60 L110,60 L110,108 L35,108 L35,60 z"/></clipPath></defs><g clip-path="url(#clip57)" fill="none" opacity="1" stroke="#000000" stroke-linecap="butt" stroke-linejoin="miter" stroke-miterlimit="2" stroke-opacity="1" stroke-width="0.445" transform="matrix(2.24719,0,0,2.24719,-61.7978,-131.461)"><polyline fill="none" points="88,74 89,72" vector-effect="none"/></g><defs><clipPath id="clip58"><path d="M35,60 L110,60 L110,108 L35,108 L35,60 z"/></clipPath></defs><g clip-path="url(#clip58)" fill="none" opacity="1" stroke="#000000" stroke-linecap="butt" stroke-linejoin="miter" stroke-miterlimit="2" stroke-opacity="1" stroke-width="0.445" transform="matrix(2.24719,0,0,2.24719,-61.7978,-131.461)"><polyline fill="none" points="89,72 89,69" vector-effect="none"/></g><defs><clipPath id="clip59"><path d="M35,60 L110,60 L110,108 L35,108 L35,60 z"/></clipPath></defs><g clip-path="url(#clip59)" fill="none" opacity="1" stroke="#000000" stroke-linecap="butt" stroke-linejoin="miter" stroke-miterlimit="2" stroke-opacity="1" stroke-width="0.445" transform="matrix(2.24719,0,0,2.24719,-61.7978,-131.461)"><polyline fill="none" points="89,69 90,67" vector-effect="none"/></g><defs><clipPath id="clip60"><path d="M35,60 L110,60 L110,108 L35,108 L35,60 z"/></clipPath></defs><g clip-path="url(#clip60)" fill="none" opacity="1" stroke="#000000" stroke-linecap="butt" stroke-linejoin="miter" stroke-miterlimit="2" stroke-opacity="1" stroke-width="0.445" transform="matrix(2.24719,0,0,2.24719,-61.7978,-131.461)"><polyline fill="none" points="90,67 90,66" vector-effect="none"/></g><defs><clipPath id="clip61"><path d="M35,60 L110,60 L110,108 L35,108 L35,60 z"/></clipPath></defs><g clip-path="url(#clip61)" fill="none" opacity="1" stroke="#000000" stroke-linecap="butt" stroke-linejoin="miter" stroke-miterlimit="2" stroke-opacity="1" stroke-width="0.445" transform="matrix(2.24719,0,0,2.24719,-61.7978,-131.461)"><polyline fill="none" points="90,66 91,68" vector-effect="none"/></g><defs><clipPath id="clip62"><path d="M35,60 L110,60 L110,108 L35,108 L35,60 z"/></clipPath></defs><g clip-path="url(#clip62)" fill="none" opacity="1" stroke="#000000" stroke-linecap="butt" stroke-linejoin="miter" stroke-miterlimit="2" stroke-opacity="1" stroke-width="0.445" transform="matrix(2.24719,0,0,2.24719,-61.7978,-131.461)"><polyline fill="none" points="91,68 91,70" vector-effect="none"/></g><defs><clipPath id="clip63"><path d="M35,60 L110,60 L110,108 L35,108 L35,60 z"/></clipPath></defs><g clip-path="url(#clip63)" fill="none" opacity="1" stroke="#000000" stroke-linecap="butt" stroke-linejoin="miter" stroke-miterlimit="2" stroke-opacity="1" stroke-width="0.445" transform="matrix(2.24719,0,0,2.24719,-61.7978,-131.461)"><polyline fill="none" points="91,70 92,73" vector-effect="none"/></g><defs><clipPath id="clip64"><path d="M35,60 L110,60 L110,108 L35,108 L35,60 z"/></clipPath></defs><g clip-path="url(#clip64)" fill="none" opacity="1" stroke="#000000" stroke-linecap="butt" stroke-linejoin="miter" stroke-miterlimit="2" stroke-opacity="1" stroke-width="0.445" transform="matrix(2.24719,0,0,2.24719,-61.7978,-131.461)"><polyline fill="none" points="92,73 92,74" vector-effect="none"/></g><defs><clipPath id="clip65"><path d="M35,60 L110,60 L110,108 L35,108 L35,60 z"/></clipPath></defs><g clip-path="url(#clip65)" fill="none" opacity="1" stroke="#000000" stroke-linecap="butt" stroke-linejoin="miter" stroke-miterlimit="2" stroke-opacity="1" stroke-width="0.445" transform="matrix(2.24719,0,0,2.24719,-61.7978,-131.461)"><polyline fill="none" points="92,74 93,74" vector-effect="none"/></g><defs><clipPath id="clip66"><path d="M35,60 L110,60 L110,108 L35,108 L35,60 z"/></clipPath></defs><g clip-path="url(#clip66)" fill="none" opacity="1" stroke="#000000" stroke-linecap="butt" stroke-linejoin="miter" stroke-miterlimit="2" stroke-opacity="1" stroke-width="0.445" transform="matrix(2.24719,0,0,2.24719,-61.7978,-131.461)"><polyline fill="none" points="93,74 93,73" vector-effect="none"/></g><defs><clipPath id="clip67"><path d="M35,60 L110,60 L110,108 L35,108 L35,60 z"/></clipPath></defs><g clip-path="url(#clip67)" fill="none" opacity="1" stroke="#000000" stroke-linecap="butt" stroke-linejoin="miter" stroke-miterlimit="2" stroke-opacity="1" stroke-width="0.445" transform="matrix(2.24719,0,0,2.24719,-61.7978,-131.461)"><polyline fill="none" points="93,73 93,72" vector-effect="none"/></g><defs><clipPath id="clip68"><path d="M35,60 L110,60 L110,108 L35,108 L35,60 z"/></clipPath></defs><g clip-path="url(#clip68)" fill="none" opacity="1" stroke="#000000" stroke-linecap="butt" stroke-linejoin="miter" stroke-miterlimit="2" stroke-opacity="1" stroke-width="0.445" transform="matrix(2.24719,0,0,2.24719,-61.7978,-131.461)"><polyline fill="none" points="93,72 94,70" vector-effect="none"/></g><defs><clipPath id="clip69"><path d="M35,60 L110,60 L110,108 L35,108 L35,60 z"/></clipPath></defs><g clip-path="url(#clip69)" fill="none" opacity="1" stroke="#000000" stroke-linecap="butt" stroke-linejoin="miter" stroke-miterlimit="2" stroke-opacity="1" stroke-width="0.445" transform="matrix(2.24719,0,0,2.24719,-61.7978,-131.461)"><polyline fill="none" points="94,70 94,68" vector-effect="none"/></g><defs><clipPath id="clip70"><path d="M35,60 L110,60 L110,108 L35,108 L35,60 z"/></clipPath></defs><g clip-path="url(#clip70)" fill="none" opacity="1" stroke="#000000" stroke-linecap="butt" stroke-linejoin="miter" stroke-miterlimit="2" stroke-opacity="1" stroke-width="0.445" transform="matrix(2.24719,0,0,2.24719,-61.7978,-131.461)"><polyline fill="none" points="94,68 95,67" vector-effect="none"/></g><defs><clipPath id="clip71"><path d="M35,60 L110,60 L110,108 L35,108 L35,60 z"/></clipPath></defs><g clip-path="url(#clip71)" fill="none" opacity="1" stroke="#000000" stroke-linecap="butt" stroke-linejoin="miter" stroke-miterlimit="2" stroke-opacity="1" stroke-width="0.445" transform="matrix(2.24719,0,0,2.24719,-61.7978,-131.461)"><polyline fill="none" points="95,67 95,66" vector-effect="none"/></g><defs><clipPath id="clip72"><path d="M35,60 L110,60 L110,108 L35,108 L35,60 z"/></clipPath></defs><g clip-path="url(#clip72)" fill="none" opacity="1" stroke="#000000" stroke-linecap="butt" stroke-linejoin="miter" stroke-miterlimit="2" stroke-opacity="1" stroke-width="0.445" transform="matrix(2.24719,0,0,2.24719,-61.7978,-131.461)"><polyline fill="none" points="95,66 96,66" vector-effect="none"/></g><defs><clipPath id="clip73"><path d="M35,60 L110,60 L110,108 L35,108 L35,60 z"/></clipPath></defs><g clip-path="url(#clip73)" fill="none" opacity="1" stroke="#000000" stroke-linecap="butt" stroke-linejoin="miter" stroke-miterlimit="2" stroke-opacity="1" stroke-width="0.445" transform="matrix(2.24719,0,0,2.24719,-61.7978,-131.461)"><polyline fill="none" points="96,66 96,67" vector-effect="none"/></g><defs><clipPath id="clip74"><path d="M35,60 L110,60 L110,108 L35,108 L35,60 z"/></clipPath></defs><g clip-path="url(#clip74)" fill="none" opacity="1" stroke="#000000" stroke-linecap="butt" stroke-linejoin="miter" stroke-miterlimit="2" stroke-opacity="1" stroke-width="0.445" transform="matrix(2.24719,0,0,2.24719,-61.7978,-131.461)"><polyline fill="none" points="96,67 97,69" vector-effect="none"/></g><defs><clipPath id="clip75"><path d="M35,60 L110,60 L110,108 L35,108 L35,60 z"/></clipPath></defs><g clip-path="url(#clip75)" fill="none" opacity="1" stroke="#000000" stroke-linecap="butt" stroke-linejoin="miter" stroke-miterlimit="2" stroke-opacity="1" stroke-width="0.445" transform="matrix(2.24719,0,0,2.24719,-61.7978,-131.461)"><polyline fill="none" points="97,69 97,71" vector-effect="none"/></g><defs><clipPath id="clip76"><path d="M35,60 L110,60 L110,108 L35,108 L35,60 z"/></clipPath></defs><g clip-path="url(#clip76)" fill="none" opacity="1" stroke="#000000" stroke-linecap="butt" stroke-linejoin="miter" stroke-miterlimit="2" stroke-opacity="1" stroke-width="0.445" transform="matrix(2.24719,0,0,2.24719,-61.7978,-131.461)"><polyline fill="none" points="97,71 98,73" vector-effect="none"/></g><defs><clipPath id="clip77"><path d="M35,60 L110,60 L110,108 L35,108 L35,60 z"/></clipPath></defs><g clip-path="url(#clip77)" fill="none" opacity="1" stroke="#000000" stroke-linecap="butt" stroke-linejoin="miter" stroke-miterlimit="2" stroke-opacity="1" stroke-width="0.445" transform="matrix(2.24719,0,0,2.24719,-61.7978,-131.461)"><polyline fill="none" points="98,73 98,74" vector-effect="none"/></g><defs><clipPath id="clip78"><path d="M35,60 L110,60 L110,108 L35,108 L35,60 z"/></clipPath></defs><g clip-path="url(#clip78)" fill="none" opacity="1" stroke="#000000" stroke-linecap="butt" stroke-linejoin="miter" stroke-miterlimit="2" stroke-opacity="1" stroke-width="0.445" transform="matrix(2.24719,0,0,2.24719,-61.7978,-131.461)"><polyline fill="none" points="98,74 99,74" vector-effect="none"/></g><defs><clipPath id="clip79"><path d="M35,60 L110,60 L110,108 L35,108 L35,60 z"/></clipPath></defs><g clip-path="url(#clip79)" fill="none" opacity="1" stroke="#000000" stroke-linecap="butt" stroke-linejoin="miter" stroke-miterlimit="2" stroke-opacity="1" stroke-width="0.445" transform="matrix(2.24719,0,0,2.24719,-61.7978,-131.461)"><polyline fill="none" points="99,74 100,72" vector-effect="none"/></g><defs><clipPath id="clip80"><path d="M35,60 L110,60 L110,108 L35,108 L35,60 z"/></clipPath></defs><g clip-path="url(#clip80)" fill="none" opacity="1" stroke="#000000" stroke-linecap="butt" stroke-linejoin="miter" stroke-miterlimit="2" stroke-opacity="1" stroke-width="0.445" transform="matrix(2.24719,0,0,2.24719,-61.7978,-131.461)"><polyline fill="none" points="100,72 100,69" vector-effect="none"/></g><defs><clipPath id="clip81"><path d="M35,60 L110,60 L110,108 L35,108 L35,60 z"/></clipPath></defs><g clip-path="url(#clip81)" fill="none" opacity="1" stroke="#000000" stroke-linecap="butt" stroke-linejoin="miter" stroke-miterlimit="2" stroke-opacity="1" stroke-width="0.445" transform="matrix(2.24719,0,0,2.24719,-61.7978,-131.461)"><polyline fill="none" points="100,69 100,67" vector-effect="none"/></g><defs><clipPath id="clip82"><path d="M35,60 L110,60 L110,108 L35,108 L35,60 z"/></clipPath></defs><g clip-path="url(#clip82)" fill="none" opacity="1" stroke="#000000" stroke-linecap="butt" stroke-linejoin="miter" stroke-miterlimit="2" stroke-opacity="1" stroke-width="0.445" transform="matrix(2.24719,0,0,2.24719,-61.7978,-131.461)"><polyline fill="none" points="100,67 101,66" vector-effect="none"/></g><defs><clipPath id="clip83"><path d="M35,60 L110,60 L110,108 L35,108 L35,60 z"/></clipPath></defs><g clip-path="url(#clip83)" fill="none" opacity="1" stroke="#000000" stroke-linecap="butt" stroke-linejoin="miter" stroke-miterlimit="2" stroke-opacity="1" stroke-width="0.445" transform="matrix(2.24719,0,0,2.24719,-61.7978,-131.461)"><polyline fill="none" points="101,66 101,67" vector-effect="none"/></g><defs><clipPath id="clip84"><path d="M35,60 L110,60 L110,108 L35,108 L35,60 z"/></clipPath></defs><g clip-path="url(#clip84)" fill="none" opacity="1" stroke="#000000" stroke-linecap="butt" stroke-linejoin="miter" stroke-miterlimit="2" stroke-opacity="1" stroke-width="0.445" transform="matrix(2.24719,0,0,2.24719,-61.7978,-131.461)"><polyline fill="none" points="101,67 102,70" vector-effect="none"/></g><defs><clipPath id="clip85"><path d="M35,60 L110,60 L110,108 L35,108 L35,60 z"/></clipPath></defs><g clip-path="url(#clip85)" fill="none" opacity="1" stroke="#000000" stroke-linecap="butt" stroke-linejoin="miter" stroke-miterlimit="2" stroke-opacity="1" stroke-width="0.445" transform="matrix(2.24719,0,0,2.24719,-61.7978,-131.461)"><polyline fill="none" points="102,70 102,73" vector-effect="none"/></g><defs><clipPath id="clip86"><path d="M35,60 L110,60 L110,108 L35,108 L35,60 z"/></clipPath></defs><g clip-path="url(#clip86)" fill="none" opacity="1" stroke="#000000" stroke-linecap="butt" stroke-linejoin="miter" stroke-miterlimit="2" stroke-opacity="1" stroke-width="0.445" transform="matrix(2.24719,0,0,2.24719,-61.7978,-131.461)"><polyline fill="none" points="102,73 103,74" vector-effect="none"/></g><defs><clipPath id="clip87"><path d="M35,60 L110,60 L110,108 L35,108 L35,60 z"/></clipPath></defs><g clip-path="url(#clip87)" fill="none" opacity="1" stroke="#000000" stroke-linecap="butt" stroke-linejoin="miter" stroke-miterlimit="2" stroke-opacity="1" stroke-width="0.445" transform="matrix(2.24719,0,0,2.24719,-61.7978,-131.461)"><polyline fill="none" points="103,74 103,73" vector-effect="none"/></g><defs><clipPath id="clip89"><path d="M-189,-123 L195,-123 L195,123 L-189,123 L-189,-123 z"/></clipPath></defs><g clip-path="url(#clip89)" fill="none" opacity="1" stroke="#000000" stroke-linecap="butt" stroke-linejoin="miter" stroke-miterlimit="2" stroke-opacity="1" stroke-width="0.445" transform="matrix(0.438904,0,0,0.438904,98.8764,58.427)"><text fill="#000000" fill-opacity="1" font-family="Liberation Sans" font-size="40" font-style="normal" font-weight="400" stroke="none" textLength="208" x="-132.375" xml:space="preserve" y="17.9219">DSBSC AM</text></g><defs><clipPath id="clip95"><path d="M-7,-2 L82,-2 L82,50 L-7,50 L-7,-2 z"/></clipPath></defs><g clip-path="url(#clip95)" fill="none" opacity="1" stroke="#000000" stroke-linecap="butt" stroke-linejoin="miter" stroke-miterlimit="2" stroke-opacity="1" stroke-width="0.723343" transform="matrix(2.24719,0,0,2.24719,15.7303,4.49438)"><path d="M0,0 L75,0 L75,48 L0,48 L0,0 z" fill-rule="evenodd" vector-effect="none"/></g></g></svg>
