<?xml version="1.0" encoding="UTF-8"?><svg width="52.9167mm" height="33.0729mm" viewBox="0 0 200 125" xmlns="http://www.w3.org/2000/svg" xmlns:xlink="http://www.w3.org/1999/xlink"><g fill="none" stroke="black" stroke-width="1" fill-rule="evenodd" stroke-linecap="square" stroke-linejoin="bevel"><g clip-path="none" fill="none" opacity="1" stroke="none" stroke-opacity="0" transform="matrix(1,0,0,1,0,0)"><path d="M0,0 L200,0 L200,125 L0,125 L0,0 z" fill-rule="evenodd" vector-effect="none"/></g><defs><clipPath id="clip3"><path d="M-82,-28 L7,-28 L7,28 L-82,28 L-82,-28 z"/></clipPath></defs><g clip-path="url(#clip3)" fill="none" opacity="1" stroke="#000000" stroke-linecap="round" stroke-linejoin="miter" stroke-miterlimit="2" stroke-opacity="1" stroke-width="2" transform="matrix(2.24719,0,0,2.24719,184.27,62.9213)"><path d="M0,-5 L5,0 L0,5" fill-rule="evenodd" vector-effect="none"/></g><defs><clipPath id="clip6"><path d="M7,28 L-82,28 L-82,-28 L7,-28 L7,28 z"/></clipPath></defs><g clip-path="url(#clip6)" fill="none" opacity="1" stroke="#000000" stroke-linecap="round" stroke-linejoin="miter" stroke-miterlimit="2" stroke-opacity="1" stroke-width="2" transform="matrix(-2.24719,0,0,-2.24719,15.7303,62.9213)"><path d="M5,-5 L0,0 L5,5" fill-rule="evenodd" vector-effect="none"/></g><defs><clipPath id="clip9"><path d="M-7,-2 L82,-2 L82,54 L-7,54 L-7,-2 z"/></clipPath></defs><g clip-path="url(#clip9)" fill="#ffffff" fill-opacity="1" opacity="1" stroke="none" stroke-opacity="0" transform="matrix(2.24719,0,0,2.24719,15.7303,4.49438)"><path d="M0,0 L75,0 L75,52 L0,52 L0,0 z" fill-rule="evenodd" vector-effect="none"/></g><defs><clipPath id="clip13"><path d="M50,149 L125,149 L125,201 L50,201 L50,149 z"/></clipPath></defs><g clip-path="url(#clip13)" fill="none" opacity="1" stroke="#000000" stroke-linecap="butt" stroke-linejoin="miter" stroke-miterlimit="2" stroke-opacity="1" stroke-width="0.445" transform="matrix(2.24719,0,0,2.24719,-95.5056,-329.213)"><polyline fill="none" points="56,155 67,155" vector-effect="none"/></g><defs><clipPath id="clip14"><path d="M50,149 L125,149 L125,201 L50,201 L50,149 z"/></clipPath></defs><g clip-path="url(#clip14)" fill="none" opacity="1" stroke="#000000" stroke-linecap="butt" stroke-linejoin="miter" stroke-miterlimit="2" stroke-opacity="1" stroke-width="0.445" transform="matrix(2.24719,0,0,2.24719,-95.5056,-329.213)"><polyline fill="none" points="67,155 67,163" vector-effect="none"/></g><defs><clipPath id="clip15"><path d="M50,149 L125,149 L125,201 L50,201 L50,149 z"/></clipPath></defs><g clip-path="url(#clip15)" fill="none" opacity="1" stroke="#000000" stroke-linecap="butt" stroke-linejoin="miter" stroke-miterlimit="2" stroke-opacity="1" stroke-width="0.445" transform="matrix(2.24719,0,0,2.24719,-95.5056,-329.213)"><polyline fill="none" points="67,163 77,163" vector-effect="none"/></g><defs><clipPath id="clip16"><path d="M50,149 L125,149 L125,201 L50,201 L50,149 z"/></clipPath></defs><g clip-path="url(#clip16)" fill="none" opacity="1" stroke="#000000" stroke-linecap="butt" stroke-linejoin="miter" stroke-miterlimit="2" stroke-opacity="1" stroke-width="0.445" transform="matrix(2.24719,0,0,2.24719,-95.5056,-329.213)"><polyline fill="none" points="77,163 77,155" vector-effect="none"/></g><defs><clipPath id="clip17"><path d="M50,149 L125,149 L125,201 L50,201 L50,149 z"/></clipPath></defs><g clip-path="url(#clip17)" fill="none" opacity="1" stroke="#000000" stroke-linecap="butt" stroke-linejoin="miter" stroke-miterlimit="2" stroke-opacity="1" stroke-width="0.445" transform="matrix(2.24719,0,0,2.24719,-95.5056,-329.213)"><polyline fill="none" points="77,155 88,155" vector-effect="none"/></g><defs><clipPath id="clip18"><path d="M50,149 L125,149 L125,201 L50,201 L50,149 z"/></clipPath></defs><g clip-path="url(#clip18)" fill="none" opacity="1" stroke="#000000" stroke-linecap="butt" stroke-linejoin="miter" stroke-miterlimit="2" stroke-opacity="1" stroke-width="0.445" transform="matrix(2.24719,0,0,2.24719,-95.5056,-329.213)"><polyline fill="none" points="88,155 88,159" vector-effect="none"/></g><defs><clipPath id="clip19"><path d="M50,149 L125,149 L125,201 L50,201 L50,149 z"/></clipPath></defs><g clip-path="url(#clip19)" fill="none" opacity="1" stroke="#000000" stroke-linecap="butt" stroke-linejoin="miter" stroke-miterlimit="2" stroke-opacity="1" stroke-width="0.445" transform="matrix(2.24719,0,0,2.24719,-95.5056,-329.213)"><polyline fill="none" points="88,159 88,152" vector-effect="none"/></g><defs><clipPath id="clip20"><path d="M50,149 L125,149 L125,201 L50,201 L50,149 z"/></clipPath></defs><g clip-path="url(#clip20)" fill="none" opacity="1" stroke="#000000" stroke-linecap="butt" stroke-linejoin="miter" stroke-miterlimit="2" stroke-opacity="1" stroke-width="0.445" transform="matrix(2.24719,0,0,2.24719,-95.5056,-329.213)"><polyline fill="none" points="88,152 88,164" vector-effect="none"/></g><defs><clipPath id="clip21"><path d="M50,149 L125,149 L125,201 L50,201 L50,149 z"/></clipPath></defs><g clip-path="url(#clip21)" fill="none" opacity="1" stroke="#000000" stroke-linecap="butt" stroke-linejoin="miter" stroke-miterlimit="2" stroke-opacity="1" stroke-width="0.445" transform="matrix(2.24719,0,0,2.24719,-95.5056,-329.213)"><polyline fill="none" points="88,164 88,159" vector-effect="none"/></g><defs><clipPath id="clip22"><path d="M50,149 L125,149 L125,201 L50,201 L50,149 z"/></clipPath></defs><g clip-path="url(#clip22)" fill="none" opacity="1" stroke="#000000" stroke-linecap="butt" stroke-linejoin="miter" stroke-miterlimit="2" stroke-opacity="1" stroke-width="0.445" transform="matrix(2.24719,0,0,2.24719,-95.5056,-329.213)"><polyline fill="none" points="88,159 88,155" vector-effect="none"/></g><defs><clipPath id="clip23"><path d="M50,149 L125,149 L125,201 L50,201 L50,149 z"/></clipPath></defs><g clip-path="url(#clip23)" fill="none" opacity="1" stroke="#000000" stroke-linecap="butt" stroke-linejoin="miter" stroke-miterlimit="2" stroke-opacity="1" stroke-width="0.445" transform="matrix(2.24719,0,0,2.24719,-95.5056,-329.213)"><polyline fill="none" points="88,155 89,155" vector-effect="none"/></g><defs><clipPath id="clip24"><path d="M50,149 L125,149 L125,201 L50,201 L50,149 z"/></clipPath></defs><g clip-path="url(#clip24)" fill="none" opacity="1" stroke="#000000" stroke-linecap="butt" stroke-linejoin="miter" stroke-miterlimit="2" stroke-opacity="1" stroke-width="0.445" transform="matrix(2.24719,0,0,2.24719,-95.5056,-329.213)"><polyline fill="none" points="89,155 90,158" vector-effect="none"/></g><defs><clipPath id="clip25"><path d="M50,149 L125,149 L125,201 L50,201 L50,149 z"/></clipPath></defs><g clip-path="url(#clip25)" fill="none" opacity="1" stroke="#000000" stroke-linecap="butt" stroke-linejoin="miter" stroke-miterlimit="2" stroke-opacity="1" stroke-width="0.445" transform="matrix(2.24719,0,0,2.24719,-95.5056,-329.213)"><polyline fill="none" points="90,158 91,162" vector-effect="none"/></g><defs><clipPath id="clip26"><path d="M50,149 L125,149 L125,201 L50,201 L50,149 z"/></clipPath></defs><g clip-path="url(#clip26)" fill="none" opacity="1" stroke="#000000" stroke-linecap="butt" stroke-linejoin="miter" stroke-miterlimit="2" stroke-opacity="1" stroke-width="0.445" transform="matrix(2.24719,0,0,2.24719,-95.5056,-329.213)"><polyline fill="none" points="91,162 92,163" vector-effect="none"/></g><defs><clipPath id="clip27"><path d="M50,149 L125,149 L125,201 L50,201 L50,149 z"/></clipPath></defs><g clip-path="url(#clip27)" fill="none" opacity="1" stroke="#000000" stroke-linecap="butt" stroke-linejoin="miter" stroke-miterlimit="2" stroke-opacity="1" stroke-width="0.445" transform="matrix(2.24719,0,0,2.24719,-95.5056,-329.213)"><polyline fill="none" points="92,163 92,160" vector-effect="none"/></g><defs><clipPath id="clip28"><path d="M50,149 L125,149 L125,201 L50,201 L50,149 z"/></clipPath></defs><g clip-path="url(#clip28)" fill="none" opacity="1" stroke="#000000" stroke-linecap="butt" stroke-linejoin="miter" stroke-miterlimit="2" stroke-opacity="1" stroke-width="0.445" transform="matrix(2.24719,0,0,2.24719,-95.5056,-329.213)"><polyline fill="none" points="92,160 93,156" vector-effect="none"/></g><defs><clipPath id="clip29"><path d="M50,149 L125,149 L125,201 L50,201 L50,149 z"/></clipPath></defs><g clip-path="url(#clip29)" fill="none" opacity="1" stroke="#000000" stroke-linecap="butt" stroke-linejoin="miter" stroke-miterlimit="2" stroke-opacity="1" stroke-width="0.445" transform="matrix(2.24719,0,0,2.24719,-95.5056,-329.213)"><polyline fill="none" points="93,156 94,154" vector-effect="none"/></g><defs><clipPath id="clip30"><path d="M50,149 L125,149 L125,201 L50,201 L50,149 z"/></clipPath></defs><g clip-path="url(#clip30)" fill="none" opacity="1" stroke="#000000" stroke-linecap="butt" stroke-linejoin="miter" stroke-miterlimit="2" stroke-opacity="1" stroke-width="0.445" transform="matrix(2.24719,0,0,2.24719,-95.5056,-329.213)"><polyline fill="none" points="94,154 95,157" vector-effect="none"/></g><defs><clipPath id="clip31"><path d="M50,149 L125,149 L125,201 L50,201 L50,149 z"/></clipPath></defs><g clip-path="url(#clip31)" fill="none" opacity="1" stroke="#000000" stroke-linecap="butt" stroke-linejoin="miter" stroke-miterlimit="2" stroke-opacity="1" stroke-width="0.445" transform="matrix(2.24719,0,0,2.24719,-95.5056,-329.213)"><polyline fill="none" points="95,157 96,162" vector-effect="none"/></g><defs><clipPath id="clip32"><path d="M50,149 L125,149 L125,201 L50,201 L50,149 z"/></clipPath></defs><g clip-path="url(#clip32)" fill="none" opacity="1" stroke="#000000" stroke-linecap="butt" stroke-linejoin="miter" stroke-miterlimit="2" stroke-opacity="1" stroke-width="0.445" transform="matrix(2.24719,0,0,2.24719,-95.5056,-329.213)"><polyline fill="none" points="96,162 97,163" vector-effect="none"/></g><defs><clipPath id="clip33"><path d="M50,149 L125,149 L125,201 L50,201 L50,149 z"/></clipPath></defs><g clip-path="url(#clip33)" fill="none" opacity="1" stroke="#000000" stroke-linecap="butt" stroke-linejoin="miter" stroke-miterlimit="2" stroke-opacity="1" stroke-width="0.445" transform="matrix(2.24719,0,0,2.24719,-95.5056,-329.213)"><polyline fill="none" points="97,163 97,161" vector-effect="none"/></g><defs><clipPath id="clip34"><path d="M50,149 L125,149 L125,201 L50,201 L50,149 z"/></clipPath></defs><g clip-path="url(#clip34)" fill="none" opacity="1" stroke="#000000" stroke-linecap="butt" stroke-linejoin="miter" stroke-miterlimit="2" stroke-opacity="1" stroke-width="0.445" transform="matrix(2.24719,0,0,2.24719,-95.5056,-329.213)"><polyline fill="none" points="97,161 98,159" vector-effect="none"/></g><defs><clipPath id="clip35"><path d="M50,149 L125,149 L125,201 L50,201 L50,149 z"/></clipPath></defs><g clip-path="url(#clip35)" fill="none" opacity="1" stroke="#000000" stroke-linecap="butt" stroke-linejoin="miter" stroke-miterlimit="2" stroke-opacity="1" stroke-width="0.445" transform="matrix(2.24719,0,0,2.24719,-95.5056,-329.213)"><polyline fill="none" points="98,159 100,155" vector-effect="none"/></g><defs><clipPath id="clip36"><path d="M50,149 L125,149 L125,201 L50,201 L50,149 z"/></clipPath></defs><g clip-path="url(#clip36)" fill="none" opacity="1" stroke="#000000" stroke-linecap="butt" stroke-linejoin="miter" stroke-miterlimit="2" stroke-opacity="1" stroke-width="0.445" transform="matrix(2.24719,0,0,2.24719,-95.5056,-329.213)"><polyline fill="none" points="100,155 101,155" vector-effect="none"/></g><defs><clipPath id="clip37"><path d="M50,149 L125,149 L125,201 L50,201 L50,149 z"/></clipPath></defs><g clip-path="url(#clip37)" fill="none" opacity="1" stroke="#000000" stroke-linecap="butt" stroke-linejoin="miter" stroke-miterlimit="2" stroke-opacity="1" stroke-width="0.445" transform="matrix(2.24719,0,0,2.24719,-95.5056,-329.213)"><polyline fill="none" points="101,155 103,158" vector-effect="none"/></g><defs><clipPath id="clip38"><path d="M50,149 L125,149 L125,201 L50,201 L50,149 z"/></clipPath></defs><g clip-path="url(#clip38)" fill="none" opacity="1" stroke="#000000" stroke-linecap="butt" stroke-linejoin="miter" stroke-miterlimit="2" stroke-opacity="1" stroke-width="0.445" transform="matrix(2.24719,0,0,2.24719,-95.5056,-329.213)"><polyline fill="none" points="103,158 104,162" vector-effect="none"/></g><defs><clipPath id="clip39"><path d="M50,149 L125,149 L125,201 L50,201 L50,149 z"/></clipPath></defs><g clip-path="url(#clip39)" fill="none" opacity="1" stroke="#000000" stroke-linecap="butt" stroke-linejoin="miter" stroke-miterlimit="2" stroke-opacity="1" stroke-width="0.445" transform="matrix(2.24719,0,0,2.24719,-95.5056,-329.213)"><polyline fill="none" points="104,162 106,163" vector-effect="none"/></g><defs><clipPath id="clip40"><path d="M50,149 L125,149 L125,201 L50,201 L50,149 z"/></clipPath></defs><g clip-path="url(#clip40)" fill="none" opacity="1" stroke="#000000" stroke-linecap="butt" stroke-linejoin="miter" stroke-miterlimit="2" stroke-opacity="1" stroke-width="0.445" transform="matrix(2.24719,0,0,2.24719,-95.5056,-329.213)"><polyline fill="none" points="106,163 108,160" vector-effect="none"/></g><defs><clipPath id="clip41"><path d="M50,149 L125,149 L125,201 L50,201 L50,149 z"/></clipPath></defs><g clip-path="url(#clip41)" fill="none" opacity="1" stroke="#000000" stroke-linecap="butt" stroke-linejoin="miter" stroke-miterlimit="2" stroke-opacity="1" stroke-width="0.445" transform="matrix(2.24719,0,0,2.24719,-95.5056,-329.213)"><polyline fill="none" points="108,160 108,159" vector-effect="none"/></g><defs><clipPath id="clip42"><path d="M50,149 L125,149 L125,201 L50,201 L50,149 z"/></clipPath></defs><g clip-path="url(#clip42)" fill="none" opacity="1" stroke="#000000" stroke-linecap="butt" stroke-linejoin="miter" stroke-miterlimit="2" stroke-opacity="1" stroke-width="0.445" transform="matrix(2.24719,0,0,2.24719,-95.5056,-329.213)"><polyline fill="none" points="108,159 109,155" vector-effect="none"/></g><defs><clipPath id="clip43"><path d="M50,149 L125,149 L125,201 L50,201 L50,149 z"/></clipPath></defs><g clip-path="url(#clip43)" fill="none" opacity="1" stroke="#000000" stroke-linecap="butt" stroke-linejoin="miter" stroke-miterlimit="2" stroke-opacity="1" stroke-width="0.445" transform="matrix(2.24719,0,0,2.24719,-95.5056,-329.213)"><polyline fill="none" points="109,155 110,155" vector-effect="none"/></g><defs><clipPath id="clip44"><path d="M50,149 L125,149 L125,201 L50,201 L50,149 z"/></clipPath></defs><g clip-path="url(#clip44)" fill="none" opacity="1" stroke="#000000" stroke-linecap="butt" stroke-linejoin="miter" stroke-miterlimit="2" stroke-opacity="1" stroke-width="0.445" transform="matrix(2.24719,0,0,2.24719,-95.5056,-329.213)"><polyline fill="none" points="110,155 111,158" vector-effect="none"/></g><defs><clipPath id="clip45"><path d="M50,149 L125,149 L125,201 L50,201 L50,149 z"/></clipPath></defs><g clip-path="url(#clip45)" fill="none" opacity="1" stroke="#000000" stroke-linecap="butt" stroke-linejoin="miter" stroke-miterlimit="2" stroke-opacity="1" stroke-width="0.445" transform="matrix(2.24719,0,0,2.24719,-95.5056,-329.213)"><polyline fill="none" points="111,158 112,162" vector-effect="none"/></g><defs><clipPath id="clip46"><path d="M50,149 L125,149 L125,201 L50,201 L50,149 z"/></clipPath></defs><g clip-path="url(#clip46)" fill="none" opacity="1" stroke="#000000" stroke-linecap="butt" stroke-linejoin="miter" stroke-miterlimit="2" stroke-opacity="1" stroke-width="0.445" transform="matrix(2.24719,0,0,2.24719,-95.5056,-329.213)"><polyline fill="none" points="112,162 112,163" vector-effect="none"/></g><defs><clipPath id="clip47"><path d="M50,149 L125,149 L125,201 L50,201 L50,149 z"/></clipPath></defs><g clip-path="url(#clip47)" fill="none" opacity="1" stroke="#000000" stroke-linecap="butt" stroke-linejoin="miter" stroke-miterlimit="2" stroke-opacity="1" stroke-width="0.445" transform="matrix(2.24719,0,0,2.24719,-95.5056,-329.213)"><polyline fill="none" points="112,163 113,160" vector-effect="none"/></g><defs><clipPath id="clip48"><path d="M50,149 L125,149 L125,201 L50,201 L50,149 z"/></clipPath></defs><g clip-path="url(#clip48)" fill="none" opacity="1" stroke="#000000" stroke-linecap="butt" stroke-linejoin="miter" stroke-miterlimit="2" stroke-opacity="1" stroke-width="0.445" transform="matrix(2.24719,0,0,2.24719,-95.5056,-329.213)"><polyline fill="none" points="113,160 114,156" vector-effect="none"/></g><defs><clipPath id="clip49"><path d="M50,149 L125,149 L125,201 L50,201 L50,149 z"/></clipPath></defs><g clip-path="url(#clip49)" fill="none" opacity="1" stroke="#000000" stroke-linecap="butt" stroke-linejoin="miter" stroke-miterlimit="2" stroke-opacity="1" stroke-width="0.445" transform="matrix(2.24719,0,0,2.24719,-95.5056,-329.213)"><polyline fill="none" points="114,156 115,154" vector-effect="none"/></g><defs><clipPath id="clip50"><path d="M50,149 L125,149 L125,201 L50,201 L50,149 z"/></clipPath></defs><g clip-path="url(#clip50)" fill="none" opacity="1" stroke="#000000" stroke-linecap="butt" stroke-linejoin="miter" stroke-miterlimit="2" stroke-opacity="1" stroke-width="0.445" transform="matrix(2.24719,0,0,2.24719,-95.5056,-329.213)"><polyline fill="none" points="115,154 116,157" vector-effect="none"/></g><defs><clipPath id="clip51"><path d="M50,149 L125,149 L125,201 L50,201 L50,149 z"/></clipPath></defs><g clip-path="url(#clip51)" fill="none" opacity="1" stroke="#000000" stroke-linecap="butt" stroke-linejoin="miter" stroke-miterlimit="2" stroke-opacity="1" stroke-width="0.445" transform="matrix(2.24719,0,0,2.24719,-95.5056,-329.213)"><polyline fill="none" points="116,157 116,162" vector-effect="none"/></g><defs><clipPath id="clip52"><path d="M50,149 L125,149 L125,201 L50,201 L50,149 z"/></clipPath></defs><g clip-path="url(#clip52)" fill="none" opacity="1" stroke="#000000" stroke-linecap="butt" stroke-linejoin="miter" stroke-miterlimit="2" stroke-opacity="1" stroke-width="0.445" transform="matrix(2.24719,0,0,2.24719,-95.5056,-329.213)"><polyline fill="none" points="116,162 117,163" vector-effect="none"/></g><defs><clipPath id="clip53"><path d="M50,149 L125,149 L125,201 L50,201 L50,149 z"/></clipPath></defs><g clip-path="url(#clip53)" fill="none" opacity="1" stroke="#000000" stroke-linecap="butt" stroke-linejoin="miter" stroke-miterlimit="2" stroke-opacity="1" stroke-width="0.445" transform="matrix(2.24719,0,0,2.24719,-95.5056,-329.213)"><polyline fill="none" points="117,163 118,161" vector-effect="none"/></g><defs><clipPath id="clip55"><path d="M-189,-133 L195,-133 L195,133 L-189,133 L-189,-133 z"/></clipPath></defs><g clip-path="url(#clip55)" fill="none" opacity="1" stroke="#000000" stroke-linecap="butt" stroke-linejoin="miter" stroke-miterlimit="2" stroke-opacity="1" stroke-width="0.445" transform="matrix(0.438904,0,0,0.438904,98.8764,62.9213)"><text fill="#000000" fill-opacity="1" font-family="Liberation Sans" font-size="40" font-style="normal" font-weight="400" stroke="none" textLength="211" x="-137.953" xml:space="preserve" y="17.9219">Rectangular</text></g><defs><clipPath id="clip58"><path d="M-189,-184 L195,-184 L195,82 L-189,82 L-189,-184 z"/></clipPath></defs><g clip-path="url(#clip58)" fill="none" opacity="1" stroke="#000000" stroke-linecap="butt" stroke-linejoin="miter" stroke-miterlimit="2" stroke-opacity="1" stroke-width="0.445" transform="matrix(0.438904,0,0,0.438904,98.8764,85.3933)"><text fill="#000000" fill-opacity="1" font-family="Liberation Sans" font-size="40" font-style="normal" font-weight="400" stroke="none" textLength="91" x="-58.2969" xml:space="preserve" y="17.9219">QAM</text></g><defs><clipPath id="clip64"><path d="M-7,-2 L82,-2 L82,54 L-7,54 L-7,-2 z"/></clipPath></defs><g clip-path="url(#clip64)" fill="none" opacity="1" stroke="#000000" stroke-linecap="butt" stroke-linejoin="miter" stroke-miterlimit="2" stroke-opacity="1" stroke-width="0.723343" transform="matrix(2.24719,0,0,2.24719,15.7303,4.49438)"><path d="M0,0 L75,0 L75,52 L0,52 L0,0 z" fill-rule="evenodd" vector-effect="none"/></g></g></svg>
