<?xml version="1.0" encoding="UTF-8"?><svg width="52.9167mm" height="33.0729mm" viewBox="0 0 200 125" xmlns="http://www.w3.org/2000/svg" xmlns:xlink="http://www.w3.org/1999/xlink"><g fill="none" stroke="black" stroke-width="1" fill-rule="evenodd" stroke-linecap="square" stroke-linejoin="bevel"><g clip-path="none" fill="none" opacity="1" stroke="none" stroke-opacity="0" transform="matrix(1,0,0,1,0,0)"><path d="M0,0 L200,0 L200,125 L0,125 L0,0 z" fill-rule="evenodd" vector-effect="none"/></g><defs><clipPath id="clip3"><path d="M-82,-28 L7,-28 L7,28 L-82,28 L-82,-28 z"/></clipPath></defs><g clip-path="url(#clip3)" fill="none" opacity="1" stroke="#000000" stroke-linecap="round" stroke-linejoin="miter" stroke-miterlimit="2" stroke-opacity="1" stroke-width="2" transform="matrix(2.24719,0,0,2.24719,184.27,62.9213)"><path d="M0,-5 L5,0 L0,5" fill-rule="evenodd" vector-effect="none"/></g><defs><clipPath id="clip6"><path d="M7,28 L-82,28 L-82,-28 L7,-28 L7,28 z"/></clipPath></defs><g clip-path="url(#clip6)" fill="none" opacity="1" stroke="#000000" stroke-linecap="round" stroke-linejoin="miter" stroke-miterlimit="2" stroke-opacity="1" stroke-width="2" transform="matrix(-2.24719,0,0,-2.24719,15.7303,62.9213)"><path d="M5,-5 L0,0 L5,5" fill-rule="evenodd" vector-effect="none"/></g><defs><clipPath id="clip9"><path d="M-7,-2 L82,-2 L82,54 L-7,54 L-7,-2 z"/></clipPath></defs><g clip-path="url(#clip9)" fill="#ffffff" fill-opacity="1" opacity="1" stroke="none" stroke-opacity="0" transform="matrix(2.24719,0,0,2.24719,15.7303,4.49438)"><path d="M0,0 L75,0 L75,52 L0,52 L0,0 z" fill-rule="evenodd" vector-effect="none"/></g><defs><clipPath id="clip13"><path d="M180,264 L255,264 L255,316 L180,316 L180,264 z"/></clipPath></defs><g clip-path="url(#clip13)" fill="none" opacity="1" stroke="#000000" stroke-linecap="butt" stroke-linejoin="miter" stroke-miterlimit="2" stroke-opacity="1" stroke-width="0.445" transform="matrix(2.24719,0,0,2.24719,-387.64,-587.64)"><polyline fill="none" points="186,274 187,270" vector-effect="none"/></g><defs><clipPath id="clip14"><path d="M180,264 L255,264 L255,316 L180,316 L180,264 z"/></clipPath></defs><g clip-path="url(#clip14)" fill="none" opacity="1" stroke="#000000" stroke-linecap="butt" stroke-linejoin="miter" stroke-miterlimit="2" stroke-opacity="1" stroke-width="0.445" transform="matrix(2.24719,0,0,2.24719,-387.64,-587.64)"><polyline fill="none" points="187,270 188,270" vector-effect="none"/></g><defs><clipPath id="clip15"><path d="M180,264 L255,264 L255,316 L180,316 L180,264 z"/></clipPath></defs><g clip-path="url(#clip15)" fill="none" opacity="1" stroke="#000000" stroke-linecap="butt" stroke-linejoin="miter" stroke-miterlimit="2" stroke-opacity="1" stroke-width="0.445" transform="matrix(2.24719,0,0,2.24719,-387.64,-587.64)"><polyline fill="none" points="188,270 189,273" vector-effect="none"/></g><defs><clipPath id="clip16"><path d="M180,264 L255,264 L255,316 L180,316 L180,264 z"/></clipPath></defs><g clip-path="url(#clip16)" fill="none" opacity="1" stroke="#000000" stroke-linecap="butt" stroke-linejoin="miter" stroke-miterlimit="2" stroke-opacity="1" stroke-width="0.445" transform="matrix(2.24719,0,0,2.24719,-387.64,-587.64)"><polyline fill="none" points="189,273 190,277" vector-effect="none"/></g><defs><clipPath id="clip17"><path d="M180,264 L255,264 L255,316 L180,316 L180,264 z"/></clipPath></defs><g clip-path="url(#clip17)" fill="none" opacity="1" stroke="#000000" stroke-linecap="butt" stroke-linejoin="miter" stroke-miterlimit="2" stroke-opacity="1" stroke-width="0.445" transform="matrix(2.24719,0,0,2.24719,-387.64,-587.64)"><polyline fill="none" points="190,277 191,278" vector-effect="none"/></g><defs><clipPath id="clip18"><path d="M180,264 L255,264 L255,316 L180,316 L180,264 z"/></clipPath></defs><g clip-path="url(#clip18)" fill="none" opacity="1" stroke="#000000" stroke-linecap="butt" stroke-linejoin="miter" stroke-miterlimit="2" stroke-opacity="1" stroke-width="0.445" transform="matrix(2.24719,0,0,2.24719,-387.64,-587.64)"><polyline fill="none" points="191,278 191,275" vector-effect="none"/></g><defs><clipPath id="clip19"><path d="M180,264 L255,264 L255,316 L180,316 L180,264 z"/></clipPath></defs><g clip-path="url(#clip19)" fill="none" opacity="1" stroke="#000000" stroke-linecap="butt" stroke-linejoin="miter" stroke-miterlimit="2" stroke-opacity="1" stroke-width="0.445" transform="matrix(2.24719,0,0,2.24719,-387.64,-587.64)"><polyline fill="none" points="191,275 192,271" vector-effect="none"/></g><defs><clipPath id="clip20"><path d="M180,264 L255,264 L255,316 L180,316 L180,264 z"/></clipPath></defs><g clip-path="url(#clip20)" fill="none" opacity="1" stroke="#000000" stroke-linecap="butt" stroke-linejoin="miter" stroke-miterlimit="2" stroke-opacity="1" stroke-width="0.445" transform="matrix(2.24719,0,0,2.24719,-387.64,-587.64)"><polyline fill="none" points="192,271 193,269" vector-effect="none"/></g><defs><clipPath id="clip21"><path d="M180,264 L255,264 L255,316 L180,316 L180,264 z"/></clipPath></defs><g clip-path="url(#clip21)" fill="none" opacity="1" stroke="#000000" stroke-linecap="butt" stroke-linejoin="miter" stroke-miterlimit="2" stroke-opacity="1" stroke-width="0.445" transform="matrix(2.24719,0,0,2.24719,-387.64,-587.64)"><polyline fill="none" points="193,269 194,272" vector-effect="none"/></g><defs><clipPath id="clip22"><path d="M180,264 L255,264 L255,316 L180,316 L180,264 z"/></clipPath></defs><g clip-path="url(#clip22)" fill="none" opacity="1" stroke="#000000" stroke-linecap="butt" stroke-linejoin="miter" stroke-miterlimit="2" stroke-opacity="1" stroke-width="0.445" transform="matrix(2.24719,0,0,2.24719,-387.64,-587.64)"><polyline fill="none" points="194,272 195,277" vector-effect="none"/></g><defs><clipPath id="clip23"><path d="M180,264 L255,264 L255,316 L180,316 L180,264 z"/></clipPath></defs><g clip-path="url(#clip23)" fill="none" opacity="1" stroke="#000000" stroke-linecap="butt" stroke-linejoin="miter" stroke-miterlimit="2" stroke-opacity="1" stroke-width="0.445" transform="matrix(2.24719,0,0,2.24719,-387.64,-587.64)"><polyline fill="none" points="195,277 196,278" vector-effect="none"/></g><defs><clipPath id="clip24"><path d="M180,264 L255,264 L255,316 L180,316 L180,264 z"/></clipPath></defs><g clip-path="url(#clip24)" fill="none" opacity="1" stroke="#000000" stroke-linecap="butt" stroke-linejoin="miter" stroke-miterlimit="2" stroke-opacity="1" stroke-width="0.445" transform="matrix(2.24719,0,0,2.24719,-387.64,-587.64)"><polyline fill="none" points="196,278 196,276" vector-effect="none"/></g><defs><clipPath id="clip25"><path d="M180,264 L255,264 L255,316 L180,316 L180,264 z"/></clipPath></defs><g clip-path="url(#clip25)" fill="none" opacity="1" stroke="#000000" stroke-linecap="butt" stroke-linejoin="miter" stroke-miterlimit="2" stroke-opacity="1" stroke-width="0.445" transform="matrix(2.24719,0,0,2.24719,-387.64,-587.64)"><polyline fill="none" points="196,276 197,274" vector-effect="none"/></g><defs><clipPath id="clip26"><path d="M180,264 L255,264 L255,316 L180,316 L180,264 z"/></clipPath></defs><g clip-path="url(#clip26)" fill="none" opacity="1" stroke="#000000" stroke-linecap="butt" stroke-linejoin="miter" stroke-miterlimit="2" stroke-opacity="1" stroke-width="0.445" transform="matrix(2.24719,0,0,2.24719,-387.64,-587.64)"><polyline fill="none" points="197,274 198,270" vector-effect="none"/></g><defs><clipPath id="clip27"><path d="M180,264 L255,264 L255,316 L180,316 L180,264 z"/></clipPath></defs><g clip-path="url(#clip27)" fill="none" opacity="1" stroke="#000000" stroke-linecap="butt" stroke-linejoin="miter" stroke-miterlimit="2" stroke-opacity="1" stroke-width="0.445" transform="matrix(2.24719,0,0,2.24719,-387.64,-587.64)"><polyline fill="none" points="198,270 200,270" vector-effect="none"/></g><defs><clipPath id="clip28"><path d="M180,264 L255,264 L255,316 L180,316 L180,264 z"/></clipPath></defs><g clip-path="url(#clip28)" fill="none" opacity="1" stroke="#000000" stroke-linecap="butt" stroke-linejoin="miter" stroke-miterlimit="2" stroke-opacity="1" stroke-width="0.445" transform="matrix(2.24719,0,0,2.24719,-387.64,-587.64)"><polyline fill="none" points="200,270 202,273" vector-effect="none"/></g><defs><clipPath id="clip29"><path d="M180,264 L255,264 L255,316 L180,316 L180,264 z"/></clipPath></defs><g clip-path="url(#clip29)" fill="none" opacity="1" stroke="#000000" stroke-linecap="butt" stroke-linejoin="miter" stroke-miterlimit="2" stroke-opacity="1" stroke-width="0.445" transform="matrix(2.24719,0,0,2.24719,-387.64,-587.64)"><polyline fill="none" points="202,273 203,277" vector-effect="none"/></g><defs><clipPath id="clip30"><path d="M180,264 L255,264 L255,316 L180,316 L180,264 z"/></clipPath></defs><g clip-path="url(#clip30)" fill="none" opacity="1" stroke="#000000" stroke-linecap="butt" stroke-linejoin="miter" stroke-miterlimit="2" stroke-opacity="1" stroke-width="0.445" transform="matrix(2.24719,0,0,2.24719,-387.64,-587.64)"><polyline fill="none" points="203,277 205,278" vector-effect="none"/></g><defs><clipPath id="clip31"><path d="M180,264 L255,264 L255,316 L180,316 L180,264 z"/></clipPath></defs><g clip-path="url(#clip31)" fill="none" opacity="1" stroke="#000000" stroke-linecap="butt" stroke-linejoin="miter" stroke-miterlimit="2" stroke-opacity="1" stroke-width="0.445" transform="matrix(2.24719,0,0,2.24719,-387.64,-587.64)"><polyline fill="none" points="205,278 207,275" vector-effect="none"/></g><defs><clipPath id="clip32"><path d="M180,264 L255,264 L255,316 L180,316 L180,264 z"/></clipPath></defs><g clip-path="url(#clip32)" fill="none" opacity="1" stroke="#000000" stroke-linecap="butt" stroke-linejoin="miter" stroke-miterlimit="2" stroke-opacity="1" stroke-width="0.445" transform="matrix(2.24719,0,0,2.24719,-387.64,-587.64)"><polyline fill="none" points="207,275 207,274" vector-effect="none"/></g><defs><clipPath id="clip33"><path d="M180,264 L255,264 L255,316 L180,316 L180,264 z"/></clipPath></defs><g clip-path="url(#clip33)" fill="none" opacity="1" stroke="#000000" stroke-linecap="butt" stroke-linejoin="miter" stroke-miterlimit="2" stroke-opacity="1" stroke-width="0.445" transform="matrix(2.24719,0,0,2.24719,-387.64,-587.64)"><polyline fill="none" points="207,274 208,270" vector-effect="none"/></g><defs><clipPath id="clip34"><path d="M180,264 L255,264 L255,316 L180,316 L180,264 z"/></clipPath></defs><g clip-path="url(#clip34)" fill="none" opacity="1" stroke="#000000" stroke-linecap="butt" stroke-linejoin="miter" stroke-miterlimit="2" stroke-opacity="1" stroke-width="0.445" transform="matrix(2.24719,0,0,2.24719,-387.64,-587.64)"><polyline fill="none" points="208,270 209,270" vector-effect="none"/></g><defs><clipPath id="clip35"><path d="M180,264 L255,264 L255,316 L180,316 L180,264 z"/></clipPath></defs><g clip-path="url(#clip35)" fill="none" opacity="1" stroke="#000000" stroke-linecap="butt" stroke-linejoin="miter" stroke-miterlimit="2" stroke-opacity="1" stroke-width="0.445" transform="matrix(2.24719,0,0,2.24719,-387.64,-587.64)"><polyline fill="none" points="209,270 210,273" vector-effect="none"/></g><defs><clipPath id="clip36"><path d="M180,264 L255,264 L255,316 L180,316 L180,264 z"/></clipPath></defs><g clip-path="url(#clip36)" fill="none" opacity="1" stroke="#000000" stroke-linecap="butt" stroke-linejoin="miter" stroke-miterlimit="2" stroke-opacity="1" stroke-width="0.445" transform="matrix(2.24719,0,0,2.24719,-387.64,-587.64)"><polyline fill="none" points="210,273 210,277" vector-effect="none"/></g><defs><clipPath id="clip37"><path d="M180,264 L255,264 L255,316 L180,316 L180,264 z"/></clipPath></defs><g clip-path="url(#clip37)" fill="none" opacity="1" stroke="#000000" stroke-linecap="butt" stroke-linejoin="miter" stroke-miterlimit="2" stroke-opacity="1" stroke-width="0.445" transform="matrix(2.24719,0,0,2.24719,-387.64,-587.64)"><polyline fill="none" points="210,277 211,278" vector-effect="none"/></g><defs><clipPath id="clip38"><path d="M180,264 L255,264 L255,316 L180,316 L180,264 z"/></clipPath></defs><g clip-path="url(#clip38)" fill="none" opacity="1" stroke="#000000" stroke-linecap="butt" stroke-linejoin="miter" stroke-miterlimit="2" stroke-opacity="1" stroke-width="0.445" transform="matrix(2.24719,0,0,2.24719,-387.64,-587.64)"><polyline fill="none" points="211,278 212,275" vector-effect="none"/></g><defs><clipPath id="clip39"><path d="M180,264 L255,264 L255,316 L180,316 L180,264 z"/></clipPath></defs><g clip-path="url(#clip39)" fill="none" opacity="1" stroke="#000000" stroke-linecap="butt" stroke-linejoin="miter" stroke-miterlimit="2" stroke-opacity="1" stroke-width="0.445" transform="matrix(2.24719,0,0,2.24719,-387.64,-587.64)"><polyline fill="none" points="212,275 213,271" vector-effect="none"/></g><defs><clipPath id="clip40"><path d="M180,264 L255,264 L255,316 L180,316 L180,264 z"/></clipPath></defs><g clip-path="url(#clip40)" fill="none" opacity="1" stroke="#000000" stroke-linecap="butt" stroke-linejoin="miter" stroke-miterlimit="2" stroke-opacity="1" stroke-width="0.445" transform="matrix(2.24719,0,0,2.24719,-387.64,-587.64)"><polyline fill="none" points="213,271 214,269" vector-effect="none"/></g><defs><clipPath id="clip41"><path d="M180,264 L255,264 L255,316 L180,316 L180,264 z"/></clipPath></defs><g clip-path="url(#clip41)" fill="none" opacity="1" stroke="#000000" stroke-linecap="butt" stroke-linejoin="miter" stroke-miterlimit="2" stroke-opacity="1" stroke-width="0.445" transform="matrix(2.24719,0,0,2.24719,-387.64,-587.64)"><polyline fill="none" points="214,269 215,272" vector-effect="none"/></g><defs><clipPath id="clip42"><path d="M180,264 L255,264 L255,316 L180,316 L180,264 z"/></clipPath></defs><g clip-path="url(#clip42)" fill="none" opacity="1" stroke="#000000" stroke-linecap="butt" stroke-linejoin="miter" stroke-miterlimit="2" stroke-opacity="1" stroke-width="0.445" transform="matrix(2.24719,0,0,2.24719,-387.64,-587.64)"><polyline fill="none" points="215,272 215,277" vector-effect="none"/></g><defs><clipPath id="clip43"><path d="M180,264 L255,264 L255,316 L180,316 L180,264 z"/></clipPath></defs><g clip-path="url(#clip43)" fill="none" opacity="1" stroke="#000000" stroke-linecap="butt" stroke-linejoin="miter" stroke-miterlimit="2" stroke-opacity="1" stroke-width="0.445" transform="matrix(2.24719,0,0,2.24719,-387.64,-587.64)"><polyline fill="none" points="215,277 216,278" vector-effect="none"/></g><defs><clipPath id="clip44"><path d="M180,264 L255,264 L255,316 L180,316 L180,264 z"/></clipPath></defs><g clip-path="url(#clip44)" fill="none" opacity="1" stroke="#000000" stroke-linecap="butt" stroke-linejoin="miter" stroke-miterlimit="2" stroke-opacity="1" stroke-width="0.445" transform="matrix(2.24719,0,0,2.24719,-387.64,-587.64)"><polyline fill="none" points="216,278 217,276" vector-effect="none"/></g><defs><clipPath id="clip45"><path d="M180,264 L255,264 L255,316 L180,316 L180,264 z"/></clipPath></defs><g clip-path="url(#clip45)" fill="none" opacity="1" stroke="#000000" stroke-linecap="butt" stroke-linejoin="miter" stroke-miterlimit="2" stroke-opacity="1" stroke-width="0.445" transform="matrix(2.24719,0,0,2.24719,-387.64,-587.64)"><polyline fill="none" points="217,276 218,274" vector-effect="none"/></g><defs><clipPath id="clip46"><path d="M180,264 L255,264 L255,316 L180,316 L180,264 z"/></clipPath></defs><g clip-path="url(#clip46)" fill="none" opacity="1" stroke="#000000" stroke-linecap="butt" stroke-linejoin="miter" stroke-miterlimit="2" stroke-opacity="1" stroke-width="0.445" transform="matrix(2.24719,0,0,2.24719,-387.64,-587.64)"><polyline fill="none" points="218,274 218,267" vector-effect="none"/></g><defs><clipPath id="clip47"><path d="M180,264 L255,264 L255,316 L180,316 L180,264 z"/></clipPath></defs><g clip-path="url(#clip47)" fill="none" opacity="1" stroke="#000000" stroke-linecap="butt" stroke-linejoin="miter" stroke-miterlimit="2" stroke-opacity="1" stroke-width="0.445" transform="matrix(2.24719,0,0,2.24719,-387.64,-587.64)"><polyline fill="none" points="218,267 218,279" vector-effect="none"/></g><defs><clipPath id="clip48"><path d="M180,264 L255,264 L255,316 L180,316 L180,264 z"/></clipPath></defs><g clip-path="url(#clip48)" fill="none" opacity="1" stroke="#000000" stroke-linecap="butt" stroke-linejoin="miter" stroke-miterlimit="2" stroke-opacity="1" stroke-width="0.445" transform="matrix(2.24719,0,0,2.24719,-387.64,-587.64)"><polyline fill="none" points="218,279 218,270" vector-effect="none"/></g><defs><clipPath id="clip49"><path d="M180,264 L255,264 L255,316 L180,316 L180,264 z"/></clipPath></defs><g clip-path="url(#clip49)" fill="none" opacity="1" stroke="#000000" stroke-linecap="butt" stroke-linejoin="miter" stroke-miterlimit="2" stroke-opacity="1" stroke-width="0.445" transform="matrix(2.24719,0,0,2.24719,-387.64,-587.64)"><polyline fill="none" points="218,270 228,270" vector-effect="none"/></g><defs><clipPath id="clip50"><path d="M180,264 L255,264 L255,316 L180,316 L180,264 z"/></clipPath></defs><g clip-path="url(#clip50)" fill="none" opacity="1" stroke="#000000" stroke-linecap="butt" stroke-linejoin="miter" stroke-miterlimit="2" stroke-opacity="1" stroke-width="0.445" transform="matrix(2.24719,0,0,2.24719,-387.64,-587.64)"><polyline fill="none" points="228,270 228,278" vector-effect="none"/></g><defs><clipPath id="clip51"><path d="M180,264 L255,264 L255,316 L180,316 L180,264 z"/></clipPath></defs><g clip-path="url(#clip51)" fill="none" opacity="1" stroke="#000000" stroke-linecap="butt" stroke-linejoin="miter" stroke-miterlimit="2" stroke-opacity="1" stroke-width="0.445" transform="matrix(2.24719,0,0,2.24719,-387.64,-587.64)"><polyline fill="none" points="228,278 238,278" vector-effect="none"/></g><defs><clipPath id="clip52"><path d="M180,264 L255,264 L255,316 L180,316 L180,264 z"/></clipPath></defs><g clip-path="url(#clip52)" fill="none" opacity="1" stroke="#000000" stroke-linecap="butt" stroke-linejoin="miter" stroke-miterlimit="2" stroke-opacity="1" stroke-width="0.445" transform="matrix(2.24719,0,0,2.24719,-387.64,-587.64)"><polyline fill="none" points="238,278 238,270" vector-effect="none"/></g><defs><clipPath id="clip53"><path d="M180,264 L255,264 L255,316 L180,316 L180,264 z"/></clipPath></defs><g clip-path="url(#clip53)" fill="none" opacity="1" stroke="#000000" stroke-linecap="butt" stroke-linejoin="miter" stroke-miterlimit="2" stroke-opacity="1" stroke-width="0.445" transform="matrix(2.24719,0,0,2.24719,-387.64,-587.64)"><polyline fill="none" points="238,270 249,270" vector-effect="none"/></g><defs><clipPath id="clip55"><path d="M-189,-133 L195,-133 L195,133 L-189,133 L-189,-133 z"/></clipPath></defs><g clip-path="url(#clip55)" fill="none" opacity="1" stroke="#000000" stroke-linecap="butt" stroke-linejoin="miter" stroke-miterlimit="2" stroke-opacity="1" stroke-width="0.445" transform="matrix(0.438904,0,0,0.438904,98.8764,62.9213)"><text fill="#000000" fill-opacity="1" font-family="Liberation Sans" font-size="40" font-style="normal" font-weight="400" stroke="none" textLength="87" x="-55.4531" xml:space="preserve" y="17.9219">MSK</text></g><defs><clipPath id="clip61"><path d="M-7,-2 L82,-2 L82,54 L-7,54 L-7,-2 z"/></clipPath></defs><g clip-path="url(#clip61)" fill="none" opacity="1" stroke="#000000" stroke-linecap="butt" stroke-linejoin="miter" stroke-miterlimit="2" stroke-opacity="1" stroke-width="0.723343" transform="matrix(2.24719,0,0,2.24719,15.7303,4.49438)"><path d="M0,0 L75,0 L75,52 L0,52 L0,0 z" fill-rule="evenodd" vector-effect="none"/></g></g></svg>
