<?xml version="1.0" encoding="UTF-8"?><svg width="52.9167mm" height="29.6333mm" viewBox="0 0 200 112" xmlns="http://www.w3.org/2000/svg" xmlns:xlink="http://www.w3.org/1999/xlink"><g fill="none" stroke="black" stroke-width="1" fill-rule="evenodd" stroke-linecap="square" stroke-linejoin="bevel"><g clip-path="none" fill="none" opacity="1" stroke="none" stroke-opacity="0" transform="matrix(1,0,0,1,0,0)"><path d="M0,0 L200,0 L200,112 L0,112 L0,0 z" fill-rule="evenodd" vector-effect="none"/></g><defs><clipPath id="clip3"><path d="M-82,-25 L7,-25 L7,25 L-82,25 L-82,-25 z"/></clipPath></defs><g clip-path="url(#clip3)" fill="none" opacity="1" stroke="#000000" stroke-linecap="round" stroke-linejoin="miter" stroke-miterlimit="2" stroke-opacity="1" stroke-width="2" transform="matrix(2.24719,0,0,2.24719,184.27,56.1798)"><path d="M0,-5 L5,0 L0,5" fill-rule="evenodd" vector-effect="none"/></g><defs><clipPath id="clip6"><path d="M7,25 L-82,25 L-82,-25 L7,-25 L7,25 z"/></clipPath></defs><g clip-path="url(#clip6)" fill="none" opacity="1" stroke="#000000" stroke-linecap="round" stroke-linejoin="miter" stroke-miterlimit="2" stroke-opacity="1" stroke-width="2" transform="matrix(-2.24719,0,0,-2.24719,15.7303,56.1798)"><path d="M5,-5 L0,0 L5,5" fill-rule="evenodd" vector-effect="none"/></g><defs><clipPath id="clip9"><path d="M-7,-2 L82,-2 L82,48 L-7,48 L-7,-2 z"/></clipPath></defs><g clip-path="url(#clip9)" fill="#ffffff" fill-opacity="1" opacity="1" stroke="none" stroke-opacity="0" transform="matrix(2.24719,0,0,2.24719,15.7303,4.49438)"><path d="M0,0 L75,0 L75,46 L0,46 L0,0 z" fill-rule="evenodd" vector-effect="none"/></g><defs><clipPath id="clip13"><path d="M180,62 L255,62 L255,108 L180,108 L180,62 z"/></clipPath></defs><g clip-path="url(#clip13)" fill="none" opacity="1" stroke="#000000" stroke-linecap="butt" stroke-linejoin="miter" stroke-miterlimit="2" stroke-opacity="1" stroke-width="0.445" transform="matrix(2.24719,0,0,2.24719,-387.64,-133.708)"><polyline fill="none" points="186,71 187,68" vector-effect="none"/></g><defs><clipPath id="clip14"><path d="M180,62 L255,62 L255,108 L180,108 L180,62 z"/></clipPath></defs><g clip-path="url(#clip14)" fill="none" opacity="1" stroke="#000000" stroke-linecap="butt" stroke-linejoin="miter" stroke-miterlimit="2" stroke-opacity="1" stroke-width="0.445" transform="matrix(2.24719,0,0,2.24719,-387.64,-133.708)"><polyline fill="none" points="187,68 188,67" vector-effect="none"/></g><defs><clipPath id="clip15"><path d="M180,62 L255,62 L255,108 L180,108 L180,62 z"/></clipPath></defs><g clip-path="url(#clip15)" fill="none" opacity="1" stroke="#000000" stroke-linecap="butt" stroke-linejoin="miter" stroke-miterlimit="2" stroke-opacity="1" stroke-width="0.445" transform="matrix(2.24719,0,0,2.24719,-387.64,-133.708)"><polyline fill="none" points="188,67 189,70" vector-effect="none"/></g><defs><clipPath id="clip16"><path d="M180,62 L255,62 L255,108 L180,108 L180,62 z"/></clipPath></defs><g clip-path="url(#clip16)" fill="none" opacity="1" stroke="#000000" stroke-linecap="butt" stroke-linejoin="miter" stroke-miterlimit="2" stroke-opacity="1" stroke-width="0.445" transform="matrix(2.24719,0,0,2.24719,-387.64,-133.708)"><polyline fill="none" points="189,70 190,74" vector-effect="none"/></g><defs><clipPath id="clip17"><path d="M180,62 L255,62 L255,108 L180,108 L180,62 z"/></clipPath></defs><g clip-path="url(#clip17)" fill="none" opacity="1" stroke="#000000" stroke-linecap="butt" stroke-linejoin="miter" stroke-miterlimit="2" stroke-opacity="1" stroke-width="0.445" transform="matrix(2.24719,0,0,2.24719,-387.64,-133.708)"><polyline fill="none" points="190,74 191,75" vector-effect="none"/></g><defs><clipPath id="clip18"><path d="M180,62 L255,62 L255,108 L180,108 L180,62 z"/></clipPath></defs><g clip-path="url(#clip18)" fill="none" opacity="1" stroke="#000000" stroke-linecap="butt" stroke-linejoin="miter" stroke-miterlimit="2" stroke-opacity="1" stroke-width="0.445" transform="matrix(2.24719,0,0,2.24719,-387.64,-133.708)"><polyline fill="none" points="191,75 191,72" vector-effect="none"/></g><defs><clipPath id="clip19"><path d="M180,62 L255,62 L255,108 L180,108 L180,62 z"/></clipPath></defs><g clip-path="url(#clip19)" fill="none" opacity="1" stroke="#000000" stroke-linecap="butt" stroke-linejoin="miter" stroke-miterlimit="2" stroke-opacity="1" stroke-width="0.445" transform="matrix(2.24719,0,0,2.24719,-387.64,-133.708)"><polyline fill="none" points="191,72 192,68" vector-effect="none"/></g><defs><clipPath id="clip20"><path d="M180,62 L255,62 L255,108 L180,108 L180,62 z"/></clipPath></defs><g clip-path="url(#clip20)" fill="none" opacity="1" stroke="#000000" stroke-linecap="butt" stroke-linejoin="miter" stroke-miterlimit="2" stroke-opacity="1" stroke-width="0.445" transform="matrix(2.24719,0,0,2.24719,-387.64,-133.708)"><polyline fill="none" points="192,68 193,67" vector-effect="none"/></g><defs><clipPath id="clip21"><path d="M180,62 L255,62 L255,108 L180,108 L180,62 z"/></clipPath></defs><g clip-path="url(#clip21)" fill="none" opacity="1" stroke="#000000" stroke-linecap="butt" stroke-linejoin="miter" stroke-miterlimit="2" stroke-opacity="1" stroke-width="0.445" transform="matrix(2.24719,0,0,2.24719,-387.64,-133.708)"><polyline fill="none" points="193,67 194,70" vector-effect="none"/></g><defs><clipPath id="clip22"><path d="M180,62 L255,62 L255,108 L180,108 L180,62 z"/></clipPath></defs><g clip-path="url(#clip22)" fill="none" opacity="1" stroke="#000000" stroke-linecap="butt" stroke-linejoin="miter" stroke-miterlimit="2" stroke-opacity="1" stroke-width="0.445" transform="matrix(2.24719,0,0,2.24719,-387.64,-133.708)"><polyline fill="none" points="194,70 195,73" vector-effect="none"/></g><defs><clipPath id="clip23"><path d="M180,62 L255,62 L255,108 L180,108 L180,62 z"/></clipPath></defs><g clip-path="url(#clip23)" fill="none" opacity="1" stroke="#000000" stroke-linecap="butt" stroke-linejoin="miter" stroke-miterlimit="2" stroke-opacity="1" stroke-width="0.445" transform="matrix(2.24719,0,0,2.24719,-387.64,-133.708)"><polyline fill="none" points="195,73 196,75" vector-effect="none"/></g><defs><clipPath id="clip24"><path d="M180,62 L255,62 L255,108 L180,108 L180,62 z"/></clipPath></defs><g clip-path="url(#clip24)" fill="none" opacity="1" stroke="#000000" stroke-linecap="butt" stroke-linejoin="miter" stroke-miterlimit="2" stroke-opacity="1" stroke-width="0.445" transform="matrix(2.24719,0,0,2.24719,-387.64,-133.708)"><polyline fill="none" points="196,75 196,73" vector-effect="none"/></g><defs><clipPath id="clip25"><path d="M180,62 L255,62 L255,108 L180,108 L180,62 z"/></clipPath></defs><g clip-path="url(#clip25)" fill="none" opacity="1" stroke="#000000" stroke-linecap="butt" stroke-linejoin="miter" stroke-miterlimit="2" stroke-opacity="1" stroke-width="0.445" transform="matrix(2.24719,0,0,2.24719,-387.64,-133.708)"><polyline fill="none" points="196,73 197,71" vector-effect="none"/></g><defs><clipPath id="clip26"><path d="M180,62 L255,62 L255,108 L180,108 L180,62 z"/></clipPath></defs><g clip-path="url(#clip26)" fill="none" opacity="1" stroke="#000000" stroke-linecap="butt" stroke-linejoin="miter" stroke-miterlimit="2" stroke-opacity="1" stroke-width="0.445" transform="matrix(2.24719,0,0,2.24719,-387.64,-133.708)"><polyline fill="none" points="197,71 198,68" vector-effect="none"/></g><defs><clipPath id="clip27"><path d="M180,62 L255,62 L255,108 L180,108 L180,62 z"/></clipPath></defs><g clip-path="url(#clip27)" fill="none" opacity="1" stroke="#000000" stroke-linecap="butt" stroke-linejoin="miter" stroke-miterlimit="2" stroke-opacity="1" stroke-width="0.445" transform="matrix(2.24719,0,0,2.24719,-387.64,-133.708)"><polyline fill="none" points="198,68 200,67" vector-effect="none"/></g><defs><clipPath id="clip28"><path d="M180,62 L255,62 L255,108 L180,108 L180,62 z"/></clipPath></defs><g clip-path="url(#clip28)" fill="none" opacity="1" stroke="#000000" stroke-linecap="butt" stroke-linejoin="miter" stroke-miterlimit="2" stroke-opacity="1" stroke-width="0.445" transform="matrix(2.24719,0,0,2.24719,-387.64,-133.708)"><polyline fill="none" points="200,67 202,70" vector-effect="none"/></g><defs><clipPath id="clip29"><path d="M180,62 L255,62 L255,108 L180,108 L180,62 z"/></clipPath></defs><g clip-path="url(#clip29)" fill="none" opacity="1" stroke="#000000" stroke-linecap="butt" stroke-linejoin="miter" stroke-miterlimit="2" stroke-opacity="1" stroke-width="0.445" transform="matrix(2.24719,0,0,2.24719,-387.64,-133.708)"><polyline fill="none" points="202,70 203,74" vector-effect="none"/></g><defs><clipPath id="clip30"><path d="M180,62 L255,62 L255,108 L180,108 L180,62 z"/></clipPath></defs><g clip-path="url(#clip30)" fill="none" opacity="1" stroke="#000000" stroke-linecap="butt" stroke-linejoin="miter" stroke-miterlimit="2" stroke-opacity="1" stroke-width="0.445" transform="matrix(2.24719,0,0,2.24719,-387.64,-133.708)"><polyline fill="none" points="203,74 205,75" vector-effect="none"/></g><defs><clipPath id="clip31"><path d="M180,62 L255,62 L255,108 L180,108 L180,62 z"/></clipPath></defs><g clip-path="url(#clip31)" fill="none" opacity="1" stroke="#000000" stroke-linecap="butt" stroke-linejoin="miter" stroke-miterlimit="2" stroke-opacity="1" stroke-width="0.445" transform="matrix(2.24719,0,0,2.24719,-387.64,-133.708)"><polyline fill="none" points="205,75 207,72" vector-effect="none"/></g><defs><clipPath id="clip32"><path d="M180,62 L255,62 L255,108 L180,108 L180,62 z"/></clipPath></defs><g clip-path="url(#clip32)" fill="none" opacity="1" stroke="#000000" stroke-linecap="butt" stroke-linejoin="miter" stroke-miterlimit="2" stroke-opacity="1" stroke-width="0.445" transform="matrix(2.24719,0,0,2.24719,-387.64,-133.708)"><polyline fill="none" points="207,72 207,71" vector-effect="none"/></g><defs><clipPath id="clip33"><path d="M180,62 L255,62 L255,108 L180,108 L180,62 z"/></clipPath></defs><g clip-path="url(#clip33)" fill="none" opacity="1" stroke="#000000" stroke-linecap="butt" stroke-linejoin="miter" stroke-miterlimit="2" stroke-opacity="1" stroke-width="0.445" transform="matrix(2.24719,0,0,2.24719,-387.64,-133.708)"><polyline fill="none" points="207,71 208,68" vector-effect="none"/></g><defs><clipPath id="clip34"><path d="M180,62 L255,62 L255,108 L180,108 L180,62 z"/></clipPath></defs><g clip-path="url(#clip34)" fill="none" opacity="1" stroke="#000000" stroke-linecap="butt" stroke-linejoin="miter" stroke-miterlimit="2" stroke-opacity="1" stroke-width="0.445" transform="matrix(2.24719,0,0,2.24719,-387.64,-133.708)"><polyline fill="none" points="208,68 209,67" vector-effect="none"/></g><defs><clipPath id="clip35"><path d="M180,62 L255,62 L255,108 L180,108 L180,62 z"/></clipPath></defs><g clip-path="url(#clip35)" fill="none" opacity="1" stroke="#000000" stroke-linecap="butt" stroke-linejoin="miter" stroke-miterlimit="2" stroke-opacity="1" stroke-width="0.445" transform="matrix(2.24719,0,0,2.24719,-387.64,-133.708)"><polyline fill="none" points="209,67 210,70" vector-effect="none"/></g><defs><clipPath id="clip36"><path d="M180,62 L255,62 L255,108 L180,108 L180,62 z"/></clipPath></defs><g clip-path="url(#clip36)" fill="none" opacity="1" stroke="#000000" stroke-linecap="butt" stroke-linejoin="miter" stroke-miterlimit="2" stroke-opacity="1" stroke-width="0.445" transform="matrix(2.24719,0,0,2.24719,-387.64,-133.708)"><polyline fill="none" points="210,70 210,74" vector-effect="none"/></g><defs><clipPath id="clip37"><path d="M180,62 L255,62 L255,108 L180,108 L180,62 z"/></clipPath></defs><g clip-path="url(#clip37)" fill="none" opacity="1" stroke="#000000" stroke-linecap="butt" stroke-linejoin="miter" stroke-miterlimit="2" stroke-opacity="1" stroke-width="0.445" transform="matrix(2.24719,0,0,2.24719,-387.64,-133.708)"><polyline fill="none" points="210,74 211,75" vector-effect="none"/></g><defs><clipPath id="clip38"><path d="M180,62 L255,62 L255,108 L180,108 L180,62 z"/></clipPath></defs><g clip-path="url(#clip38)" fill="none" opacity="1" stroke="#000000" stroke-linecap="butt" stroke-linejoin="miter" stroke-miterlimit="2" stroke-opacity="1" stroke-width="0.445" transform="matrix(2.24719,0,0,2.24719,-387.64,-133.708)"><polyline fill="none" points="211,75 212,72" vector-effect="none"/></g><defs><clipPath id="clip39"><path d="M180,62 L255,62 L255,108 L180,108 L180,62 z"/></clipPath></defs><g clip-path="url(#clip39)" fill="none" opacity="1" stroke="#000000" stroke-linecap="butt" stroke-linejoin="miter" stroke-miterlimit="2" stroke-opacity="1" stroke-width="0.445" transform="matrix(2.24719,0,0,2.24719,-387.64,-133.708)"><polyline fill="none" points="212,72 213,68" vector-effect="none"/></g><defs><clipPath id="clip40"><path d="M180,62 L255,62 L255,108 L180,108 L180,62 z"/></clipPath></defs><g clip-path="url(#clip40)" fill="none" opacity="1" stroke="#000000" stroke-linecap="butt" stroke-linejoin="miter" stroke-miterlimit="2" stroke-opacity="1" stroke-width="0.445" transform="matrix(2.24719,0,0,2.24719,-387.64,-133.708)"><polyline fill="none" points="213,68 214,67" vector-effect="none"/></g><defs><clipPath id="clip41"><path d="M180,62 L255,62 L255,108 L180,108 L180,62 z"/></clipPath></defs><g clip-path="url(#clip41)" fill="none" opacity="1" stroke="#000000" stroke-linecap="butt" stroke-linejoin="miter" stroke-miterlimit="2" stroke-opacity="1" stroke-width="0.445" transform="matrix(2.24719,0,0,2.24719,-387.64,-133.708)"><polyline fill="none" points="214,67 215,70" vector-effect="none"/></g><defs><clipPath id="clip42"><path d="M180,62 L255,62 L255,108 L180,108 L180,62 z"/></clipPath></defs><g clip-path="url(#clip42)" fill="none" opacity="1" stroke="#000000" stroke-linecap="butt" stroke-linejoin="miter" stroke-miterlimit="2" stroke-opacity="1" stroke-width="0.445" transform="matrix(2.24719,0,0,2.24719,-387.64,-133.708)"><polyline fill="none" points="215,70 215,73" vector-effect="none"/></g><defs><clipPath id="clip43"><path d="M180,62 L255,62 L255,108 L180,108 L180,62 z"/></clipPath></defs><g clip-path="url(#clip43)" fill="none" opacity="1" stroke="#000000" stroke-linecap="butt" stroke-linejoin="miter" stroke-miterlimit="2" stroke-opacity="1" stroke-width="0.445" transform="matrix(2.24719,0,0,2.24719,-387.64,-133.708)"><polyline fill="none" points="215,73 216,75" vector-effect="none"/></g><defs><clipPath id="clip44"><path d="M180,62 L255,62 L255,108 L180,108 L180,62 z"/></clipPath></defs><g clip-path="url(#clip44)" fill="none" opacity="1" stroke="#000000" stroke-linecap="butt" stroke-linejoin="miter" stroke-miterlimit="2" stroke-opacity="1" stroke-width="0.445" transform="matrix(2.24719,0,0,2.24719,-387.64,-133.708)"><polyline fill="none" points="216,75 217,73" vector-effect="none"/></g><defs><clipPath id="clip45"><path d="M180,62 L255,62 L255,108 L180,108 L180,62 z"/></clipPath></defs><g clip-path="url(#clip45)" fill="none" opacity="1" stroke="#000000" stroke-linecap="butt" stroke-linejoin="miter" stroke-miterlimit="2" stroke-opacity="1" stroke-width="0.445" transform="matrix(2.24719,0,0,2.24719,-387.64,-133.708)"><polyline fill="none" points="217,73 218,71" vector-effect="none"/></g><defs><clipPath id="clip46"><path d="M180,62 L255,62 L255,108 L180,108 L180,62 z"/></clipPath></defs><g clip-path="url(#clip46)" fill="none" opacity="1" stroke="#000000" stroke-linecap="butt" stroke-linejoin="miter" stroke-miterlimit="2" stroke-opacity="1" stroke-width="0.445" transform="matrix(2.24719,0,0,2.24719,-387.64,-133.708)"><polyline fill="none" points="218,71 218,65" vector-effect="none"/></g><defs><clipPath id="clip47"><path d="M180,62 L255,62 L255,108 L180,108 L180,62 z"/></clipPath></defs><g clip-path="url(#clip47)" fill="none" opacity="1" stroke="#000000" stroke-linecap="butt" stroke-linejoin="miter" stroke-miterlimit="2" stroke-opacity="1" stroke-width="0.445" transform="matrix(2.24719,0,0,2.24719,-387.64,-133.708)"><polyline fill="none" points="218,65 218,75" vector-effect="none"/></g><defs><clipPath id="clip48"><path d="M180,62 L255,62 L255,108 L180,108 L180,62 z"/></clipPath></defs><g clip-path="url(#clip48)" fill="none" opacity="1" stroke="#000000" stroke-linecap="butt" stroke-linejoin="miter" stroke-miterlimit="2" stroke-opacity="1" stroke-width="0.445" transform="matrix(2.24719,0,0,2.24719,-387.64,-133.708)"><polyline fill="none" points="218,75 218,68" vector-effect="none"/></g><defs><clipPath id="clip49"><path d="M180,62 L255,62 L255,108 L180,108 L180,62 z"/></clipPath></defs><g clip-path="url(#clip49)" fill="none" opacity="1" stroke="#000000" stroke-linecap="butt" stroke-linejoin="miter" stroke-miterlimit="2" stroke-opacity="1" stroke-width="0.445" transform="matrix(2.24719,0,0,2.24719,-387.64,-133.708)"><polyline fill="none" points="218,68 228,68" vector-effect="none"/></g><defs><clipPath id="clip50"><path d="M180,62 L255,62 L255,108 L180,108 L180,62 z"/></clipPath></defs><g clip-path="url(#clip50)" fill="none" opacity="1" stroke="#000000" stroke-linecap="butt" stroke-linejoin="miter" stroke-miterlimit="2" stroke-opacity="1" stroke-width="0.445" transform="matrix(2.24719,0,0,2.24719,-387.64,-133.708)"><polyline fill="none" points="228,68 228,74" vector-effect="none"/></g><defs><clipPath id="clip51"><path d="M180,62 L255,62 L255,108 L180,108 L180,62 z"/></clipPath></defs><g clip-path="url(#clip51)" fill="none" opacity="1" stroke="#000000" stroke-linecap="butt" stroke-linejoin="miter" stroke-miterlimit="2" stroke-opacity="1" stroke-width="0.445" transform="matrix(2.24719,0,0,2.24719,-387.64,-133.708)"><polyline fill="none" points="228,74 238,74" vector-effect="none"/></g><defs><clipPath id="clip52"><path d="M180,62 L255,62 L255,108 L180,108 L180,62 z"/></clipPath></defs><g clip-path="url(#clip52)" fill="none" opacity="1" stroke="#000000" stroke-linecap="butt" stroke-linejoin="miter" stroke-miterlimit="2" stroke-opacity="1" stroke-width="0.445" transform="matrix(2.24719,0,0,2.24719,-387.64,-133.708)"><polyline fill="none" points="238,74 238,68" vector-effect="none"/></g><defs><clipPath id="clip53"><path d="M180,62 L255,62 L255,108 L180,108 L180,62 z"/></clipPath></defs><g clip-path="url(#clip53)" fill="none" opacity="1" stroke="#000000" stroke-linecap="butt" stroke-linejoin="miter" stroke-miterlimit="2" stroke-opacity="1" stroke-width="0.445" transform="matrix(2.24719,0,0,2.24719,-387.64,-133.708)"><polyline fill="none" points="238,68 249,68" vector-effect="none"/></g><defs><clipPath id="clip55"><path d="M-189,-123 L195,-123 L195,113 L-189,113 L-189,-123 z"/></clipPath></defs><g clip-path="url(#clip55)" fill="none" opacity="1" stroke="#000000" stroke-linecap="butt" stroke-linejoin="miter" stroke-miterlimit="2" stroke-opacity="1" stroke-width="0.445" transform="matrix(0.438904,0,0,0.438904,98.8764,58.427)"><text fill="#000000" fill-opacity="1" font-family="Liberation Sans" font-size="40" font-style="normal" font-weight="400" stroke="none" textLength="124" x="-79.5938" xml:space="preserve" y="17.9219">M-FSK</text></g><defs><clipPath id="clip61"><path d="M-7,-2 L82,-2 L82,48 L-7,48 L-7,-2 z"/></clipPath></defs><g clip-path="url(#clip61)" fill="none" opacity="1" stroke="#000000" stroke-linecap="butt" stroke-linejoin="miter" stroke-miterlimit="2" stroke-opacity="1" stroke-width="0.723343" transform="matrix(2.24719,0,0,2.24719,15.7303,4.49438)"><path d="M0,0 L75,0 L75,46 L0,46 L0,0 z" fill-rule="evenodd" vector-effect="none"/></g></g></svg>
