<?xml version="1.0" encoding="UTF-8"?><svg width="52.9167mm" height="32.0146mm" viewBox="0 0 200 121" xmlns="http://www.w3.org/2000/svg" xmlns:xlink="http://www.w3.org/1999/xlink"><g fill="none" stroke="black" stroke-width="1" fill-rule="evenodd" stroke-linecap="square" stroke-linejoin="bevel"><g clip-path="none" fill="none" opacity="1" stroke="none" stroke-opacity="0" transform="matrix(1,0,0,1,0,0)"><path d="M0,0 L200,0 L200,121 L0,121 L0,0 z" fill-rule="evenodd" vector-effect="none"/></g><defs><clipPath id="clip3"><path d="M7,27 L-82,27 L-82,-27 L7,-27 L7,27 z"/></clipPath></defs><g clip-path="url(#clip3)" fill="none" opacity="1" stroke="#000000" stroke-linecap="round" stroke-linejoin="miter" stroke-miterlimit="2" stroke-opacity="1" stroke-width="2" transform="matrix(-2.24719,0,0,-2.24719,15.7303,60.6742)"><path d="M5,-5 L0,0 L5,5" fill-rule="evenodd" vector-effect="none"/></g><defs><clipPath id="clip6"><path d="M-82,-27 L7,-27 L7,27 L-82,27 L-82,-27 z"/></clipPath></defs><g clip-path="url(#clip6)" fill="none" opacity="1" stroke="#000000" stroke-linecap="round" stroke-linejoin="miter" stroke-miterlimit="2" stroke-opacity="1" stroke-width="2" transform="matrix(2.24719,0,0,2.24719,184.27,60.6742)"><path d="M0,-5 L5,0 L0,5" fill-rule="evenodd" vector-effect="none"/></g><defs><clipPath id="clip9"><path d="M-7,-2 L82,-2 L82,52 L-7,52 L-7,-2 z"/></clipPath></defs><g clip-path="url(#clip9)" fill="#ffffff" fill-opacity="1" opacity="1" stroke="none" stroke-opacity="0" transform="matrix(2.24719,0,0,2.24719,15.7303,4.49438)"><path d="M0,0 L75,0 L75,50 L0,50 L0,0 z" fill-rule="evenodd" vector-effect="none"/></g><defs><clipPath id="clip13"><path d="M135,50 L210,50 L210,100 L135,100 L135,50 z"/></clipPath></defs><g clip-path="url(#clip13)" fill="none" opacity="1" stroke="#000000" stroke-linecap="butt" stroke-linejoin="miter" stroke-miterlimit="2" stroke-opacity="1" stroke-width="0.445" transform="matrix(2.24719,0,0,2.24719,-286.517,-106.742)"><polyline fill="none" points="152,60 153,56" vector-effect="none"/></g><defs><clipPath id="clip14"><path d="M135,50 L210,50 L210,100 L135,100 L135,50 z"/></clipPath></defs><g clip-path="url(#clip14)" fill="none" opacity="1" stroke="#000000" stroke-linecap="butt" stroke-linejoin="miter" stroke-miterlimit="2" stroke-opacity="1" stroke-width="0.445" transform="matrix(2.24719,0,0,2.24719,-286.517,-106.742)"><polyline fill="none" points="153,56 154,59" vector-effect="none"/></g><defs><clipPath id="clip15"><path d="M135,50 L210,50 L210,100 L135,100 L135,50 z"/></clipPath></defs><g clip-path="url(#clip15)" fill="none" opacity="1" stroke="#000000" stroke-linecap="butt" stroke-linejoin="miter" stroke-miterlimit="2" stroke-opacity="1" stroke-width="0.445" transform="matrix(2.24719,0,0,2.24719,-286.517,-106.742)"><polyline fill="none" points="154,59 155,63" vector-effect="none"/></g><defs><clipPath id="clip16"><path d="M135,50 L210,50 L210,100 L135,100 L135,50 z"/></clipPath></defs><g clip-path="url(#clip16)" fill="none" opacity="1" stroke="#000000" stroke-linecap="butt" stroke-linejoin="miter" stroke-miterlimit="2" stroke-opacity="1" stroke-width="0.445" transform="matrix(2.24719,0,0,2.24719,-286.517,-106.742)"><polyline fill="none" points="155,63 156,64" vector-effect="none"/></g><defs><clipPath id="clip17"><path d="M135,50 L210,50 L210,100 L135,100 L135,50 z"/></clipPath></defs><g clip-path="url(#clip17)" fill="none" opacity="1" stroke="#000000" stroke-linecap="butt" stroke-linejoin="miter" stroke-miterlimit="2" stroke-opacity="1" stroke-width="0.445" transform="matrix(2.24719,0,0,2.24719,-286.517,-106.742)"><polyline fill="none" points="156,64 157,61" vector-effect="none"/></g><defs><clipPath id="clip18"><path d="M135,50 L210,50 L210,100 L135,100 L135,50 z"/></clipPath></defs><g clip-path="url(#clip18)" fill="none" opacity="1" stroke="#000000" stroke-linecap="butt" stroke-linejoin="miter" stroke-miterlimit="2" stroke-opacity="1" stroke-width="0.445" transform="matrix(2.24719,0,0,2.24719,-286.517,-106.742)"><polyline fill="none" points="157,61 158,57" vector-effect="none"/></g><defs><clipPath id="clip19"><path d="M135,50 L210,50 L210,100 L135,100 L135,50 z"/></clipPath></defs><g clip-path="url(#clip19)" fill="none" opacity="1" stroke="#000000" stroke-linecap="butt" stroke-linejoin="miter" stroke-miterlimit="2" stroke-opacity="1" stroke-width="0.445" transform="matrix(2.24719,0,0,2.24719,-286.517,-106.742)"><polyline fill="none" points="158,57 158,55" vector-effect="none"/></g><defs><clipPath id="clip20"><path d="M135,50 L210,50 L210,100 L135,100 L135,50 z"/></clipPath></defs><g clip-path="url(#clip20)" fill="none" opacity="1" stroke="#000000" stroke-linecap="butt" stroke-linejoin="miter" stroke-miterlimit="2" stroke-opacity="1" stroke-width="0.445" transform="matrix(2.24719,0,0,2.24719,-286.517,-106.742)"><polyline fill="none" points="158,55 159,58" vector-effect="none"/></g><defs><clipPath id="clip21"><path d="M135,50 L210,50 L210,100 L135,100 L135,50 z"/></clipPath></defs><g clip-path="url(#clip21)" fill="none" opacity="1" stroke="#000000" stroke-linecap="butt" stroke-linejoin="miter" stroke-miterlimit="2" stroke-opacity="1" stroke-width="0.445" transform="matrix(2.24719,0,0,2.24719,-286.517,-106.742)"><polyline fill="none" points="159,58 160,62" vector-effect="none"/></g><defs><clipPath id="clip22"><path d="M135,50 L210,50 L210,100 L135,100 L135,50 z"/></clipPath></defs><g clip-path="url(#clip22)" fill="none" opacity="1" stroke="#000000" stroke-linecap="butt" stroke-linejoin="miter" stroke-miterlimit="2" stroke-opacity="1" stroke-width="0.445" transform="matrix(2.24719,0,0,2.24719,-286.517,-106.742)"><polyline fill="none" points="160,62 161,64" vector-effect="none"/></g><defs><clipPath id="clip23"><path d="M135,50 L210,50 L210,100 L135,100 L135,50 z"/></clipPath></defs><g clip-path="url(#clip23)" fill="none" opacity="1" stroke="#000000" stroke-linecap="butt" stroke-linejoin="miter" stroke-miterlimit="2" stroke-opacity="1" stroke-width="0.445" transform="matrix(2.24719,0,0,2.24719,-286.517,-106.742)"><polyline fill="none" points="161,64 162,62" vector-effect="none"/></g><defs><clipPath id="clip24"><path d="M135,50 L210,50 L210,100 L135,100 L135,50 z"/></clipPath></defs><g clip-path="url(#clip24)" fill="none" opacity="1" stroke="#000000" stroke-linecap="butt" stroke-linejoin="miter" stroke-miterlimit="2" stroke-opacity="1" stroke-width="0.445" transform="matrix(2.24719,0,0,2.24719,-286.517,-106.742)"><polyline fill="none" points="162,62 162,60" vector-effect="none"/></g><defs><clipPath id="clip25"><path d="M135,50 L210,50 L210,100 L135,100 L135,50 z"/></clipPath></defs><g clip-path="url(#clip25)" fill="none" opacity="1" stroke="#000000" stroke-linecap="butt" stroke-linejoin="miter" stroke-miterlimit="2" stroke-opacity="1" stroke-width="0.445" transform="matrix(2.24719,0,0,2.24719,-286.517,-106.742)"><polyline fill="none" points="162,60 164,56" vector-effect="none"/></g><defs><clipPath id="clip26"><path d="M135,50 L210,50 L210,100 L135,100 L135,50 z"/></clipPath></defs><g clip-path="url(#clip26)" fill="none" opacity="1" stroke="#000000" stroke-linecap="butt" stroke-linejoin="miter" stroke-miterlimit="2" stroke-opacity="1" stroke-width="0.445" transform="matrix(2.24719,0,0,2.24719,-286.517,-106.742)"><polyline fill="none" points="164,56 165,56" vector-effect="none"/></g><defs><clipPath id="clip27"><path d="M135,50 L210,50 L210,100 L135,100 L135,50 z"/></clipPath></defs><g clip-path="url(#clip27)" fill="none" opacity="1" stroke="#000000" stroke-linecap="butt" stroke-linejoin="miter" stroke-miterlimit="2" stroke-opacity="1" stroke-width="0.445" transform="matrix(2.24719,0,0,2.24719,-286.517,-106.742)"><polyline fill="none" points="165,56 167,59" vector-effect="none"/></g><defs><clipPath id="clip28"><path d="M135,50 L210,50 L210,100 L135,100 L135,50 z"/></clipPath></defs><g clip-path="url(#clip28)" fill="none" opacity="1" stroke="#000000" stroke-linecap="butt" stroke-linejoin="miter" stroke-miterlimit="2" stroke-opacity="1" stroke-width="0.445" transform="matrix(2.24719,0,0,2.24719,-286.517,-106.742)"><polyline fill="none" points="167,59 169,63" vector-effect="none"/></g><defs><clipPath id="clip29"><path d="M135,50 L210,50 L210,100 L135,100 L135,50 z"/></clipPath></defs><g clip-path="url(#clip29)" fill="none" opacity="1" stroke="#000000" stroke-linecap="butt" stroke-linejoin="miter" stroke-miterlimit="2" stroke-opacity="1" stroke-width="0.445" transform="matrix(2.24719,0,0,2.24719,-286.517,-106.742)"><polyline fill="none" points="169,63 170,64" vector-effect="none"/></g><defs><clipPath id="clip30"><path d="M135,50 L210,50 L210,100 L135,100 L135,50 z"/></clipPath></defs><g clip-path="url(#clip30)" fill="none" opacity="1" stroke="#000000" stroke-linecap="butt" stroke-linejoin="miter" stroke-miterlimit="2" stroke-opacity="1" stroke-width="0.445" transform="matrix(2.24719,0,0,2.24719,-286.517,-106.742)"><polyline fill="none" points="170,64 172,61" vector-effect="none"/></g><defs><clipPath id="clip31"><path d="M135,50 L210,50 L210,100 L135,100 L135,50 z"/></clipPath></defs><g clip-path="url(#clip31)" fill="none" opacity="1" stroke="#000000" stroke-linecap="butt" stroke-linejoin="miter" stroke-miterlimit="2" stroke-opacity="1" stroke-width="0.445" transform="matrix(2.24719,0,0,2.24719,-286.517,-106.742)"><polyline fill="none" points="172,61 173,60" vector-effect="none"/></g><defs><clipPath id="clip32"><path d="M135,50 L210,50 L210,100 L135,100 L135,50 z"/></clipPath></defs><g clip-path="url(#clip32)" fill="none" opacity="1" stroke="#000000" stroke-linecap="butt" stroke-linejoin="miter" stroke-miterlimit="2" stroke-opacity="1" stroke-width="0.445" transform="matrix(2.24719,0,0,2.24719,-286.517,-106.742)"><polyline fill="none" points="173,60 173,56" vector-effect="none"/></g><defs><clipPath id="clip33"><path d="M135,50 L210,50 L210,100 L135,100 L135,50 z"/></clipPath></defs><g clip-path="url(#clip33)" fill="none" opacity="1" stroke="#000000" stroke-linecap="butt" stroke-linejoin="miter" stroke-miterlimit="2" stroke-opacity="1" stroke-width="0.445" transform="matrix(2.24719,0,0,2.24719,-286.517,-106.742)"><polyline fill="none" points="173,56 174,56" vector-effect="none"/></g><defs><clipPath id="clip34"><path d="M135,50 L210,50 L210,100 L135,100 L135,50 z"/></clipPath></defs><g clip-path="url(#clip34)" fill="none" opacity="1" stroke="#000000" stroke-linecap="butt" stroke-linejoin="miter" stroke-miterlimit="2" stroke-opacity="1" stroke-width="0.445" transform="matrix(2.24719,0,0,2.24719,-286.517,-106.742)"><polyline fill="none" points="174,56 175,59" vector-effect="none"/></g><defs><clipPath id="clip35"><path d="M135,50 L210,50 L210,100 L135,100 L135,50 z"/></clipPath></defs><g clip-path="url(#clip35)" fill="none" opacity="1" stroke="#000000" stroke-linecap="butt" stroke-linejoin="miter" stroke-miterlimit="2" stroke-opacity="1" stroke-width="0.445" transform="matrix(2.24719,0,0,2.24719,-286.517,-106.742)"><polyline fill="none" points="175,59 176,63" vector-effect="none"/></g><defs><clipPath id="clip36"><path d="M135,50 L210,50 L210,100 L135,100 L135,50 z"/></clipPath></defs><g clip-path="url(#clip36)" fill="none" opacity="1" stroke="#000000" stroke-linecap="butt" stroke-linejoin="miter" stroke-miterlimit="2" stroke-opacity="1" stroke-width="0.445" transform="matrix(2.24719,0,0,2.24719,-286.517,-106.742)"><polyline fill="none" points="176,63 177,64" vector-effect="none"/></g><defs><clipPath id="clip37"><path d="M135,50 L210,50 L210,100 L135,100 L135,50 z"/></clipPath></defs><g clip-path="url(#clip37)" fill="none" opacity="1" stroke="#000000" stroke-linecap="butt" stroke-linejoin="miter" stroke-miterlimit="2" stroke-opacity="1" stroke-width="0.445" transform="matrix(2.24719,0,0,2.24719,-286.517,-106.742)"><polyline fill="none" points="177,64 177,61" vector-effect="none"/></g><defs><clipPath id="clip38"><path d="M135,50 L210,50 L210,100 L135,100 L135,50 z"/></clipPath></defs><g clip-path="url(#clip38)" fill="none" opacity="1" stroke="#000000" stroke-linecap="butt" stroke-linejoin="miter" stroke-miterlimit="2" stroke-opacity="1" stroke-width="0.445" transform="matrix(2.24719,0,0,2.24719,-286.517,-106.742)"><polyline fill="none" points="177,61 178,57" vector-effect="none"/></g><defs><clipPath id="clip39"><path d="M135,50 L210,50 L210,100 L135,100 L135,50 z"/></clipPath></defs><g clip-path="url(#clip39)" fill="none" opacity="1" stroke="#000000" stroke-linecap="butt" stroke-linejoin="miter" stroke-miterlimit="2" stroke-opacity="1" stroke-width="0.445" transform="matrix(2.24719,0,0,2.24719,-286.517,-106.742)"><polyline fill="none" points="178,57 179,55" vector-effect="none"/></g><defs><clipPath id="clip40"><path d="M135,50 L210,50 L210,100 L135,100 L135,50 z"/></clipPath></defs><g clip-path="url(#clip40)" fill="none" opacity="1" stroke="#000000" stroke-linecap="butt" stroke-linejoin="miter" stroke-miterlimit="2" stroke-opacity="1" stroke-width="0.445" transform="matrix(2.24719,0,0,2.24719,-286.517,-106.742)"><polyline fill="none" points="179,55 180,58" vector-effect="none"/></g><defs><clipPath id="clip41"><path d="M135,50 L210,50 L210,100 L135,100 L135,50 z"/></clipPath></defs><g clip-path="url(#clip41)" fill="none" opacity="1" stroke="#000000" stroke-linecap="butt" stroke-linejoin="miter" stroke-miterlimit="2" stroke-opacity="1" stroke-width="0.445" transform="matrix(2.24719,0,0,2.24719,-286.517,-106.742)"><polyline fill="none" points="180,58 181,62" vector-effect="none"/></g><defs><clipPath id="clip42"><path d="M135,50 L210,50 L210,100 L135,100 L135,50 z"/></clipPath></defs><g clip-path="url(#clip42)" fill="none" opacity="1" stroke="#000000" stroke-linecap="butt" stroke-linejoin="miter" stroke-miterlimit="2" stroke-opacity="1" stroke-width="0.445" transform="matrix(2.24719,0,0,2.24719,-286.517,-106.742)"><polyline fill="none" points="181,62 182,64" vector-effect="none"/></g><defs><clipPath id="clip43"><path d="M135,50 L210,50 L210,100 L135,100 L135,50 z"/></clipPath></defs><g clip-path="url(#clip43)" fill="none" opacity="1" stroke="#000000" stroke-linecap="butt" stroke-linejoin="miter" stroke-miterlimit="2" stroke-opacity="1" stroke-width="0.445" transform="matrix(2.24719,0,0,2.24719,-286.517,-106.742)"><polyline fill="none" points="182,64 182,62" vector-effect="none"/></g><defs><clipPath id="clip44"><path d="M135,50 L210,50 L210,100 L135,100 L135,50 z"/></clipPath></defs><g clip-path="url(#clip44)" fill="none" opacity="1" stroke="#000000" stroke-linecap="butt" stroke-linejoin="miter" stroke-miterlimit="2" stroke-opacity="1" stroke-width="0.445" transform="matrix(2.24719,0,0,2.24719,-286.517,-106.742)"><polyline fill="none" points="182,62 183,60" vector-effect="none"/></g><defs><clipPath id="clip45"><path d="M135,50 L210,50 L210,100 L135,100 L135,50 z"/></clipPath></defs><g clip-path="url(#clip45)" fill="none" opacity="1" stroke="#000000" stroke-linecap="butt" stroke-linejoin="miter" stroke-miterlimit="2" stroke-opacity="1" stroke-width="0.445" transform="matrix(2.24719,0,0,2.24719,-286.517,-106.742)"><polyline fill="none" points="183,60 183,53" vector-effect="none"/></g><defs><clipPath id="clip46"><path d="M135,50 L210,50 L210,100 L135,100 L135,50 z"/></clipPath></defs><g clip-path="url(#clip46)" fill="none" opacity="1" stroke="#000000" stroke-linecap="butt" stroke-linejoin="miter" stroke-miterlimit="2" stroke-opacity="1" stroke-width="0.445" transform="matrix(2.24719,0,0,2.24719,-286.517,-106.742)"><polyline fill="none" points="183,53 183,64" vector-effect="none"/></g><defs><clipPath id="clip47"><path d="M135,50 L210,50 L210,100 L135,100 L135,50 z"/></clipPath></defs><g clip-path="url(#clip47)" fill="none" opacity="1" stroke="#000000" stroke-linecap="butt" stroke-linejoin="miter" stroke-miterlimit="2" stroke-opacity="1" stroke-width="0.445" transform="matrix(2.24719,0,0,2.24719,-286.517,-106.742)"><polyline fill="none" points="183,64 183,56" vector-effect="none"/></g><defs><clipPath id="clip48"><path d="M135,50 L210,50 L210,100 L135,100 L135,50 z"/></clipPath></defs><g clip-path="url(#clip48)" fill="none" opacity="1" stroke="#000000" stroke-linecap="butt" stroke-linejoin="miter" stroke-miterlimit="2" stroke-opacity="1" stroke-width="0.445" transform="matrix(2.24719,0,0,2.24719,-286.517,-106.742)"><polyline fill="none" points="183,56 190,56" vector-effect="none"/></g><defs><clipPath id="clip49"><path d="M135,50 L210,50 L210,100 L135,100 L135,50 z"/></clipPath></defs><g clip-path="url(#clip49)" fill="none" opacity="1" stroke="#000000" stroke-linecap="butt" stroke-linejoin="miter" stroke-miterlimit="2" stroke-opacity="1" stroke-width="0.445" transform="matrix(2.24719,0,0,2.24719,-286.517,-106.742)"><polyline fill="none" points="190,56 190,63" vector-effect="none"/></g><defs><clipPath id="clip50"><path d="M135,50 L210,50 L210,100 L135,100 L135,50 z"/></clipPath></defs><g clip-path="url(#clip50)" fill="none" opacity="1" stroke="#000000" stroke-linecap="butt" stroke-linejoin="miter" stroke-miterlimit="2" stroke-opacity="1" stroke-width="0.445" transform="matrix(2.24719,0,0,2.24719,-286.517,-106.742)"><polyline fill="none" points="190,63 197,63" vector-effect="none"/></g><defs><clipPath id="clip51"><path d="M135,50 L210,50 L210,100 L135,100 L135,50 z"/></clipPath></defs><g clip-path="url(#clip51)" fill="none" opacity="1" stroke="#000000" stroke-linecap="butt" stroke-linejoin="miter" stroke-miterlimit="2" stroke-opacity="1" stroke-width="0.445" transform="matrix(2.24719,0,0,2.24719,-286.517,-106.742)"><polyline fill="none" points="197,63 197,56" vector-effect="none"/></g><defs><clipPath id="clip52"><path d="M135,50 L210,50 L210,100 L135,100 L135,50 z"/></clipPath></defs><g clip-path="url(#clip52)" fill="none" opacity="1" stroke="#000000" stroke-linecap="butt" stroke-linejoin="miter" stroke-miterlimit="2" stroke-opacity="1" stroke-width="0.445" transform="matrix(2.24719,0,0,2.24719,-286.517,-106.742)"><polyline fill="none" points="197,56 204,56" vector-effect="none"/></g><defs><clipPath id="clip54"><path d="M-189,-128 L195,-128 L195,128 L-189,128 L-189,-128 z"/></clipPath></defs><g clip-path="url(#clip54)" fill="none" opacity="1" stroke="#000000" stroke-linecap="butt" stroke-linejoin="miter" stroke-miterlimit="2" stroke-opacity="1" stroke-width="0.445" transform="matrix(0.438904,0,0,0.438904,98.8764,60.6742)"><text fill="#000000" fill-opacity="1" font-family="Liberation Sans" font-size="40" font-style="normal" font-weight="400" stroke="none" textLength="127" x="-81.0312" xml:space="preserve" y="17.9219">M-PSK</text></g><defs><clipPath id="clip60"><path d="M-7,-2 L82,-2 L82,52 L-7,52 L-7,-2 z"/></clipPath></defs><g clip-path="url(#clip60)" fill="none" opacity="1" stroke="#000000" stroke-linecap="butt" stroke-linejoin="miter" stroke-miterlimit="2" stroke-opacity="1" stroke-width="0.723343" transform="matrix(2.24719,0,0,2.24719,15.7303,4.49438)"><path d="M0,0 L75,0 L75,50 L0,50 L0,0 z" fill-rule="evenodd" vector-effect="none"/></g></g></svg>
