<?xml version="1.0" encoding="UTF-8"?><svg width="52.9167mm" height="30.6917mm" viewBox="0 0 200 116" xmlns="http://www.w3.org/2000/svg" xmlns:xlink="http://www.w3.org/1999/xlink"><g fill="none" stroke="black" stroke-width="1" fill-rule="evenodd" stroke-linecap="square" stroke-linejoin="bevel"><g clip-path="none" fill="none" opacity="1" stroke="none" stroke-opacity="0" transform="matrix(1,0,0,1,0,0)"><path d="M0,0 L200,0 L200,116 L0,116 L0,0 z" fill-rule="evenodd" vector-effect="none"/></g><defs><clipPath id="clip3"><path d="M-82,-26 L7,-26 L7,26 L-82,26 L-82,-26 z"/></clipPath></defs><g clip-path="url(#clip3)" fill="none" opacity="1" stroke="#000000" stroke-linecap="round" stroke-linejoin="miter" stroke-miterlimit="2" stroke-opacity="1" stroke-width="2" transform="matrix(2.24719,0,0,2.24719,184.27,58.427)"><path d="M0,-5 L5,0 L0,5" fill-rule="evenodd" vector-effect="none"/></g><defs><clipPath id="clip6"><path d="M7,26 L-82,26 L-82,-26 L7,-26 L7,26 z"/></clipPath></defs><g clip-path="url(#clip6)" fill="none" opacity="1" stroke="#000000" stroke-linecap="round" stroke-linejoin="miter" stroke-miterlimit="2" stroke-opacity="1" stroke-width="2" transform="matrix(-2.24719,0,0,-2.24719,15.7303,58.427)"><path d="M5,-5 L0,0 L5,5" fill-rule="evenodd" vector-effect="none"/></g><defs><clipPath id="clip9"><path d="M-7,-2 L82,-2 L82,50 L-7,50 L-7,-2 z"/></clipPath></defs><g clip-path="url(#clip9)" fill="#ffffff" fill-opacity="1" opacity="1" stroke="none" stroke-opacity="0" transform="matrix(2.24719,0,0,2.24719,15.7303,4.49438)"><path d="M0,0 L75,0 L75,48 L0,48 L0,0 z" fill-rule="evenodd" vector-effect="none"/></g><defs><clipPath id="clip13"><path d="M25,251 L100,251 L100,299 L25,299 L25,251 z"/></clipPath></defs><g clip-path="url(#clip13)" fill="none" opacity="1" stroke="#000000" stroke-linecap="butt" stroke-linejoin="miter" stroke-miterlimit="2" stroke-opacity="1" stroke-width="0.445" transform="matrix(2.24719,0,0,2.24719,-39.3258,-558.427)"><polyline fill="none" points="31,257 42,257" vector-effect="none"/></g><defs><clipPath id="clip14"><path d="M25,251 L100,251 L100,299 L25,299 L25,251 z"/></clipPath></defs><g clip-path="url(#clip14)" fill="none" opacity="1" stroke="#000000" stroke-linecap="butt" stroke-linejoin="miter" stroke-miterlimit="2" stroke-opacity="1" stroke-width="0.445" transform="matrix(2.24719,0,0,2.24719,-39.3258,-558.427)"><polyline fill="none" points="42,257 42,264" vector-effect="none"/></g><defs><clipPath id="clip15"><path d="M25,251 L100,251 L100,299 L25,299 L25,251 z"/></clipPath></defs><g clip-path="url(#clip15)" fill="none" opacity="1" stroke="#000000" stroke-linecap="butt" stroke-linejoin="miter" stroke-miterlimit="2" stroke-opacity="1" stroke-width="0.445" transform="matrix(2.24719,0,0,2.24719,-39.3258,-558.427)"><polyline fill="none" points="42,264 52,264" vector-effect="none"/></g><defs><clipPath id="clip16"><path d="M25,251 L100,251 L100,299 L25,299 L25,251 z"/></clipPath></defs><g clip-path="url(#clip16)" fill="none" opacity="1" stroke="#000000" stroke-linecap="butt" stroke-linejoin="miter" stroke-miterlimit="2" stroke-opacity="1" stroke-width="0.445" transform="matrix(2.24719,0,0,2.24719,-39.3258,-558.427)"><polyline fill="none" points="52,264 52,257" vector-effect="none"/></g><defs><clipPath id="clip17"><path d="M25,251 L100,251 L100,299 L25,299 L25,251 z"/></clipPath></defs><g clip-path="url(#clip17)" fill="none" opacity="1" stroke="#000000" stroke-linecap="butt" stroke-linejoin="miter" stroke-miterlimit="2" stroke-opacity="1" stroke-width="0.445" transform="matrix(2.24719,0,0,2.24719,-39.3258,-558.427)"><polyline fill="none" points="52,257 63,257" vector-effect="none"/></g><defs><clipPath id="clip18"><path d="M25,251 L100,251 L100,299 L25,299 L25,251 z"/></clipPath></defs><g clip-path="url(#clip18)" fill="none" opacity="1" stroke="#000000" stroke-linecap="butt" stroke-linejoin="miter" stroke-miterlimit="2" stroke-opacity="1" stroke-width="0.445" transform="matrix(2.24719,0,0,2.24719,-39.3258,-558.427)"><polyline fill="none" points="63,257 63,260" vector-effect="none"/></g><defs><clipPath id="clip19"><path d="M25,251 L100,251 L100,299 L25,299 L25,251 z"/></clipPath></defs><g clip-path="url(#clip19)" fill="none" opacity="1" stroke="#000000" stroke-linecap="butt" stroke-linejoin="miter" stroke-miterlimit="2" stroke-opacity="1" stroke-width="0.445" transform="matrix(2.24719,0,0,2.24719,-39.3258,-558.427)"><polyline fill="none" points="63,260 63,254" vector-effect="none"/></g><defs><clipPath id="clip20"><path d="M25,251 L100,251 L100,299 L25,299 L25,251 z"/></clipPath></defs><g clip-path="url(#clip20)" fill="none" opacity="1" stroke="#000000" stroke-linecap="butt" stroke-linejoin="miter" stroke-miterlimit="2" stroke-opacity="1" stroke-width="0.445" transform="matrix(2.24719,0,0,2.24719,-39.3258,-558.427)"><polyline fill="none" points="63,254 63,265" vector-effect="none"/></g><defs><clipPath id="clip21"><path d="M25,251 L100,251 L100,299 L25,299 L25,251 z"/></clipPath></defs><g clip-path="url(#clip21)" fill="none" opacity="1" stroke="#000000" stroke-linecap="butt" stroke-linejoin="miter" stroke-miterlimit="2" stroke-opacity="1" stroke-width="0.445" transform="matrix(2.24719,0,0,2.24719,-39.3258,-558.427)"><polyline fill="none" points="63,265 63,260" vector-effect="none"/></g><defs><clipPath id="clip22"><path d="M25,251 L100,251 L100,299 L25,299 L25,251 z"/></clipPath></defs><g clip-path="url(#clip22)" fill="none" opacity="1" stroke="#000000" stroke-linecap="butt" stroke-linejoin="miter" stroke-miterlimit="2" stroke-opacity="1" stroke-width="0.445" transform="matrix(2.24719,0,0,2.24719,-39.3258,-558.427)"><polyline fill="none" points="63,260 63,257" vector-effect="none"/></g><defs><clipPath id="clip23"><path d="M25,251 L100,251 L100,299 L25,299 L25,251 z"/></clipPath></defs><g clip-path="url(#clip23)" fill="none" opacity="1" stroke="#000000" stroke-linecap="butt" stroke-linejoin="miter" stroke-miterlimit="2" stroke-opacity="1" stroke-width="0.445" transform="matrix(2.24719,0,0,2.24719,-39.3258,-558.427)"><polyline fill="none" points="63,257 64,256" vector-effect="none"/></g><defs><clipPath id="clip24"><path d="M25,251 L100,251 L100,299 L25,299 L25,251 z"/></clipPath></defs><g clip-path="url(#clip24)" fill="none" opacity="1" stroke="#000000" stroke-linecap="butt" stroke-linejoin="miter" stroke-miterlimit="2" stroke-opacity="1" stroke-width="0.445" transform="matrix(2.24719,0,0,2.24719,-39.3258,-558.427)"><polyline fill="none" points="64,256 65,260" vector-effect="none"/></g><defs><clipPath id="clip25"><path d="M25,251 L100,251 L100,299 L25,299 L25,251 z"/></clipPath></defs><g clip-path="url(#clip25)" fill="none" opacity="1" stroke="#000000" stroke-linecap="butt" stroke-linejoin="miter" stroke-miterlimit="2" stroke-opacity="1" stroke-width="0.445" transform="matrix(2.24719,0,0,2.24719,-39.3258,-558.427)"><polyline fill="none" points="65,260 66,264" vector-effect="none"/></g><defs><clipPath id="clip26"><path d="M25,251 L100,251 L100,299 L25,299 L25,251 z"/></clipPath></defs><g clip-path="url(#clip26)" fill="none" opacity="1" stroke="#000000" stroke-linecap="butt" stroke-linejoin="miter" stroke-miterlimit="2" stroke-opacity="1" stroke-width="0.445" transform="matrix(2.24719,0,0,2.24719,-39.3258,-558.427)"><polyline fill="none" points="66,264 67,264" vector-effect="none"/></g><defs><clipPath id="clip27"><path d="M25,251 L100,251 L100,299 L25,299 L25,251 z"/></clipPath></defs><g clip-path="url(#clip27)" fill="none" opacity="1" stroke="#000000" stroke-linecap="butt" stroke-linejoin="miter" stroke-miterlimit="2" stroke-opacity="1" stroke-width="0.445" transform="matrix(2.24719,0,0,2.24719,-39.3258,-558.427)"><polyline fill="none" points="67,264 67,261" vector-effect="none"/></g><defs><clipPath id="clip28"><path d="M25,251 L100,251 L100,299 L25,299 L25,251 z"/></clipPath></defs><g clip-path="url(#clip28)" fill="none" opacity="1" stroke="#000000" stroke-linecap="butt" stroke-linejoin="miter" stroke-miterlimit="2" stroke-opacity="1" stroke-width="0.445" transform="matrix(2.24719,0,0,2.24719,-39.3258,-558.427)"><polyline fill="none" points="67,261 68,257" vector-effect="none"/></g><defs><clipPath id="clip29"><path d="M25,251 L100,251 L100,299 L25,299 L25,251 z"/></clipPath></defs><g clip-path="url(#clip29)" fill="none" opacity="1" stroke="#000000" stroke-linecap="butt" stroke-linejoin="miter" stroke-miterlimit="2" stroke-opacity="1" stroke-width="0.445" transform="matrix(2.24719,0,0,2.24719,-39.3258,-558.427)"><polyline fill="none" points="68,257 69,256" vector-effect="none"/></g><defs><clipPath id="clip30"><path d="M25,251 L100,251 L100,299 L25,299 L25,251 z"/></clipPath></defs><g clip-path="url(#clip30)" fill="none" opacity="1" stroke="#000000" stroke-linecap="butt" stroke-linejoin="miter" stroke-miterlimit="2" stroke-opacity="1" stroke-width="0.445" transform="matrix(2.24719,0,0,2.24719,-39.3258,-558.427)"><polyline fill="none" points="69,256 70,259" vector-effect="none"/></g><defs><clipPath id="clip31"><path d="M25,251 L100,251 L100,299 L25,299 L25,251 z"/></clipPath></defs><g clip-path="url(#clip31)" fill="none" opacity="1" stroke="#000000" stroke-linecap="butt" stroke-linejoin="miter" stroke-miterlimit="2" stroke-opacity="1" stroke-width="0.445" transform="matrix(2.24719,0,0,2.24719,-39.3258,-558.427)"><polyline fill="none" points="70,259 71,263" vector-effect="none"/></g><defs><clipPath id="clip32"><path d="M25,251 L100,251 L100,299 L25,299 L25,251 z"/></clipPath></defs><g clip-path="url(#clip32)" fill="none" opacity="1" stroke="#000000" stroke-linecap="butt" stroke-linejoin="miter" stroke-miterlimit="2" stroke-opacity="1" stroke-width="0.445" transform="matrix(2.24719,0,0,2.24719,-39.3258,-558.427)"><polyline fill="none" points="71,263 72,264" vector-effect="none"/></g><defs><clipPath id="clip33"><path d="M25,251 L100,251 L100,299 L25,299 L25,251 z"/></clipPath></defs><g clip-path="url(#clip33)" fill="none" opacity="1" stroke="#000000" stroke-linecap="butt" stroke-linejoin="miter" stroke-miterlimit="2" stroke-opacity="1" stroke-width="0.445" transform="matrix(2.24719,0,0,2.24719,-39.3258,-558.427)"><polyline fill="none" points="72,264 72,262" vector-effect="none"/></g><defs><clipPath id="clip34"><path d="M25,251 L100,251 L100,299 L25,299 L25,251 z"/></clipPath></defs><g clip-path="url(#clip34)" fill="none" opacity="1" stroke="#000000" stroke-linecap="butt" stroke-linejoin="miter" stroke-miterlimit="2" stroke-opacity="1" stroke-width="0.445" transform="matrix(2.24719,0,0,2.24719,-39.3258,-558.427)"><polyline fill="none" points="72,262 73,260" vector-effect="none"/></g><defs><clipPath id="clip35"><path d="M25,251 L100,251 L100,299 L25,299 L25,251 z"/></clipPath></defs><g clip-path="url(#clip35)" fill="none" opacity="1" stroke="#000000" stroke-linecap="butt" stroke-linejoin="miter" stroke-miterlimit="2" stroke-opacity="1" stroke-width="0.445" transform="matrix(2.24719,0,0,2.24719,-39.3258,-558.427)"><polyline fill="none" points="73,260 75,257" vector-effect="none"/></g><defs><clipPath id="clip36"><path d="M25,251 L100,251 L100,299 L25,299 L25,251 z"/></clipPath></defs><g clip-path="url(#clip36)" fill="none" opacity="1" stroke="#000000" stroke-linecap="butt" stroke-linejoin="miter" stroke-miterlimit="2" stroke-opacity="1" stroke-width="0.445" transform="matrix(2.24719,0,0,2.24719,-39.3258,-558.427)"><polyline fill="none" points="75,257 76,256" vector-effect="none"/></g><defs><clipPath id="clip37"><path d="M25,251 L100,251 L100,299 L25,299 L25,251 z"/></clipPath></defs><g clip-path="url(#clip37)" fill="none" opacity="1" stroke="#000000" stroke-linecap="butt" stroke-linejoin="miter" stroke-miterlimit="2" stroke-opacity="1" stroke-width="0.445" transform="matrix(2.24719,0,0,2.24719,-39.3258,-558.427)"><polyline fill="none" points="76,256 78,260" vector-effect="none"/></g><defs><clipPath id="clip38"><path d="M25,251 L100,251 L100,299 L25,299 L25,251 z"/></clipPath></defs><g clip-path="url(#clip38)" fill="none" opacity="1" stroke="#000000" stroke-linecap="butt" stroke-linejoin="miter" stroke-miterlimit="2" stroke-opacity="1" stroke-width="0.445" transform="matrix(2.24719,0,0,2.24719,-39.3258,-558.427)"><polyline fill="none" points="78,260 79,264" vector-effect="none"/></g><defs><clipPath id="clip39"><path d="M25,251 L100,251 L100,299 L25,299 L25,251 z"/></clipPath></defs><g clip-path="url(#clip39)" fill="none" opacity="1" stroke="#000000" stroke-linecap="butt" stroke-linejoin="miter" stroke-miterlimit="2" stroke-opacity="1" stroke-width="0.445" transform="matrix(2.24719,0,0,2.24719,-39.3258,-558.427)"><polyline fill="none" points="79,264 81,264" vector-effect="none"/></g><defs><clipPath id="clip40"><path d="M25,251 L100,251 L100,299 L25,299 L25,251 z"/></clipPath></defs><g clip-path="url(#clip40)" fill="none" opacity="1" stroke="#000000" stroke-linecap="butt" stroke-linejoin="miter" stroke-miterlimit="2" stroke-opacity="1" stroke-width="0.445" transform="matrix(2.24719,0,0,2.24719,-39.3258,-558.427)"><polyline fill="none" points="81,264 83,261" vector-effect="none"/></g><defs><clipPath id="clip41"><path d="M25,251 L100,251 L100,299 L25,299 L25,251 z"/></clipPath></defs><g clip-path="url(#clip41)" fill="none" opacity="1" stroke="#000000" stroke-linecap="butt" stroke-linejoin="miter" stroke-miterlimit="2" stroke-opacity="1" stroke-width="0.445" transform="matrix(2.24719,0,0,2.24719,-39.3258,-558.427)"><polyline fill="none" points="83,261 83,260" vector-effect="none"/></g><defs><clipPath id="clip42"><path d="M25,251 L100,251 L100,299 L25,299 L25,251 z"/></clipPath></defs><g clip-path="url(#clip42)" fill="none" opacity="1" stroke="#000000" stroke-linecap="butt" stroke-linejoin="miter" stroke-miterlimit="2" stroke-opacity="1" stroke-width="0.445" transform="matrix(2.24719,0,0,2.24719,-39.3258,-558.427)"><polyline fill="none" points="83,260 84,257" vector-effect="none"/></g><defs><clipPath id="clip43"><path d="M25,251 L100,251 L100,299 L25,299 L25,251 z"/></clipPath></defs><g clip-path="url(#clip43)" fill="none" opacity="1" stroke="#000000" stroke-linecap="butt" stroke-linejoin="miter" stroke-miterlimit="2" stroke-opacity="1" stroke-width="0.445" transform="matrix(2.24719,0,0,2.24719,-39.3258,-558.427)"><polyline fill="none" points="84,257 85,256" vector-effect="none"/></g><defs><clipPath id="clip44"><path d="M25,251 L100,251 L100,299 L25,299 L25,251 z"/></clipPath></defs><g clip-path="url(#clip44)" fill="none" opacity="1" stroke="#000000" stroke-linecap="butt" stroke-linejoin="miter" stroke-miterlimit="2" stroke-opacity="1" stroke-width="0.445" transform="matrix(2.24719,0,0,2.24719,-39.3258,-558.427)"><polyline fill="none" points="85,256 86,260" vector-effect="none"/></g><defs><clipPath id="clip45"><path d="M25,251 L100,251 L100,299 L25,299 L25,251 z"/></clipPath></defs><g clip-path="url(#clip45)" fill="none" opacity="1" stroke="#000000" stroke-linecap="butt" stroke-linejoin="miter" stroke-miterlimit="2" stroke-opacity="1" stroke-width="0.445" transform="matrix(2.24719,0,0,2.24719,-39.3258,-558.427)"><polyline fill="none" points="86,260 87,264" vector-effect="none"/></g><defs><clipPath id="clip46"><path d="M25,251 L100,251 L100,299 L25,299 L25,251 z"/></clipPath></defs><g clip-path="url(#clip46)" fill="none" opacity="1" stroke="#000000" stroke-linecap="butt" stroke-linejoin="miter" stroke-miterlimit="2" stroke-opacity="1" stroke-width="0.445" transform="matrix(2.24719,0,0,2.24719,-39.3258,-558.427)"><polyline fill="none" points="87,264 88,261" vector-effect="none"/></g><defs><clipPath id="clip47"><path d="M25,251 L100,251 L100,299 L25,299 L25,251 z"/></clipPath></defs><g clip-path="url(#clip47)" fill="none" opacity="1" stroke="#000000" stroke-linecap="butt" stroke-linejoin="miter" stroke-miterlimit="2" stroke-opacity="1" stroke-width="0.445" transform="matrix(2.24719,0,0,2.24719,-39.3258,-558.427)"><polyline fill="none" points="88,261 89,257" vector-effect="none"/></g><defs><clipPath id="clip48"><path d="M25,251 L100,251 L100,299 L25,299 L25,251 z"/></clipPath></defs><g clip-path="url(#clip48)" fill="none" opacity="1" stroke="#000000" stroke-linecap="butt" stroke-linejoin="miter" stroke-miterlimit="2" stroke-opacity="1" stroke-width="0.445" transform="matrix(2.24719,0,0,2.24719,-39.3258,-558.427)"><polyline fill="none" points="89,257 90,256" vector-effect="none"/></g><defs><clipPath id="clip49"><path d="M25,251 L100,251 L100,299 L25,299 L25,251 z"/></clipPath></defs><g clip-path="url(#clip49)" fill="none" opacity="1" stroke="#000000" stroke-linecap="butt" stroke-linejoin="miter" stroke-miterlimit="2" stroke-opacity="1" stroke-width="0.445" transform="matrix(2.24719,0,0,2.24719,-39.3258,-558.427)"><polyline fill="none" points="90,256 91,259" vector-effect="none"/></g><defs><clipPath id="clip50"><path d="M25,251 L100,251 L100,299 L25,299 L25,251 z"/></clipPath></defs><g clip-path="url(#clip50)" fill="none" opacity="1" stroke="#000000" stroke-linecap="butt" stroke-linejoin="miter" stroke-miterlimit="2" stroke-opacity="1" stroke-width="0.445" transform="matrix(2.24719,0,0,2.24719,-39.3258,-558.427)"><polyline fill="none" points="91,259 91,263" vector-effect="none"/></g><defs><clipPath id="clip51"><path d="M25,251 L100,251 L100,299 L25,299 L25,251 z"/></clipPath></defs><g clip-path="url(#clip51)" fill="none" opacity="1" stroke="#000000" stroke-linecap="butt" stroke-linejoin="miter" stroke-miterlimit="2" stroke-opacity="1" stroke-width="0.445" transform="matrix(2.24719,0,0,2.24719,-39.3258,-558.427)"><polyline fill="none" points="91,263 92,264" vector-effect="none"/></g><defs><clipPath id="clip52"><path d="M25,251 L100,251 L100,299 L25,299 L25,251 z"/></clipPath></defs><g clip-path="url(#clip52)" fill="none" opacity="1" stroke="#000000" stroke-linecap="butt" stroke-linejoin="miter" stroke-miterlimit="2" stroke-opacity="1" stroke-width="0.445" transform="matrix(2.24719,0,0,2.24719,-39.3258,-558.427)"><polyline fill="none" points="92,264 93,262" vector-effect="none"/></g><defs><clipPath id="clip54"><path d="M-189,-123 L195,-123 L195,123 L-189,123 L-189,-123 z"/></clipPath></defs><g clip-path="url(#clip54)" fill="none" opacity="1" stroke="#000000" stroke-linecap="butt" stroke-linejoin="miter" stroke-miterlimit="2" stroke-opacity="1" stroke-width="0.445" transform="matrix(0.438904,0,0,0.438904,98.8764,58.427)"><text fill="#000000" fill-opacity="1" font-family="Liberation Sans" font-size="40" font-style="normal" font-weight="400" stroke="none" textLength="112" x="-71.1094" xml:space="preserve" y="17.9219">QPSK</text></g><defs><clipPath id="clip60"><path d="M-7,-2 L82,-2 L82,50 L-7,50 L-7,-2 z"/></clipPath></defs><g clip-path="url(#clip60)" fill="none" opacity="1" stroke="#000000" stroke-linecap="butt" stroke-linejoin="miter" stroke-miterlimit="2" stroke-opacity="1" stroke-width="0.723343" transform="matrix(2.24719,0,0,2.24719,15.7303,4.49438)"><path d="M0,0 L75,0 L75,48 L0,48 L0,0 z" fill-rule="evenodd" vector-effect="none"/></g></g></svg>
