<?xml version="1.0" encoding="UTF-8"?><svg width="52.9167mm" height="32.0146mm" viewBox="0 0 200 121" xmlns="http://www.w3.org/2000/svg" xmlns:xlink="http://www.w3.org/1999/xlink"><g fill="none" stroke="black" stroke-width="1" fill-rule="evenodd" stroke-linecap="square" stroke-linejoin="bevel"><g clip-path="none" fill="none" opacity="1" stroke="none" stroke-opacity="0" transform="matrix(1,0,0,1,0,0)"><path d="M0,0 L200,0 L200,121 L0,121 L0,0 z" fill-rule="evenodd" vector-effect="none"/></g><defs><clipPath id="clip3"><path d="M7,27 L-82,27 L-82,-27 L7,-27 L7,27 z"/></clipPath></defs><g clip-path="url(#clip3)" fill="none" opacity="1" stroke="#000000" stroke-linecap="round" stroke-linejoin="miter" stroke-miterlimit="2" stroke-opacity="1" stroke-width="2" transform="matrix(-2.24719,0,0,-2.24719,15.7303,60.6742)"><path d="M5,-5 L0,0 L5,5" fill-rule="evenodd" vector-effect="none"/></g><defs><clipPath id="clip6"><path d="M-82,-27 L7,-27 L7,27 L-82,27 L-82,-27 z"/></clipPath></defs><g clip-path="url(#clip6)" fill="none" opacity="1" stroke="#000000" stroke-linecap="round" stroke-linejoin="miter" stroke-miterlimit="2" stroke-opacity="1" stroke-width="2" transform="matrix(2.24719,0,0,2.24719,184.27,60.6742)"><path d="M0,-5 L5,0 L0,5" fill-rule="evenodd" vector-effect="none"/></g><defs><clipPath id="clip9"><path d="M-7,-2 L82,-2 L82,52 L-7,52 L-7,-2 z"/></clipPath></defs><g clip-path="url(#clip9)" fill="#ffffff" fill-opacity="1" opacity="1" stroke="none" stroke-opacity="0" transform="matrix(2.24719,0,0,2.24719,15.7303,4.49438)"><path d="M0,0 L75,0 L75,50 L0,50 L0,0 z" fill-rule="evenodd" vector-effect="none"/></g><defs><clipPath id="clip13"><path d="M135,350 L210,350 L210,400 L135,400 L135,350 z"/></clipPath></defs><g clip-path="url(#clip13)" fill="none" opacity="1" stroke="#000000" stroke-linecap="butt" stroke-linejoin="miter" stroke-miterlimit="2" stroke-opacity="1" stroke-width="0.445" transform="matrix(2.24719,0,0,2.24719,-286.517,-780.899)"><polyline fill="none" points="141,360 142,356" vector-effect="none"/></g><defs><clipPath id="clip14"><path d="M135,350 L210,350 L210,400 L135,400 L135,350 z"/></clipPath></defs><g clip-path="url(#clip14)" fill="none" opacity="1" stroke="#000000" stroke-linecap="butt" stroke-linejoin="miter" stroke-miterlimit="2" stroke-opacity="1" stroke-width="0.445" transform="matrix(2.24719,0,0,2.24719,-286.517,-780.899)"><polyline fill="none" points="142,356 143,356" vector-effect="none"/></g><defs><clipPath id="clip15"><path d="M135,350 L210,350 L210,400 L135,400 L135,350 z"/></clipPath></defs><g clip-path="url(#clip15)" fill="none" opacity="1" stroke="#000000" stroke-linecap="butt" stroke-linejoin="miter" stroke-miterlimit="2" stroke-opacity="1" stroke-width="0.445" transform="matrix(2.24719,0,0,2.24719,-286.517,-780.899)"><polyline fill="none" points="143,356 144,359" vector-effect="none"/></g><defs><clipPath id="clip16"><path d="M135,350 L210,350 L210,400 L135,400 L135,350 z"/></clipPath></defs><g clip-path="url(#clip16)" fill="none" opacity="1" stroke="#000000" stroke-linecap="butt" stroke-linejoin="miter" stroke-miterlimit="2" stroke-opacity="1" stroke-width="0.445" transform="matrix(2.24719,0,0,2.24719,-286.517,-780.899)"><polyline fill="none" points="144,359 145,363" vector-effect="none"/></g><defs><clipPath id="clip17"><path d="M135,350 L210,350 L210,400 L135,400 L135,350 z"/></clipPath></defs><g clip-path="url(#clip17)" fill="none" opacity="1" stroke="#000000" stroke-linecap="butt" stroke-linejoin="miter" stroke-miterlimit="2" stroke-opacity="1" stroke-width="0.445" transform="matrix(2.24719,0,0,2.24719,-286.517,-780.899)"><polyline fill="none" points="145,363 146,364" vector-effect="none"/></g><defs><clipPath id="clip18"><path d="M135,350 L210,350 L210,400 L135,400 L135,350 z"/></clipPath></defs><g clip-path="url(#clip18)" fill="none" opacity="1" stroke="#000000" stroke-linecap="butt" stroke-linejoin="miter" stroke-miterlimit="2" stroke-opacity="1" stroke-width="0.445" transform="matrix(2.24719,0,0,2.24719,-286.517,-780.899)"><polyline fill="none" points="146,364 146,361" vector-effect="none"/></g><defs><clipPath id="clip19"><path d="M135,350 L210,350 L210,400 L135,400 L135,350 z"/></clipPath></defs><g clip-path="url(#clip19)" fill="none" opacity="1" stroke="#000000" stroke-linecap="butt" stroke-linejoin="miter" stroke-miterlimit="2" stroke-opacity="1" stroke-width="0.445" transform="matrix(2.24719,0,0,2.24719,-286.517,-780.899)"><polyline fill="none" points="146,361 147,357" vector-effect="none"/></g><defs><clipPath id="clip20"><path d="M135,350 L210,350 L210,400 L135,400 L135,350 z"/></clipPath></defs><g clip-path="url(#clip20)" fill="none" opacity="1" stroke="#000000" stroke-linecap="butt" stroke-linejoin="miter" stroke-miterlimit="2" stroke-opacity="1" stroke-width="0.445" transform="matrix(2.24719,0,0,2.24719,-286.517,-780.899)"><polyline fill="none" points="147,357 148,355" vector-effect="none"/></g><defs><clipPath id="clip21"><path d="M135,350 L210,350 L210,400 L135,400 L135,350 z"/></clipPath></defs><g clip-path="url(#clip21)" fill="none" opacity="1" stroke="#000000" stroke-linecap="butt" stroke-linejoin="miter" stroke-miterlimit="2" stroke-opacity="1" stroke-width="0.445" transform="matrix(2.24719,0,0,2.24719,-286.517,-780.899)"><polyline fill="none" points="148,355 149,358" vector-effect="none"/></g><defs><clipPath id="clip22"><path d="M135,350 L210,350 L210,400 L135,400 L135,350 z"/></clipPath></defs><g clip-path="url(#clip22)" fill="none" opacity="1" stroke="#000000" stroke-linecap="butt" stroke-linejoin="miter" stroke-miterlimit="2" stroke-opacity="1" stroke-width="0.445" transform="matrix(2.24719,0,0,2.24719,-286.517,-780.899)"><polyline fill="none" points="149,358 150,362" vector-effect="none"/></g><defs><clipPath id="clip23"><path d="M135,350 L210,350 L210,400 L135,400 L135,350 z"/></clipPath></defs><g clip-path="url(#clip23)" fill="none" opacity="1" stroke="#000000" stroke-linecap="butt" stroke-linejoin="miter" stroke-miterlimit="2" stroke-opacity="1" stroke-width="0.445" transform="matrix(2.24719,0,0,2.24719,-286.517,-780.899)"><polyline fill="none" points="150,362 151,364" vector-effect="none"/></g><defs><clipPath id="clip24"><path d="M135,350 L210,350 L210,400 L135,400 L135,350 z"/></clipPath></defs><g clip-path="url(#clip24)" fill="none" opacity="1" stroke="#000000" stroke-linecap="butt" stroke-linejoin="miter" stroke-miterlimit="2" stroke-opacity="1" stroke-width="0.445" transform="matrix(2.24719,0,0,2.24719,-286.517,-780.899)"><polyline fill="none" points="151,364 151,362" vector-effect="none"/></g><defs><clipPath id="clip25"><path d="M135,350 L210,350 L210,400 L135,400 L135,350 z"/></clipPath></defs><g clip-path="url(#clip25)" fill="none" opacity="1" stroke="#000000" stroke-linecap="butt" stroke-linejoin="miter" stroke-miterlimit="2" stroke-opacity="1" stroke-width="0.445" transform="matrix(2.24719,0,0,2.24719,-286.517,-780.899)"><polyline fill="none" points="151,362 152,360" vector-effect="none"/></g><defs><clipPath id="clip26"><path d="M135,350 L210,350 L210,400 L135,400 L135,350 z"/></clipPath></defs><g clip-path="url(#clip26)" fill="none" opacity="1" stroke="#000000" stroke-linecap="butt" stroke-linejoin="miter" stroke-miterlimit="2" stroke-opacity="1" stroke-width="0.445" transform="matrix(2.24719,0,0,2.24719,-286.517,-780.899)"><polyline fill="none" points="152,360 153,356" vector-effect="none"/></g><defs><clipPath id="clip27"><path d="M135,350 L210,350 L210,400 L135,400 L135,350 z"/></clipPath></defs><g clip-path="url(#clip27)" fill="none" opacity="1" stroke="#000000" stroke-linecap="butt" stroke-linejoin="miter" stroke-miterlimit="2" stroke-opacity="1" stroke-width="0.445" transform="matrix(2.24719,0,0,2.24719,-286.517,-780.899)"><polyline fill="none" points="153,356 155,356" vector-effect="none"/></g><defs><clipPath id="clip28"><path d="M135,350 L210,350 L210,400 L135,400 L135,350 z"/></clipPath></defs><g clip-path="url(#clip28)" fill="none" opacity="1" stroke="#000000" stroke-linecap="butt" stroke-linejoin="miter" stroke-miterlimit="2" stroke-opacity="1" stroke-width="0.445" transform="matrix(2.24719,0,0,2.24719,-286.517,-780.899)"><polyline fill="none" points="155,356 157,359" vector-effect="none"/></g><defs><clipPath id="clip29"><path d="M135,350 L210,350 L210,400 L135,400 L135,350 z"/></clipPath></defs><g clip-path="url(#clip29)" fill="none" opacity="1" stroke="#000000" stroke-linecap="butt" stroke-linejoin="miter" stroke-miterlimit="2" stroke-opacity="1" stroke-width="0.445" transform="matrix(2.24719,0,0,2.24719,-286.517,-780.899)"><polyline fill="none" points="157,359 158,363" vector-effect="none"/></g><defs><clipPath id="clip30"><path d="M135,350 L210,350 L210,400 L135,400 L135,350 z"/></clipPath></defs><g clip-path="url(#clip30)" fill="none" opacity="1" stroke="#000000" stroke-linecap="butt" stroke-linejoin="miter" stroke-miterlimit="2" stroke-opacity="1" stroke-width="0.445" transform="matrix(2.24719,0,0,2.24719,-286.517,-780.899)"><polyline fill="none" points="158,363 160,364" vector-effect="none"/></g><defs><clipPath id="clip31"><path d="M135,350 L210,350 L210,400 L135,400 L135,350 z"/></clipPath></defs><g clip-path="url(#clip31)" fill="none" opacity="1" stroke="#000000" stroke-linecap="butt" stroke-linejoin="miter" stroke-miterlimit="2" stroke-opacity="1" stroke-width="0.445" transform="matrix(2.24719,0,0,2.24719,-286.517,-780.899)"><polyline fill="none" points="160,364 162,361" vector-effect="none"/></g><defs><clipPath id="clip32"><path d="M135,350 L210,350 L210,400 L135,400 L135,350 z"/></clipPath></defs><g clip-path="url(#clip32)" fill="none" opacity="1" stroke="#000000" stroke-linecap="butt" stroke-linejoin="miter" stroke-miterlimit="2" stroke-opacity="1" stroke-width="0.445" transform="matrix(2.24719,0,0,2.24719,-286.517,-780.899)"><polyline fill="none" points="162,361 162,360" vector-effect="none"/></g><defs><clipPath id="clip33"><path d="M135,350 L210,350 L210,400 L135,400 L135,350 z"/></clipPath></defs><g clip-path="url(#clip33)" fill="none" opacity="1" stroke="#000000" stroke-linecap="butt" stroke-linejoin="miter" stroke-miterlimit="2" stroke-opacity="1" stroke-width="0.445" transform="matrix(2.24719,0,0,2.24719,-286.517,-780.899)"><polyline fill="none" points="162,360 163,356" vector-effect="none"/></g><defs><clipPath id="clip34"><path d="M135,350 L210,350 L210,400 L135,400 L135,350 z"/></clipPath></defs><g clip-path="url(#clip34)" fill="none" opacity="1" stroke="#000000" stroke-linecap="butt" stroke-linejoin="miter" stroke-miterlimit="2" stroke-opacity="1" stroke-width="0.445" transform="matrix(2.24719,0,0,2.24719,-286.517,-780.899)"><polyline fill="none" points="163,356 164,356" vector-effect="none"/></g><defs><clipPath id="clip35"><path d="M135,350 L210,350 L210,400 L135,400 L135,350 z"/></clipPath></defs><g clip-path="url(#clip35)" fill="none" opacity="1" stroke="#000000" stroke-linecap="butt" stroke-linejoin="miter" stroke-miterlimit="2" stroke-opacity="1" stroke-width="0.445" transform="matrix(2.24719,0,0,2.24719,-286.517,-780.899)"><polyline fill="none" points="164,356 165,359" vector-effect="none"/></g><defs><clipPath id="clip36"><path d="M135,350 L210,350 L210,400 L135,400 L135,350 z"/></clipPath></defs><g clip-path="url(#clip36)" fill="none" opacity="1" stroke="#000000" stroke-linecap="butt" stroke-linejoin="miter" stroke-miterlimit="2" stroke-opacity="1" stroke-width="0.445" transform="matrix(2.24719,0,0,2.24719,-286.517,-780.899)"><polyline fill="none" points="165,359 165,363" vector-effect="none"/></g><defs><clipPath id="clip37"><path d="M135,350 L210,350 L210,400 L135,400 L135,350 z"/></clipPath></defs><g clip-path="url(#clip37)" fill="none" opacity="1" stroke="#000000" stroke-linecap="butt" stroke-linejoin="miter" stroke-miterlimit="2" stroke-opacity="1" stroke-width="0.445" transform="matrix(2.24719,0,0,2.24719,-286.517,-780.899)"><polyline fill="none" points="165,363 166,364" vector-effect="none"/></g><defs><clipPath id="clip38"><path d="M135,350 L210,350 L210,400 L135,400 L135,350 z"/></clipPath></defs><g clip-path="url(#clip38)" fill="none" opacity="1" stroke="#000000" stroke-linecap="butt" stroke-linejoin="miter" stroke-miterlimit="2" stroke-opacity="1" stroke-width="0.445" transform="matrix(2.24719,0,0,2.24719,-286.517,-780.899)"><polyline fill="none" points="166,364 167,361" vector-effect="none"/></g><defs><clipPath id="clip39"><path d="M135,350 L210,350 L210,400 L135,400 L135,350 z"/></clipPath></defs><g clip-path="url(#clip39)" fill="none" opacity="1" stroke="#000000" stroke-linecap="butt" stroke-linejoin="miter" stroke-miterlimit="2" stroke-opacity="1" stroke-width="0.445" transform="matrix(2.24719,0,0,2.24719,-286.517,-780.899)"><polyline fill="none" points="167,361 168,357" vector-effect="none"/></g><defs><clipPath id="clip40"><path d="M135,350 L210,350 L210,400 L135,400 L135,350 z"/></clipPath></defs><g clip-path="url(#clip40)" fill="none" opacity="1" stroke="#000000" stroke-linecap="butt" stroke-linejoin="miter" stroke-miterlimit="2" stroke-opacity="1" stroke-width="0.445" transform="matrix(2.24719,0,0,2.24719,-286.517,-780.899)"><polyline fill="none" points="168,357 169,355" vector-effect="none"/></g><defs><clipPath id="clip41"><path d="M135,350 L210,350 L210,400 L135,400 L135,350 z"/></clipPath></defs><g clip-path="url(#clip41)" fill="none" opacity="1" stroke="#000000" stroke-linecap="butt" stroke-linejoin="miter" stroke-miterlimit="2" stroke-opacity="1" stroke-width="0.445" transform="matrix(2.24719,0,0,2.24719,-286.517,-780.899)"><polyline fill="none" points="169,355 170,358" vector-effect="none"/></g><defs><clipPath id="clip42"><path d="M135,350 L210,350 L210,400 L135,400 L135,350 z"/></clipPath></defs><g clip-path="url(#clip42)" fill="none" opacity="1" stroke="#000000" stroke-linecap="butt" stroke-linejoin="miter" stroke-miterlimit="2" stroke-opacity="1" stroke-width="0.445" transform="matrix(2.24719,0,0,2.24719,-286.517,-780.899)"><polyline fill="none" points="170,358 170,362" vector-effect="none"/></g><defs><clipPath id="clip43"><path d="M135,350 L210,350 L210,400 L135,400 L135,350 z"/></clipPath></defs><g clip-path="url(#clip43)" fill="none" opacity="1" stroke="#000000" stroke-linecap="butt" stroke-linejoin="miter" stroke-miterlimit="2" stroke-opacity="1" stroke-width="0.445" transform="matrix(2.24719,0,0,2.24719,-286.517,-780.899)"><polyline fill="none" points="170,362 171,364" vector-effect="none"/></g><defs><clipPath id="clip44"><path d="M135,350 L210,350 L210,400 L135,400 L135,350 z"/></clipPath></defs><g clip-path="url(#clip44)" fill="none" opacity="1" stroke="#000000" stroke-linecap="butt" stroke-linejoin="miter" stroke-miterlimit="2" stroke-opacity="1" stroke-width="0.445" transform="matrix(2.24719,0,0,2.24719,-286.517,-780.899)"><polyline fill="none" points="171,364 172,362" vector-effect="none"/></g><defs><clipPath id="clip45"><path d="M135,350 L210,350 L210,400 L135,400 L135,350 z"/></clipPath></defs><g clip-path="url(#clip45)" fill="none" opacity="1" stroke="#000000" stroke-linecap="butt" stroke-linejoin="miter" stroke-miterlimit="2" stroke-opacity="1" stroke-width="0.445" transform="matrix(2.24719,0,0,2.24719,-286.517,-780.899)"><polyline fill="none" points="172,362 173,360" vector-effect="none"/></g><defs><clipPath id="clip46"><path d="M135,350 L210,350 L210,400 L135,400 L135,350 z"/></clipPath></defs><g clip-path="url(#clip46)" fill="none" opacity="1" stroke="#000000" stroke-linecap="butt" stroke-linejoin="miter" stroke-miterlimit="2" stroke-opacity="1" stroke-width="0.445" transform="matrix(2.24719,0,0,2.24719,-286.517,-780.899)"><polyline fill="none" points="173,360 173,353" vector-effect="none"/></g><defs><clipPath id="clip47"><path d="M135,350 L210,350 L210,400 L135,400 L135,350 z"/></clipPath></defs><g clip-path="url(#clip47)" fill="none" opacity="1" stroke="#000000" stroke-linecap="butt" stroke-linejoin="miter" stroke-miterlimit="2" stroke-opacity="1" stroke-width="0.445" transform="matrix(2.24719,0,0,2.24719,-286.517,-780.899)"><polyline fill="none" points="173,353 173,364" vector-effect="none"/></g><defs><clipPath id="clip48"><path d="M135,350 L210,350 L210,400 L135,400 L135,350 z"/></clipPath></defs><g clip-path="url(#clip48)" fill="none" opacity="1" stroke="#000000" stroke-linecap="butt" stroke-linejoin="miter" stroke-miterlimit="2" stroke-opacity="1" stroke-width="0.445" transform="matrix(2.24719,0,0,2.24719,-286.517,-780.899)"><polyline fill="none" points="173,364 173,356" vector-effect="none"/></g><defs><clipPath id="clip49"><path d="M135,350 L210,350 L210,400 L135,400 L135,350 z"/></clipPath></defs><g clip-path="url(#clip49)" fill="none" opacity="1" stroke="#000000" stroke-linecap="butt" stroke-linejoin="miter" stroke-miterlimit="2" stroke-opacity="1" stroke-width="0.445" transform="matrix(2.24719,0,0,2.24719,-286.517,-780.899)"><polyline fill="none" points="173,356 183,356" vector-effect="none"/></g><defs><clipPath id="clip50"><path d="M135,350 L210,350 L210,400 L135,400 L135,350 z"/></clipPath></defs><g clip-path="url(#clip50)" fill="none" opacity="1" stroke="#000000" stroke-linecap="butt" stroke-linejoin="miter" stroke-miterlimit="2" stroke-opacity="1" stroke-width="0.445" transform="matrix(2.24719,0,0,2.24719,-286.517,-780.899)"><polyline fill="none" points="183,356 183,363" vector-effect="none"/></g><defs><clipPath id="clip51"><path d="M135,350 L210,350 L210,400 L135,400 L135,350 z"/></clipPath></defs><g clip-path="url(#clip51)" fill="none" opacity="1" stroke="#000000" stroke-linecap="butt" stroke-linejoin="miter" stroke-miterlimit="2" stroke-opacity="1" stroke-width="0.445" transform="matrix(2.24719,0,0,2.24719,-286.517,-780.899)"><polyline fill="none" points="183,363 193,363" vector-effect="none"/></g><defs><clipPath id="clip52"><path d="M135,350 L210,350 L210,400 L135,400 L135,350 z"/></clipPath></defs><g clip-path="url(#clip52)" fill="none" opacity="1" stroke="#000000" stroke-linecap="butt" stroke-linejoin="miter" stroke-miterlimit="2" stroke-opacity="1" stroke-width="0.445" transform="matrix(2.24719,0,0,2.24719,-286.517,-780.899)"><polyline fill="none" points="193,363 193,356" vector-effect="none"/></g><defs><clipPath id="clip53"><path d="M135,350 L210,350 L210,400 L135,400 L135,350 z"/></clipPath></defs><g clip-path="url(#clip53)" fill="none" opacity="1" stroke="#000000" stroke-linecap="butt" stroke-linejoin="miter" stroke-miterlimit="2" stroke-opacity="1" stroke-width="0.445" transform="matrix(2.24719,0,0,2.24719,-286.517,-780.899)"><polyline fill="none" points="193,356 204,356" vector-effect="none"/></g><defs><clipPath id="clip55"><path d="M-189,-128 L195,-128 L195,128 L-189,128 L-189,-128 z"/></clipPath></defs><g clip-path="url(#clip55)" fill="none" opacity="1" stroke="#000000" stroke-linecap="butt" stroke-linejoin="miter" stroke-miterlimit="2" stroke-opacity="1" stroke-width="0.445" transform="matrix(0.438904,0,0,0.438904,98.8764,60.6742)"><text fill="#000000" fill-opacity="1" font-family="Liberation Sans" font-size="40" font-style="normal" font-weight="400" stroke="none" textLength="143" x="-91.0156" xml:space="preserve" y="17.9219">OQPSK</text></g><defs><clipPath id="clip61"><path d="M-7,-2 L82,-2 L82,52 L-7,52 L-7,-2 z"/></clipPath></defs><g clip-path="url(#clip61)" fill="none" opacity="1" stroke="#000000" stroke-linecap="butt" stroke-linejoin="miter" stroke-miterlimit="2" stroke-opacity="1" stroke-width="0.723343" transform="matrix(2.24719,0,0,2.24719,15.7303,4.49438)"><path d="M0,0 L75,0 L75,50 L0,50 L0,0 z" fill-rule="evenodd" vector-effect="none"/></g></g></svg>
