<?xml version="1.0" encoding="UTF-8"?><svg width="52.9167mm" height="21.6958mm" viewBox="0 0 200 82" xmlns="http://www.w3.org/2000/svg" xmlns:xlink="http://www.w3.org/1999/xlink"><g fill="none" stroke="black" stroke-width="1" fill-rule="evenodd" stroke-linecap="square" stroke-linejoin="bevel"><g clip-path="none" fill="none" opacity="1" stroke="none" stroke-opacity="0" transform="matrix(1,0,0,1,0,0)"><path d="M0,0 L200,0 L200,82 L0,82 L0,0 z" fill-rule="evenodd" vector-effect="none"/></g><defs><clipPath id="clip3"><path d="M7,40 L-187,40 L-187,-40 L7,-40 L7,40 z"/></clipPath></defs><g clip-path="url(#clip3)" fill="none" opacity="1" stroke="#000000" stroke-linecap="round" stroke-linejoin="miter" stroke-miterlimit="2" stroke-opacity="1" stroke-width="2" transform="matrix(-1.03093,0,0,-1.03093,7.21649,41.2371)"><path d="M5,-5 L0,0 L5,5" fill-rule="evenodd" vector-effect="none"/></g><defs><clipPath id="clip6"><path d="M-187,-40 L7,-40 L7,40 L-187,40 L-187,-40 z"/></clipPath></defs><g clip-path="url(#clip6)" fill="none" opacity="1" stroke="#000000" stroke-linecap="round" stroke-linejoin="miter" stroke-miterlimit="2" stroke-opacity="1" stroke-width="2" transform="matrix(1.03093,0,0,1.03093,192.784,41.2371)"><path d="M0,-5 L5,0 L0,5" fill-rule="evenodd" vector-effect="none"/></g><defs><clipPath id="clip9"><path d="M-7,-2 L187,-2 L187,78 L-7,78 L-7,-2 z"/></clipPath></defs><g clip-path="url(#clip9)" fill="#ffffff" fill-opacity="1" opacity="1" stroke="none" stroke-opacity="0" transform="matrix(1.03093,0,0,1.03093,7.21649,2.06186)"><path d="M0,0 L180,0 L180,76 L0,76 L0,0 z" fill-rule="evenodd" vector-effect="none"/></g><defs><clipPath id="clip14"><path d="M-461,-169 L461,-169 L461,220 L-461,220 L-461,-169 z"/></clipPath></defs><g clip-path="url(#clip14)" fill="none" opacity="1" stroke="#000000" stroke-linecap="butt" stroke-linejoin="miter" stroke-miterlimit="2" stroke-opacity="1" stroke-width="0.97" transform="matrix(0.201353,0,0,0.201353,100,36.0825)"><text fill="#000000" fill-opacity="1" font-family="Liberation Sans" font-size="40" font-style="normal" font-weight="400" stroke="none" textLength="244" x="-159.297" xml:space="preserve" y="17.9219">I/Q Imbalance</text></g><defs><clipPath id="clip17"><path d="M-461,-220 L461,-220 L461,169 L-461,169 L-461,-220 z"/></clipPath></defs><g clip-path="url(#clip17)" fill="none" opacity="1" stroke="#000000" stroke-linecap="butt" stroke-linejoin="miter" stroke-miterlimit="2" stroke-opacity="1" stroke-width="0.97" transform="matrix(0.201353,0,0,0.201353,100,46.3918)"><text fill="#000000" fill-opacity="1" font-family="Liberation Sans" font-size="40" font-style="normal" font-weight="400" stroke="none" textLength="237" x="-153.594" xml:space="preserve" y="17.9219">Compensator</text></g><defs><clipPath id="clip23"><path d="M-7,-2 L187,-2 L187,78 L-7,78 L-7,-2 z"/></clipPath></defs><g clip-path="url(#clip23)" fill="none" opacity="1" stroke="#000000" stroke-linecap="butt" stroke-linejoin="miter" stroke-miterlimit="2" stroke-opacity="1" stroke-width="0.98789" transform="matrix(1.03093,0,0,1.03093,7.21649,2.06186)"><path d="M0,0 L180,0 L180,76 L0,76 L0,0 z" fill-rule="evenodd" vector-effect="none"/></g></g></svg>
