<?xml version="1.0" encoding="UTF-8"?><svg width="52.9167mm" height="21.6958mm" viewBox="0 0 200 82" xmlns="http://www.w3.org/2000/svg" xmlns:xlink="http://www.w3.org/1999/xlink"><g fill="none" stroke="black" stroke-width="1" fill-rule="evenodd" stroke-linecap="square" stroke-linejoin="bevel"><g clip-path="none" fill="none" opacity="1" stroke="none" stroke-opacity="0" transform="matrix(1,0,0,1,0,0)"><path d="M0,0 L200,0 L200,82 L0,82 L0,0 z" fill-rule="evenodd" vector-effect="none"/></g><defs><clipPath id="clip3"><path d="M-187,-60 L7,-60 L7,20 L-187,20 L-187,-60 z"/></clipPath></defs><g clip-path="url(#clip3)" fill="none" opacity="1" stroke="#000000" stroke-linecap="round" stroke-linejoin="miter" stroke-miterlimit="2" stroke-opacity="1" stroke-width="2" transform="matrix(1.03093,0,0,1.03093,192.784,61.8557)"><path d="M0,-5 L5,0 L0,5" fill-rule="evenodd" vector-effect="none"/></g><defs><clipPath id="clip6"><path d="M-187,-20 L7,-20 L7,60 L-187,60 L-187,-20 z"/></clipPath></defs><g clip-path="url(#clip6)" fill="none" opacity="1" stroke="#000000" stroke-linecap="round" stroke-linejoin="miter" stroke-miterlimit="2" stroke-opacity="1" stroke-width="2" transform="matrix(1.03093,0,0,1.03093,192.784,20.6186)"><path d="M0,-5 L5,0 L0,5" fill-rule="evenodd" vector-effect="none"/></g><defs><clipPath id="clip9"><path d="M7,40 L-187,40 L-187,-40 L7,-40 L7,40 z"/></clipPath></defs><g clip-path="url(#clip9)" fill="none" opacity="1" stroke="#000000" stroke-linecap="round" stroke-linejoin="miter" stroke-miterlimit="2" stroke-opacity="1" stroke-width="2" transform="matrix(-1.03093,0,0,-1.03093,7.21649,41.2371)"><path d="M5,-5 L0,0 L5,5" fill-rule="evenodd" vector-effect="none"/></g><defs><clipPath id="clip12"><path d="M-7,-2 L187,-2 L187,78 L-7,78 L-7,-2 z"/></clipPath></defs><g clip-path="url(#clip12)" fill="#ffffff" fill-opacity="1" opacity="1" stroke="none" stroke-opacity="0" transform="matrix(1.03093,0,0,1.03093,7.21649,2.06186)"><path d="M0,0 L180,0 L180,76 L0,76 L0,0 z" fill-rule="evenodd" vector-effect="none"/></g><defs><clipPath id="clip17"><path d="M-15,-195 L907,-195 L907,194 L-15,194 L-15,-195 z"/></clipPath></defs><g clip-path="url(#clip17)" fill="none" opacity="1" stroke="#000000" stroke-linecap="butt" stroke-linejoin="miter" stroke-miterlimit="2" stroke-opacity="1" stroke-width="0.97" transform="matrix(0.201353,0,0,0.201353,10.3093,41.2371)"><text fill="#000000" fill-opacity="1" font-family="Liberation Sans" font-size="36" font-style="normal" font-weight="400" stroke="none" textLength="76" x="0" xml:space="preserve" y="16">Coef</text></g><defs><clipPath id="clip20"><path d="M-906,-92 L16,-92 L16,297 L-906,297 L-906,-92 z"/></clipPath></defs><g clip-path="url(#clip20)" fill="none" opacity="1" stroke="#000000" stroke-linecap="butt" stroke-linejoin="miter" stroke-miterlimit="2" stroke-opacity="1" stroke-width="0.97" transform="matrix(0.201353,0,0,0.201353,189.691,20.6186)"><text fill="#000000" fill-opacity="1" font-family="Liberation Sans" font-size="36" font-style="normal" font-weight="400" stroke="none" textLength="134" x="-171.516" xml:space="preserve" y="16">AmpImb</text></g><defs><clipPath id="clip23"><path d="M-906,-297 L16,-297 L16,92 L-906,92 L-906,-297 z"/></clipPath></defs><g clip-path="url(#clip23)" fill="none" opacity="1" stroke="#000000" stroke-linecap="butt" stroke-linejoin="miter" stroke-miterlimit="2" stroke-opacity="1" stroke-width="0.97" transform="matrix(0.201353,0,0,0.201353,189.691,61.8557)"><text fill="#000000" fill-opacity="1" font-family="Liberation Sans" font-size="36" font-style="normal" font-weight="400" stroke="none" textLength="103" x="-133.125" xml:space="preserve" y="16">PhImb</text></g><defs><clipPath id="clip26"><path d="M-461,-169 L461,-169 L461,220 L-461,220 L-461,-169 z"/></clipPath></defs><g clip-path="url(#clip26)" fill="none" opacity="1" stroke="#000000" stroke-linecap="butt" stroke-linejoin="miter" stroke-miterlimit="2" stroke-opacity="1" stroke-width="0.97" transform="matrix(0.201353,0,0,0.201353,100,36.0825)"><text fill="#000000" fill-opacity="1" font-family="Liberation Sans" font-size="40" font-style="normal" font-weight="400" stroke="none" textLength="300" x="-194.828" xml:space="preserve" y="17.9219">I/Q Compensator</text></g><defs><clipPath id="clip29"><path d="M-461,-220 L461,-220 L461,169 L-461,169 L-461,-220 z"/></clipPath></defs><g clip-path="url(#clip29)" fill="none" opacity="1" stroke="#000000" stroke-linecap="butt" stroke-linejoin="miter" stroke-miterlimit="2" stroke-opacity="1" stroke-width="0.97" transform="matrix(0.201353,0,0,0.201353,100,46.3918)"><text fill="#000000" fill-opacity="1" font-family="Liberation Sans" font-size="40" font-style="normal" font-weight="400" stroke="none" textLength="422" x="-273.859" xml:space="preserve" y="17.9219">Coefficient to Imbalance</text></g><defs><clipPath id="clip35"><path d="M-7,-2 L187,-2 L187,78 L-7,78 L-7,-2 z"/></clipPath></defs><g clip-path="url(#clip35)" fill="none" opacity="1" stroke="#000000" stroke-linecap="butt" stroke-linejoin="miter" stroke-miterlimit="2" stroke-opacity="1" stroke-width="0.98789" transform="matrix(1.03093,0,0,1.03093,7.21649,2.06186)"><path d="M0,0 L180,0 L180,76 L0,76 L0,0 z" fill-rule="evenodd" vector-effect="none"/></g></g></svg>
