<?xml version="1.0" encoding="UTF-8"?><svg width="52.9167mm" height="45.5083mm" viewBox="0 0 200 172" xmlns="http://www.w3.org/2000/svg" xmlns:xlink="http://www.w3.org/1999/xlink"><g fill="none" stroke="black" stroke-width="1" fill-rule="evenodd" stroke-linecap="square" stroke-linejoin="bevel"><g clip-path="none" fill="none" opacity="1" stroke="none" stroke-opacity="0" transform="matrix(1,0,0,1,0,0)"><path d="M0,0 L200,0 L200,172 L0,172 L0,0 z" fill-rule="evenodd" vector-effect="none"/></g><defs><clipPath id="clip3"><path d="M-72,-34 L7,-34 L7,34 L-72,34 L-72,-34 z"/></clipPath></defs><g clip-path="url(#clip3)" fill="none" opacity="1" stroke="#000000" stroke-linecap="round" stroke-linejoin="miter" stroke-miterlimit="2" stroke-opacity="1" stroke-width="2" transform="matrix(2.53165,0,0,2.53165,182.278,86.0759)"><path d="M0,-5 L5,0 L0,5" fill-rule="evenodd" vector-effect="none"/></g><defs><clipPath id="clip6"><path d="M7,19 L-72,19 L-72,-49 L7,-49 L7,19 z"/></clipPath></defs><g clip-path="url(#clip6)" fill="none" opacity="1" stroke="#000000" stroke-linecap="round" stroke-linejoin="miter" stroke-miterlimit="2" stroke-opacity="1" stroke-width="2" transform="matrix(-2.53165,0,0,-2.53165,17.7215,48.1013)"><path d="M5,-5 L0,0 L5,5" fill-rule="evenodd" vector-effect="none"/></g><defs><clipPath id="clip9"><path d="M7,49 L-72,49 L-72,-19 L7,-19 L7,49 z"/></clipPath></defs><g clip-path="url(#clip9)" fill="none" opacity="1" stroke="#000000" stroke-linecap="round" stroke-linejoin="miter" stroke-miterlimit="2" stroke-opacity="1" stroke-width="2" transform="matrix(-2.53165,0,0,-2.53165,17.7215,124.051)"><path d="M5,-5 L0,0 L5,5" fill-rule="evenodd" vector-effect="none"/></g><defs><clipPath id="clip12"><path d="M-7,-2 L72,-2 L72,66 L-7,66 L-7,-2 z"/></clipPath></defs><g clip-path="url(#clip12)" fill="#ffffff" fill-opacity="1" opacity="1" stroke="none" stroke-opacity="0" transform="matrix(2.53165,0,0,2.53165,17.7215,5.06329)"><path d="M0,0 L65,0 L65,64 L0,64 L0,0 z" fill-rule="evenodd" vector-effect="none"/></g><defs><clipPath id="clip16"><path d="M145,48 L210,48 L210,112 L145,112 L145,48 z"/></clipPath></defs><g clip-path="url(#clip16)" fill="none" opacity="1" stroke="#adadad" stroke-linecap="square" stroke-linejoin="bevel" stroke-opacity="1" stroke-width="1" transform="matrix(2.53165,0,0,2.53165,-348.101,-115.19)"><polyline fill="none" points="164,63 164,108" vector-effect="none"/></g><defs><clipPath id="clip17"><path d="M145,48 L210,48 L210,112 L145,112 L145,48 z"/></clipPath></defs><g clip-path="url(#clip17)" fill="none" opacity="1" stroke="#adadad" stroke-linecap="square" stroke-linejoin="bevel" stroke-opacity="1" stroke-width="1" transform="matrix(2.53165,0,0,2.53165,-348.101,-115.19)"><polyline fill="none" points="164,108 206,108" vector-effect="none"/></g><defs><clipPath id="clip18"><path d="M145,48 L210,48 L210,112 L145,112 L145,48 z"/></clipPath></defs><g clip-path="url(#clip18)" fill="none" opacity="1" stroke="#000000" stroke-linecap="square" stroke-linejoin="bevel" stroke-opacity="1" stroke-width="1" transform="matrix(2.53165,0,0,2.53165,-348.101,-115.19)"><polyline fill="none" points="164,108 185,79" vector-effect="none"/></g><defs><clipPath id="clip19"><path d="M145,48 L210,48 L210,112 L145,112 L145,48 z"/></clipPath></defs><g clip-path="url(#clip19)" fill="none" opacity="1" stroke="#000000" stroke-linecap="square" stroke-linejoin="bevel" stroke-opacity="1" stroke-width="1" transform="matrix(2.53165,0,0,2.53165,-348.101,-115.19)"><polyline fill="none" points="185,79 206,94" vector-effect="none"/></g><defs><clipPath id="clip20"><path d="M145,48 L210,48 L210,112 L145,112 L145,48 z"/></clipPath></defs><g clip-path="url(#clip20)" fill="none" opacity="1" stroke="#000000" stroke-linecap="square" stroke-linejoin="bevel" stroke-opacity="1" stroke-width="1" transform="matrix(2.53165,0,0,2.53165,-348.101,-115.19)"><polyline fill="none" points="164,106 185,72" vector-effect="none"/></g><defs><clipPath id="clip21"><path d="M145,48 L210,48 L210,112 L145,112 L145,48 z"/></clipPath></defs><g clip-path="url(#clip21)" fill="none" opacity="1" stroke="#000000" stroke-linecap="square" stroke-linejoin="bevel" stroke-opacity="1" stroke-width="1" transform="matrix(2.53165,0,0,2.53165,-348.101,-115.19)"><polyline fill="none" points="185,72 206,75" vector-effect="none"/></g><defs><clipPath id="clip22"><path d="M145,48 L210,48 L210,112 L145,112 L145,48 z"/></clipPath></defs><g clip-path="url(#clip22)" fill="none" opacity="1" stroke="#000000" stroke-linecap="square" stroke-linejoin="bevel" stroke-opacity="1" stroke-width="1" transform="matrix(2.53165,0,0,2.53165,-348.101,-115.19)"><polyline fill="none" points="164,103 185,70" vector-effect="none"/></g><defs><clipPath id="clip23"><path d="M145,48 L210,48 L210,112 L145,112 L145,48 z"/></clipPath></defs><g clip-path="url(#clip23)" fill="none" opacity="1" stroke="#000000" stroke-linecap="square" stroke-linejoin="bevel" stroke-opacity="1" stroke-width="1" transform="matrix(2.53165,0,0,2.53165,-348.101,-115.19)"><polyline fill="none" points="185,70 206,63" vector-effect="none"/></g><defs><clipPath id="clip25"><path d="M-215,-5 L118,-5 L118,323 L-215,323 L-215,-5 z"/></clipPath></defs><g clip-path="url(#clip25)" fill="none" opacity="1" stroke="#000000" stroke-linecap="square" stroke-linejoin="bevel" stroke-opacity="1" stroke-width="1" transform="matrix(0.494462,0,0,0.494462,124.051,7.59494)"><text fill="#000000" fill-opacity="1" font-family="Liberation Sans" font-size="40" font-style="normal" font-weight="400" stroke="none" textLength="145" x="-94.5938" xml:space="preserve" y="46.0781">2-D T(u)</text></g><defs><clipPath id="clip28"><path d="M-15,-87 L318,-87 L318,241 L-15,241 L-15,-87 z"/></clipPath></defs><g clip-path="url(#clip28)" fill="none" opacity="1" stroke="#000000" stroke-linecap="square" stroke-linejoin="bevel" stroke-opacity="1" stroke-width="1" transform="matrix(0.494462,0,0,0.494462,25.3165,48.1013)"><text fill="#000000" fill-opacity="1" font-family="Liberation Sans" font-size="40" font-style="normal" font-weight="400" stroke="none" textLength="43" x="0" xml:space="preserve" y="17.9219">u1</text></g><defs><clipPath id="clip31"><path d="M-15,-241 L318,-241 L318,87 L-15,87 L-15,-241 z"/></clipPath></defs><g clip-path="url(#clip31)" fill="none" opacity="1" stroke="#000000" stroke-linecap="square" stroke-linejoin="bevel" stroke-opacity="1" stroke-width="1" transform="matrix(0.494462,0,0,0.494462,25.3165,124.051)"><text fill="#000000" fill-opacity="1" font-family="Liberation Sans" font-size="40" font-style="normal" font-weight="400" stroke="none" textLength="43" x="0" xml:space="preserve" y="17.9219">u2</text></g><defs><clipPath id="clip37"><path d="M-7,-2 L72,-2 L72,66 L-7,66 L-7,-2 z"/></clipPath></defs><g clip-path="url(#clip37)" fill="none" opacity="1" stroke="#000000" stroke-linecap="butt" stroke-linejoin="miter" stroke-miterlimit="2" stroke-opacity="1" stroke-width="0.689666" transform="matrix(2.53165,0,0,2.53165,17.7215,5.06329)"><path d="M0,0 L65,0 L65,64 L0,64 L0,0 z" fill-rule="evenodd" vector-effect="none"/></g></g></svg>
