<?xml version="1.0" encoding="UTF-8"?><svg width="52.9167mm" height="19.8438mm" viewBox="0 0 200 75" xmlns="http://www.w3.org/2000/svg" xmlns:xlink="http://www.w3.org/1999/xlink"><g fill="none" stroke="black" stroke-width="1" fill-rule="evenodd" stroke-linecap="square" stroke-linejoin="bevel"><g clip-path="none" fill="none" opacity="1" stroke="none" stroke-opacity="0" transform="matrix(1,0,0,1,0,0)"><path d="M0,0 L200,0 L200,75 L0,75 L0,0 z" fill-rule="evenodd" vector-effect="none"/></g><defs><clipPath id="clip3"><path d="M7,31 L-157,31 L-157,-31 L7,-31 L7,31 z"/></clipPath></defs><g clip-path="url(#clip3)" fill="none" opacity="1" stroke="#000000" stroke-linecap="round" stroke-linejoin="miter" stroke-miterlimit="2" stroke-opacity="1" stroke-width="2" transform="matrix(-1.21951,0,0,-1.21951,8.53659,37.8049)"><path d="M5,-5 L0,0 L5,5" fill-rule="evenodd" vector-effect="none"/></g><defs><clipPath id="clip6"><path d="M-157,-46 L7,-46 L7,16 L-157,16 L-157,-46 z"/></clipPath></defs><g clip-path="url(#clip6)" fill="none" opacity="1" stroke="#000000" stroke-linecap="round" stroke-linejoin="miter" stroke-miterlimit="2" stroke-opacity="1" stroke-width="2" transform="matrix(1.21951,0,0,1.21951,191.463,56.0976)"><path d="M0,-5 L5,0 L0,5" fill-rule="evenodd" vector-effect="none"/></g><defs><clipPath id="clip9"><path d="M-157,-16 L7,-16 L7,46 L-157,46 L-157,-16 z"/></clipPath></defs><g clip-path="url(#clip9)" fill="none" opacity="1" stroke="#000000" stroke-linecap="round" stroke-linejoin="miter" stroke-miterlimit="2" stroke-opacity="1" stroke-width="2" transform="matrix(1.21951,0,0,1.21951,191.463,19.5122)"><path d="M0,-5 L5,0 L0,5" fill-rule="evenodd" vector-effect="none"/></g><defs><clipPath id="clip12"><path d="M-7,-2 L157,-2 L157,60 L-7,60 L-7,-2 z"/></clipPath></defs><g clip-path="url(#clip12)" fill="#ffffff" fill-opacity="1" opacity="1" stroke="none" stroke-opacity="0" transform="matrix(1.21951,0,0,1.21951,8.53659,2.43902)"><path d="M0,0 L150,0 L150,58 L0,58 L0,0 z" fill-rule="evenodd" vector-effect="none"/></g><defs><clipPath id="clip17"><path d="M-384,-97 L384,-97 L384,200 L-384,200 L-384,-97 z"/></clipPath></defs><g clip-path="url(#clip17)" fill="none" opacity="1" stroke="#000000" stroke-linecap="butt" stroke-linejoin="miter" stroke-miterlimit="2" stroke-opacity="1" stroke-width="0.82" transform="matrix(0.238186,0,0,0.238186,100,25.6098)"><text fill="#000000" fill-opacity="1" font-family="Liberation Sans" font-size="40" font-style="normal" font-weight="400" stroke="none" textLength="127" x="-82.4688" xml:space="preserve" y="17.9219">Coarse</text></g><defs><clipPath id="clip20"><path d="M-384,-148 L384,-148 L384,149 L-384,149 L-384,-148 z"/></clipPath></defs><g clip-path="url(#clip20)" fill="none" opacity="1" stroke="#000000" stroke-linecap="butt" stroke-linejoin="miter" stroke-miterlimit="2" stroke-opacity="1" stroke-width="0.82" transform="matrix(0.238186,0,0,0.238186,100,37.8049)"><text fill="#000000" fill-opacity="1" font-family="Liberation Sans" font-size="40" font-style="normal" font-weight="400" stroke="none" textLength="184" x="-120.891" xml:space="preserve" y="17.9219">Frequency</text></g><defs><clipPath id="clip23"><path d="M-384,-200 L384,-200 L384,97 L-384,97 L-384,-200 z"/></clipPath></defs><g clip-path="url(#clip23)" fill="none" opacity="1" stroke="#000000" stroke-linecap="butt" stroke-linejoin="miter" stroke-miterlimit="2" stroke-opacity="1" stroke-width="0.82" transform="matrix(0.238186,0,0,0.238186,100,50)"><text fill="#000000" fill-opacity="1" font-family="Liberation Sans" font-size="40" font-style="normal" font-weight="400" stroke="none" textLength="237" x="-153.594" xml:space="preserve" y="17.9219">Compensator</text></g><defs><clipPath id="clip26"><path d="M-753,-72 L15,-72 L15,225 L-753,225 L-753,-72 z"/></clipPath></defs><g clip-path="url(#clip26)" fill="none" opacity="1" stroke="#000000" stroke-linecap="butt" stroke-linejoin="miter" stroke-miterlimit="2" stroke-opacity="1" stroke-width="0.82" transform="matrix(0.238186,0,0,0.238186,187.805,19.5122)"><text fill="#000000" fill-opacity="1" font-family="Liberation Sans" font-size="40" font-style="normal" font-weight="400" stroke="none" textLength="63" x="-82.5" xml:space="preserve" y="17.9219">Out</text></g><defs><clipPath id="clip29"><path d="M-753,-225 L15,-225 L15,72 L-753,72 L-753,-225 z"/></clipPath></defs><g clip-path="url(#clip29)" fill="none" opacity="1" stroke="#000000" stroke-linecap="butt" stroke-linejoin="miter" stroke-miterlimit="2" stroke-opacity="1" stroke-width="0.82" transform="matrix(0.238186,0,0,0.238186,187.805,56.0976)"><text fill="#000000" fill-opacity="1" font-family="Liberation Sans" font-size="40" font-style="normal" font-weight="400" stroke="none" textLength="138" x="-179.172" xml:space="preserve" y="17.9219">FreqEst</text></g><defs><clipPath id="clip35"><path d="M-7,-2 L157,-2 L157,60 L-7,60 L-7,-2 z"/></clipPath></defs><g clip-path="url(#clip35)" fill="none" opacity="1" stroke="#000000" stroke-linecap="butt" stroke-linejoin="miter" stroke-miterlimit="2" stroke-opacity="1" stroke-width="0.923689" transform="matrix(1.21951,0,0,1.21951,8.53659,2.43902)"><path d="M0,0 L150,0 L150,58 L0,58 L0,0 z" fill-rule="evenodd" vector-effect="none"/></g></g></svg>
