<?xml version="1.0" encoding="UTF-8"?><svg width="52.9167mm" height="21.1667mm" viewBox="0 0 200 80" xmlns="http://www.w3.org/2000/svg" xmlns:xlink="http://www.w3.org/1999/xlink"><g fill="none" stroke="black" stroke-width="1" fill-rule="evenodd" stroke-linecap="square" stroke-linejoin="bevel"><g clip-path="none" fill="none" opacity="1" stroke="none" stroke-opacity="0" transform="matrix(1,0,0,1,0,0)"><path d="M0,0 L200,0 L200,80 L0,80 L0,0 z" fill-rule="evenodd" vector-effect="none"/></g><defs><clipPath id="clip3"><path d="M-2,-2 L152,-2 L152,60 L-2,60 L-2,-2 z"/></clipPath></defs><g clip-path="url(#clip3)" fill="#e8d152" fill-opacity="1" opacity="1" stroke="none" stroke-opacity="0" transform="matrix(1.2987,0,0,1.2987,2.5974,2.5974)"><path d="M0,0 L150,0 L150,58 L0,58 L0,0 z" fill-rule="evenodd" vector-effect="none"/></g><defs><clipPath id="clip8"><path d="M-384,-148 L384,-148 L384,149 L-384,149 L-384,-148 z"/></clipPath></defs><g clip-path="url(#clip8)" fill="none" opacity="1" stroke="#000000" stroke-linecap="butt" stroke-linejoin="miter" stroke-miterlimit="2" stroke-opacity="1" stroke-width="0.77" transform="matrix(0.253653,0,0,0.253653,100,40.2597)"><text fill="#000000" fill-opacity="1" font-family="Liberation Sans" font-size="48" font-style="normal" font-weight="400" stroke="none" textLength="274" x="-174.125" xml:space="preserve" y="21.125">Components</text></g><defs><clipPath id="clip14"><path d="M-2,-2 L152,-2 L152,60 L-2,60 L-2,-2 z"/></clipPath></defs><g clip-path="url(#clip14)" fill="none" opacity="1" stroke="#000000" stroke-linecap="butt" stroke-linejoin="miter" stroke-miterlimit="2" stroke-opacity="1" stroke-width="0.900733" transform="matrix(1.2987,0,0,1.2987,2.5974,2.5974)"><path d="M0,0 L150,0 L150,58 L0,58 L0,0 z" fill-rule="evenodd" vector-effect="none"/></g></g></svg>
