<?xml version="1.0" encoding="UTF-8"?><svg width="52.9167mm" height="45.5083mm" viewBox="0 0 200 172" xmlns="http://www.w3.org/2000/svg" xmlns:xlink="http://www.w3.org/1999/xlink"><g fill="none" stroke="black" stroke-width="1" fill-rule="evenodd" stroke-linecap="square" stroke-linejoin="bevel"><g clip-path="none" fill="none" opacity="1" stroke="none" stroke-opacity="0" transform="matrix(1,0,0,1,0,0)"><path d="M0,0 L200,0 L200,172 L0,172 L0,0 z" fill-rule="evenodd" vector-effect="none"/></g><defs><clipPath id="clip3"><path d="M-72,-49 L7,-49 L7,19 L-72,19 L-72,-49 z"/></clipPath></defs><g clip-path="url(#clip3)" fill="none" opacity="1" stroke="#000000" stroke-linecap="round" stroke-linejoin="miter" stroke-miterlimit="2" stroke-opacity="1" stroke-width="2" transform="matrix(2.53165,0,0,2.53165,182.278,124.051)"><path d="M0,-5 L5,0 L0,5" fill-rule="evenodd" vector-effect="none"/></g><defs><clipPath id="clip6"><path d="M-72,-19 L7,-19 L7,49 L-72,49 L-72,-19 z"/></clipPath></defs><g clip-path="url(#clip6)" fill="none" opacity="1" stroke="#000000" stroke-linecap="round" stroke-linejoin="miter" stroke-miterlimit="2" stroke-opacity="1" stroke-width="2" transform="matrix(2.53165,0,0,2.53165,182.278,48.1013)"><path d="M0,-5 L5,0 L0,5" fill-rule="evenodd" vector-effect="none"/></g><defs><clipPath id="clip9"><path d="M7,34 L-72,34 L-72,-34 L7,-34 L7,34 z"/></clipPath></defs><g clip-path="url(#clip9)" fill="none" opacity="1" stroke="#000000" stroke-linecap="round" stroke-linejoin="miter" stroke-miterlimit="2" stroke-opacity="1" stroke-width="2" transform="matrix(-2.53165,0,0,-2.53165,17.7215,86.0759)"><path d="M5,-5 L0,0 L5,5" fill-rule="evenodd" vector-effect="none"/></g><defs><clipPath id="clip12"><path d="M-7,-2 L72,-2 L72,66 L-7,66 L-7,-2 z"/></clipPath></defs><g clip-path="url(#clip12)" fill="#ffffff" fill-opacity="1" opacity="1" stroke="none" stroke-opacity="0" transform="matrix(2.53165,0,0,2.53165,17.7215,5.06329)"><path d="M0,0 L65,0 L65,64 L0,64 L0,0 z" fill-rule="evenodd" vector-effect="none"/></g><defs><clipPath id="clip17"><path d="M-317,-87 L16,-87 L16,241 L-317,241 L-317,-87 z"/></clipPath></defs><g clip-path="url(#clip17)" fill="none" opacity="1" stroke="#000000" stroke-linecap="butt" stroke-linejoin="miter" stroke-miterlimit="2" stroke-opacity="1" stroke-width="0.395" transform="matrix(0.494462,0,0,0.494462,174.684,48.1013)"><text fill="#000000" fill-opacity="1" font-family="Liberation Sans" font-size="40" font-style="normal" font-weight="400" stroke="none" textLength="20" x="-25.5938" xml:space="preserve" y="17.9219">k</text></g><defs><clipPath id="clip20"><path d="M-317,-241 L16,-241 L16,87 L-317,87 L-317,-241 z"/></clipPath></defs><g clip-path="url(#clip20)" fill="none" opacity="1" stroke="#000000" stroke-linecap="butt" stroke-linejoin="miter" stroke-miterlimit="2" stroke-opacity="1" stroke-width="0.395" transform="matrix(0.494462,0,0,0.494462,174.684,124.051)"><text fill="#000000" fill-opacity="1" font-family="Liberation Sans" font-size="40" font-style="normal" font-weight="400" stroke="none" textLength="12" x="-14.2188" xml:space="preserve" y="17.9219">f</text></g><defs><clipPath id="clip22"><path d="M40,158 L105,158 L105,222 L40,222 L40,158 z"/></clipPath></defs><g clip-path="url(#clip22)" fill="#000000" fill-opacity="1" opacity="1" stroke="#000000" stroke-linecap="butt" stroke-linejoin="miter" stroke-miterlimit="2" stroke-opacity="1" stroke-width="0.395" transform="matrix(2.53165,0,0,2.53165,-83.5443,-394.937)"><path d="M48,192 L51,189 L54,192 L51,195 L48,192 z" fill-rule="evenodd" vector-effect="none"/></g><defs><clipPath id="clip23"><path d="M40,158 L105,158 L105,222 L40,222 L40,158 z"/></clipPath></defs><g clip-path="url(#clip23)" fill="#000000" fill-opacity="1" opacity="1" stroke="#000000" stroke-linecap="butt" stroke-linejoin="miter" stroke-miterlimit="2" stroke-opacity="1" stroke-width="0.395" transform="matrix(2.53165,0,0,2.53165,-83.5443,-394.937)"><path d="M61,192 L64,189 L67,192 L64,195 L61,192 z" fill-rule="evenodd" vector-effect="none"/></g><defs><clipPath id="clip24"><path d="M40,158 L105,158 L105,222 L40,222 L40,158 z"/></clipPath></defs><g clip-path="url(#clip24)" fill="#000000" fill-opacity="1" opacity="1" stroke="#000000" stroke-linecap="butt" stroke-linejoin="miter" stroke-miterlimit="2" stroke-opacity="1" stroke-width="0.395" transform="matrix(2.53165,0,0,2.53165,-83.5443,-394.937)"><path d="M79,192 L82,189 L85,192 L82,195 L79,192 z" fill-rule="evenodd" vector-effect="none"/></g><defs><clipPath id="clip25"><path d="M40,158 L105,158 L105,222 L40,222 L40,158 z"/></clipPath></defs><g clip-path="url(#clip25)" fill="#000000" fill-opacity="1" opacity="1" stroke="#000000" stroke-linecap="butt" stroke-linejoin="miter" stroke-miterlimit="2" stroke-opacity="1" stroke-width="0.395" transform="matrix(2.53165,0,0,2.53165,-83.5443,-394.937)"><path d="M87,192 L90,189 L93,192 L90,195 L87,192 z" fill-rule="evenodd" vector-effect="none"/></g><defs><clipPath id="clip26"><path d="M40,158 L105,158 L105,222 L40,222 L40,158 z"/></clipPath></defs><g clip-path="url(#clip26)" fill="#000000" fill-opacity="1" opacity="1" stroke="#000000" stroke-linecap="butt" stroke-linejoin="miter" stroke-miterlimit="2" stroke-opacity="1" stroke-width="0.395" transform="matrix(2.53165,0,0,2.53165,-82.2785,-393.671)"><polyline fill="none" points="45,192 96,192" vector-effect="none"/></g><defs><clipPath id="clip27"><path d="M40,158 L105,158 L105,222 L40,222 L40,158 z"/></clipPath></defs><g clip-path="url(#clip27)" fill="#000000" fill-opacity="1" opacity="1" stroke="#000000" stroke-linecap="butt" stroke-linejoin="miter" stroke-miterlimit="2" stroke-opacity="1" stroke-width="0.395" transform="matrix(2.53165,0,0,2.53165,-82.2785,-393.671)"><polyline fill="none" points="55,172 74,172" vector-effect="none"/></g><defs><clipPath id="clip28"><path d="M40,158 L105,158 L105,222 L40,222 L40,158 z"/></clipPath></defs><g clip-path="url(#clip28)" fill="#000000" fill-opacity="1" opacity="1" stroke="#000000" stroke-linecap="butt" stroke-linejoin="miter" stroke-miterlimit="2" stroke-opacity="1" stroke-width="0.395" transform="matrix(2.53165,0,0,2.53165,-82.2785,-393.671)"><polyline fill="none" points="74,172 74,192" vector-effect="none"/></g><defs><clipPath id="clip29"><path d="M40,158 L105,158 L105,222 L40,222 L40,158 z"/></clipPath></defs><g clip-path="url(#clip29)" fill="#000000" fill-opacity="1" opacity="1" stroke="#000000" stroke-linecap="butt" stroke-linejoin="miter" stroke-miterlimit="2" stroke-opacity="1" stroke-width="0.395" transform="matrix(2.53165,0,0,2.53165,-82.2785,-393.671)"><polyline fill="none" points="74,192 76,188" vector-effect="none"/></g><defs><clipPath id="clip30"><path d="M40,158 L105,158 L105,222 L40,222 L40,158 z"/></clipPath></defs><g clip-path="url(#clip30)" fill="#000000" fill-opacity="1" opacity="1" stroke="#000000" stroke-linecap="butt" stroke-linejoin="miter" stroke-miterlimit="2" stroke-opacity="1" stroke-width="0.395" transform="matrix(2.53165,0,0,2.53165,-82.2785,-393.671)"><polyline fill="none" points="72,188 74,192" vector-effect="none"/></g><defs><clipPath id="clip31"><path d="M40,158 L105,158 L105,222 L40,222 L40,158 z"/></clipPath></defs><g clip-path="url(#clip31)" fill="#000000" fill-opacity="1" opacity="1" stroke="#000000" stroke-linecap="butt" stroke-linejoin="miter" stroke-miterlimit="2" stroke-opacity="1" stroke-width="0.395" transform="matrix(2.53165,0,0,2.53165,-82.2785,-393.671)"><polyline fill="none" points="74,192 74,214" vector-effect="none"/></g><defs><clipPath id="clip32"><path d="M40,158 L105,158 L105,222 L40,222 L40,158 z"/></clipPath></defs><g clip-path="url(#clip32)" fill="#000000" fill-opacity="1" opacity="1" stroke="#000000" stroke-linecap="butt" stroke-linejoin="miter" stroke-miterlimit="2" stroke-opacity="1" stroke-width="0.395" transform="matrix(2.53165,0,0,2.53165,-82.2785,-393.671)"><polyline fill="none" points="64,195 64,214" vector-effect="none"/></g><defs><clipPath id="clip33"><path d="M40,158 L105,158 L105,222 L40,222 L40,158 z"/></clipPath></defs><g clip-path="url(#clip33)" fill="#000000" fill-opacity="1" opacity="1" stroke="#000000" stroke-linecap="butt" stroke-linejoin="miter" stroke-miterlimit="2" stroke-opacity="1" stroke-width="0.395" transform="matrix(2.53165,0,0,2.53165,-82.2785,-393.671)"><polyline fill="none" points="51,206 63,206" vector-effect="none"/></g><defs><clipPath id="clip34"><path d="M40,158 L105,158 L105,222 L40,222 L40,158 z"/></clipPath></defs><g clip-path="url(#clip34)" fill="#000000" fill-opacity="1" opacity="1" stroke="#000000" stroke-linecap="butt" stroke-linejoin="miter" stroke-miterlimit="2" stroke-opacity="1" stroke-width="0.395" transform="matrix(2.53165,0,0,2.53165,-82.2785,-393.671)"><polyline fill="none" points="61,210 64,206" vector-effect="none"/></g><defs><clipPath id="clip35"><path d="M40,158 L105,158 L105,222 L40,222 L40,158 z"/></clipPath></defs><g clip-path="url(#clip35)" fill="#000000" fill-opacity="1" opacity="1" stroke="#000000" stroke-linecap="butt" stroke-linejoin="miter" stroke-miterlimit="2" stroke-opacity="1" stroke-width="0.395" transform="matrix(2.53165,0,0,2.53165,-82.2785,-393.671)"><polyline fill="none" points="64,206 61,202" vector-effect="none"/></g><defs><clipPath id="clip36"><path d="M40,158 L105,158 L105,222 L40,222 L40,158 z"/></clipPath></defs><g clip-path="url(#clip36)" fill="#000000" fill-opacity="1" opacity="1" stroke="#000000" stroke-linecap="butt" stroke-linejoin="miter" stroke-miterlimit="2" stroke-opacity="1" stroke-width="0.395" transform="matrix(2.53165,0,0,2.53165,-82.2785,-393.671)"><polyline fill="none" points="74,206 86,206" vector-effect="none"/></g><defs><clipPath id="clip37"><path d="M40,158 L105,158 L105,222 L40,222 L40,158 z"/></clipPath></defs><g clip-path="url(#clip37)" fill="#000000" fill-opacity="1" opacity="1" stroke="#000000" stroke-linecap="butt" stroke-linejoin="miter" stroke-miterlimit="2" stroke-opacity="1" stroke-width="0.395" transform="matrix(2.53165,0,0,2.53165,-82.2785,-393.671)"><polyline fill="none" points="79,210 74,206" vector-effect="none"/></g><defs><clipPath id="clip38"><path d="M40,158 L105,158 L105,222 L40,222 L40,158 z"/></clipPath></defs><g clip-path="url(#clip38)" fill="#000000" fill-opacity="1" opacity="1" stroke="#000000" stroke-linecap="butt" stroke-linejoin="miter" stroke-miterlimit="2" stroke-opacity="1" stroke-width="0.395" transform="matrix(2.53165,0,0,2.53165,-82.2785,-393.671)"><polyline fill="none" points="74,206 79,202" vector-effect="none"/></g><defs><clipPath id="clip40"><path d="M-41,-266 L292,-266 L292,62 L-41,62 L-41,-266 z"/></clipPath></defs><g clip-path="url(#clip40)" fill="#000000" fill-opacity="1" opacity="1" stroke="#000000" stroke-linecap="butt" stroke-linejoin="miter" stroke-miterlimit="2" stroke-opacity="1" stroke-width="0.395" transform="matrix(0.494462,0,0,0.494462,37.9747,136.709)"><text fill="#000000" fill-opacity="1" font-family="Liberation Sans" font-size="40" font-style="normal" font-weight="400" stroke="none" textLength="12" x="0" xml:space="preserve" y="1.28125">f</text></g><defs><clipPath id="clip43"><path d="M-31,-82 L302,-82 L302,246 L-31,246 L-31,-82 z"/></clipPath></defs><g clip-path="url(#clip43)" fill="#000000" fill-opacity="1" opacity="1" stroke="#000000" stroke-linecap="butt" stroke-linejoin="miter" stroke-miterlimit="2" stroke-opacity="1" stroke-width="0.395" transform="matrix(0.494462,0,0,0.494462,32.9114,45.5696)"><text fill="#000000" fill-opacity="1" font-family="Liberation Sans" font-size="40" font-style="normal" font-weight="400" stroke="none" textLength="21" x="0" xml:space="preserve" y="1.28125">u</text></g><defs><clipPath id="clip46"><path d="M-108,-143 L225,-143 L225,185 L-108,185 L-108,-143 z"/></clipPath></defs><g clip-path="url(#clip46)" fill="#000000" fill-opacity="1" opacity="1" stroke="#000000" stroke-linecap="butt" stroke-linejoin="miter" stroke-miterlimit="2" stroke-opacity="1" stroke-width="0.395" transform="matrix(0.494462,0,0,0.494462,70.8861,75.9494)"><text fill="#000000" fill-opacity="1" font-family="Liberation Sans" font-size="40" font-style="normal" font-weight="400" stroke="none" textLength="20" x="0" xml:space="preserve" y="1.28125">k</text></g><defs><clipPath id="clip52"><path d="M-7,-2 L72,-2 L72,66 L-7,66 L-7,-2 z"/></clipPath></defs><g clip-path="url(#clip52)" fill="none" opacity="1" stroke="#000000" stroke-linecap="butt" stroke-linejoin="miter" stroke-miterlimit="2" stroke-opacity="1" stroke-width="0.689666" transform="matrix(2.53165,0,0,2.53165,17.7215,5.06329)"><path d="M0,0 L65,0 L65,64 L0,64 L0,0 z" fill-rule="evenodd" vector-effect="none"/></g></g></svg>
