<?xml version="1.0" encoding="UTF-8"?><svg width="52.9167mm" height="48.6833mm" viewBox="0 0 200 184" xmlns="http://www.w3.org/2000/svg" xmlns:xlink="http://www.w3.org/1999/xlink"><g fill="none" stroke="black" stroke-width="1" fill-rule="evenodd" stroke-linecap="square" stroke-linejoin="bevel"><g clip-path="none" fill="none" opacity="1" stroke="none" stroke-opacity="0" transform="matrix(1,0,0,1,0,0)"><path d="M0,0 L200,0 L200,184 L0,184 L0,0 z" fill-rule="evenodd" vector-effect="none"/></g><defs><clipPath id="clip3"><path d="M-72,-39 L7,-39 L7,34 L-72,34 L-72,-39 z"/></clipPath></defs><g clip-path="url(#clip3)" fill="none" opacity="1" stroke="#000000" stroke-linecap="round" stroke-linejoin="miter" stroke-miterlimit="2" stroke-opacity="1" stroke-width="2" transform="matrix(2.53165,0,0,2.53165,182.278,98.7342)"><path d="M0,-5 L5,0 L0,5" fill-rule="evenodd" vector-effect="none"/></g><defs><clipPath id="clip6"><path d="M7,44 L-72,44 L-72,-29 L7,-29 L7,44 z"/></clipPath></defs><g clip-path="url(#clip6)" fill="none" opacity="1" stroke="#000000" stroke-linecap="round" stroke-linejoin="miter" stroke-miterlimit="2" stroke-opacity="1" stroke-width="2" transform="matrix(-2.53165,0,0,-2.53165,17.7215,111.392)"><path d="M5,-5 L0,0 L5,5" fill-rule="evenodd" vector-effect="none"/></g><defs><clipPath id="clip9"><path d="M7,29 L-72,29 L-72,-44 L7,-44 L7,29 z"/></clipPath></defs><g clip-path="url(#clip9)" fill="none" opacity="1" stroke="#000000" stroke-linecap="round" stroke-linejoin="miter" stroke-miterlimit="2" stroke-opacity="1" stroke-width="2" transform="matrix(-2.53165,0,0,-2.53165,17.7215,73.4177)"><path d="M5,-5 L0,0 L5,5" fill-rule="evenodd" vector-effect="none"/></g><defs><clipPath id="clip12"><path d="M7,59 L-72,59 L-72,-14 L7,-14 L7,59 z"/></clipPath></defs><g clip-path="url(#clip12)" fill="none" opacity="1" stroke="#000000" stroke-linecap="round" stroke-linejoin="miter" stroke-miterlimit="2" stroke-opacity="1" stroke-width="2" transform="matrix(-2.53165,0,0,-2.53165,17.7215,149.367)"><path d="M5,-5 L0,0 L5,5" fill-rule="evenodd" vector-effect="none"/></g><defs><clipPath id="clip15"><path d="M7,14 L-72,14 L-72,-59 L7,-59 L7,14 z"/></clipPath></defs><g clip-path="url(#clip15)" fill="none" opacity="1" stroke="#000000" stroke-linecap="round" stroke-linejoin="miter" stroke-miterlimit="2" stroke-opacity="1" stroke-width="2" transform="matrix(-2.53165,0,0,-2.53165,17.7215,35.443)"><path d="M5,-5 L0,0 L5,5" fill-rule="evenodd" vector-effect="none"/></g><defs><clipPath id="clip18"><path d="M-7,-2 L72,-2 L72,71 L-7,71 L-7,-2 z"/></clipPath></defs><g clip-path="url(#clip18)" fill="#ffffff" fill-opacity="1" opacity="1" stroke="none" stroke-opacity="0" transform="matrix(2.53165,0,0,2.53165,17.7215,5.06329)"><path d="M0,0 L65,0 L65,69 L0,69 L0,0 z" fill-rule="evenodd" vector-effect="none"/></g><defs><clipPath id="clip22"><path d="M145,158 L210,158 L210,227 L145,227 L145,158 z"/></clipPath></defs><g clip-path="url(#clip22)" fill="none" opacity="1" stroke="#adadad" stroke-linecap="square" stroke-linejoin="bevel" stroke-opacity="1" stroke-width="1" transform="matrix(2.53165,0,0,2.53165,-348.101,-393.671)"><polyline fill="none" points="164,173 164,223" vector-effect="none"/></g><defs><clipPath id="clip23"><path d="M145,158 L210,158 L210,227 L145,227 L145,158 z"/></clipPath></defs><g clip-path="url(#clip23)" fill="none" opacity="1" stroke="#adadad" stroke-linecap="square" stroke-linejoin="bevel" stroke-opacity="1" stroke-width="1" transform="matrix(2.53165,0,0,2.53165,-348.101,-393.671)"><polyline fill="none" points="164,223 206,223" vector-effect="none"/></g><defs><clipPath id="clip24"><path d="M145,158 L210,158 L210,227 L145,227 L145,158 z"/></clipPath></defs><g clip-path="url(#clip24)" fill="none" opacity="1" stroke="#000000" stroke-linecap="square" stroke-linejoin="bevel" stroke-opacity="1" stroke-width="1" transform="matrix(2.53165,0,0,2.53165,-348.101,-393.671)"><polyline fill="none" points="164,223 168,221" vector-effect="none"/></g><defs><clipPath id="clip25"><path d="M145,158 L210,158 L210,227 L145,227 L145,158 z"/></clipPath></defs><g clip-path="url(#clip25)" fill="none" opacity="1" stroke="#000000" stroke-linecap="square" stroke-linejoin="bevel" stroke-opacity="1" stroke-width="1" transform="matrix(2.53165,0,0,2.53165,-348.101,-393.671)"><polyline fill="none" points="168,221 172,219" vector-effect="none"/></g><defs><clipPath id="clip26"><path d="M145,158 L210,158 L210,227 L145,227 L145,158 z"/></clipPath></defs><g clip-path="url(#clip26)" fill="none" opacity="1" stroke="#000000" stroke-linecap="square" stroke-linejoin="bevel" stroke-opacity="1" stroke-width="1" transform="matrix(2.53165,0,0,2.53165,-348.101,-393.671)"><polyline fill="none" points="172,219 176,218" vector-effect="none"/></g><defs><clipPath id="clip27"><path d="M145,158 L210,158 L210,227 L145,227 L145,158 z"/></clipPath></defs><g clip-path="url(#clip27)" fill="none" opacity="1" stroke="#000000" stroke-linecap="square" stroke-linejoin="bevel" stroke-opacity="1" stroke-width="1" transform="matrix(2.53165,0,0,2.53165,-348.101,-393.671)"><polyline fill="none" points="176,218 181,217" vector-effect="none"/></g><defs><clipPath id="clip28"><path d="M145,158 L210,158 L210,227 L145,227 L145,158 z"/></clipPath></defs><g clip-path="url(#clip28)" fill="none" opacity="1" stroke="#000000" stroke-linecap="square" stroke-linejoin="bevel" stroke-opacity="1" stroke-width="1" transform="matrix(2.53165,0,0,2.53165,-348.101,-393.671)"><polyline fill="none" points="181,217 185,216" vector-effect="none"/></g><defs><clipPath id="clip29"><path d="M145,158 L210,158 L210,227 L145,227 L145,158 z"/></clipPath></defs><g clip-path="url(#clip29)" fill="none" opacity="1" stroke="#000000" stroke-linecap="square" stroke-linejoin="bevel" stroke-opacity="1" stroke-width="1" transform="matrix(2.53165,0,0,2.53165,-348.101,-393.671)"><polyline fill="none" points="185,216 189,215" vector-effect="none"/></g><defs><clipPath id="clip30"><path d="M145,158 L210,158 L210,227 L145,227 L145,158 z"/></clipPath></defs><g clip-path="url(#clip30)" fill="none" opacity="1" stroke="#000000" stroke-linecap="square" stroke-linejoin="bevel" stroke-opacity="1" stroke-width="1" transform="matrix(2.53165,0,0,2.53165,-348.101,-393.671)"><polyline fill="none" points="189,215 193,214" vector-effect="none"/></g><defs><clipPath id="clip31"><path d="M145,158 L210,158 L210,227 L145,227 L145,158 z"/></clipPath></defs><g clip-path="url(#clip31)" fill="none" opacity="1" stroke="#000000" stroke-linecap="square" stroke-linejoin="bevel" stroke-opacity="1" stroke-width="1" transform="matrix(2.53165,0,0,2.53165,-348.101,-393.671)"><polyline fill="none" points="193,214 197,213" vector-effect="none"/></g><defs><clipPath id="clip32"><path d="M145,158 L210,158 L210,227 L145,227 L145,158 z"/></clipPath></defs><g clip-path="url(#clip32)" fill="none" opacity="1" stroke="#000000" stroke-linecap="square" stroke-linejoin="bevel" stroke-opacity="1" stroke-width="1" transform="matrix(2.53165,0,0,2.53165,-348.101,-393.671)"><polyline fill="none" points="197,213 202,212" vector-effect="none"/></g><defs><clipPath id="clip33"><path d="M145,158 L210,158 L210,227 L145,227 L145,158 z"/></clipPath></defs><g clip-path="url(#clip33)" fill="none" opacity="1" stroke="#000000" stroke-linecap="square" stroke-linejoin="bevel" stroke-opacity="1" stroke-width="1" transform="matrix(2.53165,0,0,2.53165,-348.101,-393.671)"><polyline fill="none" points="202,212 206,211" vector-effect="none"/></g><defs><clipPath id="clip34"><path d="M145,158 L210,158 L210,227 L145,227 L145,158 z"/></clipPath></defs><g clip-path="url(#clip34)" fill="none" opacity="1" stroke="#000000" stroke-linecap="square" stroke-linejoin="bevel" stroke-opacity="1" stroke-width="1" transform="matrix(2.53165,0,0,2.53165,-348.101,-393.671)"><polyline fill="none" points="164,221 168,218" vector-effect="none"/></g><defs><clipPath id="clip35"><path d="M145,158 L210,158 L210,227 L145,227 L145,158 z"/></clipPath></defs><g clip-path="url(#clip35)" fill="none" opacity="1" stroke="#000000" stroke-linecap="square" stroke-linejoin="bevel" stroke-opacity="1" stroke-width="1" transform="matrix(2.53165,0,0,2.53165,-348.101,-393.671)"><polyline fill="none" points="168,218 172,216" vector-effect="none"/></g><defs><clipPath id="clip36"><path d="M145,158 L210,158 L210,227 L145,227 L145,158 z"/></clipPath></defs><g clip-path="url(#clip36)" fill="none" opacity="1" stroke="#000000" stroke-linecap="square" stroke-linejoin="bevel" stroke-opacity="1" stroke-width="1" transform="matrix(2.53165,0,0,2.53165,-348.101,-393.671)"><polyline fill="none" points="172,216 176,214" vector-effect="none"/></g><defs><clipPath id="clip37"><path d="M145,158 L210,158 L210,227 L145,227 L145,158 z"/></clipPath></defs><g clip-path="url(#clip37)" fill="none" opacity="1" stroke="#000000" stroke-linecap="square" stroke-linejoin="bevel" stroke-opacity="1" stroke-width="1" transform="matrix(2.53165,0,0,2.53165,-348.101,-393.671)"><polyline fill="none" points="176,214 181,212" vector-effect="none"/></g><defs><clipPath id="clip38"><path d="M145,158 L210,158 L210,227 L145,227 L145,158 z"/></clipPath></defs><g clip-path="url(#clip38)" fill="none" opacity="1" stroke="#000000" stroke-linecap="square" stroke-linejoin="bevel" stroke-opacity="1" stroke-width="1" transform="matrix(2.53165,0,0,2.53165,-348.101,-393.671)"><polyline fill="none" points="181,212 185,211" vector-effect="none"/></g><defs><clipPath id="clip39"><path d="M145,158 L210,158 L210,227 L145,227 L145,158 z"/></clipPath></defs><g clip-path="url(#clip39)" fill="none" opacity="1" stroke="#000000" stroke-linecap="square" stroke-linejoin="bevel" stroke-opacity="1" stroke-width="1" transform="matrix(2.53165,0,0,2.53165,-348.101,-393.671)"><polyline fill="none" points="185,211 189,209" vector-effect="none"/></g><defs><clipPath id="clip40"><path d="M145,158 L210,158 L210,227 L145,227 L145,158 z"/></clipPath></defs><g clip-path="url(#clip40)" fill="none" opacity="1" stroke="#000000" stroke-linecap="square" stroke-linejoin="bevel" stroke-opacity="1" stroke-width="1" transform="matrix(2.53165,0,0,2.53165,-348.101,-393.671)"><polyline fill="none" points="189,209 193,208" vector-effect="none"/></g><defs><clipPath id="clip41"><path d="M145,158 L210,158 L210,227 L145,227 L145,158 z"/></clipPath></defs><g clip-path="url(#clip41)" fill="none" opacity="1" stroke="#000000" stroke-linecap="square" stroke-linejoin="bevel" stroke-opacity="1" stroke-width="1" transform="matrix(2.53165,0,0,2.53165,-348.101,-393.671)"><polyline fill="none" points="193,208 197,207" vector-effect="none"/></g><defs><clipPath id="clip42"><path d="M145,158 L210,158 L210,227 L145,227 L145,158 z"/></clipPath></defs><g clip-path="url(#clip42)" fill="none" opacity="1" stroke="#000000" stroke-linecap="square" stroke-linejoin="bevel" stroke-opacity="1" stroke-width="1" transform="matrix(2.53165,0,0,2.53165,-348.101,-393.671)"><polyline fill="none" points="197,207 202,206" vector-effect="none"/></g><defs><clipPath id="clip43"><path d="M145,158 L210,158 L210,227 L145,227 L145,158 z"/></clipPath></defs><g clip-path="url(#clip43)" fill="none" opacity="1" stroke="#000000" stroke-linecap="square" stroke-linejoin="bevel" stroke-opacity="1" stroke-width="1" transform="matrix(2.53165,0,0,2.53165,-348.101,-393.671)"><polyline fill="none" points="202,206 206,204" vector-effect="none"/></g><defs><clipPath id="clip44"><path d="M145,158 L210,158 L210,227 L145,227 L145,158 z"/></clipPath></defs><g clip-path="url(#clip44)" fill="none" opacity="1" stroke="#000000" stroke-linecap="square" stroke-linejoin="bevel" stroke-opacity="1" stroke-width="1" transform="matrix(2.53165,0,0,2.53165,-348.101,-393.671)"><polyline fill="none" points="164,219 168,216" vector-effect="none"/></g><defs><clipPath id="clip45"><path d="M145,158 L210,158 L210,227 L145,227 L145,158 z"/></clipPath></defs><g clip-path="url(#clip45)" fill="none" opacity="1" stroke="#000000" stroke-linecap="square" stroke-linejoin="bevel" stroke-opacity="1" stroke-width="1" transform="matrix(2.53165,0,0,2.53165,-348.101,-393.671)"><polyline fill="none" points="168,216 172,213" vector-effect="none"/></g><defs><clipPath id="clip46"><path d="M145,158 L210,158 L210,227 L145,227 L145,158 z"/></clipPath></defs><g clip-path="url(#clip46)" fill="none" opacity="1" stroke="#000000" stroke-linecap="square" stroke-linejoin="bevel" stroke-opacity="1" stroke-width="1" transform="matrix(2.53165,0,0,2.53165,-348.101,-393.671)"><polyline fill="none" points="172,213 176,211" vector-effect="none"/></g><defs><clipPath id="clip47"><path d="M145,158 L210,158 L210,227 L145,227 L145,158 z"/></clipPath></defs><g clip-path="url(#clip47)" fill="none" opacity="1" stroke="#000000" stroke-linecap="square" stroke-linejoin="bevel" stroke-opacity="1" stroke-width="1" transform="matrix(2.53165,0,0,2.53165,-348.101,-393.671)"><polyline fill="none" points="176,211 181,209" vector-effect="none"/></g><defs><clipPath id="clip48"><path d="M145,158 L210,158 L210,227 L145,227 L145,158 z"/></clipPath></defs><g clip-path="url(#clip48)" fill="none" opacity="1" stroke="#000000" stroke-linecap="square" stroke-linejoin="bevel" stroke-opacity="1" stroke-width="1" transform="matrix(2.53165,0,0,2.53165,-348.101,-393.671)"><polyline fill="none" points="181,209 185,207" vector-effect="none"/></g><defs><clipPath id="clip49"><path d="M145,158 L210,158 L210,227 L145,227 L145,158 z"/></clipPath></defs><g clip-path="url(#clip49)" fill="none" opacity="1" stroke="#000000" stroke-linecap="square" stroke-linejoin="bevel" stroke-opacity="1" stroke-width="1" transform="matrix(2.53165,0,0,2.53165,-348.101,-393.671)"><polyline fill="none" points="185,207 189,205" vector-effect="none"/></g><defs><clipPath id="clip50"><path d="M145,158 L210,158 L210,227 L145,227 L145,158 z"/></clipPath></defs><g clip-path="url(#clip50)" fill="none" opacity="1" stroke="#000000" stroke-linecap="square" stroke-linejoin="bevel" stroke-opacity="1" stroke-width="1" transform="matrix(2.53165,0,0,2.53165,-348.101,-393.671)"><polyline fill="none" points="189,205 193,203" vector-effect="none"/></g><defs><clipPath id="clip51"><path d="M145,158 L210,158 L210,227 L145,227 L145,158 z"/></clipPath></defs><g clip-path="url(#clip51)" fill="none" opacity="1" stroke="#000000" stroke-linecap="square" stroke-linejoin="bevel" stroke-opacity="1" stroke-width="1" transform="matrix(2.53165,0,0,2.53165,-348.101,-393.671)"><polyline fill="none" points="193,203 197,202" vector-effect="none"/></g><defs><clipPath id="clip52"><path d="M145,158 L210,158 L210,227 L145,227 L145,158 z"/></clipPath></defs><g clip-path="url(#clip52)" fill="none" opacity="1" stroke="#000000" stroke-linecap="square" stroke-linejoin="bevel" stroke-opacity="1" stroke-width="1" transform="matrix(2.53165,0,0,2.53165,-348.101,-393.671)"><polyline fill="none" points="197,202 202,201" vector-effect="none"/></g><defs><clipPath id="clip53"><path d="M145,158 L210,158 L210,227 L145,227 L145,158 z"/></clipPath></defs><g clip-path="url(#clip53)" fill="none" opacity="1" stroke="#000000" stroke-linecap="square" stroke-linejoin="bevel" stroke-opacity="1" stroke-width="1" transform="matrix(2.53165,0,0,2.53165,-348.101,-393.671)"><polyline fill="none" points="202,201 206,199" vector-effect="none"/></g><defs><clipPath id="clip54"><path d="M145,158 L210,158 L210,227 L145,227 L145,158 z"/></clipPath></defs><g clip-path="url(#clip54)" fill="none" opacity="1" stroke="#000000" stroke-linecap="square" stroke-linejoin="bevel" stroke-opacity="1" stroke-width="1" transform="matrix(2.53165,0,0,2.53165,-348.101,-393.671)"><polyline fill="none" points="164,218 168,214" vector-effect="none"/></g><defs><clipPath id="clip55"><path d="M145,158 L210,158 L210,227 L145,227 L145,158 z"/></clipPath></defs><g clip-path="url(#clip55)" fill="none" opacity="1" stroke="#000000" stroke-linecap="square" stroke-linejoin="bevel" stroke-opacity="1" stroke-width="1" transform="matrix(2.53165,0,0,2.53165,-348.101,-393.671)"><polyline fill="none" points="168,214 172,211" vector-effect="none"/></g><defs><clipPath id="clip56"><path d="M145,158 L210,158 L210,227 L145,227 L145,158 z"/></clipPath></defs><g clip-path="url(#clip56)" fill="none" opacity="1" stroke="#000000" stroke-linecap="square" stroke-linejoin="bevel" stroke-opacity="1" stroke-width="1" transform="matrix(2.53165,0,0,2.53165,-348.101,-393.671)"><polyline fill="none" points="172,211 176,208" vector-effect="none"/></g><defs><clipPath id="clip57"><path d="M145,158 L210,158 L210,227 L145,227 L145,158 z"/></clipPath></defs><g clip-path="url(#clip57)" fill="none" opacity="1" stroke="#000000" stroke-linecap="square" stroke-linejoin="bevel" stroke-opacity="1" stroke-width="1" transform="matrix(2.53165,0,0,2.53165,-348.101,-393.671)"><polyline fill="none" points="176,208 181,206" vector-effect="none"/></g><defs><clipPath id="clip58"><path d="M145,158 L210,158 L210,227 L145,227 L145,158 z"/></clipPath></defs><g clip-path="url(#clip58)" fill="none" opacity="1" stroke="#000000" stroke-linecap="square" stroke-linejoin="bevel" stroke-opacity="1" stroke-width="1" transform="matrix(2.53165,0,0,2.53165,-348.101,-393.671)"><polyline fill="none" points="181,206 185,203" vector-effect="none"/></g><defs><clipPath id="clip59"><path d="M145,158 L210,158 L210,227 L145,227 L145,158 z"/></clipPath></defs><g clip-path="url(#clip59)" fill="none" opacity="1" stroke="#000000" stroke-linecap="square" stroke-linejoin="bevel" stroke-opacity="1" stroke-width="1" transform="matrix(2.53165,0,0,2.53165,-348.101,-393.671)"><polyline fill="none" points="185,203 189,201" vector-effect="none"/></g><defs><clipPath id="clip60"><path d="M145,158 L210,158 L210,227 L145,227 L145,158 z"/></clipPath></defs><g clip-path="url(#clip60)" fill="none" opacity="1" stroke="#000000" stroke-linecap="square" stroke-linejoin="bevel" stroke-opacity="1" stroke-width="1" transform="matrix(2.53165,0,0,2.53165,-348.101,-393.671)"><polyline fill="none" points="189,201 193,200" vector-effect="none"/></g><defs><clipPath id="clip61"><path d="M145,158 L210,158 L210,227 L145,227 L145,158 z"/></clipPath></defs><g clip-path="url(#clip61)" fill="none" opacity="1" stroke="#000000" stroke-linecap="square" stroke-linejoin="bevel" stroke-opacity="1" stroke-width="1" transform="matrix(2.53165,0,0,2.53165,-348.101,-393.671)"><polyline fill="none" points="193,200 197,198" vector-effect="none"/></g><defs><clipPath id="clip62"><path d="M145,158 L210,158 L210,227 L145,227 L145,158 z"/></clipPath></defs><g clip-path="url(#clip62)" fill="none" opacity="1" stroke="#000000" stroke-linecap="square" stroke-linejoin="bevel" stroke-opacity="1" stroke-width="1" transform="matrix(2.53165,0,0,2.53165,-348.101,-393.671)"><polyline fill="none" points="197,198 202,196" vector-effect="none"/></g><defs><clipPath id="clip63"><path d="M145,158 L210,158 L210,227 L145,227 L145,158 z"/></clipPath></defs><g clip-path="url(#clip63)" fill="none" opacity="1" stroke="#000000" stroke-linecap="square" stroke-linejoin="bevel" stroke-opacity="1" stroke-width="1" transform="matrix(2.53165,0,0,2.53165,-348.101,-393.671)"><polyline fill="none" points="202,196 206,195" vector-effect="none"/></g><defs><clipPath id="clip64"><path d="M145,158 L210,158 L210,227 L145,227 L145,158 z"/></clipPath></defs><g clip-path="url(#clip64)" fill="none" opacity="1" stroke="#000000" stroke-linecap="square" stroke-linejoin="bevel" stroke-opacity="1" stroke-width="1" transform="matrix(2.53165,0,0,2.53165,-348.101,-393.671)"><polyline fill="none" points="164,217 168,212" vector-effect="none"/></g><defs><clipPath id="clip65"><path d="M145,158 L210,158 L210,227 L145,227 L145,158 z"/></clipPath></defs><g clip-path="url(#clip65)" fill="none" opacity="1" stroke="#000000" stroke-linecap="square" stroke-linejoin="bevel" stroke-opacity="1" stroke-width="1" transform="matrix(2.53165,0,0,2.53165,-348.101,-393.671)"><polyline fill="none" points="168,212 172,209" vector-effect="none"/></g><defs><clipPath id="clip66"><path d="M145,158 L210,158 L210,227 L145,227 L145,158 z"/></clipPath></defs><g clip-path="url(#clip66)" fill="none" opacity="1" stroke="#000000" stroke-linecap="square" stroke-linejoin="bevel" stroke-opacity="1" stroke-width="1" transform="matrix(2.53165,0,0,2.53165,-348.101,-393.671)"><polyline fill="none" points="172,209 176,206" vector-effect="none"/></g><defs><clipPath id="clip67"><path d="M145,158 L210,158 L210,227 L145,227 L145,158 z"/></clipPath></defs><g clip-path="url(#clip67)" fill="none" opacity="1" stroke="#000000" stroke-linecap="square" stroke-linejoin="bevel" stroke-opacity="1" stroke-width="1" transform="matrix(2.53165,0,0,2.53165,-348.101,-393.671)"><polyline fill="none" points="176,206 181,203" vector-effect="none"/></g><defs><clipPath id="clip68"><path d="M145,158 L210,158 L210,227 L145,227 L145,158 z"/></clipPath></defs><g clip-path="url(#clip68)" fill="none" opacity="1" stroke="#000000" stroke-linecap="square" stroke-linejoin="bevel" stroke-opacity="1" stroke-width="1" transform="matrix(2.53165,0,0,2.53165,-348.101,-393.671)"><polyline fill="none" points="181,203 185,201" vector-effect="none"/></g><defs><clipPath id="clip69"><path d="M145,158 L210,158 L210,227 L145,227 L145,158 z"/></clipPath></defs><g clip-path="url(#clip69)" fill="none" opacity="1" stroke="#000000" stroke-linecap="square" stroke-linejoin="bevel" stroke-opacity="1" stroke-width="1" transform="matrix(2.53165,0,0,2.53165,-348.101,-393.671)"><polyline fill="none" points="185,201 189,198" vector-effect="none"/></g><defs><clipPath id="clip70"><path d="M145,158 L210,158 L210,227 L145,227 L145,158 z"/></clipPath></defs><g clip-path="url(#clip70)" fill="none" opacity="1" stroke="#000000" stroke-linecap="square" stroke-linejoin="bevel" stroke-opacity="1" stroke-width="1" transform="matrix(2.53165,0,0,2.53165,-348.101,-393.671)"><polyline fill="none" points="189,198 193,196" vector-effect="none"/></g><defs><clipPath id="clip71"><path d="M145,158 L210,158 L210,227 L145,227 L145,158 z"/></clipPath></defs><g clip-path="url(#clip71)" fill="none" opacity="1" stroke="#000000" stroke-linecap="square" stroke-linejoin="bevel" stroke-opacity="1" stroke-width="1" transform="matrix(2.53165,0,0,2.53165,-348.101,-393.671)"><polyline fill="none" points="193,196 197,194" vector-effect="none"/></g><defs><clipPath id="clip72"><path d="M145,158 L210,158 L210,227 L145,227 L145,158 z"/></clipPath></defs><g clip-path="url(#clip72)" fill="none" opacity="1" stroke="#000000" stroke-linecap="square" stroke-linejoin="bevel" stroke-opacity="1" stroke-width="1" transform="matrix(2.53165,0,0,2.53165,-348.101,-393.671)"><polyline fill="none" points="197,194 202,193" vector-effect="none"/></g><defs><clipPath id="clip73"><path d="M145,158 L210,158 L210,227 L145,227 L145,158 z"/></clipPath></defs><g clip-path="url(#clip73)" fill="none" opacity="1" stroke="#000000" stroke-linecap="square" stroke-linejoin="bevel" stroke-opacity="1" stroke-width="1" transform="matrix(2.53165,0,0,2.53165,-348.101,-393.671)"><polyline fill="none" points="202,193 206,191" vector-effect="none"/></g><defs><clipPath id="clip74"><path d="M145,158 L210,158 L210,227 L145,227 L145,158 z"/></clipPath></defs><g clip-path="url(#clip74)" fill="none" opacity="1" stroke="#000000" stroke-linecap="square" stroke-linejoin="bevel" stroke-opacity="1" stroke-width="1" transform="matrix(2.53165,0,0,2.53165,-348.101,-393.671)"><polyline fill="none" points="164,216 168,211" vector-effect="none"/></g><defs><clipPath id="clip75"><path d="M145,158 L210,158 L210,227 L145,227 L145,158 z"/></clipPath></defs><g clip-path="url(#clip75)" fill="none" opacity="1" stroke="#000000" stroke-linecap="square" stroke-linejoin="bevel" stroke-opacity="1" stroke-width="1" transform="matrix(2.53165,0,0,2.53165,-348.101,-393.671)"><polyline fill="none" points="168,211 172,207" vector-effect="none"/></g><defs><clipPath id="clip76"><path d="M145,158 L210,158 L210,227 L145,227 L145,158 z"/></clipPath></defs><g clip-path="url(#clip76)" fill="none" opacity="1" stroke="#000000" stroke-linecap="square" stroke-linejoin="bevel" stroke-opacity="1" stroke-width="1" transform="matrix(2.53165,0,0,2.53165,-348.101,-393.671)"><polyline fill="none" points="172,207 176,203" vector-effect="none"/></g><defs><clipPath id="clip77"><path d="M145,158 L210,158 L210,227 L145,227 L145,158 z"/></clipPath></defs><g clip-path="url(#clip77)" fill="none" opacity="1" stroke="#000000" stroke-linecap="square" stroke-linejoin="bevel" stroke-opacity="1" stroke-width="1" transform="matrix(2.53165,0,0,2.53165,-348.101,-393.671)"><polyline fill="none" points="176,203 181,201" vector-effect="none"/></g><defs><clipPath id="clip78"><path d="M145,158 L210,158 L210,227 L145,227 L145,158 z"/></clipPath></defs><g clip-path="url(#clip78)" fill="none" opacity="1" stroke="#000000" stroke-linecap="square" stroke-linejoin="bevel" stroke-opacity="1" stroke-width="1" transform="matrix(2.53165,0,0,2.53165,-348.101,-393.671)"><polyline fill="none" points="181,201 185,198" vector-effect="none"/></g><defs><clipPath id="clip79"><path d="M145,158 L210,158 L210,227 L145,227 L145,158 z"/></clipPath></defs><g clip-path="url(#clip79)" fill="none" opacity="1" stroke="#000000" stroke-linecap="square" stroke-linejoin="bevel" stroke-opacity="1" stroke-width="1" transform="matrix(2.53165,0,0,2.53165,-348.101,-393.671)"><polyline fill="none" points="185,198 189,196" vector-effect="none"/></g><defs><clipPath id="clip80"><path d="M145,158 L210,158 L210,227 L145,227 L145,158 z"/></clipPath></defs><g clip-path="url(#clip80)" fill="none" opacity="1" stroke="#000000" stroke-linecap="square" stroke-linejoin="bevel" stroke-opacity="1" stroke-width="1" transform="matrix(2.53165,0,0,2.53165,-348.101,-393.671)"><polyline fill="none" points="189,196 193,193" vector-effect="none"/></g><defs><clipPath id="clip81"><path d="M145,158 L210,158 L210,227 L145,227 L145,158 z"/></clipPath></defs><g clip-path="url(#clip81)" fill="none" opacity="1" stroke="#000000" stroke-linecap="square" stroke-linejoin="bevel" stroke-opacity="1" stroke-width="1" transform="matrix(2.53165,0,0,2.53165,-348.101,-393.671)"><polyline fill="none" points="193,193 197,191" vector-effect="none"/></g><defs><clipPath id="clip82"><path d="M145,158 L210,158 L210,227 L145,227 L145,158 z"/></clipPath></defs><g clip-path="url(#clip82)" fill="none" opacity="1" stroke="#000000" stroke-linecap="square" stroke-linejoin="bevel" stroke-opacity="1" stroke-width="1" transform="matrix(2.53165,0,0,2.53165,-348.101,-393.671)"><polyline fill="none" points="197,191 202,189" vector-effect="none"/></g><defs><clipPath id="clip83"><path d="M145,158 L210,158 L210,227 L145,227 L145,158 z"/></clipPath></defs><g clip-path="url(#clip83)" fill="none" opacity="1" stroke="#000000" stroke-linecap="square" stroke-linejoin="bevel" stroke-opacity="1" stroke-width="1" transform="matrix(2.53165,0,0,2.53165,-348.101,-393.671)"><polyline fill="none" points="202,189 206,187" vector-effect="none"/></g><defs><clipPath id="clip84"><path d="M145,158 L210,158 L210,227 L145,227 L145,158 z"/></clipPath></defs><g clip-path="url(#clip84)" fill="none" opacity="1" stroke="#000000" stroke-linecap="square" stroke-linejoin="bevel" stroke-opacity="1" stroke-width="1" transform="matrix(2.53165,0,0,2.53165,-348.101,-393.671)"><polyline fill="none" points="164,215 168,209" vector-effect="none"/></g><defs><clipPath id="clip85"><path d="M145,158 L210,158 L210,227 L145,227 L145,158 z"/></clipPath></defs><g clip-path="url(#clip85)" fill="none" opacity="1" stroke="#000000" stroke-linecap="square" stroke-linejoin="bevel" stroke-opacity="1" stroke-width="1" transform="matrix(2.53165,0,0,2.53165,-348.101,-393.671)"><polyline fill="none" points="168,209 172,205" vector-effect="none"/></g><defs><clipPath id="clip86"><path d="M145,158 L210,158 L210,227 L145,227 L145,158 z"/></clipPath></defs><g clip-path="url(#clip86)" fill="none" opacity="1" stroke="#000000" stroke-linecap="square" stroke-linejoin="bevel" stroke-opacity="1" stroke-width="1" transform="matrix(2.53165,0,0,2.53165,-348.101,-393.671)"><polyline fill="none" points="172,205 176,201" vector-effect="none"/></g><defs><clipPath id="clip87"><path d="M145,158 L210,158 L210,227 L145,227 L145,158 z"/></clipPath></defs><g clip-path="url(#clip87)" fill="none" opacity="1" stroke="#000000" stroke-linecap="square" stroke-linejoin="bevel" stroke-opacity="1" stroke-width="1" transform="matrix(2.53165,0,0,2.53165,-348.101,-393.671)"><polyline fill="none" points="176,201 181,198" vector-effect="none"/></g><defs><clipPath id="clip88"><path d="M145,158 L210,158 L210,227 L145,227 L145,158 z"/></clipPath></defs><g clip-path="url(#clip88)" fill="none" opacity="1" stroke="#000000" stroke-linecap="square" stroke-linejoin="bevel" stroke-opacity="1" stroke-width="1" transform="matrix(2.53165,0,0,2.53165,-348.101,-393.671)"><polyline fill="none" points="181,198 185,196" vector-effect="none"/></g><defs><clipPath id="clip89"><path d="M145,158 L210,158 L210,227 L145,227 L145,158 z"/></clipPath></defs><g clip-path="url(#clip89)" fill="none" opacity="1" stroke="#000000" stroke-linecap="square" stroke-linejoin="bevel" stroke-opacity="1" stroke-width="1" transform="matrix(2.53165,0,0,2.53165,-348.101,-393.671)"><polyline fill="none" points="185,196 189,193" vector-effect="none"/></g><defs><clipPath id="clip90"><path d="M145,158 L210,158 L210,227 L145,227 L145,158 z"/></clipPath></defs><g clip-path="url(#clip90)" fill="none" opacity="1" stroke="#000000" stroke-linecap="square" stroke-linejoin="bevel" stroke-opacity="1" stroke-width="1" transform="matrix(2.53165,0,0,2.53165,-348.101,-393.671)"><polyline fill="none" points="189,193 193,191" vector-effect="none"/></g><defs><clipPath id="clip91"><path d="M145,158 L210,158 L210,227 L145,227 L145,158 z"/></clipPath></defs><g clip-path="url(#clip91)" fill="none" opacity="1" stroke="#000000" stroke-linecap="square" stroke-linejoin="bevel" stroke-opacity="1" stroke-width="1" transform="matrix(2.53165,0,0,2.53165,-348.101,-393.671)"><polyline fill="none" points="193,191 197,188" vector-effect="none"/></g><defs><clipPath id="clip92"><path d="M145,158 L210,158 L210,227 L145,227 L145,158 z"/></clipPath></defs><g clip-path="url(#clip92)" fill="none" opacity="1" stroke="#000000" stroke-linecap="square" stroke-linejoin="bevel" stroke-opacity="1" stroke-width="1" transform="matrix(2.53165,0,0,2.53165,-348.101,-393.671)"><polyline fill="none" points="197,188 202,186" vector-effect="none"/></g><defs><clipPath id="clip93"><path d="M145,158 L210,158 L210,227 L145,227 L145,158 z"/></clipPath></defs><g clip-path="url(#clip93)" fill="none" opacity="1" stroke="#000000" stroke-linecap="square" stroke-linejoin="bevel" stroke-opacity="1" stroke-width="1" transform="matrix(2.53165,0,0,2.53165,-348.101,-393.671)"><polyline fill="none" points="202,186 206,184" vector-effect="none"/></g><defs><clipPath id="clip94"><path d="M145,158 L210,158 L210,227 L145,227 L145,158 z"/></clipPath></defs><g clip-path="url(#clip94)" fill="none" opacity="1" stroke="#000000" stroke-linecap="square" stroke-linejoin="bevel" stroke-opacity="1" stroke-width="1" transform="matrix(2.53165,0,0,2.53165,-348.101,-393.671)"><polyline fill="none" points="164,214 168,208" vector-effect="none"/></g><defs><clipPath id="clip95"><path d="M145,158 L210,158 L210,227 L145,227 L145,158 z"/></clipPath></defs><g clip-path="url(#clip95)" fill="none" opacity="1" stroke="#000000" stroke-linecap="square" stroke-linejoin="bevel" stroke-opacity="1" stroke-width="1" transform="matrix(2.53165,0,0,2.53165,-348.101,-393.671)"><polyline fill="none" points="168,208 172,203" vector-effect="none"/></g><defs><clipPath id="clip96"><path d="M145,158 L210,158 L210,227 L145,227 L145,158 z"/></clipPath></defs><g clip-path="url(#clip96)" fill="none" opacity="1" stroke="#000000" stroke-linecap="square" stroke-linejoin="bevel" stroke-opacity="1" stroke-width="1" transform="matrix(2.53165,0,0,2.53165,-348.101,-393.671)"><polyline fill="none" points="172,203 176,200" vector-effect="none"/></g><defs><clipPath id="clip97"><path d="M145,158 L210,158 L210,227 L145,227 L145,158 z"/></clipPath></defs><g clip-path="url(#clip97)" fill="none" opacity="1" stroke="#000000" stroke-linecap="square" stroke-linejoin="bevel" stroke-opacity="1" stroke-width="1" transform="matrix(2.53165,0,0,2.53165,-348.101,-393.671)"><polyline fill="none" points="176,200 181,196" vector-effect="none"/></g><defs><clipPath id="clip98"><path d="M145,158 L210,158 L210,227 L145,227 L145,158 z"/></clipPath></defs><g clip-path="url(#clip98)" fill="none" opacity="1" stroke="#000000" stroke-linecap="square" stroke-linejoin="bevel" stroke-opacity="1" stroke-width="1" transform="matrix(2.53165,0,0,2.53165,-348.101,-393.671)"><polyline fill="none" points="181,196 185,193" vector-effect="none"/></g><defs><clipPath id="clip99"><path d="M145,158 L210,158 L210,227 L145,227 L145,158 z"/></clipPath></defs><g clip-path="url(#clip99)" fill="none" opacity="1" stroke="#000000" stroke-linecap="square" stroke-linejoin="bevel" stroke-opacity="1" stroke-width="1" transform="matrix(2.53165,0,0,2.53165,-348.101,-393.671)"><polyline fill="none" points="185,193 189,191" vector-effect="none"/></g><defs><clipPath id="clip100"><path d="M145,158 L210,158 L210,227 L145,227 L145,158 z"/></clipPath></defs><g clip-path="url(#clip100)" fill="none" opacity="1" stroke="#000000" stroke-linecap="square" stroke-linejoin="bevel" stroke-opacity="1" stroke-width="1" transform="matrix(2.53165,0,0,2.53165,-348.101,-393.671)"><polyline fill="none" points="189,191 193,188" vector-effect="none"/></g><defs><clipPath id="clip101"><path d="M145,158 L210,158 L210,227 L145,227 L145,158 z"/></clipPath></defs><g clip-path="url(#clip101)" fill="none" opacity="1" stroke="#000000" stroke-linecap="square" stroke-linejoin="bevel" stroke-opacity="1" stroke-width="1" transform="matrix(2.53165,0,0,2.53165,-348.101,-393.671)"><polyline fill="none" points="193,188 197,186" vector-effect="none"/></g><defs><clipPath id="clip102"><path d="M145,158 L210,158 L210,227 L145,227 L145,158 z"/></clipPath></defs><g clip-path="url(#clip102)" fill="none" opacity="1" stroke="#000000" stroke-linecap="square" stroke-linejoin="bevel" stroke-opacity="1" stroke-width="1" transform="matrix(2.53165,0,0,2.53165,-348.101,-393.671)"><polyline fill="none" points="197,186 202,183" vector-effect="none"/></g><defs><clipPath id="clip103"><path d="M145,158 L210,158 L210,227 L145,227 L145,158 z"/></clipPath></defs><g clip-path="url(#clip103)" fill="none" opacity="1" stroke="#000000" stroke-linecap="square" stroke-linejoin="bevel" stroke-opacity="1" stroke-width="1" transform="matrix(2.53165,0,0,2.53165,-348.101,-393.671)"><polyline fill="none" points="202,183 206,181" vector-effect="none"/></g><defs><clipPath id="clip104"><path d="M145,158 L210,158 L210,227 L145,227 L145,158 z"/></clipPath></defs><g clip-path="url(#clip104)" fill="none" opacity="1" stroke="#000000" stroke-linecap="square" stroke-linejoin="bevel" stroke-opacity="1" stroke-width="1" transform="matrix(2.53165,0,0,2.53165,-348.101,-393.671)"><polyline fill="none" points="164,213 168,207" vector-effect="none"/></g><defs><clipPath id="clip105"><path d="M145,158 L210,158 L210,227 L145,227 L145,158 z"/></clipPath></defs><g clip-path="url(#clip105)" fill="none" opacity="1" stroke="#000000" stroke-linecap="square" stroke-linejoin="bevel" stroke-opacity="1" stroke-width="1" transform="matrix(2.53165,0,0,2.53165,-348.101,-393.671)"><polyline fill="none" points="168,207 172,202" vector-effect="none"/></g><defs><clipPath id="clip106"><path d="M145,158 L210,158 L210,227 L145,227 L145,158 z"/></clipPath></defs><g clip-path="url(#clip106)" fill="none" opacity="1" stroke="#000000" stroke-linecap="square" stroke-linejoin="bevel" stroke-opacity="1" stroke-width="1" transform="matrix(2.53165,0,0,2.53165,-348.101,-393.671)"><polyline fill="none" points="172,202 176,198" vector-effect="none"/></g><defs><clipPath id="clip107"><path d="M145,158 L210,158 L210,227 L145,227 L145,158 z"/></clipPath></defs><g clip-path="url(#clip107)" fill="none" opacity="1" stroke="#000000" stroke-linecap="square" stroke-linejoin="bevel" stroke-opacity="1" stroke-width="1" transform="matrix(2.53165,0,0,2.53165,-348.101,-393.671)"><polyline fill="none" points="176,198 181,194" vector-effect="none"/></g><defs><clipPath id="clip108"><path d="M145,158 L210,158 L210,227 L145,227 L145,158 z"/></clipPath></defs><g clip-path="url(#clip108)" fill="none" opacity="1" stroke="#000000" stroke-linecap="square" stroke-linejoin="bevel" stroke-opacity="1" stroke-width="1" transform="matrix(2.53165,0,0,2.53165,-348.101,-393.671)"><polyline fill="none" points="181,194 185,191" vector-effect="none"/></g><defs><clipPath id="clip109"><path d="M145,158 L210,158 L210,227 L145,227 L145,158 z"/></clipPath></defs><g clip-path="url(#clip109)" fill="none" opacity="1" stroke="#000000" stroke-linecap="square" stroke-linejoin="bevel" stroke-opacity="1" stroke-width="1" transform="matrix(2.53165,0,0,2.53165,-348.101,-393.671)"><polyline fill="none" points="185,191 189,188" vector-effect="none"/></g><defs><clipPath id="clip110"><path d="M145,158 L210,158 L210,227 L145,227 L145,158 z"/></clipPath></defs><g clip-path="url(#clip110)" fill="none" opacity="1" stroke="#000000" stroke-linecap="square" stroke-linejoin="bevel" stroke-opacity="1" stroke-width="1" transform="matrix(2.53165,0,0,2.53165,-348.101,-393.671)"><polyline fill="none" points="189,188 193,186" vector-effect="none"/></g><defs><clipPath id="clip111"><path d="M145,158 L210,158 L210,227 L145,227 L145,158 z"/></clipPath></defs><g clip-path="url(#clip111)" fill="none" opacity="1" stroke="#000000" stroke-linecap="square" stroke-linejoin="bevel" stroke-opacity="1" stroke-width="1" transform="matrix(2.53165,0,0,2.53165,-348.101,-393.671)"><polyline fill="none" points="193,186 197,183" vector-effect="none"/></g><defs><clipPath id="clip112"><path d="M145,158 L210,158 L210,227 L145,227 L145,158 z"/></clipPath></defs><g clip-path="url(#clip112)" fill="none" opacity="1" stroke="#000000" stroke-linecap="square" stroke-linejoin="bevel" stroke-opacity="1" stroke-width="1" transform="matrix(2.53165,0,0,2.53165,-348.101,-393.671)"><polyline fill="none" points="197,183 202,181" vector-effect="none"/></g><defs><clipPath id="clip113"><path d="M145,158 L210,158 L210,227 L145,227 L145,158 z"/></clipPath></defs><g clip-path="url(#clip113)" fill="none" opacity="1" stroke="#000000" stroke-linecap="square" stroke-linejoin="bevel" stroke-opacity="1" stroke-width="1" transform="matrix(2.53165,0,0,2.53165,-348.101,-393.671)"><polyline fill="none" points="202,181 206,178" vector-effect="none"/></g><defs><clipPath id="clip114"><path d="M145,158 L210,158 L210,227 L145,227 L145,158 z"/></clipPath></defs><g clip-path="url(#clip114)" fill="none" opacity="1" stroke="#000000" stroke-linecap="square" stroke-linejoin="bevel" stroke-opacity="1" stroke-width="1" transform="matrix(2.53165,0,0,2.53165,-348.101,-393.671)"><polyline fill="none" points="164,212 168,206" vector-effect="none"/></g><defs><clipPath id="clip115"><path d="M145,158 L210,158 L210,227 L145,227 L145,158 z"/></clipPath></defs><g clip-path="url(#clip115)" fill="none" opacity="1" stroke="#000000" stroke-linecap="square" stroke-linejoin="bevel" stroke-opacity="1" stroke-width="1" transform="matrix(2.53165,0,0,2.53165,-348.101,-393.671)"><polyline fill="none" points="168,206 172,201" vector-effect="none"/></g><defs><clipPath id="clip116"><path d="M145,158 L210,158 L210,227 L145,227 L145,158 z"/></clipPath></defs><g clip-path="url(#clip116)" fill="none" opacity="1" stroke="#000000" stroke-linecap="square" stroke-linejoin="bevel" stroke-opacity="1" stroke-width="1" transform="matrix(2.53165,0,0,2.53165,-348.101,-393.671)"><polyline fill="none" points="172,201 176,196" vector-effect="none"/></g><defs><clipPath id="clip117"><path d="M145,158 L210,158 L210,227 L145,227 L145,158 z"/></clipPath></defs><g clip-path="url(#clip117)" fill="none" opacity="1" stroke="#000000" stroke-linecap="square" stroke-linejoin="bevel" stroke-opacity="1" stroke-width="1" transform="matrix(2.53165,0,0,2.53165,-348.101,-393.671)"><polyline fill="none" points="176,196 181,193" vector-effect="none"/></g><defs><clipPath id="clip118"><path d="M145,158 L210,158 L210,227 L145,227 L145,158 z"/></clipPath></defs><g clip-path="url(#clip118)" fill="none" opacity="1" stroke="#000000" stroke-linecap="square" stroke-linejoin="bevel" stroke-opacity="1" stroke-width="1" transform="matrix(2.53165,0,0,2.53165,-348.101,-393.671)"><polyline fill="none" points="181,193 185,189" vector-effect="none"/></g><defs><clipPath id="clip119"><path d="M145,158 L210,158 L210,227 L145,227 L145,158 z"/></clipPath></defs><g clip-path="url(#clip119)" fill="none" opacity="1" stroke="#000000" stroke-linecap="square" stroke-linejoin="bevel" stroke-opacity="1" stroke-width="1" transform="matrix(2.53165,0,0,2.53165,-348.101,-393.671)"><polyline fill="none" points="185,189 189,186" vector-effect="none"/></g><defs><clipPath id="clip120"><path d="M145,158 L210,158 L210,227 L145,227 L145,158 z"/></clipPath></defs><g clip-path="url(#clip120)" fill="none" opacity="1" stroke="#000000" stroke-linecap="square" stroke-linejoin="bevel" stroke-opacity="1" stroke-width="1" transform="matrix(2.53165,0,0,2.53165,-348.101,-393.671)"><polyline fill="none" points="189,186 193,183" vector-effect="none"/></g><defs><clipPath id="clip121"><path d="M145,158 L210,158 L210,227 L145,227 L145,158 z"/></clipPath></defs><g clip-path="url(#clip121)" fill="none" opacity="1" stroke="#000000" stroke-linecap="square" stroke-linejoin="bevel" stroke-opacity="1" stroke-width="1" transform="matrix(2.53165,0,0,2.53165,-348.101,-393.671)"><polyline fill="none" points="193,183 197,181" vector-effect="none"/></g><defs><clipPath id="clip122"><path d="M145,158 L210,158 L210,227 L145,227 L145,158 z"/></clipPath></defs><g clip-path="url(#clip122)" fill="none" opacity="1" stroke="#000000" stroke-linecap="square" stroke-linejoin="bevel" stroke-opacity="1" stroke-width="1" transform="matrix(2.53165,0,0,2.53165,-348.101,-393.671)"><polyline fill="none" points="197,181 202,178" vector-effect="none"/></g><defs><clipPath id="clip123"><path d="M145,158 L210,158 L210,227 L145,227 L145,158 z"/></clipPath></defs><g clip-path="url(#clip123)" fill="none" opacity="1" stroke="#000000" stroke-linecap="square" stroke-linejoin="bevel" stroke-opacity="1" stroke-width="1" transform="matrix(2.53165,0,0,2.53165,-348.101,-393.671)"><polyline fill="none" points="202,178 206,176" vector-effect="none"/></g><defs><clipPath id="clip124"><path d="M145,158 L210,158 L210,227 L145,227 L145,158 z"/></clipPath></defs><g clip-path="url(#clip124)" fill="none" opacity="1" stroke="#000000" stroke-linecap="square" stroke-linejoin="bevel" stroke-opacity="1" stroke-width="1" transform="matrix(2.53165,0,0,2.53165,-348.101,-393.671)"><polyline fill="none" points="164,211 168,204" vector-effect="none"/></g><defs><clipPath id="clip125"><path d="M145,158 L210,158 L210,227 L145,227 L145,158 z"/></clipPath></defs><g clip-path="url(#clip125)" fill="none" opacity="1" stroke="#000000" stroke-linecap="square" stroke-linejoin="bevel" stroke-opacity="1" stroke-width="1" transform="matrix(2.53165,0,0,2.53165,-348.101,-393.671)"><polyline fill="none" points="168,204 172,199" vector-effect="none"/></g><defs><clipPath id="clip126"><path d="M145,158 L210,158 L210,227 L145,227 L145,158 z"/></clipPath></defs><g clip-path="url(#clip126)" fill="none" opacity="1" stroke="#000000" stroke-linecap="square" stroke-linejoin="bevel" stroke-opacity="1" stroke-width="1" transform="matrix(2.53165,0,0,2.53165,-348.101,-393.671)"><polyline fill="none" points="172,199 176,195" vector-effect="none"/></g><defs><clipPath id="clip127"><path d="M145,158 L210,158 L210,227 L145,227 L145,158 z"/></clipPath></defs><g clip-path="url(#clip127)" fill="none" opacity="1" stroke="#000000" stroke-linecap="square" stroke-linejoin="bevel" stroke-opacity="1" stroke-width="1" transform="matrix(2.53165,0,0,2.53165,-348.101,-393.671)"><polyline fill="none" points="176,195 181,191" vector-effect="none"/></g><defs><clipPath id="clip128"><path d="M145,158 L210,158 L210,227 L145,227 L145,158 z"/></clipPath></defs><g clip-path="url(#clip128)" fill="none" opacity="1" stroke="#000000" stroke-linecap="square" stroke-linejoin="bevel" stroke-opacity="1" stroke-width="1" transform="matrix(2.53165,0,0,2.53165,-348.101,-393.671)"><polyline fill="none" points="181,191 185,187" vector-effect="none"/></g><defs><clipPath id="clip129"><path d="M145,158 L210,158 L210,227 L145,227 L145,158 z"/></clipPath></defs><g clip-path="url(#clip129)" fill="none" opacity="1" stroke="#000000" stroke-linecap="square" stroke-linejoin="bevel" stroke-opacity="1" stroke-width="1" transform="matrix(2.53165,0,0,2.53165,-348.101,-393.671)"><polyline fill="none" points="185,187 189,184" vector-effect="none"/></g><defs><clipPath id="clip130"><path d="M145,158 L210,158 L210,227 L145,227 L145,158 z"/></clipPath></defs><g clip-path="url(#clip130)" fill="none" opacity="1" stroke="#000000" stroke-linecap="square" stroke-linejoin="bevel" stroke-opacity="1" stroke-width="1" transform="matrix(2.53165,0,0,2.53165,-348.101,-393.671)"><polyline fill="none" points="189,184 193,181" vector-effect="none"/></g><defs><clipPath id="clip131"><path d="M145,158 L210,158 L210,227 L145,227 L145,158 z"/></clipPath></defs><g clip-path="url(#clip131)" fill="none" opacity="1" stroke="#000000" stroke-linecap="square" stroke-linejoin="bevel" stroke-opacity="1" stroke-width="1" transform="matrix(2.53165,0,0,2.53165,-348.101,-393.671)"><polyline fill="none" points="193,181 197,178" vector-effect="none"/></g><defs><clipPath id="clip132"><path d="M145,158 L210,158 L210,227 L145,227 L145,158 z"/></clipPath></defs><g clip-path="url(#clip132)" fill="none" opacity="1" stroke="#000000" stroke-linecap="square" stroke-linejoin="bevel" stroke-opacity="1" stroke-width="1" transform="matrix(2.53165,0,0,2.53165,-348.101,-393.671)"><polyline fill="none" points="197,178 202,176" vector-effect="none"/></g><defs><clipPath id="clip133"><path d="M145,158 L210,158 L210,227 L145,227 L145,158 z"/></clipPath></defs><g clip-path="url(#clip133)" fill="none" opacity="1" stroke="#000000" stroke-linecap="square" stroke-linejoin="bevel" stroke-opacity="1" stroke-width="1" transform="matrix(2.53165,0,0,2.53165,-348.101,-393.671)"><polyline fill="none" points="202,176 206,173" vector-effect="none"/></g><defs><clipPath id="clip135"><path d="M-215,-5 L118,-5 L118,348 L-215,348 L-215,-5 z"/></clipPath></defs><g clip-path="url(#clip135)" fill="none" opacity="1" stroke="#000000" stroke-linecap="square" stroke-linejoin="bevel" stroke-opacity="1" stroke-width="1" transform="matrix(0.494462,0,0,0.494462,124.051,7.59494)"><text fill="#000000" fill-opacity="1" font-family="Liberation Sans" font-size="40" font-style="normal" font-weight="400" stroke="none" textLength="166" x="-107.375" xml:space="preserve" y="46.0781">n-D T(k,f)</text></g><defs><clipPath id="clip138"><path d="M-15,-61 L318,-61 L318,292 L-15,292 L-15,-61 z"/></clipPath></defs><g clip-path="url(#clip138)" fill="none" opacity="1" stroke="#000000" stroke-linecap="square" stroke-linejoin="bevel" stroke-opacity="1" stroke-width="1" transform="matrix(0.494462,0,0,0.494462,25.3165,35.443)"><text fill="#000000" fill-opacity="1" font-family="Liberation Sans" font-size="40" font-style="normal" font-weight="400" stroke="none" textLength="42" x="0" xml:space="preserve" y="17.9219">k1</text></g><defs><clipPath id="clip141"><path d="M-15,-138 L318,-138 L318,215 L-15,215 L-15,-138 z"/></clipPath></defs><g clip-path="url(#clip141)" fill="none" opacity="1" stroke="#000000" stroke-linecap="square" stroke-linejoin="bevel" stroke-opacity="1" stroke-width="1" transform="matrix(0.494462,0,0,0.494462,25.3165,73.4177)"><text fill="#000000" fill-opacity="1" font-family="Liberation Sans" font-size="40" font-style="normal" font-weight="400" stroke="none" textLength="34" x="0" xml:space="preserve" y="17.9219">f1</text></g><defs><clipPath id="clip144"><path d="M-15,-215 L318,-215 L318,138 L-15,138 L-15,-215 z"/></clipPath></defs><g clip-path="url(#clip144)" fill="none" opacity="1" stroke="#000000" stroke-linecap="square" stroke-linejoin="bevel" stroke-opacity="1" stroke-width="1" transform="matrix(0.494462,0,0,0.494462,25.3165,111.392)"><text fill="#000000" fill-opacity="1" font-family="Liberation Sans" font-size="40" font-style="normal" font-weight="400" stroke="none" textLength="42" x="0" xml:space="preserve" y="17.9219">k2</text></g><defs><clipPath id="clip147"><path d="M-15,-292 L318,-292 L318,61 L-15,61 L-15,-292 z"/></clipPath></defs><g clip-path="url(#clip147)" fill="none" opacity="1" stroke="#000000" stroke-linecap="square" stroke-linejoin="bevel" stroke-opacity="1" stroke-width="1" transform="matrix(0.494462,0,0,0.494462,25.3165,149.367)"><text fill="#000000" fill-opacity="1" font-family="Liberation Sans" font-size="40" font-style="normal" font-weight="400" stroke="none" textLength="34" x="0" xml:space="preserve" y="17.9219">f2</text></g><defs><clipPath id="clip153"><path d="M-7,-2 L72,-2 L72,71 L-7,71 L-7,-2 z"/></clipPath></defs><g clip-path="url(#clip153)" fill="none" opacity="1" stroke="#000000" stroke-linecap="butt" stroke-linejoin="miter" stroke-miterlimit="2" stroke-opacity="1" stroke-width="0.689666" transform="matrix(2.53165,0,0,2.53165,17.7215,5.06329)"><path d="M0,0 L65,0 L65,69 L0,69 L0,0 z" fill-rule="evenodd" vector-effect="none"/></g></g></svg>
