<?xml version="1.0" encoding="UTF-8" standalone="no"?>
<svg width="50.8mm" height="25.908mm"
 viewBox="0 0 200 102"
 xmlns="http://www.w3.org/2000/svg" xmlns:xlink="http://www.w3.org/1999/xlink"  version="1.2" baseProfile="tiny">
<defs>
</defs>
<g fill="none" stroke="black" stroke-width="1" fill-rule="evenodd" stroke-linecap="square" stroke-linejoin="bevel" >

<g fill="#ffffff" fill-opacity="0" stroke="none" transform="matrix(1,0,0,1,0,0)"
font-family="Helvetica" font-size="16.6667" font-weight="400" font-style="normal" 
>
<path vector-effect="non-scaling-stroke" fill-rule="evenodd" d="M0,0 L200,0 L200,102 L0,102 L0,0z "/>
</g>

<g fill="none" stroke="#000000" stroke-opacity="1" stroke-width="1" stroke-linecap="square" stroke-linejoin="bevel" transform="matrix(1,0,0,1,0,0)"
font-family="Helvetica" font-size="16.6667" font-weight="400" font-style="normal" 
>
</g>

<g fill="none" stroke="#000000" stroke-opacity="1" stroke-width="1" stroke-linecap="square" stroke-linejoin="bevel" transform="matrix(1,0,0,1,0,0)"
font-family="Helvetica" font-size="16.6667" font-weight="400" font-style="normal" 
clip-path="url(#clip10)" >
<defs><clipPath id="clip10"><path vector-effect="non-scaling-stroke" fill-rule="evenodd" d="M0,0 L200,0 L200,102.128 L0,102.128 L0,0z "/>
</clipPath></defs></g>

<g fill="none" stroke="#000000" stroke-opacity="1" stroke-width="1" stroke-linecap="square" stroke-linejoin="bevel" transform="matrix(-2.12766,0,0,-2.12766,14.8936,51.0638)"
font-family="Helvetica" font-size="16.6667" font-weight="400" font-style="normal" 
clip-path="url(#clip11)" >
<defs><clipPath id="clip11"><path vector-effect="non-scaling-stroke" fill-rule="evenodd" d="M7,24 L-87,24 L-87,-24 L7,-24 L7,24z "/>
</clipPath></defs></g>

<g fill="#000000" fill-opacity="0" stroke="#000000" stroke-opacity="1" stroke-width="2" stroke-linecap="round" stroke-linejoin="miter" stroke-miterlimit="2" transform="matrix(-2.12766,0,0,-2.12766,14.8936,51.0638)"
font-family="Helvetica" font-size="16.6667" font-weight="400" font-style="normal" 
clip-path="url(#clip11)" >
<path vector-effect="none" fill-rule="evenodd" d="M5,-5 L0,0 L5,5"/>
</g>

<g fill="none" stroke="#000000" stroke-opacity="1" stroke-width="1" stroke-linecap="square" stroke-linejoin="bevel" transform="matrix(-2.12766,0,0,-2.12766,14.8936,51.0638)"
font-family="Helvetica" font-size="16.6667" font-weight="400" font-style="normal" 
clip-path="url(#clip11)" >
</g>

<g fill="none" stroke="#000000" stroke-opacity="1" stroke-width="1" stroke-linecap="square" stroke-linejoin="bevel" transform="matrix(2.12766,0,0,2.12766,185.106,51.0638)"
font-family="Helvetica" font-size="16.6667" font-weight="400" font-style="normal" 
clip-path="url(#clip12)" >
<defs><clipPath id="clip12"><path vector-effect="non-scaling-stroke" fill-rule="evenodd" d="M-87,-24 L7,-24 L7,24 L-87,24 L-87,-24z "/>
</clipPath></defs></g>

<g fill="#000000" fill-opacity="0" stroke="#000000" stroke-opacity="1" stroke-width="2" stroke-linecap="round" stroke-linejoin="miter" stroke-miterlimit="2" transform="matrix(2.12766,0,0,2.12766,185.106,51.0638)"
font-family="Helvetica" font-size="16.6667" font-weight="400" font-style="normal" 
clip-path="url(#clip12)" >
<path vector-effect="none" fill-rule="evenodd" d="M0,-5 L5,0 L0,5"/>
</g>

<g fill="none" stroke="#000000" stroke-opacity="1" stroke-width="1" stroke-linecap="square" stroke-linejoin="bevel" transform="matrix(2.12766,0,0,2.12766,185.106,51.0638)"
font-family="Helvetica" font-size="16.6667" font-weight="400" font-style="normal" 
clip-path="url(#clip12)" >
</g>

<g fill="none" stroke="#000000" stroke-opacity="1" stroke-width="1" stroke-linecap="square" stroke-linejoin="bevel" transform="matrix(2.12766,0,0,2.12766,14.8936,4.25532)"
font-family="Helvetica" font-size="16.6667" font-weight="400" font-style="normal" 
clip-path="url(#clip13)" >
<defs><clipPath id="clip13"><path vector-effect="non-scaling-stroke" fill-rule="evenodd" d="M-7,-2 L87,-2 L87,46 L-7,46 L-7,-2z "/>
</clipPath></defs></g>

<g fill="#ffffff" fill-opacity="1" stroke="none" transform="matrix(2.12766,0,0,2.12766,14.8936,4.25532)"
font-family="Helvetica" font-size="16.6667" font-weight="400" font-style="normal" 
clip-path="url(#clip13)" >
<path vector-effect="none" fill-rule="evenodd" d="M0,0 L80,0 L80,44 L0,44 L0,0z "/>
</g>

<g fill="none" stroke="#000000" stroke-opacity="1" stroke-width="1" stroke-linecap="square" stroke-linejoin="bevel" transform="matrix(2.12766,0,0,2.12766,14.8936,4.25532)"
font-family="Helvetica" font-size="16.6667" font-weight="400" font-style="normal" 
clip-path="url(#clip13)" >
</g>

<g fill="none" stroke="#000000" stroke-opacity="1" stroke-width="1" stroke-linecap="square" stroke-linejoin="bevel" transform="matrix(2.12766,0,0,2.12766,14.8936,4.25532)"
font-family="Helvetica" font-size="16.6667" font-weight="400" font-style="normal" 
clip-path="url(#clip13)" >
</g>

<g fill="none" stroke="#000000" stroke-opacity="1" stroke-width="1" stroke-linecap="square" stroke-linejoin="bevel" transform="matrix(2.12766,0,0,2.12766,14.8936,4.25532)"
font-family="Helvetica" font-size="16.6667" font-weight="400" font-style="normal" 
clip-path="url(#clip14)" >
<defs><clipPath id="clip14"><path vector-effect="non-scaling-stroke" fill-rule="evenodd" d="M0,0 L80,0 L80,44 L0,44 L0,0z "/>
</clipPath></defs></g>

<g fill="none" stroke="#000000" stroke-opacity="1" stroke-width="1" stroke-linecap="square" stroke-linejoin="bevel" transform="matrix(2.12766,0,0,2.12766,-377.66,-128.723)"
font-family="Helvetica" font-size="16.6667" font-weight="400" font-style="normal" 
clip-path="url(#clip15)" >
<defs><clipPath id="clip15"><path vector-effect="none" fill-rule="evenodd" d="M185,63 L265,63 L265,107 L185,107 L185,63z "/>
</clipPath></defs><polyline fill="none" vector-effect="none" points="189,85 190,85 " />
</g>

<g fill="none" stroke="#000000" stroke-opacity="1" stroke-width="1" stroke-linecap="square" stroke-linejoin="bevel" transform="matrix(2.12766,0,0,2.12766,-377.66,-128.723)"
font-family="Helvetica" font-size="16.6667" font-weight="400" font-style="normal" 
clip-path="url(#clip15)" >
<polyline fill="none" vector-effect="none" points="190,85 191,85 " />
</g>

<g fill="none" stroke="#000000" stroke-opacity="1" stroke-width="1" stroke-linecap="square" stroke-linejoin="bevel" transform="matrix(2.12766,0,0,2.12766,-377.66,-128.723)"
font-family="Helvetica" font-size="16.6667" font-weight="400" font-style="normal" 
clip-path="url(#clip15)" >
<polyline fill="none" vector-effect="none" points="191,85 192,85 " />
</g>

<g fill="none" stroke="#000000" stroke-opacity="1" stroke-width="1" stroke-linecap="square" stroke-linejoin="bevel" transform="matrix(2.12766,0,0,2.12766,-377.66,-128.723)"
font-family="Helvetica" font-size="16.6667" font-weight="400" font-style="normal" 
clip-path="url(#clip15)" >
<polyline fill="none" vector-effect="none" points="192,85 193,85 " />
</g>

<g fill="none" stroke="#000000" stroke-opacity="1" stroke-width="1" stroke-linecap="square" stroke-linejoin="bevel" transform="matrix(2.12766,0,0,2.12766,-377.66,-128.723)"
font-family="Helvetica" font-size="16.6667" font-weight="400" font-style="normal" 
clip-path="url(#clip15)" >
<polyline fill="none" vector-effect="none" points="193,85 194,85 " />
</g>

<g fill="none" stroke="#000000" stroke-opacity="1" stroke-width="1" stroke-linecap="square" stroke-linejoin="bevel" transform="matrix(2.12766,0,0,2.12766,-377.66,-128.723)"
font-family="Helvetica" font-size="16.6667" font-weight="400" font-style="normal" 
clip-path="url(#clip15)" >
<polyline fill="none" vector-effect="none" points="194,85 195,85 " />
</g>

<g fill="none" stroke="#000000" stroke-opacity="1" stroke-width="1" stroke-linecap="square" stroke-linejoin="bevel" transform="matrix(2.12766,0,0,2.12766,-377.66,-128.723)"
font-family="Helvetica" font-size="16.6667" font-weight="400" font-style="normal" 
clip-path="url(#clip15)" >
<polyline fill="none" vector-effect="none" points="195,85 196,85 " />
</g>

<g fill="none" stroke="#000000" stroke-opacity="1" stroke-width="1" stroke-linecap="square" stroke-linejoin="bevel" transform="matrix(2.12766,0,0,2.12766,-377.66,-128.723)"
font-family="Helvetica" font-size="16.6667" font-weight="400" font-style="normal" 
clip-path="url(#clip15)" >
<polyline fill="none" vector-effect="none" points="196,85 197,85 " />
</g>

<g fill="none" stroke="#000000" stroke-opacity="1" stroke-width="1" stroke-linecap="square" stroke-linejoin="bevel" transform="matrix(2.12766,0,0,2.12766,-377.66,-128.723)"
font-family="Helvetica" font-size="16.6667" font-weight="400" font-style="normal" 
clip-path="url(#clip15)" >
<polyline fill="none" vector-effect="none" points="197,85 198,85 " />
</g>

<g fill="none" stroke="#000000" stroke-opacity="1" stroke-width="1" stroke-linecap="square" stroke-linejoin="bevel" transform="matrix(2.12766,0,0,2.12766,-377.66,-128.723)"
font-family="Helvetica" font-size="16.6667" font-weight="400" font-style="normal" 
clip-path="url(#clip15)" >
<polyline fill="none" vector-effect="none" points="198,85 199,85 " />
</g>

<g fill="none" stroke="#000000" stroke-opacity="1" stroke-width="1" stroke-linecap="square" stroke-linejoin="bevel" transform="matrix(2.12766,0,0,2.12766,-377.66,-128.723)"
font-family="Helvetica" font-size="16.6667" font-weight="400" font-style="normal" 
clip-path="url(#clip15)" >
<polyline fill="none" vector-effect="none" points="199,85 200,86 " />
</g>

<g fill="none" stroke="#000000" stroke-opacity="1" stroke-width="1" stroke-linecap="square" stroke-linejoin="bevel" transform="matrix(2.12766,0,0,2.12766,-377.66,-128.723)"
font-family="Helvetica" font-size="16.6667" font-weight="400" font-style="normal" 
clip-path="url(#clip15)" >
<polyline fill="none" vector-effect="none" points="200,86 201,86 " />
</g>

<g fill="none" stroke="#000000" stroke-opacity="1" stroke-width="1" stroke-linecap="square" stroke-linejoin="bevel" transform="matrix(2.12766,0,0,2.12766,-377.66,-128.723)"
font-family="Helvetica" font-size="16.6667" font-weight="400" font-style="normal" 
clip-path="url(#clip15)" >
<polyline fill="none" vector-effect="none" points="201,86 202,86 " />
</g>

<g fill="none" stroke="#000000" stroke-opacity="1" stroke-width="1" stroke-linecap="square" stroke-linejoin="bevel" transform="matrix(2.12766,0,0,2.12766,-377.66,-128.723)"
font-family="Helvetica" font-size="16.6667" font-weight="400" font-style="normal" 
clip-path="url(#clip15)" >
<polyline fill="none" vector-effect="none" points="202,86 203,86 " />
</g>

<g fill="none" stroke="#000000" stroke-opacity="1" stroke-width="1" stroke-linecap="square" stroke-linejoin="bevel" transform="matrix(2.12766,0,0,2.12766,-377.66,-128.723)"
font-family="Helvetica" font-size="16.6667" font-weight="400" font-style="normal" 
clip-path="url(#clip15)" >
<polyline fill="none" vector-effect="none" points="203,86 204,86 " />
</g>

<g fill="none" stroke="#000000" stroke-opacity="1" stroke-width="1" stroke-linecap="square" stroke-linejoin="bevel" transform="matrix(2.12766,0,0,2.12766,-377.66,-128.723)"
font-family="Helvetica" font-size="16.6667" font-weight="400" font-style="normal" 
clip-path="url(#clip15)" >
<polyline fill="none" vector-effect="none" points="204,86 204,85 " />
</g>

<g fill="none" stroke="#000000" stroke-opacity="1" stroke-width="1" stroke-linecap="square" stroke-linejoin="bevel" transform="matrix(2.12766,0,0,2.12766,-377.66,-128.723)"
font-family="Helvetica" font-size="16.6667" font-weight="400" font-style="normal" 
clip-path="url(#clip15)" >
<polyline fill="none" vector-effect="none" points="204,85 205,85 " />
</g>

<g fill="none" stroke="#000000" stroke-opacity="1" stroke-width="1" stroke-linecap="square" stroke-linejoin="bevel" transform="matrix(2.12766,0,0,2.12766,-377.66,-128.723)"
font-family="Helvetica" font-size="16.6667" font-weight="400" font-style="normal" 
clip-path="url(#clip15)" >
<polyline fill="none" vector-effect="none" points="205,85 206,84 " />
</g>

<g fill="none" stroke="#000000" stroke-opacity="1" stroke-width="1" stroke-linecap="square" stroke-linejoin="bevel" transform="matrix(2.12766,0,0,2.12766,-377.66,-128.723)"
font-family="Helvetica" font-size="16.6667" font-weight="400" font-style="normal" 
clip-path="url(#clip15)" >
<polyline fill="none" vector-effect="none" points="206,84 207,84 " />
</g>

<g fill="none" stroke="#000000" stroke-opacity="1" stroke-width="1" stroke-linecap="square" stroke-linejoin="bevel" transform="matrix(2.12766,0,0,2.12766,-377.66,-128.723)"
font-family="Helvetica" font-size="16.6667" font-weight="400" font-style="normal" 
clip-path="url(#clip15)" >
<polyline fill="none" vector-effect="none" points="207,84 208,84 " />
</g>

<g fill="none" stroke="#000000" stroke-opacity="1" stroke-width="1" stroke-linecap="square" stroke-linejoin="bevel" transform="matrix(2.12766,0,0,2.12766,-377.66,-128.723)"
font-family="Helvetica" font-size="16.6667" font-weight="400" font-style="normal" 
clip-path="url(#clip15)" >
<polyline fill="none" vector-effect="none" points="208,84 209,84 " />
</g>

<g fill="none" stroke="#000000" stroke-opacity="1" stroke-width="1" stroke-linecap="square" stroke-linejoin="bevel" transform="matrix(2.12766,0,0,2.12766,-377.66,-128.723)"
font-family="Helvetica" font-size="16.6667" font-weight="400" font-style="normal" 
clip-path="url(#clip15)" >
<polyline fill="none" vector-effect="none" points="209,84 210,84 " />
</g>

<g fill="none" stroke="#000000" stroke-opacity="1" stroke-width="1" stroke-linecap="square" stroke-linejoin="bevel" transform="matrix(2.12766,0,0,2.12766,-377.66,-128.723)"
font-family="Helvetica" font-size="16.6667" font-weight="400" font-style="normal" 
clip-path="url(#clip15)" >
<polyline fill="none" vector-effect="none" points="210,84 211,84 " />
</g>

<g fill="none" stroke="#000000" stroke-opacity="1" stroke-width="1" stroke-linecap="square" stroke-linejoin="bevel" transform="matrix(2.12766,0,0,2.12766,-377.66,-128.723)"
font-family="Helvetica" font-size="16.6667" font-weight="400" font-style="normal" 
clip-path="url(#clip15)" >
<polyline fill="none" vector-effect="none" points="211,84 212,85 " />
</g>

<g fill="none" stroke="#000000" stroke-opacity="1" stroke-width="1" stroke-linecap="square" stroke-linejoin="bevel" transform="matrix(2.12766,0,0,2.12766,-377.66,-128.723)"
font-family="Helvetica" font-size="16.6667" font-weight="400" font-style="normal" 
clip-path="url(#clip15)" >
<polyline fill="none" vector-effect="none" points="212,85 213,86 " />
</g>

<g fill="none" stroke="#000000" stroke-opacity="1" stroke-width="1" stroke-linecap="square" stroke-linejoin="bevel" transform="matrix(2.12766,0,0,2.12766,-377.66,-128.723)"
font-family="Helvetica" font-size="16.6667" font-weight="400" font-style="normal" 
clip-path="url(#clip15)" >
<polyline fill="none" vector-effect="none" points="213,86 214,87 " />
</g>

<g fill="none" stroke="#000000" stroke-opacity="1" stroke-width="1" stroke-linecap="square" stroke-linejoin="bevel" transform="matrix(2.12766,0,0,2.12766,-377.66,-128.723)"
font-family="Helvetica" font-size="16.6667" font-weight="400" font-style="normal" 
clip-path="url(#clip15)" >
<polyline fill="none" vector-effect="none" points="214,87 214,88 " />
</g>

<g fill="none" stroke="#000000" stroke-opacity="1" stroke-width="1" stroke-linecap="square" stroke-linejoin="bevel" transform="matrix(2.12766,0,0,2.12766,-377.66,-128.723)"
font-family="Helvetica" font-size="16.6667" font-weight="400" font-style="normal" 
clip-path="url(#clip15)" >
<polyline fill="none" vector-effect="none" points="214,88 215,88 " />
</g>

<g fill="none" stroke="#000000" stroke-opacity="1" stroke-width="1" stroke-linecap="square" stroke-linejoin="bevel" transform="matrix(2.12766,0,0,2.12766,-377.66,-128.723)"
font-family="Helvetica" font-size="16.6667" font-weight="400" font-style="normal" 
clip-path="url(#clip15)" >
<polyline fill="none" vector-effect="none" points="215,88 216,88 " />
</g>

<g fill="none" stroke="#000000" stroke-opacity="1" stroke-width="1" stroke-linecap="square" stroke-linejoin="bevel" transform="matrix(2.12766,0,0,2.12766,-377.66,-128.723)"
font-family="Helvetica" font-size="16.6667" font-weight="400" font-style="normal" 
clip-path="url(#clip15)" >
<polyline fill="none" vector-effect="none" points="216,88 217,87 " />
</g>

<g fill="none" stroke="#000000" stroke-opacity="1" stroke-width="1" stroke-linecap="square" stroke-linejoin="bevel" transform="matrix(2.12766,0,0,2.12766,-377.66,-128.723)"
font-family="Helvetica" font-size="16.6667" font-weight="400" font-style="normal" 
clip-path="url(#clip15)" >
<polyline fill="none" vector-effect="none" points="217,87 218,86 " />
</g>

<g fill="none" stroke="#000000" stroke-opacity="1" stroke-width="1" stroke-linecap="square" stroke-linejoin="bevel" transform="matrix(2.12766,0,0,2.12766,-377.66,-128.723)"
font-family="Helvetica" font-size="16.6667" font-weight="400" font-style="normal" 
clip-path="url(#clip15)" >
<polyline fill="none" vector-effect="none" points="218,86 219,84 " />
</g>

<g fill="none" stroke="#000000" stroke-opacity="1" stroke-width="1" stroke-linecap="square" stroke-linejoin="bevel" transform="matrix(2.12766,0,0,2.12766,-377.66,-128.723)"
font-family="Helvetica" font-size="16.6667" font-weight="400" font-style="normal" 
clip-path="url(#clip15)" >
<polyline fill="none" vector-effect="none" points="219,84 220,81 " />
</g>

<g fill="none" stroke="#000000" stroke-opacity="1" stroke-width="1" stroke-linecap="square" stroke-linejoin="bevel" transform="matrix(2.12766,0,0,2.12766,-377.66,-128.723)"
font-family="Helvetica" font-size="16.6667" font-weight="400" font-style="normal" 
clip-path="url(#clip15)" >
<polyline fill="none" vector-effect="none" points="220,81 221,79 " />
</g>

<g fill="none" stroke="#000000" stroke-opacity="1" stroke-width="1" stroke-linecap="square" stroke-linejoin="bevel" transform="matrix(2.12766,0,0,2.12766,-377.66,-128.723)"
font-family="Helvetica" font-size="16.6667" font-weight="400" font-style="normal" 
clip-path="url(#clip15)" >
<polyline fill="none" vector-effect="none" points="221,79 222,76 " />
</g>

<g fill="none" stroke="#000000" stroke-opacity="1" stroke-width="1" stroke-linecap="square" stroke-linejoin="bevel" transform="matrix(2.12766,0,0,2.12766,-377.66,-128.723)"
font-family="Helvetica" font-size="16.6667" font-weight="400" font-style="normal" 
clip-path="url(#clip15)" >
<polyline fill="none" vector-effect="none" points="222,76 223,73 " />
</g>

<g fill="none" stroke="#000000" stroke-opacity="1" stroke-width="1" stroke-linecap="square" stroke-linejoin="bevel" transform="matrix(2.12766,0,0,2.12766,-377.66,-128.723)"
font-family="Helvetica" font-size="16.6667" font-weight="400" font-style="normal" 
clip-path="url(#clip15)" >
<polyline fill="none" vector-effect="none" points="223,73 224,72 " />
</g>

<g fill="none" stroke="#000000" stroke-opacity="1" stroke-width="1" stroke-linecap="square" stroke-linejoin="bevel" transform="matrix(2.12766,0,0,2.12766,-377.66,-128.723)"
font-family="Helvetica" font-size="16.6667" font-weight="400" font-style="normal" 
clip-path="url(#clip15)" >
<polyline fill="none" vector-effect="none" points="224,72 225,70 " />
</g>

<g fill="none" stroke="#000000" stroke-opacity="1" stroke-width="1" stroke-linecap="square" stroke-linejoin="bevel" transform="matrix(2.12766,0,0,2.12766,-377.66,-128.723)"
font-family="Helvetica" font-size="16.6667" font-weight="400" font-style="normal" 
clip-path="url(#clip15)" >
<polyline fill="none" vector-effect="none" points="225,70 226,70 " />
</g>

<g fill="none" stroke="#000000" stroke-opacity="1" stroke-width="1" stroke-linecap="square" stroke-linejoin="bevel" transform="matrix(2.12766,0,0,2.12766,-377.66,-128.723)"
font-family="Helvetica" font-size="16.6667" font-weight="400" font-style="normal" 
clip-path="url(#clip15)" >
<polyline fill="none" vector-effect="none" points="226,70 227,72 " />
</g>

<g fill="none" stroke="#000000" stroke-opacity="1" stroke-width="1" stroke-linecap="square" stroke-linejoin="bevel" transform="matrix(2.12766,0,0,2.12766,-377.66,-128.723)"
font-family="Helvetica" font-size="16.6667" font-weight="400" font-style="normal" 
clip-path="url(#clip15)" >
<polyline fill="none" vector-effect="none" points="227,72 228,73 " />
</g>

<g fill="none" stroke="#000000" stroke-opacity="1" stroke-width="1" stroke-linecap="square" stroke-linejoin="bevel" transform="matrix(2.12766,0,0,2.12766,-377.66,-128.723)"
font-family="Helvetica" font-size="16.6667" font-weight="400" font-style="normal" 
clip-path="url(#clip15)" >
<polyline fill="none" vector-effect="none" points="228,73 229,76 " />
</g>

<g fill="none" stroke="#000000" stroke-opacity="1" stroke-width="1" stroke-linecap="square" stroke-linejoin="bevel" transform="matrix(2.12766,0,0,2.12766,-377.66,-128.723)"
font-family="Helvetica" font-size="16.6667" font-weight="400" font-style="normal" 
clip-path="url(#clip15)" >
<polyline fill="none" vector-effect="none" points="229,76 230,79 " />
</g>

<g fill="none" stroke="#000000" stroke-opacity="1" stroke-width="1" stroke-linecap="square" stroke-linejoin="bevel" transform="matrix(2.12766,0,0,2.12766,-377.66,-128.723)"
font-family="Helvetica" font-size="16.6667" font-weight="400" font-style="normal" 
clip-path="url(#clip15)" >
<polyline fill="none" vector-effect="none" points="230,79 231,81 " />
</g>

<g fill="none" stroke="#000000" stroke-opacity="1" stroke-width="1" stroke-linecap="square" stroke-linejoin="bevel" transform="matrix(2.12766,0,0,2.12766,-377.66,-128.723)"
font-family="Helvetica" font-size="16.6667" font-weight="400" font-style="normal" 
clip-path="url(#clip15)" >
<polyline fill="none" vector-effect="none" points="231,81 232,84 " />
</g>

<g fill="none" stroke="#000000" stroke-opacity="1" stroke-width="1" stroke-linecap="square" stroke-linejoin="bevel" transform="matrix(2.12766,0,0,2.12766,-377.66,-128.723)"
font-family="Helvetica" font-size="16.6667" font-weight="400" font-style="normal" 
clip-path="url(#clip15)" >
<polyline fill="none" vector-effect="none" points="232,84 233,86 " />
</g>

<g fill="none" stroke="#000000" stroke-opacity="1" stroke-width="1" stroke-linecap="square" stroke-linejoin="bevel" transform="matrix(2.12766,0,0,2.12766,-377.66,-128.723)"
font-family="Helvetica" font-size="16.6667" font-weight="400" font-style="normal" 
clip-path="url(#clip15)" >
<polyline fill="none" vector-effect="none" points="233,86 234,87 " />
</g>

<g fill="none" stroke="#000000" stroke-opacity="1" stroke-width="1" stroke-linecap="square" stroke-linejoin="bevel" transform="matrix(2.12766,0,0,2.12766,-377.66,-128.723)"
font-family="Helvetica" font-size="16.6667" font-weight="400" font-style="normal" 
clip-path="url(#clip15)" >
<polyline fill="none" vector-effect="none" points="234,87 235,88 " />
</g>

<g fill="none" stroke="#000000" stroke-opacity="1" stroke-width="1" stroke-linecap="square" stroke-linejoin="bevel" transform="matrix(2.12766,0,0,2.12766,-377.66,-128.723)"
font-family="Helvetica" font-size="16.6667" font-weight="400" font-style="normal" 
clip-path="url(#clip15)" >
<polyline fill="none" vector-effect="none" points="235,88 236,88 " />
</g>

<g fill="none" stroke="#000000" stroke-opacity="1" stroke-width="1" stroke-linecap="square" stroke-linejoin="bevel" transform="matrix(2.12766,0,0,2.12766,-377.66,-128.723)"
font-family="Helvetica" font-size="16.6667" font-weight="400" font-style="normal" 
clip-path="url(#clip15)" >
<polyline fill="none" vector-effect="none" points="236,88 237,87 " />
</g>

<g fill="none" stroke="#000000" stroke-opacity="1" stroke-width="1" stroke-linecap="square" stroke-linejoin="bevel" transform="matrix(2.12766,0,0,2.12766,-377.66,-128.723)"
font-family="Helvetica" font-size="16.6667" font-weight="400" font-style="normal" 
clip-path="url(#clip15)" >
<polyline fill="none" vector-effect="none" points="237,87 238,86 " />
</g>

<g fill="none" stroke="#000000" stroke-opacity="1" stroke-width="1" stroke-linecap="square" stroke-linejoin="bevel" transform="matrix(2.12766,0,0,2.12766,-377.66,-128.723)"
font-family="Helvetica" font-size="16.6667" font-weight="400" font-style="normal" 
clip-path="url(#clip15)" >
<polyline fill="none" vector-effect="none" points="238,86 239,85 " />
</g>

<g fill="none" stroke="#000000" stroke-opacity="1" stroke-width="1" stroke-linecap="square" stroke-linejoin="bevel" transform="matrix(2.12766,0,0,2.12766,-377.66,-128.723)"
font-family="Helvetica" font-size="16.6667" font-weight="400" font-style="normal" 
clip-path="url(#clip15)" >
<polyline fill="none" vector-effect="none" points="239,85 240,84 " />
</g>

<g fill="none" stroke="#000000" stroke-opacity="1" stroke-width="1" stroke-linecap="square" stroke-linejoin="bevel" transform="matrix(2.12766,0,0,2.12766,-377.66,-128.723)"
font-family="Helvetica" font-size="16.6667" font-weight="400" font-style="normal" 
clip-path="url(#clip15)" >
<polyline fill="none" vector-effect="none" points="240,84 241,84 " />
</g>

<g fill="none" stroke="#000000" stroke-opacity="1" stroke-width="1" stroke-linecap="square" stroke-linejoin="bevel" transform="matrix(2.12766,0,0,2.12766,-377.66,-128.723)"
font-family="Helvetica" font-size="16.6667" font-weight="400" font-style="normal" 
clip-path="url(#clip15)" >
<polyline fill="none" vector-effect="none" points="241,84 242,84 " />
</g>

<g fill="none" stroke="#000000" stroke-opacity="1" stroke-width="1" stroke-linecap="square" stroke-linejoin="bevel" transform="matrix(2.12766,0,0,2.12766,-377.66,-128.723)"
font-family="Helvetica" font-size="16.6667" font-weight="400" font-style="normal" 
clip-path="url(#clip15)" >
<polyline fill="none" vector-effect="none" points="242,84 243,84 " />
</g>

<g fill="none" stroke="#000000" stroke-opacity="1" stroke-width="1" stroke-linecap="square" stroke-linejoin="bevel" transform="matrix(2.12766,0,0,2.12766,-377.66,-128.723)"
font-family="Helvetica" font-size="16.6667" font-weight="400" font-style="normal" 
clip-path="url(#clip15)" >
<polyline fill="none" vector-effect="none" points="243,84 244,84 " />
</g>

<g fill="none" stroke="#000000" stroke-opacity="1" stroke-width="1" stroke-linecap="square" stroke-linejoin="bevel" transform="matrix(2.12766,0,0,2.12766,-377.66,-128.723)"
font-family="Helvetica" font-size="16.6667" font-weight="400" font-style="normal" 
clip-path="url(#clip15)" >
<polyline fill="none" vector-effect="none" points="244,84 245,84 " />
</g>

<g fill="none" stroke="#000000" stroke-opacity="1" stroke-width="1" stroke-linecap="square" stroke-linejoin="bevel" transform="matrix(2.12766,0,0,2.12766,-377.66,-128.723)"
font-family="Helvetica" font-size="16.6667" font-weight="400" font-style="normal" 
clip-path="url(#clip15)" >
<polyline fill="none" vector-effect="none" points="245,84 246,85 " />
</g>

<g fill="none" stroke="#000000" stroke-opacity="1" stroke-width="1" stroke-linecap="square" stroke-linejoin="bevel" transform="matrix(2.12766,0,0,2.12766,-377.66,-128.723)"
font-family="Helvetica" font-size="16.6667" font-weight="400" font-style="normal" 
clip-path="url(#clip15)" >
<polyline fill="none" vector-effect="none" points="246,85 247,86 " />
</g>

<g fill="none" stroke="#000000" stroke-opacity="1" stroke-width="1" stroke-linecap="square" stroke-linejoin="bevel" transform="matrix(2.12766,0,0,2.12766,-377.66,-128.723)"
font-family="Helvetica" font-size="16.6667" font-weight="400" font-style="normal" 
clip-path="url(#clip15)" >
<polyline fill="none" vector-effect="none" points="247,86 248,86 " />
</g>

<g fill="none" stroke="#000000" stroke-opacity="1" stroke-width="1" stroke-linecap="square" stroke-linejoin="bevel" transform="matrix(2.12766,0,0,2.12766,-377.66,-128.723)"
font-family="Helvetica" font-size="16.6667" font-weight="400" font-style="normal" 
clip-path="url(#clip15)" >
<polyline fill="none" vector-effect="none" points="248,86 249,86 " />
</g>

<g fill="none" stroke="#000000" stroke-opacity="1" stroke-width="1" stroke-linecap="square" stroke-linejoin="bevel" transform="matrix(2.12766,0,0,2.12766,-377.66,-128.723)"
font-family="Helvetica" font-size="16.6667" font-weight="400" font-style="normal" 
clip-path="url(#clip15)" >
<polyline fill="none" vector-effect="none" points="249,86 250,86 " />
</g>

<g fill="none" stroke="#000000" stroke-opacity="1" stroke-width="1" stroke-linecap="square" stroke-linejoin="bevel" transform="matrix(2.12766,0,0,2.12766,-377.66,-128.723)"
font-family="Helvetica" font-size="16.6667" font-weight="400" font-style="normal" 
clip-path="url(#clip15)" >
<polyline fill="none" vector-effect="none" points="250,86 251,86 " />
</g>

<g fill="none" stroke="#000000" stroke-opacity="1" stroke-width="1" stroke-linecap="square" stroke-linejoin="bevel" transform="matrix(2.12766,0,0,2.12766,-377.66,-128.723)"
font-family="Helvetica" font-size="16.6667" font-weight="400" font-style="normal" 
clip-path="url(#clip15)" >
<polyline fill="none" vector-effect="none" points="251,86 252,85 " />
</g>

<g fill="none" stroke="#000000" stroke-opacity="1" stroke-width="1" stroke-linecap="square" stroke-linejoin="bevel" transform="matrix(2.12766,0,0,2.12766,-377.66,-128.723)"
font-family="Helvetica" font-size="16.6667" font-weight="400" font-style="normal" 
clip-path="url(#clip15)" >
<polyline fill="none" vector-effect="none" points="252,85 253,85 " />
</g>

<g fill="none" stroke="#000000" stroke-opacity="1" stroke-width="1" stroke-linecap="square" stroke-linejoin="bevel" transform="matrix(2.12766,0,0,2.12766,-377.66,-128.723)"
font-family="Helvetica" font-size="16.6667" font-weight="400" font-style="normal" 
clip-path="url(#clip15)" >
<polyline fill="none" vector-effect="none" points="253,85 254,85 " />
</g>

<g fill="none" stroke="#000000" stroke-opacity="1" stroke-width="1" stroke-linecap="square" stroke-linejoin="bevel" transform="matrix(2.12766,0,0,2.12766,-377.66,-128.723)"
font-family="Helvetica" font-size="16.6667" font-weight="400" font-style="normal" 
clip-path="url(#clip15)" >
<polyline fill="none" vector-effect="none" points="254,85 255,85 " />
</g>

<g fill="none" stroke="#000000" stroke-opacity="1" stroke-width="1" stroke-linecap="square" stroke-linejoin="bevel" transform="matrix(2.12766,0,0,2.12766,-377.66,-128.723)"
font-family="Helvetica" font-size="16.6667" font-weight="400" font-style="normal" 
clip-path="url(#clip15)" >
<polyline fill="none" vector-effect="none" points="255,85 256,85 " />
</g>

<g fill="none" stroke="#000000" stroke-opacity="1" stroke-width="1" stroke-linecap="square" stroke-linejoin="bevel" transform="matrix(2.12766,0,0,2.12766,-377.66,-128.723)"
font-family="Helvetica" font-size="16.6667" font-weight="400" font-style="normal" 
clip-path="url(#clip15)" >
<polyline fill="none" vector-effect="none" points="256,85 257,85 " />
</g>

<g fill="none" stroke="#000000" stroke-opacity="1" stroke-width="1" stroke-linecap="square" stroke-linejoin="bevel" transform="matrix(2.12766,0,0,2.12766,-377.66,-128.723)"
font-family="Helvetica" font-size="16.6667" font-weight="400" font-style="normal" 
clip-path="url(#clip15)" >
<polyline fill="none" vector-effect="none" points="257,85 258,85 " />
</g>

<g fill="none" stroke="#000000" stroke-opacity="1" stroke-width="1" stroke-linecap="square" stroke-linejoin="bevel" transform="matrix(2.12766,0,0,2.12766,-377.66,-128.723)"
font-family="Helvetica" font-size="16.6667" font-weight="400" font-style="normal" 
clip-path="url(#clip15)" >
<polyline fill="none" vector-effect="none" points="258,85 259,85 " />
</g>

<g fill="none" stroke="#000000" stroke-opacity="1" stroke-width="1" stroke-linecap="square" stroke-linejoin="bevel" transform="matrix(2.12766,0,0,2.12766,-377.66,-128.723)"
font-family="Helvetica" font-size="16.6667" font-weight="400" font-style="normal" 
clip-path="url(#clip15)" >
<polyline fill="none" vector-effect="none" points="259,85 260,85 " />
</g>

<g fill="none" stroke="#000000" stroke-opacity="1" stroke-width="1" stroke-linecap="square" stroke-linejoin="bevel" transform="matrix(2.12766,0,0,2.12766,-377.66,-128.723)"
font-family="Helvetica" font-size="16.6667" font-weight="400" font-style="normal" 
clip-path="url(#clip15)" >
<polyline fill="none" vector-effect="none" points="260,85 261,85 " />
</g>

<g fill="none" stroke="#000000" stroke-opacity="1" stroke-width="1" stroke-linecap="square" stroke-linejoin="bevel" transform="matrix(2.12766,0,0,2.12766,-377.66,-128.723)"
font-family="Helvetica" font-size="16.6667" font-weight="400" font-style="normal" 
clip-path="url(#clip15)" >
<polyline fill="none" vector-effect="none" points="261,85 262,85 " />
</g>

<g fill="none" stroke="#000000" stroke-opacity="1" stroke-width="1" stroke-linecap="square" stroke-linejoin="bevel" transform="matrix(2.12766,0,0,2.12766,97.8723,76.5957)"
font-family="Liberation Sans" font-size="10" font-weight="400" font-style="normal" 
clip-path="url(#clip16)" >
<defs><clipPath id="clip16"><path vector-effect="none" fill-rule="evenodd" d="M-39,-34 L41,-34 L41,10 L-39,10 L-39,-34z "/>
</clipPath></defs></g>

<g fill="none" stroke="#000000" stroke-opacity="1" stroke-width="1" stroke-linecap="square" stroke-linejoin="bevel" transform="matrix(2.12766,0,0,2.12766,97.8723,76.5957)"
font-family="Liberation Sans" font-size="10" font-weight="400" font-style="normal" 
clip-path="url(#clip16)" >
<text textLength="52.125" fill="#000000" fill-opacity="1" stroke="none" xml:space="preserve" x="-26" y="3" font-family="Liberation Sans" font-size="10" font-weight="400" font-style="normal" 
 >Square root</text>
</g>

<g fill="none" stroke="#000000" stroke-opacity="1" stroke-width="1" stroke-linecap="square" stroke-linejoin="bevel" transform="matrix(2.12766,0,0,2.12766,97.8723,76.5957)"
font-family="Liberation Sans" font-size="10" font-weight="400" font-style="normal" 
clip-path="url(#clip16)" >
</g>

<g fill="none" stroke="#000000" stroke-opacity="1" stroke-width="1" stroke-linecap="square" stroke-linejoin="bevel" transform="matrix(2.12766,0,0,2.12766,97.8723,76.5957)"
font-family="Liberation Sans" font-size="10" font-weight="400" font-style="normal" 
clip-path="url(#clip17)" >
<defs><clipPath id="clip17"><path vector-effect="none" fill-rule="evenodd" d="M-7,-2 L87,-2 L87,46 L-7,46 L-7,-2z "/>
</clipPath></defs></g>

<g fill="none" stroke="#000000" stroke-opacity="1" stroke-width="1" stroke-linecap="square" stroke-linejoin="bevel" transform="matrix(1,0,0,1,0,0)"
font-family="Liberation Sans" font-size="10" font-weight="400" font-style="normal" 
clip-path="url(#clip17)" >
</g>

<g fill="none" stroke="#000000" stroke-opacity="1" stroke-width="1" stroke-linecap="square" stroke-linejoin="bevel" transform="matrix(2.12766,0,0,2.12766,14.8936,4.25532)"
font-family="Helvetica" font-size="16.6667" font-weight="400" font-style="normal" 
clip-path="url(#clip17)" >
</g>

<g fill="none" stroke="#000000" stroke-opacity="1" stroke-width="1" stroke-linecap="square" stroke-linejoin="bevel" transform="matrix(2.12766,0,0,2.12766,14.8936,4.25532)"
font-family="Helvetica" font-size="16.6667" font-weight="400" font-style="normal" 
clip-path="url(#clip17)" >
</g>

<g fill="none" stroke="#000000" stroke-opacity="1" stroke-width="0.739331" stroke-linecap="butt" stroke-linejoin="miter" stroke-miterlimit="2" transform="matrix(2.12766,0,0,2.12766,14.8936,4.25532)"
font-family="Helvetica" font-size="16.6667" font-weight="400" font-style="normal" 
clip-path="url(#clip17)" >
<path vector-effect="none" fill-rule="evenodd" d="M0,0 L80,0 L80,44 L0,44 L0,0z "/>
</g>

<g fill="none" stroke="#000000" stroke-opacity="1" stroke-width="1" stroke-linecap="square" stroke-linejoin="bevel" transform="matrix(2.12766,0,0,2.12766,14.8936,4.25532)"
font-family="Helvetica" font-size="16.6667" font-weight="400" font-style="normal" 
clip-path="url(#clip17)" >
</g>

<g fill="none" stroke="#000000" stroke-opacity="1" stroke-width="1" stroke-linecap="square" stroke-linejoin="bevel" transform="matrix(1,0,0,1,0,0)"
font-family="Helvetica" font-size="16.6667" font-weight="400" font-style="normal" 
>
</g>

<g fill="none" stroke="#000000" stroke-opacity="1" stroke-width="1" stroke-linecap="square" stroke-linejoin="bevel" transform="matrix(1,0,0,1,0,0)"
font-family="Helvetica" font-size="16.6667" font-weight="400" font-style="normal" 
>
</g>

<g fill="none" stroke="#000000" stroke-opacity="1" stroke-width="1" stroke-linecap="square" stroke-linejoin="bevel" transform="matrix(1,0,0,1,0,0)"
font-family="Helvetica" font-size="16.6667" font-weight="400" font-style="normal" 
clip-path="url(#clip18)" >
<defs><clipPath id="clip18"><path vector-effect="non-scaling-stroke" fill-rule="evenodd" d="M0,0 L200,0 L200,102 L0,102 L0,0z "/>
</clipPath></defs></g>

<g fill="none" stroke="#000000" stroke-opacity="1" stroke-width="1" stroke-linecap="square" stroke-linejoin="bevel" transform="matrix(1,0,0,1,0,0)"
font-family="Helvetica" font-size="16.6667" font-weight="400" font-style="normal" 
>
</g>

<g fill="none" stroke="#000000" stroke-opacity="1" stroke-width="1" stroke-linecap="square" stroke-linejoin="bevel" transform="matrix(1,0,0,1,0,0)"
font-family="Helvetica" font-size="16.6667" font-weight="400" font-style="normal" 
>
</g>

<g fill="none" stroke="#000000" stroke-opacity="1" stroke-width="1" stroke-linecap="square" stroke-linejoin="bevel" transform="matrix(1,0,0,1,0,0)"
font-family="Helvetica" font-size="16.6667" font-weight="400" font-style="normal" 
clip-path="url(#clip19)" >
<defs><clipPath id="clip19"><path vector-effect="non-scaling-stroke" fill-rule="evenodd" d="M0,0 L1,0 L1,1 L0,1 L0,0z "/>
</clipPath></defs></g>

<g fill="none" stroke="#000000" stroke-opacity="1" stroke-width="1" stroke-linecap="square" stroke-linejoin="bevel" transform="matrix(1,0,0,1,0,0)"
font-family="Helvetica" font-size="16.6667" font-weight="400" font-style="normal" 
>
</g>

<g fill="none" stroke="#000000" stroke-opacity="1" stroke-width="1" stroke-linecap="square" stroke-linejoin="bevel" transform="matrix(1,0,0,1,0,0)"
font-family="Helvetica" font-size="16.6667" font-weight="400" font-style="normal" 
>
</g>
</g>
</svg>
