<?xml version="1.0" encoding="UTF-8"?><svg width="52.9167mm" height="45.5083mm" viewBox="0 0 200 172" xmlns="http://www.w3.org/2000/svg" xmlns:xlink="http://www.w3.org/1999/xlink"><g fill="none" stroke="black" stroke-width="1" fill-rule="evenodd" stroke-linecap="square" stroke-linejoin="bevel"><g clip-path="none" fill="none" opacity="1" stroke="none" stroke-opacity="0" transform="matrix(1,0,0,1,0,0)"><path d="M0,0 L200,0 L200,172 L0,172 L0,0 z" fill-rule="evenodd" vector-effect="none"/></g><defs><clipPath id="clip3"><path d="M-72,-34 L7,-34 L7,34 L-72,34 L-72,-34 z"/></clipPath></defs><g clip-path="url(#clip3)" fill="none" opacity="1" stroke="#000000" stroke-linecap="round" stroke-linejoin="miter" stroke-miterlimit="2" stroke-opacity="1" stroke-width="2" transform="matrix(2.53165,0,0,2.53165,182.278,86.0759)"><path d="M0,-5 L5,0 L0,5" fill-rule="evenodd" vector-effect="none"/></g><defs><clipPath id="clip6"><path d="M7,49 L-72,49 L-72,-19 L7,-19 L7,49 z"/></clipPath></defs><g clip-path="url(#clip6)" fill="none" opacity="1" stroke="#000000" stroke-linecap="round" stroke-linejoin="miter" stroke-miterlimit="2" stroke-opacity="1" stroke-width="2" transform="matrix(-2.53165,0,0,-2.53165,17.7215,124.051)"><path d="M5,-5 L0,0 L5,5" fill-rule="evenodd" vector-effect="none"/></g><defs><clipPath id="clip9"><path d="M7,19 L-72,19 L-72,-49 L7,-49 L7,19 z"/></clipPath></defs><g clip-path="url(#clip9)" fill="none" opacity="1" stroke="#000000" stroke-linecap="round" stroke-linejoin="miter" stroke-miterlimit="2" stroke-opacity="1" stroke-width="2" transform="matrix(-2.53165,0,0,-2.53165,17.7215,48.1013)"><path d="M5,-5 L0,0 L5,5" fill-rule="evenodd" vector-effect="none"/></g><defs><clipPath id="clip12"><path d="M-7,-2 L72,-2 L72,66 L-7,66 L-7,-2 z"/></clipPath></defs><g clip-path="url(#clip12)" fill="#ffffff" fill-opacity="1" opacity="1" stroke="none" stroke-opacity="0" transform="matrix(2.53165,0,0,2.53165,17.7215,5.06329)"><path d="M0,0 L65,0 L65,64 L0,64 L0,0 z" fill-rule="evenodd" vector-effect="none"/></g><defs><clipPath id="clip16"><path d="M250,158 L315,158 L315,222 L250,222 L250,158 z"/></clipPath></defs><g clip-path="url(#clip16)" fill="none" opacity="1" stroke="#000000" stroke-linecap="butt" stroke-linejoin="miter" stroke-miterlimit="2" stroke-opacity="1" stroke-width="0.395" transform="matrix(2.53165,0,0,2.53165,-613.924,-393.671)"><polyline fill="none" points="263,218 301,218" vector-effect="none"/></g><defs><clipPath id="clip17"><path d="M250,158 L315,158 L315,222 L250,222 L250,158 z"/></clipPath></defs><g clip-path="url(#clip17)" fill="none" opacity="1" stroke="#000000" stroke-linecap="butt" stroke-linejoin="miter" stroke-miterlimit="2" stroke-opacity="1" stroke-width="0.395" transform="matrix(2.53165,0,0,2.53165,-613.924,-393.671)"><polyline fill="none" points="301,218 301,174" vector-effect="none"/></g><defs><clipPath id="clip18"><path d="M250,158 L315,158 L315,222 L250,222 L250,158 z"/></clipPath></defs><g clip-path="url(#clip18)" fill="none" opacity="1" stroke="#000000" stroke-linecap="butt" stroke-linejoin="miter" stroke-miterlimit="2" stroke-opacity="1" stroke-width="0.395" transform="matrix(2.53165,0,0,2.53165,-613.924,-393.671)"><polyline fill="none" points="301,174 263,174" vector-effect="none"/></g><defs><clipPath id="clip19"><path d="M250,158 L315,158 L315,222 L250,222 L250,158 z"/></clipPath></defs><g clip-path="url(#clip19)" fill="none" opacity="1" stroke="#000000" stroke-linecap="butt" stroke-linejoin="miter" stroke-miterlimit="2" stroke-opacity="1" stroke-width="0.395" transform="matrix(2.53165,0,0,2.53165,-613.924,-393.671)"><polyline fill="none" points="263,174 263,218" vector-effect="none"/></g><defs><clipPath id="clip20"><path d="M250,158 L315,158 L315,222 L250,222 L250,158 z"/></clipPath></defs><g clip-path="url(#clip20)" fill="none" opacity="1" stroke="#000000" stroke-linecap="butt" stroke-linejoin="miter" stroke-miterlimit="2" stroke-opacity="1" stroke-width="0.395" transform="matrix(2.53165,0,0,2.53165,-613.924,-393.671)"><polyline fill="none" points="276,218 276,174" vector-effect="none"/></g><defs><clipPath id="clip21"><path d="M250,158 L315,158 L315,222 L250,222 L250,158 z"/></clipPath></defs><g clip-path="url(#clip21)" fill="none" opacity="1" stroke="#000000" stroke-linecap="butt" stroke-linejoin="miter" stroke-miterlimit="2" stroke-opacity="1" stroke-width="0.395" transform="matrix(2.53165,0,0,2.53165,-613.924,-393.671)"><polyline fill="none" points="282,218 282,174" vector-effect="none"/></g><defs><clipPath id="clip22"><path d="M250,158 L315,158 L315,222 L250,222 L250,158 z"/></clipPath></defs><g clip-path="url(#clip22)" fill="none" opacity="1" stroke="#000000" stroke-linecap="butt" stroke-linejoin="miter" stroke-miterlimit="2" stroke-opacity="1" stroke-width="0.395" transform="matrix(2.53165,0,0,2.53165,-613.924,-393.671)"><polyline fill="none" points="263,205 301,205" vector-effect="none"/></g><defs><clipPath id="clip23"><path d="M250,158 L315,158 L315,222 L250,222 L250,158 z"/></clipPath></defs><g clip-path="url(#clip23)" fill="none" opacity="1" stroke="#000000" stroke-linecap="butt" stroke-linejoin="miter" stroke-miterlimit="2" stroke-opacity="1" stroke-width="0.395" transform="matrix(2.53165,0,0,2.53165,-613.924,-393.671)"><polyline fill="none" points="263,199 301,199" vector-effect="none"/></g><defs><clipPath id="clip24"><path d="M250,158 L315,158 L315,222 L250,222 L250,158 z"/></clipPath></defs><g clip-path="url(#clip24)" fill="none" opacity="1" stroke="#000000" stroke-linecap="butt" stroke-linejoin="miter" stroke-miterlimit="2" stroke-opacity="1" stroke-width="0.395" transform="matrix(2.53165,0,0,2.53165,-613.924,-393.671)"><polyline fill="none" points="279,202 288,190" vector-effect="none"/></g><defs><clipPath id="clip25"><path d="M250,158 L315,158 L315,222 L250,222 L250,158 z"/></clipPath></defs><g clip-path="url(#clip25)" fill="none" opacity="1" stroke="#000000" stroke-linecap="butt" stroke-linejoin="miter" stroke-miterlimit="2" stroke-opacity="1" stroke-width="0.395" transform="matrix(2.53165,0,0,2.53165,-613.924,-393.671)"><polyline fill="none" points="288,190 304,190" vector-effect="none"/></g><defs><clipPath id="clip26"><path d="M250,158 L315,158 L315,222 L250,222 L250,158 z"/></clipPath></defs><g clip-path="url(#clip26)" fill="none" opacity="1" stroke="#000000" stroke-linecap="butt" stroke-linejoin="miter" stroke-miterlimit="2" stroke-opacity="1" stroke-width="0.395" transform="matrix(2.53165,0,0,2.53165,-613.924,-393.671)"><polyline fill="none" points="304,191 304,188" vector-effect="none"/></g><defs><clipPath id="clip27"><path d="M250,158 L315,158 L315,222 L250,222 L250,158 z"/></clipPath></defs><g clip-path="url(#clip27)" fill="none" opacity="1" stroke="#000000" stroke-linecap="butt" stroke-linejoin="miter" stroke-miterlimit="2" stroke-opacity="1" stroke-width="0.395" transform="matrix(2.53165,0,0,2.53165,-613.924,-393.671)"><polyline fill="none" points="304,188 309,188" vector-effect="none"/></g><defs><clipPath id="clip28"><path d="M250,158 L315,158 L315,222 L250,222 L250,158 z"/></clipPath></defs><g clip-path="url(#clip28)" fill="none" opacity="1" stroke="#000000" stroke-linecap="butt" stroke-linejoin="miter" stroke-miterlimit="2" stroke-opacity="1" stroke-width="0.395" transform="matrix(2.53165,0,0,2.53165,-613.924,-393.671)"><polyline fill="none" points="309,188 309,184" vector-effect="none"/></g><defs><clipPath id="clip29"><path d="M250,158 L315,158 L315,222 L250,222 L250,158 z"/></clipPath></defs><g clip-path="url(#clip29)" fill="none" opacity="1" stroke="#000000" stroke-linecap="butt" stroke-linejoin="miter" stroke-miterlimit="2" stroke-opacity="1" stroke-width="0.395" transform="matrix(2.53165,0,0,2.53165,-613.924,-393.671)"><polyline fill="none" points="309,184 313,190" vector-effect="none"/></g><defs><clipPath id="clip30"><path d="M250,158 L315,158 L315,222 L250,222 L250,158 z"/></clipPath></defs><g clip-path="url(#clip30)" fill="none" opacity="1" stroke="#000000" stroke-linecap="butt" stroke-linejoin="miter" stroke-miterlimit="2" stroke-opacity="1" stroke-width="0.395" transform="matrix(2.53165,0,0,2.53165,-613.924,-393.671)"><polyline fill="none" points="313,190 309,195" vector-effect="none"/></g><defs><clipPath id="clip31"><path d="M250,158 L315,158 L315,222 L250,222 L250,158 z"/></clipPath></defs><g clip-path="url(#clip31)" fill="none" opacity="1" stroke="#000000" stroke-linecap="butt" stroke-linejoin="miter" stroke-miterlimit="2" stroke-opacity="1" stroke-width="0.395" transform="matrix(2.53165,0,0,2.53165,-613.924,-393.671)"><polyline fill="none" points="309,195 309,191" vector-effect="none"/></g><defs><clipPath id="clip32"><path d="M250,158 L315,158 L315,222 L250,222 L250,158 z"/></clipPath></defs><g clip-path="url(#clip32)" fill="none" opacity="1" stroke="#000000" stroke-linecap="butt" stroke-linejoin="miter" stroke-miterlimit="2" stroke-opacity="1" stroke-width="0.395" transform="matrix(2.53165,0,0,2.53165,-613.924,-393.671)"><polyline fill="none" points="309,191 304,191" vector-effect="none"/></g><defs><clipPath id="clip33"><path d="M250,158 L315,158 L315,222 L250,222 L250,158 z"/></clipPath></defs><g clip-path="url(#clip33)" fill="#000000" fill-opacity="1" opacity="1" stroke="#000000" stroke-linecap="butt" stroke-linejoin="miter" stroke-miterlimit="2" stroke-opacity="1" stroke-width="0.395" transform="matrix(2.53165,0,0,2.53165,-615.19,-394.937)"><path d="M277,206 L283,206 L283,200 L277,200 L277,206 z" fill-rule="evenodd" vector-effect="none"/></g><defs><clipPath id="clip35"><path d="M-164,-36 L169,-36 L169,292 L-164,292 L-164,-36 z"/></clipPath></defs><g clip-path="url(#clip35)" fill="#000000" fill-opacity="1" opacity="1" stroke="#000000" stroke-linecap="butt" stroke-linejoin="miter" stroke-miterlimit="2" stroke-opacity="1" stroke-width="0.395" transform="matrix(0.494462,0,0,0.494462,98.7342,22.7848)"><text fill="#000000" fill-opacity="1" font-family="Liberation Sans" font-size="40" font-style="normal" font-weight="400" stroke="none" textLength="139" x="-90.3281" xml:space="preserve" y="17.9219">n-D T[k]</text></g><defs><clipPath id="clip41"><path d="M-7,-2 L72,-2 L72,66 L-7,66 L-7,-2 z"/></clipPath></defs><g clip-path="url(#clip41)" fill="none" opacity="1" stroke="#000000" stroke-linecap="butt" stroke-linejoin="miter" stroke-miterlimit="2" stroke-opacity="1" stroke-width="0.689666" transform="matrix(2.53165,0,0,2.53165,17.7215,5.06329)"><path d="M0,0 L65,0 L65,64 L0,64 L0,0 z" fill-rule="evenodd" vector-effect="none"/></g></g></svg>
