<?xml version="1.0" encoding="UTF-8"?><svg width="52.9167mm" height="28.3104mm" viewBox="0 0 200 107" xmlns="http://www.w3.org/2000/svg" xmlns:xlink="http://www.w3.org/1999/xlink"><g fill="none" stroke="black" stroke-width="1" fill-rule="evenodd" stroke-linecap="square" stroke-linejoin="bevel"><g clip-path="none" fill="none" opacity="1" stroke="none" stroke-opacity="0" transform="matrix(1,0,0,1,0,0)"><path d="M0,0 L200,0 L200,107 L0,107 L0,0 z" fill-rule="evenodd" vector-effect="none"/></g><defs><clipPath id="clip3"><path d="M-82,-24 L7,-24 L7,24 L-82,24 L-82,-24 z"/></clipPath></defs><g clip-path="url(#clip3)" fill="none" opacity="1" stroke="#000000" stroke-linecap="round" stroke-linejoin="miter" stroke-miterlimit="2" stroke-opacity="1" stroke-width="2" transform="matrix(2.24719,0,0,2.24719,184.27,53.9326)"><path d="M0,-5 L5,0 L0,5" fill-rule="evenodd" vector-effect="none"/></g><defs><clipPath id="clip6"><path d="M-2,-2 L87,-2 L87,46 L-2,46 L-2,-2 z"/></clipPath></defs><g clip-path="url(#clip6)" fill="#ffffff" fill-opacity="1" opacity="1" stroke="none" stroke-opacity="0" transform="matrix(2.24719,0,0,2.24719,4.49438,4.49438)"><path d="M0,0 L80,0 L80,44 L0,44 L0,0 z" fill-rule="evenodd" vector-effect="none"/></g><defs><clipPath id="clip11"><path d="M-40,-17 L40,-17 L40,27 L-40,27 L-40,-17 z"/></clipPath></defs><g clip-path="url(#clip11)" fill="none" opacity="1" stroke="#000000" stroke-linecap="butt" stroke-linejoin="miter" stroke-miterlimit="2" stroke-opacity="1" stroke-width="0.445" transform="matrix(2.24719,0,0,2.24719,94.382,42.6966)"><text fill="#000000" fill-opacity="1" font-family="Liberation Sans" font-size="10" font-style="normal" font-weight="400" stroke="none" textLength="66" x="-33" xml:space="preserve" y="3.5">PN Sequence</text></g><defs><clipPath id="clip14"><path d="M-40,-27 L40,-27 L40,17 L-40,17 L-40,-27 z"/></clipPath></defs><g clip-path="url(#clip14)" fill="none" opacity="1" stroke="#000000" stroke-linecap="butt" stroke-linejoin="miter" stroke-miterlimit="2" stroke-opacity="1" stroke-width="0.445" transform="matrix(2.24719,0,0,2.24719,94.382,65.1685)"><text fill="#000000" fill-opacity="1" font-family="Liberation Sans" font-size="10" font-style="normal" font-weight="400" stroke="none" textLength="47" x="-23.5" xml:space="preserve" y="3.5">Generator</text></g><defs><clipPath id="clip20"><path d="M-2,-2 L87,-2 L87,46 L-2,46 L-2,-2 z"/></clipPath></defs><g clip-path="url(#clip20)" fill="none" opacity="1" stroke="#000000" stroke-linecap="butt" stroke-linejoin="miter" stroke-miterlimit="2" stroke-opacity="1" stroke-width="0.723343" transform="matrix(2.24719,0,0,2.24719,4.49438,4.49438)"><path d="M0,0 L80,0 L80,44 L0,44 L0,0 z" fill-rule="evenodd" vector-effect="none"/></g></g></svg>
