<?xml version="1.0" encoding="UTF-8" standalone="no"?>
<svg width="70.5556mm" height="30.6917mm"
 viewBox="0 0 200 87"
 xmlns="http://www.w3.org/2000/svg" xmlns:xlink="http://www.w3.org/1999/xlink"  version="1.2" baseProfile="tiny">
<defs>
</defs>
<g fill="none" stroke="black" stroke-width="1" fill-rule="evenodd" stroke-linecap="square" stroke-linejoin="bevel" >

<g fill="#ffffff" fill-opacity="0" stroke="none" transform="matrix(1,0,0,1,0,0)"
font-family="Helvetica" font-size="12" font-weight="400" font-style="normal" 
>
<path vector-effect="non-scaling-stroke" fill-rule="evenodd" d="M0,0 L200,0 L200,87 L0,87 L0,0z "/>
</g>

<g fill="none" stroke="#000000" stroke-opacity="1" stroke-width="1" stroke-linecap="square" stroke-linejoin="bevel" transform="matrix(1,0,0,1,0,0)"
font-family="Helvetica" font-size="12" font-weight="400" font-style="normal" 
>
</g>

<g fill="none" stroke="#000000" stroke-opacity="1" stroke-width="1" stroke-linecap="square" stroke-linejoin="bevel" transform="matrix(1,0,0,1,0,0)"
font-family="Helvetica" font-size="12" font-weight="400" font-style="normal" 
clip-path="url(#clip318)" >
<defs><clipPath id="clip318"><path vector-effect="non-scaling-stroke" fill-rule="evenodd" d="M0,0 L200,0 L200,87.1508 L0,87.1508 L0,0z "/>
</clipPath></defs></g>

<g fill="none" stroke="#000000" stroke-opacity="1" stroke-width="1" stroke-linecap="square" stroke-linejoin="bevel" transform="matrix(1.11732,0,0,1.11732,192.179,77.095)"
font-family="Helvetica" font-size="12" font-weight="400" font-style="normal" 
clip-path="url(#clip319)" >
<defs><clipPath id="clip319"><path vector-effect="non-scaling-stroke" fill-rule="evenodd" d="M-172,-69 L7,-69 L7,9 L-172,9 L-172,-69z "/>
</clipPath></defs></g>

<g fill="#000000" fill-opacity="0" stroke="#000000" stroke-opacity="1" stroke-width="2" stroke-linecap="round" stroke-linejoin="miter" stroke-miterlimit="2" transform="matrix(1.11732,0,0,1.11732,192.179,77.095)"
font-family="Helvetica" font-size="12" font-weight="400" font-style="normal" 
clip-path="url(#clip319)" >
<path vector-effect="none" fill-rule="evenodd" d="M0,-5 L5,0 L0,5"/>
</g>

<g fill="none" stroke="#000000" stroke-opacity="1" stroke-width="1" stroke-linecap="square" stroke-linejoin="bevel" transform="matrix(1.11732,0,0,1.11732,192.179,77.095)"
font-family="Helvetica" font-size="12" font-weight="400" font-style="normal" 
clip-path="url(#clip319)" >
</g>

<g fill="none" stroke="#000000" stroke-opacity="1" stroke-width="1" stroke-linecap="square" stroke-linejoin="bevel" transform="matrix(-1.11732,0,0,-1.11732,7.82123,77.095)"
font-family="Helvetica" font-size="12" font-weight="400" font-style="normal" 
clip-path="url(#clip320)" >
<defs><clipPath id="clip320"><path vector-effect="non-scaling-stroke" fill-rule="evenodd" d="M7,69 L-172,69 L-172,-9 L7,-9 L7,69z "/>
</clipPath></defs></g>

<g fill="#000000" fill-opacity="0" stroke="#000000" stroke-opacity="1" stroke-width="2" stroke-linecap="round" stroke-linejoin="miter" stroke-miterlimit="2" transform="matrix(-1.11732,0,0,-1.11732,7.82123,77.095)"
font-family="Helvetica" font-size="12" font-weight="400" font-style="normal" 
clip-path="url(#clip320)" >
<path vector-effect="none" fill-rule="evenodd" d="M5,-5 L0,0 L5,5"/>
</g>

<g fill="none" stroke="#000000" stroke-opacity="1" stroke-width="1" stroke-linecap="square" stroke-linejoin="bevel" transform="matrix(-1.11732,0,0,-1.11732,7.82123,77.095)"
font-family="Helvetica" font-size="12" font-weight="400" font-style="normal" 
clip-path="url(#clip320)" >
</g>

<g fill="none" stroke="#000000" stroke-opacity="1" stroke-width="1" stroke-linecap="square" stroke-linejoin="bevel" transform="matrix(1.11732,0,0,1.11732,192.179,60.3352)"
font-family="Helvetica" font-size="12" font-weight="400" font-style="normal" 
clip-path="url(#clip321)" >
<defs><clipPath id="clip321"><path vector-effect="non-scaling-stroke" fill-rule="evenodd" d="M-172,-54 L7,-54 L7,24 L-172,24 L-172,-54z "/>
</clipPath></defs></g>

<g fill="#000000" fill-opacity="0" stroke="#000000" stroke-opacity="1" stroke-width="2" stroke-linecap="round" stroke-linejoin="miter" stroke-miterlimit="2" transform="matrix(1.11732,0,0,1.11732,192.179,60.3352)"
font-family="Helvetica" font-size="12" font-weight="400" font-style="normal" 
clip-path="url(#clip321)" >
<path vector-effect="none" fill-rule="evenodd" d="M0,-5 L5,0 L0,5"/>
</g>

<g fill="none" stroke="#000000" stroke-opacity="1" stroke-width="1" stroke-linecap="square" stroke-linejoin="bevel" transform="matrix(1.11732,0,0,1.11732,192.179,60.3352)"
font-family="Helvetica" font-size="12" font-weight="400" font-style="normal" 
clip-path="url(#clip321)" >
</g>

<g fill="none" stroke="#000000" stroke-opacity="1" stroke-width="1" stroke-linecap="square" stroke-linejoin="bevel" transform="matrix(1.11732,0,0,1.11732,192.179,43.5754)"
font-family="Helvetica" font-size="12" font-weight="400" font-style="normal" 
clip-path="url(#clip322)" >
<defs><clipPath id="clip322"><path vector-effect="non-scaling-stroke" fill-rule="evenodd" d="M-172,-39 L7,-39 L7,39 L-172,39 L-172,-39z "/>
</clipPath></defs></g>

<g fill="#000000" fill-opacity="0" stroke="#000000" stroke-opacity="1" stroke-width="2" stroke-linecap="round" stroke-linejoin="miter" stroke-miterlimit="2" transform="matrix(1.11732,0,0,1.11732,192.179,43.5754)"
font-family="Helvetica" font-size="12" font-weight="400" font-style="normal" 
clip-path="url(#clip322)" >
<path vector-effect="none" fill-rule="evenodd" d="M0,-5 L5,0 L0,5"/>
</g>

<g fill="none" stroke="#000000" stroke-opacity="1" stroke-width="1" stroke-linecap="square" stroke-linejoin="bevel" transform="matrix(1.11732,0,0,1.11732,192.179,43.5754)"
font-family="Helvetica" font-size="12" font-weight="400" font-style="normal" 
clip-path="url(#clip322)" >
</g>

<g fill="none" stroke="#000000" stroke-opacity="1" stroke-width="1" stroke-linecap="square" stroke-linejoin="bevel" transform="matrix(1.11732,0,0,1.11732,192.179,10.0559)"
font-family="Helvetica" font-size="12" font-weight="400" font-style="normal" 
clip-path="url(#clip323)" >
<defs><clipPath id="clip323"><path vector-effect="non-scaling-stroke" fill-rule="evenodd" d="M-172,-9 L7,-9 L7,69 L-172,69 L-172,-9z "/>
</clipPath></defs></g>

<g fill="#000000" fill-opacity="0" stroke="#000000" stroke-opacity="1" stroke-width="2" stroke-linecap="round" stroke-linejoin="miter" stroke-miterlimit="2" transform="matrix(1.11732,0,0,1.11732,192.179,10.0559)"
font-family="Helvetica" font-size="12" font-weight="400" font-style="normal" 
clip-path="url(#clip323)" >
<path vector-effect="none" fill-rule="evenodd" d="M0,-5 L5,0 L0,5"/>
</g>

<g fill="none" stroke="#000000" stroke-opacity="1" stroke-width="1" stroke-linecap="square" stroke-linejoin="bevel" transform="matrix(1.11732,0,0,1.11732,192.179,10.0559)"
font-family="Helvetica" font-size="12" font-weight="400" font-style="normal" 
clip-path="url(#clip323)" >
</g>

<g fill="none" stroke="#000000" stroke-opacity="1" stroke-width="1" stroke-linecap="square" stroke-linejoin="bevel" transform="matrix(-1.11732,0,0,-1.11732,7.82123,54.7486)"
font-family="Helvetica" font-size="12" font-weight="400" font-style="normal" 
clip-path="url(#clip324)" >
<defs><clipPath id="clip324"><path vector-effect="non-scaling-stroke" fill-rule="evenodd" d="M7,49 L-172,49 L-172,-29 L7,-29 L7,49z "/>
</clipPath></defs></g>

<g fill="#000000" fill-opacity="0" stroke="#000000" stroke-opacity="1" stroke-width="2" stroke-linecap="round" stroke-linejoin="miter" stroke-miterlimit="2" transform="matrix(-1.11732,0,0,-1.11732,7.82123,54.7486)"
font-family="Helvetica" font-size="12" font-weight="400" font-style="normal" 
clip-path="url(#clip324)" >
<path vector-effect="none" fill-rule="evenodd" d="M5,-5 L0,0 L5,5"/>
</g>

<g fill="none" stroke="#000000" stroke-opacity="1" stroke-width="1" stroke-linecap="square" stroke-linejoin="bevel" transform="matrix(-1.11732,0,0,-1.11732,7.82123,54.7486)"
font-family="Helvetica" font-size="12" font-weight="400" font-style="normal" 
clip-path="url(#clip324)" >
</g>

<g fill="none" stroke="#000000" stroke-opacity="1" stroke-width="1" stroke-linecap="square" stroke-linejoin="bevel" transform="matrix(-1.11732,0,0,-1.11732,7.82123,32.4022)"
font-family="Helvetica" font-size="12" font-weight="400" font-style="normal" 
clip-path="url(#clip325)" >
<defs><clipPath id="clip325"><path vector-effect="non-scaling-stroke" fill-rule="evenodd" d="M7,29 L-172,29 L-172,-49 L7,-49 L7,29z "/>
</clipPath></defs></g>

<g fill="#000000" fill-opacity="0" stroke="#000000" stroke-opacity="1" stroke-width="2" stroke-linecap="round" stroke-linejoin="miter" stroke-miterlimit="2" transform="matrix(-1.11732,0,0,-1.11732,7.82123,32.4022)"
font-family="Helvetica" font-size="12" font-weight="400" font-style="normal" 
clip-path="url(#clip325)" >
<path vector-effect="none" fill-rule="evenodd" d="M5,-5 L0,0 L5,5"/>
</g>

<g fill="none" stroke="#000000" stroke-opacity="1" stroke-width="1" stroke-linecap="square" stroke-linejoin="bevel" transform="matrix(-1.11732,0,0,-1.11732,7.82123,32.4022)"
font-family="Helvetica" font-size="12" font-weight="400" font-style="normal" 
clip-path="url(#clip325)" >
</g>

<g fill="none" stroke="#000000" stroke-opacity="1" stroke-width="1" stroke-linecap="square" stroke-linejoin="bevel" transform="matrix(1.11732,0,0,1.11732,192.179,26.8156)"
font-family="Helvetica" font-size="12" font-weight="400" font-style="normal" 
clip-path="url(#clip326)" >
<defs><clipPath id="clip326"><path vector-effect="non-scaling-stroke" fill-rule="evenodd" d="M-172,-24 L7,-24 L7,54 L-172,54 L-172,-24z "/>
</clipPath></defs></g>

<g fill="#000000" fill-opacity="0" stroke="#000000" stroke-opacity="1" stroke-width="2" stroke-linecap="round" stroke-linejoin="miter" stroke-miterlimit="2" transform="matrix(1.11732,0,0,1.11732,192.179,26.8156)"
font-family="Helvetica" font-size="12" font-weight="400" font-style="normal" 
clip-path="url(#clip326)" >
<path vector-effect="none" fill-rule="evenodd" d="M0,-5 L5,0 L0,5"/>
</g>

<g fill="none" stroke="#000000" stroke-opacity="1" stroke-width="1" stroke-linecap="square" stroke-linejoin="bevel" transform="matrix(1.11732,0,0,1.11732,192.179,26.8156)"
font-family="Helvetica" font-size="12" font-weight="400" font-style="normal" 
clip-path="url(#clip326)" >
</g>

<g fill="none" stroke="#000000" stroke-opacity="1" stroke-width="1" stroke-linecap="square" stroke-linejoin="bevel" transform="matrix(-1.11732,0,0,-1.11732,7.82123,10.0559)"
font-family="Helvetica" font-size="12" font-weight="400" font-style="normal" 
clip-path="url(#clip327)" >
<defs><clipPath id="clip327"><path vector-effect="non-scaling-stroke" fill-rule="evenodd" d="M7,9 L-172,9 L-172,-69 L7,-69 L7,9z "/>
</clipPath></defs></g>

<g fill="#000000" fill-opacity="0" stroke="#000000" stroke-opacity="1" stroke-width="2" stroke-linecap="round" stroke-linejoin="miter" stroke-miterlimit="2" transform="matrix(-1.11732,0,0,-1.11732,7.82123,10.0559)"
font-family="Helvetica" font-size="12" font-weight="400" font-style="normal" 
clip-path="url(#clip327)" >
<path vector-effect="none" fill-rule="evenodd" d="M5,-5 L0,0 L5,5"/>
</g>

<g fill="none" stroke="#000000" stroke-opacity="1" stroke-width="1" stroke-linecap="square" stroke-linejoin="bevel" transform="matrix(-1.11732,0,0,-1.11732,7.82123,10.0559)"
font-family="Helvetica" font-size="12" font-weight="400" font-style="normal" 
clip-path="url(#clip327)" >
</g>

<g fill="none" stroke="#000000" stroke-opacity="1" stroke-width="1" stroke-linecap="square" stroke-linejoin="bevel" transform="matrix(1.11732,0,0,1.11732,7.82123,2.23464)"
font-family="Helvetica" font-size="12" font-weight="400" font-style="normal" 
clip-path="url(#clip328)" >
<defs><clipPath id="clip328"><path vector-effect="non-scaling-stroke" fill-rule="evenodd" d="M-7,-2 L172,-2 L172,76 L-7,76 L-7,-2z "/>
</clipPath></defs></g>

<g fill="#ffffff" fill-opacity="1" stroke="none" transform="matrix(1.11732,0,0,1.11732,7.82123,2.23464)"
font-family="Helvetica" font-size="12" font-weight="400" font-style="normal" 
clip-path="url(#clip328)" >
<path vector-effect="none" fill-rule="evenodd" d="M0,0 L165,0 L165,74 L0,74 L0,0z "/>
</g>

<g fill="none" stroke="#000000" stroke-opacity="1" stroke-width="1" stroke-linecap="square" stroke-linejoin="bevel" transform="matrix(1.11732,0,0,1.11732,7.82123,2.23464)"
font-family="Helvetica" font-size="12" font-weight="400" font-style="normal" 
clip-path="url(#clip328)" >
</g>

<g fill="none" stroke="#000000" stroke-opacity="1" stroke-width="1" stroke-linecap="square" stroke-linejoin="bevel" transform="matrix(1.11732,0,0,1.11732,7.82123,2.23464)"
font-family="Helvetica" font-size="12" font-weight="400" font-style="normal" 
clip-path="url(#clip328)" >
</g>

<g fill="none" stroke="#000000" stroke-opacity="1" stroke-width="1" stroke-linecap="square" stroke-linejoin="bevel" transform="matrix(1.11732,0,0,1.11732,7.82123,2.23464)"
font-family="Helvetica" font-size="12" font-weight="400" font-style="normal" 
clip-path="url(#clip329)" >
<defs><clipPath id="clip329"><path vector-effect="non-scaling-stroke" fill-rule="evenodd" d="M0,0 L165,0 L165,74 L0,74 L0,0z "/>
</clipPath></defs></g>

<g fill="none" stroke="#000000" stroke-opacity="1" stroke-width="1" stroke-linecap="square" stroke-linejoin="bevel" transform="matrix(1.11732,0,0,1.11732,99.4413,32.4022)"
font-family="Liberation Sans" font-size="7.2" font-weight="400" font-style="normal" 
clip-path="url(#clip330)" >
<defs><clipPath id="clip330"><path vector-effect="none" fill-rule="evenodd" d="M-82,-27 L83,-27 L83,47 L-82,47 L-82,-27z "/>
</clipPath></defs></g>

<g fill="none" stroke="#000000" stroke-opacity="1" stroke-width="1" stroke-linecap="square" stroke-linejoin="bevel" transform="matrix(1.55183,0,0,1.55183,99.4413,32.4022)"
font-family="Liberation Sans" font-size="7.2" font-weight="400" font-style="normal" 
clip-path="url(#clip331)" >
<defs><clipPath id="clip331"><path vector-effect="none" fill-rule="evenodd" d="M-59,-19 L60,-19 L60,34 L-59,34 L-59,-19z "/>
</clipPath></defs><text textLength="45.0781" fill="#000000" fill-opacity="1" stroke="none" xml:space="preserve" x="-23.0312" y="2.17188" font-family="Liberation Sans" font-size="7.2" font-weight="400" font-style="normal" 
 >Integer-Output</text>
</g>

<g fill="none" stroke="#000000" stroke-opacity="1" stroke-width="1" stroke-linecap="square" stroke-linejoin="bevel" transform="matrix(1.11732,0,0,1.11732,99.4413,32.4022)"
font-family="Liberation Sans" font-size="7.2" font-weight="400" font-style="normal" 
clip-path="url(#clip332)" >
<defs><clipPath id="clip332"><path vector-effect="none" fill-rule="evenodd" d="M-82,-27 L83,-27 L83,47 L-82,47 L-82,-27z "/>
</clipPath></defs></g>

<g fill="none" stroke="#000000" stroke-opacity="1" stroke-width="1" stroke-linecap="square" stroke-linejoin="bevel" transform="matrix(1.11732,0,0,1.11732,99.4413,43.5754)"
font-family="Liberation Sans" font-size="7.2" font-weight="400" font-style="normal" 
clip-path="url(#clip333)" >
<defs><clipPath id="clip333"><path vector-effect="none" fill-rule="evenodd" d="M-82,-37 L83,-37 L83,37 L-82,37 L-82,-37z "/>
</clipPath></defs></g>

<g fill="none" stroke="#000000" stroke-opacity="1" stroke-width="1" stroke-linecap="square" stroke-linejoin="bevel" transform="matrix(1.55183,0,0,1.55183,99.4413,43.5754)"
font-family="Liberation Sans" font-size="7.2" font-weight="400" font-style="normal" 
clip-path="url(#clip334)" >
<defs><clipPath id="clip334"><path vector-effect="none" fill-rule="evenodd" d="M-59,-27 L60,-27 L60,26 L-59,26 L-59,-27z "/>
</clipPath></defs><text textLength="38.0781" fill="#000000" fill-opacity="1" stroke="none" xml:space="preserve" x="-19.7969" y="2.17188" font-family="Liberation Sans" font-size="7.2" font-weight="400" font-style="normal" 
 >RS Decoder</text>
</g>

<g fill="none" stroke="#000000" stroke-opacity="1" stroke-width="1" stroke-linecap="square" stroke-linejoin="bevel" transform="matrix(1.11732,0,0,1.11732,99.4413,43.5754)"
font-family="Liberation Sans" font-size="7.2" font-weight="400" font-style="normal" 
clip-path="url(#clip335)" >
<defs><clipPath id="clip335"><path vector-effect="none" fill-rule="evenodd" d="M-82,-37 L83,-37 L83,37 L-82,37 L-82,-37z "/>
</clipPath></defs></g>

<g fill="none" stroke="#000000" stroke-opacity="1" stroke-width="1" stroke-linecap="square" stroke-linejoin="bevel" transform="matrix(1.11732,0,0,1.11732,99.4413,54.7486)"
font-family="Liberation Sans" font-size="7.2" font-weight="400" font-style="normal" 
clip-path="url(#clip336)" >
<defs><clipPath id="clip336"><path vector-effect="none" fill-rule="evenodd" d="M-82,-47 L83,-47 L83,27 L-82,27 L-82,-47z "/>
</clipPath></defs></g>

<g fill="none" stroke="#000000" stroke-opacity="1" stroke-width="1" stroke-linecap="square" stroke-linejoin="bevel" transform="matrix(1.55183,0,0,1.55183,99.4413,54.7486)"
font-family="Liberation Sans" font-size="7.2" font-weight="400" font-style="normal" 
clip-path="url(#clip337)" >
<defs><clipPath id="clip337"><path vector-effect="none" fill-rule="evenodd" d="M-59,-34 L60,-34 L60,19 L-59,19 L-59,-34z "/>
</clipPath></defs><text textLength="47.3906" fill="#000000" fill-opacity="1" stroke="none" xml:space="preserve" x="-24.4688" y="2.17188" font-family="Liberation Sans" font-size="7.2" font-weight="400" font-style="normal" 
 >HDL Optimized</text>
</g>

<g fill="none" stroke="#000000" stroke-opacity="1" stroke-width="1" stroke-linecap="square" stroke-linejoin="bevel" transform="matrix(1.11732,0,0,1.11732,99.4413,54.7486)"
font-family="Liberation Sans" font-size="7.2" font-weight="400" font-style="normal" 
clip-path="url(#clip338)" >
<defs><clipPath id="clip338"><path vector-effect="none" fill-rule="evenodd" d="M-82,-47 L83,-47 L83,27 L-82,27 L-82,-47z "/>
</clipPath></defs></g>

<g fill="none" stroke="#000000" stroke-opacity="1" stroke-width="1" stroke-linecap="square" stroke-linejoin="bevel" transform="matrix(1.11732,0,0,1.11732,11.1732,10.0559)"
font-family="Liberation Sans" font-size="7.2" font-weight="400" font-style="normal" 
clip-path="url(#clip339)" >
<defs><clipPath id="clip339"><path vector-effect="none" fill-rule="evenodd" d="M-3,-7 L162,-7 L162,67 L-3,67 L-3,-7z "/>
</clipPath></defs></g>

<g fill="none" stroke="#000000" stroke-opacity="1" stroke-width="1" stroke-linecap="square" stroke-linejoin="bevel" transform="matrix(1.55183,0,0,1.55183,11.1732,10.0559)"
font-family="Liberation Sans" font-size="7.2" font-weight="400" font-style="normal" 
clip-path="url(#clip340)" >
<defs><clipPath id="clip340"><path vector-effect="none" fill-rule="evenodd" d="M-2,-5 L117,-5 L117,48 L-2,48 L-2,-5z "/>
</clipPath></defs><text textLength="19.4375" fill="#000000" fill-opacity="1" stroke="none" xml:space="preserve" x="0" y="2.17188" font-family="Liberation Sans" font-size="7.2" font-weight="400" font-style="normal" 
 >dataIn</text>
</g>

<g fill="none" stroke="#000000" stroke-opacity="1" stroke-width="1" stroke-linecap="square" stroke-linejoin="bevel" transform="matrix(1.11732,0,0,1.11732,11.1732,10.0559)"
font-family="Liberation Sans" font-size="7.2" font-weight="400" font-style="normal" 
clip-path="url(#clip341)" >
<defs><clipPath id="clip341"><path vector-effect="none" fill-rule="evenodd" d="M-3,-7 L162,-7 L162,67 L-3,67 L-3,-7z "/>
</clipPath></defs></g>

<g fill="none" stroke="#000000" stroke-opacity="1" stroke-width="1" stroke-linecap="square" stroke-linejoin="bevel" transform="matrix(1.11732,0,0,1.11732,11.1732,32.4022)"
font-family="Liberation Sans" font-size="7.2" font-weight="400" font-style="normal" 
clip-path="url(#clip342)" >
<defs><clipPath id="clip342"><path vector-effect="none" fill-rule="evenodd" d="M-3,-27 L162,-27 L162,47 L-3,47 L-3,-27z "/>
</clipPath></defs></g>

<g fill="none" stroke="#000000" stroke-opacity="1" stroke-width="1" stroke-linecap="square" stroke-linejoin="bevel" transform="matrix(1.55183,0,0,1.55183,11.1732,32.4022)"
font-family="Liberation Sans" font-size="7.2" font-weight="400" font-style="normal" 
clip-path="url(#clip343)" >
<defs><clipPath id="clip343"><path vector-effect="none" fill-rule="evenodd" d="M-2,-19 L117,-19 L117,34 L-2,34 L-2,-19z "/>
</clipPath></defs><text textLength="19.4219" fill="#000000" fill-opacity="1" stroke="none" xml:space="preserve" x="0" y="2.17188" font-family="Liberation Sans" font-size="7.2" font-weight="400" font-style="normal" 
 >startIn</text>
</g>

<g fill="none" stroke="#000000" stroke-opacity="1" stroke-width="1" stroke-linecap="square" stroke-linejoin="bevel" transform="matrix(1.11732,0,0,1.11732,11.1732,32.4022)"
font-family="Liberation Sans" font-size="7.2" font-weight="400" font-style="normal" 
clip-path="url(#clip344)" >
<defs><clipPath id="clip344"><path vector-effect="none" fill-rule="evenodd" d="M-3,-27 L162,-27 L162,47 L-3,47 L-3,-27z "/>
</clipPath></defs></g>

<g fill="none" stroke="#000000" stroke-opacity="1" stroke-width="1" stroke-linecap="square" stroke-linejoin="bevel" transform="matrix(1.11732,0,0,1.11732,11.1732,54.7486)"
font-family="Liberation Sans" font-size="7.2" font-weight="400" font-style="normal" 
clip-path="url(#clip345)" >
<defs><clipPath id="clip345"><path vector-effect="none" fill-rule="evenodd" d="M-3,-47 L162,-47 L162,27 L-3,27 L-3,-47z "/>
</clipPath></defs></g>

<g fill="none" stroke="#000000" stroke-opacity="1" stroke-width="1" stroke-linecap="square" stroke-linejoin="bevel" transform="matrix(1.55183,0,0,1.55183,11.1732,54.7486)"
font-family="Liberation Sans" font-size="7.2" font-weight="400" font-style="normal" 
clip-path="url(#clip346)" >
<defs><clipPath id="clip346"><path vector-effect="none" fill-rule="evenodd" d="M-2,-34 L117,-34 L117,19 L-2,19 L-2,-34z "/>
</clipPath></defs><text textLength="17.5" fill="#000000" fill-opacity="1" stroke="none" xml:space="preserve" x="0" y="2.17188" font-family="Liberation Sans" font-size="7.2" font-weight="400" font-style="normal" 
 >endIn</text>
</g>

<g fill="none" stroke="#000000" stroke-opacity="1" stroke-width="1" stroke-linecap="square" stroke-linejoin="bevel" transform="matrix(1.11732,0,0,1.11732,11.1732,54.7486)"
font-family="Liberation Sans" font-size="7.2" font-weight="400" font-style="normal" 
clip-path="url(#clip347)" >
<defs><clipPath id="clip347"><path vector-effect="none" fill-rule="evenodd" d="M-3,-47 L162,-47 L162,27 L-3,27 L-3,-47z "/>
</clipPath></defs></g>

<g fill="none" stroke="#000000" stroke-opacity="1" stroke-width="1" stroke-linecap="square" stroke-linejoin="bevel" transform="matrix(1.11732,0,0,1.11732,11.1732,77.095)"
font-family="Liberation Sans" font-size="7.2" font-weight="400" font-style="normal" 
clip-path="url(#clip348)" >
<defs><clipPath id="clip348"><path vector-effect="none" fill-rule="evenodd" d="M-3,-67 L162,-67 L162,7 L-3,7 L-3,-67z "/>
</clipPath></defs></g>

<g fill="none" stroke="#000000" stroke-opacity="1" stroke-width="1" stroke-linecap="square" stroke-linejoin="bevel" transform="matrix(1.55183,0,0,1.55183,11.1732,77.095)"
font-family="Liberation Sans" font-size="7.2" font-weight="400" font-style="normal" 
clip-path="url(#clip349)" >
<defs><clipPath id="clip349"><path vector-effect="none" fill-rule="evenodd" d="M-2,-48 L117,-48 L117,5 L-2,5 L-2,-48z "/>
</clipPath></defs><text textLength="20.2031" fill="#000000" fill-opacity="1" stroke="none" xml:space="preserve" x="0" y="2.17188" font-family="Liberation Sans" font-size="7.2" font-weight="400" font-style="normal" 
 >validIn</text>
</g>

<g fill="none" stroke="#000000" stroke-opacity="1" stroke-width="1" stroke-linecap="square" stroke-linejoin="bevel" transform="matrix(1.11732,0,0,1.11732,11.1732,77.095)"
font-family="Liberation Sans" font-size="7.2" font-weight="400" font-style="normal" 
clip-path="url(#clip350)" >
<defs><clipPath id="clip350"><path vector-effect="none" fill-rule="evenodd" d="M-3,-67 L162,-67 L162,7 L-3,7 L-3,-67z "/>
</clipPath></defs></g>

<g fill="none" stroke="#000000" stroke-opacity="1" stroke-width="1" stroke-linecap="square" stroke-linejoin="bevel" transform="matrix(1.11732,0,0,1.11732,188.827,10.0559)"
font-family="Liberation Sans" font-size="7.2" font-weight="400" font-style="normal" 
clip-path="url(#clip351)" >
<defs><clipPath id="clip351"><path vector-effect="none" fill-rule="evenodd" d="M-162,-7 L3,-7 L3,67 L-162,67 L-162,-7z "/>
</clipPath></defs></g>

<g fill="none" stroke="#000000" stroke-opacity="1" stroke-width="1" stroke-linecap="square" stroke-linejoin="bevel" transform="matrix(1.55183,0,0,1.55183,188.827,10.0559)"
font-family="Liberation Sans" font-size="7.2" font-weight="400" font-style="normal" 
clip-path="url(#clip352)" >
<defs><clipPath id="clip352"><path vector-effect="none" fill-rule="evenodd" d="M-117,-5 L2,-5 L2,48 L-117,48 L-117,-5z "/>
</clipPath></defs><text textLength="24.875" fill="#000000" fill-opacity="1" stroke="none" xml:space="preserve" x="-25.5469" y="2.17188" font-family="Liberation Sans" font-size="7.2" font-weight="400" font-style="normal" 
 >dataOut</text>
</g>

<g fill="none" stroke="#000000" stroke-opacity="1" stroke-width="1" stroke-linecap="square" stroke-linejoin="bevel" transform="matrix(1.11732,0,0,1.11732,188.827,10.0559)"
font-family="Liberation Sans" font-size="7.2" font-weight="400" font-style="normal" 
clip-path="url(#clip353)" >
<defs><clipPath id="clip353"><path vector-effect="none" fill-rule="evenodd" d="M-162,-7 L3,-7 L3,67 L-162,67 L-162,-7z "/>
</clipPath></defs></g>

<g fill="none" stroke="#000000" stroke-opacity="1" stroke-width="1" stroke-linecap="square" stroke-linejoin="bevel" transform="matrix(1.11732,0,0,1.11732,188.827,26.8156)"
font-family="Liberation Sans" font-size="7.2" font-weight="400" font-style="normal" 
clip-path="url(#clip354)" >
<defs><clipPath id="clip354"><path vector-effect="none" fill-rule="evenodd" d="M-162,-22 L3,-22 L3,52 L-162,52 L-162,-22z "/>
</clipPath></defs></g>

<g fill="none" stroke="#000000" stroke-opacity="1" stroke-width="1" stroke-linecap="square" stroke-linejoin="bevel" transform="matrix(1.55183,0,0,1.55183,188.827,26.8156)"
font-family="Liberation Sans" font-size="7.2" font-weight="400" font-style="normal" 
clip-path="url(#clip355)" >
<defs><clipPath id="clip355"><path vector-effect="none" fill-rule="evenodd" d="M-117,-16 L2,-16 L2,37 L-117,37 L-117,-16z "/>
</clipPath></defs><text textLength="24.8594" fill="#000000" fill-opacity="1" stroke="none" xml:space="preserve" x="-25.5469" y="2.17188" font-family="Liberation Sans" font-size="7.2" font-weight="400" font-style="normal" 
 >startOut</text>
</g>

<g fill="none" stroke="#000000" stroke-opacity="1" stroke-width="1" stroke-linecap="square" stroke-linejoin="bevel" transform="matrix(1.11732,0,0,1.11732,188.827,26.8156)"
font-family="Liberation Sans" font-size="7.2" font-weight="400" font-style="normal" 
clip-path="url(#clip356)" >
<defs><clipPath id="clip356"><path vector-effect="none" fill-rule="evenodd" d="M-162,-22 L3,-22 L3,52 L-162,52 L-162,-22z "/>
</clipPath></defs></g>

<g fill="none" stroke="#000000" stroke-opacity="1" stroke-width="1" stroke-linecap="square" stroke-linejoin="bevel" transform="matrix(1.11732,0,0,1.11732,188.827,43.5754)"
font-family="Liberation Sans" font-size="7.2" font-weight="400" font-style="normal" 
clip-path="url(#clip357)" >
<defs><clipPath id="clip357"><path vector-effect="none" fill-rule="evenodd" d="M-162,-37 L3,-37 L3,37 L-162,37 L-162,-37z "/>
</clipPath></defs></g>

<g fill="none" stroke="#000000" stroke-opacity="1" stroke-width="1" stroke-linecap="square" stroke-linejoin="bevel" transform="matrix(1.55183,0,0,1.55183,188.827,43.5754)"
font-family="Liberation Sans" font-size="7.2" font-weight="400" font-style="normal" 
clip-path="url(#clip358)" >
<defs><clipPath id="clip358"><path vector-effect="none" fill-rule="evenodd" d="M-117,-27 L2,-27 L2,26 L-117,26 L-117,-27z "/>
</clipPath></defs><text textLength="22.9375" fill="#000000" fill-opacity="1" stroke="none" xml:space="preserve" x="-23.5469" y="2.17188" font-family="Liberation Sans" font-size="7.2" font-weight="400" font-style="normal" 
 >endOut</text>
</g>

<g fill="none" stroke="#000000" stroke-opacity="1" stroke-width="1" stroke-linecap="square" stroke-linejoin="bevel" transform="matrix(1.11732,0,0,1.11732,188.827,43.5754)"
font-family="Liberation Sans" font-size="7.2" font-weight="400" font-style="normal" 
clip-path="url(#clip359)" >
<defs><clipPath id="clip359"><path vector-effect="none" fill-rule="evenodd" d="M-162,-37 L3,-37 L3,37 L-162,37 L-162,-37z "/>
</clipPath></defs></g>

<g fill="none" stroke="#000000" stroke-opacity="1" stroke-width="1" stroke-linecap="square" stroke-linejoin="bevel" transform="matrix(1.11732,0,0,1.11732,188.827,60.3352)"
font-family="Liberation Sans" font-size="7.2" font-weight="400" font-style="normal" 
clip-path="url(#clip360)" >
<defs><clipPath id="clip360"><path vector-effect="none" fill-rule="evenodd" d="M-162,-52 L3,-52 L3,22 L-162,22 L-162,-52z "/>
</clipPath></defs></g>

<g fill="none" stroke="#000000" stroke-opacity="1" stroke-width="1" stroke-linecap="square" stroke-linejoin="bevel" transform="matrix(1.55183,0,0,1.55183,188.827,60.3352)"
font-family="Liberation Sans" font-size="7.2" font-weight="400" font-style="normal" 
clip-path="url(#clip361)" >
<defs><clipPath id="clip361"><path vector-effect="none" fill-rule="evenodd" d="M-117,-37 L2,-37 L2,16 L-117,16 L-117,-37z "/>
</clipPath></defs><text textLength="25.6406" fill="#000000" fill-opacity="1" stroke="none" xml:space="preserve" x="-26.3438" y="2.17188" font-family="Liberation Sans" font-size="7.2" font-weight="400" font-style="normal" 
 >validOut</text>
</g>

<g fill="none" stroke="#000000" stroke-opacity="1" stroke-width="1" stroke-linecap="square" stroke-linejoin="bevel" transform="matrix(1.11732,0,0,1.11732,188.827,60.3352)"
font-family="Liberation Sans" font-size="7.2" font-weight="400" font-style="normal" 
clip-path="url(#clip362)" >
<defs><clipPath id="clip362"><path vector-effect="none" fill-rule="evenodd" d="M-162,-52 L3,-52 L3,22 L-162,22 L-162,-52z "/>
</clipPath></defs></g>

<g fill="none" stroke="#000000" stroke-opacity="1" stroke-width="1" stroke-linecap="square" stroke-linejoin="bevel" transform="matrix(1.11732,0,0,1.11732,188.827,77.095)"
font-family="Liberation Sans" font-size="7.2" font-weight="400" font-style="normal" 
clip-path="url(#clip363)" >
<defs><clipPath id="clip363"><path vector-effect="none" fill-rule="evenodd" d="M-162,-67 L3,-67 L3,7 L-162,7 L-162,-67z "/>
</clipPath></defs></g>

<g fill="none" stroke="#000000" stroke-opacity="1" stroke-width="1" stroke-linecap="square" stroke-linejoin="bevel" transform="matrix(1.55183,0,0,1.55183,188.827,77.095)"
font-family="Liberation Sans" font-size="7.2" font-weight="400" font-style="normal" 
clip-path="url(#clip364)" >
<defs><clipPath id="clip364"><path vector-effect="none" fill-rule="evenodd" d="M-117,-48 L2,-48 L2,5 L-117,5 L-117,-48z "/>
</clipPath></defs><text textLength="19.8125" fill="#000000" fill-opacity="1" stroke="none" xml:space="preserve" x="-20.3594" y="2.17188" font-family="Liberation Sans" font-size="7.2" font-weight="400" font-style="normal" 
 >errOut</text>
</g>

<g fill="none" stroke="#000000" stroke-opacity="1" stroke-width="1" stroke-linecap="square" stroke-linejoin="bevel" transform="matrix(1.11732,0,0,1.11732,188.827,77.095)"
font-family="Liberation Sans" font-size="7.2" font-weight="400" font-style="normal" 
clip-path="url(#clip365)" >
<defs><clipPath id="clip365"><path vector-effect="none" fill-rule="evenodd" d="M-162,-67 L3,-67 L3,7 L-162,7 L-162,-67z "/>
</clipPath></defs></g>

<g fill="none" stroke="#000000" stroke-opacity="1" stroke-width="1" stroke-linecap="square" stroke-linejoin="bevel" transform="matrix(0.804469,0,0,0.804469,188.827,77.095)"
font-family="Liberation Sans" font-size="7.2" font-weight="400" font-style="normal" 
clip-path="url(#clip366)" >
<defs><clipPath id="clip366"><path vector-effect="none" fill-rule="evenodd" d="M-7,-2 L172,-2 L172,76 L-7,76 L-7,-2z "/>
</clipPath></defs></g>

<g fill="none" stroke="#000000" stroke-opacity="1" stroke-width="1" stroke-linecap="square" stroke-linejoin="bevel" transform="matrix(1,0,0,1,0,0)"
font-family="Liberation Sans" font-size="7.2" font-weight="400" font-style="normal" 
clip-path="url(#clip366)" >
</g>

<g fill="none" stroke="#000000" stroke-opacity="1" stroke-width="1" stroke-linecap="square" stroke-linejoin="bevel" transform="matrix(1.11732,0,0,1.11732,7.82123,2.23464)"
font-family="Helvetica" font-size="12" font-weight="400" font-style="normal" 
clip-path="url(#clip366)" >
</g>

<g fill="none" stroke="#000000" stroke-opacity="1" stroke-width="1" stroke-linecap="square" stroke-linejoin="bevel" transform="matrix(1.11732,0,0,1.11732,7.82123,2.23464)"
font-family="Helvetica" font-size="12" font-weight="400" font-style="normal" 
clip-path="url(#clip366)" >
</g>

<g fill="none" stroke="#000000" stroke-opacity="1" stroke-width="0.956597" stroke-linecap="butt" stroke-linejoin="miter" stroke-miterlimit="2" transform="matrix(1.11732,0,0,1.11732,7.82123,2.23464)"
font-family="Helvetica" font-size="12" font-weight="400" font-style="normal" 
clip-path="url(#clip366)" >
<path vector-effect="none" fill-rule="evenodd" d="M0,0 L165,0 L165,74 L0,74 L0,0z "/>
</g>

<g fill="none" stroke="#000000" stroke-opacity="1" stroke-width="1" stroke-linecap="square" stroke-linejoin="bevel" transform="matrix(1.11732,0,0,1.11732,7.82123,2.23464)"
font-family="Helvetica" font-size="12" font-weight="400" font-style="normal" 
clip-path="url(#clip366)" >
</g>

<g fill="none" stroke="#000000" stroke-opacity="1" stroke-width="1" stroke-linecap="square" stroke-linejoin="bevel" transform="matrix(1,0,0,1,0,0)"
font-family="Helvetica" font-size="12" font-weight="400" font-style="normal" 
>
</g>

<g fill="none" stroke="#000000" stroke-opacity="1" stroke-width="1" stroke-linecap="square" stroke-linejoin="bevel" transform="matrix(1,0,0,1,0,0)"
font-family="Helvetica" font-size="12" font-weight="400" font-style="normal" 
>
</g>

<g fill="none" stroke="#000000" stroke-opacity="1" stroke-width="1" stroke-linecap="square" stroke-linejoin="bevel" transform="matrix(1,0,0,1,0,0)"
font-family="Helvetica" font-size="12" font-weight="400" font-style="normal" 
clip-path="url(#clip367)" >
<defs><clipPath id="clip367"><path vector-effect="non-scaling-stroke" fill-rule="evenodd" d="M0,0 L200,0 L200,87 L0,87 L0,0z "/>
</clipPath></defs></g>

<g fill="none" stroke="#000000" stroke-opacity="1" stroke-width="1" stroke-linecap="square" stroke-linejoin="bevel" transform="matrix(1,0,0,1,0,0)"
font-family="Helvetica" font-size="12" font-weight="400" font-style="normal" 
>
</g>

<g fill="none" stroke="#000000" stroke-opacity="1" stroke-width="1" stroke-linecap="square" stroke-linejoin="bevel" transform="matrix(1,0,0,1,0,0)"
font-family="Helvetica" font-size="12" font-weight="400" font-style="normal" 
>
</g>

<g fill="none" stroke="#000000" stroke-opacity="1" stroke-width="1" stroke-linecap="square" stroke-linejoin="bevel" transform="matrix(1,0,0,1,0,0)"
font-family="Helvetica" font-size="12" font-weight="400" font-style="normal" 
clip-path="url(#clip368)" >
<defs><clipPath id="clip368"><path vector-effect="non-scaling-stroke" fill-rule="evenodd" d="M0,0 L1,0 L1,1 L0,1 L0,0z "/>
</clipPath></defs></g>

<g fill="none" stroke="#000000" stroke-opacity="1" stroke-width="1" stroke-linecap="square" stroke-linejoin="bevel" transform="matrix(1,0,0,1,0,0)"
font-family="Helvetica" font-size="12" font-weight="400" font-style="normal" 
>
</g>

<g fill="none" stroke="#000000" stroke-opacity="1" stroke-width="1" stroke-linecap="square" stroke-linejoin="bevel" transform="matrix(1,0,0,1,0,0)"
font-family="Helvetica" font-size="12" font-weight="400" font-style="normal" 
>
</g>
</g>
</svg>
