<?xml version="1.0" encoding="UTF-8" standalone="no"?>
<svg width="50.8mm" height="31.75mm"
 viewBox="0 0 200 125"
 xmlns="http://www.w3.org/2000/svg" xmlns:xlink="http://www.w3.org/1999/xlink"  version="1.2" baseProfile="tiny">
<defs>
</defs>
<g fill="none" stroke="black" stroke-width="1" fill-rule="evenodd" stroke-linecap="square" stroke-linejoin="bevel" >

<g fill="#ffffff" fill-opacity="0" stroke="none" transform="matrix(1,0,0,1,0,0)"
font-family="Helvetica" font-size="16.6667" font-weight="400" font-style="normal" 
>
<path vector-effect="non-scaling-stroke" fill-rule="evenodd" d="M0,0 L200,0 L200,125 L0,125 L0,0z "/>
</g>

<g fill="none" stroke="#000000" stroke-opacity="1" stroke-width="1" stroke-linecap="square" stroke-linejoin="bevel" transform="matrix(1,0,0,1,0,0)"
font-family="Helvetica" font-size="16.6667" font-weight="400" font-style="normal" 
>
</g>

<g fill="none" stroke="#000000" stroke-opacity="1" stroke-width="1" stroke-linecap="square" stroke-linejoin="bevel" transform="matrix(1,0,0,1,0,0)"
font-family="Helvetica" font-size="16.6667" font-weight="400" font-style="normal" 
clip-path="url(#clip53)" >
<defs><clipPath id="clip53"><path vector-effect="non-scaling-stroke" fill-rule="evenodd" d="M0,0 L200,0 L200,125.843 L0,125.843 L0,0z "/>
</clipPath></defs></g>

<g fill="none" stroke="#000000" stroke-opacity="1" stroke-width="1" stroke-linecap="square" stroke-linejoin="bevel" transform="matrix(-2.24719,0,0,-2.24719,15.7303,62.9213)"
font-family="Helvetica" font-size="16.6667" font-weight="400" font-style="normal" 
clip-path="url(#clip54)" >
<defs><clipPath id="clip54"><path vector-effect="non-scaling-stroke" fill-rule="evenodd" d="M7,28 L-82,28 L-82,-28 L7,-28 L7,28z "/>
</clipPath></defs></g>

<g fill="#000000" fill-opacity="0" stroke="#000000" stroke-opacity="1" stroke-width="2" stroke-linecap="round" stroke-linejoin="miter" stroke-miterlimit="2" transform="matrix(-2.24719,0,0,-2.24719,15.7303,62.9213)"
font-family="Helvetica" font-size="16.6667" font-weight="400" font-style="normal" 
clip-path="url(#clip54)" >
<path vector-effect="none" fill-rule="evenodd" d="M5,-5 L0,0 L5,5"/>
</g>

<g fill="none" stroke="#000000" stroke-opacity="1" stroke-width="1" stroke-linecap="square" stroke-linejoin="bevel" transform="matrix(-2.24719,0,0,-2.24719,15.7303,62.9213)"
font-family="Helvetica" font-size="16.6667" font-weight="400" font-style="normal" 
clip-path="url(#clip54)" >
</g>

<g fill="none" stroke="#000000" stroke-opacity="1" stroke-width="1" stroke-linecap="square" stroke-linejoin="bevel" transform="matrix(2.24719,0,0,2.24719,184.27,62.9213)"
font-family="Helvetica" font-size="16.6667" font-weight="400" font-style="normal" 
clip-path="url(#clip55)" >
<defs><clipPath id="clip55"><path vector-effect="non-scaling-stroke" fill-rule="evenodd" d="M-82,-28 L7,-28 L7,28 L-82,28 L-82,-28z "/>
</clipPath></defs></g>

<g fill="#000000" fill-opacity="0" stroke="#000000" stroke-opacity="1" stroke-width="2" stroke-linecap="round" stroke-linejoin="miter" stroke-miterlimit="2" transform="matrix(2.24719,0,0,2.24719,184.27,62.9213)"
font-family="Helvetica" font-size="16.6667" font-weight="400" font-style="normal" 
clip-path="url(#clip55)" >
<path vector-effect="none" fill-rule="evenodd" d="M0,-5 L5,0 L0,5"/>
</g>

<g fill="none" stroke="#000000" stroke-opacity="1" stroke-width="1" stroke-linecap="square" stroke-linejoin="bevel" transform="matrix(2.24719,0,0,2.24719,184.27,62.9213)"
font-family="Helvetica" font-size="16.6667" font-weight="400" font-style="normal" 
clip-path="url(#clip55)" >
</g>

<g fill="none" stroke="#000000" stroke-opacity="1" stroke-width="1" stroke-linecap="square" stroke-linejoin="bevel" transform="matrix(2.24719,0,0,2.24719,15.7303,4.49438)"
font-family="Helvetica" font-size="16.6667" font-weight="400" font-style="normal" 
clip-path="url(#clip56)" >
<defs><clipPath id="clip56"><path vector-effect="non-scaling-stroke" fill-rule="evenodd" d="M-7,-2 L82,-2 L82,54 L-7,54 L-7,-2z "/>
</clipPath></defs></g>

<g fill="#ffffff" fill-opacity="1" stroke="none" transform="matrix(2.24719,0,0,2.24719,15.7303,4.49438)"
font-family="Helvetica" font-size="16.6667" font-weight="400" font-style="normal" 
clip-path="url(#clip56)" >
<path vector-effect="none" fill-rule="evenodd" d="M0,0 L75,0 L75,52 L0,52 L0,0z "/>
</g>

<g fill="none" stroke="#000000" stroke-opacity="1" stroke-width="1" stroke-linecap="square" stroke-linejoin="bevel" transform="matrix(2.24719,0,0,2.24719,15.7303,4.49438)"
font-family="Helvetica" font-size="16.6667" font-weight="400" font-style="normal" 
clip-path="url(#clip56)" >
</g>

<g fill="none" stroke="#000000" stroke-opacity="1" stroke-width="1" stroke-linecap="square" stroke-linejoin="bevel" transform="matrix(2.24719,0,0,2.24719,15.7303,4.49438)"
font-family="Helvetica" font-size="16.6667" font-weight="400" font-style="normal" 
clip-path="url(#clip56)" >
</g>

<g fill="none" stroke="#000000" stroke-opacity="1" stroke-width="1" stroke-linecap="square" stroke-linejoin="bevel" transform="matrix(2.24719,0,0,2.24719,15.7303,4.49438)"
font-family="Helvetica" font-size="16.6667" font-weight="400" font-style="normal" 
clip-path="url(#clip57)" >
<defs><clipPath id="clip57"><path vector-effect="non-scaling-stroke" fill-rule="evenodd" d="M0,0 L75,0 L75,52 L0,52 L0,0z "/>
</clipPath></defs></g>

<g fill="none" stroke="#000000" stroke-opacity="1" stroke-width="1" stroke-linecap="square" stroke-linejoin="bevel" transform="matrix(2.24719,0,0,2.24719,-73.0337,-138.202)"
font-family="Helvetica" font-size="16.6667" font-weight="400" font-style="normal" 
clip-path="url(#clip58)" >
<defs><clipPath id="clip58"><path vector-effect="none" fill-rule="evenodd" d="M40,64 L115,64 L115,116 L40,116 L40,64z "/>
</clipPath></defs><polyline fill="none" vector-effect="none" points="46,70 57,70 " />
</g>

<g fill="none" stroke="#000000" stroke-opacity="1" stroke-width="1" stroke-linecap="square" stroke-linejoin="bevel" transform="matrix(2.24719,0,0,2.24719,-73.0337,-138.202)"
font-family="Helvetica" font-size="16.6667" font-weight="400" font-style="normal" 
clip-path="url(#clip58)" >
<polyline fill="none" vector-effect="none" points="57,70 57,78 " />
</g>

<g fill="none" stroke="#000000" stroke-opacity="1" stroke-width="1" stroke-linecap="square" stroke-linejoin="bevel" transform="matrix(2.24719,0,0,2.24719,-73.0337,-138.202)"
font-family="Helvetica" font-size="16.6667" font-weight="400" font-style="normal" 
clip-path="url(#clip58)" >
<polyline fill="none" vector-effect="none" points="57,78 67,78 " />
</g>

<g fill="none" stroke="#000000" stroke-opacity="1" stroke-width="1" stroke-linecap="square" stroke-linejoin="bevel" transform="matrix(2.24719,0,0,2.24719,-73.0337,-138.202)"
font-family="Helvetica" font-size="16.6667" font-weight="400" font-style="normal" 
clip-path="url(#clip58)" >
<polyline fill="none" vector-effect="none" points="67,78 67,70 " />
</g>

<g fill="none" stroke="#000000" stroke-opacity="1" stroke-width="1" stroke-linecap="square" stroke-linejoin="bevel" transform="matrix(2.24719,0,0,2.24719,-73.0337,-138.202)"
font-family="Helvetica" font-size="16.6667" font-weight="400" font-style="normal" 
clip-path="url(#clip58)" >
<polyline fill="none" vector-effect="none" points="67,70 78,70 " />
</g>

<g fill="none" stroke="#000000" stroke-opacity="1" stroke-width="1" stroke-linecap="square" stroke-linejoin="bevel" transform="matrix(2.24719,0,0,2.24719,-73.0337,-138.202)"
font-family="Helvetica" font-size="16.6667" font-weight="400" font-style="normal" 
clip-path="url(#clip58)" >
<polyline fill="none" vector-effect="none" points="78,70 78,74 " />
</g>

<g fill="none" stroke="#000000" stroke-opacity="1" stroke-width="1" stroke-linecap="square" stroke-linejoin="bevel" transform="matrix(2.24719,0,0,2.24719,-73.0337,-138.202)"
font-family="Helvetica" font-size="16.6667" font-weight="400" font-style="normal" 
clip-path="url(#clip58)" >
<polyline fill="none" vector-effect="none" points="78,74 78,67 " />
</g>

<g fill="none" stroke="#000000" stroke-opacity="1" stroke-width="1" stroke-linecap="square" stroke-linejoin="bevel" transform="matrix(2.24719,0,0,2.24719,-73.0337,-138.202)"
font-family="Helvetica" font-size="16.6667" font-weight="400" font-style="normal" 
clip-path="url(#clip58)" >
<polyline fill="none" vector-effect="none" points="78,67 78,79 " />
</g>

<g fill="none" stroke="#000000" stroke-opacity="1" stroke-width="1" stroke-linecap="square" stroke-linejoin="bevel" transform="matrix(2.24719,0,0,2.24719,-73.0337,-138.202)"
font-family="Helvetica" font-size="16.6667" font-weight="400" font-style="normal" 
clip-path="url(#clip58)" >
<polyline fill="none" vector-effect="none" points="78,79 78,74 " />
</g>

<g fill="none" stroke="#000000" stroke-opacity="1" stroke-width="1" stroke-linecap="square" stroke-linejoin="bevel" transform="matrix(2.24719,0,0,2.24719,-73.0337,-138.202)"
font-family="Helvetica" font-size="16.6667" font-weight="400" font-style="normal" 
clip-path="url(#clip58)" >
<polyline fill="none" vector-effect="none" points="78,74 78,70 " />
</g>

<g fill="none" stroke="#000000" stroke-opacity="1" stroke-width="1" stroke-linecap="square" stroke-linejoin="bevel" transform="matrix(2.24719,0,0,2.24719,-73.0337,-138.202)"
font-family="Helvetica" font-size="16.6667" font-weight="400" font-style="normal" 
clip-path="url(#clip58)" >
<polyline fill="none" vector-effect="none" points="78,70 79,70 " />
</g>

<g fill="none" stroke="#000000" stroke-opacity="1" stroke-width="1" stroke-linecap="square" stroke-linejoin="bevel" transform="matrix(2.24719,0,0,2.24719,-73.0337,-138.202)"
font-family="Helvetica" font-size="16.6667" font-weight="400" font-style="normal" 
clip-path="url(#clip58)" >
<polyline fill="none" vector-effect="none" points="79,70 80,73 " />
</g>

<g fill="none" stroke="#000000" stroke-opacity="1" stroke-width="1" stroke-linecap="square" stroke-linejoin="bevel" transform="matrix(2.24719,0,0,2.24719,-73.0337,-138.202)"
font-family="Helvetica" font-size="16.6667" font-weight="400" font-style="normal" 
clip-path="url(#clip58)" >
<polyline fill="none" vector-effect="none" points="80,73 81,77 " />
</g>

<g fill="none" stroke="#000000" stroke-opacity="1" stroke-width="1" stroke-linecap="square" stroke-linejoin="bevel" transform="matrix(2.24719,0,0,2.24719,-73.0337,-138.202)"
font-family="Helvetica" font-size="16.6667" font-weight="400" font-style="normal" 
clip-path="url(#clip58)" >
<polyline fill="none" vector-effect="none" points="81,77 82,78 " />
</g>

<g fill="none" stroke="#000000" stroke-opacity="1" stroke-width="1" stroke-linecap="square" stroke-linejoin="bevel" transform="matrix(2.24719,0,0,2.24719,-73.0337,-138.202)"
font-family="Helvetica" font-size="16.6667" font-weight="400" font-style="normal" 
clip-path="url(#clip58)" >
<polyline fill="none" vector-effect="none" points="82,78 82,75 " />
</g>

<g fill="none" stroke="#000000" stroke-opacity="1" stroke-width="1" stroke-linecap="square" stroke-linejoin="bevel" transform="matrix(2.24719,0,0,2.24719,-73.0337,-138.202)"
font-family="Helvetica" font-size="16.6667" font-weight="400" font-style="normal" 
clip-path="url(#clip58)" >
<polyline fill="none" vector-effect="none" points="82,75 83,71 " />
</g>

<g fill="none" stroke="#000000" stroke-opacity="1" stroke-width="1" stroke-linecap="square" stroke-linejoin="bevel" transform="matrix(2.24719,0,0,2.24719,-73.0337,-138.202)"
font-family="Helvetica" font-size="16.6667" font-weight="400" font-style="normal" 
clip-path="url(#clip58)" >
<polyline fill="none" vector-effect="none" points="83,71 84,69 " />
</g>

<g fill="none" stroke="#000000" stroke-opacity="1" stroke-width="1" stroke-linecap="square" stroke-linejoin="bevel" transform="matrix(2.24719,0,0,2.24719,-73.0337,-138.202)"
font-family="Helvetica" font-size="16.6667" font-weight="400" font-style="normal" 
clip-path="url(#clip58)" >
<polyline fill="none" vector-effect="none" points="84,69 85,72 " />
</g>

<g fill="none" stroke="#000000" stroke-opacity="1" stroke-width="1" stroke-linecap="square" stroke-linejoin="bevel" transform="matrix(2.24719,0,0,2.24719,-73.0337,-138.202)"
font-family="Helvetica" font-size="16.6667" font-weight="400" font-style="normal" 
clip-path="url(#clip58)" >
<polyline fill="none" vector-effect="none" points="85,72 86,77 " />
</g>

<g fill="none" stroke="#000000" stroke-opacity="1" stroke-width="1" stroke-linecap="square" stroke-linejoin="bevel" transform="matrix(2.24719,0,0,2.24719,-73.0337,-138.202)"
font-family="Helvetica" font-size="16.6667" font-weight="400" font-style="normal" 
clip-path="url(#clip58)" >
<polyline fill="none" vector-effect="none" points="86,77 87,78 " />
</g>

<g fill="none" stroke="#000000" stroke-opacity="1" stroke-width="1" stroke-linecap="square" stroke-linejoin="bevel" transform="matrix(2.24719,0,0,2.24719,-73.0337,-138.202)"
font-family="Helvetica" font-size="16.6667" font-weight="400" font-style="normal" 
clip-path="url(#clip58)" >
<polyline fill="none" vector-effect="none" points="87,78 87,76 " />
</g>

<g fill="none" stroke="#000000" stroke-opacity="1" stroke-width="1" stroke-linecap="square" stroke-linejoin="bevel" transform="matrix(2.24719,0,0,2.24719,-73.0337,-138.202)"
font-family="Helvetica" font-size="16.6667" font-weight="400" font-style="normal" 
clip-path="url(#clip58)" >
<polyline fill="none" vector-effect="none" points="87,76 88,74 " />
</g>

<g fill="none" stroke="#000000" stroke-opacity="1" stroke-width="1" stroke-linecap="square" stroke-linejoin="bevel" transform="matrix(2.24719,0,0,2.24719,-73.0337,-138.202)"
font-family="Helvetica" font-size="16.6667" font-weight="400" font-style="normal" 
clip-path="url(#clip58)" >
<polyline fill="none" vector-effect="none" points="88,74 90,70 " />
</g>

<g fill="none" stroke="#000000" stroke-opacity="1" stroke-width="1" stroke-linecap="square" stroke-linejoin="bevel" transform="matrix(2.24719,0,0,2.24719,-73.0337,-138.202)"
font-family="Helvetica" font-size="16.6667" font-weight="400" font-style="normal" 
clip-path="url(#clip58)" >
<polyline fill="none" vector-effect="none" points="90,70 91,70 " />
</g>

<g fill="none" stroke="#000000" stroke-opacity="1" stroke-width="1" stroke-linecap="square" stroke-linejoin="bevel" transform="matrix(2.24719,0,0,2.24719,-73.0337,-138.202)"
font-family="Helvetica" font-size="16.6667" font-weight="400" font-style="normal" 
clip-path="url(#clip58)" >
<polyline fill="none" vector-effect="none" points="91,70 93,73 " />
</g>

<g fill="none" stroke="#000000" stroke-opacity="1" stroke-width="1" stroke-linecap="square" stroke-linejoin="bevel" transform="matrix(2.24719,0,0,2.24719,-73.0337,-138.202)"
font-family="Helvetica" font-size="16.6667" font-weight="400" font-style="normal" 
clip-path="url(#clip58)" >
<polyline fill="none" vector-effect="none" points="93,73 94,77 " />
</g>

<g fill="none" stroke="#000000" stroke-opacity="1" stroke-width="1" stroke-linecap="square" stroke-linejoin="bevel" transform="matrix(2.24719,0,0,2.24719,-73.0337,-138.202)"
font-family="Helvetica" font-size="16.6667" font-weight="400" font-style="normal" 
clip-path="url(#clip58)" >
<polyline fill="none" vector-effect="none" points="94,77 96,78 " />
</g>

<g fill="none" stroke="#000000" stroke-opacity="1" stroke-width="1" stroke-linecap="square" stroke-linejoin="bevel" transform="matrix(2.24719,0,0,2.24719,-73.0337,-138.202)"
font-family="Helvetica" font-size="16.6667" font-weight="400" font-style="normal" 
clip-path="url(#clip58)" >
<polyline fill="none" vector-effect="none" points="96,78 98,75 " />
</g>

<g fill="none" stroke="#000000" stroke-opacity="1" stroke-width="1" stroke-linecap="square" stroke-linejoin="bevel" transform="matrix(2.24719,0,0,2.24719,-73.0337,-138.202)"
font-family="Helvetica" font-size="16.6667" font-weight="400" font-style="normal" 
clip-path="url(#clip58)" >
<polyline fill="none" vector-effect="none" points="98,75 98,74 " />
</g>

<g fill="none" stroke="#000000" stroke-opacity="1" stroke-width="1" stroke-linecap="square" stroke-linejoin="bevel" transform="matrix(2.24719,0,0,2.24719,-73.0337,-138.202)"
font-family="Helvetica" font-size="16.6667" font-weight="400" font-style="normal" 
clip-path="url(#clip58)" >
<polyline fill="none" vector-effect="none" points="98,74 99,70 " />
</g>

<g fill="none" stroke="#000000" stroke-opacity="1" stroke-width="1" stroke-linecap="square" stroke-linejoin="bevel" transform="matrix(2.24719,0,0,2.24719,-73.0337,-138.202)"
font-family="Helvetica" font-size="16.6667" font-weight="400" font-style="normal" 
clip-path="url(#clip58)" >
<polyline fill="none" vector-effect="none" points="99,70 100,70 " />
</g>

<g fill="none" stroke="#000000" stroke-opacity="1" stroke-width="1" stroke-linecap="square" stroke-linejoin="bevel" transform="matrix(2.24719,0,0,2.24719,-73.0337,-138.202)"
font-family="Helvetica" font-size="16.6667" font-weight="400" font-style="normal" 
clip-path="url(#clip58)" >
<polyline fill="none" vector-effect="none" points="100,70 101,73 " />
</g>

<g fill="none" stroke="#000000" stroke-opacity="1" stroke-width="1" stroke-linecap="square" stroke-linejoin="bevel" transform="matrix(2.24719,0,0,2.24719,-73.0337,-138.202)"
font-family="Helvetica" font-size="16.6667" font-weight="400" font-style="normal" 
clip-path="url(#clip58)" >
<polyline fill="none" vector-effect="none" points="101,73 102,77 " />
</g>

<g fill="none" stroke="#000000" stroke-opacity="1" stroke-width="1" stroke-linecap="square" stroke-linejoin="bevel" transform="matrix(2.24719,0,0,2.24719,-73.0337,-138.202)"
font-family="Helvetica" font-size="16.6667" font-weight="400" font-style="normal" 
clip-path="url(#clip58)" >
<polyline fill="none" vector-effect="none" points="102,77 102,78 " />
</g>

<g fill="none" stroke="#000000" stroke-opacity="1" stroke-width="1" stroke-linecap="square" stroke-linejoin="bevel" transform="matrix(2.24719,0,0,2.24719,-73.0337,-138.202)"
font-family="Helvetica" font-size="16.6667" font-weight="400" font-style="normal" 
clip-path="url(#clip58)" >
<polyline fill="none" vector-effect="none" points="102,78 103,75 " />
</g>

<g fill="none" stroke="#000000" stroke-opacity="1" stroke-width="1" stroke-linecap="square" stroke-linejoin="bevel" transform="matrix(2.24719,0,0,2.24719,-73.0337,-138.202)"
font-family="Helvetica" font-size="16.6667" font-weight="400" font-style="normal" 
clip-path="url(#clip58)" >
<polyline fill="none" vector-effect="none" points="103,75 104,71 " />
</g>

<g fill="none" stroke="#000000" stroke-opacity="1" stroke-width="1" stroke-linecap="square" stroke-linejoin="bevel" transform="matrix(2.24719,0,0,2.24719,-73.0337,-138.202)"
font-family="Helvetica" font-size="16.6667" font-weight="400" font-style="normal" 
clip-path="url(#clip58)" >
<polyline fill="none" vector-effect="none" points="104,71 105,69 " />
</g>

<g fill="none" stroke="#000000" stroke-opacity="1" stroke-width="1" stroke-linecap="square" stroke-linejoin="bevel" transform="matrix(2.24719,0,0,2.24719,-73.0337,-138.202)"
font-family="Helvetica" font-size="16.6667" font-weight="400" font-style="normal" 
clip-path="url(#clip58)" >
<polyline fill="none" vector-effect="none" points="105,69 106,72 " />
</g>

<g fill="none" stroke="#000000" stroke-opacity="1" stroke-width="1" stroke-linecap="square" stroke-linejoin="bevel" transform="matrix(2.24719,0,0,2.24719,-73.0337,-138.202)"
font-family="Helvetica" font-size="16.6667" font-weight="400" font-style="normal" 
clip-path="url(#clip58)" >
<polyline fill="none" vector-effect="none" points="106,72 106,77 " />
</g>

<g fill="none" stroke="#000000" stroke-opacity="1" stroke-width="1" stroke-linecap="square" stroke-linejoin="bevel" transform="matrix(2.24719,0,0,2.24719,-73.0337,-138.202)"
font-family="Helvetica" font-size="16.6667" font-weight="400" font-style="normal" 
clip-path="url(#clip58)" >
<polyline fill="none" vector-effect="none" points="106,77 107,78 " />
</g>

<g fill="none" stroke="#000000" stroke-opacity="1" stroke-width="1" stroke-linecap="square" stroke-linejoin="bevel" transform="matrix(2.24719,0,0,2.24719,-73.0337,-138.202)"
font-family="Helvetica" font-size="16.6667" font-weight="400" font-style="normal" 
clip-path="url(#clip58)" >
<polyline fill="none" vector-effect="none" points="107,78 108,76 " />
</g>

<g fill="none" stroke="#000000" stroke-opacity="1" stroke-width="1" stroke-linecap="square" stroke-linejoin="bevel" transform="matrix(2.24719,0,0,2.24719,98.8764,62.9213)"
font-family="Liberation Sans" font-size="10" font-weight="400" font-style="normal" 
clip-path="url(#clip59)" >
<defs><clipPath id="clip59"><path vector-effect="none" fill-rule="evenodd" d="M-37,-26 L38,-26 L38,26 L-37,26 L-37,-26z "/>
</clipPath></defs></g>

<g fill="none" stroke="#000000" stroke-opacity="1" stroke-width="1" stroke-linecap="square" stroke-linejoin="bevel" transform="matrix(2.24719,0,0,2.24719,98.8764,62.9213)"
font-family="Liberation Sans" font-size="10" font-weight="400" font-style="normal" 
clip-path="url(#clip59)" >
<text textLength="28.8438" fill="#000000" fill-opacity="1" stroke="none" xml:space="preserve" x="-14" y="3" font-family="Liberation Sans" font-size="10" font-weight="400" font-style="normal" 
 >8-PSK</text>
</g>

<g fill="none" stroke="#000000" stroke-opacity="1" stroke-width="1" stroke-linecap="square" stroke-linejoin="bevel" transform="matrix(2.24719,0,0,2.24719,98.8764,62.9213)"
font-family="Liberation Sans" font-size="10" font-weight="400" font-style="normal" 
clip-path="url(#clip59)" >
</g>

<g fill="none" stroke="#000000" stroke-opacity="1" stroke-width="1" stroke-linecap="square" stroke-linejoin="bevel" transform="matrix(2.24719,0,0,2.24719,98.8764,62.9213)"
font-family="Liberation Sans" font-size="10" font-weight="400" font-style="normal" 
clip-path="url(#clip60)" >
<defs><clipPath id="clip60"><path vector-effect="none" fill-rule="evenodd" d="M-7,-2 L82,-2 L82,54 L-7,54 L-7,-2z "/>
</clipPath></defs></g>

<g fill="none" stroke="#000000" stroke-opacity="1" stroke-width="1" stroke-linecap="square" stroke-linejoin="bevel" transform="matrix(1,0,0,1,0,0)"
font-family="Liberation Sans" font-size="10" font-weight="400" font-style="normal" 
clip-path="url(#clip60)" >
</g>

<g fill="none" stroke="#000000" stroke-opacity="1" stroke-width="1" stroke-linecap="square" stroke-linejoin="bevel" transform="matrix(2.24719,0,0,2.24719,15.7303,4.49438)"
font-family="Helvetica" font-size="16.6667" font-weight="400" font-style="normal" 
clip-path="url(#clip60)" >
</g>

<g fill="none" stroke="#000000" stroke-opacity="1" stroke-width="1" stroke-linecap="square" stroke-linejoin="bevel" transform="matrix(2.24719,0,0,2.24719,15.7303,4.49438)"
font-family="Helvetica" font-size="16.6667" font-weight="400" font-style="normal" 
clip-path="url(#clip60)" >
</g>

<g fill="none" stroke="#000000" stroke-opacity="1" stroke-width="0.723343" stroke-linecap="butt" stroke-linejoin="miter" stroke-miterlimit="2" transform="matrix(2.24719,0,0,2.24719,15.7303,4.49438)"
font-family="Helvetica" font-size="16.6667" font-weight="400" font-style="normal" 
clip-path="url(#clip60)" >
<path vector-effect="none" fill-rule="evenodd" d="M0,0 L75,0 L75,52 L0,52 L0,0z "/>
</g>

<g fill="none" stroke="#000000" stroke-opacity="1" stroke-width="1" stroke-linecap="square" stroke-linejoin="bevel" transform="matrix(2.24719,0,0,2.24719,15.7303,4.49438)"
font-family="Helvetica" font-size="16.6667" font-weight="400" font-style="normal" 
clip-path="url(#clip60)" >
</g>

<g fill="none" stroke="#000000" stroke-opacity="1" stroke-width="1" stroke-linecap="square" stroke-linejoin="bevel" transform="matrix(1,0,0,1,0,0)"
font-family="Helvetica" font-size="16.6667" font-weight="400" font-style="normal" 
>
</g>

<g fill="none" stroke="#000000" stroke-opacity="1" stroke-width="1" stroke-linecap="square" stroke-linejoin="bevel" transform="matrix(1,0,0,1,0,0)"
font-family="Helvetica" font-size="16.6667" font-weight="400" font-style="normal" 
>
</g>

<g fill="none" stroke="#000000" stroke-opacity="1" stroke-width="1" stroke-linecap="square" stroke-linejoin="bevel" transform="matrix(1,0,0,1,0,0)"
font-family="Helvetica" font-size="16.6667" font-weight="400" font-style="normal" 
clip-path="url(#clip61)" >
<defs><clipPath id="clip61"><path vector-effect="non-scaling-stroke" fill-rule="evenodd" d="M0,0 L200,0 L200,125 L0,125 L0,0z "/>
</clipPath></defs></g>

<g fill="none" stroke="#000000" stroke-opacity="1" stroke-width="1" stroke-linecap="square" stroke-linejoin="bevel" transform="matrix(1,0,0,1,0,0)"
font-family="Helvetica" font-size="16.6667" font-weight="400" font-style="normal" 
>
</g>

<g fill="none" stroke="#000000" stroke-opacity="1" stroke-width="1" stroke-linecap="square" stroke-linejoin="bevel" transform="matrix(1,0,0,1,0,0)"
font-family="Helvetica" font-size="16.6667" font-weight="400" font-style="normal" 
>
</g>

<g fill="none" stroke="#000000" stroke-opacity="1" stroke-width="1" stroke-linecap="square" stroke-linejoin="bevel" transform="matrix(1,0,0,1,0,0)"
font-family="Helvetica" font-size="16.6667" font-weight="400" font-style="normal" 
clip-path="url(#clip62)" >
<defs><clipPath id="clip62"><path vector-effect="non-scaling-stroke" fill-rule="evenodd" d="M0,0 L1,0 L1,1 L0,1 L0,0z "/>
</clipPath></defs></g>

<g fill="none" stroke="#000000" stroke-opacity="1" stroke-width="1" stroke-linecap="square" stroke-linejoin="bevel" transform="matrix(1,0,0,1,0,0)"
font-family="Helvetica" font-size="16.6667" font-weight="400" font-style="normal" 
>
</g>

<g fill="none" stroke="#000000" stroke-opacity="1" stroke-width="1" stroke-linecap="square" stroke-linejoin="bevel" transform="matrix(1,0,0,1,0,0)"
font-family="Helvetica" font-size="16.6667" font-weight="400" font-style="normal" 
>
</g>
</g>
</svg>
