<?xml version="1.0" encoding="UTF-8" standalone="no"?>
<svg width="50.8mm" height="30.734mm"
 viewBox="0 0 200 121"
 xmlns="http://www.w3.org/2000/svg" xmlns:xlink="http://www.w3.org/1999/xlink"  version="1.2" baseProfile="tiny">
<defs>
</defs>
<g fill="none" stroke="black" stroke-width="1" fill-rule="evenodd" stroke-linecap="square" stroke-linejoin="bevel" >

<g fill="#ffffff" fill-opacity="0" stroke="none" transform="matrix(1,0,0,1,0,0)"
font-family="Helvetica" font-size="16.6667" font-weight="400" font-style="normal" 
>
<path vector-effect="non-scaling-stroke" fill-rule="evenodd" d="M0,0 L200,0 L200,121 L0,121 L0,0z "/>
</g>

<g fill="none" stroke="#000000" stroke-opacity="1" stroke-width="1" stroke-linecap="square" stroke-linejoin="bevel" transform="matrix(1,0,0,1,0,0)"
font-family="Helvetica" font-size="16.6667" font-weight="400" font-style="normal" 
>
</g>

<g fill="none" stroke="#000000" stroke-opacity="1" stroke-width="1" stroke-linecap="square" stroke-linejoin="bevel" transform="matrix(1,0,0,1,0,0)"
font-family="Helvetica" font-size="16.6667" font-weight="400" font-style="normal" 
clip-path="url(#clip63)" >
<defs><clipPath id="clip63"><path vector-effect="non-scaling-stroke" fill-rule="evenodd" d="M0,0 L200,0 L200,121.348 L0,121.348 L0,0z "/>
</clipPath></defs></g>

<g fill="none" stroke="#000000" stroke-opacity="1" stroke-width="1" stroke-linecap="square" stroke-linejoin="bevel" transform="matrix(2.24719,0,0,2.24719,184.27,60.6742)"
font-family="Helvetica" font-size="16.6667" font-weight="400" font-style="normal" 
clip-path="url(#clip64)" >
<defs><clipPath id="clip64"><path vector-effect="non-scaling-stroke" fill-rule="evenodd" d="M-82,-27 L7,-27 L7,27 L-82,27 L-82,-27z "/>
</clipPath></defs></g>

<g fill="#000000" fill-opacity="0" stroke="#000000" stroke-opacity="1" stroke-width="2" stroke-linecap="round" stroke-linejoin="miter" stroke-miterlimit="2" transform="matrix(2.24719,0,0,2.24719,184.27,60.6742)"
font-family="Helvetica" font-size="16.6667" font-weight="400" font-style="normal" 
clip-path="url(#clip64)" >
<path vector-effect="none" fill-rule="evenodd" d="M0,-5 L5,0 L0,5"/>
</g>

<g fill="none" stroke="#000000" stroke-opacity="1" stroke-width="1" stroke-linecap="square" stroke-linejoin="bevel" transform="matrix(2.24719,0,0,2.24719,184.27,60.6742)"
font-family="Helvetica" font-size="16.6667" font-weight="400" font-style="normal" 
clip-path="url(#clip64)" >
</g>

<g fill="none" stroke="#000000" stroke-opacity="1" stroke-width="1" stroke-linecap="square" stroke-linejoin="bevel" transform="matrix(-2.24719,0,0,-2.24719,15.7303,60.6742)"
font-family="Helvetica" font-size="16.6667" font-weight="400" font-style="normal" 
clip-path="url(#clip65)" >
<defs><clipPath id="clip65"><path vector-effect="non-scaling-stroke" fill-rule="evenodd" d="M7,27 L-82,27 L-82,-27 L7,-27 L7,27z "/>
</clipPath></defs></g>

<g fill="#000000" fill-opacity="0" stroke="#000000" stroke-opacity="1" stroke-width="2" stroke-linecap="round" stroke-linejoin="miter" stroke-miterlimit="2" transform="matrix(-2.24719,0,0,-2.24719,15.7303,60.6742)"
font-family="Helvetica" font-size="16.6667" font-weight="400" font-style="normal" 
clip-path="url(#clip65)" >
<path vector-effect="none" fill-rule="evenodd" d="M5,-5 L0,0 L5,5"/>
</g>

<g fill="none" stroke="#000000" stroke-opacity="1" stroke-width="1" stroke-linecap="square" stroke-linejoin="bevel" transform="matrix(-2.24719,0,0,-2.24719,15.7303,60.6742)"
font-family="Helvetica" font-size="16.6667" font-weight="400" font-style="normal" 
clip-path="url(#clip65)" >
</g>

<g fill="none" stroke="#000000" stroke-opacity="1" stroke-width="1" stroke-linecap="square" stroke-linejoin="bevel" transform="matrix(2.24719,0,0,2.24719,15.7303,4.49438)"
font-family="Helvetica" font-size="16.6667" font-weight="400" font-style="normal" 
clip-path="url(#clip66)" >
<defs><clipPath id="clip66"><path vector-effect="non-scaling-stroke" fill-rule="evenodd" d="M-7,-2 L82,-2 L82,52 L-7,52 L-7,-2z "/>
</clipPath></defs></g>

<g fill="#ffffff" fill-opacity="1" stroke="none" transform="matrix(2.24719,0,0,2.24719,15.7303,4.49438)"
font-family="Helvetica" font-size="16.6667" font-weight="400" font-style="normal" 
clip-path="url(#clip66)" >
<path vector-effect="none" fill-rule="evenodd" d="M0,0 L75,0 L75,50 L0,50 L0,0z "/>
</g>

<g fill="none" stroke="#000000" stroke-opacity="1" stroke-width="1" stroke-linecap="square" stroke-linejoin="bevel" transform="matrix(2.24719,0,0,2.24719,15.7303,4.49438)"
font-family="Helvetica" font-size="16.6667" font-weight="400" font-style="normal" 
clip-path="url(#clip66)" >
</g>

<g fill="none" stroke="#000000" stroke-opacity="1" stroke-width="1" stroke-linecap="square" stroke-linejoin="bevel" transform="matrix(2.24719,0,0,2.24719,15.7303,4.49438)"
font-family="Helvetica" font-size="16.6667" font-weight="400" font-style="normal" 
clip-path="url(#clip66)" >
</g>

<g fill="none" stroke="#000000" stroke-opacity="1" stroke-width="1" stroke-linecap="square" stroke-linejoin="bevel" transform="matrix(2.24719,0,0,2.24719,15.7303,4.49438)"
font-family="Helvetica" font-size="16.6667" font-weight="400" font-style="normal" 
clip-path="url(#clip67)" >
<defs><clipPath id="clip67"><path vector-effect="non-scaling-stroke" fill-rule="evenodd" d="M0,0 L75,0 L75,50 L0,50 L0,0z "/>
</clipPath></defs></g>

<g fill="none" stroke="#000000" stroke-opacity="1" stroke-width="1" stroke-linecap="square" stroke-linejoin="bevel" transform="matrix(2.24719,0,0,2.24719,-342.697,-634.831)"
font-family="Helvetica" font-size="16.6667" font-weight="400" font-style="normal" 
clip-path="url(#clip68)" >
<defs><clipPath id="clip68"><path vector-effect="none" fill-rule="evenodd" d="M160,285 L235,285 L235,335 L160,335 L160,285z "/>
</clipPath></defs><polyline fill="none" vector-effect="none" points="177,295 178,291 " />
</g>

<g fill="none" stroke="#000000" stroke-opacity="1" stroke-width="1" stroke-linecap="square" stroke-linejoin="bevel" transform="matrix(2.24719,0,0,2.24719,-342.697,-634.831)"
font-family="Helvetica" font-size="16.6667" font-weight="400" font-style="normal" 
clip-path="url(#clip68)" >
<polyline fill="none" vector-effect="none" points="178,291 179,294 " />
</g>

<g fill="none" stroke="#000000" stroke-opacity="1" stroke-width="1" stroke-linecap="square" stroke-linejoin="bevel" transform="matrix(2.24719,0,0,2.24719,-342.697,-634.831)"
font-family="Helvetica" font-size="16.6667" font-weight="400" font-style="normal" 
clip-path="url(#clip68)" >
<polyline fill="none" vector-effect="none" points="179,294 180,298 " />
</g>

<g fill="none" stroke="#000000" stroke-opacity="1" stroke-width="1" stroke-linecap="square" stroke-linejoin="bevel" transform="matrix(2.24719,0,0,2.24719,-342.697,-634.831)"
font-family="Helvetica" font-size="16.6667" font-weight="400" font-style="normal" 
clip-path="url(#clip68)" >
<polyline fill="none" vector-effect="none" points="180,298 181,299 " />
</g>

<g fill="none" stroke="#000000" stroke-opacity="1" stroke-width="1" stroke-linecap="square" stroke-linejoin="bevel" transform="matrix(2.24719,0,0,2.24719,-342.697,-634.831)"
font-family="Helvetica" font-size="16.6667" font-weight="400" font-style="normal" 
clip-path="url(#clip68)" >
<polyline fill="none" vector-effect="none" points="181,299 182,296 " />
</g>

<g fill="none" stroke="#000000" stroke-opacity="1" stroke-width="1" stroke-linecap="square" stroke-linejoin="bevel" transform="matrix(2.24719,0,0,2.24719,-342.697,-634.831)"
font-family="Helvetica" font-size="16.6667" font-weight="400" font-style="normal" 
clip-path="url(#clip68)" >
<polyline fill="none" vector-effect="none" points="182,296 183,292 " />
</g>

<g fill="none" stroke="#000000" stroke-opacity="1" stroke-width="1" stroke-linecap="square" stroke-linejoin="bevel" transform="matrix(2.24719,0,0,2.24719,-342.697,-634.831)"
font-family="Helvetica" font-size="16.6667" font-weight="400" font-style="normal" 
clip-path="url(#clip68)" >
<polyline fill="none" vector-effect="none" points="183,292 183,290 " />
</g>

<g fill="none" stroke="#000000" stroke-opacity="1" stroke-width="1" stroke-linecap="square" stroke-linejoin="bevel" transform="matrix(2.24719,0,0,2.24719,-342.697,-634.831)"
font-family="Helvetica" font-size="16.6667" font-weight="400" font-style="normal" 
clip-path="url(#clip68)" >
<polyline fill="none" vector-effect="none" points="183,290 184,293 " />
</g>

<g fill="none" stroke="#000000" stroke-opacity="1" stroke-width="1" stroke-linecap="square" stroke-linejoin="bevel" transform="matrix(2.24719,0,0,2.24719,-342.697,-634.831)"
font-family="Helvetica" font-size="16.6667" font-weight="400" font-style="normal" 
clip-path="url(#clip68)" >
<polyline fill="none" vector-effect="none" points="184,293 185,297 " />
</g>

<g fill="none" stroke="#000000" stroke-opacity="1" stroke-width="1" stroke-linecap="square" stroke-linejoin="bevel" transform="matrix(2.24719,0,0,2.24719,-342.697,-634.831)"
font-family="Helvetica" font-size="16.6667" font-weight="400" font-style="normal" 
clip-path="url(#clip68)" >
<polyline fill="none" vector-effect="none" points="185,297 186,299 " />
</g>

<g fill="none" stroke="#000000" stroke-opacity="1" stroke-width="1" stroke-linecap="square" stroke-linejoin="bevel" transform="matrix(2.24719,0,0,2.24719,-342.697,-634.831)"
font-family="Helvetica" font-size="16.6667" font-weight="400" font-style="normal" 
clip-path="url(#clip68)" >
<polyline fill="none" vector-effect="none" points="186,299 187,297 " />
</g>

<g fill="none" stroke="#000000" stroke-opacity="1" stroke-width="1" stroke-linecap="square" stroke-linejoin="bevel" transform="matrix(2.24719,0,0,2.24719,-342.697,-634.831)"
font-family="Helvetica" font-size="16.6667" font-weight="400" font-style="normal" 
clip-path="url(#clip68)" >
<polyline fill="none" vector-effect="none" points="187,297 187,295 " />
</g>

<g fill="none" stroke="#000000" stroke-opacity="1" stroke-width="1" stroke-linecap="square" stroke-linejoin="bevel" transform="matrix(2.24719,0,0,2.24719,-342.697,-634.831)"
font-family="Helvetica" font-size="16.6667" font-weight="400" font-style="normal" 
clip-path="url(#clip68)" >
<polyline fill="none" vector-effect="none" points="187,295 189,291 " />
</g>

<g fill="none" stroke="#000000" stroke-opacity="1" stroke-width="1" stroke-linecap="square" stroke-linejoin="bevel" transform="matrix(2.24719,0,0,2.24719,-342.697,-634.831)"
font-family="Helvetica" font-size="16.6667" font-weight="400" font-style="normal" 
clip-path="url(#clip68)" >
<polyline fill="none" vector-effect="none" points="189,291 190,291 " />
</g>

<g fill="none" stroke="#000000" stroke-opacity="1" stroke-width="1" stroke-linecap="square" stroke-linejoin="bevel" transform="matrix(2.24719,0,0,2.24719,-342.697,-634.831)"
font-family="Helvetica" font-size="16.6667" font-weight="400" font-style="normal" 
clip-path="url(#clip68)" >
<polyline fill="none" vector-effect="none" points="190,291 192,294 " />
</g>

<g fill="none" stroke="#000000" stroke-opacity="1" stroke-width="1" stroke-linecap="square" stroke-linejoin="bevel" transform="matrix(2.24719,0,0,2.24719,-342.697,-634.831)"
font-family="Helvetica" font-size="16.6667" font-weight="400" font-style="normal" 
clip-path="url(#clip68)" >
<polyline fill="none" vector-effect="none" points="192,294 194,298 " />
</g>

<g fill="none" stroke="#000000" stroke-opacity="1" stroke-width="1" stroke-linecap="square" stroke-linejoin="bevel" transform="matrix(2.24719,0,0,2.24719,-342.697,-634.831)"
font-family="Helvetica" font-size="16.6667" font-weight="400" font-style="normal" 
clip-path="url(#clip68)" >
<polyline fill="none" vector-effect="none" points="194,298 195,299 " />
</g>

<g fill="none" stroke="#000000" stroke-opacity="1" stroke-width="1" stroke-linecap="square" stroke-linejoin="bevel" transform="matrix(2.24719,0,0,2.24719,-342.697,-634.831)"
font-family="Helvetica" font-size="16.6667" font-weight="400" font-style="normal" 
clip-path="url(#clip68)" >
<polyline fill="none" vector-effect="none" points="195,299 197,296 " />
</g>

<g fill="none" stroke="#000000" stroke-opacity="1" stroke-width="1" stroke-linecap="square" stroke-linejoin="bevel" transform="matrix(2.24719,0,0,2.24719,-342.697,-634.831)"
font-family="Helvetica" font-size="16.6667" font-weight="400" font-style="normal" 
clip-path="url(#clip68)" >
<polyline fill="none" vector-effect="none" points="197,296 198,295 " />
</g>

<g fill="none" stroke="#000000" stroke-opacity="1" stroke-width="1" stroke-linecap="square" stroke-linejoin="bevel" transform="matrix(2.24719,0,0,2.24719,-342.697,-634.831)"
font-family="Helvetica" font-size="16.6667" font-weight="400" font-style="normal" 
clip-path="url(#clip68)" >
<polyline fill="none" vector-effect="none" points="198,295 198,291 " />
</g>

<g fill="none" stroke="#000000" stroke-opacity="1" stroke-width="1" stroke-linecap="square" stroke-linejoin="bevel" transform="matrix(2.24719,0,0,2.24719,-342.697,-634.831)"
font-family="Helvetica" font-size="16.6667" font-weight="400" font-style="normal" 
clip-path="url(#clip68)" >
<polyline fill="none" vector-effect="none" points="198,291 199,291 " />
</g>

<g fill="none" stroke="#000000" stroke-opacity="1" stroke-width="1" stroke-linecap="square" stroke-linejoin="bevel" transform="matrix(2.24719,0,0,2.24719,-342.697,-634.831)"
font-family="Helvetica" font-size="16.6667" font-weight="400" font-style="normal" 
clip-path="url(#clip68)" >
<polyline fill="none" vector-effect="none" points="199,291 200,294 " />
</g>

<g fill="none" stroke="#000000" stroke-opacity="1" stroke-width="1" stroke-linecap="square" stroke-linejoin="bevel" transform="matrix(2.24719,0,0,2.24719,-342.697,-634.831)"
font-family="Helvetica" font-size="16.6667" font-weight="400" font-style="normal" 
clip-path="url(#clip68)" >
<polyline fill="none" vector-effect="none" points="200,294 201,298 " />
</g>

<g fill="none" stroke="#000000" stroke-opacity="1" stroke-width="1" stroke-linecap="square" stroke-linejoin="bevel" transform="matrix(2.24719,0,0,2.24719,-342.697,-634.831)"
font-family="Helvetica" font-size="16.6667" font-weight="400" font-style="normal" 
clip-path="url(#clip68)" >
<polyline fill="none" vector-effect="none" points="201,298 202,299 " />
</g>

<g fill="none" stroke="#000000" stroke-opacity="1" stroke-width="1" stroke-linecap="square" stroke-linejoin="bevel" transform="matrix(2.24719,0,0,2.24719,-342.697,-634.831)"
font-family="Helvetica" font-size="16.6667" font-weight="400" font-style="normal" 
clip-path="url(#clip68)" >
<polyline fill="none" vector-effect="none" points="202,299 202,296 " />
</g>

<g fill="none" stroke="#000000" stroke-opacity="1" stroke-width="1" stroke-linecap="square" stroke-linejoin="bevel" transform="matrix(2.24719,0,0,2.24719,-342.697,-634.831)"
font-family="Helvetica" font-size="16.6667" font-weight="400" font-style="normal" 
clip-path="url(#clip68)" >
<polyline fill="none" vector-effect="none" points="202,296 203,292 " />
</g>

<g fill="none" stroke="#000000" stroke-opacity="1" stroke-width="1" stroke-linecap="square" stroke-linejoin="bevel" transform="matrix(2.24719,0,0,2.24719,-342.697,-634.831)"
font-family="Helvetica" font-size="16.6667" font-weight="400" font-style="normal" 
clip-path="url(#clip68)" >
<polyline fill="none" vector-effect="none" points="203,292 204,290 " />
</g>

<g fill="none" stroke="#000000" stroke-opacity="1" stroke-width="1" stroke-linecap="square" stroke-linejoin="bevel" transform="matrix(2.24719,0,0,2.24719,-342.697,-634.831)"
font-family="Helvetica" font-size="16.6667" font-weight="400" font-style="normal" 
clip-path="url(#clip68)" >
<polyline fill="none" vector-effect="none" points="204,290 205,293 " />
</g>

<g fill="none" stroke="#000000" stroke-opacity="1" stroke-width="1" stroke-linecap="square" stroke-linejoin="bevel" transform="matrix(2.24719,0,0,2.24719,-342.697,-634.831)"
font-family="Helvetica" font-size="16.6667" font-weight="400" font-style="normal" 
clip-path="url(#clip68)" >
<polyline fill="none" vector-effect="none" points="205,293 206,297 " />
</g>

<g fill="none" stroke="#000000" stroke-opacity="1" stroke-width="1" stroke-linecap="square" stroke-linejoin="bevel" transform="matrix(2.24719,0,0,2.24719,-342.697,-634.831)"
font-family="Helvetica" font-size="16.6667" font-weight="400" font-style="normal" 
clip-path="url(#clip68)" >
<polyline fill="none" vector-effect="none" points="206,297 207,299 " />
</g>

<g fill="none" stroke="#000000" stroke-opacity="1" stroke-width="1" stroke-linecap="square" stroke-linejoin="bevel" transform="matrix(2.24719,0,0,2.24719,-342.697,-634.831)"
font-family="Helvetica" font-size="16.6667" font-weight="400" font-style="normal" 
clip-path="url(#clip68)" >
<polyline fill="none" vector-effect="none" points="207,299 207,297 " />
</g>

<g fill="none" stroke="#000000" stroke-opacity="1" stroke-width="1" stroke-linecap="square" stroke-linejoin="bevel" transform="matrix(2.24719,0,0,2.24719,-342.697,-634.831)"
font-family="Helvetica" font-size="16.6667" font-weight="400" font-style="normal" 
clip-path="url(#clip68)" >
<polyline fill="none" vector-effect="none" points="207,297 208,295 " />
</g>

<g fill="none" stroke="#000000" stroke-opacity="1" stroke-width="1" stroke-linecap="square" stroke-linejoin="bevel" transform="matrix(2.24719,0,0,2.24719,-342.697,-634.831)"
font-family="Helvetica" font-size="16.6667" font-weight="400" font-style="normal" 
clip-path="url(#clip68)" >
<polyline fill="none" vector-effect="none" points="208,295 208,288 " />
</g>

<g fill="none" stroke="#000000" stroke-opacity="1" stroke-width="1" stroke-linecap="square" stroke-linejoin="bevel" transform="matrix(2.24719,0,0,2.24719,-342.697,-634.831)"
font-family="Helvetica" font-size="16.6667" font-weight="400" font-style="normal" 
clip-path="url(#clip68)" >
<polyline fill="none" vector-effect="none" points="208,288 208,299 " />
</g>

<g fill="none" stroke="#000000" stroke-opacity="1" stroke-width="1" stroke-linecap="square" stroke-linejoin="bevel" transform="matrix(2.24719,0,0,2.24719,-342.697,-634.831)"
font-family="Helvetica" font-size="16.6667" font-weight="400" font-style="normal" 
clip-path="url(#clip68)" >
<polyline fill="none" vector-effect="none" points="208,299 208,291 " />
</g>

<g fill="none" stroke="#000000" stroke-opacity="1" stroke-width="1" stroke-linecap="square" stroke-linejoin="bevel" transform="matrix(2.24719,0,0,2.24719,-342.697,-634.831)"
font-family="Helvetica" font-size="16.6667" font-weight="400" font-style="normal" 
clip-path="url(#clip68)" >
<polyline fill="none" vector-effect="none" points="208,291 215,291 " />
</g>

<g fill="none" stroke="#000000" stroke-opacity="1" stroke-width="1" stroke-linecap="square" stroke-linejoin="bevel" transform="matrix(2.24719,0,0,2.24719,-342.697,-634.831)"
font-family="Helvetica" font-size="16.6667" font-weight="400" font-style="normal" 
clip-path="url(#clip68)" >
<polyline fill="none" vector-effect="none" points="215,291 215,298 " />
</g>

<g fill="none" stroke="#000000" stroke-opacity="1" stroke-width="1" stroke-linecap="square" stroke-linejoin="bevel" transform="matrix(2.24719,0,0,2.24719,-342.697,-634.831)"
font-family="Helvetica" font-size="16.6667" font-weight="400" font-style="normal" 
clip-path="url(#clip68)" >
<polyline fill="none" vector-effect="none" points="215,298 222,298 " />
</g>

<g fill="none" stroke="#000000" stroke-opacity="1" stroke-width="1" stroke-linecap="square" stroke-linejoin="bevel" transform="matrix(2.24719,0,0,2.24719,-342.697,-634.831)"
font-family="Helvetica" font-size="16.6667" font-weight="400" font-style="normal" 
clip-path="url(#clip68)" >
<polyline fill="none" vector-effect="none" points="222,298 222,291 " />
</g>

<g fill="none" stroke="#000000" stroke-opacity="1" stroke-width="1" stroke-linecap="square" stroke-linejoin="bevel" transform="matrix(2.24719,0,0,2.24719,-342.697,-634.831)"
font-family="Helvetica" font-size="16.6667" font-weight="400" font-style="normal" 
clip-path="url(#clip68)" >
<polyline fill="none" vector-effect="none" points="222,291 229,291 " />
</g>

<g fill="none" stroke="#000000" stroke-opacity="1" stroke-width="1" stroke-linecap="square" stroke-linejoin="bevel" transform="matrix(2.24719,0,0,2.24719,98.8764,60.6742)"
font-family="Liberation Sans" font-size="10" font-weight="400" font-style="normal" 
clip-path="url(#clip69)" >
<defs><clipPath id="clip69"><path vector-effect="none" fill-rule="evenodd" d="M-37,-25 L38,-25 L38,25 L-37,25 L-37,-25z "/>
</clipPath></defs></g>

<g fill="none" stroke="#000000" stroke-opacity="1" stroke-width="1" stroke-linecap="square" stroke-linejoin="bevel" transform="matrix(2.24719,0,0,2.24719,98.8764,60.6742)"
font-family="Liberation Sans" font-size="10" font-weight="400" font-style="normal" 
clip-path="url(#clip69)" >
<text textLength="27.7344" fill="#000000" fill-opacity="1" stroke="none" xml:space="preserve" x="-14" y="3" font-family="Liberation Sans" font-size="10" font-weight="400" font-style="normal" 
 >QPSK</text>
</g>

<g fill="none" stroke="#000000" stroke-opacity="1" stroke-width="1" stroke-linecap="square" stroke-linejoin="bevel" transform="matrix(2.24719,0,0,2.24719,98.8764,60.6742)"
font-family="Liberation Sans" font-size="10" font-weight="400" font-style="normal" 
clip-path="url(#clip69)" >
</g>

<g fill="none" stroke="#000000" stroke-opacity="1" stroke-width="1" stroke-linecap="square" stroke-linejoin="bevel" transform="matrix(2.24719,0,0,2.24719,98.8764,60.6742)"
font-family="Liberation Sans" font-size="10" font-weight="400" font-style="normal" 
clip-path="url(#clip70)" >
<defs><clipPath id="clip70"><path vector-effect="none" fill-rule="evenodd" d="M-7,-2 L82,-2 L82,52 L-7,52 L-7,-2z "/>
</clipPath></defs></g>

<g fill="none" stroke="#000000" stroke-opacity="1" stroke-width="1" stroke-linecap="square" stroke-linejoin="bevel" transform="matrix(1,0,0,1,0,0)"
font-family="Liberation Sans" font-size="10" font-weight="400" font-style="normal" 
clip-path="url(#clip70)" >
</g>

<g fill="none" stroke="#000000" stroke-opacity="1" stroke-width="1" stroke-linecap="square" stroke-linejoin="bevel" transform="matrix(2.24719,0,0,2.24719,15.7303,4.49438)"
font-family="Helvetica" font-size="16.6667" font-weight="400" font-style="normal" 
clip-path="url(#clip70)" >
</g>

<g fill="none" stroke="#000000" stroke-opacity="1" stroke-width="1" stroke-linecap="square" stroke-linejoin="bevel" transform="matrix(2.24719,0,0,2.24719,15.7303,4.49438)"
font-family="Helvetica" font-size="16.6667" font-weight="400" font-style="normal" 
clip-path="url(#clip70)" >
</g>

<g fill="none" stroke="#000000" stroke-opacity="1" stroke-width="0.723343" stroke-linecap="butt" stroke-linejoin="miter" stroke-miterlimit="2" transform="matrix(2.24719,0,0,2.24719,15.7303,4.49438)"
font-family="Helvetica" font-size="16.6667" font-weight="400" font-style="normal" 
clip-path="url(#clip70)" >
<path vector-effect="none" fill-rule="evenodd" d="M0,0 L75,0 L75,50 L0,50 L0,0z "/>
</g>

<g fill="none" stroke="#000000" stroke-opacity="1" stroke-width="1" stroke-linecap="square" stroke-linejoin="bevel" transform="matrix(2.24719,0,0,2.24719,15.7303,4.49438)"
font-family="Helvetica" font-size="16.6667" font-weight="400" font-style="normal" 
clip-path="url(#clip70)" >
</g>

<g fill="none" stroke="#000000" stroke-opacity="1" stroke-width="1" stroke-linecap="square" stroke-linejoin="bevel" transform="matrix(1,0,0,1,0,0)"
font-family="Helvetica" font-size="16.6667" font-weight="400" font-style="normal" 
>
</g>

<g fill="none" stroke="#000000" stroke-opacity="1" stroke-width="1" stroke-linecap="square" stroke-linejoin="bevel" transform="matrix(1,0,0,1,0,0)"
font-family="Helvetica" font-size="16.6667" font-weight="400" font-style="normal" 
>
</g>

<g fill="none" stroke="#000000" stroke-opacity="1" stroke-width="1" stroke-linecap="square" stroke-linejoin="bevel" transform="matrix(1,0,0,1,0,0)"
font-family="Helvetica" font-size="16.6667" font-weight="400" font-style="normal" 
clip-path="url(#clip71)" >
<defs><clipPath id="clip71"><path vector-effect="non-scaling-stroke" fill-rule="evenodd" d="M0,0 L200,0 L200,121 L0,121 L0,0z "/>
</clipPath></defs></g>

<g fill="none" stroke="#000000" stroke-opacity="1" stroke-width="1" stroke-linecap="square" stroke-linejoin="bevel" transform="matrix(1,0,0,1,0,0)"
font-family="Helvetica" font-size="16.6667" font-weight="400" font-style="normal" 
>
</g>

<g fill="none" stroke="#000000" stroke-opacity="1" stroke-width="1" stroke-linecap="square" stroke-linejoin="bevel" transform="matrix(1,0,0,1,0,0)"
font-family="Helvetica" font-size="16.6667" font-weight="400" font-style="normal" 
>
</g>

<g fill="none" stroke="#000000" stroke-opacity="1" stroke-width="1" stroke-linecap="square" stroke-linejoin="bevel" transform="matrix(1,0,0,1,0,0)"
font-family="Helvetica" font-size="16.6667" font-weight="400" font-style="normal" 
clip-path="url(#clip72)" >
<defs><clipPath id="clip72"><path vector-effect="non-scaling-stroke" fill-rule="evenodd" d="M0,0 L1,0 L1,1 L0,1 L0,0z "/>
</clipPath></defs></g>

<g fill="none" stroke="#000000" stroke-opacity="1" stroke-width="1" stroke-linecap="square" stroke-linejoin="bevel" transform="matrix(1,0,0,1,0,0)"
font-family="Helvetica" font-size="16.6667" font-weight="400" font-style="normal" 
>
</g>

<g fill="none" stroke="#000000" stroke-opacity="1" stroke-width="1" stroke-linecap="square" stroke-linejoin="bevel" transform="matrix(1,0,0,1,0,0)"
font-family="Helvetica" font-size="16.6667" font-weight="400" font-style="normal" 
>
</g>
</g>
</svg>
