<?xml version="1.0" encoding="UTF-8"?><svg width="52.9167mm" height="24.8708mm" viewBox="0 0 200 94" xmlns="http://www.w3.org/2000/svg" xmlns:xlink="http://www.w3.org/1999/xlink"><g fill="none" stroke="black" stroke-width="1" fill-rule="evenodd" stroke-linecap="square" stroke-linejoin="bevel"><g clip-path="none" fill="none" opacity="1" stroke="none" stroke-opacity="0" transform="matrix(1,0,0,1,0,0)"><path d="M0,0 L200,0 L200,94 L0,94 L0,0 z" fill-rule="evenodd" vector-effect="none"/></g><defs><clipPath id="clip3"><path d="M7,19 L-137,19 L-137,-49 L7,-49 L7,19 z"/></clipPath></defs><g clip-path="url(#clip3)" fill="none" opacity="1" stroke="#000000" stroke-linecap="round" stroke-linejoin="miter" stroke-miterlimit="2" stroke-opacity="1" stroke-width="2" transform="matrix(-1.38889,0,0,-1.38889,9.72222,26.3889)"><path d="M5,-5 L0,0 L5,5" fill-rule="evenodd" vector-effect="none"/></g><defs><clipPath id="clip6"><path d="M7,49 L-137,49 L-137,-19 L7,-19 L7,49 z"/></clipPath></defs><g clip-path="url(#clip6)" fill="none" opacity="1" stroke="#000000" stroke-linecap="round" stroke-linejoin="miter" stroke-miterlimit="2" stroke-opacity="1" stroke-width="2" transform="matrix(-1.38889,0,0,-1.38889,9.72222,68.0556)"><path d="M5,-5 L0,0 L5,5" fill-rule="evenodd" vector-effect="none"/></g><defs><clipPath id="clip9"><path d="M-137,-34 L7,-34 L7,34 L-137,34 L-137,-34 z"/></clipPath></defs><g clip-path="url(#clip9)" fill="none" opacity="1" stroke="#000000" stroke-linecap="round" stroke-linejoin="miter" stroke-miterlimit="2" stroke-opacity="1" stroke-width="2" transform="matrix(1.38889,0,0,1.38889,190.278,47.2222)"><path d="M0,-5 L5,0 L0,5" fill-rule="evenodd" vector-effect="none"/></g><defs><clipPath id="clip12"><path d="M-7,-2 L137,-2 L137,66 L-7,66 L-7,-2 z"/></clipPath></defs><g clip-path="url(#clip12)" fill="#ffffff" fill-opacity="1" opacity="1" stroke="none" stroke-opacity="0" transform="matrix(1.38889,0,0,1.38889,9.72222,2.77778)"><path d="M0,0 L130,0 L130,64 L0,64 L0,0 z" fill-rule="evenodd" vector-effect="none"/></g><defs><clipPath id="clip17"><path d="M-333,-164 L333,-164 L333,164 L-333,164 L-333,-164 z"/></clipPath></defs><g clip-path="url(#clip17)" fill="none" opacity="1" stroke="#000000" stroke-linecap="butt" stroke-linejoin="miter" stroke-miterlimit="2" stroke-opacity="1" stroke-width="0.72" transform="matrix(0.271267,0,0,0.271267,100,47.2222)"><text fill="#000000" fill-opacity="1" font-family="Liberation Sans" font-size="40" font-style="normal" font-weight="400" stroke="none" textLength="96" x="-60.5" xml:space="preserve" y="17.9219">Warp</text></g><defs><clipPath id="clip20"><path d="M-15,-87 L651,-87 L651,241 L-15,241 L-15,-87 z"/></clipPath></defs><g clip-path="url(#clip20)" fill="none" opacity="1" stroke="#000000" stroke-linecap="butt" stroke-linejoin="miter" stroke-miterlimit="2" stroke-opacity="1" stroke-width="0.72" transform="matrix(0.271267,0,0,0.271267,13.8889,26.3889)"><text fill="#000000" fill-opacity="1" font-family="Liberation Sans" font-size="40" font-style="normal" font-weight="400" stroke="none" textLength="110" x="0" xml:space="preserve" y="17.9219">Image</text></g><defs><clipPath id="clip23"><path d="M-15,-241 L651,-241 L651,87 L-15,87 L-15,-241 z"/></clipPath></defs><g clip-path="url(#clip23)" fill="none" opacity="1" stroke="#000000" stroke-linecap="butt" stroke-linejoin="miter" stroke-miterlimit="2" stroke-opacity="1" stroke-width="0.72" transform="matrix(0.271267,0,0,0.271267,13.8889,68.0556)"><text fill="#000000" fill-opacity="1" font-family="Liberation Sans" font-size="40" font-style="normal" font-weight="400" stroke="none" textLength="117" x="0" xml:space="preserve" y="17.9219">TForm</text></g><defs><clipPath id="clip29"><path d="M-7,-2 L137,-2 L137,66 L-7,66 L-7,-2 z"/></clipPath></defs><g clip-path="url(#clip29)" fill="none" opacity="1" stroke="#000000" stroke-linecap="butt" stroke-linejoin="miter" stroke-miterlimit="2" stroke-opacity="1" stroke-width="0.876866" transform="matrix(1.38889,0,0,1.38889,9.72222,2.77778)"><path d="M0,0 L130,0 L130,64 L0,64 L0,0 z" fill-rule="evenodd" vector-effect="none"/></g></g></svg>
