<?xml version="1.0" encoding="UTF-8"?><svg width="52.9167mm" height="24.0771mm" viewBox="0 0 200 91" xmlns="http://www.w3.org/2000/svg" xmlns:xlink="http://www.w3.org/1999/xlink"><g fill="none" stroke="black" stroke-width="1" fill-rule="evenodd" stroke-linecap="square" stroke-linejoin="bevel"><g clip-path="none" fill="none" opacity="1" stroke="none" stroke-opacity="0" transform="matrix(1,0,0,1,0,0)"><path d="M0,0 L200,0 L200,91 L0,91 L0,0 z" fill-rule="evenodd" vector-effect="none"/></g><defs><clipPath id="clip3"><path d="M-122,-17 L7,-17 L7,42 L-122,42 L-122,-17 z"/></clipPath></defs><g clip-path="url(#clip3)" fill="none" opacity="1" stroke="#000000" stroke-linecap="round" stroke-linejoin="miter" stroke-miterlimit="2" stroke-opacity="1" stroke-width="2" transform="matrix(1.55039,0,0,1.55039,189.147,26.3566)"><path d="M0,-5 L5,0 L0,5" fill-rule="evenodd" vector-effect="none"/></g><defs><clipPath id="clip6"><path d="M-122,-42 L7,-42 L7,17 L-122,17 L-122,-42 z"/></clipPath></defs><g clip-path="url(#clip6)" fill="none" opacity="1" stroke="#000000" stroke-linecap="round" stroke-linejoin="miter" stroke-miterlimit="2" stroke-opacity="1" stroke-width="2" transform="matrix(1.55039,0,0,1.55039,189.147,65.1163)"><path d="M0,-5 L5,0 L0,5" fill-rule="evenodd" vector-effect="none"/></g><defs><clipPath id="clip9"><path d="M7,32 L-122,32 L-122,-27 L7,-27 L7,32 z"/></clipPath></defs><g clip-path="url(#clip9)" fill="none" opacity="1" stroke="#000000" stroke-linecap="round" stroke-linejoin="miter" stroke-miterlimit="2" stroke-opacity="1" stroke-width="2" transform="matrix(-1.55039,0,0,-1.55039,10.8527,49.6124)"><path d="M5,-5 L0,0 L5,5" fill-rule="evenodd" vector-effect="none"/></g><defs><clipPath id="clip12"><path d="M-7,-2 L122,-2 L122,57 L-7,57 L-7,-2 z"/></clipPath></defs><g clip-path="url(#clip12)" fill="#ffffff" fill-opacity="1" opacity="1" stroke="none" stroke-opacity="0" transform="matrix(1.55039,0,0,1.55039,10.8527,3.10078)"><path d="M0,0 L115,0 L115,55 L0,55 L0,0 z" fill-rule="evenodd" vector-effect="none"/></g><defs><clipPath id="clip17"><path d="M-292,-138 L297,-138 L297,144 L-292,144 L-292,-138 z"/></clipPath></defs><g clip-path="url(#clip17)" fill="none" opacity="1" stroke="#000000" stroke-linecap="butt" stroke-linejoin="miter" stroke-miterlimit="2" stroke-opacity="1" stroke-width="0.645" transform="matrix(0.30281,0,0,0.30281,99.2248,44.9612)"><text fill="#000000" fill-opacity="1" font-family="Liberation Sans" font-size="40" font-style="normal" font-weight="400" stroke="none" textLength="96" x="-62.5938" xml:space="preserve" y="17.9219">Label</text></g><defs><clipPath id="clip20"><path d="M-15,-154 L574,-154 L574,128 L-15,128 L-15,-154 z"/></clipPath></defs><g clip-path="url(#clip20)" fill="none" opacity="1" stroke="#000000" stroke-linecap="butt" stroke-linejoin="miter" stroke-miterlimit="2" stroke-opacity="1" stroke-width="0.645" transform="matrix(0.30281,0,0,0.30281,15.5039,49.6124)"><text fill="#000000" fill-opacity="1" font-family="Liberation Sans" font-size="40" font-style="normal" font-weight="400" stroke="none" textLength="67" x="0" xml:space="preserve" y="17.9219">BW</text></g><defs><clipPath id="clip23"><path d="M-573,-77 L16,-77 L16,205 L-573,205 L-573,-77 z"/></clipPath></defs><g clip-path="url(#clip23)" fill="none" opacity="1" stroke="#000000" stroke-linecap="butt" stroke-linejoin="miter" stroke-miterlimit="2" stroke-opacity="1" stroke-width="0.645" transform="matrix(0.30281,0,0,0.30281,184.496,26.3566)"><text fill="#000000" fill-opacity="1" font-family="Liberation Sans" font-size="40" font-style="normal" font-weight="400" stroke="none" textLength="96" x="-125.188" xml:space="preserve" y="17.9219">Label</text></g><defs><clipPath id="clip26"><path d="M-573,-205 L16,-205 L16,77 L-573,77 L-573,-205 z"/></clipPath></defs><g clip-path="url(#clip26)" fill="none" opacity="1" stroke="#000000" stroke-linecap="butt" stroke-linejoin="miter" stroke-miterlimit="2" stroke-opacity="1" stroke-width="0.645" transform="matrix(0.30281,0,0,0.30281,184.496,65.1163)"><text fill="#000000" fill-opacity="1" font-family="Liberation Sans" font-size="40" font-style="normal" font-weight="400" stroke="none" textLength="104" x="-136.547" xml:space="preserve" y="17.9219">Count</text></g><defs><clipPath id="clip32"><path d="M-7,-2 L122,-2 L122,57 L-7,57 L-7,-2 z"/></clipPath></defs><g clip-path="url(#clip32)" fill="none" opacity="1" stroke="#000000" stroke-linecap="butt" stroke-linejoin="miter" stroke-miterlimit="2" stroke-opacity="1" stroke-width="0.83912" transform="matrix(1.55039,0,0,1.55039,10.8527,3.10078)"><path d="M0,0 L115,0 L115,55 L0,55 L0,0 z" fill-rule="evenodd" vector-effect="none"/></g></g></svg>
