<?xml version="1.0" encoding="UTF-8"?><svg width="52.9167mm" height="28.0458mm" viewBox="0 0 200 106" xmlns="http://www.w3.org/2000/svg" xmlns:xlink="http://www.w3.org/1999/xlink"><g fill="none" stroke="black" stroke-width="1" fill-rule="evenodd" stroke-linecap="square" stroke-linejoin="bevel"><g clip-path="none" fill="none" opacity="1" stroke="none" stroke-opacity="0" transform="matrix(1,0,0,1,0,0)"><path d="M0,0 L200,0 L200,106 L0,106 L0,0 z" fill-rule="evenodd" vector-effect="none"/></g><defs><clipPath id="clip3"><path d="M7,62 L-132,62 L-132,-12 L7,-12 L7,62 z"/></clipPath></defs><g clip-path="url(#clip3)" fill="none" opacity="1" stroke="#000000" stroke-linecap="round" stroke-linejoin="miter" stroke-miterlimit="2" stroke-opacity="1" stroke-width="2" transform="matrix(-1.43885,0,0,-1.43885,10.0719,89.2086)"><path d="M5,-5 L0,0 L5,5" fill-rule="evenodd" vector-effect="none"/></g><defs><clipPath id="clip6"><path d="M7,37 L-132,37 L-132,-37 L7,-37 L7,37 z"/></clipPath></defs><g clip-path="url(#clip6)" fill="none" opacity="1" stroke="#000000" stroke-linecap="round" stroke-linejoin="miter" stroke-miterlimit="2" stroke-opacity="1" stroke-width="2" transform="matrix(-1.43885,0,0,-1.43885,10.0719,53.2374)"><path d="M5,-5 L0,0 L5,5" fill-rule="evenodd" vector-effect="none"/></g><defs><clipPath id="clip9"><path d="M7,12 L-132,12 L-132,-62 L7,-62 L7,12 z"/></clipPath></defs><g clip-path="url(#clip9)" fill="none" opacity="1" stroke="#000000" stroke-linecap="round" stroke-linejoin="miter" stroke-miterlimit="2" stroke-opacity="1" stroke-width="2" transform="matrix(-1.43885,0,0,-1.43885,10.0719,17.2662)"><path d="M5,-5 L0,0 L5,5" fill-rule="evenodd" vector-effect="none"/></g><defs><clipPath id="clip12"><path d="M-7,-2 L132,-2 L132,72 L-7,72 L-7,-2 z"/></clipPath></defs><g clip-path="url(#clip12)" fill="#ffffff" fill-opacity="1" opacity="1" stroke="none" stroke-opacity="0" transform="matrix(1.43885,0,0,1.43885,10.0719,2.8777)"><path d="M0,0 L130,0 L130,70 L0,70 L0,0 z" fill-rule="evenodd" vector-effect="none"/></g><defs><clipPath id="clip17"><path d="M-333,-179 L333,-179 L333,179 L-333,179 L-333,-179 z"/></clipPath></defs><g clip-path="url(#clip17)" fill="none" opacity="1" stroke="#000000" stroke-linecap="butt" stroke-linejoin="miter" stroke-miterlimit="2" stroke-opacity="1" stroke-width="0.695" transform="matrix(0.281025,0,0,0.281025,103.597,53.2374)"><text fill="#000000" fill-opacity="1" font-family="Liberation Sans" font-size="40" font-style="normal" font-weight="400" stroke="none" textLength="170" x="-112.375" xml:space="preserve" y="17.9219">output.bin</text></g><defs><clipPath id="clip20"><path d="M-15,-51 L651,-51 L651,307 L-15,307 L-15,-51 z"/></clipPath></defs><g clip-path="url(#clip20)" fill="none" opacity="1" stroke="#000000" stroke-linecap="butt" stroke-linejoin="miter" stroke-miterlimit="2" stroke-opacity="1" stroke-width="0.695" transform="matrix(0.281025,0,0,0.281025,14.3885,17.2662)"><text fill="#000000" fill-opacity="1" font-family="Liberation Sans" font-size="40" font-style="normal" font-weight="400" stroke="none" textLength="34" x="0" xml:space="preserve" y="17.9219">Y'</text></g><defs><clipPath id="clip23"><path d="M-15,-179 L651,-179 L651,179 L-15,179 L-15,-179 z"/></clipPath></defs><g clip-path="url(#clip23)" fill="none" opacity="1" stroke="#000000" stroke-linecap="butt" stroke-linejoin="miter" stroke-miterlimit="2" stroke-opacity="1" stroke-width="0.695" transform="matrix(0.281025,0,0,0.281025,14.3885,53.2374)"><text fill="#000000" fill-opacity="1" font-family="Liberation Sans" font-size="40" font-style="normal" font-weight="400" stroke="none" textLength="51" x="0" xml:space="preserve" y="17.9219">Cb</text></g><defs><clipPath id="clip26"><path d="M-15,-307 L651,-307 L651,51 L-15,51 L-15,-307 z"/></clipPath></defs><g clip-path="url(#clip26)" fill="none" opacity="1" stroke="#000000" stroke-linecap="butt" stroke-linejoin="miter" stroke-miterlimit="2" stroke-opacity="1" stroke-width="0.695" transform="matrix(0.281025,0,0,0.281025,14.3885,89.2086)"><text fill="#000000" fill-opacity="1" font-family="Liberation Sans" font-size="40" font-style="normal" font-weight="400" stroke="none" textLength="42" x="0" xml:space="preserve" y="17.9219">Cr</text></g><defs><clipPath id="clip32"><path d="M-7,-2 L132,-2 L132,72 L-7,72 L-7,-2 z"/></clipPath></defs><g clip-path="url(#clip32)" fill="none" opacity="1" stroke="#000000" stroke-linecap="butt" stroke-linejoin="miter" stroke-miterlimit="2" stroke-opacity="1" stroke-width="0.864558" transform="matrix(1.43885,0,0,1.43885,10.0719,2.8777)"><path d="M0,0 L130,0 L130,70 L0,70 L0,0 z" fill-rule="evenodd" vector-effect="none"/></g></g></svg>
