<?xml version="1.0" encoding="UTF-8"?><svg width="52.9167mm" height="23.2833mm" viewBox="0 0 200 88" xmlns="http://www.w3.org/2000/svg" xmlns:xlink="http://www.w3.org/1999/xlink"><g fill="none" stroke="black" stroke-width="1" fill-rule="evenodd" stroke-linecap="square" stroke-linejoin="bevel"><g clip-path="none" fill="none" opacity="1" stroke="none" stroke-opacity="0" transform="matrix(1,0,0,1,0,0)"><path d="M0,0 L200,0 L200,88 L0,88 L0,0 z" fill-rule="evenodd" vector-effect="none"/></g><defs><clipPath id="clip3"><path d="M-142,-33 L7,-33 L7,33 L-142,33 L-142,-33 z"/></clipPath></defs><g clip-path="url(#clip3)" fill="none" opacity="1" stroke="#000000" stroke-linecap="round" stroke-linejoin="miter" stroke-miterlimit="2" stroke-opacity="1" stroke-width="2" transform="matrix(1.34228,0,0,1.34228,190.604,44.2953)"><path d="M0,-5 L5,0 L0,5" fill-rule="evenodd" vector-effect="none"/></g><defs><clipPath id="clip6"><path d="M-2,-2 L147,-2 L147,64 L-2,64 L-2,-2 z"/></clipPath></defs><g clip-path="url(#clip6)" fill="#ffffff" fill-opacity="1" opacity="1" stroke="none" stroke-opacity="0" transform="matrix(1.34228,0,0,1.34228,2.68456,2.68456)"><path d="M0,0 L140,0 L140,62 L0,62 L0,0 z" fill-rule="evenodd" vector-effect="none"/></g><defs><clipPath id="clip11"><path d="M-358,-133 L359,-133 L359,184 L-358,184 L-358,-133 z"/></clipPath></defs><g clip-path="url(#clip11)" fill="none" opacity="1" stroke="#000000" stroke-linecap="butt" stroke-linejoin="miter" stroke-miterlimit="2" stroke-opacity="1" stroke-width="0.745" transform="matrix(0.262164,0,0,0.262164,96.6443,37.5839)"><text fill="#000000" fill-opacity="1" font-family="Liberation Sans" font-size="40" font-style="normal" font-weight="400" stroke="none" textLength="186" x="-122.297" xml:space="preserve" y="17.9219">vipmen.avi</text></g><defs><clipPath id="clip14"><path d="M-358,-184 L359,-184 L359,133 L-358,133 L-358,-184 z"/></clipPath></defs><g clip-path="url(#clip14)" fill="none" opacity="1" stroke="#000000" stroke-linecap="butt" stroke-linejoin="miter" stroke-miterlimit="2" stroke-opacity="1" stroke-width="0.745" transform="matrix(0.262164,0,0,0.262164,96.6443,51.0067)"><text fill="#000000" fill-opacity="1" font-family="Liberation Sans" font-size="40" font-style="normal" font-weight="400" stroke="none" textLength="361" x="-234.094" xml:space="preserve" y="17.9219">V: 120x160, 30.0 fps</text></g><defs><clipPath id="clip17"><path d="M-701,-159 L16,-159 L16,158 L-701,158 L-701,-159 z"/></clipPath></defs><g clip-path="url(#clip17)" fill="none" opacity="1" stroke="#000000" stroke-linecap="butt" stroke-linejoin="miter" stroke-miterlimit="2" stroke-opacity="1" stroke-width="0.745" transform="matrix(0.262164,0,0,0.262164,186.577,44.2953)"><text fill="#000000" fill-opacity="1" font-family="Liberation Sans" font-size="40" font-style="normal" font-weight="400" stroke="none" textLength="110" x="-142.234" xml:space="preserve" y="17.9219">Image</text></g><defs><clipPath id="clip23"><path d="M-2,-2 L147,-2 L147,64 L-2,64 L-2,-2 z"/></clipPath></defs><g clip-path="url(#clip23)" fill="none" opacity="1" stroke="#000000" stroke-linecap="butt" stroke-linejoin="miter" stroke-miterlimit="2" stroke-opacity="1" stroke-width="0.88892" transform="matrix(1.34228,0,0,1.34228,2.68456,2.68456)"><path d="M0,0 L140,0 L140,62 L0,62 L0,0 z" fill-rule="evenodd" vector-effect="none"/></g></g></svg>
