<?xml version="1.0" encoding="UTF-8"?><svg width="52.9167mm" height="33.6021mm" viewBox="0 0 200 127" xmlns="http://www.w3.org/2000/svg" xmlns:xlink="http://www.w3.org/1999/xlink"><g fill="none" stroke="black" stroke-width="1" fill-rule="evenodd" stroke-linecap="square" stroke-linejoin="bevel"><g clip-path="none" fill="none" opacity="1" stroke="none" stroke-opacity="0" transform="matrix(1,0,0,1,0,0)"><path d="M0,0 L200,0 L200,127 L0,127 L0,0 z" fill-rule="evenodd" vector-effect="none"/></g><defs><clipPath id="clip3"><path d="M7,22 L-62,22 L-62,-22 L7,-22 L7,22 z"/></clipPath></defs><g clip-path="url(#clip3)" fill="none" opacity="1" stroke="#000000" stroke-linecap="round" stroke-linejoin="miter" stroke-miterlimit="2" stroke-opacity="1" stroke-width="2" transform="matrix(-2.89855,0,0,-2.89855,20.2899,63.7681)"><path d="M5,-5 L0,0 L5,5" fill-rule="evenodd" vector-effect="none"/></g><defs><clipPath id="clip6"><path d="M-62,-22 L7,-22 L7,22 L-62,22 L-62,-22 z"/></clipPath></defs><g clip-path="url(#clip6)" fill="none" opacity="1" stroke="#000000" stroke-linecap="round" stroke-linejoin="miter" stroke-miterlimit="2" stroke-opacity="1" stroke-width="2" transform="matrix(2.89855,0,0,2.89855,179.71,63.7681)"><path d="M0,-5 L5,0 L0,5" fill-rule="evenodd" vector-effect="none"/></g><defs><clipPath id="clip9"><path d="M-7,-2 L62,-2 L62,42 L-7,42 L-7,-2 z"/></clipPath></defs><g clip-path="url(#clip9)" fill="#ffffff" fill-opacity="1" opacity="1" stroke="none" stroke-opacity="0" transform="matrix(2.89855,0,0,2.89855,20.2899,5.7971)"><path d="M0,0 L55,0 L55,40 L0,40 L0,0 z" fill-rule="evenodd" vector-effect="none"/></g><defs><clipPath id="clip13"><path d="M184,50 L239,50 L239,90 L184,90 L184,50 z"/></clipPath></defs><g clip-path="url(#clip13)" fill="none" opacity="1" stroke="#000000" stroke-linecap="butt" stroke-linejoin="miter" stroke-miterlimit="2" stroke-opacity="1" stroke-width="0.345" transform="matrix(2.89855,0,0,2.89855,-514.493,-137.681)"><polyline fill="none" points="209,60 216,60" vector-effect="none"/></g><defs><clipPath id="clip14"><path d="M184,50 L239,50 L239,90 L184,90 L184,50 z"/></clipPath></defs><g clip-path="url(#clip14)" fill="none" opacity="1" stroke="#000000" stroke-linecap="butt" stroke-linejoin="miter" stroke-miterlimit="2" stroke-opacity="1" stroke-width="0.345" transform="matrix(2.89855,0,0,2.89855,-514.493,-137.681)"><polyline fill="none" points="216,60 213,60" vector-effect="none"/></g><defs><clipPath id="clip15"><path d="M184,50 L239,50 L239,90 L184,90 L184,50 z"/></clipPath></defs><g clip-path="url(#clip15)" fill="none" opacity="1" stroke="#000000" stroke-linecap="butt" stroke-linejoin="miter" stroke-miterlimit="2" stroke-opacity="1" stroke-width="0.345" transform="matrix(2.89855,0,0,2.89855,-514.493,-137.681)"><polyline fill="none" points="213,60 213,80" vector-effect="none"/></g><defs><clipPath id="clip16"><path d="M184,50 L239,50 L239,90 L184,90 L184,50 z"/></clipPath></defs><g clip-path="url(#clip16)" fill="none" opacity="1" stroke="#000000" stroke-linecap="butt" stroke-linejoin="miter" stroke-miterlimit="2" stroke-opacity="1" stroke-width="0.345" transform="matrix(2.89855,0,0,2.89855,-514.493,-137.681)"><polyline fill="none" points="213,80 216,80" vector-effect="none"/></g><defs><clipPath id="clip17"><path d="M184,50 L239,50 L239,90 L184,90 L184,50 z"/></clipPath></defs><g clip-path="url(#clip17)" fill="none" opacity="1" stroke="#000000" stroke-linecap="butt" stroke-linejoin="miter" stroke-miterlimit="2" stroke-opacity="1" stroke-width="0.345" transform="matrix(2.89855,0,0,2.89855,-514.493,-137.681)"><polyline fill="none" points="216,80 209,80" vector-effect="none"/></g><defs><clipPath id="clip18"><path d="M184,50 L239,50 L239,90 L184,90 L184,50 z"/></clipPath></defs><g clip-path="url(#clip18)" fill="none" opacity="1" stroke="#000000" stroke-linecap="butt" stroke-linejoin="miter" stroke-miterlimit="2" stroke-opacity="1" stroke-width="0.345" transform="matrix(2.89855,0,0,2.89855,-514.493,-137.681)"><polyline fill="none" points="209,71 216,71" vector-effect="none"/></g><defs><clipPath id="clip19"><path d="M184,50 L239,50 L239,90 L184,90 L184,50 z"/></clipPath></defs><g clip-path="url(#clip19)" fill="none" opacity="1" stroke="#000000" stroke-linecap="butt" stroke-linejoin="miter" stroke-miterlimit="2" stroke-opacity="1" stroke-width="0.345" transform="matrix(2.89855,0,0,2.89855,-514.493,-137.681)"><polyline fill="none" points="216,71 216,70" vector-effect="none"/></g><defs><clipPath id="clip20"><path d="M184,50 L239,50 L239,90 L184,90 L184,50 z"/></clipPath></defs><g clip-path="url(#clip20)" fill="none" opacity="1" stroke="#000000" stroke-linecap="butt" stroke-linejoin="miter" stroke-miterlimit="2" stroke-opacity="1" stroke-width="0.345" transform="matrix(2.89855,0,0,2.89855,-514.493,-137.681)"><polyline fill="none" points="216,70 209,70" vector-effect="none"/></g><defs><clipPath id="clip25"><path d="M-7,-2 L62,-2 L62,42 L-7,42 L-7,-2 z"/></clipPath></defs><g clip-path="url(#clip25)" fill="none" opacity="1" stroke="#000000" stroke-linecap="butt" stroke-linejoin="miter" stroke-miterlimit="2" stroke-opacity="1" stroke-width="0.653323" transform="matrix(2.89855,0,0,2.89855,20.2899,5.7971)"><path d="M0,0 L55,0 L55,40 L0,40 L0,0 z" fill-rule="evenodd" vector-effect="none"/></g></g></svg>
