<?xml version="1.0" encoding="UTF-8"?><svg width="52.9167mm" height="20.3729mm" viewBox="0 0 200 77" xmlns="http://www.w3.org/2000/svg" xmlns:xlink="http://www.w3.org/1999/xlink"><g fill="none" stroke="black" stroke-width="1" fill-rule="evenodd" stroke-linecap="square" stroke-linejoin="bevel"><g clip-path="none" fill="none" opacity="1" stroke="none" stroke-opacity="0" transform="matrix(1,0,0,1,0,0)"><path d="M0,0 L200,0 L200,77 L0,77 L0,0 z" fill-rule="evenodd" vector-effect="none"/></g><defs><clipPath id="clip3"><path d="M-112,-23 L7,-23 L7,23 L-112,23 L-112,-23 z"/></clipPath></defs><g clip-path="url(#clip3)" fill="none" opacity="1" stroke="#000000" stroke-linecap="round" stroke-linejoin="miter" stroke-miterlimit="2" stroke-opacity="1" stroke-width="2" transform="matrix(1.68067,0,0,1.68067,188.235,38.6555)"><path d="M0,-5 L5,0 L0,5" fill-rule="evenodd" vector-effect="none"/></g><defs><clipPath id="clip6"><path d="M7,23 L-112,23 L-112,-23 L7,-23 L7,23 z"/></clipPath></defs><g clip-path="url(#clip6)" fill="none" opacity="1" stroke="#000000" stroke-linecap="round" stroke-linejoin="miter" stroke-miterlimit="2" stroke-opacity="1" stroke-width="2" transform="matrix(-1.68067,0,0,-1.68067,11.7647,38.6555)"><path d="M5,-5 L0,0 L5,5" fill-rule="evenodd" vector-effect="none"/></g><defs><clipPath id="clip9"><path d="M-7,-2 L112,-2 L112,44 L-7,44 L-7,-2 z"/></clipPath></defs><g clip-path="url(#clip9)" fill="#ffffff" fill-opacity="1" opacity="1" stroke="none" stroke-opacity="0" transform="matrix(1.68067,0,0,1.68067,11.7647,3.36134)"><path d="M0,0 L105,0 L105,42 L0,42 L0,0 z" fill-rule="evenodd" vector-effect="none"/></g><defs><clipPath id="clip14"><path d="M-266,-82 L272,-82 L272,133 L-266,133 L-266,-82 z"/></clipPath></defs><g clip-path="url(#clip14)" fill="none" opacity="1" stroke="#000000" stroke-linecap="butt" stroke-linejoin="miter" stroke-miterlimit="2" stroke-opacity="1" stroke-width="0.595" transform="matrix(0.328256,0,0,0.328256,99.1597,30.2521)"><text fill="#000000" fill-opacity="1" font-family="Liberation Sans" font-size="40" font-style="normal" font-weight="400" stroke="none" textLength="94" x="-61.1562" xml:space="preserve" y="17.9219">Local</text></g><defs><clipPath id="clip17"><path d="M-266,-133 L272,-133 L272,82 L-266,82 L-266,-133 z"/></clipPath></defs><g clip-path="url(#clip17)" fill="none" opacity="1" stroke="#000000" stroke-linecap="butt" stroke-linejoin="miter" stroke-miterlimit="2" stroke-opacity="1" stroke-width="0.595" transform="matrix(0.328256,0,0,0.328256,99.1597,47.0588)"><text fill="#000000" fill-opacity="1" font-family="Liberation Sans" font-size="40" font-style="normal" font-weight="400" stroke="none" textLength="137" x="-89.5781" xml:space="preserve" y="17.9219">Maxima</text></g><defs><clipPath id="clip20"><path d="M-15,-108 L523,-108 L523,107 L-15,107 L-15,-108 z"/></clipPath></defs><g clip-path="url(#clip20)" fill="none" opacity="1" stroke="#000000" stroke-linecap="butt" stroke-linejoin="miter" stroke-miterlimit="2" stroke-opacity="1" stroke-width="0.595" transform="matrix(0.328256,0,0,0.328256,16.8067,38.6555)"><text fill="#000000" fill-opacity="1" font-family="Liberation Sans" font-size="40" font-style="normal" font-weight="400" stroke="none" textLength="10" x="0" xml:space="preserve" y="17.9219">I</text></g><defs><clipPath id="clip23"><path d="M-15,-108 L523,-108 L523,107 L-15,107 L-15,-108 z"/></clipPath></defs><g clip-path="url(#clip23)" fill="none" opacity="1" stroke="#000000" stroke-linecap="butt" stroke-linejoin="miter" stroke-miterlimit="2" stroke-opacity="1" stroke-width="0.595" transform="matrix(0.328256,0,0,0.328256,16.8067,38.6555)"><text fill="#000000" fill-opacity="1" font-family="Liberation Sans" font-size="40" font-style="normal" font-weight="400" stroke="none" textLength="10" x="0" xml:space="preserve" y="17.9219">I</text></g><defs><clipPath id="clip26"><path d="M-522,-108 L16,-108 L16,107 L-522,107 L-522,-108 z"/></clipPath></defs><g clip-path="url(#clip26)" fill="none" opacity="1" stroke="#000000" stroke-linecap="butt" stroke-linejoin="miter" stroke-miterlimit="2" stroke-opacity="1" stroke-width="0.595" transform="matrix(0.328256,0,0,0.328256,183.193,38.6555)"><text fill="#000000" fill-opacity="1" font-family="Liberation Sans" font-size="40" font-style="normal" font-weight="400" stroke="none" textLength="50" x="-68.2656" xml:space="preserve" y="17.9219">Idx</text></g><defs><clipPath id="clip29"><path d="M-522,-108 L16,-108 L16,107 L-522,107 L-522,-108 z"/></clipPath></defs><g clip-path="url(#clip29)" fill="none" opacity="1" stroke="#000000" stroke-linecap="butt" stroke-linejoin="miter" stroke-miterlimit="2" stroke-opacity="1" stroke-width="0.595" transform="matrix(0.328256,0,0,0.328256,183.193,38.6555)"><text fill="#000000" fill-opacity="1" font-family="Liberation Sans" font-size="40" font-style="normal" font-weight="400" stroke="none" textLength="50" x="-68.2656" xml:space="preserve" y="17.9219">Idx</text></g><defs><clipPath id="clip35"><path d="M-7,-2 L112,-2 L112,44 L-7,44 L-7,-2 z"/></clipPath></defs><g clip-path="url(#clip35)" fill="none" opacity="1" stroke="#000000" stroke-linecap="butt" stroke-linejoin="miter" stroke-miterlimit="2" stroke-opacity="1" stroke-width="0.812469" transform="matrix(1.68067,0,0,1.68067,11.7647,3.36134)"><path d="M0,0 L105,0 L105,42 L0,42 L0,0 z" fill-rule="evenodd" vector-effect="none"/></g></g></svg>
