<?xml version="1.0" encoding="UTF-8"?><svg width="52.9167mm" height="36.2479mm" viewBox="0 0 200 137" xmlns="http://www.w3.org/2000/svg" xmlns:xlink="http://www.w3.org/1999/xlink"><g fill="none" stroke="black" stroke-width="1" fill-rule="evenodd" stroke-linecap="square" stroke-linejoin="bevel"><g clip-path="none" fill="none" opacity="1" stroke="none" stroke-opacity="0" transform="matrix(1,0,0,1,0,0)"><path d="M0,0 L200,0 L200,137 L0,137 L0,0 z" fill-rule="evenodd" vector-effect="none"/></g><defs><clipPath id="clip3"><path d="M-2,-2 L84,-2 L84,57 L-2,57 L-2,-2 z"/></clipPath></defs><g clip-path="url(#clip3)" fill="#e8d152" fill-opacity="1" opacity="1" stroke="none" stroke-opacity="0" transform="matrix(2.32558,0,0,2.32558,4.65116,4.65116)"><path d="M0,0 L82,0 L82,55 L0,55 L0,0 z" fill-rule="evenodd" vector-effect="none"/></g><defs><clipPath id="clip7"><path d="M132,70 L214,70 L214,125 L132,125 L132,70 z"/></clipPath></defs><g clip-path="url(#clip7)" fill="none" opacity="1" stroke="#000000" stroke-linecap="butt" stroke-linejoin="miter" stroke-miterlimit="2" stroke-opacity="1" stroke-width="0.43" transform="matrix(2.32558,0,0,2.32558,-301.163,-156.977)"><polyline fill="none" points="135,73 137,74" vector-effect="none"/></g><defs><clipPath id="clip8"><path d="M132,70 L214,70 L214,125 L132,125 L132,70 z"/></clipPath></defs><g clip-path="url(#clip8)" fill="none" opacity="1" stroke="#000000" stroke-linecap="butt" stroke-linejoin="miter" stroke-miterlimit="2" stroke-opacity="1" stroke-width="0.43" transform="matrix(2.32558,0,0,2.32558,-301.163,-156.977)"><polyline fill="none" points="137,74 139,75" vector-effect="none"/></g><defs><clipPath id="clip9"><path d="M132,70 L214,70 L214,125 L132,125 L132,70 z"/></clipPath></defs><g clip-path="url(#clip9)" fill="none" opacity="1" stroke="#000000" stroke-linecap="butt" stroke-linejoin="miter" stroke-miterlimit="2" stroke-opacity="1" stroke-width="0.43" transform="matrix(2.32558,0,0,2.32558,-301.163,-156.977)"><polyline fill="none" points="139,75 141,78" vector-effect="none"/></g><defs><clipPath id="clip10"><path d="M132,70 L214,70 L214,125 L132,125 L132,70 z"/></clipPath></defs><g clip-path="url(#clip10)" fill="none" opacity="1" stroke="#000000" stroke-linecap="butt" stroke-linejoin="miter" stroke-miterlimit="2" stroke-opacity="1" stroke-width="0.43" transform="matrix(2.32558,0,0,2.32558,-301.163,-156.977)"><polyline fill="none" points="141,78 143,82" vector-effect="none"/></g><defs><clipPath id="clip11"><path d="M132,70 L214,70 L214,125 L132,125 L132,70 z"/></clipPath></defs><g clip-path="url(#clip11)" fill="none" opacity="1" stroke="#000000" stroke-linecap="butt" stroke-linejoin="miter" stroke-miterlimit="2" stroke-opacity="1" stroke-width="0.43" transform="matrix(2.32558,0,0,2.32558,-301.163,-156.977)"><polyline fill="none" points="143,82 145,87" vector-effect="none"/></g><defs><clipPath id="clip12"><path d="M132,70 L214,70 L214,125 L132,125 L132,70 z"/></clipPath></defs><g clip-path="url(#clip12)" fill="none" opacity="1" stroke="#000000" stroke-linecap="butt" stroke-linejoin="miter" stroke-miterlimit="2" stroke-opacity="1" stroke-width="0.43" transform="matrix(2.32558,0,0,2.32558,-301.163,-156.977)"><polyline fill="none" points="145,87 146,93" vector-effect="none"/></g><defs><clipPath id="clip13"><path d="M132,70 L214,70 L214,125 L132,125 L132,70 z"/></clipPath></defs><g clip-path="url(#clip13)" fill="none" opacity="1" stroke="#000000" stroke-linecap="butt" stroke-linejoin="miter" stroke-miterlimit="2" stroke-opacity="1" stroke-width="0.43" transform="matrix(2.32558,0,0,2.32558,-301.163,-156.977)"><polyline fill="none" points="146,93 148,99" vector-effect="none"/></g><defs><clipPath id="clip14"><path d="M132,70 L214,70 L214,125 L132,125 L132,70 z"/></clipPath></defs><g clip-path="url(#clip14)" fill="none" opacity="1" stroke="#000000" stroke-linecap="butt" stroke-linejoin="miter" stroke-miterlimit="2" stroke-opacity="1" stroke-width="0.43" transform="matrix(2.32558,0,0,2.32558,-301.163,-156.977)"><polyline fill="none" points="148,99 150,106" vector-effect="none"/></g><defs><clipPath id="clip15"><path d="M132,70 L214,70 L214,125 L132,125 L132,70 z"/></clipPath></defs><g clip-path="url(#clip15)" fill="none" opacity="1" stroke="#000000" stroke-linecap="butt" stroke-linejoin="miter" stroke-miterlimit="2" stroke-opacity="1" stroke-width="0.43" transform="matrix(2.32558,0,0,2.32558,-301.163,-156.977)"><polyline fill="none" points="150,106 152,113" vector-effect="none"/></g><defs><clipPath id="clip16"><path d="M132,70 L214,70 L214,125 L132,125 L132,70 z"/></clipPath></defs><g clip-path="url(#clip16)" fill="none" opacity="1" stroke="#000000" stroke-linecap="butt" stroke-linejoin="miter" stroke-miterlimit="2" stroke-opacity="1" stroke-width="0.43" transform="matrix(2.32558,0,0,2.32558,-301.163,-156.977)"><polyline fill="none" points="152,113 154,122" vector-effect="none"/></g><defs><clipPath id="clip17"><path d="M132,70 L214,70 L214,125 L132,125 L132,70 z"/></clipPath></defs><g clip-path="url(#clip17)" fill="none" opacity="1" stroke="#000000" stroke-linecap="butt" stroke-linejoin="miter" stroke-miterlimit="2" stroke-opacity="1" stroke-width="0.43" transform="matrix(2.32558,0,0,2.32558,-301.163,-156.977)"><polyline fill="none" points="154,122 156,114" vector-effect="none"/></g><defs><clipPath id="clip18"><path d="M132,70 L214,70 L214,125 L132,125 L132,70 z"/></clipPath></defs><g clip-path="url(#clip18)" fill="none" opacity="1" stroke="#000000" stroke-linecap="butt" stroke-linejoin="miter" stroke-miterlimit="2" stroke-opacity="1" stroke-width="0.43" transform="matrix(2.32558,0,0,2.32558,-301.163,-156.977)"><polyline fill="none" points="156,114 158,110" vector-effect="none"/></g><defs><clipPath id="clip19"><path d="M132,70 L214,70 L214,125 L132,125 L132,70 z"/></clipPath></defs><g clip-path="url(#clip19)" fill="none" opacity="1" stroke="#000000" stroke-linecap="butt" stroke-linejoin="miter" stroke-miterlimit="2" stroke-opacity="1" stroke-width="0.43" transform="matrix(2.32558,0,0,2.32558,-301.163,-156.977)"><polyline fill="none" points="158,110 160,107" vector-effect="none"/></g><defs><clipPath id="clip20"><path d="M132,70 L214,70 L214,125 L132,125 L132,70 z"/></clipPath></defs><g clip-path="url(#clip20)" fill="none" opacity="1" stroke="#000000" stroke-linecap="butt" stroke-linejoin="miter" stroke-miterlimit="2" stroke-opacity="1" stroke-width="0.43" transform="matrix(2.32558,0,0,2.32558,-301.163,-156.977)"><polyline fill="none" points="160,107 162,106" vector-effect="none"/></g><defs><clipPath id="clip21"><path d="M132,70 L214,70 L214,125 L132,125 L132,70 z"/></clipPath></defs><g clip-path="url(#clip21)" fill="none" opacity="1" stroke="#000000" stroke-linecap="butt" stroke-linejoin="miter" stroke-miterlimit="2" stroke-opacity="1" stroke-width="0.43" transform="matrix(2.32558,0,0,2.32558,-301.163,-156.977)"><polyline fill="none" points="162,106 164,107" vector-effect="none"/></g><defs><clipPath id="clip22"><path d="M132,70 L214,70 L214,125 L132,125 L132,70 z"/></clipPath></defs><g clip-path="url(#clip22)" fill="none" opacity="1" stroke="#000000" stroke-linecap="butt" stroke-linejoin="miter" stroke-miterlimit="2" stroke-opacity="1" stroke-width="0.43" transform="matrix(2.32558,0,0,2.32558,-301.163,-156.977)"><polyline fill="none" points="164,107 165,108" vector-effect="none"/></g><defs><clipPath id="clip23"><path d="M132,70 L214,70 L214,125 L132,125 L132,70 z"/></clipPath></defs><g clip-path="url(#clip23)" fill="none" opacity="1" stroke="#000000" stroke-linecap="butt" stroke-linejoin="miter" stroke-miterlimit="2" stroke-opacity="1" stroke-width="0.43" transform="matrix(2.32558,0,0,2.32558,-301.163,-156.977)"><polyline fill="none" points="165,108 167,110" vector-effect="none"/></g><defs><clipPath id="clip24"><path d="M132,70 L214,70 L214,125 L132,125 L132,70 z"/></clipPath></defs><g clip-path="url(#clip24)" fill="none" opacity="1" stroke="#000000" stroke-linecap="butt" stroke-linejoin="miter" stroke-miterlimit="2" stroke-opacity="1" stroke-width="0.43" transform="matrix(2.32558,0,0,2.32558,-301.163,-156.977)"><polyline fill="none" points="167,110 169,113" vector-effect="none"/></g><defs><clipPath id="clip25"><path d="M132,70 L214,70 L214,125 L132,125 L132,70 z"/></clipPath></defs><g clip-path="url(#clip25)" fill="none" opacity="1" stroke="#000000" stroke-linecap="butt" stroke-linejoin="miter" stroke-miterlimit="2" stroke-opacity="1" stroke-width="0.43" transform="matrix(2.32558,0,0,2.32558,-301.163,-156.977)"><polyline fill="none" points="169,113 171,117" vector-effect="none"/></g><defs><clipPath id="clip26"><path d="M132,70 L214,70 L214,125 L132,125 L132,70 z"/></clipPath></defs><g clip-path="url(#clip26)" fill="none" opacity="1" stroke="#000000" stroke-linecap="butt" stroke-linejoin="miter" stroke-miterlimit="2" stroke-opacity="1" stroke-width="0.43" transform="matrix(2.32558,0,0,2.32558,-301.163,-156.977)"><polyline fill="none" points="171,117 173,122" vector-effect="none"/></g><defs><clipPath id="clip27"><path d="M132,70 L214,70 L214,125 L132,125 L132,70 z"/></clipPath></defs><g clip-path="url(#clip27)" fill="none" opacity="1" stroke="#000000" stroke-linecap="butt" stroke-linejoin="miter" stroke-miterlimit="2" stroke-opacity="1" stroke-width="0.43" transform="matrix(2.32558,0,0,2.32558,-301.163,-156.977)"><polyline fill="none" points="173,122 175,117" vector-effect="none"/></g><defs><clipPath id="clip28"><path d="M132,70 L214,70 L214,125 L132,125 L132,70 z"/></clipPath></defs><g clip-path="url(#clip28)" fill="none" opacity="1" stroke="#000000" stroke-linecap="butt" stroke-linejoin="miter" stroke-miterlimit="2" stroke-opacity="1" stroke-width="0.43" transform="matrix(2.32558,0,0,2.32558,-301.163,-156.977)"><polyline fill="none" points="175,117 177,114" vector-effect="none"/></g><defs><clipPath id="clip29"><path d="M132,70 L214,70 L214,125 L132,125 L132,70 z"/></clipPath></defs><g clip-path="url(#clip29)" fill="none" opacity="1" stroke="#000000" stroke-linecap="butt" stroke-linejoin="miter" stroke-miterlimit="2" stroke-opacity="1" stroke-width="0.43" transform="matrix(2.32558,0,0,2.32558,-301.163,-156.977)"><polyline fill="none" points="177,114 179,113" vector-effect="none"/></g><defs><clipPath id="clip30"><path d="M132,70 L214,70 L214,125 L132,125 L132,70 z"/></clipPath></defs><g clip-path="url(#clip30)" fill="none" opacity="1" stroke="#000000" stroke-linecap="butt" stroke-linejoin="miter" stroke-miterlimit="2" stroke-opacity="1" stroke-width="0.43" transform="matrix(2.32558,0,0,2.32558,-301.163,-156.977)"><polyline fill="none" points="179,113 181,112" vector-effect="none"/></g><defs><clipPath id="clip31"><path d="M132,70 L214,70 L214,125 L132,125 L132,70 z"/></clipPath></defs><g clip-path="url(#clip31)" fill="none" opacity="1" stroke="#000000" stroke-linecap="butt" stroke-linejoin="miter" stroke-miterlimit="2" stroke-opacity="1" stroke-width="0.43" transform="matrix(2.32558,0,0,2.32558,-301.163,-156.977)"><polyline fill="none" points="181,112 183,112" vector-effect="none"/></g><defs><clipPath id="clip32"><path d="M132,70 L214,70 L214,125 L132,125 L132,70 z"/></clipPath></defs><g clip-path="url(#clip32)" fill="none" opacity="1" stroke="#000000" stroke-linecap="butt" stroke-linejoin="miter" stroke-miterlimit="2" stroke-opacity="1" stroke-width="0.43" transform="matrix(2.32558,0,0,2.32558,-301.163,-156.977)"><polyline fill="none" points="183,112 184,112" vector-effect="none"/></g><defs><clipPath id="clip33"><path d="M132,70 L214,70 L214,125 L132,125 L132,70 z"/></clipPath></defs><g clip-path="url(#clip33)" fill="none" opacity="1" stroke="#000000" stroke-linecap="butt" stroke-linejoin="miter" stroke-miterlimit="2" stroke-opacity="1" stroke-width="0.43" transform="matrix(2.32558,0,0,2.32558,-301.163,-156.977)"><polyline fill="none" points="184,112 186,114" vector-effect="none"/></g><defs><clipPath id="clip34"><path d="M132,70 L214,70 L214,125 L132,125 L132,70 z"/></clipPath></defs><g clip-path="url(#clip34)" fill="none" opacity="1" stroke="#000000" stroke-linecap="butt" stroke-linejoin="miter" stroke-miterlimit="2" stroke-opacity="1" stroke-width="0.43" transform="matrix(2.32558,0,0,2.32558,-301.163,-156.977)"><polyline fill="none" points="186,114 188,116" vector-effect="none"/></g><defs><clipPath id="clip35"><path d="M132,70 L214,70 L214,125 L132,125 L132,70 z"/></clipPath></defs><g clip-path="url(#clip35)" fill="none" opacity="1" stroke="#000000" stroke-linecap="butt" stroke-linejoin="miter" stroke-miterlimit="2" stroke-opacity="1" stroke-width="0.43" transform="matrix(2.32558,0,0,2.32558,-301.163,-156.977)"><polyline fill="none" points="188,116 190,118" vector-effect="none"/></g><defs><clipPath id="clip36"><path d="M132,70 L214,70 L214,125 L132,125 L132,70 z"/></clipPath></defs><g clip-path="url(#clip36)" fill="none" opacity="1" stroke="#000000" stroke-linecap="butt" stroke-linejoin="miter" stroke-miterlimit="2" stroke-opacity="1" stroke-width="0.43" transform="matrix(2.32558,0,0,2.32558,-301.163,-156.977)"><polyline fill="none" points="190,118 192,122" vector-effect="none"/></g><defs><clipPath id="clip37"><path d="M132,70 L214,70 L214,125 L132,125 L132,70 z"/></clipPath></defs><g clip-path="url(#clip37)" fill="none" opacity="1" stroke="#000000" stroke-linecap="butt" stroke-linejoin="miter" stroke-miterlimit="2" stroke-opacity="1" stroke-width="0.43" transform="matrix(2.32558,0,0,2.32558,-301.163,-156.977)"><polyline fill="none" points="192,122 194,118" vector-effect="none"/></g><defs><clipPath id="clip38"><path d="M132,70 L214,70 L214,125 L132,125 L132,70 z"/></clipPath></defs><g clip-path="url(#clip38)" fill="none" opacity="1" stroke="#000000" stroke-linecap="butt" stroke-linejoin="miter" stroke-miterlimit="2" stroke-opacity="1" stroke-width="0.43" transform="matrix(2.32558,0,0,2.32558,-301.163,-156.977)"><polyline fill="none" points="194,118 196,116" vector-effect="none"/></g><defs><clipPath id="clip39"><path d="M132,70 L214,70 L214,125 L132,125 L132,70 z"/></clipPath></defs><g clip-path="url(#clip39)" fill="none" opacity="1" stroke="#000000" stroke-linecap="butt" stroke-linejoin="miter" stroke-miterlimit="2" stroke-opacity="1" stroke-width="0.43" transform="matrix(2.32558,0,0,2.32558,-301.163,-156.977)"><polyline fill="none" points="196,116 198,115" vector-effect="none"/></g><defs><clipPath id="clip40"><path d="M132,70 L214,70 L214,125 L132,125 L132,70 z"/></clipPath></defs><g clip-path="url(#clip40)" fill="none" opacity="1" stroke="#000000" stroke-linecap="butt" stroke-linejoin="miter" stroke-miterlimit="2" stroke-opacity="1" stroke-width="0.43" transform="matrix(2.32558,0,0,2.32558,-301.163,-156.977)"><polyline fill="none" points="198,115 200,114" vector-effect="none"/></g><defs><clipPath id="clip41"><path d="M132,70 L214,70 L214,125 L132,125 L132,70 z"/></clipPath></defs><g clip-path="url(#clip41)" fill="none" opacity="1" stroke="#000000" stroke-linecap="butt" stroke-linejoin="miter" stroke-miterlimit="2" stroke-opacity="1" stroke-width="0.43" transform="matrix(2.32558,0,0,2.32558,-301.163,-156.977)"><polyline fill="none" points="200,114 202,114" vector-effect="none"/></g><defs><clipPath id="clip42"><path d="M132,70 L214,70 L214,125 L132,125 L132,70 z"/></clipPath></defs><g clip-path="url(#clip42)" fill="none" opacity="1" stroke="#000000" stroke-linecap="butt" stroke-linejoin="miter" stroke-miterlimit="2" stroke-opacity="1" stroke-width="0.43" transform="matrix(2.32558,0,0,2.32558,-301.163,-156.977)"><polyline fill="none" points="202,114 203,114" vector-effect="none"/></g><defs><clipPath id="clip43"><path d="M132,70 L214,70 L214,125 L132,125 L132,70 z"/></clipPath></defs><g clip-path="url(#clip43)" fill="none" opacity="1" stroke="#000000" stroke-linecap="butt" stroke-linejoin="miter" stroke-miterlimit="2" stroke-opacity="1" stroke-width="0.43" transform="matrix(2.32558,0,0,2.32558,-301.163,-156.977)"><polyline fill="none" points="203,114 205,115" vector-effect="none"/></g><defs><clipPath id="clip44"><path d="M132,70 L214,70 L214,125 L132,125 L132,70 z"/></clipPath></defs><g clip-path="url(#clip44)" fill="none" opacity="1" stroke="#000000" stroke-linecap="butt" stroke-linejoin="miter" stroke-miterlimit="2" stroke-opacity="1" stroke-width="0.43" transform="matrix(2.32558,0,0,2.32558,-301.163,-156.977)"><polyline fill="none" points="205,115 207,117" vector-effect="none"/></g><defs><clipPath id="clip45"><path d="M132,70 L214,70 L214,125 L132,125 L132,70 z"/></clipPath></defs><g clip-path="url(#clip45)" fill="none" opacity="1" stroke="#000000" stroke-linecap="butt" stroke-linejoin="miter" stroke-miterlimit="2" stroke-opacity="1" stroke-width="0.43" transform="matrix(2.32558,0,0,2.32558,-301.163,-156.977)"><polyline fill="none" points="207,117 209,119" vector-effect="none"/></g><defs><clipPath id="clip46"><path d="M132,70 L214,70 L214,125 L132,125 L132,70 z"/></clipPath></defs><g clip-path="url(#clip46)" fill="none" opacity="1" stroke="#000000" stroke-linecap="butt" stroke-linejoin="miter" stroke-miterlimit="2" stroke-opacity="1" stroke-width="0.43" transform="matrix(2.32558,0,0,2.32558,-301.163,-156.977)"><polyline fill="none" points="209,119 211,122" vector-effect="none"/></g><defs><clipPath id="clip51"><path d="M-2,-2 L84,-2 L84,57 L-2,57 L-2,-2 z"/></clipPath></defs><g clip-path="url(#clip51)" fill="none" opacity="1" stroke="#000000" stroke-linecap="butt" stroke-linejoin="miter" stroke-miterlimit="2" stroke-opacity="1" stroke-width="0.713489" transform="matrix(2.32558,0,0,2.32558,4.65116,4.65116)"><path d="M0,0 L82,0 L82,55 L0,55 L0,0 z" fill-rule="evenodd" vector-effect="none"/></g></g></svg>
