<?xml version="1.0" encoding="UTF-8"?><svg width="52.9167mm" height="31.4854mm" viewBox="0 0 200 119" xmlns="http://www.w3.org/2000/svg" xmlns:xlink="http://www.w3.org/1999/xlink"><g fill="none" stroke="black" stroke-width="1" fill-rule="evenodd" stroke-linecap="square" stroke-linejoin="bevel"><g clip-path="none" fill="none" opacity="1" stroke="none" stroke-opacity="0" transform="matrix(1,0,0,1,0,0)"><path d="M0,0 L200,0 L200,119 L0,119 L0,0 z" fill-rule="evenodd" vector-effect="none"/></g><defs><clipPath id="clip3"><path d="M-87,-28 L7,-28 L7,28 L-87,28 L-87,-28 z"/></clipPath></defs><g clip-path="url(#clip3)" fill="none" opacity="1" stroke="#000000" stroke-linecap="round" stroke-linejoin="miter" stroke-miterlimit="2" stroke-opacity="1" stroke-width="2" transform="matrix(2.12766,0,0,2.12766,185.106,59.5745)"><path d="M0,-5 L5,0 L0,5" fill-rule="evenodd" vector-effect="none"/></g><defs><clipPath id="clip6"><path d="M7,28 L-87,28 L-87,-28 L7,-28 L7,28 z"/></clipPath></defs><g clip-path="url(#clip6)" fill="none" opacity="1" stroke="#000000" stroke-linecap="round" stroke-linejoin="miter" stroke-miterlimit="2" stroke-opacity="1" stroke-width="2" transform="matrix(-2.12766,0,0,-2.12766,14.8936,59.5745)"><path d="M5,-5 L0,0 L5,5" fill-rule="evenodd" vector-effect="none"/></g><defs><clipPath id="clip9"><path d="M-7,-2 L87,-2 L87,54 L-7,54 L-7,-2 z"/></clipPath></defs><g clip-path="url(#clip9)" fill="#ffffff" fill-opacity="1" opacity="1" stroke="none" stroke-opacity="0" transform="matrix(2.12766,0,0,2.12766,14.8936,4.25532)"><path d="M0,0 L80,0 L80,52 L0,52 L0,0 z" fill-rule="evenodd" vector-effect="none"/></g><defs><clipPath id="clip14"><path d="M-46,-36 L364,-36 L364,230 L-46,230 L-46,-36 z"/></clipPath></defs><g clip-path="url(#clip14)" fill="none" opacity="1" stroke="#000000" stroke-linecap="butt" stroke-linejoin="miter" stroke-miterlimit="2" stroke-opacity="1" stroke-width="0.47" transform="matrix(0.415559,0,0,0.415559,34.0426,19.1489)"><text fill="#000000" fill-opacity="1" font-family="Liberation Sans" font-size="40" font-style="normal" font-weight="400" stroke="none" textLength="110" x="0" xml:space="preserve" y="17.9219">Welch</text></g><defs><clipPath id="clip16"><path d="M20,54 L100,54 L100,106 L20,106 L20,54 z"/></clipPath></defs><g clip-path="url(#clip16)" fill="none" opacity="1" stroke="#000000" stroke-linecap="butt" stroke-linejoin="miter" stroke-miterlimit="2" stroke-opacity="1" stroke-width="0.47" transform="matrix(2.12766,0,0,2.12766,-26.5957,-109.574)"><polyline fill="none" points="23,103 24,101" vector-effect="none"/></g><defs><clipPath id="clip17"><path d="M20,54 L100,54 L100,106 L20,106 L20,54 z"/></clipPath></defs><g clip-path="url(#clip17)" fill="none" opacity="1" stroke="#000000" stroke-linecap="butt" stroke-linejoin="miter" stroke-miterlimit="2" stroke-opacity="1" stroke-width="0.47" transform="matrix(2.12766,0,0,2.12766,-26.5957,-109.574)"><polyline fill="none" points="24,101 25,99" vector-effect="none"/></g><defs><clipPath id="clip18"><path d="M20,54 L100,54 L100,106 L20,106 L20,54 z"/></clipPath></defs><g clip-path="url(#clip18)" fill="none" opacity="1" stroke="#000000" stroke-linecap="butt" stroke-linejoin="miter" stroke-miterlimit="2" stroke-opacity="1" stroke-width="0.47" transform="matrix(2.12766,0,0,2.12766,-26.5957,-109.574)"><polyline fill="none" points="25,99 26,98" vector-effect="none"/></g><defs><clipPath id="clip19"><path d="M20,54 L100,54 L100,106 L20,106 L20,54 z"/></clipPath></defs><g clip-path="url(#clip19)" fill="none" opacity="1" stroke="#000000" stroke-linecap="butt" stroke-linejoin="miter" stroke-miterlimit="2" stroke-opacity="1" stroke-width="0.47" transform="matrix(2.12766,0,0,2.12766,-26.5957,-109.574)"><polyline fill="none" points="26,98 27,97" vector-effect="none"/></g><defs><clipPath id="clip20"><path d="M20,54 L100,54 L100,106 L20,106 L20,54 z"/></clipPath></defs><g clip-path="url(#clip20)" fill="none" opacity="1" stroke="#000000" stroke-linecap="butt" stroke-linejoin="miter" stroke-miterlimit="2" stroke-opacity="1" stroke-width="0.47" transform="matrix(2.12766,0,0,2.12766,-26.5957,-109.574)"><polyline fill="none" points="27,97 28,97" vector-effect="none"/></g><defs><clipPath id="clip21"><path d="M20,54 L100,54 L100,106 L20,106 L20,54 z"/></clipPath></defs><g clip-path="url(#clip21)" fill="none" opacity="1" stroke="#000000" stroke-linecap="butt" stroke-linejoin="miter" stroke-miterlimit="2" stroke-opacity="1" stroke-width="0.47" transform="matrix(2.12766,0,0,2.12766,-26.5957,-109.574)"><polyline fill="none" points="28,97 29,97" vector-effect="none"/></g><defs><clipPath id="clip22"><path d="M20,54 L100,54 L100,106 L20,106 L20,54 z"/></clipPath></defs><g clip-path="url(#clip22)" fill="none" opacity="1" stroke="#000000" stroke-linecap="butt" stroke-linejoin="miter" stroke-miterlimit="2" stroke-opacity="1" stroke-width="0.47" transform="matrix(2.12766,0,0,2.12766,-26.5957,-109.574)"><polyline fill="none" points="29,97 29,98" vector-effect="none"/></g><defs><clipPath id="clip23"><path d="M20,54 L100,54 L100,106 L20,106 L20,54 z"/></clipPath></defs><g clip-path="url(#clip23)" fill="none" opacity="1" stroke="#000000" stroke-linecap="butt" stroke-linejoin="miter" stroke-miterlimit="2" stroke-opacity="1" stroke-width="0.47" transform="matrix(2.12766,0,0,2.12766,-26.5957,-109.574)"><polyline fill="none" points="29,98 30,99" vector-effect="none"/></g><defs><clipPath id="clip24"><path d="M20,54 L100,54 L100,106 L20,106 L20,54 z"/></clipPath></defs><g clip-path="url(#clip24)" fill="none" opacity="1" stroke="#000000" stroke-linecap="butt" stroke-linejoin="miter" stroke-miterlimit="2" stroke-opacity="1" stroke-width="0.47" transform="matrix(2.12766,0,0,2.12766,-26.5957,-109.574)"><polyline fill="none" points="30,99 31,100" vector-effect="none"/></g><defs><clipPath id="clip25"><path d="M20,54 L100,54 L100,106 L20,106 L20,54 z"/></clipPath></defs><g clip-path="url(#clip25)" fill="none" opacity="1" stroke="#000000" stroke-linecap="butt" stroke-linejoin="miter" stroke-miterlimit="2" stroke-opacity="1" stroke-width="0.47" transform="matrix(2.12766,0,0,2.12766,-26.5957,-109.574)"><polyline fill="none" points="31,100 32,103" vector-effect="none"/></g><defs><clipPath id="clip26"><path d="M20,54 L100,54 L100,106 L20,106 L20,54 z"/></clipPath></defs><g clip-path="url(#clip26)" fill="none" opacity="1" stroke="#000000" stroke-linecap="butt" stroke-linejoin="miter" stroke-miterlimit="2" stroke-opacity="1" stroke-width="0.47" transform="matrix(2.12766,0,0,2.12766,-26.5957,-109.574)"><polyline fill="none" points="32,103 33,100" vector-effect="none"/></g><defs><clipPath id="clip27"><path d="M20,54 L100,54 L100,106 L20,106 L20,54 z"/></clipPath></defs><g clip-path="url(#clip27)" fill="none" opacity="1" stroke="#000000" stroke-linecap="butt" stroke-linejoin="miter" stroke-miterlimit="2" stroke-opacity="1" stroke-width="0.47" transform="matrix(2.12766,0,0,2.12766,-26.5957,-109.574)"><polyline fill="none" points="33,100 34,98" vector-effect="none"/></g><defs><clipPath id="clip28"><path d="M20,54 L100,54 L100,106 L20,106 L20,54 z"/></clipPath></defs><g clip-path="url(#clip28)" fill="none" opacity="1" stroke="#000000" stroke-linecap="butt" stroke-linejoin="miter" stroke-miterlimit="2" stroke-opacity="1" stroke-width="0.47" transform="matrix(2.12766,0,0,2.12766,-26.5957,-109.574)"><polyline fill="none" points="34,98 35,97" vector-effect="none"/></g><defs><clipPath id="clip29"><path d="M20,54 L100,54 L100,106 L20,106 L20,54 z"/></clipPath></defs><g clip-path="url(#clip29)" fill="none" opacity="1" stroke="#000000" stroke-linecap="butt" stroke-linejoin="miter" stroke-miterlimit="2" stroke-opacity="1" stroke-width="0.47" transform="matrix(2.12766,0,0,2.12766,-26.5957,-109.574)"><polyline fill="none" points="35,97 36,96" vector-effect="none"/></g><defs><clipPath id="clip30"><path d="M20,54 L100,54 L100,106 L20,106 L20,54 z"/></clipPath></defs><g clip-path="url(#clip30)" fill="none" opacity="1" stroke="#000000" stroke-linecap="butt" stroke-linejoin="miter" stroke-miterlimit="2" stroke-opacity="1" stroke-width="0.47" transform="matrix(2.12766,0,0,2.12766,-26.5957,-109.574)"><polyline fill="none" points="36,96 37,95" vector-effect="none"/></g><defs><clipPath id="clip31"><path d="M20,54 L100,54 L100,106 L20,106 L20,54 z"/></clipPath></defs><g clip-path="url(#clip31)" fill="none" opacity="1" stroke="#000000" stroke-linecap="butt" stroke-linejoin="miter" stroke-miterlimit="2" stroke-opacity="1" stroke-width="0.47" transform="matrix(2.12766,0,0,2.12766,-26.5957,-109.574)"><polyline fill="none" points="37,95 38,96" vector-effect="none"/></g><defs><clipPath id="clip32"><path d="M20,54 L100,54 L100,106 L20,106 L20,54 z"/></clipPath></defs><g clip-path="url(#clip32)" fill="none" opacity="1" stroke="#000000" stroke-linecap="butt" stroke-linejoin="miter" stroke-miterlimit="2" stroke-opacity="1" stroke-width="0.47" transform="matrix(2.12766,0,0,2.12766,-26.5957,-109.574)"><polyline fill="none" points="38,96 39,96" vector-effect="none"/></g><defs><clipPath id="clip33"><path d="M20,54 L100,54 L100,106 L20,106 L20,54 z"/></clipPath></defs><g clip-path="url(#clip33)" fill="none" opacity="1" stroke="#000000" stroke-linecap="butt" stroke-linejoin="miter" stroke-miterlimit="2" stroke-opacity="1" stroke-width="0.47" transform="matrix(2.12766,0,0,2.12766,-26.5957,-109.574)"><polyline fill="none" points="39,96 40,97" vector-effect="none"/></g><defs><clipPath id="clip34"><path d="M20,54 L100,54 L100,106 L20,106 L20,54 z"/></clipPath></defs><g clip-path="url(#clip34)" fill="none" opacity="1" stroke="#000000" stroke-linecap="butt" stroke-linejoin="miter" stroke-miterlimit="2" stroke-opacity="1" stroke-width="0.47" transform="matrix(2.12766,0,0,2.12766,-26.5957,-109.574)"><polyline fill="none" points="40,97 41,99" vector-effect="none"/></g><defs><clipPath id="clip35"><path d="M20,54 L100,54 L100,106 L20,106 L20,54 z"/></clipPath></defs><g clip-path="url(#clip35)" fill="none" opacity="1" stroke="#000000" stroke-linecap="butt" stroke-linejoin="miter" stroke-miterlimit="2" stroke-opacity="1" stroke-width="0.47" transform="matrix(2.12766,0,0,2.12766,-26.5957,-109.574)"><polyline fill="none" points="41,99 42,103" vector-effect="none"/></g><defs><clipPath id="clip36"><path d="M20,54 L100,54 L100,106 L20,106 L20,54 z"/></clipPath></defs><g clip-path="url(#clip36)" fill="none" opacity="1" stroke="#000000" stroke-linecap="butt" stroke-linejoin="miter" stroke-miterlimit="2" stroke-opacity="1" stroke-width="0.47" transform="matrix(2.12766,0,0,2.12766,-26.5957,-109.574)"><polyline fill="none" points="42,103 42,99" vector-effect="none"/></g><defs><clipPath id="clip37"><path d="M20,54 L100,54 L100,106 L20,106 L20,54 z"/></clipPath></defs><g clip-path="url(#clip37)" fill="none" opacity="1" stroke="#000000" stroke-linecap="butt" stroke-linejoin="miter" stroke-miterlimit="2" stroke-opacity="1" stroke-width="0.47" transform="matrix(2.12766,0,0,2.12766,-26.5957,-109.574)"><polyline fill="none" points="42,99 43,97" vector-effect="none"/></g><defs><clipPath id="clip38"><path d="M20,54 L100,54 L100,106 L20,106 L20,54 z"/></clipPath></defs><g clip-path="url(#clip38)" fill="none" opacity="1" stroke="#000000" stroke-linecap="butt" stroke-linejoin="miter" stroke-miterlimit="2" stroke-opacity="1" stroke-width="0.47" transform="matrix(2.12766,0,0,2.12766,-26.5957,-109.574)"><polyline fill="none" points="43,97 44,94" vector-effect="none"/></g><defs><clipPath id="clip39"><path d="M20,54 L100,54 L100,106 L20,106 L20,54 z"/></clipPath></defs><g clip-path="url(#clip39)" fill="none" opacity="1" stroke="#000000" stroke-linecap="butt" stroke-linejoin="miter" stroke-miterlimit="2" stroke-opacity="1" stroke-width="0.47" transform="matrix(2.12766,0,0,2.12766,-26.5957,-109.574)"><polyline fill="none" points="44,94 45,93" vector-effect="none"/></g><defs><clipPath id="clip40"><path d="M20,54 L100,54 L100,106 L20,106 L20,54 z"/></clipPath></defs><g clip-path="url(#clip40)" fill="none" opacity="1" stroke="#000000" stroke-linecap="butt" stroke-linejoin="miter" stroke-miterlimit="2" stroke-opacity="1" stroke-width="0.47" transform="matrix(2.12766,0,0,2.12766,-26.5957,-109.574)"><polyline fill="none" points="45,93 46,92" vector-effect="none"/></g><defs><clipPath id="clip41"><path d="M20,54 L100,54 L100,106 L20,106 L20,54 z"/></clipPath></defs><g clip-path="url(#clip41)" fill="none" opacity="1" stroke="#000000" stroke-linecap="butt" stroke-linejoin="miter" stroke-miterlimit="2" stroke-opacity="1" stroke-width="0.47" transform="matrix(2.12766,0,0,2.12766,-26.5957,-109.574)"><polyline fill="none" points="46,92 47,92" vector-effect="none"/></g><defs><clipPath id="clip42"><path d="M20,54 L100,54 L100,106 L20,106 L20,54 z"/></clipPath></defs><g clip-path="url(#clip42)" fill="none" opacity="1" stroke="#000000" stroke-linecap="butt" stroke-linejoin="miter" stroke-miterlimit="2" stroke-opacity="1" stroke-width="0.47" transform="matrix(2.12766,0,0,2.12766,-26.5957,-109.574)"><polyline fill="none" points="47,92 48,92" vector-effect="none"/></g><defs><clipPath id="clip43"><path d="M20,54 L100,54 L100,106 L20,106 L20,54 z"/></clipPath></defs><g clip-path="url(#clip43)" fill="none" opacity="1" stroke="#000000" stroke-linecap="butt" stroke-linejoin="miter" stroke-miterlimit="2" stroke-opacity="1" stroke-width="0.47" transform="matrix(2.12766,0,0,2.12766,-26.5957,-109.574)"><polyline fill="none" points="48,92 49,94" vector-effect="none"/></g><defs><clipPath id="clip44"><path d="M20,54 L100,54 L100,106 L20,106 L20,54 z"/></clipPath></defs><g clip-path="url(#clip44)" fill="none" opacity="1" stroke="#000000" stroke-linecap="butt" stroke-linejoin="miter" stroke-miterlimit="2" stroke-opacity="1" stroke-width="0.47" transform="matrix(2.12766,0,0,2.12766,-26.5957,-109.574)"><polyline fill="none" points="49,94 50,97" vector-effect="none"/></g><defs><clipPath id="clip45"><path d="M20,54 L100,54 L100,106 L20,106 L20,54 z"/></clipPath></defs><g clip-path="url(#clip45)" fill="none" opacity="1" stroke="#000000" stroke-linecap="butt" stroke-linejoin="miter" stroke-miterlimit="2" stroke-opacity="1" stroke-width="0.47" transform="matrix(2.12766,0,0,2.12766,-26.5957,-109.574)"><polyline fill="none" points="50,97 51,103" vector-effect="none"/></g><defs><clipPath id="clip46"><path d="M20,54 L100,54 L100,106 L20,106 L20,54 z"/></clipPath></defs><g clip-path="url(#clip46)" fill="none" opacity="1" stroke="#000000" stroke-linecap="butt" stroke-linejoin="miter" stroke-miterlimit="2" stroke-opacity="1" stroke-width="0.47" transform="matrix(2.12766,0,0,2.12766,-26.5957,-109.574)"><polyline fill="none" points="51,103 52,96" vector-effect="none"/></g><defs><clipPath id="clip47"><path d="M20,54 L100,54 L100,106 L20,106 L20,54 z"/></clipPath></defs><g clip-path="url(#clip47)" fill="none" opacity="1" stroke="#000000" stroke-linecap="butt" stroke-linejoin="miter" stroke-miterlimit="2" stroke-opacity="1" stroke-width="0.47" transform="matrix(2.12766,0,0,2.12766,-26.5957,-109.574)"><polyline fill="none" points="52,96 53,91" vector-effect="none"/></g><defs><clipPath id="clip48"><path d="M20,54 L100,54 L100,106 L20,106 L20,54 z"/></clipPath></defs><g clip-path="url(#clip48)" fill="none" opacity="1" stroke="#000000" stroke-linecap="butt" stroke-linejoin="miter" stroke-miterlimit="2" stroke-opacity="1" stroke-width="0.47" transform="matrix(2.12766,0,0,2.12766,-26.5957,-109.574)"><polyline fill="none" points="53,91 54,86" vector-effect="none"/></g><defs><clipPath id="clip49"><path d="M20,54 L100,54 L100,106 L20,106 L20,54 z"/></clipPath></defs><g clip-path="url(#clip49)" fill="none" opacity="1" stroke="#000000" stroke-linecap="butt" stroke-linejoin="miter" stroke-miterlimit="2" stroke-opacity="1" stroke-width="0.47" transform="matrix(2.12766,0,0,2.12766,-26.5957,-109.574)"><polyline fill="none" points="54,86 54,82" vector-effect="none"/></g><defs><clipPath id="clip50"><path d="M20,54 L100,54 L100,106 L20,106 L20,54 z"/></clipPath></defs><g clip-path="url(#clip50)" fill="none" opacity="1" stroke="#000000" stroke-linecap="butt" stroke-linejoin="miter" stroke-miterlimit="2" stroke-opacity="1" stroke-width="0.47" transform="matrix(2.12766,0,0,2.12766,-26.5957,-109.574)"><polyline fill="none" points="54,82 55,78" vector-effect="none"/></g><defs><clipPath id="clip51"><path d="M20,54 L100,54 L100,106 L20,106 L20,54 z"/></clipPath></defs><g clip-path="url(#clip51)" fill="none" opacity="1" stroke="#000000" stroke-linecap="butt" stroke-linejoin="miter" stroke-miterlimit="2" stroke-opacity="1" stroke-width="0.47" transform="matrix(2.12766,0,0,2.12766,-26.5957,-109.574)"><polyline fill="none" points="55,78 56,74" vector-effect="none"/></g><defs><clipPath id="clip52"><path d="M20,54 L100,54 L100,106 L20,106 L20,54 z"/></clipPath></defs><g clip-path="url(#clip52)" fill="none" opacity="1" stroke="#000000" stroke-linecap="butt" stroke-linejoin="miter" stroke-miterlimit="2" stroke-opacity="1" stroke-width="0.47" transform="matrix(2.12766,0,0,2.12766,-26.5957,-109.574)"><polyline fill="none" points="56,74 57,71" vector-effect="none"/></g><defs><clipPath id="clip53"><path d="M20,54 L100,54 L100,106 L20,106 L20,54 z"/></clipPath></defs><g clip-path="url(#clip53)" fill="none" opacity="1" stroke="#000000" stroke-linecap="butt" stroke-linejoin="miter" stroke-miterlimit="2" stroke-opacity="1" stroke-width="0.47" transform="matrix(2.12766,0,0,2.12766,-26.5957,-109.574)"><polyline fill="none" points="57,71 58,69" vector-effect="none"/></g><defs><clipPath id="clip54"><path d="M20,54 L100,54 L100,106 L20,106 L20,54 z"/></clipPath></defs><g clip-path="url(#clip54)" fill="none" opacity="1" stroke="#000000" stroke-linecap="butt" stroke-linejoin="miter" stroke-miterlimit="2" stroke-opacity="1" stroke-width="0.47" transform="matrix(2.12766,0,0,2.12766,-26.5957,-109.574)"><polyline fill="none" points="58,69 59,68" vector-effect="none"/></g><defs><clipPath id="clip55"><path d="M20,54 L100,54 L100,106 L20,106 L20,54 z"/></clipPath></defs><g clip-path="url(#clip55)" fill="none" opacity="1" stroke="#000000" stroke-linecap="butt" stroke-linejoin="miter" stroke-miterlimit="2" stroke-opacity="1" stroke-width="0.47" transform="matrix(2.12766,0,0,2.12766,-26.5957,-109.574)"><polyline fill="none" points="59,68 60,68" vector-effect="none"/></g><defs><clipPath id="clip56"><path d="M20,54 L100,54 L100,106 L20,106 L20,54 z"/></clipPath></defs><g clip-path="url(#clip56)" fill="none" opacity="1" stroke="#000000" stroke-linecap="butt" stroke-linejoin="miter" stroke-miterlimit="2" stroke-opacity="1" stroke-width="0.47" transform="matrix(2.12766,0,0,2.12766,-26.5957,-109.574)"><polyline fill="none" points="60,68 61,68" vector-effect="none"/></g><defs><clipPath id="clip57"><path d="M20,54 L100,54 L100,106 L20,106 L20,54 z"/></clipPath></defs><g clip-path="url(#clip57)" fill="none" opacity="1" stroke="#000000" stroke-linecap="butt" stroke-linejoin="miter" stroke-miterlimit="2" stroke-opacity="1" stroke-width="0.47" transform="matrix(2.12766,0,0,2.12766,-26.5957,-109.574)"><polyline fill="none" points="61,68 62,69" vector-effect="none"/></g><defs><clipPath id="clip58"><path d="M20,54 L100,54 L100,106 L20,106 L20,54 z"/></clipPath></defs><g clip-path="url(#clip58)" fill="none" opacity="1" stroke="#000000" stroke-linecap="butt" stroke-linejoin="miter" stroke-miterlimit="2" stroke-opacity="1" stroke-width="0.47" transform="matrix(2.12766,0,0,2.12766,-26.5957,-109.574)"><polyline fill="none" points="62,69 63,71" vector-effect="none"/></g><defs><clipPath id="clip59"><path d="M20,54 L100,54 L100,106 L20,106 L20,54 z"/></clipPath></defs><g clip-path="url(#clip59)" fill="none" opacity="1" stroke="#000000" stroke-linecap="butt" stroke-linejoin="miter" stroke-miterlimit="2" stroke-opacity="1" stroke-width="0.47" transform="matrix(2.12766,0,0,2.12766,-26.5957,-109.574)"><polyline fill="none" points="63,71 64,74" vector-effect="none"/></g><defs><clipPath id="clip60"><path d="M20,54 L100,54 L100,106 L20,106 L20,54 z"/></clipPath></defs><g clip-path="url(#clip60)" fill="none" opacity="1" stroke="#000000" stroke-linecap="butt" stroke-linejoin="miter" stroke-miterlimit="2" stroke-opacity="1" stroke-width="0.47" transform="matrix(2.12766,0,0,2.12766,-26.5957,-109.574)"><polyline fill="none" points="64,74 65,78" vector-effect="none"/></g><defs><clipPath id="clip61"><path d="M20,54 L100,54 L100,106 L20,106 L20,54 z"/></clipPath></defs><g clip-path="url(#clip61)" fill="none" opacity="1" stroke="#000000" stroke-linecap="butt" stroke-linejoin="miter" stroke-miterlimit="2" stroke-opacity="1" stroke-width="0.47" transform="matrix(2.12766,0,0,2.12766,-26.5957,-109.574)"><polyline fill="none" points="65,78 66,82" vector-effect="none"/></g><defs><clipPath id="clip62"><path d="M20,54 L100,54 L100,106 L20,106 L20,54 z"/></clipPath></defs><g clip-path="url(#clip62)" fill="none" opacity="1" stroke="#000000" stroke-linecap="butt" stroke-linejoin="miter" stroke-miterlimit="2" stroke-opacity="1" stroke-width="0.47" transform="matrix(2.12766,0,0,2.12766,-26.5957,-109.574)"><polyline fill="none" points="66,82 66,86" vector-effect="none"/></g><defs><clipPath id="clip63"><path d="M20,54 L100,54 L100,106 L20,106 L20,54 z"/></clipPath></defs><g clip-path="url(#clip63)" fill="none" opacity="1" stroke="#000000" stroke-linecap="butt" stroke-linejoin="miter" stroke-miterlimit="2" stroke-opacity="1" stroke-width="0.47" transform="matrix(2.12766,0,0,2.12766,-26.5957,-109.574)"><polyline fill="none" points="66,86 67,91" vector-effect="none"/></g><defs><clipPath id="clip64"><path d="M20,54 L100,54 L100,106 L20,106 L20,54 z"/></clipPath></defs><g clip-path="url(#clip64)" fill="none" opacity="1" stroke="#000000" stroke-linecap="butt" stroke-linejoin="miter" stroke-miterlimit="2" stroke-opacity="1" stroke-width="0.47" transform="matrix(2.12766,0,0,2.12766,-26.5957,-109.574)"><polyline fill="none" points="67,91 68,96" vector-effect="none"/></g><defs><clipPath id="clip65"><path d="M20,54 L100,54 L100,106 L20,106 L20,54 z"/></clipPath></defs><g clip-path="url(#clip65)" fill="none" opacity="1" stroke="#000000" stroke-linecap="butt" stroke-linejoin="miter" stroke-miterlimit="2" stroke-opacity="1" stroke-width="0.47" transform="matrix(2.12766,0,0,2.12766,-26.5957,-109.574)"><polyline fill="none" points="68,96 69,103" vector-effect="none"/></g><defs><clipPath id="clip66"><path d="M20,54 L100,54 L100,106 L20,106 L20,54 z"/></clipPath></defs><g clip-path="url(#clip66)" fill="none" opacity="1" stroke="#000000" stroke-linecap="butt" stroke-linejoin="miter" stroke-miterlimit="2" stroke-opacity="1" stroke-width="0.47" transform="matrix(2.12766,0,0,2.12766,-26.5957,-109.574)"><polyline fill="none" points="69,103 70,97" vector-effect="none"/></g><defs><clipPath id="clip67"><path d="M20,54 L100,54 L100,106 L20,106 L20,54 z"/></clipPath></defs><g clip-path="url(#clip67)" fill="none" opacity="1" stroke="#000000" stroke-linecap="butt" stroke-linejoin="miter" stroke-miterlimit="2" stroke-opacity="1" stroke-width="0.47" transform="matrix(2.12766,0,0,2.12766,-26.5957,-109.574)"><polyline fill="none" points="70,97 71,94" vector-effect="none"/></g><defs><clipPath id="clip68"><path d="M20,54 L100,54 L100,106 L20,106 L20,54 z"/></clipPath></defs><g clip-path="url(#clip68)" fill="none" opacity="1" stroke="#000000" stroke-linecap="butt" stroke-linejoin="miter" stroke-miterlimit="2" stroke-opacity="1" stroke-width="0.47" transform="matrix(2.12766,0,0,2.12766,-26.5957,-109.574)"><polyline fill="none" points="71,94 72,92" vector-effect="none"/></g><defs><clipPath id="clip69"><path d="M20,54 L100,54 L100,106 L20,106 L20,54 z"/></clipPath></defs><g clip-path="url(#clip69)" fill="none" opacity="1" stroke="#000000" stroke-linecap="butt" stroke-linejoin="miter" stroke-miterlimit="2" stroke-opacity="1" stroke-width="0.47" transform="matrix(2.12766,0,0,2.12766,-26.5957,-109.574)"><polyline fill="none" points="72,92 73,92" vector-effect="none"/></g><defs><clipPath id="clip70"><path d="M20,54 L100,54 L100,106 L20,106 L20,54 z"/></clipPath></defs><g clip-path="url(#clip70)" fill="none" opacity="1" stroke="#000000" stroke-linecap="butt" stroke-linejoin="miter" stroke-miterlimit="2" stroke-opacity="1" stroke-width="0.47" transform="matrix(2.12766,0,0,2.12766,-26.5957,-109.574)"><polyline fill="none" points="73,92 74,92" vector-effect="none"/></g><defs><clipPath id="clip71"><path d="M20,54 L100,54 L100,106 L20,106 L20,54 z"/></clipPath></defs><g clip-path="url(#clip71)" fill="none" opacity="1" stroke="#000000" stroke-linecap="butt" stroke-linejoin="miter" stroke-miterlimit="2" stroke-opacity="1" stroke-width="0.47" transform="matrix(2.12766,0,0,2.12766,-26.5957,-109.574)"><polyline fill="none" points="74,92 75,93" vector-effect="none"/></g><defs><clipPath id="clip72"><path d="M20,54 L100,54 L100,106 L20,106 L20,54 z"/></clipPath></defs><g clip-path="url(#clip72)" fill="none" opacity="1" stroke="#000000" stroke-linecap="butt" stroke-linejoin="miter" stroke-miterlimit="2" stroke-opacity="1" stroke-width="0.47" transform="matrix(2.12766,0,0,2.12766,-26.5957,-109.574)"><polyline fill="none" points="75,93 76,94" vector-effect="none"/></g><defs><clipPath id="clip73"><path d="M20,54 L100,54 L100,106 L20,106 L20,54 z"/></clipPath></defs><g clip-path="url(#clip73)" fill="none" opacity="1" stroke="#000000" stroke-linecap="butt" stroke-linejoin="miter" stroke-miterlimit="2" stroke-opacity="1" stroke-width="0.47" transform="matrix(2.12766,0,0,2.12766,-26.5957,-109.574)"><polyline fill="none" points="76,94 77,97" vector-effect="none"/></g><defs><clipPath id="clip74"><path d="M20,54 L100,54 L100,106 L20,106 L20,54 z"/></clipPath></defs><g clip-path="url(#clip74)" fill="none" opacity="1" stroke="#000000" stroke-linecap="butt" stroke-linejoin="miter" stroke-miterlimit="2" stroke-opacity="1" stroke-width="0.47" transform="matrix(2.12766,0,0,2.12766,-26.5957,-109.574)"><polyline fill="none" points="77,97 78,99" vector-effect="none"/></g><defs><clipPath id="clip75"><path d="M20,54 L100,54 L100,106 L20,106 L20,54 z"/></clipPath></defs><g clip-path="url(#clip75)" fill="none" opacity="1" stroke="#000000" stroke-linecap="butt" stroke-linejoin="miter" stroke-miterlimit="2" stroke-opacity="1" stroke-width="0.47" transform="matrix(2.12766,0,0,2.12766,-26.5957,-109.574)"><polyline fill="none" points="78,99 79,103" vector-effect="none"/></g><defs><clipPath id="clip76"><path d="M20,54 L100,54 L100,106 L20,106 L20,54 z"/></clipPath></defs><g clip-path="url(#clip76)" fill="none" opacity="1" stroke="#000000" stroke-linecap="butt" stroke-linejoin="miter" stroke-miterlimit="2" stroke-opacity="1" stroke-width="0.47" transform="matrix(2.12766,0,0,2.12766,-26.5957,-109.574)"><polyline fill="none" points="79,103 79,99" vector-effect="none"/></g><defs><clipPath id="clip77"><path d="M20,54 L100,54 L100,106 L20,106 L20,54 z"/></clipPath></defs><g clip-path="url(#clip77)" fill="none" opacity="1" stroke="#000000" stroke-linecap="butt" stroke-linejoin="miter" stroke-miterlimit="2" stroke-opacity="1" stroke-width="0.47" transform="matrix(2.12766,0,0,2.12766,-26.5957,-109.574)"><polyline fill="none" points="79,99 80,97" vector-effect="none"/></g><defs><clipPath id="clip78"><path d="M20,54 L100,54 L100,106 L20,106 L20,54 z"/></clipPath></defs><g clip-path="url(#clip78)" fill="none" opacity="1" stroke="#000000" stroke-linecap="butt" stroke-linejoin="miter" stroke-miterlimit="2" stroke-opacity="1" stroke-width="0.47" transform="matrix(2.12766,0,0,2.12766,-26.5957,-109.574)"><polyline fill="none" points="80,97 81,96" vector-effect="none"/></g><defs><clipPath id="clip79"><path d="M20,54 L100,54 L100,106 L20,106 L20,54 z"/></clipPath></defs><g clip-path="url(#clip79)" fill="none" opacity="1" stroke="#000000" stroke-linecap="butt" stroke-linejoin="miter" stroke-miterlimit="2" stroke-opacity="1" stroke-width="0.47" transform="matrix(2.12766,0,0,2.12766,-26.5957,-109.574)"><polyline fill="none" points="81,96 82,96" vector-effect="none"/></g><defs><clipPath id="clip80"><path d="M20,54 L100,54 L100,106 L20,106 L20,54 z"/></clipPath></defs><g clip-path="url(#clip80)" fill="none" opacity="1" stroke="#000000" stroke-linecap="butt" stroke-linejoin="miter" stroke-miterlimit="2" stroke-opacity="1" stroke-width="0.47" transform="matrix(2.12766,0,0,2.12766,-26.5957,-109.574)"><polyline fill="none" points="82,96 83,95" vector-effect="none"/></g><defs><clipPath id="clip81"><path d="M20,54 L100,54 L100,106 L20,106 L20,54 z"/></clipPath></defs><g clip-path="url(#clip81)" fill="none" opacity="1" stroke="#000000" stroke-linecap="butt" stroke-linejoin="miter" stroke-miterlimit="2" stroke-opacity="1" stroke-width="0.47" transform="matrix(2.12766,0,0,2.12766,-26.5957,-109.574)"><polyline fill="none" points="83,95 84,96" vector-effect="none"/></g><defs><clipPath id="clip82"><path d="M20,54 L100,54 L100,106 L20,106 L20,54 z"/></clipPath></defs><g clip-path="url(#clip82)" fill="none" opacity="1" stroke="#000000" stroke-linecap="butt" stroke-linejoin="miter" stroke-miterlimit="2" stroke-opacity="1" stroke-width="0.47" transform="matrix(2.12766,0,0,2.12766,-26.5957,-109.574)"><polyline fill="none" points="84,96 85,97" vector-effect="none"/></g><defs><clipPath id="clip83"><path d="M20,54 L100,54 L100,106 L20,106 L20,54 z"/></clipPath></defs><g clip-path="url(#clip83)" fill="none" opacity="1" stroke="#000000" stroke-linecap="butt" stroke-linejoin="miter" stroke-miterlimit="2" stroke-opacity="1" stroke-width="0.47" transform="matrix(2.12766,0,0,2.12766,-26.5957,-109.574)"><polyline fill="none" points="85,97 86,98" vector-effect="none"/></g><defs><clipPath id="clip84"><path d="M20,54 L100,54 L100,106 L20,106 L20,54 z"/></clipPath></defs><g clip-path="url(#clip84)" fill="none" opacity="1" stroke="#000000" stroke-linecap="butt" stroke-linejoin="miter" stroke-miterlimit="2" stroke-opacity="1" stroke-width="0.47" transform="matrix(2.12766,0,0,2.12766,-26.5957,-109.574)"><polyline fill="none" points="86,98 87,100" vector-effect="none"/></g><defs><clipPath id="clip85"><path d="M20,54 L100,54 L100,106 L20,106 L20,54 z"/></clipPath></defs><g clip-path="url(#clip85)" fill="none" opacity="1" stroke="#000000" stroke-linecap="butt" stroke-linejoin="miter" stroke-miterlimit="2" stroke-opacity="1" stroke-width="0.47" transform="matrix(2.12766,0,0,2.12766,-26.5957,-109.574)"><polyline fill="none" points="87,100 88,103" vector-effect="none"/></g><defs><clipPath id="clip86"><path d="M20,54 L100,54 L100,106 L20,106 L20,54 z"/></clipPath></defs><g clip-path="url(#clip86)" fill="none" opacity="1" stroke="#000000" stroke-linecap="butt" stroke-linejoin="miter" stroke-miterlimit="2" stroke-opacity="1" stroke-width="0.47" transform="matrix(2.12766,0,0,2.12766,-26.5957,-109.574)"><polyline fill="none" points="88,103 89,100" vector-effect="none"/></g><defs><clipPath id="clip87"><path d="M20,54 L100,54 L100,106 L20,106 L20,54 z"/></clipPath></defs><g clip-path="url(#clip87)" fill="none" opacity="1" stroke="#000000" stroke-linecap="butt" stroke-linejoin="miter" stroke-miterlimit="2" stroke-opacity="1" stroke-width="0.47" transform="matrix(2.12766,0,0,2.12766,-26.5957,-109.574)"><polyline fill="none" points="89,100 90,99" vector-effect="none"/></g><defs><clipPath id="clip88"><path d="M20,54 L100,54 L100,106 L20,106 L20,54 z"/></clipPath></defs><g clip-path="url(#clip88)" fill="none" opacity="1" stroke="#000000" stroke-linecap="butt" stroke-linejoin="miter" stroke-miterlimit="2" stroke-opacity="1" stroke-width="0.47" transform="matrix(2.12766,0,0,2.12766,-26.5957,-109.574)"><polyline fill="none" points="90,99 91,98" vector-effect="none"/></g><defs><clipPath id="clip89"><path d="M20,54 L100,54 L100,106 L20,106 L20,54 z"/></clipPath></defs><g clip-path="url(#clip89)" fill="none" opacity="1" stroke="#000000" stroke-linecap="butt" stroke-linejoin="miter" stroke-miterlimit="2" stroke-opacity="1" stroke-width="0.47" transform="matrix(2.12766,0,0,2.12766,-26.5957,-109.574)"><polyline fill="none" points="91,98 91,97" vector-effect="none"/></g><defs><clipPath id="clip90"><path d="M20,54 L100,54 L100,106 L20,106 L20,54 z"/></clipPath></defs><g clip-path="url(#clip90)" fill="none" opacity="1" stroke="#000000" stroke-linecap="butt" stroke-linejoin="miter" stroke-miterlimit="2" stroke-opacity="1" stroke-width="0.47" transform="matrix(2.12766,0,0,2.12766,-26.5957,-109.574)"><polyline fill="none" points="91,97 92,97" vector-effect="none"/></g><defs><clipPath id="clip91"><path d="M20,54 L100,54 L100,106 L20,106 L20,54 z"/></clipPath></defs><g clip-path="url(#clip91)" fill="none" opacity="1" stroke="#000000" stroke-linecap="butt" stroke-linejoin="miter" stroke-miterlimit="2" stroke-opacity="1" stroke-width="0.47" transform="matrix(2.12766,0,0,2.12766,-26.5957,-109.574)"><polyline fill="none" points="92,97 93,97" vector-effect="none"/></g><defs><clipPath id="clip92"><path d="M20,54 L100,54 L100,106 L20,106 L20,54 z"/></clipPath></defs><g clip-path="url(#clip92)" fill="none" opacity="1" stroke="#000000" stroke-linecap="butt" stroke-linejoin="miter" stroke-miterlimit="2" stroke-opacity="1" stroke-width="0.47" transform="matrix(2.12766,0,0,2.12766,-26.5957,-109.574)"><polyline fill="none" points="93,97 94,98" vector-effect="none"/></g><defs><clipPath id="clip93"><path d="M20,54 L100,54 L100,106 L20,106 L20,54 z"/></clipPath></defs><g clip-path="url(#clip93)" fill="none" opacity="1" stroke="#000000" stroke-linecap="butt" stroke-linejoin="miter" stroke-miterlimit="2" stroke-opacity="1" stroke-width="0.47" transform="matrix(2.12766,0,0,2.12766,-26.5957,-109.574)"><polyline fill="none" points="94,98 95,99" vector-effect="none"/></g><defs><clipPath id="clip94"><path d="M20,54 L100,54 L100,106 L20,106 L20,54 z"/></clipPath></defs><g clip-path="url(#clip94)" fill="none" opacity="1" stroke="#000000" stroke-linecap="butt" stroke-linejoin="miter" stroke-miterlimit="2" stroke-opacity="1" stroke-width="0.47" transform="matrix(2.12766,0,0,2.12766,-26.5957,-109.574)"><polyline fill="none" points="95,99 96,101" vector-effect="none"/></g><defs><clipPath id="clip95"><path d="M20,54 L100,54 L100,106 L20,106 L20,54 z"/></clipPath></defs><g clip-path="url(#clip95)" fill="none" opacity="1" stroke="#000000" stroke-linecap="butt" stroke-linejoin="miter" stroke-miterlimit="2" stroke-opacity="1" stroke-width="0.47" transform="matrix(2.12766,0,0,2.12766,-26.5957,-109.574)"><polyline fill="none" points="96,101 97,103" vector-effect="none"/></g><defs><clipPath id="clip100"><path d="M-7,-2 L87,-2 L87,54 L-7,54 L-7,-2 z"/></clipPath></defs><g clip-path="url(#clip100)" fill="none" opacity="1" stroke="#000000" stroke-linecap="butt" stroke-linejoin="miter" stroke-miterlimit="2" stroke-opacity="1" stroke-width="0.739331" transform="matrix(2.12766,0,0,2.12766,14.8936,4.25532)"><path d="M0,0 L80,0 L80,52 L0,52 L0,0 z" fill-rule="evenodd" vector-effect="none"/></g></g></svg>
