<?xml version="1.0" encoding="UTF-8"?><svg width="52.9167mm" height="32.5437mm" viewBox="0 0 200 123" xmlns="http://www.w3.org/2000/svg" xmlns:xlink="http://www.w3.org/1999/xlink"><g fill="none" stroke="black" stroke-width="1" fill-rule="evenodd" stroke-linecap="square" stroke-linejoin="bevel"><g clip-path="none" fill="none" opacity="1" stroke="none" stroke-opacity="0" transform="matrix(1,0,0,1,0,0)"><path d="M0,0 L200,0 L200,123 L0,123 L0,0 z" fill-rule="evenodd" vector-effect="none"/></g><defs><clipPath id="clip3"><path d="M7,29 L-87,29 L-87,-29 L7,-29 L7,29 z"/></clipPath></defs><g clip-path="url(#clip3)" fill="none" opacity="1" stroke="#000000" stroke-linecap="round" stroke-linejoin="miter" stroke-miterlimit="2" stroke-opacity="1" stroke-width="2" transform="matrix(-2.12766,0,0,-2.12766,14.8936,61.7021)"><path d="M5,-5 L0,0 L5,5" fill-rule="evenodd" vector-effect="none"/></g><defs><clipPath id="clip6"><path d="M-87,-29 L7,-29 L7,29 L-87,29 L-87,-29 z"/></clipPath></defs><g clip-path="url(#clip6)" fill="none" opacity="1" stroke="#000000" stroke-linecap="round" stroke-linejoin="miter" stroke-miterlimit="2" stroke-opacity="1" stroke-width="2" transform="matrix(2.12766,0,0,2.12766,185.106,61.7021)"><path d="M0,-5 L5,0 L0,5" fill-rule="evenodd" vector-effect="none"/></g><defs><clipPath id="clip9"><path d="M-7,-2 L87,-2 L87,56 L-7,56 L-7,-2 z"/></clipPath></defs><g clip-path="url(#clip9)" fill="#ffffff" fill-opacity="1" opacity="1" stroke="none" stroke-opacity="0" transform="matrix(2.12766,0,0,2.12766,14.8936,4.25532)"><path d="M0,0 L80,0 L80,54 L0,54 L0,0 z" fill-rule="evenodd" vector-effect="none"/></g><defs><clipPath id="clip14"><path d="M-46,-31 L364,-31 L364,245 L-46,245 L-46,-31 z"/></clipPath></defs><g clip-path="url(#clip14)" fill="none" opacity="1" stroke="#000000" stroke-linecap="butt" stroke-linejoin="miter" stroke-miterlimit="2" stroke-opacity="1" stroke-width="0.47" transform="matrix(0.415559,0,0,0.415559,34.0426,17.0213)"><text fill="#000000" fill-opacity="1" font-family="Liberation Sans" font-size="40" font-style="normal" font-weight="400" stroke="none" textLength="140" x="0" xml:space="preserve" y="17.9219">Yule AR</text></g><defs><clipPath id="clip16"><path d="M20,143 L100,143 L100,197 L20,197 L20,143 z"/></clipPath></defs><g clip-path="url(#clip16)" fill="none" opacity="1" stroke="#000000" stroke-linecap="butt" stroke-linejoin="miter" stroke-miterlimit="2" stroke-opacity="1" stroke-width="0.47" transform="matrix(2.12766,0,0,2.12766,-26.5957,-298.936)"><polyline fill="none" points="23,194 24,192" vector-effect="none"/></g><defs><clipPath id="clip17"><path d="M20,143 L100,143 L100,197 L20,197 L20,143 z"/></clipPath></defs><g clip-path="url(#clip17)" fill="none" opacity="1" stroke="#000000" stroke-linecap="butt" stroke-linejoin="miter" stroke-miterlimit="2" stroke-opacity="1" stroke-width="0.47" transform="matrix(2.12766,0,0,2.12766,-26.5957,-298.936)"><polyline fill="none" points="24,192 25,190" vector-effect="none"/></g><defs><clipPath id="clip18"><path d="M20,143 L100,143 L100,197 L20,197 L20,143 z"/></clipPath></defs><g clip-path="url(#clip18)" fill="none" opacity="1" stroke="#000000" stroke-linecap="butt" stroke-linejoin="miter" stroke-miterlimit="2" stroke-opacity="1" stroke-width="0.47" transform="matrix(2.12766,0,0,2.12766,-26.5957,-298.936)"><polyline fill="none" points="25,190 26,189" vector-effect="none"/></g><defs><clipPath id="clip19"><path d="M20,143 L100,143 L100,197 L20,197 L20,143 z"/></clipPath></defs><g clip-path="url(#clip19)" fill="none" opacity="1" stroke="#000000" stroke-linecap="butt" stroke-linejoin="miter" stroke-miterlimit="2" stroke-opacity="1" stroke-width="0.47" transform="matrix(2.12766,0,0,2.12766,-26.5957,-298.936)"><polyline fill="none" points="26,189 27,188" vector-effect="none"/></g><defs><clipPath id="clip20"><path d="M20,143 L100,143 L100,197 L20,197 L20,143 z"/></clipPath></defs><g clip-path="url(#clip20)" fill="none" opacity="1" stroke="#000000" stroke-linecap="butt" stroke-linejoin="miter" stroke-miterlimit="2" stroke-opacity="1" stroke-width="0.47" transform="matrix(2.12766,0,0,2.12766,-26.5957,-298.936)"><polyline fill="none" points="27,188 28,188" vector-effect="none"/></g><defs><clipPath id="clip21"><path d="M20,143 L100,143 L100,197 L20,197 L20,143 z"/></clipPath></defs><g clip-path="url(#clip21)" fill="none" opacity="1" stroke="#000000" stroke-linecap="butt" stroke-linejoin="miter" stroke-miterlimit="2" stroke-opacity="1" stroke-width="0.47" transform="matrix(2.12766,0,0,2.12766,-26.5957,-298.936)"><polyline fill="none" points="28,188 29,188" vector-effect="none"/></g><defs><clipPath id="clip22"><path d="M20,143 L100,143 L100,197 L20,197 L20,143 z"/></clipPath></defs><g clip-path="url(#clip22)" fill="none" opacity="1" stroke="#000000" stroke-linecap="butt" stroke-linejoin="miter" stroke-miterlimit="2" stroke-opacity="1" stroke-width="0.47" transform="matrix(2.12766,0,0,2.12766,-26.5957,-298.936)"><polyline fill="none" points="29,188 29,189" vector-effect="none"/></g><defs><clipPath id="clip23"><path d="M20,143 L100,143 L100,197 L20,197 L20,143 z"/></clipPath></defs><g clip-path="url(#clip23)" fill="none" opacity="1" stroke="#000000" stroke-linecap="butt" stroke-linejoin="miter" stroke-miterlimit="2" stroke-opacity="1" stroke-width="0.47" transform="matrix(2.12766,0,0,2.12766,-26.5957,-298.936)"><polyline fill="none" points="29,189 30,190" vector-effect="none"/></g><defs><clipPath id="clip24"><path d="M20,143 L100,143 L100,197 L20,197 L20,143 z"/></clipPath></defs><g clip-path="url(#clip24)" fill="none" opacity="1" stroke="#000000" stroke-linecap="butt" stroke-linejoin="miter" stroke-miterlimit="2" stroke-opacity="1" stroke-width="0.47" transform="matrix(2.12766,0,0,2.12766,-26.5957,-298.936)"><polyline fill="none" points="30,190 31,191" vector-effect="none"/></g><defs><clipPath id="clip25"><path d="M20,143 L100,143 L100,197 L20,197 L20,143 z"/></clipPath></defs><g clip-path="url(#clip25)" fill="none" opacity="1" stroke="#000000" stroke-linecap="butt" stroke-linejoin="miter" stroke-miterlimit="2" stroke-opacity="1" stroke-width="0.47" transform="matrix(2.12766,0,0,2.12766,-26.5957,-298.936)"><polyline fill="none" points="31,191 32,194" vector-effect="none"/></g><defs><clipPath id="clip26"><path d="M20,143 L100,143 L100,197 L20,197 L20,143 z"/></clipPath></defs><g clip-path="url(#clip26)" fill="none" opacity="1" stroke="#000000" stroke-linecap="butt" stroke-linejoin="miter" stroke-miterlimit="2" stroke-opacity="1" stroke-width="0.47" transform="matrix(2.12766,0,0,2.12766,-26.5957,-298.936)"><polyline fill="none" points="32,194 33,191" vector-effect="none"/></g><defs><clipPath id="clip27"><path d="M20,143 L100,143 L100,197 L20,197 L20,143 z"/></clipPath></defs><g clip-path="url(#clip27)" fill="none" opacity="1" stroke="#000000" stroke-linecap="butt" stroke-linejoin="miter" stroke-miterlimit="2" stroke-opacity="1" stroke-width="0.47" transform="matrix(2.12766,0,0,2.12766,-26.5957,-298.936)"><polyline fill="none" points="33,191 34,189" vector-effect="none"/></g><defs><clipPath id="clip28"><path d="M20,143 L100,143 L100,197 L20,197 L20,143 z"/></clipPath></defs><g clip-path="url(#clip28)" fill="none" opacity="1" stroke="#000000" stroke-linecap="butt" stroke-linejoin="miter" stroke-miterlimit="2" stroke-opacity="1" stroke-width="0.47" transform="matrix(2.12766,0,0,2.12766,-26.5957,-298.936)"><polyline fill="none" points="34,189 35,188" vector-effect="none"/></g><defs><clipPath id="clip29"><path d="M20,143 L100,143 L100,197 L20,197 L20,143 z"/></clipPath></defs><g clip-path="url(#clip29)" fill="none" opacity="1" stroke="#000000" stroke-linecap="butt" stroke-linejoin="miter" stroke-miterlimit="2" stroke-opacity="1" stroke-width="0.47" transform="matrix(2.12766,0,0,2.12766,-26.5957,-298.936)"><polyline fill="none" points="35,188 36,187" vector-effect="none"/></g><defs><clipPath id="clip30"><path d="M20,143 L100,143 L100,197 L20,197 L20,143 z"/></clipPath></defs><g clip-path="url(#clip30)" fill="none" opacity="1" stroke="#000000" stroke-linecap="butt" stroke-linejoin="miter" stroke-miterlimit="2" stroke-opacity="1" stroke-width="0.47" transform="matrix(2.12766,0,0,2.12766,-26.5957,-298.936)"><polyline fill="none" points="36,187 37,186" vector-effect="none"/></g><defs><clipPath id="clip31"><path d="M20,143 L100,143 L100,197 L20,197 L20,143 z"/></clipPath></defs><g clip-path="url(#clip31)" fill="none" opacity="1" stroke="#000000" stroke-linecap="butt" stroke-linejoin="miter" stroke-miterlimit="2" stroke-opacity="1" stroke-width="0.47" transform="matrix(2.12766,0,0,2.12766,-26.5957,-298.936)"><polyline fill="none" points="37,186 38,186" vector-effect="none"/></g><defs><clipPath id="clip32"><path d="M20,143 L100,143 L100,197 L20,197 L20,143 z"/></clipPath></defs><g clip-path="url(#clip32)" fill="none" opacity="1" stroke="#000000" stroke-linecap="butt" stroke-linejoin="miter" stroke-miterlimit="2" stroke-opacity="1" stroke-width="0.47" transform="matrix(2.12766,0,0,2.12766,-26.5957,-298.936)"><polyline fill="none" points="38,186 39,187" vector-effect="none"/></g><defs><clipPath id="clip33"><path d="M20,143 L100,143 L100,197 L20,197 L20,143 z"/></clipPath></defs><g clip-path="url(#clip33)" fill="none" opacity="1" stroke="#000000" stroke-linecap="butt" stroke-linejoin="miter" stroke-miterlimit="2" stroke-opacity="1" stroke-width="0.47" transform="matrix(2.12766,0,0,2.12766,-26.5957,-298.936)"><polyline fill="none" points="39,187 40,188" vector-effect="none"/></g><defs><clipPath id="clip34"><path d="M20,143 L100,143 L100,197 L20,197 L20,143 z"/></clipPath></defs><g clip-path="url(#clip34)" fill="none" opacity="1" stroke="#000000" stroke-linecap="butt" stroke-linejoin="miter" stroke-miterlimit="2" stroke-opacity="1" stroke-width="0.47" transform="matrix(2.12766,0,0,2.12766,-26.5957,-298.936)"><polyline fill="none" points="40,188 41,190" vector-effect="none"/></g><defs><clipPath id="clip35"><path d="M20,143 L100,143 L100,197 L20,197 L20,143 z"/></clipPath></defs><g clip-path="url(#clip35)" fill="none" opacity="1" stroke="#000000" stroke-linecap="butt" stroke-linejoin="miter" stroke-miterlimit="2" stroke-opacity="1" stroke-width="0.47" transform="matrix(2.12766,0,0,2.12766,-26.5957,-298.936)"><polyline fill="none" points="41,190 42,194" vector-effect="none"/></g><defs><clipPath id="clip36"><path d="M20,143 L100,143 L100,197 L20,197 L20,143 z"/></clipPath></defs><g clip-path="url(#clip36)" fill="none" opacity="1" stroke="#000000" stroke-linecap="butt" stroke-linejoin="miter" stroke-miterlimit="2" stroke-opacity="1" stroke-width="0.47" transform="matrix(2.12766,0,0,2.12766,-26.5957,-298.936)"><polyline fill="none" points="42,194 42,190" vector-effect="none"/></g><defs><clipPath id="clip37"><path d="M20,143 L100,143 L100,197 L20,197 L20,143 z"/></clipPath></defs><g clip-path="url(#clip37)" fill="none" opacity="1" stroke="#000000" stroke-linecap="butt" stroke-linejoin="miter" stroke-miterlimit="2" stroke-opacity="1" stroke-width="0.47" transform="matrix(2.12766,0,0,2.12766,-26.5957,-298.936)"><polyline fill="none" points="42,190 43,187" vector-effect="none"/></g><defs><clipPath id="clip38"><path d="M20,143 L100,143 L100,197 L20,197 L20,143 z"/></clipPath></defs><g clip-path="url(#clip38)" fill="none" opacity="1" stroke="#000000" stroke-linecap="butt" stroke-linejoin="miter" stroke-miterlimit="2" stroke-opacity="1" stroke-width="0.47" transform="matrix(2.12766,0,0,2.12766,-26.5957,-298.936)"><polyline fill="none" points="43,187 44,185" vector-effect="none"/></g><defs><clipPath id="clip39"><path d="M20,143 L100,143 L100,197 L20,197 L20,143 z"/></clipPath></defs><g clip-path="url(#clip39)" fill="none" opacity="1" stroke="#000000" stroke-linecap="butt" stroke-linejoin="miter" stroke-miterlimit="2" stroke-opacity="1" stroke-width="0.47" transform="matrix(2.12766,0,0,2.12766,-26.5957,-298.936)"><polyline fill="none" points="44,185 45,183" vector-effect="none"/></g><defs><clipPath id="clip40"><path d="M20,143 L100,143 L100,197 L20,197 L20,143 z"/></clipPath></defs><g clip-path="url(#clip40)" fill="none" opacity="1" stroke="#000000" stroke-linecap="butt" stroke-linejoin="miter" stroke-miterlimit="2" stroke-opacity="1" stroke-width="0.47" transform="matrix(2.12766,0,0,2.12766,-26.5957,-298.936)"><polyline fill="none" points="45,183 46,182" vector-effect="none"/></g><defs><clipPath id="clip41"><path d="M20,143 L100,143 L100,197 L20,197 L20,143 z"/></clipPath></defs><g clip-path="url(#clip41)" fill="none" opacity="1" stroke="#000000" stroke-linecap="butt" stroke-linejoin="miter" stroke-miterlimit="2" stroke-opacity="1" stroke-width="0.47" transform="matrix(2.12766,0,0,2.12766,-26.5957,-298.936)"><polyline fill="none" points="46,182 47,182" vector-effect="none"/></g><defs><clipPath id="clip42"><path d="M20,143 L100,143 L100,197 L20,197 L20,143 z"/></clipPath></defs><g clip-path="url(#clip42)" fill="none" opacity="1" stroke="#000000" stroke-linecap="butt" stroke-linejoin="miter" stroke-miterlimit="2" stroke-opacity="1" stroke-width="0.47" transform="matrix(2.12766,0,0,2.12766,-26.5957,-298.936)"><polyline fill="none" points="47,182 48,183" vector-effect="none"/></g><defs><clipPath id="clip43"><path d="M20,143 L100,143 L100,197 L20,197 L20,143 z"/></clipPath></defs><g clip-path="url(#clip43)" fill="none" opacity="1" stroke="#000000" stroke-linecap="butt" stroke-linejoin="miter" stroke-miterlimit="2" stroke-opacity="1" stroke-width="0.47" transform="matrix(2.12766,0,0,2.12766,-26.5957,-298.936)"><polyline fill="none" points="48,183 49,185" vector-effect="none"/></g><defs><clipPath id="clip44"><path d="M20,143 L100,143 L100,197 L20,197 L20,143 z"/></clipPath></defs><g clip-path="url(#clip44)" fill="none" opacity="1" stroke="#000000" stroke-linecap="butt" stroke-linejoin="miter" stroke-miterlimit="2" stroke-opacity="1" stroke-width="0.47" transform="matrix(2.12766,0,0,2.12766,-26.5957,-298.936)"><polyline fill="none" points="49,185 50,188" vector-effect="none"/></g><defs><clipPath id="clip45"><path d="M20,143 L100,143 L100,197 L20,197 L20,143 z"/></clipPath></defs><g clip-path="url(#clip45)" fill="none" opacity="1" stroke="#000000" stroke-linecap="butt" stroke-linejoin="miter" stroke-miterlimit="2" stroke-opacity="1" stroke-width="0.47" transform="matrix(2.12766,0,0,2.12766,-26.5957,-298.936)"><polyline fill="none" points="50,188 51,194" vector-effect="none"/></g><defs><clipPath id="clip46"><path d="M20,143 L100,143 L100,197 L20,197 L20,143 z"/></clipPath></defs><g clip-path="url(#clip46)" fill="none" opacity="1" stroke="#000000" stroke-linecap="butt" stroke-linejoin="miter" stroke-miterlimit="2" stroke-opacity="1" stroke-width="0.47" transform="matrix(2.12766,0,0,2.12766,-26.5957,-298.936)"><polyline fill="none" points="51,194 52,187" vector-effect="none"/></g><defs><clipPath id="clip47"><path d="M20,143 L100,143 L100,197 L20,197 L20,143 z"/></clipPath></defs><g clip-path="url(#clip47)" fill="none" opacity="1" stroke="#000000" stroke-linecap="butt" stroke-linejoin="miter" stroke-miterlimit="2" stroke-opacity="1" stroke-width="0.47" transform="matrix(2.12766,0,0,2.12766,-26.5957,-298.936)"><polyline fill="none" points="52,187 53,182" vector-effect="none"/></g><defs><clipPath id="clip48"><path d="M20,143 L100,143 L100,197 L20,197 L20,143 z"/></clipPath></defs><g clip-path="url(#clip48)" fill="none" opacity="1" stroke="#000000" stroke-linecap="butt" stroke-linejoin="miter" stroke-miterlimit="2" stroke-opacity="1" stroke-width="0.47" transform="matrix(2.12766,0,0,2.12766,-26.5957,-298.936)"><polyline fill="none" points="53,182 54,177" vector-effect="none"/></g><defs><clipPath id="clip49"><path d="M20,143 L100,143 L100,197 L20,197 L20,143 z"/></clipPath></defs><g clip-path="url(#clip49)" fill="none" opacity="1" stroke="#000000" stroke-linecap="butt" stroke-linejoin="miter" stroke-miterlimit="2" stroke-opacity="1" stroke-width="0.47" transform="matrix(2.12766,0,0,2.12766,-26.5957,-298.936)"><polyline fill="none" points="54,177 54,172" vector-effect="none"/></g><defs><clipPath id="clip50"><path d="M20,143 L100,143 L100,197 L20,197 L20,143 z"/></clipPath></defs><g clip-path="url(#clip50)" fill="none" opacity="1" stroke="#000000" stroke-linecap="butt" stroke-linejoin="miter" stroke-miterlimit="2" stroke-opacity="1" stroke-width="0.47" transform="matrix(2.12766,0,0,2.12766,-26.5957,-298.936)"><polyline fill="none" points="54,172 55,168" vector-effect="none"/></g><defs><clipPath id="clip51"><path d="M20,143 L100,143 L100,197 L20,197 L20,143 z"/></clipPath></defs><g clip-path="url(#clip51)" fill="none" opacity="1" stroke="#000000" stroke-linecap="butt" stroke-linejoin="miter" stroke-miterlimit="2" stroke-opacity="1" stroke-width="0.47" transform="matrix(2.12766,0,0,2.12766,-26.5957,-298.936)"><polyline fill="none" points="55,168 56,164" vector-effect="none"/></g><defs><clipPath id="clip52"><path d="M20,143 L100,143 L100,197 L20,197 L20,143 z"/></clipPath></defs><g clip-path="url(#clip52)" fill="none" opacity="1" stroke="#000000" stroke-linecap="butt" stroke-linejoin="miter" stroke-miterlimit="2" stroke-opacity="1" stroke-width="0.47" transform="matrix(2.12766,0,0,2.12766,-26.5957,-298.936)"><polyline fill="none" points="56,164 57,161" vector-effect="none"/></g><defs><clipPath id="clip53"><path d="M20,143 L100,143 L100,197 L20,197 L20,143 z"/></clipPath></defs><g clip-path="url(#clip53)" fill="none" opacity="1" stroke="#000000" stroke-linecap="butt" stroke-linejoin="miter" stroke-miterlimit="2" stroke-opacity="1" stroke-width="0.47" transform="matrix(2.12766,0,0,2.12766,-26.5957,-298.936)"><polyline fill="none" points="57,161 58,159" vector-effect="none"/></g><defs><clipPath id="clip54"><path d="M20,143 L100,143 L100,197 L20,197 L20,143 z"/></clipPath></defs><g clip-path="url(#clip54)" fill="none" opacity="1" stroke="#000000" stroke-linecap="butt" stroke-linejoin="miter" stroke-miterlimit="2" stroke-opacity="1" stroke-width="0.47" transform="matrix(2.12766,0,0,2.12766,-26.5957,-298.936)"><polyline fill="none" points="58,159 59,158" vector-effect="none"/></g><defs><clipPath id="clip55"><path d="M20,143 L100,143 L100,197 L20,197 L20,143 z"/></clipPath></defs><g clip-path="url(#clip55)" fill="none" opacity="1" stroke="#000000" stroke-linecap="butt" stroke-linejoin="miter" stroke-miterlimit="2" stroke-opacity="1" stroke-width="0.47" transform="matrix(2.12766,0,0,2.12766,-26.5957,-298.936)"><polyline fill="none" points="59,158 60,157" vector-effect="none"/></g><defs><clipPath id="clip56"><path d="M20,143 L100,143 L100,197 L20,197 L20,143 z"/></clipPath></defs><g clip-path="url(#clip56)" fill="none" opacity="1" stroke="#000000" stroke-linecap="butt" stroke-linejoin="miter" stroke-miterlimit="2" stroke-opacity="1" stroke-width="0.47" transform="matrix(2.12766,0,0,2.12766,-26.5957,-298.936)"><polyline fill="none" points="60,157 61,158" vector-effect="none"/></g><defs><clipPath id="clip57"><path d="M20,143 L100,143 L100,197 L20,197 L20,143 z"/></clipPath></defs><g clip-path="url(#clip57)" fill="none" opacity="1" stroke="#000000" stroke-linecap="butt" stroke-linejoin="miter" stroke-miterlimit="2" stroke-opacity="1" stroke-width="0.47" transform="matrix(2.12766,0,0,2.12766,-26.5957,-298.936)"><polyline fill="none" points="61,158 62,159" vector-effect="none"/></g><defs><clipPath id="clip58"><path d="M20,143 L100,143 L100,197 L20,197 L20,143 z"/></clipPath></defs><g clip-path="url(#clip58)" fill="none" opacity="1" stroke="#000000" stroke-linecap="butt" stroke-linejoin="miter" stroke-miterlimit="2" stroke-opacity="1" stroke-width="0.47" transform="matrix(2.12766,0,0,2.12766,-26.5957,-298.936)"><polyline fill="none" points="62,159 63,161" vector-effect="none"/></g><defs><clipPath id="clip59"><path d="M20,143 L100,143 L100,197 L20,197 L20,143 z"/></clipPath></defs><g clip-path="url(#clip59)" fill="none" opacity="1" stroke="#000000" stroke-linecap="butt" stroke-linejoin="miter" stroke-miterlimit="2" stroke-opacity="1" stroke-width="0.47" transform="matrix(2.12766,0,0,2.12766,-26.5957,-298.936)"><polyline fill="none" points="63,161 64,164" vector-effect="none"/></g><defs><clipPath id="clip60"><path d="M20,143 L100,143 L100,197 L20,197 L20,143 z"/></clipPath></defs><g clip-path="url(#clip60)" fill="none" opacity="1" stroke="#000000" stroke-linecap="butt" stroke-linejoin="miter" stroke-miterlimit="2" stroke-opacity="1" stroke-width="0.47" transform="matrix(2.12766,0,0,2.12766,-26.5957,-298.936)"><polyline fill="none" points="64,164 65,168" vector-effect="none"/></g><defs><clipPath id="clip61"><path d="M20,143 L100,143 L100,197 L20,197 L20,143 z"/></clipPath></defs><g clip-path="url(#clip61)" fill="none" opacity="1" stroke="#000000" stroke-linecap="butt" stroke-linejoin="miter" stroke-miterlimit="2" stroke-opacity="1" stroke-width="0.47" transform="matrix(2.12766,0,0,2.12766,-26.5957,-298.936)"><polyline fill="none" points="65,168 66,172" vector-effect="none"/></g><defs><clipPath id="clip62"><path d="M20,143 L100,143 L100,197 L20,197 L20,143 z"/></clipPath></defs><g clip-path="url(#clip62)" fill="none" opacity="1" stroke="#000000" stroke-linecap="butt" stroke-linejoin="miter" stroke-miterlimit="2" stroke-opacity="1" stroke-width="0.47" transform="matrix(2.12766,0,0,2.12766,-26.5957,-298.936)"><polyline fill="none" points="66,172 66,177" vector-effect="none"/></g><defs><clipPath id="clip63"><path d="M20,143 L100,143 L100,197 L20,197 L20,143 z"/></clipPath></defs><g clip-path="url(#clip63)" fill="none" opacity="1" stroke="#000000" stroke-linecap="butt" stroke-linejoin="miter" stroke-miterlimit="2" stroke-opacity="1" stroke-width="0.47" transform="matrix(2.12766,0,0,2.12766,-26.5957,-298.936)"><polyline fill="none" points="66,177 67,182" vector-effect="none"/></g><defs><clipPath id="clip64"><path d="M20,143 L100,143 L100,197 L20,197 L20,143 z"/></clipPath></defs><g clip-path="url(#clip64)" fill="none" opacity="1" stroke="#000000" stroke-linecap="butt" stroke-linejoin="miter" stroke-miterlimit="2" stroke-opacity="1" stroke-width="0.47" transform="matrix(2.12766,0,0,2.12766,-26.5957,-298.936)"><polyline fill="none" points="67,182 68,187" vector-effect="none"/></g><defs><clipPath id="clip65"><path d="M20,143 L100,143 L100,197 L20,197 L20,143 z"/></clipPath></defs><g clip-path="url(#clip65)" fill="none" opacity="1" stroke="#000000" stroke-linecap="butt" stroke-linejoin="miter" stroke-miterlimit="2" stroke-opacity="1" stroke-width="0.47" transform="matrix(2.12766,0,0,2.12766,-26.5957,-298.936)"><polyline fill="none" points="68,187 69,194" vector-effect="none"/></g><defs><clipPath id="clip66"><path d="M20,143 L100,143 L100,197 L20,197 L20,143 z"/></clipPath></defs><g clip-path="url(#clip66)" fill="none" opacity="1" stroke="#000000" stroke-linecap="butt" stroke-linejoin="miter" stroke-miterlimit="2" stroke-opacity="1" stroke-width="0.47" transform="matrix(2.12766,0,0,2.12766,-26.5957,-298.936)"><polyline fill="none" points="69,194 70,188" vector-effect="none"/></g><defs><clipPath id="clip67"><path d="M20,143 L100,143 L100,197 L20,197 L20,143 z"/></clipPath></defs><g clip-path="url(#clip67)" fill="none" opacity="1" stroke="#000000" stroke-linecap="butt" stroke-linejoin="miter" stroke-miterlimit="2" stroke-opacity="1" stroke-width="0.47" transform="matrix(2.12766,0,0,2.12766,-26.5957,-298.936)"><polyline fill="none" points="70,188 71,185" vector-effect="none"/></g><defs><clipPath id="clip68"><path d="M20,143 L100,143 L100,197 L20,197 L20,143 z"/></clipPath></defs><g clip-path="url(#clip68)" fill="none" opacity="1" stroke="#000000" stroke-linecap="butt" stroke-linejoin="miter" stroke-miterlimit="2" stroke-opacity="1" stroke-width="0.47" transform="matrix(2.12766,0,0,2.12766,-26.5957,-298.936)"><polyline fill="none" points="71,185 72,183" vector-effect="none"/></g><defs><clipPath id="clip69"><path d="M20,143 L100,143 L100,197 L20,197 L20,143 z"/></clipPath></defs><g clip-path="url(#clip69)" fill="none" opacity="1" stroke="#000000" stroke-linecap="butt" stroke-linejoin="miter" stroke-miterlimit="2" stroke-opacity="1" stroke-width="0.47" transform="matrix(2.12766,0,0,2.12766,-26.5957,-298.936)"><polyline fill="none" points="72,183 73,182" vector-effect="none"/></g><defs><clipPath id="clip70"><path d="M20,143 L100,143 L100,197 L20,197 L20,143 z"/></clipPath></defs><g clip-path="url(#clip70)" fill="none" opacity="1" stroke="#000000" stroke-linecap="butt" stroke-linejoin="miter" stroke-miterlimit="2" stroke-opacity="1" stroke-width="0.47" transform="matrix(2.12766,0,0,2.12766,-26.5957,-298.936)"><polyline fill="none" points="73,182 74,182" vector-effect="none"/></g><defs><clipPath id="clip71"><path d="M20,143 L100,143 L100,197 L20,197 L20,143 z"/></clipPath></defs><g clip-path="url(#clip71)" fill="none" opacity="1" stroke="#000000" stroke-linecap="butt" stroke-linejoin="miter" stroke-miterlimit="2" stroke-opacity="1" stroke-width="0.47" transform="matrix(2.12766,0,0,2.12766,-26.5957,-298.936)"><polyline fill="none" points="74,182 75,183" vector-effect="none"/></g><defs><clipPath id="clip72"><path d="M20,143 L100,143 L100,197 L20,197 L20,143 z"/></clipPath></defs><g clip-path="url(#clip72)" fill="none" opacity="1" stroke="#000000" stroke-linecap="butt" stroke-linejoin="miter" stroke-miterlimit="2" stroke-opacity="1" stroke-width="0.47" transform="matrix(2.12766,0,0,2.12766,-26.5957,-298.936)"><polyline fill="none" points="75,183 76,185" vector-effect="none"/></g><defs><clipPath id="clip73"><path d="M20,143 L100,143 L100,197 L20,197 L20,143 z"/></clipPath></defs><g clip-path="url(#clip73)" fill="none" opacity="1" stroke="#000000" stroke-linecap="butt" stroke-linejoin="miter" stroke-miterlimit="2" stroke-opacity="1" stroke-width="0.47" transform="matrix(2.12766,0,0,2.12766,-26.5957,-298.936)"><polyline fill="none" points="76,185 77,187" vector-effect="none"/></g><defs><clipPath id="clip74"><path d="M20,143 L100,143 L100,197 L20,197 L20,143 z"/></clipPath></defs><g clip-path="url(#clip74)" fill="none" opacity="1" stroke="#000000" stroke-linecap="butt" stroke-linejoin="miter" stroke-miterlimit="2" stroke-opacity="1" stroke-width="0.47" transform="matrix(2.12766,0,0,2.12766,-26.5957,-298.936)"><polyline fill="none" points="77,187 78,190" vector-effect="none"/></g><defs><clipPath id="clip75"><path d="M20,143 L100,143 L100,197 L20,197 L20,143 z"/></clipPath></defs><g clip-path="url(#clip75)" fill="none" opacity="1" stroke="#000000" stroke-linecap="butt" stroke-linejoin="miter" stroke-miterlimit="2" stroke-opacity="1" stroke-width="0.47" transform="matrix(2.12766,0,0,2.12766,-26.5957,-298.936)"><polyline fill="none" points="78,190 79,194" vector-effect="none"/></g><defs><clipPath id="clip76"><path d="M20,143 L100,143 L100,197 L20,197 L20,143 z"/></clipPath></defs><g clip-path="url(#clip76)" fill="none" opacity="1" stroke="#000000" stroke-linecap="butt" stroke-linejoin="miter" stroke-miterlimit="2" stroke-opacity="1" stroke-width="0.47" transform="matrix(2.12766,0,0,2.12766,-26.5957,-298.936)"><polyline fill="none" points="79,194 79,190" vector-effect="none"/></g><defs><clipPath id="clip77"><path d="M20,143 L100,143 L100,197 L20,197 L20,143 z"/></clipPath></defs><g clip-path="url(#clip77)" fill="none" opacity="1" stroke="#000000" stroke-linecap="butt" stroke-linejoin="miter" stroke-miterlimit="2" stroke-opacity="1" stroke-width="0.47" transform="matrix(2.12766,0,0,2.12766,-26.5957,-298.936)"><polyline fill="none" points="79,190 80,188" vector-effect="none"/></g><defs><clipPath id="clip78"><path d="M20,143 L100,143 L100,197 L20,197 L20,143 z"/></clipPath></defs><g clip-path="url(#clip78)" fill="none" opacity="1" stroke="#000000" stroke-linecap="butt" stroke-linejoin="miter" stroke-miterlimit="2" stroke-opacity="1" stroke-width="0.47" transform="matrix(2.12766,0,0,2.12766,-26.5957,-298.936)"><polyline fill="none" points="80,188 81,187" vector-effect="none"/></g><defs><clipPath id="clip79"><path d="M20,143 L100,143 L100,197 L20,197 L20,143 z"/></clipPath></defs><g clip-path="url(#clip79)" fill="none" opacity="1" stroke="#000000" stroke-linecap="butt" stroke-linejoin="miter" stroke-miterlimit="2" stroke-opacity="1" stroke-width="0.47" transform="matrix(2.12766,0,0,2.12766,-26.5957,-298.936)"><polyline fill="none" points="81,187 82,186" vector-effect="none"/></g><defs><clipPath id="clip80"><path d="M20,143 L100,143 L100,197 L20,197 L20,143 z"/></clipPath></defs><g clip-path="url(#clip80)" fill="none" opacity="1" stroke="#000000" stroke-linecap="butt" stroke-linejoin="miter" stroke-miterlimit="2" stroke-opacity="1" stroke-width="0.47" transform="matrix(2.12766,0,0,2.12766,-26.5957,-298.936)"><polyline fill="none" points="82,186 83,186" vector-effect="none"/></g><defs><clipPath id="clip81"><path d="M20,143 L100,143 L100,197 L20,197 L20,143 z"/></clipPath></defs><g clip-path="url(#clip81)" fill="none" opacity="1" stroke="#000000" stroke-linecap="butt" stroke-linejoin="miter" stroke-miterlimit="2" stroke-opacity="1" stroke-width="0.47" transform="matrix(2.12766,0,0,2.12766,-26.5957,-298.936)"><polyline fill="none" points="83,186 84,187" vector-effect="none"/></g><defs><clipPath id="clip82"><path d="M20,143 L100,143 L100,197 L20,197 L20,143 z"/></clipPath></defs><g clip-path="url(#clip82)" fill="none" opacity="1" stroke="#000000" stroke-linecap="butt" stroke-linejoin="miter" stroke-miterlimit="2" stroke-opacity="1" stroke-width="0.47" transform="matrix(2.12766,0,0,2.12766,-26.5957,-298.936)"><polyline fill="none" points="84,187 85,188" vector-effect="none"/></g><defs><clipPath id="clip83"><path d="M20,143 L100,143 L100,197 L20,197 L20,143 z"/></clipPath></defs><g clip-path="url(#clip83)" fill="none" opacity="1" stroke="#000000" stroke-linecap="butt" stroke-linejoin="miter" stroke-miterlimit="2" stroke-opacity="1" stroke-width="0.47" transform="matrix(2.12766,0,0,2.12766,-26.5957,-298.936)"><polyline fill="none" points="85,188 86,189" vector-effect="none"/></g><defs><clipPath id="clip84"><path d="M20,143 L100,143 L100,197 L20,197 L20,143 z"/></clipPath></defs><g clip-path="url(#clip84)" fill="none" opacity="1" stroke="#000000" stroke-linecap="butt" stroke-linejoin="miter" stroke-miterlimit="2" stroke-opacity="1" stroke-width="0.47" transform="matrix(2.12766,0,0,2.12766,-26.5957,-298.936)"><polyline fill="none" points="86,189 87,191" vector-effect="none"/></g><defs><clipPath id="clip85"><path d="M20,143 L100,143 L100,197 L20,197 L20,143 z"/></clipPath></defs><g clip-path="url(#clip85)" fill="none" opacity="1" stroke="#000000" stroke-linecap="butt" stroke-linejoin="miter" stroke-miterlimit="2" stroke-opacity="1" stroke-width="0.47" transform="matrix(2.12766,0,0,2.12766,-26.5957,-298.936)"><polyline fill="none" points="87,191 88,194" vector-effect="none"/></g><defs><clipPath id="clip86"><path d="M20,143 L100,143 L100,197 L20,197 L20,143 z"/></clipPath></defs><g clip-path="url(#clip86)" fill="none" opacity="1" stroke="#000000" stroke-linecap="butt" stroke-linejoin="miter" stroke-miterlimit="2" stroke-opacity="1" stroke-width="0.47" transform="matrix(2.12766,0,0,2.12766,-26.5957,-298.936)"><polyline fill="none" points="88,194 89,191" vector-effect="none"/></g><defs><clipPath id="clip87"><path d="M20,143 L100,143 L100,197 L20,197 L20,143 z"/></clipPath></defs><g clip-path="url(#clip87)" fill="none" opacity="1" stroke="#000000" stroke-linecap="butt" stroke-linejoin="miter" stroke-miterlimit="2" stroke-opacity="1" stroke-width="0.47" transform="matrix(2.12766,0,0,2.12766,-26.5957,-298.936)"><polyline fill="none" points="89,191 90,190" vector-effect="none"/></g><defs><clipPath id="clip88"><path d="M20,143 L100,143 L100,197 L20,197 L20,143 z"/></clipPath></defs><g clip-path="url(#clip88)" fill="none" opacity="1" stroke="#000000" stroke-linecap="butt" stroke-linejoin="miter" stroke-miterlimit="2" stroke-opacity="1" stroke-width="0.47" transform="matrix(2.12766,0,0,2.12766,-26.5957,-298.936)"><polyline fill="none" points="90,190 91,189" vector-effect="none"/></g><defs><clipPath id="clip89"><path d="M20,143 L100,143 L100,197 L20,197 L20,143 z"/></clipPath></defs><g clip-path="url(#clip89)" fill="none" opacity="1" stroke="#000000" stroke-linecap="butt" stroke-linejoin="miter" stroke-miterlimit="2" stroke-opacity="1" stroke-width="0.47" transform="matrix(2.12766,0,0,2.12766,-26.5957,-298.936)"><polyline fill="none" points="91,189 91,188" vector-effect="none"/></g><defs><clipPath id="clip90"><path d="M20,143 L100,143 L100,197 L20,197 L20,143 z"/></clipPath></defs><g clip-path="url(#clip90)" fill="none" opacity="1" stroke="#000000" stroke-linecap="butt" stroke-linejoin="miter" stroke-miterlimit="2" stroke-opacity="1" stroke-width="0.47" transform="matrix(2.12766,0,0,2.12766,-26.5957,-298.936)"><polyline fill="none" points="91,188 92,188" vector-effect="none"/></g><defs><clipPath id="clip91"><path d="M20,143 L100,143 L100,197 L20,197 L20,143 z"/></clipPath></defs><g clip-path="url(#clip91)" fill="none" opacity="1" stroke="#000000" stroke-linecap="butt" stroke-linejoin="miter" stroke-miterlimit="2" stroke-opacity="1" stroke-width="0.47" transform="matrix(2.12766,0,0,2.12766,-26.5957,-298.936)"><polyline fill="none" points="92,188 93,188" vector-effect="none"/></g><defs><clipPath id="clip92"><path d="M20,143 L100,143 L100,197 L20,197 L20,143 z"/></clipPath></defs><g clip-path="url(#clip92)" fill="none" opacity="1" stroke="#000000" stroke-linecap="butt" stroke-linejoin="miter" stroke-miterlimit="2" stroke-opacity="1" stroke-width="0.47" transform="matrix(2.12766,0,0,2.12766,-26.5957,-298.936)"><polyline fill="none" points="93,188 94,189" vector-effect="none"/></g><defs><clipPath id="clip93"><path d="M20,143 L100,143 L100,197 L20,197 L20,143 z"/></clipPath></defs><g clip-path="url(#clip93)" fill="none" opacity="1" stroke="#000000" stroke-linecap="butt" stroke-linejoin="miter" stroke-miterlimit="2" stroke-opacity="1" stroke-width="0.47" transform="matrix(2.12766,0,0,2.12766,-26.5957,-298.936)"><polyline fill="none" points="94,189 95,190" vector-effect="none"/></g><defs><clipPath id="clip94"><path d="M20,143 L100,143 L100,197 L20,197 L20,143 z"/></clipPath></defs><g clip-path="url(#clip94)" fill="none" opacity="1" stroke="#000000" stroke-linecap="butt" stroke-linejoin="miter" stroke-miterlimit="2" stroke-opacity="1" stroke-width="0.47" transform="matrix(2.12766,0,0,2.12766,-26.5957,-298.936)"><polyline fill="none" points="95,190 96,192" vector-effect="none"/></g><defs><clipPath id="clip95"><path d="M20,143 L100,143 L100,197 L20,197 L20,143 z"/></clipPath></defs><g clip-path="url(#clip95)" fill="none" opacity="1" stroke="#000000" stroke-linecap="butt" stroke-linejoin="miter" stroke-miterlimit="2" stroke-opacity="1" stroke-width="0.47" transform="matrix(2.12766,0,0,2.12766,-26.5957,-298.936)"><polyline fill="none" points="96,192 97,194" vector-effect="none"/></g><defs><clipPath id="clip100"><path d="M-7,-2 L87,-2 L87,56 L-7,56 L-7,-2 z"/></clipPath></defs><g clip-path="url(#clip100)" fill="none" opacity="1" stroke="#000000" stroke-linecap="butt" stroke-linejoin="miter" stroke-miterlimit="2" stroke-opacity="1" stroke-width="0.739331" transform="matrix(2.12766,0,0,2.12766,14.8936,4.25532)"><path d="M0,0 L80,0 L80,54 L0,54 L0,0 z" fill-rule="evenodd" vector-effect="none"/></g></g></svg>
