<?xml version="1.0" encoding="UTF-8"?><svg width="52.9167mm" height="32.5437mm" viewBox="0 0 200 123" xmlns="http://www.w3.org/2000/svg" xmlns:xlink="http://www.w3.org/1999/xlink"><g fill="none" stroke="black" stroke-width="1" fill-rule="evenodd" stroke-linecap="square" stroke-linejoin="bevel"><g clip-path="none" fill="none" opacity="1" stroke="none" stroke-opacity="0" transform="matrix(1,0,0,1,0,0)"><path d="M0,0 L200,0 L200,123 L0,123 L0,0 z" fill-rule="evenodd" vector-effect="none"/></g><defs><clipPath id="clip3"><path d="M-87,-29 L7,-29 L7,29 L-87,29 L-87,-29 z"/></clipPath></defs><g clip-path="url(#clip3)" fill="none" opacity="1" stroke="#000000" stroke-linecap="round" stroke-linejoin="miter" stroke-miterlimit="2" stroke-opacity="1" stroke-width="2" transform="matrix(2.12766,0,0,2.12766,185.106,61.7021)"><path d="M0,-5 L5,0 L0,5" fill-rule="evenodd" vector-effect="none"/></g><defs><clipPath id="clip6"><path d="M7,29 L-87,29 L-87,-29 L7,-29 L7,29 z"/></clipPath></defs><g clip-path="url(#clip6)" fill="none" opacity="1" stroke="#000000" stroke-linecap="round" stroke-linejoin="miter" stroke-miterlimit="2" stroke-opacity="1" stroke-width="2" transform="matrix(-2.12766,0,0,-2.12766,14.8936,61.7021)"><path d="M5,-5 L0,0 L5,5" fill-rule="evenodd" vector-effect="none"/></g><defs><clipPath id="clip9"><path d="M-7,-2 L87,-2 L87,56 L-7,56 L-7,-2 z"/></clipPath></defs><g clip-path="url(#clip9)" fill="#ffffff" fill-opacity="1" opacity="1" stroke="none" stroke-opacity="0" transform="matrix(2.12766,0,0,2.12766,14.8936,4.25532)"><path d="M0,0 L80,0 L80,54 L0,54 L0,0 z" fill-rule="evenodd" vector-effect="none"/></g><defs><clipPath id="clip14"><path d="M-46,-31 L364,-31 L364,245 L-46,245 L-46,-31 z"/></clipPath></defs><g clip-path="url(#clip14)" fill="none" opacity="1" stroke="#000000" stroke-linecap="butt" stroke-linejoin="miter" stroke-miterlimit="2" stroke-opacity="1" stroke-width="0.47" transform="matrix(0.415559,0,0,0.415559,34.0426,17.0213)"><text fill="#000000" fill-opacity="1" font-family="Liberation Sans" font-size="40" font-style="normal" font-weight="400" stroke="none" textLength="83" x="0" xml:space="preserve" y="17.9219">Burg</text></g><defs><clipPath id="clip16"><path d="M165,143 L245,143 L245,197 L165,197 L165,143 z"/></clipPath></defs><g clip-path="url(#clip16)" fill="none" opacity="1" stroke="#000000" stroke-linecap="butt" stroke-linejoin="miter" stroke-miterlimit="2" stroke-opacity="1" stroke-width="0.47" transform="matrix(2.12766,0,0,2.12766,-335.106,-298.936)"><polyline fill="none" points="168,194 169,192" vector-effect="none"/></g><defs><clipPath id="clip17"><path d="M165,143 L245,143 L245,197 L165,197 L165,143 z"/></clipPath></defs><g clip-path="url(#clip17)" fill="none" opacity="1" stroke="#000000" stroke-linecap="butt" stroke-linejoin="miter" stroke-miterlimit="2" stroke-opacity="1" stroke-width="0.47" transform="matrix(2.12766,0,0,2.12766,-335.106,-298.936)"><polyline fill="none" points="169,192 170,190" vector-effect="none"/></g><defs><clipPath id="clip18"><path d="M165,143 L245,143 L245,197 L165,197 L165,143 z"/></clipPath></defs><g clip-path="url(#clip18)" fill="none" opacity="1" stroke="#000000" stroke-linecap="butt" stroke-linejoin="miter" stroke-miterlimit="2" stroke-opacity="1" stroke-width="0.47" transform="matrix(2.12766,0,0,2.12766,-335.106,-298.936)"><polyline fill="none" points="170,190 171,189" vector-effect="none"/></g><defs><clipPath id="clip19"><path d="M165,143 L245,143 L245,197 L165,197 L165,143 z"/></clipPath></defs><g clip-path="url(#clip19)" fill="none" opacity="1" stroke="#000000" stroke-linecap="butt" stroke-linejoin="miter" stroke-miterlimit="2" stroke-opacity="1" stroke-width="0.47" transform="matrix(2.12766,0,0,2.12766,-335.106,-298.936)"><polyline fill="none" points="171,189 172,188" vector-effect="none"/></g><defs><clipPath id="clip20"><path d="M165,143 L245,143 L245,197 L165,197 L165,143 z"/></clipPath></defs><g clip-path="url(#clip20)" fill="none" opacity="1" stroke="#000000" stroke-linecap="butt" stroke-linejoin="miter" stroke-miterlimit="2" stroke-opacity="1" stroke-width="0.47" transform="matrix(2.12766,0,0,2.12766,-335.106,-298.936)"><polyline fill="none" points="172,188 173,188" vector-effect="none"/></g><defs><clipPath id="clip21"><path d="M165,143 L245,143 L245,197 L165,197 L165,143 z"/></clipPath></defs><g clip-path="url(#clip21)" fill="none" opacity="1" stroke="#000000" stroke-linecap="butt" stroke-linejoin="miter" stroke-miterlimit="2" stroke-opacity="1" stroke-width="0.47" transform="matrix(2.12766,0,0,2.12766,-335.106,-298.936)"><polyline fill="none" points="173,188 174,188" vector-effect="none"/></g><defs><clipPath id="clip22"><path d="M165,143 L245,143 L245,197 L165,197 L165,143 z"/></clipPath></defs><g clip-path="url(#clip22)" fill="none" opacity="1" stroke="#000000" stroke-linecap="butt" stroke-linejoin="miter" stroke-miterlimit="2" stroke-opacity="1" stroke-width="0.47" transform="matrix(2.12766,0,0,2.12766,-335.106,-298.936)"><polyline fill="none" points="174,188 174,189" vector-effect="none"/></g><defs><clipPath id="clip23"><path d="M165,143 L245,143 L245,197 L165,197 L165,143 z"/></clipPath></defs><g clip-path="url(#clip23)" fill="none" opacity="1" stroke="#000000" stroke-linecap="butt" stroke-linejoin="miter" stroke-miterlimit="2" stroke-opacity="1" stroke-width="0.47" transform="matrix(2.12766,0,0,2.12766,-335.106,-298.936)"><polyline fill="none" points="174,189 175,190" vector-effect="none"/></g><defs><clipPath id="clip24"><path d="M165,143 L245,143 L245,197 L165,197 L165,143 z"/></clipPath></defs><g clip-path="url(#clip24)" fill="none" opacity="1" stroke="#000000" stroke-linecap="butt" stroke-linejoin="miter" stroke-miterlimit="2" stroke-opacity="1" stroke-width="0.47" transform="matrix(2.12766,0,0,2.12766,-335.106,-298.936)"><polyline fill="none" points="175,190 176,191" vector-effect="none"/></g><defs><clipPath id="clip25"><path d="M165,143 L245,143 L245,197 L165,197 L165,143 z"/></clipPath></defs><g clip-path="url(#clip25)" fill="none" opacity="1" stroke="#000000" stroke-linecap="butt" stroke-linejoin="miter" stroke-miterlimit="2" stroke-opacity="1" stroke-width="0.47" transform="matrix(2.12766,0,0,2.12766,-335.106,-298.936)"><polyline fill="none" points="176,191 177,194" vector-effect="none"/></g><defs><clipPath id="clip26"><path d="M165,143 L245,143 L245,197 L165,197 L165,143 z"/></clipPath></defs><g clip-path="url(#clip26)" fill="none" opacity="1" stroke="#000000" stroke-linecap="butt" stroke-linejoin="miter" stroke-miterlimit="2" stroke-opacity="1" stroke-width="0.47" transform="matrix(2.12766,0,0,2.12766,-335.106,-298.936)"><polyline fill="none" points="177,194 178,191" vector-effect="none"/></g><defs><clipPath id="clip27"><path d="M165,143 L245,143 L245,197 L165,197 L165,143 z"/></clipPath></defs><g clip-path="url(#clip27)" fill="none" opacity="1" stroke="#000000" stroke-linecap="butt" stroke-linejoin="miter" stroke-miterlimit="2" stroke-opacity="1" stroke-width="0.47" transform="matrix(2.12766,0,0,2.12766,-335.106,-298.936)"><polyline fill="none" points="178,191 179,189" vector-effect="none"/></g><defs><clipPath id="clip28"><path d="M165,143 L245,143 L245,197 L165,197 L165,143 z"/></clipPath></defs><g clip-path="url(#clip28)" fill="none" opacity="1" stroke="#000000" stroke-linecap="butt" stroke-linejoin="miter" stroke-miterlimit="2" stroke-opacity="1" stroke-width="0.47" transform="matrix(2.12766,0,0,2.12766,-335.106,-298.936)"><polyline fill="none" points="179,189 180,188" vector-effect="none"/></g><defs><clipPath id="clip29"><path d="M165,143 L245,143 L245,197 L165,197 L165,143 z"/></clipPath></defs><g clip-path="url(#clip29)" fill="none" opacity="1" stroke="#000000" stroke-linecap="butt" stroke-linejoin="miter" stroke-miterlimit="2" stroke-opacity="1" stroke-width="0.47" transform="matrix(2.12766,0,0,2.12766,-335.106,-298.936)"><polyline fill="none" points="180,188 181,187" vector-effect="none"/></g><defs><clipPath id="clip30"><path d="M165,143 L245,143 L245,197 L165,197 L165,143 z"/></clipPath></defs><g clip-path="url(#clip30)" fill="none" opacity="1" stroke="#000000" stroke-linecap="butt" stroke-linejoin="miter" stroke-miterlimit="2" stroke-opacity="1" stroke-width="0.47" transform="matrix(2.12766,0,0,2.12766,-335.106,-298.936)"><polyline fill="none" points="181,187 182,186" vector-effect="none"/></g><defs><clipPath id="clip31"><path d="M165,143 L245,143 L245,197 L165,197 L165,143 z"/></clipPath></defs><g clip-path="url(#clip31)" fill="none" opacity="1" stroke="#000000" stroke-linecap="butt" stroke-linejoin="miter" stroke-miterlimit="2" stroke-opacity="1" stroke-width="0.47" transform="matrix(2.12766,0,0,2.12766,-335.106,-298.936)"><polyline fill="none" points="182,186 183,186" vector-effect="none"/></g><defs><clipPath id="clip32"><path d="M165,143 L245,143 L245,197 L165,197 L165,143 z"/></clipPath></defs><g clip-path="url(#clip32)" fill="none" opacity="1" stroke="#000000" stroke-linecap="butt" stroke-linejoin="miter" stroke-miterlimit="2" stroke-opacity="1" stroke-width="0.47" transform="matrix(2.12766,0,0,2.12766,-335.106,-298.936)"><polyline fill="none" points="183,186 184,187" vector-effect="none"/></g><defs><clipPath id="clip33"><path d="M165,143 L245,143 L245,197 L165,197 L165,143 z"/></clipPath></defs><g clip-path="url(#clip33)" fill="none" opacity="1" stroke="#000000" stroke-linecap="butt" stroke-linejoin="miter" stroke-miterlimit="2" stroke-opacity="1" stroke-width="0.47" transform="matrix(2.12766,0,0,2.12766,-335.106,-298.936)"><polyline fill="none" points="184,187 185,188" vector-effect="none"/></g><defs><clipPath id="clip34"><path d="M165,143 L245,143 L245,197 L165,197 L165,143 z"/></clipPath></defs><g clip-path="url(#clip34)" fill="none" opacity="1" stroke="#000000" stroke-linecap="butt" stroke-linejoin="miter" stroke-miterlimit="2" stroke-opacity="1" stroke-width="0.47" transform="matrix(2.12766,0,0,2.12766,-335.106,-298.936)"><polyline fill="none" points="185,188 186,190" vector-effect="none"/></g><defs><clipPath id="clip35"><path d="M165,143 L245,143 L245,197 L165,197 L165,143 z"/></clipPath></defs><g clip-path="url(#clip35)" fill="none" opacity="1" stroke="#000000" stroke-linecap="butt" stroke-linejoin="miter" stroke-miterlimit="2" stroke-opacity="1" stroke-width="0.47" transform="matrix(2.12766,0,0,2.12766,-335.106,-298.936)"><polyline fill="none" points="186,190 187,194" vector-effect="none"/></g><defs><clipPath id="clip36"><path d="M165,143 L245,143 L245,197 L165,197 L165,143 z"/></clipPath></defs><g clip-path="url(#clip36)" fill="none" opacity="1" stroke="#000000" stroke-linecap="butt" stroke-linejoin="miter" stroke-miterlimit="2" stroke-opacity="1" stroke-width="0.47" transform="matrix(2.12766,0,0,2.12766,-335.106,-298.936)"><polyline fill="none" points="187,194 187,190" vector-effect="none"/></g><defs><clipPath id="clip37"><path d="M165,143 L245,143 L245,197 L165,197 L165,143 z"/></clipPath></defs><g clip-path="url(#clip37)" fill="none" opacity="1" stroke="#000000" stroke-linecap="butt" stroke-linejoin="miter" stroke-miterlimit="2" stroke-opacity="1" stroke-width="0.47" transform="matrix(2.12766,0,0,2.12766,-335.106,-298.936)"><polyline fill="none" points="187,190 188,187" vector-effect="none"/></g><defs><clipPath id="clip38"><path d="M165,143 L245,143 L245,197 L165,197 L165,143 z"/></clipPath></defs><g clip-path="url(#clip38)" fill="none" opacity="1" stroke="#000000" stroke-linecap="butt" stroke-linejoin="miter" stroke-miterlimit="2" stroke-opacity="1" stroke-width="0.47" transform="matrix(2.12766,0,0,2.12766,-335.106,-298.936)"><polyline fill="none" points="188,187 189,185" vector-effect="none"/></g><defs><clipPath id="clip39"><path d="M165,143 L245,143 L245,197 L165,197 L165,143 z"/></clipPath></defs><g clip-path="url(#clip39)" fill="none" opacity="1" stroke="#000000" stroke-linecap="butt" stroke-linejoin="miter" stroke-miterlimit="2" stroke-opacity="1" stroke-width="0.47" transform="matrix(2.12766,0,0,2.12766,-335.106,-298.936)"><polyline fill="none" points="189,185 190,183" vector-effect="none"/></g><defs><clipPath id="clip40"><path d="M165,143 L245,143 L245,197 L165,197 L165,143 z"/></clipPath></defs><g clip-path="url(#clip40)" fill="none" opacity="1" stroke="#000000" stroke-linecap="butt" stroke-linejoin="miter" stroke-miterlimit="2" stroke-opacity="1" stroke-width="0.47" transform="matrix(2.12766,0,0,2.12766,-335.106,-298.936)"><polyline fill="none" points="190,183 191,182" vector-effect="none"/></g><defs><clipPath id="clip41"><path d="M165,143 L245,143 L245,197 L165,197 L165,143 z"/></clipPath></defs><g clip-path="url(#clip41)" fill="none" opacity="1" stroke="#000000" stroke-linecap="butt" stroke-linejoin="miter" stroke-miterlimit="2" stroke-opacity="1" stroke-width="0.47" transform="matrix(2.12766,0,0,2.12766,-335.106,-298.936)"><polyline fill="none" points="191,182 192,182" vector-effect="none"/></g><defs><clipPath id="clip42"><path d="M165,143 L245,143 L245,197 L165,197 L165,143 z"/></clipPath></defs><g clip-path="url(#clip42)" fill="none" opacity="1" stroke="#000000" stroke-linecap="butt" stroke-linejoin="miter" stroke-miterlimit="2" stroke-opacity="1" stroke-width="0.47" transform="matrix(2.12766,0,0,2.12766,-335.106,-298.936)"><polyline fill="none" points="192,182 193,183" vector-effect="none"/></g><defs><clipPath id="clip43"><path d="M165,143 L245,143 L245,197 L165,197 L165,143 z"/></clipPath></defs><g clip-path="url(#clip43)" fill="none" opacity="1" stroke="#000000" stroke-linecap="butt" stroke-linejoin="miter" stroke-miterlimit="2" stroke-opacity="1" stroke-width="0.47" transform="matrix(2.12766,0,0,2.12766,-335.106,-298.936)"><polyline fill="none" points="193,183 194,185" vector-effect="none"/></g><defs><clipPath id="clip44"><path d="M165,143 L245,143 L245,197 L165,197 L165,143 z"/></clipPath></defs><g clip-path="url(#clip44)" fill="none" opacity="1" stroke="#000000" stroke-linecap="butt" stroke-linejoin="miter" stroke-miterlimit="2" stroke-opacity="1" stroke-width="0.47" transform="matrix(2.12766,0,0,2.12766,-335.106,-298.936)"><polyline fill="none" points="194,185 195,188" vector-effect="none"/></g><defs><clipPath id="clip45"><path d="M165,143 L245,143 L245,197 L165,197 L165,143 z"/></clipPath></defs><g clip-path="url(#clip45)" fill="none" opacity="1" stroke="#000000" stroke-linecap="butt" stroke-linejoin="miter" stroke-miterlimit="2" stroke-opacity="1" stroke-width="0.47" transform="matrix(2.12766,0,0,2.12766,-335.106,-298.936)"><polyline fill="none" points="195,188 196,194" vector-effect="none"/></g><defs><clipPath id="clip46"><path d="M165,143 L245,143 L245,197 L165,197 L165,143 z"/></clipPath></defs><g clip-path="url(#clip46)" fill="none" opacity="1" stroke="#000000" stroke-linecap="butt" stroke-linejoin="miter" stroke-miterlimit="2" stroke-opacity="1" stroke-width="0.47" transform="matrix(2.12766,0,0,2.12766,-335.106,-298.936)"><polyline fill="none" points="196,194 197,187" vector-effect="none"/></g><defs><clipPath id="clip47"><path d="M165,143 L245,143 L245,197 L165,197 L165,143 z"/></clipPath></defs><g clip-path="url(#clip47)" fill="none" opacity="1" stroke="#000000" stroke-linecap="butt" stroke-linejoin="miter" stroke-miterlimit="2" stroke-opacity="1" stroke-width="0.47" transform="matrix(2.12766,0,0,2.12766,-335.106,-298.936)"><polyline fill="none" points="197,187 198,182" vector-effect="none"/></g><defs><clipPath id="clip48"><path d="M165,143 L245,143 L245,197 L165,197 L165,143 z"/></clipPath></defs><g clip-path="url(#clip48)" fill="none" opacity="1" stroke="#000000" stroke-linecap="butt" stroke-linejoin="miter" stroke-miterlimit="2" stroke-opacity="1" stroke-width="0.47" transform="matrix(2.12766,0,0,2.12766,-335.106,-298.936)"><polyline fill="none" points="198,182 199,177" vector-effect="none"/></g><defs><clipPath id="clip49"><path d="M165,143 L245,143 L245,197 L165,197 L165,143 z"/></clipPath></defs><g clip-path="url(#clip49)" fill="none" opacity="1" stroke="#000000" stroke-linecap="butt" stroke-linejoin="miter" stroke-miterlimit="2" stroke-opacity="1" stroke-width="0.47" transform="matrix(2.12766,0,0,2.12766,-335.106,-298.936)"><polyline fill="none" points="199,177 199,172" vector-effect="none"/></g><defs><clipPath id="clip50"><path d="M165,143 L245,143 L245,197 L165,197 L165,143 z"/></clipPath></defs><g clip-path="url(#clip50)" fill="none" opacity="1" stroke="#000000" stroke-linecap="butt" stroke-linejoin="miter" stroke-miterlimit="2" stroke-opacity="1" stroke-width="0.47" transform="matrix(2.12766,0,0,2.12766,-335.106,-298.936)"><polyline fill="none" points="199,172 200,168" vector-effect="none"/></g><defs><clipPath id="clip51"><path d="M165,143 L245,143 L245,197 L165,197 L165,143 z"/></clipPath></defs><g clip-path="url(#clip51)" fill="none" opacity="1" stroke="#000000" stroke-linecap="butt" stroke-linejoin="miter" stroke-miterlimit="2" stroke-opacity="1" stroke-width="0.47" transform="matrix(2.12766,0,0,2.12766,-335.106,-298.936)"><polyline fill="none" points="200,168 201,164" vector-effect="none"/></g><defs><clipPath id="clip52"><path d="M165,143 L245,143 L245,197 L165,197 L165,143 z"/></clipPath></defs><g clip-path="url(#clip52)" fill="none" opacity="1" stroke="#000000" stroke-linecap="butt" stroke-linejoin="miter" stroke-miterlimit="2" stroke-opacity="1" stroke-width="0.47" transform="matrix(2.12766,0,0,2.12766,-335.106,-298.936)"><polyline fill="none" points="201,164 202,161" vector-effect="none"/></g><defs><clipPath id="clip53"><path d="M165,143 L245,143 L245,197 L165,197 L165,143 z"/></clipPath></defs><g clip-path="url(#clip53)" fill="none" opacity="1" stroke="#000000" stroke-linecap="butt" stroke-linejoin="miter" stroke-miterlimit="2" stroke-opacity="1" stroke-width="0.47" transform="matrix(2.12766,0,0,2.12766,-335.106,-298.936)"><polyline fill="none" points="202,161 203,159" vector-effect="none"/></g><defs><clipPath id="clip54"><path d="M165,143 L245,143 L245,197 L165,197 L165,143 z"/></clipPath></defs><g clip-path="url(#clip54)" fill="none" opacity="1" stroke="#000000" stroke-linecap="butt" stroke-linejoin="miter" stroke-miterlimit="2" stroke-opacity="1" stroke-width="0.47" transform="matrix(2.12766,0,0,2.12766,-335.106,-298.936)"><polyline fill="none" points="203,159 204,158" vector-effect="none"/></g><defs><clipPath id="clip55"><path d="M165,143 L245,143 L245,197 L165,197 L165,143 z"/></clipPath></defs><g clip-path="url(#clip55)" fill="none" opacity="1" stroke="#000000" stroke-linecap="butt" stroke-linejoin="miter" stroke-miterlimit="2" stroke-opacity="1" stroke-width="0.47" transform="matrix(2.12766,0,0,2.12766,-335.106,-298.936)"><polyline fill="none" points="204,158 205,157" vector-effect="none"/></g><defs><clipPath id="clip56"><path d="M165,143 L245,143 L245,197 L165,197 L165,143 z"/></clipPath></defs><g clip-path="url(#clip56)" fill="none" opacity="1" stroke="#000000" stroke-linecap="butt" stroke-linejoin="miter" stroke-miterlimit="2" stroke-opacity="1" stroke-width="0.47" transform="matrix(2.12766,0,0,2.12766,-335.106,-298.936)"><polyline fill="none" points="205,157 206,158" vector-effect="none"/></g><defs><clipPath id="clip57"><path d="M165,143 L245,143 L245,197 L165,197 L165,143 z"/></clipPath></defs><g clip-path="url(#clip57)" fill="none" opacity="1" stroke="#000000" stroke-linecap="butt" stroke-linejoin="miter" stroke-miterlimit="2" stroke-opacity="1" stroke-width="0.47" transform="matrix(2.12766,0,0,2.12766,-335.106,-298.936)"><polyline fill="none" points="206,158 207,159" vector-effect="none"/></g><defs><clipPath id="clip58"><path d="M165,143 L245,143 L245,197 L165,197 L165,143 z"/></clipPath></defs><g clip-path="url(#clip58)" fill="none" opacity="1" stroke="#000000" stroke-linecap="butt" stroke-linejoin="miter" stroke-miterlimit="2" stroke-opacity="1" stroke-width="0.47" transform="matrix(2.12766,0,0,2.12766,-335.106,-298.936)"><polyline fill="none" points="207,159 208,161" vector-effect="none"/></g><defs><clipPath id="clip59"><path d="M165,143 L245,143 L245,197 L165,197 L165,143 z"/></clipPath></defs><g clip-path="url(#clip59)" fill="none" opacity="1" stroke="#000000" stroke-linecap="butt" stroke-linejoin="miter" stroke-miterlimit="2" stroke-opacity="1" stroke-width="0.47" transform="matrix(2.12766,0,0,2.12766,-335.106,-298.936)"><polyline fill="none" points="208,161 209,164" vector-effect="none"/></g><defs><clipPath id="clip60"><path d="M165,143 L245,143 L245,197 L165,197 L165,143 z"/></clipPath></defs><g clip-path="url(#clip60)" fill="none" opacity="1" stroke="#000000" stroke-linecap="butt" stroke-linejoin="miter" stroke-miterlimit="2" stroke-opacity="1" stroke-width="0.47" transform="matrix(2.12766,0,0,2.12766,-335.106,-298.936)"><polyline fill="none" points="209,164 210,168" vector-effect="none"/></g><defs><clipPath id="clip61"><path d="M165,143 L245,143 L245,197 L165,197 L165,143 z"/></clipPath></defs><g clip-path="url(#clip61)" fill="none" opacity="1" stroke="#000000" stroke-linecap="butt" stroke-linejoin="miter" stroke-miterlimit="2" stroke-opacity="1" stroke-width="0.47" transform="matrix(2.12766,0,0,2.12766,-335.106,-298.936)"><polyline fill="none" points="210,168 211,172" vector-effect="none"/></g><defs><clipPath id="clip62"><path d="M165,143 L245,143 L245,197 L165,197 L165,143 z"/></clipPath></defs><g clip-path="url(#clip62)" fill="none" opacity="1" stroke="#000000" stroke-linecap="butt" stroke-linejoin="miter" stroke-miterlimit="2" stroke-opacity="1" stroke-width="0.47" transform="matrix(2.12766,0,0,2.12766,-335.106,-298.936)"><polyline fill="none" points="211,172 211,177" vector-effect="none"/></g><defs><clipPath id="clip63"><path d="M165,143 L245,143 L245,197 L165,197 L165,143 z"/></clipPath></defs><g clip-path="url(#clip63)" fill="none" opacity="1" stroke="#000000" stroke-linecap="butt" stroke-linejoin="miter" stroke-miterlimit="2" stroke-opacity="1" stroke-width="0.47" transform="matrix(2.12766,0,0,2.12766,-335.106,-298.936)"><polyline fill="none" points="211,177 212,182" vector-effect="none"/></g><defs><clipPath id="clip64"><path d="M165,143 L245,143 L245,197 L165,197 L165,143 z"/></clipPath></defs><g clip-path="url(#clip64)" fill="none" opacity="1" stroke="#000000" stroke-linecap="butt" stroke-linejoin="miter" stroke-miterlimit="2" stroke-opacity="1" stroke-width="0.47" transform="matrix(2.12766,0,0,2.12766,-335.106,-298.936)"><polyline fill="none" points="212,182 213,187" vector-effect="none"/></g><defs><clipPath id="clip65"><path d="M165,143 L245,143 L245,197 L165,197 L165,143 z"/></clipPath></defs><g clip-path="url(#clip65)" fill="none" opacity="1" stroke="#000000" stroke-linecap="butt" stroke-linejoin="miter" stroke-miterlimit="2" stroke-opacity="1" stroke-width="0.47" transform="matrix(2.12766,0,0,2.12766,-335.106,-298.936)"><polyline fill="none" points="213,187 214,194" vector-effect="none"/></g><defs><clipPath id="clip66"><path d="M165,143 L245,143 L245,197 L165,197 L165,143 z"/></clipPath></defs><g clip-path="url(#clip66)" fill="none" opacity="1" stroke="#000000" stroke-linecap="butt" stroke-linejoin="miter" stroke-miterlimit="2" stroke-opacity="1" stroke-width="0.47" transform="matrix(2.12766,0,0,2.12766,-335.106,-298.936)"><polyline fill="none" points="214,194 215,188" vector-effect="none"/></g><defs><clipPath id="clip67"><path d="M165,143 L245,143 L245,197 L165,197 L165,143 z"/></clipPath></defs><g clip-path="url(#clip67)" fill="none" opacity="1" stroke="#000000" stroke-linecap="butt" stroke-linejoin="miter" stroke-miterlimit="2" stroke-opacity="1" stroke-width="0.47" transform="matrix(2.12766,0,0,2.12766,-335.106,-298.936)"><polyline fill="none" points="215,188 216,185" vector-effect="none"/></g><defs><clipPath id="clip68"><path d="M165,143 L245,143 L245,197 L165,197 L165,143 z"/></clipPath></defs><g clip-path="url(#clip68)" fill="none" opacity="1" stroke="#000000" stroke-linecap="butt" stroke-linejoin="miter" stroke-miterlimit="2" stroke-opacity="1" stroke-width="0.47" transform="matrix(2.12766,0,0,2.12766,-335.106,-298.936)"><polyline fill="none" points="216,185 217,183" vector-effect="none"/></g><defs><clipPath id="clip69"><path d="M165,143 L245,143 L245,197 L165,197 L165,143 z"/></clipPath></defs><g clip-path="url(#clip69)" fill="none" opacity="1" stroke="#000000" stroke-linecap="butt" stroke-linejoin="miter" stroke-miterlimit="2" stroke-opacity="1" stroke-width="0.47" transform="matrix(2.12766,0,0,2.12766,-335.106,-298.936)"><polyline fill="none" points="217,183 218,182" vector-effect="none"/></g><defs><clipPath id="clip70"><path d="M165,143 L245,143 L245,197 L165,197 L165,143 z"/></clipPath></defs><g clip-path="url(#clip70)" fill="none" opacity="1" stroke="#000000" stroke-linecap="butt" stroke-linejoin="miter" stroke-miterlimit="2" stroke-opacity="1" stroke-width="0.47" transform="matrix(2.12766,0,0,2.12766,-335.106,-298.936)"><polyline fill="none" points="218,182 219,182" vector-effect="none"/></g><defs><clipPath id="clip71"><path d="M165,143 L245,143 L245,197 L165,197 L165,143 z"/></clipPath></defs><g clip-path="url(#clip71)" fill="none" opacity="1" stroke="#000000" stroke-linecap="butt" stroke-linejoin="miter" stroke-miterlimit="2" stroke-opacity="1" stroke-width="0.47" transform="matrix(2.12766,0,0,2.12766,-335.106,-298.936)"><polyline fill="none" points="219,182 220,183" vector-effect="none"/></g><defs><clipPath id="clip72"><path d="M165,143 L245,143 L245,197 L165,197 L165,143 z"/></clipPath></defs><g clip-path="url(#clip72)" fill="none" opacity="1" stroke="#000000" stroke-linecap="butt" stroke-linejoin="miter" stroke-miterlimit="2" stroke-opacity="1" stroke-width="0.47" transform="matrix(2.12766,0,0,2.12766,-335.106,-298.936)"><polyline fill="none" points="220,183 221,185" vector-effect="none"/></g><defs><clipPath id="clip73"><path d="M165,143 L245,143 L245,197 L165,197 L165,143 z"/></clipPath></defs><g clip-path="url(#clip73)" fill="none" opacity="1" stroke="#000000" stroke-linecap="butt" stroke-linejoin="miter" stroke-miterlimit="2" stroke-opacity="1" stroke-width="0.47" transform="matrix(2.12766,0,0,2.12766,-335.106,-298.936)"><polyline fill="none" points="221,185 222,187" vector-effect="none"/></g><defs><clipPath id="clip74"><path d="M165,143 L245,143 L245,197 L165,197 L165,143 z"/></clipPath></defs><g clip-path="url(#clip74)" fill="none" opacity="1" stroke="#000000" stroke-linecap="butt" stroke-linejoin="miter" stroke-miterlimit="2" stroke-opacity="1" stroke-width="0.47" transform="matrix(2.12766,0,0,2.12766,-335.106,-298.936)"><polyline fill="none" points="222,187 223,190" vector-effect="none"/></g><defs><clipPath id="clip75"><path d="M165,143 L245,143 L245,197 L165,197 L165,143 z"/></clipPath></defs><g clip-path="url(#clip75)" fill="none" opacity="1" stroke="#000000" stroke-linecap="butt" stroke-linejoin="miter" stroke-miterlimit="2" stroke-opacity="1" stroke-width="0.47" transform="matrix(2.12766,0,0,2.12766,-335.106,-298.936)"><polyline fill="none" points="223,190 224,194" vector-effect="none"/></g><defs><clipPath id="clip76"><path d="M165,143 L245,143 L245,197 L165,197 L165,143 z"/></clipPath></defs><g clip-path="url(#clip76)" fill="none" opacity="1" stroke="#000000" stroke-linecap="butt" stroke-linejoin="miter" stroke-miterlimit="2" stroke-opacity="1" stroke-width="0.47" transform="matrix(2.12766,0,0,2.12766,-335.106,-298.936)"><polyline fill="none" points="224,194 224,190" vector-effect="none"/></g><defs><clipPath id="clip77"><path d="M165,143 L245,143 L245,197 L165,197 L165,143 z"/></clipPath></defs><g clip-path="url(#clip77)" fill="none" opacity="1" stroke="#000000" stroke-linecap="butt" stroke-linejoin="miter" stroke-miterlimit="2" stroke-opacity="1" stroke-width="0.47" transform="matrix(2.12766,0,0,2.12766,-335.106,-298.936)"><polyline fill="none" points="224,190 225,188" vector-effect="none"/></g><defs><clipPath id="clip78"><path d="M165,143 L245,143 L245,197 L165,197 L165,143 z"/></clipPath></defs><g clip-path="url(#clip78)" fill="none" opacity="1" stroke="#000000" stroke-linecap="butt" stroke-linejoin="miter" stroke-miterlimit="2" stroke-opacity="1" stroke-width="0.47" transform="matrix(2.12766,0,0,2.12766,-335.106,-298.936)"><polyline fill="none" points="225,188 226,187" vector-effect="none"/></g><defs><clipPath id="clip79"><path d="M165,143 L245,143 L245,197 L165,197 L165,143 z"/></clipPath></defs><g clip-path="url(#clip79)" fill="none" opacity="1" stroke="#000000" stroke-linecap="butt" stroke-linejoin="miter" stroke-miterlimit="2" stroke-opacity="1" stroke-width="0.47" transform="matrix(2.12766,0,0,2.12766,-335.106,-298.936)"><polyline fill="none" points="226,187 227,186" vector-effect="none"/></g><defs><clipPath id="clip80"><path d="M165,143 L245,143 L245,197 L165,197 L165,143 z"/></clipPath></defs><g clip-path="url(#clip80)" fill="none" opacity="1" stroke="#000000" stroke-linecap="butt" stroke-linejoin="miter" stroke-miterlimit="2" stroke-opacity="1" stroke-width="0.47" transform="matrix(2.12766,0,0,2.12766,-335.106,-298.936)"><polyline fill="none" points="227,186 228,186" vector-effect="none"/></g><defs><clipPath id="clip81"><path d="M165,143 L245,143 L245,197 L165,197 L165,143 z"/></clipPath></defs><g clip-path="url(#clip81)" fill="none" opacity="1" stroke="#000000" stroke-linecap="butt" stroke-linejoin="miter" stroke-miterlimit="2" stroke-opacity="1" stroke-width="0.47" transform="matrix(2.12766,0,0,2.12766,-335.106,-298.936)"><polyline fill="none" points="228,186 229,187" vector-effect="none"/></g><defs><clipPath id="clip82"><path d="M165,143 L245,143 L245,197 L165,197 L165,143 z"/></clipPath></defs><g clip-path="url(#clip82)" fill="none" opacity="1" stroke="#000000" stroke-linecap="butt" stroke-linejoin="miter" stroke-miterlimit="2" stroke-opacity="1" stroke-width="0.47" transform="matrix(2.12766,0,0,2.12766,-335.106,-298.936)"><polyline fill="none" points="229,187 230,188" vector-effect="none"/></g><defs><clipPath id="clip83"><path d="M165,143 L245,143 L245,197 L165,197 L165,143 z"/></clipPath></defs><g clip-path="url(#clip83)" fill="none" opacity="1" stroke="#000000" stroke-linecap="butt" stroke-linejoin="miter" stroke-miterlimit="2" stroke-opacity="1" stroke-width="0.47" transform="matrix(2.12766,0,0,2.12766,-335.106,-298.936)"><polyline fill="none" points="230,188 231,189" vector-effect="none"/></g><defs><clipPath id="clip84"><path d="M165,143 L245,143 L245,197 L165,197 L165,143 z"/></clipPath></defs><g clip-path="url(#clip84)" fill="none" opacity="1" stroke="#000000" stroke-linecap="butt" stroke-linejoin="miter" stroke-miterlimit="2" stroke-opacity="1" stroke-width="0.47" transform="matrix(2.12766,0,0,2.12766,-335.106,-298.936)"><polyline fill="none" points="231,189 232,191" vector-effect="none"/></g><defs><clipPath id="clip85"><path d="M165,143 L245,143 L245,197 L165,197 L165,143 z"/></clipPath></defs><g clip-path="url(#clip85)" fill="none" opacity="1" stroke="#000000" stroke-linecap="butt" stroke-linejoin="miter" stroke-miterlimit="2" stroke-opacity="1" stroke-width="0.47" transform="matrix(2.12766,0,0,2.12766,-335.106,-298.936)"><polyline fill="none" points="232,191 233,194" vector-effect="none"/></g><defs><clipPath id="clip86"><path d="M165,143 L245,143 L245,197 L165,197 L165,143 z"/></clipPath></defs><g clip-path="url(#clip86)" fill="none" opacity="1" stroke="#000000" stroke-linecap="butt" stroke-linejoin="miter" stroke-miterlimit="2" stroke-opacity="1" stroke-width="0.47" transform="matrix(2.12766,0,0,2.12766,-335.106,-298.936)"><polyline fill="none" points="233,194 234,191" vector-effect="none"/></g><defs><clipPath id="clip87"><path d="M165,143 L245,143 L245,197 L165,197 L165,143 z"/></clipPath></defs><g clip-path="url(#clip87)" fill="none" opacity="1" stroke="#000000" stroke-linecap="butt" stroke-linejoin="miter" stroke-miterlimit="2" stroke-opacity="1" stroke-width="0.47" transform="matrix(2.12766,0,0,2.12766,-335.106,-298.936)"><polyline fill="none" points="234,191 235,190" vector-effect="none"/></g><defs><clipPath id="clip88"><path d="M165,143 L245,143 L245,197 L165,197 L165,143 z"/></clipPath></defs><g clip-path="url(#clip88)" fill="none" opacity="1" stroke="#000000" stroke-linecap="butt" stroke-linejoin="miter" stroke-miterlimit="2" stroke-opacity="1" stroke-width="0.47" transform="matrix(2.12766,0,0,2.12766,-335.106,-298.936)"><polyline fill="none" points="235,190 236,189" vector-effect="none"/></g><defs><clipPath id="clip89"><path d="M165,143 L245,143 L245,197 L165,197 L165,143 z"/></clipPath></defs><g clip-path="url(#clip89)" fill="none" opacity="1" stroke="#000000" stroke-linecap="butt" stroke-linejoin="miter" stroke-miterlimit="2" stroke-opacity="1" stroke-width="0.47" transform="matrix(2.12766,0,0,2.12766,-335.106,-298.936)"><polyline fill="none" points="236,189 236,188" vector-effect="none"/></g><defs><clipPath id="clip90"><path d="M165,143 L245,143 L245,197 L165,197 L165,143 z"/></clipPath></defs><g clip-path="url(#clip90)" fill="none" opacity="1" stroke="#000000" stroke-linecap="butt" stroke-linejoin="miter" stroke-miterlimit="2" stroke-opacity="1" stroke-width="0.47" transform="matrix(2.12766,0,0,2.12766,-335.106,-298.936)"><polyline fill="none" points="236,188 237,188" vector-effect="none"/></g><defs><clipPath id="clip91"><path d="M165,143 L245,143 L245,197 L165,197 L165,143 z"/></clipPath></defs><g clip-path="url(#clip91)" fill="none" opacity="1" stroke="#000000" stroke-linecap="butt" stroke-linejoin="miter" stroke-miterlimit="2" stroke-opacity="1" stroke-width="0.47" transform="matrix(2.12766,0,0,2.12766,-335.106,-298.936)"><polyline fill="none" points="237,188 238,188" vector-effect="none"/></g><defs><clipPath id="clip92"><path d="M165,143 L245,143 L245,197 L165,197 L165,143 z"/></clipPath></defs><g clip-path="url(#clip92)" fill="none" opacity="1" stroke="#000000" stroke-linecap="butt" stroke-linejoin="miter" stroke-miterlimit="2" stroke-opacity="1" stroke-width="0.47" transform="matrix(2.12766,0,0,2.12766,-335.106,-298.936)"><polyline fill="none" points="238,188 239,189" vector-effect="none"/></g><defs><clipPath id="clip93"><path d="M165,143 L245,143 L245,197 L165,197 L165,143 z"/></clipPath></defs><g clip-path="url(#clip93)" fill="none" opacity="1" stroke="#000000" stroke-linecap="butt" stroke-linejoin="miter" stroke-miterlimit="2" stroke-opacity="1" stroke-width="0.47" transform="matrix(2.12766,0,0,2.12766,-335.106,-298.936)"><polyline fill="none" points="239,189 240,190" vector-effect="none"/></g><defs><clipPath id="clip94"><path d="M165,143 L245,143 L245,197 L165,197 L165,143 z"/></clipPath></defs><g clip-path="url(#clip94)" fill="none" opacity="1" stroke="#000000" stroke-linecap="butt" stroke-linejoin="miter" stroke-miterlimit="2" stroke-opacity="1" stroke-width="0.47" transform="matrix(2.12766,0,0,2.12766,-335.106,-298.936)"><polyline fill="none" points="240,190 241,192" vector-effect="none"/></g><defs><clipPath id="clip95"><path d="M165,143 L245,143 L245,197 L165,197 L165,143 z"/></clipPath></defs><g clip-path="url(#clip95)" fill="none" opacity="1" stroke="#000000" stroke-linecap="butt" stroke-linejoin="miter" stroke-miterlimit="2" stroke-opacity="1" stroke-width="0.47" transform="matrix(2.12766,0,0,2.12766,-335.106,-298.936)"><polyline fill="none" points="241,192 242,194" vector-effect="none"/></g><defs><clipPath id="clip100"><path d="M-7,-2 L87,-2 L87,56 L-7,56 L-7,-2 z"/></clipPath></defs><g clip-path="url(#clip100)" fill="none" opacity="1" stroke="#000000" stroke-linecap="butt" stroke-linejoin="miter" stroke-miterlimit="2" stroke-opacity="1" stroke-width="0.739331" transform="matrix(2.12766,0,0,2.12766,14.8936,4.25532)"><path d="M0,0 L80,0 L80,54 L0,54 L0,0 z" fill-rule="evenodd" vector-effect="none"/></g></g></svg>
