<?xml version="1.0" encoding="UTF-8"?><svg width="52.9167mm" height="29.1042mm" viewBox="0 0 200 110" xmlns="http://www.w3.org/2000/svg" xmlns:xlink="http://www.w3.org/1999/xlink"><g fill="none" stroke="black" stroke-width="1" fill-rule="evenodd" stroke-linecap="square" stroke-linejoin="bevel"><g clip-path="none" fill="none" opacity="1" stroke="none" stroke-opacity="0" transform="matrix(1,0,0,1,0,0)"><path d="M0,0 L200,0 L200,110 L0,110 L0,0 z" fill-rule="evenodd" vector-effect="none"/></g><defs><clipPath id="clip3"><path d="M7,18 L-112,18 L-112,-48 L7,-48 L7,18 z"/></clipPath></defs><g clip-path="url(#clip3)" fill="none" opacity="1" stroke="#000000" stroke-linecap="round" stroke-linejoin="miter" stroke-miterlimit="2" stroke-opacity="1" stroke-width="2" transform="matrix(-1.68067,0,0,-1.68067,11.7647,30.2521)"><path d="M5,-5 L0,0 L5,5" fill-rule="evenodd" vector-effect="none"/></g><defs><clipPath id="clip6"><path d="M-112,-33 L7,-33 L7,33 L-112,33 L-112,-33 z"/></clipPath></defs><g clip-path="url(#clip6)" fill="none" opacity="1" stroke="#000000" stroke-linecap="round" stroke-linejoin="miter" stroke-miterlimit="2" stroke-opacity="1" stroke-width="2" transform="matrix(1.68067,0,0,1.68067,188.235,55.4622)"><path d="M0,-5 L5,0 L0,5" fill-rule="evenodd" vector-effect="none"/></g><defs><clipPath id="clip9"><path d="M7,48 L-112,48 L-112,-18 L7,-18 L7,48 z"/></clipPath></defs><g clip-path="url(#clip9)" fill="none" opacity="1" stroke="#000000" stroke-linecap="round" stroke-linejoin="miter" stroke-miterlimit="2" stroke-opacity="1" stroke-width="2" transform="matrix(-1.68067,0,0,-1.68067,11.7647,80.6723)"><path d="M5,-5 L0,0 L5,5" fill-rule="evenodd" vector-effect="none"/></g><defs><clipPath id="clip12"><path d="M-7,-2 L112,-2 L112,64 L-7,64 L-7,-2 z"/></clipPath></defs><g clip-path="url(#clip12)" fill="#ffffff" fill-opacity="1" opacity="1" stroke="none" stroke-opacity="0" transform="matrix(1.68067,0,0,1.68067,11.7647,3.36134)"><path d="M0,0 L105,0 L105,62 L0,62 L0,0 z" fill-rule="evenodd" vector-effect="none"/></g><defs><clipPath id="clip17"><path d="M-266,-108 L272,-108 L272,209 L-266,209 L-266,-108 z"/></clipPath></defs><g clip-path="url(#clip17)" fill="none" opacity="1" stroke="#000000" stroke-linecap="butt" stroke-linejoin="miter" stroke-miterlimit="2" stroke-opacity="1" stroke-width="0.595" transform="matrix(0.328256,0,0,0.328256,99.1597,38.6555)"><text fill="#000000" fill-opacity="1" font-family="Liberation Sans" font-size="40" font-style="normal" font-weight="400" stroke="none" textLength="144" x="-93.8281" xml:space="preserve" y="17.9219">Discrete</text></g><defs><clipPath id="clip20"><path d="M-266,-159 L272,-159 L272,158 L-266,158 L-266,-159 z"/></clipPath></defs><g clip-path="url(#clip20)" fill="none" opacity="1" stroke="#000000" stroke-linecap="butt" stroke-linejoin="miter" stroke-miterlimit="2" stroke-opacity="1" stroke-width="0.595" transform="matrix(0.328256,0,0,0.328256,99.1597,55.4622)"><text fill="#000000" fill-opacity="1" font-family="Liberation Sans" font-size="40" font-style="normal" font-weight="400" stroke="none" textLength="304" x="-199.875" xml:space="preserve" y="17.9219">Transfer Function</text></g><defs><clipPath id="clip23"><path d="M-266,-210 L272,-210 L272,107 L-266,107 L-266,-210 z"/></clipPath></defs><g clip-path="url(#clip23)" fill="none" opacity="1" stroke="#000000" stroke-linecap="butt" stroke-linejoin="miter" stroke-miterlimit="2" stroke-opacity="1" stroke-width="0.595" transform="matrix(0.328256,0,0,0.328256,99.1597,72.2689)"><text fill="#000000" fill-opacity="1" font-family="Liberation Sans" font-size="40" font-style="normal" font-weight="400" stroke="none" textLength="167" x="-108.047" xml:space="preserve" y="17.9219">Estimator</text></g><defs><clipPath id="clip26"><path d="M-15,-82 L523,-82 L523,235 L-15,235 L-15,-82 z"/></clipPath></defs><g clip-path="url(#clip26)" fill="none" opacity="1" stroke="#000000" stroke-linecap="butt" stroke-linejoin="miter" stroke-miterlimit="2" stroke-opacity="1" stroke-width="0.595" transform="matrix(0.328256,0,0,0.328256,16.8067,30.2521)"><text fill="#000000" fill-opacity="1" font-family="Liberation Sans" font-size="40" font-style="normal" font-weight="400" stroke="none" textLength="18" x="0" xml:space="preserve" y="17.9219">x</text></g><defs><clipPath id="clip29"><path d="M-15,-236 L523,-236 L523,81 L-15,81 L-15,-236 z"/></clipPath></defs><g clip-path="url(#clip29)" fill="none" opacity="1" stroke="#000000" stroke-linecap="butt" stroke-linejoin="miter" stroke-miterlimit="2" stroke-opacity="1" stroke-width="0.595" transform="matrix(0.328256,0,0,0.328256,16.8067,80.6723)"><text fill="#000000" fill-opacity="1" font-family="Liberation Sans" font-size="40" font-style="normal" font-weight="400" stroke="none" textLength="19" x="0" xml:space="preserve" y="17.9219">y</text></g><defs><clipPath id="clip35"><path d="M-7,-2 L112,-2 L112,64 L-7,64 L-7,-2 z"/></clipPath></defs><g clip-path="url(#clip35)" fill="none" opacity="1" stroke="#000000" stroke-linecap="butt" stroke-linejoin="miter" stroke-miterlimit="2" stroke-opacity="1" stroke-width="1.62494" transform="matrix(1.68067,0,0,1.68067,11.7647,3.36134)"><path d="M0,0 L105,0 L105,62 L0,62 L0,0 z" fill-rule="evenodd" vector-effect="none"/></g></g></svg>
