<?xml version="1.0" encoding="UTF-8"?><svg width="52.9167mm" height="21.1667mm" viewBox="0 0 200 80" xmlns="http://www.w3.org/2000/svg" xmlns:xlink="http://www.w3.org/1999/xlink"><g fill="none" stroke="black" stroke-width="1" fill-rule="evenodd" stroke-linecap="square" stroke-linejoin="bevel"><g clip-path="none" fill="none" opacity="1" stroke="none" stroke-opacity="0" transform="matrix(1,0,0,1,0,0)"><path d="M0,0 L200,0 L200,80 L0,80 L0,0 z" fill-rule="evenodd" vector-effect="none"/></g><defs><clipPath id="clip3"><path d="M-112,-24 L7,-24 L7,24 L-112,24 L-112,-24 z"/></clipPath></defs><g clip-path="url(#clip3)" fill="none" opacity="1" stroke="#000000" stroke-linecap="round" stroke-linejoin="miter" stroke-miterlimit="2" stroke-opacity="1" stroke-width="2" transform="matrix(1.68067,0,0,1.68067,188.235,40.3361)"><path d="M0,-5 L5,0 L0,5" fill-rule="evenodd" vector-effect="none"/></g><defs><clipPath id="clip6"><path d="M7,24 L-112,24 L-112,-24 L7,-24 L7,24 z"/></clipPath></defs><g clip-path="url(#clip6)" fill="none" opacity="1" stroke="#000000" stroke-linecap="round" stroke-linejoin="miter" stroke-miterlimit="2" stroke-opacity="1" stroke-width="2" transform="matrix(-1.68067,0,0,-1.68067,11.7647,40.3361)"><path d="M5,-5 L0,0 L5,5" fill-rule="evenodd" vector-effect="none"/></g><defs><clipPath id="clip9"><path d="M-7,-2 L112,-2 L112,46 L-7,46 L-7,-2 z"/></clipPath></defs><g clip-path="url(#clip9)" fill="#ffffff" fill-opacity="1" opacity="1" stroke="none" stroke-opacity="0" transform="matrix(1.68067,0,0,1.68067,11.7647,3.36134)"><path d="M0,0 L105,0 L105,44 L0,44 L0,0 z" fill-rule="evenodd" vector-effect="none"/></g><defs><clipPath id="clip14"><path d="M-266,-61 L272,-61 L272,164 L-266,164 L-266,-61 z"/></clipPath></defs><g clip-path="url(#clip14)" fill="none" opacity="1" stroke="#000000" stroke-linecap="butt" stroke-linejoin="miter" stroke-miterlimit="2" stroke-opacity="1" stroke-width="0.595" transform="matrix(0.328256,0,0,0.328256,99.1597,23.5294)"><text fill="#000000" fill-opacity="1" font-family="Liberation Sans" font-size="40" font-style="normal" font-weight="400" stroke="none" textLength="63" x="-41.2188" xml:space="preserve" y="17.9219">FIR</text></g><defs><clipPath id="clip17"><path d="M-266,-113 L272,-113 L272,112 L-266,112 L-266,-113 z"/></clipPath></defs><g clip-path="url(#clip17)" fill="none" opacity="1" stroke="#000000" stroke-linecap="butt" stroke-linejoin="miter" stroke-miterlimit="2" stroke-opacity="1" stroke-width="0.595" transform="matrix(0.328256,0,0,0.328256,99.1597,40.3361)"><text fill="#000000" fill-opacity="1" font-family="Liberation Sans" font-size="40" font-style="normal" font-weight="400" stroke="none" textLength="158" x="-102.406" xml:space="preserve" y="17.9219">Halfband</text></g><defs><clipPath id="clip20"><path d="M-266,-164 L272,-164 L272,61 L-266,61 L-266,-164 z"/></clipPath></defs><g clip-path="url(#clip20)" fill="none" opacity="1" stroke="#000000" stroke-linecap="butt" stroke-linejoin="miter" stroke-miterlimit="2" stroke-opacity="1" stroke-width="0.595" transform="matrix(0.328256,0,0,0.328256,99.1597,57.1429)"><text fill="#000000" fill-opacity="1" font-family="Liberation Sans" font-size="40" font-style="normal" font-weight="400" stroke="none" textLength="197" x="-129.406" xml:space="preserve" y="17.9219">Interpolator</text></g><defs><clipPath id="clip26"><path d="M-7,-2 L112,-2 L112,46 L-7,46 L-7,-2 z"/></clipPath></defs><g clip-path="url(#clip26)" fill="none" opacity="1" stroke="#000000" stroke-linecap="butt" stroke-linejoin="miter" stroke-miterlimit="2" stroke-opacity="1" stroke-width="0.812469" transform="matrix(1.68067,0,0,1.68067,11.7647,3.36134)"><path d="M0,0 L105,0 L105,44 L0,44 L0,0 z" fill-rule="evenodd" vector-effect="none"/></g></g></svg>
