<?xml version="1.0" encoding="UTF-8"?><svg width="52.9167mm" height="20.3729mm" viewBox="0 0 200 77" xmlns="http://www.w3.org/2000/svg" xmlns:xlink="http://www.w3.org/1999/xlink"><g fill="none" stroke="black" stroke-width="1" fill-rule="evenodd" stroke-linecap="square" stroke-linejoin="bevel"><g clip-path="none" fill="none" opacity="1" stroke="none" stroke-opacity="0" transform="matrix(1,0,0,1,0,0)"><path d="M0,0 L200,0 L200,77 L0,77 L0,0 z" fill-rule="evenodd" vector-effect="none"/></g><defs><clipPath id="clip3"><path d="M-107,-22 L7,-22 L7,22 L-107,22 L-107,-22 z"/></clipPath></defs><g clip-path="url(#clip3)" fill="none" opacity="1" stroke="#000000" stroke-linecap="round" stroke-linejoin="miter" stroke-miterlimit="2" stroke-opacity="1" stroke-width="2" transform="matrix(1.75439,0,0,1.75439,187.719,38.5965)"><path d="M0,-5 L5,0 L0,5" fill-rule="evenodd" vector-effect="none"/></g><defs><clipPath id="clip6"><path d="M7,22 L-107,22 L-107,-22 L7,-22 L7,22 z"/></clipPath></defs><g clip-path="url(#clip6)" fill="none" opacity="1" stroke="#000000" stroke-linecap="round" stroke-linejoin="miter" stroke-miterlimit="2" stroke-opacity="1" stroke-width="2" transform="matrix(-1.75439,0,0,-1.75439,12.2807,38.5965)"><path d="M5,-5 L0,0 L5,5" fill-rule="evenodd" vector-effect="none"/></g><defs><clipPath id="clip9"><path d="M-7,-2 L107,-2 L107,42 L-7,42 L-7,-2 z"/></clipPath></defs><g clip-path="url(#clip9)" fill="#ffffff" fill-opacity="1" opacity="1" stroke="none" stroke-opacity="0" transform="matrix(1.75439,0,0,1.75439,12.2807,3.50877)"><path d="M0,0 L100,0 L100,40 L0,40 L0,0 z" fill-rule="evenodd" vector-effect="none"/></g><defs><clipPath id="clip14"><path d="M-256,-51 L256,-51 L256,154 L-256,154 L-256,-51 z"/></clipPath></defs><g clip-path="url(#clip14)" fill="none" opacity="1" stroke="#000000" stroke-linecap="butt" stroke-linejoin="miter" stroke-miterlimit="2" stroke-opacity="1" stroke-width="0.57" transform="matrix(0.342654,0,0,0.342654,100,21.0526)"><text fill="#000000" fill-opacity="1" font-family="Liberation Sans" font-size="40" font-style="normal" font-weight="400" stroke="none" textLength="141" x="-91.9375" xml:space="preserve" y="17.9219">Variable</text></g><defs><clipPath id="clip17"><path d="M-256,-102 L256,-102 L256,103 L-256,103 L-256,-102 z"/></clipPath></defs><g clip-path="url(#clip17)" fill="none" opacity="1" stroke="#000000" stroke-linecap="butt" stroke-linejoin="miter" stroke-miterlimit="2" stroke-opacity="1" stroke-width="0.57" transform="matrix(0.342654,0,0,0.342654,100,38.5965)"><text fill="#000000" fill-opacity="1" font-family="Liberation Sans" font-size="40" font-style="normal" font-weight="400" stroke="none" textLength="183" x="-119.469" xml:space="preserve" y="17.9219">Bandwidth</text></g><defs><clipPath id="clip20"><path d="M-256,-154 L256,-154 L256,51 L-256,51 L-256,-154 z"/></clipPath></defs><g clip-path="url(#clip20)" fill="none" opacity="1" stroke="#000000" stroke-linecap="butt" stroke-linejoin="miter" stroke-miterlimit="2" stroke-opacity="1" stroke-width="0.57" transform="matrix(0.342654,0,0,0.342654,100,56.1404)"><text fill="#000000" fill-opacity="1" font-family="Liberation Sans" font-size="40" font-style="normal" font-weight="400" stroke="none" textLength="63" x="-41.2188" xml:space="preserve" y="17.9219">FIR</text></g><defs><clipPath id="clip26"><path d="M-7,-2 L107,-2 L107,42 L-7,42 L-7,-2 z"/></clipPath></defs><g clip-path="url(#clip26)" fill="none" opacity="1" stroke="#000000" stroke-linecap="butt" stroke-linejoin="miter" stroke-miterlimit="2" stroke-opacity="1" stroke-width="0.798638" transform="matrix(1.75439,0,0,1.75439,12.2807,3.50877)"><path d="M0,0 L100,0 L100,40 L0,40 L0,0 z" fill-rule="evenodd" vector-effect="none"/></g></g></svg>
