<?xml version="1.0" encoding="UTF-8"?><svg width="52.9167mm" height="39.9521mm" viewBox="0 0 200 151" xmlns="http://www.w3.org/2000/svg" xmlns:xlink="http://www.w3.org/1999/xlink"><g fill="none" stroke="black" stroke-width="1" fill-rule="evenodd" stroke-linecap="square" stroke-linejoin="bevel"><g clip-path="none" fill="none" opacity="1" stroke="none" stroke-opacity="0" transform="matrix(1,0,0,1,0,0)"><path d="M0,0 L200,0 L200,151 L0,151 L0,0 z" fill-rule="evenodd" vector-effect="none"/></g><defs><clipPath id="clip3"><path d="M-72,-30 L7,-30 L7,30 L-72,30 L-72,-30 z"/></clipPath></defs><g clip-path="url(#clip3)" fill="none" opacity="1" stroke="#000000" stroke-linecap="round" stroke-linejoin="miter" stroke-miterlimit="2" stroke-opacity="1" stroke-width="2" transform="matrix(2.53165,0,0,2.53165,182.278,75.9494)"><path d="M0,-5 L5,0 L0,5" fill-rule="evenodd" vector-effect="none"/></g><defs><clipPath id="clip6"><path d="M7,30 L-72,30 L-72,-30 L7,-30 L7,30 z"/></clipPath></defs><g clip-path="url(#clip6)" fill="none" opacity="1" stroke="#000000" stroke-linecap="round" stroke-linejoin="miter" stroke-miterlimit="2" stroke-opacity="1" stroke-width="2" transform="matrix(-2.53165,0,0,-2.53165,17.7215,75.9494)"><path d="M5,-5 L0,0 L5,5" fill-rule="evenodd" vector-effect="none"/></g><defs><clipPath id="clip9"><path d="M-7,-2 L72,-2 L72,58 L-7,58 L-7,-2 z"/></clipPath></defs><g clip-path="url(#clip9)" fill="#ffffff" fill-opacity="1" opacity="1" stroke="none" stroke-opacity="0" transform="matrix(2.53165,0,0,2.53165,17.7215,5.06329)"><path d="M0,0 L65,0 L65,56 L0,56 L0,0 z" fill-rule="evenodd" vector-effect="none"/></g><defs><clipPath id="clip13"><path d="M150,47 L215,47 L215,103 L150,103 L150,47 z"/></clipPath></defs><g clip-path="url(#clip13)" fill="none" opacity="1" stroke="#000000" stroke-linecap="butt" stroke-linejoin="miter" stroke-miterlimit="2" stroke-opacity="1" stroke-width="0.395" transform="matrix(2.53165,0,0,2.53165,-360.759,-112.658)"><polyline fill="none" points="153,63 154,63" vector-effect="none"/></g><defs><clipPath id="clip14"><path d="M150,47 L215,47 L215,103 L150,103 L150,47 z"/></clipPath></defs><g clip-path="url(#clip14)" fill="none" opacity="1" stroke="#000000" stroke-linecap="butt" stroke-linejoin="miter" stroke-miterlimit="2" stroke-opacity="1" stroke-width="0.395" transform="matrix(2.53165,0,0,2.53165,-360.759,-112.658)"><polyline fill="none" points="154,63 155,63" vector-effect="none"/></g><defs><clipPath id="clip15"><path d="M150,47 L215,47 L215,103 L150,103 L150,47 z"/></clipPath></defs><g clip-path="url(#clip15)" fill="none" opacity="1" stroke="#000000" stroke-linecap="butt" stroke-linejoin="miter" stroke-miterlimit="2" stroke-opacity="1" stroke-width="0.395" transform="matrix(2.53165,0,0,2.53165,-360.759,-112.658)"><polyline fill="none" points="155,63 156,63" vector-effect="none"/></g><defs><clipPath id="clip16"><path d="M150,47 L215,47 L215,103 L150,103 L150,47 z"/></clipPath></defs><g clip-path="url(#clip16)" fill="none" opacity="1" stroke="#000000" stroke-linecap="butt" stroke-linejoin="miter" stroke-miterlimit="2" stroke-opacity="1" stroke-width="0.395" transform="matrix(2.53165,0,0,2.53165,-360.759,-112.658)"><polyline fill="none" points="156,63 157,63" vector-effect="none"/></g><defs><clipPath id="clip17"><path d="M150,47 L215,47 L215,103 L150,103 L150,47 z"/></clipPath></defs><g clip-path="url(#clip17)" fill="none" opacity="1" stroke="#000000" stroke-linecap="butt" stroke-linejoin="miter" stroke-miterlimit="2" stroke-opacity="1" stroke-width="0.395" transform="matrix(2.53165,0,0,2.53165,-360.759,-112.658)"><polyline fill="none" points="157,63 158,63" vector-effect="none"/></g><defs><clipPath id="clip18"><path d="M150,47 L215,47 L215,103 L150,103 L150,47 z"/></clipPath></defs><g clip-path="url(#clip18)" fill="none" opacity="1" stroke="#000000" stroke-linecap="butt" stroke-linejoin="miter" stroke-miterlimit="2" stroke-opacity="1" stroke-width="0.395" transform="matrix(2.53165,0,0,2.53165,-360.759,-112.658)"><polyline fill="none" points="158,63 159,63" vector-effect="none"/></g><defs><clipPath id="clip19"><path d="M150,47 L215,47 L215,103 L150,103 L150,47 z"/></clipPath></defs><g clip-path="url(#clip19)" fill="none" opacity="1" stroke="#000000" stroke-linecap="butt" stroke-linejoin="miter" stroke-miterlimit="2" stroke-opacity="1" stroke-width="0.395" transform="matrix(2.53165,0,0,2.53165,-360.759,-112.658)"><polyline fill="none" points="159,63 160,63" vector-effect="none"/></g><defs><clipPath id="clip20"><path d="M150,47 L215,47 L215,103 L150,103 L150,47 z"/></clipPath></defs><g clip-path="url(#clip20)" fill="none" opacity="1" stroke="#000000" stroke-linecap="butt" stroke-linejoin="miter" stroke-miterlimit="2" stroke-opacity="1" stroke-width="0.395" transform="matrix(2.53165,0,0,2.53165,-360.759,-112.658)"><polyline fill="none" points="160,63 161,63" vector-effect="none"/></g><defs><clipPath id="clip21"><path d="M150,47 L215,47 L215,103 L150,103 L150,47 z"/></clipPath></defs><g clip-path="url(#clip21)" fill="none" opacity="1" stroke="#000000" stroke-linecap="butt" stroke-linejoin="miter" stroke-miterlimit="2" stroke-opacity="1" stroke-width="0.395" transform="matrix(2.53165,0,0,2.53165,-360.759,-112.658)"><polyline fill="none" points="161,63 162,63" vector-effect="none"/></g><defs><clipPath id="clip22"><path d="M150,47 L215,47 L215,103 L150,103 L150,47 z"/></clipPath></defs><g clip-path="url(#clip22)" fill="none" opacity="1" stroke="#000000" stroke-linecap="butt" stroke-linejoin="miter" stroke-miterlimit="2" stroke-opacity="1" stroke-width="0.395" transform="matrix(2.53165,0,0,2.53165,-360.759,-112.658)"><polyline fill="none" points="162,63 163,63" vector-effect="none"/></g><defs><clipPath id="clip23"><path d="M150,47 L215,47 L215,103 L150,103 L150,47 z"/></clipPath></defs><g clip-path="url(#clip23)" fill="none" opacity="1" stroke="#000000" stroke-linecap="butt" stroke-linejoin="miter" stroke-miterlimit="2" stroke-opacity="1" stroke-width="0.395" transform="matrix(2.53165,0,0,2.53165,-360.759,-112.658)"><polyline fill="none" points="163,63 164,63" vector-effect="none"/></g><defs><clipPath id="clip24"><path d="M150,47 L215,47 L215,103 L150,103 L150,47 z"/></clipPath></defs><g clip-path="url(#clip24)" fill="none" opacity="1" stroke="#000000" stroke-linecap="butt" stroke-linejoin="miter" stroke-miterlimit="2" stroke-opacity="1" stroke-width="0.395" transform="matrix(2.53165,0,0,2.53165,-360.759,-112.658)"><polyline fill="none" points="164,63 165,63" vector-effect="none"/></g><defs><clipPath id="clip25"><path d="M150,47 L215,47 L215,103 L150,103 L150,47 z"/></clipPath></defs><g clip-path="url(#clip25)" fill="none" opacity="1" stroke="#000000" stroke-linecap="butt" stroke-linejoin="miter" stroke-miterlimit="2" stroke-opacity="1" stroke-width="0.395" transform="matrix(2.53165,0,0,2.53165,-360.759,-112.658)"><polyline fill="none" points="165,63 166,63" vector-effect="none"/></g><defs><clipPath id="clip26"><path d="M150,47 L215,47 L215,103 L150,103 L150,47 z"/></clipPath></defs><g clip-path="url(#clip26)" fill="none" opacity="1" stroke="#000000" stroke-linecap="butt" stroke-linejoin="miter" stroke-miterlimit="2" stroke-opacity="1" stroke-width="0.395" transform="matrix(2.53165,0,0,2.53165,-360.759,-112.658)"><polyline fill="none" points="166,63 167,63" vector-effect="none"/></g><defs><clipPath id="clip27"><path d="M150,47 L215,47 L215,103 L150,103 L150,47 z"/></clipPath></defs><g clip-path="url(#clip27)" fill="none" opacity="1" stroke="#000000" stroke-linecap="butt" stroke-linejoin="miter" stroke-miterlimit="2" stroke-opacity="1" stroke-width="0.395" transform="matrix(2.53165,0,0,2.53165,-360.759,-112.658)"><polyline fill="none" points="167,63 168,63" vector-effect="none"/></g><defs><clipPath id="clip28"><path d="M150,47 L215,47 L215,103 L150,103 L150,47 z"/></clipPath></defs><g clip-path="url(#clip28)" fill="none" opacity="1" stroke="#000000" stroke-linecap="butt" stroke-linejoin="miter" stroke-miterlimit="2" stroke-opacity="1" stroke-width="0.395" transform="matrix(2.53165,0,0,2.53165,-360.759,-112.658)"><polyline fill="none" points="168,63 169,63" vector-effect="none"/></g><defs><clipPath id="clip29"><path d="M150,47 L215,47 L215,103 L150,103 L150,47 z"/></clipPath></defs><g clip-path="url(#clip29)" fill="none" opacity="1" stroke="#000000" stroke-linecap="butt" stroke-linejoin="miter" stroke-miterlimit="2" stroke-opacity="1" stroke-width="0.395" transform="matrix(2.53165,0,0,2.53165,-360.759,-112.658)"><polyline fill="none" points="169,63 170,63" vector-effect="none"/></g><defs><clipPath id="clip30"><path d="M150,47 L215,47 L215,103 L150,103 L150,47 z"/></clipPath></defs><g clip-path="url(#clip30)" fill="none" opacity="1" stroke="#000000" stroke-linecap="butt" stroke-linejoin="miter" stroke-miterlimit="2" stroke-opacity="1" stroke-width="0.395" transform="matrix(2.53165,0,0,2.53165,-360.759,-112.658)"><polyline fill="none" points="170,63 171,63" vector-effect="none"/></g><defs><clipPath id="clip31"><path d="M150,47 L215,47 L215,103 L150,103 L150,47 z"/></clipPath></defs><g clip-path="url(#clip31)" fill="none" opacity="1" stroke="#000000" stroke-linecap="butt" stroke-linejoin="miter" stroke-miterlimit="2" stroke-opacity="1" stroke-width="0.395" transform="matrix(2.53165,0,0,2.53165,-360.759,-112.658)"><polyline fill="none" points="171,63 172,63" vector-effect="none"/></g><defs><clipPath id="clip32"><path d="M150,47 L215,47 L215,103 L150,103 L150,47 z"/></clipPath></defs><g clip-path="url(#clip32)" fill="none" opacity="1" stroke="#000000" stroke-linecap="butt" stroke-linejoin="miter" stroke-miterlimit="2" stroke-opacity="1" stroke-width="0.395" transform="matrix(2.53165,0,0,2.53165,-360.759,-112.658)"><polyline fill="none" points="172,63 173,63" vector-effect="none"/></g><defs><clipPath id="clip33"><path d="M150,47 L215,47 L215,103 L150,103 L150,47 z"/></clipPath></defs><g clip-path="url(#clip33)" fill="none" opacity="1" stroke="#000000" stroke-linecap="butt" stroke-linejoin="miter" stroke-miterlimit="2" stroke-opacity="1" stroke-width="0.395" transform="matrix(2.53165,0,0,2.53165,-360.759,-112.658)"><polyline fill="none" points="173,63 174,63" vector-effect="none"/></g><defs><clipPath id="clip34"><path d="M150,47 L215,47 L215,103 L150,103 L150,47 z"/></clipPath></defs><g clip-path="url(#clip34)" fill="none" opacity="1" stroke="#000000" stroke-linecap="butt" stroke-linejoin="miter" stroke-miterlimit="2" stroke-opacity="1" stroke-width="0.395" transform="matrix(2.53165,0,0,2.53165,-360.759,-112.658)"><polyline fill="none" points="174,63 175,63" vector-effect="none"/></g><defs><clipPath id="clip35"><path d="M150,47 L215,47 L215,103 L150,103 L150,47 z"/></clipPath></defs><g clip-path="url(#clip35)" fill="none" opacity="1" stroke="#000000" stroke-linecap="butt" stroke-linejoin="miter" stroke-miterlimit="2" stroke-opacity="1" stroke-width="0.395" transform="matrix(2.53165,0,0,2.53165,-360.759,-112.658)"><polyline fill="none" points="175,63 176,63" vector-effect="none"/></g><defs><clipPath id="clip36"><path d="M150,47 L215,47 L215,103 L150,103 L150,47 z"/></clipPath></defs><g clip-path="url(#clip36)" fill="none" opacity="1" stroke="#000000" stroke-linecap="butt" stroke-linejoin="miter" stroke-miterlimit="2" stroke-opacity="1" stroke-width="0.395" transform="matrix(2.53165,0,0,2.53165,-360.759,-112.658)"><polyline fill="none" points="176,63 177,63" vector-effect="none"/></g><defs><clipPath id="clip37"><path d="M150,47 L215,47 L215,103 L150,103 L150,47 z"/></clipPath></defs><g clip-path="url(#clip37)" fill="none" opacity="1" stroke="#000000" stroke-linecap="butt" stroke-linejoin="miter" stroke-miterlimit="2" stroke-opacity="1" stroke-width="0.395" transform="matrix(2.53165,0,0,2.53165,-360.759,-112.658)"><polyline fill="none" points="177,63 178,63" vector-effect="none"/></g><defs><clipPath id="clip38"><path d="M150,47 L215,47 L215,103 L150,103 L150,47 z"/></clipPath></defs><g clip-path="url(#clip38)" fill="none" opacity="1" stroke="#000000" stroke-linecap="butt" stroke-linejoin="miter" stroke-miterlimit="2" stroke-opacity="1" stroke-width="0.395" transform="matrix(2.53165,0,0,2.53165,-360.759,-112.658)"><polyline fill="none" points="178,63 179,63" vector-effect="none"/></g><defs><clipPath id="clip39"><path d="M150,47 L215,47 L215,103 L150,103 L150,47 z"/></clipPath></defs><g clip-path="url(#clip39)" fill="none" opacity="1" stroke="#000000" stroke-linecap="butt" stroke-linejoin="miter" stroke-miterlimit="2" stroke-opacity="1" stroke-width="0.395" transform="matrix(2.53165,0,0,2.53165,-360.759,-112.658)"><polyline fill="none" points="179,63 180,63" vector-effect="none"/></g><defs><clipPath id="clip40"><path d="M150,47 L215,47 L215,103 L150,103 L150,47 z"/></clipPath></defs><g clip-path="url(#clip40)" fill="none" opacity="1" stroke="#000000" stroke-linecap="butt" stroke-linejoin="miter" stroke-miterlimit="2" stroke-opacity="1" stroke-width="0.395" transform="matrix(2.53165,0,0,2.53165,-360.759,-112.658)"><polyline fill="none" points="180,63 181,63" vector-effect="none"/></g><defs><clipPath id="clip41"><path d="M150,47 L215,47 L215,103 L150,103 L150,47 z"/></clipPath></defs><g clip-path="url(#clip41)" fill="none" opacity="1" stroke="#000000" stroke-linecap="butt" stroke-linejoin="miter" stroke-miterlimit="2" stroke-opacity="1" stroke-width="0.395" transform="matrix(2.53165,0,0,2.53165,-360.759,-112.658)"><polyline fill="none" points="181,63 182,63" vector-effect="none"/></g><defs><clipPath id="clip42"><path d="M150,47 L215,47 L215,103 L150,103 L150,47 z"/></clipPath></defs><g clip-path="url(#clip42)" fill="none" opacity="1" stroke="#000000" stroke-linecap="butt" stroke-linejoin="miter" stroke-miterlimit="2" stroke-opacity="1" stroke-width="0.395" transform="matrix(2.53165,0,0,2.53165,-360.759,-112.658)"><polyline fill="none" points="182,63 183,64" vector-effect="none"/></g><defs><clipPath id="clip43"><path d="M150,47 L215,47 L215,103 L150,103 L150,47 z"/></clipPath></defs><g clip-path="url(#clip43)" fill="none" opacity="1" stroke="#000000" stroke-linecap="butt" stroke-linejoin="miter" stroke-miterlimit="2" stroke-opacity="1" stroke-width="0.395" transform="matrix(2.53165,0,0,2.53165,-360.759,-112.658)"><polyline fill="none" points="183,64 184,64" vector-effect="none"/></g><defs><clipPath id="clip44"><path d="M150,47 L215,47 L215,103 L150,103 L150,47 z"/></clipPath></defs><g clip-path="url(#clip44)" fill="none" opacity="1" stroke="#000000" stroke-linecap="butt" stroke-linejoin="miter" stroke-miterlimit="2" stroke-opacity="1" stroke-width="0.395" transform="matrix(2.53165,0,0,2.53165,-360.759,-112.658)"><polyline fill="none" points="184,64 185,66" vector-effect="none"/></g><defs><clipPath id="clip45"><path d="M150,47 L215,47 L215,103 L150,103 L150,47 z"/></clipPath></defs><g clip-path="url(#clip45)" fill="none" opacity="1" stroke="#000000" stroke-linecap="butt" stroke-linejoin="miter" stroke-miterlimit="2" stroke-opacity="1" stroke-width="0.395" transform="matrix(2.53165,0,0,2.53165,-360.759,-112.658)"><polyline fill="none" points="185,66 186,67" vector-effect="none"/></g><defs><clipPath id="clip46"><path d="M150,47 L215,47 L215,103 L150,103 L150,47 z"/></clipPath></defs><g clip-path="url(#clip46)" fill="none" opacity="1" stroke="#000000" stroke-linecap="butt" stroke-linejoin="miter" stroke-miterlimit="2" stroke-opacity="1" stroke-width="0.395" transform="matrix(2.53165,0,0,2.53165,-360.759,-112.658)"><polyline fill="none" points="186,67 187,68" vector-effect="none"/></g><defs><clipPath id="clip47"><path d="M150,47 L215,47 L215,103 L150,103 L150,47 z"/></clipPath></defs><g clip-path="url(#clip47)" fill="none" opacity="1" stroke="#000000" stroke-linecap="butt" stroke-linejoin="miter" stroke-miterlimit="2" stroke-opacity="1" stroke-width="0.395" transform="matrix(2.53165,0,0,2.53165,-360.759,-112.658)"><polyline fill="none" points="187,68 188,69" vector-effect="none"/></g><defs><clipPath id="clip48"><path d="M150,47 L215,47 L215,103 L150,103 L150,47 z"/></clipPath></defs><g clip-path="url(#clip48)" fill="none" opacity="1" stroke="#000000" stroke-linecap="butt" stroke-linejoin="miter" stroke-miterlimit="2" stroke-opacity="1" stroke-width="0.395" transform="matrix(2.53165,0,0,2.53165,-360.759,-112.658)"><polyline fill="none" points="188,69 189,70" vector-effect="none"/></g><defs><clipPath id="clip49"><path d="M150,47 L215,47 L215,103 L150,103 L150,47 z"/></clipPath></defs><g clip-path="url(#clip49)" fill="none" opacity="1" stroke="#000000" stroke-linecap="butt" stroke-linejoin="miter" stroke-miterlimit="2" stroke-opacity="1" stroke-width="0.395" transform="matrix(2.53165,0,0,2.53165,-360.759,-112.658)"><polyline fill="none" points="189,70 190,71" vector-effect="none"/></g><defs><clipPath id="clip50"><path d="M150,47 L215,47 L215,103 L150,103 L150,47 z"/></clipPath></defs><g clip-path="url(#clip50)" fill="none" opacity="1" stroke="#000000" stroke-linecap="butt" stroke-linejoin="miter" stroke-miterlimit="2" stroke-opacity="1" stroke-width="0.395" transform="matrix(2.53165,0,0,2.53165,-360.759,-112.658)"><polyline fill="none" points="190,71 190,73" vector-effect="none"/></g><defs><clipPath id="clip51"><path d="M150,47 L215,47 L215,103 L150,103 L150,47 z"/></clipPath></defs><g clip-path="url(#clip51)" fill="none" opacity="1" stroke="#000000" stroke-linecap="butt" stroke-linejoin="miter" stroke-miterlimit="2" stroke-opacity="1" stroke-width="0.395" transform="matrix(2.53165,0,0,2.53165,-360.759,-112.658)"><polyline fill="none" points="190,73 191,74" vector-effect="none"/></g><defs><clipPath id="clip52"><path d="M150,47 L215,47 L215,103 L150,103 L150,47 z"/></clipPath></defs><g clip-path="url(#clip52)" fill="none" opacity="1" stroke="#000000" stroke-linecap="butt" stroke-linejoin="miter" stroke-miterlimit="2" stroke-opacity="1" stroke-width="0.395" transform="matrix(2.53165,0,0,2.53165,-360.759,-112.658)"><polyline fill="none" points="191,74 192,75" vector-effect="none"/></g><defs><clipPath id="clip53"><path d="M150,47 L215,47 L215,103 L150,103 L150,47 z"/></clipPath></defs><g clip-path="url(#clip53)" fill="none" opacity="1" stroke="#000000" stroke-linecap="butt" stroke-linejoin="miter" stroke-miterlimit="2" stroke-opacity="1" stroke-width="0.395" transform="matrix(2.53165,0,0,2.53165,-360.759,-112.658)"><polyline fill="none" points="192,75 193,76" vector-effect="none"/></g><defs><clipPath id="clip54"><path d="M150,47 L215,47 L215,103 L150,103 L150,47 z"/></clipPath></defs><g clip-path="url(#clip54)" fill="none" opacity="1" stroke="#000000" stroke-linecap="butt" stroke-linejoin="miter" stroke-miterlimit="2" stroke-opacity="1" stroke-width="0.395" transform="matrix(2.53165,0,0,2.53165,-360.759,-112.658)"><polyline fill="none" points="193,76 194,77" vector-effect="none"/></g><defs><clipPath id="clip55"><path d="M150,47 L215,47 L215,103 L150,103 L150,47 z"/></clipPath></defs><g clip-path="url(#clip55)" fill="none" opacity="1" stroke="#000000" stroke-linecap="butt" stroke-linejoin="miter" stroke-miterlimit="2" stroke-opacity="1" stroke-width="0.395" transform="matrix(2.53165,0,0,2.53165,-360.759,-112.658)"><polyline fill="none" points="194,77 195,79" vector-effect="none"/></g><defs><clipPath id="clip56"><path d="M150,47 L215,47 L215,103 L150,103 L150,47 z"/></clipPath></defs><g clip-path="url(#clip56)" fill="none" opacity="1" stroke="#000000" stroke-linecap="butt" stroke-linejoin="miter" stroke-miterlimit="2" stroke-opacity="1" stroke-width="0.395" transform="matrix(2.53165,0,0,2.53165,-360.759,-112.658)"><polyline fill="none" points="195,79 196,80" vector-effect="none"/></g><defs><clipPath id="clip57"><path d="M150,47 L215,47 L215,103 L150,103 L150,47 z"/></clipPath></defs><g clip-path="url(#clip57)" fill="none" opacity="1" stroke="#000000" stroke-linecap="butt" stroke-linejoin="miter" stroke-miterlimit="2" stroke-opacity="1" stroke-width="0.395" transform="matrix(2.53165,0,0,2.53165,-360.759,-112.658)"><polyline fill="none" points="196,80 197,81" vector-effect="none"/></g><defs><clipPath id="clip58"><path d="M150,47 L215,47 L215,103 L150,103 L150,47 z"/></clipPath></defs><g clip-path="url(#clip58)" fill="none" opacity="1" stroke="#000000" stroke-linecap="butt" stroke-linejoin="miter" stroke-miterlimit="2" stroke-opacity="1" stroke-width="0.395" transform="matrix(2.53165,0,0,2.53165,-360.759,-112.658)"><polyline fill="none" points="197,81 198,82" vector-effect="none"/></g><defs><clipPath id="clip59"><path d="M150,47 L215,47 L215,103 L150,103 L150,47 z"/></clipPath></defs><g clip-path="url(#clip59)" fill="none" opacity="1" stroke="#000000" stroke-linecap="butt" stroke-linejoin="miter" stroke-miterlimit="2" stroke-opacity="1" stroke-width="0.395" transform="matrix(2.53165,0,0,2.53165,-360.759,-112.658)"><polyline fill="none" points="198,82 199,83" vector-effect="none"/></g><defs><clipPath id="clip60"><path d="M150,47 L215,47 L215,103 L150,103 L150,47 z"/></clipPath></defs><g clip-path="url(#clip60)" fill="none" opacity="1" stroke="#000000" stroke-linecap="butt" stroke-linejoin="miter" stroke-miterlimit="2" stroke-opacity="1" stroke-width="0.395" transform="matrix(2.53165,0,0,2.53165,-360.759,-112.658)"><polyline fill="none" points="199,83 200,85" vector-effect="none"/></g><defs><clipPath id="clip61"><path d="M150,47 L215,47 L215,103 L150,103 L150,47 z"/></clipPath></defs><g clip-path="url(#clip61)" fill="none" opacity="1" stroke="#000000" stroke-linecap="butt" stroke-linejoin="miter" stroke-miterlimit="2" stroke-opacity="1" stroke-width="0.395" transform="matrix(2.53165,0,0,2.53165,-360.759,-112.658)"><polyline fill="none" points="200,85 201,86" vector-effect="none"/></g><defs><clipPath id="clip62"><path d="M150,47 L215,47 L215,103 L150,103 L150,47 z"/></clipPath></defs><g clip-path="url(#clip62)" fill="none" opacity="1" stroke="#000000" stroke-linecap="butt" stroke-linejoin="miter" stroke-miterlimit="2" stroke-opacity="1" stroke-width="0.395" transform="matrix(2.53165,0,0,2.53165,-360.759,-112.658)"><polyline fill="none" points="201,86 202,87" vector-effect="none"/></g><defs><clipPath id="clip63"><path d="M150,47 L215,47 L215,103 L150,103 L150,47 z"/></clipPath></defs><g clip-path="url(#clip63)" fill="none" opacity="1" stroke="#000000" stroke-linecap="butt" stroke-linejoin="miter" stroke-miterlimit="2" stroke-opacity="1" stroke-width="0.395" transform="matrix(2.53165,0,0,2.53165,-360.759,-112.658)"><polyline fill="none" points="202,87 203,88" vector-effect="none"/></g><defs><clipPath id="clip64"><path d="M150,47 L215,47 L215,103 L150,103 L150,47 z"/></clipPath></defs><g clip-path="url(#clip64)" fill="none" opacity="1" stroke="#000000" stroke-linecap="butt" stroke-linejoin="miter" stroke-miterlimit="2" stroke-opacity="1" stroke-width="0.395" transform="matrix(2.53165,0,0,2.53165,-360.759,-112.658)"><polyline fill="none" points="203,88 204,89" vector-effect="none"/></g><defs><clipPath id="clip65"><path d="M150,47 L215,47 L215,103 L150,103 L150,47 z"/></clipPath></defs><g clip-path="url(#clip65)" fill="none" opacity="1" stroke="#000000" stroke-linecap="butt" stroke-linejoin="miter" stroke-miterlimit="2" stroke-opacity="1" stroke-width="0.395" transform="matrix(2.53165,0,0,2.53165,-360.759,-112.658)"><polyline fill="none" points="204,89 205,90" vector-effect="none"/></g><defs><clipPath id="clip66"><path d="M150,47 L215,47 L215,103 L150,103 L150,47 z"/></clipPath></defs><g clip-path="url(#clip66)" fill="none" opacity="1" stroke="#000000" stroke-linecap="butt" stroke-linejoin="miter" stroke-miterlimit="2" stroke-opacity="1" stroke-width="0.395" transform="matrix(2.53165,0,0,2.53165,-360.759,-112.658)"><polyline fill="none" points="205,90 205,92" vector-effect="none"/></g><defs><clipPath id="clip67"><path d="M150,47 L215,47 L215,103 L150,103 L150,47 z"/></clipPath></defs><g clip-path="url(#clip67)" fill="none" opacity="1" stroke="#000000" stroke-linecap="butt" stroke-linejoin="miter" stroke-miterlimit="2" stroke-opacity="1" stroke-width="0.395" transform="matrix(2.53165,0,0,2.53165,-360.759,-112.658)"><polyline fill="none" points="205,92 206,93" vector-effect="none"/></g><defs><clipPath id="clip68"><path d="M150,47 L215,47 L215,103 L150,103 L150,47 z"/></clipPath></defs><g clip-path="url(#clip68)" fill="none" opacity="1" stroke="#000000" stroke-linecap="butt" stroke-linejoin="miter" stroke-miterlimit="2" stroke-opacity="1" stroke-width="0.395" transform="matrix(2.53165,0,0,2.53165,-360.759,-112.658)"><polyline fill="none" points="206,93 207,94" vector-effect="none"/></g><defs><clipPath id="clip69"><path d="M150,47 L215,47 L215,103 L150,103 L150,47 z"/></clipPath></defs><g clip-path="url(#clip69)" fill="none" opacity="1" stroke="#000000" stroke-linecap="butt" stroke-linejoin="miter" stroke-miterlimit="2" stroke-opacity="1" stroke-width="0.395" transform="matrix(2.53165,0,0,2.53165,-360.759,-112.658)"><polyline fill="none" points="207,94 208,95" vector-effect="none"/></g><defs><clipPath id="clip70"><path d="M150,47 L215,47 L215,103 L150,103 L150,47 z"/></clipPath></defs><g clip-path="url(#clip70)" fill="none" opacity="1" stroke="#000000" stroke-linecap="butt" stroke-linejoin="miter" stroke-miterlimit="2" stroke-opacity="1" stroke-width="0.395" transform="matrix(2.53165,0,0,2.53165,-360.759,-112.658)"><polyline fill="none" points="208,95 209,96" vector-effect="none"/></g><defs><clipPath id="clip71"><path d="M150,47 L215,47 L215,103 L150,103 L150,47 z"/></clipPath></defs><g clip-path="url(#clip71)" fill="none" opacity="1" stroke="#000000" stroke-linecap="butt" stroke-linejoin="miter" stroke-miterlimit="2" stroke-opacity="1" stroke-width="0.395" transform="matrix(2.53165,0,0,2.53165,-360.759,-112.658)"><polyline fill="none" points="209,96 210,98" vector-effect="none"/></g><defs><clipPath id="clip72"><path d="M150,47 L215,47 L215,103 L150,103 L150,47 z"/></clipPath></defs><g clip-path="url(#clip72)" fill="none" opacity="1" stroke="#000000" stroke-linecap="butt" stroke-linejoin="miter" stroke-miterlimit="2" stroke-opacity="1" stroke-width="0.395" transform="matrix(2.53165,0,0,2.53165,-360.759,-112.658)"><polyline fill="none" points="210,98 211,99" vector-effect="none"/></g><defs><clipPath id="clip73"><path d="M150,47 L215,47 L215,103 L150,103 L150,47 z"/></clipPath></defs><g clip-path="url(#clip73)" fill="none" opacity="1" stroke="#000000" stroke-linecap="butt" stroke-linejoin="miter" stroke-miterlimit="2" stroke-opacity="1" stroke-width="0.395" transform="matrix(2.53165,0,0,2.53165,-360.759,-112.658)"><polyline fill="none" points="211,99 212,100" vector-effect="none"/></g><defs><clipPath id="clip75"><path d="M-15,-36 L318,-36 L318,251 L-15,251 L-15,-36 z"/></clipPath></defs><g clip-path="url(#clip75)" fill="none" opacity="1" stroke="#000000" stroke-linecap="butt" stroke-linejoin="miter" stroke-miterlimit="2" stroke-opacity="1" stroke-width="0.395" transform="matrix(0.494462,0,0,0.494462,25.3165,22.7848)"><text fill="#000000" fill-opacity="1" font-family="Liberation Sans" font-size="40" font-style="normal" font-weight="400" stroke="none" textLength="100" x="0" xml:space="preserve" y="17.9219">butter</text></g><defs><clipPath id="clip81"><path d="M-7,-2 L72,-2 L72,58 L-7,58 L-7,-2 z"/></clipPath></defs><g clip-path="url(#clip81)" fill="none" opacity="1" stroke="#000000" stroke-linecap="butt" stroke-linejoin="miter" stroke-miterlimit="2" stroke-opacity="1" stroke-width="0.689666" transform="matrix(2.53165,0,0,2.53165,17.7215,5.06329)"><path d="M0,0 L65,0 L65,56 L0,56 L0,0 z" fill-rule="evenodd" vector-effect="none"/></g></g></svg>
