<?xml version="1.0" encoding="UTF-8"?><svg width="52.9167mm" height="45.2437mm" viewBox="0 0 200 171" xmlns="http://www.w3.org/2000/svg" xmlns:xlink="http://www.w3.org/1999/xlink"><g fill="none" stroke="black" stroke-width="1" fill-rule="evenodd" stroke-linecap="square" stroke-linejoin="bevel"><g clip-path="none" fill="none" opacity="1" stroke="none" stroke-opacity="0" transform="matrix(1,0,0,1,0,0)"><path d="M0,0 L200,0 L200,171 L0,171 L0,0 z" fill-rule="evenodd" vector-effect="none"/></g><defs><clipPath id="clip3"><path d="M-2,-2 L68,-2 L68,58 L-2,58 L-2,-2 z"/></clipPath></defs><g clip-path="url(#clip3)" fill="#ffffff" fill-opacity="1" opacity="1" stroke="none" stroke-opacity="0" transform="matrix(2.85714,0,0,2.85714,5.71429,5.71429)"><path d="M0,0 L66,0 L66,56 L0,56 L0,0 z" fill-rule="evenodd" vector-effect="none"/></g><defs><clipPath id="clip8"><path d="M-15,-36 L323,-36 L323,251 L-15,251 L-15,-36 z"/></clipPath></defs><g clip-path="url(#clip8)" fill="none" opacity="1" stroke="#000000" stroke-linecap="butt" stroke-linejoin="miter" stroke-miterlimit="2" stroke-opacity="1" stroke-width="0.35" transform="matrix(0.558036,0,0,0.558036,14.2857,25.7143)"><text fill="#000000" fill-opacity="1" font-family="Liberation Sans" font-size="40" font-style="normal" font-weight="400" stroke="none" textLength="149" x="0" xml:space="preserve" y="17.9219">FDATool</text></g><defs><clipPath id="clip10"><path d="M264,47 L330,47 L330,103 L264,103 L264,47 z"/></clipPath></defs><g clip-path="url(#clip10)" fill="none" opacity="1" stroke="#000000" stroke-linecap="butt" stroke-linejoin="miter" stroke-miterlimit="2" stroke-opacity="1" stroke-width="0.35" transform="matrix(2.85714,0,0,2.85714,-747.143,-127.143)"><polyline fill="none" points="268,69 300,69" vector-effect="none"/></g><defs><clipPath id="clip11"><path d="M264,47 L330,47 L330,103 L264,103 L264,47 z"/></clipPath></defs><g clip-path="url(#clip11)" fill="none" opacity="1" stroke="#000000" stroke-linecap="butt" stroke-linejoin="miter" stroke-miterlimit="2" stroke-opacity="1" stroke-width="0.35" transform="matrix(2.85714,0,0,2.85714,-747.143,-127.143)"><polyline fill="none" points="279,69 279,78" vector-effect="none"/></g><defs><clipPath id="clip12"><path d="M264,47 L330,47 L330,103 L264,103 L264,47 z"/></clipPath></defs><g clip-path="url(#clip12)" fill="none" opacity="1" stroke="#000000" stroke-linecap="butt" stroke-linejoin="miter" stroke-miterlimit="2" stroke-opacity="1" stroke-width="0.35" transform="matrix(2.85714,0,0,2.85714,-747.143,-127.143)"><polyline fill="none" points="300,69 300,78" vector-effect="none"/></g><defs><clipPath id="clip13"><path d="M264,47 L330,47 L330,103 L264,103 L264,47 z"/></clipPath></defs><g clip-path="url(#clip13)" fill="none" opacity="1" stroke="#000000" stroke-linecap="butt" stroke-linejoin="miter" stroke-miterlimit="2" stroke-opacity="1" stroke-width="0.35" transform="matrix(2.85714,0,0,2.85714,-747.143,-127.143)"><polyline fill="none" points="279,87 279,96" vector-effect="none"/></g><defs><clipPath id="clip14"><path d="M264,47 L330,47 L330,103 L264,103 L264,47 z"/></clipPath></defs><g clip-path="url(#clip14)" fill="none" opacity="1" stroke="#000000" stroke-linecap="butt" stroke-linejoin="miter" stroke-miterlimit="2" stroke-opacity="1" stroke-width="0.35" transform="matrix(2.85714,0,0,2.85714,-747.143,-127.143)"><polyline fill="none" points="300,87 300,99" vector-effect="none"/></g><defs><clipPath id="clip15"><path d="M264,47 L330,47 L330,103 L264,103 L264,47 z"/></clipPath></defs><g clip-path="url(#clip15)" fill="none" opacity="1" stroke="#000000" stroke-linecap="butt" stroke-linejoin="miter" stroke-miterlimit="2" stroke-opacity="1" stroke-width="0.35" transform="matrix(2.85714,0,0,2.85714,-747.143,-127.143)"><polyline fill="none" points="279,96 311,96" vector-effect="none"/></g><defs><clipPath id="clip16"><path d="M264,47 L330,47 L330,103 L264,103 L264,47 z"/></clipPath></defs><g clip-path="url(#clip16)" fill="none" opacity="1" stroke="#000000" stroke-linecap="butt" stroke-linejoin="miter" stroke-miterlimit="2" stroke-opacity="1" stroke-width="0.35" transform="matrix(2.85714,0,0,2.85714,-747.143,-127.143)"><polyline fill="none" points="287,67 292,69" vector-effect="none"/></g><defs><clipPath id="clip17"><path d="M264,47 L330,47 L330,103 L264,103 L264,47 z"/></clipPath></defs><g clip-path="url(#clip17)" fill="none" opacity="1" stroke="#000000" stroke-linecap="butt" stroke-linejoin="miter" stroke-miterlimit="2" stroke-opacity="1" stroke-width="0.35" transform="matrix(2.85714,0,0,2.85714,-747.143,-127.143)"><polyline fill="none" points="292,69 287,71" vector-effect="none"/></g><defs><clipPath id="clip18"><path d="M264,47 L330,47 L330,103 L264,103 L264,47 z"/></clipPath></defs><g clip-path="url(#clip18)" fill="none" opacity="1" stroke="#000000" stroke-linecap="butt" stroke-linejoin="miter" stroke-miterlimit="2" stroke-opacity="1" stroke-width="0.35" transform="matrix(2.85714,0,0,2.85714,-747.143,-127.143)"><polyline fill="none" points="292,64 294,64" vector-effect="none"/></g><defs><clipPath id="clip19"><path d="M264,47 L330,47 L330,103 L264,103 L264,47 z"/></clipPath></defs><g clip-path="url(#clip19)" fill="none" opacity="1" stroke="#000000" stroke-linecap="butt" stroke-linejoin="miter" stroke-miterlimit="2" stroke-opacity="1" stroke-width="0.35" transform="matrix(2.85714,0,0,2.85714,-747.143,-127.143)"><polyline fill="none" points="294,64 292,66" vector-effect="none"/></g><defs><clipPath id="clip20"><path d="M264,47 L330,47 L330,103 L264,103 L264,47 z"/></clipPath></defs><g clip-path="url(#clip20)" fill="none" opacity="1" stroke="#000000" stroke-linecap="butt" stroke-linejoin="miter" stroke-miterlimit="2" stroke-opacity="1" stroke-width="0.35" transform="matrix(2.85714,0,0,2.85714,-747.143,-127.143)"><polyline fill="none" points="292,66 294,66" vector-effect="none"/></g><defs><clipPath id="clip21"><path d="M264,47 L330,47 L330,103 L264,103 L264,47 z"/></clipPath></defs><g clip-path="url(#clip21)" fill="none" opacity="1" stroke="#000000" stroke-linecap="butt" stroke-linejoin="miter" stroke-miterlimit="2" stroke-opacity="1" stroke-width="0.35" transform="matrix(2.85714,0,0,2.85714,-747.143,-127.143)"><polyline fill="none" points="295,63 297,63" vector-effect="none"/></g><defs><clipPath id="clip22"><path d="M264,47 L330,47 L330,103 L264,103 L264,47 z"/></clipPath></defs><g clip-path="url(#clip22)" fill="none" opacity="1" stroke="#000000" stroke-linecap="butt" stroke-linejoin="miter" stroke-miterlimit="2" stroke-opacity="1" stroke-width="0.35" transform="matrix(2.85714,0,0,2.85714,-747.143,-127.143)"><polyline fill="none" points="299,61 299,65" vector-effect="none"/></g><defs><clipPath id="clip23"><path d="M264,47 L330,47 L330,103 L264,103 L264,47 z"/></clipPath></defs><g clip-path="url(#clip23)" fill="none" opacity="1" stroke="#000000" stroke-linecap="butt" stroke-linejoin="miter" stroke-miterlimit="2" stroke-opacity="1" stroke-width="0.35" transform="matrix(2.85714,0,0,2.85714,-747.143,-127.143)"><polyline fill="none" points="274,78 284,78" vector-effect="none"/></g><defs><clipPath id="clip24"><path d="M264,47 L330,47 L330,103 L264,103 L264,47 z"/></clipPath></defs><g clip-path="url(#clip24)" fill="none" opacity="1" stroke="#000000" stroke-linecap="butt" stroke-linejoin="miter" stroke-miterlimit="2" stroke-opacity="1" stroke-width="0.35" transform="matrix(2.85714,0,0,2.85714,-747.143,-127.143)"><polyline fill="none" points="284,78 279,87" vector-effect="none"/></g><defs><clipPath id="clip25"><path d="M264,47 L330,47 L330,103 L264,103 L264,47 z"/></clipPath></defs><g clip-path="url(#clip25)" fill="none" opacity="1" stroke="#000000" stroke-linecap="butt" stroke-linejoin="miter" stroke-miterlimit="2" stroke-opacity="1" stroke-width="0.35" transform="matrix(2.85714,0,0,2.85714,-747.143,-127.143)"><polyline fill="none" points="279,87 274,78" vector-effect="none"/></g><defs><clipPath id="clip26"><path d="M264,47 L330,47 L330,103 L264,103 L264,47 z"/></clipPath></defs><g clip-path="url(#clip26)" fill="none" opacity="1" stroke="#000000" stroke-linecap="butt" stroke-linejoin="miter" stroke-miterlimit="2" stroke-opacity="1" stroke-width="0.35" transform="matrix(2.85714,0,0,2.85714,-747.143,-127.143)"><polyline fill="none" points="295,78 305,78" vector-effect="none"/></g><defs><clipPath id="clip27"><path d="M264,47 L330,47 L330,103 L264,103 L264,47 z"/></clipPath></defs><g clip-path="url(#clip27)" fill="none" opacity="1" stroke="#000000" stroke-linecap="butt" stroke-linejoin="miter" stroke-miterlimit="2" stroke-opacity="1" stroke-width="0.35" transform="matrix(2.85714,0,0,2.85714,-747.143,-127.143)"><polyline fill="none" points="305,78 300,87" vector-effect="none"/></g><defs><clipPath id="clip28"><path d="M264,47 L330,47 L330,103 L264,103 L264,47 z"/></clipPath></defs><g clip-path="url(#clip28)" fill="none" opacity="1" stroke="#000000" stroke-linecap="butt" stroke-linejoin="miter" stroke-miterlimit="2" stroke-opacity="1" stroke-width="0.35" transform="matrix(2.85714,0,0,2.85714,-747.143,-127.143)"><polyline fill="none" points="300,87 295,78" vector-effect="none"/></g><defs><clipPath id="clip29"><path d="M264,47 L330,47 L330,103 L264,103 L264,47 z"/></clipPath></defs><g clip-path="url(#clip29)" fill="none" opacity="1" stroke="#000000" stroke-linecap="butt" stroke-linejoin="miter" stroke-miterlimit="2" stroke-opacity="1" stroke-width="0.35" transform="matrix(2.85714,0,0,2.85714,-747.143,-127.143)"><polyline fill="none" points="304,96 304,94" vector-effect="none"/></g><defs><clipPath id="clip30"><path d="M264,47 L330,47 L330,103 L264,103 L264,47 z"/></clipPath></defs><g clip-path="url(#clip30)" fill="none" opacity="1" stroke="#000000" stroke-linecap="butt" stroke-linejoin="miter" stroke-miterlimit="2" stroke-opacity="1" stroke-width="0.35" transform="matrix(2.85714,0,0,2.85714,-747.143,-127.143)"><polyline fill="none" points="304,94 302,93" vector-effect="none"/></g><defs><clipPath id="clip31"><path d="M264,47 L330,47 L330,103 L264,103 L264,47 z"/></clipPath></defs><g clip-path="url(#clip31)" fill="none" opacity="1" stroke="#000000" stroke-linecap="butt" stroke-linejoin="miter" stroke-miterlimit="2" stroke-opacity="1" stroke-width="0.35" transform="matrix(2.85714,0,0,2.85714,-747.143,-127.143)"><polyline fill="none" points="302,93 300,93" vector-effect="none"/></g><defs><clipPath id="clip32"><path d="M264,47 L330,47 L330,103 L264,103 L264,47 z"/></clipPath></defs><g clip-path="url(#clip32)" fill="none" opacity="1" stroke="#000000" stroke-linecap="butt" stroke-linejoin="miter" stroke-miterlimit="2" stroke-opacity="1" stroke-width="0.35" transform="matrix(2.85714,0,0,2.85714,-747.143,-127.143)"><polyline fill="none" points="300,93 298,93" vector-effect="none"/></g><defs><clipPath id="clip33"><path d="M264,47 L330,47 L330,103 L264,103 L264,47 z"/></clipPath></defs><g clip-path="url(#clip33)" fill="none" opacity="1" stroke="#000000" stroke-linecap="butt" stroke-linejoin="miter" stroke-miterlimit="2" stroke-opacity="1" stroke-width="0.35" transform="matrix(2.85714,0,0,2.85714,-747.143,-127.143)"><polyline fill="none" points="298,93 297,94" vector-effect="none"/></g><defs><clipPath id="clip34"><path d="M264,47 L330,47 L330,103 L264,103 L264,47 z"/></clipPath></defs><g clip-path="url(#clip34)" fill="none" opacity="1" stroke="#000000" stroke-linecap="butt" stroke-linejoin="miter" stroke-miterlimit="2" stroke-opacity="1" stroke-width="0.35" transform="matrix(2.85714,0,0,2.85714,-747.143,-127.143)"><polyline fill="none" points="297,94 297,96" vector-effect="none"/></g><defs><clipPath id="clip35"><path d="M264,47 L330,47 L330,103 L264,103 L264,47 z"/></clipPath></defs><g clip-path="url(#clip35)" fill="none" opacity="1" stroke="#000000" stroke-linecap="butt" stroke-linejoin="miter" stroke-miterlimit="2" stroke-opacity="1" stroke-width="0.35" transform="matrix(2.85714,0,0,2.85714,-747.143,-127.143)"><polyline fill="none" points="297,96 297,98" vector-effect="none"/></g><defs><clipPath id="clip36"><path d="M264,47 L330,47 L330,103 L264,103 L264,47 z"/></clipPath></defs><g clip-path="url(#clip36)" fill="none" opacity="1" stroke="#000000" stroke-linecap="butt" stroke-linejoin="miter" stroke-miterlimit="2" stroke-opacity="1" stroke-width="0.35" transform="matrix(2.85714,0,0,2.85714,-747.143,-127.143)"><polyline fill="none" points="297,98 298,99" vector-effect="none"/></g><defs><clipPath id="clip37"><path d="M264,47 L330,47 L330,103 L264,103 L264,47 z"/></clipPath></defs><g clip-path="url(#clip37)" fill="none" opacity="1" stroke="#000000" stroke-linecap="butt" stroke-linejoin="miter" stroke-miterlimit="2" stroke-opacity="1" stroke-width="0.35" transform="matrix(2.85714,0,0,2.85714,-747.143,-127.143)"><polyline fill="none" points="298,99 300,99" vector-effect="none"/></g><defs><clipPath id="clip38"><path d="M264,47 L330,47 L330,103 L264,103 L264,47 z"/></clipPath></defs><g clip-path="url(#clip38)" fill="none" opacity="1" stroke="#000000" stroke-linecap="butt" stroke-linejoin="miter" stroke-miterlimit="2" stroke-opacity="1" stroke-width="0.35" transform="matrix(2.85714,0,0,2.85714,-747.143,-127.143)"><polyline fill="none" points="300,99 302,99" vector-effect="none"/></g><defs><clipPath id="clip39"><path d="M264,47 L330,47 L330,103 L264,103 L264,47 z"/></clipPath></defs><g clip-path="url(#clip39)" fill="none" opacity="1" stroke="#000000" stroke-linecap="butt" stroke-linejoin="miter" stroke-miterlimit="2" stroke-opacity="1" stroke-width="0.35" transform="matrix(2.85714,0,0,2.85714,-747.143,-127.143)"><polyline fill="none" points="302,99 304,98" vector-effect="none"/></g><defs><clipPath id="clip40"><path d="M264,47 L330,47 L330,103 L264,103 L264,47 z"/></clipPath></defs><g clip-path="url(#clip40)" fill="none" opacity="1" stroke="#000000" stroke-linecap="butt" stroke-linejoin="miter" stroke-miterlimit="2" stroke-opacity="1" stroke-width="0.35" transform="matrix(2.85714,0,0,2.85714,-747.143,-127.143)"><polyline fill="none" points="304,98 304,96" vector-effect="none"/></g><defs><clipPath id="clip41"><path d="M264,47 L330,47 L330,103 L264,103 L264,47 z"/></clipPath></defs><g clip-path="url(#clip41)" fill="none" opacity="1" stroke="#000000" stroke-linecap="butt" stroke-linejoin="miter" stroke-miterlimit="2" stroke-opacity="1" stroke-width="0.35" transform="matrix(2.85714,0,0,2.85714,-747.143,-127.143)"><polyline fill="none" points="315,68 315,64" vector-effect="none"/></g><defs><clipPath id="clip42"><path d="M264,47 L330,47 L330,103 L264,103 L264,47 z"/></clipPath></defs><g clip-path="url(#clip42)" fill="none" opacity="1" stroke="#000000" stroke-linecap="butt" stroke-linejoin="miter" stroke-miterlimit="2" stroke-opacity="1" stroke-width="0.35" transform="matrix(2.85714,0,0,2.85714,-747.143,-127.143)"><polyline fill="none" points="308,66 312,63" vector-effect="none"/></g><defs><clipPath id="clip43"><path d="M264,47 L330,47 L330,103 L264,103 L264,47 z"/></clipPath></defs><g clip-path="url(#clip43)" fill="none" opacity="1" stroke="#000000" stroke-linecap="butt" stroke-linejoin="miter" stroke-miterlimit="2" stroke-opacity="1" stroke-width="0.35" transform="matrix(2.85714,0,0,2.85714,-747.143,-127.143)"><polyline fill="none" points="305,60 310,60" vector-effect="none"/></g><defs><clipPath id="clip44"><path d="M264,47 L330,47 L330,103 L264,103 L264,47 z"/></clipPath></defs><g clip-path="url(#clip44)" fill="none" opacity="1" stroke="#000000" stroke-linecap="butt" stroke-linejoin="miter" stroke-miterlimit="2" stroke-opacity="1" stroke-width="0.35" transform="matrix(2.85714,0,0,2.85714,-747.143,-127.143)"><polyline fill="none" points="310,56 312,57" vector-effect="none"/></g><defs><clipPath id="clip45"><path d="M264,47 L330,47 L330,103 L264,103 L264,47 z"/></clipPath></defs><g clip-path="url(#clip45)" fill="none" opacity="1" stroke="#000000" stroke-linecap="butt" stroke-linejoin="miter" stroke-miterlimit="2" stroke-opacity="1" stroke-width="0.35" transform="matrix(2.85714,0,0,2.85714,-747.143,-127.143)"><polyline fill="none" points="315,52 315,56" vector-effect="none"/></g><defs><clipPath id="clip46"><path d="M264,47 L330,47 L330,103 L264,103 L264,47 z"/></clipPath></defs><g clip-path="url(#clip46)" fill="none" opacity="1" stroke="#000000" stroke-linecap="butt" stroke-linejoin="miter" stroke-miterlimit="2" stroke-opacity="1" stroke-width="0.35" transform="matrix(2.85714,0,0,2.85714,-747.143,-127.143)"><polyline fill="none" points="322,54 318,57" vector-effect="none"/></g><defs><clipPath id="clip47"><path d="M264,47 L330,47 L330,103 L264,103 L264,47 z"/></clipPath></defs><g clip-path="url(#clip47)" fill="none" opacity="1" stroke="#000000" stroke-linecap="butt" stroke-linejoin="miter" stroke-miterlimit="2" stroke-opacity="1" stroke-width="0.35" transform="matrix(2.85714,0,0,2.85714,-747.143,-127.143)"><polyline fill="none" points="325,60 320,60" vector-effect="none"/></g><defs><clipPath id="clip48"><path d="M264,47 L330,47 L330,103 L264,103 L264,47 z"/></clipPath></defs><g clip-path="url(#clip48)" fill="#000000" fill-opacity="1" opacity="1" stroke="none" stroke-opacity="0" transform="matrix(2.85714,0,0,2.85714,-747.143,-127.143)"><path d="M314.5,59.5 L315.5,59.5 L315.5,60.5 L314.5,60.5 L314.5,59.5 z" fill-rule="evenodd" vector-effect="none"/></g><defs><clipPath id="clip49"><path d="M264,47 L330,47 L330,103 L264,103 L264,47 z"/></clipPath></defs><g clip-path="url(#clip49)" fill="none" opacity="1" stroke="#000000" stroke-linecap="square" stroke-linejoin="bevel" stroke-opacity="1" stroke-width="1" transform="matrix(2.85714,0,0,2.85714,-747.143,-127.143)"><polyline fill="none" points="315,60 325,69" vector-effect="none"/></g><defs><clipPath id="clip50"><path d="M264,47 L330,47 L330,103 L264,103 L264,47 z"/></clipPath></defs><g clip-path="url(#clip50)" fill="none" opacity="1" stroke="#000000" stroke-linecap="square" stroke-linejoin="bevel" stroke-opacity="1" stroke-width="1" transform="matrix(2.85714,0,0,2.85714,-747.143,-127.143)"><polyline fill="none" points="325,69 326,68" vector-effect="none"/></g><defs><clipPath id="clip51"><path d="M264,47 L330,47 L330,103 L264,103 L264,47 z"/></clipPath></defs><g clip-path="url(#clip51)" fill="none" opacity="1" stroke="#000000" stroke-linecap="square" stroke-linejoin="bevel" stroke-opacity="1" stroke-width="1" transform="matrix(2.85714,0,0,2.85714,-747.143,-127.143)"><polyline fill="none" points="326,68 315,60" vector-effect="none"/></g><defs><clipPath id="clip52"><path d="M264,47 L330,47 L330,103 L264,103 L264,47 z"/></clipPath></defs><g clip-path="url(#clip52)" fill="none" opacity="1" stroke="#000000" stroke-linecap="square" stroke-linejoin="bevel" stroke-opacity="1" stroke-width="1" transform="matrix(2.85714,0,0,2.85714,-747.143,-127.143)"><polyline fill="none" points="317,60 315,61" vector-effect="none"/></g><defs><clipPath id="clip53"><path d="M264,47 L330,47 L330,103 L264,103 L264,47 z"/></clipPath></defs><g clip-path="url(#clip53)" fill="none" opacity="1" stroke="#000000" stroke-linecap="square" stroke-linejoin="bevel" stroke-opacity="1" stroke-width="1" transform="matrix(2.85714,0,0,2.85714,-747.143,-127.143)"><polyline fill="none" points="325,67 324,68" vector-effect="none"/></g><defs><clipPath id="clip58"><path d="M-2,-2 L68,-2 L68,58 L-2,58 L-2,-2 z"/></clipPath></defs><g clip-path="url(#clip58)" fill="none" opacity="1" stroke="#000000" stroke-linecap="butt" stroke-linejoin="miter" stroke-miterlimit="2" stroke-opacity="1" stroke-width="0.657094" transform="matrix(2.85714,0,0,2.85714,5.71429,5.71429)"><path d="M0,0 L66,0 L66,56 L0,56 L0,0 z" fill-rule="evenodd" vector-effect="none"/></g></g></svg>
