<?xml version="1.0" encoding="UTF-8"?><svg width="52.9167mm" height="30.9562mm" viewBox="0 0 200 117" xmlns="http://www.w3.org/2000/svg" xmlns:xlink="http://www.w3.org/1999/xlink"><g fill="none" stroke="black" stroke-width="1" fill-rule="evenodd" stroke-linecap="square" stroke-linejoin="bevel"><g clip-path="none" fill="none" opacity="1" stroke="none" stroke-opacity="0" transform="matrix(1,0,0,1,0,0)"><path d="M0,0 L200,0 L200,117 L0,117 L0,0 z" fill-rule="evenodd" vector-effect="none"/></g><defs><clipPath id="clip3"><path d="M7,29 L-92,29 L-92,-29 L7,-29 L7,29 z"/></clipPath></defs><g clip-path="url(#clip3)" fill="none" opacity="1" stroke="#000000" stroke-linecap="round" stroke-linejoin="miter" stroke-miterlimit="2" stroke-opacity="1" stroke-width="2" transform="matrix(-2.0202,0,0,-2.0202,14.1414,58.5859)"><path d="M5,-5 L0,0 L5,5" fill-rule="evenodd" vector-effect="none"/></g><defs><clipPath id="clip6"><path d="M-92,-29 L7,-29 L7,29 L-92,29 L-92,-29 z"/></clipPath></defs><g clip-path="url(#clip6)" fill="none" opacity="1" stroke="#000000" stroke-linecap="round" stroke-linejoin="miter" stroke-miterlimit="2" stroke-opacity="1" stroke-width="2" transform="matrix(2.0202,0,0,2.0202,185.859,58.5859)"><path d="M0,-5 L5,0 L0,5" fill-rule="evenodd" vector-effect="none"/></g><defs><clipPath id="clip9"><path d="M-7,-2 L92,-2 L92,56 L-7,56 L-7,-2 z"/></clipPath></defs><g clip-path="url(#clip9)" fill="#ffffff" fill-opacity="1" opacity="1" stroke="none" stroke-opacity="0" transform="matrix(2.0202,0,0,2.0202,14.1414,4.0404)"><path d="M0,0 L85,0 L85,54 L0,54 L0,0 z" fill-rule="evenodd" vector-effect="none"/></g><defs><clipPath id="clip14"><path d="M-102,-118 L333,-118 L333,158 L-102,158 L-102,-118 z"/></clipPath></defs><g clip-path="url(#clip14)" fill="none" opacity="1" stroke="#000000" stroke-linecap="butt" stroke-linejoin="miter" stroke-miterlimit="2" stroke-opacity="1" stroke-width="0.495" transform="matrix(0.394571,0,0,0.394571,54.5455,50.5051)"><text fill="#000000" fill-opacity="1" font-family="Liberation Sans" font-size="40" font-style="normal" font-weight="400" stroke="none" textLength="150" x="0" xml:space="preserve" y="1.28125">0.5+0.5z</text></g><defs><clipPath id="clip17"><path d="M-312,-108 L123,-108 L123,168 L-312,168 L-312,-108 z"/></clipPath></defs><g clip-path="url(#clip17)" fill="none" opacity="1" stroke="#000000" stroke-linecap="butt" stroke-linejoin="miter" stroke-miterlimit="2" stroke-opacity="1" stroke-width="0.495" transform="matrix(0.394571,0,0,0.394571,137.374,46.4646)"><text fill="#000000" fill-opacity="1" font-family="Liberation Sans" font-size="40" font-style="normal" font-weight="400" stroke="none" textLength="35" x="0" xml:space="preserve" y="1.28125">-1</text></g><defs><clipPath id="clip19"><path d="M20,288 L105,288 L105,342 L20,342 L20,288 z"/></clipPath></defs><g clip-path="url(#clip19)" fill="none" opacity="1" stroke="#000000" stroke-linecap="butt" stroke-linejoin="miter" stroke-miterlimit="2" stroke-opacity="1" stroke-width="0.495" transform="matrix(2.0202,0,0,2.0202,-25.2525,-576.768)"><polyline fill="none" points="40,315 84,315" vector-effect="none"/></g><defs><clipPath id="clip21"><path d="M-215,-195 L220,-195 L220,81 L-215,81 L-215,-195 z"/></clipPath></defs><g clip-path="url(#clip21)" fill="none" opacity="1" stroke="#000000" stroke-linecap="butt" stroke-linejoin="miter" stroke-miterlimit="2" stroke-opacity="1" stroke-width="0.495" transform="matrix(0.394571,0,0,0.394571,98.9899,80.8081)"><text fill="#000000" fill-opacity="1" font-family="Liberation Sans" font-size="40" font-style="normal" font-weight="400" stroke="none" textLength="22" x="-14.2188" xml:space="preserve" y="1.28125">1</text></g><defs><clipPath id="clip27"><path d="M-7,-2 L92,-2 L92,56 L-7,56 L-7,-2 z"/></clipPath></defs><g clip-path="url(#clip27)" fill="none" opacity="1" stroke="#000000" stroke-linecap="butt" stroke-linejoin="miter" stroke-miterlimit="2" stroke-opacity="1" stroke-width="0.754818" transform="matrix(2.0202,0,0,2.0202,14.1414,4.0404)"><path d="M0,0 L85,0 L85,54 L0,54 L0,0 z" fill-rule="evenodd" vector-effect="none"/></g></g></svg>
