<?xml version="1.0" encoding="UTF-8"?><svg width="52.9167mm" height="33.0729mm" viewBox="0 0 200 125" xmlns="http://www.w3.org/2000/svg" xmlns:xlink="http://www.w3.org/1999/xlink"><g fill="none" stroke="black" stroke-width="1" fill-rule="evenodd" stroke-linecap="square" stroke-linejoin="bevel"><g clip-path="none" fill="none" opacity="1" stroke="none" stroke-opacity="0" transform="matrix(1,0,0,1,0,0)"><path d="M0,0 L200,0 L200,125 L0,125 L0,0 z" fill-rule="evenodd" vector-effect="none"/></g><defs><clipPath id="clip3"><path d="M-92,-31 L7,-31 L7,31 L-92,31 L-92,-31 z"/></clipPath></defs><g clip-path="url(#clip3)" fill="none" opacity="1" stroke="#000000" stroke-linecap="round" stroke-linejoin="miter" stroke-miterlimit="2" stroke-opacity="1" stroke-width="2" transform="matrix(2.0202,0,0,2.0202,185.859,62.6263)"><path d="M0,-5 L5,0 L0,5" fill-rule="evenodd" vector-effect="none"/></g><defs><clipPath id="clip6"><path d="M7,31 L-92,31 L-92,-31 L7,-31 L7,31 z"/></clipPath></defs><g clip-path="url(#clip6)" fill="none" opacity="1" stroke="#000000" stroke-linecap="round" stroke-linejoin="miter" stroke-miterlimit="2" stroke-opacity="1" stroke-width="2" transform="matrix(-2.0202,0,0,-2.0202,14.1414,62.6263)"><path d="M5,-5 L0,0 L5,5" fill-rule="evenodd" vector-effect="none"/></g><defs><clipPath id="clip9"><path d="M-7,-2 L92,-2 L92,60 L-7,60 L-7,-2 z"/></clipPath></defs><g clip-path="url(#clip9)" fill="#ffffff" fill-opacity="1" opacity="1" stroke="none" stroke-opacity="0" transform="matrix(2.0202,0,0,2.0202,14.1414,4.0404)"><path d="M0,0 L85,0 L85,58 L0,58 L0,0 z" fill-rule="evenodd" vector-effect="none"/></g><defs><clipPath id="clip14"><path d="M-215,-148 L220,-148 L220,149 L-215,149 L-215,-148 z"/></clipPath></defs><g clip-path="url(#clip14)" fill="none" opacity="1" stroke="#000000" stroke-linecap="butt" stroke-linejoin="miter" stroke-miterlimit="2" stroke-opacity="1" stroke-width="0.495" transform="matrix(0.394571,0,0,0.394571,98.9899,62.6263)"><text fill="#000000" fill-opacity="1" font-family="Liberation Sans" font-size="40" font-style="normal" font-weight="400" stroke="none" textLength="94" x="-62.5781" xml:space="preserve" y="17.9219">x[n/3]</text></g><defs><clipPath id="clip20"><path d="M-7,-2 L92,-2 L92,60 L-7,60 L-7,-2 z"/></clipPath></defs><g clip-path="url(#clip20)" fill="none" opacity="1" stroke="#000000" stroke-linecap="butt" stroke-linejoin="miter" stroke-miterlimit="2" stroke-opacity="1" stroke-width="0.754818" transform="matrix(2.0202,0,0,2.0202,14.1414,4.0404)"><path d="M0,0 L85,0 L85,58 L0,58 L0,0 z" fill-rule="evenodd" vector-effect="none"/></g></g></svg>
