<?xml version="1.0" encoding="UTF-8"?><svg width="51.8583mm" height="52.9167mm" viewBox="0 0 196 200" xmlns="http://www.w3.org/2000/svg" xmlns:xlink="http://www.w3.org/1999/xlink"><g fill="none" stroke="black" stroke-width="1" fill-rule="evenodd" stroke-linecap="square" stroke-linejoin="bevel"><g clip-path="none" fill="none" opacity="1" stroke="none" stroke-opacity="0" transform="matrix(1,0,0,1,0,0)"><path d="M0,0 L196,0 L196,200 L0,200 L0,0 z" fill-rule="evenodd" vector-effect="none"/></g><defs><clipPath id="clip3"><path d="M-2,-2 L60,-2 L60,61 L-2,61 L-2,-2 z"/></clipPath></defs><g clip-path="url(#clip3)" fill="#e8d152" fill-opacity="1" opacity="1" stroke="none" stroke-opacity="0" transform="matrix(3.1746,0,0,3.1746,6.34921,6.34921)"><path d="M0,0 L58,0 L58,59 L0,59 L0,0 z" fill-rule="evenodd" vector-effect="none"/></g><defs><clipPath id="clip8"><path d="M-128,-154 L169,-154 L169,148 L-128,148 L-128,-154 z"/></clipPath></defs><g clip-path="url(#clip8)" fill="none" opacity="1" stroke="#000000" stroke-linecap="butt" stroke-linejoin="miter" stroke-miterlimit="2" stroke-opacity="1" stroke-width="0.315" transform="matrix(0.62004,0,0,0.62004,85.7143,101.587)"><text fill="#000000" fill-opacity="1" font-family="Liberation Sans" font-size="48" font-style="normal" font-weight="400" stroke="none" textLength="32" x="0" xml:space="preserve" y="21.125">A</text></g><defs><clipPath id="clip11"><path d="M-169,-118 L128,-118 L128,184 L-169,184 L-169,-118 z"/></clipPath></defs><g clip-path="url(#clip11)" fill="none" opacity="1" stroke="#000000" stroke-linecap="butt" stroke-linejoin="miter" stroke-miterlimit="2" stroke-opacity="1" stroke-width="0.315" transform="matrix(0.62004,0,0,0.62004,111.111,79.3651)"><text fill="#000000" fill-opacity="1" font-family="Liberation Sans" font-size="48" font-style="normal" font-weight="400" stroke="none" textLength="43" x="0" xml:space="preserve" y="21.125">-1</text></g><defs><clipPath id="clip17"><path d="M-2,-2 L60,-2 L60,61 L-2,61 L-2,-2 z"/></clipPath></defs><g clip-path="url(#clip17)" fill="none" opacity="1" stroke="#000000" stroke-linecap="butt" stroke-linejoin="miter" stroke-miterlimit="2" stroke-opacity="1" stroke-width="0.629976" transform="matrix(3.1746,0,0,3.1746,6.34921,6.34921)"><path d="M0,0 L58,0 L58,59 L0,59 L0,0 z" fill-rule="evenodd" vector-effect="none"/></g></g></svg>
