<?xml version="1.0" encoding="UTF-8"?><svg width="51.8583mm" height="52.9167mm" viewBox="0 0 196 200" xmlns="http://www.w3.org/2000/svg" xmlns:xlink="http://www.w3.org/1999/xlink"><g fill="none" stroke="black" stroke-width="1" fill-rule="evenodd" stroke-linecap="square" stroke-linejoin="bevel"><g clip-path="none" fill="none" opacity="1" stroke="none" stroke-opacity="0" transform="matrix(1,0,0,1,0,0)"><path d="M0,0 L196,0 L196,200 L0,200 L0,0 z" fill-rule="evenodd" vector-effect="none"/></g><defs><clipPath id="clip3"><path d="M-2,-2 L60,-2 L60,61 L-2,61 L-2,-2 z"/></clipPath></defs><g clip-path="url(#clip3)" fill="#e8d152" fill-opacity="1" opacity="1" stroke="none" stroke-opacity="0" transform="matrix(3.1746,0,0,3.1746,6.34921,6.34921)"><path d="M0,0 L58,0 L58,59 L0,59 L0,0 z" fill-rule="evenodd" vector-effect="none"/></g><defs><clipPath id="clip7"><path d="M278,63 L336,63 L336,122 L278,122 L278,63 z"/></clipPath></defs><g clip-path="url(#clip7)" fill="none" opacity="1" stroke="#000000" stroke-linecap="butt" stroke-linejoin="miter" stroke-miterlimit="2" stroke-opacity="1" stroke-width="0.315" transform="matrix(3.1746,0,0,3.1746,-874.603,-195.238)"><polyline fill="none" points="283,101 301,101" vector-effect="none"/></g><defs><clipPath id="clip8"><path d="M278,63 L336,63 L336,122 L278,122 L278,63 z"/></clipPath></defs><g clip-path="url(#clip8)" fill="none" opacity="1" stroke="#000000" stroke-linecap="butt" stroke-linejoin="miter" stroke-miterlimit="2" stroke-opacity="1" stroke-width="0.315" transform="matrix(3.1746,0,0,3.1746,-874.603,-195.238)"><polyline fill="none" points="301,101 301,70" vector-effect="none"/></g><defs><clipPath id="clip9"><path d="M278,63 L336,63 L336,122 L278,122 L278,63 z"/></clipPath></defs><g clip-path="url(#clip9)" fill="none" opacity="1" stroke="#000000" stroke-linecap="butt" stroke-linejoin="miter" stroke-miterlimit="2" stroke-opacity="1" stroke-width="0.315" transform="matrix(3.1746,0,0,3.1746,-874.603,-195.238)"><polyline fill="none" points="301,70 283,70" vector-effect="none"/></g><defs><clipPath id="clip10"><path d="M278,63 L336,63 L336,122 L278,122 L278,63 z"/></clipPath></defs><g clip-path="url(#clip10)" fill="none" opacity="1" stroke="#000000" stroke-linecap="butt" stroke-linejoin="miter" stroke-miterlimit="2" stroke-opacity="1" stroke-width="0.315" transform="matrix(3.1746,0,0,3.1746,-874.603,-195.238)"><polyline fill="none" points="283,70 283,101" vector-effect="none"/></g><defs><clipPath id="clip11"><path d="M278,63 L336,63 L336,122 L278,122 L278,63 z"/></clipPath></defs><g clip-path="url(#clip11)" fill="none" opacity="1" stroke="#000000" stroke-linecap="butt" stroke-linejoin="miter" stroke-miterlimit="2" stroke-opacity="1" stroke-width="0.315" transform="matrix(3.1746,0,0,3.1746,-874.603,-195.238)"><polyline fill="none" points="304,91 314,91" vector-effect="none"/></g><defs><clipPath id="clip12"><path d="M278,63 L336,63 L336,122 L278,122 L278,63 z"/></clipPath></defs><g clip-path="url(#clip12)" fill="none" opacity="1" stroke="#000000" stroke-linecap="butt" stroke-linejoin="miter" stroke-miterlimit="2" stroke-opacity="1" stroke-width="0.315" transform="matrix(3.1746,0,0,3.1746,-874.603,-195.238)"><polyline fill="none" points="314,91 314,70" vector-effect="none"/></g><defs><clipPath id="clip13"><path d="M278,63 L336,63 L336,122 L278,122 L278,63 z"/></clipPath></defs><g clip-path="url(#clip13)" fill="none" opacity="1" stroke="#000000" stroke-linecap="butt" stroke-linejoin="miter" stroke-miterlimit="2" stroke-opacity="1" stroke-width="0.315" transform="matrix(3.1746,0,0,3.1746,-874.603,-195.238)"><polyline fill="none" points="314,70 304,70" vector-effect="none"/></g><defs><clipPath id="clip14"><path d="M278,63 L336,63 L336,122 L278,122 L278,63 z"/></clipPath></defs><g clip-path="url(#clip14)" fill="none" opacity="1" stroke="#000000" stroke-linecap="butt" stroke-linejoin="miter" stroke-miterlimit="2" stroke-opacity="1" stroke-width="0.315" transform="matrix(3.1746,0,0,3.1746,-874.603,-195.238)"><polyline fill="none" points="304,70 304,91" vector-effect="none"/></g><defs><clipPath id="clip15"><path d="M278,63 L336,63 L336,122 L278,122 L278,63 z"/></clipPath></defs><g clip-path="url(#clip15)" fill="none" opacity="1" stroke="#000000" stroke-linecap="butt" stroke-linejoin="miter" stroke-miterlimit="2" stroke-opacity="1" stroke-width="0.315" transform="matrix(3.1746,0,0,3.1746,-874.603,-195.238)"><polyline fill="none" points="316,83 319,83" vector-effect="none"/></g><defs><clipPath id="clip16"><path d="M278,63 L336,63 L336,122 L278,122 L278,63 z"/></clipPath></defs><g clip-path="url(#clip16)" fill="none" opacity="1" stroke="#000000" stroke-linecap="butt" stroke-linejoin="miter" stroke-miterlimit="2" stroke-opacity="1" stroke-width="0.315" transform="matrix(3.1746,0,0,3.1746,-874.603,-195.238)"><polyline fill="none" points="316,80 319,80" vector-effect="none"/></g><defs><clipPath id="clip17"><path d="M278,63 L336,63 L336,122 L278,122 L278,63 z"/></clipPath></defs><g clip-path="url(#clip17)" fill="none" opacity="1" stroke="#000000" stroke-linecap="butt" stroke-linejoin="miter" stroke-miterlimit="2" stroke-opacity="1" stroke-width="0.315" transform="matrix(3.1746,0,0,3.1746,-874.603,-195.238)"><polyline fill="none" points="322,101 332,101" vector-effect="none"/></g><defs><clipPath id="clip18"><path d="M278,63 L336,63 L336,122 L278,122 L278,63 z"/></clipPath></defs><g clip-path="url(#clip18)" fill="none" opacity="1" stroke="#000000" stroke-linecap="butt" stroke-linejoin="miter" stroke-miterlimit="2" stroke-opacity="1" stroke-width="0.315" transform="matrix(3.1746,0,0,3.1746,-874.603,-195.238)"><polyline fill="none" points="332,101 332,70" vector-effect="none"/></g><defs><clipPath id="clip19"><path d="M278,63 L336,63 L336,122 L278,122 L278,63 z"/></clipPath></defs><g clip-path="url(#clip19)" fill="none" opacity="1" stroke="#000000" stroke-linecap="butt" stroke-linejoin="miter" stroke-miterlimit="2" stroke-opacity="1" stroke-width="0.315" transform="matrix(3.1746,0,0,3.1746,-874.603,-195.238)"><polyline fill="none" points="332,70 322,70" vector-effect="none"/></g><defs><clipPath id="clip20"><path d="M278,63 L336,63 L336,122 L278,122 L278,63 z"/></clipPath></defs><g clip-path="url(#clip20)" fill="none" opacity="1" stroke="#000000" stroke-linecap="butt" stroke-linejoin="miter" stroke-miterlimit="2" stroke-opacity="1" stroke-width="0.315" transform="matrix(3.1746,0,0,3.1746,-874.603,-195.238)"><polyline fill="none" points="322,70 322,101" vector-effect="none"/></g><defs><clipPath id="clip22"><path d="M-56,-92 L241,-92 L241,210 L-56,210 L-56,-92 z"/></clipPath></defs><g clip-path="url(#clip22)" fill="none" opacity="1" stroke="#000000" stroke-linecap="butt" stroke-linejoin="miter" stroke-miterlimit="2" stroke-opacity="1" stroke-width="0.315" transform="matrix(0.62004,0,0,0.62004,41.2698,63.4921)"><text fill="#000000" fill-opacity="1" font-family="Liberation Sans" font-size="48" font-style="normal" font-weight="400" stroke="none" textLength="32" x="0" xml:space="preserve" y="21.125">A</text></g><defs><clipPath id="clip25"><path d="M-148,-92 L149,-92 L149,210 L-148,210 L-148,-92 z"/></clipPath></defs><g clip-path="url(#clip25)" fill="none" opacity="1" stroke="#000000" stroke-linecap="butt" stroke-linejoin="miter" stroke-miterlimit="2" stroke-opacity="1" stroke-width="0.315" transform="matrix(0.62004,0,0,0.62004,98.4127,63.4921)"><text fill="#000000" fill-opacity="1" font-family="Liberation Sans" font-size="48" font-style="normal" font-weight="400" stroke="none" textLength="24" x="0" xml:space="preserve" y="21.125">x</text></g><defs><clipPath id="clip28"><path d="M-236,-92 L61,-92 L61,210 L-236,210 L-236,-92 z"/></clipPath></defs><g clip-path="url(#clip28)" fill="none" opacity="1" stroke="#000000" stroke-linecap="butt" stroke-linejoin="miter" stroke-miterlimit="2" stroke-opacity="1" stroke-width="0.315" transform="matrix(0.62004,0,0,0.62004,152.381,63.4921)"><text fill="#000000" fill-opacity="1" font-family="Liberation Sans" font-size="48" font-style="normal" font-weight="400" stroke="none" textLength="27" x="0" xml:space="preserve" y="21.125">b</text></g><defs><clipPath id="clip31"><path d="M-41,-261 L256,-261 L256,41 L-41,41 L-41,-261 z"/></clipPath></defs><g clip-path="url(#clip31)" fill="none" opacity="1" stroke="#000000" stroke-linecap="butt" stroke-linejoin="miter" stroke-miterlimit="2" stroke-opacity="1" stroke-width="0.315" transform="matrix(0.62004,0,0,0.62004,31.746,168.254)"><text fill="#000000" fill-opacity="1" font-family="Liberation Sans" font-size="48" font-style="normal" font-weight="400" stroke="none" textLength="107" x="0" xml:space="preserve" y="21.125">x = A</text></g><defs><clipPath id="clip34"><path d="M-230,-261 L67,-261 L67,41 L-230,41 L-230,-261 z"/></clipPath></defs><g clip-path="url(#clip34)" fill="none" opacity="1" stroke="#000000" stroke-linecap="butt" stroke-linejoin="miter" stroke-miterlimit="2" stroke-opacity="1" stroke-width="0.315" transform="matrix(0.62004,0,0,0.62004,149.206,168.254)"><text fill="#000000" fill-opacity="1" font-family="Liberation Sans" font-size="48" font-style="normal" font-weight="400" stroke="none" textLength="27" x="0" xml:space="preserve" y="21.125">b</text></g><defs><clipPath id="clip37"><path d="M-174,-230 L123,-230 L123,72 L-174,72 L-174,-230 z"/></clipPath></defs><g clip-path="url(#clip37)" fill="none" opacity="1" stroke="#000000" stroke-linecap="butt" stroke-linejoin="miter" stroke-miterlimit="2" stroke-opacity="1" stroke-width="0.315" transform="matrix(0.62004,0,0,0.62004,114.286,149.206)"><text fill="#000000" fill-opacity="1" font-family="Liberation Sans" font-size="48" font-style="normal" font-weight="400" stroke="none" textLength="43" x="0" xml:space="preserve" y="21.125">-1</text></g><defs><clipPath id="clip43"><path d="M-2,-2 L60,-2 L60,61 L-2,61 L-2,-2 z"/></clipPath></defs><g clip-path="url(#clip43)" fill="none" opacity="1" stroke="#000000" stroke-linecap="butt" stroke-linejoin="miter" stroke-miterlimit="2" stroke-opacity="1" stroke-width="0.629976" transform="matrix(3.1746,0,0,3.1746,6.34921,6.34921)"><path d="M0,0 L58,0 L58,59 L0,59 L0,0 z" fill-rule="evenodd" vector-effect="none"/></g></g></svg>
