<?xml version="1.0" encoding="UTF-8"?><svg width="52.9167mm" height="33.6021mm" viewBox="0 0 200 127" xmlns="http://www.w3.org/2000/svg" xmlns:xlink="http://www.w3.org/1999/xlink"><g fill="none" stroke="black" stroke-width="1" fill-rule="evenodd" stroke-linecap="square" stroke-linejoin="bevel"><g clip-path="none" fill="none" opacity="1" stroke="none" stroke-opacity="0" transform="matrix(1,0,0,1,0,0)"><path d="M0,0 L200,0 L200,127 L0,127 L0,0 z" fill-rule="evenodd" vector-effect="none"/></g><defs><clipPath id="clip3"><path d="M-87,-30 L7,-30 L7,30 L-87,30 L-87,-30 z"/></clipPath></defs><g clip-path="url(#clip3)" fill="none" opacity="1" stroke="#000000" stroke-linecap="round" stroke-linejoin="miter" stroke-miterlimit="2" stroke-opacity="1" stroke-width="2" transform="matrix(2.12766,0,0,2.12766,185.106,63.8298)"><path d="M0,-5 L5,0 L0,5" fill-rule="evenodd" vector-effect="none"/></g><defs><clipPath id="clip6"><path d="M7,45 L-87,45 L-87,-15 L7,-15 L7,45 z"/></clipPath></defs><g clip-path="url(#clip6)" fill="none" opacity="1" stroke="#000000" stroke-linecap="round" stroke-linejoin="miter" stroke-miterlimit="2" stroke-opacity="1" stroke-width="2" transform="matrix(-2.12766,0,0,-2.12766,14.8936,95.7447)"><path d="M5,-5 L0,0 L5,5" fill-rule="evenodd" vector-effect="none"/></g><defs><clipPath id="clip9"><path d="M7,15 L-87,15 L-87,-45 L7,-45 L7,15 z"/></clipPath></defs><g clip-path="url(#clip9)" fill="none" opacity="1" stroke="#000000" stroke-linecap="round" stroke-linejoin="miter" stroke-miterlimit="2" stroke-opacity="1" stroke-width="2" transform="matrix(-2.12766,0,0,-2.12766,14.8936,31.9149)"><path d="M5,-5 L0,0 L5,5" fill-rule="evenodd" vector-effect="none"/></g><defs><clipPath id="clip12"><path d="M-7,-2 L87,-2 L87,58 L-7,58 L-7,-2 z"/></clipPath></defs><g clip-path="url(#clip12)" fill="#ffffff" fill-opacity="1" opacity="1" stroke="none" stroke-opacity="0" transform="matrix(2.12766,0,0,2.12766,14.8936,4.25532)"><path d="M0,0 L80,0 L80,56 L0,56 L0,0 z" fill-rule="evenodd" vector-effect="none"/></g><defs><clipPath id="clip17"><path d="M-15,-67 L395,-67 L395,220 L-15,220 L-15,-67 z"/></clipPath></defs><g clip-path="url(#clip17)" fill="none" opacity="1" stroke="#000000" stroke-linecap="butt" stroke-linejoin="miter" stroke-miterlimit="2" stroke-opacity="1" stroke-width="0.47" transform="matrix(0.415559,0,0,0.415559,21.2766,31.9149)"><text fill="#000000" fill-opacity="1" font-family="Liberation Sans" font-size="36" font-style="normal" font-weight="400" stroke="none" textLength="24" x="0" xml:space="preserve" y="16">S</text></g><defs><clipPath id="clip20"><path d="M-15,-220 L395,-220 L395,67 L-15,67 L-15,-220 z"/></clipPath></defs><g clip-path="url(#clip20)" fill="none" opacity="1" stroke="#000000" stroke-linecap="butt" stroke-linejoin="miter" stroke-miterlimit="2" stroke-opacity="1" stroke-width="0.47" transform="matrix(0.415559,0,0,0.415559,21.2766,95.7447)"><text fill="#000000" fill-opacity="1" font-family="Liberation Sans" font-size="36" font-style="normal" font-weight="400" stroke="none" textLength="24" x="0" xml:space="preserve" y="16">B</text></g><defs><clipPath id="clip23"><path d="M-394,-143 L16,-143 L16,144 L-394,144 L-394,-143 z"/></clipPath></defs><g clip-path="url(#clip23)" fill="none" opacity="1" stroke="#000000" stroke-linecap="butt" stroke-linejoin="miter" stroke-miterlimit="2" stroke-opacity="1" stroke-width="0.47" transform="matrix(0.415559,0,0,0.415559,178.723,63.8298)"><text fill="#000000" fill-opacity="1" font-family="Liberation Sans" font-size="36" font-style="normal" font-weight="400" stroke="none" textLength="23" x="-30.7188" xml:space="preserve" y="16">X</text></g><defs><clipPath id="clip25"><path d="M230,57 L310,57 L310,113 L230,113 L230,57 z"/></clipPath></defs><g clip-path="url(#clip25)" fill="none" opacity="1" stroke="#000000" stroke-linecap="butt" stroke-linejoin="miter" stroke-miterlimit="2" stroke-opacity="1" stroke-width="0.47" transform="matrix(2.12766,0,0,2.12766,-473.404,-115.957)"><polyline fill="none" points="243,98 268,98" vector-effect="none"/></g><defs><clipPath id="clip26"><path d="M230,57 L310,57 L310,113 L230,113 L230,57 z"/></clipPath></defs><g clip-path="url(#clip26)" fill="none" opacity="1" stroke="#000000" stroke-linecap="butt" stroke-linejoin="miter" stroke-miterlimit="2" stroke-opacity="1" stroke-width="0.47" transform="matrix(2.12766,0,0,2.12766,-473.404,-115.957)"><polyline fill="none" points="268,98 268,73" vector-effect="none"/></g><defs><clipPath id="clip27"><path d="M230,57 L310,57 L310,113 L230,113 L230,57 z"/></clipPath></defs><g clip-path="url(#clip27)" fill="none" opacity="1" stroke="#000000" stroke-linecap="butt" stroke-linejoin="miter" stroke-miterlimit="2" stroke-opacity="1" stroke-width="0.47" transform="matrix(2.12766,0,0,2.12766,-473.404,-115.957)"><polyline fill="none" points="268,73 243,73" vector-effect="none"/></g><defs><clipPath id="clip28"><path d="M230,57 L310,57 L310,113 L230,113 L230,57 z"/></clipPath></defs><g clip-path="url(#clip28)" fill="none" opacity="1" stroke="#000000" stroke-linecap="butt" stroke-linejoin="miter" stroke-miterlimit="2" stroke-opacity="1" stroke-width="0.47" transform="matrix(2.12766,0,0,2.12766,-473.404,-115.957)"><polyline fill="none" points="243,73 243,98" vector-effect="none"/></g><defs><clipPath id="clip29"><path d="M230,57 L310,57 L310,113 L230,113 L230,57 z"/></clipPath></defs><g clip-path="url(#clip29)" fill="none" opacity="1" stroke="#000000" stroke-linecap="butt" stroke-linejoin="miter" stroke-miterlimit="2" stroke-opacity="1" stroke-width="0.47" transform="matrix(2.12766,0,0,2.12766,-473.404,-115.957)"><polyline fill="none" points="243,73 268,98" vector-effect="none"/></g><defs><clipPath id="clip30"><path d="M230,57 L310,57 L310,113 L230,113 L230,57 z"/></clipPath></defs><g clip-path="url(#clip30)" fill="none" opacity="1" stroke="#000000" stroke-linecap="butt" stroke-linejoin="miter" stroke-miterlimit="2" stroke-opacity="1" stroke-width="0.47" transform="matrix(2.12766,0,0,2.12766,-473.404,-115.957)"><polyline fill="none" points="274,98 280,98" vector-effect="none"/></g><defs><clipPath id="clip31"><path d="M230,57 L310,57 L310,113 L230,113 L230,57 z"/></clipPath></defs><g clip-path="url(#clip31)" fill="none" opacity="1" stroke="#000000" stroke-linecap="butt" stroke-linejoin="miter" stroke-miterlimit="2" stroke-opacity="1" stroke-width="0.47" transform="matrix(2.12766,0,0,2.12766,-473.404,-115.957)"><polyline fill="none" points="280,98 280,73" vector-effect="none"/></g><defs><clipPath id="clip32"><path d="M230,57 L310,57 L310,113 L230,113 L230,57 z"/></clipPath></defs><g clip-path="url(#clip32)" fill="none" opacity="1" stroke="#000000" stroke-linecap="butt" stroke-linejoin="miter" stroke-miterlimit="2" stroke-opacity="1" stroke-width="0.47" transform="matrix(2.12766,0,0,2.12766,-473.404,-115.957)"><polyline fill="none" points="280,73 274,73" vector-effect="none"/></g><defs><clipPath id="clip33"><path d="M230,57 L310,57 L310,113 L230,113 L230,57 z"/></clipPath></defs><g clip-path="url(#clip33)" fill="none" opacity="1" stroke="#000000" stroke-linecap="butt" stroke-linejoin="miter" stroke-miterlimit="2" stroke-opacity="1" stroke-width="0.47" transform="matrix(2.12766,0,0,2.12766,-473.404,-115.957)"><polyline fill="none" points="274,73 274,98" vector-effect="none"/></g><defs><clipPath id="clip34"><path d="M230,57 L310,57 L310,113 L230,113 L230,57 z"/></clipPath></defs><g clip-path="url(#clip34)" fill="none" opacity="1" stroke="#000000" stroke-linecap="butt" stroke-linejoin="miter" stroke-miterlimit="2" stroke-opacity="1" stroke-width="0.47" transform="matrix(2.12766,0,0,2.12766,-473.404,-115.957)"><polyline fill="none" points="284,88 287,88" vector-effect="none"/></g><defs><clipPath id="clip35"><path d="M230,57 L310,57 L310,113 L230,113 L230,57 z"/></clipPath></defs><g clip-path="url(#clip35)" fill="none" opacity="1" stroke="#000000" stroke-linecap="butt" stroke-linejoin="miter" stroke-miterlimit="2" stroke-opacity="1" stroke-width="0.47" transform="matrix(2.12766,0,0,2.12766,-473.404,-115.957)"><polyline fill="none" points="284,85 287,85" vector-effect="none"/></g><defs><clipPath id="clip36"><path d="M230,57 L310,57 L310,113 L230,113 L230,57 z"/></clipPath></defs><g clip-path="url(#clip36)" fill="none" opacity="1" stroke="#000000" stroke-linecap="butt" stroke-linejoin="miter" stroke-miterlimit="2" stroke-opacity="1" stroke-width="0.47" transform="matrix(2.12766,0,0,2.12766,-473.404,-115.957)"><polyline fill="none" points="290,98 297,98" vector-effect="none"/></g><defs><clipPath id="clip37"><path d="M230,57 L310,57 L310,113 L230,113 L230,57 z"/></clipPath></defs><g clip-path="url(#clip37)" fill="none" opacity="1" stroke="#000000" stroke-linecap="butt" stroke-linejoin="miter" stroke-miterlimit="2" stroke-opacity="1" stroke-width="0.47" transform="matrix(2.12766,0,0,2.12766,-473.404,-115.957)"><polyline fill="none" points="297,98 297,73" vector-effect="none"/></g><defs><clipPath id="clip38"><path d="M230,57 L310,57 L310,113 L230,113 L230,57 z"/></clipPath></defs><g clip-path="url(#clip38)" fill="none" opacity="1" stroke="#000000" stroke-linecap="butt" stroke-linejoin="miter" stroke-miterlimit="2" stroke-opacity="1" stroke-width="0.47" transform="matrix(2.12766,0,0,2.12766,-473.404,-115.957)"><polyline fill="none" points="297,73 290,73" vector-effect="none"/></g><defs><clipPath id="clip39"><path d="M230,57 L310,57 L310,113 L230,113 L230,57 z"/></clipPath></defs><g clip-path="url(#clip39)" fill="none" opacity="1" stroke="#000000" stroke-linecap="butt" stroke-linejoin="miter" stroke-miterlimit="2" stroke-opacity="1" stroke-width="0.47" transform="matrix(2.12766,0,0,2.12766,-473.404,-115.957)"><polyline fill="none" points="290,73 290,98" vector-effect="none"/></g><defs><clipPath id="clip41"><path d="M-67,-36 L343,-36 L343,251 L-67,251 L-67,-36 z"/></clipPath></defs><g clip-path="url(#clip41)" fill="none" opacity="1" stroke="#000000" stroke-linecap="butt" stroke-linejoin="miter" stroke-miterlimit="2" stroke-opacity="1" stroke-width="0.47" transform="matrix(0.415559,0,0,0.415559,42.5532,19.1489)"><text fill="#000000" fill-opacity="1" font-family="Liberation Sans" font-size="40" font-style="normal" font-weight="400" stroke="none" textLength="221" x="0" xml:space="preserve" y="17.9219">SX=B (Chol)</text></g><defs><clipPath id="clip44"><path d="M-46,-246 L364,-246 L364,41 L-46,41 L-46,-246 z"/></clipPath></defs><g clip-path="url(#clip44)" fill="none" opacity="1" stroke="#000000" stroke-linecap="butt" stroke-linejoin="miter" stroke-miterlimit="2" stroke-opacity="1" stroke-width="0.47" transform="matrix(0.415559,0,0,0.415559,34.0426,106.383)"><text fill="#000000" fill-opacity="1" font-family="Liberation Sans" font-size="40" font-style="normal" font-weight="400" stroke="none" textLength="130" x="0" xml:space="preserve" y="17.9219">[m x m]</text></g><defs><clipPath id="clip50"><path d="M-7,-2 L87,-2 L87,58 L-7,58 L-7,-2 z"/></clipPath></defs><g clip-path="url(#clip50)" fill="none" opacity="1" stroke="#000000" stroke-linecap="butt" stroke-linejoin="miter" stroke-miterlimit="2" stroke-opacity="1" stroke-width="0.739331" transform="matrix(2.12766,0,0,2.12766,14.8936,4.25532)"><path d="M0,0 L80,0 L80,56 L0,56 L0,0 z" fill-rule="evenodd" vector-effect="none"/></g></g></svg>
