<?xml version="1.0" encoding="UTF-8"?><svg width="52.9167mm" height="35.9833mm" viewBox="0 0 200 136" xmlns="http://www.w3.org/2000/svg" xmlns:xlink="http://www.w3.org/1999/xlink"><g fill="none" stroke="black" stroke-width="1" fill-rule="evenodd" stroke-linecap="square" stroke-linejoin="bevel"><g clip-path="none" fill="none" opacity="1" stroke="none" stroke-opacity="0" transform="matrix(1,0,0,1,0,0)"><path d="M0,0 L200,0 L200,136 L0,136 L0,0 z" fill-rule="evenodd" vector-effect="none"/></g><defs><clipPath id="clip3"><path d="M7,17 L-87,17 L-87,-47 L7,-47 L7,17 z"/></clipPath></defs><g clip-path="url(#clip3)" fill="none" opacity="1" stroke="#000000" stroke-linecap="round" stroke-linejoin="miter" stroke-miterlimit="2" stroke-opacity="1" stroke-width="2" transform="matrix(-2.12766,0,0,-2.12766,14.8936,36.1702)"><path d="M5,-5 L0,0 L5,5" fill-rule="evenodd" vector-effect="none"/></g><defs><clipPath id="clip6"><path d="M7,47 L-87,47 L-87,-17 L7,-17 L7,47 z"/></clipPath></defs><g clip-path="url(#clip6)" fill="none" opacity="1" stroke="#000000" stroke-linecap="round" stroke-linejoin="miter" stroke-miterlimit="2" stroke-opacity="1" stroke-width="2" transform="matrix(-2.12766,0,0,-2.12766,14.8936,100)"><path d="M5,-5 L0,0 L5,5" fill-rule="evenodd" vector-effect="none"/></g><defs><clipPath id="clip9"><path d="M-87,-32 L7,-32 L7,32 L-87,32 L-87,-32 z"/></clipPath></defs><g clip-path="url(#clip9)" fill="none" opacity="1" stroke="#000000" stroke-linecap="round" stroke-linejoin="miter" stroke-miterlimit="2" stroke-opacity="1" stroke-width="2" transform="matrix(2.12766,0,0,2.12766,185.106,68.0851)"><path d="M0,-5 L5,0 L0,5" fill-rule="evenodd" vector-effect="none"/></g><defs><clipPath id="clip12"><path d="M-7,-2 L87,-2 L87,62 L-7,62 L-7,-2 z"/></clipPath></defs><g clip-path="url(#clip12)" fill="#ffffff" fill-opacity="1" opacity="1" stroke="none" stroke-opacity="0" transform="matrix(2.12766,0,0,2.12766,14.8936,4.25532)"><path d="M0,0 L80,0 L80,60 L0,60 L0,0 z" fill-rule="evenodd" vector-effect="none"/></g><defs><clipPath id="clip16"><path d="M20,150 L100,150 L100,210 L20,210 L20,150 z"/></clipPath></defs><g clip-path="url(#clip16)" fill="none" opacity="1" stroke="#000000" stroke-linecap="butt" stroke-linejoin="miter" stroke-miterlimit="2" stroke-opacity="1" stroke-width="0.47" transform="matrix(2.12766,0,0,2.12766,-26.5957,-313.83)"><polyline fill="none" points="36,202 56,202" vector-effect="none"/></g><defs><clipPath id="clip17"><path d="M20,150 L100,150 L100,210 L20,210 L20,150 z"/></clipPath></defs><g clip-path="url(#clip17)" fill="none" opacity="1" stroke="#000000" stroke-linecap="butt" stroke-linejoin="miter" stroke-miterlimit="2" stroke-opacity="1" stroke-width="0.47" transform="matrix(2.12766,0,0,2.12766,-26.5957,-313.83)"><polyline fill="none" points="56,202 36,169" vector-effect="none"/></g><defs><clipPath id="clip18"><path d="M20,150 L100,150 L100,210 L20,210 L20,150 z"/></clipPath></defs><g clip-path="url(#clip18)" fill="none" opacity="1" stroke="#000000" stroke-linecap="butt" stroke-linejoin="miter" stroke-miterlimit="2" stroke-opacity="1" stroke-width="0.47" transform="matrix(2.12766,0,0,2.12766,-26.5957,-313.83)"><polyline fill="none" points="36,169 36,202" vector-effect="none"/></g><defs><clipPath id="clip19"><path d="M20,150 L100,150 L100,210 L20,210 L20,150 z"/></clipPath></defs><g clip-path="url(#clip19)" fill="none" opacity="1" stroke="#000000" stroke-linecap="butt" stroke-linejoin="miter" stroke-miterlimit="2" stroke-opacity="1" stroke-width="0.47" transform="matrix(2.12766,0,0,2.12766,-26.5957,-313.83)"><polyline fill="none" points="60,202 66,202" vector-effect="none"/></g><defs><clipPath id="clip20"><path d="M20,150 L100,150 L100,210 L20,210 L20,150 z"/></clipPath></defs><g clip-path="url(#clip20)" fill="none" opacity="1" stroke="#000000" stroke-linecap="butt" stroke-linejoin="miter" stroke-miterlimit="2" stroke-opacity="1" stroke-width="0.47" transform="matrix(2.12766,0,0,2.12766,-26.5957,-313.83)"><polyline fill="none" points="66,202 66,169" vector-effect="none"/></g><defs><clipPath id="clip21"><path d="M20,150 L100,150 L100,210 L20,210 L20,150 z"/></clipPath></defs><g clip-path="url(#clip21)" fill="none" opacity="1" stroke="#000000" stroke-linecap="butt" stroke-linejoin="miter" stroke-miterlimit="2" stroke-opacity="1" stroke-width="0.47" transform="matrix(2.12766,0,0,2.12766,-26.5957,-313.83)"><polyline fill="none" points="66,169 60,169" vector-effect="none"/></g><defs><clipPath id="clip22"><path d="M20,150 L100,150 L100,210 L20,210 L20,150 z"/></clipPath></defs><g clip-path="url(#clip22)" fill="none" opacity="1" stroke="#000000" stroke-linecap="butt" stroke-linejoin="miter" stroke-miterlimit="2" stroke-opacity="1" stroke-width="0.47" transform="matrix(2.12766,0,0,2.12766,-26.5957,-313.83)"><polyline fill="none" points="60,169 60,202" vector-effect="none"/></g><defs><clipPath id="clip23"><path d="M20,150 L100,150 L100,210 L20,210 L20,150 z"/></clipPath></defs><g clip-path="url(#clip23)" fill="none" opacity="1" stroke="#000000" stroke-linecap="butt" stroke-linejoin="miter" stroke-miterlimit="2" stroke-opacity="1" stroke-width="0.47" transform="matrix(2.12766,0,0,2.12766,-26.5957,-313.83)"><polyline fill="none" points="70,188 73,188" vector-effect="none"/></g><defs><clipPath id="clip24"><path d="M20,150 L100,150 L100,210 L20,210 L20,150 z"/></clipPath></defs><g clip-path="url(#clip24)" fill="none" opacity="1" stroke="#000000" stroke-linecap="butt" stroke-linejoin="miter" stroke-miterlimit="2" stroke-opacity="1" stroke-width="0.47" transform="matrix(2.12766,0,0,2.12766,-26.5957,-313.83)"><polyline fill="none" points="70,183 73,183" vector-effect="none"/></g><defs><clipPath id="clip25"><path d="M20,150 L100,150 L100,210 L20,210 L20,150 z"/></clipPath></defs><g clip-path="url(#clip25)" fill="none" opacity="1" stroke="#000000" stroke-linecap="butt" stroke-linejoin="miter" stroke-miterlimit="2" stroke-opacity="1" stroke-width="0.47" transform="matrix(2.12766,0,0,2.12766,-26.5957,-313.83)"><polyline fill="none" points="76,202 83,202" vector-effect="none"/></g><defs><clipPath id="clip26"><path d="M20,150 L100,150 L100,210 L20,210 L20,150 z"/></clipPath></defs><g clip-path="url(#clip26)" fill="none" opacity="1" stroke="#000000" stroke-linecap="butt" stroke-linejoin="miter" stroke-miterlimit="2" stroke-opacity="1" stroke-width="0.47" transform="matrix(2.12766,0,0,2.12766,-26.5957,-313.83)"><polyline fill="none" points="83,202 83,169" vector-effect="none"/></g><defs><clipPath id="clip27"><path d="M20,150 L100,150 L100,210 L20,210 L20,150 z"/></clipPath></defs><g clip-path="url(#clip27)" fill="none" opacity="1" stroke="#000000" stroke-linecap="butt" stroke-linejoin="miter" stroke-miterlimit="2" stroke-opacity="1" stroke-width="0.47" transform="matrix(2.12766,0,0,2.12766,-26.5957,-313.83)"><polyline fill="none" points="83,169 76,169" vector-effect="none"/></g><defs><clipPath id="clip28"><path d="M20,150 L100,150 L100,210 L20,210 L20,150 z"/></clipPath></defs><g clip-path="url(#clip28)" fill="none" opacity="1" stroke="#000000" stroke-linecap="butt" stroke-linejoin="miter" stroke-miterlimit="2" stroke-opacity="1" stroke-width="0.47" transform="matrix(2.12766,0,0,2.12766,-26.5957,-313.83)"><polyline fill="none" points="76,169 76,202" vector-effect="none"/></g><defs><clipPath id="clip30"><path d="M-159,-36 L251,-36 L251,271 L-159,271 L-159,-36 z"/></clipPath></defs><g clip-path="url(#clip30)" fill="none" opacity="1" stroke="#000000" stroke-linecap="butt" stroke-linejoin="miter" stroke-miterlimit="2" stroke-opacity="1" stroke-width="0.47" transform="matrix(0.415559,0,0,0.415559,80.8511,19.1489)"><text fill="#000000" fill-opacity="1" font-family="Liberation Sans" font-size="40" font-style="normal" font-weight="400" stroke="none" textLength="131" x="0" xml:space="preserve" y="17.9219">L X = B</text></g><defs><clipPath id="clip33"><path d="M-15,-77 L395,-77 L395,230 L-15,230 L-15,-77 z"/></clipPath></defs><g clip-path="url(#clip33)" fill="none" opacity="1" stroke="#000000" stroke-linecap="butt" stroke-linejoin="miter" stroke-miterlimit="2" stroke-opacity="1" stroke-width="0.47" transform="matrix(0.415559,0,0,0.415559,21.2766,36.1702)"><text fill="#000000" fill-opacity="1" font-family="Liberation Sans" font-size="40" font-style="normal" font-weight="400" stroke="none" textLength="22" x="0" xml:space="preserve" y="17.9219">L</text></g><defs><clipPath id="clip36"><path d="M-15,-230 L395,-230 L395,77 L-15,77 L-15,-230 z"/></clipPath></defs><g clip-path="url(#clip36)" fill="none" opacity="1" stroke="#000000" stroke-linecap="butt" stroke-linejoin="miter" stroke-miterlimit="2" stroke-opacity="1" stroke-width="0.47" transform="matrix(0.415559,0,0,0.415559,21.2766,100)"><text fill="#000000" fill-opacity="1" font-family="Liberation Sans" font-size="40" font-style="normal" font-weight="400" stroke="none" textLength="27" x="0" xml:space="preserve" y="17.9219">B</text></g><defs><clipPath id="clip39"><path d="M-394,-154 L16,-154 L16,153 L-394,153 L-394,-154 z"/></clipPath></defs><g clip-path="url(#clip39)" fill="none" opacity="1" stroke="#000000" stroke-linecap="butt" stroke-linejoin="miter" stroke-miterlimit="2" stroke-opacity="1" stroke-width="0.47" transform="matrix(0.415559,0,0,0.415559,178.723,68.0851)"><text fill="#000000" fill-opacity="1" font-family="Liberation Sans" font-size="40" font-style="normal" font-weight="400" stroke="none" textLength="27" x="-34.125" xml:space="preserve" y="17.9219">X</text></g><defs><clipPath id="clip45"><path d="M-7,-2 L87,-2 L87,62 L-7,62 L-7,-2 z"/></clipPath></defs><g clip-path="url(#clip45)" fill="none" opacity="1" stroke="#000000" stroke-linecap="butt" stroke-linejoin="miter" stroke-miterlimit="2" stroke-opacity="1" stroke-width="0.739331" transform="matrix(2.12766,0,0,2.12766,14.8936,4.25532)"><path d="M0,0 L80,0 L80,60 L0,60 L0,0 z" fill-rule="evenodd" vector-effect="none"/></g></g></svg>
