<?xml version="1.0" encoding="UTF-8"?><svg width="52.9167mm" height="29.1042mm" viewBox="0 0 200 110" xmlns="http://www.w3.org/2000/svg" xmlns:xlink="http://www.w3.org/1999/xlink"><g fill="none" stroke="black" stroke-width="1" fill-rule="evenodd" stroke-linecap="square" stroke-linejoin="bevel"><g clip-path="none" fill="none" opacity="1" stroke="none" stroke-opacity="0" transform="matrix(1,0,0,1,0,0)"><path d="M0,0 L200,0 L200,110 L0,110 L0,0 z" fill-rule="evenodd" vector-effect="none"/></g><defs><clipPath id="clip3"><path d="M-102,-45 L7,-45 L7,15 L-102,15 L-102,-45 z"/></clipPath></defs><g clip-path="url(#clip3)" fill="none" opacity="1" stroke="#000000" stroke-linecap="round" stroke-linejoin="miter" stroke-miterlimit="2" stroke-opacity="1" stroke-width="2" transform="matrix(1.83486,0,0,1.83486,187.156,82.5688)"><path d="M0,-5 L5,0 L0,5" fill-rule="evenodd" vector-effect="none"/></g><defs><clipPath id="clip6"><path d="M-102,-15 L7,-15 L7,45 L-102,45 L-102,-15 z"/></clipPath></defs><g clip-path="url(#clip6)" fill="none" opacity="1" stroke="#000000" stroke-linecap="round" stroke-linejoin="miter" stroke-miterlimit="2" stroke-opacity="1" stroke-width="2" transform="matrix(1.83486,0,0,1.83486,187.156,27.5229)"><path d="M0,-5 L5,0 L0,5" fill-rule="evenodd" vector-effect="none"/></g><defs><clipPath id="clip9"><path d="M7,30 L-102,30 L-102,-30 L7,-30 L7,30 z"/></clipPath></defs><g clip-path="url(#clip9)" fill="none" opacity="1" stroke="#000000" stroke-linecap="round" stroke-linejoin="miter" stroke-miterlimit="2" stroke-opacity="1" stroke-width="2" transform="matrix(-1.83486,0,0,-1.83486,12.844,55.0459)"><path d="M5,-5 L0,0 L5,5" fill-rule="evenodd" vector-effect="none"/></g><defs><clipPath id="clip12"><path d="M-7,-2 L102,-2 L102,58 L-7,58 L-7,-2 z"/></clipPath></defs><g clip-path="url(#clip12)" fill="#ffffff" fill-opacity="1" opacity="1" stroke="none" stroke-opacity="0" transform="matrix(1.83486,0,0,1.83486,12.844,3.66972)"><path d="M0,0 L95,0 L95,56 L0,56 L0,0 z" fill-rule="evenodd" vector-effect="none"/></g><defs><clipPath id="clip16"><path d="M19,52 L114,52 L114,108 L19,108 L19,52 z"/></clipPath></defs><g clip-path="url(#clip16)" fill="none" opacity="1" stroke="#000000" stroke-linecap="butt" stroke-linejoin="miter" stroke-miterlimit="2" stroke-opacity="1" stroke-width="0.545" transform="matrix(1.83486,0,0,1.83486,-22.9358,-90.8257)"><polyline fill="none" points="75,100 99,100" vector-effect="none"/></g><defs><clipPath id="clip17"><path d="M19,52 L114,52 L114,108 L19,108 L19,52 z"/></clipPath></defs><g clip-path="url(#clip17)" fill="none" opacity="1" stroke="#000000" stroke-linecap="butt" stroke-linejoin="miter" stroke-miterlimit="2" stroke-opacity="1" stroke-width="0.545" transform="matrix(1.83486,0,0,1.83486,-22.9358,-90.8257)"><polyline fill="none" points="99,100 75,70" vector-effect="none"/></g><defs><clipPath id="clip18"><path d="M19,52 L114,52 L114,108 L19,108 L19,52 z"/></clipPath></defs><g clip-path="url(#clip18)" fill="none" opacity="1" stroke="#000000" stroke-linecap="butt" stroke-linejoin="miter" stroke-miterlimit="2" stroke-opacity="1" stroke-width="0.545" transform="matrix(1.83486,0,0,1.83486,-22.9358,-90.8257)"><polyline fill="none" points="75,70 75,100" vector-effect="none"/></g><defs><clipPath id="clip19"><path d="M19,52 L114,52 L114,108 L19,108 L19,52 z"/></clipPath></defs><g clip-path="url(#clip19)" fill="none" opacity="1" stroke="#000000" stroke-linecap="butt" stroke-linejoin="miter" stroke-miterlimit="2" stroke-opacity="1" stroke-width="0.545" transform="matrix(1.83486,0,0,1.83486,-22.9358,-90.8257)"><polyline fill="none" points="103,100 79,70" vector-effect="none"/></g><defs><clipPath id="clip20"><path d="M19,52 L114,52 L114,108 L19,108 L19,52 z"/></clipPath></defs><g clip-path="url(#clip20)" fill="none" opacity="1" stroke="#000000" stroke-linecap="butt" stroke-linejoin="miter" stroke-miterlimit="2" stroke-opacity="1" stroke-width="0.545" transform="matrix(1.83486,0,0,1.83486,-22.9358,-90.8257)"><polyline fill="none" points="79,70 103,70" vector-effect="none"/></g><defs><clipPath id="clip21"><path d="M19,52 L114,52 L114,108 L19,108 L19,52 z"/></clipPath></defs><g clip-path="url(#clip21)" fill="none" opacity="1" stroke="#000000" stroke-linecap="butt" stroke-linejoin="miter" stroke-miterlimit="2" stroke-opacity="1" stroke-width="0.545" transform="matrix(1.83486,0,0,1.83486,-22.9358,-90.8257)"><polyline fill="none" points="103,70 103,100" vector-effect="none"/></g><defs><clipPath id="clip22"><path d="M19,52 L114,52 L114,108 L19,108 L19,52 z"/></clipPath></defs><g clip-path="url(#clip22)" fill="none" opacity="1" stroke="#000000" stroke-linecap="butt" stroke-linejoin="miter" stroke-miterlimit="2" stroke-opacity="1" stroke-width="0.545" transform="matrix(1.83486,0,0,1.83486,-22.9358,-90.8257)"><polyline fill="none" points="34,100 63,100" vector-effect="none"/></g><defs><clipPath id="clip23"><path d="M19,52 L114,52 L114,108 L19,108 L19,52 z"/></clipPath></defs><g clip-path="url(#clip23)" fill="none" opacity="1" stroke="#000000" stroke-linecap="butt" stroke-linejoin="miter" stroke-miterlimit="2" stroke-opacity="1" stroke-width="0.545" transform="matrix(1.83486,0,0,1.83486,-22.9358,-90.8257)"><polyline fill="none" points="63,100 63,70" vector-effect="none"/></g><defs><clipPath id="clip24"><path d="M19,52 L114,52 L114,108 L19,108 L19,52 z"/></clipPath></defs><g clip-path="url(#clip24)" fill="none" opacity="1" stroke="#000000" stroke-linecap="butt" stroke-linejoin="miter" stroke-miterlimit="2" stroke-opacity="1" stroke-width="0.545" transform="matrix(1.83486,0,0,1.83486,-22.9358,-90.8257)"><polyline fill="none" points="63,70 34,70" vector-effect="none"/></g><defs><clipPath id="clip25"><path d="M19,52 L114,52 L114,108 L19,108 L19,52 z"/></clipPath></defs><g clip-path="url(#clip25)" fill="none" opacity="1" stroke="#000000" stroke-linecap="butt" stroke-linejoin="miter" stroke-miterlimit="2" stroke-opacity="1" stroke-width="0.545" transform="matrix(1.83486,0,0,1.83486,-22.9358,-90.8257)"><polyline fill="none" points="34,70 34,100" vector-effect="none"/></g><defs><clipPath id="clip26"><path d="M19,52 L114,52 L114,108 L19,108 L19,52 z"/></clipPath></defs><g clip-path="url(#clip26)" fill="none" opacity="1" stroke="#000000" stroke-linecap="butt" stroke-linejoin="miter" stroke-miterlimit="2" stroke-opacity="1" stroke-width="0.545" transform="matrix(1.83486,0,0,1.83486,-22.9358,-90.8257)"><polyline fill="none" points="70,88 70,86" vector-effect="none"/></g><defs><clipPath id="clip27"><path d="M19,52 L114,52 L114,108 L19,108 L19,52 z"/></clipPath></defs><g clip-path="url(#clip27)" fill="none" opacity="1" stroke="#000000" stroke-linecap="butt" stroke-linejoin="miter" stroke-miterlimit="2" stroke-opacity="1" stroke-width="0.545" transform="matrix(1.83486,0,0,1.83486,-22.9358,-90.8257)"><polyline fill="none" points="70,86 65,86" vector-effect="none"/></g><defs><clipPath id="clip28"><path d="M19,52 L114,52 L114,108 L19,108 L19,52 z"/></clipPath></defs><g clip-path="url(#clip28)" fill="none" opacity="1" stroke="#000000" stroke-linecap="butt" stroke-linejoin="miter" stroke-miterlimit="2" stroke-opacity="1" stroke-width="0.545" transform="matrix(1.83486,0,0,1.83486,-22.9358,-90.8257)"><polyline fill="none" points="65,86 65,84" vector-effect="none"/></g><defs><clipPath id="clip29"><path d="M19,52 L114,52 L114,108 L19,108 L19,52 z"/></clipPath></defs><g clip-path="url(#clip29)" fill="none" opacity="1" stroke="#000000" stroke-linecap="butt" stroke-linejoin="miter" stroke-miterlimit="2" stroke-opacity="1" stroke-width="0.545" transform="matrix(1.83486,0,0,1.83486,-22.9358,-90.8257)"><polyline fill="none" points="65,84 70,84" vector-effect="none"/></g><defs><clipPath id="clip30"><path d="M19,52 L114,52 L114,108 L19,108 L19,52 z"/></clipPath></defs><g clip-path="url(#clip30)" fill="none" opacity="1" stroke="#000000" stroke-linecap="butt" stroke-linejoin="miter" stroke-miterlimit="2" stroke-opacity="1" stroke-width="0.545" transform="matrix(1.83486,0,0,1.83486,-22.9358,-90.8257)"><polyline fill="none" points="70,84 70,82" vector-effect="none"/></g><defs><clipPath id="clip31"><path d="M19,52 L114,52 L114,108 L19,108 L19,52 z"/></clipPath></defs><g clip-path="url(#clip31)" fill="none" opacity="1" stroke="#000000" stroke-linecap="butt" stroke-linejoin="miter" stroke-miterlimit="2" stroke-opacity="1" stroke-width="0.545" transform="matrix(1.83486,0,0,1.83486,-22.9358,-90.8257)"><polyline fill="none" points="70,82 73,85" vector-effect="none"/></g><defs><clipPath id="clip32"><path d="M19,52 L114,52 L114,108 L19,108 L19,52 z"/></clipPath></defs><g clip-path="url(#clip32)" fill="none" opacity="1" stroke="#000000" stroke-linecap="butt" stroke-linejoin="miter" stroke-miterlimit="2" stroke-opacity="1" stroke-width="0.545" transform="matrix(1.83486,0,0,1.83486,-22.9358,-90.8257)"><polyline fill="none" points="73,85 70,88" vector-effect="none"/></g><defs><clipPath id="clip34"><path d="M-118,-36 L368,-36 L368,251 L-118,251 L-118,-36 z"/></clipPath></defs><g clip-path="url(#clip34)" fill="none" opacity="1" stroke="#000000" stroke-linecap="butt" stroke-linejoin="miter" stroke-miterlimit="2" stroke-opacity="1" stroke-width="0.545" transform="matrix(0.358372,0,0,0.358372,55.0459,16.5138)"><text fill="#000000" fill-opacity="1" font-family="Liberation Sans" font-size="40" font-style="normal" font-weight="400" stroke="none" textLength="166" x="0" xml:space="preserve" y="17.9219">P A = L U</text></g><defs><clipPath id="clip37"><path d="M-15,-143 L471,-143 L471,144 L-15,144 L-15,-143 z"/></clipPath></defs><g clip-path="url(#clip37)" fill="none" opacity="1" stroke="#000000" stroke-linecap="butt" stroke-linejoin="miter" stroke-miterlimit="2" stroke-opacity="1" stroke-width="0.545" transform="matrix(0.358372,0,0,0.358372,18.3486,55.0459)"><text fill="#000000" fill-opacity="1" font-family="Liberation Sans" font-size="40" font-style="normal" font-weight="400" stroke="none" textLength="27" x="0" xml:space="preserve" y="17.9219">A</text></g><defs><clipPath id="clip40"><path d="M-471,-67 L15,-67 L15,220 L-471,220 L-471,-67 z"/></clipPath></defs><g clip-path="url(#clip40)" fill="none" opacity="1" stroke="#000000" stroke-linecap="butt" stroke-linejoin="miter" stroke-miterlimit="2" stroke-opacity="1" stroke-width="0.545" transform="matrix(0.358372,0,0,0.358372,181.651,27.5229)"><text fill="#000000" fill-opacity="1" font-family="Liberation Sans" font-size="40" font-style="normal" font-weight="400" stroke="none" textLength="51" x="-65.4062" xml:space="preserve" y="17.9219">LU</text></g><defs><clipPath id="clip43"><path d="M-471,-220 L15,-220 L15,67 L-471,67 L-471,-220 z"/></clipPath></defs><g clip-path="url(#clip43)" fill="none" opacity="1" stroke="#000000" stroke-linecap="butt" stroke-linejoin="miter" stroke-miterlimit="2" stroke-opacity="1" stroke-width="0.545" transform="matrix(0.358372,0,0,0.358372,181.651,82.5688)"><text fill="#000000" fill-opacity="1" font-family="Liberation Sans" font-size="40" font-style="normal" font-weight="400" stroke="none" textLength="27" x="-34.125" xml:space="preserve" y="17.9219">P</text></g><defs><clipPath id="clip49"><path d="M-7,-2 L102,-2 L102,58 L-7,58 L-7,-2 z"/></clipPath></defs><g clip-path="url(#clip49)" fill="none" opacity="1" stroke="#000000" stroke-linecap="butt" stroke-linejoin="miter" stroke-miterlimit="2" stroke-opacity="1" stroke-width="0.784438" transform="matrix(1.83486,0,0,1.83486,12.844,3.66972)"><path d="M0,0 L95,0 L95,56 L0,56 L0,0 z" fill-rule="evenodd" vector-effect="none"/></g></g></svg>
