<?xml version="1.0" encoding="UTF-8"?><svg width="52.9167mm" height="36.7771mm" viewBox="0 0 200 139" xmlns="http://www.w3.org/2000/svg" xmlns:xlink="http://www.w3.org/1999/xlink"><g fill="none" stroke="black" stroke-width="1" fill-rule="evenodd" stroke-linecap="square" stroke-linejoin="bevel"><g clip-path="none" fill="none" opacity="1" stroke="none" stroke-opacity="0" transform="matrix(1,0,0,1,0,0)"><path d="M0,0 L200,0 L200,139 L0,139 L0,0 z" fill-rule="evenodd" vector-effect="none"/></g><defs><clipPath id="clip3"><path d="M-62,-24 L7,-24 L7,24 L-62,24 L-62,-24 z"/></clipPath></defs><g clip-path="url(#clip3)" fill="none" opacity="1" stroke="#000000" stroke-linecap="round" stroke-linejoin="miter" stroke-miterlimit="2" stroke-opacity="1" stroke-width="2" transform="matrix(2.89855,0,0,2.89855,179.71,69.5652)"><path d="M0,-5 L5,0 L0,5" fill-rule="evenodd" vector-effect="none"/></g><defs><clipPath id="clip6"><path d="M-2,-2 L67,-2 L67,46 L-2,46 L-2,-2 z"/></clipPath></defs><g clip-path="url(#clip6)" fill="#ffffff" fill-opacity="1" opacity="1" stroke="none" stroke-opacity="0" transform="matrix(2.89855,0,0,2.89855,5.7971,5.7971)"><path d="M0,0 L60,0 L60,44 L0,44 L0,0 z" fill-rule="evenodd" vector-effect="none"/></g><defs><clipPath id="clip11"><path d="M-154,-113 L153,-113 L153,112 L-154,112 L-154,-113 z"/></clipPath></defs><g clip-path="url(#clip11)" fill="none" opacity="1" stroke="#000000" stroke-linecap="butt" stroke-linejoin="miter" stroke-miterlimit="2" stroke-opacity="1" stroke-width="0.345" transform="matrix(0.566123,0,0,0.566123,92.7536,69.5652)"><text fill="#000000" fill-opacity="1" font-family="Liberation Sans" font-size="40" font-style="normal" font-weight="400" stroke="none" textLength="111" x="-72.5156" xml:space="preserve" y="17.9219">eye(5)</text></g><defs><clipPath id="clip17"><path d="M-2,-2 L67,-2 L67,46 L-2,46 L-2,-2 z"/></clipPath></defs><g clip-path="url(#clip17)" fill="none" opacity="1" stroke="#000000" stroke-linecap="butt" stroke-linejoin="miter" stroke-miterlimit="2" stroke-opacity="1" stroke-width="0.653323" transform="matrix(2.89855,0,0,2.89855,5.7971,5.7971)"><path d="M0,0 L60,0 L60,44 L0,44 L0,0 z" fill-rule="evenodd" vector-effect="none"/></g></g></svg>
