<?xml version="1.0" encoding="UTF-8"?><svg width="52.9167mm" height="35.1896mm" viewBox="0 0 200 133" xmlns="http://www.w3.org/2000/svg" xmlns:xlink="http://www.w3.org/1999/xlink"><g fill="none" stroke="black" stroke-width="1" fill-rule="evenodd" stroke-linecap="square" stroke-linejoin="bevel"><g clip-path="none" fill="none" opacity="1" stroke="none" stroke-opacity="0" transform="matrix(1,0,0,1,0,0)"><path d="M0,0 L200,0 L200,133 L0,133 L0,0 z" fill-rule="evenodd" vector-effect="none"/></g><defs><clipPath id="clip3"><path d="M7,13 L-62,13 L-62,-33 L7,-33 L7,13 z"/></clipPath></defs><g clip-path="url(#clip3)" fill="none" opacity="1" stroke="#000000" stroke-linecap="round" stroke-linejoin="miter" stroke-miterlimit="2" stroke-opacity="1" stroke-width="2" transform="matrix(-2.89855,0,0,-2.89855,20.2899,37.6812)"><path d="M5,-5 L0,0 L5,5" fill-rule="evenodd" vector-effect="none"/></g><defs><clipPath id="clip6"><path d="M-62,-23 L7,-23 L7,23 L-62,23 L-62,-23 z"/></clipPath></defs><g clip-path="url(#clip6)" fill="none" opacity="1" stroke="#000000" stroke-linecap="round" stroke-linejoin="miter" stroke-miterlimit="2" stroke-opacity="1" stroke-width="2" transform="matrix(2.89855,0,0,2.89855,179.71,66.6667)"><path d="M0,-5 L5,0 L0,5" fill-rule="evenodd" vector-effect="none"/></g><defs><clipPath id="clip9"><path d="M7,33 L-62,33 L-62,-13 L7,-13 L7,33 z"/></clipPath></defs><g clip-path="url(#clip9)" fill="none" opacity="1" stroke="#000000" stroke-linecap="round" stroke-linejoin="miter" stroke-miterlimit="2" stroke-opacity="1" stroke-width="2" transform="matrix(-2.89855,0,0,-2.89855,20.2899,95.6522)"><path d="M5,-5 L0,0 L5,5" fill-rule="evenodd" vector-effect="none"/></g><defs><clipPath id="clip12"><path d="M-7,-2 L62,-2 L62,44 L-7,44 L-7,-2 z"/></clipPath></defs><g clip-path="url(#clip12)" fill="#ffffff" fill-opacity="1" opacity="1" stroke="none" stroke-opacity="0" transform="matrix(2.89855,0,0,2.89855,20.2899,5.7971)"><path d="M0,0 L55,0 L55,42 L0,42 L0,0 z" fill-rule="evenodd" vector-effect="none"/></g><defs><clipPath id="clip16"><path d="M30,144 L85,144 L85,186 L30,186 L30,144 z"/></clipPath></defs><g clip-path="url(#clip16)" fill="#ffffff" fill-opacity="1" opacity="1" stroke="#ffffff" stroke-linecap="square" stroke-linejoin="bevel" stroke-opacity="1" stroke-width="1" transform="matrix(2.89855,0,0,2.89855,-66.6667,-411.594)"><path d="M50,169 L73,169 L73,153 L50,153 L50,169 z" fill-rule="evenodd" vector-effect="none"/></g><defs><clipPath id="clip17"><path d="M30,144 L85,144 L85,186 L30,186 L30,144 z"/></clipPath></defs><g clip-path="url(#clip17)" fill="#cccccc" fill-opacity="1" opacity="1" stroke="#cccccc" stroke-linecap="square" stroke-linejoin="bevel" stroke-opacity="1" stroke-width="1" transform="matrix(2.89855,0,0,2.89855,-66.6667,-411.594)"><path d="M73,169 L80,165 L80,149 L73,153 L73,169 z" fill-rule="evenodd" vector-effect="none"/></g><defs><clipPath id="clip18"><path d="M30,144 L85,144 L85,186 L30,186 L30,144 z"/></clipPath></defs><g clip-path="url(#clip18)" fill="#ffffff" fill-opacity="1" opacity="1" stroke="#ffffff" stroke-linecap="square" stroke-linejoin="bevel" stroke-opacity="1" stroke-width="1" transform="matrix(2.89855,0,0,2.89855,-66.6667,-411.594)"><path d="M50,153 L73,153 L80,149 L57,149 L50,153 z" fill-rule="evenodd" vector-effect="none"/></g><defs><clipPath id="clip19"><path d="M30,143 L85,143 L85,185 L30,185 L30,143 z"/></clipPath></defs><g clip-path="url(#clip19)" fill="#ffffff" fill-opacity="1" opacity="1" stroke="#000000" stroke-linecap="square" stroke-linejoin="bevel" stroke-opacity="1" stroke-width="1" transform="matrix(2.89855,0,0,2.89855,-65.2174,-410.145)"><polyline fill="none" points="50,169 73,169" vector-effect="none"/></g><defs><clipPath id="clip20"><path d="M30,143 L85,143 L85,185 L30,185 L30,143 z"/></clipPath></defs><g clip-path="url(#clip20)" fill="#ffffff" fill-opacity="1" opacity="1" stroke="#000000" stroke-linecap="square" stroke-linejoin="bevel" stroke-opacity="1" stroke-width="1" transform="matrix(2.89855,0,0,2.89855,-65.2174,-410.145)"><polyline fill="none" points="73,169 73,153" vector-effect="none"/></g><defs><clipPath id="clip21"><path d="M30,143 L85,143 L85,185 L30,185 L30,143 z"/></clipPath></defs><g clip-path="url(#clip21)" fill="#ffffff" fill-opacity="1" opacity="1" stroke="#000000" stroke-linecap="square" stroke-linejoin="bevel" stroke-opacity="1" stroke-width="1" transform="matrix(2.89855,0,0,2.89855,-65.2174,-410.145)"><polyline fill="none" points="73,153 50,153" vector-effect="none"/></g><defs><clipPath id="clip22"><path d="M30,143 L85,143 L85,185 L30,185 L30,143 z"/></clipPath></defs><g clip-path="url(#clip22)" fill="#ffffff" fill-opacity="1" opacity="1" stroke="#000000" stroke-linecap="square" stroke-linejoin="bevel" stroke-opacity="1" stroke-width="1" transform="matrix(2.89855,0,0,2.89855,-65.2174,-410.145)"><polyline fill="none" points="50,153 50,169" vector-effect="none"/></g><defs><clipPath id="clip23"><path d="M30,143 L85,143 L85,185 L30,185 L30,143 z"/></clipPath></defs><g clip-path="url(#clip23)" fill="#ffffff" fill-opacity="1" opacity="1" stroke="#000000" stroke-linecap="square" stroke-linejoin="bevel" stroke-opacity="1" stroke-width="1" transform="matrix(2.89855,0,0,2.89855,-65.2174,-410.145)"><polyline fill="none" points="73,169 80,165" vector-effect="none"/></g><defs><clipPath id="clip24"><path d="M30,143 L85,143 L85,185 L30,185 L30,143 z"/></clipPath></defs><g clip-path="url(#clip24)" fill="#ffffff" fill-opacity="1" opacity="1" stroke="#000000" stroke-linecap="square" stroke-linejoin="bevel" stroke-opacity="1" stroke-width="1" transform="matrix(2.89855,0,0,2.89855,-65.2174,-410.145)"><polyline fill="none" points="80,165 80,149" vector-effect="none"/></g><defs><clipPath id="clip25"><path d="M30,143 L85,143 L85,185 L30,185 L30,143 z"/></clipPath></defs><g clip-path="url(#clip25)" fill="#ffffff" fill-opacity="1" opacity="1" stroke="#000000" stroke-linecap="square" stroke-linejoin="bevel" stroke-opacity="1" stroke-width="1" transform="matrix(2.89855,0,0,2.89855,-65.2174,-410.145)"><polyline fill="none" points="80,149 73,153" vector-effect="none"/></g><defs><clipPath id="clip26"><path d="M30,143 L85,143 L85,185 L30,185 L30,143 z"/></clipPath></defs><g clip-path="url(#clip26)" fill="#ffffff" fill-opacity="1" opacity="1" stroke="#000000" stroke-linecap="square" stroke-linejoin="bevel" stroke-opacity="1" stroke-width="1" transform="matrix(2.89855,0,0,2.89855,-65.2174,-410.145)"><polyline fill="none" points="73,153 73,169" vector-effect="none"/></g><defs><clipPath id="clip27"><path d="M30,143 L85,143 L85,185 L30,185 L30,143 z"/></clipPath></defs><g clip-path="url(#clip27)" fill="#ffffff" fill-opacity="1" opacity="1" stroke="#000000" stroke-linecap="square" stroke-linejoin="bevel" stroke-opacity="1" stroke-width="1" transform="matrix(2.89855,0,0,2.89855,-65.2174,-410.145)"><polyline fill="none" points="50,153 73,153" vector-effect="none"/></g><defs><clipPath id="clip28"><path d="M30,143 L85,143 L85,185 L30,185 L30,143 z"/></clipPath></defs><g clip-path="url(#clip28)" fill="#ffffff" fill-opacity="1" opacity="1" stroke="#000000" stroke-linecap="square" stroke-linejoin="bevel" stroke-opacity="1" stroke-width="1" transform="matrix(2.89855,0,0,2.89855,-65.2174,-410.145)"><polyline fill="none" points="73,153 80,149" vector-effect="none"/></g><defs><clipPath id="clip29"><path d="M30,143 L85,143 L85,185 L30,185 L30,143 z"/></clipPath></defs><g clip-path="url(#clip29)" fill="#ffffff" fill-opacity="1" opacity="1" stroke="#000000" stroke-linecap="square" stroke-linejoin="bevel" stroke-opacity="1" stroke-width="1" transform="matrix(2.89855,0,0,2.89855,-65.2174,-410.145)"><polyline fill="none" points="80,149 57,149" vector-effect="none"/></g><defs><clipPath id="clip30"><path d="M30,143 L85,143 L85,185 L30,185 L30,143 z"/></clipPath></defs><g clip-path="url(#clip30)" fill="#ffffff" fill-opacity="1" opacity="1" stroke="#000000" stroke-linecap="square" stroke-linejoin="bevel" stroke-opacity="1" stroke-width="1" transform="matrix(2.89855,0,0,2.89855,-65.2174,-410.145)"><polyline fill="none" points="57,149 50,153" vector-effect="none"/></g><defs><clipPath id="clip31"><path d="M30,144 L85,144 L85,186 L30,186 L30,144 z"/></clipPath></defs><g clip-path="url(#clip31)" fill="#ffffff" fill-opacity="1" opacity="1" stroke="#ffffff" stroke-linecap="square" stroke-linejoin="bevel" stroke-opacity="1" stroke-width="1" transform="matrix(2.89855,0,0,2.89855,-66.6667,-411.594)"><path d="M35,181 L57,181 L57,165 L35,165 L35,181 z" fill-rule="evenodd" vector-effect="none"/></g><defs><clipPath id="clip32"><path d="M30,144 L85,144 L85,186 L30,186 L30,144 z"/></clipPath></defs><g clip-path="url(#clip32)" fill="#cccccc" fill-opacity="1" opacity="1" stroke="#cccccc" stroke-linecap="square" stroke-linejoin="bevel" stroke-opacity="1" stroke-width="1" transform="matrix(2.89855,0,0,2.89855,-66.6667,-411.594)"><path d="M57,181 L64,176 L64,160 L57,165 L57,181 z" fill-rule="evenodd" vector-effect="none"/></g><defs><clipPath id="clip33"><path d="M30,144 L85,144 L85,186 L30,186 L30,144 z"/></clipPath></defs><g clip-path="url(#clip33)" fill="#ffffff" fill-opacity="1" opacity="1" stroke="#ffffff" stroke-linecap="square" stroke-linejoin="bevel" stroke-opacity="1" stroke-width="1" transform="matrix(2.89855,0,0,2.89855,-66.6667,-411.594)"><path d="M35,165 L57,165 L64,160 L41,160 L35,165 z" fill-rule="evenodd" vector-effect="none"/></g><defs><clipPath id="clip34"><path d="M30,143 L85,143 L85,185 L30,185 L30,143 z"/></clipPath></defs><g clip-path="url(#clip34)" fill="#ffffff" fill-opacity="1" opacity="1" stroke="#000000" stroke-linecap="square" stroke-linejoin="bevel" stroke-opacity="1" stroke-width="1" transform="matrix(2.89855,0,0,2.89855,-65.2174,-410.145)"><polyline fill="none" points="35,181 57,181" vector-effect="none"/></g><defs><clipPath id="clip35"><path d="M30,143 L85,143 L85,185 L30,185 L30,143 z"/></clipPath></defs><g clip-path="url(#clip35)" fill="#ffffff" fill-opacity="1" opacity="1" stroke="#000000" stroke-linecap="square" stroke-linejoin="bevel" stroke-opacity="1" stroke-width="1" transform="matrix(2.89855,0,0,2.89855,-65.2174,-410.145)"><polyline fill="none" points="57,181 57,165" vector-effect="none"/></g><defs><clipPath id="clip36"><path d="M30,143 L85,143 L85,185 L30,185 L30,143 z"/></clipPath></defs><g clip-path="url(#clip36)" fill="#ffffff" fill-opacity="1" opacity="1" stroke="#000000" stroke-linecap="square" stroke-linejoin="bevel" stroke-opacity="1" stroke-width="1" transform="matrix(2.89855,0,0,2.89855,-65.2174,-410.145)"><polyline fill="none" points="57,165 35,165" vector-effect="none"/></g><defs><clipPath id="clip37"><path d="M30,143 L85,143 L85,185 L30,185 L30,143 z"/></clipPath></defs><g clip-path="url(#clip37)" fill="#ffffff" fill-opacity="1" opacity="1" stroke="#000000" stroke-linecap="square" stroke-linejoin="bevel" stroke-opacity="1" stroke-width="1" transform="matrix(2.89855,0,0,2.89855,-65.2174,-410.145)"><polyline fill="none" points="35,165 35,181" vector-effect="none"/></g><defs><clipPath id="clip38"><path d="M30,143 L85,143 L85,185 L30,185 L30,143 z"/></clipPath></defs><g clip-path="url(#clip38)" fill="#ffffff" fill-opacity="1" opacity="1" stroke="#000000" stroke-linecap="square" stroke-linejoin="bevel" stroke-opacity="1" stroke-width="1" transform="matrix(2.89855,0,0,2.89855,-65.2174,-410.145)"><polyline fill="none" points="57,181 64,176" vector-effect="none"/></g><defs><clipPath id="clip39"><path d="M30,143 L85,143 L85,185 L30,185 L30,143 z"/></clipPath></defs><g clip-path="url(#clip39)" fill="#ffffff" fill-opacity="1" opacity="1" stroke="#000000" stroke-linecap="square" stroke-linejoin="bevel" stroke-opacity="1" stroke-width="1" transform="matrix(2.89855,0,0,2.89855,-65.2174,-410.145)"><polyline fill="none" points="64,176 64,160" vector-effect="none"/></g><defs><clipPath id="clip40"><path d="M30,143 L85,143 L85,185 L30,185 L30,143 z"/></clipPath></defs><g clip-path="url(#clip40)" fill="#ffffff" fill-opacity="1" opacity="1" stroke="#000000" stroke-linecap="square" stroke-linejoin="bevel" stroke-opacity="1" stroke-width="1" transform="matrix(2.89855,0,0,2.89855,-65.2174,-410.145)"><polyline fill="none" points="64,160 57,165" vector-effect="none"/></g><defs><clipPath id="clip41"><path d="M30,143 L85,143 L85,185 L30,185 L30,143 z"/></clipPath></defs><g clip-path="url(#clip41)" fill="#ffffff" fill-opacity="1" opacity="1" stroke="#000000" stroke-linecap="square" stroke-linejoin="bevel" stroke-opacity="1" stroke-width="1" transform="matrix(2.89855,0,0,2.89855,-65.2174,-410.145)"><polyline fill="none" points="57,165 57,181" vector-effect="none"/></g><defs><clipPath id="clip42"><path d="M30,143 L85,143 L85,185 L30,185 L30,143 z"/></clipPath></defs><g clip-path="url(#clip42)" fill="#ffffff" fill-opacity="1" opacity="1" stroke="#000000" stroke-linecap="square" stroke-linejoin="bevel" stroke-opacity="1" stroke-width="1" transform="matrix(2.89855,0,0,2.89855,-65.2174,-410.145)"><polyline fill="none" points="35,165 57,165" vector-effect="none"/></g><defs><clipPath id="clip43"><path d="M30,143 L85,143 L85,185 L30,185 L30,143 z"/></clipPath></defs><g clip-path="url(#clip43)" fill="#ffffff" fill-opacity="1" opacity="1" stroke="#000000" stroke-linecap="square" stroke-linejoin="bevel" stroke-opacity="1" stroke-width="1" transform="matrix(2.89855,0,0,2.89855,-65.2174,-410.145)"><polyline fill="none" points="57,165 64,160" vector-effect="none"/></g><defs><clipPath id="clip44"><path d="M30,143 L85,143 L85,185 L30,185 L30,143 z"/></clipPath></defs><g clip-path="url(#clip44)" fill="#ffffff" fill-opacity="1" opacity="1" stroke="#000000" stroke-linecap="square" stroke-linejoin="bevel" stroke-opacity="1" stroke-width="1" transform="matrix(2.89855,0,0,2.89855,-65.2174,-410.145)"><polyline fill="none" points="64,160 41,160" vector-effect="none"/></g><defs><clipPath id="clip45"><path d="M30,143 L85,143 L85,185 L30,185 L30,143 z"/></clipPath></defs><g clip-path="url(#clip45)" fill="#ffffff" fill-opacity="1" opacity="1" stroke="#000000" stroke-linecap="square" stroke-linejoin="bevel" stroke-opacity="1" stroke-width="1" transform="matrix(2.89855,0,0,2.89855,-65.2174,-410.145)"><polyline fill="none" points="41,160 35,165" vector-effect="none"/></g><defs><clipPath id="clip46"><path d="M30,143 L85,143 L85,185 L30,185 L30,143 z"/></clipPath></defs><g clip-path="url(#clip46)" fill="#ffffff" fill-opacity="1" opacity="1" stroke="#000000" stroke-dasharray="4,2" stroke-dashoffset="0" stroke-linecap="square" stroke-linejoin="bevel" stroke-opacity="1" stroke-width="1" transform="matrix(2.89855,0,0,2.89855,-65.2174,-410.145)"><polyline fill="none" points="41,160 50,153" vector-effect="none"/></g><defs><clipPath id="clip47"><path d="M30,143 L85,143 L85,185 L30,185 L30,143 z"/></clipPath></defs><g clip-path="url(#clip47)" fill="#ffffff" fill-opacity="1" opacity="1" stroke="#000000" stroke-dasharray="4,2" stroke-dashoffset="0" stroke-linecap="square" stroke-linejoin="bevel" stroke-opacity="1" stroke-width="1" transform="matrix(2.89855,0,0,2.89855,-65.2174,-410.145)"><polyline fill="none" points="64,160 73,153" vector-effect="none"/></g><defs><clipPath id="clip48"><path d="M30,143 L85,143 L85,185 L30,185 L30,143 z"/></clipPath></defs><g clip-path="url(#clip48)" fill="#ffffff" fill-opacity="1" opacity="1" stroke="#000000" stroke-dasharray="4,2" stroke-dashoffset="0" stroke-linecap="square" stroke-linejoin="bevel" stroke-opacity="1" stroke-width="1" transform="matrix(2.89855,0,0,2.89855,-65.2174,-410.145)"><polyline fill="none" points="64,176 73,169" vector-effect="none"/></g><defs><clipPath id="clip50"><path d="M-256,-189 L26,-189 L26,26 L-256,26 L-256,-189 z"/></clipPath></defs><g clip-path="url(#clip50)" fill="#ffffff" fill-opacity="1" opacity="1" stroke="#000000" stroke-linecap="square" stroke-linejoin="bevel" stroke-opacity="1" stroke-width="1" transform="matrix(0.566123,0,0,0.566123,165.217,113.043)"><text fill="#000000" fill-opacity="1" font-family="Liberation Sans" font-size="40" font-style="normal" font-weight="400" stroke="none" textLength="22" x="-28.4531" xml:space="preserve" y="1.28125">2</text></g><defs><clipPath id="clip56"><path d="M-7,-2 L62,-2 L62,44 L-7,44 L-7,-2 z"/></clipPath></defs><g clip-path="url(#clip56)" fill="none" opacity="1" stroke="#000000" stroke-linecap="butt" stroke-linejoin="miter" stroke-miterlimit="2" stroke-opacity="1" stroke-width="0.653323" transform="matrix(2.89855,0,0,2.89855,20.2899,5.7971)"><path d="M0,0 L55,0 L55,42 L0,42 L0,0 z" fill-rule="evenodd" vector-effect="none"/></g></g></svg>
