<?xml version="1.0" encoding="UTF-8"?><svg width="52.9167mm" height="32.0146mm" viewBox="0 0 200 121" xmlns="http://www.w3.org/2000/svg" xmlns:xlink="http://www.w3.org/1999/xlink"><g fill="none" stroke="black" stroke-width="1" fill-rule="evenodd" stroke-linecap="square" stroke-linejoin="bevel"><g clip-path="none" fill="none" opacity="1" stroke="none" stroke-opacity="0" transform="matrix(1,0,0,1,0,0)"><path d="M0,0 L200,0 L200,121 L0,121 L0,0 z" fill-rule="evenodd" vector-effect="none"/></g><defs><clipPath id="clip3"><path d="M-82,-27 L7,-27 L7,27 L-82,27 L-82,-27 z"/></clipPath></defs><g clip-path="url(#clip3)" fill="none" opacity="1" stroke="#000000" stroke-linecap="round" stroke-linejoin="miter" stroke-miterlimit="2" stroke-opacity="1" stroke-width="2" transform="matrix(2.24719,0,0,2.24719,184.27,60.6742)"><path d="M0,-5 L5,0 L0,5" fill-rule="evenodd" vector-effect="none"/></g><defs><clipPath id="clip6"><path d="M7,27 L-82,27 L-82,-27 L7,-27 L7,27 z"/></clipPath></defs><g clip-path="url(#clip6)" fill="none" opacity="1" stroke="#000000" stroke-linecap="round" stroke-linejoin="miter" stroke-miterlimit="2" stroke-opacity="1" stroke-width="2" transform="matrix(-2.24719,0,0,-2.24719,15.7303,60.6742)"><path d="M5,-5 L0,0 L5,5" fill-rule="evenodd" vector-effect="none"/></g><defs><clipPath id="clip9"><path d="M-7,-2 L82,-2 L82,52 L-7,52 L-7,-2 z"/></clipPath></defs><g clip-path="url(#clip9)" fill="#ffffff" fill-opacity="1" opacity="1" stroke="none" stroke-opacity="0" transform="matrix(2.24719,0,0,2.24719,15.7303,4.49438)"><path d="M0,0 L75,0 L75,50 L0,50 L0,0 z" fill-rule="evenodd" vector-effect="none"/></g><defs><clipPath id="clip13"><path d="M475,229 L550,229 L550,279 L475,279 L475,229 z"/></clipPath></defs><g clip-path="url(#clip13)" fill="none" opacity="1" stroke="#000000" stroke-linecap="butt" stroke-linejoin="miter" stroke-miterlimit="2" stroke-opacity="1" stroke-width="0.445" transform="matrix(2.24719,0,0,2.24719,-1050.56,-511.236)"><polyline fill="none" points="497,237 490,237" vector-effect="none"/></g><defs><clipPath id="clip14"><path d="M475,229 L550,229 L550,279 L475,279 L475,229 z"/></clipPath></defs><g clip-path="url(#clip14)" fill="none" opacity="1" stroke="#000000" stroke-linecap="butt" stroke-linejoin="miter" stroke-miterlimit="2" stroke-opacity="1" stroke-width="0.445" transform="matrix(2.24719,0,0,2.24719,-1050.56,-511.236)"><polyline fill="none" points="490,237 490,273" vector-effect="none"/></g><defs><clipPath id="clip15"><path d="M475,229 L550,229 L550,279 L475,279 L475,229 z"/></clipPath></defs><g clip-path="url(#clip15)" fill="none" opacity="1" stroke="#000000" stroke-linecap="butt" stroke-linejoin="miter" stroke-miterlimit="2" stroke-opacity="1" stroke-width="0.445" transform="matrix(2.24719,0,0,2.24719,-1050.56,-511.236)"><polyline fill="none" points="490,273 497,273" vector-effect="none"/></g><defs><clipPath id="clip16"><path d="M475,229 L550,229 L550,279 L475,279 L475,229 z"/></clipPath></defs><g clip-path="url(#clip16)" fill="none" opacity="1" stroke="#000000" stroke-linecap="butt" stroke-linejoin="miter" stroke-miterlimit="2" stroke-opacity="1" stroke-width="0.445" transform="matrix(2.24719,0,0,2.24719,-1050.56,-511.236)"><polyline fill="none" points="530,237 537,237" vector-effect="none"/></g><defs><clipPath id="clip17"><path d="M475,229 L550,229 L550,279 L475,279 L475,229 z"/></clipPath></defs><g clip-path="url(#clip17)" fill="none" opacity="1" stroke="#000000" stroke-linecap="butt" stroke-linejoin="miter" stroke-miterlimit="2" stroke-opacity="1" stroke-width="0.445" transform="matrix(2.24719,0,0,2.24719,-1050.56,-511.236)"><polyline fill="none" points="537,237 537,273" vector-effect="none"/></g><defs><clipPath id="clip18"><path d="M475,229 L550,229 L550,279 L475,279 L475,229 z"/></clipPath></defs><g clip-path="url(#clip18)" fill="none" opacity="1" stroke="#000000" stroke-linecap="butt" stroke-linejoin="miter" stroke-miterlimit="2" stroke-opacity="1" stroke-width="0.445" transform="matrix(2.24719,0,0,2.24719,-1050.56,-511.236)"><polyline fill="none" points="537,273 530,273" vector-effect="none"/></g><defs><clipPath id="clip19"><path d="M475,229 L550,229 L550,279 L475,279 L475,229 z"/></clipPath></defs><g clip-path="url(#clip19)" fill="none" opacity="1" stroke="#000000" stroke-linecap="butt" stroke-linejoin="miter" stroke-miterlimit="2" stroke-opacity="1" stroke-width="0.445" transform="matrix(2.24719,0,0,2.24719,-1050.56,-511.236)"><polyline fill="none" points="502,266 501,264" vector-effect="none"/></g><defs><clipPath id="clip20"><path d="M475,229 L550,229 L550,279 L475,279 L475,229 z"/></clipPath></defs><g clip-path="url(#clip20)" fill="none" opacity="1" stroke="#000000" stroke-linecap="butt" stroke-linejoin="miter" stroke-miterlimit="2" stroke-opacity="1" stroke-width="0.445" transform="matrix(2.24719,0,0,2.24719,-1050.56,-511.236)"><polyline fill="none" points="501,264 499,264" vector-effect="none"/></g><defs><clipPath id="clip21"><path d="M475,229 L550,229 L550,279 L475,279 L475,229 z"/></clipPath></defs><g clip-path="url(#clip21)" fill="none" opacity="1" stroke="#000000" stroke-linecap="butt" stroke-linejoin="miter" stroke-miterlimit="2" stroke-opacity="1" stroke-width="0.445" transform="matrix(2.24719,0,0,2.24719,-1050.56,-511.236)"><polyline fill="none" points="499,264 496,264" vector-effect="none"/></g><defs><clipPath id="clip22"><path d="M475,229 L550,229 L550,279 L475,279 L475,229 z"/></clipPath></defs><g clip-path="url(#clip22)" fill="none" opacity="1" stroke="#000000" stroke-linecap="butt" stroke-linejoin="miter" stroke-miterlimit="2" stroke-opacity="1" stroke-width="0.445" transform="matrix(2.24719,0,0,2.24719,-1050.56,-511.236)"><polyline fill="none" points="496,264 495,266" vector-effect="none"/></g><defs><clipPath id="clip23"><path d="M475,229 L550,229 L550,279 L475,279 L475,229 z"/></clipPath></defs><g clip-path="url(#clip23)" fill="none" opacity="1" stroke="#000000" stroke-linecap="butt" stroke-linejoin="miter" stroke-miterlimit="2" stroke-opacity="1" stroke-width="0.445" transform="matrix(2.24719,0,0,2.24719,-1050.56,-511.236)"><polyline fill="none" points="495,266 496,268" vector-effect="none"/></g><defs><clipPath id="clip24"><path d="M475,229 L550,229 L550,279 L475,279 L475,229 z"/></clipPath></defs><g clip-path="url(#clip24)" fill="none" opacity="1" stroke="#000000" stroke-linecap="butt" stroke-linejoin="miter" stroke-miterlimit="2" stroke-opacity="1" stroke-width="0.445" transform="matrix(2.24719,0,0,2.24719,-1050.56,-511.236)"><polyline fill="none" points="496,268 499,268" vector-effect="none"/></g><defs><clipPath id="clip25"><path d="M475,229 L550,229 L550,279 L475,279 L475,229 z"/></clipPath></defs><g clip-path="url(#clip25)" fill="none" opacity="1" stroke="#000000" stroke-linecap="butt" stroke-linejoin="miter" stroke-miterlimit="2" stroke-opacity="1" stroke-width="0.445" transform="matrix(2.24719,0,0,2.24719,-1050.56,-511.236)"><polyline fill="none" points="499,268 501,268" vector-effect="none"/></g><defs><clipPath id="clip26"><path d="M475,229 L550,229 L550,279 L475,279 L475,229 z"/></clipPath></defs><g clip-path="url(#clip26)" fill="none" opacity="1" stroke="#000000" stroke-linecap="butt" stroke-linejoin="miter" stroke-miterlimit="2" stroke-opacity="1" stroke-width="0.445" transform="matrix(2.24719,0,0,2.24719,-1050.56,-511.236)"><polyline fill="none" points="501,268 502,266" vector-effect="none"/></g><defs><clipPath id="clip27"><path d="M475,229 L550,229 L550,279 L475,279 L475,229 z"/></clipPath></defs><g clip-path="url(#clip27)" fill="none" opacity="1" stroke="#000000" stroke-linecap="butt" stroke-linejoin="miter" stroke-miterlimit="2" stroke-opacity="1" stroke-width="0.445" transform="matrix(2.24719,0,0,2.24719,-1050.56,-511.236)"><polyline fill="none" points="502,255 501,253" vector-effect="none"/></g><defs><clipPath id="clip28"><path d="M475,229 L550,229 L550,279 L475,279 L475,229 z"/></clipPath></defs><g clip-path="url(#clip28)" fill="none" opacity="1" stroke="#000000" stroke-linecap="butt" stroke-linejoin="miter" stroke-miterlimit="2" stroke-opacity="1" stroke-width="0.445" transform="matrix(2.24719,0,0,2.24719,-1050.56,-511.236)"><polyline fill="none" points="501,253 499,253" vector-effect="none"/></g><defs><clipPath id="clip29"><path d="M475,229 L550,229 L550,279 L475,279 L475,229 z"/></clipPath></defs><g clip-path="url(#clip29)" fill="none" opacity="1" stroke="#000000" stroke-linecap="butt" stroke-linejoin="miter" stroke-miterlimit="2" stroke-opacity="1" stroke-width="0.445" transform="matrix(2.24719,0,0,2.24719,-1050.56,-511.236)"><polyline fill="none" points="499,253 496,253" vector-effect="none"/></g><defs><clipPath id="clip30"><path d="M475,229 L550,229 L550,279 L475,279 L475,229 z"/></clipPath></defs><g clip-path="url(#clip30)" fill="none" opacity="1" stroke="#000000" stroke-linecap="butt" stroke-linejoin="miter" stroke-miterlimit="2" stroke-opacity="1" stroke-width="0.445" transform="matrix(2.24719,0,0,2.24719,-1050.56,-511.236)"><polyline fill="none" points="496,253 495,255" vector-effect="none"/></g><defs><clipPath id="clip31"><path d="M475,229 L550,229 L550,279 L475,279 L475,229 z"/></clipPath></defs><g clip-path="url(#clip31)" fill="none" opacity="1" stroke="#000000" stroke-linecap="butt" stroke-linejoin="miter" stroke-miterlimit="2" stroke-opacity="1" stroke-width="0.445" transform="matrix(2.24719,0,0,2.24719,-1050.56,-511.236)"><polyline fill="none" points="495,255 496,257" vector-effect="none"/></g><defs><clipPath id="clip32"><path d="M475,229 L550,229 L550,279 L475,279 L475,229 z"/></clipPath></defs><g clip-path="url(#clip32)" fill="none" opacity="1" stroke="#000000" stroke-linecap="butt" stroke-linejoin="miter" stroke-miterlimit="2" stroke-opacity="1" stroke-width="0.445" transform="matrix(2.24719,0,0,2.24719,-1050.56,-511.236)"><polyline fill="none" points="496,257 499,257" vector-effect="none"/></g><defs><clipPath id="clip33"><path d="M475,229 L550,229 L550,279 L475,279 L475,229 z"/></clipPath></defs><g clip-path="url(#clip33)" fill="none" opacity="1" stroke="#000000" stroke-linecap="butt" stroke-linejoin="miter" stroke-miterlimit="2" stroke-opacity="1" stroke-width="0.445" transform="matrix(2.24719,0,0,2.24719,-1050.56,-511.236)"><polyline fill="none" points="499,257 501,257" vector-effect="none"/></g><defs><clipPath id="clip34"><path d="M475,229 L550,229 L550,279 L475,279 L475,229 z"/></clipPath></defs><g clip-path="url(#clip34)" fill="none" opacity="1" stroke="#000000" stroke-linecap="butt" stroke-linejoin="miter" stroke-miterlimit="2" stroke-opacity="1" stroke-width="0.445" transform="matrix(2.24719,0,0,2.24719,-1050.56,-511.236)"><polyline fill="none" points="501,257 502,255" vector-effect="none"/></g><defs><clipPath id="clip35"><path d="M475,229 L550,229 L550,279 L475,279 L475,229 z"/></clipPath></defs><g clip-path="url(#clip35)" fill="none" opacity="1" stroke="#000000" stroke-linecap="butt" stroke-linejoin="miter" stroke-miterlimit="2" stroke-opacity="1" stroke-width="0.445" transform="matrix(2.24719,0,0,2.24719,-1050.56,-511.236)"><polyline fill="none" points="502,244 501,242" vector-effect="none"/></g><defs><clipPath id="clip36"><path d="M475,229 L550,229 L550,279 L475,279 L475,229 z"/></clipPath></defs><g clip-path="url(#clip36)" fill="none" opacity="1" stroke="#000000" stroke-linecap="butt" stroke-linejoin="miter" stroke-miterlimit="2" stroke-opacity="1" stroke-width="0.445" transform="matrix(2.24719,0,0,2.24719,-1050.56,-511.236)"><polyline fill="none" points="501,242 499,242" vector-effect="none"/></g><defs><clipPath id="clip37"><path d="M475,229 L550,229 L550,279 L475,279 L475,229 z"/></clipPath></defs><g clip-path="url(#clip37)" fill="none" opacity="1" stroke="#000000" stroke-linecap="butt" stroke-linejoin="miter" stroke-miterlimit="2" stroke-opacity="1" stroke-width="0.445" transform="matrix(2.24719,0,0,2.24719,-1050.56,-511.236)"><polyline fill="none" points="499,242 496,242" vector-effect="none"/></g><defs><clipPath id="clip38"><path d="M475,229 L550,229 L550,279 L475,279 L475,229 z"/></clipPath></defs><g clip-path="url(#clip38)" fill="none" opacity="1" stroke="#000000" stroke-linecap="butt" stroke-linejoin="miter" stroke-miterlimit="2" stroke-opacity="1" stroke-width="0.445" transform="matrix(2.24719,0,0,2.24719,-1050.56,-511.236)"><polyline fill="none" points="496,242 495,244" vector-effect="none"/></g><defs><clipPath id="clip39"><path d="M475,229 L550,229 L550,279 L475,279 L475,229 z"/></clipPath></defs><g clip-path="url(#clip39)" fill="none" opacity="1" stroke="#000000" stroke-linecap="butt" stroke-linejoin="miter" stroke-miterlimit="2" stroke-opacity="1" stroke-width="0.445" transform="matrix(2.24719,0,0,2.24719,-1050.56,-511.236)"><polyline fill="none" points="495,244 496,246" vector-effect="none"/></g><defs><clipPath id="clip40"><path d="M475,229 L550,229 L550,279 L475,279 L475,229 z"/></clipPath></defs><g clip-path="url(#clip40)" fill="none" opacity="1" stroke="#000000" stroke-linecap="butt" stroke-linejoin="miter" stroke-miterlimit="2" stroke-opacity="1" stroke-width="0.445" transform="matrix(2.24719,0,0,2.24719,-1050.56,-511.236)"><polyline fill="none" points="496,246 499,246" vector-effect="none"/></g><defs><clipPath id="clip41"><path d="M475,229 L550,229 L550,279 L475,279 L475,229 z"/></clipPath></defs><g clip-path="url(#clip41)" fill="none" opacity="1" stroke="#000000" stroke-linecap="butt" stroke-linejoin="miter" stroke-miterlimit="2" stroke-opacity="1" stroke-width="0.445" transform="matrix(2.24719,0,0,2.24719,-1050.56,-511.236)"><polyline fill="none" points="499,246 501,246" vector-effect="none"/></g><defs><clipPath id="clip42"><path d="M475,229 L550,229 L550,279 L475,279 L475,229 z"/></clipPath></defs><g clip-path="url(#clip42)" fill="none" opacity="1" stroke="#000000" stroke-linecap="butt" stroke-linejoin="miter" stroke-miterlimit="2" stroke-opacity="1" stroke-width="0.445" transform="matrix(2.24719,0,0,2.24719,-1050.56,-511.236)"><polyline fill="none" points="501,246 502,244" vector-effect="none"/></g><defs><clipPath id="clip43"><path d="M475,229 L550,229 L550,279 L475,279 L475,229 z"/></clipPath></defs><g clip-path="url(#clip43)" fill="none" opacity="1" stroke="#000000" stroke-linecap="butt" stroke-linejoin="miter" stroke-miterlimit="2" stroke-opacity="1" stroke-width="0.445" transform="matrix(2.24719,0,0,2.24719,-1050.56,-511.236)"><polyline fill="none" points="516,266 515,264" vector-effect="none"/></g><defs><clipPath id="clip44"><path d="M475,229 L550,229 L550,279 L475,279 L475,229 z"/></clipPath></defs><g clip-path="url(#clip44)" fill="none" opacity="1" stroke="#000000" stroke-linecap="butt" stroke-linejoin="miter" stroke-miterlimit="2" stroke-opacity="1" stroke-width="0.445" transform="matrix(2.24719,0,0,2.24719,-1050.56,-511.236)"><polyline fill="none" points="515,264 513,264" vector-effect="none"/></g><defs><clipPath id="clip45"><path d="M475,229 L550,229 L550,279 L475,279 L475,229 z"/></clipPath></defs><g clip-path="url(#clip45)" fill="none" opacity="1" stroke="#000000" stroke-linecap="butt" stroke-linejoin="miter" stroke-miterlimit="2" stroke-opacity="1" stroke-width="0.445" transform="matrix(2.24719,0,0,2.24719,-1050.56,-511.236)"><polyline fill="none" points="513,264 510,264" vector-effect="none"/></g><defs><clipPath id="clip46"><path d="M475,229 L550,229 L550,279 L475,279 L475,229 z"/></clipPath></defs><g clip-path="url(#clip46)" fill="none" opacity="1" stroke="#000000" stroke-linecap="butt" stroke-linejoin="miter" stroke-miterlimit="2" stroke-opacity="1" stroke-width="0.445" transform="matrix(2.24719,0,0,2.24719,-1050.56,-511.236)"><polyline fill="none" points="510,264 509,266" vector-effect="none"/></g><defs><clipPath id="clip47"><path d="M475,229 L550,229 L550,279 L475,279 L475,229 z"/></clipPath></defs><g clip-path="url(#clip47)" fill="none" opacity="1" stroke="#000000" stroke-linecap="butt" stroke-linejoin="miter" stroke-miterlimit="2" stroke-opacity="1" stroke-width="0.445" transform="matrix(2.24719,0,0,2.24719,-1050.56,-511.236)"><polyline fill="none" points="509,266 510,268" vector-effect="none"/></g><defs><clipPath id="clip48"><path d="M475,229 L550,229 L550,279 L475,279 L475,229 z"/></clipPath></defs><g clip-path="url(#clip48)" fill="none" opacity="1" stroke="#000000" stroke-linecap="butt" stroke-linejoin="miter" stroke-miterlimit="2" stroke-opacity="1" stroke-width="0.445" transform="matrix(2.24719,0,0,2.24719,-1050.56,-511.236)"><polyline fill="none" points="510,268 513,268" vector-effect="none"/></g><defs><clipPath id="clip49"><path d="M475,229 L550,229 L550,279 L475,279 L475,229 z"/></clipPath></defs><g clip-path="url(#clip49)" fill="none" opacity="1" stroke="#000000" stroke-linecap="butt" stroke-linejoin="miter" stroke-miterlimit="2" stroke-opacity="1" stroke-width="0.445" transform="matrix(2.24719,0,0,2.24719,-1050.56,-511.236)"><polyline fill="none" points="513,268 515,268" vector-effect="none"/></g><defs><clipPath id="clip50"><path d="M475,229 L550,229 L550,279 L475,279 L475,229 z"/></clipPath></defs><g clip-path="url(#clip50)" fill="none" opacity="1" stroke="#000000" stroke-linecap="butt" stroke-linejoin="miter" stroke-miterlimit="2" stroke-opacity="1" stroke-width="0.445" transform="matrix(2.24719,0,0,2.24719,-1050.56,-511.236)"><polyline fill="none" points="515,268 516,266" vector-effect="none"/></g><defs><clipPath id="clip51"><path d="M475,229 L550,229 L550,279 L475,279 L475,229 z"/></clipPath></defs><g clip-path="url(#clip51)" fill="none" opacity="1" stroke="#000000" stroke-linecap="butt" stroke-linejoin="miter" stroke-miterlimit="2" stroke-opacity="1" stroke-width="0.445" transform="matrix(2.24719,0,0,2.24719,-1050.56,-511.236)"><polyline fill="none" points="530,266 529,264" vector-effect="none"/></g><defs><clipPath id="clip52"><path d="M475,229 L550,229 L550,279 L475,279 L475,229 z"/></clipPath></defs><g clip-path="url(#clip52)" fill="none" opacity="1" stroke="#000000" stroke-linecap="butt" stroke-linejoin="miter" stroke-miterlimit="2" stroke-opacity="1" stroke-width="0.445" transform="matrix(2.24719,0,0,2.24719,-1050.56,-511.236)"><polyline fill="none" points="529,264 526,264" vector-effect="none"/></g><defs><clipPath id="clip53"><path d="M475,229 L550,229 L550,279 L475,279 L475,229 z"/></clipPath></defs><g clip-path="url(#clip53)" fill="none" opacity="1" stroke="#000000" stroke-linecap="butt" stroke-linejoin="miter" stroke-miterlimit="2" stroke-opacity="1" stroke-width="0.445" transform="matrix(2.24719,0,0,2.24719,-1050.56,-511.236)"><polyline fill="none" points="526,264 524,264" vector-effect="none"/></g><defs><clipPath id="clip54"><path d="M475,229 L550,229 L550,279 L475,279 L475,229 z"/></clipPath></defs><g clip-path="url(#clip54)" fill="none" opacity="1" stroke="#000000" stroke-linecap="butt" stroke-linejoin="miter" stroke-miterlimit="2" stroke-opacity="1" stroke-width="0.445" transform="matrix(2.24719,0,0,2.24719,-1050.56,-511.236)"><polyline fill="none" points="524,264 523,266" vector-effect="none"/></g><defs><clipPath id="clip55"><path d="M475,229 L550,229 L550,279 L475,279 L475,229 z"/></clipPath></defs><g clip-path="url(#clip55)" fill="none" opacity="1" stroke="#000000" stroke-linecap="butt" stroke-linejoin="miter" stroke-miterlimit="2" stroke-opacity="1" stroke-width="0.445" transform="matrix(2.24719,0,0,2.24719,-1050.56,-511.236)"><polyline fill="none" points="523,266 524,268" vector-effect="none"/></g><defs><clipPath id="clip56"><path d="M475,229 L550,229 L550,279 L475,279 L475,229 z"/></clipPath></defs><g clip-path="url(#clip56)" fill="none" opacity="1" stroke="#000000" stroke-linecap="butt" stroke-linejoin="miter" stroke-miterlimit="2" stroke-opacity="1" stroke-width="0.445" transform="matrix(2.24719,0,0,2.24719,-1050.56,-511.236)"><polyline fill="none" points="524,268 526,268" vector-effect="none"/></g><defs><clipPath id="clip57"><path d="M475,229 L550,229 L550,279 L475,279 L475,229 z"/></clipPath></defs><g clip-path="url(#clip57)" fill="none" opacity="1" stroke="#000000" stroke-linecap="butt" stroke-linejoin="miter" stroke-miterlimit="2" stroke-opacity="1" stroke-width="0.445" transform="matrix(2.24719,0,0,2.24719,-1050.56,-511.236)"><polyline fill="none" points="526,268 529,268" vector-effect="none"/></g><defs><clipPath id="clip58"><path d="M475,229 L550,229 L550,279 L475,279 L475,229 z"/></clipPath></defs><g clip-path="url(#clip58)" fill="none" opacity="1" stroke="#000000" stroke-linecap="butt" stroke-linejoin="miter" stroke-miterlimit="2" stroke-opacity="1" stroke-width="0.445" transform="matrix(2.24719,0,0,2.24719,-1050.56,-511.236)"><polyline fill="none" points="529,268 530,266" vector-effect="none"/></g><defs><clipPath id="clip59"><path d="M475,229 L550,229 L550,279 L475,279 L475,229 z"/></clipPath></defs><g clip-path="url(#clip59)" fill="none" opacity="1" stroke="#000000" stroke-linecap="butt" stroke-linejoin="miter" stroke-miterlimit="2" stroke-opacity="1" stroke-width="0.445" transform="matrix(2.24719,0,0,2.24719,-1050.56,-511.236)"><polyline fill="none" points="509,257 510,257" vector-effect="none"/></g><defs><clipPath id="clip60"><path d="M475,229 L550,229 L550,279 L475,279 L475,229 z"/></clipPath></defs><g clip-path="url(#clip60)" fill="none" opacity="1" stroke="#000000" stroke-linecap="butt" stroke-linejoin="miter" stroke-miterlimit="2" stroke-opacity="1" stroke-width="0.445" transform="matrix(2.24719,0,0,2.24719,-1050.56,-511.236)"><polyline fill="none" points="515,257 516,257" vector-effect="none"/></g><defs><clipPath id="clip61"><path d="M475,229 L550,229 L550,279 L475,279 L475,229 z"/></clipPath></defs><g clip-path="url(#clip61)" fill="none" opacity="1" stroke="#000000" stroke-linecap="butt" stroke-linejoin="miter" stroke-miterlimit="2" stroke-opacity="1" stroke-width="0.445" transform="matrix(2.24719,0,0,2.24719,-1050.56,-511.236)"><polyline fill="none" points="509,253 510,253" vector-effect="none"/></g><defs><clipPath id="clip62"><path d="M475,229 L550,229 L550,279 L475,279 L475,229 z"/></clipPath></defs><g clip-path="url(#clip62)" fill="none" opacity="1" stroke="#000000" stroke-linecap="butt" stroke-linejoin="miter" stroke-miterlimit="2" stroke-opacity="1" stroke-width="0.445" transform="matrix(2.24719,0,0,2.24719,-1050.56,-511.236)"><polyline fill="none" points="515,253 516,253" vector-effect="none"/></g><defs><clipPath id="clip63"><path d="M475,229 L550,229 L550,279 L475,279 L475,229 z"/></clipPath></defs><g clip-path="url(#clip63)" fill="none" opacity="1" stroke="#000000" stroke-linecap="butt" stroke-linejoin="miter" stroke-miterlimit="2" stroke-opacity="1" stroke-width="0.445" transform="matrix(2.24719,0,0,2.24719,-1050.56,-511.236)"><polyline fill="none" points="510,257 515,253" vector-effect="none"/></g><defs><clipPath id="clip64"><path d="M475,229 L550,229 L550,279 L475,279 L475,229 z"/></clipPath></defs><g clip-path="url(#clip64)" fill="none" opacity="1" stroke="#000000" stroke-linecap="butt" stroke-linejoin="miter" stroke-miterlimit="2" stroke-opacity="1" stroke-width="0.445" transform="matrix(2.24719,0,0,2.24719,-1050.56,-511.236)"><polyline fill="none" points="510,253 515,257" vector-effect="none"/></g><defs><clipPath id="clip65"><path d="M475,229 L550,229 L550,279 L475,279 L475,229 z"/></clipPath></defs><g clip-path="url(#clip65)" fill="none" opacity="1" stroke="#000000" stroke-linecap="butt" stroke-linejoin="miter" stroke-miterlimit="2" stroke-opacity="1" stroke-width="0.445" transform="matrix(2.24719,0,0,2.24719,-1050.56,-511.236)"><polyline fill="none" points="509,246 510,246" vector-effect="none"/></g><defs><clipPath id="clip66"><path d="M475,229 L550,229 L550,279 L475,279 L475,229 z"/></clipPath></defs><g clip-path="url(#clip66)" fill="none" opacity="1" stroke="#000000" stroke-linecap="butt" stroke-linejoin="miter" stroke-miterlimit="2" stroke-opacity="1" stroke-width="0.445" transform="matrix(2.24719,0,0,2.24719,-1050.56,-511.236)"><polyline fill="none" points="515,246 516,246" vector-effect="none"/></g><defs><clipPath id="clip67"><path d="M475,229 L550,229 L550,279 L475,279 L475,229 z"/></clipPath></defs><g clip-path="url(#clip67)" fill="none" opacity="1" stroke="#000000" stroke-linecap="butt" stroke-linejoin="miter" stroke-miterlimit="2" stroke-opacity="1" stroke-width="0.445" transform="matrix(2.24719,0,0,2.24719,-1050.56,-511.236)"><polyline fill="none" points="509,242 510,242" vector-effect="none"/></g><defs><clipPath id="clip68"><path d="M475,229 L550,229 L550,279 L475,279 L475,229 z"/></clipPath></defs><g clip-path="url(#clip68)" fill="none" opacity="1" stroke="#000000" stroke-linecap="butt" stroke-linejoin="miter" stroke-miterlimit="2" stroke-opacity="1" stroke-width="0.445" transform="matrix(2.24719,0,0,2.24719,-1050.56,-511.236)"><polyline fill="none" points="515,242 516,242" vector-effect="none"/></g><defs><clipPath id="clip69"><path d="M475,229 L550,229 L550,279 L475,279 L475,229 z"/></clipPath></defs><g clip-path="url(#clip69)" fill="none" opacity="1" stroke="#000000" stroke-linecap="butt" stroke-linejoin="miter" stroke-miterlimit="2" stroke-opacity="1" stroke-width="0.445" transform="matrix(2.24719,0,0,2.24719,-1050.56,-511.236)"><polyline fill="none" points="510,246 515,242" vector-effect="none"/></g><defs><clipPath id="clip70"><path d="M475,229 L550,229 L550,279 L475,279 L475,229 z"/></clipPath></defs><g clip-path="url(#clip70)" fill="none" opacity="1" stroke="#000000" stroke-linecap="butt" stroke-linejoin="miter" stroke-miterlimit="2" stroke-opacity="1" stroke-width="0.445" transform="matrix(2.24719,0,0,2.24719,-1050.56,-511.236)"><polyline fill="none" points="510,242 515,246" vector-effect="none"/></g><defs><clipPath id="clip71"><path d="M475,229 L550,229 L550,279 L475,279 L475,229 z"/></clipPath></defs><g clip-path="url(#clip71)" fill="none" opacity="1" stroke="#000000" stroke-linecap="butt" stroke-linejoin="miter" stroke-miterlimit="2" stroke-opacity="1" stroke-width="0.445" transform="matrix(2.24719,0,0,2.24719,-1050.56,-511.236)"><polyline fill="none" points="523,257 524,257" vector-effect="none"/></g><defs><clipPath id="clip72"><path d="M475,229 L550,229 L550,279 L475,279 L475,229 z"/></clipPath></defs><g clip-path="url(#clip72)" fill="none" opacity="1" stroke="#000000" stroke-linecap="butt" stroke-linejoin="miter" stroke-miterlimit="2" stroke-opacity="1" stroke-width="0.445" transform="matrix(2.24719,0,0,2.24719,-1050.56,-511.236)"><polyline fill="none" points="528,257 530,257" vector-effect="none"/></g><defs><clipPath id="clip73"><path d="M475,229 L550,229 L550,279 L475,279 L475,229 z"/></clipPath></defs><g clip-path="url(#clip73)" fill="none" opacity="1" stroke="#000000" stroke-linecap="butt" stroke-linejoin="miter" stroke-miterlimit="2" stroke-opacity="1" stroke-width="0.445" transform="matrix(2.24719,0,0,2.24719,-1050.56,-511.236)"><polyline fill="none" points="523,253 524,253" vector-effect="none"/></g><defs><clipPath id="clip74"><path d="M475,229 L550,229 L550,279 L475,279 L475,229 z"/></clipPath></defs><g clip-path="url(#clip74)" fill="none" opacity="1" stroke="#000000" stroke-linecap="butt" stroke-linejoin="miter" stroke-miterlimit="2" stroke-opacity="1" stroke-width="0.445" transform="matrix(2.24719,0,0,2.24719,-1050.56,-511.236)"><polyline fill="none" points="528,253 530,253" vector-effect="none"/></g><defs><clipPath id="clip75"><path d="M475,229 L550,229 L550,279 L475,279 L475,229 z"/></clipPath></defs><g clip-path="url(#clip75)" fill="none" opacity="1" stroke="#000000" stroke-linecap="butt" stroke-linejoin="miter" stroke-miterlimit="2" stroke-opacity="1" stroke-width="0.445" transform="matrix(2.24719,0,0,2.24719,-1050.56,-511.236)"><polyline fill="none" points="524,257 529,253" vector-effect="none"/></g><defs><clipPath id="clip76"><path d="M475,229 L550,229 L550,279 L475,279 L475,229 z"/></clipPath></defs><g clip-path="url(#clip76)" fill="none" opacity="1" stroke="#000000" stroke-linecap="butt" stroke-linejoin="miter" stroke-miterlimit="2" stroke-opacity="1" stroke-width="0.445" transform="matrix(2.24719,0,0,2.24719,-1050.56,-511.236)"><polyline fill="none" points="524,253 529,257" vector-effect="none"/></g><defs><clipPath id="clip77"><path d="M475,229 L550,229 L550,279 L475,279 L475,229 z"/></clipPath></defs><g clip-path="url(#clip77)" fill="none" opacity="1" stroke="#000000" stroke-linecap="butt" stroke-linejoin="miter" stroke-miterlimit="2" stroke-opacity="1" stroke-width="0.445" transform="matrix(2.24719,0,0,2.24719,-1050.56,-511.236)"><polyline fill="none" points="523,246 524,246" vector-effect="none"/></g><defs><clipPath id="clip78"><path d="M475,229 L550,229 L550,279 L475,279 L475,229 z"/></clipPath></defs><g clip-path="url(#clip78)" fill="none" opacity="1" stroke="#000000" stroke-linecap="butt" stroke-linejoin="miter" stroke-miterlimit="2" stroke-opacity="1" stroke-width="0.445" transform="matrix(2.24719,0,0,2.24719,-1050.56,-511.236)"><polyline fill="none" points="528,246 530,246" vector-effect="none"/></g><defs><clipPath id="clip79"><path d="M475,229 L550,229 L550,279 L475,279 L475,229 z"/></clipPath></defs><g clip-path="url(#clip79)" fill="none" opacity="1" stroke="#000000" stroke-linecap="butt" stroke-linejoin="miter" stroke-miterlimit="2" stroke-opacity="1" stroke-width="0.445" transform="matrix(2.24719,0,0,2.24719,-1050.56,-511.236)"><polyline fill="none" points="523,242 524,242" vector-effect="none"/></g><defs><clipPath id="clip80"><path d="M475,229 L550,229 L550,279 L475,279 L475,229 z"/></clipPath></defs><g clip-path="url(#clip80)" fill="none" opacity="1" stroke="#000000" stroke-linecap="butt" stroke-linejoin="miter" stroke-miterlimit="2" stroke-opacity="1" stroke-width="0.445" transform="matrix(2.24719,0,0,2.24719,-1050.56,-511.236)"><polyline fill="none" points="528,242 530,242" vector-effect="none"/></g><defs><clipPath id="clip81"><path d="M475,229 L550,229 L550,279 L475,279 L475,229 z"/></clipPath></defs><g clip-path="url(#clip81)" fill="none" opacity="1" stroke="#000000" stroke-linecap="butt" stroke-linejoin="miter" stroke-miterlimit="2" stroke-opacity="1" stroke-width="0.445" transform="matrix(2.24719,0,0,2.24719,-1050.56,-511.236)"><polyline fill="none" points="524,246 529,242" vector-effect="none"/></g><defs><clipPath id="clip82"><path d="M475,229 L550,229 L550,279 L475,279 L475,229 z"/></clipPath></defs><g clip-path="url(#clip82)" fill="none" opacity="1" stroke="#000000" stroke-linecap="butt" stroke-linejoin="miter" stroke-miterlimit="2" stroke-opacity="1" stroke-width="0.445" transform="matrix(2.24719,0,0,2.24719,-1050.56,-511.236)"><polyline fill="none" points="524,242 529,246" vector-effect="none"/></g><defs><clipPath id="clip83"><path d="M475,229 L550,229 L550,279 L475,279 L475,229 z"/></clipPath></defs><g clip-path="url(#clip83)" fill="none" opacity="1" stroke="#000000" stroke-linecap="butt" stroke-linejoin="miter" stroke-miterlimit="2" stroke-opacity="1" stroke-width="0.445" transform="matrix(2.24719,0,0,2.24719,-1050.56,-511.236)"><polyline fill="none" points="506,261 533,261" vector-effect="none"/></g><defs><clipPath id="clip84"><path d="M475,229 L550,229 L550,279 L475,279 L475,229 z"/></clipPath></defs><g clip-path="url(#clip84)" fill="none" opacity="1" stroke="#000000" stroke-linecap="butt" stroke-linejoin="miter" stroke-miterlimit="2" stroke-opacity="1" stroke-width="0.445" transform="matrix(2.24719,0,0,2.24719,-1050.56,-511.236)"><polyline fill="none" points="533,261 533,239" vector-effect="none"/></g><defs><clipPath id="clip85"><path d="M475,229 L550,229 L550,279 L475,279 L475,229 z"/></clipPath></defs><g clip-path="url(#clip85)" fill="none" opacity="1" stroke="#000000" stroke-linecap="butt" stroke-linejoin="miter" stroke-miterlimit="2" stroke-opacity="1" stroke-width="0.445" transform="matrix(2.24719,0,0,2.24719,-1050.56,-511.236)"><polyline fill="none" points="533,239 506,239" vector-effect="none"/></g><defs><clipPath id="clip86"><path d="M475,229 L550,229 L550,279 L475,279 L475,229 z"/></clipPath></defs><g clip-path="url(#clip86)" fill="none" opacity="1" stroke="#000000" stroke-linecap="butt" stroke-linejoin="miter" stroke-miterlimit="2" stroke-opacity="1" stroke-width="0.445" transform="matrix(2.24719,0,0,2.24719,-1050.56,-511.236)"><polyline fill="none" points="506,239 506,261" vector-effect="none"/></g><defs><clipPath id="clip88"><path d="M-15,-128 L369,-128 L369,128 L-15,128 L-15,-128 z"/></clipPath></defs><g clip-path="url(#clip88)" fill="none" opacity="1" stroke="#000000" stroke-linecap="butt" stroke-linejoin="miter" stroke-miterlimit="2" stroke-opacity="1" stroke-width="0.445" transform="matrix(0.438904,0,0,0.438904,22.4719,60.6742)"><text fill="#000000" fill-opacity="1" font-family="Liberation Sans" font-size="40" font-style="normal" font-weight="400" stroke="none" textLength="27" x="0" xml:space="preserve" y="17.9219">A</text></g><defs><clipPath id="clip91"><path d="M-369,-128 L15,-128 L15,128 L-369,128 L-369,-128 z"/></clipPath></defs><g clip-path="url(#clip91)" fill="none" opacity="1" stroke="#000000" stroke-linecap="butt" stroke-linejoin="miter" stroke-miterlimit="2" stroke-opacity="1" stroke-width="0.445" transform="matrix(0.438904,0,0,0.438904,177.528,60.6742)"><text fill="#000000" fill-opacity="1" font-family="Liberation Sans" font-size="40" font-style="normal" font-weight="400" stroke="none" textLength="27" x="-34.125" xml:space="preserve" y="17.9219">B</text></g><defs><clipPath id="clip97"><path d="M-7,-2 L82,-2 L82,52 L-7,52 L-7,-2 z"/></clipPath></defs><g clip-path="url(#clip97)" fill="none" opacity="1" stroke="#000000" stroke-linecap="butt" stroke-linejoin="miter" stroke-miterlimit="2" stroke-opacity="1" stroke-width="0.723343" transform="matrix(2.24719,0,0,2.24719,15.7303,4.49438)"><path d="M0,0 L75,0 L75,50 L0,50 L0,0 z" fill-rule="evenodd" vector-effect="none"/></g></g></svg>
