<?xml version="1.0" encoding="UTF-8"?><svg width="52.9167mm" height="18.5208mm" viewBox="0 0 200 70" xmlns="http://www.w3.org/2000/svg" xmlns:xlink="http://www.w3.org/1999/xlink"><g fill="none" stroke="black" stroke-width="1" fill-rule="evenodd" stroke-linecap="square" stroke-linejoin="bevel"><g clip-path="none" fill="none" opacity="1" stroke="none" stroke-opacity="0" transform="matrix(1,0,0,1,0,0)"><path d="M0,0 L200,0 L200,70 L0,70 L0,0 z" fill-rule="evenodd" vector-effect="none"/></g><defs><clipPath id="clip3"><path d="M-112,-21 L7,-21 L7,21 L-112,21 L-112,-21 z"/></clipPath></defs><g clip-path="url(#clip3)" fill="none" opacity="1" stroke="#000000" stroke-linecap="round" stroke-linejoin="miter" stroke-miterlimit="2" stroke-opacity="1" stroke-width="2" transform="matrix(1.68067,0,0,1.68067,188.235,35.2941)"><path d="M0,-5 L5,0 L0,5" fill-rule="evenodd" vector-effect="none"/></g><defs><clipPath id="clip6"><path d="M7,11 L-112,11 L-112,-31 L7,-31 L7,11 z"/></clipPath></defs><g clip-path="url(#clip6)" fill="none" opacity="1" stroke="#000000" stroke-linecap="round" stroke-linejoin="miter" stroke-miterlimit="2" stroke-opacity="1" stroke-width="2" transform="matrix(-1.68067,0,0,-1.68067,11.7647,18.4874)"><path d="M5,-5 L0,0 L5,5" fill-rule="evenodd" vector-effect="none"/></g><defs><clipPath id="clip9"><path d="M7,31 L-112,31 L-112,-11 L7,-11 L7,31 z"/></clipPath></defs><g clip-path="url(#clip9)" fill="none" opacity="1" stroke="#000000" stroke-linecap="round" stroke-linejoin="miter" stroke-miterlimit="2" stroke-opacity="1" stroke-width="2" transform="matrix(-1.68067,0,0,-1.68067,11.7647,52.1008)"><path d="M5,-5 L0,0 L5,5" fill-rule="evenodd" vector-effect="none"/></g><defs><clipPath id="clip12"><path d="M-7,-2 L112,-2 L112,40 L-7,40 L-7,-2 z"/></clipPath></defs><g clip-path="url(#clip12)" fill="#ffffff" fill-opacity="1" opacity="1" stroke="none" stroke-opacity="0" transform="matrix(1.68067,0,0,1.68067,11.7647,3.36134)"><path d="M0,0 L105,0 L105,38 L0,38 L0,0 z" fill-rule="evenodd" vector-effect="none"/></g><defs><clipPath id="clip17"><path d="M-15,-46 L523,-46 L523,149 L-15,149 L-15,-46 z"/></clipPath></defs><g clip-path="url(#clip17)" fill="none" opacity="1" stroke="#000000" stroke-linecap="butt" stroke-linejoin="miter" stroke-miterlimit="2" stroke-opacity="1" stroke-width="0.595" transform="matrix(0.328256,0,0,0.328256,16.8067,18.4874)"><text fill="#000000" fill-opacity="1" font-family="Liberation Sans" font-size="40" font-style="normal" font-weight="400" stroke="none" textLength="31" x="0" xml:space="preserve" y="17.9219">In</text></g><defs><clipPath id="clip20"><path d="M-15,-148 L523,-148 L523,47 L-15,47 L-15,-148 z"/></clipPath></defs><g clip-path="url(#clip20)" fill="none" opacity="1" stroke="#000000" stroke-linecap="butt" stroke-linejoin="miter" stroke-miterlimit="2" stroke-opacity="1" stroke-width="0.595" transform="matrix(0.328256,0,0,0.328256,16.8067,52.1008)"><text fill="#000000" fill-opacity="1" font-family="Liberation Sans" font-size="40" font-style="normal" font-weight="400" stroke="none" textLength="115" x="0" xml:space="preserve" y="17.9219">Coeffs</text></g><defs><clipPath id="clip23"><path d="M-522,-97 L16,-97 L16,98 L-522,98 L-522,-97 z"/></clipPath></defs><g clip-path="url(#clip23)" fill="none" opacity="1" stroke="#000000" stroke-linecap="butt" stroke-linejoin="miter" stroke-miterlimit="2" stroke-opacity="1" stroke-width="0.595" transform="matrix(0.328256,0,0,0.328256,183.193,35.2941)"><text fill="#000000" fill-opacity="1" font-family="Liberation Sans" font-size="40" font-style="normal" font-weight="400" stroke="none" textLength="63" x="-82.5" xml:space="preserve" y="17.9219">Out</text></g><defs><clipPath id="clip26"><path d="M-266,-97 L272,-97 L272,98 L-266,98 L-266,-97 z"/></clipPath></defs><g clip-path="url(#clip26)" fill="none" opacity="1" stroke="#000000" stroke-linecap="butt" stroke-linejoin="miter" stroke-miterlimit="2" stroke-opacity="1" stroke-width="0.595" transform="matrix(0.328256,0,0,0.328256,99.1597,35.2941)"><text fill="#000000" fill-opacity="1" font-family="Liberation Sans" font-size="40" font-style="normal" font-weight="400" stroke="none" textLength="125" x="-82.4688" xml:space="preserve" y="17.9219">Polyval</text></g><defs><clipPath id="clip32"><path d="M-7,-2 L112,-2 L112,40 L-7,40 L-7,-2 z"/></clipPath></defs><g clip-path="url(#clip32)" fill="none" opacity="1" stroke="#000000" stroke-linecap="butt" stroke-linejoin="miter" stroke-miterlimit="2" stroke-opacity="1" stroke-width="0.812469" transform="matrix(1.68067,0,0,1.68067,11.7647,3.36134)"><path d="M0,0 L105,0 L105,38 L0,38 L0,0 z" fill-rule="evenodd" vector-effect="none"/></g></g></svg>
