<?xml version="1.0" encoding="UTF-8"?><svg width="52.9167mm" height="28.8396mm" viewBox="0 0 200 109" xmlns="http://www.w3.org/2000/svg" xmlns:xlink="http://www.w3.org/1999/xlink"><g fill="none" stroke="black" stroke-width="1" fill-rule="evenodd" stroke-linecap="square" stroke-linejoin="bevel"><g clip-path="none" fill="none" opacity="1" stroke="none" stroke-opacity="0" transform="matrix(1,0,0,1,0,0)"><path d="M0,0 L200,0 L200,109 L0,109 L0,0 z" fill-rule="evenodd" vector-effect="none"/></g><defs><clipPath id="clip3"><path d="M-77,-23 L7,-23 L7,23 L-77,23 L-77,-23 z"/></clipPath></defs><g clip-path="url(#clip3)" fill="none" opacity="1" stroke="#000000" stroke-linecap="round" stroke-linejoin="miter" stroke-miterlimit="2" stroke-opacity="1" stroke-width="2" transform="matrix(2.38095,0,0,2.38095,183.333,54.7619)"><path d="M0,-5 L5,0 L0,5" fill-rule="evenodd" vector-effect="none"/></g><defs><clipPath id="clip6"><path d="M7,23 L-77,23 L-77,-23 L7,-23 L7,23 z"/></clipPath></defs><g clip-path="url(#clip6)" fill="none" opacity="1" stroke="#000000" stroke-linecap="round" stroke-linejoin="miter" stroke-miterlimit="2" stroke-opacity="1" stroke-width="2" transform="matrix(-2.38095,0,0,-2.38095,16.6667,54.7619)"><path d="M5,-5 L0,0 L5,5" fill-rule="evenodd" vector-effect="none"/></g><defs><clipPath id="clip9"><path d="M-7,-2 L77,-2 L77,44 L-7,44 L-7,-2 z"/></clipPath></defs><g clip-path="url(#clip9)" fill="#ffffff" fill-opacity="1" opacity="1" stroke="none" stroke-opacity="0" transform="matrix(2.38095,0,0,2.38095,16.6667,4.7619)"><path d="M0,0 L70,0 L70,42 L0,42 L0,0 z" fill-rule="evenodd" vector-effect="none"/></g><defs><clipPath id="clip13"><path d="M25,58 L95,58 L95,100 L25,100 L25,58 z"/></clipPath></defs><g clip-path="url(#clip13)" fill="none" opacity="1" stroke="#000000" stroke-linecap="butt" stroke-linejoin="miter" stroke-miterlimit="2" stroke-opacity="1" stroke-width="0.42" transform="matrix(2.38095,0,0,2.38095,-41.6667,-134.524)"><polyline fill="none" points="28,91 34,91" vector-effect="none"/></g><defs><clipPath id="clip14"><path d="M25,58 L95,58 L95,100 L25,100 L25,58 z"/></clipPath></defs><g clip-path="url(#clip14)" fill="none" opacity="1" stroke="#000000" stroke-linecap="butt" stroke-linejoin="miter" stroke-miterlimit="2" stroke-opacity="1" stroke-width="0.42" transform="matrix(2.38095,0,0,2.38095,-41.6667,-134.524)"><polyline fill="none" points="34,91 34,84" vector-effect="none"/></g><defs><clipPath id="clip15"><path d="M25,58 L95,58 L95,100 L25,100 L25,58 z"/></clipPath></defs><g clip-path="url(#clip15)" fill="none" opacity="1" stroke="#000000" stroke-linecap="butt" stroke-linejoin="miter" stroke-miterlimit="2" stroke-opacity="1" stroke-width="0.42" transform="matrix(2.38095,0,0,2.38095,-41.6667,-134.524)"><polyline fill="none" points="34,84 41,84" vector-effect="none"/></g><defs><clipPath id="clip16"><path d="M25,58 L95,58 L95,100 L25,100 L25,58 z"/></clipPath></defs><g clip-path="url(#clip16)" fill="none" opacity="1" stroke="#000000" stroke-linecap="butt" stroke-linejoin="miter" stroke-miterlimit="2" stroke-opacity="1" stroke-width="0.42" transform="matrix(2.38095,0,0,2.38095,-41.6667,-134.524)"><polyline fill="none" points="41,84 41,76" vector-effect="none"/></g><defs><clipPath id="clip17"><path d="M25,58 L95,58 L95,100 L25,100 L25,58 z"/></clipPath></defs><g clip-path="url(#clip17)" fill="none" opacity="1" stroke="#000000" stroke-linecap="butt" stroke-linejoin="miter" stroke-miterlimit="2" stroke-opacity="1" stroke-width="0.42" transform="matrix(2.38095,0,0,2.38095,-41.6667,-134.524)"><polyline fill="none" points="41,76 47,76" vector-effect="none"/></g><defs><clipPath id="clip18"><path d="M25,58 L95,58 L95,100 L25,100 L25,58 z"/></clipPath></defs><g clip-path="url(#clip18)" fill="none" opacity="1" stroke="#000000" stroke-linecap="butt" stroke-linejoin="miter" stroke-miterlimit="2" stroke-opacity="1" stroke-width="0.42" transform="matrix(2.38095,0,0,2.38095,-41.6667,-134.524)"><polyline fill="none" points="47,76 47,69" vector-effect="none"/></g><defs><clipPath id="clip19"><path d="M25,58 L95,58 L95,100 L25,100 L25,58 z"/></clipPath></defs><g clip-path="url(#clip19)" fill="none" opacity="1" stroke="#000000" stroke-linecap="butt" stroke-linejoin="miter" stroke-miterlimit="2" stroke-opacity="1" stroke-width="0.42" transform="matrix(2.38095,0,0,2.38095,-41.6667,-134.524)"><polyline fill="none" points="47,69 54,69" vector-effect="none"/></g><defs><clipPath id="clip20"><path d="M25,58 L95,58 L95,100 L25,100 L25,58 z"/></clipPath></defs><g clip-path="url(#clip20)" fill="none" opacity="1" stroke="#000000" stroke-linecap="butt" stroke-linejoin="miter" stroke-miterlimit="2" stroke-opacity="1" stroke-width="0.42" transform="matrix(2.38095,0,0,2.38095,-41.6667,-134.524)"><polyline fill="none" points="52,79 58,79" vector-effect="none"/></g><defs><clipPath id="clip21"><path d="M25,58 L95,58 L95,100 L25,100 L25,58 z"/></clipPath></defs><g clip-path="url(#clip21)" fill="none" opacity="1" stroke="#000000" stroke-linecap="butt" stroke-linejoin="miter" stroke-miterlimit="2" stroke-opacity="1" stroke-width="0.42" transform="matrix(2.38095,0,0,2.38095,-41.6667,-134.524)"><polyline fill="none" points="52,81 58,81" vector-effect="none"/></g><defs><clipPath id="clip22"><path d="M25,58 L95,58 L95,100 L25,100 L25,58 z"/></clipPath></defs><g clip-path="url(#clip22)" fill="none" opacity="1" stroke="#000000" stroke-linecap="butt" stroke-linejoin="miter" stroke-miterlimit="2" stroke-opacity="1" stroke-width="0.42" transform="matrix(2.38095,0,0,2.38095,-41.6667,-134.524)"><polyline fill="none" points="57,85 62,80" vector-effect="none"/></g><defs><clipPath id="clip23"><path d="M25,58 L95,58 L95,100 L25,100 L25,58 z"/></clipPath></defs><g clip-path="url(#clip23)" fill="none" opacity="1" stroke="#000000" stroke-linecap="butt" stroke-linejoin="miter" stroke-miterlimit="2" stroke-opacity="1" stroke-width="0.42" transform="matrix(2.38095,0,0,2.38095,-41.6667,-134.524)"><polyline fill="none" points="62,80 57,75" vector-effect="none"/></g><defs><clipPath id="clip25"><path d="M-210,-113 L148,-113 L148,102 L-210,102 L-210,-113 z"/></clipPath></defs><g clip-path="url(#clip25)" fill="none" opacity="1" stroke="#000000" stroke-linecap="butt" stroke-linejoin="miter" stroke-miterlimit="2" stroke-opacity="1" stroke-width="0.42" transform="matrix(0.46503,0,0,0.46503,114.286,57.1429)"><text fill="#000000" fill-opacity="1" font-family="Liberation Sans" font-size="40" font-style="normal" font-weight="400" stroke="none" textLength="99" x="0" xml:space="preserve" y="17.9219">010...</text></g><defs><clipPath id="clip31"><path d="M-7,-2 L77,-2 L77,44 L-7,44 L-7,-2 z"/></clipPath></defs><g clip-path="url(#clip31)" fill="none" opacity="1" stroke="#000000" stroke-linecap="butt" stroke-linejoin="miter" stroke-miterlimit="2" stroke-opacity="1" stroke-width="0.706805" transform="matrix(2.38095,0,0,2.38095,16.6667,4.7619)"><path d="M0,0 L70,0 L70,42 L0,42 L0,0 z" fill-rule="evenodd" vector-effect="none"/></g></g></svg>
