<?xml version="1.0" encoding="UTF-8"?><svg width="52.9167mm" height="28.0458mm" viewBox="0 0 200 106" xmlns="http://www.w3.org/2000/svg" xmlns:xlink="http://www.w3.org/1999/xlink"><g fill="none" stroke="black" stroke-width="1" fill-rule="evenodd" stroke-linecap="square" stroke-linejoin="bevel"><g clip-path="none" fill="none" opacity="1" stroke="none" stroke-opacity="0" transform="matrix(1,0,0,1,0,0)"><path d="M0,0 L200,0 L200,106 L0,106 L0,0 z" fill-rule="evenodd" vector-effect="none"/></g><defs><clipPath id="clip3"><path d="M-102,-29 L7,-29 L7,29 L-102,29 L-102,-29 z"/></clipPath></defs><g clip-path="url(#clip3)" fill="none" opacity="1" stroke="#000000" stroke-linecap="round" stroke-linejoin="miter" stroke-miterlimit="2" stroke-opacity="1" stroke-width="2" transform="matrix(1.83486,0,0,1.83486,187.156,53.211)"><path d="M0,-5 L5,0 L0,5" fill-rule="evenodd" vector-effect="none"/></g><defs><clipPath id="clip6"><path d="M7,29 L-102,29 L-102,-29 L7,-29 L7,29 z"/></clipPath></defs><g clip-path="url(#clip6)" fill="none" opacity="1" stroke="#000000" stroke-linecap="round" stroke-linejoin="miter" stroke-miterlimit="2" stroke-opacity="1" stroke-width="2" transform="matrix(-1.83486,0,0,-1.83486,12.844,53.211)"><path d="M5,-5 L0,0 L5,5" fill-rule="evenodd" vector-effect="none"/></g><defs><clipPath id="clip9"><path d="M-7,-2 L102,-2 L102,56 L-7,56 L-7,-2 z"/></clipPath></defs><g clip-path="url(#clip9)" fill="#ffffff" fill-opacity="1" opacity="1" stroke="none" stroke-opacity="0" transform="matrix(1.83486,0,0,1.83486,12.844,3.66972)"><path d="M0,0 L95,0 L95,54 L0,54 L0,0 z" fill-rule="evenodd" vector-effect="none"/></g><defs><clipPath id="clip14"><path d="M-92,-36 L394,-36 L394,240 L-92,240 L-92,-36 z"/></clipPath></defs><g clip-path="url(#clip14)" fill="none" opacity="1" stroke="#000000" stroke-linecap="butt" stroke-linejoin="miter" stroke-miterlimit="2" stroke-opacity="1" stroke-width="0.545" transform="matrix(0.358372,0,0,0.358372,45.8716,16.5138)"><text fill="#000000" fill-opacity="1" font-family="Liberation Sans" font-size="40" font-style="normal" font-weight="400" stroke="none" textLength="219" x="0" xml:space="preserve" y="17.9219">SQ Decoder</text></g><defs><clipPath id="clip16"><path d="M155,143 L250,143 L250,197 L155,197 L155,143 z"/></clipPath></defs><g clip-path="url(#clip16)" fill="none" opacity="1" stroke="#000000" stroke-linecap="butt" stroke-linejoin="miter" stroke-miterlimit="2" stroke-opacity="1" stroke-width="0.545" transform="matrix(1.83486,0,0,1.83486,-270.642,-257.798)"><polyline fill="none" points="168,189 183,189" vector-effect="none"/></g><defs><clipPath id="clip17"><path d="M155,143 L250,143 L250,197 L155,197 L155,143 z"/></clipPath></defs><g clip-path="url(#clip17)" fill="none" opacity="1" stroke="#000000" stroke-linecap="butt" stroke-linejoin="miter" stroke-miterlimit="2" stroke-opacity="1" stroke-width="0.545" transform="matrix(1.83486,0,0,1.83486,-270.642,-257.798)"><polyline fill="none" points="183,189 183,180" vector-effect="none"/></g><defs><clipPath id="clip18"><path d="M155,143 L250,143 L250,197 L155,197 L155,143 z"/></clipPath></defs><g clip-path="url(#clip18)" fill="none" opacity="1" stroke="#000000" stroke-linecap="butt" stroke-linejoin="miter" stroke-miterlimit="2" stroke-opacity="1" stroke-width="0.545" transform="matrix(1.83486,0,0,1.83486,-270.642,-257.798)"><polyline fill="none" points="183,180 201,180" vector-effect="none"/></g><defs><clipPath id="clip19"><path d="M155,143 L250,143 L250,197 L155,197 L155,143 z"/></clipPath></defs><g clip-path="url(#clip19)" fill="none" opacity="1" stroke="#000000" stroke-linecap="butt" stroke-linejoin="miter" stroke-miterlimit="2" stroke-opacity="1" stroke-width="0.545" transform="matrix(1.83486,0,0,1.83486,-270.642,-257.798)"><polyline fill="none" points="201,180 201,170" vector-effect="none"/></g><defs><clipPath id="clip20"><path d="M155,143 L250,143 L250,197 L155,197 L155,143 z"/></clipPath></defs><g clip-path="url(#clip20)" fill="none" opacity="1" stroke="#000000" stroke-linecap="butt" stroke-linejoin="miter" stroke-miterlimit="2" stroke-opacity="1" stroke-width="0.545" transform="matrix(1.83486,0,0,1.83486,-270.642,-257.798)"><polyline fill="none" points="201,170 219,170" vector-effect="none"/></g><defs><clipPath id="clip21"><path d="M155,143 L250,143 L250,197 L155,197 L155,143 z"/></clipPath></defs><g clip-path="url(#clip21)" fill="none" opacity="1" stroke="#000000" stroke-linecap="butt" stroke-linejoin="miter" stroke-miterlimit="2" stroke-opacity="1" stroke-width="0.545" transform="matrix(1.83486,0,0,1.83486,-270.642,-257.798)"><polyline fill="none" points="219,170 219,160" vector-effect="none"/></g><defs><clipPath id="clip22"><path d="M155,143 L250,143 L250,197 L155,197 L155,143 z"/></clipPath></defs><g clip-path="url(#clip22)" fill="none" opacity="1" stroke="#000000" stroke-linecap="butt" stroke-linejoin="miter" stroke-miterlimit="2" stroke-opacity="1" stroke-width="0.545" transform="matrix(1.83486,0,0,1.83486,-270.642,-257.798)"><polyline fill="none" points="219,160 234,160" vector-effect="none"/></g><defs><clipPath id="clip24"><path d="M-15,-138 L471,-138 L471,138 L-15,138 L-15,-138 z"/></clipPath></defs><g clip-path="url(#clip24)" fill="none" opacity="1" stroke="#000000" stroke-linecap="butt" stroke-linejoin="miter" stroke-miterlimit="2" stroke-opacity="1" stroke-width="0.545" transform="matrix(0.358372,0,0,0.358372,18.3486,53.211)"><text fill="#000000" fill-opacity="1" font-family="Liberation Sans" font-size="40" font-style="normal" font-weight="400" stroke="none" textLength="10" x="0" xml:space="preserve" y="17.9219">I</text></g><defs><clipPath id="clip27"><path d="M-15,-138 L471,-138 L471,138 L-15,138 L-15,-138 z"/></clipPath></defs><g clip-path="url(#clip27)" fill="none" opacity="1" stroke="#000000" stroke-linecap="butt" stroke-linejoin="miter" stroke-miterlimit="2" stroke-opacity="1" stroke-width="0.545" transform="matrix(0.358372,0,0,0.358372,18.3486,53.211)"><text fill="#000000" fill-opacity="1" font-family="Liberation Sans" font-size="40" font-style="normal" font-weight="400" stroke="none" textLength="10" x="0" xml:space="preserve" y="17.9219">I</text></g><defs><clipPath id="clip30"><path d="M-471,-138 L15,-138 L15,138 L-471,138 L-471,-138 z"/></clipPath></defs><g clip-path="url(#clip30)" fill="none" opacity="1" stroke="#000000" stroke-linecap="butt" stroke-linejoin="miter" stroke-miterlimit="2" stroke-opacity="1" stroke-width="0.545" transform="matrix(0.358372,0,0,0.358372,181.651,53.211)"><text fill="#000000" fill-opacity="1" font-family="Liberation Sans" font-size="40" font-style="normal" font-weight="400" stroke="none" textLength="86" x="-110.859" xml:space="preserve" y="17.9219">Q(U)</text></g><defs><clipPath id="clip36"><path d="M-7,-2 L102,-2 L102,56 L-7,56 L-7,-2 z"/></clipPath></defs><g clip-path="url(#clip36)" fill="none" opacity="1" stroke="#000000" stroke-linecap="butt" stroke-linejoin="miter" stroke-miterlimit="2" stroke-opacity="1" stroke-width="0.784438" transform="matrix(1.83486,0,0,1.83486,12.844,3.66972)"><path d="M0,0 L95,0 L95,54 L0,54 L0,0 z" fill-rule="evenodd" vector-effect="none"/></g></g></svg>
