<?xml version="1.0" encoding="UTF-8"?><svg width="52.9167mm" height="48.1542mm" viewBox="0 0 200 182" xmlns="http://www.w3.org/2000/svg" xmlns:xlink="http://www.w3.org/1999/xlink"><g fill="none" stroke="black" stroke-width="1" fill-rule="evenodd" stroke-linecap="square" stroke-linejoin="bevel"><g clip-path="none" fill="none" opacity="1" stroke="none" stroke-opacity="0" transform="matrix(1,0,0,1,0,0)"><path d="M0,0 L200,0 L200,182 L0,182 L0,0 z" fill-rule="evenodd" vector-effect="none"/></g><defs><clipPath id="clip3"><path d="M-2,-2 L67,-2 L67,61 L-2,61 L-2,-2 z"/></clipPath></defs><g clip-path="url(#clip3)" fill="#e8d152" fill-opacity="1" opacity="1" stroke="none" stroke-opacity="0" transform="matrix(2.89855,0,0,2.89855,5.7971,5.7971)"><path d="M0,0 L65,0 L65,59 L0,59 L0,0 z" fill-rule="evenodd" vector-effect="none"/></g><defs><clipPath id="clip8"><path d="M-61,-67 L272,-67 L272,235 L-61,235 L-61,-67 z"/></clipPath></defs><g clip-path="url(#clip8)" fill="none" opacity="1" stroke="#000000" stroke-linecap="butt" stroke-linejoin="miter" stroke-miterlimit="2" stroke-opacity="1" stroke-width="0.345" transform="matrix(0.566123,0,0,0.566123,40.5797,43.4783)"><text fill="#000000" fill-opacity="1" font-family="Liberation Sans" font-size="48" font-style="normal" font-weight="400" stroke="none" textLength="143" x="0" xml:space="preserve" y="21.125">[m x n]</text></g><defs><clipPath id="clip10"><path d="M299,72 L364,72 L364,131 L299,131 L299,72 z"/></clipPath></defs><g clip-path="url(#clip10)" fill="none" opacity="1" stroke="#000000" stroke-linecap="butt" stroke-linejoin="miter" stroke-miterlimit="2" stroke-opacity="1" stroke-width="0.345" transform="matrix(2.89855,0,0,2.89855,-862.319,-201.449)"><polyline fill="none" points="312,102 347,102" vector-effect="none"/></g><defs><clipPath id="clip11"><path d="M299,72 L364,72 L364,131 L299,131 L299,72 z"/></clipPath></defs><g clip-path="url(#clip11)" fill="none" opacity="1" stroke="#000000" stroke-linecap="butt" stroke-linejoin="miter" stroke-miterlimit="2" stroke-opacity="1" stroke-width="0.345" transform="matrix(2.89855,0,0,2.89855,-862.319,-201.449)"><polyline fill="none" points="312,107 347,107" vector-effect="none"/></g><defs><clipPath id="clip12"><path d="M299,72 L364,72 L364,131 L299,131 L299,72 z"/></clipPath></defs><g clip-path="url(#clip12)" fill="none" opacity="1" stroke="#000000" stroke-linecap="butt" stroke-linejoin="miter" stroke-miterlimit="2" stroke-opacity="1" stroke-width="0.345" transform="matrix(2.89855,0,0,2.89855,-862.319,-201.449)"><polyline fill="none" points="344,99 353,104" vector-effect="none"/></g><defs><clipPath id="clip13"><path d="M299,72 L364,72 L364,131 L299,131 L299,72 z"/></clipPath></defs><g clip-path="url(#clip13)" fill="none" opacity="1" stroke="#000000" stroke-linecap="butt" stroke-linejoin="miter" stroke-miterlimit="2" stroke-opacity="1" stroke-width="0.345" transform="matrix(2.89855,0,0,2.89855,-862.319,-201.449)"><polyline fill="none" points="344,109 353,104" vector-effect="none"/></g><defs><clipPath id="clip15"><path d="M-31,-246 L302,-246 L302,56 L-31,56 L-31,-246 z"/></clipPath></defs><g clip-path="url(#clip15)" fill="none" opacity="1" stroke="#000000" stroke-linecap="butt" stroke-linejoin="miter" stroke-miterlimit="2" stroke-opacity="1" stroke-width="0.345" transform="matrix(0.566123,0,0,0.566123,23.1884,144.928)"><text fill="#000000" fill-opacity="1" font-family="Liberation Sans" font-size="48" font-style="normal" font-weight="400" stroke="none" textLength="208" x="0" xml:space="preserve" y="21.125">datatypes</text></g><defs><clipPath id="clip21"><path d="M-2,-2 L67,-2 L67,61 L-2,61 L-2,-2 z"/></clipPath></defs><g clip-path="url(#clip21)" fill="none" opacity="1" stroke="#000000" stroke-linecap="butt" stroke-linejoin="miter" stroke-miterlimit="2" stroke-opacity="1" stroke-width="0.653323" transform="matrix(2.89855,0,0,2.89855,5.7971,5.7971)"><path d="M0,0 L65,0 L65,59 L0,59 L0,0 z" fill-rule="evenodd" vector-effect="none"/></g></g></svg>
