<?xml version="1.0" encoding="UTF-8"?><svg width="52.9167mm" height="32.0146mm" viewBox="0 0 200 121" xmlns="http://www.w3.org/2000/svg" xmlns:xlink="http://www.w3.org/1999/xlink"><g fill="none" stroke="black" stroke-width="1" fill-rule="evenodd" stroke-linecap="square" stroke-linejoin="bevel"><g clip-path="none" fill="none" opacity="1" stroke="none" stroke-opacity="0" transform="matrix(1,0,0,1,0,0)"><path d="M0,0 L200,0 L200,121 L0,121 L0,0 z" fill-rule="evenodd" vector-effect="none"/></g><defs><clipPath id="clip3"><path d="M-82,-27 L7,-27 L7,27 L-82,27 L-82,-27 z"/></clipPath></defs><g clip-path="url(#clip3)" fill="none" opacity="1" stroke="#000000" stroke-linecap="round" stroke-linejoin="miter" stroke-miterlimit="2" stroke-opacity="1" stroke-width="2" transform="matrix(2.24719,0,0,2.24719,184.27,60.6742)"><path d="M0,-5 L5,0 L0,5" fill-rule="evenodd" vector-effect="none"/></g><defs><clipPath id="clip6"><path d="M7,27 L-82,27 L-82,-27 L7,-27 L7,27 z"/></clipPath></defs><g clip-path="url(#clip6)" fill="none" opacity="1" stroke="#000000" stroke-linecap="round" stroke-linejoin="miter" stroke-miterlimit="2" stroke-opacity="1" stroke-width="2" transform="matrix(-2.24719,0,0,-2.24719,15.7303,60.6742)"><path d="M5,-5 L0,0 L5,5" fill-rule="evenodd" vector-effect="none"/></g><defs><clipPath id="clip9"><path d="M-7,-2 L82,-2 L82,52 L-7,52 L-7,-2 z"/></clipPath></defs><g clip-path="url(#clip9)" fill="#ffffff" fill-opacity="1" opacity="1" stroke="none" stroke-opacity="0" transform="matrix(2.24719,0,0,2.24719,15.7303,4.49438)"><path d="M0,0 L75,0 L75,50 L0,50 L0,0 z" fill-rule="evenodd" vector-effect="none"/></g><defs><clipPath id="clip13"><path d="M15,115 L90,115 L90,165 L15,165 L15,115 z"/></clipPath></defs><g clip-path="url(#clip13)" fill="none" opacity="1" stroke="#000000" stroke-linecap="butt" stroke-linejoin="miter" stroke-miterlimit="2" stroke-opacity="1" stroke-width="0.445" transform="matrix(2.24719,0,0,2.24719,-16.8539,-252.809)"><polyline fill="none" points="37,122 30,122" vector-effect="none"/></g><defs><clipPath id="clip14"><path d="M15,115 L90,115 L90,165 L15,165 L15,115 z"/></clipPath></defs><g clip-path="url(#clip14)" fill="none" opacity="1" stroke="#000000" stroke-linecap="butt" stroke-linejoin="miter" stroke-miterlimit="2" stroke-opacity="1" stroke-width="0.445" transform="matrix(2.24719,0,0,2.24719,-16.8539,-252.809)"><polyline fill="none" points="30,122 30,158" vector-effect="none"/></g><defs><clipPath id="clip15"><path d="M15,115 L90,115 L90,165 L15,165 L15,115 z"/></clipPath></defs><g clip-path="url(#clip15)" fill="none" opacity="1" stroke="#000000" stroke-linecap="butt" stroke-linejoin="miter" stroke-miterlimit="2" stroke-opacity="1" stroke-width="0.445" transform="matrix(2.24719,0,0,2.24719,-16.8539,-252.809)"><polyline fill="none" points="30,158 37,158" vector-effect="none"/></g><defs><clipPath id="clip16"><path d="M15,115 L90,115 L90,165 L15,165 L15,115 z"/></clipPath></defs><g clip-path="url(#clip16)" fill="none" opacity="1" stroke="#000000" stroke-linecap="butt" stroke-linejoin="miter" stroke-miterlimit="2" stroke-opacity="1" stroke-width="0.445" transform="matrix(2.24719,0,0,2.24719,-16.8539,-252.809)"><polyline fill="none" points="70,122 77,122" vector-effect="none"/></g><defs><clipPath id="clip17"><path d="M15,115 L90,115 L90,165 L15,165 L15,115 z"/></clipPath></defs><g clip-path="url(#clip17)" fill="none" opacity="1" stroke="#000000" stroke-linecap="butt" stroke-linejoin="miter" stroke-miterlimit="2" stroke-opacity="1" stroke-width="0.445" transform="matrix(2.24719,0,0,2.24719,-16.8539,-252.809)"><polyline fill="none" points="77,122 77,158" vector-effect="none"/></g><defs><clipPath id="clip18"><path d="M15,115 L90,115 L90,165 L15,165 L15,115 z"/></clipPath></defs><g clip-path="url(#clip18)" fill="none" opacity="1" stroke="#000000" stroke-linecap="butt" stroke-linejoin="miter" stroke-miterlimit="2" stroke-opacity="1" stroke-width="0.445" transform="matrix(2.24719,0,0,2.24719,-16.8539,-252.809)"><polyline fill="none" points="77,158 70,158" vector-effect="none"/></g><defs><clipPath id="clip19"><path d="M15,115 L90,115 L90,165 L15,165 L15,115 z"/></clipPath></defs><g clip-path="url(#clip19)" fill="none" opacity="1" stroke="#000000" stroke-linecap="butt" stroke-linejoin="miter" stroke-miterlimit="2" stroke-opacity="1" stroke-width="0.445" transform="matrix(2.24719,0,0,2.24719,-16.8539,-252.809)"><polyline fill="none" points="42,151 41,149" vector-effect="none"/></g><defs><clipPath id="clip20"><path d="M15,115 L90,115 L90,165 L15,165 L15,115 z"/></clipPath></defs><g clip-path="url(#clip20)" fill="none" opacity="1" stroke="#000000" stroke-linecap="butt" stroke-linejoin="miter" stroke-miterlimit="2" stroke-opacity="1" stroke-width="0.445" transform="matrix(2.24719,0,0,2.24719,-16.8539,-252.809)"><polyline fill="none" points="41,149 39,149" vector-effect="none"/></g><defs><clipPath id="clip21"><path d="M15,115 L90,115 L90,165 L15,165 L15,115 z"/></clipPath></defs><g clip-path="url(#clip21)" fill="none" opacity="1" stroke="#000000" stroke-linecap="butt" stroke-linejoin="miter" stroke-miterlimit="2" stroke-opacity="1" stroke-width="0.445" transform="matrix(2.24719,0,0,2.24719,-16.8539,-252.809)"><polyline fill="none" points="39,149 36,149" vector-effect="none"/></g><defs><clipPath id="clip22"><path d="M15,115 L90,115 L90,165 L15,165 L15,115 z"/></clipPath></defs><g clip-path="url(#clip22)" fill="none" opacity="1" stroke="#000000" stroke-linecap="butt" stroke-linejoin="miter" stroke-miterlimit="2" stroke-opacity="1" stroke-width="0.445" transform="matrix(2.24719,0,0,2.24719,-16.8539,-252.809)"><polyline fill="none" points="36,149 35,151" vector-effect="none"/></g><defs><clipPath id="clip23"><path d="M15,115 L90,115 L90,165 L15,165 L15,115 z"/></clipPath></defs><g clip-path="url(#clip23)" fill="none" opacity="1" stroke="#000000" stroke-linecap="butt" stroke-linejoin="miter" stroke-miterlimit="2" stroke-opacity="1" stroke-width="0.445" transform="matrix(2.24719,0,0,2.24719,-16.8539,-252.809)"><polyline fill="none" points="35,151 36,153" vector-effect="none"/></g><defs><clipPath id="clip24"><path d="M15,115 L90,115 L90,165 L15,165 L15,115 z"/></clipPath></defs><g clip-path="url(#clip24)" fill="none" opacity="1" stroke="#000000" stroke-linecap="butt" stroke-linejoin="miter" stroke-miterlimit="2" stroke-opacity="1" stroke-width="0.445" transform="matrix(2.24719,0,0,2.24719,-16.8539,-252.809)"><polyline fill="none" points="36,153 39,153" vector-effect="none"/></g><defs><clipPath id="clip25"><path d="M15,115 L90,115 L90,165 L15,165 L15,115 z"/></clipPath></defs><g clip-path="url(#clip25)" fill="none" opacity="1" stroke="#000000" stroke-linecap="butt" stroke-linejoin="miter" stroke-miterlimit="2" stroke-opacity="1" stroke-width="0.445" transform="matrix(2.24719,0,0,2.24719,-16.8539,-252.809)"><polyline fill="none" points="39,153 41,153" vector-effect="none"/></g><defs><clipPath id="clip26"><path d="M15,115 L90,115 L90,165 L15,165 L15,115 z"/></clipPath></defs><g clip-path="url(#clip26)" fill="none" opacity="1" stroke="#000000" stroke-linecap="butt" stroke-linejoin="miter" stroke-miterlimit="2" stroke-opacity="1" stroke-width="0.445" transform="matrix(2.24719,0,0,2.24719,-16.8539,-252.809)"><polyline fill="none" points="41,153 42,151" vector-effect="none"/></g><defs><clipPath id="clip27"><path d="M15,115 L90,115 L90,165 L15,165 L15,115 z"/></clipPath></defs><g clip-path="url(#clip27)" fill="none" opacity="1" stroke="#000000" stroke-linecap="butt" stroke-linejoin="miter" stroke-miterlimit="2" stroke-opacity="1" stroke-width="0.445" transform="matrix(2.24719,0,0,2.24719,-16.8539,-252.809)"><polyline fill="none" points="42,140 41,138" vector-effect="none"/></g><defs><clipPath id="clip28"><path d="M15,115 L90,115 L90,165 L15,165 L15,115 z"/></clipPath></defs><g clip-path="url(#clip28)" fill="none" opacity="1" stroke="#000000" stroke-linecap="butt" stroke-linejoin="miter" stroke-miterlimit="2" stroke-opacity="1" stroke-width="0.445" transform="matrix(2.24719,0,0,2.24719,-16.8539,-252.809)"><polyline fill="none" points="41,138 39,138" vector-effect="none"/></g><defs><clipPath id="clip29"><path d="M15,115 L90,115 L90,165 L15,165 L15,115 z"/></clipPath></defs><g clip-path="url(#clip29)" fill="none" opacity="1" stroke="#000000" stroke-linecap="butt" stroke-linejoin="miter" stroke-miterlimit="2" stroke-opacity="1" stroke-width="0.445" transform="matrix(2.24719,0,0,2.24719,-16.8539,-252.809)"><polyline fill="none" points="39,138 36,138" vector-effect="none"/></g><defs><clipPath id="clip30"><path d="M15,115 L90,115 L90,165 L15,165 L15,115 z"/></clipPath></defs><g clip-path="url(#clip30)" fill="none" opacity="1" stroke="#000000" stroke-linecap="butt" stroke-linejoin="miter" stroke-miterlimit="2" stroke-opacity="1" stroke-width="0.445" transform="matrix(2.24719,0,0,2.24719,-16.8539,-252.809)"><polyline fill="none" points="36,138 35,140" vector-effect="none"/></g><defs><clipPath id="clip31"><path d="M15,115 L90,115 L90,165 L15,165 L15,115 z"/></clipPath></defs><g clip-path="url(#clip31)" fill="none" opacity="1" stroke="#000000" stroke-linecap="butt" stroke-linejoin="miter" stroke-miterlimit="2" stroke-opacity="1" stroke-width="0.445" transform="matrix(2.24719,0,0,2.24719,-16.8539,-252.809)"><polyline fill="none" points="35,140 36,142" vector-effect="none"/></g><defs><clipPath id="clip32"><path d="M15,115 L90,115 L90,165 L15,165 L15,115 z"/></clipPath></defs><g clip-path="url(#clip32)" fill="none" opacity="1" stroke="#000000" stroke-linecap="butt" stroke-linejoin="miter" stroke-miterlimit="2" stroke-opacity="1" stroke-width="0.445" transform="matrix(2.24719,0,0,2.24719,-16.8539,-252.809)"><polyline fill="none" points="36,142 39,142" vector-effect="none"/></g><defs><clipPath id="clip33"><path d="M15,115 L90,115 L90,165 L15,165 L15,115 z"/></clipPath></defs><g clip-path="url(#clip33)" fill="none" opacity="1" stroke="#000000" stroke-linecap="butt" stroke-linejoin="miter" stroke-miterlimit="2" stroke-opacity="1" stroke-width="0.445" transform="matrix(2.24719,0,0,2.24719,-16.8539,-252.809)"><polyline fill="none" points="39,142 41,142" vector-effect="none"/></g><defs><clipPath id="clip34"><path d="M15,115 L90,115 L90,165 L15,165 L15,115 z"/></clipPath></defs><g clip-path="url(#clip34)" fill="none" opacity="1" stroke="#000000" stroke-linecap="butt" stroke-linejoin="miter" stroke-miterlimit="2" stroke-opacity="1" stroke-width="0.445" transform="matrix(2.24719,0,0,2.24719,-16.8539,-252.809)"><polyline fill="none" points="41,142 42,140" vector-effect="none"/></g><defs><clipPath id="clip35"><path d="M15,115 L90,115 L90,165 L15,165 L15,115 z"/></clipPath></defs><g clip-path="url(#clip35)" fill="none" opacity="1" stroke="#000000" stroke-linecap="butt" stroke-linejoin="miter" stroke-miterlimit="2" stroke-opacity="1" stroke-width="0.445" transform="matrix(2.24719,0,0,2.24719,-16.8539,-252.809)"><polyline fill="none" points="42,129 41,127" vector-effect="none"/></g><defs><clipPath id="clip36"><path d="M15,115 L90,115 L90,165 L15,165 L15,115 z"/></clipPath></defs><g clip-path="url(#clip36)" fill="none" opacity="1" stroke="#000000" stroke-linecap="butt" stroke-linejoin="miter" stroke-miterlimit="2" stroke-opacity="1" stroke-width="0.445" transform="matrix(2.24719,0,0,2.24719,-16.8539,-252.809)"><polyline fill="none" points="41,127 39,127" vector-effect="none"/></g><defs><clipPath id="clip37"><path d="M15,115 L90,115 L90,165 L15,165 L15,115 z"/></clipPath></defs><g clip-path="url(#clip37)" fill="none" opacity="1" stroke="#000000" stroke-linecap="butt" stroke-linejoin="miter" stroke-miterlimit="2" stroke-opacity="1" stroke-width="0.445" transform="matrix(2.24719,0,0,2.24719,-16.8539,-252.809)"><polyline fill="none" points="39,127 36,127" vector-effect="none"/></g><defs><clipPath id="clip38"><path d="M15,115 L90,115 L90,165 L15,165 L15,115 z"/></clipPath></defs><g clip-path="url(#clip38)" fill="none" opacity="1" stroke="#000000" stroke-linecap="butt" stroke-linejoin="miter" stroke-miterlimit="2" stroke-opacity="1" stroke-width="0.445" transform="matrix(2.24719,0,0,2.24719,-16.8539,-252.809)"><polyline fill="none" points="36,127 35,129" vector-effect="none"/></g><defs><clipPath id="clip39"><path d="M15,115 L90,115 L90,165 L15,165 L15,115 z"/></clipPath></defs><g clip-path="url(#clip39)" fill="none" opacity="1" stroke="#000000" stroke-linecap="butt" stroke-linejoin="miter" stroke-miterlimit="2" stroke-opacity="1" stroke-width="0.445" transform="matrix(2.24719,0,0,2.24719,-16.8539,-252.809)"><polyline fill="none" points="35,129 36,131" vector-effect="none"/></g><defs><clipPath id="clip40"><path d="M15,115 L90,115 L90,165 L15,165 L15,115 z"/></clipPath></defs><g clip-path="url(#clip40)" fill="none" opacity="1" stroke="#000000" stroke-linecap="butt" stroke-linejoin="miter" stroke-miterlimit="2" stroke-opacity="1" stroke-width="0.445" transform="matrix(2.24719,0,0,2.24719,-16.8539,-252.809)"><polyline fill="none" points="36,131 39,131" vector-effect="none"/></g><defs><clipPath id="clip41"><path d="M15,115 L90,115 L90,165 L15,165 L15,115 z"/></clipPath></defs><g clip-path="url(#clip41)" fill="none" opacity="1" stroke="#000000" stroke-linecap="butt" stroke-linejoin="miter" stroke-miterlimit="2" stroke-opacity="1" stroke-width="0.445" transform="matrix(2.24719,0,0,2.24719,-16.8539,-252.809)"><polyline fill="none" points="39,131 41,131" vector-effect="none"/></g><defs><clipPath id="clip42"><path d="M15,115 L90,115 L90,165 L15,165 L15,115 z"/></clipPath></defs><g clip-path="url(#clip42)" fill="none" opacity="1" stroke="#000000" stroke-linecap="butt" stroke-linejoin="miter" stroke-miterlimit="2" stroke-opacity="1" stroke-width="0.445" transform="matrix(2.24719,0,0,2.24719,-16.8539,-252.809)"><polyline fill="none" points="41,131 42,129" vector-effect="none"/></g><defs><clipPath id="clip43"><path d="M15,115 L90,115 L90,165 L15,165 L15,115 z"/></clipPath></defs><g clip-path="url(#clip43)" fill="none" opacity="1" stroke="#000000" stroke-linecap="butt" stroke-linejoin="miter" stroke-miterlimit="2" stroke-opacity="1" stroke-width="0.445" transform="matrix(2.24719,0,0,2.24719,-16.8539,-252.809)"><polyline fill="none" points="56,151 55,149" vector-effect="none"/></g><defs><clipPath id="clip44"><path d="M15,115 L90,115 L90,165 L15,165 L15,115 z"/></clipPath></defs><g clip-path="url(#clip44)" fill="none" opacity="1" stroke="#000000" stroke-linecap="butt" stroke-linejoin="miter" stroke-miterlimit="2" stroke-opacity="1" stroke-width="0.445" transform="matrix(2.24719,0,0,2.24719,-16.8539,-252.809)"><polyline fill="none" points="55,149 53,149" vector-effect="none"/></g><defs><clipPath id="clip45"><path d="M15,115 L90,115 L90,165 L15,165 L15,115 z"/></clipPath></defs><g clip-path="url(#clip45)" fill="none" opacity="1" stroke="#000000" stroke-linecap="butt" stroke-linejoin="miter" stroke-miterlimit="2" stroke-opacity="1" stroke-width="0.445" transform="matrix(2.24719,0,0,2.24719,-16.8539,-252.809)"><polyline fill="none" points="53,149 50,149" vector-effect="none"/></g><defs><clipPath id="clip46"><path d="M15,115 L90,115 L90,165 L15,165 L15,115 z"/></clipPath></defs><g clip-path="url(#clip46)" fill="none" opacity="1" stroke="#000000" stroke-linecap="butt" stroke-linejoin="miter" stroke-miterlimit="2" stroke-opacity="1" stroke-width="0.445" transform="matrix(2.24719,0,0,2.24719,-16.8539,-252.809)"><polyline fill="none" points="50,149 49,151" vector-effect="none"/></g><defs><clipPath id="clip47"><path d="M15,115 L90,115 L90,165 L15,165 L15,115 z"/></clipPath></defs><g clip-path="url(#clip47)" fill="none" opacity="1" stroke="#000000" stroke-linecap="butt" stroke-linejoin="miter" stroke-miterlimit="2" stroke-opacity="1" stroke-width="0.445" transform="matrix(2.24719,0,0,2.24719,-16.8539,-252.809)"><polyline fill="none" points="49,151 50,153" vector-effect="none"/></g><defs><clipPath id="clip48"><path d="M15,115 L90,115 L90,165 L15,165 L15,115 z"/></clipPath></defs><g clip-path="url(#clip48)" fill="none" opacity="1" stroke="#000000" stroke-linecap="butt" stroke-linejoin="miter" stroke-miterlimit="2" stroke-opacity="1" stroke-width="0.445" transform="matrix(2.24719,0,0,2.24719,-16.8539,-252.809)"><polyline fill="none" points="50,153 53,153" vector-effect="none"/></g><defs><clipPath id="clip49"><path d="M15,115 L90,115 L90,165 L15,165 L15,115 z"/></clipPath></defs><g clip-path="url(#clip49)" fill="none" opacity="1" stroke="#000000" stroke-linecap="butt" stroke-linejoin="miter" stroke-miterlimit="2" stroke-opacity="1" stroke-width="0.445" transform="matrix(2.24719,0,0,2.24719,-16.8539,-252.809)"><polyline fill="none" points="53,153 55,153" vector-effect="none"/></g><defs><clipPath id="clip50"><path d="M15,115 L90,115 L90,165 L15,165 L15,115 z"/></clipPath></defs><g clip-path="url(#clip50)" fill="none" opacity="1" stroke="#000000" stroke-linecap="butt" stroke-linejoin="miter" stroke-miterlimit="2" stroke-opacity="1" stroke-width="0.445" transform="matrix(2.24719,0,0,2.24719,-16.8539,-252.809)"><polyline fill="none" points="55,153 56,151" vector-effect="none"/></g><defs><clipPath id="clip51"><path d="M15,115 L90,115 L90,165 L15,165 L15,115 z"/></clipPath></defs><g clip-path="url(#clip51)" fill="none" opacity="1" stroke="#000000" stroke-linecap="butt" stroke-linejoin="miter" stroke-miterlimit="2" stroke-opacity="1" stroke-width="0.445" transform="matrix(2.24719,0,0,2.24719,-16.8539,-252.809)"><polyline fill="none" points="70,151 69,149" vector-effect="none"/></g><defs><clipPath id="clip52"><path d="M15,115 L90,115 L90,165 L15,165 L15,115 z"/></clipPath></defs><g clip-path="url(#clip52)" fill="none" opacity="1" stroke="#000000" stroke-linecap="butt" stroke-linejoin="miter" stroke-miterlimit="2" stroke-opacity="1" stroke-width="0.445" transform="matrix(2.24719,0,0,2.24719,-16.8539,-252.809)"><polyline fill="none" points="69,149 66,149" vector-effect="none"/></g><defs><clipPath id="clip53"><path d="M15,115 L90,115 L90,165 L15,165 L15,115 z"/></clipPath></defs><g clip-path="url(#clip53)" fill="none" opacity="1" stroke="#000000" stroke-linecap="butt" stroke-linejoin="miter" stroke-miterlimit="2" stroke-opacity="1" stroke-width="0.445" transform="matrix(2.24719,0,0,2.24719,-16.8539,-252.809)"><polyline fill="none" points="66,149 64,149" vector-effect="none"/></g><defs><clipPath id="clip54"><path d="M15,115 L90,115 L90,165 L15,165 L15,115 z"/></clipPath></defs><g clip-path="url(#clip54)" fill="none" opacity="1" stroke="#000000" stroke-linecap="butt" stroke-linejoin="miter" stroke-miterlimit="2" stroke-opacity="1" stroke-width="0.445" transform="matrix(2.24719,0,0,2.24719,-16.8539,-252.809)"><polyline fill="none" points="64,149 63,151" vector-effect="none"/></g><defs><clipPath id="clip55"><path d="M15,115 L90,115 L90,165 L15,165 L15,115 z"/></clipPath></defs><g clip-path="url(#clip55)" fill="none" opacity="1" stroke="#000000" stroke-linecap="butt" stroke-linejoin="miter" stroke-miterlimit="2" stroke-opacity="1" stroke-width="0.445" transform="matrix(2.24719,0,0,2.24719,-16.8539,-252.809)"><polyline fill="none" points="63,151 64,153" vector-effect="none"/></g><defs><clipPath id="clip56"><path d="M15,115 L90,115 L90,165 L15,165 L15,115 z"/></clipPath></defs><g clip-path="url(#clip56)" fill="none" opacity="1" stroke="#000000" stroke-linecap="butt" stroke-linejoin="miter" stroke-miterlimit="2" stroke-opacity="1" stroke-width="0.445" transform="matrix(2.24719,0,0,2.24719,-16.8539,-252.809)"><polyline fill="none" points="64,153 66,153" vector-effect="none"/></g><defs><clipPath id="clip57"><path d="M15,115 L90,115 L90,165 L15,165 L15,115 z"/></clipPath></defs><g clip-path="url(#clip57)" fill="none" opacity="1" stroke="#000000" stroke-linecap="butt" stroke-linejoin="miter" stroke-miterlimit="2" stroke-opacity="1" stroke-width="0.445" transform="matrix(2.24719,0,0,2.24719,-16.8539,-252.809)"><polyline fill="none" points="66,153 69,153" vector-effect="none"/></g><defs><clipPath id="clip58"><path d="M15,115 L90,115 L90,165 L15,165 L15,115 z"/></clipPath></defs><g clip-path="url(#clip58)" fill="none" opacity="1" stroke="#000000" stroke-linecap="butt" stroke-linejoin="miter" stroke-miterlimit="2" stroke-opacity="1" stroke-width="0.445" transform="matrix(2.24719,0,0,2.24719,-16.8539,-252.809)"><polyline fill="none" points="69,153 70,151" vector-effect="none"/></g><defs><clipPath id="clip59"><path d="M15,115 L90,115 L90,165 L15,165 L15,115 z"/></clipPath></defs><g clip-path="url(#clip59)" fill="none" opacity="1" stroke="#000000" stroke-linecap="butt" stroke-linejoin="miter" stroke-miterlimit="2" stroke-opacity="1" stroke-width="0.445" transform="matrix(2.24719,0,0,2.24719,-16.8539,-252.809)"><polyline fill="none" points="49,142 50,142" vector-effect="none"/></g><defs><clipPath id="clip60"><path d="M15,115 L90,115 L90,165 L15,165 L15,115 z"/></clipPath></defs><g clip-path="url(#clip60)" fill="none" opacity="1" stroke="#000000" stroke-linecap="butt" stroke-linejoin="miter" stroke-miterlimit="2" stroke-opacity="1" stroke-width="0.445" transform="matrix(2.24719,0,0,2.24719,-16.8539,-252.809)"><polyline fill="none" points="55,142 56,142" vector-effect="none"/></g><defs><clipPath id="clip61"><path d="M15,115 L90,115 L90,165 L15,165 L15,115 z"/></clipPath></defs><g clip-path="url(#clip61)" fill="none" opacity="1" stroke="#000000" stroke-linecap="butt" stroke-linejoin="miter" stroke-miterlimit="2" stroke-opacity="1" stroke-width="0.445" transform="matrix(2.24719,0,0,2.24719,-16.8539,-252.809)"><polyline fill="none" points="49,138 50,138" vector-effect="none"/></g><defs><clipPath id="clip62"><path d="M15,115 L90,115 L90,165 L15,165 L15,115 z"/></clipPath></defs><g clip-path="url(#clip62)" fill="none" opacity="1" stroke="#000000" stroke-linecap="butt" stroke-linejoin="miter" stroke-miterlimit="2" stroke-opacity="1" stroke-width="0.445" transform="matrix(2.24719,0,0,2.24719,-16.8539,-252.809)"><polyline fill="none" points="55,138 56,138" vector-effect="none"/></g><defs><clipPath id="clip63"><path d="M15,115 L90,115 L90,165 L15,165 L15,115 z"/></clipPath></defs><g clip-path="url(#clip63)" fill="none" opacity="1" stroke="#000000" stroke-linecap="butt" stroke-linejoin="miter" stroke-miterlimit="2" stroke-opacity="1" stroke-width="0.445" transform="matrix(2.24719,0,0,2.24719,-16.8539,-252.809)"><polyline fill="none" points="50,142 55,138" vector-effect="none"/></g><defs><clipPath id="clip64"><path d="M15,115 L90,115 L90,165 L15,165 L15,115 z"/></clipPath></defs><g clip-path="url(#clip64)" fill="none" opacity="1" stroke="#000000" stroke-linecap="butt" stroke-linejoin="miter" stroke-miterlimit="2" stroke-opacity="1" stroke-width="0.445" transform="matrix(2.24719,0,0,2.24719,-16.8539,-252.809)"><polyline fill="none" points="50,138 55,142" vector-effect="none"/></g><defs><clipPath id="clip65"><path d="M15,115 L90,115 L90,165 L15,165 L15,115 z"/></clipPath></defs><g clip-path="url(#clip65)" fill="none" opacity="1" stroke="#000000" stroke-linecap="butt" stroke-linejoin="miter" stroke-miterlimit="2" stroke-opacity="1" stroke-width="0.445" transform="matrix(2.24719,0,0,2.24719,-16.8539,-252.809)"><polyline fill="none" points="49,131 50,131" vector-effect="none"/></g><defs><clipPath id="clip66"><path d="M15,115 L90,115 L90,165 L15,165 L15,115 z"/></clipPath></defs><g clip-path="url(#clip66)" fill="none" opacity="1" stroke="#000000" stroke-linecap="butt" stroke-linejoin="miter" stroke-miterlimit="2" stroke-opacity="1" stroke-width="0.445" transform="matrix(2.24719,0,0,2.24719,-16.8539,-252.809)"><polyline fill="none" points="55,131 56,131" vector-effect="none"/></g><defs><clipPath id="clip67"><path d="M15,115 L90,115 L90,165 L15,165 L15,115 z"/></clipPath></defs><g clip-path="url(#clip67)" fill="none" opacity="1" stroke="#000000" stroke-linecap="butt" stroke-linejoin="miter" stroke-miterlimit="2" stroke-opacity="1" stroke-width="0.445" transform="matrix(2.24719,0,0,2.24719,-16.8539,-252.809)"><polyline fill="none" points="49,127 50,127" vector-effect="none"/></g><defs><clipPath id="clip68"><path d="M15,115 L90,115 L90,165 L15,165 L15,115 z"/></clipPath></defs><g clip-path="url(#clip68)" fill="none" opacity="1" stroke="#000000" stroke-linecap="butt" stroke-linejoin="miter" stroke-miterlimit="2" stroke-opacity="1" stroke-width="0.445" transform="matrix(2.24719,0,0,2.24719,-16.8539,-252.809)"><polyline fill="none" points="55,127 56,127" vector-effect="none"/></g><defs><clipPath id="clip69"><path d="M15,115 L90,115 L90,165 L15,165 L15,115 z"/></clipPath></defs><g clip-path="url(#clip69)" fill="none" opacity="1" stroke="#000000" stroke-linecap="butt" stroke-linejoin="miter" stroke-miterlimit="2" stroke-opacity="1" stroke-width="0.445" transform="matrix(2.24719,0,0,2.24719,-16.8539,-252.809)"><polyline fill="none" points="50,131 55,127" vector-effect="none"/></g><defs><clipPath id="clip70"><path d="M15,115 L90,115 L90,165 L15,165 L15,115 z"/></clipPath></defs><g clip-path="url(#clip70)" fill="none" opacity="1" stroke="#000000" stroke-linecap="butt" stroke-linejoin="miter" stroke-miterlimit="2" stroke-opacity="1" stroke-width="0.445" transform="matrix(2.24719,0,0,2.24719,-16.8539,-252.809)"><polyline fill="none" points="50,127 55,131" vector-effect="none"/></g><defs><clipPath id="clip71"><path d="M15,115 L90,115 L90,165 L15,165 L15,115 z"/></clipPath></defs><g clip-path="url(#clip71)" fill="none" opacity="1" stroke="#000000" stroke-linecap="butt" stroke-linejoin="miter" stroke-miterlimit="2" stroke-opacity="1" stroke-width="0.445" transform="matrix(2.24719,0,0,2.24719,-16.8539,-252.809)"><polyline fill="none" points="63,142 64,142" vector-effect="none"/></g><defs><clipPath id="clip72"><path d="M15,115 L90,115 L90,165 L15,165 L15,115 z"/></clipPath></defs><g clip-path="url(#clip72)" fill="none" opacity="1" stroke="#000000" stroke-linecap="butt" stroke-linejoin="miter" stroke-miterlimit="2" stroke-opacity="1" stroke-width="0.445" transform="matrix(2.24719,0,0,2.24719,-16.8539,-252.809)"><polyline fill="none" points="68,142 70,142" vector-effect="none"/></g><defs><clipPath id="clip73"><path d="M15,115 L90,115 L90,165 L15,165 L15,115 z"/></clipPath></defs><g clip-path="url(#clip73)" fill="none" opacity="1" stroke="#000000" stroke-linecap="butt" stroke-linejoin="miter" stroke-miterlimit="2" stroke-opacity="1" stroke-width="0.445" transform="matrix(2.24719,0,0,2.24719,-16.8539,-252.809)"><polyline fill="none" points="63,138 64,138" vector-effect="none"/></g><defs><clipPath id="clip74"><path d="M15,115 L90,115 L90,165 L15,165 L15,115 z"/></clipPath></defs><g clip-path="url(#clip74)" fill="none" opacity="1" stroke="#000000" stroke-linecap="butt" stroke-linejoin="miter" stroke-miterlimit="2" stroke-opacity="1" stroke-width="0.445" transform="matrix(2.24719,0,0,2.24719,-16.8539,-252.809)"><polyline fill="none" points="68,138 70,138" vector-effect="none"/></g><defs><clipPath id="clip75"><path d="M15,115 L90,115 L90,165 L15,165 L15,115 z"/></clipPath></defs><g clip-path="url(#clip75)" fill="none" opacity="1" stroke="#000000" stroke-linecap="butt" stroke-linejoin="miter" stroke-miterlimit="2" stroke-opacity="1" stroke-width="0.445" transform="matrix(2.24719,0,0,2.24719,-16.8539,-252.809)"><polyline fill="none" points="64,142 69,138" vector-effect="none"/></g><defs><clipPath id="clip76"><path d="M15,115 L90,115 L90,165 L15,165 L15,115 z"/></clipPath></defs><g clip-path="url(#clip76)" fill="none" opacity="1" stroke="#000000" stroke-linecap="butt" stroke-linejoin="miter" stroke-miterlimit="2" stroke-opacity="1" stroke-width="0.445" transform="matrix(2.24719,0,0,2.24719,-16.8539,-252.809)"><polyline fill="none" points="64,138 69,142" vector-effect="none"/></g><defs><clipPath id="clip77"><path d="M15,115 L90,115 L90,165 L15,165 L15,115 z"/></clipPath></defs><g clip-path="url(#clip77)" fill="none" opacity="1" stroke="#000000" stroke-linecap="butt" stroke-linejoin="miter" stroke-miterlimit="2" stroke-opacity="1" stroke-width="0.445" transform="matrix(2.24719,0,0,2.24719,-16.8539,-252.809)"><polyline fill="none" points="63,131 64,131" vector-effect="none"/></g><defs><clipPath id="clip78"><path d="M15,115 L90,115 L90,165 L15,165 L15,115 z"/></clipPath></defs><g clip-path="url(#clip78)" fill="none" opacity="1" stroke="#000000" stroke-linecap="butt" stroke-linejoin="miter" stroke-miterlimit="2" stroke-opacity="1" stroke-width="0.445" transform="matrix(2.24719,0,0,2.24719,-16.8539,-252.809)"><polyline fill="none" points="68,131 70,131" vector-effect="none"/></g><defs><clipPath id="clip79"><path d="M15,115 L90,115 L90,165 L15,165 L15,115 z"/></clipPath></defs><g clip-path="url(#clip79)" fill="none" opacity="1" stroke="#000000" stroke-linecap="butt" stroke-linejoin="miter" stroke-miterlimit="2" stroke-opacity="1" stroke-width="0.445" transform="matrix(2.24719,0,0,2.24719,-16.8539,-252.809)"><polyline fill="none" points="63,127 64,127" vector-effect="none"/></g><defs><clipPath id="clip80"><path d="M15,115 L90,115 L90,165 L15,165 L15,115 z"/></clipPath></defs><g clip-path="url(#clip80)" fill="none" opacity="1" stroke="#000000" stroke-linecap="butt" stroke-linejoin="miter" stroke-miterlimit="2" stroke-opacity="1" stroke-width="0.445" transform="matrix(2.24719,0,0,2.24719,-16.8539,-252.809)"><polyline fill="none" points="68,127 70,127" vector-effect="none"/></g><defs><clipPath id="clip81"><path d="M15,115 L90,115 L90,165 L15,165 L15,115 z"/></clipPath></defs><g clip-path="url(#clip81)" fill="none" opacity="1" stroke="#000000" stroke-linecap="butt" stroke-linejoin="miter" stroke-miterlimit="2" stroke-opacity="1" stroke-width="0.445" transform="matrix(2.24719,0,0,2.24719,-16.8539,-252.809)"><polyline fill="none" points="64,131 69,127" vector-effect="none"/></g><defs><clipPath id="clip82"><path d="M15,115 L90,115 L90,165 L15,165 L15,115 z"/></clipPath></defs><g clip-path="url(#clip82)" fill="none" opacity="1" stroke="#000000" stroke-linecap="butt" stroke-linejoin="miter" stroke-miterlimit="2" stroke-opacity="1" stroke-width="0.445" transform="matrix(2.24719,0,0,2.24719,-16.8539,-252.809)"><polyline fill="none" points="64,127 69,131" vector-effect="none"/></g><defs><clipPath id="clip83"><path d="M15,115 L90,115 L90,165 L15,165 L15,115 z"/></clipPath></defs><g clip-path="url(#clip83)" fill="none" opacity="1" stroke="#000000" stroke-linecap="butt" stroke-linejoin="miter" stroke-miterlimit="2" stroke-opacity="1" stroke-width="0.445" transform="matrix(2.24719,0,0,2.24719,-16.8539,-252.809)"><polyline fill="none" points="46,146 73,146" vector-effect="none"/></g><defs><clipPath id="clip84"><path d="M15,115 L90,115 L90,165 L15,165 L15,115 z"/></clipPath></defs><g clip-path="url(#clip84)" fill="none" opacity="1" stroke="#000000" stroke-linecap="butt" stroke-linejoin="miter" stroke-miterlimit="2" stroke-opacity="1" stroke-width="0.445" transform="matrix(2.24719,0,0,2.24719,-16.8539,-252.809)"><polyline fill="none" points="73,146 73,124" vector-effect="none"/></g><defs><clipPath id="clip85"><path d="M15,115 L90,115 L90,165 L15,165 L15,115 z"/></clipPath></defs><g clip-path="url(#clip85)" fill="none" opacity="1" stroke="#000000" stroke-linecap="butt" stroke-linejoin="miter" stroke-miterlimit="2" stroke-opacity="1" stroke-width="0.445" transform="matrix(2.24719,0,0,2.24719,-16.8539,-252.809)"><polyline fill="none" points="73,124 46,124" vector-effect="none"/></g><defs><clipPath id="clip86"><path d="M15,115 L90,115 L90,165 L15,165 L15,115 z"/></clipPath></defs><g clip-path="url(#clip86)" fill="none" opacity="1" stroke="#000000" stroke-linecap="butt" stroke-linejoin="miter" stroke-miterlimit="2" stroke-opacity="1" stroke-width="0.445" transform="matrix(2.24719,0,0,2.24719,-16.8539,-252.809)"><polyline fill="none" points="46,124 46,146" vector-effect="none"/></g><defs><clipPath id="clip88"><path d="M-15,-128 L369,-128 L369,128 L-15,128 L-15,-128 z"/></clipPath></defs><g clip-path="url(#clip88)" fill="none" opacity="1" stroke="#000000" stroke-linecap="butt" stroke-linejoin="miter" stroke-miterlimit="2" stroke-opacity="1" stroke-width="0.445" transform="matrix(0.438904,0,0,0.438904,22.4719,60.6742)"><text fill="#000000" fill-opacity="1" font-family="Liberation Sans" font-size="40" font-style="normal" font-weight="400" stroke="none" textLength="27" x="0" xml:space="preserve" y="17.9219">A</text></g><defs><clipPath id="clip91"><path d="M-369,-128 L15,-128 L15,128 L-369,128 L-369,-128 z"/></clipPath></defs><g clip-path="url(#clip91)" fill="none" opacity="1" stroke="#000000" stroke-linecap="butt" stroke-linejoin="miter" stroke-miterlimit="2" stroke-opacity="1" stroke-width="0.445" transform="matrix(0.438904,0,0,0.438904,177.528,60.6742)"><text fill="#000000" fill-opacity="1" font-family="Liberation Sans" font-size="40" font-style="normal" font-weight="400" stroke="none" textLength="27" x="-34.125" xml:space="preserve" y="17.9219">B</text></g><defs><clipPath id="clip97"><path d="M-7,-2 L82,-2 L82,52 L-7,52 L-7,-2 z"/></clipPath></defs><g clip-path="url(#clip97)" fill="none" opacity="1" stroke="#000000" stroke-linecap="butt" stroke-linejoin="miter" stroke-miterlimit="2" stroke-opacity="1" stroke-width="0.723343" transform="matrix(2.24719,0,0,2.24719,15.7303,4.49438)"><path d="M0,0 L75,0 L75,50 L0,50 L0,0 z" fill-rule="evenodd" vector-effect="none"/></g></g></svg>
