<?xml version="1.0" encoding="UTF-8"?><svg width="52.9167mm" height="46.8313mm" viewBox="0 0 200 177" xmlns="http://www.w3.org/2000/svg" xmlns:xlink="http://www.w3.org/1999/xlink"><g fill="none" stroke="black" stroke-width="1" fill-rule="evenodd" stroke-linecap="square" stroke-linejoin="bevel"><g clip-path="none" fill="none" opacity="1" stroke="none" stroke-opacity="0" transform="matrix(1,0,0,1,0,0)"><path d="M0,0 L200,0 L200,177 L0,177 L0,0 z" fill-rule="evenodd" vector-effect="none"/></g><defs><clipPath id="clip3"><path d="M-47,-24 L7,-24 L7,24 L-47,24 L-47,-24 z"/></clipPath></defs><g clip-path="url(#clip3)" fill="none" opacity="1" stroke="#000000" stroke-linecap="round" stroke-linejoin="miter" stroke-miterlimit="2" stroke-opacity="1" stroke-width="2" transform="matrix(3.7037,0,0,3.7037,174.074,88.8889)"><path d="M0,-5 L5,0 L0,5" fill-rule="evenodd" vector-effect="none"/></g><defs><clipPath id="clip6"><path d="M-2,-2 L52,-2 L52,46 L-2,46 L-2,-2 z"/></clipPath></defs><g clip-path="url(#clip6)" fill="#ffffff" fill-opacity="1" opacity="1" stroke="none" stroke-opacity="0" transform="matrix(3.7037,0,0,3.7037,7.40741,7.40741)"><path d="M0,0 L45,0 L45,44 L0,44 L0,0 z" fill-rule="evenodd" vector-effect="none"/></g><defs><clipPath id="clip10"><path d="M35,53 L80,53 L80,97 L35,97 L35,53 z"/></clipPath></defs><g clip-path="url(#clip10)" fill="none" opacity="1" stroke="#000000" stroke-linecap="butt" stroke-linejoin="miter" stroke-miterlimit="2" stroke-opacity="1" stroke-width="0.27" transform="matrix(3.7037,0,0,3.7037,-120.37,-187.037)"><polyline fill="none" points="71,75 77,75" vector-effect="none"/></g><defs><clipPath id="clip11"><path d="M35,53 L80,53 L80,97 L35,97 L35,53 z"/></clipPath></defs><g clip-path="url(#clip11)" fill="none" opacity="1" stroke="#000000" stroke-linecap="butt" stroke-linejoin="miter" stroke-miterlimit="2" stroke-opacity="1" stroke-width="0.27" transform="matrix(3.7037,0,0,3.7037,-120.37,-187.037)"><polyline fill="none" points="54,66 44,66" vector-effect="none"/></g><defs><clipPath id="clip12"><path d="M35,53 L80,53 L80,97 L35,97 L35,53 z"/></clipPath></defs><g clip-path="url(#clip12)" fill="none" opacity="1" stroke="#000000" stroke-linecap="butt" stroke-linejoin="miter" stroke-miterlimit="2" stroke-opacity="1" stroke-width="0.27" transform="matrix(3.7037,0,0,3.7037,-120.37,-187.037)"><polyline fill="none" points="44,66 44,62" vector-effect="none"/></g><defs><clipPath id="clip13"><path d="M35,53 L80,53 L80,97 L35,97 L35,53 z"/></clipPath></defs><g clip-path="url(#clip13)" fill="none" opacity="1" stroke="#000000" stroke-linecap="butt" stroke-linejoin="miter" stroke-miterlimit="2" stroke-opacity="1" stroke-width="0.27" transform="matrix(3.7037,0,0,3.7037,-120.37,-187.037)"><polyline fill="none" points="41,62 47,62" vector-effect="none"/></g><defs><clipPath id="clip14"><path d="M35,53 L80,53 L80,97 L35,97 L35,53 z"/></clipPath></defs><g clip-path="url(#clip14)" fill="none" opacity="1" stroke="#000000" stroke-linecap="butt" stroke-linejoin="miter" stroke-miterlimit="2" stroke-opacity="1" stroke-width="0.27" transform="matrix(3.7037,0,0,3.7037,-120.37,-187.037)"><polyline fill="none" points="47,62 44,56" vector-effect="none"/></g><defs><clipPath id="clip15"><path d="M35,53 L80,53 L80,97 L35,97 L35,53 z"/></clipPath></defs><g clip-path="url(#clip15)" fill="none" opacity="1" stroke="#000000" stroke-linecap="butt" stroke-linejoin="miter" stroke-miterlimit="2" stroke-opacity="1" stroke-width="0.27" transform="matrix(3.7037,0,0,3.7037,-120.37,-187.037)"><polyline fill="none" points="44,56 41,62" vector-effect="none"/></g><defs><clipPath id="clip16"><path d="M35,53 L80,53 L80,97 L35,97 L35,53 z"/></clipPath></defs><g clip-path="url(#clip16)" fill="none" opacity="1" stroke="#000000" stroke-linecap="butt" stroke-linejoin="miter" stroke-miterlimit="2" stroke-opacity="1" stroke-width="0.27" transform="matrix(3.7037,0,0,3.7037,-120.37,-187.037)"><polyline fill="none" points="54,85 44,85" vector-effect="none"/></g><defs><clipPath id="clip17"><path d="M35,53 L80,53 L80,97 L35,97 L35,53 z"/></clipPath></defs><g clip-path="url(#clip17)" fill="none" opacity="1" stroke="#000000" stroke-linecap="butt" stroke-linejoin="miter" stroke-miterlimit="2" stroke-opacity="1" stroke-width="0.27" transform="matrix(3.7037,0,0,3.7037,-120.37,-187.037)"><polyline fill="none" points="44,85 44,90" vector-effect="none"/></g><defs><clipPath id="clip18"><path d="M35,53 L80,53 L80,97 L35,97 L35,53 z"/></clipPath></defs><g clip-path="url(#clip18)" fill="none" opacity="1" stroke="#000000" stroke-linecap="butt" stroke-linejoin="miter" stroke-miterlimit="2" stroke-opacity="1" stroke-width="0.27" transform="matrix(3.7037,0,0,3.7037,-120.37,-187.037)"><polyline fill="none" points="41,90 47,90" vector-effect="none"/></g><defs><clipPath id="clip19"><path d="M35,53 L80,53 L80,97 L35,97 L35,53 z"/></clipPath></defs><g clip-path="url(#clip19)" fill="none" opacity="1" stroke="#000000" stroke-linecap="butt" stroke-linejoin="miter" stroke-miterlimit="2" stroke-opacity="1" stroke-width="0.27" transform="matrix(3.7037,0,0,3.7037,-120.37,-187.037)"><polyline fill="none" points="42,92 46,92" vector-effect="none"/></g><defs><clipPath id="clip20"><path d="M35,53 L80,53 L80,97 L35,97 L35,53 z"/></clipPath></defs><g clip-path="url(#clip20)" fill="none" opacity="1" stroke="#000000" stroke-linecap="butt" stroke-linejoin="miter" stroke-miterlimit="2" stroke-opacity="1" stroke-width="0.27" transform="matrix(3.7037,0,0,3.7037,-120.37,-187.037)"><polyline fill="none" points="43,94 45,94" vector-effect="none"/></g><defs><clipPath id="clip21"><path d="M35,53 L80,53 L80,97 L35,97 L35,53 z"/></clipPath></defs><g clip-path="url(#clip21)" fill="none" opacity="1" stroke="#000000" stroke-linecap="butt" stroke-linejoin="miter" stroke-miterlimit="2" stroke-opacity="1" stroke-width="0.27" transform="matrix(3.7037,0,0,3.7037,-120.37,-187.037)"><polyline fill="none" points="67,75 58,67" vector-effect="none"/></g><defs><clipPath id="clip22"><path d="M35,53 L80,53 L80,97 L35,97 L35,53 z"/></clipPath></defs><g clip-path="url(#clip22)" fill="none" opacity="1" stroke="#000000" stroke-linecap="butt" stroke-linejoin="miter" stroke-miterlimit="2" stroke-opacity="1" stroke-width="0.27" transform="matrix(3.7037,0,0,3.7037,-120.37,-187.037)"><polyline fill="none" points="61,67 58,67" vector-effect="none"/></g><defs><clipPath id="clip23"><path d="M35,53 L80,53 L80,97 L35,97 L35,53 z"/></clipPath></defs><g clip-path="url(#clip23)" fill="none" opacity="1" stroke="#000000" stroke-linecap="butt" stroke-linejoin="miter" stroke-miterlimit="2" stroke-opacity="1" stroke-width="0.27" transform="matrix(3.7037,0,0,3.7037,-120.37,-187.037)"><polyline fill="none" points="58,67 59,71" vector-effect="none"/></g><defs><clipPath id="clip24"><path d="M35,53 L80,53 L80,97 L35,97 L35,53 z"/></clipPath></defs><g clip-path="url(#clip24)" fill="none" opacity="1" stroke="#000000" stroke-linecap="butt" stroke-linejoin="miter" stroke-miterlimit="2" stroke-opacity="1" stroke-width="0.27" transform="matrix(3.7037,0,0,3.7037,-120.37,-187.037)"><polyline fill="none" points="69,68 66,69" vector-effect="none"/></g><defs><clipPath id="clip25"><path d="M35,53 L80,53 L80,97 L35,97 L35,53 z"/></clipPath></defs><g clip-path="url(#clip25)" fill="none" opacity="1" stroke="#000000" stroke-linecap="butt" stroke-linejoin="miter" stroke-miterlimit="2" stroke-opacity="1" stroke-width="0.27" transform="matrix(3.7037,0,0,3.7037,-120.37,-187.037)"><polyline fill="none" points="66,69 63,72" vector-effect="none"/></g><defs><clipPath id="clip26"><path d="M35,53 L80,53 L80,97 L35,97 L35,53 z"/></clipPath></defs><g clip-path="url(#clip26)" fill="none" opacity="1" stroke="#000000" stroke-linecap="butt" stroke-linejoin="miter" stroke-miterlimit="2" stroke-opacity="1" stroke-width="0.27" transform="matrix(3.7037,0,0,3.7037,-120.37,-187.037)"><polyline fill="none" points="63,72 62,75" vector-effect="none"/></g><defs><clipPath id="clip27"><path d="M35,53 L80,53 L80,97 L35,97 L35,53 z"/></clipPath></defs><g clip-path="url(#clip27)" fill="none" opacity="1" stroke="#000000" stroke-linecap="butt" stroke-linejoin="miter" stroke-miterlimit="2" stroke-opacity="1" stroke-width="0.27" transform="matrix(3.7037,0,0,3.7037,-120.37,-187.037)"><polyline fill="none" points="62,75 63,78" vector-effect="none"/></g><defs><clipPath id="clip28"><path d="M35,53 L80,53 L80,97 L35,97 L35,53 z"/></clipPath></defs><g clip-path="url(#clip28)" fill="none" opacity="1" stroke="#000000" stroke-linecap="butt" stroke-linejoin="miter" stroke-miterlimit="2" stroke-opacity="1" stroke-width="0.27" transform="matrix(3.7037,0,0,3.7037,-120.37,-187.037)"><polyline fill="none" points="63,78 66,81" vector-effect="none"/></g><defs><clipPath id="clip29"><path d="M35,53 L80,53 L80,97 L35,97 L35,53 z"/></clipPath></defs><g clip-path="url(#clip29)" fill="none" opacity="1" stroke="#000000" stroke-linecap="butt" stroke-linejoin="miter" stroke-miterlimit="2" stroke-opacity="1" stroke-width="0.27" transform="matrix(3.7037,0,0,3.7037,-120.37,-187.037)"><polyline fill="none" points="66,81 62,79" vector-effect="none"/></g><defs><clipPath id="clip30"><path d="M35,53 L80,53 L80,97 L35,97 L35,53 z"/></clipPath></defs><g clip-path="url(#clip30)" fill="none" opacity="1" stroke="#000000" stroke-linecap="butt" stroke-linejoin="miter" stroke-miterlimit="2" stroke-opacity="1" stroke-width="0.27" transform="matrix(3.7037,0,0,3.7037,-120.37,-187.037)"><polyline fill="none" points="62,79 66,81" vector-effect="none"/></g><defs><clipPath id="clip31"><path d="M35,53 L80,53 L80,97 L35,97 L35,53 z"/></clipPath></defs><g clip-path="url(#clip31)" fill="none" opacity="1" stroke="#000000" stroke-linecap="butt" stroke-linejoin="miter" stroke-miterlimit="2" stroke-opacity="1" stroke-width="0.27" transform="matrix(3.7037,0,0,3.7037,-120.37,-187.037)"><polyline fill="none" points="66,81 64,77" vector-effect="none"/></g><defs><clipPath id="clip32"><path d="M35,53 L80,53 L80,97 L35,97 L35,53 z"/></clipPath></defs><g clip-path="url(#clip32)" fill="none" opacity="1" stroke="#000000" stroke-linecap="butt" stroke-linejoin="miter" stroke-miterlimit="2" stroke-opacity="1" stroke-width="0.27" transform="matrix(3.7037,0,0,3.7037,-120.37,-187.037)"><polyline fill="none" points="58,66 57,65" vector-effect="none"/></g><defs><clipPath id="clip33"><path d="M35,53 L80,53 L80,97 L35,97 L35,53 z"/></clipPath></defs><g clip-path="url(#clip33)" fill="none" opacity="1" stroke="#000000" stroke-linecap="butt" stroke-linejoin="miter" stroke-miterlimit="2" stroke-opacity="1" stroke-width="0.27" transform="matrix(3.7037,0,0,3.7037,-120.37,-187.037)"><polyline fill="none" points="57,65 57,64" vector-effect="none"/></g><defs><clipPath id="clip34"><path d="M35,53 L80,53 L80,97 L35,97 L35,53 z"/></clipPath></defs><g clip-path="url(#clip34)" fill="none" opacity="1" stroke="#000000" stroke-linecap="butt" stroke-linejoin="miter" stroke-miterlimit="2" stroke-opacity="1" stroke-width="0.27" transform="matrix(3.7037,0,0,3.7037,-120.37,-187.037)"><polyline fill="none" points="57,64 56,64" vector-effect="none"/></g><defs><clipPath id="clip35"><path d="M35,53 L80,53 L80,97 L35,97 L35,53 z"/></clipPath></defs><g clip-path="url(#clip35)" fill="none" opacity="1" stroke="#000000" stroke-linecap="butt" stroke-linejoin="miter" stroke-miterlimit="2" stroke-opacity="1" stroke-width="0.27" transform="matrix(3.7037,0,0,3.7037,-120.37,-187.037)"><polyline fill="none" points="56,64 55,64" vector-effect="none"/></g><defs><clipPath id="clip36"><path d="M35,53 L80,53 L80,97 L35,97 L35,53 z"/></clipPath></defs><g clip-path="url(#clip36)" fill="none" opacity="1" stroke="#000000" stroke-linecap="butt" stroke-linejoin="miter" stroke-miterlimit="2" stroke-opacity="1" stroke-width="0.27" transform="matrix(3.7037,0,0,3.7037,-120.37,-187.037)"><polyline fill="none" points="55,64 54,65" vector-effect="none"/></g><defs><clipPath id="clip37"><path d="M35,53 L80,53 L80,97 L35,97 L35,53 z"/></clipPath></defs><g clip-path="url(#clip37)" fill="none" opacity="1" stroke="#000000" stroke-linecap="butt" stroke-linejoin="miter" stroke-miterlimit="2" stroke-opacity="1" stroke-width="0.27" transform="matrix(3.7037,0,0,3.7037,-120.37,-187.037)"><polyline fill="none" points="54,65 54,66" vector-effect="none"/></g><defs><clipPath id="clip38"><path d="M35,53 L80,53 L80,97 L35,97 L35,53 z"/></clipPath></defs><g clip-path="url(#clip38)" fill="none" opacity="1" stroke="#000000" stroke-linecap="butt" stroke-linejoin="miter" stroke-miterlimit="2" stroke-opacity="1" stroke-width="0.27" transform="matrix(3.7037,0,0,3.7037,-120.37,-187.037)"><polyline fill="none" points="54,66 55,67" vector-effect="none"/></g><defs><clipPath id="clip39"><path d="M35,53 L80,53 L80,97 L35,97 L35,53 z"/></clipPath></defs><g clip-path="url(#clip39)" fill="none" opacity="1" stroke="#000000" stroke-linecap="butt" stroke-linejoin="miter" stroke-miterlimit="2" stroke-opacity="1" stroke-width="0.27" transform="matrix(3.7037,0,0,3.7037,-120.37,-187.037)"><polyline fill="none" points="55,67 56,67" vector-effect="none"/></g><defs><clipPath id="clip40"><path d="M35,53 L80,53 L80,97 L35,97 L35,53 z"/></clipPath></defs><g clip-path="url(#clip40)" fill="none" opacity="1" stroke="#000000" stroke-linecap="butt" stroke-linejoin="miter" stroke-miterlimit="2" stroke-opacity="1" stroke-width="0.27" transform="matrix(3.7037,0,0,3.7037,-120.37,-187.037)"><polyline fill="none" points="56,67 57,67" vector-effect="none"/></g><defs><clipPath id="clip41"><path d="M35,53 L80,53 L80,97 L35,97 L35,53 z"/></clipPath></defs><g clip-path="url(#clip41)" fill="none" opacity="1" stroke="#000000" stroke-linecap="butt" stroke-linejoin="miter" stroke-miterlimit="2" stroke-opacity="1" stroke-width="0.27" transform="matrix(3.7037,0,0,3.7037,-120.37,-187.037)"><polyline fill="none" points="57,67 57,66" vector-effect="none"/></g><defs><clipPath id="clip42"><path d="M35,53 L80,53 L80,97 L35,97 L35,53 z"/></clipPath></defs><g clip-path="url(#clip42)" fill="none" opacity="1" stroke="#000000" stroke-linecap="butt" stroke-linejoin="miter" stroke-miterlimit="2" stroke-opacity="1" stroke-width="0.27" transform="matrix(3.7037,0,0,3.7037,-120.37,-187.037)"><polyline fill="none" points="57,66 58,66" vector-effect="none"/></g><defs><clipPath id="clip43"><path d="M35,53 L80,53 L80,97 L35,97 L35,53 z"/></clipPath></defs><g clip-path="url(#clip43)" fill="none" opacity="1" stroke="#000000" stroke-linecap="butt" stroke-linejoin="miter" stroke-miterlimit="2" stroke-opacity="1" stroke-width="0.27" transform="matrix(3.7037,0,0,3.7037,-120.37,-187.037)"><polyline fill="none" points="58,85 57,84" vector-effect="none"/></g><defs><clipPath id="clip44"><path d="M35,53 L80,53 L80,97 L35,97 L35,53 z"/></clipPath></defs><g clip-path="url(#clip44)" fill="none" opacity="1" stroke="#000000" stroke-linecap="butt" stroke-linejoin="miter" stroke-miterlimit="2" stroke-opacity="1" stroke-width="0.27" transform="matrix(3.7037,0,0,3.7037,-120.37,-187.037)"><polyline fill="none" points="57,84 57,83" vector-effect="none"/></g><defs><clipPath id="clip45"><path d="M35,53 L80,53 L80,97 L35,97 L35,53 z"/></clipPath></defs><g clip-path="url(#clip45)" fill="none" opacity="1" stroke="#000000" stroke-linecap="butt" stroke-linejoin="miter" stroke-miterlimit="2" stroke-opacity="1" stroke-width="0.27" transform="matrix(3.7037,0,0,3.7037,-120.37,-187.037)"><polyline fill="none" points="57,83 56,83" vector-effect="none"/></g><defs><clipPath id="clip46"><path d="M35,53 L80,53 L80,97 L35,97 L35,53 z"/></clipPath></defs><g clip-path="url(#clip46)" fill="none" opacity="1" stroke="#000000" stroke-linecap="butt" stroke-linejoin="miter" stroke-miterlimit="2" stroke-opacity="1" stroke-width="0.27" transform="matrix(3.7037,0,0,3.7037,-120.37,-187.037)"><polyline fill="none" points="56,83 55,83" vector-effect="none"/></g><defs><clipPath id="clip47"><path d="M35,53 L80,53 L80,97 L35,97 L35,53 z"/></clipPath></defs><g clip-path="url(#clip47)" fill="none" opacity="1" stroke="#000000" stroke-linecap="butt" stroke-linejoin="miter" stroke-miterlimit="2" stroke-opacity="1" stroke-width="0.27" transform="matrix(3.7037,0,0,3.7037,-120.37,-187.037)"><polyline fill="none" points="55,83 54,84" vector-effect="none"/></g><defs><clipPath id="clip48"><path d="M35,53 L80,53 L80,97 L35,97 L35,53 z"/></clipPath></defs><g clip-path="url(#clip48)" fill="none" opacity="1" stroke="#000000" stroke-linecap="butt" stroke-linejoin="miter" stroke-miterlimit="2" stroke-opacity="1" stroke-width="0.27" transform="matrix(3.7037,0,0,3.7037,-120.37,-187.037)"><polyline fill="none" points="54,84 54,85" vector-effect="none"/></g><defs><clipPath id="clip49"><path d="M35,53 L80,53 L80,97 L35,97 L35,53 z"/></clipPath></defs><g clip-path="url(#clip49)" fill="none" opacity="1" stroke="#000000" stroke-linecap="butt" stroke-linejoin="miter" stroke-miterlimit="2" stroke-opacity="1" stroke-width="0.27" transform="matrix(3.7037,0,0,3.7037,-120.37,-187.037)"><polyline fill="none" points="54,85 55,86" vector-effect="none"/></g><defs><clipPath id="clip50"><path d="M35,53 L80,53 L80,97 L35,97 L35,53 z"/></clipPath></defs><g clip-path="url(#clip50)" fill="none" opacity="1" stroke="#000000" stroke-linecap="butt" stroke-linejoin="miter" stroke-miterlimit="2" stroke-opacity="1" stroke-width="0.27" transform="matrix(3.7037,0,0,3.7037,-120.37,-187.037)"><polyline fill="none" points="55,86 56,86" vector-effect="none"/></g><defs><clipPath id="clip51"><path d="M35,53 L80,53 L80,97 L35,97 L35,53 z"/></clipPath></defs><g clip-path="url(#clip51)" fill="none" opacity="1" stroke="#000000" stroke-linecap="butt" stroke-linejoin="miter" stroke-miterlimit="2" stroke-opacity="1" stroke-width="0.27" transform="matrix(3.7037,0,0,3.7037,-120.37,-187.037)"><polyline fill="none" points="56,86 57,86" vector-effect="none"/></g><defs><clipPath id="clip52"><path d="M35,53 L80,53 L80,97 L35,97 L35,53 z"/></clipPath></defs><g clip-path="url(#clip52)" fill="none" opacity="1" stroke="#000000" stroke-linecap="butt" stroke-linejoin="miter" stroke-miterlimit="2" stroke-opacity="1" stroke-width="0.27" transform="matrix(3.7037,0,0,3.7037,-120.37,-187.037)"><polyline fill="none" points="57,86 57,85" vector-effect="none"/></g><defs><clipPath id="clip53"><path d="M35,53 L80,53 L80,97 L35,97 L35,53 z"/></clipPath></defs><g clip-path="url(#clip53)" fill="none" opacity="1" stroke="#000000" stroke-linecap="butt" stroke-linejoin="miter" stroke-miterlimit="2" stroke-opacity="1" stroke-width="0.27" transform="matrix(3.7037,0,0,3.7037,-120.37,-187.037)"><polyline fill="none" points="57,85 58,85" vector-effect="none"/></g><defs><clipPath id="clip54"><path d="M35,53 L80,53 L80,97 L35,97 L35,53 z"/></clipPath></defs><g clip-path="url(#clip54)" fill="none" opacity="1" stroke="#000000" stroke-linecap="butt" stroke-linejoin="miter" stroke-miterlimit="2" stroke-opacity="1" stroke-width="0.27" transform="matrix(3.7037,0,0,3.7037,-120.37,-187.037)"><polyline fill="none" points="71,75 71,74" vector-effect="none"/></g><defs><clipPath id="clip55"><path d="M35,53 L80,53 L80,97 L35,97 L35,53 z"/></clipPath></defs><g clip-path="url(#clip55)" fill="none" opacity="1" stroke="#000000" stroke-linecap="butt" stroke-linejoin="miter" stroke-miterlimit="2" stroke-opacity="1" stroke-width="0.27" transform="matrix(3.7037,0,0,3.7037,-120.37,-187.037)"><polyline fill="none" points="71,74 70,73" vector-effect="none"/></g><defs><clipPath id="clip56"><path d="M35,53 L80,53 L80,97 L35,97 L35,53 z"/></clipPath></defs><g clip-path="url(#clip56)" fill="none" opacity="1" stroke="#000000" stroke-linecap="butt" stroke-linejoin="miter" stroke-miterlimit="2" stroke-opacity="1" stroke-width="0.27" transform="matrix(3.7037,0,0,3.7037,-120.37,-187.037)"><polyline fill="none" points="70,73 69,73" vector-effect="none"/></g><defs><clipPath id="clip57"><path d="M35,53 L80,53 L80,97 L35,97 L35,53 z"/></clipPath></defs><g clip-path="url(#clip57)" fill="none" opacity="1" stroke="#000000" stroke-linecap="butt" stroke-linejoin="miter" stroke-miterlimit="2" stroke-opacity="1" stroke-width="0.27" transform="matrix(3.7037,0,0,3.7037,-120.37,-187.037)"><polyline fill="none" points="69,73 68,73" vector-effect="none"/></g><defs><clipPath id="clip58"><path d="M35,53 L80,53 L80,97 L35,97 L35,53 z"/></clipPath></defs><g clip-path="url(#clip58)" fill="none" opacity="1" stroke="#000000" stroke-linecap="butt" stroke-linejoin="miter" stroke-miterlimit="2" stroke-opacity="1" stroke-width="0.27" transform="matrix(3.7037,0,0,3.7037,-120.37,-187.037)"><polyline fill="none" points="68,73 68,74" vector-effect="none"/></g><defs><clipPath id="clip59"><path d="M35,53 L80,53 L80,97 L35,97 L35,53 z"/></clipPath></defs><g clip-path="url(#clip59)" fill="none" opacity="1" stroke="#000000" stroke-linecap="butt" stroke-linejoin="miter" stroke-miterlimit="2" stroke-opacity="1" stroke-width="0.27" transform="matrix(3.7037,0,0,3.7037,-120.37,-187.037)"><polyline fill="none" points="68,74 67,75" vector-effect="none"/></g><defs><clipPath id="clip60"><path d="M35,53 L80,53 L80,97 L35,97 L35,53 z"/></clipPath></defs><g clip-path="url(#clip60)" fill="none" opacity="1" stroke="#000000" stroke-linecap="butt" stroke-linejoin="miter" stroke-miterlimit="2" stroke-opacity="1" stroke-width="0.27" transform="matrix(3.7037,0,0,3.7037,-120.37,-187.037)"><polyline fill="none" points="67,75 68,76" vector-effect="none"/></g><defs><clipPath id="clip61"><path d="M35,53 L80,53 L80,97 L35,97 L35,53 z"/></clipPath></defs><g clip-path="url(#clip61)" fill="none" opacity="1" stroke="#000000" stroke-linecap="butt" stroke-linejoin="miter" stroke-miterlimit="2" stroke-opacity="1" stroke-width="0.27" transform="matrix(3.7037,0,0,3.7037,-120.37,-187.037)"><polyline fill="none" points="68,76 68,77" vector-effect="none"/></g><defs><clipPath id="clip62"><path d="M35,53 L80,53 L80,97 L35,97 L35,53 z"/></clipPath></defs><g clip-path="url(#clip62)" fill="none" opacity="1" stroke="#000000" stroke-linecap="butt" stroke-linejoin="miter" stroke-miterlimit="2" stroke-opacity="1" stroke-width="0.27" transform="matrix(3.7037,0,0,3.7037,-120.37,-187.037)"><polyline fill="none" points="68,77 69,77" vector-effect="none"/></g><defs><clipPath id="clip63"><path d="M35,53 L80,53 L80,97 L35,97 L35,53 z"/></clipPath></defs><g clip-path="url(#clip63)" fill="none" opacity="1" stroke="#000000" stroke-linecap="butt" stroke-linejoin="miter" stroke-miterlimit="2" stroke-opacity="1" stroke-width="0.27" transform="matrix(3.7037,0,0,3.7037,-120.37,-187.037)"><polyline fill="none" points="69,77 70,77" vector-effect="none"/></g><defs><clipPath id="clip64"><path d="M35,53 L80,53 L80,97 L35,97 L35,53 z"/></clipPath></defs><g clip-path="url(#clip64)" fill="none" opacity="1" stroke="#000000" stroke-linecap="butt" stroke-linejoin="miter" stroke-miterlimit="2" stroke-opacity="1" stroke-width="0.27" transform="matrix(3.7037,0,0,3.7037,-120.37,-187.037)"><polyline fill="none" points="70,77 71,76" vector-effect="none"/></g><defs><clipPath id="clip65"><path d="M35,53 L80,53 L80,97 L35,97 L35,53 z"/></clipPath></defs><g clip-path="url(#clip65)" fill="none" opacity="1" stroke="#000000" stroke-linecap="butt" stroke-linejoin="miter" stroke-miterlimit="2" stroke-opacity="1" stroke-width="0.27" transform="matrix(3.7037,0,0,3.7037,-120.37,-187.037)"><polyline fill="none" points="71,76 71,75" vector-effect="none"/></g><defs><clipPath id="clip67"><path d="M-225,-215 L5,-215 L5,10 L-225,10 L-225,-215 z"/></clipPath></defs><g clip-path="url(#clip67)" fill="none" opacity="1" stroke="#000000" stroke-linecap="butt" stroke-linejoin="miter" stroke-miterlimit="2" stroke-opacity="1" stroke-width="0.27" transform="matrix(0.72338,0,0,0.72338,170.37,162.963)"><text fill="#000000" fill-opacity="1" font-family="Liberation Sans" font-size="40" font-style="normal" font-weight="400" stroke="none" textLength="22" x="-28.4531" xml:space="preserve" y="1.28125">8</text></g><defs><clipPath id="clip73"><path d="M-2,-2 L52,-2 L52,46 L-2,46 L-2,-2 z"/></clipPath></defs><g clip-path="url(#clip73)" fill="none" opacity="1" stroke="#000000" stroke-linecap="butt" stroke-linejoin="miter" stroke-miterlimit="2" stroke-opacity="1" stroke-width="0.592305" transform="matrix(3.7037,0,0,3.7037,7.40741,7.40741)"><path d="M0,0 L45,0 L45,44 L0,44 L0,0 z" fill-rule="evenodd" vector-effect="none"/></g></g></svg>
