<?xml version="1.0" encoding="UTF-8"?><svg width="52.9167mm" height="42.8625mm" viewBox="0 0 200 162" xmlns="http://www.w3.org/2000/svg" xmlns:xlink="http://www.w3.org/1999/xlink"><g fill="none" stroke="black" stroke-width="1" fill-rule="evenodd" stroke-linecap="square" stroke-linejoin="bevel"><g clip-path="none" fill="none" opacity="1" stroke="none" stroke-opacity="0" transform="matrix(1,0,0,1,0,0)"><path d="M0,0 L200,0 L200,162 L0,162 L0,0 z" fill-rule="evenodd" vector-effect="none"/></g><defs><clipPath id="clip3"><path d="M-52,-24 L7,-24 L7,24 L-52,24 L-52,-24 z"/></clipPath></defs><g clip-path="url(#clip3)" fill="none" opacity="1" stroke="#000000" stroke-linecap="round" stroke-linejoin="miter" stroke-miterlimit="2" stroke-opacity="1" stroke-width="2" transform="matrix(3.38983,0,0,3.38983,176.271,81.3559)"><path d="M0,-5 L5,0 L0,5" fill-rule="evenodd" vector-effect="none"/></g><defs><clipPath id="clip6"><path d="M7,34 L-52,34 L-52,-14 L7,-14 L7,34 z"/></clipPath></defs><g clip-path="url(#clip6)" fill="none" opacity="1" stroke="#000000" stroke-linecap="round" stroke-linejoin="miter" stroke-miterlimit="2" stroke-opacity="1" stroke-width="2" transform="matrix(-3.38983,0,0,-3.38983,23.7288,115.254)"><path d="M5,-5 L0,0 L5,5" fill-rule="evenodd" vector-effect="none"/></g><defs><clipPath id="clip9"><path d="M7,14 L-52,14 L-52,-34 L7,-34 L7,14 z"/></clipPath></defs><g clip-path="url(#clip9)" fill="none" opacity="1" stroke="#000000" stroke-linecap="round" stroke-linejoin="miter" stroke-miterlimit="2" stroke-opacity="1" stroke-width="2" transform="matrix(-3.38983,0,0,-3.38983,23.7288,47.4576)"><path d="M5,-5 L0,0 L5,5" fill-rule="evenodd" vector-effect="none"/></g><defs><clipPath id="clip12"><path d="M-7,-2 L52,-2 L52,46 L-7,46 L-7,-2 z"/></clipPath></defs><g clip-path="url(#clip12)" fill="#ffffff" fill-opacity="1" opacity="1" stroke="none" stroke-opacity="0" transform="matrix(3.38983,0,0,3.38983,23.7288,6.77966)"><path d="M0,0 L45,0 L45,44 L0,44 L0,0 z" fill-rule="evenodd" vector-effect="none"/></g><defs><clipPath id="clip19"><path d="M145,53 L190,53 L190,97 L145,97 L145,53 z"/></clipPath></defs><g clip-path="url(#clip19)" fill="none" opacity="1" stroke="#000000" stroke-linecap="butt" stroke-linejoin="miter" stroke-miterlimit="2" stroke-opacity="1" stroke-width="0.295" transform="matrix(3.38983,0,0,3.38983,-466.102,-171.186)"><polyline fill="none" points="181,75 187,75" vector-effect="none"/></g><defs><clipPath id="clip20"><path d="M145,53 L190,53 L190,97 L145,97 L145,53 z"/></clipPath></defs><g clip-path="url(#clip20)" fill="none" opacity="1" stroke="#000000" stroke-linecap="butt" stroke-linejoin="miter" stroke-miterlimit="2" stroke-opacity="1" stroke-width="0.295" transform="matrix(3.38983,0,0,3.38983,-466.102,-171.186)"><polyline fill="none" points="148,66 164,66" vector-effect="none"/></g><defs><clipPath id="clip21"><path d="M145,53 L190,53 L190,97 L145,97 L145,53 z"/></clipPath></defs><g clip-path="url(#clip21)" fill="none" opacity="1" stroke="#000000" stroke-linecap="butt" stroke-linejoin="miter" stroke-miterlimit="2" stroke-opacity="1" stroke-width="0.295" transform="matrix(3.38983,0,0,3.38983,-466.102,-171.186)"><polyline fill="none" points="148,85 164,85" vector-effect="none"/></g><defs><clipPath id="clip22"><path d="M145,53 L190,53 L190,97 L145,97 L145,53 z"/></clipPath></defs><g clip-path="url(#clip22)" fill="none" opacity="1" stroke="#000000" stroke-linecap="butt" stroke-linejoin="miter" stroke-miterlimit="2" stroke-opacity="1" stroke-width="0.295" transform="matrix(3.38983,0,0,3.38983,-466.102,-171.186)"><polyline fill="none" points="177,75 168,67" vector-effect="none"/></g><defs><clipPath id="clip23"><path d="M145,53 L190,53 L190,97 L145,97 L145,53 z"/></clipPath></defs><g clip-path="url(#clip23)" fill="none" opacity="1" stroke="#000000" stroke-linecap="butt" stroke-linejoin="miter" stroke-miterlimit="2" stroke-opacity="1" stroke-width="0.295" transform="matrix(3.38983,0,0,3.38983,-466.102,-171.186)"><polyline fill="none" points="171,67 168,67" vector-effect="none"/></g><defs><clipPath id="clip24"><path d="M145,53 L190,53 L190,97 L145,97 L145,53 z"/></clipPath></defs><g clip-path="url(#clip24)" fill="none" opacity="1" stroke="#000000" stroke-linecap="butt" stroke-linejoin="miter" stroke-miterlimit="2" stroke-opacity="1" stroke-width="0.295" transform="matrix(3.38983,0,0,3.38983,-466.102,-171.186)"><polyline fill="none" points="168,67 169,71" vector-effect="none"/></g><defs><clipPath id="clip25"><path d="M145,53 L190,53 L190,97 L145,97 L145,53 z"/></clipPath></defs><g clip-path="url(#clip25)" fill="none" opacity="1" stroke="#000000" stroke-linecap="butt" stroke-linejoin="miter" stroke-miterlimit="2" stroke-opacity="1" stroke-width="0.295" transform="matrix(3.38983,0,0,3.38983,-466.102,-171.186)"><polyline fill="none" points="179,68 176,69" vector-effect="none"/></g><defs><clipPath id="clip26"><path d="M145,53 L190,53 L190,97 L145,97 L145,53 z"/></clipPath></defs><g clip-path="url(#clip26)" fill="none" opacity="1" stroke="#000000" stroke-linecap="butt" stroke-linejoin="miter" stroke-miterlimit="2" stroke-opacity="1" stroke-width="0.295" transform="matrix(3.38983,0,0,3.38983,-466.102,-171.186)"><polyline fill="none" points="176,69 173,72" vector-effect="none"/></g><defs><clipPath id="clip27"><path d="M145,53 L190,53 L190,97 L145,97 L145,53 z"/></clipPath></defs><g clip-path="url(#clip27)" fill="none" opacity="1" stroke="#000000" stroke-linecap="butt" stroke-linejoin="miter" stroke-miterlimit="2" stroke-opacity="1" stroke-width="0.295" transform="matrix(3.38983,0,0,3.38983,-466.102,-171.186)"><polyline fill="none" points="173,72 172,75" vector-effect="none"/></g><defs><clipPath id="clip28"><path d="M145,53 L190,53 L190,97 L145,97 L145,53 z"/></clipPath></defs><g clip-path="url(#clip28)" fill="none" opacity="1" stroke="#000000" stroke-linecap="butt" stroke-linejoin="miter" stroke-miterlimit="2" stroke-opacity="1" stroke-width="0.295" transform="matrix(3.38983,0,0,3.38983,-466.102,-171.186)"><polyline fill="none" points="172,75 173,78" vector-effect="none"/></g><defs><clipPath id="clip29"><path d="M145,53 L190,53 L190,97 L145,97 L145,53 z"/></clipPath></defs><g clip-path="url(#clip29)" fill="none" opacity="1" stroke="#000000" stroke-linecap="butt" stroke-linejoin="miter" stroke-miterlimit="2" stroke-opacity="1" stroke-width="0.295" transform="matrix(3.38983,0,0,3.38983,-466.102,-171.186)"><polyline fill="none" points="173,78 176,81" vector-effect="none"/></g><defs><clipPath id="clip30"><path d="M145,53 L190,53 L190,97 L145,97 L145,53 z"/></clipPath></defs><g clip-path="url(#clip30)" fill="none" opacity="1" stroke="#000000" stroke-linecap="butt" stroke-linejoin="miter" stroke-miterlimit="2" stroke-opacity="1" stroke-width="0.295" transform="matrix(3.38983,0,0,3.38983,-466.102,-171.186)"><polyline fill="none" points="176,81 172,79" vector-effect="none"/></g><defs><clipPath id="clip31"><path d="M145,53 L190,53 L190,97 L145,97 L145,53 z"/></clipPath></defs><g clip-path="url(#clip31)" fill="none" opacity="1" stroke="#000000" stroke-linecap="butt" stroke-linejoin="miter" stroke-miterlimit="2" stroke-opacity="1" stroke-width="0.295" transform="matrix(3.38983,0,0,3.38983,-466.102,-171.186)"><polyline fill="none" points="172,79 176,81" vector-effect="none"/></g><defs><clipPath id="clip32"><path d="M145,53 L190,53 L190,97 L145,97 L145,53 z"/></clipPath></defs><g clip-path="url(#clip32)" fill="none" opacity="1" stroke="#000000" stroke-linecap="butt" stroke-linejoin="miter" stroke-miterlimit="2" stroke-opacity="1" stroke-width="0.295" transform="matrix(3.38983,0,0,3.38983,-466.102,-171.186)"><polyline fill="none" points="176,81 174,77" vector-effect="none"/></g><defs><clipPath id="clip33"><path d="M145,53 L190,53 L190,97 L145,97 L145,53 z"/></clipPath></defs><g clip-path="url(#clip33)" fill="none" opacity="1" stroke="#000000" stroke-linecap="butt" stroke-linejoin="miter" stroke-miterlimit="2" stroke-opacity="1" stroke-width="0.295" transform="matrix(3.38983,0,0,3.38983,-466.102,-171.186)"><polyline fill="none" points="168,66 167,65" vector-effect="none"/></g><defs><clipPath id="clip34"><path d="M145,53 L190,53 L190,97 L145,97 L145,53 z"/></clipPath></defs><g clip-path="url(#clip34)" fill="none" opacity="1" stroke="#000000" stroke-linecap="butt" stroke-linejoin="miter" stroke-miterlimit="2" stroke-opacity="1" stroke-width="0.295" transform="matrix(3.38983,0,0,3.38983,-466.102,-171.186)"><polyline fill="none" points="167,65 167,64" vector-effect="none"/></g><defs><clipPath id="clip35"><path d="M145,53 L190,53 L190,97 L145,97 L145,53 z"/></clipPath></defs><g clip-path="url(#clip35)" fill="none" opacity="1" stroke="#000000" stroke-linecap="butt" stroke-linejoin="miter" stroke-miterlimit="2" stroke-opacity="1" stroke-width="0.295" transform="matrix(3.38983,0,0,3.38983,-466.102,-171.186)"><polyline fill="none" points="167,64 166,64" vector-effect="none"/></g><defs><clipPath id="clip36"><path d="M145,53 L190,53 L190,97 L145,97 L145,53 z"/></clipPath></defs><g clip-path="url(#clip36)" fill="none" opacity="1" stroke="#000000" stroke-linecap="butt" stroke-linejoin="miter" stroke-miterlimit="2" stroke-opacity="1" stroke-width="0.295" transform="matrix(3.38983,0,0,3.38983,-466.102,-171.186)"><polyline fill="none" points="166,64 165,64" vector-effect="none"/></g><defs><clipPath id="clip37"><path d="M145,53 L190,53 L190,97 L145,97 L145,53 z"/></clipPath></defs><g clip-path="url(#clip37)" fill="none" opacity="1" stroke="#000000" stroke-linecap="butt" stroke-linejoin="miter" stroke-miterlimit="2" stroke-opacity="1" stroke-width="0.295" transform="matrix(3.38983,0,0,3.38983,-466.102,-171.186)"><polyline fill="none" points="165,64 164,65" vector-effect="none"/></g><defs><clipPath id="clip38"><path d="M145,53 L190,53 L190,97 L145,97 L145,53 z"/></clipPath></defs><g clip-path="url(#clip38)" fill="none" opacity="1" stroke="#000000" stroke-linecap="butt" stroke-linejoin="miter" stroke-miterlimit="2" stroke-opacity="1" stroke-width="0.295" transform="matrix(3.38983,0,0,3.38983,-466.102,-171.186)"><polyline fill="none" points="164,65 164,66" vector-effect="none"/></g><defs><clipPath id="clip39"><path d="M145,53 L190,53 L190,97 L145,97 L145,53 z"/></clipPath></defs><g clip-path="url(#clip39)" fill="none" opacity="1" stroke="#000000" stroke-linecap="butt" stroke-linejoin="miter" stroke-miterlimit="2" stroke-opacity="1" stroke-width="0.295" transform="matrix(3.38983,0,0,3.38983,-466.102,-171.186)"><polyline fill="none" points="164,66 165,67" vector-effect="none"/></g><defs><clipPath id="clip40"><path d="M145,53 L190,53 L190,97 L145,97 L145,53 z"/></clipPath></defs><g clip-path="url(#clip40)" fill="none" opacity="1" stroke="#000000" stroke-linecap="butt" stroke-linejoin="miter" stroke-miterlimit="2" stroke-opacity="1" stroke-width="0.295" transform="matrix(3.38983,0,0,3.38983,-466.102,-171.186)"><polyline fill="none" points="165,67 166,67" vector-effect="none"/></g><defs><clipPath id="clip41"><path d="M145,53 L190,53 L190,97 L145,97 L145,53 z"/></clipPath></defs><g clip-path="url(#clip41)" fill="none" opacity="1" stroke="#000000" stroke-linecap="butt" stroke-linejoin="miter" stroke-miterlimit="2" stroke-opacity="1" stroke-width="0.295" transform="matrix(3.38983,0,0,3.38983,-466.102,-171.186)"><polyline fill="none" points="166,67 167,67" vector-effect="none"/></g><defs><clipPath id="clip42"><path d="M145,53 L190,53 L190,97 L145,97 L145,53 z"/></clipPath></defs><g clip-path="url(#clip42)" fill="none" opacity="1" stroke="#000000" stroke-linecap="butt" stroke-linejoin="miter" stroke-miterlimit="2" stroke-opacity="1" stroke-width="0.295" transform="matrix(3.38983,0,0,3.38983,-466.102,-171.186)"><polyline fill="none" points="167,67 167,66" vector-effect="none"/></g><defs><clipPath id="clip43"><path d="M145,53 L190,53 L190,97 L145,97 L145,53 z"/></clipPath></defs><g clip-path="url(#clip43)" fill="none" opacity="1" stroke="#000000" stroke-linecap="butt" stroke-linejoin="miter" stroke-miterlimit="2" stroke-opacity="1" stroke-width="0.295" transform="matrix(3.38983,0,0,3.38983,-466.102,-171.186)"><polyline fill="none" points="167,66 168,66" vector-effect="none"/></g><defs><clipPath id="clip44"><path d="M145,53 L190,53 L190,97 L145,97 L145,53 z"/></clipPath></defs><g clip-path="url(#clip44)" fill="none" opacity="1" stroke="#000000" stroke-linecap="butt" stroke-linejoin="miter" stroke-miterlimit="2" stroke-opacity="1" stroke-width="0.295" transform="matrix(3.38983,0,0,3.38983,-466.102,-171.186)"><polyline fill="none" points="168,85 167,84" vector-effect="none"/></g><defs><clipPath id="clip45"><path d="M145,53 L190,53 L190,97 L145,97 L145,53 z"/></clipPath></defs><g clip-path="url(#clip45)" fill="none" opacity="1" stroke="#000000" stroke-linecap="butt" stroke-linejoin="miter" stroke-miterlimit="2" stroke-opacity="1" stroke-width="0.295" transform="matrix(3.38983,0,0,3.38983,-466.102,-171.186)"><polyline fill="none" points="167,84 167,83" vector-effect="none"/></g><defs><clipPath id="clip46"><path d="M145,53 L190,53 L190,97 L145,97 L145,53 z"/></clipPath></defs><g clip-path="url(#clip46)" fill="none" opacity="1" stroke="#000000" stroke-linecap="butt" stroke-linejoin="miter" stroke-miterlimit="2" stroke-opacity="1" stroke-width="0.295" transform="matrix(3.38983,0,0,3.38983,-466.102,-171.186)"><polyline fill="none" points="167,83 166,83" vector-effect="none"/></g><defs><clipPath id="clip47"><path d="M145,53 L190,53 L190,97 L145,97 L145,53 z"/></clipPath></defs><g clip-path="url(#clip47)" fill="none" opacity="1" stroke="#000000" stroke-linecap="butt" stroke-linejoin="miter" stroke-miterlimit="2" stroke-opacity="1" stroke-width="0.295" transform="matrix(3.38983,0,0,3.38983,-466.102,-171.186)"><polyline fill="none" points="166,83 165,83" vector-effect="none"/></g><defs><clipPath id="clip48"><path d="M145,53 L190,53 L190,97 L145,97 L145,53 z"/></clipPath></defs><g clip-path="url(#clip48)" fill="none" opacity="1" stroke="#000000" stroke-linecap="butt" stroke-linejoin="miter" stroke-miterlimit="2" stroke-opacity="1" stroke-width="0.295" transform="matrix(3.38983,0,0,3.38983,-466.102,-171.186)"><polyline fill="none" points="165,83 164,84" vector-effect="none"/></g><defs><clipPath id="clip49"><path d="M145,53 L190,53 L190,97 L145,97 L145,53 z"/></clipPath></defs><g clip-path="url(#clip49)" fill="none" opacity="1" stroke="#000000" stroke-linecap="butt" stroke-linejoin="miter" stroke-miterlimit="2" stroke-opacity="1" stroke-width="0.295" transform="matrix(3.38983,0,0,3.38983,-466.102,-171.186)"><polyline fill="none" points="164,84 164,85" vector-effect="none"/></g><defs><clipPath id="clip50"><path d="M145,53 L190,53 L190,97 L145,97 L145,53 z"/></clipPath></defs><g clip-path="url(#clip50)" fill="none" opacity="1" stroke="#000000" stroke-linecap="butt" stroke-linejoin="miter" stroke-miterlimit="2" stroke-opacity="1" stroke-width="0.295" transform="matrix(3.38983,0,0,3.38983,-466.102,-171.186)"><polyline fill="none" points="164,85 165,86" vector-effect="none"/></g><defs><clipPath id="clip51"><path d="M145,53 L190,53 L190,97 L145,97 L145,53 z"/></clipPath></defs><g clip-path="url(#clip51)" fill="none" opacity="1" stroke="#000000" stroke-linecap="butt" stroke-linejoin="miter" stroke-miterlimit="2" stroke-opacity="1" stroke-width="0.295" transform="matrix(3.38983,0,0,3.38983,-466.102,-171.186)"><polyline fill="none" points="165,86 166,86" vector-effect="none"/></g><defs><clipPath id="clip52"><path d="M145,53 L190,53 L190,97 L145,97 L145,53 z"/></clipPath></defs><g clip-path="url(#clip52)" fill="none" opacity="1" stroke="#000000" stroke-linecap="butt" stroke-linejoin="miter" stroke-miterlimit="2" stroke-opacity="1" stroke-width="0.295" transform="matrix(3.38983,0,0,3.38983,-466.102,-171.186)"><polyline fill="none" points="166,86 167,86" vector-effect="none"/></g><defs><clipPath id="clip53"><path d="M145,53 L190,53 L190,97 L145,97 L145,53 z"/></clipPath></defs><g clip-path="url(#clip53)" fill="none" opacity="1" stroke="#000000" stroke-linecap="butt" stroke-linejoin="miter" stroke-miterlimit="2" stroke-opacity="1" stroke-width="0.295" transform="matrix(3.38983,0,0,3.38983,-466.102,-171.186)"><polyline fill="none" points="167,86 167,85" vector-effect="none"/></g><defs><clipPath id="clip54"><path d="M145,53 L190,53 L190,97 L145,97 L145,53 z"/></clipPath></defs><g clip-path="url(#clip54)" fill="none" opacity="1" stroke="#000000" stroke-linecap="butt" stroke-linejoin="miter" stroke-miterlimit="2" stroke-opacity="1" stroke-width="0.295" transform="matrix(3.38983,0,0,3.38983,-466.102,-171.186)"><polyline fill="none" points="167,85 168,85" vector-effect="none"/></g><defs><clipPath id="clip55"><path d="M145,53 L190,53 L190,97 L145,97 L145,53 z"/></clipPath></defs><g clip-path="url(#clip55)" fill="none" opacity="1" stroke="#000000" stroke-linecap="butt" stroke-linejoin="miter" stroke-miterlimit="2" stroke-opacity="1" stroke-width="0.295" transform="matrix(3.38983,0,0,3.38983,-466.102,-171.186)"><polyline fill="none" points="181,75 181,74" vector-effect="none"/></g><defs><clipPath id="clip56"><path d="M145,53 L190,53 L190,97 L145,97 L145,53 z"/></clipPath></defs><g clip-path="url(#clip56)" fill="none" opacity="1" stroke="#000000" stroke-linecap="butt" stroke-linejoin="miter" stroke-miterlimit="2" stroke-opacity="1" stroke-width="0.295" transform="matrix(3.38983,0,0,3.38983,-466.102,-171.186)"><polyline fill="none" points="181,74 180,73" vector-effect="none"/></g><defs><clipPath id="clip57"><path d="M145,53 L190,53 L190,97 L145,97 L145,53 z"/></clipPath></defs><g clip-path="url(#clip57)" fill="none" opacity="1" stroke="#000000" stroke-linecap="butt" stroke-linejoin="miter" stroke-miterlimit="2" stroke-opacity="1" stroke-width="0.295" transform="matrix(3.38983,0,0,3.38983,-466.102,-171.186)"><polyline fill="none" points="180,73 179,73" vector-effect="none"/></g><defs><clipPath id="clip58"><path d="M145,53 L190,53 L190,97 L145,97 L145,53 z"/></clipPath></defs><g clip-path="url(#clip58)" fill="none" opacity="1" stroke="#000000" stroke-linecap="butt" stroke-linejoin="miter" stroke-miterlimit="2" stroke-opacity="1" stroke-width="0.295" transform="matrix(3.38983,0,0,3.38983,-466.102,-171.186)"><polyline fill="none" points="179,73 178,73" vector-effect="none"/></g><defs><clipPath id="clip59"><path d="M145,53 L190,53 L190,97 L145,97 L145,53 z"/></clipPath></defs><g clip-path="url(#clip59)" fill="none" opacity="1" stroke="#000000" stroke-linecap="butt" stroke-linejoin="miter" stroke-miterlimit="2" stroke-opacity="1" stroke-width="0.295" transform="matrix(3.38983,0,0,3.38983,-466.102,-171.186)"><polyline fill="none" points="178,73 178,74" vector-effect="none"/></g><defs><clipPath id="clip60"><path d="M145,53 L190,53 L190,97 L145,97 L145,53 z"/></clipPath></defs><g clip-path="url(#clip60)" fill="none" opacity="1" stroke="#000000" stroke-linecap="butt" stroke-linejoin="miter" stroke-miterlimit="2" stroke-opacity="1" stroke-width="0.295" transform="matrix(3.38983,0,0,3.38983,-466.102,-171.186)"><polyline fill="none" points="178,74 177,75" vector-effect="none"/></g><defs><clipPath id="clip61"><path d="M145,53 L190,53 L190,97 L145,97 L145,53 z"/></clipPath></defs><g clip-path="url(#clip61)" fill="none" opacity="1" stroke="#000000" stroke-linecap="butt" stroke-linejoin="miter" stroke-miterlimit="2" stroke-opacity="1" stroke-width="0.295" transform="matrix(3.38983,0,0,3.38983,-466.102,-171.186)"><polyline fill="none" points="177,75 178,76" vector-effect="none"/></g><defs><clipPath id="clip62"><path d="M145,53 L190,53 L190,97 L145,97 L145,53 z"/></clipPath></defs><g clip-path="url(#clip62)" fill="none" opacity="1" stroke="#000000" stroke-linecap="butt" stroke-linejoin="miter" stroke-miterlimit="2" stroke-opacity="1" stroke-width="0.295" transform="matrix(3.38983,0,0,3.38983,-466.102,-171.186)"><polyline fill="none" points="178,76 178,77" vector-effect="none"/></g><defs><clipPath id="clip63"><path d="M145,53 L190,53 L190,97 L145,97 L145,53 z"/></clipPath></defs><g clip-path="url(#clip63)" fill="none" opacity="1" stroke="#000000" stroke-linecap="butt" stroke-linejoin="miter" stroke-miterlimit="2" stroke-opacity="1" stroke-width="0.295" transform="matrix(3.38983,0,0,3.38983,-466.102,-171.186)"><polyline fill="none" points="178,77 179,77" vector-effect="none"/></g><defs><clipPath id="clip64"><path d="M145,53 L190,53 L190,97 L145,97 L145,53 z"/></clipPath></defs><g clip-path="url(#clip64)" fill="none" opacity="1" stroke="#000000" stroke-linecap="butt" stroke-linejoin="miter" stroke-miterlimit="2" stroke-opacity="1" stroke-width="0.295" transform="matrix(3.38983,0,0,3.38983,-466.102,-171.186)"><polyline fill="none" points="179,77 180,77" vector-effect="none"/></g><defs><clipPath id="clip65"><path d="M145,53 L190,53 L190,97 L145,97 L145,53 z"/></clipPath></defs><g clip-path="url(#clip65)" fill="none" opacity="1" stroke="#000000" stroke-linecap="butt" stroke-linejoin="miter" stroke-miterlimit="2" stroke-opacity="1" stroke-width="0.295" transform="matrix(3.38983,0,0,3.38983,-466.102,-171.186)"><polyline fill="none" points="180,77 181,76" vector-effect="none"/></g><defs><clipPath id="clip66"><path d="M145,53 L190,53 L190,97 L145,97 L145,53 z"/></clipPath></defs><g clip-path="url(#clip66)" fill="none" opacity="1" stroke="#000000" stroke-linecap="butt" stroke-linejoin="miter" stroke-miterlimit="2" stroke-opacity="1" stroke-width="0.295" transform="matrix(3.38983,0,0,3.38983,-466.102,-171.186)"><polyline fill="none" points="181,76 181,75" vector-effect="none"/></g><defs><clipPath id="clip68"><path d="M-225,-215 L5,-215 L5,10 L-225,10 L-225,-215 z"/></clipPath></defs><g clip-path="url(#clip68)" fill="none" opacity="1" stroke="#000000" stroke-linecap="butt" stroke-linejoin="miter" stroke-miterlimit="2" stroke-opacity="1" stroke-width="0.295" transform="matrix(0.662076,0,0,0.662076,172.881,149.153)"><text fill="#000000" fill-opacity="1" font-family="Liberation Sans" font-size="40" font-style="normal" font-weight="400" stroke="none" textLength="22" x="-28.4531" xml:space="preserve" y="1.28125">8</text></g><defs><clipPath id="clip74"><path d="M-7,-2 L52,-2 L52,46 L-7,46 L-7,-2 z"/></clipPath></defs><g clip-path="url(#clip74)" fill="none" opacity="1" stroke="#000000" stroke-linecap="butt" stroke-linejoin="miter" stroke-miterlimit="2" stroke-opacity="1" stroke-width="0.613661" transform="matrix(3.38983,0,0,3.38983,23.7288,6.77966)"><path d="M0,0 L45,0 L45,44 L0,44 L0,0 z" fill-rule="evenodd" vector-effect="none"/></g></g></svg>
