<?xml version="1.0" encoding="UTF-8"?><svg width="52.9167mm" height="36.2479mm" viewBox="0 0 200 137" xmlns="http://www.w3.org/2000/svg" xmlns:xlink="http://www.w3.org/1999/xlink"><g fill="none" stroke="black" stroke-width="1" fill-rule="evenodd" stroke-linecap="square" stroke-linejoin="bevel"><g clip-path="none" fill="none" opacity="1" stroke="none" stroke-opacity="0" transform="matrix(1,0,0,1,0,0)"><path d="M0,0 L200,0 L200,137 L0,137 L0,0 z" fill-rule="evenodd" vector-effect="none"/></g><defs><clipPath id="clip3"><path d="M-57,-22 L7,-22 L7,22 L-57,22 L-57,-22 z"/></clipPath></defs><g clip-path="url(#clip3)" fill="none" opacity="1" stroke="#000000" stroke-linecap="round" stroke-linejoin="miter" stroke-miterlimit="2" stroke-opacity="1" stroke-width="2" transform="matrix(3.125,0,0,3.125,178.125,68.75)"><path d="M0,-5 L5,0 L0,5" fill-rule="evenodd" vector-effect="none"/></g><defs><clipPath id="clip6"><path d="M7,22 L-57,22 L-57,-22 L7,-22 L7,22 z"/></clipPath></defs><g clip-path="url(#clip6)" fill="none" opacity="1" stroke="#000000" stroke-linecap="round" stroke-linejoin="miter" stroke-miterlimit="2" stroke-opacity="1" stroke-width="2" transform="matrix(-3.125,0,0,-3.125,21.875,68.75)"><path d="M5,-5 L0,0 L5,5" fill-rule="evenodd" vector-effect="none"/></g><defs><clipPath id="clip9"><path d="M-7,-2 L57,-2 L57,42 L-7,42 L-7,-2 z"/></clipPath></defs><g clip-path="url(#clip9)" fill="#ffffff" fill-opacity="1" opacity="1" stroke="none" stroke-opacity="0" transform="matrix(3.125,0,0,3.125,21.875,6.25)"><path d="M0,0 L50,0 L50,40 L0,40 L0,0 z" fill-rule="evenodd" vector-effect="none"/></g><defs><clipPath id="clip13"><path d="M30,140 L80,140 L80,180 L30,180 L30,140 z"/></clipPath></defs><g clip-path="url(#clip13)" fill="none" opacity="1" stroke="#000000" stroke-linecap="butt" stroke-linejoin="miter" stroke-miterlimit="2" stroke-opacity="1" stroke-width="0.32" transform="matrix(3.125,0,0,3.125,-70.3125,-429.688)"><polyline fill="none" points="37,157 42,157" vector-effect="none"/></g><defs><clipPath id="clip14"><path d="M30,140 L80,140 L80,180 L30,180 L30,140 z"/></clipPath></defs><g clip-path="url(#clip14)" fill="none" opacity="1" stroke="#000000" stroke-linecap="butt" stroke-linejoin="miter" stroke-miterlimit="2" stroke-opacity="1" stroke-width="0.32" transform="matrix(3.125,0,0,3.125,-70.3125,-429.688)"><polyline fill="none" points="42,157 42,146" vector-effect="none"/></g><defs><clipPath id="clip15"><path d="M30,140 L80,140 L80,180 L30,180 L30,140 z"/></clipPath></defs><g clip-path="url(#clip15)" fill="none" opacity="1" stroke="#000000" stroke-linecap="butt" stroke-linejoin="miter" stroke-miterlimit="2" stroke-opacity="1" stroke-width="0.32" transform="matrix(3.125,0,0,3.125,-70.3125,-429.688)"><polyline fill="none" points="42,146 55,146" vector-effect="none"/></g><defs><clipPath id="clip16"><path d="M30,140 L80,140 L80,180 L30,180 L30,140 z"/></clipPath></defs><g clip-path="url(#clip16)" fill="none" opacity="1" stroke="#000000" stroke-linecap="butt" stroke-linejoin="miter" stroke-miterlimit="2" stroke-opacity="1" stroke-width="0.32" transform="matrix(3.125,0,0,3.125,-70.3125,-429.688)"><polyline fill="none" points="55,146 55,157" vector-effect="none"/></g><defs><clipPath id="clip17"><path d="M30,140 L80,140 L80,180 L30,180 L30,140 z"/></clipPath></defs><g clip-path="url(#clip17)" fill="none" opacity="1" stroke="#000000" stroke-linecap="butt" stroke-linejoin="miter" stroke-miterlimit="2" stroke-opacity="1" stroke-width="0.32" transform="matrix(3.125,0,0,3.125,-70.3125,-429.688)"><polyline fill="none" points="55,157 64,157" vector-effect="none"/></g><defs><clipPath id="clip18"><path d="M30,140 L80,140 L80,180 L30,180 L30,140 z"/></clipPath></defs><g clip-path="url(#clip18)" fill="none" opacity="1" stroke="#000000" stroke-linecap="butt" stroke-linejoin="miter" stroke-miterlimit="2" stroke-opacity="1" stroke-width="0.32" transform="matrix(3.125,0,0,3.125,-70.3125,-429.688)"><polyline fill="none" points="64,157 64,146" vector-effect="none"/></g><defs><clipPath id="clip19"><path d="M30,140 L80,140 L80,180 L30,180 L30,140 z"/></clipPath></defs><g clip-path="url(#clip19)" fill="none" opacity="1" stroke="#000000" stroke-linecap="butt" stroke-linejoin="miter" stroke-miterlimit="2" stroke-opacity="1" stroke-width="0.32" transform="matrix(3.125,0,0,3.125,-70.3125,-429.688)"><polyline fill="none" points="64,146 68,146" vector-effect="none"/></g><defs><clipPath id="clip20"><path d="M30,140 L80,140 L80,180 L30,180 L30,140 z"/></clipPath></defs><g clip-path="url(#clip20)" fill="none" opacity="1" stroke="#000000" stroke-linecap="butt" stroke-linejoin="miter" stroke-miterlimit="2" stroke-opacity="1" stroke-width="0.32" transform="matrix(3.125,0,0,3.125,-70.3125,-429.688)"><polyline fill="none" points="68,146 68,157" vector-effect="none"/></g><defs><clipPath id="clip21"><path d="M30,140 L80,140 L80,180 L30,180 L30,140 z"/></clipPath></defs><g clip-path="url(#clip21)" fill="none" opacity="1" stroke="#000000" stroke-linecap="butt" stroke-linejoin="miter" stroke-miterlimit="2" stroke-opacity="1" stroke-width="0.32" transform="matrix(3.125,0,0,3.125,-70.3125,-429.688)"><polyline fill="none" points="68,157 73,157" vector-effect="none"/></g><defs><clipPath id="clip22"><path d="M30,140 L80,140 L80,180 L30,180 L30,140 z"/></clipPath></defs><g clip-path="url(#clip22)" fill="none" opacity="1" stroke="#000000" stroke-linecap="butt" stroke-linejoin="miter" stroke-miterlimit="2" stroke-opacity="1" stroke-width="0.32" transform="matrix(3.125,0,0,3.125,-70.3125,-429.688)"><polyline fill="none" points="37,174 73,174" vector-effect="none"/></g><defs><clipPath id="clip23"><path d="M30,140 L80,140 L80,180 L30,180 L30,140 z"/></clipPath></defs><g clip-path="url(#clip23)" fill="none" opacity="1" stroke="#000000" stroke-linecap="butt" stroke-linejoin="miter" stroke-miterlimit="2" stroke-opacity="1" stroke-width="0.32" transform="matrix(3.125,0,0,3.125,-70.3125,-429.688)"><polyline fill="none" points="42,174 42,160" vector-effect="none"/></g><defs><clipPath id="clip24"><path d="M30,140 L80,140 L80,180 L30,180 L30,140 z"/></clipPath></defs><g clip-path="url(#clip24)" fill="none" opacity="1" stroke="#000000" stroke-linecap="butt" stroke-linejoin="miter" stroke-miterlimit="2" stroke-opacity="1" stroke-width="0.32" transform="matrix(3.125,0,0,3.125,-70.3125,-429.688)"><polyline fill="none" points="64,174 64,160" vector-effect="none"/></g><defs><clipPath id="clip29"><path d="M-7,-2 L57,-2 L57,42 L-7,42 L-7,-2 z"/></clipPath></defs><g clip-path="url(#clip29)" fill="none" opacity="1" stroke="#000000" stroke-linecap="butt" stroke-linejoin="miter" stroke-miterlimit="2" stroke-opacity="1" stroke-width="0.633957" transform="matrix(3.125,0,0,3.125,21.875,6.25)"><path d="M0,0 L50,0 L50,40 L0,40 L0,0 z" fill-rule="evenodd" vector-effect="none"/></g></g></svg>
