<?xml version="1.0" encoding="UTF-8"?><svg width="52.9167mm" height="24.3417mm" viewBox="0 0 200 92" xmlns="http://www.w3.org/2000/svg" xmlns:xlink="http://www.w3.org/1999/xlink"><g fill="none" stroke="black" stroke-width="1" fill-rule="evenodd" stroke-linecap="square" stroke-linejoin="bevel"><g clip-path="none" fill="none" opacity="1" stroke="none" stroke-opacity="0" transform="matrix(1,0,0,1,0,0)"><path d="M0,0 L200,0 L200,92 L0,92 L0,0 z" fill-rule="evenodd" vector-effect="none"/></g><defs><clipPath id="clip3"><path d="M-92,-23 L7,-23 L7,23 L-92,23 L-92,-23 z"/></clipPath></defs><g clip-path="url(#clip3)" fill="none" opacity="1" stroke="#000000" stroke-linecap="round" stroke-linejoin="miter" stroke-miterlimit="2" stroke-opacity="1" stroke-width="2" transform="matrix(2.0202,0,0,2.0202,185.859,46.4646)"><path d="M0,-5 L5,0 L0,5" fill-rule="evenodd" vector-effect="none"/></g><defs><clipPath id="clip6"><path d="M7,23 L-92,23 L-92,-23 L7,-23 L7,23 z"/></clipPath></defs><g clip-path="url(#clip6)" fill="none" opacity="1" stroke="#000000" stroke-linecap="round" stroke-linejoin="miter" stroke-miterlimit="2" stroke-opacity="1" stroke-width="2" transform="matrix(-2.0202,0,0,-2.0202,14.1414,46.4646)"><path d="M5,-5 L0,0 L5,5" fill-rule="evenodd" vector-effect="none"/></g><defs><clipPath id="clip9"><path d="M-7,-2 L92,-2 L92,44 L-7,44 L-7,-2 z"/></clipPath></defs><g clip-path="url(#clip9)" fill="#ffffff" fill-opacity="1" opacity="1" stroke="none" stroke-opacity="0" transform="matrix(2.0202,0,0,2.0202,14.1414,4.0404)"><path d="M0,0 L85,0 L85,42 L0,42 L0,0 z" fill-rule="evenodd" vector-effect="none"/></g><defs><clipPath id="clip14"><path d="M-215,-108 L220,-108 L220,107 L-215,107 L-215,-108 z"/></clipPath></defs><g clip-path="url(#clip14)" fill="none" opacity="1" stroke="#000000" stroke-linecap="butt" stroke-linejoin="miter" stroke-miterlimit="2" stroke-opacity="1" stroke-width="0.495" transform="matrix(0.394571,0,0,0.394571,98.9899,46.4646)"><text fill="#000000" fill-opacity="1" font-family="Liberation Sans" font-size="40" font-style="normal" font-weight="400" stroke="none" textLength="99" x="-65.4062" xml:space="preserve" y="17.9219">Interp</text></g><defs><clipPath id="clip20"><path d="M-7,-2 L92,-2 L92,44 L-7,44 L-7,-2 z"/></clipPath></defs><g clip-path="url(#clip20)" fill="none" opacity="1" stroke="#000000" stroke-linecap="butt" stroke-linejoin="miter" stroke-miterlimit="2" stroke-opacity="1" stroke-width="0.754818" transform="matrix(2.0202,0,0,2.0202,14.1414,4.0404)"><path d="M0,0 L85,0 L85,42 L0,42 L0,0 z" fill-rule="evenodd" vector-effect="none"/></g></g></svg>
