<?xml version="1.0" encoding="UTF-8"?><svg width="52.9167mm" height="35.7188mm" viewBox="0 0 200 135" xmlns="http://www.w3.org/2000/svg" xmlns:xlink="http://www.w3.org/1999/xlink"><g fill="none" stroke="black" stroke-width="1" fill-rule="evenodd" stroke-linecap="square" stroke-linejoin="bevel"><g clip-path="none" fill="none" opacity="1" stroke="none" stroke-opacity="0" transform="matrix(1,0,0,1,0,0)"><path d="M0,0 L200,0 L200,135 L0,135 L0,0 z" fill-rule="evenodd" vector-effect="none"/></g><defs><clipPath id="clip3"><path d="M7,20 L-52,20 L-52,-20 L7,-20 L7,20 z"/></clipPath></defs><g clip-path="url(#clip3)" fill="none" opacity="1" stroke="#000000" stroke-linecap="round" stroke-linejoin="miter" stroke-miterlimit="2" stroke-opacity="1" stroke-width="2" transform="matrix(-3.38983,0,0,-3.38983,23.7288,67.7966)"><path d="M5,-5 L0,0 L5,5" fill-rule="evenodd" vector-effect="none"/></g><defs><clipPath id="clip6"><path d="M-52,-20 L7,-20 L7,20 L-52,20 L-52,-20 z"/></clipPath></defs><g clip-path="url(#clip6)" fill="none" opacity="1" stroke="#000000" stroke-linecap="round" stroke-linejoin="miter" stroke-miterlimit="2" stroke-opacity="1" stroke-width="2" transform="matrix(3.38983,0,0,3.38983,176.271,67.7966)"><path d="M0,-5 L5,0 L0,5" fill-rule="evenodd" vector-effect="none"/></g><defs><clipPath id="clip9"><path d="M-7,-2 L52,-2 L52,38 L-7,38 L-7,-2 z"/></clipPath></defs><g clip-path="url(#clip9)" fill="#ffffff" fill-opacity="1" opacity="1" stroke="none" stroke-opacity="0" transform="matrix(3.38983,0,0,3.38983,23.7288,6.77966)"><path d="M0,0 L45,0 L45,36 L0,36 L0,0 z" fill-rule="evenodd" vector-effect="none"/></g><defs><clipPath id="clip13"><path d="M395,231 L440,231 L440,267 L395,267 L395,231 z"/></clipPath></defs><g clip-path="url(#clip13)" fill="none" opacity="1" stroke="#000000" stroke-linecap="butt" stroke-linejoin="miter" stroke-miterlimit="2" stroke-opacity="1" stroke-width="0.295" transform="matrix(3.38983,0,0,3.38983,-1313.56,-777.966)"><polyline fill="none" points="404,237 404,263" vector-effect="none"/></g><defs><clipPath id="clip14"><path d="M395,231 L440,231 L440,267 L395,267 L395,231 z"/></clipPath></defs><g clip-path="url(#clip14)" fill="none" opacity="1" stroke="#000000" stroke-linecap="butt" stroke-linejoin="miter" stroke-miterlimit="2" stroke-opacity="1" stroke-width="0.295" transform="matrix(3.38983,0,0,3.38983,-1313.56,-777.966)"><polyline fill="none" points="401,260 434,260" vector-effect="none"/></g><defs><clipPath id="clip15"><path d="M395,231 L440,231 L440,267 L395,267 L395,231 z"/></clipPath></defs><g clip-path="url(#clip15)" fill="none" opacity="1" stroke="#000000" stroke-linecap="butt" stroke-linejoin="miter" stroke-miterlimit="2" stroke-opacity="1" stroke-width="0.295" transform="matrix(3.38983,0,0,3.38983,-1313.56,-777.966)"><polyline fill="none" points="404,246 417,252" vector-effect="none"/></g><defs><clipPath id="clip16"><path d="M395,231 L440,231 L440,267 L395,267 L395,231 z"/></clipPath></defs><g clip-path="url(#clip16)" fill="none" opacity="1" stroke="#000000" stroke-linecap="butt" stroke-linejoin="miter" stroke-miterlimit="2" stroke-opacity="1" stroke-width="0.295" transform="matrix(3.38983,0,0,3.38983,-1313.56,-777.966)"><polyline fill="none" points="417,252 417,242" vector-effect="none"/></g><defs><clipPath id="clip17"><path d="M395,231 L440,231 L440,267 L395,267 L395,231 z"/></clipPath></defs><g clip-path="url(#clip17)" fill="none" opacity="1" stroke="#000000" stroke-linecap="butt" stroke-linejoin="miter" stroke-miterlimit="2" stroke-opacity="1" stroke-width="0.295" transform="matrix(3.38983,0,0,3.38983,-1313.56,-777.966)"><polyline fill="none" points="417,242 429,248" vector-effect="none"/></g><defs><clipPath id="clip18"><path d="M395,231 L440,231 L440,267 L395,267 L395,231 z"/></clipPath></defs><g clip-path="url(#clip18)" fill="none" opacity="1" stroke="#000000" stroke-linecap="butt" stroke-linejoin="miter" stroke-miterlimit="2" stroke-opacity="1" stroke-width="0.295" transform="matrix(3.38983,0,0,3.38983,-1313.56,-777.966)"><polyline fill="none" points="423,247 423,253" vector-effect="none"/></g><defs><clipPath id="clip19"><path d="M395,231 L440,231 L440,267 L395,267 L395,231 z"/></clipPath></defs><g clip-path="url(#clip19)" fill="none" opacity="1" stroke="#000000" stroke-linecap="butt" stroke-linejoin="miter" stroke-miterlimit="2" stroke-opacity="1" stroke-width="0.295" transform="matrix(3.38983,0,0,3.38983,-1313.56,-777.966)"><polyline fill="none" points="423,253 421,251" vector-effect="none"/></g><defs><clipPath id="clip20"><path d="M395,231 L440,231 L440,267 L395,267 L395,231 z"/></clipPath></defs><g clip-path="url(#clip20)" fill="none" opacity="1" stroke="#000000" stroke-linecap="butt" stroke-linejoin="miter" stroke-miterlimit="2" stroke-opacity="1" stroke-width="0.295" transform="matrix(3.38983,0,0,3.38983,-1313.56,-777.966)"><polyline fill="none" points="421,251 423,253" vector-effect="none"/></g><defs><clipPath id="clip21"><path d="M395,231 L440,231 L440,267 L395,267 L395,231 z"/></clipPath></defs><g clip-path="url(#clip21)" fill="none" opacity="1" stroke="#000000" stroke-linecap="butt" stroke-linejoin="miter" stroke-miterlimit="2" stroke-opacity="1" stroke-width="0.295" transform="matrix(3.38983,0,0,3.38983,-1313.56,-777.966)"><polyline fill="none" points="423,253 425,251" vector-effect="none"/></g><defs><clipPath id="clip22"><path d="M395,231 L440,231 L440,267 L395,267 L395,231 z"/></clipPath></defs><g clip-path="url(#clip22)" fill="none" opacity="1" stroke="#000000" stroke-linecap="butt" stroke-linejoin="miter" stroke-miterlimit="2" stroke-opacity="1" stroke-width="0.295" transform="matrix(3.38983,0,0,3.38983,-1313.56,-777.966)"><polyline fill="none" points="425,256 430,258" vector-effect="none"/></g><defs><clipPath id="clip23"><path d="M395,231 L440,231 L440,267 L395,267 L395,231 z"/></clipPath></defs><g clip-path="url(#clip23)" fill="none" opacity="1" stroke="#000000" stroke-linecap="butt" stroke-linejoin="miter" stroke-miterlimit="2" stroke-opacity="1" stroke-width="0.295" transform="matrix(3.38983,0,0,3.38983,-1313.56,-777.966)"><polyline fill="none" points="418,253 423,255" vector-effect="none"/></g><defs><clipPath id="clip28"><path d="M-7,-2 L52,-2 L52,38 L-7,38 L-7,-2 z"/></clipPath></defs><g clip-path="url(#clip28)" fill="none" opacity="1" stroke="#000000" stroke-linecap="butt" stroke-linejoin="miter" stroke-miterlimit="2" stroke-opacity="1" stroke-width="0.613661" transform="matrix(3.38983,0,0,3.38983,23.7288,6.77966)"><path d="M0,0 L45,0 L45,36 L0,36 L0,0 z" fill-rule="evenodd" vector-effect="none"/></g></g></svg>
