<?xml version="1.0" encoding="UTF-8"?><svg width="52.9167mm" height="34.6604mm" viewBox="0 0 200 131" xmlns="http://www.w3.org/2000/svg" xmlns:xlink="http://www.w3.org/1999/xlink"><g fill="none" stroke="black" stroke-width="1" fill-rule="evenodd" stroke-linecap="square" stroke-linejoin="bevel"><g clip-path="none" fill="none" opacity="1" stroke="none" stroke-opacity="0" transform="matrix(1,0,0,1,0,0)"><path d="M0,0 L200,0 L200,131 L0,131 L0,0 z" fill-rule="evenodd" vector-effect="none"/></g><defs><clipPath id="clip3"><path d="M-87,-31 L7,-31 L7,31 L-87,31 L-87,-31 z"/></clipPath></defs><g clip-path="url(#clip3)" fill="none" opacity="1" stroke="#000000" stroke-linecap="round" stroke-linejoin="miter" stroke-miterlimit="2" stroke-opacity="1" stroke-width="2" transform="matrix(2.12766,0,0,2.12766,185.106,65.9574)"><path d="M0,-5 L5,0 L0,5" fill-rule="evenodd" vector-effect="none"/></g><defs><clipPath id="clip6"><path d="M7,31 L-87,31 L-87,-31 L7,-31 L7,31 z"/></clipPath></defs><g clip-path="url(#clip6)" fill="none" opacity="1" stroke="#000000" stroke-linecap="round" stroke-linejoin="miter" stroke-miterlimit="2" stroke-opacity="1" stroke-width="2" transform="matrix(-2.12766,0,0,-2.12766,14.8936,65.9574)"><path d="M5,-5 L0,0 L5,5" fill-rule="evenodd" vector-effect="none"/></g><defs><clipPath id="clip9"><path d="M-7,-2 L87,-2 L87,60 L-7,60 L-7,-2 z"/></clipPath></defs><g clip-path="url(#clip9)" fill="#ffffff" fill-opacity="1" opacity="1" stroke="none" stroke-opacity="0" transform="matrix(2.12766,0,0,2.12766,14.8936,4.25532)"><path d="M0,0 L80,0 L80,58 L0,58 L0,0 z" fill-rule="evenodd" vector-effect="none"/></g><defs><clipPath id="clip14"><path d="M-205,-123 L205,-123 L205,174 L-205,174 L-205,-123 z"/></clipPath></defs><g clip-path="url(#clip14)" fill="none" opacity="1" stroke="#000000" stroke-linecap="butt" stroke-linejoin="miter" stroke-miterlimit="2" stroke-opacity="1" stroke-width="0.47" transform="matrix(0.415559,0,0,0.415559,100,55.3191)"><text fill="#000000" fill-opacity="1" font-family="Liberation Sans" font-size="40" font-style="normal" font-weight="400" stroke="none" textLength="81" x="-52.5938" xml:space="preserve" y="17.9219">Zero</text></g><defs><clipPath id="clip17"><path d="M-205,-174 L205,-174 L205,123 L-205,123 L-205,-174 z"/></clipPath></defs><g clip-path="url(#clip17)" fill="none" opacity="1" stroke="#000000" stroke-linecap="butt" stroke-linejoin="miter" stroke-miterlimit="2" stroke-opacity="1" stroke-width="0.47" transform="matrix(0.415559,0,0,0.415559,100,76.5957)"><text fill="#000000" fill-opacity="1" font-family="Liberation Sans" font-size="40" font-style="normal" font-weight="400" stroke="none" textLength="153" x="-100.953" xml:space="preserve" y="17.9219">Crossing</text></g><defs><clipPath id="clip20"><path d="M-394,-148 L16,-148 L16,149 L-394,149 L-394,-148 z"/></clipPath></defs><g clip-path="url(#clip20)" fill="none" opacity="1" stroke="#000000" stroke-linecap="butt" stroke-linejoin="miter" stroke-miterlimit="2" stroke-opacity="1" stroke-width="0.47" transform="matrix(0.415559,0,0,0.415559,178.723,65.9574)"><text fill="#000000" fill-opacity="1" font-family="Liberation Sans" font-size="40" font-style="normal" font-weight="400" stroke="none" textLength="61" x="-79.625" xml:space="preserve" y="17.9219">Cnt</text></g><defs><clipPath id="clip26"><path d="M-7,-2 L87,-2 L87,60 L-7,60 L-7,-2 z"/></clipPath></defs><g clip-path="url(#clip26)" fill="none" opacity="1" stroke="#000000" stroke-linecap="butt" stroke-linejoin="miter" stroke-miterlimit="2" stroke-opacity="1" stroke-width="0.739331" transform="matrix(2.12766,0,0,2.12766,14.8936,4.25532)"><path d="M0,0 L80,0 L80,58 L0,58 L0,0 z" fill-rule="evenodd" vector-effect="none"/></g></g></svg>
