<?xml version="1.0" encoding="UTF-8"?><svg width="52.9167mm" height="37.0417mm" viewBox="0 0 200 140" xmlns="http://www.w3.org/2000/svg" xmlns:xlink="http://www.w3.org/1999/xlink"><g fill="none" stroke="black" stroke-width="1" fill-rule="evenodd" stroke-linecap="square" stroke-linejoin="bevel"><g clip-path="none" fill="none" opacity="1" stroke="none" stroke-opacity="0" transform="matrix(1,0,0,1,0,0)"><path d="M0,0 L200,0 L200,140 L0,140 L0,0 z" fill-rule="evenodd" vector-effect="none"/></g><defs><clipPath id="clip3"><path d="M-57,-25 L7,-25 L7,20 L-57,20 L-57,-25 z"/></clipPath></defs><g clip-path="url(#clip3)" fill="none" opacity="1" stroke="#000000" stroke-linecap="round" stroke-linejoin="miter" stroke-miterlimit="2" stroke-opacity="1" stroke-width="2" transform="matrix(3.125,0,0,3.125,178.125,78.125)"><path d="M0,-5 L5,0 L0,5" fill-rule="evenodd" vector-effect="none"/></g><defs><clipPath id="clip6"><path d="M7,-27 L7,37 L-38,37 L-38,-27 L7,-27 z"/></clipPath></defs><g clip-path="url(#clip6)" fill="none" opacity="1" stroke="#000000" stroke-linecap="round" stroke-linejoin="miter" stroke-miterlimit="2" stroke-opacity="1" stroke-width="2" transform="matrix(1.91345e-16,-3.125,3.125,1.91345e-16,84.375,21.875)"><path d="M5,-5 L0,0 L5,5" fill-rule="evenodd" vector-effect="none"/></g><defs><clipPath id="clip9"><path d="M-2,-7 L62,-7 L62,38 L-2,38 L-2,-7 z"/></clipPath></defs><g clip-path="url(#clip9)" fill="#ffffff" fill-opacity="1" opacity="1" stroke="none" stroke-opacity="0" transform="matrix(3.125,0,0,3.125,6.25,21.875)"><path d="M0,0 L55,0 L55,36 L0,36 L0,0 z" fill-rule="evenodd" vector-effect="none"/></g><defs><clipPath id="clip13"><path d="M35,417 L90,417 L90,453 L35,453 L35,417 z"/></clipPath></defs><g clip-path="url(#clip13)" fill="none" opacity="1" stroke="#000000" stroke-linecap="butt" stroke-linejoin="miter" stroke-miterlimit="2" stroke-opacity="1" stroke-width="0.32" transform="matrix(3.125,0,0,3.125,-101.562,-1279.69)"><polyline fill="none" points="56,420 59,420" vector-effect="none"/></g><defs><clipPath id="clip14"><path d="M35,417 L90,417 L90,453 L35,453 L35,417 z"/></clipPath></defs><g clip-path="url(#clip14)" fill="none" opacity="1" stroke="#000000" stroke-linecap="butt" stroke-linejoin="miter" stroke-miterlimit="2" stroke-opacity="1" stroke-width="0.32" transform="matrix(3.125,0,0,3.125,-101.562,-1279.69)"><polyline fill="none" points="59,420 59,426" vector-effect="none"/></g><defs><clipPath id="clip15"><path d="M35,417 L90,417 L90,453 L35,453 L35,417 z"/></clipPath></defs><g clip-path="url(#clip15)" fill="none" opacity="1" stroke="#000000" stroke-linecap="butt" stroke-linejoin="miter" stroke-miterlimit="2" stroke-opacity="1" stroke-width="0.32" transform="matrix(3.125,0,0,3.125,-101.562,-1279.69)"><polyline fill="none" points="59,426 62,426" vector-effect="none"/></g><defs><clipPath id="clip16"><path d="M35,417 L90,417 L90,453 L35,453 L35,417 z"/></clipPath></defs><g clip-path="url(#clip16)" fill="none" opacity="1" stroke="#000000" stroke-linecap="butt" stroke-linejoin="miter" stroke-miterlimit="2" stroke-opacity="1" stroke-width="0.32" transform="matrix(3.125,0,0,3.125,-101.562,-1279.69)"><polyline fill="none" points="59,424 57,421" vector-effect="none"/></g><defs><clipPath id="clip17"><path d="M35,417 L90,417 L90,453 L35,453 L35,417 z"/></clipPath></defs><g clip-path="url(#clip17)" fill="none" opacity="1" stroke="#000000" stroke-linecap="butt" stroke-linejoin="miter" stroke-miterlimit="2" stroke-opacity="1" stroke-width="0.32" transform="matrix(3.125,0,0,3.125,-101.562,-1279.69)"><polyline fill="none" points="59,424 61,421" vector-effect="none"/></g><defs><clipPath id="clip19"><path d="M-138,-92 L144,-92 L144,92 L-138,92 L-138,-92 z"/></clipPath></defs><g clip-path="url(#clip19)" fill="none" opacity="1" stroke="#000000" stroke-linecap="butt" stroke-linejoin="miter" stroke-miterlimit="2" stroke-opacity="1" stroke-width="0.32" transform="matrix(0.610352,0,0,0.610352,90.625,78.125)"><text fill="#000000" fill-opacity="1" font-family="Liberation Sans" font-size="40" font-style="normal" font-weight="400" stroke="none" textLength="77" x="-49.7969" xml:space="preserve" y="17.9219">1:10</text></g><defs><clipPath id="clip25"><path d="M-2,-7 L62,-7 L62,38 L-2,38 L-2,-7 z"/></clipPath></defs><g clip-path="url(#clip25)" fill="none" opacity="1" stroke="#000000" stroke-linecap="butt" stroke-linejoin="miter" stroke-miterlimit="2" stroke-opacity="1" stroke-width="1.26791" transform="matrix(3.125,0,0,3.125,6.25,21.875)"><path d="M0,0 L55,0 L55,36 L0,36 L0,0 z" fill-rule="evenodd" vector-effect="none"/></g></g></svg>
