<?xml version="1.0" encoding="UTF-8"?><svg width="52.9167mm" height="52.9167mm" viewBox="0 0 200 200" xmlns="http://www.w3.org/2000/svg" xmlns:xlink="http://www.w3.org/1999/xlink"><g fill="none" stroke="black" stroke-width="1" fill-rule="evenodd" stroke-linecap="square" stroke-linejoin="bevel"><g clip-path="none" fill="none" opacity="1" stroke="none" stroke-opacity="0" transform="matrix(1,0,0,1,0,0)"><path d="M0,0 L200,0 L200,200 L0,200 L0,0 z" fill-rule="evenodd" vector-effect="none"/></g><defs><clipPath id="clip3"><path d="M7,27 L-47,27 L-47,-27 L7,-27 L7,27 z"/></clipPath></defs><g clip-path="url(#clip3)" fill="none" opacity="1" stroke="#000000" stroke-linecap="round" stroke-linejoin="miter" stroke-miterlimit="2" stroke-opacity="1" stroke-width="2" transform="matrix(-3.7037,0,0,-3.7037,25.9259,100)"><path d="M5,-5 L0,0 L5,5" fill-rule="evenodd" vector-effect="none"/></g><defs><clipPath id="clip6"><path d="M-7,-2 L47,-2 L47,52 L-7,52 L-7,-2 z"/></clipPath></defs><g clip-path="url(#clip6)" fill="#ffffff" fill-opacity="1" opacity="1" stroke="none" stroke-opacity="0" transform="matrix(3.7037,0,0,3.7037,25.9259,7.40741)"><path d="M0,0 L45,0 L45,50 L0,50 L0,0 z" fill-rule="evenodd" vector-effect="none"/></g><defs><clipPath id="clip10"><path d="M0,0 L45,0 L45,50 L0,50 L0,0 z"/></clipPath></defs><g clip-path="url(#clip10)" fill="none" opacity="1" stroke="none" stroke-opacity="0" transform="matrix(3.7037,0,0,3.7037,25.9259,7.40741)"><path d="M0,0 L45,0 L45,50 L0,50 L0,0 z" fill-rule="evenodd" vector-effect="none"/></g><defs><clipPath id="clip20"><path d="M1,1 L101,1 L101,101 L1,101 L1,1 z"/></clipPath></defs><g clip-path="url(#clip20)" fill="#ffffff" fill-opacity="1" opacity="1" stroke="none" stroke-opacity="0" transform="matrix(1.66667,0,0,1.85185,23.8889,5.55556)"><path d="M10,10 L90,10 L90,70 L10,70 L10,10 z" fill-rule="evenodd" vector-effect="none"/></g><defs><clipPath id="clip21"><path d="M1,1 L101,1 L101,101 L1,101 L1,1 z"/></clipPath></defs><g clip-path="url(#clip21)" fill="none" opacity="1" stroke="#000000" stroke-linecap="butt" stroke-linejoin="miter" stroke-miterlimit="4" stroke-opacity="1" stroke-width="0.7" transform="matrix(1.66667,0,0,1.85185,23.8889,5.55556)"><path d="M10,10 L90,10 L90,70 L10,70 L10,10 z" fill-rule="nonzero" vector-effect="none"/></g><defs><clipPath id="clip22"><path d="M1,1 L101,1 L101,101 L1,101 L1,1 z"/></clipPath></defs><g clip-path="url(#clip22)" fill="none" opacity="1" stroke="#000000" stroke-linecap="butt" stroke-linejoin="miter" stroke-miterlimit="4" stroke-opacity="1" stroke-width="0.7" transform="matrix(1.66667,0,0,1.85185,23.8889,5.55556)"><path d="M10,56.2471 L90,56.2471" fill-rule="nonzero" vector-effect="none"/></g><defs><clipPath id="clip24"><path d="M0,0 L100,0 L100,100 L0,100 L0,0 z"/></clipPath></defs><g clip-path="url(#clip24)" fill="none" opacity="1" stroke="#000000" stroke-linecap="butt" stroke-linejoin="miter" stroke-miterlimit="4" stroke-opacity="1" stroke-width="10" transform="matrix(0.00942584,0.0507831,-0.0457048,0.0104732,45.0362,106.654)"><path d="M80,50 C80,66.5685 66.5685,80 50,80 C33.4315,80 20,66.5685 20,50 C20,33.4315 33.4315,20 50,20 C66.5685,20 80,33.4315 80,50 z" fill-rule="nonzero" vector-effect="none"/></g><defs><clipPath id="clip28"><path d="M1,1 L101,1 L101,101 L1,101 L1,1 z"/></clipPath></defs><g clip-path="url(#clip28)" fill="none" opacity="1" stroke="#000000" stroke-linecap="butt" stroke-linejoin="miter" stroke-miterlimit="4" stroke-opacity="1" stroke-width="0.7" transform="matrix(1.66667,0,0,1.85185,23.8889,5.55556)"><path d="M13.2,56.2471 L13.2,57.8617" fill-rule="nonzero" vector-effect="none"/></g><defs><clipPath id="clip30"><path d="M0,0 L100,0 L100,100 L0,100 L0,0 z"/></clipPath></defs><g clip-path="url(#clip30)" fill="none" opacity="1" stroke="#000000" stroke-linecap="butt" stroke-linejoin="miter" stroke-miterlimit="4" stroke-opacity="1" stroke-width="10" transform="matrix(2.85741e-18,0.0518519,-0.0466667,3.17491e-18,48.2222,110.114)"><path d="M80,50 C80,66.5685 66.5685,80 50,80 C33.4315,80 20,66.5685 20,50 C20,33.4315 33.4315,20 50,20 C66.5685,20 80,33.4315 80,50 z" fill-rule="nonzero" vector-effect="none"/></g><defs><clipPath id="clip34"><path d="M1,1 L101,1 L101,101 L1,101 L1,1 z"/></clipPath></defs><g clip-path="url(#clip34)" fill="none" opacity="1" stroke="#000000" stroke-linecap="butt" stroke-linejoin="miter" stroke-miterlimit="4" stroke-opacity="1" stroke-width="0.7" transform="matrix(1.66667,0,0,1.85185,23.8889,5.55556)"><path d="M14.8,56.2471 L14.8,58.6343" fill-rule="nonzero" vector-effect="none"/></g><defs><clipPath id="clip36"><path d="M0,0 L100,0 L100,100 L0,100 L0,0 z"/></clipPath></defs><g clip-path="url(#clip36)" fill="none" opacity="1" stroke="#000000" stroke-linecap="butt" stroke-linejoin="miter" stroke-miterlimit="4" stroke-opacity="1" stroke-width="10" transform="matrix(2.85741e-18,0.0518519,-0.0466667,3.17491e-18,50.8889,111.545)"><path d="M80,50 C80,66.5685 66.5685,80 50,80 C33.4315,80 20,66.5685 20,50 C20,33.4315 33.4315,20 50,20 C66.5685,20 80,33.4315 80,50 z" fill-rule="nonzero" vector-effect="none"/></g><defs><clipPath id="clip40"><path d="M1,1 L101,1 L101,101 L1,101 L1,1 z"/></clipPath></defs><g clip-path="url(#clip40)" fill="none" opacity="1" stroke="#000000" stroke-linecap="butt" stroke-linejoin="miter" stroke-miterlimit="4" stroke-opacity="1" stroke-width="0.7" transform="matrix(1.66667,0,0,1.85185,23.8889,5.55556)"><path d="M16.4,56.2471 L16.4,58.0154" fill-rule="nonzero" vector-effect="none"/></g><defs><clipPath id="clip42"><path d="M0,0 L100,0 L100,100 L0,100 L0,0 z"/></clipPath></defs><g clip-path="url(#clip42)" fill="none" opacity="1" stroke="#000000" stroke-linecap="butt" stroke-linejoin="miter" stroke-miterlimit="4" stroke-opacity="1" stroke-width="10" transform="matrix(2.85741e-18,0.0518519,-0.0466667,3.17491e-18,53.5556,110.399)"><path d="M80,50 C80,66.5685 66.5685,80 50,80 C33.4315,80 20,66.5685 20,50 C20,33.4315 33.4315,20 50,20 C66.5685,20 80,33.4315 80,50 z" fill-rule="nonzero" vector-effect="none"/></g><defs><clipPath id="clip47"><path d="M0,0 L100,0 L100,100 L0,100 L0,0 z"/></clipPath></defs><g clip-path="url(#clip47)" fill="none" opacity="1" stroke="#000000" stroke-linecap="butt" stroke-linejoin="miter" stroke-miterlimit="4" stroke-opacity="1" stroke-width="10" transform="matrix(0.0142235,0.0493847,-0.0444462,0.0158039,55.4,106.457)"><path d="M80,50 C80,66.5685 66.5685,80 50,80 C33.4315,80 20,66.5685 20,50 C20,33.4315 33.4315,20 50,20 C66.5685,20 80,33.4315 80,50 z" fill-rule="nonzero" vector-effect="none"/></g><defs><clipPath id="clip51"><path d="M1,1 L101,1 L101,101 L1,101 L1,1 z"/></clipPath></defs><g clip-path="url(#clip51)" fill="none" opacity="1" stroke="#000000" stroke-linecap="butt" stroke-linejoin="miter" stroke-miterlimit="4" stroke-opacity="1" stroke-width="0.7" transform="matrix(1.66667,0,0,1.85185,23.8889,5.55556)"><path d="M19.6,56.2471 L19.6,54.2926" fill-rule="nonzero" vector-effect="none"/></g><defs><clipPath id="clip53"><path d="M0,0 L100,0 L100,100 L0,100 L0,0 z"/></clipPath></defs><g clip-path="url(#clip53)" fill="none" opacity="1" stroke="#000000" stroke-linecap="butt" stroke-linejoin="miter" stroke-miterlimit="4" stroke-opacity="1" stroke-width="10" transform="matrix(2.85741e-18,-0.0518519,0.0466667,3.17491e-18,54.2222,108.69)"><path d="M80,50 C80,66.5685 66.5685,80 50,80 C33.4315,80 20,66.5685 20,50 C20,33.4315 33.4315,20 50,20 C66.5685,20 80,33.4315 80,50 z" fill-rule="nonzero" vector-effect="none"/></g><defs><clipPath id="clip57"><path d="M1,1 L101,1 L101,101 L1,101 L1,1 z"/></clipPath></defs><g clip-path="url(#clip57)" fill="none" opacity="1" stroke="#000000" stroke-linecap="butt" stroke-linejoin="miter" stroke-miterlimit="4" stroke-opacity="1" stroke-width="0.7" transform="matrix(1.66667,0,0,1.85185,23.8889,5.55556)"><path d="M21.2,56.2471 L21.2,53.3295" fill-rule="nonzero" vector-effect="none"/></g><defs><clipPath id="clip59"><path d="M0,0 L100,0 L100,100 L0,100 L0,0 z"/></clipPath></defs><g clip-path="url(#clip59)" fill="none" opacity="1" stroke="#000000" stroke-linecap="butt" stroke-linejoin="miter" stroke-miterlimit="4" stroke-opacity="1" stroke-width="10" transform="matrix(2.85741e-18,-0.0518519,0.0466667,3.17491e-18,56.8889,106.906)"><path d="M80,50 C80,66.5685 66.5685,80 50,80 C33.4315,80 20,66.5685 20,50 C20,33.4315 33.4315,20 50,20 C66.5685,20 80,33.4315 80,50 z" fill-rule="nonzero" vector-effect="none"/></g><defs><clipPath id="clip63"><path d="M1,1 L101,1 L101,101 L1,101 L1,1 z"/></clipPath></defs><g clip-path="url(#clip63)" fill="none" opacity="1" stroke="#000000" stroke-linecap="butt" stroke-linejoin="miter" stroke-miterlimit="4" stroke-opacity="1" stroke-width="0.7" transform="matrix(1.66667,0,0,1.85185,23.8889,5.55556)"><path d="M22.8,56.2471 L22.8,54.0627" fill-rule="nonzero" vector-effect="none"/></g><defs><clipPath id="clip65"><path d="M0,0 L100,0 L100,100 L0,100 L0,0 z"/></clipPath></defs><g clip-path="url(#clip65)" fill="none" opacity="1" stroke="#000000" stroke-linecap="butt" stroke-linejoin="miter" stroke-miterlimit="4" stroke-opacity="1" stroke-width="10" transform="matrix(2.85741e-18,-0.0518519,0.0466667,3.17491e-18,59.5556,108.264)"><path d="M80,50 C80,66.5685 66.5685,80 50,80 C33.4315,80 20,66.5685 20,50 C20,33.4315 33.4315,20 50,20 C66.5685,20 80,33.4315 80,50 z" fill-rule="nonzero" vector-effect="none"/></g><defs><clipPath id="clip70"><path d="M0,0 L100,0 L100,100 L0,100 L0,0 z"/></clipPath></defs><g clip-path="url(#clip70)" fill="none" opacity="1" stroke="#000000" stroke-linecap="butt" stroke-linejoin="miter" stroke-miterlimit="4" stroke-opacity="1" stroke-width="10" transform="matrix(0.0185718,0.0475689,-0.042812,0.0206354,65.7676,106.307)"><path d="M80,50 C80,66.5685 66.5685,80 50,80 C33.4315,80 20,66.5685 20,50 C20,33.4315 33.4315,20 50,20 C66.5685,20 80,33.4315 80,50 z" fill-rule="nonzero" vector-effect="none"/></g><defs><clipPath id="clip74"><path d="M1,1 L101,1 L101,101 L1,101 L1,1 z"/></clipPath></defs><g clip-path="url(#clip74)" fill="none" opacity="1" stroke="#000000" stroke-linecap="butt" stroke-linejoin="miter" stroke-miterlimit="4" stroke-opacity="1" stroke-width="0.7" transform="matrix(1.66667,0,0,1.85185,23.8889,5.55556)"><path d="M26,56.2471 L26,58.7228" fill-rule="nonzero" vector-effect="none"/></g><defs><clipPath id="clip76"><path d="M0,0 L100,0 L100,100 L0,100 L0,0 z"/></clipPath></defs><g clip-path="url(#clip76)" fill="none" opacity="1" stroke="#000000" stroke-linecap="butt" stroke-linejoin="miter" stroke-miterlimit="4" stroke-opacity="1" stroke-width="10" transform="matrix(2.85741e-18,0.0518519,-0.0466667,3.17491e-18,69.5556,111.709)"><path d="M80,50 C80,66.5685 66.5685,80 50,80 C33.4315,80 20,66.5685 20,50 C20,33.4315 33.4315,20 50,20 C66.5685,20 80,33.4315 80,50 z" fill-rule="nonzero" vector-effect="none"/></g><defs><clipPath id="clip80"><path d="M1,1 L101,1 L101,101 L1,101 L1,1 z"/></clipPath></defs><g clip-path="url(#clip80)" fill="none" opacity="1" stroke="#000000" stroke-linecap="butt" stroke-linejoin="miter" stroke-miterlimit="4" stroke-opacity="1" stroke-width="0.7" transform="matrix(1.66667,0,0,1.85185,23.8889,5.55556)"><path d="M27.6,56.2471 L27.6,59.9983" fill-rule="nonzero" vector-effect="none"/></g><defs><clipPath id="clip82"><path d="M0,0 L100,0 L100,100 L0,100 L0,0 z"/></clipPath></defs><g clip-path="url(#clip82)" fill="none" opacity="1" stroke="#000000" stroke-linecap="butt" stroke-linejoin="miter" stroke-miterlimit="4" stroke-opacity="1" stroke-width="10" transform="matrix(2.85741e-18,0.0518519,-0.0466667,3.17491e-18,72.2222,114.071)"><path d="M80,50 C80,66.5685 66.5685,80 50,80 C33.4315,80 20,66.5685 20,50 C20,33.4315 33.4315,20 50,20 C66.5685,20 80,33.4315 80,50 z" fill-rule="nonzero" vector-effect="none"/></g><defs><clipPath id="clip86"><path d="M1,1 L101,1 L101,101 L1,101 L1,1 z"/></clipPath></defs><g clip-path="url(#clip86)" fill="none" opacity="1" stroke="#000000" stroke-linecap="butt" stroke-linejoin="miter" stroke-miterlimit="4" stroke-opacity="1" stroke-width="0.7" transform="matrix(1.66667,0,0,1.85185,23.8889,5.55556)"><path d="M29.2,56.2471 L29.2,59.1037" fill-rule="nonzero" vector-effect="none"/></g><defs><clipPath id="clip88"><path d="M0,0 L100,0 L100,100 L0,100 L0,0 z"/></clipPath></defs><g clip-path="url(#clip88)" fill="none" opacity="1" stroke="#000000" stroke-linecap="butt" stroke-linejoin="miter" stroke-miterlimit="4" stroke-opacity="1" stroke-width="10" transform="matrix(2.85741e-18,0.0518519,-0.0466667,3.17491e-18,74.8889,112.414)"><path d="M80,50 C80,66.5685 66.5685,80 50,80 C33.4315,80 20,66.5685 20,50 C20,33.4315 33.4315,20 50,20 C66.5685,20 80,33.4315 80,50 z" fill-rule="nonzero" vector-effect="none"/></g><defs><clipPath id="clip93"><path d="M0,0 L100,0 L100,100 L0,100 L0,0 z"/></clipPath></defs><g clip-path="url(#clip93)" fill="none" opacity="1" stroke="#000000" stroke-linecap="butt" stroke-linejoin="miter" stroke-miterlimit="4" stroke-opacity="1" stroke-width="10" transform="matrix(0.0224136,0.0454797,-0.0409318,0.024904,76.1481,106.198)"><path d="M80,50 C80,66.5685 66.5685,80 50,80 C33.4315,80 20,66.5685 20,50 C20,33.4315 33.4315,20 50,20 C66.5685,20 80,33.4315 80,50 z" fill-rule="nonzero" vector-effect="none"/></g><defs><clipPath id="clip97"><path d="M1,1 L101,1 L101,101 L1,101 L1,1 z"/></clipPath></defs><g clip-path="url(#clip97)" fill="none" opacity="1" stroke="#000000" stroke-linecap="butt" stroke-linejoin="miter" stroke-miterlimit="4" stroke-opacity="1" stroke-width="0.7" transform="matrix(1.66667,0,0,1.85185,23.8889,5.55556)"><path d="M32.4,56.2471 L32.4,52.8711" fill-rule="nonzero" vector-effect="none"/></g><defs><clipPath id="clip99"><path d="M0,0 L100,0 L100,100 L0,100 L0,0 z"/></clipPath></defs><g clip-path="url(#clip99)" fill="none" opacity="1" stroke="#000000" stroke-linecap="butt" stroke-linejoin="miter" stroke-miterlimit="4" stroke-opacity="1" stroke-width="10" transform="matrix(2.85741e-18,-0.0518519,0.0466667,3.17491e-18,75.5556,106.058)"><path d="M80,50 C80,66.5685 66.5685,80 50,80 C33.4315,80 20,66.5685 20,50 C20,33.4315 33.4315,20 50,20 C66.5685,20 80,33.4315 80,50 z" fill-rule="nonzero" vector-effect="none"/></g><defs><clipPath id="clip103"><path d="M1,1 L101,1 L101,101 L1,101 L1,1 z"/></clipPath></defs><g clip-path="url(#clip103)" fill="none" opacity="1" stroke="#000000" stroke-linecap="butt" stroke-linejoin="miter" stroke-miterlimit="4" stroke-opacity="1" stroke-width="0.7" transform="matrix(1.66667,0,0,1.85185,23.8889,5.55556)"><path d="M34,56.2471 L34,50.9954" fill-rule="nonzero" vector-effect="none"/></g><defs><clipPath id="clip105"><path d="M0,0 L100,0 L100,100 L0,100 L0,0 z"/></clipPath></defs><g clip-path="url(#clip105)" fill="none" opacity="1" stroke="#000000" stroke-linecap="butt" stroke-linejoin="miter" stroke-miterlimit="4" stroke-opacity="1" stroke-width="10" transform="matrix(2.85741e-18,-0.0518519,0.0466667,3.17491e-18,78.2222,102.584)"><path d="M80,50 C80,66.5685 66.5685,80 50,80 C33.4315,80 20,66.5685 20,50 C20,33.4315 33.4315,20 50,20 C66.5685,20 80,33.4315 80,50 z" fill-rule="nonzero" vector-effect="none"/></g><defs><clipPath id="clip109"><path d="M1,1 L101,1 L101,101 L1,101 L1,1 z"/></clipPath></defs><g clip-path="url(#clip109)" fill="none" opacity="1" stroke="#000000" stroke-linecap="butt" stroke-linejoin="miter" stroke-miterlimit="4" stroke-opacity="1" stroke-width="0.7" transform="matrix(1.66667,0,0,1.85185,23.8889,5.55556)"><path d="M35.6,56.2471 L35.6,52.1209" fill-rule="nonzero" vector-effect="none"/></g><defs><clipPath id="clip111"><path d="M0,0 L100,0 L100,100 L0,100 L0,0 z"/></clipPath></defs><g clip-path="url(#clip111)" fill="none" opacity="1" stroke="#000000" stroke-linecap="butt" stroke-linejoin="miter" stroke-miterlimit="4" stroke-opacity="1" stroke-width="10" transform="matrix(2.85741e-18,-0.0518519,0.0466667,3.17491e-18,80.8889,104.668)"><path d="M80,50 C80,66.5685 66.5685,80 50,80 C33.4315,80 20,66.5685 20,50 C20,33.4315 33.4315,20 50,20 C66.5685,20 80,33.4315 80,50 z" fill-rule="nonzero" vector-effect="none"/></g><defs><clipPath id="clip116"><path d="M0,0 L100,0 L100,100 L0,100 L0,0 z"/></clipPath></defs><g clip-path="url(#clip116)" fill="none" opacity="1" stroke="#000000" stroke-linecap="butt" stroke-linejoin="miter" stroke-miterlimit="4" stroke-opacity="1" stroke-width="10" transform="matrix(0.025743,0.0432488,-0.0389239,0.0286034,86.5479,106.124)"><path d="M80,50 C80,66.5685 66.5685,80 50,80 C33.4315,80 20,66.5685 20,50 C20,33.4315 33.4315,20 50,20 C66.5685,20 80,33.4315 80,50 z" fill-rule="nonzero" vector-effect="none"/></g><defs><clipPath id="clip120"><path d="M1,1 L101,1 L101,101 L1,101 L1,1 z"/></clipPath></defs><g clip-path="url(#clip120)" fill="none" opacity="1" stroke="#000000" stroke-linecap="butt" stroke-linejoin="miter" stroke-miterlimit="4" stroke-opacity="1" stroke-width="0.7" transform="matrix(1.66667,0,0,1.85185,23.8889,5.55556)"><path d="M38.8,56.2471 L38.8,61.5522" fill-rule="nonzero" vector-effect="none"/></g><defs><clipPath id="clip122"><path d="M0,0 L100,0 L100,100 L0,100 L0,0 z"/></clipPath></defs><g clip-path="url(#clip122)" fill="none" opacity="1" stroke="#000000" stroke-linecap="butt" stroke-linejoin="miter" stroke-miterlimit="4" stroke-opacity="1" stroke-width="10" transform="matrix(2.85741e-18,0.0518519,-0.0466667,3.17491e-18,90.8889,116.949)"><path d="M80,50 C80,66.5685 66.5685,80 50,80 C33.4315,80 20,66.5685 20,50 C20,33.4315 33.4315,20 50,20 C66.5685,20 80,33.4315 80,50 z" fill-rule="nonzero" vector-effect="none"/></g><defs><clipPath id="clip126"><path d="M1,1 L101,1 L101,101 L1,101 L1,1 z"/></clipPath></defs><g clip-path="url(#clip126)" fill="none" opacity="1" stroke="#000000" stroke-linecap="butt" stroke-linejoin="miter" stroke-miterlimit="4" stroke-opacity="1" stroke-width="0.7" transform="matrix(1.66667,0,0,1.85185,23.8889,5.55556)"><path d="M40.4,56.2471 L40.4,65" fill-rule="nonzero" vector-effect="none"/></g><defs><clipPath id="clip128"><path d="M0,0 L100,0 L100,100 L0,100 L0,0 z"/></clipPath></defs><g clip-path="url(#clip128)" fill="none" opacity="1" stroke="#000000" stroke-linecap="butt" stroke-linejoin="miter" stroke-miterlimit="4" stroke-opacity="1" stroke-width="10" transform="matrix(2.85741e-18,0.0518519,-0.0466667,3.17491e-18,93.5556,123.333)"><path d="M80,50 C80,66.5685 66.5685,80 50,80 C33.4315,80 20,66.5685 20,50 C20,33.4315 33.4315,20 50,20 C66.5685,20 80,33.4315 80,50 z" fill-rule="nonzero" vector-effect="none"/></g><defs><clipPath id="clip132"><path d="M1,1 L101,1 L101,101 L1,101 L1,1 z"/></clipPath></defs><g clip-path="url(#clip132)" fill="none" opacity="1" stroke="#000000" stroke-linecap="butt" stroke-linejoin="miter" stroke-miterlimit="4" stroke-opacity="1" stroke-width="0.7" transform="matrix(1.66667,0,0,1.85185,23.8889,5.55556)"><path d="M42,56.2471 L42,63.6742" fill-rule="nonzero" vector-effect="none"/></g><defs><clipPath id="clip134"><path d="M0,0 L100,0 L100,100 L0,100 L0,0 z"/></clipPath></defs><g clip-path="url(#clip134)" fill="none" opacity="1" stroke="#000000" stroke-linecap="butt" stroke-linejoin="miter" stroke-miterlimit="4" stroke-opacity="1" stroke-width="10" transform="matrix(2.85741e-18,0.0518519,-0.0466667,3.17491e-18,96.2222,120.878)"><path d="M80,50 C80,66.5685 66.5685,80 50,80 C33.4315,80 20,66.5685 20,50 C20,33.4315 33.4315,20 50,20 C66.5685,20 80,33.4315 80,50 z" fill-rule="nonzero" vector-effect="none"/></g><defs><clipPath id="clip139"><path d="M0,0 L100,0 L100,100 L0,100 L0,0 z"/></clipPath></defs><g clip-path="url(#clip139)" fill="none" opacity="1" stroke="#000000" stroke-linecap="butt" stroke-linejoin="miter" stroke-miterlimit="4" stroke-opacity="1" stroke-width="10" transform="matrix(0.0285902,0.0409815,-0.0368833,0.0317668,96.9702,106.079)"><path d="M80,50 C80,66.5685 66.5685,80 50,80 C33.4315,80 20,66.5685 20,50 C20,33.4315 33.4315,20 50,20 C66.5685,20 80,33.4315 80,50 z" fill-rule="nonzero" vector-effect="none"/></g><defs><clipPath id="clip143"><path d="M1,1 L101,1 L101,101 L1,101 L1,1 z"/></clipPath></defs><g clip-path="url(#clip143)" fill="none" opacity="1" stroke="#000000" stroke-linecap="butt" stroke-linejoin="miter" stroke-miterlimit="4" stroke-opacity="1" stroke-width="0.7" transform="matrix(1.66667,0,0,1.85185,23.8889,5.55556)"><path d="M45.2,56.2471 L45.2,43.8686" fill-rule="nonzero" vector-effect="none"/></g><defs><clipPath id="clip145"><path d="M0,0 L100,0 L100,100 L0,100 L0,0 z"/></clipPath></defs><g clip-path="url(#clip145)" fill="none" opacity="1" stroke="#000000" stroke-linecap="butt" stroke-linejoin="miter" stroke-miterlimit="4" stroke-opacity="1" stroke-width="10" transform="matrix(2.85741e-18,-0.0518519,0.0466667,3.17491e-18,96.8889,89.3863)"><path d="M80,50 C80,66.5685 66.5685,80 50,80 C33.4315,80 20,66.5685 20,50 C20,33.4315 33.4315,20 50,20 C66.5685,20 80,33.4315 80,50 z" fill-rule="nonzero" vector-effect="none"/></g><defs><clipPath id="clip149"><path d="M1,1 L101,1 L101,101 L1,101 L1,1 z"/></clipPath></defs><g clip-path="url(#clip149)" fill="none" opacity="1" stroke="#000000" stroke-linecap="butt" stroke-linejoin="miter" stroke-miterlimit="4" stroke-opacity="1" stroke-width="0.7" transform="matrix(1.66667,0,0,1.85185,23.8889,5.55556)"><path d="M46.8,56.2471 L46.8,29.9884" fill-rule="nonzero" vector-effect="none"/></g><defs><clipPath id="clip151"><path d="M0,0 L100,0 L100,100 L0,100 L0,0 z"/></clipPath></defs><g clip-path="url(#clip151)" fill="none" opacity="1" stroke="#000000" stroke-linecap="butt" stroke-linejoin="miter" stroke-miterlimit="4" stroke-opacity="1" stroke-width="10" transform="matrix(2.85741e-18,-0.0518519,0.0466667,3.17491e-18,99.5556,63.6822)"><path d="M80,50 C80,66.5685 66.5685,80 50,80 C33.4315,80 20,66.5685 20,50 C20,33.4315 33.4315,20 50,20 C66.5685,20 80,33.4315 80,50 z" fill-rule="nonzero" vector-effect="none"/></g><defs><clipPath id="clip155"><path d="M1,1 L101,1 L101,101 L1,101 L1,1 z"/></clipPath></defs><g clip-path="url(#clip155)" fill="none" opacity="1" stroke="#000000" stroke-linecap="butt" stroke-linejoin="miter" stroke-miterlimit="4" stroke-opacity="1" stroke-width="0.7" transform="matrix(1.66667,0,0,1.85185,23.8889,5.55556)"><path d="M48.4,56.2471 L48.4,19.1117" fill-rule="nonzero" vector-effect="none"/></g><defs><clipPath id="clip157"><path d="M0,0 L100,0 L100,100 L0,100 L0,0 z"/></clipPath></defs><g clip-path="url(#clip157)" fill="none" opacity="1" stroke="#000000" stroke-linecap="butt" stroke-linejoin="miter" stroke-miterlimit="4" stroke-opacity="1" stroke-width="10" transform="matrix(2.85741e-18,-0.0518519,0.0466667,3.17491e-18,102.222,43.5402)"><path d="M80,50 C80,66.5685 66.5685,80 50,80 C33.4315,80 20,66.5685 20,50 C20,33.4315 33.4315,20 50,20 C66.5685,20 80,33.4315 80,50 z" fill-rule="nonzero" vector-effect="none"/></g><defs><clipPath id="clip161"><path d="M1,1 L101,1 L101,101 L1,101 L1,1 z"/></clipPath></defs><g clip-path="url(#clip161)" fill="none" opacity="1" stroke="#000000" stroke-linecap="butt" stroke-linejoin="miter" stroke-miterlimit="4" stroke-opacity="1" stroke-width="0.7" transform="matrix(1.66667,0,0,1.85185,23.8889,5.55556)"><path d="M50,56.2471 L50,15" fill-rule="nonzero" vector-effect="none"/></g><defs><clipPath id="clip163"><path d="M0,0 L100,0 L100,100 L0,100 L0,0 z"/></clipPath></defs><g clip-path="url(#clip163)" fill="none" opacity="1" stroke="#000000" stroke-linecap="butt" stroke-linejoin="miter" stroke-miterlimit="4" stroke-opacity="1" stroke-width="10" transform="matrix(2.85741e-18,-0.0518519,0.0466667,3.17491e-18,104.889,35.9259)"><path d="M80,50 C80,66.5685 66.5685,80 50,80 C33.4315,80 20,66.5685 20,50 C20,33.4315 33.4315,20 50,20 C66.5685,20 80,33.4315 80,50 z" fill-rule="nonzero" vector-effect="none"/></g><defs><clipPath id="clip167"><path d="M1,1 L101,1 L101,101 L1,101 L1,1 z"/></clipPath></defs><g clip-path="url(#clip167)" fill="none" opacity="1" stroke="#000000" stroke-linecap="butt" stroke-linejoin="miter" stroke-miterlimit="4" stroke-opacity="1" stroke-width="0.7" transform="matrix(1.66667,0,0,1.85185,23.8889,5.55556)"><path d="M51.6,56.2471 L51.6,19.1117" fill-rule="nonzero" vector-effect="none"/></g><defs><clipPath id="clip169"><path d="M0,0 L100,0 L100,100 L0,100 L0,0 z"/></clipPath></defs><g clip-path="url(#clip169)" fill="none" opacity="1" stroke="#000000" stroke-linecap="butt" stroke-linejoin="miter" stroke-miterlimit="4" stroke-opacity="1" stroke-width="10" transform="matrix(2.85741e-18,-0.0518519,0.0466667,3.17491e-18,107.556,43.5402)"><path d="M80,50 C80,66.5685 66.5685,80 50,80 C33.4315,80 20,66.5685 20,50 C20,33.4315 33.4315,20 50,20 C66.5685,20 80,33.4315 80,50 z" fill-rule="nonzero" vector-effect="none"/></g><defs><clipPath id="clip173"><path d="M1,1 L101,1 L101,101 L1,101 L1,1 z"/></clipPath></defs><g clip-path="url(#clip173)" fill="none" opacity="1" stroke="#000000" stroke-linecap="butt" stroke-linejoin="miter" stroke-miterlimit="4" stroke-opacity="1" stroke-width="0.7" transform="matrix(1.66667,0,0,1.85185,23.8889,5.55556)"><path d="M53.2,56.2471 L53.2,29.9884" fill-rule="nonzero" vector-effect="none"/></g><defs><clipPath id="clip175"><path d="M0,0 L100,0 L100,100 L0,100 L0,0 z"/></clipPath></defs><g clip-path="url(#clip175)" fill="none" opacity="1" stroke="#000000" stroke-linecap="butt" stroke-linejoin="miter" stroke-miterlimit="4" stroke-opacity="1" stroke-width="10" transform="matrix(2.85741e-18,-0.0518519,0.0466667,3.17491e-18,110.222,63.6822)"><path d="M80,50 C80,66.5685 66.5685,80 50,80 C33.4315,80 20,66.5685 20,50 C20,33.4315 33.4315,20 50,20 C66.5685,20 80,33.4315 80,50 z" fill-rule="nonzero" vector-effect="none"/></g><defs><clipPath id="clip179"><path d="M1,1 L101,1 L101,101 L1,101 L1,1 z"/></clipPath></defs><g clip-path="url(#clip179)" fill="none" opacity="1" stroke="#000000" stroke-linecap="butt" stroke-linejoin="miter" stroke-miterlimit="4" stroke-opacity="1" stroke-width="0.7" transform="matrix(1.66667,0,0,1.85185,23.8889,5.55556)"><path d="M54.8,56.2471 L54.8,43.8686" fill-rule="nonzero" vector-effect="none"/></g><defs><clipPath id="clip181"><path d="M0,0 L100,0 L100,100 L0,100 L0,0 z"/></clipPath></defs><g clip-path="url(#clip181)" fill="none" opacity="1" stroke="#000000" stroke-linecap="butt" stroke-linejoin="miter" stroke-miterlimit="4" stroke-opacity="1" stroke-width="10" transform="matrix(2.85741e-18,-0.0518519,0.0466667,3.17491e-18,112.889,89.3863)"><path d="M80,50 C80,66.5685 66.5685,80 50,80 C33.4315,80 20,66.5685 20,50 C20,33.4315 33.4315,20 50,20 C66.5685,20 80,33.4315 80,50 z" fill-rule="nonzero" vector-effect="none"/></g><defs><clipPath id="clip186"><path d="M0,0 L100,0 L100,100 L0,100 L0,0 z"/></clipPath></defs><g clip-path="url(#clip186)" fill="none" opacity="1" stroke="#000000" stroke-linecap="butt" stroke-linejoin="miter" stroke-miterlimit="4" stroke-opacity="1" stroke-width="10" transform="matrix(0.0330431,0.036615,-0.0329535,0.0367145,117.884,106.05)"><path d="M80,50 C80,66.5685 66.5685,80 50,80 C33.4315,80 20,66.5685 20,50 C20,33.4315 33.4315,20 50,20 C66.5685,20 80,33.4315 80,50 z" fill-rule="nonzero" vector-effect="none"/></g><defs><clipPath id="clip190"><path d="M1,1 L101,1 L101,101 L1,101 L1,1 z"/></clipPath></defs><g clip-path="url(#clip190)" fill="none" opacity="1" stroke="#000000" stroke-linecap="butt" stroke-linejoin="miter" stroke-miterlimit="4" stroke-opacity="1" stroke-width="0.7" transform="matrix(1.66667,0,0,1.85185,23.8889,5.55556)"><path d="M58,56.2471 L58,63.6742" fill-rule="nonzero" vector-effect="none"/></g><defs><clipPath id="clip192"><path d="M0,0 L100,0 L100,100 L0,100 L0,0 z"/></clipPath></defs><g clip-path="url(#clip192)" fill="none" opacity="1" stroke="#000000" stroke-linecap="butt" stroke-linejoin="miter" stroke-miterlimit="4" stroke-opacity="1" stroke-width="10" transform="matrix(2.85741e-18,0.0518519,-0.0466667,3.17491e-18,122.889,120.878)"><path d="M80,50 C80,66.5685 66.5685,80 50,80 C33.4315,80 20,66.5685 20,50 C20,33.4315 33.4315,20 50,20 C66.5685,20 80,33.4315 80,50 z" fill-rule="nonzero" vector-effect="none"/></g><defs><clipPath id="clip196"><path d="M1,1 L101,1 L101,101 L1,101 L1,1 z"/></clipPath></defs><g clip-path="url(#clip196)" fill="none" opacity="1" stroke="#000000" stroke-linecap="butt" stroke-linejoin="miter" stroke-miterlimit="4" stroke-opacity="1" stroke-width="0.7" transform="matrix(1.66667,0,0,1.85185,23.8889,5.55556)"><path d="M59.6,56.2471 L59.6,65" fill-rule="nonzero" vector-effect="none"/></g><defs><clipPath id="clip198"><path d="M0,0 L100,0 L100,100 L0,100 L0,0 z"/></clipPath></defs><g clip-path="url(#clip198)" fill="none" opacity="1" stroke="#000000" stroke-linecap="butt" stroke-linejoin="miter" stroke-miterlimit="4" stroke-opacity="1" stroke-width="10" transform="matrix(2.85741e-18,0.0518519,-0.0466667,3.17491e-18,125.556,123.333)"><path d="M80,50 C80,66.5685 66.5685,80 50,80 C33.4315,80 20,66.5685 20,50 C20,33.4315 33.4315,20 50,20 C66.5685,20 80,33.4315 80,50 z" fill-rule="nonzero" vector-effect="none"/></g><defs><clipPath id="clip202"><path d="M1,1 L101,1 L101,101 L1,101 L1,1 z"/></clipPath></defs><g clip-path="url(#clip202)" fill="none" opacity="1" stroke="#000000" stroke-linecap="butt" stroke-linejoin="miter" stroke-miterlimit="4" stroke-opacity="1" stroke-width="0.7" transform="matrix(1.66667,0,0,1.85185,23.8889,5.55556)"><path d="M61.2,56.2471 L61.2,61.5522" fill-rule="nonzero" vector-effect="none"/></g><defs><clipPath id="clip204"><path d="M0,0 L100,0 L100,100 L0,100 L0,0 z"/></clipPath></defs><g clip-path="url(#clip204)" fill="none" opacity="1" stroke="#000000" stroke-linecap="butt" stroke-linejoin="miter" stroke-miterlimit="4" stroke-opacity="1" stroke-width="10" transform="matrix(2.85741e-18,0.0518519,-0.0466667,3.17491e-18,128.222,116.949)"><path d="M80,50 C80,66.5685 66.5685,80 50,80 C33.4315,80 20,66.5685 20,50 C20,33.4315 33.4315,20 50,20 C66.5685,20 80,33.4315 80,50 z" fill-rule="nonzero" vector-effect="none"/></g><defs><clipPath id="clip209"><path d="M0,0 L100,0 L100,100 L0,100 L0,0 z"/></clipPath></defs><g clip-path="url(#clip209)" fill="none" opacity="1" stroke="#000000" stroke-linecap="butt" stroke-linejoin="miter" stroke-miterlimit="4" stroke-opacity="1" stroke-width="10" transform="matrix(0.0347621,0.0345942,-0.0311348,0.0386245,128.374,106.056)"><path d="M80,50 C80,66.5685 66.5685,80 50,80 C33.4315,80 20,66.5685 20,50 C20,33.4315 33.4315,20 50,20 C66.5685,20 80,33.4315 80,50 z" fill-rule="nonzero" vector-effect="none"/></g><defs><clipPath id="clip213"><path d="M1,1 L101,1 L101,101 L1,101 L1,1 z"/></clipPath></defs><g clip-path="url(#clip213)" fill="none" opacity="1" stroke="#000000" stroke-linecap="butt" stroke-linejoin="miter" stroke-miterlimit="4" stroke-opacity="1" stroke-width="0.7" transform="matrix(1.66667,0,0,1.85185,23.8889,5.55556)"><path d="M64.4,56.2471 L64.4,52.1209" fill-rule="nonzero" vector-effect="none"/></g><defs><clipPath id="clip215"><path d="M0,0 L100,0 L100,100 L0,100 L0,0 z"/></clipPath></defs><g clip-path="url(#clip215)" fill="none" opacity="1" stroke="#000000" stroke-linecap="butt" stroke-linejoin="miter" stroke-miterlimit="4" stroke-opacity="1" stroke-width="10" transform="matrix(2.85741e-18,-0.0518519,0.0466667,3.17491e-18,128.889,104.668)"><path d="M80,50 C80,66.5685 66.5685,80 50,80 C33.4315,80 20,66.5685 20,50 C20,33.4315 33.4315,20 50,20 C66.5685,20 80,33.4315 80,50 z" fill-rule="nonzero" vector-effect="none"/></g><defs><clipPath id="clip219"><path d="M1,1 L101,1 L101,101 L1,101 L1,1 z"/></clipPath></defs><g clip-path="url(#clip219)" fill="none" opacity="1" stroke="#000000" stroke-linecap="butt" stroke-linejoin="miter" stroke-miterlimit="4" stroke-opacity="1" stroke-width="0.7" transform="matrix(1.66667,0,0,1.85185,23.8889,5.55556)"><path d="M66,56.2471 L66,50.9954" fill-rule="nonzero" vector-effect="none"/></g><defs><clipPath id="clip221"><path d="M0,0 L100,0 L100,100 L0,100 L0,0 z"/></clipPath></defs><g clip-path="url(#clip221)" fill="none" opacity="1" stroke="#000000" stroke-linecap="butt" stroke-linejoin="miter" stroke-miterlimit="4" stroke-opacity="1" stroke-width="10" transform="matrix(2.85741e-18,-0.0518519,0.0466667,3.17491e-18,131.556,102.584)"><path d="M80,50 C80,66.5685 66.5685,80 50,80 C33.4315,80 20,66.5685 20,50 C20,33.4315 33.4315,20 50,20 C66.5685,20 80,33.4315 80,50 z" fill-rule="nonzero" vector-effect="none"/></g><defs><clipPath id="clip225"><path d="M1,1 L101,1 L101,101 L1,101 L1,1 z"/></clipPath></defs><g clip-path="url(#clip225)" fill="none" opacity="1" stroke="#000000" stroke-linecap="butt" stroke-linejoin="miter" stroke-miterlimit="4" stroke-opacity="1" stroke-width="0.7" transform="matrix(1.66667,0,0,1.85185,23.8889,5.55556)"><path d="M67.6,56.2471 L67.6,52.8711" fill-rule="nonzero" vector-effect="none"/></g><defs><clipPath id="clip227"><path d="M0,0 L100,0 L100,100 L0,100 L0,0 z"/></clipPath></defs><g clip-path="url(#clip227)" fill="none" opacity="1" stroke="#000000" stroke-linecap="butt" stroke-linejoin="miter" stroke-miterlimit="4" stroke-opacity="1" stroke-width="10" transform="matrix(2.85741e-18,-0.0518519,0.0466667,3.17491e-18,134.222,106.058)"><path d="M80,50 C80,66.5685 66.5685,80 50,80 C33.4315,80 20,66.5685 20,50 C20,33.4315 33.4315,20 50,20 C66.5685,20 80,33.4315 80,50 z" fill-rule="nonzero" vector-effect="none"/></g><defs><clipPath id="clip232"><path d="M0,0 L100,0 L100,100 L0,100 L0,0 z"/></clipPath></defs><g clip-path="url(#clip232)" fill="none" opacity="1" stroke="#000000" stroke-linecap="butt" stroke-linejoin="miter" stroke-miterlimit="4" stroke-opacity="1" stroke-width="10" transform="matrix(0.036213,0.0327051,-0.0294346,0.0402367,138.883,106.07)"><path d="M80,50 C80,66.5685 66.5685,80 50,80 C33.4315,80 20,66.5685 20,50 C20,33.4315 33.4315,20 50,20 C66.5685,20 80,33.4315 80,50 z" fill-rule="nonzero" vector-effect="none"/></g><defs><clipPath id="clip236"><path d="M1,1 L101,1 L101,101 L1,101 L1,1 z"/></clipPath></defs><g clip-path="url(#clip236)" fill="none" opacity="1" stroke="#000000" stroke-linecap="butt" stroke-linejoin="miter" stroke-miterlimit="4" stroke-opacity="1" stroke-width="0.7" transform="matrix(1.66667,0,0,1.85185,23.8889,5.55556)"><path d="M70.8,56.2471 L70.8,59.1037" fill-rule="nonzero" vector-effect="none"/></g><defs><clipPath id="clip238"><path d="M0,0 L100,0 L100,100 L0,100 L0,0 z"/></clipPath></defs><g clip-path="url(#clip238)" fill="none" opacity="1" stroke="#000000" stroke-linecap="butt" stroke-linejoin="miter" stroke-miterlimit="4" stroke-opacity="1" stroke-width="10" transform="matrix(2.85741e-18,0.0518519,-0.0466667,3.17491e-18,144.222,112.414)"><path d="M80,50 C80,66.5685 66.5685,80 50,80 C33.4315,80 20,66.5685 20,50 C20,33.4315 33.4315,20 50,20 C66.5685,20 80,33.4315 80,50 z" fill-rule="nonzero" vector-effect="none"/></g><defs><clipPath id="clip242"><path d="M1,1 L101,1 L101,101 L1,101 L1,1 z"/></clipPath></defs><g clip-path="url(#clip242)" fill="none" opacity="1" stroke="#000000" stroke-linecap="butt" stroke-linejoin="miter" stroke-miterlimit="4" stroke-opacity="1" stroke-width="0.7" transform="matrix(1.66667,0,0,1.85185,23.8889,5.55556)"><path d="M72.4,56.2471 L72.4,59.9983" fill-rule="nonzero" vector-effect="none"/></g><defs><clipPath id="clip244"><path d="M0,0 L100,0 L100,100 L0,100 L0,0 z"/></clipPath></defs><g clip-path="url(#clip244)" fill="none" opacity="1" stroke="#000000" stroke-linecap="butt" stroke-linejoin="miter" stroke-miterlimit="4" stroke-opacity="1" stroke-width="10" transform="matrix(2.85741e-18,0.0518519,-0.0466667,3.17491e-18,146.889,114.071)"><path d="M80,50 C80,66.5685 66.5685,80 50,80 C33.4315,80 20,66.5685 20,50 C20,33.4315 33.4315,20 50,20 C66.5685,20 80,33.4315 80,50 z" fill-rule="nonzero" vector-effect="none"/></g><defs><clipPath id="clip248"><path d="M1,1 L101,1 L101,101 L1,101 L1,1 z"/></clipPath></defs><g clip-path="url(#clip248)" fill="none" opacity="1" stroke="#000000" stroke-linecap="butt" stroke-linejoin="miter" stroke-miterlimit="4" stroke-opacity="1" stroke-width="0.7" transform="matrix(1.66667,0,0,1.85185,23.8889,5.55556)"><path d="M74,56.2471 L74,58.7228" fill-rule="nonzero" vector-effect="none"/></g><defs><clipPath id="clip250"><path d="M0,0 L100,0 L100,100 L0,100 L0,0 z"/></clipPath></defs><g clip-path="url(#clip250)" fill="none" opacity="1" stroke="#000000" stroke-linecap="butt" stroke-linejoin="miter" stroke-miterlimit="4" stroke-opacity="1" stroke-width="10" transform="matrix(2.85741e-18,0.0518519,-0.0466667,3.17491e-18,149.556,111.709)"><path d="M80,50 C80,66.5685 66.5685,80 50,80 C33.4315,80 20,66.5685 20,50 C20,33.4315 33.4315,20 50,20 C66.5685,20 80,33.4315 80,50 z" fill-rule="nonzero" vector-effect="none"/></g><defs><clipPath id="clip255"><path d="M0,0 L100,0 L100,100 L0,100 L0,0 z"/></clipPath></defs><g clip-path="url(#clip255)" fill="none" opacity="1" stroke="#000000" stroke-linecap="butt" stroke-linejoin="miter" stroke-miterlimit="4" stroke-opacity="1" stroke-width="10" transform="matrix(0.0374407,0.0309514,-0.0278562,0.0416008,149.41,106.089)"><path d="M80,50 C80,66.5685 66.5685,80 50,80 C33.4315,80 20,66.5685 20,50 C20,33.4315 33.4315,20 50,20 C66.5685,20 80,33.4315 80,50 z" fill-rule="nonzero" vector-effect="none"/></g><defs><clipPath id="clip259"><path d="M1,1 L101,1 L101,101 L1,101 L1,1 z"/></clipPath></defs><g clip-path="url(#clip259)" fill="none" opacity="1" stroke="#000000" stroke-linecap="butt" stroke-linejoin="miter" stroke-miterlimit="4" stroke-opacity="1" stroke-width="0.7" transform="matrix(1.66667,0,0,1.85185,23.8889,5.55556)"><path d="M77.2,56.2471 L77.2,54.0627" fill-rule="nonzero" vector-effect="none"/></g><defs><clipPath id="clip261"><path d="M0,0 L100,0 L100,100 L0,100 L0,0 z"/></clipPath></defs><g clip-path="url(#clip261)" fill="none" opacity="1" stroke="#000000" stroke-linecap="butt" stroke-linejoin="miter" stroke-miterlimit="4" stroke-opacity="1" stroke-width="10" transform="matrix(2.85741e-18,-0.0518519,0.0466667,3.17491e-18,150.222,108.264)"><path d="M80,50 C80,66.5685 66.5685,80 50,80 C33.4315,80 20,66.5685 20,50 C20,33.4315 33.4315,20 50,20 C66.5685,20 80,33.4315 80,50 z" fill-rule="nonzero" vector-effect="none"/></g><defs><clipPath id="clip265"><path d="M1,1 L101,1 L101,101 L1,101 L1,1 z"/></clipPath></defs><g clip-path="url(#clip265)" fill="none" opacity="1" stroke="#000000" stroke-linecap="butt" stroke-linejoin="miter" stroke-miterlimit="4" stroke-opacity="1" stroke-width="0.7" transform="matrix(1.66667,0,0,1.85185,23.8889,5.55556)"><path d="M78.8,56.2471 L78.8,53.3295" fill-rule="nonzero" vector-effect="none"/></g><defs><clipPath id="clip267"><path d="M0,0 L100,0 L100,100 L0,100 L0,0 z"/></clipPath></defs><g clip-path="url(#clip267)" fill="none" opacity="1" stroke="#000000" stroke-linecap="butt" stroke-linejoin="miter" stroke-miterlimit="4" stroke-opacity="1" stroke-width="10" transform="matrix(2.85741e-18,-0.0518519,0.0466667,3.17491e-18,152.889,106.906)"><path d="M80,50 C80,66.5685 66.5685,80 50,80 C33.4315,80 20,66.5685 20,50 C20,33.4315 33.4315,20 50,20 C66.5685,20 80,33.4315 80,50 z" fill-rule="nonzero" vector-effect="none"/></g><defs><clipPath id="clip271"><path d="M1,1 L101,1 L101,101 L1,101 L1,1 z"/></clipPath></defs><g clip-path="url(#clip271)" fill="none" opacity="1" stroke="#000000" stroke-linecap="butt" stroke-linejoin="miter" stroke-miterlimit="4" stroke-opacity="1" stroke-width="0.7" transform="matrix(1.66667,0,0,1.85185,23.8889,5.55556)"><path d="M80.4,56.2471 L80.4,54.2926" fill-rule="nonzero" vector-effect="none"/></g><defs><clipPath id="clip273"><path d="M0,0 L100,0 L100,100 L0,100 L0,0 z"/></clipPath></defs><g clip-path="url(#clip273)" fill="none" opacity="1" stroke="#000000" stroke-linecap="butt" stroke-linejoin="miter" stroke-miterlimit="4" stroke-opacity="1" stroke-width="10" transform="matrix(2.85741e-18,-0.0518519,0.0466667,3.17491e-18,155.556,108.69)"><path d="M80,50 C80,66.5685 66.5685,80 50,80 C33.4315,80 20,66.5685 20,50 C20,33.4315 33.4315,20 50,20 C66.5685,20 80,33.4315 80,50 z" fill-rule="nonzero" vector-effect="none"/></g><defs><clipPath id="clip278"><path d="M0,0 L100,0 L100,100 L0,100 L0,0 z"/></clipPath></defs><g clip-path="url(#clip278)" fill="none" opacity="1" stroke="#000000" stroke-linecap="butt" stroke-linejoin="miter" stroke-miterlimit="4" stroke-opacity="1" stroke-width="10" transform="matrix(0.0384833,0.0293303,-0.0263972,0.0427592,159.951,106.112)"><path d="M80,50 C80,66.5685 66.5685,80 50,80 C33.4315,80 20,66.5685 20,50 C20,33.4315 33.4315,20 50,20 C66.5685,20 80,33.4315 80,50 z" fill-rule="nonzero" vector-effect="none"/></g><defs><clipPath id="clip282"><path d="M1,1 L101,1 L101,101 L1,101 L1,1 z"/></clipPath></defs><g clip-path="url(#clip282)" fill="none" opacity="1" stroke="#000000" stroke-linecap="butt" stroke-linejoin="miter" stroke-miterlimit="4" stroke-opacity="1" stroke-width="0.7" transform="matrix(1.66667,0,0,1.85185,23.8889,5.55556)"><path d="M83.6,56.2471 L83.6,58.0154" fill-rule="nonzero" vector-effect="none"/></g><defs><clipPath id="clip284"><path d="M0,0 L100,0 L100,100 L0,100 L0,0 z"/></clipPath></defs><g clip-path="url(#clip284)" fill="none" opacity="1" stroke="#000000" stroke-linecap="butt" stroke-linejoin="miter" stroke-miterlimit="4" stroke-opacity="1" stroke-width="10" transform="matrix(2.85741e-18,0.0518519,-0.0466667,3.17491e-18,165.556,110.399)"><path d="M80,50 C80,66.5685 66.5685,80 50,80 C33.4315,80 20,66.5685 20,50 C20,33.4315 33.4315,20 50,20 C66.5685,20 80,33.4315 80,50 z" fill-rule="nonzero" vector-effect="none"/></g><defs><clipPath id="clip288"><path d="M1,1 L101,1 L101,101 L1,101 L1,1 z"/></clipPath></defs><g clip-path="url(#clip288)" fill="none" opacity="1" stroke="#000000" stroke-linecap="butt" stroke-linejoin="miter" stroke-miterlimit="4" stroke-opacity="1" stroke-width="0.7" transform="matrix(1.66667,0,0,1.85185,23.8889,5.55556)"><path d="M85.2,56.2471 L85.2,58.6343" fill-rule="nonzero" vector-effect="none"/></g><defs><clipPath id="clip290"><path d="M0,0 L100,0 L100,100 L0,100 L0,0 z"/></clipPath></defs><g clip-path="url(#clip290)" fill="none" opacity="1" stroke="#000000" stroke-linecap="butt" stroke-linejoin="miter" stroke-miterlimit="4" stroke-opacity="1" stroke-width="10" transform="matrix(2.85741e-18,0.0518519,-0.0466667,3.17491e-18,168.222,111.545)"><path d="M80,50 C80,66.5685 66.5685,80 50,80 C33.4315,80 20,66.5685 20,50 C20,33.4315 33.4315,20 50,20 C66.5685,20 80,33.4315 80,50 z" fill-rule="nonzero" vector-effect="none"/></g><defs><clipPath id="clip294"><path d="M1,1 L101,1 L101,101 L1,101 L1,1 z"/></clipPath></defs><g clip-path="url(#clip294)" fill="none" opacity="1" stroke="#000000" stroke-linecap="butt" stroke-linejoin="miter" stroke-miterlimit="4" stroke-opacity="1" stroke-width="0.7" transform="matrix(1.66667,0,0,1.85185,23.8889,5.55556)"><path d="M86.8,56.2471 L86.8,57.8617" fill-rule="nonzero" vector-effect="none"/></g><defs><clipPath id="clip296"><path d="M0,0 L100,0 L100,100 L0,100 L0,0 z"/></clipPath></defs><g clip-path="url(#clip296)" fill="none" opacity="1" stroke="#000000" stroke-linecap="butt" stroke-linejoin="miter" stroke-miterlimit="4" stroke-opacity="1" stroke-width="10" transform="matrix(2.85741e-18,0.0518519,-0.0466667,3.17491e-18,170.889,110.114)"><path d="M80,50 C80,66.5685 66.5685,80 50,80 C33.4315,80 20,66.5685 20,50 C20,33.4315 33.4315,20 50,20 C66.5685,20 80,33.4315 80,50 z" fill-rule="nonzero" vector-effect="none"/></g><defs><clipPath id="clip301"><path d="M0,0 L100,0 L100,100 L0,100 L0,0 z"/></clipPath></defs><g clip-path="url(#clip301)" fill="none" opacity="1" stroke="#000000" stroke-linecap="butt" stroke-linejoin="miter" stroke-miterlimit="4" stroke-opacity="1" stroke-width="10" transform="matrix(0.0393724,0.0278354,-0.0250518,0.0437471,170.506,106.138)"><path d="M80,50 C80,66.5685 66.5685,80 50,80 C33.4315,80 20,66.5685 20,50 C20,33.4315 33.4315,20 50,20 C66.5685,20 80,33.4315 80,50 z" fill-rule="nonzero" vector-effect="none"/></g><defs><clipPath id="clip324"><path d="M-7,-2 L47,-2 L47,52 L-7,52 L-7,-2 z"/></clipPath></defs><g clip-path="url(#clip324)" fill="none" opacity="1" stroke="#000000" stroke-linecap="butt" stroke-linejoin="miter" stroke-miterlimit="2" stroke-opacity="1" stroke-width="0.592305" transform="matrix(3.7037,0,0,3.7037,25.9259,7.40741)"><path d="M0,0 L45,0 L45,50 L0,50 L0,0 z" fill-rule="evenodd" vector-effect="none"/></g></g></svg>
