<?xml version="1.0" encoding="UTF-8"?><svg width="50.8mm" height="52.9167mm" viewBox="0 0 192 200" xmlns="http://www.w3.org/2000/svg" xmlns:xlink="http://www.w3.org/1999/xlink"><g fill="none" stroke="black" stroke-width="1" fill-rule="evenodd" stroke-linecap="square" stroke-linejoin="bevel"><g clip-path="none" fill="none" opacity="1" stroke="none" stroke-opacity="0" transform="matrix(1,0,0,1,0,0)"><path d="M0,0 L192,0 L192,200 L0,200 L0,0 z" fill-rule="evenodd" vector-effect="none"/></g><defs><clipPath id="clip3"><path d="M7,28 L-47,28 L-47,-28 L7,-28 L7,28 z"/></clipPath></defs><g clip-path="url(#clip3)" fill="none" opacity="1" stroke="#000000" stroke-linecap="round" stroke-linejoin="miter" stroke-miterlimit="2" stroke-opacity="1" stroke-width="2" transform="matrix(-3.57143,0,0,-3.57143,25,100)"><path d="M5,-5 L0,0 L5,5" fill-rule="evenodd" vector-effect="none"/></g><defs><clipPath id="clip6"><path d="M-7,-2 L47,-2 L47,54 L-7,54 L-7,-2 z"/></clipPath></defs><g clip-path="url(#clip6)" fill="#ffffff" fill-opacity="1" opacity="1" stroke="none" stroke-opacity="0" transform="matrix(3.57143,0,0,3.57143,25,7.14286)"><path d="M0,0 L45,0 L45,52 L0,52 L0,0 z" fill-rule="evenodd" vector-effect="none"/></g><defs><clipPath id="clip10"><path d="M145,44 L190,44 L190,96 L145,96 L145,44 z"/></clipPath></defs><g clip-path="url(#clip10)" fill="#000000" fill-opacity="1" opacity="1" stroke="#000000" stroke-linecap="butt" stroke-linejoin="miter" stroke-miterlimit="2" stroke-opacity="1" stroke-width="0.28" transform="matrix(3.57143,0,0,3.57143,-492.857,-150)"><path d="M149,49 L186,49 L186,83 L149,83 L149,49 z" fill-rule="evenodd" vector-effect="none"/></g><defs><clipPath id="clip11"><path d="M145,44 L190,44 L190,96 L145,96 L145,44 z"/></clipPath></defs><g clip-path="url(#clip11)" fill="#bebebe" fill-opacity="1" opacity="1" stroke="#bebebe" stroke-linecap="square" stroke-linejoin="bevel" stroke-opacity="1" stroke-width="1" transform="matrix(3.57143,0,0,3.57143,-492.857,-150)"><path d="M151,51 L184,51 L184,81 L151,81 L151,51 z" fill-rule="evenodd" vector-effect="none"/></g><defs><clipPath id="clip12"><path d="M145,44 L190,44 L190,96 L145,96 L145,44 z"/></clipPath></defs><g clip-path="url(#clip12)" fill="#ffff00" fill-opacity="1" opacity="1" stroke="#ffff00" stroke-linecap="square" stroke-linejoin="bevel" stroke-opacity="1" stroke-width="1" transform="matrix(3.57143,0,0,3.57143,-492.857,-150)"><path d="M156,59 L158,59 L158,76 L156,76 L156,59 z" fill-rule="evenodd" vector-effect="none"/></g><defs><clipPath id="clip13"><path d="M145,44 L190,44 L190,96 L145,96 L145,44 z"/></clipPath></defs><g clip-path="url(#clip13)" fill="#ffff00" fill-opacity="1" opacity="1" stroke="#ffff00" stroke-linecap="square" stroke-linejoin="bevel" stroke-opacity="1" stroke-width="1" transform="matrix(3.57143,0,0,3.57143,-492.857,-150)"><path d="M159,65 L161,65 L161,76 L159,76 L159,65 z" fill-rule="evenodd" vector-effect="none"/></g><defs><clipPath id="clip14"><path d="M145,44 L190,44 L190,96 L145,96 L145,44 z"/></clipPath></defs><g clip-path="url(#clip14)" fill="#ffff00" fill-opacity="1" opacity="1" stroke="#ffff00" stroke-linecap="square" stroke-linejoin="bevel" stroke-opacity="1" stroke-width="1" transform="matrix(3.57143,0,0,3.57143,-492.857,-150)"><path d="M162,55 L164,55 L164,76 L162,76 L162,55 z" fill-rule="evenodd" vector-effect="none"/></g><defs><clipPath id="clip15"><path d="M145,44 L190,44 L190,96 L145,96 L145,44 z"/></clipPath></defs><g clip-path="url(#clip15)" fill="#ffff00" fill-opacity="1" opacity="1" stroke="#ffff00" stroke-linecap="square" stroke-linejoin="bevel" stroke-opacity="1" stroke-width="1" transform="matrix(3.57143,0,0,3.57143,-492.857,-150)"><path d="M165,62 L167,62 L167,76 L165,76 L165,62 z" fill-rule="evenodd" vector-effect="none"/></g><defs><clipPath id="clip16"><path d="M145,44 L190,44 L190,96 L145,96 L145,44 z"/></clipPath></defs><g clip-path="url(#clip16)" fill="#ffff00" fill-opacity="1" opacity="1" stroke="#ffff00" stroke-linecap="square" stroke-linejoin="bevel" stroke-opacity="1" stroke-width="1" transform="matrix(3.57143,0,0,3.57143,-492.857,-150)"><path d="M168,62 L170,62 L170,76 L168,76 L168,62 z" fill-rule="evenodd" vector-effect="none"/></g><defs><clipPath id="clip17"><path d="M145,44 L190,44 L190,96 L145,96 L145,44 z"/></clipPath></defs><g clip-path="url(#clip17)" fill="#ffff00" fill-opacity="1" opacity="1" stroke="#ffff00" stroke-linecap="square" stroke-linejoin="bevel" stroke-opacity="1" stroke-width="1" transform="matrix(3.57143,0,0,3.57143,-492.857,-150)"><path d="M171,58 L173,58 L173,76 L171,76 L171,58 z" fill-rule="evenodd" vector-effect="none"/></g><defs><clipPath id="clip18"><path d="M145,44 L190,44 L190,96 L145,96 L145,44 z"/></clipPath></defs><g clip-path="url(#clip18)" fill="#ffff00" fill-opacity="1" opacity="1" stroke="#ffff00" stroke-linecap="square" stroke-linejoin="bevel" stroke-opacity="1" stroke-width="1" transform="matrix(3.57143,0,0,3.57143,-492.857,-150)"><path d="M174,71 L176,71 L176,76 L174,76 L174,71 z" fill-rule="evenodd" vector-effect="none"/></g><defs><clipPath id="clip19"><path d="M145,44 L190,44 L190,96 L145,96 L145,44 z"/></clipPath></defs><g clip-path="url(#clip19)" fill="#000000" fill-opacity="1" opacity="1" stroke="#000000" stroke-linecap="square" stroke-linejoin="bevel" stroke-opacity="1" stroke-width="1" transform="matrix(3.57143,0,0,3.57143,-492.857,-150)"><path d="M154,54 L154,76 L154,54 z" fill-rule="evenodd" vector-effect="none"/></g><defs><clipPath id="clip20"><path d="M145,44 L190,44 L190,96 L145,96 L145,44 z"/></clipPath></defs><g clip-path="url(#clip20)" fill="#000000" fill-opacity="1" opacity="1" stroke="#000000" stroke-linecap="square" stroke-linejoin="bevel" stroke-opacity="1" stroke-width="1" transform="matrix(3.57143,0,0,3.57143,-492.857,-150)"><path d="M154,76 L181,76 L154,76 z" fill-rule="evenodd" vector-effect="none"/></g><defs><clipPath id="clip25"><path d="M-7,-2 L47,-2 L47,54 L-7,54 L-7,-2 z"/></clipPath></defs><g clip-path="url(#clip25)" fill="none" opacity="1" stroke="#000000" stroke-linecap="butt" stroke-linejoin="miter" stroke-miterlimit="2" stroke-opacity="1" stroke-width="0.600984" transform="matrix(3.57143,0,0,3.57143,25,7.14286)"><path d="M0,0 L45,0 L45,52 L0,52 L0,0 z" fill-rule="evenodd" vector-effect="none"/></g></g></svg>
