<?xml version="1.0" encoding="UTF-8"?><svg width="52.9167mm" height="46.8313mm" viewBox="0 0 200 177" xmlns="http://www.w3.org/2000/svg" xmlns:xlink="http://www.w3.org/1999/xlink"><g fill="none" stroke="black" stroke-width="1" fill-rule="evenodd" stroke-linecap="square" stroke-linejoin="bevel"><g clip-path="none" fill="none" opacity="1" stroke="none" stroke-opacity="0" transform="matrix(1,0,0,1,0,0)"><path d="M0,0 L200,0 L200,177 L0,177 L0,0 z" fill-rule="evenodd" vector-effect="none"/></g><defs><clipPath id="clip3"><path d="M-47,-24 L7,-24 L7,24 L-47,24 L-47,-24 z"/></clipPath></defs><g clip-path="url(#clip3)" fill="none" opacity="1" stroke="#000000" stroke-linecap="round" stroke-linejoin="miter" stroke-miterlimit="2" stroke-opacity="1" stroke-width="2" transform="matrix(3.7037,0,0,3.7037,174.074,88.8889)"><path d="M0,-5 L5,0 L0,5" fill-rule="evenodd" vector-effect="none"/></g><defs><clipPath id="clip6"><path d="M-2,-2 L52,-2 L52,46 L-2,46 L-2,-2 z"/></clipPath></defs><g clip-path="url(#clip6)" fill="#ffffff" fill-opacity="1" opacity="1" stroke="none" stroke-opacity="0" transform="matrix(3.7037,0,0,3.7037,7.40741,7.40741)"><path d="M0,0 L45,0 L45,44 L0,44 L0,0 z" fill-rule="evenodd" vector-effect="none"/></g><defs><clipPath id="clip10"><path d="M200,53 L245,53 L245,97 L200,97 L200,53 z"/></clipPath></defs><g clip-path="url(#clip10)" fill="none" opacity="1" stroke="#000000" stroke-linecap="butt" stroke-linejoin="miter" stroke-miterlimit="2" stroke-opacity="1" stroke-width="0.27" transform="matrix(3.7037,0,0,3.7037,-731.481,-187.037)"><polyline fill="none" points="203,75 207,75" vector-effect="none"/></g><defs><clipPath id="clip11"><path d="M200,53 L245,53 L245,97 L200,97 L200,53 z"/></clipPath></defs><g clip-path="url(#clip11)" fill="none" opacity="1" stroke="#000000" stroke-linecap="butt" stroke-linejoin="miter" stroke-miterlimit="2" stroke-opacity="1" stroke-width="0.27" transform="matrix(3.7037,0,0,3.7037,-731.481,-187.037)"><polyline fill="none" points="207,75 207,64" vector-effect="none"/></g><defs><clipPath id="clip12"><path d="M200,53 L245,53 L245,97 L200,97 L200,53 z"/></clipPath></defs><g clip-path="url(#clip12)" fill="none" opacity="1" stroke="#000000" stroke-linecap="butt" stroke-linejoin="miter" stroke-miterlimit="2" stroke-opacity="1" stroke-width="0.27" transform="matrix(3.7037,0,0,3.7037,-731.481,-187.037)"><polyline fill="none" points="207,64 211,64" vector-effect="none"/></g><defs><clipPath id="clip13"><path d="M200,53 L245,53 L245,97 L200,97 L200,53 z"/></clipPath></defs><g clip-path="url(#clip13)" fill="none" opacity="1" stroke="#000000" stroke-linecap="butt" stroke-linejoin="miter" stroke-miterlimit="2" stroke-opacity="1" stroke-width="0.27" transform="matrix(3.7037,0,0,3.7037,-731.481,-187.037)"><polyline fill="none" points="211,64 211,57" vector-effect="none"/></g><defs><clipPath id="clip14"><path d="M200,53 L245,53 L245,97 L200,97 L200,53 z"/></clipPath></defs><g clip-path="url(#clip14)" fill="none" opacity="1" stroke="#000000" stroke-linecap="butt" stroke-linejoin="miter" stroke-miterlimit="2" stroke-opacity="1" stroke-width="0.27" transform="matrix(3.7037,0,0,3.7037,-731.481,-187.037)"><polyline fill="none" points="211,57 215,57" vector-effect="none"/></g><defs><clipPath id="clip15"><path d="M200,53 L245,53 L245,97 L200,97 L200,53 z"/></clipPath></defs><g clip-path="url(#clip15)" fill="none" opacity="1" stroke="#000000" stroke-linecap="butt" stroke-linejoin="miter" stroke-miterlimit="2" stroke-opacity="1" stroke-width="0.27" transform="matrix(3.7037,0,0,3.7037,-731.481,-187.037)"><polyline fill="none" points="215,57 219,57" vector-effect="none"/></g><defs><clipPath id="clip16"><path d="M200,53 L245,53 L245,97 L200,97 L200,53 z"/></clipPath></defs><g clip-path="url(#clip16)" fill="none" opacity="1" stroke="#000000" stroke-linecap="butt" stroke-linejoin="miter" stroke-miterlimit="2" stroke-opacity="1" stroke-width="0.27" transform="matrix(3.7037,0,0,3.7037,-731.481,-187.037)"><polyline fill="none" points="219,57 219,64" vector-effect="none"/></g><defs><clipPath id="clip17"><path d="M200,53 L245,53 L245,97 L200,97 L200,53 z"/></clipPath></defs><g clip-path="url(#clip17)" fill="none" opacity="1" stroke="#000000" stroke-linecap="butt" stroke-linejoin="miter" stroke-miterlimit="2" stroke-opacity="1" stroke-width="0.27" transform="matrix(3.7037,0,0,3.7037,-731.481,-187.037)"><polyline fill="none" points="219,64 223,64" vector-effect="none"/></g><defs><clipPath id="clip18"><path d="M200,53 L245,53 L245,97 L200,97 L200,53 z"/></clipPath></defs><g clip-path="url(#clip18)" fill="none" opacity="1" stroke="#000000" stroke-linecap="butt" stroke-linejoin="miter" stroke-miterlimit="2" stroke-opacity="1" stroke-width="0.27" transform="matrix(3.7037,0,0,3.7037,-731.481,-187.037)"><polyline fill="none" points="223,64 223,75" vector-effect="none"/></g><defs><clipPath id="clip19"><path d="M200,53 L245,53 L245,97 L200,97 L200,53 z"/></clipPath></defs><g clip-path="url(#clip19)" fill="none" opacity="1" stroke="#000000" stroke-linecap="butt" stroke-linejoin="miter" stroke-miterlimit="2" stroke-opacity="1" stroke-width="0.27" transform="matrix(3.7037,0,0,3.7037,-731.481,-187.037)"><polyline fill="none" points="223,75 226,75" vector-effect="none"/></g><defs><clipPath id="clip20"><path d="M200,53 L245,53 L245,97 L200,97 L200,53 z"/></clipPath></defs><g clip-path="url(#clip20)" fill="none" opacity="1" stroke="#000000" stroke-linecap="butt" stroke-linejoin="miter" stroke-miterlimit="2" stroke-opacity="1" stroke-width="0.27" transform="matrix(3.7037,0,0,3.7037,-731.481,-187.037)"><polyline fill="none" points="226,75 226,86" vector-effect="none"/></g><defs><clipPath id="clip21"><path d="M200,53 L245,53 L245,97 L200,97 L200,53 z"/></clipPath></defs><g clip-path="url(#clip21)" fill="none" opacity="1" stroke="#000000" stroke-linecap="butt" stroke-linejoin="miter" stroke-miterlimit="2" stroke-opacity="1" stroke-width="0.27" transform="matrix(3.7037,0,0,3.7037,-731.481,-187.037)"><polyline fill="none" points="226,86 230,86" vector-effect="none"/></g><defs><clipPath id="clip22"><path d="M200,53 L245,53 L245,97 L200,97 L200,53 z"/></clipPath></defs><g clip-path="url(#clip22)" fill="none" opacity="1" stroke="#000000" stroke-linecap="butt" stroke-linejoin="miter" stroke-miterlimit="2" stroke-opacity="1" stroke-width="0.27" transform="matrix(3.7037,0,0,3.7037,-731.481,-187.037)"><polyline fill="none" points="230,86 230,93" vector-effect="none"/></g><defs><clipPath id="clip23"><path d="M200,53 L245,53 L245,97 L200,97 L200,53 z"/></clipPath></defs><g clip-path="url(#clip23)" fill="none" opacity="1" stroke="#000000" stroke-linecap="butt" stroke-linejoin="miter" stroke-miterlimit="2" stroke-opacity="1" stroke-width="0.27" transform="matrix(3.7037,0,0,3.7037,-731.481,-187.037)"><polyline fill="none" points="230,93 234,93" vector-effect="none"/></g><defs><clipPath id="clip24"><path d="M200,53 L245,53 L245,97 L200,97 L200,53 z"/></clipPath></defs><g clip-path="url(#clip24)" fill="none" opacity="1" stroke="#000000" stroke-linecap="butt" stroke-linejoin="miter" stroke-miterlimit="2" stroke-opacity="1" stroke-width="0.27" transform="matrix(3.7037,0,0,3.7037,-731.481,-187.037)"><polyline fill="none" points="234,93 238,93" vector-effect="none"/></g><defs><clipPath id="clip25"><path d="M200,53 L245,53 L245,97 L200,97 L200,53 z"/></clipPath></defs><g clip-path="url(#clip25)" fill="none" opacity="1" stroke="#000000" stroke-linecap="butt" stroke-linejoin="miter" stroke-miterlimit="2" stroke-opacity="1" stroke-width="0.27" transform="matrix(3.7037,0,0,3.7037,-731.481,-187.037)"><polyline fill="none" points="238,93 238,86" vector-effect="none"/></g><defs><clipPath id="clip26"><path d="M200,53 L245,53 L245,97 L200,97 L200,53 z"/></clipPath></defs><g clip-path="url(#clip26)" fill="none" opacity="1" stroke="#000000" stroke-linecap="butt" stroke-linejoin="miter" stroke-miterlimit="2" stroke-opacity="1" stroke-width="0.27" transform="matrix(3.7037,0,0,3.7037,-731.481,-187.037)"><polyline fill="none" points="238,86 242,86" vector-effect="none"/></g><defs><clipPath id="clip27"><path d="M200,53 L245,53 L245,97 L200,97 L200,53 z"/></clipPath></defs><g clip-path="url(#clip27)" fill="none" opacity="1" stroke="#000000" stroke-linecap="butt" stroke-linejoin="miter" stroke-miterlimit="2" stroke-opacity="1" stroke-width="0.27" transform="matrix(3.7037,0,0,3.7037,-731.481,-187.037)"><polyline fill="none" points="242,86 242,75" vector-effect="none"/></g><defs><clipPath id="clip28"><path d="M200,53 L245,53 L245,97 L200,97 L200,53 z"/></clipPath></defs><g clip-path="url(#clip28)" fill="none" opacity="1" stroke="#000000" stroke-linecap="butt" stroke-linejoin="miter" stroke-miterlimit="2" stroke-opacity="1" stroke-width="0.27" transform="matrix(3.7037,0,0,3.7037,-731.481,-187.037)"><polyline fill="none" points="203,56 203,94" vector-effect="none"/></g><defs><clipPath id="clip29"><path d="M200,53 L245,53 L245,97 L200,97 L200,53 z"/></clipPath></defs><g clip-path="url(#clip29)" fill="none" opacity="1" stroke="#000000" stroke-linecap="butt" stroke-linejoin="miter" stroke-miterlimit="2" stroke-opacity="1" stroke-width="0.27" transform="matrix(3.7037,0,0,3.7037,-731.481,-187.037)"><polyline fill="none" points="203,75 242,75" vector-effect="none"/></g><defs><clipPath id="clip31"><path d="M-113,-36 L117,-36 L117,189 L-113,189 L-113,-36 z"/></clipPath></defs><g clip-path="url(#clip31)" fill="none" opacity="1" stroke="#000000" stroke-linecap="butt" stroke-linejoin="miter" stroke-miterlimit="2" stroke-opacity="1" stroke-width="0.27" transform="matrix(0.72338,0,0,0.72338,88.8889,33.3333)"><text fill="#000000" fill-opacity="1" font-family="Liberation Sans" font-size="40" font-style="normal" font-weight="400" stroke="none" textLength="83" x="0" xml:space="preserve" y="17.9219">DSP</text></g><defs><clipPath id="clip37"><path d="M-2,-2 L52,-2 L52,46 L-2,46 L-2,-2 z"/></clipPath></defs><g clip-path="url(#clip37)" fill="none" opacity="1" stroke="#000000" stroke-linecap="butt" stroke-linejoin="miter" stroke-miterlimit="2" stroke-opacity="1" stroke-width="0.592305" transform="matrix(3.7037,0,0,3.7037,7.40741,7.40741)"><path d="M0,0 L45,0 L45,44 L0,44 L0,0 z" fill-rule="evenodd" vector-effect="none"/></g></g></svg>
