<?xml version="1.0" encoding="UTF-8"?><svg width="52.9167mm" height="46.8313mm" viewBox="0 0 200 177" xmlns="http://www.w3.org/2000/svg" xmlns:xlink="http://www.w3.org/1999/xlink"><g fill="none" stroke="black" stroke-width="1" fill-rule="evenodd" stroke-linecap="square" stroke-linejoin="bevel"><g clip-path="none" fill="none" opacity="1" stroke="none" stroke-opacity="0" transform="matrix(1,0,0,1,0,0)"><path d="M0,0 L200,0 L200,177 L0,177 L0,0 z" fill-rule="evenodd" vector-effect="none"/></g><defs><clipPath id="clip3"><path d="M-47,-24 L7,-24 L7,24 L-47,24 L-47,-24 z"/></clipPath></defs><g clip-path="url(#clip3)" fill="none" opacity="1" stroke="#000000" stroke-linecap="round" stroke-linejoin="miter" stroke-miterlimit="2" stroke-opacity="1" stroke-width="2" transform="matrix(3.7037,0,0,3.7037,174.074,88.8889)"><path d="M0,-5 L5,0 L0,5" fill-rule="evenodd" vector-effect="none"/></g><defs><clipPath id="clip6"><path d="M-2,-2 L52,-2 L52,46 L-2,46 L-2,-2 z"/></clipPath></defs><g clip-path="url(#clip6)" fill="#ffffff" fill-opacity="1" opacity="1" stroke="none" stroke-opacity="0" transform="matrix(3.7037,0,0,3.7037,7.40741,7.40741)"><path d="M0,0 L45,0 L45,44 L0,44 L0,0 z" fill-rule="evenodd" vector-effect="none"/></g><defs><clipPath id="clip10"><path d="M110,128 L155,128 L155,172 L110,172 L110,128 z"/></clipPath></defs><g clip-path="url(#clip10)" fill="none" opacity="1" stroke="#000000" stroke-linecap="butt" stroke-linejoin="miter" stroke-miterlimit="2" stroke-opacity="1" stroke-width="0.27" transform="matrix(3.7037,0,0,3.7037,-398.148,-464.815)"><polyline fill="none" points="146,150 152,150" vector-effect="none"/></g><defs><clipPath id="clip11"><path d="M110,128 L155,128 L155,172 L110,172 L110,128 z"/></clipPath></defs><g clip-path="url(#clip11)" fill="none" opacity="1" stroke="#000000" stroke-linecap="butt" stroke-linejoin="miter" stroke-miterlimit="2" stroke-opacity="1" stroke-width="0.27" transform="matrix(3.7037,0,0,3.7037,-398.148,-464.815)"><polyline fill="none" points="129,141 119,141" vector-effect="none"/></g><defs><clipPath id="clip12"><path d="M110,128 L155,128 L155,172 L110,172 L110,128 z"/></clipPath></defs><g clip-path="url(#clip12)" fill="none" opacity="1" stroke="#000000" stroke-linecap="butt" stroke-linejoin="miter" stroke-miterlimit="2" stroke-opacity="1" stroke-width="0.27" transform="matrix(3.7037,0,0,3.7037,-398.148,-464.815)"><polyline fill="none" points="119,141 119,137" vector-effect="none"/></g><defs><clipPath id="clip13"><path d="M110,128 L155,128 L155,172 L110,172 L110,128 z"/></clipPath></defs><g clip-path="url(#clip13)" fill="none" opacity="1" stroke="#000000" stroke-linecap="butt" stroke-linejoin="miter" stroke-miterlimit="2" stroke-opacity="1" stroke-width="0.27" transform="matrix(3.7037,0,0,3.7037,-398.148,-464.815)"><polyline fill="none" points="116,137 122,137" vector-effect="none"/></g><defs><clipPath id="clip14"><path d="M110,128 L155,128 L155,172 L110,172 L110,128 z"/></clipPath></defs><g clip-path="url(#clip14)" fill="none" opacity="1" stroke="#000000" stroke-linecap="butt" stroke-linejoin="miter" stroke-miterlimit="2" stroke-opacity="1" stroke-width="0.27" transform="matrix(3.7037,0,0,3.7037,-398.148,-464.815)"><polyline fill="none" points="122,137 119,131" vector-effect="none"/></g><defs><clipPath id="clip15"><path d="M110,128 L155,128 L155,172 L110,172 L110,128 z"/></clipPath></defs><g clip-path="url(#clip15)" fill="none" opacity="1" stroke="#000000" stroke-linecap="butt" stroke-linejoin="miter" stroke-miterlimit="2" stroke-opacity="1" stroke-width="0.27" transform="matrix(3.7037,0,0,3.7037,-398.148,-464.815)"><polyline fill="none" points="119,131 116,137" vector-effect="none"/></g><defs><clipPath id="clip16"><path d="M110,128 L155,128 L155,172 L110,172 L110,128 z"/></clipPath></defs><g clip-path="url(#clip16)" fill="none" opacity="1" stroke="#000000" stroke-linecap="butt" stroke-linejoin="miter" stroke-miterlimit="2" stroke-opacity="1" stroke-width="0.27" transform="matrix(3.7037,0,0,3.7037,-398.148,-464.815)"><polyline fill="none" points="129,160 119,160" vector-effect="none"/></g><defs><clipPath id="clip17"><path d="M110,128 L155,128 L155,172 L110,172 L110,128 z"/></clipPath></defs><g clip-path="url(#clip17)" fill="none" opacity="1" stroke="#000000" stroke-linecap="butt" stroke-linejoin="miter" stroke-miterlimit="2" stroke-opacity="1" stroke-width="0.27" transform="matrix(3.7037,0,0,3.7037,-398.148,-464.815)"><polyline fill="none" points="119,160 119,165" vector-effect="none"/></g><defs><clipPath id="clip18"><path d="M110,128 L155,128 L155,172 L110,172 L110,128 z"/></clipPath></defs><g clip-path="url(#clip18)" fill="none" opacity="1" stroke="#000000" stroke-linecap="butt" stroke-linejoin="miter" stroke-miterlimit="2" stroke-opacity="1" stroke-width="0.27" transform="matrix(3.7037,0,0,3.7037,-398.148,-464.815)"><polyline fill="none" points="116,165 122,165" vector-effect="none"/></g><defs><clipPath id="clip19"><path d="M110,128 L155,128 L155,172 L110,172 L110,128 z"/></clipPath></defs><g clip-path="url(#clip19)" fill="none" opacity="1" stroke="#000000" stroke-linecap="butt" stroke-linejoin="miter" stroke-miterlimit="2" stroke-opacity="1" stroke-width="0.27" transform="matrix(3.7037,0,0,3.7037,-398.148,-464.815)"><polyline fill="none" points="117,167 121,167" vector-effect="none"/></g><defs><clipPath id="clip20"><path d="M110,128 L155,128 L155,172 L110,172 L110,128 z"/></clipPath></defs><g clip-path="url(#clip20)" fill="none" opacity="1" stroke="#000000" stroke-linecap="butt" stroke-linejoin="miter" stroke-miterlimit="2" stroke-opacity="1" stroke-width="0.27" transform="matrix(3.7037,0,0,3.7037,-398.148,-464.815)"><polyline fill="none" points="118,169 120,169" vector-effect="none"/></g><defs><clipPath id="clip21"><path d="M110,128 L155,128 L155,172 L110,172 L110,128 z"/></clipPath></defs><g clip-path="url(#clip21)" fill="none" opacity="1" stroke="#000000" stroke-linecap="butt" stroke-linejoin="miter" stroke-miterlimit="2" stroke-opacity="1" stroke-width="0.27" transform="matrix(3.7037,0,0,3.7037,-398.148,-464.815)"><polyline fill="none" points="142,150 133,142" vector-effect="none"/></g><defs><clipPath id="clip22"><path d="M110,128 L155,128 L155,172 L110,172 L110,128 z"/></clipPath></defs><g clip-path="url(#clip22)" fill="none" opacity="1" stroke="#000000" stroke-linecap="butt" stroke-linejoin="miter" stroke-miterlimit="2" stroke-opacity="1" stroke-width="0.27" transform="matrix(3.7037,0,0,3.7037,-398.148,-464.815)"><polyline fill="none" points="136,142 133,142" vector-effect="none"/></g><defs><clipPath id="clip23"><path d="M110,128 L155,128 L155,172 L110,172 L110,128 z"/></clipPath></defs><g clip-path="url(#clip23)" fill="none" opacity="1" stroke="#000000" stroke-linecap="butt" stroke-linejoin="miter" stroke-miterlimit="2" stroke-opacity="1" stroke-width="0.27" transform="matrix(3.7037,0,0,3.7037,-398.148,-464.815)"><polyline fill="none" points="133,142 134,146" vector-effect="none"/></g><defs><clipPath id="clip24"><path d="M110,128 L155,128 L155,172 L110,172 L110,128 z"/></clipPath></defs><g clip-path="url(#clip24)" fill="none" opacity="1" stroke="#000000" stroke-linecap="butt" stroke-linejoin="miter" stroke-miterlimit="2" stroke-opacity="1" stroke-width="0.27" transform="matrix(3.7037,0,0,3.7037,-398.148,-464.815)"><polyline fill="none" points="144,143 141,144" vector-effect="none"/></g><defs><clipPath id="clip25"><path d="M110,128 L155,128 L155,172 L110,172 L110,128 z"/></clipPath></defs><g clip-path="url(#clip25)" fill="none" opacity="1" stroke="#000000" stroke-linecap="butt" stroke-linejoin="miter" stroke-miterlimit="2" stroke-opacity="1" stroke-width="0.27" transform="matrix(3.7037,0,0,3.7037,-398.148,-464.815)"><polyline fill="none" points="141,144 138,147" vector-effect="none"/></g><defs><clipPath id="clip26"><path d="M110,128 L155,128 L155,172 L110,172 L110,128 z"/></clipPath></defs><g clip-path="url(#clip26)" fill="none" opacity="1" stroke="#000000" stroke-linecap="butt" stroke-linejoin="miter" stroke-miterlimit="2" stroke-opacity="1" stroke-width="0.27" transform="matrix(3.7037,0,0,3.7037,-398.148,-464.815)"><polyline fill="none" points="138,147 137,150" vector-effect="none"/></g><defs><clipPath id="clip27"><path d="M110,128 L155,128 L155,172 L110,172 L110,128 z"/></clipPath></defs><g clip-path="url(#clip27)" fill="none" opacity="1" stroke="#000000" stroke-linecap="butt" stroke-linejoin="miter" stroke-miterlimit="2" stroke-opacity="1" stroke-width="0.27" transform="matrix(3.7037,0,0,3.7037,-398.148,-464.815)"><polyline fill="none" points="137,150 138,153" vector-effect="none"/></g><defs><clipPath id="clip28"><path d="M110,128 L155,128 L155,172 L110,172 L110,128 z"/></clipPath></defs><g clip-path="url(#clip28)" fill="none" opacity="1" stroke="#000000" stroke-linecap="butt" stroke-linejoin="miter" stroke-miterlimit="2" stroke-opacity="1" stroke-width="0.27" transform="matrix(3.7037,0,0,3.7037,-398.148,-464.815)"><polyline fill="none" points="138,153 141,156" vector-effect="none"/></g><defs><clipPath id="clip29"><path d="M110,128 L155,128 L155,172 L110,172 L110,128 z"/></clipPath></defs><g clip-path="url(#clip29)" fill="none" opacity="1" stroke="#000000" stroke-linecap="butt" stroke-linejoin="miter" stroke-miterlimit="2" stroke-opacity="1" stroke-width="0.27" transform="matrix(3.7037,0,0,3.7037,-398.148,-464.815)"><polyline fill="none" points="141,156 137,154" vector-effect="none"/></g><defs><clipPath id="clip30"><path d="M110,128 L155,128 L155,172 L110,172 L110,128 z"/></clipPath></defs><g clip-path="url(#clip30)" fill="none" opacity="1" stroke="#000000" stroke-linecap="butt" stroke-linejoin="miter" stroke-miterlimit="2" stroke-opacity="1" stroke-width="0.27" transform="matrix(3.7037,0,0,3.7037,-398.148,-464.815)"><polyline fill="none" points="137,154 141,156" vector-effect="none"/></g><defs><clipPath id="clip31"><path d="M110,128 L155,128 L155,172 L110,172 L110,128 z"/></clipPath></defs><g clip-path="url(#clip31)" fill="none" opacity="1" stroke="#000000" stroke-linecap="butt" stroke-linejoin="miter" stroke-miterlimit="2" stroke-opacity="1" stroke-width="0.27" transform="matrix(3.7037,0,0,3.7037,-398.148,-464.815)"><polyline fill="none" points="141,156 139,152" vector-effect="none"/></g><defs><clipPath id="clip32"><path d="M110,128 L155,128 L155,172 L110,172 L110,128 z"/></clipPath></defs><g clip-path="url(#clip32)" fill="none" opacity="1" stroke="#000000" stroke-linecap="butt" stroke-linejoin="miter" stroke-miterlimit="2" stroke-opacity="1" stroke-width="0.27" transform="matrix(3.7037,0,0,3.7037,-398.148,-464.815)"><polyline fill="none" points="133,141 132,140" vector-effect="none"/></g><defs><clipPath id="clip33"><path d="M110,128 L155,128 L155,172 L110,172 L110,128 z"/></clipPath></defs><g clip-path="url(#clip33)" fill="none" opacity="1" stroke="#000000" stroke-linecap="butt" stroke-linejoin="miter" stroke-miterlimit="2" stroke-opacity="1" stroke-width="0.27" transform="matrix(3.7037,0,0,3.7037,-398.148,-464.815)"><polyline fill="none" points="132,140 132,139" vector-effect="none"/></g><defs><clipPath id="clip34"><path d="M110,128 L155,128 L155,172 L110,172 L110,128 z"/></clipPath></defs><g clip-path="url(#clip34)" fill="none" opacity="1" stroke="#000000" stroke-linecap="butt" stroke-linejoin="miter" stroke-miterlimit="2" stroke-opacity="1" stroke-width="0.27" transform="matrix(3.7037,0,0,3.7037,-398.148,-464.815)"><polyline fill="none" points="132,139 131,139" vector-effect="none"/></g><defs><clipPath id="clip35"><path d="M110,128 L155,128 L155,172 L110,172 L110,128 z"/></clipPath></defs><g clip-path="url(#clip35)" fill="none" opacity="1" stroke="#000000" stroke-linecap="butt" stroke-linejoin="miter" stroke-miterlimit="2" stroke-opacity="1" stroke-width="0.27" transform="matrix(3.7037,0,0,3.7037,-398.148,-464.815)"><polyline fill="none" points="131,139 130,139" vector-effect="none"/></g><defs><clipPath id="clip36"><path d="M110,128 L155,128 L155,172 L110,172 L110,128 z"/></clipPath></defs><g clip-path="url(#clip36)" fill="none" opacity="1" stroke="#000000" stroke-linecap="butt" stroke-linejoin="miter" stroke-miterlimit="2" stroke-opacity="1" stroke-width="0.27" transform="matrix(3.7037,0,0,3.7037,-398.148,-464.815)"><polyline fill="none" points="130,139 129,140" vector-effect="none"/></g><defs><clipPath id="clip37"><path d="M110,128 L155,128 L155,172 L110,172 L110,128 z"/></clipPath></defs><g clip-path="url(#clip37)" fill="none" opacity="1" stroke="#000000" stroke-linecap="butt" stroke-linejoin="miter" stroke-miterlimit="2" stroke-opacity="1" stroke-width="0.27" transform="matrix(3.7037,0,0,3.7037,-398.148,-464.815)"><polyline fill="none" points="129,140 129,141" vector-effect="none"/></g><defs><clipPath id="clip38"><path d="M110,128 L155,128 L155,172 L110,172 L110,128 z"/></clipPath></defs><g clip-path="url(#clip38)" fill="none" opacity="1" stroke="#000000" stroke-linecap="butt" stroke-linejoin="miter" stroke-miterlimit="2" stroke-opacity="1" stroke-width="0.27" transform="matrix(3.7037,0,0,3.7037,-398.148,-464.815)"><polyline fill="none" points="129,141 130,142" vector-effect="none"/></g><defs><clipPath id="clip39"><path d="M110,128 L155,128 L155,172 L110,172 L110,128 z"/></clipPath></defs><g clip-path="url(#clip39)" fill="none" opacity="1" stroke="#000000" stroke-linecap="butt" stroke-linejoin="miter" stroke-miterlimit="2" stroke-opacity="1" stroke-width="0.27" transform="matrix(3.7037,0,0,3.7037,-398.148,-464.815)"><polyline fill="none" points="130,142 131,142" vector-effect="none"/></g><defs><clipPath id="clip40"><path d="M110,128 L155,128 L155,172 L110,172 L110,128 z"/></clipPath></defs><g clip-path="url(#clip40)" fill="none" opacity="1" stroke="#000000" stroke-linecap="butt" stroke-linejoin="miter" stroke-miterlimit="2" stroke-opacity="1" stroke-width="0.27" transform="matrix(3.7037,0,0,3.7037,-398.148,-464.815)"><polyline fill="none" points="131,142 132,142" vector-effect="none"/></g><defs><clipPath id="clip41"><path d="M110,128 L155,128 L155,172 L110,172 L110,128 z"/></clipPath></defs><g clip-path="url(#clip41)" fill="none" opacity="1" stroke="#000000" stroke-linecap="butt" stroke-linejoin="miter" stroke-miterlimit="2" stroke-opacity="1" stroke-width="0.27" transform="matrix(3.7037,0,0,3.7037,-398.148,-464.815)"><polyline fill="none" points="132,142 132,141" vector-effect="none"/></g><defs><clipPath id="clip42"><path d="M110,128 L155,128 L155,172 L110,172 L110,128 z"/></clipPath></defs><g clip-path="url(#clip42)" fill="none" opacity="1" stroke="#000000" stroke-linecap="butt" stroke-linejoin="miter" stroke-miterlimit="2" stroke-opacity="1" stroke-width="0.27" transform="matrix(3.7037,0,0,3.7037,-398.148,-464.815)"><polyline fill="none" points="132,141 133,141" vector-effect="none"/></g><defs><clipPath id="clip43"><path d="M110,128 L155,128 L155,172 L110,172 L110,128 z"/></clipPath></defs><g clip-path="url(#clip43)" fill="none" opacity="1" stroke="#000000" stroke-linecap="butt" stroke-linejoin="miter" stroke-miterlimit="2" stroke-opacity="1" stroke-width="0.27" transform="matrix(3.7037,0,0,3.7037,-398.148,-464.815)"><polyline fill="none" points="133,160 132,159" vector-effect="none"/></g><defs><clipPath id="clip44"><path d="M110,128 L155,128 L155,172 L110,172 L110,128 z"/></clipPath></defs><g clip-path="url(#clip44)" fill="none" opacity="1" stroke="#000000" stroke-linecap="butt" stroke-linejoin="miter" stroke-miterlimit="2" stroke-opacity="1" stroke-width="0.27" transform="matrix(3.7037,0,0,3.7037,-398.148,-464.815)"><polyline fill="none" points="132,159 132,158" vector-effect="none"/></g><defs><clipPath id="clip45"><path d="M110,128 L155,128 L155,172 L110,172 L110,128 z"/></clipPath></defs><g clip-path="url(#clip45)" fill="none" opacity="1" stroke="#000000" stroke-linecap="butt" stroke-linejoin="miter" stroke-miterlimit="2" stroke-opacity="1" stroke-width="0.27" transform="matrix(3.7037,0,0,3.7037,-398.148,-464.815)"><polyline fill="none" points="132,158 131,158" vector-effect="none"/></g><defs><clipPath id="clip46"><path d="M110,128 L155,128 L155,172 L110,172 L110,128 z"/></clipPath></defs><g clip-path="url(#clip46)" fill="none" opacity="1" stroke="#000000" stroke-linecap="butt" stroke-linejoin="miter" stroke-miterlimit="2" stroke-opacity="1" stroke-width="0.27" transform="matrix(3.7037,0,0,3.7037,-398.148,-464.815)"><polyline fill="none" points="131,158 130,158" vector-effect="none"/></g><defs><clipPath id="clip47"><path d="M110,128 L155,128 L155,172 L110,172 L110,128 z"/></clipPath></defs><g clip-path="url(#clip47)" fill="none" opacity="1" stroke="#000000" stroke-linecap="butt" stroke-linejoin="miter" stroke-miterlimit="2" stroke-opacity="1" stroke-width="0.27" transform="matrix(3.7037,0,0,3.7037,-398.148,-464.815)"><polyline fill="none" points="130,158 129,159" vector-effect="none"/></g><defs><clipPath id="clip48"><path d="M110,128 L155,128 L155,172 L110,172 L110,128 z"/></clipPath></defs><g clip-path="url(#clip48)" fill="none" opacity="1" stroke="#000000" stroke-linecap="butt" stroke-linejoin="miter" stroke-miterlimit="2" stroke-opacity="1" stroke-width="0.27" transform="matrix(3.7037,0,0,3.7037,-398.148,-464.815)"><polyline fill="none" points="129,159 129,160" vector-effect="none"/></g><defs><clipPath id="clip49"><path d="M110,128 L155,128 L155,172 L110,172 L110,128 z"/></clipPath></defs><g clip-path="url(#clip49)" fill="none" opacity="1" stroke="#000000" stroke-linecap="butt" stroke-linejoin="miter" stroke-miterlimit="2" stroke-opacity="1" stroke-width="0.27" transform="matrix(3.7037,0,0,3.7037,-398.148,-464.815)"><polyline fill="none" points="129,160 130,161" vector-effect="none"/></g><defs><clipPath id="clip50"><path d="M110,128 L155,128 L155,172 L110,172 L110,128 z"/></clipPath></defs><g clip-path="url(#clip50)" fill="none" opacity="1" stroke="#000000" stroke-linecap="butt" stroke-linejoin="miter" stroke-miterlimit="2" stroke-opacity="1" stroke-width="0.27" transform="matrix(3.7037,0,0,3.7037,-398.148,-464.815)"><polyline fill="none" points="130,161 131,161" vector-effect="none"/></g><defs><clipPath id="clip51"><path d="M110,128 L155,128 L155,172 L110,172 L110,128 z"/></clipPath></defs><g clip-path="url(#clip51)" fill="none" opacity="1" stroke="#000000" stroke-linecap="butt" stroke-linejoin="miter" stroke-miterlimit="2" stroke-opacity="1" stroke-width="0.27" transform="matrix(3.7037,0,0,3.7037,-398.148,-464.815)"><polyline fill="none" points="131,161 132,161" vector-effect="none"/></g><defs><clipPath id="clip52"><path d="M110,128 L155,128 L155,172 L110,172 L110,128 z"/></clipPath></defs><g clip-path="url(#clip52)" fill="none" opacity="1" stroke="#000000" stroke-linecap="butt" stroke-linejoin="miter" stroke-miterlimit="2" stroke-opacity="1" stroke-width="0.27" transform="matrix(3.7037,0,0,3.7037,-398.148,-464.815)"><polyline fill="none" points="132,161 132,160" vector-effect="none"/></g><defs><clipPath id="clip53"><path d="M110,128 L155,128 L155,172 L110,172 L110,128 z"/></clipPath></defs><g clip-path="url(#clip53)" fill="none" opacity="1" stroke="#000000" stroke-linecap="butt" stroke-linejoin="miter" stroke-miterlimit="2" stroke-opacity="1" stroke-width="0.27" transform="matrix(3.7037,0,0,3.7037,-398.148,-464.815)"><polyline fill="none" points="132,160 133,160" vector-effect="none"/></g><defs><clipPath id="clip54"><path d="M110,128 L155,128 L155,172 L110,172 L110,128 z"/></clipPath></defs><g clip-path="url(#clip54)" fill="none" opacity="1" stroke="#000000" stroke-linecap="butt" stroke-linejoin="miter" stroke-miterlimit="2" stroke-opacity="1" stroke-width="0.27" transform="matrix(3.7037,0,0,3.7037,-398.148,-464.815)"><polyline fill="none" points="146,150 146,149" vector-effect="none"/></g><defs><clipPath id="clip55"><path d="M110,128 L155,128 L155,172 L110,172 L110,128 z"/></clipPath></defs><g clip-path="url(#clip55)" fill="none" opacity="1" stroke="#000000" stroke-linecap="butt" stroke-linejoin="miter" stroke-miterlimit="2" stroke-opacity="1" stroke-width="0.27" transform="matrix(3.7037,0,0,3.7037,-398.148,-464.815)"><polyline fill="none" points="146,149 145,148" vector-effect="none"/></g><defs><clipPath id="clip56"><path d="M110,128 L155,128 L155,172 L110,172 L110,128 z"/></clipPath></defs><g clip-path="url(#clip56)" fill="none" opacity="1" stroke="#000000" stroke-linecap="butt" stroke-linejoin="miter" stroke-miterlimit="2" stroke-opacity="1" stroke-width="0.27" transform="matrix(3.7037,0,0,3.7037,-398.148,-464.815)"><polyline fill="none" points="145,148 144,148" vector-effect="none"/></g><defs><clipPath id="clip57"><path d="M110,128 L155,128 L155,172 L110,172 L110,128 z"/></clipPath></defs><g clip-path="url(#clip57)" fill="none" opacity="1" stroke="#000000" stroke-linecap="butt" stroke-linejoin="miter" stroke-miterlimit="2" stroke-opacity="1" stroke-width="0.27" transform="matrix(3.7037,0,0,3.7037,-398.148,-464.815)"><polyline fill="none" points="144,148 143,148" vector-effect="none"/></g><defs><clipPath id="clip58"><path d="M110,128 L155,128 L155,172 L110,172 L110,128 z"/></clipPath></defs><g clip-path="url(#clip58)" fill="none" opacity="1" stroke="#000000" stroke-linecap="butt" stroke-linejoin="miter" stroke-miterlimit="2" stroke-opacity="1" stroke-width="0.27" transform="matrix(3.7037,0,0,3.7037,-398.148,-464.815)"><polyline fill="none" points="143,148 143,149" vector-effect="none"/></g><defs><clipPath id="clip59"><path d="M110,128 L155,128 L155,172 L110,172 L110,128 z"/></clipPath></defs><g clip-path="url(#clip59)" fill="none" opacity="1" stroke="#000000" stroke-linecap="butt" stroke-linejoin="miter" stroke-miterlimit="2" stroke-opacity="1" stroke-width="0.27" transform="matrix(3.7037,0,0,3.7037,-398.148,-464.815)"><polyline fill="none" points="143,149 142,150" vector-effect="none"/></g><defs><clipPath id="clip60"><path d="M110,128 L155,128 L155,172 L110,172 L110,128 z"/></clipPath></defs><g clip-path="url(#clip60)" fill="none" opacity="1" stroke="#000000" stroke-linecap="butt" stroke-linejoin="miter" stroke-miterlimit="2" stroke-opacity="1" stroke-width="0.27" transform="matrix(3.7037,0,0,3.7037,-398.148,-464.815)"><polyline fill="none" points="142,150 143,151" vector-effect="none"/></g><defs><clipPath id="clip61"><path d="M110,128 L155,128 L155,172 L110,172 L110,128 z"/></clipPath></defs><g clip-path="url(#clip61)" fill="none" opacity="1" stroke="#000000" stroke-linecap="butt" stroke-linejoin="miter" stroke-miterlimit="2" stroke-opacity="1" stroke-width="0.27" transform="matrix(3.7037,0,0,3.7037,-398.148,-464.815)"><polyline fill="none" points="143,151 143,152" vector-effect="none"/></g><defs><clipPath id="clip62"><path d="M110,128 L155,128 L155,172 L110,172 L110,128 z"/></clipPath></defs><g clip-path="url(#clip62)" fill="none" opacity="1" stroke="#000000" stroke-linecap="butt" stroke-linejoin="miter" stroke-miterlimit="2" stroke-opacity="1" stroke-width="0.27" transform="matrix(3.7037,0,0,3.7037,-398.148,-464.815)"><polyline fill="none" points="143,152 144,152" vector-effect="none"/></g><defs><clipPath id="clip63"><path d="M110,128 L155,128 L155,172 L110,172 L110,128 z"/></clipPath></defs><g clip-path="url(#clip63)" fill="none" opacity="1" stroke="#000000" stroke-linecap="butt" stroke-linejoin="miter" stroke-miterlimit="2" stroke-opacity="1" stroke-width="0.27" transform="matrix(3.7037,0,0,3.7037,-398.148,-464.815)"><polyline fill="none" points="144,152 145,152" vector-effect="none"/></g><defs><clipPath id="clip64"><path d="M110,128 L155,128 L155,172 L110,172 L110,128 z"/></clipPath></defs><g clip-path="url(#clip64)" fill="none" opacity="1" stroke="#000000" stroke-linecap="butt" stroke-linejoin="miter" stroke-miterlimit="2" stroke-opacity="1" stroke-width="0.27" transform="matrix(3.7037,0,0,3.7037,-398.148,-464.815)"><polyline fill="none" points="145,152 146,151" vector-effect="none"/></g><defs><clipPath id="clip65"><path d="M110,128 L155,128 L155,172 L110,172 L110,128 z"/></clipPath></defs><g clip-path="url(#clip65)" fill="none" opacity="1" stroke="#000000" stroke-linecap="butt" stroke-linejoin="miter" stroke-miterlimit="2" stroke-opacity="1" stroke-width="0.27" transform="matrix(3.7037,0,0,3.7037,-398.148,-464.815)"><polyline fill="none" points="146,151 146,150" vector-effect="none"/></g><defs><clipPath id="clip67"><path d="M-225,-215 L5,-215 L5,10 L-225,10 L-225,-215 z"/></clipPath></defs><g clip-path="url(#clip67)" fill="none" opacity="1" stroke="#000000" stroke-linecap="butt" stroke-linejoin="miter" stroke-miterlimit="2" stroke-opacity="1" stroke-width="0.27" transform="matrix(0.72338,0,0,0.72338,170.37,162.963)"><text fill="#000000" fill-opacity="1" font-family="Liberation Sans" font-size="40" font-style="normal" font-weight="400" stroke="none" textLength="22" x="-28.4531" xml:space="preserve" y="1.28125">8</text></g><defs><clipPath id="clip73"><path d="M-2,-2 L52,-2 L52,46 L-2,46 L-2,-2 z"/></clipPath></defs><g clip-path="url(#clip73)" fill="none" opacity="1" stroke="#000000" stroke-linecap="butt" stroke-linejoin="miter" stroke-miterlimit="2" stroke-opacity="1" stroke-width="0.592305" transform="matrix(3.7037,0,0,3.7037,7.40741,7.40741)"><path d="M0,0 L45,0 L45,44 L0,44 L0,0 z" fill-rule="evenodd" vector-effect="none"/></g></g></svg>
