<?xml version="1.0" encoding="UTF-8"?><svg width="52.9167mm" height="25.1354mm" viewBox="0 0 200 95" xmlns="http://www.w3.org/2000/svg" xmlns:xlink="http://www.w3.org/1999/xlink"><g fill="none" stroke="black" stroke-width="1" fill-rule="evenodd" stroke-linecap="square" stroke-linejoin="bevel"><g clip-path="none" fill="none" opacity="1" stroke="none" stroke-opacity="0" transform="matrix(1,0,0,1,0,0)"><path d="M0,0 L200,0 L200,95 L0,95 L0,0 z" fill-rule="evenodd" vector-effect="none"/></g><defs><clipPath id="clip3"><path d="M-77,-20 L7,-20 L7,20 L-77,20 L-77,-20 z"/></clipPath></defs><g clip-path="url(#clip3)" fill="none" opacity="1" stroke="#000000" stroke-linecap="round" stroke-linejoin="miter" stroke-miterlimit="2" stroke-opacity="1" stroke-width="2" transform="matrix(2.38095,0,0,2.38095,183.333,47.619)"><path d="M0,-5 L5,0 L0,5" fill-rule="evenodd" vector-effect="none"/></g><defs><clipPath id="clip6"><path d="M-2,-2 L82,-2 L82,38 L-2,38 L-2,-2 z"/></clipPath></defs><g clip-path="url(#clip6)" fill="#ffffff" fill-opacity="1" opacity="1" stroke="none" stroke-opacity="0" transform="matrix(2.38095,0,0,2.38095,4.7619,4.7619)"><path d="M0,0 L75,0 L75,36 L0,36 L0,0 z" fill-rule="evenodd" vector-effect="none"/></g><defs><clipPath id="clip11"><path d="M-189,-92 L195,-92 L195,92 L-189,92 L-189,-92 z"/></clipPath></defs><g clip-path="url(#clip11)" fill="none" opacity="1" stroke="#000000" stroke-linecap="butt" stroke-linejoin="miter" stroke-miterlimit="2" stroke-opacity="1" stroke-width="0.42" transform="matrix(0.46503,0,0,0.46503,92.8571,47.619)"><text fill="#000000" fill-opacity="1" font-family="Liberation Sans" font-size="40" font-style="normal" font-weight="400" stroke="none" textLength="238" x="-156.391" xml:space="preserve" y="17.9219">MIDI Controls</text></g><defs><clipPath id="clip17"><path d="M-2,-2 L82,-2 L82,38 L-2,38 L-2,-2 z"/></clipPath></defs><g clip-path="url(#clip17)" fill="none" opacity="1" stroke="#000000" stroke-linecap="butt" stroke-linejoin="miter" stroke-miterlimit="2" stroke-opacity="1" stroke-width="0.706805" transform="matrix(2.38095,0,0,2.38095,4.7619,4.7619)"><path d="M0,0 L75,0 L75,36 L0,36 L0,0 z" fill-rule="evenodd" vector-effect="none"/></g></g></svg>
