<?xml version="1.0" encoding="UTF-8"?><svg width="52.9167mm" height="41.0104mm" viewBox="0 0 200 155" xmlns="http://www.w3.org/2000/svg" xmlns:xlink="http://www.w3.org/1999/xlink"><g fill="none" stroke="black" stroke-width="1" fill-rule="evenodd" stroke-linecap="square" stroke-linejoin="bevel"><g clip-path="none" fill="none" opacity="1" stroke="none" stroke-opacity="0" transform="matrix(1,0,0,1,0,0)"><path d="M0,0 L200,0 L200,155 L0,155 L0,0 z" fill-rule="evenodd" vector-effect="none"/></g><defs><clipPath id="clip3"><path d="M-52,-23 L7,-23 L7,23 L-52,23 L-52,-23 z"/></clipPath></defs><g clip-path="url(#clip3)" fill="none" opacity="1" stroke="#000000" stroke-linecap="round" stroke-linejoin="miter" stroke-miterlimit="2" stroke-opacity="1" stroke-width="2" transform="matrix(3.38983,0,0,3.38983,176.271,77.9661)"><path d="M0,-5 L5,0 L0,5" fill-rule="evenodd" vector-effect="none"/></g><defs><clipPath id="clip6"><path d="M-2,-2 L57,-2 L57,44 L-2,44 L-2,-2 z"/></clipPath></defs><g clip-path="url(#clip6)" fill="#ffffff" fill-opacity="1" opacity="1" stroke="none" stroke-opacity="0" transform="matrix(3.38983,0,0,3.38983,6.77966,6.77966)"><path d="M0,0 L50,0 L50,42 L0,42 L0,0 z" fill-rule="evenodd" vector-effect="none"/></g><defs><clipPath id="clip11"><path d="M-128,-108 L128,-108 L128,107 L-128,107 L-128,-108 z"/></clipPath></defs><g clip-path="url(#clip11)" fill="none" opacity="1" stroke="#000000" stroke-linecap="butt" stroke-linejoin="miter" stroke-miterlimit="2" stroke-opacity="1" stroke-width="0.295" transform="matrix(0.662076,0,0,0.662076,91.5254,77.9661)"><text fill="#000000" fill-opacity="1" font-family="Liberation Sans" font-size="40" font-style="normal" font-weight="400" stroke="none" textLength="111" x="-72.5156" xml:space="preserve" y="17.9219">eye(5)</text></g><defs><clipPath id="clip17"><path d="M-2,-2 L57,-2 L57,44 L-2,44 L-2,-2 z"/></clipPath></defs><g clip-path="url(#clip17)" fill="none" opacity="1" stroke="#000000" stroke-linecap="butt" stroke-linejoin="miter" stroke-miterlimit="2" stroke-opacity="1" stroke-width="0.613661" transform="matrix(3.38983,0,0,3.38983,6.77966,6.77966)"><path d="M0,0 L50,0 L50,42 L0,42 L0,0 z" fill-rule="evenodd" vector-effect="none"/></g></g></svg>
