<?xml version="1.0" encoding="UTF-8"?><svg width="52.9167mm" height="24.8708mm" viewBox="0 0 200 94" xmlns="http://www.w3.org/2000/svg" xmlns:xlink="http://www.w3.org/1999/xlink"><g fill="none" stroke="black" stroke-width="1" fill-rule="evenodd" stroke-linecap="square" stroke-linejoin="bevel"><g clip-path="none" fill="none" opacity="1" stroke="none" stroke-opacity="0" transform="matrix(1,0,0,1,0,0)"><path d="M0,0 L200,0 L200,94 L0,94 L0,0 z" fill-rule="evenodd" vector-effect="none"/></g><defs><clipPath id="clip3"><path d="M-107,-27 L7,-27 L7,27 L-107,27 L-107,-27 z"/></clipPath></defs><g clip-path="url(#clip3)" fill="none" opacity="1" stroke="#000000" stroke-linecap="round" stroke-linejoin="miter" stroke-miterlimit="2" stroke-opacity="1" stroke-width="2" transform="matrix(1.75439,0,0,1.75439,187.719,47.3684)"><path d="M0,-5 L5,0 L0,5" fill-rule="evenodd" vector-effect="none"/></g><defs><clipPath id="clip6"><path d="M-2,-2 L112,-2 L112,52 L-2,52 L-2,-2 z"/></clipPath></defs><g clip-path="url(#clip6)" fill="#ffffff" fill-opacity="1" opacity="1" stroke="none" stroke-opacity="0" transform="matrix(1.75439,0,0,1.75439,3.50877,3.50877)"><path d="M0,0 L105,0 L105,50 L0,50 L0,0 z" fill-rule="evenodd" vector-effect="none"/></g><defs><clipPath id="clip11"><path d="M-266,-128 L272,-128 L272,128 L-266,128 L-266,-128 z"/></clipPath></defs><g clip-path="url(#clip11)" fill="none" opacity="1" stroke="#000000" stroke-linecap="butt" stroke-linejoin="miter" stroke-miterlimit="2" stroke-opacity="1" stroke-width="0.57" transform="matrix(0.342654,0,0,0.342654,94.7368,47.3684)"><text fill="#000000" fill-opacity="1" font-family="Liberation Sans" font-size="40" font-style="normal" font-weight="400" stroke="none" textLength="237" x="-152.938" xml:space="preserve" y="17.9219">UDP Receive</text></g><defs><clipPath id="clip17"><path d="M-2,-2 L112,-2 L112,52 L-2,52 L-2,-2 z"/></clipPath></defs><g clip-path="url(#clip17)" fill="none" opacity="1" stroke="#000000" stroke-linecap="butt" stroke-linejoin="miter" stroke-miterlimit="2" stroke-opacity="1" stroke-width="0.798638" transform="matrix(1.75439,0,0,1.75439,3.50877,3.50877)"><path d="M0,0 L105,0 L105,50 L0,50 L0,0 z" fill-rule="evenodd" vector-effect="none"/></g></g></svg>
