<?xml version="1.0" encoding="UTF-8"?><svg width="52.9167mm" height="34.1313mm" viewBox="0 0 200 129" xmlns="http://www.w3.org/2000/svg" xmlns:xlink="http://www.w3.org/1999/xlink"><g fill="none" stroke="black" stroke-width="1" fill-rule="evenodd" stroke-linecap="square" stroke-linejoin="bevel"><g clip-path="none" fill="none" opacity="1" stroke="none" stroke-opacity="0" transform="matrix(1,0,0,1,0,0)"><path d="M0,0 L200,0 L200,129 L0,129 L0,0 z" fill-rule="evenodd" vector-effect="none"/></g><defs><clipPath id="clip3"><path d="M7,28 L-72,28 L-72,-23 L7,-23 L7,28 z"/></clipPath></defs><g clip-path="url(#clip3)" fill="none" opacity="1" stroke="#000000" stroke-linecap="round" stroke-linejoin="miter" stroke-miterlimit="2" stroke-opacity="1" stroke-width="2" transform="matrix(-2.53165,0,0,-2.53165,17.7215,70.8861)"><path d="M5,-5 L0,0 L5,5" fill-rule="evenodd" vector-effect="none"/></g><defs><clipPath id="clip6"><path d="M-72,-38 L7,-38 L7,13 L-72,13 L-72,-38 z"/></clipPath></defs><g clip-path="url(#clip6)" fill="none" opacity="1" stroke="#000000" stroke-linecap="round" stroke-linejoin="miter" stroke-miterlimit="2" stroke-opacity="1" stroke-width="2" transform="matrix(2.53165,0,0,2.53165,182.278,96.2025)"><path d="M0,-5 L5,0 L0,5" fill-rule="evenodd" vector-effect="none"/></g><defs><clipPath id="clip9"><path d="M-72,-13 L7,-13 L7,38 L-72,38 L-72,-13 z"/></clipPath></defs><g clip-path="url(#clip9)" fill="none" opacity="1" stroke="#000000" stroke-linecap="round" stroke-linejoin="miter" stroke-miterlimit="2" stroke-opacity="1" stroke-width="2" transform="matrix(2.53165,0,0,2.53165,182.278,32.9114)"><path d="M0,-5 L5,0 L0,5" fill-rule="evenodd" vector-effect="none"/></g><defs><clipPath id="clip12"><path d="M-7,-2 L72,-2 L72,49 L-7,49 L-7,-2 z"/></clipPath></defs><g clip-path="url(#clip12)" fill="#ffffff" fill-opacity="1" opacity="1" stroke="none" stroke-opacity="0" transform="matrix(2.53165,0,0,2.53165,17.7215,5.06329)"><path d="M0,0 L65,0 L65,47 L0,47 L0,0 z" fill-rule="evenodd" vector-effect="none"/></g><defs><clipPath id="clip16"><path d="M449,123 L514,123 L514,170 L449,170 L449,123 z"/></clipPath></defs><g clip-path="url(#clip16)" fill="none" opacity="1" stroke="#000000" stroke-linecap="butt" stroke-linejoin="miter" stroke-miterlimit="2" stroke-opacity="1" stroke-width="0.395" transform="matrix(2.53165,0,0,2.53165,-1120.25,-307.595)"><polyline fill="none" points="455,130 469,130" vector-effect="none"/></g><defs><clipPath id="clip17"><path d="M449,123 L514,123 L514,170 L449,170 L449,123 z"/></clipPath></defs><g clip-path="url(#clip17)" fill="none" opacity="1" stroke="#000000" stroke-linecap="butt" stroke-linejoin="miter" stroke-miterlimit="2" stroke-opacity="1" stroke-width="0.395" transform="matrix(2.53165,0,0,2.53165,-1120.25,-307.595)"><polyline fill="none" points="469,130 469,135" vector-effect="none"/></g><defs><clipPath id="clip18"><path d="M449,123 L514,123 L514,170 L449,170 L449,123 z"/></clipPath></defs><g clip-path="url(#clip18)" fill="none" opacity="1" stroke="#000000" stroke-linecap="butt" stroke-linejoin="miter" stroke-miterlimit="2" stroke-opacity="1" stroke-width="0.395" transform="matrix(2.53165,0,0,2.53165,-1120.25,-307.595)"><polyline fill="none" points="469,135 455,135" vector-effect="none"/></g><defs><clipPath id="clip19"><path d="M449,123 L514,123 L514,170 L449,170 L449,123 z"/></clipPath></defs><g clip-path="url(#clip19)" fill="none" opacity="1" stroke="#000000" stroke-linecap="butt" stroke-linejoin="miter" stroke-miterlimit="2" stroke-opacity="1" stroke-width="0.395" transform="matrix(2.53165,0,0,2.53165,-1120.25,-307.595)"><polyline fill="none" points="455,135 455,130" vector-effect="none"/></g><defs><clipPath id="clip20"><path d="M449,123 L514,123 L514,170 L449,170 L449,123 z"/></clipPath></defs><g clip-path="url(#clip20)" fill="none" opacity="1" stroke="#000000" stroke-linecap="butt" stroke-linejoin="miter" stroke-miterlimit="2" stroke-opacity="1" stroke-width="0.395" transform="matrix(2.53165,0,0,2.53165,-1120.25,-307.595)"><polyline fill="none" points="455,137 462,137" vector-effect="none"/></g><defs><clipPath id="clip21"><path d="M449,123 L514,123 L514,170 L449,170 L449,123 z"/></clipPath></defs><g clip-path="url(#clip21)" fill="none" opacity="1" stroke="#000000" stroke-linecap="butt" stroke-linejoin="miter" stroke-miterlimit="2" stroke-opacity="1" stroke-width="0.395" transform="matrix(2.53165,0,0,2.53165,-1120.25,-307.595)"><polyline fill="none" points="462,137 462,142" vector-effect="none"/></g><defs><clipPath id="clip22"><path d="M449,123 L514,123 L514,170 L449,170 L449,123 z"/></clipPath></defs><g clip-path="url(#clip22)" fill="none" opacity="1" stroke="#000000" stroke-linecap="butt" stroke-linejoin="miter" stroke-miterlimit="2" stroke-opacity="1" stroke-width="0.395" transform="matrix(2.53165,0,0,2.53165,-1120.25,-307.595)"><polyline fill="none" points="462,142 455,142" vector-effect="none"/></g><defs><clipPath id="clip23"><path d="M449,123 L514,123 L514,170 L449,170 L449,123 z"/></clipPath></defs><g clip-path="url(#clip23)" fill="none" opacity="1" stroke="#000000" stroke-linecap="butt" stroke-linejoin="miter" stroke-miterlimit="2" stroke-opacity="1" stroke-width="0.395" transform="matrix(2.53165,0,0,2.53165,-1120.25,-307.595)"><polyline fill="none" points="455,142 455,137" vector-effect="none"/></g><defs><clipPath id="clip24"><path d="M449,123 L514,123 L514,170 L449,170 L449,123 z"/></clipPath></defs><g clip-path="url(#clip24)" fill="none" opacity="1" stroke="#000000" stroke-linecap="butt" stroke-linejoin="miter" stroke-miterlimit="2" stroke-opacity="1" stroke-width="0.395" transform="matrix(2.53165,0,0,2.53165,-1120.25,-307.595)"><polyline fill="none" points="455,145 459,145" vector-effect="none"/></g><defs><clipPath id="clip25"><path d="M449,123 L514,123 L514,170 L449,170 L449,123 z"/></clipPath></defs><g clip-path="url(#clip25)" fill="none" opacity="1" stroke="#000000" stroke-linecap="butt" stroke-linejoin="miter" stroke-miterlimit="2" stroke-opacity="1" stroke-width="0.395" transform="matrix(2.53165,0,0,2.53165,-1120.25,-307.595)"><polyline fill="none" points="459,145 459,150" vector-effect="none"/></g><defs><clipPath id="clip26"><path d="M449,123 L514,123 L514,170 L449,170 L449,123 z"/></clipPath></defs><g clip-path="url(#clip26)" fill="none" opacity="1" stroke="#000000" stroke-linecap="butt" stroke-linejoin="miter" stroke-miterlimit="2" stroke-opacity="1" stroke-width="0.395" transform="matrix(2.53165,0,0,2.53165,-1120.25,-307.595)"><polyline fill="none" points="459,150 455,150" vector-effect="none"/></g><defs><clipPath id="clip27"><path d="M449,123 L514,123 L514,170 L449,170 L449,123 z"/></clipPath></defs><g clip-path="url(#clip27)" fill="none" opacity="1" stroke="#000000" stroke-linecap="butt" stroke-linejoin="miter" stroke-miterlimit="2" stroke-opacity="1" stroke-width="0.395" transform="matrix(2.53165,0,0,2.53165,-1120.25,-307.595)"><polyline fill="none" points="455,150 455,145" vector-effect="none"/></g><defs><clipPath id="clip28"><path d="M449,123 L514,123 L514,170 L449,170 L449,123 z"/></clipPath></defs><g clip-path="url(#clip28)" fill="none" opacity="1" stroke="#000000" stroke-linecap="butt" stroke-linejoin="miter" stroke-miterlimit="2" stroke-opacity="1" stroke-width="0.395" transform="matrix(2.53165,0,0,2.53165,-1120.25,-307.595)"><polyline fill="none" points="455,153 473,153" vector-effect="none"/></g><defs><clipPath id="clip29"><path d="M449,123 L514,123 L514,170 L449,170 L449,123 z"/></clipPath></defs><g clip-path="url(#clip29)" fill="none" opacity="1" stroke="#000000" stroke-linecap="butt" stroke-linejoin="miter" stroke-miterlimit="2" stroke-opacity="1" stroke-width="0.395" transform="matrix(2.53165,0,0,2.53165,-1120.25,-307.595)"><polyline fill="none" points="473,153 473,158" vector-effect="none"/></g><defs><clipPath id="clip30"><path d="M449,123 L514,123 L514,170 L449,170 L449,123 z"/></clipPath></defs><g clip-path="url(#clip30)" fill="none" opacity="1" stroke="#000000" stroke-linecap="butt" stroke-linejoin="miter" stroke-miterlimit="2" stroke-opacity="1" stroke-width="0.395" transform="matrix(2.53165,0,0,2.53165,-1120.25,-307.595)"><polyline fill="none" points="473,158 455,158" vector-effect="none"/></g><defs><clipPath id="clip31"><path d="M449,123 L514,123 L514,170 L449,170 L449,123 z"/></clipPath></defs><g clip-path="url(#clip31)" fill="none" opacity="1" stroke="#000000" stroke-linecap="butt" stroke-linejoin="miter" stroke-miterlimit="2" stroke-opacity="1" stroke-width="0.395" transform="matrix(2.53165,0,0,2.53165,-1120.25,-307.595)"><polyline fill="none" points="455,158 455,153" vector-effect="none"/></g><defs><clipPath id="clip32"><path d="M449,123 L514,123 L514,170 L449,170 L449,123 z"/></clipPath></defs><g clip-path="url(#clip32)" fill="none" opacity="1" stroke="#000000" stroke-linecap="butt" stroke-linejoin="miter" stroke-miterlimit="2" stroke-opacity="1" stroke-width="0.395" transform="matrix(2.53165,0,0,2.53165,-1120.25,-307.595)"><polyline fill="none" points="455,160 466,160" vector-effect="none"/></g><defs><clipPath id="clip33"><path d="M449,123 L514,123 L514,170 L449,170 L449,123 z"/></clipPath></defs><g clip-path="url(#clip33)" fill="none" opacity="1" stroke="#000000" stroke-linecap="butt" stroke-linejoin="miter" stroke-miterlimit="2" stroke-opacity="1" stroke-width="0.395" transform="matrix(2.53165,0,0,2.53165,-1120.25,-307.595)"><polyline fill="none" points="466,160 466,165" vector-effect="none"/></g><defs><clipPath id="clip34"><path d="M449,123 L514,123 L514,170 L449,170 L449,123 z"/></clipPath></defs><g clip-path="url(#clip34)" fill="none" opacity="1" stroke="#000000" stroke-linecap="butt" stroke-linejoin="miter" stroke-miterlimit="2" stroke-opacity="1" stroke-width="0.395" transform="matrix(2.53165,0,0,2.53165,-1120.25,-307.595)"><polyline fill="none" points="466,165 455,165" vector-effect="none"/></g><defs><clipPath id="clip35"><path d="M449,123 L514,123 L514,170 L449,170 L449,123 z"/></clipPath></defs><g clip-path="url(#clip35)" fill="none" opacity="1" stroke="#000000" stroke-linecap="butt" stroke-linejoin="miter" stroke-miterlimit="2" stroke-opacity="1" stroke-width="0.395" transform="matrix(2.53165,0,0,2.53165,-1120.25,-307.595)"><polyline fill="none" points="455,165 455,160" vector-effect="none"/></g><defs><clipPath id="clip36"><path d="M449,123 L514,123 L514,170 L449,170 L449,123 z"/></clipPath></defs><g clip-path="url(#clip36)" fill="none" opacity="1" stroke="#000000" stroke-linecap="butt" stroke-linejoin="miter" stroke-miterlimit="2" stroke-opacity="1" stroke-width="0.395" transform="matrix(2.53165,0,0,2.53165,-1120.25,-307.595)"><polyline fill="none" points="467,149 471,149" vector-effect="none"/></g><defs><clipPath id="clip37"><path d="M449,123 L514,123 L514,170 L449,170 L449,123 z"/></clipPath></defs><g clip-path="url(#clip37)" fill="none" opacity="1" stroke="#000000" stroke-linecap="butt" stroke-linejoin="miter" stroke-miterlimit="2" stroke-opacity="1" stroke-width="0.395" transform="matrix(2.53165,0,0,2.53165,-1120.25,-307.595)"><polyline fill="none" points="471,149 471,151" vector-effect="none"/></g><defs><clipPath id="clip38"><path d="M449,123 L514,123 L514,170 L449,170 L449,123 z"/></clipPath></defs><g clip-path="url(#clip38)" fill="none" opacity="1" stroke="#000000" stroke-linecap="butt" stroke-linejoin="miter" stroke-miterlimit="2" stroke-opacity="1" stroke-width="0.395" transform="matrix(2.53165,0,0,2.53165,-1120.25,-307.595)"><polyline fill="none" points="471,151 475,146" vector-effect="none"/></g><defs><clipPath id="clip39"><path d="M449,123 L514,123 L514,170 L449,170 L449,123 z"/></clipPath></defs><g clip-path="url(#clip39)" fill="none" opacity="1" stroke="#000000" stroke-linecap="butt" stroke-linejoin="miter" stroke-miterlimit="2" stroke-opacity="1" stroke-width="0.395" transform="matrix(2.53165,0,0,2.53165,-1120.25,-307.595)"><polyline fill="none" points="475,146 471,142" vector-effect="none"/></g><defs><clipPath id="clip40"><path d="M449,123 L514,123 L514,170 L449,170 L449,123 z"/></clipPath></defs><g clip-path="url(#clip40)" fill="none" opacity="1" stroke="#000000" stroke-linecap="butt" stroke-linejoin="miter" stroke-miterlimit="2" stroke-opacity="1" stroke-width="0.395" transform="matrix(2.53165,0,0,2.53165,-1120.25,-307.595)"><polyline fill="none" points="471,142 471,144" vector-effect="none"/></g><defs><clipPath id="clip41"><path d="M449,123 L514,123 L514,170 L449,170 L449,123 z"/></clipPath></defs><g clip-path="url(#clip41)" fill="none" opacity="1" stroke="#000000" stroke-linecap="butt" stroke-linejoin="miter" stroke-miterlimit="2" stroke-opacity="1" stroke-width="0.395" transform="matrix(2.53165,0,0,2.53165,-1120.25,-307.595)"><polyline fill="none" points="471,144 467,144" vector-effect="none"/></g><defs><clipPath id="clip42"><path d="M449,123 L514,123 L514,170 L449,170 L449,123 z"/></clipPath></defs><g clip-path="url(#clip42)" fill="none" opacity="1" stroke="#000000" stroke-linecap="butt" stroke-linejoin="miter" stroke-miterlimit="2" stroke-opacity="1" stroke-width="0.395" transform="matrix(2.53165,0,0,2.53165,-1120.25,-307.595)"><polyline fill="none" points="467,144 467,149" vector-effect="none"/></g><defs><clipPath id="clip43"><path d="M449,123 L514,123 L514,170 L449,170 L449,123 z"/></clipPath></defs><g clip-path="url(#clip43)" fill="none" opacity="1" stroke="#000000" stroke-linecap="butt" stroke-linejoin="miter" stroke-miterlimit="2" stroke-opacity="1" stroke-width="0.395" transform="matrix(2.53165,0,0,2.53165,-1120.25,-307.595)"><polyline fill="none" points="477,130 481,130" vector-effect="none"/></g><defs><clipPath id="clip44"><path d="M449,123 L514,123 L514,170 L449,170 L449,123 z"/></clipPath></defs><g clip-path="url(#clip44)" fill="none" opacity="1" stroke="#000000" stroke-linecap="butt" stroke-linejoin="miter" stroke-miterlimit="2" stroke-opacity="1" stroke-width="0.395" transform="matrix(2.53165,0,0,2.53165,-1120.25,-307.595)"><polyline fill="none" points="481,130 481,135" vector-effect="none"/></g><defs><clipPath id="clip45"><path d="M449,123 L514,123 L514,170 L449,170 L449,123 z"/></clipPath></defs><g clip-path="url(#clip45)" fill="none" opacity="1" stroke="#000000" stroke-linecap="butt" stroke-linejoin="miter" stroke-miterlimit="2" stroke-opacity="1" stroke-width="0.395" transform="matrix(2.53165,0,0,2.53165,-1120.25,-307.595)"><polyline fill="none" points="481,135 477,135" vector-effect="none"/></g><defs><clipPath id="clip46"><path d="M449,123 L514,123 L514,170 L449,170 L449,123 z"/></clipPath></defs><g clip-path="url(#clip46)" fill="none" opacity="1" stroke="#000000" stroke-linecap="butt" stroke-linejoin="miter" stroke-miterlimit="2" stroke-opacity="1" stroke-width="0.395" transform="matrix(2.53165,0,0,2.53165,-1120.25,-307.595)"><polyline fill="none" points="477,135 477,130" vector-effect="none"/></g><defs><clipPath id="clip47"><path d="M449,123 L514,123 L514,170 L449,170 L449,123 z"/></clipPath></defs><g clip-path="url(#clip47)" fill="none" opacity="1" stroke="#000000" stroke-linecap="butt" stroke-linejoin="miter" stroke-miterlimit="2" stroke-opacity="1" stroke-width="0.395" transform="matrix(2.53165,0,0,2.53165,-1120.25,-307.595)"><polyline fill="none" points="477,137 484,137" vector-effect="none"/></g><defs><clipPath id="clip48"><path d="M449,123 L514,123 L514,170 L449,170 L449,123 z"/></clipPath></defs><g clip-path="url(#clip48)" fill="none" opacity="1" stroke="#000000" stroke-linecap="butt" stroke-linejoin="miter" stroke-miterlimit="2" stroke-opacity="1" stroke-width="0.395" transform="matrix(2.53165,0,0,2.53165,-1120.25,-307.595)"><polyline fill="none" points="484,137 484,142" vector-effect="none"/></g><defs><clipPath id="clip49"><path d="M449,123 L514,123 L514,170 L449,170 L449,123 z"/></clipPath></defs><g clip-path="url(#clip49)" fill="none" opacity="1" stroke="#000000" stroke-linecap="butt" stroke-linejoin="miter" stroke-miterlimit="2" stroke-opacity="1" stroke-width="0.395" transform="matrix(2.53165,0,0,2.53165,-1120.25,-307.595)"><polyline fill="none" points="484,142 477,142" vector-effect="none"/></g><defs><clipPath id="clip50"><path d="M449,123 L514,123 L514,170 L449,170 L449,123 z"/></clipPath></defs><g clip-path="url(#clip50)" fill="none" opacity="1" stroke="#000000" stroke-linecap="butt" stroke-linejoin="miter" stroke-miterlimit="2" stroke-opacity="1" stroke-width="0.395" transform="matrix(2.53165,0,0,2.53165,-1120.25,-307.595)"><polyline fill="none" points="477,142 477,137" vector-effect="none"/></g><defs><clipPath id="clip51"><path d="M449,123 L514,123 L514,170 L449,170 L449,123 z"/></clipPath></defs><g clip-path="url(#clip51)" fill="none" opacity="1" stroke="#000000" stroke-linecap="butt" stroke-linejoin="miter" stroke-miterlimit="2" stroke-opacity="1" stroke-width="0.395" transform="matrix(2.53165,0,0,2.53165,-1120.25,-307.595)"><polyline fill="none" points="477,145 488,145" vector-effect="none"/></g><defs><clipPath id="clip52"><path d="M449,123 L514,123 L514,170 L449,170 L449,123 z"/></clipPath></defs><g clip-path="url(#clip52)" fill="none" opacity="1" stroke="#000000" stroke-linecap="butt" stroke-linejoin="miter" stroke-miterlimit="2" stroke-opacity="1" stroke-width="0.395" transform="matrix(2.53165,0,0,2.53165,-1120.25,-307.595)"><polyline fill="none" points="488,145 488,150" vector-effect="none"/></g><defs><clipPath id="clip53"><path d="M449,123 L514,123 L514,170 L449,170 L449,123 z"/></clipPath></defs><g clip-path="url(#clip53)" fill="none" opacity="1" stroke="#000000" stroke-linecap="butt" stroke-linejoin="miter" stroke-miterlimit="2" stroke-opacity="1" stroke-width="0.395" transform="matrix(2.53165,0,0,2.53165,-1120.25,-307.595)"><polyline fill="none" points="488,150 477,150" vector-effect="none"/></g><defs><clipPath id="clip54"><path d="M449,123 L514,123 L514,170 L449,170 L449,123 z"/></clipPath></defs><g clip-path="url(#clip54)" fill="none" opacity="1" stroke="#000000" stroke-linecap="butt" stroke-linejoin="miter" stroke-miterlimit="2" stroke-opacity="1" stroke-width="0.395" transform="matrix(2.53165,0,0,2.53165,-1120.25,-307.595)"><polyline fill="none" points="477,150 477,145" vector-effect="none"/></g><defs><clipPath id="clip55"><path d="M449,123 L514,123 L514,170 L449,170 L449,123 z"/></clipPath></defs><g clip-path="url(#clip55)" fill="none" opacity="1" stroke="#000000" stroke-linecap="butt" stroke-linejoin="miter" stroke-miterlimit="2" stroke-opacity="1" stroke-width="0.395" transform="matrix(2.53165,0,0,2.53165,-1120.25,-307.595)"><polyline fill="none" points="477,153 491,153" vector-effect="none"/></g><defs><clipPath id="clip56"><path d="M449,123 L514,123 L514,170 L449,170 L449,123 z"/></clipPath></defs><g clip-path="url(#clip56)" fill="none" opacity="1" stroke="#000000" stroke-linecap="butt" stroke-linejoin="miter" stroke-miterlimit="2" stroke-opacity="1" stroke-width="0.395" transform="matrix(2.53165,0,0,2.53165,-1120.25,-307.595)"><polyline fill="none" points="491,153 491,158" vector-effect="none"/></g><defs><clipPath id="clip57"><path d="M449,123 L514,123 L514,170 L449,170 L449,123 z"/></clipPath></defs><g clip-path="url(#clip57)" fill="none" opacity="1" stroke="#000000" stroke-linecap="butt" stroke-linejoin="miter" stroke-miterlimit="2" stroke-opacity="1" stroke-width="0.395" transform="matrix(2.53165,0,0,2.53165,-1120.25,-307.595)"><polyline fill="none" points="491,158 477,158" vector-effect="none"/></g><defs><clipPath id="clip58"><path d="M449,123 L514,123 L514,170 L449,170 L449,123 z"/></clipPath></defs><g clip-path="url(#clip58)" fill="none" opacity="1" stroke="#000000" stroke-linecap="butt" stroke-linejoin="miter" stroke-miterlimit="2" stroke-opacity="1" stroke-width="0.395" transform="matrix(2.53165,0,0,2.53165,-1120.25,-307.595)"><polyline fill="none" points="477,158 477,153" vector-effect="none"/></g><defs><clipPath id="clip59"><path d="M449,123 L514,123 L514,170 L449,170 L449,123 z"/></clipPath></defs><g clip-path="url(#clip59)" fill="none" opacity="1" stroke="#000000" stroke-linecap="butt" stroke-linejoin="miter" stroke-miterlimit="2" stroke-opacity="1" stroke-width="0.395" transform="matrix(2.53165,0,0,2.53165,-1120.25,-307.595)"><polyline fill="none" points="477,160 495,160" vector-effect="none"/></g><defs><clipPath id="clip60"><path d="M449,123 L514,123 L514,170 L449,170 L449,123 z"/></clipPath></defs><g clip-path="url(#clip60)" fill="none" opacity="1" stroke="#000000" stroke-linecap="butt" stroke-linejoin="miter" stroke-miterlimit="2" stroke-opacity="1" stroke-width="0.395" transform="matrix(2.53165,0,0,2.53165,-1120.25,-307.595)"><polyline fill="none" points="495,160 495,165" vector-effect="none"/></g><defs><clipPath id="clip61"><path d="M449,123 L514,123 L514,170 L449,170 L449,123 z"/></clipPath></defs><g clip-path="url(#clip61)" fill="none" opacity="1" stroke="#000000" stroke-linecap="butt" stroke-linejoin="miter" stroke-miterlimit="2" stroke-opacity="1" stroke-width="0.395" transform="matrix(2.53165,0,0,2.53165,-1120.25,-307.595)"><polyline fill="none" points="495,165 477,165" vector-effect="none"/></g><defs><clipPath id="clip62"><path d="M449,123 L514,123 L514,170 L449,170 L449,123 z"/></clipPath></defs><g clip-path="url(#clip62)" fill="none" opacity="1" stroke="#000000" stroke-linecap="butt" stroke-linejoin="miter" stroke-miterlimit="2" stroke-opacity="1" stroke-width="0.395" transform="matrix(2.53165,0,0,2.53165,-1120.25,-307.595)"><polyline fill="none" points="477,165 477,160" vector-effect="none"/></g><defs><clipPath id="clip64"><path d="M-317,-56 L16,-56 L16,185 L-317,185 L-317,-56 z"/></clipPath></defs><g clip-path="url(#clip64)" fill="none" opacity="1" stroke="#000000" stroke-linecap="butt" stroke-linejoin="miter" stroke-miterlimit="2" stroke-opacity="1" stroke-width="0.395" transform="matrix(0.494462,0,0,0.494462,174.684,32.9114)"><text fill="#000000" fill-opacity="1" font-family="Liberation Sans" font-size="40" font-style="normal" font-weight="400" stroke="none" textLength="54" x="-70.1094" xml:space="preserve" y="17.9219">Val</text></g><defs><clipPath id="clip67"><path d="M-317,-184 L16,-184 L16,57 L-317,57 L-317,-184 z"/></clipPath></defs><g clip-path="url(#clip67)" fill="none" opacity="1" stroke="#000000" stroke-linecap="butt" stroke-linejoin="miter" stroke-miterlimit="2" stroke-opacity="1" stroke-width="0.395" transform="matrix(0.494462,0,0,0.494462,174.684,96.2025)"><text fill="#000000" fill-opacity="1" font-family="Liberation Sans" font-size="40" font-style="normal" font-weight="400" stroke="none" textLength="50" x="-68.2656" xml:space="preserve" y="17.9219">Idx</text></g><defs><clipPath id="clip73"><path d="M-7,-2 L72,-2 L72,49 L-7,49 L-7,-2 z"/></clipPath></defs><g clip-path="url(#clip73)" fill="none" opacity="1" stroke="#000000" stroke-linecap="butt" stroke-linejoin="miter" stroke-miterlimit="2" stroke-opacity="1" stroke-width="0.689666" transform="matrix(2.53165,0,0,2.53165,17.7215,5.06329)"><path d="M0,0 L65,0 L65,47 L0,47 L0,0 z" fill-rule="evenodd" vector-effect="none"/></g></g></svg>
