<?xml version="1.0" encoding="UTF-8"?><svg width="52.9167mm" height="32.5437mm" viewBox="0 0 200 123" xmlns="http://www.w3.org/2000/svg" xmlns:xlink="http://www.w3.org/1999/xlink"><g fill="none" stroke="black" stroke-width="1" fill-rule="evenodd" stroke-linecap="square" stroke-linejoin="bevel"><g clip-path="none" fill="none" opacity="1" stroke="none" stroke-opacity="0" transform="matrix(1,0,0,1,0,0)"><path d="M0,0 L200,0 L200,123 L0,123 L0,0 z" fill-rule="evenodd" vector-effect="none"/></g><defs><clipPath id="clip3"><path d="M-77,-26 L7,-26 L7,26 L-77,26 L-77,-26 z"/></clipPath></defs><g clip-path="url(#clip3)" fill="none" opacity="1" stroke="#000000" stroke-linecap="round" stroke-linejoin="miter" stroke-miterlimit="2" stroke-opacity="1" stroke-width="2" transform="matrix(2.38095,0,0,2.38095,183.333,61.9048)"><path d="M0,-5 L5,0 L0,5" fill-rule="evenodd" vector-effect="none"/></g><defs><clipPath id="clip6"><path d="M7,26 L-77,26 L-77,-26 L7,-26 L7,26 z"/></clipPath></defs><g clip-path="url(#clip6)" fill="none" opacity="1" stroke="#000000" stroke-linecap="round" stroke-linejoin="miter" stroke-miterlimit="2" stroke-opacity="1" stroke-width="2" transform="matrix(-2.38095,0,0,-2.38095,16.6667,61.9048)"><path d="M5,-5 L0,0 L5,5" fill-rule="evenodd" vector-effect="none"/></g><defs><clipPath id="clip9"><path d="M-7,-2 L77,-2 L77,50 L-7,50 L-7,-2 z"/></clipPath></defs><g clip-path="url(#clip9)" fill="#ffffff" fill-opacity="1" opacity="1" stroke="none" stroke-opacity="0" transform="matrix(2.38095,0,0,2.38095,16.6667,4.7619)"><path d="M0,0 L70,0 L70,48 L0,48 L0,0 z" fill-rule="evenodd" vector-effect="none"/></g><defs><clipPath id="clip14"><path d="M-179,-97 L179,-97 L179,149 L-179,149 L-179,-97 z"/></clipPath></defs><g clip-path="url(#clip14)" fill="none" opacity="1" stroke="#000000" stroke-linecap="butt" stroke-linejoin="miter" stroke-miterlimit="2" stroke-opacity="1" stroke-width="0.42" transform="matrix(0.46503,0,0,0.46503,100,50)"><text fill="#000000" fill-opacity="1" font-family="Liberation Sans" font-size="40" font-style="normal" font-weight="400" stroke="none" textLength="68" x="-44.0469" xml:space="preserve" y="17.9219">CIC</text></g><defs><clipPath id="clip17"><path d="M-179,-148 L179,-148 L179,98 L-179,98 L-179,-148 z"/></clipPath></defs><g clip-path="url(#clip17)" fill="none" opacity="1" stroke="#000000" stroke-linecap="butt" stroke-linejoin="miter" stroke-miterlimit="2" stroke-opacity="1" stroke-width="0.42" transform="matrix(0.46503,0,0,0.46503,100,73.8095)"><text fill="#000000" fill-opacity="1" font-family="Liberation Sans" font-size="40" font-style="normal" font-weight="400" stroke="none" textLength="197" x="-127.969" xml:space="preserve" y="17.9219">Decimation</text></g><defs><clipPath id="clip23"><path d="M-7,-2 L77,-2 L77,50 L-7,50 L-7,-2 z"/></clipPath></defs><g clip-path="url(#clip23)" fill="none" opacity="1" stroke="#000000" stroke-linecap="butt" stroke-linejoin="miter" stroke-miterlimit="2" stroke-opacity="1" stroke-width="0.706805" transform="matrix(2.38095,0,0,2.38095,16.6667,4.7619)"><path d="M0,0 L70,0 L70,48 L0,48 L0,0 z" fill-rule="evenodd" vector-effect="none"/></g></g></svg>
