<?xml version="1.0" encoding="UTF-8"?><svg width="52.9167mm" height="34.6604mm" viewBox="0 0 200 131" xmlns="http://www.w3.org/2000/svg" xmlns:xlink="http://www.w3.org/1999/xlink"><g fill="none" stroke="black" stroke-width="1" fill-rule="evenodd" stroke-linecap="square" stroke-linejoin="bevel"><g clip-path="none" fill="none" opacity="1" stroke="none" stroke-opacity="0" transform="matrix(1,0,0,1,0,0)"><path d="M0,0 L200,0 L200,131 L0,131 L0,0 z" fill-rule="evenodd" vector-effect="none"/></g><defs><clipPath id="clip3"><path d="M7,21 L-57,21 L-57,-21 L7,-21 L7,21 z"/></clipPath></defs><g clip-path="url(#clip3)" fill="none" opacity="1" stroke="#000000" stroke-linecap="round" stroke-linejoin="miter" stroke-miterlimit="2" stroke-opacity="1" stroke-width="2" transform="matrix(-3.125,0,0,-3.125,21.875,65.625)"><path d="M5,-5 L0,0 L5,5" fill-rule="evenodd" vector-effect="none"/></g><defs><clipPath id="clip6"><path d="M-57,-21 L7,-21 L7,21 L-57,21 L-57,-21 z"/></clipPath></defs><g clip-path="url(#clip6)" fill="none" opacity="1" stroke="#000000" stroke-linecap="round" stroke-linejoin="miter" stroke-miterlimit="2" stroke-opacity="1" stroke-width="2" transform="matrix(3.125,0,0,3.125,178.125,65.625)"><path d="M0,-5 L5,0 L0,5" fill-rule="evenodd" vector-effect="none"/></g><defs><clipPath id="clip9"><path d="M-7,-2 L57,-2 L57,40 L-7,40 L-7,-2 z"/></clipPath></defs><g clip-path="url(#clip9)" fill="#ffffff" fill-opacity="1" opacity="1" stroke="none" stroke-opacity="0" transform="matrix(3.125,0,0,3.125,21.875,6.25)"><path d="M0,0 L50,0 L50,38 L0,38 L0,0 z" fill-rule="evenodd" vector-effect="none"/></g><defs><clipPath id="clip13"><path d="M185,31 L235,31 L235,69 L185,69 L185,31 z"/></clipPath></defs><g clip-path="url(#clip13)" fill="none" opacity="1" stroke="#000000" stroke-linecap="butt" stroke-linejoin="miter" stroke-miterlimit="2" stroke-opacity="1" stroke-width="0.32" transform="matrix(3.125,0,0,3.125,-554.688,-89.0625)"><path d="M190,36 L195,36 L195,41 L190,41 L190,36 z" fill-rule="evenodd" vector-effect="none"/></g><defs><clipPath id="clip14"><path d="M185,31 L235,31 L235,69 L185,69 L185,31 z"/></clipPath></defs><g clip-path="url(#clip14)" fill="none" opacity="1" stroke="#000000" stroke-linecap="butt" stroke-linejoin="miter" stroke-miterlimit="2" stroke-opacity="1" stroke-width="0.32" transform="matrix(3.125,0,0,3.125,-554.688,-89.0625)"><path d="M190,47 L195,47 L195,52 L190,52 L190,47 z" fill-rule="evenodd" vector-effect="none"/></g><defs><clipPath id="clip15"><path d="M185,31 L235,31 L235,69 L185,69 L185,31 z"/></clipPath></defs><g clip-path="url(#clip15)" fill="none" opacity="1" stroke="#000000" stroke-linecap="butt" stroke-linejoin="miter" stroke-miterlimit="2" stroke-opacity="1" stroke-width="0.32" transform="matrix(3.125,0,0,3.125,-554.688,-89.0625)"><path d="M190,58 L195,58 L195,63 L190,63 L190,58 z" fill-rule="evenodd" vector-effect="none"/></g><defs><clipPath id="clip16"><path d="M185,31 L235,31 L235,69 L185,69 L185,31 z"/></clipPath></defs><g clip-path="url(#clip16)" fill="#000000" fill-opacity="1" opacity="1" stroke="none" stroke-opacity="0" transform="matrix(3.125,0,0,3.125,-556.25,-90.625)"><path d="M190,36 L195,36 L195,41 L190,41 L190,36 z" fill-rule="evenodd" vector-effect="none"/></g><defs><clipPath id="clip17"><path d="M185,31 L235,31 L235,69 L185,69 L185,31 z"/></clipPath></defs><g clip-path="url(#clip17)" fill="#000000" fill-opacity="1" opacity="1" stroke="#000000" stroke-linecap="square" stroke-linejoin="bevel" stroke-opacity="1" stroke-width="1" transform="matrix(3.125,0,0,3.125,-554.688,-89.0625)"><path d="M190,36 L195,36 L195,41 L190,41 L190,36 z" fill-rule="evenodd" vector-effect="none"/></g><defs><clipPath id="clip18"><path d="M185,31 L235,31 L235,69 L185,69 L185,31 z"/></clipPath></defs><g clip-path="url(#clip18)" fill="#000000" fill-opacity="1" opacity="1" stroke="none" stroke-opacity="0" transform="matrix(3.125,0,0,3.125,-556.25,-90.625)"><path d="M190,58 L195,58 L195,63 L190,63 L190,58 z" fill-rule="evenodd" vector-effect="none"/></g><defs><clipPath id="clip19"><path d="M185,31 L235,31 L235,69 L185,69 L185,31 z"/></clipPath></defs><g clip-path="url(#clip19)" fill="#000000" fill-opacity="1" opacity="1" stroke="#000000" stroke-linecap="square" stroke-linejoin="bevel" stroke-opacity="1" stroke-width="1" transform="matrix(3.125,0,0,3.125,-554.688,-89.0625)"><path d="M190,58 L195,58 L195,63 L190,63 L190,58 z" fill-rule="evenodd" vector-effect="none"/></g><defs><clipPath id="clip20"><path d="M185,31 L235,31 L235,69 L185,69 L185,31 z"/></clipPath></defs><g clip-path="url(#clip20)" fill="#000000" fill-opacity="1" opacity="1" stroke="none" stroke-opacity="0" transform="matrix(3.125,0,0,3.125,-556.25,-90.625)"><path d="M225,40 L230,40 L230,45 L225,45 L225,40 z" fill-rule="evenodd" vector-effect="none"/></g><defs><clipPath id="clip21"><path d="M185,31 L235,31 L235,69 L185,69 L185,31 z"/></clipPath></defs><g clip-path="url(#clip21)" fill="#000000" fill-opacity="1" opacity="1" stroke="#000000" stroke-linecap="square" stroke-linejoin="bevel" stroke-opacity="1" stroke-width="1" transform="matrix(3.125,0,0,3.125,-554.688,-89.0625)"><path d="M225,40 L230,40 L230,45 L225,45 L225,40 z" fill-rule="evenodd" vector-effect="none"/></g><defs><clipPath id="clip22"><path d="M185,31 L235,31 L235,69 L185,69 L185,31 z"/></clipPath></defs><g clip-path="url(#clip22)" fill="#000000" fill-opacity="1" opacity="1" stroke="none" stroke-opacity="0" transform="matrix(3.125,0,0,3.125,-556.25,-90.625)"><path d="M225,54 L230,54 L230,59 L225,59 L225,54 z" fill-rule="evenodd" vector-effect="none"/></g><defs><clipPath id="clip23"><path d="M185,31 L235,31 L235,69 L185,69 L185,31 z"/></clipPath></defs><g clip-path="url(#clip23)" fill="#000000" fill-opacity="1" opacity="1" stroke="#000000" stroke-linecap="square" stroke-linejoin="bevel" stroke-opacity="1" stroke-width="1" transform="matrix(3.125,0,0,3.125,-554.688,-89.0625)"><path d="M225,54 L230,54 L230,59 L225,59 L225,54 z" fill-rule="evenodd" vector-effect="none"/></g><defs><clipPath id="clip24"><path d="M185,31 L235,31 L235,69 L185,69 L185,31 z"/></clipPath></defs><g clip-path="url(#clip24)" fill="#000000" fill-opacity="1" opacity="1" stroke="#000000" stroke-linecap="square" stroke-linejoin="bevel" stroke-opacity="1" stroke-width="1" transform="matrix(3.125,0,0,3.125,-554.688,-89.0625)"><polyline fill="none" points="195,39 225,42" vector-effect="none"/></g><defs><clipPath id="clip25"><path d="M185,31 L235,31 L235,69 L185,69 L185,31 z"/></clipPath></defs><g clip-path="url(#clip25)" fill="#000000" fill-opacity="1" opacity="1" stroke="#000000" stroke-linecap="square" stroke-linejoin="bevel" stroke-opacity="1" stroke-width="1" transform="matrix(3.125,0,0,3.125,-554.688,-89.0625)"><polyline fill="none" points="195,60 225,57" vector-effect="none"/></g><defs><clipPath id="clip30"><path d="M-7,-2 L57,-2 L57,40 L-7,40 L-7,-2 z"/></clipPath></defs><g clip-path="url(#clip30)" fill="none" opacity="1" stroke="#000000" stroke-linecap="butt" stroke-linejoin="miter" stroke-miterlimit="2" stroke-opacity="1" stroke-width="0.633957" transform="matrix(3.125,0,0,3.125,21.875,6.25)"><path d="M0,0 L50,0 L50,38 L0,38 L0,0 z" fill-rule="evenodd" vector-effect="none"/></g></g></svg>
