<?xml version="1.0" encoding="UTF-8"?><svg width="52.9167mm" height="32.8083mm" viewBox="0 0 200 124" xmlns="http://www.w3.org/2000/svg" xmlns:xlink="http://www.w3.org/1999/xlink"><g fill="none" stroke="black" stroke-width="1" fill-rule="evenodd" stroke-linecap="square" stroke-linejoin="bevel"><g clip-path="none" fill="none" opacity="1" stroke="none" stroke-opacity="0" transform="matrix(1,0,0,1,0,0)"><path d="M0,0 L200,0 L200,124 L0,124 L0,0 z" fill-rule="evenodd" vector-effect="none"/></g><defs><clipPath id="clip3"><path d="M-117,-56 L7,-56 L7,21 L-117,21 L-117,-56 z"/></clipPath></defs><g clip-path="url(#clip3)" fill="none" opacity="1" stroke="#000000" stroke-linecap="round" stroke-linejoin="miter" stroke-miterlimit="2" stroke-opacity="1" stroke-width="2" transform="matrix(1.6129,0,0,1.6129,188.71,90.3226)"><path d="M0,-5 L5,0 L0,5" fill-rule="evenodd" vector-effect="none"/></g><defs><clipPath id="clip6"><path d="M-117,-21 L7,-21 L7,56 L-117,56 L-117,-21 z"/></clipPath></defs><g clip-path="url(#clip6)" fill="none" opacity="1" stroke="#000000" stroke-linecap="round" stroke-linejoin="miter" stroke-miterlimit="2" stroke-opacity="1" stroke-width="2" transform="matrix(1.6129,0,0,1.6129,188.71,33.871)"><path d="M0,-5 L5,0 L0,5" fill-rule="evenodd" vector-effect="none"/></g><defs><clipPath id="clip9"><path d="M7,56 L-117,56 L-117,-21 L7,-21 L7,56 z"/></clipPath></defs><g clip-path="url(#clip9)" fill="none" opacity="1" stroke="#000000" stroke-linecap="round" stroke-linejoin="miter" stroke-miterlimit="2" stroke-opacity="1" stroke-width="2" transform="matrix(-1.6129,0,0,-1.6129,11.2903,90.3226)"><path d="M5,-5 L0,0 L5,5" fill-rule="evenodd" vector-effect="none"/></g><defs><clipPath id="clip12"><path d="M7,21 L-117,21 L-117,-56 L7,-56 L7,21 z"/></clipPath></defs><g clip-path="url(#clip12)" fill="none" opacity="1" stroke="#000000" stroke-linecap="round" stroke-linejoin="miter" stroke-miterlimit="2" stroke-opacity="1" stroke-width="2" transform="matrix(-1.6129,0,0,-1.6129,11.2903,33.871)"><path d="M5,-5 L0,0 L5,5" fill-rule="evenodd" vector-effect="none"/></g><defs><clipPath id="clip15"><path d="M-7,-2 L117,-2 L117,75 L-7,75 L-7,-2 z"/></clipPath></defs><g clip-path="url(#clip15)" fill="#ffffff" fill-opacity="1" opacity="1" stroke="none" stroke-opacity="0" transform="matrix(1.6129,0,0,1.6129,11.2903,3.22581)"><path d="M0,0 L110,0 L110,73 L0,73 L0,0 z" fill-rule="evenodd" vector-effect="none"/></g><defs><clipPath id="clip20"><path d="M-282,-133 L281,-133 L281,241 L-282,241 L-282,-133 z"/></clipPath></defs><g clip-path="url(#clip20)" fill="none" opacity="1" stroke="#000000" stroke-linecap="butt" stroke-linejoin="miter" stroke-miterlimit="2" stroke-opacity="1" stroke-width="0.62" transform="matrix(0.31502,0,0,0.31502,100,45.1613)"><text fill="#000000" fill-opacity="1" font-family="Liberation Sans" font-size="40" font-style="normal" font-weight="400" stroke="none" textLength="89" x="-56.8594" xml:space="preserve" y="17.9219">NCO</text></g><defs><clipPath id="clip23"><path d="M-282,-184 L281,-184 L281,190 L-282,190 L-282,-184 z"/></clipPath></defs><g clip-path="url(#clip23)" fill="none" opacity="1" stroke="#000000" stroke-linecap="butt" stroke-linejoin="miter" stroke-miterlimit="2" stroke-opacity="1" stroke-width="0.62" transform="matrix(0.31502,0,0,0.31502,100,61.2903)"><text fill="#000000" fill-opacity="1" font-family="Liberation Sans" font-size="40" font-style="normal" font-weight="400" stroke="none" textLength="268" x="-172.828" xml:space="preserve" y="17.9219">HDL Optimized</text></g><defs><clipPath id="clip26"><path d="M-282,-236 L281,-236 L281,138 L-282,138 L-282,-236 z"/></clipPath></defs><g clip-path="url(#clip26)" fill="none" opacity="1" stroke="#000000" stroke-linecap="butt" stroke-linejoin="miter" stroke-miterlimit="2" stroke-opacity="1" stroke-width="0.62" transform="matrix(0.31502,0,0,0.31502,100,77.4194)"><text fill="#000000" fill-opacity="1" font-family="Liberation Sans" font-size="40" font-style="normal" font-weight="400" stroke="none" textLength="193" x="-125.906" xml:space="preserve" y="17.9219"> Latency=6</text></g><defs><clipPath id="clip29"><path d="M-15,-97 L548,-97 L548,277 L-15,277 L-15,-97 z"/></clipPath></defs><g clip-path="url(#clip29)" fill="none" opacity="1" stroke="#000000" stroke-linecap="butt" stroke-linejoin="miter" stroke-miterlimit="2" stroke-opacity="1" stroke-width="0.62" transform="matrix(0.31502,0,0,0.31502,16.129,33.871)"><text fill="#000000" fill-opacity="1" font-family="Liberation Sans" font-size="40" font-style="normal" font-weight="400" stroke="none" textLength="49" x="0" xml:space="preserve" y="17.9219">inc</text></g><defs><clipPath id="clip32"><path d="M-15,-276 L548,-276 L548,98 L-15,98 L-15,-276 z"/></clipPath></defs><g clip-path="url(#clip32)" fill="none" opacity="1" stroke="#000000" stroke-linecap="butt" stroke-linejoin="miter" stroke-miterlimit="2" stroke-opacity="1" stroke-width="0.62" transform="matrix(0.31502,0,0,0.31502,16.129,90.3226)"><text fill="#000000" fill-opacity="1" font-family="Liberation Sans" font-size="40" font-style="normal" font-weight="400" stroke="none" textLength="110" x="0" xml:space="preserve" y="17.9219">validIn</text></g><defs><clipPath id="clip35"><path d="M-548,-97 L15,-97 L15,277 L-548,277 L-548,-97 z"/></clipPath></defs><g clip-path="url(#clip35)" fill="none" opacity="1" stroke="#000000" stroke-linecap="butt" stroke-linejoin="miter" stroke-miterlimit="2" stroke-opacity="1" stroke-width="0.62" transform="matrix(0.31502,0,0,0.31502,183.871,33.871)"><text fill="#000000" fill-opacity="1" font-family="Liberation Sans" font-size="40" font-style="normal" font-weight="400" stroke="none" textLength="48" x="-65.4062" xml:space="preserve" y="17.9219">sin</text></g><defs><clipPath id="clip38"><path d="M-548,-276 L15,-276 L15,98 L-548,98 L-548,-276 z"/></clipPath></defs><g clip-path="url(#clip38)" fill="none" opacity="1" stroke="#000000" stroke-linecap="butt" stroke-linejoin="miter" stroke-miterlimit="2" stroke-opacity="1" stroke-width="0.62" transform="matrix(0.31502,0,0,0.31502,183.871,90.3226)"><text fill="#000000" fill-opacity="1" font-family="Liberation Sans" font-size="40" font-style="normal" font-weight="400" stroke="none" textLength="142" x="-187.734" xml:space="preserve" y="17.9219">validOut</text></g><defs><clipPath id="clip44"><path d="M-7,-2 L117,-2 L117,75 L-7,75 L-7,-2 z"/></clipPath></defs><g clip-path="url(#clip44)" fill="none" opacity="1" stroke="#000000" stroke-linecap="butt" stroke-linejoin="miter" stroke-miterlimit="2" stroke-opacity="1" stroke-width="0.825956" transform="matrix(1.6129,0,0,1.6129,11.2903,3.22581)"><path d="M0,0 L110,0 L110,73 L0,73 L0,0 z" fill-rule="evenodd" vector-effect="none"/></g></g></svg>
