<?xml version="1.0" encoding="UTF-8"?><svg width="50.8mm" height="52.9167mm" viewBox="0 0 192 200" xmlns="http://www.w3.org/2000/svg" xmlns:xlink="http://www.w3.org/1999/xlink"><g fill="none" stroke="black" stroke-width="1" fill-rule="evenodd" stroke-linecap="square" stroke-linejoin="bevel"><g clip-path="none" fill="none" opacity="1" stroke="none" stroke-opacity="0" transform="matrix(1,0,0,1,0,0)"><path d="M0,0 L192,0 L192,200 L0,200 L0,0 z" fill-rule="evenodd" vector-effect="none"/></g><defs><clipPath id="clip3"><path d="M7,28 L-47,28 L-47,-28 L7,-28 L7,28 z"/></clipPath></defs><g clip-path="url(#clip3)" fill="none" opacity="1" stroke="#000000" stroke-linecap="round" stroke-linejoin="miter" stroke-miterlimit="2" stroke-opacity="1" stroke-width="2" transform="matrix(-3.57143,0,0,-3.57143,25,100)"><path d="M5,-5 L0,0 L5,5" fill-rule="evenodd" vector-effect="none"/></g><defs><clipPath id="clip6"><path d="M-7,-2 L47,-2 L47,54 L-7,54 L-7,-2 z"/></clipPath></defs><g clip-path="url(#clip6)" fill="#ffffff" fill-opacity="1" opacity="1" stroke="none" stroke-opacity="0" transform="matrix(3.57143,0,0,3.57143,25,7.14286)"><path d="M0,0 L45,0 L45,52 L0,52 L0,0 z" fill-rule="evenodd" vector-effect="none"/></g><defs><clipPath id="clip10"><path d="M310,19 L355,19 L355,71 L310,71 L310,19 z"/></clipPath></defs><g clip-path="url(#clip10)" fill="#000000" fill-opacity="1" opacity="1" stroke="#000000" stroke-linecap="butt" stroke-linejoin="miter" stroke-miterlimit="2" stroke-opacity="1" stroke-width="0.28" transform="matrix(3.57143,0,0,3.57143,-1082.14,-60.7143)"><path d="M314,24 L351,24 L351,58 L314,58 L314,24 z" fill-rule="evenodd" vector-effect="none"/></g><defs><clipPath id="clip11"><path d="M310,19 L355,19 L355,71 L310,71 L310,19 z"/></clipPath></defs><g clip-path="url(#clip11)" fill="#bebebe" fill-opacity="1" opacity="1" stroke="#bebebe" stroke-linecap="square" stroke-linejoin="bevel" stroke-opacity="1" stroke-width="1" transform="matrix(3.57143,0,0,3.57143,-1082.14,-60.7143)"><path d="M316,26 L349,26 L349,56 L316,56 L316,26 z" fill-rule="evenodd" vector-effect="none"/></g><defs><clipPath id="clip12"><path d="M310,19 L355,19 L355,71 L310,71 L310,19 z"/></clipPath></defs><g clip-path="url(#clip12)" fill="#ffff00" fill-opacity="1" opacity="1" stroke="#ffff00" stroke-linecap="square" stroke-linejoin="bevel" stroke-opacity="1" stroke-width="1" transform="matrix(3.57143,0,0,3.57143,-1082.14,-60.7143)"><path d="M321,34 L323,34 L323,51 L321,51 L321,34 z" fill-rule="evenodd" vector-effect="none"/></g><defs><clipPath id="clip13"><path d="M310,19 L355,19 L355,71 L310,71 L310,19 z"/></clipPath></defs><g clip-path="url(#clip13)" fill="#ffff00" fill-opacity="1" opacity="1" stroke="#ffff00" stroke-linecap="square" stroke-linejoin="bevel" stroke-opacity="1" stroke-width="1" transform="matrix(3.57143,0,0,3.57143,-1082.14,-60.7143)"><path d="M324,40 L326,40 L326,51 L324,51 L324,40 z" fill-rule="evenodd" vector-effect="none"/></g><defs><clipPath id="clip14"><path d="M310,19 L355,19 L355,71 L310,71 L310,19 z"/></clipPath></defs><g clip-path="url(#clip14)" fill="#ffff00" fill-opacity="1" opacity="1" stroke="#ffff00" stroke-linecap="square" stroke-linejoin="bevel" stroke-opacity="1" stroke-width="1" transform="matrix(3.57143,0,0,3.57143,-1082.14,-60.7143)"><path d="M327,30 L329,30 L329,51 L327,51 L327,30 z" fill-rule="evenodd" vector-effect="none"/></g><defs><clipPath id="clip15"><path d="M310,19 L355,19 L355,71 L310,71 L310,19 z"/></clipPath></defs><g clip-path="url(#clip15)" fill="#ffff00" fill-opacity="1" opacity="1" stroke="#ffff00" stroke-linecap="square" stroke-linejoin="bevel" stroke-opacity="1" stroke-width="1" transform="matrix(3.57143,0,0,3.57143,-1082.14,-60.7143)"><path d="M330,37 L332,37 L332,51 L330,51 L330,37 z" fill-rule="evenodd" vector-effect="none"/></g><defs><clipPath id="clip16"><path d="M310,19 L355,19 L355,71 L310,71 L310,19 z"/></clipPath></defs><g clip-path="url(#clip16)" fill="#ffff00" fill-opacity="1" opacity="1" stroke="#ffff00" stroke-linecap="square" stroke-linejoin="bevel" stroke-opacity="1" stroke-width="1" transform="matrix(3.57143,0,0,3.57143,-1082.14,-60.7143)"><path d="M333,37 L335,37 L335,51 L333,51 L333,37 z" fill-rule="evenodd" vector-effect="none"/></g><defs><clipPath id="clip17"><path d="M310,19 L355,19 L355,71 L310,71 L310,19 z"/></clipPath></defs><g clip-path="url(#clip17)" fill="#ffff00" fill-opacity="1" opacity="1" stroke="#ffff00" stroke-linecap="square" stroke-linejoin="bevel" stroke-opacity="1" stroke-width="1" transform="matrix(3.57143,0,0,3.57143,-1082.14,-60.7143)"><path d="M336,33 L338,33 L338,51 L336,51 L336,33 z" fill-rule="evenodd" vector-effect="none"/></g><defs><clipPath id="clip18"><path d="M310,19 L355,19 L355,71 L310,71 L310,19 z"/></clipPath></defs><g clip-path="url(#clip18)" fill="#ffff00" fill-opacity="1" opacity="1" stroke="#ffff00" stroke-linecap="square" stroke-linejoin="bevel" stroke-opacity="1" stroke-width="1" transform="matrix(3.57143,0,0,3.57143,-1082.14,-60.7143)"><path d="M339,46 L341,46 L341,51 L339,51 L339,46 z" fill-rule="evenodd" vector-effect="none"/></g><defs><clipPath id="clip19"><path d="M310,19 L355,19 L355,71 L310,71 L310,19 z"/></clipPath></defs><g clip-path="url(#clip19)" fill="#000000" fill-opacity="1" opacity="1" stroke="#000000" stroke-linecap="square" stroke-linejoin="bevel" stroke-opacity="1" stroke-width="1" transform="matrix(3.57143,0,0,3.57143,-1082.14,-60.7143)"><path d="M319,29 L319,51 L319,29 z" fill-rule="evenodd" vector-effect="none"/></g><defs><clipPath id="clip20"><path d="M310,19 L355,19 L355,71 L310,71 L310,19 z"/></clipPath></defs><g clip-path="url(#clip20)" fill="#000000" fill-opacity="1" opacity="1" stroke="#000000" stroke-linecap="square" stroke-linejoin="bevel" stroke-opacity="1" stroke-width="1" transform="matrix(3.57143,0,0,3.57143,-1082.14,-60.7143)"><path d="M319,51 L346,51 L319,51 z" fill-rule="evenodd" vector-effect="none"/></g><defs><clipPath id="clip25"><path d="M-7,-2 L47,-2 L47,54 L-7,54 L-7,-2 z"/></clipPath></defs><g clip-path="url(#clip25)" fill="none" opacity="1" stroke="#000000" stroke-linecap="butt" stroke-linejoin="miter" stroke-miterlimit="2" stroke-opacity="1" stroke-width="0.600984" transform="matrix(3.57143,0,0,3.57143,25,7.14286)"><path d="M0,0 L45,0 L45,52 L0,52 L0,0 z" fill-rule="evenodd" vector-effect="none"/></g></g></svg>
