<?xml version="1.0" encoding="UTF-8"?><svg width="52.9167mm" height="39.6875mm" viewBox="0 0 200 150" xmlns="http://www.w3.org/2000/svg" xmlns:xlink="http://www.w3.org/1999/xlink"><g fill="none" stroke="black" stroke-width="1" fill-rule="evenodd" stroke-linecap="square" stroke-linejoin="bevel"><g clip-path="none" fill="none" opacity="1" stroke="none" stroke-opacity="0" transform="matrix(1,0,0,1,0,0)"><path d="M0,0 L200,0 L200,150 L0,150 L0,0 z" fill-rule="evenodd" vector-effect="none"/></g><defs><clipPath id="clip3"><path d="M-37,-24 L7,-24 L7,9 L-37,9 L-37,-24 z"/></clipPath></defs><g clip-path="url(#clip3)" fill="none" opacity="1" stroke="#000000" stroke-linecap="round" stroke-linejoin="miter" stroke-miterlimit="2" stroke-opacity="1" stroke-width="2" transform="matrix(4.54545,0,0,4.54545,168.182,109.091)"><path d="M0,-5 L5,0 L0,5" fill-rule="evenodd" vector-effect="none"/></g><defs><clipPath id="clip6"><path d="M7,19 L-37,19 L-37,-14 L7,-14 L7,19 z"/></clipPath></defs><g clip-path="url(#clip6)" fill="none" opacity="1" stroke="#000000" stroke-linecap="round" stroke-linejoin="miter" stroke-miterlimit="2" stroke-opacity="1" stroke-width="2" transform="matrix(-4.54545,0,0,-4.54545,31.8182,86.3636)"><path d="M5,-5 L0,0 L5,5" fill-rule="evenodd" vector-effect="none"/></g><defs><clipPath id="clip9"><path d="M-37,-9 L7,-9 L7,24 L-37,24 L-37,-9 z"/></clipPath></defs><g clip-path="url(#clip9)" fill="none" opacity="1" stroke="#000000" stroke-linecap="round" stroke-linejoin="miter" stroke-miterlimit="2" stroke-opacity="1" stroke-width="2" transform="matrix(4.54545,0,0,4.54545,168.182,40.9091)"><path d="M0,-5 L5,0 L0,5" fill-rule="evenodd" vector-effect="none"/></g><defs><clipPath id="clip12"><path d="M-7,-2 L37,-2 L37,31 L-7,31 L-7,-2 z"/></clipPath></defs><g clip-path="url(#clip12)" fill="#ffffff" fill-opacity="1" opacity="1" stroke="none" stroke-opacity="0" transform="matrix(4.54545,0,0,4.54545,31.8182,9.09091)"><path d="M0,0 L30,0 L30,29 L0,29 L0,0 z" fill-rule="evenodd" vector-effect="none"/></g><defs><clipPath id="clip17"><path d="M-92,-36 L62,-36 L62,112 L-92,112 L-92,-36 z"/></clipPath></defs><g clip-path="url(#clip17)" fill="none" opacity="1" stroke="#000000" stroke-linecap="butt" stroke-linejoin="miter" stroke-miterlimit="2" stroke-opacity="1" stroke-width="0.22" transform="matrix(0.887784,0,0,0.887784,113.636,40.9091)"><text fill="#000000" fill-opacity="1" font-family="Liberation Sans" font-size="40" font-style="normal" font-weight="400" stroke="none" textLength="43" x="0" xml:space="preserve" y="17.9219">|u|</text></g><defs><clipPath id="clip19"><path d="M70,618 L100,618 L100,647 L70,647 L70,618 z"/></clipPath></defs><g clip-path="url(#clip19)" fill="none" opacity="1" stroke="#000000" stroke-linecap="butt" stroke-linejoin="miter" stroke-miterlimit="2" stroke-opacity="1" stroke-width="0.22" transform="matrix(4.54545,0,0,4.54545,-284.091,-2797.73)"><polyline fill="none" points="91,636 88,642 91,642" vector-effect="none"/></g><defs><clipPath id="clip21"><path d="M-113,-108 L41,-108 L41,40 L-113,40 L-113,-108 z"/></clipPath></defs><g clip-path="url(#clip21)" fill="none" opacity="1" stroke="#000000" stroke-linecap="butt" stroke-linejoin="miter" stroke-miterlimit="2" stroke-opacity="1" stroke-width="0.22" transform="matrix(0.887784,0,0,0.887784,131.818,104.545)"><text fill="#000000" fill-opacity="1" font-family="Liberation Sans" font-size="40" font-style="normal" font-weight="400" stroke="none" textLength="21" x="0" xml:space="preserve" y="17.9219">u</text></g><defs><clipPath id="clip23"><path d="M70,618 L100,618 L100,647 L70,647 L70,618 z"/></clipPath></defs><g clip-path="url(#clip23)" fill="none" opacity="1" stroke="#000000" stroke-linecap="butt" stroke-linejoin="miter" stroke-miterlimit="2" stroke-opacity="1" stroke-width="0.22" transform="matrix(4.54545,0,0,4.54545,-284.091,-2797.73)"><polyline fill="none" points="73,631 77,631 80,625 85,625" vector-effect="none"/></g><defs><clipPath id="clip24"><path d="M70,618 L100,618 L100,647 L70,647 L70,618 z"/></clipPath></defs><g clip-path="url(#clip24)" fill="none" opacity="1" stroke="#000000" stroke-linecap="butt" stroke-linejoin="miter" stroke-miterlimit="2" stroke-opacity="1" stroke-width="0.22" transform="matrix(4.54545,0,0,4.54545,-284.091,-2797.73)"><polyline fill="none" points="73,633 77,633 80,639 85,639" vector-effect="none"/></g><defs><clipPath id="clip29"><path d="M-7,-2 L37,-2 L37,31 L-7,31 L-7,-2 z"/></clipPath></defs><g clip-path="url(#clip29)" fill="none" opacity="1" stroke="#000000" stroke-linecap="butt" stroke-linejoin="miter" stroke-miterlimit="2" stroke-opacity="1" stroke-width="0.545719" transform="matrix(4.54545,0,0,4.54545,31.8182,9.09091)"><path d="M0,0 L30,0 L30,29 L0,29 L0,0 z" fill-rule="evenodd" vector-effect="none"/></g></g></svg>
