<?xml version="1.0" encoding="UTF-8"?><svg width="52.9167mm" height="33.6021mm" viewBox="0 0 200 127" xmlns="http://www.w3.org/2000/svg" xmlns:xlink="http://www.w3.org/1999/xlink"><g fill="none" stroke="black" stroke-width="1" fill-rule="evenodd" stroke-linecap="square" stroke-linejoin="bevel"><g clip-path="none" fill="none" opacity="1" stroke="none" stroke-opacity="0" transform="matrix(1,0,0,1,0,0)"><path d="M0,0 L200,0 L200,127 L0,127 L0,0 z" fill-rule="evenodd" vector-effect="none"/></g><defs><clipPath id="clip3"><path d="M7,22 L-62,22 L-62,-22 L7,-22 L7,22 z"/></clipPath></defs><g clip-path="url(#clip3)" fill="none" opacity="1" stroke="#000000" stroke-linecap="round" stroke-linejoin="miter" stroke-miterlimit="2" stroke-opacity="1" stroke-width="2" transform="matrix(-2.89855,0,0,-2.89855,20.2899,63.7681)"><path d="M5,-5 L0,0 L5,5" fill-rule="evenodd" vector-effect="none"/></g><defs><clipPath id="clip6"><path d="M-62,-32 L7,-32 L7,12 L-62,12 L-62,-32 z"/></clipPath></defs><g clip-path="url(#clip6)" fill="none" opacity="1" stroke="#000000" stroke-linecap="round" stroke-linejoin="miter" stroke-miterlimit="2" stroke-opacity="1" stroke-width="2" transform="matrix(2.89855,0,0,2.89855,179.71,92.7536)"><path d="M0,-5 L5,0 L0,5" fill-rule="evenodd" vector-effect="none"/></g><defs><clipPath id="clip9"><path d="M-62,-12 L7,-12 L7,32 L-62,32 L-62,-12 z"/></clipPath></defs><g clip-path="url(#clip9)" fill="none" opacity="1" stroke="#000000" stroke-linecap="round" stroke-linejoin="miter" stroke-miterlimit="2" stroke-opacity="1" stroke-width="2" transform="matrix(2.89855,0,0,2.89855,179.71,34.7826)"><path d="M0,-5 L5,0 L0,5" fill-rule="evenodd" vector-effect="none"/></g><defs><clipPath id="clip12"><path d="M-7,-2 L62,-2 L62,42 L-7,42 L-7,-2 z"/></clipPath></defs><g clip-path="url(#clip12)" fill="#ffffff" fill-opacity="1" opacity="1" stroke="none" stroke-opacity="0" transform="matrix(2.89855,0,0,2.89855,20.2899,5.7971)"><path d="M0,0 L55,0 L55,40 L0,40 L0,0 z" fill-rule="evenodd" vector-effect="none"/></g><defs><clipPath id="clip16"><path d="M190,35 L245,35 L245,75 L190,75 L190,35 z"/></clipPath></defs><g clip-path="url(#clip16)" fill="none" opacity="1" stroke="#000000" stroke-linecap="butt" stroke-linejoin="miter" stroke-miterlimit="2" stroke-opacity="1" stroke-width="0.345" transform="matrix(2.89855,0,0,2.89855,-528.986,-94.2029)"><polyline fill="none" points="214,45 221,45" vector-effect="none"/></g><defs><clipPath id="clip17"><path d="M190,35 L245,35 L245,75 L190,75 L190,35 z"/></clipPath></defs><g clip-path="url(#clip17)" fill="none" opacity="1" stroke="#000000" stroke-linecap="butt" stroke-linejoin="miter" stroke-miterlimit="2" stroke-opacity="1" stroke-width="0.345" transform="matrix(2.89855,0,0,2.89855,-528.986,-94.2029)"><polyline fill="none" points="221,45 218,45" vector-effect="none"/></g><defs><clipPath id="clip18"><path d="M190,35 L245,35 L245,75 L190,75 L190,35 z"/></clipPath></defs><g clip-path="url(#clip18)" fill="none" opacity="1" stroke="#000000" stroke-linecap="butt" stroke-linejoin="miter" stroke-miterlimit="2" stroke-opacity="1" stroke-width="0.345" transform="matrix(2.89855,0,0,2.89855,-528.986,-94.2029)"><polyline fill="none" points="218,45 218,65" vector-effect="none"/></g><defs><clipPath id="clip19"><path d="M190,35 L245,35 L245,75 L190,75 L190,35 z"/></clipPath></defs><g clip-path="url(#clip19)" fill="none" opacity="1" stroke="#000000" stroke-linecap="butt" stroke-linejoin="miter" stroke-miterlimit="2" stroke-opacity="1" stroke-width="0.345" transform="matrix(2.89855,0,0,2.89855,-528.986,-94.2029)"><polyline fill="none" points="218,65 221,65" vector-effect="none"/></g><defs><clipPath id="clip20"><path d="M190,35 L245,35 L245,75 L190,75 L190,35 z"/></clipPath></defs><g clip-path="url(#clip20)" fill="none" opacity="1" stroke="#000000" stroke-linecap="butt" stroke-linejoin="miter" stroke-miterlimit="2" stroke-opacity="1" stroke-width="0.345" transform="matrix(2.89855,0,0,2.89855,-528.986,-94.2029)"><polyline fill="none" points="221,65 214,65" vector-effect="none"/></g><defs><clipPath id="clip21"><path d="M190,35 L245,35 L245,75 L190,75 L190,35 z"/></clipPath></defs><g clip-path="url(#clip21)" fill="none" opacity="1" stroke="#000000" stroke-linecap="butt" stroke-linejoin="miter" stroke-miterlimit="2" stroke-opacity="1" stroke-width="0.345" transform="matrix(2.89855,0,0,2.89855,-528.986,-94.2029)"><polyline fill="none" points="214,65 221,65" vector-effect="none"/></g><defs><clipPath id="clip22"><path d="M190,35 L245,35 L245,75 L190,75 L190,35 z"/></clipPath></defs><g clip-path="url(#clip22)" fill="none" opacity="1" stroke="#000000" stroke-linecap="butt" stroke-linejoin="miter" stroke-miterlimit="2" stroke-opacity="1" stroke-width="0.345" transform="matrix(2.89855,0,0,2.89855,-528.986,-94.2029)"><polyline fill="none" points="221,65 221,66" vector-effect="none"/></g><defs><clipPath id="clip23"><path d="M190,35 L245,35 L245,75 L190,75 L190,35 z"/></clipPath></defs><g clip-path="url(#clip23)" fill="none" opacity="1" stroke="#000000" stroke-linecap="butt" stroke-linejoin="miter" stroke-miterlimit="2" stroke-opacity="1" stroke-width="0.345" transform="matrix(2.89855,0,0,2.89855,-528.986,-94.2029)"><polyline fill="none" points="221,66 214,66" vector-effect="none"/></g><defs><clipPath id="clip25"><path d="M-266,-51 L16,-51 L16,154 L-266,154 L-266,-51 z"/></clipPath></defs><g clip-path="url(#clip25)" fill="none" opacity="1" stroke="#000000" stroke-linecap="butt" stroke-linejoin="miter" stroke-miterlimit="2" stroke-opacity="1" stroke-width="0.345" transform="matrix(0.566123,0,0,0.566123,171.014,34.7826)"><text fill="#000000" fill-opacity="1" font-family="Liberation Sans" font-size="40" font-style="normal" font-weight="400" stroke="none" textLength="54" x="-70.1094" xml:space="preserve" y="17.9219">Val</text></g><defs><clipPath id="clip28"><path d="M-266,-154 L16,-154 L16,51 L-266,51 L-266,-154 z"/></clipPath></defs><g clip-path="url(#clip28)" fill="none" opacity="1" stroke="#000000" stroke-linecap="butt" stroke-linejoin="miter" stroke-miterlimit="2" stroke-opacity="1" stroke-width="0.345" transform="matrix(0.566123,0,0,0.566123,171.014,92.7536)"><text fill="#000000" fill-opacity="1" font-family="Liberation Sans" font-size="40" font-style="normal" font-weight="400" stroke="none" textLength="50" x="-68.2656" xml:space="preserve" y="17.9219">Idx</text></g><defs><clipPath id="clip31"><path d="M-266,-154 L16,-154 L16,51 L-266,51 L-266,-154 z"/></clipPath></defs><g clip-path="url(#clip31)" fill="none" opacity="1" stroke="#000000" stroke-linecap="butt" stroke-linejoin="miter" stroke-miterlimit="2" stroke-opacity="1" stroke-width="0.345" transform="matrix(0.566123,0,0,0.566123,171.014,92.7536)"><text fill="#000000" fill-opacity="1" font-family="Liberation Sans" font-size="40" font-style="normal" font-weight="400" stroke="none" textLength="50" x="-68.2656" xml:space="preserve" y="17.9219">Idx</text></g><defs><clipPath id="clip37"><path d="M-7,-2 L62,-2 L62,42 L-7,42 L-7,-2 z"/></clipPath></defs><g clip-path="url(#clip37)" fill="none" opacity="1" stroke="#000000" stroke-linecap="butt" stroke-linejoin="miter" stroke-miterlimit="2" stroke-opacity="1" stroke-width="0.653323" transform="matrix(2.89855,0,0,2.89855,20.2899,5.7971)"><path d="M0,0 L55,0 L55,40 L0,40 L0,0 z" fill-rule="evenodd" vector-effect="none"/></g></g></svg>
