<?xml version="1.0" encoding="UTF-8"?><svg width="51.0646mm" height="52.9167mm" viewBox="0 0 193 200" xmlns="http://www.w3.org/2000/svg" xmlns:xlink="http://www.w3.org/1999/xlink"><g fill="none" stroke="black" stroke-width="1" fill-rule="evenodd" stroke-linecap="square" stroke-linejoin="bevel"><g clip-path="none" fill="none" opacity="1" stroke="none" stroke-opacity="0" transform="matrix(1,0,0,1,0,0)"><path d="M0,0 L193,0 L193,200 L0,200 L0,0 z" fill-rule="evenodd" vector-effect="none"/></g><defs><clipPath id="clip3"><path d="M-82,-76 L7,-76 L7,16 L-82,16 L-82,-76 z"/></clipPath></defs><g clip-path="url(#clip3)" fill="none" opacity="1" stroke="#000000" stroke-linecap="round" stroke-linejoin="miter" stroke-miterlimit="2" stroke-opacity="1" stroke-width="2" transform="matrix(2.17391,0,0,2.17391,178.261,165.217)"><path d="M0,-5 L5,0 L0,5" fill-rule="evenodd" vector-effect="none"/></g><defs><clipPath id="clip6"><path d="M-82,-46 L7,-46 L7,46 L-82,46 L-82,-46 z"/></clipPath></defs><g clip-path="url(#clip6)" fill="none" opacity="1" stroke="#000000" stroke-linecap="round" stroke-linejoin="miter" stroke-miterlimit="2" stroke-opacity="1" stroke-width="2" transform="matrix(2.17391,0,0,2.17391,178.261,100)"><path d="M0,-5 L5,0 L0,5" fill-rule="evenodd" vector-effect="none"/></g><defs><clipPath id="clip9"><path d="M-82,-16 L7,-16 L7,76 L-82,76 L-82,-16 z"/></clipPath></defs><g clip-path="url(#clip9)" fill="none" opacity="1" stroke="#000000" stroke-linecap="round" stroke-linejoin="miter" stroke-miterlimit="2" stroke-opacity="1" stroke-width="2" transform="matrix(2.17391,0,0,2.17391,178.261,34.7826)"><path d="M0,-5 L5,0 L0,5" fill-rule="evenodd" vector-effect="none"/></g><defs><clipPath id="clip12"><path d="M7,71 L-82,71 L-82,-21 L7,-21 L7,71 z"/></clipPath></defs><g clip-path="url(#clip12)" fill="none" opacity="1" stroke="#000000" stroke-linecap="round" stroke-linejoin="miter" stroke-miterlimit="2" stroke-opacity="1" stroke-width="2" transform="matrix(-2.17391,0,0,-2.17391,15.2174,154.348)"><path d="M5,-5 L0,0 L5,5" fill-rule="evenodd" vector-effect="none"/></g><defs><clipPath id="clip15"><path d="M7,26 L-82,26 L-82,-66 L7,-66 L7,26 z"/></clipPath></defs><g clip-path="url(#clip15)" fill="none" opacity="1" stroke="#000000" stroke-linecap="round" stroke-linejoin="miter" stroke-miterlimit="2" stroke-opacity="1" stroke-width="2" transform="matrix(-2.17391,0,0,-2.17391,15.2174,56.5217)"><path d="M5,-5 L0,0 L5,5" fill-rule="evenodd" vector-effect="none"/></g><defs><clipPath id="clip18"><path d="M-7,-2 L82,-2 L82,90 L-7,90 L-7,-2 z"/></clipPath></defs><g clip-path="url(#clip18)" fill="#ffffff" fill-opacity="1" opacity="1" stroke="none" stroke-opacity="0" transform="matrix(2.17391,0,0,2.17391,15.2174,4.34783)"><path d="M0,0 L75,0 L75,88 L0,88 L0,0 z" fill-rule="evenodd" vector-effect="none"/></g><defs><clipPath id="clip23"><path d="M-15,-123 L369,-123 L369,328 L-15,328 L-15,-123 z"/></clipPath></defs><g clip-path="url(#clip23)" fill="none" opacity="1" stroke="#000000" stroke-linecap="butt" stroke-linejoin="miter" stroke-miterlimit="2" stroke-opacity="1" stroke-width="0.46" transform="matrix(0.424592,0,0,0.424592,21.7391,56.5217)"><text fill="#000000" fill-opacity="1" font-family="Liberation Sans" font-size="36" font-style="normal" font-weight="400" stroke="none" textLength="46" x="0" xml:space="preserve" y="16">din</text></g><defs><clipPath id="clip26"><path d="M-15,-353 L369,-353 L369,98 L-15,98 L-15,-353 z"/></clipPath></defs><g clip-path="url(#clip26)" fill="none" opacity="1" stroke="#000000" stroke-linecap="butt" stroke-linejoin="miter" stroke-miterlimit="2" stroke-opacity="1" stroke-width="0.46" transform="matrix(0.424592,0,0,0.424592,21.7391,154.348)"><text fill="#000000" fill-opacity="1" font-family="Liberation Sans" font-size="36" font-style="normal" font-weight="400" stroke="none" textLength="70" x="0" xml:space="preserve" y="16">start</text></g><defs><clipPath id="clip29"><path d="M-369,-72 L15,-72 L15,379 L-369,379 L-369,-72 z"/></clipPath></defs><g clip-path="url(#clip29)" fill="none" opacity="1" stroke="#000000" stroke-linecap="butt" stroke-linejoin="miter" stroke-miterlimit="2" stroke-opacity="1" stroke-width="0.46" transform="matrix(0.424592,0,0,0.424592,171.739,34.7826)"><text fill="#000000" fill-opacity="1" font-family="Liberation Sans" font-size="36" font-style="normal" font-weight="400" stroke="none" textLength="69" x="-89.6562" xml:space="preserve" y="16">dout</text></g><defs><clipPath id="clip32"><path d="M-369,-225 L15,-225 L15,226 L-369,226 L-369,-225 z"/></clipPath></defs><g clip-path="url(#clip32)" fill="none" opacity="1" stroke="#000000" stroke-linecap="butt" stroke-linejoin="miter" stroke-miterlimit="2" stroke-opacity="1" stroke-width="0.46" transform="matrix(0.424592,0,0,0.424592,171.739,100)"><text fill="#000000" fill-opacity="1" font-family="Liberation Sans" font-size="36" font-style="normal" font-weight="400" stroke="none" textLength="91" x="-120.328" xml:space="preserve" y="16">dvalid</text></g><defs><clipPath id="clip35"><path d="M-369,-379 L15,-379 L15,72 L-369,72 L-369,-379 z"/></clipPath></defs><g clip-path="url(#clip35)" fill="none" opacity="1" stroke="#000000" stroke-linecap="butt" stroke-linejoin="miter" stroke-miterlimit="2" stroke-opacity="1" stroke-width="0.46" transform="matrix(0.424592,0,0,0.424592,171.739,165.217)"><text fill="#000000" fill-opacity="1" font-family="Liberation Sans" font-size="36" font-style="normal" font-weight="400" stroke="none" textLength="89" x="-115.234" xml:space="preserve" y="16">ready</text></g><defs><clipPath id="clip41"><path d="M-7,-2 L82,-2 L82,90 L-7,90 L-7,-2 z"/></clipPath></defs><g clip-path="url(#clip41)" fill="none" opacity="1" stroke="#000000" stroke-linecap="butt" stroke-linejoin="miter" stroke-miterlimit="2" stroke-opacity="1" stroke-width="0.732999" transform="matrix(2.17391,0,0,2.17391,15.2174,4.34783)"><path d="M0,0 L75,0 L75,88 L0,88 L0,0 z" fill-rule="evenodd" vector-effect="none"/></g></g></svg>
