<?xml version="1.0" encoding="UTF-8"?><svg width="52.9167mm" height="17.1979mm" viewBox="0 0 200 65" xmlns="http://www.w3.org/2000/svg" xmlns:xlink="http://www.w3.org/1999/xlink"><g fill="none" stroke="black" stroke-width="1" fill-rule="evenodd" stroke-linecap="square" stroke-linejoin="bevel"><g clip-path="none" fill="none" opacity="1" stroke="none" stroke-opacity="0" transform="matrix(1,0,0,1,0,0)"><path d="M0,0 L200,0 L200,65 L0,65 L0,0 z" fill-rule="evenodd" vector-effect="none"/></g><defs><clipPath id="clip3"><path d="M-182,-31 L7,-31 L7,31 L-182,31 L-182,-31 z"/></clipPath></defs><g clip-path="url(#clip3)" fill="none" opacity="1" stroke="#000000" stroke-linecap="round" stroke-linejoin="miter" stroke-miterlimit="2" stroke-opacity="1" stroke-width="2" transform="matrix(1.0582,0,0,1.0582,192.593,32.8042)"><path d="M0,-5 L5,0 L0,5" fill-rule="evenodd" vector-effect="none"/></g><defs><clipPath id="clip6"><path d="M7,31 L-182,31 L-182,-31 L7,-31 L7,31 z"/></clipPath></defs><g clip-path="url(#clip6)" fill="none" opacity="1" stroke="#000000" stroke-linecap="round" stroke-linejoin="miter" stroke-miterlimit="2" stroke-opacity="1" stroke-width="2" transform="matrix(-1.0582,0,0,-1.0582,7.40741,32.8042)"><path d="M5,-5 L0,0 L5,5" fill-rule="evenodd" vector-effect="none"/></g><defs><clipPath id="clip9"><path d="M-7,-2 L182,-2 L182,60 L-7,60 L-7,-2 z"/></clipPath></defs><g clip-path="url(#clip9)" fill="#ffffff" fill-opacity="1" opacity="1" stroke="none" stroke-opacity="0" transform="matrix(1.0582,0,0,1.0582,7.40741,2.1164)"><path d="M0,0 L175,0 L175,58 L0,58 L0,0 z" fill-rule="evenodd" vector-effect="none"/></g><defs><clipPath id="clip14"><path d="M-445,-97 L451,-97 L451,200 L-445,200 L-445,-97 z"/></clipPath></defs><g clip-path="url(#clip14)" fill="none" opacity="1" stroke="#000000" stroke-linecap="butt" stroke-linejoin="miter" stroke-miterlimit="2" stroke-opacity="1" stroke-width="0.945" transform="matrix(0.20668,0,0,0.20668,99.4709,22.2222)"><text fill="#000000" fill-opacity="1" font-family="Liberation Sans" font-size="40" font-style="normal" font-weight="400" stroke="none" textLength="161" x="-105.25" xml:space="preserve" y="17.9219">Coherent</text></g><defs><clipPath id="clip17"><path d="M-445,-148 L451,-148 L451,149 L-445,149 L-445,-148 z"/></clipPath></defs><g clip-path="url(#clip17)" fill="none" opacity="1" stroke="#000000" stroke-linecap="butt" stroke-linejoin="miter" stroke-miterlimit="2" stroke-opacity="1" stroke-width="0.945" transform="matrix(0.20668,0,0,0.20668,99.4709,32.8042)"><text fill="#000000" fill-opacity="1" font-family="Liberation Sans" font-size="40" font-style="normal" font-weight="400" stroke="none" textLength="154" x="-100.969" xml:space="preserve" y="17.9219">10-Pulse</text></g><defs><clipPath id="clip20"><path d="M-445,-200 L451,-200 L451,97 L-445,97 L-445,-200 z"/></clipPath></defs><g clip-path="url(#clip20)" fill="none" opacity="1" stroke="#000000" stroke-linecap="butt" stroke-linejoin="miter" stroke-miterlimit="2" stroke-opacity="1" stroke-width="0.945" transform="matrix(0.20668,0,0,0.20668,99.4709,43.3862)"><text fill="#000000" fill-opacity="1" font-family="Liberation Sans" font-size="40" font-style="normal" font-weight="400" stroke="none" textLength="167" x="-109.516" xml:space="preserve" y="17.9219">Integrator</text></g><defs><clipPath id="clip23"><path d="M-15,-148 L881,-148 L881,149 L-15,149 L-15,-148 z"/></clipPath></defs><g clip-path="url(#clip23)" fill="none" opacity="1" stroke="#000000" stroke-linecap="butt" stroke-linejoin="miter" stroke-miterlimit="2" stroke-opacity="1" stroke-width="0.945" transform="matrix(0.20668,0,0,0.20668,10.582,32.8042)"><text fill="#000000" fill-opacity="1" font-family="Liberation Sans" font-size="40" font-style="normal" font-weight="400" stroke="none" textLength="18" x="0" xml:space="preserve" y="17.9219">x</text></g><defs><clipPath id="clip26"><path d="M-809,-169 L87,-169 L87,128 L-809,128 L-809,-169 z"/></clipPath></defs><g clip-path="url(#clip26)" fill="none" opacity="1" stroke="#000000" stroke-linecap="butt" stroke-linejoin="miter" stroke-miterlimit="2" stroke-opacity="1" stroke-width="0.945" transform="matrix(0.20668,0,0,0.20668,174.603,37.037)"><text fill="#000000" fill-opacity="1" font-family="Liberation Sans" font-size="40" font-style="normal" font-weight="400" stroke="none" textLength="21" x="0" xml:space="preserve" y="1.28125">Σ</text></g><defs><clipPath id="clip28"><path d="M-809,-169 L87,-169 L87,128 L-809,128 L-809,-169 z"/></clipPath></defs><g clip-path="url(#clip28)" fill="none" opacity="1" stroke="#000000" stroke-linecap="butt" stroke-linejoin="miter" stroke-miterlimit="2" stroke-opacity="1" stroke-width="0.945" transform="matrix(0.20668,0,0,0.20668,174.603,37.037)"><text fill="#000000" fill-opacity="1" font-family="Liberation Sans" font-size="40" font-style="normal" font-weight="400" stroke="none" textLength="18" x="45.8594" xml:space="preserve" y="1.28125">x</text></g><defs><clipPath id="clip34"><path d="M-7,-2 L182,-2 L182,60 L-7,60 L-7,-2 z"/></clipPath></defs><g clip-path="url(#clip34)" fill="none" opacity="1" stroke="#000000" stroke-linecap="butt" stroke-linejoin="miter" stroke-miterlimit="2" stroke-opacity="1" stroke-width="1.95525" transform="matrix(1.0582,0,0,1.0582,7.40741,2.1164)"><path d="M0,0 L175,0 L175,58 L0,58 L0,0 z" fill-rule="evenodd" vector-effect="none"/></g></g></svg>
