<?xml version="1.0" encoding="UTF-8"?><svg width="52.9167mm" height="17.9917mm" viewBox="0 0 200 68" xmlns="http://www.w3.org/2000/svg" xmlns:xlink="http://www.w3.org/1999/xlink"><g fill="none" stroke="black" stroke-width="1" fill-rule="evenodd" stroke-linecap="square" stroke-linejoin="bevel"><g clip-path="none" fill="none" opacity="1" stroke="none" stroke-opacity="0" transform="matrix(1,0,0,1,0,0)"><path d="M0,0 L200,0 L200,68 L0,68 L0,0 z" fill-rule="evenodd" vector-effect="none"/></g><defs><clipPath id="clip3"><path d="M-122,-22 L7,-22 L7,22 L-122,22 L-122,-22 z"/></clipPath></defs><g clip-path="url(#clip3)" fill="none" opacity="1" stroke="#000000" stroke-linecap="round" stroke-linejoin="miter" stroke-miterlimit="2" stroke-opacity="1" stroke-width="2" transform="matrix(1.55039,0,0,1.55039,189.147,34.1085)"><path d="M0,-5 L5,0 L0,5" fill-rule="evenodd" vector-effect="none"/></g><defs><clipPath id="clip6"><path d="M7,32 L-122,32 L-122,-12 L7,-12 L7,32 z"/></clipPath></defs><g clip-path="url(#clip6)" fill="none" opacity="1" stroke="#000000" stroke-linecap="round" stroke-linejoin="miter" stroke-miterlimit="2" stroke-opacity="1" stroke-width="2" transform="matrix(-1.55039,0,0,-1.55039,10.8527,49.6124)"><path d="M5,-5 L0,0 L5,5" fill-rule="evenodd" vector-effect="none"/></g><defs><clipPath id="clip9"><path d="M7,12 L-122,12 L-122,-32 L7,-32 L7,12 z"/></clipPath></defs><g clip-path="url(#clip9)" fill="none" opacity="1" stroke="#000000" stroke-linecap="round" stroke-linejoin="miter" stroke-miterlimit="2" stroke-opacity="1" stroke-width="2" transform="matrix(-1.55039,0,0,-1.55039,10.8527,18.6047)"><path d="M5,-5 L0,0 L5,5" fill-rule="evenodd" vector-effect="none"/></g><defs><clipPath id="clip12"><path d="M-7,-2 L122,-2 L122,42 L-7,42 L-7,-2 z"/></clipPath></defs><g clip-path="url(#clip12)" fill="#ffffff" fill-opacity="1" opacity="1" stroke="none" stroke-opacity="0" transform="matrix(1.55039,0,0,1.55039,10.8527,3.10078)"><path d="M0,0 L115,0 L115,40 L0,40 L0,0 z" fill-rule="evenodd" vector-effect="none"/></g><defs><clipPath id="clip17"><path d="M-292,-77 L297,-77 L297,128 L-292,128 L-292,-77 z"/></clipPath></defs><g clip-path="url(#clip17)" fill="none" opacity="1" stroke="#000000" stroke-linecap="butt" stroke-linejoin="miter" stroke-miterlimit="2" stroke-opacity="1" stroke-width="0.645" transform="matrix(0.30281,0,0,0.30281,99.2248,26.3566)"><text fill="#000000" fill-opacity="1" font-family="Liberation Sans" font-size="40" font-style="normal" font-weight="400" stroke="none" textLength="179" x="-115.219" xml:space="preserve" y="17.9219">Wideband</text></g><defs><clipPath id="clip20"><path d="M-292,-128 L297,-128 L297,77 L-292,77 L-292,-128 z"/></clipPath></defs><g clip-path="url(#clip20)" fill="none" opacity="1" stroke="#000000" stroke-linecap="butt" stroke-linejoin="miter" stroke-miterlimit="2" stroke-opacity="1" stroke-width="0.645" transform="matrix(0.30281,0,0,0.30281,99.2248,41.8605)"><text fill="#000000" fill-opacity="1" font-family="Liberation Sans" font-size="40" font-style="normal" font-weight="400" stroke="none" textLength="155" x="-101.859" xml:space="preserve" y="17.9219"> Tx Array</text></g><defs><clipPath id="clip23"><path d="M-15,-51 L574,-51 L574,154 L-15,154 L-15,-51 z"/></clipPath></defs><g clip-path="url(#clip23)" fill="none" opacity="1" stroke="#000000" stroke-linecap="butt" stroke-linejoin="miter" stroke-miterlimit="2" stroke-opacity="1" stroke-width="0.645" transform="matrix(0.30281,0,0,0.30281,15.5039,18.6047)"><text fill="#000000" fill-opacity="1" font-family="Liberation Sans" font-size="40" font-style="normal" font-weight="400" stroke="none" textLength="27" x="0" xml:space="preserve" y="17.9219">X</text></g><defs><clipPath id="clip26"><path d="M-15,-154 L574,-154 L574,51 L-15,51 L-15,-154 z"/></clipPath></defs><g clip-path="url(#clip26)" fill="none" opacity="1" stroke="#000000" stroke-linecap="butt" stroke-linejoin="miter" stroke-miterlimit="2" stroke-opacity="1" stroke-width="0.645" transform="matrix(0.30281,0,0,0.30281,15.5039,49.6124)"><text fill="#000000" fill-opacity="1" font-family="Liberation Sans" font-size="40" font-style="normal" font-weight="400" stroke="none" textLength="70" x="0" xml:space="preserve" y="17.9219">Ang</text></g><defs><clipPath id="clip32"><path d="M-7,-2 L122,-2 L122,42 L-7,42 L-7,-2 z"/></clipPath></defs><g clip-path="url(#clip32)" fill="none" opacity="1" stroke="#000000" stroke-linecap="butt" stroke-linejoin="miter" stroke-miterlimit="2" stroke-opacity="1" stroke-width="0.83912" transform="matrix(1.55039,0,0,1.55039,10.8527,3.10078)"><path d="M0,0 L115,0 L115,40 L0,40 L0,0 z" fill-rule="evenodd" vector-effect="none"/></g></g></svg>
