<?xml version="1.0" encoding="UTF-8"?><svg width="52.9167mm" height="17.9917mm" viewBox="0 0 200 68" xmlns="http://www.w3.org/2000/svg" xmlns:xlink="http://www.w3.org/1999/xlink"><g fill="none" stroke="black" stroke-width="1" fill-rule="evenodd" stroke-linecap="square" stroke-linejoin="bevel"><g clip-path="none" fill="none" opacity="1" stroke="none" stroke-opacity="0" transform="matrix(1,0,0,1,0,0)"><path d="M0,0 L200,0 L200,68 L0,68 L0,0 z" fill-rule="evenodd" vector-effect="none"/></g><defs><clipPath id="clip6"><path d="M0,0 L10,0 L10,10 L0,10 L0,0 z"/></clipPath></defs><g clip-path="url(#clip6)" fill="#b3b3b3" fill-opacity="1" opacity="1" stroke="none" stroke-opacity="0" transform="matrix(-2.85714,0,0,2.85714,28.5714,22.8571)"><path d="M0.5,3.5 L3.5,3.5 L3.5,6.5 L0.5,6.5 L0.5,3.5 z" fill-rule="evenodd" vector-effect="none"/></g><defs><clipPath id="clip8"><path d="M0,0 L10,0 L10,10 L0,10 L0,0 z"/></clipPath></defs><g clip-path="url(#clip8)" fill="#000000" fill-opacity="1" opacity="1" stroke="none" stroke-opacity="0" transform="matrix(-2.85714,0,0,2.85714,28.5714,22.8571)"><path d="M3,4 L3,6 L1,6 L1,4 L3,4 M4,3 L0,3 L0,7 L4,7 L4,3" fill-rule="nonzero" vector-effect="none"/></g><defs><clipPath id="clip28"><path d="M0,0 L10,0 L10,10 L0,10 L0,0 z"/></clipPath></defs><g clip-path="url(#clip28)" fill="#b3b3b3" fill-opacity="1" opacity="1" stroke="none" stroke-opacity="0" transform="matrix(2.85714,0,0,2.85714,171.429,22.8571)"><path d="M0.5,3.5 L3.5,3.5 L3.5,6.5 L0.5,6.5 L0.5,3.5 z" fill-rule="evenodd" vector-effect="none"/></g><defs><clipPath id="clip30"><path d="M0,0 L10,0 L10,10 L0,10 L0,0 z"/></clipPath></defs><g clip-path="url(#clip30)" fill="#000000" fill-opacity="1" opacity="1" stroke="none" stroke-opacity="0" transform="matrix(2.85714,0,0,2.85714,171.429,22.8571)"><path d="M3,4 L3,6 L1,6 L1,4 L3,4 M4,3 L0,3 L0,7 L4,7 L4,3" fill-rule="nonzero" vector-effect="none"/></g><defs><clipPath id="clip47"><path d="M-10,-2 L60,-2 L60,22 L-10,22 L-10,-2 z"/></clipPath></defs><g clip-path="url(#clip47)" fill="#ffffff" fill-opacity="1" opacity="1" stroke="none" stroke-opacity="0" transform="matrix(2.85714,0,0,2.85714,28.5714,5.71429)"><path d="M0,0 L50,0 L50,20 L0,20 L0,0 z" fill-rule="evenodd" vector-effect="none"/></g><defs><clipPath id="clip51"><path d="M290,104 L340,104 L340,124 L290,124 L290,104 z"/></clipPath></defs><g clip-path="url(#clip51)" fill="none" opacity="1" stroke="#000000" stroke-linecap="butt" stroke-linejoin="miter" stroke-miterlimit="2" stroke-opacity="1" stroke-width="0.35" transform="matrix(2.85714,0,0,2.85714,-798.571,-292.857)"><polyline fill="none" points="290,115 311,115" vector-effect="none"/></g><defs><clipPath id="clip52"><path d="M290,104 L340,104 L340,124 L290,124 L290,104 z"/></clipPath></defs><g clip-path="url(#clip52)" fill="none" opacity="1" stroke="#000000" stroke-linecap="butt" stroke-linejoin="miter" stroke-miterlimit="2" stroke-opacity="1" stroke-width="0.35" transform="matrix(2.85714,0,0,2.85714,-798.571,-292.857)"><polyline fill="none" points="318,115 339,115" vector-effect="none"/></g><defs><clipPath id="clip53"><path d="M290,104 L340,104 L340,124 L290,124 L290,104 z"/></clipPath></defs><g clip-path="url(#clip53)" fill="none" opacity="1" stroke="#000000" stroke-linecap="butt" stroke-linejoin="miter" stroke-miterlimit="2" stroke-opacity="1" stroke-width="0.35" transform="matrix(2.85714,0,0,2.85714,-798.571,-292.857)"><polyline fill="none" points="311,124 311,105" vector-effect="none"/></g><defs><clipPath id="clip54"><path d="M290,104 L340,104 L340,124 L290,124 L290,104 z"/></clipPath></defs><g clip-path="url(#clip54)" fill="none" opacity="1" stroke="#000000" stroke-linecap="butt" stroke-linejoin="miter" stroke-miterlimit="2" stroke-opacity="1" stroke-width="0.35" transform="matrix(2.85714,0,0,2.85714,-798.571,-292.857)"><polyline fill="none" points="318,124 318,105" vector-effect="none"/></g><defs><clipPath id="clip56"><path d="M-15,-51 L241,-51 L241,51 L-15,51 L-15,-51 z"/></clipPath></defs><g clip-path="url(#clip56)" fill="none" opacity="1" stroke="#000000" stroke-linecap="butt" stroke-linejoin="miter" stroke-miterlimit="2" stroke-opacity="1" stroke-width="0.35" transform="matrix(0.558036,0,0,0.558036,37.1429,34.2857)"><text fill="#000000" fill-opacity="1" font-family="Liberation Sans" font-size="40" font-style="normal" font-weight="400" stroke="none" textLength="23" x="0" xml:space="preserve" y="17.9219">+</text></g><defs><clipPath id="clip59"><path d="M-241,-51 L15,-51 L15,51 L-241,51 L-241,-51 z"/></clipPath></defs><g clip-path="url(#clip59)" fill="none" opacity="1" stroke="#000000" stroke-linecap="butt" stroke-linejoin="miter" stroke-miterlimit="2" stroke-opacity="1" stroke-width="0.35" transform="matrix(0.558036,0,0,0.558036,162.857,34.2857)"><text fill="#000000" fill-opacity="1" font-family="Liberation Sans" font-size="40" font-style="normal" font-weight="400" stroke="none" textLength="13" x="-17.0312" xml:space="preserve" y="17.9219">-</text></g><defs><clipPath id="clip65"><path d="M-10,-2 L60,-2 L60,22 L-10,22 L-10,-2 z"/></clipPath></defs><g clip-path="url(#clip65)" fill="none" opacity="1" stroke="none" stroke-opacity="0" transform="matrix(2.85714,0,0,2.85714,28.5714,5.71429)"><path d="M0,0 L50,0 L50,20 L0,20 L0,0 z" fill-rule="evenodd" vector-effect="none"/></g></g></svg>
