<?xml version="1.0" encoding="UTF-8"?><svg width="52.9167mm" height="39.1583mm" viewBox="0 0 200 148" xmlns="http://www.w3.org/2000/svg" xmlns:xlink="http://www.w3.org/1999/xlink"><g fill="none" stroke="black" stroke-width="1" fill-rule="evenodd" stroke-linecap="square" stroke-linejoin="bevel"><g clip-path="none" fill="none" opacity="1" stroke="none" stroke-opacity="0" transform="matrix(1,0,0,1,0,0)"><path d="M0,0 L200,0 L200,148 L0,148 L0,0 z" fill-rule="evenodd" vector-effect="none"/></g><defs><clipPath id="clip6"><path d="M0,0 L10,0 L10,10 L0,10 L0,0 z"/></clipPath></defs><g clip-path="url(#clip6)" fill="#b3b3b3" fill-opacity="1" opacity="1" stroke="none" stroke-opacity="0" transform="matrix(2.85714,0,0,2.85714,171.429,77.1429)"><path d="M0.5,3.5 L3.5,3.5 L3.5,6.5 L0.5,6.5 L0.5,3.5 z" fill-rule="evenodd" vector-effect="none"/></g><defs><clipPath id="clip8"><path d="M0,0 L10,0 L10,10 L0,10 L0,0 z"/></clipPath></defs><g clip-path="url(#clip8)" fill="#000000" fill-opacity="1" opacity="1" stroke="none" stroke-opacity="0" transform="matrix(2.85714,0,0,2.85714,171.429,77.1429)"><path d="M3,4 L3,6 L1,6 L1,4 L3,4 M4,3 L0,3 L0,7 L4,7 L4,3" fill-rule="nonzero" vector-effect="none"/></g><defs><clipPath id="clip28"><path d="M0,0 L10,0 L10,10 L0,10 L0,0 z"/></clipPath></defs><g clip-path="url(#clip28)" fill="#b3b3b3" fill-opacity="1" opacity="1" stroke="none" stroke-opacity="0" transform="matrix(2.85714,0,0,2.85714,171.429,48.5714)"><path d="M0.5,3.5 L3.5,3.5 L3.5,6.5 L0.5,6.5 L0.5,3.5 z" fill-rule="evenodd" vector-effect="none"/></g><defs><clipPath id="clip30"><path d="M0,0 L10,0 L10,10 L0,10 L0,0 z"/></clipPath></defs><g clip-path="url(#clip30)" fill="#000000" fill-opacity="1" opacity="1" stroke="none" stroke-opacity="0" transform="matrix(2.85714,0,0,2.85714,171.429,48.5714)"><path d="M3,4 L3,6 L1,6 L1,4 L3,4 M4,3 L0,3 L0,7 L4,7 L4,3" fill-rule="nonzero" vector-effect="none"/></g><defs><clipPath id="clip50"><path d="M0,0 L10,0 L10,10 L0,10 L0,0 z"/></clipPath></defs><g clip-path="url(#clip50)" fill="#b3b3b3" fill-opacity="1" opacity="1" stroke="none" stroke-opacity="0" transform="matrix(2.85714,0,0,2.85714,171.429,20)"><path d="M0.5,3.5 L3.5,3.5 L3.5,6.5 L0.5,6.5 L0.5,3.5 z" fill-rule="evenodd" vector-effect="none"/></g><defs><clipPath id="clip52"><path d="M0,0 L10,0 L10,10 L0,10 L0,0 z"/></clipPath></defs><g clip-path="url(#clip52)" fill="#000000" fill-opacity="1" opacity="1" stroke="none" stroke-opacity="0" transform="matrix(2.85714,0,0,2.85714,171.429,20)"><path d="M3,4 L3,6 L1,6 L1,4 L3,4 M4,3 L0,3 L0,7 L4,7 L4,3" fill-rule="nonzero" vector-effect="none"/></g><defs><clipPath id="clip72"><path d="M0,0 L10,0 L10,10 L0,10 L0,0 z"/></clipPath></defs><g clip-path="url(#clip72)" fill="#b3b3b3" fill-opacity="1" opacity="1" stroke="none" stroke-opacity="0" transform="matrix(-2.85714,0,0,2.85714,28.5714,105.714)"><path d="M0.5,3.5 L3.5,3.5 L3.5,6.5 L0.5,6.5 L0.5,3.5 z" fill-rule="evenodd" vector-effect="none"/></g><defs><clipPath id="clip74"><path d="M0,0 L10,0 L10,10 L0,10 L0,0 z"/></clipPath></defs><g clip-path="url(#clip74)" fill="#000000" fill-opacity="1" opacity="1" stroke="none" stroke-opacity="0" transform="matrix(-2.85714,0,0,2.85714,28.5714,105.714)"><path d="M3,4 L3,6 L1,6 L1,4 L3,4 M4,3 L0,3 L0,7 L4,7 L4,3" fill-rule="nonzero" vector-effect="none"/></g><defs><clipPath id="clip94"><path d="M0,0 L10,0 L10,10 L0,10 L0,0 z"/></clipPath></defs><g clip-path="url(#clip94)" fill="#b3b3b3" fill-opacity="1" opacity="1" stroke="none" stroke-opacity="0" transform="matrix(-2.85714,0,0,2.85714,28.5714,34.2857)"><path d="M0.5,3.5 L3.5,3.5 L3.5,6.5 L0.5,6.5 L0.5,3.5 z" fill-rule="evenodd" vector-effect="none"/></g><defs><clipPath id="clip96"><path d="M0,0 L10,0 L10,10 L0,10 L0,0 z"/></clipPath></defs><g clip-path="url(#clip96)" fill="#000000" fill-opacity="1" opacity="1" stroke="none" stroke-opacity="0" transform="matrix(-2.85714,0,0,2.85714,28.5714,34.2857)"><path d="M3,4 L3,6 L1,6 L1,4 L3,4 M4,3 L0,3 L0,7 L4,7 L4,3" fill-rule="nonzero" vector-effect="none"/></g><defs><clipPath id="clip116"><path d="M0,0 L10,0 L10,10 L0,10 L0,0 z"/></clipPath></defs><g clip-path="url(#clip116)" fill="#b3b3b3" fill-opacity="1" opacity="1" stroke="none" stroke-opacity="0" transform="matrix(2.85714,0,0,2.85714,171.429,105.714)"><path d="M0.5,3.5 L3.5,3.5 L3.5,6.5 L0.5,6.5 L0.5,3.5 z" fill-rule="evenodd" vector-effect="none"/></g><defs><clipPath id="clip118"><path d="M0,0 L10,0 L10,10 L0,10 L0,0 z"/></clipPath></defs><g clip-path="url(#clip118)" fill="#000000" fill-opacity="1" opacity="1" stroke="none" stroke-opacity="0" transform="matrix(2.85714,0,0,2.85714,171.429,105.714)"><path d="M3,4 L3,6 L1,6 L1,4 L3,4 M4,3 L0,3 L0,7 L4,7 L4,3" fill-rule="nonzero" vector-effect="none"/></g><defs><clipPath id="clip135"><path d="M-10,-2 L60,-2 L60,50 L-10,50 L-10,-2 z"/></clipPath></defs><g clip-path="url(#clip135)" fill="#ffffff" fill-opacity="1" opacity="1" stroke="none" stroke-opacity="0" transform="matrix(2.85714,0,0,2.85714,28.5714,5.71429)"><path d="M0,0 L50,0 L50,48 L0,48 L0,0 z" fill-rule="evenodd" vector-effect="none"/></g><defs><clipPath id="clip139"><path d="M0,0 L50,0 L50,48 L0,48 L0,0 z"/></clipPath></defs><g clip-path="url(#clip139)" fill="none" opacity="1" stroke="none" stroke-opacity="0" transform="matrix(2.85714,0,0,2.85714,28.5714,5.71429)"><path d="M0,0 L50,0 L50,48 L0,48 L0,0 z" fill-rule="evenodd" vector-effect="none"/></g><defs><clipPath id="clip149"><path d="M1,1 L51,1 L51,49 L1,49 L1,1 z"/></clipPath></defs><g clip-path="url(#clip149)" fill="none" opacity="1" stroke="#000000" stroke-linecap="butt" stroke-linejoin="miter" stroke-miterlimit="20" stroke-opacity="1" stroke-width="1" transform="matrix(2.85714,0,0,2.85714,25.7143,2.85714)"><path d="M1,13 L19.0852,13" fill-rule="nonzero" vector-effect="none"/></g><defs><clipPath id="clip150"><path d="M1,1 L51,1 L51,49 L1,49 L1,1 z"/></clipPath></defs><g clip-path="url(#clip150)" fill="none" opacity="1" stroke="#000000" stroke-linecap="butt" stroke-linejoin="miter" stroke-miterlimit="20" stroke-opacity="1" stroke-width="1" transform="matrix(2.85714,0,0,2.85714,25.7143,2.85714)"><path d="M1,37.0001 L19.0852,37.0001" fill-rule="nonzero" vector-effect="none"/></g><defs><clipPath id="clip151"><path d="M1,1 L51,1 L51,49 L1,49 L1,1 z"/></clipPath></defs><g clip-path="url(#clip151)" fill="none" opacity="1" stroke="#000000" stroke-linecap="butt" stroke-linejoin="miter" stroke-miterlimit="20" stroke-opacity="1" stroke-width="1" transform="matrix(2.85714,0,0,2.85714,25.7143,2.85714)"><path d="M19.0852,13 L19.0852,15.4001" fill-rule="nonzero" vector-effect="none"/></g><defs><clipPath id="clip152"><path d="M1,1 L51,1 L51,49 L1,49 L1,1 z"/></clipPath></defs><g clip-path="url(#clip152)" fill="none" opacity="1" stroke="#000000" stroke-linecap="butt" stroke-linejoin="miter" stroke-miterlimit="20" stroke-opacity="1" stroke-width="1" transform="matrix(2.85714,0,0,2.85714,25.7143,2.85714)"><path d="M19.0852,37.0001 L19.0852,34.6001" fill-rule="nonzero" vector-effect="none"/></g><defs><clipPath id="clip153"><path d="M1,1 L51,1 L51,49 L1,49 L1,1 z"/></clipPath></defs><g clip-path="url(#clip153)" fill="none" opacity="1" stroke="#000000" stroke-linecap="butt" stroke-linejoin="miter" stroke-miterlimit="20" stroke-opacity="1" stroke-width="1" transform="matrix(2.85714,0,0,2.85714,25.7143,2.85714)"><path d="M33.9788,5.80002 L33.9788,3.40002 L47.8086,3.40002 L47.8086,7.00003 L51.0001,7.00003" fill-rule="nonzero" vector-effect="none"/></g><defs><clipPath id="clip154"><path d="M1,1 L51,1 L51,49 L1,49 L1,1 z"/></clipPath></defs><g clip-path="url(#clip154)" fill="none" opacity="1" stroke="#000000" stroke-linecap="butt" stroke-linejoin="miter" stroke-miterlimit="20" stroke-opacity="1" stroke-width="1" transform="matrix(2.85714,0,0,2.85714,25.7143,2.85714)"><path d="M33.9788,20.8001 L33.9788,22.6001 L47.8086,22.6001 L47.8086,19.0001 L51.0001,19.0001" fill-rule="nonzero" vector-effect="none"/></g><defs><clipPath id="clip155"><path d="M1,1 L51,1 L51,49 L1,49 L1,1 z"/></clipPath></defs><g clip-path="url(#clip155)" fill="none" opacity="1" stroke="#000000" stroke-linecap="butt" stroke-linejoin="miter" stroke-miterlimit="20" stroke-opacity="1" stroke-width="1" transform="matrix(2.85714,0,0,2.85714,25.7143,2.85714)"><path d="M33.9788,29.8001 L33.9788,27.4001 L47.8086,27.4001 L47.8086,31.0001 L51.0001,31.0001" fill-rule="nonzero" vector-effect="none"/></g><defs><clipPath id="clip156"><path d="M1,1 L51,1 L51,49 L1,49 L1,1 z"/></clipPath></defs><g clip-path="url(#clip156)" fill="none" opacity="1" stroke="#000000" stroke-linecap="butt" stroke-linejoin="miter" stroke-miterlimit="20" stroke-opacity="1" stroke-width="1" transform="matrix(2.85714,0,0,2.85714,25.7143,2.85714)"><path d="M33.9788,44.2002 L33.9788,46.6002 L47.8086,46.6002 L47.8086,43.0002 L51.0001,43.0002" fill-rule="nonzero" vector-effect="none"/></g><defs><clipPath id="clip157"><path d="M1,1 L51,1 L51,49 L1,49 L1,1 z"/></clipPath></defs><g clip-path="url(#clip157)" fill="none" opacity="1" stroke="#000000" stroke-linecap="butt" stroke-linejoin="miter" stroke-miterlimit="4" stroke-opacity="1" stroke-width="1" transform="matrix(2.85714,0,0,2.85714,25.7143,2.85714)"><path d="M19.0852,20.2001 C18.6247,20.2199 18.171,20.0707 17.7922,19.7749 C17.4133,19.4791 17.1298,19.0527 16.984,18.5596 C16.8383,18.0666 16.8383,17.5335 16.984,17.0405 C17.1298,16.5474 17.4133,16.121 17.7922,15.8252 C18.171,15.5294 18.6247,15.3802 19.0852,15.4001" fill-rule="nonzero" vector-effect="none"/></g><defs><clipPath id="clip158"><path d="M1,1 L51,1 L51,49 L1,49 L1,1 z"/></clipPath></defs><g clip-path="url(#clip158)" fill="none" opacity="1" stroke="#000000" stroke-linecap="butt" stroke-linejoin="miter" stroke-miterlimit="4" stroke-opacity="1" stroke-width="1" transform="matrix(2.85714,0,0,2.85714,25.7143,2.85714)"><path d="M19.0852,25.0001 C18.6247,25.0199 18.171,24.8708 17.7922,24.575 C17.4133,24.2792 17.1298,23.8528 16.984,23.3596 C16.8383,22.8665 16.8383,22.3336 16.984,21.8405 C17.1298,21.3474 17.4133,20.921 17.7922,20.6252 C18.171,20.3294 18.6247,20.1803 19.0852,20.2001" fill-rule="nonzero" vector-effect="none"/></g><defs><clipPath id="clip159"><path d="M1,1 L51,1 L51,49 L1,49 L1,1 z"/></clipPath></defs><g clip-path="url(#clip159)" fill="none" opacity="1" stroke="#000000" stroke-linecap="butt" stroke-linejoin="miter" stroke-miterlimit="4" stroke-opacity="1" stroke-width="1" transform="matrix(2.85714,0,0,2.85714,25.7143,2.85714)"><path d="M19.0852,29.8001 C18.6247,29.8199 18.171,29.6708 17.7922,29.375 C17.4133,29.0792 17.1298,28.6528 16.984,28.1597 C16.8383,27.6665 16.8383,27.1337 16.984,26.6405 C17.1298,26.1474 17.4133,25.721 17.7922,25.4252 C18.171,25.1294 18.6247,24.9803 19.0852,25.0001" fill-rule="nonzero" vector-effect="none"/></g><defs><clipPath id="clip160"><path d="M1,1 L51,1 L51,49 L1,49 L1,1 z"/></clipPath></defs><g clip-path="url(#clip160)" fill="none" opacity="1" stroke="#000000" stroke-linecap="butt" stroke-linejoin="miter" stroke-miterlimit="4" stroke-opacity="1" stroke-width="1" transform="matrix(2.85714,0,0,2.85714,25.7143,2.85714)"><path d="M19.0852,34.6001 C18.6247,34.6199 18.171,34.4708 17.7922,34.175 C17.4133,33.8792 17.1298,33.4528 16.984,32.9597 C16.8383,32.4666 16.8383,31.9337 16.984,31.4406 C17.1298,30.9474 17.4133,30.521 17.7922,30.2252 C18.171,29.9294 18.6247,29.7803 19.0852,29.8001" fill-rule="nonzero" vector-effect="none"/></g><defs><clipPath id="clip161"><path d="M1,1 L51,1 L51,49 L1,49 L1,1 z"/></clipPath></defs><g clip-path="url(#clip161)" fill="none" opacity="1" stroke="#000000" stroke-linecap="butt" stroke-linejoin="miter" stroke-miterlimit="4" stroke-opacity="1" stroke-width="1" transform="matrix(2.85714,0,0,2.85714,25.7143,2.85714)"><path d="M33.9788,15.4001 C34.4408,15.3774 34.8967,15.5249 35.2779,15.8204 C35.6589,16.1159 35.9443,16.5432 36.0909,17.0379 C36.2377,17.5325 36.2377,18.0676 36.0909,18.5622 C35.9443,19.0569 35.6589,19.4842 35.2779,19.7797 C34.8967,20.0752 34.4408,20.2227 33.9788,20.2001" fill-rule="nonzero" vector-effect="none"/></g><defs><clipPath id="clip162"><path d="M1,1 L51,1 L51,49 L1,49 L1,1 z"/></clipPath></defs><g clip-path="url(#clip162)" fill="none" opacity="1" stroke="#000000" stroke-linecap="butt" stroke-linejoin="miter" stroke-miterlimit="4" stroke-opacity="1" stroke-width="1" transform="matrix(2.85714,0,0,2.85714,25.7143,2.85714)"><path d="M33.9788,10.6 C34.4408,10.5774 34.8967,10.7249 35.2779,11.0204 C35.6589,11.3159 35.9443,11.7432 36.0909,12.2379 C36.2377,12.7325 36.2377,13.2676 36.0909,13.7622 C35.9443,14.2569 35.6589,14.6842 35.2779,14.9797 C34.8967,15.2752 34.4408,15.4227 33.9788,15.4001" fill-rule="nonzero" vector-effect="none"/></g><defs><clipPath id="clip163"><path d="M1,1 L51,1 L51,49 L1,49 L1,1 z"/></clipPath></defs><g clip-path="url(#clip163)" fill="none" opacity="1" stroke="#000000" stroke-linecap="butt" stroke-linejoin="miter" stroke-miterlimit="4" stroke-opacity="1" stroke-width="1" transform="matrix(2.85714,0,0,2.85714,25.7143,2.85714)"><path d="M33.9788,5.80002 C34.4408,5.77736 34.8967,5.92491 35.2779,6.22038 C35.6589,6.51587 35.9443,6.94321 36.0909,7.43785 C36.2377,7.9325 36.2377,8.46757 36.0909,8.96221 C35.9443,9.45686 35.6589,9.88419 35.2779,10.1797 C34.8967,10.4752 34.4408,10.6227 33.9788,10.6" fill-rule="nonzero" vector-effect="none"/></g><defs><clipPath id="clip164"><path d="M1,1 L51,1 L51,49 L1,49 L1,1 z"/></clipPath></defs><g clip-path="url(#clip164)" fill="none" opacity="1" stroke="#000000" stroke-linecap="butt" stroke-linejoin="miter" stroke-miterlimit="4" stroke-opacity="1" stroke-width="1" transform="matrix(2.85714,0,0,2.85714,25.7143,2.85714)"><path d="M33.9788,39.4001 C34.4408,39.3775 34.8967,39.525 35.2779,39.8206 C35.6589,40.1159 35.9443,40.5433 36.0909,41.0379 C36.2377,41.5326 36.2377,42.0677 36.0909,42.5624 C35.9443,43.057 35.6589,43.4844 35.2779,43.7797 C34.8967,44.0753 34.4408,44.2228 33.9788,44.2002" fill-rule="nonzero" vector-effect="none"/></g><defs><clipPath id="clip165"><path d="M1,1 L51,1 L51,49 L1,49 L1,1 z"/></clipPath></defs><g clip-path="url(#clip165)" fill="none" opacity="1" stroke="#000000" stroke-linecap="butt" stroke-linejoin="miter" stroke-miterlimit="4" stroke-opacity="1" stroke-width="1" transform="matrix(2.85714,0,0,2.85714,25.7143,2.85714)"><path d="M33.9788,34.6001 C34.4408,34.5775 34.8967,34.725 35.2779,35.0206 C35.6589,35.3159 35.9443,35.7432 36.0909,36.2379 C36.2377,36.7326 36.2377,37.2677 36.0909,37.7624 C35.9443,38.257 35.6589,38.6844 35.2779,38.9797 C34.8967,39.2753 34.4408,39.4228 33.9788,39.4001" fill-rule="nonzero" vector-effect="none"/></g><defs><clipPath id="clip166"><path d="M1,1 L51,1 L51,49 L1,49 L1,1 z"/></clipPath></defs><g clip-path="url(#clip166)" fill="none" opacity="1" stroke="#000000" stroke-linecap="butt" stroke-linejoin="miter" stroke-miterlimit="4" stroke-opacity="1" stroke-width="1" transform="matrix(2.85714,0,0,2.85714,25.7143,2.85714)"><path d="M33.9788,29.8001 C34.4408,29.7774 34.8967,29.925 35.2779,30.2206 C35.6589,30.5159 35.9443,30.9432 36.0909,31.4379 C36.2377,31.9326 36.2377,32.4677 36.0909,32.9623 C35.9443,33.457 35.6589,33.8843 35.2779,34.1797 C34.8967,34.4752 34.4408,34.6228 33.9788,34.6001" fill-rule="nonzero" vector-effect="none"/></g><defs><clipPath id="clip167"><path d="M9,9 L263,9 L263,225 L9,225 L9,9 z"/></clipPath></defs><g clip-path="url(#clip167)" fill="#000000" fill-opacity="1" opacity="1" stroke="none" stroke-opacity="0" transform="matrix(0.562874,0,0,0.634923,23.5056,3.24185e-14)"><path d="M79.2,76.5 C79.2,79.4823 76.7823,81.9 73.8,81.9 C70.8177,81.9 68.4,79.4823 68.4,76.5 C68.4,73.5177 70.8177,71.1 73.8,71.1 C76.7823,71.1 79.2,73.5177 79.2,76.5 z" fill-rule="nonzero" vector-effect="none"/></g><defs><clipPath id="clip168"><path d="M1,1 L51,1 L51,49 L1,49 L1,1 z"/></clipPath></defs><g clip-path="url(#clip168)" fill="none" opacity="1" stroke="#000000" stroke-linecap="butt" stroke-linejoin="miter" stroke-miterlimit="4" stroke-opacity="1" stroke-width="1" transform="matrix(2.85714,0,0,2.85714,25.7143,2.85714)"><path d="M14.8298,16.0001 C14.8298,16.6628 14.3535,17.2001 13.766,17.2001 C13.1785,17.2001 12.7022,16.6628 12.7022,16.0001 C12.7022,15.3373 13.1785,14.8001 13.766,14.8001 C14.3535,14.8001 14.8298,15.3373 14.8298,16.0001 z" fill-rule="nonzero" vector-effect="none"/></g><defs><clipPath id="clip169"><path d="M9,9 L263,9 L263,225 L9,225 L9,9 z"/></clipPath></defs><g clip-path="url(#clip169)" fill="#000000" fill-opacity="1" opacity="1" stroke="none" stroke-opacity="0" transform="matrix(0.562874,0,0,0.634923,23.5056,3.24185e-14)"><path d="M204.96,32.16 C204.96,35.1423 202.542,37.56 199.56,37.56 C196.578,37.56 194.16,35.1423 194.16,32.16 C194.16,29.1777 196.578,26.76 199.56,26.76 C202.542,26.76 204.96,29.1777 204.96,32.16 z" fill-rule="nonzero" vector-effect="none"/></g><defs><clipPath id="clip170"><path d="M1,1 L51,1 L51,49 L1,49 L1,1 z"/></clipPath></defs><g clip-path="url(#clip170)" fill="none" opacity="1" stroke="#000000" stroke-linecap="butt" stroke-linejoin="miter" stroke-miterlimit="4" stroke-opacity="1" stroke-width="1" transform="matrix(2.85714,0,0,2.85714,25.7143,2.85714)"><path d="M39.6053,6.14669 C39.6053,6.80944 39.129,7.3467 38.5415,7.3467 C37.9539,7.3467 37.4776,6.80944 37.4776,6.14669 C37.4776,5.48395 37.9539,4.94669 38.5415,4.94669 C39.129,4.94669 39.6053,5.48395 39.6053,6.14669 z" fill-rule="nonzero" vector-effect="none"/></g><defs><clipPath id="clip171"><path d="M9,9 L263,9 L263,225 L9,225 L9,9 z"/></clipPath></defs><g clip-path="url(#clip171)" fill="#000000" fill-opacity="1" opacity="1" stroke="none" stroke-opacity="0" transform="matrix(0.562874,0,0,0.634923,23.5056,3.24185e-14)"><path d="M206.1,138.6 C206.1,141.582 203.682,144 200.7,144 C197.718,144 195.3,141.582 195.3,138.6 C195.3,135.618 197.718,133.2 200.7,133.2 C203.682,133.2 206.1,135.618 206.1,138.6 z" fill-rule="nonzero" vector-effect="none"/></g><defs><clipPath id="clip172"><path d="M1,1 L51,1 L51,49 L1,49 L1,1 z"/></clipPath></defs><g clip-path="url(#clip172)" fill="none" opacity="1" stroke="#000000" stroke-linecap="butt" stroke-linejoin="miter" stroke-miterlimit="4" stroke-opacity="1" stroke-width="1" transform="matrix(2.85714,0,0,2.85714,25.7143,2.85714)"><path d="M39.8299,29.8001 C39.8299,30.4629 39.3536,31.0001 38.7661,31.0001 C38.1785,31.0001 37.7022,30.4629 37.7022,29.8001 C37.7022,29.1374 38.1785,28.6001 38.7661,28.6001 C39.3536,28.6001 39.8299,29.1374 39.8299,29.8001 z" fill-rule="nonzero" vector-effect="none"/></g><defs><clipPath id="clip173"><path d="M1,1 L51,1 L51,49 L1,49 L1,1 z"/></clipPath></defs><g clip-path="url(#clip173)" fill="none" opacity="1" stroke="#ffffff" stroke-linecap="butt" stroke-linejoin="miter" stroke-miterlimit="20" stroke-opacity="1" stroke-width="1" transform="matrix(2.85714,0,0,2.85714,25.7143,2.85714)"><path d="M1,1.00001 L51.0001,1.00001 L51.0001,49.0002 L1,49.0002 L1,1.00001 z" fill-rule="nonzero" vector-effect="none"/></g><defs><clipPath id="clip174"><path d="M1,1 L51,1 L51,49 L1,49 L1,1 z"/></clipPath></defs><g clip-path="url(#clip174)" fill="none" opacity="1" stroke="#000000" stroke-linecap="butt" stroke-linejoin="miter" stroke-miterlimit="20" stroke-opacity="1" stroke-width="1" transform="matrix(2.85714,0,0,2.85714,25.7143,2.85714)"><path d="M24.4043,5.80002 L24.4043,44.2002" fill-rule="nonzero" vector-effect="none"/></g><defs><clipPath id="clip175"><path d="M1,1 L51,1 L51,49 L1,49 L1,1 z"/></clipPath></defs><g clip-path="url(#clip175)" fill="none" opacity="1" stroke="#000000" stroke-linecap="butt" stroke-linejoin="miter" stroke-miterlimit="20" stroke-opacity="1" stroke-width="1" transform="matrix(2.85714,0,0,2.85714,25.7143,2.85714)"><path d="M28.6596,5.80002 L28.6596,44.2002" fill-rule="nonzero" vector-effect="none"/></g><defs><clipPath id="clip192"><path d="M-241,-148 L15,-148 L15,98 L-241,98 L-241,-148 z"/></clipPath></defs><g clip-path="url(#clip192)" fill="none" opacity="1" stroke="#e60000" stroke-linecap="square" stroke-linejoin="bevel" stroke-opacity="1" stroke-width="1" transform="matrix(0.558036,0,0,0.558036,162.857,88.5714)"><text fill="#e60000" fill-opacity="1" font-family="Liberation Sans" font-size="40" font-style="normal" font-weight="400" stroke="none" textLength="45" x="-58.3594" xml:space="preserve" y="17.9219">3+</text></g><defs><clipPath id="clip195"><path d="M-241,-46 L15,-46 L15,200 L-241,200 L-241,-46 z"/></clipPath></defs><g clip-path="url(#clip195)" fill="none" opacity="1" stroke="#e60000" stroke-linecap="square" stroke-linejoin="bevel" stroke-opacity="1" stroke-width="1" transform="matrix(0.558036,0,0,0.558036,162.857,31.4286)"><text fill="#e60000" fill-opacity="1" font-family="Liberation Sans" font-size="40" font-style="normal" font-weight="400" stroke="none" textLength="45" x="-58.3594" xml:space="preserve" y="17.9219">2+</text></g><defs><clipPath id="clip198"><path d="M-15,-72 L241,-72 L241,174 L-15,174 L-15,-72 z"/></clipPath></defs><g clip-path="url(#clip198)" fill="none" opacity="1" stroke="#e60000" stroke-linecap="square" stroke-linejoin="bevel" stroke-opacity="1" stroke-width="1" transform="matrix(0.558036,0,0,0.558036,37.1429,45.7143)"><text fill="#e60000" fill-opacity="1" font-family="Liberation Sans" font-size="40" font-style="normal" font-weight="400" stroke="none" textLength="45" x="0" xml:space="preserve" y="17.9219">1+</text></g><defs><clipPath id="clip204"><path d="M-10,-2 L60,-2 L60,50 L-10,50 L-10,-2 z"/></clipPath></defs><g clip-path="url(#clip204)" fill="none" opacity="1" stroke="none" stroke-opacity="0" transform="matrix(2.85714,0,0,2.85714,28.5714,5.71429)"><path d="M0,0 L50,0 L50,48 L0,48 L0,0 z" fill-rule="evenodd" vector-effect="none"/></g></g></svg>
