<?xml version="1.0" encoding="UTF-8"?><svg width="52.9167mm" height="44.45mm" viewBox="0 0 200 168" xmlns="http://www.w3.org/2000/svg" xmlns:xlink="http://www.w3.org/1999/xlink"><g fill="none" stroke="black" stroke-width="1" fill-rule="evenodd" stroke-linecap="square" stroke-linejoin="bevel"><g clip-path="none" fill="none" opacity="1" stroke="none" stroke-opacity="0" transform="matrix(1,0,0,1,0,0)"><path d="M0,0 L200,0 L200,168 L0,168 L0,0 z" fill-rule="evenodd" vector-effect="none"/></g><defs><clipPath id="clip6"><path d="M0,0 L10,0 L10,10 L0,10 L0,0 z"/></clipPath></defs><g clip-path="url(#clip6)" fill="#b3b3b3" fill-opacity="1" opacity="1" stroke="none" stroke-opacity="0" transform="matrix(2.22222,0,0,2.22222,177.778,75.5556)"><path d="M0.5,3.5 L3.5,3.5 L3.5,6.5 L0.5,6.5 L0.5,3.5 z" fill-rule="evenodd" vector-effect="none"/></g><defs><clipPath id="clip8"><path d="M0,0 L10,0 L10,10 L0,10 L0,0 z"/></clipPath></defs><g clip-path="url(#clip8)" fill="#000000" fill-opacity="1" opacity="1" stroke="none" stroke-opacity="0" transform="matrix(2.22222,0,0,2.22222,177.778,75.5556)"><path d="M3,4 L3,6 L1,6 L1,4 L3,4 M4,3 L0,3 L0,7 L4,7 L4,3" fill-rule="nonzero" vector-effect="none"/></g><defs><clipPath id="clip28"><path d="M0,0 L10,0 L10,10 L0,10 L0,0 z"/></clipPath></defs><g clip-path="url(#clip28)" fill="#b3b3b3" fill-opacity="1" opacity="1" stroke="none" stroke-opacity="0" transform="matrix(-2.22222,0,0,2.22222,22.2222,75.5556)"><path d="M0.5,3.5 L3.5,3.5 L3.5,6.5 L0.5,6.5 L0.5,3.5 z" fill-rule="evenodd" vector-effect="none"/></g><defs><clipPath id="clip30"><path d="M0,0 L10,0 L10,10 L0,10 L0,0 z"/></clipPath></defs><g clip-path="url(#clip30)" fill="#000000" fill-opacity="1" opacity="1" stroke="none" stroke-opacity="0" transform="matrix(-2.22222,0,0,2.22222,22.2222,75.5556)"><path d="M3,4 L3,6 L1,6 L1,4 L3,4 M4,3 L0,3 L0,7 L4,7 L4,3" fill-rule="nonzero" vector-effect="none"/></g><defs><clipPath id="clip47"><path d="M-10,-2 L80,-2 L80,74 L-10,74 L-10,-2 z"/></clipPath></defs><g clip-path="url(#clip47)" fill="#ffffff" fill-opacity="1" opacity="1" stroke="none" stroke-opacity="0" transform="matrix(2.22222,0,0,2.22222,22.2222,4.44444)"><path d="M0,0 L70,0 L70,72 L0,72 L0,0 z" fill-rule="evenodd" vector-effect="none"/></g><defs><clipPath id="clip51"><path d="M340,274 L410,274 L410,346 L340,346 L340,274 z"/></clipPath></defs><g clip-path="url(#clip51)" fill="#efefef" fill-opacity="1" opacity="1" stroke="#efefef" stroke-linecap="square" stroke-linejoin="bevel" stroke-opacity="1" stroke-width="1" transform="matrix(2.22222,0,0,2.22222,-733.333,-604.444)"><path d="M362,319 L387,319 L391,316 L391,303 L387,300 L362,300 L358,303 L358,316 L362,319 z" fill-rule="evenodd" vector-effect="none"/></g><defs><clipPath id="clip52"><path d="M340,274 L410,274 L410,346 L340,346 L340,274 z"/></clipPath></defs><g clip-path="url(#clip52)" fill="#efefef" fill-opacity="1" opacity="1" stroke="#000000" stroke-linecap="square" stroke-linejoin="bevel" stroke-opacity="1" stroke-width="1" transform="matrix(2.22222,0,0,2.22222,-732.222,-603.333)"><polyline fill="none" points="376,310 376,309" vector-effect="none"/></g><defs><clipPath id="clip53"><path d="M340,274 L410,274 L410,346 L340,346 L340,274 z"/></clipPath></defs><g clip-path="url(#clip53)" fill="#efefef" fill-opacity="1" opacity="1" stroke="#000000" stroke-linecap="square" stroke-linejoin="bevel" stroke-opacity="1" stroke-width="1" transform="matrix(2.22222,0,0,2.22222,-732.222,-603.333)"><polyline fill="none" points="376,309 376,308" vector-effect="none"/></g><defs><clipPath id="clip54"><path d="M340,274 L410,274 L410,346 L340,346 L340,274 z"/></clipPath></defs><g clip-path="url(#clip54)" fill="#efefef" fill-opacity="1" opacity="1" stroke="#000000" stroke-linecap="square" stroke-linejoin="bevel" stroke-opacity="1" stroke-width="1" transform="matrix(2.22222,0,0,2.22222,-732.222,-603.333)"><polyline fill="none" points="376,308 377,307" vector-effect="none"/></g><defs><clipPath id="clip55"><path d="M340,274 L410,274 L410,346 L340,346 L340,274 z"/></clipPath></defs><g clip-path="url(#clip55)" fill="#efefef" fill-opacity="1" opacity="1" stroke="#000000" stroke-linecap="square" stroke-linejoin="bevel" stroke-opacity="1" stroke-width="1" transform="matrix(2.22222,0,0,2.22222,-732.222,-603.333)"><polyline fill="none" points="377,307 377,306" vector-effect="none"/></g><defs><clipPath id="clip56"><path d="M340,274 L410,274 L410,346 L340,346 L340,274 z"/></clipPath></defs><g clip-path="url(#clip56)" fill="#efefef" fill-opacity="1" opacity="1" stroke="#000000" stroke-linecap="square" stroke-linejoin="bevel" stroke-opacity="1" stroke-width="1" transform="matrix(2.22222,0,0,2.22222,-732.222,-603.333)"><polyline fill="none" points="377,306 378,305" vector-effect="none"/></g><defs><clipPath id="clip57"><path d="M340,274 L410,274 L410,346 L340,346 L340,274 z"/></clipPath></defs><g clip-path="url(#clip57)" fill="#efefef" fill-opacity="1" opacity="1" stroke="#000000" stroke-linecap="square" stroke-linejoin="bevel" stroke-opacity="1" stroke-width="1" transform="matrix(2.22222,0,0,2.22222,-732.222,-603.333)"><polyline fill="none" points="378,305 379,305" vector-effect="none"/></g><defs><clipPath id="clip58"><path d="M340,274 L410,274 L410,346 L340,346 L340,274 z"/></clipPath></defs><g clip-path="url(#clip58)" fill="#efefef" fill-opacity="1" opacity="1" stroke="#000000" stroke-linecap="square" stroke-linejoin="bevel" stroke-opacity="1" stroke-width="1" transform="matrix(2.22222,0,0,2.22222,-732.222,-603.333)"><polyline fill="none" points="379,305 380,304" vector-effect="none"/></g><defs><clipPath id="clip59"><path d="M340,274 L410,274 L410,346 L340,346 L340,274 z"/></clipPath></defs><g clip-path="url(#clip59)" fill="#efefef" fill-opacity="1" opacity="1" stroke="#000000" stroke-linecap="square" stroke-linejoin="bevel" stroke-opacity="1" stroke-width="1" transform="matrix(2.22222,0,0,2.22222,-732.222,-603.333)"><polyline fill="none" points="380,304 381,304" vector-effect="none"/></g><defs><clipPath id="clip60"><path d="M340,274 L410,274 L410,346 L340,346 L340,274 z"/></clipPath></defs><g clip-path="url(#clip60)" fill="#efefef" fill-opacity="1" opacity="1" stroke="#000000" stroke-linecap="square" stroke-linejoin="bevel" stroke-opacity="1" stroke-width="1" transform="matrix(2.22222,0,0,2.22222,-732.222,-603.333)"><polyline fill="none" points="381,304 382,304" vector-effect="none"/></g><defs><clipPath id="clip61"><path d="M340,274 L410,274 L410,346 L340,346 L340,274 z"/></clipPath></defs><g clip-path="url(#clip61)" fill="#efefef" fill-opacity="1" opacity="1" stroke="#000000" stroke-linecap="square" stroke-linejoin="bevel" stroke-opacity="1" stroke-width="1" transform="matrix(2.22222,0,0,2.22222,-732.222,-603.333)"><polyline fill="none" points="382,304 384,305" vector-effect="none"/></g><defs><clipPath id="clip62"><path d="M340,274 L410,274 L410,346 L340,346 L340,274 z"/></clipPath></defs><g clip-path="url(#clip62)" fill="#efefef" fill-opacity="1" opacity="1" stroke="#000000" stroke-linecap="square" stroke-linejoin="bevel" stroke-opacity="1" stroke-width="1" transform="matrix(2.22222,0,0,2.22222,-732.222,-603.333)"><polyline fill="none" points="384,305 385,305" vector-effect="none"/></g><defs><clipPath id="clip63"><path d="M340,274 L410,274 L410,346 L340,346 L340,274 z"/></clipPath></defs><g clip-path="url(#clip63)" fill="#efefef" fill-opacity="1" opacity="1" stroke="#000000" stroke-linecap="square" stroke-linejoin="bevel" stroke-opacity="1" stroke-width="1" transform="matrix(2.22222,0,0,2.22222,-732.222,-603.333)"><polyline fill="none" points="385,305 385,306" vector-effect="none"/></g><defs><clipPath id="clip64"><path d="M340,274 L410,274 L410,346 L340,346 L340,274 z"/></clipPath></defs><g clip-path="url(#clip64)" fill="#efefef" fill-opacity="1" opacity="1" stroke="#000000" stroke-linecap="square" stroke-linejoin="bevel" stroke-opacity="1" stroke-width="1" transform="matrix(2.22222,0,0,2.22222,-732.222,-603.333)"><polyline fill="none" points="385,306 386,307" vector-effect="none"/></g><defs><clipPath id="clip65"><path d="M340,274 L410,274 L410,346 L340,346 L340,274 z"/></clipPath></defs><g clip-path="url(#clip65)" fill="#efefef" fill-opacity="1" opacity="1" stroke="#000000" stroke-linecap="square" stroke-linejoin="bevel" stroke-opacity="1" stroke-width="1" transform="matrix(2.22222,0,0,2.22222,-732.222,-603.333)"><polyline fill="none" points="386,307 387,308" vector-effect="none"/></g><defs><clipPath id="clip66"><path d="M340,274 L410,274 L410,346 L340,346 L340,274 z"/></clipPath></defs><g clip-path="url(#clip66)" fill="#efefef" fill-opacity="1" opacity="1" stroke="#000000" stroke-linecap="square" stroke-linejoin="bevel" stroke-opacity="1" stroke-width="1" transform="matrix(2.22222,0,0,2.22222,-732.222,-603.333)"><polyline fill="none" points="387,308 387,309" vector-effect="none"/></g><defs><clipPath id="clip67"><path d="M340,274 L410,274 L410,346 L340,346 L340,274 z"/></clipPath></defs><g clip-path="url(#clip67)" fill="#efefef" fill-opacity="1" opacity="1" stroke="#000000" stroke-linecap="square" stroke-linejoin="bevel" stroke-opacity="1" stroke-width="1" transform="matrix(2.22222,0,0,2.22222,-732.222,-603.333)"><polyline fill="none" points="387,309 387,310" vector-effect="none"/></g><defs><clipPath id="clip68"><path d="M340,274 L410,274 L410,346 L340,346 L340,274 z"/></clipPath></defs><g clip-path="url(#clip68)" fill="#efefef" fill-opacity="1" opacity="1" stroke="#000000" stroke-linecap="square" stroke-linejoin="bevel" stroke-opacity="1" stroke-width="1" transform="matrix(2.22222,0,0,2.22222,-732.222,-603.333)"><polyline fill="none" points="387,310 387,311" vector-effect="none"/></g><defs><clipPath id="clip69"><path d="M340,274 L410,274 L410,346 L340,346 L340,274 z"/></clipPath></defs><g clip-path="url(#clip69)" fill="#efefef" fill-opacity="1" opacity="1" stroke="#000000" stroke-linecap="square" stroke-linejoin="bevel" stroke-opacity="1" stroke-width="1" transform="matrix(2.22222,0,0,2.22222,-732.222,-603.333)"><polyline fill="none" points="387,311 387,312" vector-effect="none"/></g><defs><clipPath id="clip70"><path d="M340,274 L410,274 L410,346 L340,346 L340,274 z"/></clipPath></defs><g clip-path="url(#clip70)" fill="#efefef" fill-opacity="1" opacity="1" stroke="#000000" stroke-linecap="square" stroke-linejoin="bevel" stroke-opacity="1" stroke-width="1" transform="matrix(2.22222,0,0,2.22222,-732.222,-603.333)"><polyline fill="none" points="387,312 386,313" vector-effect="none"/></g><defs><clipPath id="clip71"><path d="M340,274 L410,274 L410,346 L340,346 L340,274 z"/></clipPath></defs><g clip-path="url(#clip71)" fill="#efefef" fill-opacity="1" opacity="1" stroke="#000000" stroke-linecap="square" stroke-linejoin="bevel" stroke-opacity="1" stroke-width="1" transform="matrix(2.22222,0,0,2.22222,-732.222,-603.333)"><polyline fill="none" points="386,313 385,314" vector-effect="none"/></g><defs><clipPath id="clip72"><path d="M340,274 L410,274 L410,346 L340,346 L340,274 z"/></clipPath></defs><g clip-path="url(#clip72)" fill="#efefef" fill-opacity="1" opacity="1" stroke="#000000" stroke-linecap="square" stroke-linejoin="bevel" stroke-opacity="1" stroke-width="1" transform="matrix(2.22222,0,0,2.22222,-732.222,-603.333)"><polyline fill="none" points="385,314 385,315" vector-effect="none"/></g><defs><clipPath id="clip73"><path d="M340,274 L410,274 L410,346 L340,346 L340,274 z"/></clipPath></defs><g clip-path="url(#clip73)" fill="#efefef" fill-opacity="1" opacity="1" stroke="#000000" stroke-linecap="square" stroke-linejoin="bevel" stroke-opacity="1" stroke-width="1" transform="matrix(2.22222,0,0,2.22222,-732.222,-603.333)"><polyline fill="none" points="385,315 384,315" vector-effect="none"/></g><defs><clipPath id="clip74"><path d="M340,274 L410,274 L410,346 L340,346 L340,274 z"/></clipPath></defs><g clip-path="url(#clip74)" fill="#efefef" fill-opacity="1" opacity="1" stroke="#000000" stroke-linecap="square" stroke-linejoin="bevel" stroke-opacity="1" stroke-width="1" transform="matrix(2.22222,0,0,2.22222,-732.222,-603.333)"><polyline fill="none" points="384,315 382,316" vector-effect="none"/></g><defs><clipPath id="clip75"><path d="M340,274 L410,274 L410,346 L340,346 L340,274 z"/></clipPath></defs><g clip-path="url(#clip75)" fill="#efefef" fill-opacity="1" opacity="1" stroke="#000000" stroke-linecap="square" stroke-linejoin="bevel" stroke-opacity="1" stroke-width="1" transform="matrix(2.22222,0,0,2.22222,-732.222,-603.333)"><polyline fill="none" points="382,316 381,316" vector-effect="none"/></g><defs><clipPath id="clip76"><path d="M340,274 L410,274 L410,346 L340,346 L340,274 z"/></clipPath></defs><g clip-path="url(#clip76)" fill="#efefef" fill-opacity="1" opacity="1" stroke="#000000" stroke-linecap="square" stroke-linejoin="bevel" stroke-opacity="1" stroke-width="1" transform="matrix(2.22222,0,0,2.22222,-732.222,-603.333)"><polyline fill="none" points="381,316 380,316" vector-effect="none"/></g><defs><clipPath id="clip77"><path d="M340,274 L410,274 L410,346 L340,346 L340,274 z"/></clipPath></defs><g clip-path="url(#clip77)" fill="#efefef" fill-opacity="1" opacity="1" stroke="#000000" stroke-linecap="square" stroke-linejoin="bevel" stroke-opacity="1" stroke-width="1" transform="matrix(2.22222,0,0,2.22222,-732.222,-603.333)"><polyline fill="none" points="380,316 379,315" vector-effect="none"/></g><defs><clipPath id="clip78"><path d="M340,274 L410,274 L410,346 L340,346 L340,274 z"/></clipPath></defs><g clip-path="url(#clip78)" fill="#efefef" fill-opacity="1" opacity="1" stroke="#000000" stroke-linecap="square" stroke-linejoin="bevel" stroke-opacity="1" stroke-width="1" transform="matrix(2.22222,0,0,2.22222,-732.222,-603.333)"><polyline fill="none" points="379,315 378,315" vector-effect="none"/></g><defs><clipPath id="clip79"><path d="M340,274 L410,274 L410,346 L340,346 L340,274 z"/></clipPath></defs><g clip-path="url(#clip79)" fill="#efefef" fill-opacity="1" opacity="1" stroke="#000000" stroke-linecap="square" stroke-linejoin="bevel" stroke-opacity="1" stroke-width="1" transform="matrix(2.22222,0,0,2.22222,-732.222,-603.333)"><polyline fill="none" points="378,315 377,314" vector-effect="none"/></g><defs><clipPath id="clip80"><path d="M340,274 L410,274 L410,346 L340,346 L340,274 z"/></clipPath></defs><g clip-path="url(#clip80)" fill="#efefef" fill-opacity="1" opacity="1" stroke="#000000" stroke-linecap="square" stroke-linejoin="bevel" stroke-opacity="1" stroke-width="1" transform="matrix(2.22222,0,0,2.22222,-732.222,-603.333)"><polyline fill="none" points="377,314 377,313" vector-effect="none"/></g><defs><clipPath id="clip81"><path d="M340,274 L410,274 L410,346 L340,346 L340,274 z"/></clipPath></defs><g clip-path="url(#clip81)" fill="#efefef" fill-opacity="1" opacity="1" stroke="#000000" stroke-linecap="square" stroke-linejoin="bevel" stroke-opacity="1" stroke-width="1" transform="matrix(2.22222,0,0,2.22222,-732.222,-603.333)"><polyline fill="none" points="377,313 376,312" vector-effect="none"/></g><defs><clipPath id="clip82"><path d="M340,274 L410,274 L410,346 L340,346 L340,274 z"/></clipPath></defs><g clip-path="url(#clip82)" fill="#efefef" fill-opacity="1" opacity="1" stroke="#000000" stroke-linecap="square" stroke-linejoin="bevel" stroke-opacity="1" stroke-width="1" transform="matrix(2.22222,0,0,2.22222,-732.222,-603.333)"><polyline fill="none" points="376,312 376,311" vector-effect="none"/></g><defs><clipPath id="clip83"><path d="M340,274 L410,274 L410,346 L340,346 L340,274 z"/></clipPath></defs><g clip-path="url(#clip83)" fill="#efefef" fill-opacity="1" opacity="1" stroke="#000000" stroke-linecap="square" stroke-linejoin="bevel" stroke-opacity="1" stroke-width="1" transform="matrix(2.22222,0,0,2.22222,-732.222,-603.333)"><polyline fill="none" points="376,311 376,310" vector-effect="none"/></g><defs><clipPath id="clip84"><path d="M340,274 L410,274 L410,346 L340,346 L340,274 z"/></clipPath></defs><g clip-path="url(#clip84)" fill="#efefef" fill-opacity="1" opacity="1" stroke="#000000" stroke-linecap="square" stroke-linejoin="bevel" stroke-opacity="1" stroke-width="1" transform="matrix(2.22222,0,0,2.22222,-732.222,-603.333)"><polyline fill="none" points="376,316 387,304" vector-effect="none"/></g><defs><clipPath id="clip85"><path d="M340,274 L410,274 L410,346 L340,346 L340,274 z"/></clipPath></defs><g clip-path="url(#clip85)" fill="#efefef" fill-opacity="1" opacity="1" stroke="#000000" stroke-linecap="square" stroke-linejoin="bevel" stroke-opacity="1" stroke-width="1" transform="matrix(2.22222,0,0,2.22222,-732.222,-603.333)"><polyline fill="none" points="363,316 374,316" vector-effect="none"/></g><defs><clipPath id="clip86"><path d="M340,274 L410,274 L410,346 L340,346 L340,274 z"/></clipPath></defs><g clip-path="url(#clip86)" fill="#efefef" fill-opacity="1" opacity="1" stroke="#000000" stroke-linecap="square" stroke-linejoin="bevel" stroke-opacity="1" stroke-width="1" transform="matrix(2.22222,0,0,2.22222,-732.222,-603.333)"><polyline fill="none" points="374,316 369,304" vector-effect="none"/></g><defs><clipPath id="clip87"><path d="M340,274 L410,274 L410,346 L340,346 L340,274 z"/></clipPath></defs><g clip-path="url(#clip87)" fill="#efefef" fill-opacity="1" opacity="1" stroke="#000000" stroke-linecap="square" stroke-linejoin="bevel" stroke-opacity="1" stroke-width="1" transform="matrix(2.22222,0,0,2.22222,-732.222,-603.333)"><polyline fill="none" points="369,304 363,316" vector-effect="none"/></g><defs><clipPath id="clip89"><path d="M-15,-184 L343,-184 L343,185 L-15,185 L-15,-184 z"/></clipPath></defs><g clip-path="url(#clip89)" fill="#efefef" fill-opacity="1" opacity="1" stroke="#000000" stroke-linecap="square" stroke-linejoin="bevel" stroke-opacity="1" stroke-width="1" transform="matrix(0.434028,0,0,0.434028,28.8889,84.4444)"><text fill="#000000" fill-opacity="1" font-family="Liberation Sans" font-size="40" font-style="normal" font-weight="400" stroke="none" textLength="31" x="0" xml:space="preserve" y="17.9219">In</text></g><defs><clipPath id="clip92"><path d="M-343,-184 L15,-184 L15,185 L-343,185 L-343,-184 z"/></clipPath></defs><g clip-path="url(#clip92)" fill="#efefef" fill-opacity="1" opacity="1" stroke="#000000" stroke-linecap="square" stroke-linejoin="bevel" stroke-opacity="1" stroke-width="1" transform="matrix(0.434028,0,0,0.434028,171.111,84.4444)"><text fill="#000000" fill-opacity="1" font-family="Liberation Sans" font-size="40" font-style="normal" font-weight="400" stroke="none" textLength="63" x="-82.5" xml:space="preserve" y="17.9219">Out</text></g><defs><clipPath id="clip98"><path d="M-10,-2 L80,-2 L80,74 L-10,74 L-10,-2 z"/></clipPath></defs><g clip-path="url(#clip98)" fill="none" opacity="1" stroke="#000000" stroke-linecap="butt" stroke-linejoin="miter" stroke-miterlimit="2" stroke-opacity="1" stroke-width="0.726583" transform="matrix(2.22222,0,0,2.22222,22.2222,4.44444)"><path d="M0,0 L70,0 L70,72 L0,72 L0,0 z" fill-rule="evenodd" vector-effect="none"/></g></g></svg>
