<?xml version="1.0" encoding="UTF-8"?><svg width="52.9167mm" height="43.3917mm" viewBox="0 0 200 164" xmlns="http://www.w3.org/2000/svg" xmlns:xlink="http://www.w3.org/1999/xlink"><g fill="none" stroke="black" stroke-width="1" fill-rule="evenodd" stroke-linecap="square" stroke-linejoin="bevel"><g clip-path="none" fill="none" opacity="1" stroke="none" stroke-opacity="0" transform="matrix(1,0,0,1,0,0)"><path d="M0,0 L200,0 L200,164 L0,164 L0,0 z" fill-rule="evenodd" vector-effect="none"/></g><defs><clipPath id="clip6"><path d="M0,0 L10,0 L10,10 L0,10 L0,0 z"/></clipPath></defs><g clip-path="url(#clip6)" fill="#b3b3b3" fill-opacity="1" opacity="1" stroke="none" stroke-opacity="0" transform="matrix(-2.22222,0,0,2.22222,22.2222,73.3333)"><path d="M0.5,3.5 L3.5,3.5 L3.5,6.5 L0.5,6.5 L0.5,3.5 z" fill-rule="evenodd" vector-effect="none"/></g><defs><clipPath id="clip8"><path d="M0,0 L10,0 L10,10 L0,10 L0,0 z"/></clipPath></defs><g clip-path="url(#clip8)" fill="#000000" fill-opacity="1" opacity="1" stroke="none" stroke-opacity="0" transform="matrix(-2.22222,0,0,2.22222,22.2222,73.3333)"><path d="M3,4 L3,6 L1,6 L1,4 L3,4 M4,3 L0,3 L0,7 L4,7 L4,3" fill-rule="nonzero" vector-effect="none"/></g><defs><clipPath id="clip28"><path d="M0,0 L10,0 L10,10 L0,10 L0,0 z"/></clipPath></defs><g clip-path="url(#clip28)" fill="#b3b3b3" fill-opacity="1" opacity="1" stroke="none" stroke-opacity="0" transform="matrix(2.22222,0,0,2.22222,177.778,73.3333)"><path d="M0.5,3.5 L3.5,3.5 L3.5,6.5 L0.5,6.5 L0.5,3.5 z" fill-rule="evenodd" vector-effect="none"/></g><defs><clipPath id="clip30"><path d="M0,0 L10,0 L10,10 L0,10 L0,0 z"/></clipPath></defs><g clip-path="url(#clip30)" fill="#000000" fill-opacity="1" opacity="1" stroke="none" stroke-opacity="0" transform="matrix(2.22222,0,0,2.22222,177.778,73.3333)"><path d="M3,4 L3,6 L1,6 L1,4 L3,4 M4,3 L0,3 L0,7 L4,7 L4,3" fill-rule="nonzero" vector-effect="none"/></g><defs><clipPath id="clip47"><path d="M-10,-2 L80,-2 L80,72 L-10,72 L-10,-2 z"/></clipPath></defs><g clip-path="url(#clip47)" fill="#ffffff" fill-opacity="1" opacity="1" stroke="none" stroke-opacity="0" transform="matrix(2.22222,0,0,2.22222,22.2222,4.44444)"><path d="M0,0 L70,0 L70,70 L0,70 L0,0 z" fill-rule="evenodd" vector-effect="none"/></g><defs><clipPath id="clip51"><path d="M220,400 L290,400 L290,470 L220,470 L220,400 z"/></clipPath></defs><g clip-path="url(#clip51)" fill="#efefef" fill-opacity="1" opacity="1" stroke="#efefef" stroke-linecap="square" stroke-linejoin="bevel" stroke-opacity="1" stroke-width="1" transform="matrix(2.22222,0,0,2.22222,-466.667,-884.444)"><path d="M251,445 L258,445 L261,441 L261,428 L258,425 L251,425 L248,428 L248,441 L251,445 z" fill-rule="evenodd" vector-effect="none"/></g><defs><clipPath id="clip52"><path d="M219,400 L289,400 L289,470 L219,470 L219,400 z"/></clipPath></defs><g clip-path="url(#clip52)" fill="#efefef" fill-opacity="1" opacity="1" stroke="#000000" stroke-linecap="square" stroke-linejoin="bevel" stroke-opacity="1" stroke-width="1" transform="matrix(2.22222,0,0,2.22222,-465.556,-883.333)"><polyline fill="none" points="255,435 256,435" vector-effect="none"/></g><defs><clipPath id="clip53"><path d="M219,400 L289,400 L289,470 L219,470 L219,400 z"/></clipPath></defs><g clip-path="url(#clip53)" fill="#efefef" fill-opacity="1" opacity="1" stroke="#000000" stroke-linecap="square" stroke-linejoin="bevel" stroke-opacity="1" stroke-width="1" transform="matrix(2.22222,0,0,2.22222,-465.556,-883.333)"><polyline fill="none" points="256,435 257,436" vector-effect="none"/></g><defs><clipPath id="clip54"><path d="M219,400 L289,400 L289,470 L219,470 L219,400 z"/></clipPath></defs><g clip-path="url(#clip54)" fill="#efefef" fill-opacity="1" opacity="1" stroke="#000000" stroke-linecap="square" stroke-linejoin="bevel" stroke-opacity="1" stroke-width="1" transform="matrix(2.22222,0,0,2.22222,-465.556,-883.333)"><polyline fill="none" points="257,436 258,436" vector-effect="none"/></g><defs><clipPath id="clip55"><path d="M219,400 L289,400 L289,470 L219,470 L219,400 z"/></clipPath></defs><g clip-path="url(#clip55)" fill="#efefef" fill-opacity="1" opacity="1" stroke="#000000" stroke-linecap="square" stroke-linejoin="bevel" stroke-opacity="1" stroke-width="1" transform="matrix(2.22222,0,0,2.22222,-465.556,-883.333)"><polyline fill="none" points="258,436 258,437" vector-effect="none"/></g><defs><clipPath id="clip56"><path d="M219,400 L289,400 L289,470 L219,470 L219,400 z"/></clipPath></defs><g clip-path="url(#clip56)" fill="#efefef" fill-opacity="1" opacity="1" stroke="#000000" stroke-linecap="square" stroke-linejoin="bevel" stroke-opacity="1" stroke-width="1" transform="matrix(2.22222,0,0,2.22222,-465.556,-883.333)"><polyline fill="none" points="258,437 258,438" vector-effect="none"/></g><defs><clipPath id="clip57"><path d="M219,400 L289,400 L289,470 L219,470 L219,400 z"/></clipPath></defs><g clip-path="url(#clip57)" fill="#efefef" fill-opacity="1" opacity="1" stroke="#000000" stroke-linecap="square" stroke-linejoin="bevel" stroke-opacity="1" stroke-width="1" transform="matrix(2.22222,0,0,2.22222,-465.556,-883.333)"><polyline fill="none" points="258,438 258,439" vector-effect="none"/></g><defs><clipPath id="clip58"><path d="M219,400 L289,400 L289,470 L219,470 L219,400 z"/></clipPath></defs><g clip-path="url(#clip58)" fill="#efefef" fill-opacity="1" opacity="1" stroke="#000000" stroke-linecap="square" stroke-linejoin="bevel" stroke-opacity="1" stroke-width="1" transform="matrix(2.22222,0,0,2.22222,-465.556,-883.333)"><polyline fill="none" points="258,439 258,440" vector-effect="none"/></g><defs><clipPath id="clip59"><path d="M219,400 L289,400 L289,470 L219,470 L219,400 z"/></clipPath></defs><g clip-path="url(#clip59)" fill="#efefef" fill-opacity="1" opacity="1" stroke="#000000" stroke-linecap="square" stroke-linejoin="bevel" stroke-opacity="1" stroke-width="1" transform="matrix(2.22222,0,0,2.22222,-465.556,-883.333)"><polyline fill="none" points="258,440 257,440" vector-effect="none"/></g><defs><clipPath id="clip60"><path d="M219,400 L289,400 L289,470 L219,470 L219,400 z"/></clipPath></defs><g clip-path="url(#clip60)" fill="#efefef" fill-opacity="1" opacity="1" stroke="#000000" stroke-linecap="square" stroke-linejoin="bevel" stroke-opacity="1" stroke-width="1" transform="matrix(2.22222,0,0,2.22222,-465.556,-883.333)"><polyline fill="none" points="257,440 257,441" vector-effect="none"/></g><defs><clipPath id="clip61"><path d="M219,400 L289,400 L289,470 L219,470 L219,400 z"/></clipPath></defs><g clip-path="url(#clip61)" fill="#efefef" fill-opacity="1" opacity="1" stroke="#000000" stroke-linecap="square" stroke-linejoin="bevel" stroke-opacity="1" stroke-width="1" transform="matrix(2.22222,0,0,2.22222,-465.556,-883.333)"><polyline fill="none" points="257,441 256,441" vector-effect="none"/></g><defs><clipPath id="clip62"><path d="M219,400 L289,400 L289,470 L219,470 L219,400 z"/></clipPath></defs><g clip-path="url(#clip62)" fill="#efefef" fill-opacity="1" opacity="1" stroke="#000000" stroke-linecap="square" stroke-linejoin="bevel" stroke-opacity="1" stroke-width="1" transform="matrix(2.22222,0,0,2.22222,-465.556,-883.333)"><polyline fill="none" points="256,441 255,441" vector-effect="none"/></g><defs><clipPath id="clip63"><path d="M219,400 L289,400 L289,470 L219,470 L219,400 z"/></clipPath></defs><g clip-path="url(#clip63)" fill="#efefef" fill-opacity="1" opacity="1" stroke="#000000" stroke-linecap="square" stroke-linejoin="bevel" stroke-opacity="1" stroke-width="1" transform="matrix(2.22222,0,0,2.22222,-465.556,-883.333)"><polyline fill="none" points="255,441 254,441" vector-effect="none"/></g><defs><clipPath id="clip64"><path d="M219,400 L289,400 L289,470 L219,470 L219,400 z"/></clipPath></defs><g clip-path="url(#clip64)" fill="#efefef" fill-opacity="1" opacity="1" stroke="#000000" stroke-linecap="square" stroke-linejoin="bevel" stroke-opacity="1" stroke-width="1" transform="matrix(2.22222,0,0,2.22222,-465.556,-883.333)"><polyline fill="none" points="254,441 253,441" vector-effect="none"/></g><defs><clipPath id="clip65"><path d="M219,400 L289,400 L289,470 L219,470 L219,400 z"/></clipPath></defs><g clip-path="url(#clip65)" fill="#efefef" fill-opacity="1" opacity="1" stroke="#000000" stroke-linecap="square" stroke-linejoin="bevel" stroke-opacity="1" stroke-width="1" transform="matrix(2.22222,0,0,2.22222,-465.556,-883.333)"><polyline fill="none" points="253,441 253,440" vector-effect="none"/></g><defs><clipPath id="clip66"><path d="M219,400 L289,400 L289,470 L219,470 L219,400 z"/></clipPath></defs><g clip-path="url(#clip66)" fill="#efefef" fill-opacity="1" opacity="1" stroke="#000000" stroke-linecap="square" stroke-linejoin="bevel" stroke-opacity="1" stroke-width="1" transform="matrix(2.22222,0,0,2.22222,-465.556,-883.333)"><polyline fill="none" points="253,440 252,440" vector-effect="none"/></g><defs><clipPath id="clip67"><path d="M219,400 L289,400 L289,470 L219,470 L219,400 z"/></clipPath></defs><g clip-path="url(#clip67)" fill="#efefef" fill-opacity="1" opacity="1" stroke="#000000" stroke-linecap="square" stroke-linejoin="bevel" stroke-opacity="1" stroke-width="1" transform="matrix(2.22222,0,0,2.22222,-465.556,-883.333)"><polyline fill="none" points="252,440 252,439" vector-effect="none"/></g><defs><clipPath id="clip68"><path d="M219,400 L289,400 L289,470 L219,470 L219,400 z"/></clipPath></defs><g clip-path="url(#clip68)" fill="#efefef" fill-opacity="1" opacity="1" stroke="#000000" stroke-linecap="square" stroke-linejoin="bevel" stroke-opacity="1" stroke-width="1" transform="matrix(2.22222,0,0,2.22222,-465.556,-883.333)"><polyline fill="none" points="252,439 252,438" vector-effect="none"/></g><defs><clipPath id="clip69"><path d="M219,400 L289,400 L289,470 L219,470 L219,400 z"/></clipPath></defs><g clip-path="url(#clip69)" fill="#efefef" fill-opacity="1" opacity="1" stroke="#000000" stroke-linecap="square" stroke-linejoin="bevel" stroke-opacity="1" stroke-width="1" transform="matrix(2.22222,0,0,2.22222,-465.556,-883.333)"><polyline fill="none" points="255,435 254,435" vector-effect="none"/></g><defs><clipPath id="clip70"><path d="M219,400 L289,400 L289,470 L219,470 L219,400 z"/></clipPath></defs><g clip-path="url(#clip70)" fill="#efefef" fill-opacity="1" opacity="1" stroke="#000000" stroke-linecap="square" stroke-linejoin="bevel" stroke-opacity="1" stroke-width="1" transform="matrix(2.22222,0,0,2.22222,-465.556,-883.333)"><polyline fill="none" points="254,435 253,435" vector-effect="none"/></g><defs><clipPath id="clip71"><path d="M219,400 L289,400 L289,470 L219,470 L219,400 z"/></clipPath></defs><g clip-path="url(#clip71)" fill="#efefef" fill-opacity="1" opacity="1" stroke="#000000" stroke-linecap="square" stroke-linejoin="bevel" stroke-opacity="1" stroke-width="1" transform="matrix(2.22222,0,0,2.22222,-465.556,-883.333)"><polyline fill="none" points="253,435 253,434" vector-effect="none"/></g><defs><clipPath id="clip72"><path d="M219,400 L289,400 L289,470 L219,470 L219,400 z"/></clipPath></defs><g clip-path="url(#clip72)" fill="#efefef" fill-opacity="1" opacity="1" stroke="#000000" stroke-linecap="square" stroke-linejoin="bevel" stroke-opacity="1" stroke-width="1" transform="matrix(2.22222,0,0,2.22222,-465.556,-883.333)"><polyline fill="none" points="253,434 252,433" vector-effect="none"/></g><defs><clipPath id="clip73"><path d="M219,400 L289,400 L289,470 L219,470 L219,400 z"/></clipPath></defs><g clip-path="url(#clip73)" fill="#efefef" fill-opacity="1" opacity="1" stroke="#000000" stroke-linecap="square" stroke-linejoin="bevel" stroke-opacity="1" stroke-width="1" transform="matrix(2.22222,0,0,2.22222,-465.556,-883.333)"><polyline fill="none" points="252,433 252,432" vector-effect="none"/></g><defs><clipPath id="clip74"><path d="M219,400 L289,400 L289,470 L219,470 L219,400 z"/></clipPath></defs><g clip-path="url(#clip74)" fill="#efefef" fill-opacity="1" opacity="1" stroke="#000000" stroke-linecap="square" stroke-linejoin="bevel" stroke-opacity="1" stroke-width="1" transform="matrix(2.22222,0,0,2.22222,-465.556,-883.333)"><polyline fill="none" points="252,432 252,431" vector-effect="none"/></g><defs><clipPath id="clip75"><path d="M219,400 L289,400 L289,470 L219,470 L219,400 z"/></clipPath></defs><g clip-path="url(#clip75)" fill="#efefef" fill-opacity="1" opacity="1" stroke="#000000" stroke-linecap="square" stroke-linejoin="bevel" stroke-opacity="1" stroke-width="1" transform="matrix(2.22222,0,0,2.22222,-465.556,-883.333)"><polyline fill="none" points="252,431 253,431" vector-effect="none"/></g><defs><clipPath id="clip76"><path d="M219,400 L289,400 L289,470 L219,470 L219,400 z"/></clipPath></defs><g clip-path="url(#clip76)" fill="#efefef" fill-opacity="1" opacity="1" stroke="#000000" stroke-linecap="square" stroke-linejoin="bevel" stroke-opacity="1" stroke-width="1" transform="matrix(2.22222,0,0,2.22222,-465.556,-883.333)"><polyline fill="none" points="253,431 253,430" vector-effect="none"/></g><defs><clipPath id="clip77"><path d="M219,400 L289,400 L289,470 L219,470 L219,400 z"/></clipPath></defs><g clip-path="url(#clip77)" fill="#efefef" fill-opacity="1" opacity="1" stroke="#000000" stroke-linecap="square" stroke-linejoin="bevel" stroke-opacity="1" stroke-width="1" transform="matrix(2.22222,0,0,2.22222,-465.556,-883.333)"><polyline fill="none" points="253,430 254,429" vector-effect="none"/></g><defs><clipPath id="clip78"><path d="M219,400 L289,400 L289,470 L219,470 L219,400 z"/></clipPath></defs><g clip-path="url(#clip78)" fill="#efefef" fill-opacity="1" opacity="1" stroke="#000000" stroke-linecap="square" stroke-linejoin="bevel" stroke-opacity="1" stroke-width="1" transform="matrix(2.22222,0,0,2.22222,-465.556,-883.333)"><polyline fill="none" points="254,429 255,429" vector-effect="none"/></g><defs><clipPath id="clip79"><path d="M219,400 L289,400 L289,470 L219,470 L219,400 z"/></clipPath></defs><g clip-path="url(#clip79)" fill="#efefef" fill-opacity="1" opacity="1" stroke="#000000" stroke-linecap="square" stroke-linejoin="bevel" stroke-opacity="1" stroke-width="1" transform="matrix(2.22222,0,0,2.22222,-465.556,-883.333)"><polyline fill="none" points="255,429 256,429" vector-effect="none"/></g><defs><clipPath id="clip80"><path d="M219,400 L289,400 L289,470 L219,470 L219,400 z"/></clipPath></defs><g clip-path="url(#clip80)" fill="#efefef" fill-opacity="1" opacity="1" stroke="#000000" stroke-linecap="square" stroke-linejoin="bevel" stroke-opacity="1" stroke-width="1" transform="matrix(2.22222,0,0,2.22222,-465.556,-883.333)"><polyline fill="none" points="256,429 257,430" vector-effect="none"/></g><defs><clipPath id="clip81"><path d="M219,400 L289,400 L289,470 L219,470 L219,400 z"/></clipPath></defs><g clip-path="url(#clip81)" fill="#efefef" fill-opacity="1" opacity="1" stroke="#000000" stroke-linecap="square" stroke-linejoin="bevel" stroke-opacity="1" stroke-width="1" transform="matrix(2.22222,0,0,2.22222,-465.556,-883.333)"><polyline fill="none" points="257,430 257,431" vector-effect="none"/></g><defs><clipPath id="clip82"><path d="M219,400 L289,400 L289,470 L219,470 L219,400 z"/></clipPath></defs><g clip-path="url(#clip82)" fill="#efefef" fill-opacity="1" opacity="1" stroke="#000000" stroke-linecap="square" stroke-linejoin="bevel" stroke-opacity="1" stroke-width="1" transform="matrix(2.22222,0,0,2.22222,-465.556,-883.333)"><polyline fill="none" points="257,431 258,431" vector-effect="none"/></g><defs><clipPath id="clip83"><path d="M219,400 L289,400 L289,470 L219,470 L219,400 z"/></clipPath></defs><g clip-path="url(#clip83)" fill="#efefef" fill-opacity="1" opacity="1" stroke="#000000" stroke-linecap="square" stroke-linejoin="bevel" stroke-opacity="1" stroke-width="1" transform="matrix(2.22222,0,0,2.22222,-465.556,-883.333)"><polyline fill="none" points="258,431 258,432" vector-effect="none"/></g><defs><clipPath id="clip85"><path d="M-15,-179 L343,-179 L343,179 L-15,179 L-15,-179 z"/></clipPath></defs><g clip-path="url(#clip85)" fill="#efefef" fill-opacity="1" opacity="1" stroke="#000000" stroke-linecap="square" stroke-linejoin="bevel" stroke-opacity="1" stroke-width="1" transform="matrix(0.434028,0,0,0.434028,28.8889,82.2222)"><text fill="#000000" fill-opacity="1" font-family="Liberation Sans" font-size="40" font-style="normal" font-weight="400" stroke="none" textLength="22" x="0" xml:space="preserve" y="17.9219">1</text></g><defs><clipPath id="clip88"><path d="M-343,-179 L15,-179 L15,179 L-343,179 L-343,-179 z"/></clipPath></defs><g clip-path="url(#clip88)" fill="#efefef" fill-opacity="1" opacity="1" stroke="#000000" stroke-linecap="square" stroke-linejoin="bevel" stroke-opacity="1" stroke-width="1" transform="matrix(0.434028,0,0,0.434028,171.111,82.2222)"><text fill="#000000" fill-opacity="1" font-family="Liberation Sans" font-size="40" font-style="normal" font-weight="400" stroke="none" textLength="22" x="-28.4531" xml:space="preserve" y="17.9219">2</text></g><defs><clipPath id="clip94"><path d="M-10,-2 L80,-2 L80,72 L-10,72 L-10,-2 z"/></clipPath></defs><g clip-path="url(#clip94)" fill="none" opacity="1" stroke="#000000" stroke-linecap="butt" stroke-linejoin="miter" stroke-miterlimit="2" stroke-opacity="1" stroke-width="0.726583" transform="matrix(2.22222,0,0,2.22222,22.2222,4.44444)"><path d="M0,0 L70,0 L70,70 L0,70 L0,0 z" fill-rule="evenodd" vector-effect="none"/></g></g></svg>
