<?xml version="1.0" encoding="UTF-8"?><svg width="52.9167mm" height="43.9208mm" viewBox="0 0 200 166" xmlns="http://www.w3.org/2000/svg" xmlns:xlink="http://www.w3.org/1999/xlink"><g fill="none" stroke="black" stroke-width="1" fill-rule="evenodd" stroke-linecap="square" stroke-linejoin="bevel"><g clip-path="none" fill="none" opacity="1" stroke="none" stroke-opacity="0" transform="matrix(1,0,0,1,0,0)"><path d="M0,0 L200,0 L200,166 L0,166 L0,0 z" fill-rule="evenodd" vector-effect="none"/></g><defs><clipPath id="clip6"><path d="M0,0 L10,0 L10,10 L0,10 L0,0 z"/></clipPath></defs><g clip-path="url(#clip6)" fill="#b3b3b3" fill-opacity="1" opacity="1" stroke="none" stroke-opacity="0" transform="matrix(-2.22222,0,0,2.22222,22.2222,113.333)"><path d="M0.5,3.5 L3.5,3.5 L3.5,6.5 L0.5,6.5 L0.5,3.5 z" fill-rule="evenodd" vector-effect="none"/></g><defs><clipPath id="clip8"><path d="M0,0 L10,0 L10,10 L0,10 L0,0 z"/></clipPath></defs><g clip-path="url(#clip8)" fill="#000000" fill-opacity="1" opacity="1" stroke="none" stroke-opacity="0" transform="matrix(-2.22222,0,0,2.22222,22.2222,113.333)"><path d="M3,4 L3,6 L1,6 L1,4 L3,4 M4,3 L0,3 L0,7 L4,7 L4,3" fill-rule="nonzero" vector-effect="none"/></g><defs><clipPath id="clip28"><path d="M0,0 L10,0 L10,10 L0,10 L0,0 z"/></clipPath></defs><g clip-path="url(#clip28)" fill="#b3b3b3" fill-opacity="1" opacity="1" stroke="none" stroke-opacity="0" transform="matrix(2.22222,0,0,2.22222,177.778,80)"><path d="M0.5,3.5 L3.5,3.5 L3.5,6.5 L0.5,6.5 L0.5,3.5 z" fill-rule="evenodd" vector-effect="none"/></g><defs><clipPath id="clip30"><path d="M0,0 L10,0 L10,10 L0,10 L0,0 z"/></clipPath></defs><g clip-path="url(#clip30)" fill="#000000" fill-opacity="1" opacity="1" stroke="none" stroke-opacity="0" transform="matrix(2.22222,0,0,2.22222,177.778,80)"><path d="M3,4 L3,6 L1,6 L1,4 L3,4 M4,3 L0,3 L0,7 L4,7 L4,3" fill-rule="nonzero" vector-effect="none"/></g><defs><clipPath id="clip50"><path d="M0,0 L10,0 L10,10 L0,10 L0,0 z"/></clipPath></defs><g clip-path="url(#clip50)" fill="#b3b3b3" fill-opacity="1" opacity="1" stroke="none" stroke-opacity="0" transform="matrix(-2.22222,0,0,2.22222,22.2222,35.5556)"><path d="M0.5,3.5 L3.5,3.5 L3.5,6.5 L0.5,6.5 L0.5,3.5 z" fill-rule="evenodd" vector-effect="none"/></g><defs><clipPath id="clip52"><path d="M0,0 L10,0 L10,10 L0,10 L0,0 z"/></clipPath></defs><g clip-path="url(#clip52)" fill="#000000" fill-opacity="1" opacity="1" stroke="none" stroke-opacity="0" transform="matrix(-2.22222,0,0,2.22222,22.2222,35.5556)"><path d="M3,4 L3,6 L1,6 L1,4 L3,4 M4,3 L0,3 L0,7 L4,7 L4,3" fill-rule="nonzero" vector-effect="none"/></g><defs><clipPath id="clip69"><path d="M-10,-2 L80,-2 L80,73 L-10,73 L-10,-2 z"/></clipPath></defs><g clip-path="url(#clip69)" fill="#ffffff" fill-opacity="1" opacity="1" stroke="none" stroke-opacity="0" transform="matrix(2.22222,0,0,2.22222,22.2222,4.44444)"><path d="M0,0 L70,0 L70,71 L0,71 L0,0 z" fill-rule="evenodd" vector-effect="none"/></g><defs><clipPath id="clip73"><path d="M340,397 L410,397 L410,468 L340,468 L340,397 z"/></clipPath></defs><g clip-path="url(#clip73)" fill="#efefef" fill-opacity="1" opacity="1" stroke="#efefef" stroke-linecap="square" stroke-linejoin="bevel" stroke-opacity="1" stroke-width="1" transform="matrix(2.22222,0,0,2.22222,-733.333,-877.778)"><path d="M368,443 L381,443 L385,439 L385,425 L381,422 L368,422 L364,425 L364,439 L368,443 z" fill-rule="evenodd" vector-effect="none"/></g><defs><clipPath id="clip74"><path d="M340,397 L410,397 L410,468 L340,468 L340,397 z"/></clipPath></defs><g clip-path="url(#clip74)" fill="#efefef" fill-opacity="1" opacity="1" stroke="#000000" stroke-linecap="square" stroke-linejoin="bevel" stroke-opacity="1" stroke-width="1" transform="matrix(2.22222,0,0,2.22222,-732.222,-876.667)"><polyline fill="none" points="381,437 381,439" vector-effect="none"/></g><defs><clipPath id="clip75"><path d="M340,397 L410,397 L410,468 L340,468 L340,397 z"/></clipPath></defs><g clip-path="url(#clip75)" fill="#efefef" fill-opacity="1" opacity="1" stroke="#000000" stroke-linecap="square" stroke-linejoin="bevel" stroke-opacity="1" stroke-width="1" transform="matrix(2.22222,0,0,2.22222,-732.222,-876.667)"><polyline fill="none" points="381,439 369,439" vector-effect="none"/></g><defs><clipPath id="clip76"><path d="M340,397 L410,397 L410,468 L340,468 L340,397 z"/></clipPath></defs><g clip-path="url(#clip76)" fill="#efefef" fill-opacity="1" opacity="1" stroke="#000000" stroke-linecap="square" stroke-linejoin="bevel" stroke-opacity="1" stroke-width="1" transform="matrix(2.22222,0,0,2.22222,-732.222,-876.667)"><polyline fill="none" points="369,439 375,433" vector-effect="none"/></g><defs><clipPath id="clip77"><path d="M340,397 L410,397 L410,468 L340,468 L340,397 z"/></clipPath></defs><g clip-path="url(#clip77)" fill="#efefef" fill-opacity="1" opacity="1" stroke="#000000" stroke-linecap="square" stroke-linejoin="bevel" stroke-opacity="1" stroke-width="1" transform="matrix(2.22222,0,0,2.22222,-732.222,-876.667)"><polyline fill="none" points="375,433 369,426" vector-effect="none"/></g><defs><clipPath id="clip78"><path d="M340,397 L410,397 L410,468 L340,468 L340,397 z"/></clipPath></defs><g clip-path="url(#clip78)" fill="#efefef" fill-opacity="1" opacity="1" stroke="#000000" stroke-linecap="square" stroke-linejoin="bevel" stroke-opacity="1" stroke-width="1" transform="matrix(2.22222,0,0,2.22222,-732.222,-876.667)"><polyline fill="none" points="369,426 381,426" vector-effect="none"/></g><defs><clipPath id="clip79"><path d="M340,397 L410,397 L410,468 L340,468 L340,397 z"/></clipPath></defs><g clip-path="url(#clip79)" fill="#efefef" fill-opacity="1" opacity="1" stroke="#000000" stroke-linecap="square" stroke-linejoin="bevel" stroke-opacity="1" stroke-width="1" transform="matrix(2.22222,0,0,2.22222,-732.222,-876.667)"><polyline fill="none" points="381,426 381,428" vector-effect="none"/></g><defs><clipPath id="clip81"><path d="M-15,-92 L343,-92 L343,272 L-15,272 L-15,-92 z"/></clipPath></defs><g clip-path="url(#clip81)" fill="#efefef" fill-opacity="1" opacity="1" stroke="#000000" stroke-linecap="square" stroke-linejoin="bevel" stroke-opacity="1" stroke-width="1" transform="matrix(0.434028,0,0,0.434028,28.8889,44.4444)"><text fill="#000000" fill-opacity="1" font-family="Liberation Sans" font-size="40" font-style="normal" font-weight="400" stroke="none" textLength="53" x="0" xml:space="preserve" y="17.9219">In1</text></g><defs><clipPath id="clip84"><path d="M-15,-271 L343,-271 L343,93 L-15,93 L-15,-271 z"/></clipPath></defs><g clip-path="url(#clip84)" fill="#efefef" fill-opacity="1" opacity="1" stroke="#000000" stroke-linecap="square" stroke-linejoin="bevel" stroke-opacity="1" stroke-width="1" transform="matrix(0.434028,0,0,0.434028,28.8889,122.222)"><text fill="#000000" fill-opacity="1" font-family="Liberation Sans" font-size="40" font-style="normal" font-weight="400" stroke="none" textLength="53" x="0" xml:space="preserve" y="17.9219">In2</text></g><defs><clipPath id="clip87"><path d="M-343,-195 L15,-195 L15,169 L-343,169 L-343,-195 z"/></clipPath></defs><g clip-path="url(#clip87)" fill="#efefef" fill-opacity="1" opacity="1" stroke="#000000" stroke-linecap="square" stroke-linejoin="bevel" stroke-opacity="1" stroke-width="1" transform="matrix(0.434028,0,0,0.434028,171.111,88.8889)"><text fill="#000000" fill-opacity="1" font-family="Liberation Sans" font-size="40" font-style="normal" font-weight="400" stroke="none" textLength="63" x="-82.5" xml:space="preserve" y="17.9219">Out</text></g><defs><clipPath id="clip93"><path d="M-10,-2 L80,-2 L80,73 L-10,73 L-10,-2 z"/></clipPath></defs><g clip-path="url(#clip93)" fill="none" opacity="1" stroke="#000000" stroke-linecap="butt" stroke-linejoin="miter" stroke-miterlimit="2" stroke-opacity="1" stroke-width="0.726583" transform="matrix(2.22222,0,0,2.22222,22.2222,4.44444)"><path d="M0,0 L70,0 L70,71 L0,71 L0,0 z" fill-rule="evenodd" vector-effect="none"/></g></g></svg>
