<?xml version="1.0" encoding="UTF-8"?><svg width="52.9167mm" height="43.9208mm" viewBox="0 0 200 166" xmlns="http://www.w3.org/2000/svg" xmlns:xlink="http://www.w3.org/1999/xlink"><g fill="none" stroke="black" stroke-width="1" fill-rule="evenodd" stroke-linecap="square" stroke-linejoin="bevel"><g clip-path="none" fill="none" opacity="1" stroke="none" stroke-opacity="0" transform="matrix(1,0,0,1,0,0)"><path d="M0,0 L200,0 L200,166 L0,166 L0,0 z" fill-rule="evenodd" vector-effect="none"/></g><defs><clipPath id="clip6"><path d="M0,0 L10,0 L10,10 L0,10 L0,0 z"/></clipPath></defs><g clip-path="url(#clip6)" fill="#b3b3b3" fill-opacity="1" opacity="1" stroke="none" stroke-opacity="0" transform="matrix(2.22222,0,0,2.22222,177.778,80)"><path d="M0.5,3.5 L3.5,3.5 L3.5,6.5 L0.5,6.5 L0.5,3.5 z" fill-rule="evenodd" vector-effect="none"/></g><defs><clipPath id="clip8"><path d="M0,0 L10,0 L10,10 L0,10 L0,0 z"/></clipPath></defs><g clip-path="url(#clip8)" fill="#000000" fill-opacity="1" opacity="1" stroke="none" stroke-opacity="0" transform="matrix(2.22222,0,0,2.22222,177.778,80)"><path d="M3,4 L3,6 L1,6 L1,4 L3,4 M4,3 L0,3 L0,7 L4,7 L4,3" fill-rule="nonzero" vector-effect="none"/></g><defs><clipPath id="clip28"><path d="M0,0 L10,0 L10,10 L0,10 L0,0 z"/></clipPath></defs><g clip-path="url(#clip28)" fill="#b3b3b3" fill-opacity="1" opacity="1" stroke="none" stroke-opacity="0" transform="matrix(-2.22222,0,0,2.22222,22.2222,113.333)"><path d="M0.5,3.5 L3.5,3.5 L3.5,6.5 L0.5,6.5 L0.5,3.5 z" fill-rule="evenodd" vector-effect="none"/></g><defs><clipPath id="clip30"><path d="M0,0 L10,0 L10,10 L0,10 L0,0 z"/></clipPath></defs><g clip-path="url(#clip30)" fill="#000000" fill-opacity="1" opacity="1" stroke="none" stroke-opacity="0" transform="matrix(-2.22222,0,0,2.22222,22.2222,113.333)"><path d="M3,4 L3,6 L1,6 L1,4 L3,4 M4,3 L0,3 L0,7 L4,7 L4,3" fill-rule="nonzero" vector-effect="none"/></g><defs><clipPath id="clip50"><path d="M0,0 L10,0 L10,10 L0,10 L0,0 z"/></clipPath></defs><g clip-path="url(#clip50)" fill="#b3b3b3" fill-opacity="1" opacity="1" stroke="none" stroke-opacity="0" transform="matrix(-2.22222,0,0,2.22222,22.2222,35.5556)"><path d="M0.5,3.5 L3.5,3.5 L3.5,6.5 L0.5,6.5 L0.5,3.5 z" fill-rule="evenodd" vector-effect="none"/></g><defs><clipPath id="clip52"><path d="M0,0 L10,0 L10,10 L0,10 L0,0 z"/></clipPath></defs><g clip-path="url(#clip52)" fill="#000000" fill-opacity="1" opacity="1" stroke="none" stroke-opacity="0" transform="matrix(-2.22222,0,0,2.22222,22.2222,35.5556)"><path d="M3,4 L3,6 L1,6 L1,4 L3,4 M4,3 L0,3 L0,7 L4,7 L4,3" fill-rule="nonzero" vector-effect="none"/></g><defs><clipPath id="clip69"><path d="M-10,-2 L80,-2 L80,73 L-10,73 L-10,-2 z"/></clipPath></defs><g clip-path="url(#clip69)" fill="#ffffff" fill-opacity="1" opacity="1" stroke="none" stroke-opacity="0" transform="matrix(2.22222,0,0,2.22222,22.2222,4.44444)"><path d="M0,0 L70,0 L70,71 L0,71 L0,0 z" fill-rule="evenodd" vector-effect="none"/></g><defs><clipPath id="clip73"><path d="M340,507 L410,507 L410,578 L340,578 L340,507 z"/></clipPath></defs><g clip-path="url(#clip73)" fill="#efefef" fill-opacity="1" opacity="1" stroke="#efefef" stroke-linecap="square" stroke-linejoin="bevel" stroke-opacity="1" stroke-width="1" transform="matrix(2.22222,0,0,2.22222,-733.333,-1122.22)"><path d="M363,542 L363,540 L364,538 L365,536 L366,534 L368,532 L370,531 L372,531 L375,530 L377,531 L379,531 L381,532 L383,534 L384,536 L385,538 L386,540 L386,542 L386,544 L385,546 L384,548 L383,550 L381,552 L379,553 L377,553 L375,554 L372,553 L370,553 L368,552 L366,550 L365,548 L364,546 L363,544 L363,542 z" fill-rule="evenodd" vector-effect="none"/></g><defs><clipPath id="clip74"><path d="M340,507 L410,507 L410,578 L340,578 L340,507 z"/></clipPath></defs><g clip-path="url(#clip74)" fill="#efefef" fill-opacity="1" opacity="1" stroke="#000000" stroke-linecap="square" stroke-linejoin="bevel" stroke-opacity="1" stroke-width="1" transform="matrix(2.22222,0,0,2.22222,-732.222,-1121.11)"><polyline fill="none" points="364,543 365,540" vector-effect="none"/></g><defs><clipPath id="clip75"><path d="M340,507 L410,507 L410,578 L340,578 L340,507 z"/></clipPath></defs><g clip-path="url(#clip75)" fill="#efefef" fill-opacity="1" opacity="1" stroke="#000000" stroke-linecap="square" stroke-linejoin="bevel" stroke-opacity="1" stroke-width="1" transform="matrix(2.22222,0,0,2.22222,-732.222,-1121.11)"><polyline fill="none" points="365,540 365,538" vector-effect="none"/></g><defs><clipPath id="clip76"><path d="M340,507 L410,507 L410,578 L340,578 L340,507 z"/></clipPath></defs><g clip-path="url(#clip76)" fill="#efefef" fill-opacity="1" opacity="1" stroke="#000000" stroke-linecap="square" stroke-linejoin="bevel" stroke-opacity="1" stroke-width="1" transform="matrix(2.22222,0,0,2.22222,-732.222,-1121.11)"><polyline fill="none" points="365,538 366,536" vector-effect="none"/></g><defs><clipPath id="clip77"><path d="M340,507 L410,507 L410,578 L340,578 L340,507 z"/></clipPath></defs><g clip-path="url(#clip77)" fill="#efefef" fill-opacity="1" opacity="1" stroke="#000000" stroke-linecap="square" stroke-linejoin="bevel" stroke-opacity="1" stroke-width="1" transform="matrix(2.22222,0,0,2.22222,-732.222,-1121.11)"><polyline fill="none" points="366,536 367,535" vector-effect="none"/></g><defs><clipPath id="clip78"><path d="M340,507 L410,507 L410,578 L340,578 L340,507 z"/></clipPath></defs><g clip-path="url(#clip78)" fill="#efefef" fill-opacity="1" opacity="1" stroke="#000000" stroke-linecap="square" stroke-linejoin="bevel" stroke-opacity="1" stroke-width="1" transform="matrix(2.22222,0,0,2.22222,-732.222,-1121.11)"><polyline fill="none" points="367,535 369,533" vector-effect="none"/></g><defs><clipPath id="clip79"><path d="M340,507 L410,507 L410,578 L340,578 L340,507 z"/></clipPath></defs><g clip-path="url(#clip79)" fill="#efefef" fill-opacity="1" opacity="1" stroke="#000000" stroke-linecap="square" stroke-linejoin="bevel" stroke-opacity="1" stroke-width="1" transform="matrix(2.22222,0,0,2.22222,-732.222,-1121.11)"><polyline fill="none" points="369,533 371,532" vector-effect="none"/></g><defs><clipPath id="clip80"><path d="M340,507 L410,507 L410,578 L340,578 L340,507 z"/></clipPath></defs><g clip-path="url(#clip80)" fill="#efefef" fill-opacity="1" opacity="1" stroke="#000000" stroke-linecap="square" stroke-linejoin="bevel" stroke-opacity="1" stroke-width="1" transform="matrix(2.22222,0,0,2.22222,-732.222,-1121.11)"><polyline fill="none" points="371,532 373,532" vector-effect="none"/></g><defs><clipPath id="clip81"><path d="M340,507 L410,507 L410,578 L340,578 L340,507 z"/></clipPath></defs><g clip-path="url(#clip81)" fill="#efefef" fill-opacity="1" opacity="1" stroke="#000000" stroke-linecap="square" stroke-linejoin="bevel" stroke-opacity="1" stroke-width="1" transform="matrix(2.22222,0,0,2.22222,-732.222,-1121.11)"><polyline fill="none" points="373,532 375,532" vector-effect="none"/></g><defs><clipPath id="clip82"><path d="M340,507 L410,507 L410,578 L340,578 L340,507 z"/></clipPath></defs><g clip-path="url(#clip82)" fill="#efefef" fill-opacity="1" opacity="1" stroke="#000000" stroke-linecap="square" stroke-linejoin="bevel" stroke-opacity="1" stroke-width="1" transform="matrix(2.22222,0,0,2.22222,-732.222,-1121.11)"><polyline fill="none" points="375,532 377,532" vector-effect="none"/></g><defs><clipPath id="clip83"><path d="M340,507 L410,507 L410,578 L340,578 L340,507 z"/></clipPath></defs><g clip-path="url(#clip83)" fill="#efefef" fill-opacity="1" opacity="1" stroke="#000000" stroke-linecap="square" stroke-linejoin="bevel" stroke-opacity="1" stroke-width="1" transform="matrix(2.22222,0,0,2.22222,-732.222,-1121.11)"><polyline fill="none" points="377,532 379,532" vector-effect="none"/></g><defs><clipPath id="clip84"><path d="M340,507 L410,507 L410,578 L340,578 L340,507 z"/></clipPath></defs><g clip-path="url(#clip84)" fill="#efefef" fill-opacity="1" opacity="1" stroke="#000000" stroke-linecap="square" stroke-linejoin="bevel" stroke-opacity="1" stroke-width="1" transform="matrix(2.22222,0,0,2.22222,-732.222,-1121.11)"><polyline fill="none" points="379,532 381,533" vector-effect="none"/></g><defs><clipPath id="clip85"><path d="M340,507 L410,507 L410,578 L340,578 L340,507 z"/></clipPath></defs><g clip-path="url(#clip85)" fill="#efefef" fill-opacity="1" opacity="1" stroke="#000000" stroke-linecap="square" stroke-linejoin="bevel" stroke-opacity="1" stroke-width="1" transform="matrix(2.22222,0,0,2.22222,-732.222,-1121.11)"><polyline fill="none" points="381,533 383,535" vector-effect="none"/></g><defs><clipPath id="clip86"><path d="M340,507 L410,507 L410,578 L340,578 L340,507 z"/></clipPath></defs><g clip-path="url(#clip86)" fill="#efefef" fill-opacity="1" opacity="1" stroke="#000000" stroke-linecap="square" stroke-linejoin="bevel" stroke-opacity="1" stroke-width="1" transform="matrix(2.22222,0,0,2.22222,-732.222,-1121.11)"><polyline fill="none" points="383,535 384,536" vector-effect="none"/></g><defs><clipPath id="clip87"><path d="M340,507 L410,507 L410,578 L340,578 L340,507 z"/></clipPath></defs><g clip-path="url(#clip87)" fill="#efefef" fill-opacity="1" opacity="1" stroke="#000000" stroke-linecap="square" stroke-linejoin="bevel" stroke-opacity="1" stroke-width="1" transform="matrix(2.22222,0,0,2.22222,-732.222,-1121.11)"><polyline fill="none" points="384,536 385,538" vector-effect="none"/></g><defs><clipPath id="clip88"><path d="M340,507 L410,507 L410,578 L340,578 L340,507 z"/></clipPath></defs><g clip-path="url(#clip88)" fill="#efefef" fill-opacity="1" opacity="1" stroke="#000000" stroke-linecap="square" stroke-linejoin="bevel" stroke-opacity="1" stroke-width="1" transform="matrix(2.22222,0,0,2.22222,-732.222,-1121.11)"><polyline fill="none" points="385,538 385,540" vector-effect="none"/></g><defs><clipPath id="clip89"><path d="M340,507 L410,507 L410,578 L340,578 L340,507 z"/></clipPath></defs><g clip-path="url(#clip89)" fill="#efefef" fill-opacity="1" opacity="1" stroke="#000000" stroke-linecap="square" stroke-linejoin="bevel" stroke-opacity="1" stroke-width="1" transform="matrix(2.22222,0,0,2.22222,-732.222,-1121.11)"><polyline fill="none" points="385,540 386,543" vector-effect="none"/></g><defs><clipPath id="clip90"><path d="M340,507 L410,507 L410,578 L340,578 L340,507 z"/></clipPath></defs><g clip-path="url(#clip90)" fill="#efefef" fill-opacity="1" opacity="1" stroke="#000000" stroke-linecap="square" stroke-linejoin="bevel" stroke-opacity="1" stroke-width="1" transform="matrix(2.22222,0,0,2.22222,-732.222,-1121.11)"><polyline fill="none" points="386,543 385,545" vector-effect="none"/></g><defs><clipPath id="clip91"><path d="M340,507 L410,507 L410,578 L340,578 L340,507 z"/></clipPath></defs><g clip-path="url(#clip91)" fill="#efefef" fill-opacity="1" opacity="1" stroke="#000000" stroke-linecap="square" stroke-linejoin="bevel" stroke-opacity="1" stroke-width="1" transform="matrix(2.22222,0,0,2.22222,-732.222,-1121.11)"><polyline fill="none" points="385,545 385,547" vector-effect="none"/></g><defs><clipPath id="clip92"><path d="M340,507 L410,507 L410,578 L340,578 L340,507 z"/></clipPath></defs><g clip-path="url(#clip92)" fill="#efefef" fill-opacity="1" opacity="1" stroke="#000000" stroke-linecap="square" stroke-linejoin="bevel" stroke-opacity="1" stroke-width="1" transform="matrix(2.22222,0,0,2.22222,-732.222,-1121.11)"><polyline fill="none" points="385,547 384,549" vector-effect="none"/></g><defs><clipPath id="clip93"><path d="M340,507 L410,507 L410,578 L340,578 L340,507 z"/></clipPath></defs><g clip-path="url(#clip93)" fill="#efefef" fill-opacity="1" opacity="1" stroke="#000000" stroke-linecap="square" stroke-linejoin="bevel" stroke-opacity="1" stroke-width="1" transform="matrix(2.22222,0,0,2.22222,-732.222,-1121.11)"><polyline fill="none" points="384,549 383,550" vector-effect="none"/></g><defs><clipPath id="clip94"><path d="M340,507 L410,507 L410,578 L340,578 L340,507 z"/></clipPath></defs><g clip-path="url(#clip94)" fill="#efefef" fill-opacity="1" opacity="1" stroke="#000000" stroke-linecap="square" stroke-linejoin="bevel" stroke-opacity="1" stroke-width="1" transform="matrix(2.22222,0,0,2.22222,-732.222,-1121.11)"><polyline fill="none" points="383,550 381,552" vector-effect="none"/></g><defs><clipPath id="clip95"><path d="M340,507 L410,507 L410,578 L340,578 L340,507 z"/></clipPath></defs><g clip-path="url(#clip95)" fill="#efefef" fill-opacity="1" opacity="1" stroke="#000000" stroke-linecap="square" stroke-linejoin="bevel" stroke-opacity="1" stroke-width="1" transform="matrix(2.22222,0,0,2.22222,-732.222,-1121.11)"><polyline fill="none" points="381,552 379,553" vector-effect="none"/></g><defs><clipPath id="clip96"><path d="M340,507 L410,507 L410,578 L340,578 L340,507 z"/></clipPath></defs><g clip-path="url(#clip96)" fill="#efefef" fill-opacity="1" opacity="1" stroke="#000000" stroke-linecap="square" stroke-linejoin="bevel" stroke-opacity="1" stroke-width="1" transform="matrix(2.22222,0,0,2.22222,-732.222,-1121.11)"><polyline fill="none" points="379,553 377,553" vector-effect="none"/></g><defs><clipPath id="clip97"><path d="M340,507 L410,507 L410,578 L340,578 L340,507 z"/></clipPath></defs><g clip-path="url(#clip97)" fill="#efefef" fill-opacity="1" opacity="1" stroke="#000000" stroke-linecap="square" stroke-linejoin="bevel" stroke-opacity="1" stroke-width="1" transform="matrix(2.22222,0,0,2.22222,-732.222,-1121.11)"><polyline fill="none" points="377,553 375,553" vector-effect="none"/></g><defs><clipPath id="clip98"><path d="M340,507 L410,507 L410,578 L340,578 L340,507 z"/></clipPath></defs><g clip-path="url(#clip98)" fill="#efefef" fill-opacity="1" opacity="1" stroke="#000000" stroke-linecap="square" stroke-linejoin="bevel" stroke-opacity="1" stroke-width="1" transform="matrix(2.22222,0,0,2.22222,-732.222,-1121.11)"><polyline fill="none" points="375,553 373,553" vector-effect="none"/></g><defs><clipPath id="clip99"><path d="M340,507 L410,507 L410,578 L340,578 L340,507 z"/></clipPath></defs><g clip-path="url(#clip99)" fill="#efefef" fill-opacity="1" opacity="1" stroke="#000000" stroke-linecap="square" stroke-linejoin="bevel" stroke-opacity="1" stroke-width="1" transform="matrix(2.22222,0,0,2.22222,-732.222,-1121.11)"><polyline fill="none" points="373,553 371,553" vector-effect="none"/></g><defs><clipPath id="clip100"><path d="M340,507 L410,507 L410,578 L340,578 L340,507 z"/></clipPath></defs><g clip-path="url(#clip100)" fill="#efefef" fill-opacity="1" opacity="1" stroke="#000000" stroke-linecap="square" stroke-linejoin="bevel" stroke-opacity="1" stroke-width="1" transform="matrix(2.22222,0,0,2.22222,-732.222,-1121.11)"><polyline fill="none" points="371,553 369,552" vector-effect="none"/></g><defs><clipPath id="clip101"><path d="M340,507 L410,507 L410,578 L340,578 L340,507 z"/></clipPath></defs><g clip-path="url(#clip101)" fill="#efefef" fill-opacity="1" opacity="1" stroke="#000000" stroke-linecap="square" stroke-linejoin="bevel" stroke-opacity="1" stroke-width="1" transform="matrix(2.22222,0,0,2.22222,-732.222,-1121.11)"><polyline fill="none" points="369,552 367,550" vector-effect="none"/></g><defs><clipPath id="clip102"><path d="M340,507 L410,507 L410,578 L340,578 L340,507 z"/></clipPath></defs><g clip-path="url(#clip102)" fill="#efefef" fill-opacity="1" opacity="1" stroke="#000000" stroke-linecap="square" stroke-linejoin="bevel" stroke-opacity="1" stroke-width="1" transform="matrix(2.22222,0,0,2.22222,-732.222,-1121.11)"><polyline fill="none" points="367,550 366,549" vector-effect="none"/></g><defs><clipPath id="clip103"><path d="M340,507 L410,507 L410,578 L340,578 L340,507 z"/></clipPath></defs><g clip-path="url(#clip103)" fill="#efefef" fill-opacity="1" opacity="1" stroke="#000000" stroke-linecap="square" stroke-linejoin="bevel" stroke-opacity="1" stroke-width="1" transform="matrix(2.22222,0,0,2.22222,-732.222,-1121.11)"><polyline fill="none" points="366,549 365,547" vector-effect="none"/></g><defs><clipPath id="clip104"><path d="M340,507 L410,507 L410,578 L340,578 L340,507 z"/></clipPath></defs><g clip-path="url(#clip104)" fill="#efefef" fill-opacity="1" opacity="1" stroke="#000000" stroke-linecap="square" stroke-linejoin="bevel" stroke-opacity="1" stroke-width="1" transform="matrix(2.22222,0,0,2.22222,-732.222,-1121.11)"><polyline fill="none" points="365,547 365,545" vector-effect="none"/></g><defs><clipPath id="clip105"><path d="M340,507 L410,507 L410,578 L340,578 L340,507 z"/></clipPath></defs><g clip-path="url(#clip105)" fill="#efefef" fill-opacity="1" opacity="1" stroke="#000000" stroke-linecap="square" stroke-linejoin="bevel" stroke-opacity="1" stroke-width="1" transform="matrix(2.22222,0,0,2.22222,-732.222,-1121.11)"><polyline fill="none" points="365,545 364,543" vector-effect="none"/></g><defs><clipPath id="clip106"><path d="M340,507 L410,507 L410,578 L340,578 L340,507 z"/></clipPath></defs><g clip-path="url(#clip106)" fill="#efefef" fill-opacity="1" opacity="1" stroke="#000000" stroke-linecap="square" stroke-linejoin="bevel" stroke-opacity="1" stroke-width="1" transform="matrix(2.22222,0,0,2.22222,-732.222,-1121.11)"><polyline fill="none" points="367,550 383,535" vector-effect="none"/></g><defs><clipPath id="clip107"><path d="M340,507 L410,507 L410,578 L340,578 L340,507 z"/></clipPath></defs><g clip-path="url(#clip107)" fill="#efefef" fill-opacity="1" opacity="1" stroke="#000000" stroke-linecap="square" stroke-linejoin="bevel" stroke-opacity="1" stroke-width="1" transform="matrix(2.22222,0,0,2.22222,-732.222,-1121.11)"><polyline fill="none" points="367,535 383,550" vector-effect="none"/></g><defs><clipPath id="clip109"><path d="M-15,-92 L343,-92 L343,272 L-15,272 L-15,-92 z"/></clipPath></defs><g clip-path="url(#clip109)" fill="#efefef" fill-opacity="1" opacity="1" stroke="#000000" stroke-linecap="square" stroke-linejoin="bevel" stroke-opacity="1" stroke-width="1" transform="matrix(0.434028,0,0,0.434028,28.8889,44.4444)"><text fill="#000000" fill-opacity="1" font-family="Liberation Sans" font-size="40" font-style="normal" font-weight="400" stroke="none" textLength="31" x="0" xml:space="preserve" y="17.9219">In</text></g><defs><clipPath id="clip112"><path d="M-15,-271 L343,-271 L343,93 L-15,93 L-15,-271 z"/></clipPath></defs><g clip-path="url(#clip112)" fill="#efefef" fill-opacity="1" opacity="1" stroke="#000000" stroke-linecap="square" stroke-linejoin="bevel" stroke-opacity="1" stroke-width="1" transform="matrix(0.434028,0,0,0.434028,28.8889,122.222)"><text fill="#000000" fill-opacity="1" font-family="Liberation Sans" font-size="40" font-style="normal" font-weight="400" stroke="none" textLength="53" x="0" xml:space="preserve" y="17.9219">LO</text></g><defs><clipPath id="clip115"><path d="M-343,-195 L15,-195 L15,169 L-343,169 L-343,-195 z"/></clipPath></defs><g clip-path="url(#clip115)" fill="#efefef" fill-opacity="1" opacity="1" stroke="#000000" stroke-linecap="square" stroke-linejoin="bevel" stroke-opacity="1" stroke-width="1" transform="matrix(0.434028,0,0,0.434028,171.111,88.8889)"><text fill="#000000" fill-opacity="1" font-family="Liberation Sans" font-size="40" font-style="normal" font-weight="400" stroke="none" textLength="63" x="-82.5" xml:space="preserve" y="17.9219">Out</text></g><defs><clipPath id="clip121"><path d="M-10,-2 L80,-2 L80,73 L-10,73 L-10,-2 z"/></clipPath></defs><g clip-path="url(#clip121)" fill="none" opacity="1" stroke="#000000" stroke-linecap="butt" stroke-linejoin="miter" stroke-miterlimit="2" stroke-opacity="1" stroke-width="0.726583" transform="matrix(2.22222,0,0,2.22222,22.2222,4.44444)"><path d="M0,0 L70,0 L70,71 L0,71 L0,0 z" fill-rule="evenodd" vector-effect="none"/></g></g></svg>
