<?xml version="1.0" encoding="UTF-8"?><svg width="52.9167mm" height="45.2437mm" viewBox="0 0 200 171" xmlns="http://www.w3.org/2000/svg" xmlns:xlink="http://www.w3.org/1999/xlink"><g fill="none" stroke="black" stroke-width="1" fill-rule="evenodd" stroke-linecap="square" stroke-linejoin="bevel"><g clip-path="none" fill="none" opacity="1" stroke="none" stroke-opacity="0" transform="matrix(1,0,0,1,0,0)"><path d="M0,0 L200,0 L200,171 L0,171 L0,0 z" fill-rule="evenodd" vector-effect="none"/></g><defs><clipPath id="clip6"><path d="M0,0 L10,0 L10,10 L0,10 L0,0 z"/></clipPath></defs><g clip-path="url(#clip6)" fill="#b3b3b3" fill-opacity="1" opacity="1" stroke="none" stroke-opacity="0" transform="matrix(2.22222,0,0,2.22222,177.778,82.2222)"><path d="M0.5,3.5 L3.5,3.5 L3.5,6.5 L0.5,6.5 L0.5,3.5 z" fill-rule="evenodd" vector-effect="none"/></g><defs><clipPath id="clip8"><path d="M0,0 L10,0 L10,10 L0,10 L0,0 z"/></clipPath></defs><g clip-path="url(#clip8)" fill="#000000" fill-opacity="1" opacity="1" stroke="none" stroke-opacity="0" transform="matrix(2.22222,0,0,2.22222,177.778,82.2222)"><path d="M3,4 L3,6 L1,6 L1,4 L3,4 M4,3 L0,3 L0,7 L4,7 L4,3" fill-rule="nonzero" vector-effect="none"/></g><defs><clipPath id="clip28"><path d="M0,0 L10,0 L10,10 L0,10 L0,0 z"/></clipPath></defs><g clip-path="url(#clip28)" fill="#b3b3b3" fill-opacity="1" opacity="1" stroke="none" stroke-opacity="0" transform="matrix(-2.22222,0,0,2.22222,22.2222,115.556)"><path d="M0.5,3.5 L3.5,3.5 L3.5,6.5 L0.5,6.5 L0.5,3.5 z" fill-rule="evenodd" vector-effect="none"/></g><defs><clipPath id="clip30"><path d="M0,0 L10,0 L10,10 L0,10 L0,0 z"/></clipPath></defs><g clip-path="url(#clip30)" fill="#000000" fill-opacity="1" opacity="1" stroke="none" stroke-opacity="0" transform="matrix(-2.22222,0,0,2.22222,22.2222,115.556)"><path d="M3,4 L3,6 L1,6 L1,4 L3,4 M4,3 L0,3 L0,7 L4,7 L4,3" fill-rule="nonzero" vector-effect="none"/></g><defs><clipPath id="clip50"><path d="M0,0 L10,0 L10,10 L0,10 L0,0 z"/></clipPath></defs><g clip-path="url(#clip50)" fill="#b3b3b3" fill-opacity="1" opacity="1" stroke="none" stroke-opacity="0" transform="matrix(-2.22222,0,0,2.22222,22.2222,37.7778)"><path d="M0.5,3.5 L3.5,3.5 L3.5,6.5 L0.5,6.5 L0.5,3.5 z" fill-rule="evenodd" vector-effect="none"/></g><defs><clipPath id="clip52"><path d="M0,0 L10,0 L10,10 L0,10 L0,0 z"/></clipPath></defs><g clip-path="url(#clip52)" fill="#000000" fill-opacity="1" opacity="1" stroke="none" stroke-opacity="0" transform="matrix(-2.22222,0,0,2.22222,22.2222,37.7778)"><path d="M3,4 L3,6 L1,6 L1,4 L3,4 M4,3 L0,3 L0,7 L4,7 L4,3" fill-rule="nonzero" vector-effect="none"/></g><defs><clipPath id="clip69"><path d="M-10,-2 L80,-2 L80,75 L-10,75 L-10,-2 z"/></clipPath></defs><g clip-path="url(#clip69)" fill="#ffffff" fill-opacity="1" opacity="1" stroke="none" stroke-opacity="0" transform="matrix(2.22222,0,0,2.22222,22.2222,4.44444)"><path d="M0,0 L70,0 L70,73 L0,73 L0,0 z" fill-rule="evenodd" vector-effect="none"/></g><defs><clipPath id="clip73"><path d="M104,46 L174,46 L174,119 L104,119 L104,46 z"/></clipPath></defs><g clip-path="url(#clip73)" fill="none" opacity="1" stroke="#000000" stroke-linecap="butt" stroke-linejoin="miter" stroke-miterlimit="2" stroke-opacity="1" stroke-width="0.45" transform="matrix(2.22222,0,0,2.22222,-210,-96.6667)"><polyline fill="none" points="142,71 143,72" vector-effect="none"/></g><defs><clipPath id="clip74"><path d="M104,46 L174,46 L174,119 L104,119 L104,46 z"/></clipPath></defs><g clip-path="url(#clip74)" fill="none" opacity="1" stroke="#000000" stroke-linecap="butt" stroke-linejoin="miter" stroke-miterlimit="2" stroke-opacity="1" stroke-width="0.45" transform="matrix(2.22222,0,0,2.22222,-210,-96.6667)"><polyline fill="none" points="143,72 144,73" vector-effect="none"/></g><defs><clipPath id="clip75"><path d="M104,46 L174,46 L174,119 L104,119 L104,46 z"/></clipPath></defs><g clip-path="url(#clip75)" fill="none" opacity="1" stroke="#000000" stroke-linecap="butt" stroke-linejoin="miter" stroke-miterlimit="2" stroke-opacity="1" stroke-width="0.45" transform="matrix(2.22222,0,0,2.22222,-210,-96.6667)"><polyline fill="none" points="144,73 145,74" vector-effect="none"/></g><defs><clipPath id="clip76"><path d="M104,46 L174,46 L174,119 L104,119 L104,46 z"/></clipPath></defs><g clip-path="url(#clip76)" fill="none" opacity="1" stroke="#000000" stroke-linecap="butt" stroke-linejoin="miter" stroke-miterlimit="2" stroke-opacity="1" stroke-width="0.45" transform="matrix(2.22222,0,0,2.22222,-210,-96.6667)"><polyline fill="none" points="145,74 146,75" vector-effect="none"/></g><defs><clipPath id="clip77"><path d="M104,46 L174,46 L174,119 L104,119 L104,46 z"/></clipPath></defs><g clip-path="url(#clip77)" fill="none" opacity="1" stroke="#000000" stroke-linecap="butt" stroke-linejoin="miter" stroke-miterlimit="2" stroke-opacity="1" stroke-width="0.45" transform="matrix(2.22222,0,0,2.22222,-210,-96.6667)"><polyline fill="none" points="146,75 147,76" vector-effect="none"/></g><defs><clipPath id="clip78"><path d="M104,46 L174,46 L174,119 L104,119 L104,46 z"/></clipPath></defs><g clip-path="url(#clip78)" fill="none" opacity="1" stroke="#000000" stroke-linecap="butt" stroke-linejoin="miter" stroke-miterlimit="2" stroke-opacity="1" stroke-width="0.45" transform="matrix(2.22222,0,0,2.22222,-210,-96.6667)"><polyline fill="none" points="147,76 147,77" vector-effect="none"/></g><defs><clipPath id="clip79"><path d="M104,46 L174,46 L174,119 L104,119 L104,46 z"/></clipPath></defs><g clip-path="url(#clip79)" fill="none" opacity="1" stroke="#000000" stroke-linecap="butt" stroke-linejoin="miter" stroke-miterlimit="2" stroke-opacity="1" stroke-width="0.45" transform="matrix(2.22222,0,0,2.22222,-210,-96.6667)"><polyline fill="none" points="147,77 148,78" vector-effect="none"/></g><defs><clipPath id="clip80"><path d="M104,46 L174,46 L174,119 L104,119 L104,46 z"/></clipPath></defs><g clip-path="url(#clip80)" fill="none" opacity="1" stroke="#000000" stroke-linecap="butt" stroke-linejoin="miter" stroke-miterlimit="2" stroke-opacity="1" stroke-width="0.45" transform="matrix(2.22222,0,0,2.22222,-210,-96.6667)"><polyline fill="none" points="148,78 148,80" vector-effect="none"/></g><defs><clipPath id="clip81"><path d="M104,46 L174,46 L174,119 L104,119 L104,46 z"/></clipPath></defs><g clip-path="url(#clip81)" fill="none" opacity="1" stroke="#000000" stroke-linecap="butt" stroke-linejoin="miter" stroke-miterlimit="2" stroke-opacity="1" stroke-width="0.45" transform="matrix(2.22222,0,0,2.22222,-210,-96.6667)"><polyline fill="none" points="148,80 148,81" vector-effect="none"/></g><defs><clipPath id="clip82"><path d="M104,46 L174,46 L174,119 L104,119 L104,46 z"/></clipPath></defs><g clip-path="url(#clip82)" fill="none" opacity="1" stroke="#000000" stroke-linecap="butt" stroke-linejoin="miter" stroke-miterlimit="2" stroke-opacity="1" stroke-width="0.45" transform="matrix(2.22222,0,0,2.22222,-210,-96.6667)"><polyline fill="none" points="148,81 148,82" vector-effect="none"/></g><defs><clipPath id="clip83"><path d="M104,46 L174,46 L174,119 L104,119 L104,46 z"/></clipPath></defs><g clip-path="url(#clip83)" fill="none" opacity="1" stroke="#000000" stroke-linecap="butt" stroke-linejoin="miter" stroke-miterlimit="2" stroke-opacity="1" stroke-width="0.45" transform="matrix(2.22222,0,0,2.22222,-210,-96.6667)"><polyline fill="none" points="148,82 149,84" vector-effect="none"/></g><defs><clipPath id="clip84"><path d="M104,46 L174,46 L174,119 L104,119 L104,46 z"/></clipPath></defs><g clip-path="url(#clip84)" fill="none" opacity="1" stroke="#000000" stroke-linecap="butt" stroke-linejoin="miter" stroke-miterlimit="2" stroke-opacity="1" stroke-width="0.45" transform="matrix(2.22222,0,0,2.22222,-210,-96.6667)"><polyline fill="none" points="149,84 148,85" vector-effect="none"/></g><defs><clipPath id="clip85"><path d="M104,46 L174,46 L174,119 L104,119 L104,46 z"/></clipPath></defs><g clip-path="url(#clip85)" fill="none" opacity="1" stroke="#000000" stroke-linecap="butt" stroke-linejoin="miter" stroke-miterlimit="2" stroke-opacity="1" stroke-width="0.45" transform="matrix(2.22222,0,0,2.22222,-210,-96.6667)"><polyline fill="none" points="148,85 148,86" vector-effect="none"/></g><defs><clipPath id="clip86"><path d="M104,46 L174,46 L174,119 L104,119 L104,46 z"/></clipPath></defs><g clip-path="url(#clip86)" fill="none" opacity="1" stroke="#000000" stroke-linecap="butt" stroke-linejoin="miter" stroke-miterlimit="2" stroke-opacity="1" stroke-width="0.45" transform="matrix(2.22222,0,0,2.22222,-210,-96.6667)"><polyline fill="none" points="148,86 148,88" vector-effect="none"/></g><defs><clipPath id="clip87"><path d="M104,46 L174,46 L174,119 L104,119 L104,46 z"/></clipPath></defs><g clip-path="url(#clip87)" fill="none" opacity="1" stroke="#000000" stroke-linecap="butt" stroke-linejoin="miter" stroke-miterlimit="2" stroke-opacity="1" stroke-width="0.45" transform="matrix(2.22222,0,0,2.22222,-210,-96.6667)"><polyline fill="none" points="148,88 147,89" vector-effect="none"/></g><defs><clipPath id="clip88"><path d="M104,46 L174,46 L174,119 L104,119 L104,46 z"/></clipPath></defs><g clip-path="url(#clip88)" fill="none" opacity="1" stroke="#000000" stroke-linecap="butt" stroke-linejoin="miter" stroke-miterlimit="2" stroke-opacity="1" stroke-width="0.45" transform="matrix(2.22222,0,0,2.22222,-210,-96.6667)"><polyline fill="none" points="147,89 147,90" vector-effect="none"/></g><defs><clipPath id="clip89"><path d="M104,46 L174,46 L174,119 L104,119 L104,46 z"/></clipPath></defs><g clip-path="url(#clip89)" fill="none" opacity="1" stroke="#000000" stroke-linecap="butt" stroke-linejoin="miter" stroke-miterlimit="2" stroke-opacity="1" stroke-width="0.45" transform="matrix(2.22222,0,0,2.22222,-210,-96.6667)"><polyline fill="none" points="147,90 146,91" vector-effect="none"/></g><defs><clipPath id="clip90"><path d="M104,46 L174,46 L174,119 L104,119 L104,46 z"/></clipPath></defs><g clip-path="url(#clip90)" fill="none" opacity="1" stroke="#000000" stroke-linecap="butt" stroke-linejoin="miter" stroke-miterlimit="2" stroke-opacity="1" stroke-width="0.45" transform="matrix(2.22222,0,0,2.22222,-210,-96.6667)"><polyline fill="none" points="146,91 145,92" vector-effect="none"/></g><defs><clipPath id="clip91"><path d="M104,46 L174,46 L174,119 L104,119 L104,46 z"/></clipPath></defs><g clip-path="url(#clip91)" fill="none" opacity="1" stroke="#000000" stroke-linecap="butt" stroke-linejoin="miter" stroke-miterlimit="2" stroke-opacity="1" stroke-width="0.45" transform="matrix(2.22222,0,0,2.22222,-210,-96.6667)"><polyline fill="none" points="145,92 144,93" vector-effect="none"/></g><defs><clipPath id="clip92"><path d="M104,46 L174,46 L174,119 L104,119 L104,46 z"/></clipPath></defs><g clip-path="url(#clip92)" fill="none" opacity="1" stroke="#000000" stroke-linecap="butt" stroke-linejoin="miter" stroke-miterlimit="2" stroke-opacity="1" stroke-width="0.45" transform="matrix(2.22222,0,0,2.22222,-210,-96.6667)"><polyline fill="none" points="144,93 143,94" vector-effect="none"/></g><defs><clipPath id="clip93"><path d="M104,46 L174,46 L174,119 L104,119 L104,46 z"/></clipPath></defs><g clip-path="url(#clip93)" fill="none" opacity="1" stroke="#000000" stroke-linecap="butt" stroke-linejoin="miter" stroke-miterlimit="2" stroke-opacity="1" stroke-width="0.45" transform="matrix(2.22222,0,0,2.22222,-210,-96.6667)"><polyline fill="none" points="143,94 142,95" vector-effect="none"/></g><defs><clipPath id="clip94"><path d="M105,46 L175,46 L175,119 L105,119 L105,46 z"/></clipPath></defs><g clip-path="url(#clip94)" fill="#000000" fill-opacity="1" opacity="1" stroke="#000000" stroke-linecap="butt" stroke-linejoin="miter" stroke-miterlimit="2" stroke-opacity="1" stroke-width="0.45" transform="matrix(2.22222,0,0,2.22222,-211.111,-97.7778)"><path d="M144,91 L142,95 L146,94 L146,92 L144,91 z" fill-rule="evenodd" vector-effect="none"/></g><defs><clipPath id="clip95"><path d="M104,46 L174,46 L174,119 L104,119 L104,46 z"/></clipPath></defs><g clip-path="url(#clip95)" fill="#000000" fill-opacity="1" opacity="1" stroke="#000000" stroke-linecap="butt" stroke-linejoin="miter" stroke-miterlimit="2" stroke-opacity="1" stroke-width="0.45" transform="matrix(2.22222,0,0,2.22222,-210,-96.6667)"><polyline fill="none" points="144,91 142,95" vector-effect="none"/></g><defs><clipPath id="clip96"><path d="M104,46 L174,46 L174,119 L104,119 L104,46 z"/></clipPath></defs><g clip-path="url(#clip96)" fill="#000000" fill-opacity="1" opacity="1" stroke="#000000" stroke-linecap="butt" stroke-linejoin="miter" stroke-miterlimit="2" stroke-opacity="1" stroke-width="0.45" transform="matrix(2.22222,0,0,2.22222,-210,-96.6667)"><polyline fill="none" points="142,95 146,94" vector-effect="none"/></g><defs><clipPath id="clip97"><path d="M104,46 L174,46 L174,119 L104,119 L104,46 z"/></clipPath></defs><g clip-path="url(#clip97)" fill="#000000" fill-opacity="1" opacity="1" stroke="#000000" stroke-linecap="butt" stroke-linejoin="miter" stroke-miterlimit="2" stroke-opacity="1" stroke-width="0.45" transform="matrix(2.22222,0,0,2.22222,-210,-96.6667)"><polyline fill="none" points="146,94 146,92" vector-effect="none"/></g><defs><clipPath id="clip98"><path d="M104,46 L174,46 L174,119 L104,119 L104,46 z"/></clipPath></defs><g clip-path="url(#clip98)" fill="#000000" fill-opacity="1" opacity="1" stroke="#000000" stroke-linecap="butt" stroke-linejoin="miter" stroke-miterlimit="2" stroke-opacity="1" stroke-width="0.45" transform="matrix(2.22222,0,0,2.22222,-210,-96.6667)"><polyline fill="none" points="146,92 144,91" vector-effect="none"/></g><defs><clipPath id="clip99"><path d="M104,46 L174,46 L174,119 L104,119 L104,46 z"/></clipPath></defs><g clip-path="url(#clip99)" fill="#000000" fill-opacity="1" opacity="1" stroke="#000000" stroke-linecap="butt" stroke-linejoin="miter" stroke-miterlimit="2" stroke-opacity="1" stroke-width="0.45" transform="matrix(2.22222,0,0,2.22222,-210,-96.6667)"><polyline fill="none" points="153,82 153,84" vector-effect="none"/></g><defs><clipPath id="clip100"><path d="M104,46 L174,46 L174,119 L104,119 L104,46 z"/></clipPath></defs><g clip-path="url(#clip100)" fill="#000000" fill-opacity="1" opacity="1" stroke="#000000" stroke-linecap="butt" stroke-linejoin="miter" stroke-miterlimit="2" stroke-opacity="1" stroke-width="0.45" transform="matrix(2.22222,0,0,2.22222,-210,-96.6667)"><polyline fill="none" points="153,84 152,86" vector-effect="none"/></g><defs><clipPath id="clip101"><path d="M104,46 L174,46 L174,119 L104,119 L104,46 z"/></clipPath></defs><g clip-path="url(#clip101)" fill="#000000" fill-opacity="1" opacity="1" stroke="#000000" stroke-linecap="butt" stroke-linejoin="miter" stroke-miterlimit="2" stroke-opacity="1" stroke-width="0.45" transform="matrix(2.22222,0,0,2.22222,-210,-96.6667)"><polyline fill="none" points="152,86 152,87" vector-effect="none"/></g><defs><clipPath id="clip102"><path d="M104,46 L174,46 L174,119 L104,119 L104,46 z"/></clipPath></defs><g clip-path="url(#clip102)" fill="#000000" fill-opacity="1" opacity="1" stroke="#000000" stroke-linecap="butt" stroke-linejoin="miter" stroke-miterlimit="2" stroke-opacity="1" stroke-width="0.45" transform="matrix(2.22222,0,0,2.22222,-210,-96.6667)"><polyline fill="none" points="152,87 152,89" vector-effect="none"/></g><defs><clipPath id="clip103"><path d="M104,46 L174,46 L174,119 L104,119 L104,46 z"/></clipPath></defs><g clip-path="url(#clip103)" fill="#000000" fill-opacity="1" opacity="1" stroke="#000000" stroke-linecap="butt" stroke-linejoin="miter" stroke-miterlimit="2" stroke-opacity="1" stroke-width="0.45" transform="matrix(2.22222,0,0,2.22222,-210,-96.6667)"><polyline fill="none" points="152,89 151,90" vector-effect="none"/></g><defs><clipPath id="clip104"><path d="M104,46 L174,46 L174,119 L104,119 L104,46 z"/></clipPath></defs><g clip-path="url(#clip104)" fill="#000000" fill-opacity="1" opacity="1" stroke="#000000" stroke-linecap="butt" stroke-linejoin="miter" stroke-miterlimit="2" stroke-opacity="1" stroke-width="0.45" transform="matrix(2.22222,0,0,2.22222,-210,-96.6667)"><polyline fill="none" points="151,90 150,92" vector-effect="none"/></g><defs><clipPath id="clip105"><path d="M104,46 L174,46 L174,119 L104,119 L104,46 z"/></clipPath></defs><g clip-path="url(#clip105)" fill="#000000" fill-opacity="1" opacity="1" stroke="#000000" stroke-linecap="butt" stroke-linejoin="miter" stroke-miterlimit="2" stroke-opacity="1" stroke-width="0.45" transform="matrix(2.22222,0,0,2.22222,-210,-96.6667)"><polyline fill="none" points="150,92 149,93" vector-effect="none"/></g><defs><clipPath id="clip106"><path d="M104,46 L174,46 L174,119 L104,119 L104,46 z"/></clipPath></defs><g clip-path="url(#clip106)" fill="#000000" fill-opacity="1" opacity="1" stroke="#000000" stroke-linecap="butt" stroke-linejoin="miter" stroke-miterlimit="2" stroke-opacity="1" stroke-width="0.45" transform="matrix(2.22222,0,0,2.22222,-210,-96.6667)"><polyline fill="none" points="149,93 148,94" vector-effect="none"/></g><defs><clipPath id="clip107"><path d="M104,46 L174,46 L174,119 L104,119 L104,46 z"/></clipPath></defs><g clip-path="url(#clip107)" fill="#000000" fill-opacity="1" opacity="1" stroke="#000000" stroke-linecap="butt" stroke-linejoin="miter" stroke-miterlimit="2" stroke-opacity="1" stroke-width="0.45" transform="matrix(2.22222,0,0,2.22222,-210,-96.6667)"><polyline fill="none" points="148,94 147,95" vector-effect="none"/></g><defs><clipPath id="clip108"><path d="M104,46 L174,46 L174,119 L104,119 L104,46 z"/></clipPath></defs><g clip-path="url(#clip108)" fill="#000000" fill-opacity="1" opacity="1" stroke="#000000" stroke-linecap="butt" stroke-linejoin="miter" stroke-miterlimit="2" stroke-opacity="1" stroke-width="0.45" transform="matrix(2.22222,0,0,2.22222,-210,-96.6667)"><polyline fill="none" points="147,95 146,96" vector-effect="none"/></g><defs><clipPath id="clip109"><path d="M104,46 L174,46 L174,119 L104,119 L104,46 z"/></clipPath></defs><g clip-path="url(#clip109)" fill="#000000" fill-opacity="1" opacity="1" stroke="#000000" stroke-linecap="butt" stroke-linejoin="miter" stroke-miterlimit="2" stroke-opacity="1" stroke-width="0.45" transform="matrix(2.22222,0,0,2.22222,-210,-96.6667)"><polyline fill="none" points="146,96 144,97" vector-effect="none"/></g><defs><clipPath id="clip110"><path d="M104,46 L174,46 L174,119 L104,119 L104,46 z"/></clipPath></defs><g clip-path="url(#clip110)" fill="#000000" fill-opacity="1" opacity="1" stroke="#000000" stroke-linecap="butt" stroke-linejoin="miter" stroke-miterlimit="2" stroke-opacity="1" stroke-width="0.45" transform="matrix(2.22222,0,0,2.22222,-210,-96.6667)"><polyline fill="none" points="144,97 143,98" vector-effect="none"/></g><defs><clipPath id="clip111"><path d="M104,46 L174,46 L174,119 L104,119 L104,46 z"/></clipPath></defs><g clip-path="url(#clip111)" fill="#000000" fill-opacity="1" opacity="1" stroke="#000000" stroke-linecap="butt" stroke-linejoin="miter" stroke-miterlimit="2" stroke-opacity="1" stroke-width="0.45" transform="matrix(2.22222,0,0,2.22222,-210,-96.6667)"><polyline fill="none" points="143,98 141,98" vector-effect="none"/></g><defs><clipPath id="clip112"><path d="M104,46 L174,46 L174,119 L104,119 L104,46 z"/></clipPath></defs><g clip-path="url(#clip112)" fill="#000000" fill-opacity="1" opacity="1" stroke="#000000" stroke-linecap="butt" stroke-linejoin="miter" stroke-miterlimit="2" stroke-opacity="1" stroke-width="0.45" transform="matrix(2.22222,0,0,2.22222,-210,-96.6667)"><polyline fill="none" points="141,98 140,99" vector-effect="none"/></g><defs><clipPath id="clip113"><path d="M104,46 L174,46 L174,119 L104,119 L104,46 z"/></clipPath></defs><g clip-path="url(#clip113)" fill="#000000" fill-opacity="1" opacity="1" stroke="#000000" stroke-linecap="butt" stroke-linejoin="miter" stroke-miterlimit="2" stroke-opacity="1" stroke-width="0.45" transform="matrix(2.22222,0,0,2.22222,-210,-96.6667)"><polyline fill="none" points="140,99 138,99" vector-effect="none"/></g><defs><clipPath id="clip114"><path d="M104,46 L174,46 L174,119 L104,119 L104,46 z"/></clipPath></defs><g clip-path="url(#clip114)" fill="#000000" fill-opacity="1" opacity="1" stroke="#000000" stroke-linecap="butt" stroke-linejoin="miter" stroke-miterlimit="2" stroke-opacity="1" stroke-width="0.45" transform="matrix(2.22222,0,0,2.22222,-210,-96.6667)"><polyline fill="none" points="138,99 137,99" vector-effect="none"/></g><defs><clipPath id="clip115"><path d="M104,46 L174,46 L174,119 L104,119 L104,46 z"/></clipPath></defs><g clip-path="url(#clip115)" fill="#000000" fill-opacity="1" opacity="1" stroke="#000000" stroke-linecap="butt" stroke-linejoin="miter" stroke-miterlimit="2" stroke-opacity="1" stroke-width="0.45" transform="matrix(2.22222,0,0,2.22222,-210,-96.6667)"><polyline fill="none" points="137,99 135,99" vector-effect="none"/></g><defs><clipPath id="clip116"><path d="M104,46 L174,46 L174,119 L104,119 L104,46 z"/></clipPath></defs><g clip-path="url(#clip116)" fill="#000000" fill-opacity="1" opacity="1" stroke="#000000" stroke-linecap="butt" stroke-linejoin="miter" stroke-miterlimit="2" stroke-opacity="1" stroke-width="0.45" transform="matrix(2.22222,0,0,2.22222,-210,-96.6667)"><polyline fill="none" points="135,99 134,99" vector-effect="none"/></g><defs><clipPath id="clip117"><path d="M104,46 L174,46 L174,119 L104,119 L104,46 z"/></clipPath></defs><g clip-path="url(#clip117)" fill="#000000" fill-opacity="1" opacity="1" stroke="#000000" stroke-linecap="butt" stroke-linejoin="miter" stroke-miterlimit="2" stroke-opacity="1" stroke-width="0.45" transform="matrix(2.22222,0,0,2.22222,-210,-96.6667)"><polyline fill="none" points="134,99 132,98" vector-effect="none"/></g><defs><clipPath id="clip118"><path d="M104,46 L174,46 L174,119 L104,119 L104,46 z"/></clipPath></defs><g clip-path="url(#clip118)" fill="#000000" fill-opacity="1" opacity="1" stroke="#000000" stroke-linecap="butt" stroke-linejoin="miter" stroke-miterlimit="2" stroke-opacity="1" stroke-width="0.45" transform="matrix(2.22222,0,0,2.22222,-210,-96.6667)"><polyline fill="none" points="132,98 131,98" vector-effect="none"/></g><defs><clipPath id="clip119"><path d="M104,46 L174,46 L174,119 L104,119 L104,46 z"/></clipPath></defs><g clip-path="url(#clip119)" fill="#000000" fill-opacity="1" opacity="1" stroke="#000000" stroke-linecap="butt" stroke-linejoin="miter" stroke-miterlimit="2" stroke-opacity="1" stroke-width="0.45" transform="matrix(2.22222,0,0,2.22222,-210,-96.6667)"><polyline fill="none" points="131,98 129,97" vector-effect="none"/></g><defs><clipPath id="clip120"><path d="M104,46 L174,46 L174,119 L104,119 L104,46 z"/></clipPath></defs><g clip-path="url(#clip120)" fill="#000000" fill-opacity="1" opacity="1" stroke="#000000" stroke-linecap="butt" stroke-linejoin="miter" stroke-miterlimit="2" stroke-opacity="1" stroke-width="0.45" transform="matrix(2.22222,0,0,2.22222,-210,-96.6667)"><polyline fill="none" points="129,97 128,96" vector-effect="none"/></g><defs><clipPath id="clip121"><path d="M104,46 L174,46 L174,119 L104,119 L104,46 z"/></clipPath></defs><g clip-path="url(#clip121)" fill="#000000" fill-opacity="1" opacity="1" stroke="#000000" stroke-linecap="butt" stroke-linejoin="miter" stroke-miterlimit="2" stroke-opacity="1" stroke-width="0.45" transform="matrix(2.22222,0,0,2.22222,-210,-96.6667)"><polyline fill="none" points="128,96 127,95" vector-effect="none"/></g><defs><clipPath id="clip122"><path d="M104,46 L174,46 L174,119 L104,119 L104,46 z"/></clipPath></defs><g clip-path="url(#clip122)" fill="#000000" fill-opacity="1" opacity="1" stroke="#000000" stroke-linecap="butt" stroke-linejoin="miter" stroke-miterlimit="2" stroke-opacity="1" stroke-width="0.45" transform="matrix(2.22222,0,0,2.22222,-210,-96.6667)"><polyline fill="none" points="127,95 126,94" vector-effect="none"/></g><defs><clipPath id="clip123"><path d="M104,46 L174,46 L174,119 L104,119 L104,46 z"/></clipPath></defs><g clip-path="url(#clip123)" fill="#000000" fill-opacity="1" opacity="1" stroke="#000000" stroke-linecap="butt" stroke-linejoin="miter" stroke-miterlimit="2" stroke-opacity="1" stroke-width="0.45" transform="matrix(2.22222,0,0,2.22222,-210,-96.6667)"><polyline fill="none" points="126,94 124,93" vector-effect="none"/></g><defs><clipPath id="clip124"><path d="M104,46 L174,46 L174,119 L104,119 L104,46 z"/></clipPath></defs><g clip-path="url(#clip124)" fill="#000000" fill-opacity="1" opacity="1" stroke="#000000" stroke-linecap="butt" stroke-linejoin="miter" stroke-miterlimit="2" stroke-opacity="1" stroke-width="0.45" transform="matrix(2.22222,0,0,2.22222,-210,-96.6667)"><polyline fill="none" points="124,93 124,92" vector-effect="none"/></g><defs><clipPath id="clip125"><path d="M104,46 L174,46 L174,119 L104,119 L104,46 z"/></clipPath></defs><g clip-path="url(#clip125)" fill="#000000" fill-opacity="1" opacity="1" stroke="#000000" stroke-linecap="butt" stroke-linejoin="miter" stroke-miterlimit="2" stroke-opacity="1" stroke-width="0.45" transform="matrix(2.22222,0,0,2.22222,-210,-96.6667)"><polyline fill="none" points="124,92 123,90" vector-effect="none"/></g><defs><clipPath id="clip126"><path d="M104,46 L174,46 L174,119 L104,119 L104,46 z"/></clipPath></defs><g clip-path="url(#clip126)" fill="#000000" fill-opacity="1" opacity="1" stroke="#000000" stroke-linecap="butt" stroke-linejoin="miter" stroke-miterlimit="2" stroke-opacity="1" stroke-width="0.45" transform="matrix(2.22222,0,0,2.22222,-210,-96.6667)"><polyline fill="none" points="123,90 122,89" vector-effect="none"/></g><defs><clipPath id="clip127"><path d="M104,46 L174,46 L174,119 L104,119 L104,46 z"/></clipPath></defs><g clip-path="url(#clip127)" fill="#000000" fill-opacity="1" opacity="1" stroke="#000000" stroke-linecap="butt" stroke-linejoin="miter" stroke-miterlimit="2" stroke-opacity="1" stroke-width="0.45" transform="matrix(2.22222,0,0,2.22222,-210,-96.6667)"><polyline fill="none" points="122,89 122,87" vector-effect="none"/></g><defs><clipPath id="clip128"><path d="M104,46 L174,46 L174,119 L104,119 L104,46 z"/></clipPath></defs><g clip-path="url(#clip128)" fill="#000000" fill-opacity="1" opacity="1" stroke="#000000" stroke-linecap="butt" stroke-linejoin="miter" stroke-miterlimit="2" stroke-opacity="1" stroke-width="0.45" transform="matrix(2.22222,0,0,2.22222,-210,-96.6667)"><polyline fill="none" points="122,87 121,86" vector-effect="none"/></g><defs><clipPath id="clip129"><path d="M104,46 L174,46 L174,119 L104,119 L104,46 z"/></clipPath></defs><g clip-path="url(#clip129)" fill="#000000" fill-opacity="1" opacity="1" stroke="#000000" stroke-linecap="butt" stroke-linejoin="miter" stroke-miterlimit="2" stroke-opacity="1" stroke-width="0.45" transform="matrix(2.22222,0,0,2.22222,-210,-96.6667)"><polyline fill="none" points="121,86 121,84" vector-effect="none"/></g><defs><clipPath id="clip130"><path d="M104,46 L174,46 L174,119 L104,119 L104,46 z"/></clipPath></defs><g clip-path="url(#clip130)" fill="#000000" fill-opacity="1" opacity="1" stroke="#000000" stroke-linecap="butt" stroke-linejoin="miter" stroke-miterlimit="2" stroke-opacity="1" stroke-width="0.45" transform="matrix(2.22222,0,0,2.22222,-210,-96.6667)"><polyline fill="none" points="121,84 121,82" vector-effect="none"/></g><defs><clipPath id="clip131"><path d="M104,46 L174,46 L174,119 L104,119 L104,46 z"/></clipPath></defs><g clip-path="url(#clip131)" fill="#000000" fill-opacity="1" opacity="1" stroke="#000000" stroke-linecap="butt" stroke-linejoin="miter" stroke-miterlimit="2" stroke-opacity="1" stroke-width="0.45" transform="matrix(2.22222,0,0,2.22222,-210,-96.6667)"><polyline fill="none" points="121,82 121,81" vector-effect="none"/></g><defs><clipPath id="clip132"><path d="M104,46 L174,46 L174,119 L104,119 L104,46 z"/></clipPath></defs><g clip-path="url(#clip132)" fill="#000000" fill-opacity="1" opacity="1" stroke="#000000" stroke-linecap="butt" stroke-linejoin="miter" stroke-miterlimit="2" stroke-opacity="1" stroke-width="0.45" transform="matrix(2.22222,0,0,2.22222,-210,-96.6667)"><polyline fill="none" points="121,81 121,79" vector-effect="none"/></g><defs><clipPath id="clip133"><path d="M104,46 L174,46 L174,119 L104,119 L104,46 z"/></clipPath></defs><g clip-path="url(#clip133)" fill="#000000" fill-opacity="1" opacity="1" stroke="#000000" stroke-linecap="butt" stroke-linejoin="miter" stroke-miterlimit="2" stroke-opacity="1" stroke-width="0.45" transform="matrix(2.22222,0,0,2.22222,-210,-96.6667)"><polyline fill="none" points="121,79 122,78" vector-effect="none"/></g><defs><clipPath id="clip134"><path d="M104,46 L174,46 L174,119 L104,119 L104,46 z"/></clipPath></defs><g clip-path="url(#clip134)" fill="#000000" fill-opacity="1" opacity="1" stroke="#000000" stroke-linecap="butt" stroke-linejoin="miter" stroke-miterlimit="2" stroke-opacity="1" stroke-width="0.45" transform="matrix(2.22222,0,0,2.22222,-210,-96.6667)"><polyline fill="none" points="122,78 122,76" vector-effect="none"/></g><defs><clipPath id="clip135"><path d="M104,46 L174,46 L174,119 L104,119 L104,46 z"/></clipPath></defs><g clip-path="url(#clip135)" fill="#000000" fill-opacity="1" opacity="1" stroke="#000000" stroke-linecap="butt" stroke-linejoin="miter" stroke-miterlimit="2" stroke-opacity="1" stroke-width="0.45" transform="matrix(2.22222,0,0,2.22222,-210,-96.6667)"><polyline fill="none" points="122,76 123,75" vector-effect="none"/></g><defs><clipPath id="clip136"><path d="M104,46 L174,46 L174,119 L104,119 L104,46 z"/></clipPath></defs><g clip-path="url(#clip136)" fill="#000000" fill-opacity="1" opacity="1" stroke="#000000" stroke-linecap="butt" stroke-linejoin="miter" stroke-miterlimit="2" stroke-opacity="1" stroke-width="0.45" transform="matrix(2.22222,0,0,2.22222,-210,-96.6667)"><polyline fill="none" points="123,75 124,73" vector-effect="none"/></g><defs><clipPath id="clip137"><path d="M104,46 L174,46 L174,119 L104,119 L104,46 z"/></clipPath></defs><g clip-path="url(#clip137)" fill="#000000" fill-opacity="1" opacity="1" stroke="#000000" stroke-linecap="butt" stroke-linejoin="miter" stroke-miterlimit="2" stroke-opacity="1" stroke-width="0.45" transform="matrix(2.22222,0,0,2.22222,-210,-96.6667)"><polyline fill="none" points="124,73 124,72" vector-effect="none"/></g><defs><clipPath id="clip138"><path d="M104,46 L174,46 L174,119 L104,119 L104,46 z"/></clipPath></defs><g clip-path="url(#clip138)" fill="#000000" fill-opacity="1" opacity="1" stroke="#000000" stroke-linecap="butt" stroke-linejoin="miter" stroke-miterlimit="2" stroke-opacity="1" stroke-width="0.45" transform="matrix(2.22222,0,0,2.22222,-210,-96.6667)"><polyline fill="none" points="124,72 126,71" vector-effect="none"/></g><defs><clipPath id="clip139"><path d="M104,46 L174,46 L174,119 L104,119 L104,46 z"/></clipPath></defs><g clip-path="url(#clip139)" fill="#000000" fill-opacity="1" opacity="1" stroke="#000000" stroke-linecap="butt" stroke-linejoin="miter" stroke-miterlimit="2" stroke-opacity="1" stroke-width="0.45" transform="matrix(2.22222,0,0,2.22222,-210,-96.6667)"><polyline fill="none" points="126,71 127,70" vector-effect="none"/></g><defs><clipPath id="clip140"><path d="M104,46 L174,46 L174,119 L104,119 L104,46 z"/></clipPath></defs><g clip-path="url(#clip140)" fill="#000000" fill-opacity="1" opacity="1" stroke="#000000" stroke-linecap="butt" stroke-linejoin="miter" stroke-miterlimit="2" stroke-opacity="1" stroke-width="0.45" transform="matrix(2.22222,0,0,2.22222,-210,-96.6667)"><polyline fill="none" points="127,70 128,69" vector-effect="none"/></g><defs><clipPath id="clip141"><path d="M104,46 L174,46 L174,119 L104,119 L104,46 z"/></clipPath></defs><g clip-path="url(#clip141)" fill="#000000" fill-opacity="1" opacity="1" stroke="#000000" stroke-linecap="butt" stroke-linejoin="miter" stroke-miterlimit="2" stroke-opacity="1" stroke-width="0.45" transform="matrix(2.22222,0,0,2.22222,-210,-96.6667)"><polyline fill="none" points="128,69 129,68" vector-effect="none"/></g><defs><clipPath id="clip142"><path d="M104,46 L174,46 L174,119 L104,119 L104,46 z"/></clipPath></defs><g clip-path="url(#clip142)" fill="#000000" fill-opacity="1" opacity="1" stroke="#000000" stroke-linecap="butt" stroke-linejoin="miter" stroke-miterlimit="2" stroke-opacity="1" stroke-width="0.45" transform="matrix(2.22222,0,0,2.22222,-210,-96.6667)"><polyline fill="none" points="129,68 131,67" vector-effect="none"/></g><defs><clipPath id="clip143"><path d="M104,46 L174,46 L174,119 L104,119 L104,46 z"/></clipPath></defs><g clip-path="url(#clip143)" fill="#000000" fill-opacity="1" opacity="1" stroke="#000000" stroke-linecap="butt" stroke-linejoin="miter" stroke-miterlimit="2" stroke-opacity="1" stroke-width="0.45" transform="matrix(2.22222,0,0,2.22222,-210,-96.6667)"><polyline fill="none" points="131,67 132,67" vector-effect="none"/></g><defs><clipPath id="clip144"><path d="M104,46 L174,46 L174,119 L104,119 L104,46 z"/></clipPath></defs><g clip-path="url(#clip144)" fill="#000000" fill-opacity="1" opacity="1" stroke="#000000" stroke-linecap="butt" stroke-linejoin="miter" stroke-miterlimit="2" stroke-opacity="1" stroke-width="0.45" transform="matrix(2.22222,0,0,2.22222,-210,-96.6667)"><polyline fill="none" points="132,67 134,66" vector-effect="none"/></g><defs><clipPath id="clip145"><path d="M104,46 L174,46 L174,119 L104,119 L104,46 z"/></clipPath></defs><g clip-path="url(#clip145)" fill="#000000" fill-opacity="1" opacity="1" stroke="#000000" stroke-linecap="butt" stroke-linejoin="miter" stroke-miterlimit="2" stroke-opacity="1" stroke-width="0.45" transform="matrix(2.22222,0,0,2.22222,-210,-96.6667)"><polyline fill="none" points="134,66 135,66" vector-effect="none"/></g><defs><clipPath id="clip146"><path d="M104,46 L174,46 L174,119 L104,119 L104,46 z"/></clipPath></defs><g clip-path="url(#clip146)" fill="#000000" fill-opacity="1" opacity="1" stroke="#000000" stroke-linecap="butt" stroke-linejoin="miter" stroke-miterlimit="2" stroke-opacity="1" stroke-width="0.45" transform="matrix(2.22222,0,0,2.22222,-210,-96.6667)"><polyline fill="none" points="135,66 137,66" vector-effect="none"/></g><defs><clipPath id="clip147"><path d="M104,46 L174,46 L174,119 L104,119 L104,46 z"/></clipPath></defs><g clip-path="url(#clip147)" fill="#000000" fill-opacity="1" opacity="1" stroke="#000000" stroke-linecap="butt" stroke-linejoin="miter" stroke-miterlimit="2" stroke-opacity="1" stroke-width="0.45" transform="matrix(2.22222,0,0,2.22222,-210,-96.6667)"><polyline fill="none" points="137,66 138,66" vector-effect="none"/></g><defs><clipPath id="clip148"><path d="M104,46 L174,46 L174,119 L104,119 L104,46 z"/></clipPath></defs><g clip-path="url(#clip148)" fill="#000000" fill-opacity="1" opacity="1" stroke="#000000" stroke-linecap="butt" stroke-linejoin="miter" stroke-miterlimit="2" stroke-opacity="1" stroke-width="0.45" transform="matrix(2.22222,0,0,2.22222,-210,-96.6667)"><polyline fill="none" points="138,66 140,66" vector-effect="none"/></g><defs><clipPath id="clip149"><path d="M104,46 L174,46 L174,119 L104,119 L104,46 z"/></clipPath></defs><g clip-path="url(#clip149)" fill="#000000" fill-opacity="1" opacity="1" stroke="#000000" stroke-linecap="butt" stroke-linejoin="miter" stroke-miterlimit="2" stroke-opacity="1" stroke-width="0.45" transform="matrix(2.22222,0,0,2.22222,-210,-96.6667)"><polyline fill="none" points="140,66 141,67" vector-effect="none"/></g><defs><clipPath id="clip150"><path d="M104,46 L174,46 L174,119 L104,119 L104,46 z"/></clipPath></defs><g clip-path="url(#clip150)" fill="#000000" fill-opacity="1" opacity="1" stroke="#000000" stroke-linecap="butt" stroke-linejoin="miter" stroke-miterlimit="2" stroke-opacity="1" stroke-width="0.45" transform="matrix(2.22222,0,0,2.22222,-210,-96.6667)"><polyline fill="none" points="141,67 143,67" vector-effect="none"/></g><defs><clipPath id="clip151"><path d="M104,46 L174,46 L174,119 L104,119 L104,46 z"/></clipPath></defs><g clip-path="url(#clip151)" fill="#000000" fill-opacity="1" opacity="1" stroke="#000000" stroke-linecap="butt" stroke-linejoin="miter" stroke-miterlimit="2" stroke-opacity="1" stroke-width="0.45" transform="matrix(2.22222,0,0,2.22222,-210,-96.6667)"><polyline fill="none" points="143,67 144,68" vector-effect="none"/></g><defs><clipPath id="clip152"><path d="M104,46 L174,46 L174,119 L104,119 L104,46 z"/></clipPath></defs><g clip-path="url(#clip152)" fill="#000000" fill-opacity="1" opacity="1" stroke="#000000" stroke-linecap="butt" stroke-linejoin="miter" stroke-miterlimit="2" stroke-opacity="1" stroke-width="0.45" transform="matrix(2.22222,0,0,2.22222,-210,-96.6667)"><polyline fill="none" points="144,68 146,69" vector-effect="none"/></g><defs><clipPath id="clip153"><path d="M104,46 L174,46 L174,119 L104,119 L104,46 z"/></clipPath></defs><g clip-path="url(#clip153)" fill="#000000" fill-opacity="1" opacity="1" stroke="#000000" stroke-linecap="butt" stroke-linejoin="miter" stroke-miterlimit="2" stroke-opacity="1" stroke-width="0.45" transform="matrix(2.22222,0,0,2.22222,-210,-96.6667)"><polyline fill="none" points="146,69 147,70" vector-effect="none"/></g><defs><clipPath id="clip154"><path d="M104,46 L174,46 L174,119 L104,119 L104,46 z"/></clipPath></defs><g clip-path="url(#clip154)" fill="#000000" fill-opacity="1" opacity="1" stroke="#000000" stroke-linecap="butt" stroke-linejoin="miter" stroke-miterlimit="2" stroke-opacity="1" stroke-width="0.45" transform="matrix(2.22222,0,0,2.22222,-210,-96.6667)"><polyline fill="none" points="147,70 148,71" vector-effect="none"/></g><defs><clipPath id="clip155"><path d="M104,46 L174,46 L174,119 L104,119 L104,46 z"/></clipPath></defs><g clip-path="url(#clip155)" fill="#000000" fill-opacity="1" opacity="1" stroke="#000000" stroke-linecap="butt" stroke-linejoin="miter" stroke-miterlimit="2" stroke-opacity="1" stroke-width="0.45" transform="matrix(2.22222,0,0,2.22222,-210,-96.6667)"><polyline fill="none" points="148,71 149,72" vector-effect="none"/></g><defs><clipPath id="clip156"><path d="M104,46 L174,46 L174,119 L104,119 L104,46 z"/></clipPath></defs><g clip-path="url(#clip156)" fill="#000000" fill-opacity="1" opacity="1" stroke="#000000" stroke-linecap="butt" stroke-linejoin="miter" stroke-miterlimit="2" stroke-opacity="1" stroke-width="0.45" transform="matrix(2.22222,0,0,2.22222,-210,-96.6667)"><polyline fill="none" points="149,72 150,73" vector-effect="none"/></g><defs><clipPath id="clip157"><path d="M104,46 L174,46 L174,119 L104,119 L104,46 z"/></clipPath></defs><g clip-path="url(#clip157)" fill="#000000" fill-opacity="1" opacity="1" stroke="#000000" stroke-linecap="butt" stroke-linejoin="miter" stroke-miterlimit="2" stroke-opacity="1" stroke-width="0.45" transform="matrix(2.22222,0,0,2.22222,-210,-96.6667)"><polyline fill="none" points="150,73 151,75" vector-effect="none"/></g><defs><clipPath id="clip158"><path d="M104,46 L174,46 L174,119 L104,119 L104,46 z"/></clipPath></defs><g clip-path="url(#clip158)" fill="#000000" fill-opacity="1" opacity="1" stroke="#000000" stroke-linecap="butt" stroke-linejoin="miter" stroke-miterlimit="2" stroke-opacity="1" stroke-width="0.45" transform="matrix(2.22222,0,0,2.22222,-210,-96.6667)"><polyline fill="none" points="151,75 152,76" vector-effect="none"/></g><defs><clipPath id="clip159"><path d="M104,46 L174,46 L174,119 L104,119 L104,46 z"/></clipPath></defs><g clip-path="url(#clip159)" fill="#000000" fill-opacity="1" opacity="1" stroke="#000000" stroke-linecap="butt" stroke-linejoin="miter" stroke-miterlimit="2" stroke-opacity="1" stroke-width="0.45" transform="matrix(2.22222,0,0,2.22222,-210,-96.6667)"><polyline fill="none" points="152,76 152,78" vector-effect="none"/></g><defs><clipPath id="clip160"><path d="M104,46 L174,46 L174,119 L104,119 L104,46 z"/></clipPath></defs><g clip-path="url(#clip160)" fill="#000000" fill-opacity="1" opacity="1" stroke="#000000" stroke-linecap="butt" stroke-linejoin="miter" stroke-miterlimit="2" stroke-opacity="1" stroke-width="0.45" transform="matrix(2.22222,0,0,2.22222,-210,-96.6667)"><polyline fill="none" points="152,78 152,79" vector-effect="none"/></g><defs><clipPath id="clip161"><path d="M104,46 L174,46 L174,119 L104,119 L104,46 z"/></clipPath></defs><g clip-path="url(#clip161)" fill="#000000" fill-opacity="1" opacity="1" stroke="#000000" stroke-linecap="butt" stroke-linejoin="miter" stroke-miterlimit="2" stroke-opacity="1" stroke-width="0.45" transform="matrix(2.22222,0,0,2.22222,-210,-96.6667)"><polyline fill="none" points="152,79 153,81" vector-effect="none"/></g><defs><clipPath id="clip162"><path d="M104,46 L174,46 L174,119 L104,119 L104,46 z"/></clipPath></defs><g clip-path="url(#clip162)" fill="#000000" fill-opacity="1" opacity="1" stroke="#000000" stroke-linecap="butt" stroke-linejoin="miter" stroke-miterlimit="2" stroke-opacity="1" stroke-width="0.45" transform="matrix(2.22222,0,0,2.22222,-210,-96.6667)"><polyline fill="none" points="153,81 153,82" vector-effect="none"/></g><defs><clipPath id="clip163"><path d="M105,46 L175,46 L175,119 L105,119 L105,46 z"/></clipPath></defs><g clip-path="url(#clip163)" fill="#ffffff" fill-opacity="1" opacity="1" stroke="#ffffff" stroke-linecap="square" stroke-linejoin="bevel" stroke-opacity="1" stroke-width="1" transform="matrix(2.22222,0,0,2.22222,-211.111,-97.7778)"><path d="M108,49 L172,49 L172,116 L108,116 L108,49 L108,116 L172,116 L172,49 L108,49 z" fill-rule="evenodd" vector-effect="none"/></g><defs><clipPath id="clip164"><path d="M104,46 L174,46 L174,119 L104,119 L104,46 z"/></clipPath></defs><g clip-path="url(#clip164)" fill="#ffffff" fill-opacity="1" opacity="1" stroke="#000000" stroke-linecap="square" stroke-linejoin="bevel" stroke-opacity="1" stroke-width="1" transform="matrix(2.22222,0,0,2.22222,-210,-96.6667)"><polyline fill="none" points="153,82 164,82" vector-effect="none"/></g><defs><clipPath id="clip165"><path d="M104,46 L174,46 L174,119 L104,119 L104,46 z"/></clipPath></defs><g clip-path="url(#clip165)" fill="#ffffff" fill-opacity="1" opacity="1" stroke="#000000" stroke-linecap="square" stroke-linejoin="bevel" stroke-opacity="1" stroke-width="1" transform="matrix(2.22222,0,0,2.22222,-210,-96.6667)"><polyline fill="none" points="116,60 125,71" vector-effect="none"/></g><defs><clipPath id="clip166"><path d="M104,46 L174,46 L174,119 L104,119 L104,46 z"/></clipPath></defs><g clip-path="url(#clip166)" fill="#ffffff" fill-opacity="1" opacity="1" stroke="#000000" stroke-linecap="square" stroke-linejoin="bevel" stroke-opacity="1" stroke-width="1" transform="matrix(2.22222,0,0,2.22222,-210,-96.6667)"><polyline fill="none" points="116,105 125,94" vector-effect="none"/></g><defs><clipPath id="clip168"><path d="M-15,-97 L343,-97 L343,277 L-15,277 L-15,-97 z"/></clipPath></defs><g clip-path="url(#clip168)" fill="#ffffff" fill-opacity="1" opacity="1" stroke="#000000" stroke-linecap="square" stroke-linejoin="bevel" stroke-opacity="1" stroke-width="1" transform="matrix(0.434028,0,0,0.434028,28.8889,46.6667)"><text fill="#000000" fill-opacity="1" font-family="Liberation Sans" font-size="40" font-style="normal" font-weight="400" stroke="none" textLength="22" x="0" xml:space="preserve" y="17.9219">1</text></g><defs><clipPath id="clip171"><path d="M-15,-276 L343,-276 L343,98 L-15,98 L-15,-276 z"/></clipPath></defs><g clip-path="url(#clip171)" fill="#ffffff" fill-opacity="1" opacity="1" stroke="#000000" stroke-linecap="square" stroke-linejoin="bevel" stroke-opacity="1" stroke-width="1" transform="matrix(0.434028,0,0,0.434028,28.8889,124.444)"><text fill="#000000" fill-opacity="1" font-family="Liberation Sans" font-size="40" font-style="normal" font-weight="400" stroke="none" textLength="22" x="0" xml:space="preserve" y="17.9219">3</text></g><defs><clipPath id="clip174"><path d="M-343,-200 L15,-200 L15,174 L-343,174 L-343,-200 z"/></clipPath></defs><g clip-path="url(#clip174)" fill="#ffffff" fill-opacity="1" opacity="1" stroke="#000000" stroke-linecap="square" stroke-linejoin="bevel" stroke-opacity="1" stroke-width="1" transform="matrix(0.434028,0,0,0.434028,171.111,91.1111)"><text fill="#000000" fill-opacity="1" font-family="Liberation Sans" font-size="40" font-style="normal" font-weight="400" stroke="none" textLength="22" x="-28.4531" xml:space="preserve" y="17.9219">2</text></g><defs><clipPath id="clip180"><path d="M-10,-2 L80,-2 L80,75 L-10,75 L-10,-2 z"/></clipPath></defs><g clip-path="url(#clip180)" fill="none" opacity="1" stroke="#000000" stroke-linecap="butt" stroke-linejoin="miter" stroke-miterlimit="2" stroke-opacity="1" stroke-width="0.726583" transform="matrix(2.22222,0,0,2.22222,22.2222,4.44444)"><path d="M0,0 L70,0 L70,73 L0,73 L0,0 z" fill-rule="evenodd" vector-effect="none"/></g></g></svg>
