<?xml version="1.0" encoding="UTF-8"?><svg width="46.8313mm" height="52.9167mm" viewBox="0 0 177 200" xmlns="http://www.w3.org/2000/svg" xmlns:xlink="http://www.w3.org/1999/xlink"><g fill="none" stroke="black" stroke-width="1" fill-rule="evenodd" stroke-linecap="square" stroke-linejoin="bevel"><g clip-path="none" fill="none" opacity="1" stroke="none" stroke-opacity="0" transform="matrix(1,0,0,1,0,0)"><path d="M0,0 L177,0 L177,200 L0,200 L0,0 z" fill-rule="evenodd" vector-effect="none"/></g><defs><clipPath id="clip6"><path d="M0,0 L10,0 L10,10 L0,10 L0,0 z"/></clipPath></defs><g clip-path="url(#clip6)" fill="#b3b3b3" fill-opacity="1" opacity="1" stroke="none" stroke-opacity="0" transform="matrix(1.70084e-16,-2.77778,2.77778,1.70084e-16,77.7778,27.7778)"><path d="M0.5,3.5 L3.5,3.5 L3.5,6.5 L0.5,6.5 L0.5,3.5 z" fill-rule="evenodd" vector-effect="none"/></g><defs><clipPath id="clip8"><path d="M0,0 L10,0 L10,10 L0,10 L0,0 z"/></clipPath></defs><g clip-path="url(#clip8)" fill="#000000" fill-opacity="1" opacity="1" stroke="none" stroke-opacity="0" transform="matrix(1.70084e-16,-2.77778,2.77778,1.70084e-16,77.7778,27.7778)"><path d="M3,4 L3,6 L1,6 L1,4 L3,4 M4,3 L0,3 L0,7 L4,7 L4,3" fill-rule="nonzero" vector-effect="none"/></g><defs><clipPath id="clip25"><path d="M-2,-10 L62,-10 L62,62 L-2,62 L-2,-10 z"/></clipPath></defs><g clip-path="url(#clip25)" fill="#ffffff" fill-opacity="1" opacity="1" stroke="none" stroke-opacity="0" transform="matrix(2.77778,0,0,2.77778,5.55556,27.7778)"><path d="M0,0 L60,0 L60,60 L0,60 L0,0 z" fill-rule="evenodd" vector-effect="none"/></g><defs><clipPath id="clip29"><path d="M285,55 L345,55 L345,115 L285,115 L285,55 z"/></clipPath></defs><g clip-path="url(#clip29)" fill="#efefef" fill-opacity="1" opacity="1" stroke="#efefef" stroke-linecap="square" stroke-linejoin="bevel" stroke-opacity="1" stroke-width="1" transform="matrix(2.77778,0,0,2.77778,-786.111,-125)"><path d="M315,70 L317,70 L320,71 L323,72 L325,74 L327,76 L328,79 L329,82 L329,85 L329,87 L328,90 L327,93 L325,95 L323,97 L320,98 L317,99 L315,99 L312,99 L309,98 L306,97 L304,95 L302,93 L301,90 L300,87 L300,85 L300,82 L301,79 L302,76 L304,74 L306,72 L309,71 L312,70 L315,70 z" fill-rule="evenodd" vector-effect="none"/></g><defs><clipPath id="clip30"><path d="M284,55 L344,55 L344,115 L284,115 L284,55 z"/></clipPath></defs><g clip-path="url(#clip30)" fill="#efefef" fill-opacity="1" opacity="1" stroke="#000000" stroke-linecap="square" stroke-linejoin="bevel" stroke-opacity="1" stroke-width="1" transform="matrix(2.77778,0,0,2.77778,-784.722,-123.611)"><polyline fill="none" points="315,70 317,70" vector-effect="none"/></g><defs><clipPath id="clip31"><path d="M284,55 L344,55 L344,115 L284,115 L284,55 z"/></clipPath></defs><g clip-path="url(#clip31)" fill="#efefef" fill-opacity="1" opacity="1" stroke="#000000" stroke-linecap="square" stroke-linejoin="bevel" stroke-opacity="1" stroke-width="1" transform="matrix(2.77778,0,0,2.77778,-784.722,-123.611)"><polyline fill="none" points="317,70 320,71" vector-effect="none"/></g><defs><clipPath id="clip32"><path d="M284,55 L344,55 L344,115 L284,115 L284,55 z"/></clipPath></defs><g clip-path="url(#clip32)" fill="#efefef" fill-opacity="1" opacity="1" stroke="#000000" stroke-linecap="square" stroke-linejoin="bevel" stroke-opacity="1" stroke-width="1" transform="matrix(2.77778,0,0,2.77778,-784.722,-123.611)"><polyline fill="none" points="320,71 323,72" vector-effect="none"/></g><defs><clipPath id="clip33"><path d="M284,55 L344,55 L344,115 L284,115 L284,55 z"/></clipPath></defs><g clip-path="url(#clip33)" fill="#efefef" fill-opacity="1" opacity="1" stroke="#000000" stroke-linecap="square" stroke-linejoin="bevel" stroke-opacity="1" stroke-width="1" transform="matrix(2.77778,0,0,2.77778,-784.722,-123.611)"><polyline fill="none" points="323,72 325,74" vector-effect="none"/></g><defs><clipPath id="clip34"><path d="M284,55 L344,55 L344,115 L284,115 L284,55 z"/></clipPath></defs><g clip-path="url(#clip34)" fill="#efefef" fill-opacity="1" opacity="1" stroke="#000000" stroke-linecap="square" stroke-linejoin="bevel" stroke-opacity="1" stroke-width="1" transform="matrix(2.77778,0,0,2.77778,-784.722,-123.611)"><polyline fill="none" points="325,74 327,76" vector-effect="none"/></g><defs><clipPath id="clip35"><path d="M284,55 L344,55 L344,115 L284,115 L284,55 z"/></clipPath></defs><g clip-path="url(#clip35)" fill="#efefef" fill-opacity="1" opacity="1" stroke="#000000" stroke-linecap="square" stroke-linejoin="bevel" stroke-opacity="1" stroke-width="1" transform="matrix(2.77778,0,0,2.77778,-784.722,-123.611)"><polyline fill="none" points="327,76 328,79" vector-effect="none"/></g><defs><clipPath id="clip36"><path d="M284,55 L344,55 L344,115 L284,115 L284,55 z"/></clipPath></defs><g clip-path="url(#clip36)" fill="#efefef" fill-opacity="1" opacity="1" stroke="#000000" stroke-linecap="square" stroke-linejoin="bevel" stroke-opacity="1" stroke-width="1" transform="matrix(2.77778,0,0,2.77778,-784.722,-123.611)"><polyline fill="none" points="328,79 329,82" vector-effect="none"/></g><defs><clipPath id="clip37"><path d="M284,55 L344,55 L344,115 L284,115 L284,55 z"/></clipPath></defs><g clip-path="url(#clip37)" fill="#efefef" fill-opacity="1" opacity="1" stroke="#000000" stroke-linecap="square" stroke-linejoin="bevel" stroke-opacity="1" stroke-width="1" transform="matrix(2.77778,0,0,2.77778,-784.722,-123.611)"><polyline fill="none" points="329,82 329,85" vector-effect="none"/></g><defs><clipPath id="clip38"><path d="M284,55 L344,55 L344,115 L284,115 L284,55 z"/></clipPath></defs><g clip-path="url(#clip38)" fill="#efefef" fill-opacity="1" opacity="1" stroke="#000000" stroke-linecap="square" stroke-linejoin="bevel" stroke-opacity="1" stroke-width="1" transform="matrix(2.77778,0,0,2.77778,-784.722,-123.611)"><polyline fill="none" points="329,85 329,87" vector-effect="none"/></g><defs><clipPath id="clip39"><path d="M284,55 L344,55 L344,115 L284,115 L284,55 z"/></clipPath></defs><g clip-path="url(#clip39)" fill="#efefef" fill-opacity="1" opacity="1" stroke="#000000" stroke-linecap="square" stroke-linejoin="bevel" stroke-opacity="1" stroke-width="1" transform="matrix(2.77778,0,0,2.77778,-784.722,-123.611)"><polyline fill="none" points="329,87 328,90" vector-effect="none"/></g><defs><clipPath id="clip40"><path d="M284,55 L344,55 L344,115 L284,115 L284,55 z"/></clipPath></defs><g clip-path="url(#clip40)" fill="#efefef" fill-opacity="1" opacity="1" stroke="#000000" stroke-linecap="square" stroke-linejoin="bevel" stroke-opacity="1" stroke-width="1" transform="matrix(2.77778,0,0,2.77778,-784.722,-123.611)"><polyline fill="none" points="328,90 327,93" vector-effect="none"/></g><defs><clipPath id="clip41"><path d="M284,55 L344,55 L344,115 L284,115 L284,55 z"/></clipPath></defs><g clip-path="url(#clip41)" fill="#efefef" fill-opacity="1" opacity="1" stroke="#000000" stroke-linecap="square" stroke-linejoin="bevel" stroke-opacity="1" stroke-width="1" transform="matrix(2.77778,0,0,2.77778,-784.722,-123.611)"><polyline fill="none" points="327,93 325,95" vector-effect="none"/></g><defs><clipPath id="clip42"><path d="M284,55 L344,55 L344,115 L284,115 L284,55 z"/></clipPath></defs><g clip-path="url(#clip42)" fill="#efefef" fill-opacity="1" opacity="1" stroke="#000000" stroke-linecap="square" stroke-linejoin="bevel" stroke-opacity="1" stroke-width="1" transform="matrix(2.77778,0,0,2.77778,-784.722,-123.611)"><polyline fill="none" points="325,95 323,97" vector-effect="none"/></g><defs><clipPath id="clip43"><path d="M284,55 L344,55 L344,115 L284,115 L284,55 z"/></clipPath></defs><g clip-path="url(#clip43)" fill="#efefef" fill-opacity="1" opacity="1" stroke="#000000" stroke-linecap="square" stroke-linejoin="bevel" stroke-opacity="1" stroke-width="1" transform="matrix(2.77778,0,0,2.77778,-784.722,-123.611)"><polyline fill="none" points="323,97 320,98" vector-effect="none"/></g><defs><clipPath id="clip44"><path d="M284,55 L344,55 L344,115 L284,115 L284,55 z"/></clipPath></defs><g clip-path="url(#clip44)" fill="#efefef" fill-opacity="1" opacity="1" stroke="#000000" stroke-linecap="square" stroke-linejoin="bevel" stroke-opacity="1" stroke-width="1" transform="matrix(2.77778,0,0,2.77778,-784.722,-123.611)"><polyline fill="none" points="320,98 317,99" vector-effect="none"/></g><defs><clipPath id="clip45"><path d="M284,55 L344,55 L344,115 L284,115 L284,55 z"/></clipPath></defs><g clip-path="url(#clip45)" fill="#efefef" fill-opacity="1" opacity="1" stroke="#000000" stroke-linecap="square" stroke-linejoin="bevel" stroke-opacity="1" stroke-width="1" transform="matrix(2.77778,0,0,2.77778,-784.722,-123.611)"><polyline fill="none" points="317,99 315,99" vector-effect="none"/></g><defs><clipPath id="clip46"><path d="M284,55 L344,55 L344,115 L284,115 L284,55 z"/></clipPath></defs><g clip-path="url(#clip46)" fill="#efefef" fill-opacity="1" opacity="1" stroke="#000000" stroke-linecap="square" stroke-linejoin="bevel" stroke-opacity="1" stroke-width="1" transform="matrix(2.77778,0,0,2.77778,-784.722,-123.611)"><polyline fill="none" points="315,99 312,99" vector-effect="none"/></g><defs><clipPath id="clip47"><path d="M284,55 L344,55 L344,115 L284,115 L284,55 z"/></clipPath></defs><g clip-path="url(#clip47)" fill="#efefef" fill-opacity="1" opacity="1" stroke="#000000" stroke-linecap="square" stroke-linejoin="bevel" stroke-opacity="1" stroke-width="1" transform="matrix(2.77778,0,0,2.77778,-784.722,-123.611)"><polyline fill="none" points="312,99 309,98" vector-effect="none"/></g><defs><clipPath id="clip48"><path d="M284,55 L344,55 L344,115 L284,115 L284,55 z"/></clipPath></defs><g clip-path="url(#clip48)" fill="#efefef" fill-opacity="1" opacity="1" stroke="#000000" stroke-linecap="square" stroke-linejoin="bevel" stroke-opacity="1" stroke-width="1" transform="matrix(2.77778,0,0,2.77778,-784.722,-123.611)"><polyline fill="none" points="309,98 306,97" vector-effect="none"/></g><defs><clipPath id="clip49"><path d="M284,55 L344,55 L344,115 L284,115 L284,55 z"/></clipPath></defs><g clip-path="url(#clip49)" fill="#efefef" fill-opacity="1" opacity="1" stroke="#000000" stroke-linecap="square" stroke-linejoin="bevel" stroke-opacity="1" stroke-width="1" transform="matrix(2.77778,0,0,2.77778,-784.722,-123.611)"><polyline fill="none" points="306,97 304,95" vector-effect="none"/></g><defs><clipPath id="clip50"><path d="M284,55 L344,55 L344,115 L284,115 L284,55 z"/></clipPath></defs><g clip-path="url(#clip50)" fill="#efefef" fill-opacity="1" opacity="1" stroke="#000000" stroke-linecap="square" stroke-linejoin="bevel" stroke-opacity="1" stroke-width="1" transform="matrix(2.77778,0,0,2.77778,-784.722,-123.611)"><polyline fill="none" points="304,95 302,93" vector-effect="none"/></g><defs><clipPath id="clip51"><path d="M284,55 L344,55 L344,115 L284,115 L284,55 z"/></clipPath></defs><g clip-path="url(#clip51)" fill="#efefef" fill-opacity="1" opacity="1" stroke="#000000" stroke-linecap="square" stroke-linejoin="bevel" stroke-opacity="1" stroke-width="1" transform="matrix(2.77778,0,0,2.77778,-784.722,-123.611)"><polyline fill="none" points="302,93 301,90" vector-effect="none"/></g><defs><clipPath id="clip52"><path d="M284,55 L344,55 L344,115 L284,115 L284,55 z"/></clipPath></defs><g clip-path="url(#clip52)" fill="#efefef" fill-opacity="1" opacity="1" stroke="#000000" stroke-linecap="square" stroke-linejoin="bevel" stroke-opacity="1" stroke-width="1" transform="matrix(2.77778,0,0,2.77778,-784.722,-123.611)"><polyline fill="none" points="301,90 300,87" vector-effect="none"/></g><defs><clipPath id="clip53"><path d="M284,55 L344,55 L344,115 L284,115 L284,55 z"/></clipPath></defs><g clip-path="url(#clip53)" fill="#efefef" fill-opacity="1" opacity="1" stroke="#000000" stroke-linecap="square" stroke-linejoin="bevel" stroke-opacity="1" stroke-width="1" transform="matrix(2.77778,0,0,2.77778,-784.722,-123.611)"><polyline fill="none" points="300,87 300,85" vector-effect="none"/></g><defs><clipPath id="clip54"><path d="M284,55 L344,55 L344,115 L284,115 L284,55 z"/></clipPath></defs><g clip-path="url(#clip54)" fill="#efefef" fill-opacity="1" opacity="1" stroke="#000000" stroke-linecap="square" stroke-linejoin="bevel" stroke-opacity="1" stroke-width="1" transform="matrix(2.77778,0,0,2.77778,-784.722,-123.611)"><polyline fill="none" points="300,85 300,82" vector-effect="none"/></g><defs><clipPath id="clip55"><path d="M284,55 L344,55 L344,115 L284,115 L284,55 z"/></clipPath></defs><g clip-path="url(#clip55)" fill="#efefef" fill-opacity="1" opacity="1" stroke="#000000" stroke-linecap="square" stroke-linejoin="bevel" stroke-opacity="1" stroke-width="1" transform="matrix(2.77778,0,0,2.77778,-784.722,-123.611)"><polyline fill="none" points="300,82 301,79" vector-effect="none"/></g><defs><clipPath id="clip56"><path d="M284,55 L344,55 L344,115 L284,115 L284,55 z"/></clipPath></defs><g clip-path="url(#clip56)" fill="#efefef" fill-opacity="1" opacity="1" stroke="#000000" stroke-linecap="square" stroke-linejoin="bevel" stroke-opacity="1" stroke-width="1" transform="matrix(2.77778,0,0,2.77778,-784.722,-123.611)"><polyline fill="none" points="301,79 302,76" vector-effect="none"/></g><defs><clipPath id="clip57"><path d="M284,55 L344,55 L344,115 L284,115 L284,55 z"/></clipPath></defs><g clip-path="url(#clip57)" fill="#efefef" fill-opacity="1" opacity="1" stroke="#000000" stroke-linecap="square" stroke-linejoin="bevel" stroke-opacity="1" stroke-width="1" transform="matrix(2.77778,0,0,2.77778,-784.722,-123.611)"><polyline fill="none" points="302,76 304,74" vector-effect="none"/></g><defs><clipPath id="clip58"><path d="M284,55 L344,55 L344,115 L284,115 L284,55 z"/></clipPath></defs><g clip-path="url(#clip58)" fill="#efefef" fill-opacity="1" opacity="1" stroke="#000000" stroke-linecap="square" stroke-linejoin="bevel" stroke-opacity="1" stroke-width="1" transform="matrix(2.77778,0,0,2.77778,-784.722,-123.611)"><polyline fill="none" points="304,74 306,72" vector-effect="none"/></g><defs><clipPath id="clip59"><path d="M284,55 L344,55 L344,115 L284,115 L284,55 z"/></clipPath></defs><g clip-path="url(#clip59)" fill="#efefef" fill-opacity="1" opacity="1" stroke="#000000" stroke-linecap="square" stroke-linejoin="bevel" stroke-opacity="1" stroke-width="1" transform="matrix(2.77778,0,0,2.77778,-784.722,-123.611)"><polyline fill="none" points="306,72 309,71" vector-effect="none"/></g><defs><clipPath id="clip60"><path d="M284,55 L344,55 L344,115 L284,115 L284,55 z"/></clipPath></defs><g clip-path="url(#clip60)" fill="#efefef" fill-opacity="1" opacity="1" stroke="#000000" stroke-linecap="square" stroke-linejoin="bevel" stroke-opacity="1" stroke-width="1" transform="matrix(2.77778,0,0,2.77778,-784.722,-123.611)"><polyline fill="none" points="309,71 312,70" vector-effect="none"/></g><defs><clipPath id="clip61"><path d="M284,55 L344,55 L344,115 L284,115 L284,55 z"/></clipPath></defs><g clip-path="url(#clip61)" fill="#efefef" fill-opacity="1" opacity="1" stroke="#000000" stroke-linecap="square" stroke-linejoin="bevel" stroke-opacity="1" stroke-width="1" transform="matrix(2.77778,0,0,2.77778,-784.722,-123.611)"><polyline fill="none" points="312,70 315,70" vector-effect="none"/></g><defs><clipPath id="clip62"><path d="M284,55 L344,55 L344,115 L284,115 L284,55 z"/></clipPath></defs><g clip-path="url(#clip62)" fill="#efefef" fill-opacity="1" opacity="1" stroke="#000000" stroke-linecap="square" stroke-linejoin="bevel" stroke-opacity="1" stroke-width="1" transform="matrix(2.77778,0,0,2.77778,-784.722,-123.611)"><polyline fill="none" points="315,70 315,55" vector-effect="none"/></g><defs><clipPath id="clip63"><path d="M284,55 L344,55 L344,115 L284,115 L284,55 z"/></clipPath></defs><g clip-path="url(#clip63)" fill="#efefef" fill-opacity="1" opacity="1" stroke="#000000" stroke-linecap="square" stroke-linejoin="bevel" stroke-opacity="1" stroke-width="1" transform="matrix(2.77778,0,0,2.77778,-784.722,-123.611)"><polyline fill="none" points="317,76 312,76" vector-effect="none"/></g><defs><clipPath id="clip64"><path d="M284,55 L344,55 L344,115 L284,115 L284,55 z"/></clipPath></defs><g clip-path="url(#clip64)" fill="#efefef" fill-opacity="1" opacity="1" stroke="#000000" stroke-linecap="square" stroke-linejoin="bevel" stroke-opacity="1" stroke-width="1" transform="matrix(2.77778,0,0,2.77778,-784.722,-123.611)"><polyline fill="none" points="315,73 315,79" vector-effect="none"/></g><defs><clipPath id="clip65"><path d="M284,55 L344,55 L344,115 L284,115 L284,55 z"/></clipPath></defs><g clip-path="url(#clip65)" fill="#efefef" fill-opacity="1" opacity="1" stroke="#000000" stroke-linecap="square" stroke-linejoin="bevel" stroke-opacity="1" stroke-width="1" transform="matrix(2.77778,0,0,2.77778,-784.722,-123.611)"><polyline fill="none" points="317,93 312,93" vector-effect="none"/></g><defs><clipPath id="clip66"><path d="M284,55 L344,55 L344,115 L284,115 L284,55 z"/></clipPath></defs><g clip-path="url(#clip66)" fill="#000000" fill-opacity="1" opacity="1" stroke="none" stroke-opacity="0" transform="matrix(2.77778,0,0,2.77778,-784.722,-123.611)"><path d="M305.5,85.5 L306.5,85.5 L306.5,86.5 L305.5,86.5 L305.5,85.5 z" fill-rule="evenodd" vector-effect="none"/></g><defs><clipPath id="clip67"><path d="M284,55 L344,55 L344,115 L284,115 L284,55 z"/></clipPath></defs><g clip-path="url(#clip67)" fill="#efefef" fill-opacity="1" opacity="1" stroke="#000000" stroke-linecap="square" stroke-linejoin="bevel" stroke-opacity="1" stroke-width="1" transform="matrix(2.77778,0,0,2.77778,-784.722,-123.611)"><polyline fill="none" points="306,86 307,86" vector-effect="none"/></g><defs><clipPath id="clip68"><path d="M284,55 L344,55 L344,115 L284,115 L284,55 z"/></clipPath></defs><g clip-path="url(#clip68)" fill="#efefef" fill-opacity="1" opacity="1" stroke="#000000" stroke-linecap="square" stroke-linejoin="bevel" stroke-opacity="1" stroke-width="1" transform="matrix(2.77778,0,0,2.77778,-784.722,-123.611)"><polyline fill="none" points="307,86 307,90" vector-effect="none"/></g><defs><clipPath id="clip69"><path d="M284,55 L344,55 L344,115 L284,115 L284,55 z"/></clipPath></defs><g clip-path="url(#clip69)" fill="#efefef" fill-opacity="1" opacity="1" stroke="#000000" stroke-linecap="square" stroke-linejoin="bevel" stroke-opacity="1" stroke-width="1" transform="matrix(2.77778,0,0,2.77778,-784.722,-123.611)"><polyline fill="none" points="307,90 309,90" vector-effect="none"/></g><defs><clipPath id="clip70"><path d="M284,55 L344,55 L344,115 L284,115 L284,55 z"/></clipPath></defs><g clip-path="url(#clip70)" fill="#efefef" fill-opacity="1" opacity="1" stroke="#000000" stroke-linecap="square" stroke-linejoin="bevel" stroke-opacity="1" stroke-width="1" transform="matrix(2.77778,0,0,2.77778,-784.722,-123.611)"><polyline fill="none" points="309,90 309,84" vector-effect="none"/></g><defs><clipPath id="clip71"><path d="M284,55 L344,55 L344,115 L284,115 L284,55 z"/></clipPath></defs><g clip-path="url(#clip71)" fill="#efefef" fill-opacity="1" opacity="1" stroke="#000000" stroke-linecap="square" stroke-linejoin="bevel" stroke-opacity="1" stroke-width="1" transform="matrix(2.77778,0,0,2.77778,-784.722,-123.611)"><polyline fill="none" points="309,84 310,84" vector-effect="none"/></g><defs><clipPath id="clip72"><path d="M284,55 L344,55 L344,115 L284,115 L284,55 z"/></clipPath></defs><g clip-path="url(#clip72)" fill="#efefef" fill-opacity="1" opacity="1" stroke="#000000" stroke-linecap="square" stroke-linejoin="bevel" stroke-opacity="1" stroke-width="1" transform="matrix(2.77778,0,0,2.77778,-784.722,-123.611)"><polyline fill="none" points="310,84 312,84" vector-effect="none"/></g><defs><clipPath id="clip73"><path d="M284,55 L344,55 L344,115 L284,115 L284,55 z"/></clipPath></defs><g clip-path="url(#clip73)" fill="#efefef" fill-opacity="1" opacity="1" stroke="#000000" stroke-linecap="square" stroke-linejoin="bevel" stroke-opacity="1" stroke-width="1" transform="matrix(2.77778,0,0,2.77778,-784.722,-123.611)"><polyline fill="none" points="312,84 312,88" vector-effect="none"/></g><defs><clipPath id="clip74"><path d="M284,55 L344,55 L344,115 L284,115 L284,55 z"/></clipPath></defs><g clip-path="url(#clip74)" fill="#efefef" fill-opacity="1" opacity="1" stroke="#000000" stroke-linecap="square" stroke-linejoin="bevel" stroke-opacity="1" stroke-width="1" transform="matrix(2.77778,0,0,2.77778,-784.722,-123.611)"><polyline fill="none" points="312,88 313,88" vector-effect="none"/></g><defs><clipPath id="clip75"><path d="M284,55 L344,55 L344,115 L284,115 L284,55 z"/></clipPath></defs><g clip-path="url(#clip75)" fill="#efefef" fill-opacity="1" opacity="1" stroke="#000000" stroke-linecap="square" stroke-linejoin="bevel" stroke-opacity="1" stroke-width="1" transform="matrix(2.77778,0,0,2.77778,-784.722,-123.611)"><polyline fill="none" points="313,88 313,81" vector-effect="none"/></g><defs><clipPath id="clip76"><path d="M284,55 L344,55 L344,115 L284,115 L284,55 z"/></clipPath></defs><g clip-path="url(#clip76)" fill="#efefef" fill-opacity="1" opacity="1" stroke="#000000" stroke-linecap="square" stroke-linejoin="bevel" stroke-opacity="1" stroke-width="1" transform="matrix(2.77778,0,0,2.77778,-784.722,-123.611)"><polyline fill="none" points="313,81 315,81" vector-effect="none"/></g><defs><clipPath id="clip77"><path d="M284,55 L344,55 L344,115 L284,115 L284,55 z"/></clipPath></defs><g clip-path="url(#clip77)" fill="#efefef" fill-opacity="1" opacity="1" stroke="#000000" stroke-linecap="square" stroke-linejoin="bevel" stroke-opacity="1" stroke-width="1" transform="matrix(2.77778,0,0,2.77778,-784.722,-123.611)"><polyline fill="none" points="315,81 316,81" vector-effect="none"/></g><defs><clipPath id="clip78"><path d="M284,55 L344,55 L344,115 L284,115 L284,55 z"/></clipPath></defs><g clip-path="url(#clip78)" fill="#efefef" fill-opacity="1" opacity="1" stroke="#000000" stroke-linecap="square" stroke-linejoin="bevel" stroke-opacity="1" stroke-width="1" transform="matrix(2.77778,0,0,2.77778,-784.722,-123.611)"><polyline fill="none" points="316,81 316,85" vector-effect="none"/></g><defs><clipPath id="clip79"><path d="M284,55 L344,55 L344,115 L284,115 L284,55 z"/></clipPath></defs><g clip-path="url(#clip79)" fill="#efefef" fill-opacity="1" opacity="1" stroke="#000000" stroke-linecap="square" stroke-linejoin="bevel" stroke-opacity="1" stroke-width="1" transform="matrix(2.77778,0,0,2.77778,-784.722,-123.611)"><polyline fill="none" points="316,85 317,85" vector-effect="none"/></g><defs><clipPath id="clip80"><path d="M284,55 L344,55 L344,115 L284,115 L284,55 z"/></clipPath></defs><g clip-path="url(#clip80)" fill="#efefef" fill-opacity="1" opacity="1" stroke="#000000" stroke-linecap="square" stroke-linejoin="bevel" stroke-opacity="1" stroke-width="1" transform="matrix(2.77778,0,0,2.77778,-784.722,-123.611)"><polyline fill="none" points="317,85 317,84" vector-effect="none"/></g><defs><clipPath id="clip81"><path d="M284,55 L344,55 L344,115 L284,115 L284,55 z"/></clipPath></defs><g clip-path="url(#clip81)" fill="#efefef" fill-opacity="1" opacity="1" stroke="#000000" stroke-linecap="square" stroke-linejoin="bevel" stroke-opacity="1" stroke-width="1" transform="matrix(2.77778,0,0,2.77778,-784.722,-123.611)"><polyline fill="none" points="317,84 319,84" vector-effect="none"/></g><defs><clipPath id="clip82"><path d="M284,55 L344,55 L344,115 L284,115 L284,55 z"/></clipPath></defs><g clip-path="url(#clip82)" fill="#efefef" fill-opacity="1" opacity="1" stroke="#000000" stroke-linecap="square" stroke-linejoin="bevel" stroke-opacity="1" stroke-width="1" transform="matrix(2.77778,0,0,2.77778,-784.722,-123.611)"><polyline fill="none" points="319,84 320,84" vector-effect="none"/></g><defs><clipPath id="clip83"><path d="M284,55 L344,55 L344,115 L284,115 L284,55 z"/></clipPath></defs><g clip-path="url(#clip83)" fill="#efefef" fill-opacity="1" opacity="1" stroke="#000000" stroke-linecap="square" stroke-linejoin="bevel" stroke-opacity="1" stroke-width="1" transform="matrix(2.77778,0,0,2.77778,-784.722,-123.611)"><polyline fill="none" points="320,84 320,85" vector-effect="none"/></g><defs><clipPath id="clip84"><path d="M284,55 L344,55 L344,115 L284,115 L284,55 z"/></clipPath></defs><g clip-path="url(#clip84)" fill="#efefef" fill-opacity="1" opacity="1" stroke="#000000" stroke-linecap="square" stroke-linejoin="bevel" stroke-opacity="1" stroke-width="1" transform="matrix(2.77778,0,0,2.77778,-784.722,-123.611)"><polyline fill="none" points="320,85 322,85" vector-effect="none"/></g><defs><clipPath id="clip85"><path d="M284,55 L344,55 L344,115 L284,115 L284,55 z"/></clipPath></defs><g clip-path="url(#clip85)" fill="#efefef" fill-opacity="1" opacity="1" stroke="#000000" stroke-linecap="square" stroke-linejoin="bevel" stroke-opacity="1" stroke-width="1" transform="matrix(2.77778,0,0,2.77778,-784.722,-123.611)"><polyline fill="none" points="322,85 322,82" vector-effect="none"/></g><defs><clipPath id="clip86"><path d="M284,55 L344,55 L344,115 L284,115 L284,55 z"/></clipPath></defs><g clip-path="url(#clip86)" fill="#efefef" fill-opacity="1" opacity="1" stroke="#000000" stroke-linecap="square" stroke-linejoin="bevel" stroke-opacity="1" stroke-width="1" transform="matrix(2.77778,0,0,2.77778,-784.722,-123.611)"><polyline fill="none" points="322,82 323,82" vector-effect="none"/></g><defs><clipPath id="clip91"><path d="M-2,-10 L62,-10 L62,62 L-2,62 L-2,-10 z"/></clipPath></defs><g clip-path="url(#clip91)" fill="none" opacity="1" stroke="none" stroke-opacity="0" transform="matrix(2.77778,0,0,2.77778,5.55556,27.7778)"><path d="M0,0 L60,0 L60,60 L0,60 L0,0 z" fill-rule="evenodd" vector-effect="none"/></g></g></svg>
