<?xml version="1.0" encoding="UTF-8"?><svg width="52.9167mm" height="38.1mm" viewBox="0 0 200 144" xmlns="http://www.w3.org/2000/svg" xmlns:xlink="http://www.w3.org/1999/xlink"><g fill="none" stroke="black" stroke-width="1" fill-rule="evenodd" stroke-linecap="square" stroke-linejoin="bevel"><g clip-path="none" fill="none" opacity="1" stroke="none" stroke-opacity="0" transform="matrix(1,0,0,1,0,0)"><path d="M0,0 L200,0 L200,144 L0,144 L0,0 z" fill-rule="evenodd" vector-effect="none"/></g><defs><clipPath id="clip3"><path d="M7,25 L-62,25 L-62,-25 L7,-25 L7,25 z"/></clipPath></defs><g clip-path="url(#clip3)" fill="none" opacity="1" stroke="#000000" stroke-linecap="round" stroke-linejoin="miter" stroke-miterlimit="2" stroke-opacity="1" stroke-width="2" transform="matrix(-2.89855,0,0,-2.89855,20.2899,72.4638)"><path d="M5,-5 L0,0 L5,5" fill-rule="evenodd" vector-effect="none"/></g><defs><clipPath id="clip6"><path d="M-7,-2 L62,-2 L62,48 L-7,48 L-7,-2 z"/></clipPath></defs><g clip-path="url(#clip6)" fill="#ffffff" fill-opacity="1" opacity="1" stroke="none" stroke-opacity="0" transform="matrix(2.89855,0,0,2.89855,20.2899,5.7971)"><path d="M0,0 L60,0 L60,46 L0,46 L0,0 z" fill-rule="evenodd" vector-effect="none"/></g><defs><clipPath id="clip10"><path d="M115,237 L175,237 L175,283 L115,283 L115,237 z"/></clipPath></defs><g clip-path="url(#clip10)" fill="none" opacity="1" stroke="#000000" stroke-linecap="butt" stroke-linejoin="miter" stroke-miterlimit="2" stroke-opacity="1" stroke-width="0.345" transform="matrix(2.89855,0,0,2.89855,-311.594,-679.71)"><path d="M163,259.5 C163,266.956 158.971,273 154,273 C149.029,273 145,266.956 145,259.5 C145,252.044 149.029,246 154,246 C158.971,246 163,252.044 163,259.5 z" fill-rule="evenodd" vector-effect="none"/></g><defs><clipPath id="clip11"><path d="M115,237 L175,237 L175,283 L115,283 L115,237 z"/></clipPath></defs><g clip-path="url(#clip11)" fill="#000000" fill-opacity="1" opacity="1" stroke="#000000" stroke-linecap="butt" stroke-linejoin="miter" stroke-miterlimit="2" stroke-opacity="1" stroke-width="0.345" transform="matrix(2.89855,0,0,2.89855,-313.043,-681.159)"><path d="M149,261 L153,268 L159,253 L159,254 L153,269 L149,262 L149,261 z" fill-rule="evenodd" vector-effect="none"/></g><defs><clipPath id="clip12"><path d="M115,237 L175,237 L175,283 L115,283 L115,237 z"/></clipPath></defs><g clip-path="url(#clip12)" fill="#000000" fill-opacity="1" opacity="1" stroke="#000000" stroke-linecap="butt" stroke-linejoin="miter" stroke-miterlimit="2" stroke-opacity="1" stroke-width="0.345" transform="matrix(2.89855,0,0,2.89855,-311.594,-679.71)"><polyline fill="none" points="149,262 153,268" vector-effect="none"/></g><defs><clipPath id="clip13"><path d="M115,237 L175,237 L175,283 L115,283 L115,237 z"/></clipPath></defs><g clip-path="url(#clip13)" fill="#000000" fill-opacity="1" opacity="1" stroke="#000000" stroke-linecap="butt" stroke-linejoin="miter" stroke-miterlimit="2" stroke-opacity="1" stroke-width="0.345" transform="matrix(2.89855,0,0,2.89855,-311.594,-679.71)"><polyline fill="none" points="153,268 159,254" vector-effect="none"/></g><defs><clipPath id="clip14"><path d="M115,237 L175,237 L175,283 L115,283 L115,237 z"/></clipPath></defs><g clip-path="url(#clip14)" fill="#000000" fill-opacity="1" opacity="1" stroke="#000000" stroke-linecap="butt" stroke-linejoin="miter" stroke-miterlimit="2" stroke-opacity="1" stroke-width="0.345" transform="matrix(2.89855,0,0,2.89855,-311.594,-679.71)"><polyline fill="none" points="115,260 145,260" vector-effect="none"/></g><defs><clipPath id="clip19"><path d="M-7,-2 L62,-2 L62,48 L-7,48 L-7,-2 z"/></clipPath></defs><g clip-path="url(#clip19)" fill="none" opacity="1" stroke="#000000" stroke-linecap="butt" stroke-linejoin="miter" stroke-miterlimit="2" stroke-opacity="1" stroke-width="0.653323" transform="matrix(2.89855,0,0,2.89855,20.2899,5.7971)"><path d="M0,0 L60,0 L60,46 L0,46 L0,0 z" fill-rule="evenodd" vector-effect="none"/></g></g></svg>
