<?xml version="1.0" encoding="UTF-8"?><svg width="52.9167mm" height="42.5979mm" viewBox="0 0 200 161" xmlns="http://www.w3.org/2000/svg" xmlns:xlink="http://www.w3.org/1999/xlink"><g fill="none" stroke="black" stroke-width="1" fill-rule="evenodd" stroke-linecap="square" stroke-linejoin="bevel"><g clip-path="none" fill="none" opacity="1" stroke="none" stroke-opacity="0" transform="matrix(1,0,0,1,0,0)"><path d="M0,0 L200,0 L200,161 L0,161 L0,0 z" fill-rule="evenodd" vector-effect="none"/></g><defs><clipPath id="clip3"><path d="M-2,-2 L40,-2 L40,32 L-2,32 L-2,-2 z"/></clipPath></defs><g clip-path="url(#clip3)" fill="#ffffff" fill-opacity="1" opacity="1" stroke="none" stroke-opacity="0" transform="matrix(4.7619,0,0,4.7619,9.52381,9.52381)"><path d="M0,0 L38,0 L38,30 L0,30 L0,0 z" fill-rule="evenodd" vector-effect="none"/></g><defs><clipPath id="clip8"><path d="M-97,-77 L98,-77 L98,77 L-97,77 L-97,-77 z"/></clipPath></defs><g clip-path="url(#clip8)" fill="none" opacity="1" stroke="#000000" stroke-linecap="butt" stroke-linejoin="miter" stroke-miterlimit="2" stroke-opacity="1" stroke-width="0.21" transform="matrix(0.93006,0,0,0.93006,100,80.9524)"><text fill="#000000" fill-opacity="1" font-family="Liberation Sans" font-size="40" font-style="normal" font-weight="400" stroke="none" textLength="69" x="-44.7969" xml:space="preserve" y="17.9219">T=1</text></g><defs><clipPath id="clip14"><path d="M-2,-2 L40,-2 L40,32 L-2,32 L-2,-2 z"/></clipPath></defs><g clip-path="url(#clip14)" fill="none" opacity="1" stroke="#000000" stroke-linecap="butt" stroke-linejoin="miter" stroke-miterlimit="2" stroke-opacity="1" stroke-width="0.535658" transform="matrix(4.7619,0,0,4.7619,9.52381,9.52381)"><path d="M0,0 L38,0 L38,30 L0,30 L0,0 z" fill-rule="evenodd" vector-effect="none"/></g></g></svg>
