<?xml version="1.0" encoding="UTF-8"?><svg width="39.6875mm" height="52.9167mm" viewBox="0 0 150 200" xmlns="http://www.w3.org/2000/svg" xmlns:xlink="http://www.w3.org/1999/xlink"><g fill="none" stroke="black" stroke-width="1" fill-rule="evenodd" stroke-linecap="square" stroke-linejoin="bevel"><g clip-path="none" fill="none" opacity="1" stroke="none" stroke-opacity="0" transform="matrix(1,0,0,1,0,0)"><path d="M0,0 L150,0 L150,200 L0,200 L0,0 z" fill-rule="evenodd" vector-effect="none"/></g><defs><clipPath id="clip6"><path d="M0,0 L10,0 L10,10 L0,10 L0,0 z"/></clipPath></defs><g clip-path="url(#clip6)" fill="#b3b3b3" fill-opacity="1" opacity="1" stroke="none" stroke-opacity="0" transform="matrix(3.82689e-16,-6.25,6.25,3.82689e-16,50,62.5)"><path d="M0.5,3.5 L3.5,3.5 L3.5,6.5 L0.5,6.5 L0.5,3.5 z" fill-rule="evenodd" vector-effect="none"/></g><defs><clipPath id="clip8"><path d="M0,0 L10,0 L10,10 L0,10 L0,0 z"/></clipPath></defs><g clip-path="url(#clip8)" fill="#000000" fill-opacity="1" opacity="1" stroke="none" stroke-opacity="0" transform="matrix(3.82689e-16,-6.25,6.25,3.82689e-16,50,62.5)"><path d="M3,4 L3,6 L1,6 L1,4 L3,4 M4,3 L0,3 L0,7 L4,7 L4,3" fill-rule="nonzero" vector-effect="none"/></g><defs><clipPath id="clip25"><path d="M-2,-10 L22,-10 L22,22 L-2,22 L-2,-10 z"/></clipPath></defs><g clip-path="url(#clip25)" fill="#ffffff" fill-opacity="1" opacity="1" stroke="none" stroke-opacity="0" transform="matrix(6.25,0,0,6.25,12.5,62.5)"><path d="M0,0 L20,0 L20,20 L0,20 L0,0 z" fill-rule="evenodd" vector-effect="none"/></g><defs><clipPath id="clip29"><path d="M0,0 L20,0 L20,20 L0,20 L0,0 z"/></clipPath></defs><g clip-path="url(#clip29)" fill="none" opacity="1" stroke="none" stroke-opacity="0" transform="matrix(6.25,0,0,6.25,12.5,62.5)"><path d="M0,0 L20,0 L20,20 L0,20 L0,0 z" fill-rule="evenodd" vector-effect="none"/></g><defs><clipPath id="clip39"><path d="M1,1 L21,1 L21,21 L1,21 L1,1 z"/></clipPath></defs><g clip-path="url(#clip39)" fill="none" opacity="1" stroke="#ffffff" stroke-linecap="butt" stroke-linejoin="miter" stroke-miterlimit="4" stroke-opacity="1" stroke-width="1.2025" transform="matrix(1.14807e-15,6.25,6.25,-1.14807e-15,6.25,56.25)"><path d="M1,1 L21,1 L21,21 L1,21 L1,1 z" fill-rule="nonzero" vector-effect="none"/></g><defs><clipPath id="clip40"><path d="M1,1 L21,1 L21,21 L1,21 L1,1 z"/></clipPath></defs><g clip-path="url(#clip40)" fill="none" opacity="1" stroke="#3369c9" stroke-linecap="butt" stroke-linejoin="miter" stroke-miterlimit="4" stroke-opacity="1" stroke-width="1.2025" transform="matrix(1.14807e-15,6.25,6.25,-1.14807e-15,6.25,56.25)"><path d="M1.11291,11 L9.66619,11" fill-rule="nonzero" vector-effect="none"/></g><defs><clipPath id="clip41"><path d="M1,1 L21,1 L21,21 L1,21 L1,1 z"/></clipPath></defs><g clip-path="url(#clip41)" fill="none" opacity="1" stroke="#3369c9" stroke-linecap="butt" stroke-linejoin="miter" stroke-miterlimit="4" stroke-opacity="1" stroke-width="1.2025" transform="matrix(1.14807e-15,6.25,6.25,-1.14807e-15,6.25,56.25)"><path d="M19.6662,8.99576 L19.6662,12.9972" fill-rule="nonzero" vector-effect="none"/></g><defs><clipPath id="clip42"><path d="M1,1 L21,1 L21,21 L1,21 L1,1 z"/></clipPath></defs><g clip-path="url(#clip42)" fill="none" opacity="1" stroke="#3369c9" stroke-linecap="butt" stroke-linejoin="miter" stroke-miterlimit="4" stroke-opacity="1" stroke-width="1.2025" transform="matrix(1.14807e-15,6.25,6.25,-1.14807e-15,6.25,56.25)"><path d="M16.3352,6.32816 L16.3352,15.6648" fill-rule="nonzero" vector-effect="none"/></g><defs><clipPath id="clip43"><path d="M1,1 L21,1 L21,21 L1,21 L1,1 z"/></clipPath></defs><g clip-path="url(#clip43)" fill="none" opacity="1" stroke="#3369c9" stroke-linecap="butt" stroke-linejoin="miter" stroke-miterlimit="4" stroke-opacity="1" stroke-width="1.2025" transform="matrix(1.14807e-15,6.25,6.25,-1.14807e-15,6.25,56.25)"><path d="M12.9972,3.66055 L12.9972,18.3324" fill-rule="nonzero" vector-effect="none"/></g><defs><clipPath id="clip44"><path d="M1,1 L21,1 L21,21 L1,21 L1,1 z"/></clipPath></defs><g clip-path="url(#clip44)" fill="none" opacity="1" stroke="#3369c9" stroke-linecap="butt" stroke-linejoin="miter" stroke-miterlimit="4" stroke-opacity="1" stroke-width="1.2025" transform="matrix(1.14807e-15,6.25,6.25,-1.14807e-15,6.25,56.25)"><path d="M9.66619,1 L9.66619,21" fill-rule="nonzero" vector-effect="none"/></g><defs><clipPath id="clip64"><path d="M-2,-10 L22,-10 L22,22 L-2,22 L-2,-10 z"/></clipPath></defs><g clip-path="url(#clip64)" fill="none" opacity="1" stroke="none" stroke-opacity="0" transform="matrix(6.25,0,0,6.25,12.5,62.5)"><path d="M0,0 L20,0 L20,20 L0,20 L0,0 z" fill-rule="evenodd" vector-effect="none"/></g></g></svg>
