<?xml version="1.0" encoding="UTF-8"?><svg width="47.0958mm" height="52.9167mm" viewBox="0 0 178 200" xmlns="http://www.w3.org/2000/svg" xmlns:xlink="http://www.w3.org/1999/xlink"><g fill="none" stroke="black" stroke-width="1" fill-rule="evenodd" stroke-linecap="square" stroke-linejoin="bevel"><g clip-path="none" fill="none" opacity="1" stroke="none" stroke-opacity="0" transform="matrix(1,0,0,1,0,0)"><path d="M0,0 L178,0 L178,200 L0,200 L0,0 z" fill-rule="evenodd" vector-effect="none"/></g><defs><clipPath id="clip6"><path d="M0,0 L10,0 L10,10 L0,10 L0,0 z"/></clipPath></defs><g clip-path="url(#clip6)" fill="#b3b3b3" fill-opacity="1" opacity="1" stroke="none" stroke-opacity="0" transform="matrix(2.38095,0,0,2.38095,154.762,138.095)"><path d="M0.5,3.5 L3.5,3.5 L3.5,6.5 L0.5,6.5 L0.5,3.5 z" fill-rule="evenodd" vector-effect="none"/></g><defs><clipPath id="clip8"><path d="M0,0 L10,0 L10,10 L0,10 L0,0 z"/></clipPath></defs><g clip-path="url(#clip8)" fill="#000000" fill-opacity="1" opacity="1" stroke="none" stroke-opacity="0" transform="matrix(2.38095,0,0,2.38095,154.762,138.095)"><path d="M3,4 L3,6 L1,6 L1,4 L3,4 M4,3 L0,3 L0,7 L4,7 L4,3" fill-rule="nonzero" vector-effect="none"/></g><defs><clipPath id="clip28"><path d="M0,0 L10,0 L10,10 L0,10 L0,0 z"/></clipPath></defs><g clip-path="url(#clip28)" fill="#b3b3b3" fill-opacity="1" opacity="1" stroke="none" stroke-opacity="0" transform="matrix(2.38095,0,0,2.38095,154.762,42.8571)"><path d="M0.5,3.5 L3.5,3.5 L3.5,6.5 L0.5,6.5 L0.5,3.5 z" fill-rule="evenodd" vector-effect="none"/></g><defs><clipPath id="clip30"><path d="M0,0 L10,0 L10,10 L0,10 L0,0 z"/></clipPath></defs><g clip-path="url(#clip30)" fill="#000000" fill-opacity="1" opacity="1" stroke="none" stroke-opacity="0" transform="matrix(2.38095,0,0,2.38095,154.762,42.8571)"><path d="M3,4 L3,6 L1,6 L1,4 L3,4 M4,3 L0,3 L0,7 L4,7 L4,3" fill-rule="nonzero" vector-effect="none"/></g><defs><clipPath id="clip50"><path d="M0,0 L10,0 L10,10 L0,10 L0,0 z"/></clipPath></defs><g clip-path="url(#clip50)" fill="#b3b3b3" fill-opacity="1" opacity="1" stroke="none" stroke-opacity="0" transform="matrix(-2.38095,0,0,2.38095,23.8095,42.8571)"><path d="M0.5,3.5 L3.5,3.5 L3.5,6.5 L0.5,6.5 L0.5,3.5 z" fill-rule="evenodd" vector-effect="none"/></g><defs><clipPath id="clip52"><path d="M0,0 L10,0 L10,10 L0,10 L0,0 z"/></clipPath></defs><g clip-path="url(#clip52)" fill="#000000" fill-opacity="1" opacity="1" stroke="none" stroke-opacity="0" transform="matrix(-2.38095,0,0,2.38095,23.8095,42.8571)"><path d="M3,4 L3,6 L1,6 L1,4 L3,4 M4,3 L0,3 L0,7 L4,7 L4,3" fill-rule="nonzero" vector-effect="none"/></g><defs><clipPath id="clip72"><path d="M0,0 L10,0 L10,10 L0,10 L0,0 z"/></clipPath></defs><g clip-path="url(#clip72)" fill="#b3b3b3" fill-opacity="1" opacity="1" stroke="none" stroke-opacity="0" transform="matrix(-2.38095,0,0,2.38095,23.8095,138.095)"><path d="M0.5,3.5 L3.5,3.5 L3.5,6.5 L0.5,6.5 L0.5,3.5 z" fill-rule="evenodd" vector-effect="none"/></g><defs><clipPath id="clip74"><path d="M0,0 L10,0 L10,10 L0,10 L0,0 z"/></clipPath></defs><g clip-path="url(#clip74)" fill="#000000" fill-opacity="1" opacity="1" stroke="none" stroke-opacity="0" transform="matrix(-2.38095,0,0,2.38095,23.8095,138.095)"><path d="M3,4 L3,6 L1,6 L1,4 L3,4 M4,3 L0,3 L0,7 L4,7 L4,3" fill-rule="nonzero" vector-effect="none"/></g><defs><clipPath id="clip91"><path d="M-10,-2 L65,-2 L65,82 L-10,82 L-10,-2 z"/></clipPath></defs><g clip-path="url(#clip91)" fill="#ffffff" fill-opacity="1" opacity="1" stroke="none" stroke-opacity="0" transform="matrix(2.38095,0,0,2.38095,23.8095,4.7619)"><path d="M0,0 L55,0 L55,80 L0,80 L0,0 z" fill-rule="evenodd" vector-effect="none"/></g><defs><clipPath id="clip95"><path d="M0,0 L55,0 L55,80 L0,80 L0,0 z"/></clipPath></defs><g clip-path="url(#clip95)" fill="none" opacity="1" stroke="none" stroke-opacity="0" transform="matrix(2.38095,0,0,2.38095,23.8095,4.7619)"><path d="M0,0 L55,0 L55,80 L0,80 L0,0 z" fill-rule="evenodd" vector-effect="none"/></g><defs><clipPath id="clip105"><path d="M1,1 L56,1 L56,81 L1,81 L1,1 z"/></clipPath></defs><g clip-path="url(#clip105)" fill="none" opacity="1" stroke="#3369c9" stroke-linecap="butt" stroke-linejoin="miter" stroke-miterlimit="20" stroke-opacity="1" stroke-width="2.6325" transform="matrix(2.38095,0,0,2.38095,21.4286,2.38095)"><path d="M12.1595,20.6001 L1,20.6001" fill-rule="nonzero" vector-effect="none"/></g><defs><clipPath id="clip106"><path d="M1,1 L56,1 L56,81 L1,81 L1,1 z"/></clipPath></defs><g clip-path="url(#clip106)" fill="none" opacity="1" stroke="#3369c9" stroke-linecap="butt" stroke-linejoin="miter" stroke-miterlimit="20" stroke-opacity="1" stroke-width="2.6325" transform="matrix(2.38095,0,0,2.38095,21.4286,2.38095)"><path d="M12.1595,61.4004 L1,61.4004" fill-rule="nonzero" vector-effect="none"/></g><defs><clipPath id="clip107"><path d="M1,1 L56,1 L56,81 L1,81 L1,1 z"/></clipPath></defs><g clip-path="url(#clip107)" fill="none" opacity="1" stroke="#3369c9" stroke-linecap="butt" stroke-linejoin="miter" stroke-miterlimit="20" stroke-opacity="1" stroke-width="2.6325" transform="matrix(2.38095,0,0,2.38095,21.4286,2.38095)"><path d="M55.9382,20.6001 L44.0437,20.6001" fill-rule="nonzero" vector-effect="none"/></g><defs><clipPath id="clip108"><path d="M1,1 L56,1 L56,81 L1,81 L1,1 z"/></clipPath></defs><g clip-path="url(#clip108)" fill="none" opacity="1" stroke="#3369c9" stroke-linecap="butt" stroke-linejoin="miter" stroke-miterlimit="20" stroke-opacity="1" stroke-width="2.6325" transform="matrix(2.38095,0,0,2.38095,21.4286,2.38095)"><path d="M55.9382,61.4004 L44.0437,61.4004" fill-rule="nonzero" vector-effect="none"/></g><defs><clipPath id="clip109"><path d="M1,1 L56,1 L56,81 L1,81 L1,1 z"/></clipPath></defs><g clip-path="url(#clip109)" fill="none" opacity="1" stroke="#3369c9" stroke-linecap="butt" stroke-linejoin="miter" stroke-miterlimit="20" stroke-opacity="1" stroke-width="2.6325" transform="matrix(2.38095,0,0,2.38095,21.4286,2.38095)"><path d="M12.1595,61.4004 L12.1595,20.6001" fill-rule="nonzero" vector-effect="none"/></g><defs><clipPath id="clip110"><path d="M1,1 L56,1 L56,81 L1,81 L1,1 z"/></clipPath></defs><g clip-path="url(#clip110)" fill="none" opacity="1" stroke="#3369c9" stroke-linecap="butt" stroke-linejoin="miter" stroke-miterlimit="20" stroke-opacity="1" stroke-width="2.6325" transform="matrix(2.38095,0,0,2.38095,21.4286,2.38095)"><path d="M44.0437,61.4004 L44.0437,20.6001" fill-rule="nonzero" vector-effect="none"/></g><defs><clipPath id="clip111"><path d="M1,1 L56,1 L56,81 L1,81 L1,1 z"/></clipPath></defs><g clip-path="url(#clip111)" fill="none" opacity="1" stroke="#3369c9" stroke-linecap="butt" stroke-linejoin="miter" stroke-miterlimit="20" stroke-opacity="1" stroke-width="2.6325" transform="matrix(2.38095,0,0,2.38095,21.4286,2.38095)"><path d="M38.8625,25.0001 L38.8625,22.6001" fill-rule="nonzero" vector-effect="none"/></g><defs><clipPath id="clip112"><path d="M1,1 L56,1 L56,81 L1,81 L1,1 z"/></clipPath></defs><g clip-path="url(#clip112)" fill="none" opacity="1" stroke="#3369c9" stroke-linecap="butt" stroke-linejoin="miter" stroke-miterlimit="20" stroke-opacity="1" stroke-width="2.6325" transform="matrix(2.38095,0,0,2.38095,21.4286,2.38095)"><path d="M38.8625,25.0001 L36.8697,25.0001" fill-rule="nonzero" vector-effect="none"/></g><defs><clipPath id="clip113"><path d="M1,1 L56,1 L56,81 L1,81 L1,1 z"/></clipPath></defs><g clip-path="url(#clip113)" fill="none" opacity="1" stroke="#3369c9" stroke-linecap="butt" stroke-linejoin="miter" stroke-miterlimit="20" stroke-opacity="1" stroke-width="2.6325" transform="matrix(2.38095,0,0,2.38095,21.4286,2.38095)"><path d="M17.7392,25.0001 C17.7392,25.0001 17.7453,24.9956 17.8408,24.927 C17.9361,24.8584 18.1197,24.7267 18.4131,24.519 C18.7065,24.3111 19.1086,24.0281 19.5984,23.6896 C20.0883,23.3512 20.6646,22.9585 21.2826,22.5502 C21.9007,22.1418 22.5592,21.7189 23.2087,21.3258 C23.8582,20.9327 24.4972,20.5705 25.09,20.2751 C25.6829,19.9798 26.2284,19.7524 26.7233,19.6072 C27.2183,19.462 27.6615,19.4001 28.1016,19.4001 C28.5416,19.4001 28.9893,19.462 29.4946,19.6072 C29.9999,19.7524 30.5615,19.9798 31.1753,20.2751 C31.7892,20.5705 32.4541,20.9327 33.1314,21.3258 C33.809,21.7189 34.4976,22.1418 35.1447,22.5502 C35.7919,22.9585 36.3962,23.3512 36.91,23.6896 C37.4239,24.0281 37.846,24.3111 38.1542,24.519 C38.4626,24.7267 38.6554,24.8584 38.7558,24.927 C38.8561,24.9956 38.8625,25.0001 38.8625,25.0001" fill-rule="nonzero" vector-effect="none"/></g><defs><clipPath id="clip114"><path d="M1,1 L56,1 L56,81 L1,81 L1,1 z"/></clipPath></defs><g clip-path="url(#clip114)" fill="none" opacity="1" stroke="#3369c9" stroke-linecap="butt" stroke-linejoin="miter" stroke-miterlimit="4" stroke-opacity="1" stroke-width="2.6325" transform="matrix(2.38095,0,0,2.38095,21.4286,2.38095)"><path d="M12.1595,29.0002 C14.6696,28.9575 17.1275,29.7221 19.1734,31.1824 C21.2193,32.6426 22.7459,34.7215 23.5299,37.1153 C24.3137,39.509 24.3137,42.0915 23.5299,44.4851 C22.7459,46.8789 21.2193,48.9579 19.1734,50.4181 C17.1275,51.8784 14.6696,52.643 12.1595,52.6003" fill-rule="nonzero" vector-effect="none"/></g><defs><clipPath id="clip115"><path d="M1,1 L56,1 L56,81 L1,81 L1,1 z"/></clipPath></defs><g clip-path="url(#clip115)" fill="none" opacity="1" stroke="#3369c9" stroke-linecap="butt" stroke-linejoin="miter" stroke-miterlimit="4" stroke-opacity="1" stroke-width="2.6325" transform="matrix(2.38095,0,0,2.38095,21.4286,2.38095)"><path d="M44.0437,52.6003 C41.5335,52.643 39.0756,51.8784 37.0297,50.4181 C34.9838,48.9579 33.4572,46.8789 32.6733,44.4851 C31.8894,42.0915 31.8894,39.509 32.6733,37.1153 C33.4572,34.7215 34.9838,32.6426 37.0297,31.1824 C39.0756,29.7221 41.5335,28.9575 44.0437,29.0002" fill-rule="nonzero" vector-effect="none"/></g><defs><clipPath id="clip116"><path d="M1,1 L56,1 L56,81 L1,81 L1,1 z"/></clipPath></defs><g clip-path="url(#clip116)" fill="none" opacity="1" stroke="#ffffff" stroke-linecap="butt" stroke-linejoin="miter" stroke-miterlimit="20" stroke-opacity="1" stroke-width="2.6325" transform="matrix(2.38095,0,0,2.38095,21.4286,2.38095)"><path d="M1,1.00001 L56.0002,1.00001 L56.0002,81.0005 L1,81.0005 L1,1.00001 z" fill-rule="nonzero" vector-effect="none"/></g><defs><clipPath id="clip133"><path d="M-266,-307 L16,-307 L16,103 L-266,103 L-266,-307 z"/></clipPath></defs><g clip-path="url(#clip133)" fill="none" opacity="1" stroke="#e60000" stroke-linecap="square" stroke-linejoin="bevel" stroke-opacity="1" stroke-width="1" transform="matrix(0.46503,0,0,0.46503,147.619,147.619)"><text fill="#e60000" fill-opacity="1" font-family="Liberation Sans" font-size="40" font-style="normal" font-weight="400" stroke="none" textLength="35" x="-45.5" xml:space="preserve" y="17.9219">-2</text></g><defs><clipPath id="clip136"><path d="M-266,-102 L16,-102 L16,308 L-266,308 L-266,-102 z"/></clipPath></defs><g clip-path="url(#clip136)" fill="none" opacity="1" stroke="#e60000" stroke-linecap="square" stroke-linejoin="bevel" stroke-opacity="1" stroke-width="1" transform="matrix(0.46503,0,0,0.46503,147.619,52.381)"><text fill="#e60000" fill-opacity="1" font-family="Liberation Sans" font-size="40" font-style="normal" font-weight="400" stroke="none" textLength="45" x="-58.3594" xml:space="preserve" y="17.9219">+2</text></g><defs><clipPath id="clip139"><path d="M-15,-307 L267,-307 L267,103 L-15,103 L-15,-307 z"/></clipPath></defs><g clip-path="url(#clip139)" fill="none" opacity="1" stroke="#e60000" stroke-linecap="square" stroke-linejoin="bevel" stroke-opacity="1" stroke-width="1" transform="matrix(0.46503,0,0,0.46503,30.9524,147.619)"><text fill="#e60000" fill-opacity="1" font-family="Liberation Sans" font-size="40" font-style="normal" font-weight="400" stroke="none" textLength="35" x="0" xml:space="preserve" y="17.9219">-1</text></g><defs><clipPath id="clip142"><path d="M-15,-102 L267,-102 L267,308 L-15,308 L-15,-102 z"/></clipPath></defs><g clip-path="url(#clip142)" fill="none" opacity="1" stroke="#e60000" stroke-linecap="square" stroke-linejoin="bevel" stroke-opacity="1" stroke-width="1" transform="matrix(0.46503,0,0,0.46503,30.9524,52.381)"><text fill="#e60000" fill-opacity="1" font-family="Liberation Sans" font-size="40" font-style="normal" font-weight="400" stroke="none" textLength="45" x="0" xml:space="preserve" y="17.9219">+1</text></g><defs><clipPath id="clip148"><path d="M-10,-2 L65,-2 L65,82 L-10,82 L-10,-2 z"/></clipPath></defs><g clip-path="url(#clip148)" fill="none" opacity="1" stroke="none" stroke-opacity="0" transform="matrix(2.38095,0,0,2.38095,23.8095,4.7619)"><path d="M0,0 L55,0 L55,80 L0,80 L0,0 z" fill-rule="evenodd" vector-effect="none"/></g></g></svg>
