<?xml version="1.0" encoding="UTF-8"?><svg width="52.9167mm" height="27.7812mm" viewBox="0 0 200 105" xmlns="http://www.w3.org/2000/svg" xmlns:xlink="http://www.w3.org/1999/xlink"><g fill="none" stroke="black" stroke-width="1" fill-rule="evenodd" stroke-linecap="square" stroke-linejoin="bevel"><g clip-path="none" fill="none" opacity="1" stroke="none" stroke-opacity="0" transform="matrix(1,0,0,1,0,0)"><path d="M0,0 L200,0 L200,105 L0,105 L0,0 z" fill-rule="evenodd" vector-effect="none"/></g><defs><clipPath id="clip3"><path d="M-2,-2 L70,-2 L70,36 L-2,36 L-2,-2 z"/></clipPath></defs><g clip-path="url(#clip3)" fill="#ffffff" fill-opacity="1" opacity="1" stroke="none" stroke-opacity="0" transform="matrix(2.77778,0,0,2.77778,5.55556,5.55556)"><path d="M0,0 L68,0 L68,34 L0,34 L0,0 z" fill-rule="evenodd" vector-effect="none"/></g><defs><clipPath id="clip8"><path d="M-169,-92 L179,-92 L179,82 L-169,82 L-169,-92 z"/></clipPath></defs><g clip-path="url(#clip8)" fill="none" opacity="1" stroke="#000000" stroke-linecap="butt" stroke-linejoin="miter" stroke-miterlimit="2" stroke-opacity="1" stroke-width="0.36" transform="matrix(0.542535,0,0,0.542535,97.2222,55.5556)"><text fill="#000000" fill-opacity="1" font-family="Liberation Sans" font-size="40" font-style="normal" font-weight="400" stroke="none" textLength="183" x="-119.469" xml:space="preserve" y="17.9219">Model Info</text></g><defs><clipPath id="clip14"><path d="M-2,-2 L70,-2 L70,36 L-2,36 L-2,-2 z"/></clipPath></defs><g clip-path="url(#clip14)" fill="none" opacity="1" stroke="#000000" stroke-linecap="butt" stroke-linejoin="miter" stroke-miterlimit="2" stroke-opacity="1" stroke-width="0.66454" transform="matrix(2.77778,0,0,2.77778,5.55556,5.55556)"><path d="M0,0 L68,0 L68,34 L0,34 L0,0 z" fill-rule="evenodd" vector-effect="none"/></g></g></svg>
