<?xml version="1.0" encoding="UTF-8"?><svg width="38.6292mm" height="52.9167mm" viewBox="0 0 146 200" xmlns="http://www.w3.org/2000/svg" xmlns:xlink="http://www.w3.org/1999/xlink"><g fill="none" stroke="black" stroke-width="1" fill-rule="evenodd" stroke-linecap="square" stroke-linejoin="bevel"><g clip-path="none" fill="none" opacity="1" stroke="none" stroke-opacity="0" transform="matrix(1,0,0,1,0,0)"><path d="M0,0 L146,0 L146,200 L0,200 L0,0 z" fill-rule="evenodd" vector-effect="none"/></g><defs><clipPath id="clip6"><path d="M0,0 L10,0 L10,10 L0,10 L0,0 z"/></clipPath></defs><g clip-path="url(#clip6)" fill="#ffffff" fill-opacity="1" opacity="1" stroke="none" stroke-opacity="0" transform="matrix(-6.12303e-16,3.33333,-3.33333,-6.12303e-16,53.3333,166.667)"><path d="M0.5,0.809 L8.882,5 L0.5,9.191 L0.5,0.809 z" fill-rule="evenodd" vector-effect="none"/></g><defs><clipPath id="clip8"><path d="M0,0 L10,0 L10,10 L0,10 L0,0 z"/></clipPath></defs><g clip-path="url(#clip8)" fill="#000000" fill-opacity="1" opacity="1" stroke="none" stroke-opacity="0" transform="matrix(-6.12303e-16,3.33333,-3.33333,-6.12303e-16,53.3333,166.667)"><path d="M1,1.618 L7.764,5 L1,8.382 L1,1.618 M0,0 L0,10 L10,5 L0,0" fill-rule="nonzero" vector-effect="none"/></g><defs><clipPath id="clip30"><path d="M0,0 L10,0 L10,10 L0,10 L0,0 z"/></clipPath></defs><g clip-path="url(#clip30)" fill="#b3b3b3" fill-opacity="1" opacity="1" stroke="none" stroke-opacity="0" transform="matrix(-6.12303e-16,3.33333,-3.33333,-6.12303e-16,120,166.667)"><path d="M0.5,3.5 L3.5,3.5 L3.5,6.5 L0.5,6.5 L0.5,3.5 z" fill-rule="evenodd" vector-effect="none"/></g><defs><clipPath id="clip32"><path d="M0,0 L10,0 L10,10 L0,10 L0,0 z"/></clipPath></defs><g clip-path="url(#clip32)" fill="#000000" fill-opacity="1" opacity="1" stroke="none" stroke-opacity="0" transform="matrix(-6.12303e-16,3.33333,-3.33333,-6.12303e-16,120,166.667)"><path d="M3,4 L3,6 L1,6 L1,4 L3,4 M4,3 L0,3 L0,7 L4,7 L4,3" fill-rule="nonzero" vector-effect="none"/></g><defs><clipPath id="clip52"><path d="M0,0 L10,0 L10,10 L0,10 L0,0 z"/></clipPath></defs><g clip-path="url(#clip52)" fill="#b3b3b3" fill-opacity="1" opacity="1" stroke="none" stroke-opacity="0" transform="matrix(2.04101e-16,-3.33333,3.33333,2.04101e-16,60,33.3333)"><path d="M0.5,3.5 L3.5,3.5 L3.5,6.5 L0.5,6.5 L0.5,3.5 z" fill-rule="evenodd" vector-effect="none"/></g><defs><clipPath id="clip54"><path d="M0,0 L10,0 L10,10 L0,10 L0,0 z"/></clipPath></defs><g clip-path="url(#clip54)" fill="#000000" fill-opacity="1" opacity="1" stroke="none" stroke-opacity="0" transform="matrix(2.04101e-16,-3.33333,3.33333,2.04101e-16,60,33.3333)"><path d="M3,4 L3,6 L1,6 L1,4 L3,4 M4,3 L0,3 L0,7 L4,7 L4,3" fill-rule="nonzero" vector-effect="none"/></g><defs><clipPath id="clip71"><path d="M-2,-10 L42,-10 L42,50 L-2,50 L-2,-10 z"/></clipPath></defs><g clip-path="url(#clip71)" fill="#ffffff" fill-opacity="1" opacity="1" stroke="none" stroke-opacity="0" transform="matrix(3.33333,0,0,3.33333,6.66667,33.3333)"><path d="M0,0 L40,0 L40,40 L0,40 L0,0 z" fill-rule="evenodd" vector-effect="none"/></g><defs><clipPath id="clip75"><path d="M0,0 L40,0 L40,40 L0,40 L0,0 z"/></clipPath></defs><g clip-path="url(#clip75)" fill="none" opacity="1" stroke="none" stroke-opacity="0" transform="matrix(3.33333,0,0,3.33333,6.66667,33.3333)"><path d="M0,0 L40,0 L40,40 L0,40 L0,0 z" fill-rule="evenodd" vector-effect="none"/></g><defs><clipPath id="clip85"><path d="M1,1 L41,1 L41,41 L1,41 L1,1 z"/></clipPath></defs><g clip-path="url(#clip85)" fill="none" opacity="1" stroke="#3369c9" stroke-linecap="butt" stroke-linejoin="miter" stroke-miterlimit="20" stroke-opacity="1" stroke-width="2.3725" transform="matrix(6.12303e-16,3.33333,3.33333,-6.12303e-16,3.33333,30)"><path d="M25.4183,21.0494 L16.0588,17.7901" fill-rule="nonzero" vector-effect="none"/></g><defs><clipPath id="clip86"><path d="M1,1 L41,1 L41,41 L1,41 L1,1 z"/></clipPath></defs><g clip-path="url(#clip86)" fill="none" opacity="1" stroke="#3369c9" stroke-linecap="butt" stroke-linejoin="miter" stroke-miterlimit="20" stroke-opacity="1" stroke-width="2.3725" transform="matrix(6.12303e-16,3.33333,3.33333,-6.12303e-16,3.33333,30)"><path d="M16.0588,25.7407 L16.0588,22.7778" fill-rule="nonzero" vector-effect="none"/></g><defs><clipPath id="clip87"><path d="M1,1 L41,1 L41,41 L1,41 L1,1 z"/></clipPath></defs><g clip-path="url(#clip87)" fill="none" opacity="1" stroke="#3369c9" stroke-linecap="butt" stroke-linejoin="miter" stroke-miterlimit="20" stroke-opacity="1" stroke-width="2.3725" transform="matrix(6.12303e-16,3.33333,3.33333,-6.12303e-16,3.33333,30)"><path d="M16.0588,19.1234 L16.0588,16.4568" fill-rule="nonzero" vector-effect="none"/></g><defs><clipPath id="clip88"><path d="M1,1 L41,1 L41,41 L1,41 L1,1 z"/></clipPath></defs><g clip-path="url(#clip88)" fill="none" opacity="1" stroke="#3369c9" stroke-linecap="butt" stroke-linejoin="miter" stroke-miterlimit="20" stroke-opacity="1" stroke-width="2.3725" transform="matrix(6.12303e-16,3.33333,3.33333,-6.12303e-16,3.33333,30)"><path d="M9,20.5555 L1,20.5555" fill-rule="nonzero" vector-effect="none"/></g><defs><clipPath id="clip89"><path d="M1,1 L41,1 L41,41 L1,41 L1,1 z"/></clipPath></defs><g clip-path="url(#clip89)" fill="none" opacity="1" stroke="#3369c9" stroke-linecap="butt" stroke-linejoin="miter" stroke-miterlimit="20" stroke-opacity="1" stroke-width="2.3725" transform="matrix(6.12303e-16,3.33333,3.33333,-6.12303e-16,3.33333,30)"><path d="M31.5882,20.5555 L36.2941,20.5555 L36.2941,31.2222 L41,31.2222" fill-rule="nonzero" vector-effect="none"/></g><defs><clipPath id="clip90"><path d="M1,1 L41,1 L41,41 L1,41 L1,1 z"/></clipPath></defs><g clip-path="url(#clip90)" fill="none" opacity="1" stroke="#3369c9" stroke-linecap="butt" stroke-linejoin="miter" stroke-miterlimit="4" stroke-opacity="1" stroke-width="2.3725" transform="matrix(6.12303e-16,3.33333,3.33333,-6.12303e-16,3.33333,30)"><path d="M31.6092,20.5555 C31.6092,26.4575 26.5432,31.242 20.2941,31.242 C14.045,31.242 8.97909,26.4575 8.97909,20.5555 C8.97909,14.6536 14.045,9.86913 20.2941,9.86913 C26.5432,9.86913 31.6092,14.6536 31.6092,20.5555 z" fill-rule="nonzero" vector-effect="none"/></g><defs><clipPath id="clip91"><path d="M1,1 L41,1 L41,41 L1,41 L1,1 z"/></clipPath></defs><g clip-path="url(#clip91)" fill="none" opacity="1" stroke="#3369c9" stroke-linecap="butt" stroke-linejoin="miter" stroke-miterlimit="20" stroke-opacity="1" stroke-width="2.3725" transform="matrix(6.12303e-16,3.33333,3.33333,-6.12303e-16,3.33333,30)"><path d="M1,1 L41,1 L41,41 L1,41 L1,1 z" fill-rule="nonzero" vector-effect="none"/></g><defs><clipPath id="clip92"><path d="M1,1 L41,1 L41,41 L1,41 L1,1 z"/></clipPath></defs><g clip-path="url(#clip92)" fill="none" opacity="1" stroke="#3369c9" stroke-linecap="butt" stroke-linejoin="miter" stroke-miterlimit="20" stroke-opacity="1" stroke-width="2.3725" transform="matrix(6.12303e-16,3.33333,3.33333,-6.12303e-16,3.33333,30)"><path d="M16.0588,24.358 L25.4706,21" fill-rule="nonzero" vector-effect="none"/></g><defs><clipPath id="clip109"><path d="M-15,-154 L189,-154 L189,51 L-15,51 L-15,-154 z"/></clipPath></defs><g clip-path="url(#clip109)" fill="none" opacity="1" stroke="#e60000" stroke-linecap="square" stroke-linejoin="bevel" stroke-opacity="1" stroke-width="1" transform="matrix(0,-0.651042,0.651042,0,106.667,156.667)"><text fill="#e60000" fill-opacity="1" font-family="Liberation Sans" font-size="40" font-style="normal" font-weight="400" stroke="none" textLength="13" x="0" xml:space="preserve" y="17.9219">-</text></g><defs><clipPath id="clip112"><path d="M-189,-102 L15,-102 L15,102 L-189,102 L-189,-102 z"/></clipPath></defs><g clip-path="url(#clip112)" fill="none" opacity="1" stroke="#e60000" stroke-linecap="square" stroke-linejoin="bevel" stroke-opacity="1" stroke-width="1" transform="matrix(0,-0.651042,0.651042,0,73.3333,43.3333)"><text fill="#e60000" fill-opacity="1" font-family="Liberation Sans" font-size="40" font-style="normal" font-weight="400" stroke="none" textLength="23" x="-29.8906" xml:space="preserve" y="17.9219">+</text></g><defs><clipPath id="clip115"><path d="M-15,-51 L189,-51 L189,154 L-15,154 L-15,-51 z"/></clipPath></defs><g clip-path="url(#clip115)" fill="none" opacity="1" stroke="#e60000" stroke-linecap="square" stroke-linejoin="bevel" stroke-opacity="1" stroke-width="1" transform="matrix(0,-0.651042,0.651042,0,40,156.667)"><text fill="#e60000" fill-opacity="1" font-family="Liberation Sans" font-size="40" font-style="normal" font-weight="400" stroke="none" textLength="27" x="0" xml:space="preserve" y="17.9219">V</text></g><defs><clipPath id="clip121"><path d="M-2,-10 L42,-10 L42,50 L-2,50 L-2,-10 z"/></clipPath></defs><g clip-path="url(#clip121)" fill="none" opacity="1" stroke="none" stroke-opacity="0" transform="matrix(3.33333,0,0,3.33333,6.66667,33.3333)"><path d="M0,0 L40,0 L40,40 L0,40 L0,0 z" fill-rule="evenodd" vector-effect="none"/></g></g></svg>
