<?xml version="1.0" encoding="UTF-8"?><svg width="28.0458mm" height="52.9167mm" viewBox="0 0 106 200" xmlns="http://www.w3.org/2000/svg" xmlns:xlink="http://www.w3.org/1999/xlink"><g fill="none" stroke="black" stroke-width="1" fill-rule="evenodd" stroke-linecap="square" stroke-linejoin="bevel"><g clip-path="none" fill="none" opacity="1" stroke="none" stroke-opacity="0" transform="matrix(1,0,0,1,0,0)"><path d="M0,0 L106,0 L106,200 L0,200 L0,0 z" fill-rule="evenodd" vector-effect="none"/></g><defs><clipPath id="clip6"><path d="M0,0 L10,0 L10,10 L0,10 L0,0 z"/></clipPath></defs><g clip-path="url(#clip6)" fill="#b3b3b3" fill-opacity="1" opacity="1" stroke="none" stroke-opacity="0" transform="matrix(-6.12303e-16,3.33333,-3.33333,-6.12303e-16,66.6667,166.667)"><path d="M0.5,3.5 L3.5,3.5 L3.5,6.5 L0.5,6.5 L0.5,3.5 z" fill-rule="evenodd" vector-effect="none"/></g><defs><clipPath id="clip8"><path d="M0,0 L10,0 L10,10 L0,10 L0,0 z"/></clipPath></defs><g clip-path="url(#clip8)" fill="#000000" fill-opacity="1" opacity="1" stroke="none" stroke-opacity="0" transform="matrix(-6.12303e-16,3.33333,-3.33333,-6.12303e-16,66.6667,166.667)"><path d="M3,4 L3,6 L1,6 L1,4 L3,4 M4,3 L0,3 L0,7 L4,7 L4,3" fill-rule="nonzero" vector-effect="none"/></g><defs><clipPath id="clip28"><path d="M0,0 L10,0 L10,10 L0,10 L0,0 z"/></clipPath></defs><g clip-path="url(#clip28)" fill="#b3b3b3" fill-opacity="1" opacity="1" stroke="none" stroke-opacity="0" transform="matrix(2.04101e-16,-3.33333,3.33333,2.04101e-16,40,33.3333)"><path d="M0.5,3.5 L3.5,3.5 L3.5,6.5 L0.5,6.5 L0.5,3.5 z" fill-rule="evenodd" vector-effect="none"/></g><defs><clipPath id="clip30"><path d="M0,0 L10,0 L10,10 L0,10 L0,0 z"/></clipPath></defs><g clip-path="url(#clip30)" fill="#000000" fill-opacity="1" opacity="1" stroke="none" stroke-opacity="0" transform="matrix(2.04101e-16,-3.33333,3.33333,2.04101e-16,40,33.3333)"><path d="M3,4 L3,6 L1,6 L1,4 L3,4 M4,3 L0,3 L0,7 L4,7 L4,3" fill-rule="nonzero" vector-effect="none"/></g><defs><clipPath id="clip47"><path d="M-2,-10 L30,-10 L30,50 L-2,50 L-2,-10 z"/></clipPath></defs><g clip-path="url(#clip47)" fill="#ffffff" fill-opacity="1" opacity="1" stroke="none" stroke-opacity="0" transform="matrix(3.33333,0,0,3.33333,6.66667,33.3333)"><path d="M0,0 L28,0 L28,40 L0,40 L0,0 z" fill-rule="evenodd" vector-effect="none"/></g><defs><clipPath id="clip51"><path d="M0,0 L28,0 L28,40 L0,40 L0,0 z"/></clipPath></defs><g clip-path="url(#clip51)" fill="none" opacity="1" stroke="none" stroke-opacity="0" transform="matrix(3.33333,0,0,3.33333,6.66667,33.3333)"><path d="M0,0 L28,0 L28,40 L0,40 L0,0 z" fill-rule="evenodd" vector-effect="none"/></g><defs><clipPath id="clip61"><path d="M1,1 L41,1 L41,29 L1,29 L1,1 z"/></clipPath></defs><g clip-path="url(#clip61)" fill="none" opacity="1" stroke="#3369c9" stroke-linecap="butt" stroke-linejoin="miter" stroke-miterlimit="20" stroke-opacity="1" stroke-width="2.3725" transform="matrix(6.12303e-16,3.33333,3.33333,-6.12303e-16,3.33333,30)"><path d="M31.2222,15 L41,15" fill-rule="nonzero" vector-effect="none"/></g><defs><clipPath id="clip62"><path d="M1,1 L41,1 L41,29 L1,29 L1,1 z"/></clipPath></defs><g clip-path="url(#clip62)" fill="none" opacity="1" stroke="#3369c9" stroke-linecap="butt" stroke-linejoin="miter" stroke-miterlimit="20" stroke-opacity="1" stroke-width="2.3725" transform="matrix(6.12303e-16,3.33333,3.33333,-6.12303e-16,3.33333,30)"><path d="M10.7778,15 L1,15" fill-rule="nonzero" vector-effect="none"/></g><defs><clipPath id="clip63"><path d="M1,1 L41,1 L41,29 L1,29 L1,1 z"/></clipPath></defs><g clip-path="url(#clip63)" fill="none" opacity="1" stroke="#3369c9" stroke-linecap="butt" stroke-linejoin="miter" stroke-miterlimit="20" stroke-opacity="1" stroke-width="2.3725" transform="matrix(6.12303e-16,3.33333,3.33333,-6.12303e-16,3.33333,30)"><path d="M27.2222,19.2001 L14.573,19.2001" fill-rule="nonzero" vector-effect="none"/></g><defs><clipPath id="clip64"><path d="M1,1 L41,1 L41,29 L1,29 L1,1 z"/></clipPath></defs><g clip-path="url(#clip64)" fill="none" opacity="1" stroke="#3369c9" stroke-linecap="butt" stroke-linejoin="miter" stroke-miterlimit="20" stroke-opacity="1" stroke-width="2.3725" transform="matrix(6.12303e-16,3.33333,3.33333,-6.12303e-16,3.33333,30)"><path d="M17.0174,17.8778 L14.499,19.2001 L17.0174,20.5223" fill-rule="nonzero" vector-effect="none"/></g><defs><clipPath id="clip65"><path d="M1,1 L41,1 L41,29 L1,29 L1,1 z"/></clipPath></defs><g clip-path="url(#clip65)" fill="none" opacity="1" stroke="#3369c9" stroke-linecap="butt" stroke-linejoin="miter" stroke-miterlimit="20" stroke-opacity="1" stroke-width="2.3725" transform="matrix(6.12303e-16,3.33333,3.33333,-6.12303e-16,3.33333,30)"><path d="M20.6049,7.62669 C20.6049,7.62669 20.6053,7.62692 20.6099,7.63056 C20.6143,7.63421 20.6232,7.64121 20.6372,7.65241 C20.6514,7.66361 20.6706,7.67897 20.694,7.69773 C20.7175,7.71648 20.7452,7.73857 20.7746,7.76232 C20.8043,7.78607 20.8357,7.81144 20.8668,7.83657 C20.8978,7.86172 20.9282,7.88657 20.9565,7.90984 C20.9847,7.9331 21.0105,7.95472 21.0339,7.97465 C21.0573,7.99458 21.0782,8.01276 21.0988,8.03114 C21.1193,8.04951 21.1399,8.06826 21.1603,8.08731 C21.1807,8.10637 21.2011,8.12571 21.2212,8.14523 C21.2415,8.16474 21.2616,8.18441 21.2816,8.20415 C21.3016,8.2239 21.3215,8.24373 21.3416,8.26361 C21.3616,8.28348 21.3816,8.30341 21.4018,8.32341 C21.422,8.34342 21.4423,8.36351 21.463,8.38375 C21.4838,8.40399 21.5047,8.4244 21.5262,8.44509 C21.5478,8.46579 21.57,8.48678 21.5926,8.50817 C21.6151,8.52955 21.6385,8.55138 21.6625,8.57392 C21.6867,8.59648 21.7118,8.61971 21.7376,8.64349 C21.7633,8.66727 21.7898,8.69161 21.8166,8.71617 C21.8434,8.74075 21.8704,8.76557 21.8974,8.79034 C21.9246,8.8151 21.9516,8.8398 21.9779,8.86405 C22.0043,8.88832 22.0303,8.91214 22.055,8.93504 C22.0797,8.95792 22.1032,8.97989 22.1251,9.00044 C22.1468,9.02099 22.1669,9.04009 22.1852,9.05781 C22.2034,9.07552 22.2201,9.09186 22.2351,9.10681 C22.25,9.12174 22.2635,9.13532 22.2759,9.14803 C22.2884,9.16071 22.2997,9.17254 22.3106,9.18394 C22.3216,9.19535 22.332,9.20634 22.3424,9.21725 C22.3527,9.22816 22.363,9.23899 22.3733,9.25 C22.3835,9.26103 22.3941,9.27223 22.4048,9.28383 C22.4155,9.29543 22.4265,9.30744 22.4377,9.31992 C22.4489,9.3324 22.4602,9.34536 22.4716,9.35855 C22.483,9.37173 22.4941,9.38506 22.5052,9.39847 C22.5162,9.41187 22.5274,9.42533 22.5384,9.4388 C22.5495,9.45226 22.5605,9.46574 22.5715,9.47922 C22.5825,9.49271 22.5936,9.50619 22.6046,9.51972 C22.6155,9.53325 22.6265,9.54682 22.6374,9.56049 C22.6481,9.57418 22.6589,9.58799 22.6693,9.60203 C22.6798,9.61608 22.69,9.63036 22.6999,9.64505 C22.7098,9.65974 22.7193,9.67484 22.7284,9.6904 C22.7374,9.70596 22.7462,9.72198 22.7549,9.7385 C22.7636,9.75502 22.7723,9.77205 22.7814,9.78939 C22.7904,9.80674 22.7995,9.82442 22.8089,9.84226 C22.8181,9.86008 22.8275,9.87807 22.8365,9.89608 C22.8458,9.91409 22.8548,9.9321 22.8632,9.95001 C22.8718,9.96791 22.8795,9.98571 22.8862,10.0033 C22.8928,10.0208 22.8983,10.0382 22.9017,10.0551 C22.9053,10.0721 22.9068,10.0888 22.9062,10.1052 C22.9055,10.1216 22.9029,10.1378 22.8981,10.1538 C22.8935,10.1697 22.8869,10.1854 22.8793,10.201 C22.8716,10.2166 22.8627,10.232 22.8533,10.2473 C22.8439,10.2627 22.8341,10.2779 22.8239,10.2932 C22.8137,10.3084 22.8034,10.3237 22.7931,10.339 C22.7829,10.3542 22.7725,10.3696 22.7621,10.385 C22.7519,10.4004 22.7417,10.4159 22.7312,10.4315 C22.7208,10.4471 22.7101,10.4628 22.6988,10.4786 C22.6874,10.4943 22.6754,10.5101 22.6627,10.526 C22.65,10.5419 22.6365,10.5579 22.6229,10.5739 C22.609,10.5899 22.5947,10.606 22.5804,10.6221 C22.5659,10.6382 22.5513,10.6543 22.5366,10.6704 C22.522,10.6865 22.5072,10.7026 22.4925,10.7187 C22.4779,10.7348 22.4632,10.7509 22.4487,10.7669 C22.4342,10.7829 22.4199,10.7989 22.4056,10.8148 C22.3913,10.8307 22.3771,10.8465 22.363,10.8623 C22.3488,10.878 22.3345,10.8937 22.3205,10.9092 C22.3065,10.9247 22.2928,10.9399 22.2793,10.955 C22.2658,10.9701 22.2525,10.985 22.2393,10.9998 C22.2262,11.0147 22.2132,11.0294 22.2,11.0442 C22.1868,11.0589 22.1737,11.0738 22.16,11.0888 C22.1465,11.1038 22.1325,11.119 22.1179,11.1347 C22.103,11.1503 22.0876,11.1665 22.0709,11.1832 C22.0543,11.2 22.0364,11.2174 22.0173,11.2356 C21.9982,11.2537 21.9778,11.2725 21.9564,11.2917 C21.935,11.3109 21.9127,11.3305 21.8897,11.3502 C21.8668,11.3699 21.8434,11.3898 21.8196,11.4097 C21.7959,11.4296 21.7718,11.4497 21.7478,11.4698 C21.7236,11.4899 21.6993,11.5102 21.6749,11.5308 C21.6504,11.5513 21.6257,11.5722 21.6008,11.5937 C21.5758,11.6152 21.5504,11.6373 21.5246,11.6604 C21.4986,11.6836 21.4721,11.7079 21.4444,11.7334 C21.4168,11.7589 21.3883,11.7856 21.359,11.8135 C21.3297,11.8415 21.2996,11.8705 21.2691,11.9003 C21.2387,11.9301 21.2077,11.9606 21.1766,11.9914 C21.1455,12.0222 21.1142,12.0534 21.0826,12.0847 C21.0512,12.1159 21.0197,12.1473 20.988,12.1786 C20.9562,12.21 20.9244,12.2412 20.8923,12.2724 C20.8602,12.3036 20.8278,12.3347 20.7947,12.3658 C20.7618,12.3969 20.7282,12.428 20.6938,12.4593 C20.6594,12.4906 20.6242,12.5223 20.5876,12.5547 C20.5511,12.5871 20.5132,12.6203 20.4744,12.654 C20.4355,12.6878 20.3957,12.7221 20.3554,12.7568 C20.3151,12.7914 20.2744,12.8263 20.2337,12.8612 C20.1931,12.896 20.1526,12.9307 20.1127,12.9648 C20.0729,12.9988 20.0337,13.0323 19.9962,13.0645 C19.9587,13.0967 19.9226,13.1276 19.889,13.1565 C19.8553,13.1854 19.824,13.2122 19.7951,13.2371 C19.7661,13.2619 19.7393,13.2848 19.7146,13.3057 C19.6899,13.3266 19.6673,13.3456 19.6459,13.3633 C19.6247,13.3811 19.6046,13.3977 19.5852,13.4137 C19.5658,13.4297 19.547,13.4452 19.5284,13.4605 C19.5098,13.4758 19.4914,13.4909 19.4727,13.5063 C19.4541,13.5216 19.4355,13.5371 19.4166,13.5529 C19.3977,13.5688 19.3784,13.585 19.3592,13.6016 C19.3397,13.6181 19.3203,13.635 19.3012,13.6519 C19.2821,13.6687 19.2634,13.6855 19.2449,13.7021 C19.2263,13.7187 19.2082,13.7352 19.1901,13.7516 C19.172,13.768 19.1542,13.7843 19.1365,13.8006 C19.1185,13.8169 19.1009,13.8331 19.0831,13.8494 C19.0655,13.8656 19.0477,13.8818 19.0303,13.8981 C19.0127,13.9144 18.9951,13.9307 18.9778,13.947 C18.9605,13.9634 18.9432,13.9798 18.9264,13.9963 C18.9095,14.0127 18.8928,14.0293 18.8765,14.046 C18.8602,14.0626 18.8444,14.0793 18.8288,14.0962 C18.8132,14.1131 18.7977,14.1301 18.7824,14.1473 C18.7671,14.1645 18.7518,14.1819 18.7366,14.1993 C18.7215,14.2167 18.7063,14.2342 18.6914,14.2516 C18.6764,14.2691 18.6614,14.2865 18.6464,14.3038 C18.6316,14.3211 18.6169,14.3382 18.6025,14.355 C18.5881,14.3717 18.574,14.3882 18.5603,14.4041 C18.5467,14.4201 18.5335,14.4355 18.521,14.4504 C18.5085,14.4653 18.4965,14.4797 18.4848,14.4936 C18.4731,14.5076 18.4616,14.5211 18.4502,14.5342 C18.4388,14.5474 18.4275,14.5603 18.4163,14.5731 C18.4049,14.5859 18.3937,14.5986 18.3827,14.6112 C18.3717,14.6238 18.3607,14.6363 18.3501,14.6489 C18.3394,14.6614 18.329,14.674 18.3195,14.6866 C18.31,14.6991 18.3011,14.7117 18.2933,14.7242 C18.2858,14.7367 18.2792,14.7492 18.2741,14.7615 C18.269,14.7738 18.2652,14.786 18.2624,14.7977 C18.2596,14.8094 18.2578,14.8207 18.2566,14.8316 C18.2555,14.8426 18.255,14.8533 18.2546,14.8638 C18.2543,14.8743 18.2541,14.8846 18.2543,14.895 C18.2545,14.9054 18.2546,14.9159 18.2553,14.9267 C18.2558,14.9375 18.2565,14.9486 18.2578,14.9603 C18.2589,14.9721 18.2606,14.9845 18.2632,14.998 C18.2658,15.0115 18.2693,15.026 18.2741,15.0415 C18.2788,15.0571 18.2848,15.0737 18.292,15.0916 C18.2993,15.1094 18.3076,15.1285 18.317,15.1485 C18.3262,15.1684 18.3363,15.1892 18.3467,15.2104 C18.357,15.2317 18.3677,15.2533 18.3786,15.2749 C18.3895,15.2965 18.4003,15.3181 18.4112,15.3393 C18.4219,15.3605 18.4326,15.3813 18.4428,15.4012 C18.4532,15.4212 18.4632,15.4403 18.4729,15.4582 C18.4826,15.476 18.492,15.4926 18.5012,15.5082 C18.5104,15.5238 18.5197,15.5383 18.5287,15.5517 C18.5379,15.5651 18.5468,15.5774 18.5557,15.589 C18.5648,15.6006 18.5735,15.6115 18.5824,15.622 C18.5911,15.6326 18.5998,15.6428 18.6086,15.6529 C18.6174,15.6631 18.6262,15.6732 18.6351,15.6836 C18.6439,15.6939 18.6528,15.7045 18.6619,15.7155 C18.6709,15.7265 18.6802,15.738 18.6895,15.7502 C18.6989,15.7623 18.7086,15.775 18.7185,15.7882 C18.7284,15.8014 18.7384,15.815 18.7486,15.8289 C18.7587,15.8428 18.7689,15.857 18.7789,15.8715 C18.7891,15.8859 18.7992,15.9006 18.8092,15.9153 C18.8193,15.93 18.8293,15.9449 18.8395,15.9597 C18.8497,15.9746 18.8597,15.9895 18.8703,16.0045 C18.8807,16.0194 18.8912,16.0344 18.9022,16.0494 C18.9132,16.0644 18.9246,16.0795 18.9368,16.0947 C18.949,16.1099 18.9616,16.1252 18.9753,16.1408 C18.9888,16.1563 19.0033,16.1721 19.0183,16.1882 C19.0334,16.2042 19.0494,16.2204 19.0657,16.2369 C19.082,16.2533 19.0988,16.2698 19.1159,16.2865 C19.1328,16.3031 19.1501,16.3198 19.1674,16.3365 C19.1848,16.3532 19.2021,16.37 19.2194,16.3867 C19.2367,16.4034 19.2538,16.42 19.2709,16.4366 C19.2879,16.4532 19.3047,16.4696 19.3211,16.486 C19.3378,16.5024 19.3541,16.5187 19.3704,16.5349 C19.3867,16.5511 19.4028,16.5672 19.4189,16.5833 C19.4351,16.5993 19.4512,16.6153 19.4672,16.6312 C19.4831,16.6471 19.4993,16.663 19.5151,16.6788 C19.531,16.6947 19.547,16.7105 19.563,16.7263 C19.5789,16.7421 19.5949,16.7578 19.6109,16.7737 C19.6267,16.7896 19.6428,16.8055 19.6588,16.8214 C19.6747,16.8375 19.6909,16.8534 19.707,16.8697 C19.7231,16.8859 19.7393,16.9021 19.7555,16.9186 C19.7718,16.935 19.7881,16.9516 19.8044,16.9683 C19.8207,16.9849 19.8372,17.0019 19.8537,17.019 C19.87,17.0361 19.8864,17.0532 19.9029,17.0705 C19.9193,17.0878 19.9358,17.1052 19.9523,17.1225 C19.9687,17.1398 19.9852,17.1571 20.0016,17.1744 C20.0181,17.1917 20.0346,17.2086 20.0512,17.2255 C20.0676,17.2425 20.0841,17.2591 20.1007,17.2753 C20.1174,17.2916 20.134,17.3075 20.1506,17.323 C20.1672,17.3386 20.184,17.3538 20.2015,17.3692 C20.2189,17.3845 20.2369,17.3999 20.2555,17.4155 C20.2739,17.431 20.293,17.4468 20.3124,17.4627 C20.3317,17.4784 20.3513,17.4943 20.3707,17.5102 C20.3903,17.5259 20.4095,17.5415 20.4281,17.5567 C20.4467,17.5717 20.4645,17.5864 20.481,17.6001 C20.4974,17.6137 20.5123,17.6263 20.5249,17.6374 C20.5374,17.6483 20.5476,17.6576 20.5555,17.6652 C20.5633,17.6728 20.5689,17.6787 20.5722,17.683 C20.5755,17.6875 20.5765,17.6905 20.5756,17.6924 C20.575,17.6943 20.5725,17.6951 20.569,17.6951 C20.5656,17.6953 20.5611,17.6948 20.5565,17.6939 C20.5519,17.6931 20.5472,17.6919 20.5429,17.6908 C20.5388,17.6898 20.535,17.6887 20.5323,17.6879 C20.5295,17.6872 20.5279,17.6865 20.5269,17.6863 C20.5259,17.686 20.5259,17.686 20.5259,17.686" fill-rule="nonzero" vector-effect="none"/></g><defs><clipPath id="clip66"><path d="M1,1 L41,1 L41,29 L1,29 L1,1 z"/></clipPath></defs><g clip-path="url(#clip66)" fill="none" opacity="1" stroke="#3369c9" stroke-linecap="butt" stroke-linejoin="miter" stroke-miterlimit="4" stroke-opacity="1" stroke-width="2.3725" transform="matrix(6.12303e-16,3.33333,3.33333,-6.12303e-16,3.33333,30)"><path d="M30.9654,14.803 C30.9654,20.582 26.5037,25.2667 21,25.2667 C15.4962,25.2667 11.0346,20.582 11.0346,14.803 C11.0346,9.02405 15.4962,4.33927 21,4.33927 C26.5037,4.33927 30.9654,9.02405 30.9654,14.803 z" fill-rule="nonzero" vector-effect="none"/></g><defs><clipPath id="clip67"><path d="M1,1 L41,1 L41,29 L1,29 L1,1 z"/></clipPath></defs><g clip-path="url(#clip67)" fill="none" opacity="1" stroke="#ffffff" stroke-linecap="butt" stroke-linejoin="miter" stroke-miterlimit="20" stroke-opacity="1" stroke-width="2.3725" transform="matrix(6.12303e-16,3.33333,3.33333,-6.12303e-16,3.33333,30)"><path d="M1,1 L41,1 L41,29.0001 L1,29.0001 L1,1 z" fill-rule="nonzero" vector-effect="none"/></g><defs><clipPath id="clip87"><path d="M-2,-10 L30,-10 L30,50 L-2,50 L-2,-10 z"/></clipPath></defs><g clip-path="url(#clip87)" fill="none" opacity="1" stroke="none" stroke-opacity="0" transform="matrix(3.33333,0,0,3.33333,6.66667,33.3333)"><path d="M0,0 L28,0 L28,40 L0,40 L0,0 z" fill-rule="evenodd" vector-effect="none"/></g></g></svg>
