<?xml version="1.0" encoding="UTF-8"?><svg width="38.6292mm" height="52.9167mm" viewBox="0 0 146 200" xmlns="http://www.w3.org/2000/svg" xmlns:xlink="http://www.w3.org/1999/xlink"><g fill="none" stroke="black" stroke-width="1" fill-rule="evenodd" stroke-linecap="square" stroke-linejoin="bevel"><g clip-path="none" fill="none" opacity="1" stroke="none" stroke-opacity="0" transform="matrix(1,0,0,1,0,0)"><path d="M0,0 L146,0 L146,200 L0,200 L0,0 z" fill-rule="evenodd" vector-effect="none"/></g><defs><clipPath id="clip6"><path d="M0,0 L10,0 L10,10 L0,10 L0,0 z"/></clipPath></defs><g clip-path="url(#clip6)" fill="#b3b3b3" fill-opacity="1" opacity="1" stroke="none" stroke-opacity="0" transform="matrix(-6.12303e-16,3.33333,-3.33333,-6.12303e-16,120,166.667)"><path d="M0.5,3.5 L3.5,3.5 L3.5,6.5 L0.5,6.5 L0.5,3.5 z" fill-rule="evenodd" vector-effect="none"/></g><defs><clipPath id="clip8"><path d="M0,0 L10,0 L10,10 L0,10 L0,0 z"/></clipPath></defs><g clip-path="url(#clip8)" fill="#000000" fill-opacity="1" opacity="1" stroke="none" stroke-opacity="0" transform="matrix(-6.12303e-16,3.33333,-3.33333,-6.12303e-16,120,166.667)"><path d="M3,4 L3,6 L1,6 L1,4 L3,4 M4,3 L0,3 L0,7 L4,7 L4,3" fill-rule="nonzero" vector-effect="none"/></g><defs><clipPath id="clip29"><path d="M0,0 L10,0 L10,10 L0,10 L0,0 z"/></clipPath></defs><g clip-path="url(#clip29)" fill="#ffffff" fill-opacity="1" opacity="1" stroke="none" stroke-opacity="0" transform="matrix(6.12303e-16,-3.33333,-3.33333,-6.12303e-16,53.3333,200)"><path d="M8.882,5 L0.5,9.191 L0.5,0.809 L8.882,5 z" fill-rule="evenodd" vector-effect="none"/></g><defs><clipPath id="clip31"><path d="M0,0 L10,0 L10,10 L0,10 L0,0 z"/></clipPath></defs><g clip-path="url(#clip31)" fill="#000000" fill-opacity="1" opacity="1" stroke="none" stroke-opacity="0" transform="matrix(6.12303e-16,-3.33333,-3.33333,-6.12303e-16,53.3333,200)"><path d="M1,1.618 L7.764,5 L1,8.382 L1,1.618 M0,0 L0,10 L10,5 L0,0" fill-rule="nonzero" vector-effect="none"/></g><defs><clipPath id="clip53"><path d="M0,0 L10,0 L10,10 L0,10 L0,0 z"/></clipPath></defs><g clip-path="url(#clip53)" fill="#b3b3b3" fill-opacity="1" opacity="1" stroke="none" stroke-opacity="0" transform="matrix(2.04101e-16,-3.33333,3.33333,2.04101e-16,60,33.3333)"><path d="M0.5,3.5 L3.5,3.5 L3.5,6.5 L0.5,6.5 L0.5,3.5 z" fill-rule="evenodd" vector-effect="none"/></g><defs><clipPath id="clip55"><path d="M0,0 L10,0 L10,10 L0,10 L0,0 z"/></clipPath></defs><g clip-path="url(#clip55)" fill="#000000" fill-opacity="1" opacity="1" stroke="none" stroke-opacity="0" transform="matrix(2.04101e-16,-3.33333,3.33333,2.04101e-16,60,33.3333)"><path d="M3,4 L3,6 L1,6 L1,4 L3,4 M4,3 L0,3 L0,7 L4,7 L4,3" fill-rule="nonzero" vector-effect="none"/></g><defs><clipPath id="clip72"><path d="M-2,-10 L42,-10 L42,50 L-2,50 L-2,-10 z"/></clipPath></defs><g clip-path="url(#clip72)" fill="#ffffff" fill-opacity="1" opacity="1" stroke="none" stroke-opacity="0" transform="matrix(3.33333,0,0,3.33333,6.66667,33.3333)"><path d="M0,0 L40,0 L40,40 L0,40 L0,0 z" fill-rule="evenodd" vector-effect="none"/></g><defs><clipPath id="clip76"><path d="M0,0 L40,0 L40,40 L0,40 L0,0 z"/></clipPath></defs><g clip-path="url(#clip76)" fill="none" opacity="1" stroke="none" stroke-opacity="0" transform="matrix(3.33333,0,0,3.33333,6.66667,33.3333)"><path d="M0,0 L40,0 L40,40 L0,40 L0,0 z" fill-rule="evenodd" vector-effect="none"/></g><defs><clipPath id="clip86"><path d="M1,1 L41,1 L41,41 L1,41 L1,1 z"/></clipPath></defs><g clip-path="url(#clip86)" fill="none" opacity="1" stroke="#3369c9" stroke-linecap="butt" stroke-linejoin="miter" stroke-miterlimit="20" stroke-opacity="1" stroke-width="2.3725" transform="matrix(6.12303e-16,3.33333,3.33333,-6.12303e-16,3.33333,30)"><path d="M26.8059,21.0691 L15.5123,21.0691" fill-rule="nonzero" vector-effect="none"/></g><defs><clipPath id="clip87"><path d="M1,1 L41,1 L41,41 L1,41 L1,1 z"/></clipPath></defs><g clip-path="url(#clip87)" fill="none" opacity="1" stroke="#3369c9" stroke-linecap="butt" stroke-linejoin="miter" stroke-miterlimit="20" stroke-opacity="1" stroke-width="2.3725" transform="matrix(6.12303e-16,3.33333,3.33333,-6.12303e-16,3.33333,30)"><path d="M17.9519,19.8099 L15.4384,21.0691 L17.9519,22.3284" fill-rule="nonzero" vector-effect="none"/></g><defs><clipPath id="clip88"><path d="M1,1 L41,1 L41,41 L1,41 L1,1 z"/></clipPath></defs><g clip-path="url(#clip88)" fill="none" opacity="1" stroke="#3369c9" stroke-linecap="butt" stroke-linejoin="miter" stroke-miterlimit="4" stroke-opacity="1" stroke-width="2.3725" transform="matrix(6.12303e-16,3.33333,3.33333,-6.12303e-16,3.33333,30)"><path d="M32.1386,21.0691 C32.1386,27.2111 27.1693,32.1901 21.0395,32.1901 C14.9096,32.1901 9.94039,27.2111 9.94039,21.0691 C9.94039,14.9272 14.9096,9.94814 21.0395,9.94814 C27.1693,9.94814 32.1386,14.9272 32.1386,21.0691 z" fill-rule="nonzero" vector-effect="none"/></g><defs><clipPath id="clip89"><path d="M1,1 L41,1 L41,41 L1,41 L1,1 z"/></clipPath></defs><g clip-path="url(#clip89)" fill="none" opacity="1" stroke="#3369c9" stroke-linecap="butt" stroke-linejoin="miter" stroke-miterlimit="20" stroke-opacity="1" stroke-width="2.3725" transform="matrix(6.12303e-16,3.33333,3.33333,-6.12303e-16,3.33333,30)"><path d="M1,1 L41.0001,1 L41.0001,41 L1,41 L1,1 z" fill-rule="nonzero" vector-effect="none"/></g><defs><clipPath id="clip109"><path d="M-2,-10 L42,-10 L42,50 L-2,50 L-2,-10 z"/></clipPath></defs><g clip-path="url(#clip109)" fill="none" opacity="1" stroke="none" stroke-opacity="0" transform="matrix(3.33333,0,0,3.33333,6.66667,33.3333)"><path d="M0,0 L40,0 L40,40 L0,40 L0,0 z" fill-rule="evenodd" vector-effect="none"/></g></g></svg>
