<?xml version="1.0" encoding="UTF-8"?><svg width="32.5437mm" height="52.9167mm" viewBox="0 0 123 200" xmlns="http://www.w3.org/2000/svg" xmlns:xlink="http://www.w3.org/1999/xlink"><g fill="none" stroke="black" stroke-width="1" fill-rule="evenodd" stroke-linecap="square" stroke-linejoin="bevel"><g clip-path="none" fill="none" opacity="1" stroke="none" stroke-opacity="0" transform="matrix(1,0,0,1,0,0)"><path d="M0,0 L123,0 L123,200 L0,200 L0,0 z" fill-rule="evenodd" vector-effect="none"/></g><defs><clipPath id="clip6"><path d="M0,0 L10,0 L10,10 L0,10 L0,0 z"/></clipPath></defs><g clip-path="url(#clip6)" fill="#b3b3b3" fill-opacity="1" opacity="1" stroke="none" stroke-opacity="0" transform="matrix(2.35501e-16,-3.84615,3.84615,2.35501e-16,46.1538,38.4615)"><path d="M0.5,3.5 L3.5,3.5 L3.5,6.5 L0.5,6.5 L0.5,3.5 z" fill-rule="evenodd" vector-effect="none"/></g><defs><clipPath id="clip8"><path d="M0,0 L10,0 L10,10 L0,10 L0,0 z"/></clipPath></defs><g clip-path="url(#clip8)" fill="#000000" fill-opacity="1" opacity="1" stroke="none" stroke-opacity="0" transform="matrix(2.35501e-16,-3.84615,3.84615,2.35501e-16,46.1538,38.4615)"><path d="M3,4 L3,6 L1,6 L1,4 L3,4 M4,3 L0,3 L0,7 L4,7 L4,3" fill-rule="nonzero" vector-effect="none"/></g><defs><clipPath id="clip25"><path d="M-2,-10 L30,-10 L30,42 L-2,42 L-2,-10 z"/></clipPath></defs><g clip-path="url(#clip25)" fill="#ffffff" fill-opacity="1" opacity="1" stroke="none" stroke-opacity="0" transform="matrix(3.84615,0,0,3.84615,7.69231,38.4615)"><path d="M0,0 L28,0 L28,40 L0,40 L0,0 z" fill-rule="evenodd" vector-effect="none"/></g><defs><clipPath id="clip29"><path d="M0,0 L28,0 L28,40 L0,40 L0,0 z"/></clipPath></defs><g clip-path="url(#clip29)" fill="none" opacity="1" stroke="none" stroke-opacity="0" transform="matrix(3.84615,0,0,3.84615,7.69231,38.4615)"><path d="M0,0 L28,0 L28,40 L0,40 L0,0 z" fill-rule="evenodd" vector-effect="none"/></g><defs><clipPath id="clip39"><path d="M1,1 L41,1 L41,29 L1,29 L1,1 z"/></clipPath></defs><g clip-path="url(#clip39)" fill="none" opacity="1" stroke="#b09952" stroke-linecap="butt" stroke-linejoin="miter" stroke-miterlimit="20" stroke-opacity="1" stroke-width="1.8525" transform="matrix(7.06504e-16,3.84615,3.84615,-7.06504e-16,3.84615,34.6154)"><path d="M1,15 L10.5238,15 L14.3334,15" fill-rule="nonzero" vector-effect="none"/></g><defs><clipPath id="clip40"><path d="M1,1 L41,1 L41,29 L1,29 L1,1 z"/></clipPath></defs><g clip-path="url(#clip40)" fill="none" opacity="1" stroke="#b09952" stroke-linecap="butt" stroke-linejoin="miter" stroke-miterlimit="20" stroke-opacity="1" stroke-width="1.8525" transform="matrix(7.06504e-16,3.84615,3.84615,-7.06504e-16,3.84615,34.6154)"><path d="M10.5238,17.3334 L10.5238,24.3334 L25.762,24.3334 L25.762,5.66668 L10.5238,5.66668 L10.5238,12.6667" fill-rule="nonzero" vector-effect="none"/></g><defs><clipPath id="clip41"><path d="M1,1 L41,1 L41,29 L1,29 L1,1 z"/></clipPath></defs><g clip-path="url(#clip41)" fill="none" opacity="1" stroke="#b09952" stroke-linecap="butt" stroke-linejoin="miter" stroke-miterlimit="20" stroke-opacity="1" stroke-width="1.8525" transform="matrix(7.06504e-16,3.84615,3.84615,-7.06504e-16,3.84615,34.6154)"><path d="M25.762,15 L35.2858,15 L37.1906,15" fill-rule="nonzero" vector-effect="none"/></g><defs><clipPath id="clip42"><path d="M1,1 L41,1 L41,29 L1,29 L1,1 z"/></clipPath></defs><g clip-path="url(#clip42)" fill="none" opacity="1" stroke="#b09952" stroke-linecap="butt" stroke-linejoin="miter" stroke-miterlimit="20" stroke-opacity="1" stroke-width="1.8525" transform="matrix(7.06504e-16,3.84615,3.84615,-7.06504e-16,3.84615,34.6154)"><path d="M37.1906,18.7334 L37.1906,11.2667" fill-rule="nonzero" vector-effect="none"/></g><defs><clipPath id="clip43"><path d="M1,1 L41,1 L41,29 L1,29 L1,1 z"/></clipPath></defs><g clip-path="url(#clip43)" fill="none" opacity="1" stroke="#ffffff" stroke-linecap="butt" stroke-linejoin="miter" stroke-miterlimit="20" stroke-opacity="1" stroke-width="1.8525" transform="matrix(7.06504e-16,3.84615,3.84615,-7.06504e-16,3.84615,34.6154)"><path d="M1,1 L41.0001,1 L41.0001,29.0001 L1,29.0001 L1,1 z" fill-rule="nonzero" vector-effect="none"/></g><defs><clipPath id="clip63"><path d="M-2,-10 L30,-10 L30,42 L-2,42 L-2,-10 z"/></clipPath></defs><g clip-path="url(#clip63)" fill="none" opacity="1" stroke="none" stroke-opacity="0" transform="matrix(3.84615,0,0,3.84615,7.69231,38.4615)"><path d="M0,0 L28,0 L28,40 L0,40 L0,0 z" fill-rule="evenodd" vector-effect="none"/></g></g></svg>
