<?xml version="1.0" encoding="UTF-8"?><svg width="52.9167mm" height="43.9208mm" viewBox="0 0 200 166" xmlns="http://www.w3.org/2000/svg" xmlns:xlink="http://www.w3.org/1999/xlink"><g fill="none" stroke="black" stroke-width="1" fill-rule="evenodd" stroke-linecap="square" stroke-linejoin="bevel"><g clip-path="none" fill="none" opacity="1" stroke="none" stroke-opacity="0" transform="matrix(1,0,0,1,0,0)"><path d="M0,0 L200,0 L200,166 L0,166 L0,0 z" fill-rule="evenodd" vector-effect="none"/></g><defs><clipPath id="clip6"><path d="M0,0 L10,0 L10,10 L0,10 L0,0 z"/></clipPath></defs><g clip-path="url(#clip6)" fill="#b3b3b3" fill-opacity="1" opacity="1" stroke="none" stroke-opacity="0" transform="matrix(-4.37359e-16,2.38095,-2.38095,-4.37359e-16,157.143,142.857)"><path d="M0.5,3.5 L3.5,3.5 L3.5,6.5 L0.5,6.5 L0.5,3.5 z" fill-rule="evenodd" vector-effect="none"/></g><defs><clipPath id="clip8"><path d="M0,0 L10,0 L10,10 L0,10 L0,0 z"/></clipPath></defs><g clip-path="url(#clip8)" fill="#000000" fill-opacity="1" opacity="1" stroke="none" stroke-opacity="0" transform="matrix(-4.37359e-16,2.38095,-2.38095,-4.37359e-16,157.143,142.857)"><path d="M3,4 L3,6 L1,6 L1,4 L3,4 M4,3 L0,3 L0,7 L4,7 L4,3" fill-rule="nonzero" vector-effect="none"/></g><defs><clipPath id="clip28"><path d="M0,0 L10,0 L10,10 L0,10 L0,0 z"/></clipPath></defs><g clip-path="url(#clip28)" fill="#b3b3b3" fill-opacity="1" opacity="1" stroke="none" stroke-opacity="0" transform="matrix(-4.37359e-16,2.38095,-2.38095,-4.37359e-16,61.9048,142.857)"><path d="M0.5,3.5 L3.5,3.5 L3.5,6.5 L0.5,6.5 L0.5,3.5 z" fill-rule="evenodd" vector-effect="none"/></g><defs><clipPath id="clip30"><path d="M0,0 L10,0 L10,10 L0,10 L0,0 z"/></clipPath></defs><g clip-path="url(#clip30)" fill="#000000" fill-opacity="1" opacity="1" stroke="none" stroke-opacity="0" transform="matrix(-4.37359e-16,2.38095,-2.38095,-4.37359e-16,61.9048,142.857)"><path d="M3,4 L3,6 L1,6 L1,4 L3,4 M4,3 L0,3 L0,7 L4,7 L4,3" fill-rule="nonzero" vector-effect="none"/></g><defs><clipPath id="clip50"><path d="M0,0 L10,0 L10,10 L0,10 L0,0 z"/></clipPath></defs><g clip-path="url(#clip50)" fill="#b3b3b3" fill-opacity="1" opacity="1" stroke="none" stroke-opacity="0" transform="matrix(1.45786e-16,-2.38095,2.38095,1.45786e-16,42.8571,23.8095)"><path d="M0.5,3.5 L3.5,3.5 L3.5,6.5 L0.5,6.5 L0.5,3.5 z" fill-rule="evenodd" vector-effect="none"/></g><defs><clipPath id="clip52"><path d="M0,0 L10,0 L10,10 L0,10 L0,0 z"/></clipPath></defs><g clip-path="url(#clip52)" fill="#000000" fill-opacity="1" opacity="1" stroke="none" stroke-opacity="0" transform="matrix(1.45786e-16,-2.38095,2.38095,1.45786e-16,42.8571,23.8095)"><path d="M3,4 L3,6 L1,6 L1,4 L3,4 M4,3 L0,3 L0,7 L4,7 L4,3" fill-rule="nonzero" vector-effect="none"/></g><defs><clipPath id="clip72"><path d="M0,0 L10,0 L10,10 L0,10 L0,0 z"/></clipPath></defs><g clip-path="url(#clip72)" fill="#b3b3b3" fill-opacity="1" opacity="1" stroke="none" stroke-opacity="0" transform="matrix(1.45786e-16,-2.38095,2.38095,1.45786e-16,138.095,23.8095)"><path d="M0.5,3.5 L3.5,3.5 L3.5,6.5 L0.5,6.5 L0.5,3.5 z" fill-rule="evenodd" vector-effect="none"/></g><defs><clipPath id="clip74"><path d="M0,0 L10,0 L10,10 L0,10 L0,0 z"/></clipPath></defs><g clip-path="url(#clip74)" fill="#000000" fill-opacity="1" opacity="1" stroke="none" stroke-opacity="0" transform="matrix(1.45786e-16,-2.38095,2.38095,1.45786e-16,138.095,23.8095)"><path d="M3,4 L3,6 L1,6 L1,4 L3,4 M4,3 L0,3 L0,7 L4,7 L4,3" fill-rule="nonzero" vector-effect="none"/></g><defs><clipPath id="clip91"><path d="M-2,-10 L82,-10 L82,60 L-2,60 L-2,-10 z"/></clipPath></defs><g clip-path="url(#clip91)" fill="#ffffff" fill-opacity="1" opacity="1" stroke="none" stroke-opacity="0" transform="matrix(2.38095,0,0,2.38095,4.7619,23.8095)"><path d="M0,0 L80,0 L80,50 L0,50 L0,0 z" fill-rule="evenodd" vector-effect="none"/></g><defs><clipPath id="clip95"><path d="M0,0 L80,0 L80,50 L0,50 L0,0 z"/></clipPath></defs><g clip-path="url(#clip95)" fill="none" opacity="1" stroke="none" stroke-opacity="0" transform="matrix(2.38095,0,0,2.38095,4.7619,23.8095)"><path d="M0,0 L80,0 L80,50 L0,50 L0,0 z" fill-rule="evenodd" vector-effect="none"/></g><defs><clipPath id="clip105"><path d="M1,1 L51,1 L51,81 L1,81 L1,1 z"/></clipPath></defs><g clip-path="url(#clip105)" fill="none" opacity="1" stroke="#ffffff" stroke-linecap="butt" stroke-linejoin="miter" stroke-miterlimit="20" stroke-opacity="1" stroke-width="2.6975" transform="matrix(4.37359e-16,2.38095,2.38095,-4.37359e-16,2.38095,21.4286)"><path d="M0.999999,1.00001 L50.9999,1.00001 L50.9999,81.0001 L0.999999,81.0001 L0.999999,1.00001 z" fill-rule="nonzero" vector-effect="none"/></g><defs><clipPath id="clip106"><path d="M1,1 L51,1 L51,81 L1,81 L1,1 z"/></clipPath></defs><g clip-path="url(#clip106)" fill="none" opacity="1" stroke="#44805c" stroke-linecap="butt" stroke-linejoin="miter" stroke-miterlimit="20" stroke-opacity="1" stroke-width="2.6975" transform="matrix(4.37359e-16,2.38095,2.38095,-4.37359e-16,2.38095,21.4286)"><path d="M17.25,61.0001 L0.999999,61.0001" fill-rule="nonzero" vector-effect="none"/></g><defs><clipPath id="clip107"><path d="M1,1 L51,1 L51,81 L1,81 L1,1 z"/></clipPath></defs><g clip-path="url(#clip107)" fill="none" opacity="1" stroke="#44805c" stroke-linecap="butt" stroke-linejoin="miter" stroke-miterlimit="20" stroke-opacity="1" stroke-width="2.6975" transform="matrix(4.37359e-16,2.38095,2.38095,-4.37359e-16,2.38095,21.4286)"><path d="M34.7499,61.0001 L50.9999,61.0001" fill-rule="nonzero" vector-effect="none"/></g><defs><clipPath id="clip108"><path d="M1,1 L51,1 L51,81 L1,81 L1,1 z"/></clipPath></defs><g clip-path="url(#clip108)" fill="none" opacity="1" stroke="#44805c" stroke-linecap="butt" stroke-linejoin="miter" stroke-miterlimit="20" stroke-opacity="1" stroke-width="2.6975" transform="matrix(4.37359e-16,2.38095,2.38095,-4.37359e-16,2.38095,21.4286)"><path d="M32.8749,61.0001 L25.9999,61.0001" fill-rule="nonzero" vector-effect="none"/></g><defs><clipPath id="clip109"><path d="M1,1 L51,1 L51,81 L1,81 L1,1 z"/></clipPath></defs><g clip-path="url(#clip109)" fill="none" opacity="1" stroke="#44805c" stroke-linecap="butt" stroke-linejoin="miter" stroke-miterlimit="20" stroke-opacity="1" stroke-width="2.6975" transform="matrix(4.37359e-16,2.38095,2.38095,-4.37359e-16,2.38095,21.4286)"><path d="M25.9999,55.6668 L25.9999,66.3335 L20.375,61.0001 L25.9999,55.6668 z" fill-rule="nonzero" vector-effect="none"/></g><defs><clipPath id="clip110"><path d="M1,1 L51,1 L51,81 L1,81 L1,1 z"/></clipPath></defs><g clip-path="url(#clip110)" fill="none" opacity="1" stroke="#000000" stroke-linecap="butt" stroke-linejoin="miter" stroke-miterlimit="20" stroke-opacity="1" stroke-width="2.6975" transform="matrix(4.37359e-16,2.38095,2.38095,-4.37359e-16,2.38095,21.4286)"><path d="M25.9999,35.6667 L25.9999,39.6667" fill-rule="nonzero" vector-effect="none"/></g><defs><clipPath id="clip111"><path d="M1,1 L51,1 L51,81 L1,81 L1,1 z"/></clipPath></defs><g clip-path="url(#clip111)" fill="none" opacity="1" stroke="#000000" stroke-linecap="butt" stroke-linejoin="miter" stroke-miterlimit="20" stroke-opacity="1" stroke-width="2.6975" transform="matrix(4.37359e-16,2.38095,2.38095,-4.37359e-16,2.38095,21.4286)"><path d="M25.9999,47.6668 L25.9999,43.6667" fill-rule="nonzero" vector-effect="none"/></g><defs><clipPath id="clip112"><path d="M1,1 L51,1 L51,81 L1,81 L1,1 z"/></clipPath></defs><g clip-path="url(#clip112)" fill="none" opacity="1" stroke="#44805c" stroke-linecap="butt" stroke-linejoin="miter" stroke-miterlimit="20" stroke-opacity="1" stroke-width="2.6975" transform="matrix(4.37359e-16,2.38095,2.38095,-4.37359e-16,2.38095,21.4286)"><path d="M17.25,51.0001 L34.7499,51.0001 L34.7499,71.0001 L17.25,71.0001 L17.25,51.0001 z" fill-rule="nonzero" vector-effect="none"/></g><defs><clipPath id="clip113"><path d="M1,1 L51,1 L51,81 L1,81 L1,1 z"/></clipPath></defs><g clip-path="url(#clip113)" fill="none" opacity="1" stroke="#d068d3" stroke-linecap="butt" stroke-linejoin="miter" stroke-miterlimit="4" stroke-opacity="1" stroke-width="2.6975" transform="matrix(4.37359e-16,2.38095,2.38095,-4.37359e-16,2.38095,21.4286)"><path d="M22.875,32.6593 C21.5485,32.5129 20.2684,32.0578 19.125,31.326" fill-rule="nonzero" vector-effect="none"/></g><defs><clipPath id="clip114"><path d="M1,1 L51,1 L51,81 L1,81 L1,1 z"/></clipPath></defs><g clip-path="url(#clip114)" fill="none" opacity="1" stroke="#d068d3" stroke-linecap="butt" stroke-linejoin="miter" stroke-miterlimit="4" stroke-opacity="1" stroke-width="2.6975" transform="matrix(4.37359e-16,2.38095,2.38095,-4.37359e-16,2.38095,21.4286)"><path d="M32.8749,31.326 C31.3279,32.2302 29.6289,32.7991 27.8749,33.0001" fill-rule="nonzero" vector-effect="none"/></g><defs><clipPath id="clip115"><path d="M1,1 L51,1 L51,81 L1,81 L1,1 z"/></clipPath></defs><g clip-path="url(#clip115)" fill="none" opacity="1" stroke="#d068d3" stroke-linecap="butt" stroke-linejoin="miter" stroke-miterlimit="4" stroke-opacity="1" stroke-width="2.6975" transform="matrix(4.37359e-16,2.38095,2.38095,-4.37359e-16,2.38095,21.4286)"><path d="M10.0555,21 C8.85619,19.4725 8.06033,17.6315 7.74999,15.6667" fill-rule="nonzero" vector-effect="none"/></g><defs><clipPath id="clip116"><path d="M1,1 L51,1 L51,81 L1,81 L1,1 z"/></clipPath></defs><g clip-path="url(#clip116)" fill="none" opacity="1" stroke="#d068d3" stroke-linecap="butt" stroke-linejoin="miter" stroke-miterlimit="4" stroke-opacity="1" stroke-width="2.6975" transform="matrix(4.37359e-16,2.38095,2.38095,-4.37359e-16,2.38095,21.4286)"><path d="M39.7499,25 C38.9247,26.5714 37.7928,27.9356 36.4305,29.0001" fill-rule="nonzero" vector-effect="none"/></g><defs><clipPath id="clip117"><path d="M1,1 L51,1 L51,81 L1,81 L1,1 z"/></clipPath></defs><g clip-path="url(#clip117)" fill="none" opacity="1" stroke="#d068d3" stroke-linecap="butt" stroke-linejoin="miter" stroke-miterlimit="4" stroke-opacity="1" stroke-width="2.6975" transform="matrix(4.37359e-16,2.38095,2.38095,-4.37359e-16,2.38095,21.4286)"><path d="M14.75,27.6667 C13.3979,26.5904 12.268,25.2289 11.4305,23.6667" fill-rule="nonzero" vector-effect="none"/></g><defs><clipPath id="clip118"><path d="M1,1 L51,1 L51,81 L1,81 L1,1 z"/></clipPath></defs><g clip-path="url(#clip118)" fill="none" opacity="1" stroke="#d068d3" stroke-linecap="butt" stroke-linejoin="miter" stroke-miterlimit="4" stroke-opacity="1" stroke-width="2.6975" transform="matrix(4.37359e-16,2.38095,2.38095,-4.37359e-16,2.38095,21.4286)"><path d="M32.8749,26.3334 C31.5715,27.2944 30.0715,27.9089 28.4999,28.126" fill-rule="nonzero" vector-effect="none"/></g><defs><clipPath id="clip119"><path d="M1,1 L51,1 L51,81 L1,81 L1,1 z"/></clipPath></defs><g clip-path="url(#clip119)" fill="none" opacity="1" stroke="#d068d3" stroke-linecap="butt" stroke-linejoin="miter" stroke-miterlimit="4" stroke-opacity="1" stroke-width="2.6975" transform="matrix(4.37359e-16,2.38095,2.38095,-4.37359e-16,2.38095,21.4286)"><path d="M24.125,28.126 C22.6111,27.8504 21.1394,27.3571 19.75,26.6593" fill-rule="nonzero" vector-effect="none"/></g><defs><clipPath id="clip120"><path d="M1,1 L51,1 L51,81 L1,81 L1,1 z"/></clipPath></defs><g clip-path="url(#clip120)" fill="none" opacity="1" stroke="#d068d3" stroke-linecap="butt" stroke-linejoin="miter" stroke-miterlimit="4" stroke-opacity="1" stroke-width="2.6975" transform="matrix(4.37359e-16,2.38095,2.38095,-4.37359e-16,2.38095,21.4286)"><path d="M16.4305,24.3334 C15.4961,23.5593 14.6562,22.6635 13.9305,21.6667" fill-rule="nonzero" vector-effect="none"/></g><defs><clipPath id="clip121"><path d="M1,1 L51,1 L51,81 L1,81 L1,1 z"/></clipPath></defs><g clip-path="url(#clip121)" fill="none" opacity="1" stroke="#d068d3" stroke-linecap="butt" stroke-linejoin="miter" stroke-miterlimit="4" stroke-opacity="1" stroke-width="2.6975" transform="matrix(4.37359e-16,2.38095,2.38095,-4.37359e-16,2.38095,21.4286)"><path d="M12.4305,19.6667 C11.5227,18.478 10.826,17.1225 10.375,15.6667" fill-rule="nonzero" vector-effect="none"/></g><defs><clipPath id="clip122"><path d="M1,1 L51,1 L51,81 L1,81 L1,1 z"/></clipPath></defs><g clip-path="url(#clip122)" fill="none" opacity="1" stroke="#d068d3" stroke-linecap="butt" stroke-linejoin="miter" stroke-miterlimit="4" stroke-opacity="1" stroke-width="2.6975" transform="matrix(4.37359e-16,2.38095,2.38095,-4.37359e-16,2.38095,21.4286)"><path d="M38.0555,21.6667 C37.3298,22.6635 36.49,23.5593 35.5555,24.3334" fill-rule="nonzero" vector-effect="none"/></g><defs><clipPath id="clip123"><path d="M1,1 L51,1 L51,81 L1,81 L1,1 z"/></clipPath></defs><g clip-path="url(#clip123)" fill="none" opacity="1" stroke="#d068d3" stroke-linecap="butt" stroke-linejoin="miter" stroke-miterlimit="4" stroke-opacity="1" stroke-width="2.6975" transform="matrix(4.37359e-16,2.38095,2.38095,-4.37359e-16,2.38095,21.4286)"><path d="M43.9305,17 C43.615,18.9631 42.8196,20.8028 41.6249,22.3334" fill-rule="nonzero" vector-effect="none"/></g><defs><clipPath id="clip124"><path d="M1,1 L51,1 L51,81 L1,81 L1,1 z"/></clipPath></defs><g clip-path="url(#clip124)" fill="none" opacity="1" stroke="#d068d3" stroke-linecap="butt" stroke-linejoin="miter" stroke-miterlimit="4" stroke-opacity="1" stroke-width="2.6975" transform="matrix(4.37359e-16,2.38095,2.38095,-4.37359e-16,2.38095,21.4286)"><path d="M41.6249,15.6667 C41.2106,17.1422 40.505,18.5061 39.5555,19.6667" fill-rule="nonzero" vector-effect="none"/></g><defs><clipPath id="clip141"><path d="M-15,-307 L241,-307 L241,102 L-15,102 L-15,-307 z"/></clipPath></defs><g clip-path="url(#clip141)" fill="none" opacity="1" stroke="#e60000" stroke-linecap="square" stroke-linejoin="bevel" stroke-opacity="1" stroke-width="1" transform="matrix(0,-0.46503,0.46503,0,147.619,135.714)"><text fill="#e60000" fill-opacity="1" font-family="Liberation Sans" font-size="40" font-style="normal" font-weight="400" stroke="none" textLength="29" x="0" xml:space="preserve" y="17.9219">C</text></g><defs><clipPath id="clip144"><path d="M-241,-307 L15,-307 L15,102 L-241,102 L-241,-307 z"/></clipPath></defs><g clip-path="url(#clip144)" fill="none" opacity="1" stroke="#e60000" stroke-linecap="square" stroke-linejoin="bevel" stroke-opacity="1" stroke-width="1" transform="matrix(0,-0.46503,0.46503,0,147.619,30.9524)"><text fill="#e60000" fill-opacity="1" font-family="Liberation Sans" font-size="40" font-style="normal" font-weight="400" stroke="none" textLength="29" x="-36.9531" xml:space="preserve" y="17.9219">R</text></g><defs><clipPath id="clip147"><path d="M-15,-102 L241,-102 L241,307 L-15,307 L-15,-102 z"/></clipPath></defs><g clip-path="url(#clip147)" fill="none" opacity="1" stroke="#e60000" stroke-linecap="square" stroke-linejoin="bevel" stroke-opacity="1" stroke-width="1" transform="matrix(0,-0.46503,0.46503,0,52.381,135.714)"><text fill="#e60000" fill-opacity="1" font-family="Liberation Sans" font-size="40" font-style="normal" font-weight="400" stroke="none" textLength="27" x="0" xml:space="preserve" y="17.9219">S</text></g><defs><clipPath id="clip150"><path d="M-241,-102 L15,-102 L15,307 L-241,307 L-241,-102 z"/></clipPath></defs><g clip-path="url(#clip150)" fill="none" opacity="1" stroke="#e60000" stroke-linecap="square" stroke-linejoin="bevel" stroke-opacity="1" stroke-width="1" transform="matrix(0,-0.46503,0.46503,0,52.381,30.9524)"><text fill="#e60000" fill-opacity="1" font-family="Liberation Sans" font-size="40" font-style="normal" font-weight="400" stroke="none" textLength="29" x="-36.9531" xml:space="preserve" y="17.9219">N</text></g><defs><clipPath id="clip156"><path d="M-2,-10 L82,-10 L82,60 L-2,60 L-2,-10 z"/></clipPath></defs><g clip-path="url(#clip156)" fill="none" opacity="1" stroke="none" stroke-opacity="0" transform="matrix(2.38095,0,0,2.38095,4.7619,23.8095)"><path d="M0,0 L80,0 L80,50 L0,50 L0,0 z" fill-rule="evenodd" vector-effect="none"/></g></g></svg>
