<?xml version="1.0" encoding="UTF-8"?><svg width="28.575mm" height="52.9167mm" viewBox="0 0 108 200" xmlns="http://www.w3.org/2000/svg" xmlns:xlink="http://www.w3.org/1999/xlink"><g fill="none" stroke="black" stroke-width="1" fill-rule="evenodd" stroke-linecap="square" stroke-linejoin="bevel"><g clip-path="none" fill="none" opacity="1" stroke="none" stroke-opacity="0" transform="matrix(1,0,0,1,0,0)"><path d="M0,0 L108,0 L108,200 L0,200 L0,0 z" fill-rule="evenodd" vector-effect="none"/></g><defs><clipPath id="clip6"><path d="M0,0 L10,0 L10,10 L0,10 L0,0 z"/></clipPath></defs><g clip-path="url(#clip6)" fill="#b3b3b3" fill-opacity="1" opacity="1" stroke="none" stroke-opacity="0" transform="matrix(1.74944e-16,-2.85714,2.85714,1.74944e-16,42.8571,28.5714)"><path d="M0.5,3.5 L3.5,3.5 L3.5,6.5 L0.5,6.5 L0.5,3.5 z" fill-rule="evenodd" vector-effect="none"/></g><defs><clipPath id="clip8"><path d="M0,0 L10,0 L10,10 L0,10 L0,0 z"/></clipPath></defs><g clip-path="url(#clip8)" fill="#000000" fill-opacity="1" opacity="1" stroke="none" stroke-opacity="0" transform="matrix(1.74944e-16,-2.85714,2.85714,1.74944e-16,42.8571,28.5714)"><path d="M3,4 L3,6 L1,6 L1,4 L3,4 M4,3 L0,3 L0,7 L4,7 L4,3" fill-rule="nonzero" vector-effect="none"/></g><defs><clipPath id="clip28"><path d="M0,0 L10,0 L10,10 L0,10 L0,0 z"/></clipPath></defs><g clip-path="url(#clip28)" fill="#b3b3b3" fill-opacity="1" opacity="1" stroke="none" stroke-opacity="0" transform="matrix(-5.24831e-16,2.85714,-2.85714,-5.24831e-16,65.7143,171.429)"><path d="M0.5,3.5 L3.5,3.5 L3.5,6.5 L0.5,6.5 L0.5,3.5 z" fill-rule="evenodd" vector-effect="none"/></g><defs><clipPath id="clip30"><path d="M0,0 L10,0 L10,10 L0,10 L0,0 z"/></clipPath></defs><g clip-path="url(#clip30)" fill="#000000" fill-opacity="1" opacity="1" stroke="none" stroke-opacity="0" transform="matrix(-5.24831e-16,2.85714,-2.85714,-5.24831e-16,65.7143,171.429)"><path d="M3,4 L3,6 L1,6 L1,4 L3,4 M4,3 L0,3 L0,7 L4,7 L4,3" fill-rule="nonzero" vector-effect="none"/></g><defs><clipPath id="clip47"><path d="M-2,-10 L36,-10 L36,60 L-2,60 L-2,-10 z"/></clipPath></defs><g clip-path="url(#clip47)" fill="#ffffff" fill-opacity="1" opacity="1" stroke="none" stroke-opacity="0" transform="matrix(2.85714,0,0,2.85714,5.71429,28.5714)"><path d="M0,0 L34,0 L34,50 L0,50 L0,0 z" fill-rule="evenodd" vector-effect="none"/></g><defs><clipPath id="clip51"><path d="M0,0 L34,0 L34,50 L0,50 L0,0 z"/></clipPath></defs><g clip-path="url(#clip51)" fill="none" opacity="1" stroke="none" stroke-opacity="0" transform="matrix(2.85714,0,0,2.85714,5.71429,28.5714)"><path d="M0,0 L34,0 L34,50 L0,50 L0,0 z" fill-rule="evenodd" vector-effect="none"/></g><defs><clipPath id="clip61"><path d="M1,1 L51,1 L51,35 L1,35 L1,1 z"/></clipPath></defs><g clip-path="url(#clip61)" fill="none" opacity="1" stroke="#d068d3" stroke-linecap="butt" stroke-linejoin="miter" stroke-miterlimit="20" stroke-opacity="1" stroke-width="2.6975" transform="matrix(5.24831e-16,2.85714,2.85714,-5.24831e-16,2.85714,25.7143)"><path d="M35,25.5392 L35,15.1913" fill-rule="nonzero" vector-effect="none"/></g><defs><clipPath id="clip62"><path d="M1,1 L51,1 L51,35 L1,35 L1,1 z"/></clipPath></defs><g clip-path="url(#clip62)" fill="none" opacity="1" stroke="#d068d3" stroke-linecap="butt" stroke-linejoin="miter" stroke-miterlimit="4" stroke-opacity="1" stroke-width="2.6975" transform="matrix(5.24831e-16,2.85714,2.85714,-5.24831e-16,2.85714,25.7143)"><path d="M22.1428,15.1913 C22.142,15.3868 22.0663,15.5739 21.9325,15.7119 C21.7986,15.8498 21.6174,15.9272 21.4286,15.9272 C21.2397,15.9272 21.0585,15.8498 20.9246,15.7119 C20.7908,15.5739 20.7151,15.3868 20.7143,15.1913" fill-rule="nonzero" vector-effect="none"/></g><defs><clipPath id="clip63"><path d="M1,1 L51,1 L51,35 L1,35 L1,1 z"/></clipPath></defs><g clip-path="url(#clip63)" fill="none" opacity="1" stroke="#d068d3" stroke-linecap="butt" stroke-linejoin="miter" stroke-miterlimit="4" stroke-opacity="1" stroke-width="2.6975" transform="matrix(5.24831e-16,2.85714,2.85714,-5.24831e-16,2.85714,25.7143)"><path d="M20.7143,15.1913 C20.7029,14.0418 20.9562,12.906 21.453,11.8778 C21.9497,10.8497 22.676,9.95858 23.5714,9.27828" fill-rule="nonzero" vector-effect="none"/></g><defs><clipPath id="clip64"><path d="M1,1 L51,1 L51,35 L1,35 L1,1 z"/></clipPath></defs><g clip-path="url(#clip64)" fill="none" opacity="1" stroke="#d068d3" stroke-linecap="butt" stroke-linejoin="miter" stroke-miterlimit="4" stroke-opacity="1" stroke-width="2.6975" transform="matrix(5.24831e-16,2.85714,2.85714,-5.24831e-16,2.85714,25.7143)"><path d="M23.5714,9.27828 C24.4669,9.95858 25.1931,10.8497 25.6898,11.8778 C26.1866,12.906 26.4399,14.0418 26.4285,15.1913" fill-rule="nonzero" vector-effect="none"/></g><defs><clipPath id="clip65"><path d="M1,1 L51,1 L51,35 L1,35 L1,1 z"/></clipPath></defs><g clip-path="url(#clip65)" fill="none" opacity="1" stroke="#d068d3" stroke-linecap="butt" stroke-linejoin="miter" stroke-miterlimit="4" stroke-opacity="1" stroke-width="2.6975" transform="matrix(5.24831e-16,2.85714,2.85714,-5.24831e-16,2.85714,25.7143)"><path d="M19.2857,9.27828 C20.1811,9.95858 20.9074,10.8497 21.4041,11.8778 C21.9009,12.906 22.1542,14.0418 22.1428,15.1913" fill-rule="nonzero" vector-effect="none"/></g><defs><clipPath id="clip66"><path d="M1,1 L51,1 L51,35 L1,35 L1,1 z"/></clipPath></defs><g clip-path="url(#clip66)" fill="none" opacity="1" stroke="#d068d3" stroke-linecap="butt" stroke-linejoin="miter" stroke-miterlimit="4" stroke-opacity="1" stroke-width="2.6975" transform="matrix(5.24831e-16,2.85714,2.85714,-5.24831e-16,2.85714,25.7143)"><path d="M26.4285,15.1913 C26.4277,15.3868 26.352,15.5739 26.2182,15.7119 C26.0843,15.8498 25.9031,15.9272 25.7143,15.9272 C25.5254,15.9272 25.3442,15.8498 25.2103,15.7119 C25.0765,15.5739 25.0008,15.3868 25,15.1913" fill-rule="nonzero" vector-effect="none"/></g><defs><clipPath id="clip67"><path d="M1,1 L51,1 L51,35 L1,35 L1,1 z"/></clipPath></defs><g clip-path="url(#clip67)" fill="none" opacity="1" stroke="#d068d3" stroke-linecap="butt" stroke-linejoin="miter" stroke-miterlimit="4" stroke-opacity="1" stroke-width="2.6975" transform="matrix(5.24831e-16,2.85714,2.85714,-5.24831e-16,2.85714,25.7143)"><path d="M25,15.1913 C24.9887,14.0418 25.2419,12.906 25.7387,11.8778 C26.2354,10.8497 26.9617,9.95858 27.8571,9.27828" fill-rule="nonzero" vector-effect="none"/></g><defs><clipPath id="clip68"><path d="M1,1 L51,1 L51,35 L1,35 L1,1 z"/></clipPath></defs><g clip-path="url(#clip68)" fill="none" opacity="1" stroke="#d068d3" stroke-linecap="butt" stroke-linejoin="miter" stroke-miterlimit="4" stroke-opacity="1" stroke-width="2.6975" transform="matrix(5.24831e-16,2.85714,2.85714,-5.24831e-16,2.85714,25.7143)"><path d="M30.7143,15.1913 C30.7134,15.3868 30.6377,15.5739 30.5039,15.7119 C30.37,15.8498 30.1889,15.9272 30,15.9272 C29.8111,15.9272 29.6299,15.8498 29.4961,15.7119 C29.3622,15.5739 29.2865,15.3868 29.2857,15.1913" fill-rule="nonzero" vector-effect="none"/></g><defs><clipPath id="clip69"><path d="M1,1 L51,1 L51,35 L1,35 L1,1 z"/></clipPath></defs><g clip-path="url(#clip69)" fill="none" opacity="1" stroke="#d068d3" stroke-linecap="butt" stroke-linejoin="miter" stroke-miterlimit="4" stroke-opacity="1" stroke-width="2.6975" transform="matrix(5.24831e-16,2.85714,2.85714,-5.24831e-16,2.85714,25.7143)"><path d="M32.1428,9.27828 C33.6839,10.8809 34.6856,12.9541 35,15.1913" fill-rule="nonzero" vector-effect="none"/></g><defs><clipPath id="clip70"><path d="M1,1 L51,1 L51,35 L1,35 L1,1 z"/></clipPath></defs><g clip-path="url(#clip70)" fill="none" opacity="1" stroke="#d068d3" stroke-linecap="butt" stroke-linejoin="miter" stroke-miterlimit="4" stroke-opacity="1" stroke-width="2.6975" transform="matrix(5.24831e-16,2.85714,2.85714,-5.24831e-16,2.85714,25.7143)"><path d="M27.8571,9.27828 C28.7526,9.95858 29.4788,10.8497 29.9755,11.8778 C30.4724,12.906 30.7256,14.0418 30.7143,15.1913" fill-rule="nonzero" vector-effect="none"/></g><defs><clipPath id="clip71"><path d="M1,1 L51,1 L51,35 L1,35 L1,1 z"/></clipPath></defs><g clip-path="url(#clip71)" fill="none" opacity="1" stroke="#d068d3" stroke-linecap="butt" stroke-linejoin="miter" stroke-miterlimit="4" stroke-opacity="1" stroke-width="2.6975" transform="matrix(5.24831e-16,2.85714,2.85714,-5.24831e-16,2.85714,25.7143)"><path d="M29.2857,15.1913 C29.2744,14.0418 29.5276,12.906 30.0244,11.8778 C30.5211,10.8497 31.2474,9.95858 32.1428,9.27828" fill-rule="nonzero" vector-effect="none"/></g><defs><clipPath id="clip72"><path d="M1,1 L51,1 L51,35 L1,35 L1,1 z"/></clipPath></defs><g clip-path="url(#clip72)" fill="none" opacity="1" stroke="#d068d3" stroke-linecap="butt" stroke-linejoin="miter" stroke-miterlimit="4" stroke-opacity="1" stroke-width="2.6975" transform="matrix(5.24831e-16,2.85714,2.85714,-5.24831e-16,2.85714,25.7143)"><path d="M16.4286,15.1913 C16.4172,14.0418 16.6705,12.906 17.1673,11.8778 C17.664,10.8497 18.3902,9.95858 19.2857,9.27828" fill-rule="nonzero" vector-effect="none"/></g><defs><clipPath id="clip73"><path d="M1,1 L51,1 L51,35 L1,35 L1,1 z"/></clipPath></defs><g clip-path="url(#clip73)" fill="none" opacity="1" stroke="#d068d3" stroke-linecap="butt" stroke-linejoin="miter" stroke-miterlimit="20" stroke-opacity="1" stroke-width="2.6975" transform="matrix(5.24831e-16,2.85714,2.85714,-5.24831e-16,2.85714,25.7143)"><path d="M11.5714,18.1917 L0.999999,18.1917" fill-rule="nonzero" vector-effect="none"/></g><defs><clipPath id="clip74"><path d="M1,1 L51,1 L51,35 L1,35 L1,1 z"/></clipPath></defs><g clip-path="url(#clip74)" fill="none" opacity="1" stroke="#d068d3" stroke-linecap="butt" stroke-linejoin="miter" stroke-miterlimit="20" stroke-opacity="1" stroke-width="2.6975" transform="matrix(5.24831e-16,2.85714,2.85714,-5.24831e-16,2.85714,25.7143)"><path d="M40.1428,18.1917 L50.9999,18.1917" fill-rule="nonzero" vector-effect="none"/></g><defs><clipPath id="clip75"><path d="M1,1 L51,1 L51,35 L1,35 L1,1 z"/></clipPath></defs><g clip-path="url(#clip75)" fill="none" opacity="1" stroke="#d068d3" stroke-linecap="butt" stroke-linejoin="miter" stroke-miterlimit="20" stroke-opacity="1" stroke-width="2.6975" transform="matrix(5.24831e-16,2.85714,2.85714,-5.24831e-16,2.85714,25.7143)"><path d="M16.4286,25.5392 L16.4286,15.1913" fill-rule="nonzero" vector-effect="none"/></g><defs><clipPath id="clip76"><path d="M1,1 L51,1 L51,35 L1,35 L1,1 z"/></clipPath></defs><g clip-path="url(#clip76)" fill="none" opacity="1" stroke="#d068d3" stroke-linecap="butt" stroke-linejoin="miter" stroke-miterlimit="4" stroke-opacity="1" stroke-width="2.6975" transform="matrix(5.24831e-16,2.85714,2.85714,-5.24831e-16,2.85714,25.7143)"><path d="M40.1428,18.299 C40.1428,26.4632 33.7469,33.0816 25.8571,33.0816 C17.9673,33.0816 11.5714,26.4632 11.5714,18.299 C11.5714,10.1347 17.9673,3.51633 25.8571,3.51633 C33.7469,3.51633 40.1428,10.1347 40.1428,18.299 z" fill-rule="nonzero" vector-effect="none"/></g><defs><clipPath id="clip77"><path d="M1,1 L51,1 L51,35 L1,35 L1,1 z"/></clipPath></defs><g clip-path="url(#clip77)" fill="none" opacity="1" stroke="#ffffff" stroke-linecap="butt" stroke-linejoin="miter" stroke-miterlimit="20" stroke-opacity="1" stroke-width="2.6975" transform="matrix(5.24831e-16,2.85714,2.85714,-5.24831e-16,2.85714,25.7143)"><path d="M0.999999,1 L50.9999,1 L50.9999,35.0001 L0.999999,35.0001 L0.999999,1 z" fill-rule="nonzero" vector-effect="none"/></g><defs><clipPath id="clip97"><path d="M-2,-10 L36,-10 L36,60 L-2,60 L-2,-10 z"/></clipPath></defs><g clip-path="url(#clip97)" fill="none" opacity="1" stroke="none" stroke-opacity="0" transform="matrix(2.85714,0,0,2.85714,5.71429,28.5714)"><path d="M0,0 L34,0 L34,50 L0,50 L0,0 z" fill-rule="evenodd" vector-effect="none"/></g></g></svg>
