<?xml version="1.0" encoding="UTF-8"?><svg width="52.9167mm" height="38.6292mm" viewBox="0 0 200 146" xmlns="http://www.w3.org/2000/svg" xmlns:xlink="http://www.w3.org/1999/xlink"><g fill="none" stroke="black" stroke-width="1" fill-rule="evenodd" stroke-linecap="square" stroke-linejoin="bevel"><g clip-path="none" fill="none" opacity="1" stroke="none" stroke-opacity="0" transform="matrix(1,0,0,1,0,0)"><path d="M0,0 L200,0 L200,146 L0,146 L0,0 z" fill-rule="evenodd" vector-effect="none"/></g><defs><clipPath id="clip6"><path d="M0,0 L10,0 L10,10 L0,10 L0,0 z"/></clipPath></defs><g clip-path="url(#clip6)" fill="#ffffff" fill-opacity="1" opacity="1" stroke="none" stroke-opacity="0" transform="matrix(3.33333,0,0,3.33333,166.667,93.3333)"><path d="M0.5,0.809 L8.882,5 L0.5,9.191 L0.5,0.809 z" fill-rule="evenodd" vector-effect="none"/></g><defs><clipPath id="clip8"><path d="M0,0 L10,0 L10,10 L0,10 L0,0 z"/></clipPath></defs><g clip-path="url(#clip8)" fill="#000000" fill-opacity="1" opacity="1" stroke="none" stroke-opacity="0" transform="matrix(3.33333,0,0,3.33333,166.667,93.3333)"><path d="M1,1.618 L7.764,5 L1,8.382 L1,1.618 M0,0 L0,10 L10,5 L0,0" fill-rule="nonzero" vector-effect="none"/></g><defs><clipPath id="clip30"><path d="M0,0 L10,0 L10,10 L0,10 L0,0 z"/></clipPath></defs><g clip-path="url(#clip30)" fill="#b3b3b3" fill-opacity="1" opacity="1" stroke="none" stroke-opacity="0" transform="matrix(3.33333,0,0,3.33333,166.667,26.6667)"><path d="M0.5,3.5 L3.5,3.5 L3.5,6.5 L0.5,6.5 L0.5,3.5 z" fill-rule="evenodd" vector-effect="none"/></g><defs><clipPath id="clip32"><path d="M0,0 L10,0 L10,10 L0,10 L0,0 z"/></clipPath></defs><g clip-path="url(#clip32)" fill="#000000" fill-opacity="1" opacity="1" stroke="none" stroke-opacity="0" transform="matrix(3.33333,0,0,3.33333,166.667,26.6667)"><path d="M3,4 L3,6 L1,6 L1,4 L3,4 M4,3 L0,3 L0,7 L4,7 L4,3" fill-rule="nonzero" vector-effect="none"/></g><defs><clipPath id="clip52"><path d="M0,0 L10,0 L10,10 L0,10 L0,0 z"/></clipPath></defs><g clip-path="url(#clip52)" fill="#b3b3b3" fill-opacity="1" opacity="1" stroke="none" stroke-opacity="0" transform="matrix(-3.33333,0,0,3.33333,33.3333,60)"><path d="M0.5,3.5 L3.5,3.5 L3.5,6.5 L0.5,6.5 L0.5,3.5 z" fill-rule="evenodd" vector-effect="none"/></g><defs><clipPath id="clip54"><path d="M0,0 L10,0 L10,10 L0,10 L0,0 z"/></clipPath></defs><g clip-path="url(#clip54)" fill="#000000" fill-opacity="1" opacity="1" stroke="none" stroke-opacity="0" transform="matrix(-3.33333,0,0,3.33333,33.3333,60)"><path d="M3,4 L3,6 L1,6 L1,4 L3,4 M4,3 L0,3 L0,7 L4,7 L4,3" fill-rule="nonzero" vector-effect="none"/></g><defs><clipPath id="clip71"><path d="M-10,-2 L50,-2 L50,42 L-10,42 L-10,-2 z"/></clipPath></defs><g clip-path="url(#clip71)" fill="#ffffff" fill-opacity="1" opacity="1" stroke="none" stroke-opacity="0" transform="matrix(3.33333,0,0,3.33333,33.3333,6.66667)"><path d="M0,0 L40,0 L40,40 L0,40 L0,0 z" fill-rule="evenodd" vector-effect="none"/></g><defs><clipPath id="clip75"><path d="M0,0 L40,0 L40,40 L0,40 L0,0 z"/></clipPath></defs><g clip-path="url(#clip75)" fill="none" opacity="1" stroke="none" stroke-opacity="0" transform="matrix(3.33333,0,0,3.33333,33.3333,6.66667)"><path d="M0,0 L40,0 L40,40 L0,40 L0,0 z" fill-rule="evenodd" vector-effect="none"/></g><defs><clipPath id="clip85"><path d="M9,9 L306,9 L306,306 L9,306 L9,9 z"/></clipPath></defs><g clip-path="url(#clip85)" fill="#35d461" fill-opacity="1" opacity="1" stroke="none" stroke-opacity="0" transform="matrix(0.448933,0,0,0.448933,29.2929,2.62626)"><path d="M19.35,200.07 L20.25,200.07 L20.25,200.97 L19.35,200.97 L19.35,200.07 z" fill-rule="nonzero" vector-effect="none"/></g><defs><clipPath id="clip86"><path d="M1,1 L41,1 L41,41 L1,41 L1,1 z"/></clipPath></defs><g clip-path="url(#clip86)" fill="none" opacity="1" stroke="#35d461" stroke-linecap="butt" stroke-linejoin="miter" stroke-miterlimit="20" stroke-opacity="1" stroke-width="1.3325" transform="matrix(3.33333,0,0,3.33333,30,3.33333)"><path d="M2.45454,26.7939 L9.84039,26.7939" fill-rule="nonzero" vector-effect="none"/></g><defs><clipPath id="clip87"><path d="M1,1 L41,1 L41,41 L1,41 L1,1 z"/></clipPath></defs><g clip-path="url(#clip87)" fill="none" opacity="1" stroke="#35d461" stroke-linecap="butt" stroke-linejoin="miter" stroke-miterlimit="20" stroke-opacity="1" stroke-width="1.3325" transform="matrix(3.33333,0,0,3.33333,30,3.33333)"><path d="M7.25454,26.8586 L7.25454,12.4586" fill-rule="nonzero" vector-effect="none"/></g><defs><clipPath id="clip88"><path d="M1,1 L41,1 L41,41 L1,41 L1,1 z"/></clipPath></defs><g clip-path="url(#clip88)" fill="none" opacity="1" stroke="#35d461" stroke-linecap="butt" stroke-linejoin="miter" stroke-miterlimit="20" stroke-opacity="1" stroke-width="1.3325" transform="matrix(3.33333,0,0,3.33333,30,3.33333)"><path d="M34.1313,26.8586 L38.4545,26.8586" fill-rule="nonzero" vector-effect="none"/></g><defs><clipPath id="clip89"><path d="M1,1 L41,1 L41,41 L1,41 L1,1 z"/></clipPath></defs><g clip-path="url(#clip89)" fill="none" opacity="1" stroke="#35d461" stroke-linecap="butt" stroke-linejoin="miter" stroke-miterlimit="20" stroke-opacity="1" stroke-width="1.3325" transform="matrix(3.33333,0,0,3.33333,30,3.33333)"><path d="M25.9778,12.4586 L32.2161,12.4586 L32.2161,22.5353" fill-rule="nonzero" vector-effect="none"/></g><defs><clipPath id="clip90"><path d="M1,1 L41,1 L41,41 L1,41 L1,1 z"/></clipPath></defs><g clip-path="url(#clip90)" fill="none" opacity="1" stroke="#35d461" stroke-linecap="butt" stroke-linejoin="miter" stroke-miterlimit="20" stroke-opacity="1" stroke-width="1.3325" transform="matrix(3.33333,0,0,3.33333,30,3.33333)"><path d="M17.3394,12.4586 L7.25454,12.4586" fill-rule="nonzero" vector-effect="none"/></g><defs><clipPath id="clip91"><path d="M1,1 L41,1 L41,41 L1,41 L1,1 z"/></clipPath></defs><g clip-path="url(#clip91)" fill="none" opacity="1" stroke="#35d461" stroke-linecap="butt" stroke-linejoin="miter" stroke-miterlimit="20" stroke-opacity="1" stroke-width="1.3325" transform="matrix(3.33333,0,0,3.33333,30,3.33333)"><path d="M9.84039,26.7939 C9.84039,26.7939 9.84084,26.7922 9.84948,26.7606 C9.85813,26.7293 9.87514,26.6674 9.90161,26.5732 C9.92806,26.4789 9.96364,26.3534 10.0034,26.2159 C10.0432,26.0785 10.0868,25.9307 10.1296,25.7904 C10.1724,25.6501 10.2143,25.5171 10.2541,25.3973 C10.2939,25.2774 10.3317,25.1701 10.3685,25.0731 C10.4052,24.9761 10.4411,24.8894 10.4778,24.8085 C10.5145,24.7275 10.5521,24.6521 10.5919,24.5784 C10.6317,24.5048 10.6736,24.4331 10.7187,24.3615 C10.7637,24.2898 10.8119,24.2183 10.8635,24.1469 C10.915,24.0755 10.9699,24.0043 11.0273,23.934 C11.0848,23.8637 11.1449,23.7945 11.2062,23.7278 C11.2675,23.661 11.33,23.5966 11.3922,23.5359 C11.4545,23.4751 11.5164,23.4182 11.5771,23.3651 C11.6377,23.312 11.6971,23.263 11.7552,23.2175 C11.8132,23.172 11.87,23.1301 11.9266,23.0902 C11.9832,23.0503 12.04,23.0126 12.0984,22.976 C12.1568,22.9394 12.2169,22.9041 12.279,22.87 C12.341,22.8359 12.405,22.8032 12.4703,22.7724 C12.5355,22.7415 12.6021,22.7126 12.6687,22.686 C12.7352,22.6595 12.8018,22.6355 12.8671,22.6144 C12.9324,22.5934 12.9963,22.5751 13.0584,22.5597 C13.1204,22.5444 13.1805,22.5318 13.2389,22.5219 C13.2974,22.5119 13.3541,22.5044 13.4108,22.499 C13.4675,22.4936 13.5242,22.4902 13.5825,22.4891 C13.6408,22.4881 13.7009,22.4894 13.7627,22.4933 C13.8246,22.4972 13.8885,22.5038 13.9537,22.5134 C14.0187,22.5229 14.0851,22.5355 14.1515,22.5508 C14.2179,22.5662 14.2843,22.5844 14.3493,22.6051 C14.4145,22.6258 14.4784,22.6491 14.5403,22.6745 C14.6021,22.6998 14.6622,22.7272 14.7205,22.7567 C14.7788,22.7862 14.8355,22.8178 14.8922,22.8518 C14.9489,22.8859 15.0056,22.9228 15.0638,22.9635 C15.1221,23.004 15.1818,23.0485 15.2429,23.0969 C15.3041,23.1453 15.3669,23.1978 15.4302,23.2536 C15.4935,23.3095 15.5574,23.3686 15.6205,23.4299 C15.6836,23.4912 15.7458,23.5545 15.806,23.6183 C15.8661,23.682 15.924,23.7462 15.979,23.8099 C16.0339,23.8736 16.086,23.9367 16.1355,23.999 C16.1848,24.0614 16.2315,24.1229 16.2767,24.1852 C16.322,24.2474 16.3659,24.3104 16.4094,24.376 C16.4529,24.4417 16.4961,24.5101 16.5388,24.5817 C16.5815,24.6533 16.6237,24.7281 16.6649,24.8055 C16.706,24.8831 16.746,24.9631 16.7838,25.0444 C16.8217,25.1256 16.8576,25.2082 16.8906,25.2903 C16.9238,25.3725 16.9541,25.4544 16.9813,25.5349 C17.0086,25.6156 17.0328,25.6951 17.0545,25.7736 C17.0761,25.8522 17.0949,25.9298 17.1118,26.0087 C17.1286,26.0876 17.1434,26.1679 17.1566,26.2516 C17.1698,26.3352 17.1814,26.4221 17.1914,26.5124 C17.2013,26.6027 17.2095,26.6963 17.2163,26.7919 C17.2229,26.8874 17.2279,26.9849 17.2311,27.082 C17.2345,27.1791 17.2361,27.2757 17.2363,27.3697 C17.2366,27.4635 17.2353,27.5547 17.233,27.642 C17.2306,27.7291 17.2271,27.8122 17.2227,27.8914 C17.2184,27.9707 17.2133,28.046 17.2074,28.1192 C17.2015,28.1923 17.195,28.2635 17.1875,28.3349 C17.1799,28.4063 17.1713,28.4775 17.1617,28.5492 C17.1522,28.621 17.1415,28.693 17.1298,28.7647 C17.1181,28.8363 17.1053,28.9076 17.0918,28.9773 C17.0782,29.047 17.064,29.1151 17.0491,29.1806 C17.0343,29.246 17.019,29.3087 17.0035,29.3685 C16.988,29.4281 16.9721,29.4848 16.9561,29.5391 C16.94,29.5934 16.9239,29.6452 16.9071,29.6963 C16.8902,29.7473 16.8727,29.7979 16.854,29.8489 C16.8353,29.8998 16.8151,29.9512 16.7934,30.0028 C16.7717,30.0544 16.7483,30.1062 16.7233,30.1574 C16.6983,30.2085 16.6718,30.2588 16.6439,30.3072 C16.6161,30.3555 16.5871,30.4019 16.5572,30.4449 C16.5274,30.4882 16.4968,30.528 16.4657,30.5644 C16.4347,30.6006 16.4032,30.6334 16.3713,30.6625 C16.3392,30.6915 16.3066,30.7171 16.2727,30.74 C16.2388,30.7629 16.2033,30.783 16.1655,30.8005 C16.1277,30.8179 16.0877,30.8326 16.0451,30.8441 C16.0027,30.8556 15.9578,30.8638 15.9114,30.8682 C15.8649,30.8727 15.8167,30.8732 15.7681,30.8696 C15.7194,30.866 15.6704,30.8581 15.6221,30.8462 C15.5739,30.8342 15.5263,30.8181 15.4805,30.7984 C15.4346,30.7786 15.3903,30.755 15.3476,30.7278 C15.3049,30.7006 15.2638,30.6699 15.2236,30.635 C15.1833,30.6001 15.1436,30.5609 15.1037,30.5167 C15.0638,30.4724 15.0237,30.4231 14.9834,30.3687 C14.9431,30.3143 14.9027,30.2548 14.8629,30.1912 C14.8229,30.1276 14.7836,30.06 14.7457,29.9903 C14.7077,29.9204 14.6712,29.8485 14.6372,29.7765 C14.6029,29.7045 14.571,29.6324 14.5417,29.5619 C14.5124,29.4913 14.4858,29.4222 14.4614,29.3549 C14.4372,29.2876 14.4153,29.2222 14.3953,29.1575 C14.3752,29.0929 14.3569,29.0287 14.3398,28.9632 C14.3227,28.8977 14.3068,28.8309 14.2922,28.7625 C14.2777,28.6941 14.2644,28.6241 14.2524,28.5528 C14.2404,28.4817 14.2299,28.4095 14.2207,28.3376 C14.2117,28.2657 14.204,28.194 14.198,28.1239 C14.1918,28.0537 14.1871,27.985 14.1837,27.9186 C14.1802,27.8521 14.178,27.7877 14.1768,27.725 C14.1755,27.6622 14.1753,27.6012 14.1757,27.54 C14.1761,27.4789 14.1774,27.4175 14.1795,27.354 C14.1815,27.2906 14.1845,27.2253 14.1885,27.1574 C14.1924,27.0897 14.1974,27.0195 14.2036,26.9476 C14.2097,26.8757 14.217,26.8021 14.2252,26.7283 C14.2335,26.6544 14.2428,26.5802 14.2529,26.5072 C14.2631,26.434 14.2741,26.3621 14.2858,26.2921 C14.2975,26.2221 14.3099,26.1539 14.3229,26.0872 C14.3359,26.0206 14.3496,25.9555 14.3643,25.8902 C14.379,25.8249 14.3946,25.7592 14.412,25.6914 C14.4293,25.6235 14.4485,25.5536 14.4697,25.4813 C14.4909,25.4091 14.5142,25.3345 14.5398,25.2586 C14.5652,25.1825 14.5928,25.1052 14.6223,25.028 C14.6518,24.9508 14.6831,24.8738 14.7157,24.7986 C14.7483,24.7236 14.7822,24.6503 14.8171,24.5796 C14.852,24.5091 14.8877,24.4412 14.9246,24.3759 C14.9613,24.3104 14.9992,24.2474 15.039,24.1852 C15.0789,24.1229 15.1208,24.0614 15.1659,23.9989 C15.2109,23.9365 15.2591,23.8735 15.3106,23.8098 C15.3621,23.746 15.4168,23.6816 15.4739,23.6178 C15.5312,23.5538 15.5908,23.4902 15.6514,23.4287 C15.7122,23.367 15.7739,23.3074 15.8351,23.251 C15.8963,23.1947 15.957,23.1418 16.0161,23.0926 C16.0753,23.0436 16.1329,22.9984 16.1889,22.9569 C16.2451,22.9154 16.2995,22.8776 16.3535,22.8424 C16.4075,22.8072 16.4613,22.7745 16.5165,22.7437 C16.5717,22.7128 16.6284,22.684 16.687,22.6571 C16.7456,22.6301 16.806,22.6052 16.8681,22.5829 C16.9302,22.5605 16.9939,22.5407 17.0582,22.5237 C17.1224,22.5069 17.1872,22.4929 17.2516,22.482 C17.3159,22.4712 17.3799,22.4634 17.4428,22.4586 C17.5057,22.4536 17.5677,22.4517 17.6291,22.4522 C17.6905,22.4528 17.7514,22.4559 17.8134,22.4613 C17.8755,22.4666 17.939,22.4745 18.0052,22.4847 C18.0714,22.4949 18.1403,22.5079 18.2118,22.5233 C18.2835,22.5387 18.3577,22.5569 18.4334,22.5773 C18.5089,22.5978 18.5858,22.6207 18.6622,22.6452 C18.7386,22.6699 18.8144,22.6961 18.8875,22.7235 C18.9607,22.7508 19.0312,22.779 19.0982,22.8075 C19.1651,22.8361 19.2283,22.8649 19.2878,22.8938 C19.3473,22.9227 19.4032,22.9516 19.4565,22.9811 C19.5099,23.0106 19.5611,23.0406 19.6116,23.0727 C19.6621,23.1046 19.7119,23.1383 19.7615,23.1745 C19.8109,23.2107 19.8603,23.2494 19.9091,23.2906 C19.958,23.3317 20.0063,23.3753 20.0537,23.4209 C20.1011,23.4665 20.1475,23.514 20.1923,23.5629 C20.2371,23.6117 20.2805,23.6619 20.3225,23.713 C20.3644,23.764 20.4048,23.8159 20.4446,23.8689 C20.4842,23.922 20.5229,23.9761 20.5623,24.033 C20.6016,24.0898 20.6417,24.1493 20.6832,24.2134 C20.7247,24.2775 20.7675,24.346 20.8114,24.4194 C20.8555,24.4926 20.9004,24.5709 20.9457,24.6529 C20.991,24.7351 21.0363,24.821 21.0805,24.9091 C21.1246,24.9971 21.1675,25.0872 21.2079,25.1773 C21.2483,25.2674 21.2863,25.3575 21.3211,25.4463 C21.3558,25.5351 21.3873,25.6225 21.4157,25.7084 C21.444,25.7944 21.4692,25.8792 21.4916,25.9643 C21.5139,26.0495 21.5337,26.1356 21.5512,26.2245 C21.5689,26.3134 21.5844,26.4051 21.5977,26.4998 C21.6112,26.5944 21.6225,26.6921 21.6318,26.7911 C21.6409,26.8902 21.6481,26.9908 21.6533,27.0905 C21.6584,27.1901 21.6615,27.289 21.6629,27.3846 C21.6642,27.4804 21.6639,27.5729 21.6622,27.661 C21.6606,27.7491 21.6576,27.8328 21.6537,27.9124 C21.6498,27.9922 21.6451,28.0676 21.6397,28.1407 C21.6343,28.2138 21.6283,28.285 21.6213,28.3561 C21.6143,28.427 21.6063,28.4979 21.5971,28.569 C21.588,28.6401 21.5778,28.7115 21.5663,28.7822 C21.555,28.853 21.5423,28.9233 21.5289,28.992 C21.5153,29.0606 21.5007,29.1275 21.4854,29.1918 C21.4701,29.256 21.4541,29.3174 21.4376,29.376 C21.421,29.4344 21.4039,29.4898 21.3862,29.5429 C21.3686,29.5958 21.3504,29.6464 21.3313,29.6963 C21.3122,29.7461 21.292,29.7954 21.2701,29.8451 C21.2483,29.8948 21.2248,29.9449 21.1994,29.9953 C21.174,30.0456 21.1466,30.0963 21.1177,30.1461 C21.0887,30.1961 21.0582,30.2452 21.0265,30.2925 C20.9949,30.3398 20.9621,30.3852 20.9289,30.4274 C20.8957,30.4697 20.8623,30.5089 20.8288,30.5446 C20.7954,30.5803 20.762,30.6125 20.7287,30.6413 C20.6955,30.6701 20.6622,30.6956 20.6283,30.7185 C20.5943,30.7414 20.5596,30.7616 20.5229,30.7794 C20.4864,30.7971 20.4483,30.8122 20.4083,30.8243 C20.3683,30.8365 20.3264,30.8455 20.2835,30.8509 C20.2404,30.8561 20.1961,30.8577 20.1516,30.8553 C20.107,30.8528 20.0623,30.8463 20.0184,30.8357 C19.9744,30.825 19.9313,30.8105 19.8895,30.7922 C19.8478,30.7737 19.8074,30.7516 19.7683,30.7259 C19.7294,30.7003 19.6917,30.6709 19.6545,30.6377 C19.6174,30.6043 19.5805,30.5668 19.5431,30.5241 C19.506,30.4814 19.4683,30.4336 19.4304,30.3807 C19.3926,30.3276 19.3545,30.2695 19.3167,30.207 C19.2792,30.1445 19.242,30.0777 19.2063,30.0083 C19.1705,29.939 19.1363,29.867 19.1044,29.7947 C19.0724,29.7223 19.0428,29.6494 19.0159,29.5775 C18.9891,29.5056 18.9648,29.4347 18.9431,29.3651 C18.9216,29.2955 18.9025,29.227 18.8855,29.1589 C18.8685,29.0907 18.8536,29.0223 18.8401,28.952 C18.8268,28.8816 18.8149,28.8094 18.8046,28.7349 C18.7943,28.6606 18.7854,28.5838 18.778,28.5058 C18.7706,28.4278 18.7647,28.3487 18.7601,28.2696 C18.7555,28.1907 18.7523,28.112 18.7503,28.0353 C18.7483,27.9584 18.7473,27.8835 18.7472,27.8113 C18.7471,27.7391 18.7477,27.6696 18.7488,27.6025 C18.75,27.5355 18.7516,27.4708 18.7535,27.4067 C18.7554,27.3426 18.7574,27.279 18.7598,27.2141 C18.7624,27.1492 18.7652,27.0829 18.7686,27.0152 C18.772,26.9474 18.7759,26.8781 18.7805,26.8078 C18.7849,26.7375 18.79,26.6664 18.7957,26.5957 C18.8015,26.525 18.8078,26.4548 18.8145,26.3864 C18.8214,26.318 18.8287,26.2513 18.8365,26.187 C18.8443,26.1228 18.8526,26.0608 18.8614,26.0009 C18.8703,25.941 18.8796,25.8831 18.8895,25.8256 C18.8995,25.7681 18.9104,25.7105 18.9227,25.6517 C18.9349,25.5927 18.9485,25.5324 18.9642,25.4701 C18.9798,25.4081 18.9973,25.3439 19.0169,25.2788 C19.0366,25.2136 19.0584,25.147 19.0823,25.0806 C19.1061,25.0141 19.132,24.9477 19.1594,24.8824 C19.187,24.8171 19.2163,24.753 19.2471,24.6907 C19.2778,24.6284 19.31,24.5681 19.344,24.5089 C19.3778,24.4499 19.4132,24.3924 19.4512,24.3347 C19.4891,24.2769 19.5298,24.2188 19.5741,24.1592 C19.6183,24.0995 19.6662,24.0384 19.718,23.9759 C19.7697,23.9132 19.8252,23.8493 19.8836,23.785 C19.9421,23.7208 20.0035,23.6563 20.0662,23.5932 C20.1291,23.5301 20.1934,23.4684 20.2574,23.4097 C20.3215,23.351 20.3852,23.2952 20.4477,23.2431 C20.51,23.1911 20.5712,23.1429 20.6307,23.0982 C20.6902,23.0536 20.7483,23.0126 20.806,22.9744 C20.8638,22.9361 20.9213,22.9003 20.9804,22.8664 C21.0394,22.8323 21.1,22.8001 21.1623,22.7695 C21.2246,22.7391 21.2887,22.7103 21.3539,22.6837 C21.4191,22.6572 21.4854,22.6327 21.5516,22.611 C21.6179,22.5892 21.684,22.5699 21.7488,22.5535 C21.8136,22.5371 21.8769,22.5233 21.9384,22.5123 C21.9998,22.5013 22.0594,22.4928 22.1173,22.4863 C22.1751,22.48 22.2314,22.4758 22.2875,22.4734 C22.3437,22.471 22.4,22.4701 22.4579,22.4714 C22.5159,22.4724 22.5753,22.4755 22.6367,22.4808 C22.698,22.486 22.7612,22.4936 22.8256,22.5034 C22.8898,22.5132 22.9551,22.5254 23.0203,22.5398 C23.0855,22.5542 23.1503,22.5707 23.2137,22.5892 C23.277,22.6077 23.3388,22.6279 23.3985,22.6497 C23.458,22.6714 23.5154,22.6947 23.5707,22.7193 C23.6262,22.7439 23.6797,22.7701 23.7326,22.798 C23.7856,22.8258 23.8382,22.8559 23.8918,22.8889 C23.9454,22.9219 24.0001,22.958 24.0561,22.9976 C24.112,23.0371 24.1691,23.0802 24.2269,23.1267 C24.2847,23.173 24.3431,23.2229 24.4009,23.275 C24.4587,23.3272 24.5161,23.3818 24.5717,23.4378 C24.6273,23.4937 24.6813,23.5509 24.7332,23.6089 C24.7849,23.6666 24.8346,23.7251 24.8824,23.7841 C24.9302,23.8431 24.9761,23.9027 25.0215,23.9643 C25.0669,24.0258 25.1119,24.0897 25.1573,24.1574 C25.2028,24.2252 25.2486,24.2969 25.2948,24.3732 C25.341,24.4493 25.3873,24.5298 25.4331,24.6138 C25.479,24.6979 25.5241,24.7856 25.5675,24.8749 C25.6109,24.9641 25.6525,25.0551 25.6912,25.1458 C25.7298,25.2365 25.7656,25.3268 25.7982,25.4157 C25.8307,25.5046 25.8599,25.592 25.8859,25.6778 C25.9119,25.7637 25.9347,25.8483 25.9549,25.9333 C25.9751,26.0183 25.9928,26.1042 26.0085,26.1932 C26.0242,26.2821 26.0378,26.374 26.0495,26.4691 C26.0611,26.5641 26.0709,26.6623 26.0786,26.7624 C26.0864,26.8626 26.0922,26.9646 26.0961,27.0661 C26.1,27.1678 26.1021,27.2689 26.1025,27.3675 C26.1029,27.4661 26.1018,27.5621 26.0995,27.6542 C26.0972,27.7464 26.0937,27.8347 26.0895,27.9194 C26.0852,28.0041 26.0802,28.0854 26.0747,28.165 C26.0692,28.2445 26.063,28.3231 26.0561,28.4021 C26.0491,28.4812 26.0413,28.5608 26.0326,28.6412 C26.0238,28.7216 26.014,28.8027 26.0033,28.8835 C25.9926,28.9643 25.9808,29.0447 25.9683,29.1231 C25.9558,29.2013 25.9425,29.2775 25.9286,29.3503 C25.9147,29.423 25.9003,29.4921 25.8855,29.557 C25.8707,29.6219 25.8556,29.6827 25.84,29.7396 C25.8245,29.7966 25.8086,29.8499 25.7919,29.901 C25.7752,29.952 25.7577,30.0012 25.7388,30.0494 C25.72,30.0977 25.6996,30.1452 25.6775,30.1916 C25.6555,30.2382 25.6318,30.2837 25.6064,30.3279 C25.5811,30.3721 25.5542,30.4146 25.526,30.4548 C25.4979,30.4949 25.4687,30.5328 25.4388,30.5675 C25.4089,30.6023 25.3784,30.6339 25.3476,30.6625 C25.3169,30.6909 25.2859,30.7163 25.2545,30.739 C25.2233,30.7616 25.1916,30.7814 25.1589,30.7993 C25.1262,30.8172 25.0922,30.8332 25.0563,30.8474 C25.0203,30.8615 24.9822,30.8738 24.9421,30.8839 C24.9019,30.894 24.8596,30.9019 24.8157,30.907 C24.7718,30.9123 24.7264,30.9147 24.6805,30.9143 C24.6345,30.9139 24.5881,30.9105 24.5422,30.9042 C24.4964,30.8979 24.4512,30.8886 24.4072,30.8765 C24.3633,30.8645 24.3206,30.8498 24.2793,30.8324 C24.238,30.8151 24.1978,30.7953 24.1582,30.7724 C24.1186,30.7495 24.0792,30.7236 24.039,30.694 C23.999,30.6642 23.9584,30.6305 23.9171,30.5927 C23.8759,30.5548 23.834,30.5127 23.7923,30.4666 C23.7505,30.4207 23.7088,30.3707 23.6683,30.3181 C23.6276,30.2653 23.588,30.2097 23.5504,30.1526 C23.5128,30.0953 23.4771,30.0367 23.4439,29.9775 C23.4105,29.9182 23.3796,29.8586 23.351,29.7984 C23.3221,29.7381 23.2957,29.6777 23.2707,29.6155 C23.2456,29.5532 23.2221,29.4891 23.1993,29.4217 C23.1765,29.354 23.1547,29.2829 23.1336,29.2082 C23.1126,29.1334 23.0924,29.0549 23.0732,28.9738 C23.0543,28.8926 23.0362,28.8087 23.0196,28.7241 C23.0031,28.6394 22.988,28.554 22.9744,28.4697 C22.9608,28.3854 22.9489,28.3023 22.9384,28.2217 C22.9281,28.141 22.9192,28.0626 22.9115,27.9865 C22.9039,27.9105 22.8976,27.8367 22.8922,27.7636 C22.8868,27.6905 22.8823,27.6176 22.8788,27.5431 C22.8751,27.4688 22.8726,27.3928 22.8711,27.315 C22.8695,27.2373 22.8691,27.1577 22.8699,27.0771 C22.8707,26.9966 22.8728,26.9153 22.8762,26.8344 C22.8796,26.7538 22.8843,26.6739 22.8901,26.5963 C22.896,26.5186 22.9031,26.4433 22.9112,26.371 C22.9194,26.2988 22.9287,26.2296 22.939,26.1631 C22.9492,26.0965 22.9605,26.0326 22.973,25.9697 C22.9856,25.9068 22.9993,25.8444 23.0147,25.7814 C23.03,25.7182 23.047,25.6545 23.0656,25.5899 C23.0842,25.5254 23.1044,25.46 23.1259,25.395 C23.1473,25.3299 23.1702,25.265 23.1938,25.2019 C23.2173,25.1387 23.2416,25.0773 23.2658,25.0187 C23.2902,24.9602 23.3145,24.9048 23.3384,24.8529 C23.3624,24.8009 23.3858,24.7527 23.4089,24.7076 C23.4319,24.6626 23.4544,24.6207 23.4767,24.5811 C23.4991,24.5415 23.5215,24.5038 23.5446,24.4666 C23.5678,24.4296 23.5918,24.3932 23.6169,24.357 C23.6421,24.3209 23.6684,24.2848 23.6959,24.249 C23.7233,24.2132 23.7519,24.1775 23.7813,24.1422 C23.8107,24.1069 23.8409,24.0722 23.8715,24.038 C23.9022,24.0037 23.9332,23.9701 23.9644,23.9369 C23.9958,23.9038 24.0272,23.8712 24.0591,23.8386 C24.0909,23.806 24.1232,23.7733 24.1569,23.7394 C24.1905,23.7054 24.2257,23.67 24.2633,23.6327 C24.3008,23.5953 24.341,23.5559 24.3838,23.5147 C24.4266,23.4735 24.4723,23.4305 24.5201,23.3865 C24.5681,23.3426 24.6183,23.2976 24.6697,23.2532 C24.7212,23.2086 24.774,23.1646 24.8269,23.1221 C24.8797,23.0798 24.9328,23.039 24.9852,23.0009 C25.0375,22.9627 25.0893,22.927 25.1404,22.894 C25.1918,22.8609 25.2424,22.8304 25.2936,22.802 C25.3448,22.7736 25.3969,22.7472 25.4512,22.7221 C25.5056,22.6972 25.5621,22.6738 25.6214,22.652 C25.6806,22.63 25.7425,22.6098 25.8064,22.5918 C25.8704,22.5736 25.9363,22.5576 26.0031,22.5439 C26.0699,22.5302 26.1375,22.519 26.2046,22.5105 C26.2716,22.5019 26.338,22.496 26.4032,22.4925 C26.4684,22.489 26.5324,22.4879 26.5951,22.489 C26.6579,22.4902 26.7196,22.4936 26.7818,22.499 C26.844,22.5044 26.9069,22.5119 26.9722,22.522 C27.0374,22.5322 27.105,22.5452 27.1751,22.5613 C27.2451,22.5775 27.3178,22.597 27.392,22.62 C27.4662,22.6431 27.5421,22.6696 27.618,22.6995 C27.6938,22.7294 27.7697,22.7625 27.8439,22.7984 C27.9181,22.8343 27.9905,22.873 28.0606,22.9138 C28.1306,22.9547 28.1981,22.9978 28.2631,23.0432 C28.3283,23.0886 28.3911,23.1363 28.4532,23.1872 C28.5153,23.2381 28.5768,23.2925 28.639,23.3518 C28.7014,23.411 28.7644,23.475 28.828,23.5438 C28.8917,23.6126 28.9559,23.6864 29.0198,23.7639 C29.0836,23.8413 29.1469,23.9224 29.2082,24.0052 C29.2696,24.0881 29.3287,24.1724 29.3846,24.2563 C29.4404,24.3402 29.4928,24.4234 29.5411,24.5045 C29.5895,24.5857 29.6338,24.6648 29.6743,24.7415 C29.7147,24.8183 29.7513,24.8926 29.7852,24.9663 C29.819,25.04 29.8498,25.1126 29.8785,25.1874 C29.9072,25.2622 29.9337,25.3394 29.9596,25.4227 C29.9854,25.5061 30.0105,25.5958 30.0357,25.694 C30.0607,25.7922 30.086,25.899 30.1108,26.0106 C30.1357,26.1221 30.1601,26.2384 30.1819,26.3458 C30.2037,26.4532 30.2229,26.5507 30.2367,26.6237 C30.2507,26.6967 30.2595,26.7442 30.2639,26.7685 C30.2684,26.7926 30.2687,26.7939 30.2687,26.7939" fill-rule="nonzero" vector-effect="none"/></g><defs><clipPath id="clip92"><path d="M9,9 L306,9 L306,306 L9,306 L9,9 z"/></clipPath></defs><g clip-path="url(#clip92)" fill="#35d461" fill-opacity="1" opacity="1" stroke="none" stroke-opacity="0" transform="matrix(0.448933,0,0,0.448933,29.2929,2.62626)"><path d="M180.18,76.26 L194.46,76.26 L194.46,111.9 L180.18,111.9 L180.18,76.26 z" fill-rule="nonzero" vector-effect="none"/></g><defs><clipPath id="clip93"><path d="M1,1 L41,1 L41,41 L1,41 L1,1 z"/></clipPath></defs><g clip-path="url(#clip93)" fill="none" opacity="1" stroke="#35d461" stroke-linecap="butt" stroke-linejoin="miter" stroke-miterlimit="20" stroke-opacity="1" stroke-width="1.3325" transform="matrix(3.33333,0,0,3.33333,30,3.33333)"><path d="M24.0545,10.0586 L25.9777,10.0586 L25.9777,14.8586 L24.0545,14.8586 L24.0545,10.0586 z" fill-rule="nonzero" vector-effect="none"/></g><defs><clipPath id="clip94"><path d="M9,9 L306,9 L306,306 L9,306 L9,9 z"/></clipPath></defs><g clip-path="url(#clip94)" fill="#35d461" fill-opacity="1" opacity="1" stroke="none" stroke-opacity="0" transform="matrix(0.448933,0,0,0.448933,29.2929,2.62626)"><path d="M130.32,79.8 L162.36,94.08 L130.32,108.36 L130.32,79.8 z" fill-rule="nonzero" vector-effect="none"/></g><defs><clipPath id="clip95"><path d="M1,1 L41,1 L41,41 L1,41 L1,1 z"/></clipPath></defs><g clip-path="url(#clip95)" fill="none" opacity="1" stroke="#35d461" stroke-linecap="butt" stroke-linejoin="miter" stroke-miterlimit="20" stroke-opacity="1" stroke-width="1.3325" transform="matrix(3.33333,0,0,3.33333,30,3.33333)"><path d="M17.3394,10.5353 L21.6545,12.4586 L17.3394,14.3818 L17.3394,10.5353 z" fill-rule="nonzero" vector-effect="none"/></g><defs><clipPath id="clip96"><path d="M9,9 L306,9 L306,306 L9,306 L9,9 z"/></clipPath></defs><g clip-path="url(#clip96)" fill="#35d461" fill-opacity="1" opacity="1" stroke="none" stroke-opacity="0" transform="matrix(0.448933,0,0,0.448933,29.2929,2.62626)"><path d="M41.22,201 L55.44,168.9 L69.66,201 L41.22,201 z" fill-rule="nonzero" vector-effect="none"/></g><defs><clipPath id="clip97"><path d="M1,1 L41,1 L41,41 L1,41 L1,1 z"/></clipPath></defs><g clip-path="url(#clip97)" fill="none" opacity="1" stroke="#35d461" stroke-linecap="butt" stroke-linejoin="miter" stroke-miterlimit="20" stroke-opacity="1" stroke-width="1.3325" transform="matrix(3.33333,0,0,3.33333,30,3.33333)"><path d="M5.33939,26.8586 L7.25454,22.5353 L9.16969,26.8586 L5.33939,26.8586 z" fill-rule="nonzero" vector-effect="none"/></g><defs><clipPath id="clip98"><path d="M9,9 L306,9 L306,306 L9,306 L9,9 z"/></clipPath></defs><g clip-path="url(#clip98)" fill="#35d461" fill-opacity="1" opacity="1" stroke="none" stroke-opacity="0" transform="matrix(0.448933,0,0,0.448933,29.2929,2.62626)"><path d="M226.5,201 L240.78,168.9 L255,201 L226.5,201 z" fill-rule="nonzero" vector-effect="none"/></g><defs><clipPath id="clip99"><path d="M1,1 L41,1 L41,41 L1,41 L1,1 z"/></clipPath></defs><g clip-path="url(#clip99)" fill="none" opacity="1" stroke="#35d461" stroke-linecap="butt" stroke-linejoin="miter" stroke-miterlimit="20" stroke-opacity="1" stroke-width="1.3325" transform="matrix(3.33333,0,0,3.33333,30,3.33333)"><path d="M30.2929,26.8586 L32.2161,22.5353 L34.1313,26.8586 L30.2929,26.8586 z" fill-rule="nonzero" vector-effect="none"/></g><defs><clipPath id="clip100"><path d="M1,1 L41,1 L41,41 L1,41 L1,1 z"/></clipPath></defs><g clip-path="url(#clip100)" fill="none" opacity="1" stroke="#35d461" stroke-linecap="butt" stroke-linejoin="miter" stroke-miterlimit="20" stroke-opacity="1" stroke-width="1.3325" transform="matrix(3.33333,0,0,3.33333,30,3.33333)"><path d="M0.999999,0.999999 L41,0.999999 L41,41 L0.999999,41 L0.999999,0.999999 z" fill-rule="nonzero" vector-effect="none"/></g><defs><clipPath id="clip117"><path d="M-189,-154 L16,-154 L16,51 L-189,51 L-189,-154 z"/></clipPath></defs><g clip-path="url(#clip117)" fill="none" opacity="1" stroke="#e60000" stroke-linecap="square" stroke-linejoin="bevel" stroke-opacity="1" stroke-width="1" transform="matrix(0.651042,0,0,0.651042,156.667,106.667)"><text fill="#e60000" fill-opacity="1" font-family="Liberation Sans" font-size="40" font-style="normal" font-weight="400" stroke="none" textLength="24" x="-31.25" xml:space="preserve" y="17.9219">T</text></g><defs><clipPath id="clip120"><path d="M-189,-51 L16,-51 L16,154 L-189,154 L-189,-51 z"/></clipPath></defs><g clip-path="url(#clip120)" fill="none" opacity="1" stroke="#e60000" stroke-linecap="square" stroke-linejoin="bevel" stroke-opacity="1" stroke-width="1" transform="matrix(0.651042,0,0,0.651042,156.667,40)"><text fill="#e60000" fill-opacity="1" font-family="Liberation Sans" font-size="40" font-style="normal" font-weight="400" stroke="none" textLength="29" x="-36.9531" xml:space="preserve" y="17.9219">C</text></g><defs><clipPath id="clip123"><path d="M-15,-102 L190,-102 L190,103 L-15,103 L-15,-102 z"/></clipPath></defs><g clip-path="url(#clip123)" fill="none" opacity="1" stroke="#e60000" stroke-linecap="square" stroke-linejoin="bevel" stroke-opacity="1" stroke-width="1" transform="matrix(0.651042,0,0,0.651042,43.3333,73.3333)"><text fill="#e60000" fill-opacity="1" font-family="Liberation Sans" font-size="40" font-style="normal" font-weight="400" stroke="none" textLength="29" x="0" xml:space="preserve" y="17.9219">R</text></g><defs><clipPath id="clip129"><path d="M-10,-2 L50,-2 L50,42 L-10,42 L-10,-2 z"/></clipPath></defs><g clip-path="url(#clip129)" fill="none" opacity="1" stroke="none" stroke-opacity="0" transform="matrix(3.33333,0,0,3.33333,33.3333,6.66667)"><path d="M0,0 L40,0 L40,40 L0,40 L0,0 z" fill-rule="evenodd" vector-effect="none"/></g></g></svg>
