<?xml version="1.0" encoding="UTF-8"?><svg width="52.9167mm" height="47.3604mm" viewBox="0 0 200 179" xmlns="http://www.w3.org/2000/svg" xmlns:xlink="http://www.w3.org/1999/xlink"><g fill="none" stroke="black" stroke-width="1" fill-rule="evenodd" stroke-linecap="square" stroke-linejoin="bevel"><g clip-path="none" fill="none" opacity="1" stroke="none" stroke-opacity="0" transform="matrix(1,0,0,1,0,0)"><path d="M0,0 L200,0 L200,179 L0,179 L0,0 z" fill-rule="evenodd" vector-effect="none"/></g><defs><clipPath id="clip3"><path d="M-22,-13 L7,-13 L7,13 L-22,13 L-22,-13 z"/></clipPath></defs><g clip-path="url(#clip3)" fill="none" opacity="1" stroke="#000000" stroke-linecap="round" stroke-linejoin="miter" stroke-miterlimit="2" stroke-opacity="1" stroke-width="2" transform="matrix(6.89655,0,0,6.89655,151.724,89.6552)"><path d="M0,-5 L5,0 L0,5" fill-rule="evenodd" vector-effect="none"/></g><defs><clipPath id="clip6"><path d="M-2,-2 L27,-2 L27,24 L-2,24 L-2,-2 z"/></clipPath></defs><g clip-path="url(#clip6)" fill="#ffffff" fill-opacity="1" opacity="1" stroke="none" stroke-opacity="0" transform="matrix(6.89655,0,0,6.89655,13.7931,13.7931)"><path d="M0,0 L20,0 L20,22 L0,22 L0,0 z" fill-rule="evenodd" vector-effect="none"/></g><defs><clipPath id="clip11"><path d="M-51,-56 L51,-56 L51,57 L-51,57 L-51,-56 z"/></clipPath></defs><g clip-path="url(#clip11)" fill="none" opacity="1" stroke="#000000" stroke-linecap="butt" stroke-linejoin="miter" stroke-miterlimit="2" stroke-opacity="1" stroke-width="0.145" transform="matrix(1.34698,0,0,1.34698,82.7586,89.6552)"><text fill="#000000" fill-opacity="1" font-family="Liberation Sans" font-size="40" font-style="normal" font-weight="400" stroke="none" textLength="38" x="-24.125" xml:space="preserve" y="17.9219">f()</text></g><defs><clipPath id="clip17"><path d="M-2,-2 L27,-2 L27,24 L-2,24 L-2,-2 z"/></clipPath></defs><g clip-path="url(#clip17)" fill="none" opacity="1" stroke="#000000" stroke-linecap="butt" stroke-linejoin="miter" stroke-miterlimit="2" stroke-opacity="1" stroke-width="0.461899" transform="matrix(6.89655,0,0,6.89655,13.7931,13.7931)"><path d="M0,0 L20,0 L20,22 L0,22 L0,0 z" fill-rule="evenodd" vector-effect="none"/></g></g></svg>
