<?xml version="1.0" encoding="UTF-8"?><svg width="52.9167mm" height="51.5938mm" viewBox="0 0 200 195" xmlns="http://www.w3.org/2000/svg" xmlns:xlink="http://www.w3.org/1999/xlink"><g fill="none" stroke="black" stroke-width="1" fill-rule="evenodd" stroke-linecap="square" stroke-linejoin="bevel"><g clip-path="none" fill="none" opacity="1" stroke="none" stroke-opacity="0" transform="matrix(1,0,0,1,0,0)"><path d="M0,0 L200,0 L200,195 L0,195 L0,0 z" fill-rule="evenodd" vector-effect="none"/></g><defs><clipPath id="clip6"><path d="M0,0 L10,0 L10,10 L0,10 L0,0 z"/></clipPath></defs><g clip-path="url(#clip6)" fill="#b3b3b3" fill-opacity="1" opacity="1" stroke="none" stroke-opacity="0" transform="matrix(-4.44444,0,0,4.44444,44.4444,35.5556)"><path d="M0.5,3.5 L3.5,3.5 L3.5,6.5 L0.5,6.5 L0.5,3.5 z" fill-rule="evenodd" vector-effect="none"/></g><defs><clipPath id="clip8"><path d="M0,0 L10,0 L10,10 L0,10 L0,0 z"/></clipPath></defs><g clip-path="url(#clip8)" fill="#000000" fill-opacity="1" opacity="1" stroke="none" stroke-opacity="0" transform="matrix(-4.44444,0,0,4.44444,44.4444,35.5556)"><path d="M3,4 L3,6 L1,6 L1,4 L3,4 M4,3 L0,3 L0,7 L4,7 L4,3" fill-rule="nonzero" vector-effect="none"/></g><defs><clipPath id="clip28"><path d="M0,0 L10,0 L10,10 L0,10 L0,0 z"/></clipPath></defs><g clip-path="url(#clip28)" fill="#b3b3b3" fill-opacity="1" opacity="1" stroke="none" stroke-opacity="0" transform="matrix(4.44444,0,0,4.44444,155.556,80)"><path d="M0.5,3.5 L3.5,3.5 L3.5,6.5 L0.5,6.5 L0.5,3.5 z" fill-rule="evenodd" vector-effect="none"/></g><defs><clipPath id="clip30"><path d="M0,0 L10,0 L10,10 L0,10 L0,0 z"/></clipPath></defs><g clip-path="url(#clip30)" fill="#000000" fill-opacity="1" opacity="1" stroke="none" stroke-opacity="0" transform="matrix(4.44444,0,0,4.44444,155.556,80)"><path d="M3,4 L3,6 L1,6 L1,4 L3,4 M4,3 L0,3 L0,7 L4,7 L4,3" fill-rule="nonzero" vector-effect="none"/></g><defs><clipPath id="clip50"><path d="M0,0 L10,0 L10,10 L0,10 L0,0 z"/></clipPath></defs><g clip-path="url(#clip50)" fill="#b3b3b3" fill-opacity="1" opacity="1" stroke="none" stroke-opacity="0" transform="matrix(-4.44444,0,0,4.44444,44.4444,124.444)"><path d="M0.5,3.5 L3.5,3.5 L3.5,6.5 L0.5,6.5 L0.5,3.5 z" fill-rule="evenodd" vector-effect="none"/></g><defs><clipPath id="clip52"><path d="M0,0 L10,0 L10,10 L0,10 L0,0 z"/></clipPath></defs><g clip-path="url(#clip52)" fill="#000000" fill-opacity="1" opacity="1" stroke="none" stroke-opacity="0" transform="matrix(-4.44444,0,0,4.44444,44.4444,124.444)"><path d="M3,4 L3,6 L1,6 L1,4 L3,4 M4,3 L0,3 L0,7 L4,7 L4,3" fill-rule="nonzero" vector-effect="none"/></g><defs><clipPath id="clip69"><path d="M-10,-2 L35,-2 L35,42 L-10,42 L-10,-2 z"/></clipPath></defs><g clip-path="url(#clip69)" fill="#ffffff" fill-opacity="1" opacity="1" stroke="none" stroke-opacity="0" transform="matrix(4.44444,0,0,4.44444,44.4444,8.88889)"><path d="M0,0 L25,0 L25,40 L0,40 L0,0 z" fill-rule="evenodd" vector-effect="none"/></g><defs><clipPath id="clip73"><path d="M0,0 L25,0 L25,40 L0,40 L0,0 z"/></clipPath></defs><g clip-path="url(#clip73)" fill="none" opacity="1" stroke="none" stroke-opacity="0" transform="matrix(4.44444,0,0,4.44444,44.4444,8.88889)"><path d="M0,0 L25,0 L25,40 L0,40 L0,0 z" fill-rule="evenodd" vector-effect="none"/></g><defs><clipPath id="clip83"><path d="M1,1 L26,1 L26,41 L1,41 L1,1 z"/></clipPath></defs><g clip-path="url(#clip83)" fill="none" opacity="1" stroke="#44805c" stroke-linecap="butt" stroke-linejoin="miter" stroke-miterlimit="20" stroke-opacity="1" stroke-width="1.3325" transform="matrix(4.44444,0,0,4.44444,40,4.44444)"><path d="M1.01104,11.0889 L13.4283,11.0889 L12.9316,11.0889" fill-rule="nonzero" vector-effect="none"/></g><defs><clipPath id="clip84"><path d="M1,1 L26,1 L26,41 L1,41 L1,1 z"/></clipPath></defs><g clip-path="url(#clip84)" fill="none" opacity="1" stroke="#44805c" stroke-linecap="butt" stroke-linejoin="miter" stroke-miterlimit="20" stroke-opacity="1" stroke-width="1.3325" transform="matrix(4.44444,0,0,4.44444,40,4.44444)"><path d="M1.01104,31.089 L13.4283,31.089 L12.9316,31.089" fill-rule="nonzero" vector-effect="none"/></g><defs><clipPath id="clip85"><path d="M1,1 L26,1 L26,41 L1,41 L1,1 z"/></clipPath></defs><g clip-path="url(#clip85)" fill="none" opacity="1" stroke="#44805c" stroke-linecap="butt" stroke-linejoin="miter" stroke-miterlimit="20" stroke-opacity="1" stroke-width="1.3325" transform="matrix(4.44444,0,0,4.44444,40,4.44444)"><path d="M14.0078,21.1667 L25.9283,21.1667" fill-rule="nonzero" vector-effect="none"/></g><defs><clipPath id="clip86"><path d="M1,1 L26,1 L26,41 L1,41 L1,1 z"/></clipPath></defs><g clip-path="url(#clip86)" fill="none" opacity="1" stroke="#ffffff" stroke-linecap="butt" stroke-linejoin="miter" stroke-miterlimit="20" stroke-opacity="1" stroke-width="1.3325" transform="matrix(4.44444,0,0,4.44444,40,4.44444)"><path d="M1,1 L26.0001,1 L26.0001,41.0001 L1,41.0001 L1,1 z" fill-rule="nonzero" vector-effect="none"/></g><defs><clipPath id="clip87"><path d="M9,8 L281,8 L281,440 L9,440 L9,8 z"/></clipPath></defs><g clip-path="url(#clip87)" fill="#44805c" fill-opacity="1" opacity="1" stroke="none" stroke-opacity="0" transform="matrix(0.408798,0,0,0.411524,40.8143,5.58025)"><path d="M134.88,325.74 L152.88,325.74 L152.88,341.94 L134.88,341.94 L134.88,325.74 z" fill-rule="nonzero" vector-effect="none"/></g><defs><clipPath id="clip88"><path d="M1,1 L26,1 L26,41 L1,41 L1,1 z"/></clipPath></defs><g clip-path="url(#clip88)" fill="none" opacity="1" stroke="#44805c" stroke-linecap="butt" stroke-linejoin="miter" stroke-miterlimit="20" stroke-opacity="1" stroke-width="1.3325" transform="matrix(4.44444,0,0,4.44444,40,4.44444)"><path d="M12.5894,30.4167 L14.2451,30.4167 L14.2451,31.9167 L12.5894,31.9167 L12.5894,30.4167 z" fill-rule="nonzero" vector-effect="none"/></g><defs><clipPath id="clip89"><path d="M9,8 L281,8 L281,440 L9,440 L9,8 z"/></clipPath></defs><g clip-path="url(#clip89)" fill="#44805c" fill-opacity="1" opacity="1" stroke="none" stroke-opacity="0" transform="matrix(0.408798,0,0,0.411524,40.8143,5.58025)"><path d="M135.78,107.94 L153.78,107.94 L153.78,124.14 L135.78,124.14 L135.78,107.94 z" fill-rule="nonzero" vector-effect="none"/></g><defs><clipPath id="clip90"><path d="M1,1 L26,1 L26,41 L1,41 L1,1 z"/></clipPath></defs><g clip-path="url(#clip90)" fill="none" opacity="1" stroke="#44805c" stroke-linecap="butt" stroke-linejoin="miter" stroke-miterlimit="20" stroke-opacity="1" stroke-width="1.3325" transform="matrix(4.44444,0,0,4.44444,40,4.44444)"><path d="M12.6722,10.25 L14.3278,10.25 L14.3278,11.75 L12.6722,11.75 L12.6722,10.25 z" fill-rule="nonzero" vector-effect="none"/></g><defs><clipPath id="clip91"><path d="M9,8 L281,8 L281,440 L9,440 L9,8 z"/></clipPath></defs><g clip-path="url(#clip91)" fill="#44805c" fill-opacity="1" opacity="1" stroke="none" stroke-opacity="0" transform="matrix(0.408798,0,0,0.411524,40.8143,5.58025)"><path d="M134.88,217.74 L152.88,217.74 L152.88,233.94 L134.88,233.94 L134.88,217.74 z" fill-rule="nonzero" vector-effect="none"/></g><defs><clipPath id="clip92"><path d="M1,1 L26,1 L26,41 L1,41 L1,1 z"/></clipPath></defs><g clip-path="url(#clip92)" fill="none" opacity="1" stroke="#44805c" stroke-linecap="butt" stroke-linejoin="miter" stroke-miterlimit="20" stroke-opacity="1" stroke-width="1.3325" transform="matrix(4.44444,0,0,4.44444,40,4.44444)"><path d="M12.5894,20.4167 L14.2451,20.4167 L14.2451,21.9167 L12.5894,21.9167 L12.5894,20.4167 z" fill-rule="nonzero" vector-effect="none"/></g><defs><clipPath id="clip93"><path d="M1,1 L26,1 L26,41 L1,41 L1,1 z"/></clipPath></defs><g clip-path="url(#clip93)" fill="none" opacity="1" stroke="#44805c" stroke-linecap="butt" stroke-linejoin="miter" stroke-miterlimit="20" stroke-opacity="1" stroke-width="1.3325" transform="matrix(4.44444,0,0,4.44444,40,4.44444)"><path d="M13.4172,6.00001 L13.4172,36.2501" fill-rule="nonzero" vector-effect="none"/></g><defs><clipPath id="clip110"><path d="M-113,-102 L15,-102 L15,103 L-113,103 L-113,-102 z"/></clipPath></defs><g clip-path="url(#clip110)" fill="none" opacity="1" stroke="#e60000" stroke-linecap="square" stroke-linejoin="bevel" stroke-opacity="1" stroke-width="1" transform="matrix(0.868056,0,0,0.868056,142.222,97.7778)"><text fill="#e60000" fill-opacity="1" font-family="Liberation Sans" font-size="40" font-style="normal" font-weight="400" stroke="none" textLength="29" x="-36.9531" xml:space="preserve" y="17.9219">C</text></g><defs><clipPath id="clip113"><path d="M-15,-154 L113,-154 L113,51 L-15,51 L-15,-154 z"/></clipPath></defs><g clip-path="url(#clip113)" fill="none" opacity="1" stroke="#e60000" stroke-linecap="square" stroke-linejoin="bevel" stroke-opacity="1" stroke-width="1" transform="matrix(0.868056,0,0,0.868056,57.7778,142.222)"><text fill="#e60000" fill-opacity="1" font-family="Liberation Sans" font-size="40" font-style="normal" font-weight="400" stroke="none" textLength="27" x="0" xml:space="preserve" y="17.9219">B</text></g><defs><clipPath id="clip116"><path d="M-15,-51 L113,-51 L113,154 L-15,154 L-15,-51 z"/></clipPath></defs><g clip-path="url(#clip116)" fill="none" opacity="1" stroke="#e60000" stroke-linecap="square" stroke-linejoin="bevel" stroke-opacity="1" stroke-width="1" transform="matrix(0.868056,0,0,0.868056,57.7778,53.3333)"><text fill="#e60000" fill-opacity="1" font-family="Liberation Sans" font-size="40" font-style="normal" font-weight="400" stroke="none" textLength="27" x="0" xml:space="preserve" y="17.9219">A</text></g><defs><clipPath id="clip122"><path d="M-10,-2 L35,-2 L35,42 L-10,42 L-10,-2 z"/></clipPath></defs><g clip-path="url(#clip122)" fill="none" opacity="1" stroke="none" stroke-opacity="0" transform="matrix(4.44444,0,0,4.44444,44.4444,8.88889)"><path d="M0,0 L25,0 L25,40 L0,40 L0,0 z" fill-rule="evenodd" vector-effect="none"/></g></g></svg>
