<?xml version="1.0" encoding="UTF-8"?><svg width="52.9167mm" height="38.6292mm" viewBox="0 0 200 146" xmlns="http://www.w3.org/2000/svg" xmlns:xlink="http://www.w3.org/1999/xlink"><g fill="none" stroke="black" stroke-width="1" fill-rule="evenodd" stroke-linecap="square" stroke-linejoin="bevel"><g clip-path="none" fill="none" opacity="1" stroke="none" stroke-opacity="0" transform="matrix(1,0,0,1,0,0)"><path d="M0,0 L200,0 L200,146 L0,146 L0,0 z" fill-rule="evenodd" vector-effect="none"/></g><defs><clipPath id="clip6"><path d="M0,0 L10,0 L10,10 L0,10 L0,0 z"/></clipPath></defs><g clip-path="url(#clip6)" fill="#b3b3b3" fill-opacity="1" opacity="1" stroke="none" stroke-opacity="0" transform="matrix(3.33333,0,0,3.33333,166.667,60)"><path d="M0.5,3.5 L3.5,3.5 L3.5,6.5 L0.5,6.5 L0.5,3.5 z" fill-rule="evenodd" vector-effect="none"/></g><defs><clipPath id="clip8"><path d="M0,0 L10,0 L10,10 L0,10 L0,0 z"/></clipPath></defs><g clip-path="url(#clip8)" fill="#000000" fill-opacity="1" opacity="1" stroke="none" stroke-opacity="0" transform="matrix(3.33333,0,0,3.33333,166.667,60)"><path d="M3,4 L3,6 L1,6 L1,4 L3,4 M4,3 L0,3 L0,7 L4,7 L4,3" fill-rule="nonzero" vector-effect="none"/></g><defs><clipPath id="clip28"><path d="M0,0 L10,0 L10,10 L0,10 L0,0 z"/></clipPath></defs><g clip-path="url(#clip28)" fill="#b3b3b3" fill-opacity="1" opacity="1" stroke="none" stroke-opacity="0" transform="matrix(-3.33333,0,0,3.33333,33.3333,60)"><path d="M0.5,3.5 L3.5,3.5 L3.5,6.5 L0.5,6.5 L0.5,3.5 z" fill-rule="evenodd" vector-effect="none"/></g><defs><clipPath id="clip30"><path d="M0,0 L10,0 L10,10 L0,10 L0,0 z"/></clipPath></defs><g clip-path="url(#clip30)" fill="#000000" fill-opacity="1" opacity="1" stroke="none" stroke-opacity="0" transform="matrix(-3.33333,0,0,3.33333,33.3333,60)"><path d="M3,4 L3,6 L1,6 L1,4 L3,4 M4,3 L0,3 L0,7 L4,7 L4,3" fill-rule="nonzero" vector-effect="none"/></g><defs><clipPath id="clip47"><path d="M-10,-2 L50,-2 L50,42 L-10,42 L-10,-2 z"/></clipPath></defs><g clip-path="url(#clip47)" fill="#ffffff" fill-opacity="1" opacity="1" stroke="none" stroke-opacity="0" transform="matrix(3.33333,0,0,3.33333,33.3333,6.66667)"><path d="M0,0 L40,0 L40,40 L0,40 L0,0 z" fill-rule="evenodd" vector-effect="none"/></g><defs><clipPath id="clip51"><path d="M0,0 L40,0 L40,40 L0,40 L0,0 z"/></clipPath></defs><g clip-path="url(#clip51)" fill="none" opacity="1" stroke="none" stroke-opacity="0" transform="matrix(3.33333,0,0,3.33333,33.3333,6.66667)"><path d="M0,0 L40,0 L40,40 L0,40 L0,0 z" fill-rule="evenodd" vector-effect="none"/></g><defs><clipPath id="clip61"><path d="M1,1 L41,1 L41,41 L1,41 L1,1 z"/></clipPath></defs><g clip-path="url(#clip61)" fill="none" opacity="1" stroke="#44805c" stroke-linecap="butt" stroke-linejoin="miter" stroke-miterlimit="4" stroke-opacity="1" stroke-width="1.3325" transform="matrix(3.33333,0,0,3.33333,30,3.33333)"><path d="M13.7704,25.617 C12.398,23.7079 11.7648,21.3166 11.9997,18.9303 C12.2347,16.5441 13.3202,14.3425 15.035,12.7742 C16.7498,11.2059 18.9648,10.3889 21.2287,10.4898 C23.4926,10.5907 25.635,11.6017 27.2192,13.317 C28.8036,15.0323 29.7106,17.3225 29.7554,19.7213 C29.8002,22.12 28.9796,24.4465 27.4607,26.2269 C25.9416,28.0072 23.8388,29.1072 21.5804,29.3028 C19.3221,29.4985 17.0782,28.775 15.3062,27.2797" fill-rule="nonzero" vector-effect="none"/></g><defs><clipPath id="clip62"><path d="M1,1 L41,1 L41,41 L1,41 L1,1 z"/></clipPath></defs><g clip-path="url(#clip62)" fill="none" opacity="1" stroke="#000000" stroke-linecap="butt" stroke-linejoin="miter" stroke-miterlimit="20" stroke-opacity="1" stroke-width="1.3325" transform="matrix(3.33333,0,0,3.33333,30,3.33333)"><path d="M1,1 L41,1 L41,41 L1,41 L1,1 z" fill-rule="nonzero" vector-effect="none"/></g><defs><clipPath id="clip63"><path d="M1,1 L41,1 L41,41 L1,41 L1,1 z"/></clipPath></defs><g clip-path="url(#clip63)" fill="none" opacity="1" stroke="#44805c" stroke-linecap="butt" stroke-linejoin="miter" stroke-miterlimit="20" stroke-opacity="1" stroke-width="1.3325" transform="matrix(3.33333,0,0,3.33333,30,3.33333)"><path d="M21,10.4588 L32.1111,10.4588" fill-rule="nonzero" vector-effect="none"/></g><defs><clipPath id="clip64"><path d="M9,9 L495,9 L495,468 L9,468 L9,9 z"/></clipPath></defs><g clip-path="url(#clip64)" fill="#ffffff" fill-opacity="1" opacity="1" stroke="none" stroke-opacity="0" transform="matrix(0.274348,0,0,0.290487,30.8642,4.05229)"><path d="M241.2,214.2 L117,338.4 L241.2,214.2 z" fill-rule="nonzero" vector-effect="none"/></g><defs><clipPath id="clip65"><path d="M1,1 L41,1 L41,41 L1,41 L1,1 z"/></clipPath></defs><g clip-path="url(#clip65)" fill="none" opacity="1" stroke="#35d461" stroke-linecap="butt" stroke-linejoin="miter" stroke-miterlimit="20" stroke-opacity="1" stroke-width="1.3325" transform="matrix(3.33333,0,0,3.33333,30,3.33333)"><path d="M20.1111,18.8824 L9.88889,29.7059 L20.1111,18.8824 z" fill-rule="nonzero" vector-effect="none"/></g><defs><clipPath id="clip66"><path d="M1,1 L41,1 L41,41 L1,41 L1,1 z"/></clipPath></defs><g clip-path="url(#clip66)" fill="none" opacity="1" stroke="#35d461" stroke-linecap="butt" stroke-linejoin="miter" stroke-miterlimit="20" stroke-opacity="1" stroke-width="1.3325" transform="matrix(3.33333,0,0,3.33333,30,3.33333)"><path d="M21.8889,20.2941 L11.6667,31.1177" fill-rule="nonzero" vector-effect="none"/></g><defs><clipPath id="clip67"><path d="M1,1 L41,1 L41,41 L1,41 L1,1 z"/></clipPath></defs><g clip-path="url(#clip67)" fill="none" opacity="1" stroke="#35d461" stroke-linecap="butt" stroke-linejoin="miter" stroke-miterlimit="4" stroke-opacity="1" stroke-width="1.3325" transform="matrix(3.33333,0,0,3.33333,30,3.33333)"><path d="M20.1111,18.8824 C20.2879,18.6328 20.5511,18.4677 20.8429,18.4236 C21.1346,18.3794 21.4309,18.4599 21.6667,18.6471 C21.9024,18.8343 22.0583,19.1129 22.0999,19.4219 C22.1416,19.7307 22.0657,20.0445 21.8889,20.2941" fill-rule="nonzero" vector-effect="none"/></g><defs><clipPath id="clip68"><path d="M1,1 L41,1 L41,41 L1,41 L1,1 z"/></clipPath></defs><g clip-path="url(#clip68)" fill="none" opacity="1" stroke="#35d461" stroke-linecap="butt" stroke-linejoin="miter" stroke-miterlimit="4" stroke-opacity="1" stroke-width="1.3325" transform="matrix(3.33333,0,0,3.33333,30,3.33333)"><path d="M8.11111,32.5294 C7.48624,31.7476 7.16791,30.7419 7.2215,29.7192 C7.27509,28.6965 7.69654,27.7344 8.39926,27.0304 C9.10197,26.3265 10.0326,25.9343 11,25.9343 C11.9674,25.9343 12.898,26.3265 13.6007,27.0304 C14.3035,27.7344 14.7249,28.6965 14.7785,29.7192 C14.8321,30.7419 14.5137,31.7476 13.8889,32.5294" fill-rule="nonzero" vector-effect="none"/></g><defs><clipPath id="clip69"><path d="M9,9 L495,9 L495,468 L9,468 L9,9 z"/></clipPath></defs><g clip-path="url(#clip69)" fill="#35d461" fill-opacity="1" opacity="1" stroke="none" stroke-opacity="0" transform="matrix(0.274348,0,0,0.290487,30.8642,4.05229)"><path d="M165.6,370.8 L171,343.8 L181.8,349.2 L165.6,370.8 z" fill-rule="nonzero" vector-effect="none"/></g><defs><clipPath id="clip70"><path d="M1,1 L41,1 L41,41 L1,41 L1,1 z"/></clipPath></defs><g clip-path="url(#clip70)" fill="none" opacity="1" stroke="#35d461" stroke-linecap="butt" stroke-linejoin="miter" stroke-miterlimit="20" stroke-opacity="1" stroke-width="1.3325" transform="matrix(3.33333,0,0,3.33333,30,3.33333)"><path d="M13.8889,32.5294 L14.3333,30.1765 L15.2222,30.6471 L13.8889,32.5294 z" fill-rule="nonzero" vector-effect="none"/></g><defs><clipPath id="clip71"><path d="M1,1 L41,1 L41,41 L1,41 L1,1 z"/></clipPath></defs><g clip-path="url(#clip71)" fill="none" opacity="1" stroke="#35d461" stroke-linecap="butt" stroke-linejoin="miter" stroke-miterlimit="4" stroke-opacity="1" stroke-width="1.3325" transform="matrix(3.33333,0,0,3.33333,30,3.33333)"><path d="M11.8889,30.4118 C11.8889,31.0615 11.3914,31.5882 10.7778,31.5882 C10.1641,31.5882 9.66666,31.0615 9.66666,30.4118 C9.66666,29.762 10.1641,29.2353 10.7778,29.2353 C11.3914,29.2353 11.8889,29.762 11.8889,30.4118 z" fill-rule="nonzero" vector-effect="none"/></g><defs><clipPath id="clip88"><path d="M-189,-102 L16,-102 L16,103 L-189,103 L-189,-102 z"/></clipPath></defs><g clip-path="url(#clip88)" fill="none" opacity="1" stroke="#e60000" stroke-linecap="square" stroke-linejoin="bevel" stroke-opacity="1" stroke-width="1" transform="matrix(0.651042,0,0,0.651042,156.667,73.3333)"><text fill="#e60000" fill-opacity="1" font-family="Liberation Sans" font-size="40" font-style="normal" font-weight="400" stroke="none" textLength="27" x="-34.125" xml:space="preserve" y="17.9219">P</text></g><defs><clipPath id="clip91"><path d="M-15,-102 L190,-102 L190,103 L-15,103 L-15,-102 z"/></clipPath></defs><g clip-path="url(#clip91)" fill="none" opacity="1" stroke="#e60000" stroke-linecap="square" stroke-linejoin="bevel" stroke-opacity="1" stroke-width="1" transform="matrix(0.651042,0,0,0.651042,43.3333,73.3333)"><text fill="#e60000" fill-opacity="1" font-family="Liberation Sans" font-size="40" font-style="normal" font-weight="400" stroke="none" textLength="27" x="0" xml:space="preserve" y="17.9219">A</text></g><defs><clipPath id="clip97"><path d="M-10,-2 L50,-2 L50,42 L-10,42 L-10,-2 z"/></clipPath></defs><g clip-path="url(#clip97)" fill="none" opacity="1" stroke="none" stroke-opacity="0" transform="matrix(3.33333,0,0,3.33333,33.3333,6.66667)"><path d="M0,0 L40,0 L40,40 L0,40 L0,0 z" fill-rule="evenodd" vector-effect="none"/></g></g></svg>
