<?xml version="1.0" encoding="UTF-8"?><svg width="52.9167mm" height="28.0458mm" viewBox="0 0 200 106" xmlns="http://www.w3.org/2000/svg" xmlns:xlink="http://www.w3.org/1999/xlink"><g fill="none" stroke="black" stroke-width="1" fill-rule="evenodd" stroke-linecap="square" stroke-linejoin="bevel"><g clip-path="none" fill="none" opacity="1" stroke="none" stroke-opacity="0" transform="matrix(1,0,0,1,0,0)"><path d="M0,0 L200,0 L200,106 L0,106 L0,0 z" fill-rule="evenodd" vector-effect="none"/></g><defs><clipPath id="clip6"><path d="M0,0 L10,0 L10,10 L0,10 L0,0 z"/></clipPath></defs><g clip-path="url(#clip6)" fill="#b3b3b3" fill-opacity="1" opacity="1" stroke="none" stroke-opacity="0" transform="matrix(3.33333,0,0,3.33333,166.667,40)"><path d="M0.5,3.5 L3.5,3.5 L3.5,6.5 L0.5,6.5 L0.5,3.5 z" fill-rule="evenodd" vector-effect="none"/></g><defs><clipPath id="clip8"><path d="M0,0 L10,0 L10,10 L0,10 L0,0 z"/></clipPath></defs><g clip-path="url(#clip8)" fill="#000000" fill-opacity="1" opacity="1" stroke="none" stroke-opacity="0" transform="matrix(3.33333,0,0,3.33333,166.667,40)"><path d="M3,4 L3,6 L1,6 L1,4 L3,4 M4,3 L0,3 L0,7 L4,7 L4,3" fill-rule="nonzero" vector-effect="none"/></g><defs><clipPath id="clip28"><path d="M0,0 L10,0 L10,10 L0,10 L0,0 z"/></clipPath></defs><g clip-path="url(#clip28)" fill="#b3b3b3" fill-opacity="1" opacity="1" stroke="none" stroke-opacity="0" transform="matrix(-3.33333,0,0,3.33333,33.3333,40)"><path d="M0.5,3.5 L3.5,3.5 L3.5,6.5 L0.5,6.5 L0.5,3.5 z" fill-rule="evenodd" vector-effect="none"/></g><defs><clipPath id="clip30"><path d="M0,0 L10,0 L10,10 L0,10 L0,0 z"/></clipPath></defs><g clip-path="url(#clip30)" fill="#000000" fill-opacity="1" opacity="1" stroke="none" stroke-opacity="0" transform="matrix(-3.33333,0,0,3.33333,33.3333,40)"><path d="M3,4 L3,6 L1,6 L1,4 L3,4 M4,3 L0,3 L0,7 L4,7 L4,3" fill-rule="nonzero" vector-effect="none"/></g><defs><clipPath id="clip47"><path d="M-10,-2 L50,-2 L50,30 L-10,30 L-10,-2 z"/></clipPath></defs><g clip-path="url(#clip47)" fill="#ffffff" fill-opacity="1" opacity="1" stroke="none" stroke-opacity="0" transform="matrix(3.33333,0,0,3.33333,33.3333,6.66667)"><path d="M0,0 L40,0 L40,28 L0,28 L0,0 z" fill-rule="evenodd" vector-effect="none"/></g><defs><clipPath id="clip51"><path d="M0,0 L40,0 L40,28 L0,28 L0,0 z"/></clipPath></defs><g clip-path="url(#clip51)" fill="none" opacity="1" stroke="none" stroke-opacity="0" transform="matrix(3.33333,0,0,3.33333,33.3333,6.66667)"><path d="M0,0 L40,0 L40,28 L0,28 L0,0 z" fill-rule="evenodd" vector-effect="none"/></g><defs><clipPath id="clip61"><path d="M9,9 L293,9 L293,171 L9,171 L9,9 z"/></clipPath></defs><g clip-path="url(#clip61)" fill="#35d461" fill-opacity="1" opacity="1" stroke="none" stroke-opacity="0" transform="matrix(0.469567,0,0,0.576133,29.3185,1.48148)"><path d="M8.55,89.13 L9.45,89.13 L9.45,90.03 L8.55,90.03 L8.55,89.13 z" fill-rule="nonzero" vector-effect="none"/></g><defs><clipPath id="clip62"><path d="M1,1 L41,1 L41,29 L1,29 L1,1 z"/></clipPath></defs><g clip-path="url(#clip62)" fill="none" opacity="1" stroke="#35d461" stroke-linecap="butt" stroke-linejoin="miter" stroke-miterlimit="20" stroke-opacity="1" stroke-width="0.9425" transform="matrix(3.33333,0,0,3.33333,30,3.33333)"><path d="M1.06339,14.9275 L9.21977,14.9275" fill-rule="nonzero" vector-effect="none"/></g><defs><clipPath id="clip63"><path d="M1,1 L41,1 L41,29 L1,29 L1,1 z"/></clipPath></defs><g clip-path="url(#clip63)" fill="none" opacity="1" stroke="#35d461" stroke-linecap="butt" stroke-linejoin="miter" stroke-miterlimit="20" stroke-opacity="1" stroke-width="0.9425" transform="matrix(3.33333,0,0,3.33333,30,3.33333)"><path d="M31.8717,15 L41,15" fill-rule="nonzero" vector-effect="none"/></g><defs><clipPath id="clip64"><path d="M1,1 L41,1 L41,29 L1,29 L1,1 z"/></clipPath></defs><g clip-path="url(#clip64)" fill="none" opacity="1" stroke="#35d461" stroke-linecap="butt" stroke-linejoin="miter" stroke-miterlimit="20" stroke-opacity="1" stroke-width="0.9425" transform="matrix(3.33333,0,0,3.33333,30,3.33333)"><path d="M9.21977,14.9275 C9.21977,14.9275 9.22026,14.9251 9.22967,14.8823 C9.23908,14.8396 9.25762,14.7558 9.28644,14.6279 C9.31526,14.4999 9.35404,14.3294 9.39742,14.1429 C9.44081,13.9564 9.48834,13.7558 9.53499,13.5655 C9.58166,13.3751 9.62743,13.1948 9.67092,13.0322 C9.71439,12.8696 9.75572,12.7241 9.79597,12.5928 C9.83623,12.4615 9.8755,12.344 9.91573,12.2344 C9.95597,12.1249 9.9973,12.0229 10.041,11.9235 C10.0848,11.8241 10.1309,11.7272 10.1804,11.6306 C10.23,11.534 10.283,11.4378 10.3397,11.3416 C10.3965,11.2455 10.4568,11.1496 10.5202,11.055 C10.5834,10.9605 10.6496,10.8674 10.7171,10.7776 C10.7846,10.6878 10.8535,10.6013 10.9221,10.5197 C10.9906,10.4381 11.0588,10.3614 11.1256,10.2901 C11.1924,10.2188 11.2577,10.1529 11.3217,10.0917 C11.3856,10.0305 11.448,9.97394 11.5103,9.92028 C11.5726,9.86661 11.6351,9.81557 11.6993,9.7661 C11.7635,9.71665 11.8296,9.66881 11.8977,9.62268 C11.9659,9.57655 12.0362,9.53215 12.108,9.4902 C12.1797,9.44825 12.2528,9.40879 12.3259,9.37263 C12.3991,9.33649 12.4722,9.30369 12.5439,9.27474 C12.6157,9.2458 12.686,9.22072 12.7542,9.19952 C12.8223,9.17831 12.8884,9.16096 12.9526,9.14703 C13.0168,9.13309 13.0793,9.12257 13.1416,9.11484 C13.2039,9.10712 13.2663,9.10217 13.3306,9.10031 C13.3948,9.09846 13.4609,9.0997 13.529,9.10459 C13.5972,9.10947 13.6676,9.11799 13.7393,9.13047 C13.8111,9.14295 13.8843,9.1594 13.9574,9.17976 C14.0306,9.2001 14.1037,9.22434 14.1756,9.25201 C14.2474,9.27968 14.3179,9.31077 14.386,9.34477 C14.4544,9.37877 14.5204,9.41564 14.5848,9.45529 C14.6492,9.49492 14.7119,9.5373 14.7743,9.58324 C14.8367,9.62918 14.8994,9.67891 14.9636,9.73373 C15.0278,9.78856 15.0936,9.84851 15.1611,9.91392 C15.2286,9.97934 15.2977,10.0502 15.3675,10.1257 C15.4373,10.2011 15.5079,10.2812 15.5775,10.364 C15.6471,10.4469 15.7158,10.5325 15.7821,10.6188 C15.8484,10.7051 15.9122,10.792 15.9728,10.8781 C16.0335,10.9643 16.091,11.0496 16.1454,11.134 C16.1999,11.2184 16.2514,11.3018 16.3013,11.386 C16.3512,11.4701 16.3996,11.5554 16.4477,11.6443 C16.4957,11.7332 16.5433,11.8257 16.5904,11.9226 C16.6376,12.0196 16.684,12.1208 16.7294,12.2257 C16.7748,12.3306 16.8189,12.439 16.8607,12.5491 C16.9025,12.6592 16.9421,12.7709 16.9786,12.8822 C17.0151,12.9935 17.0485,13.1044 17.0786,13.2136 C17.1088,13.3229 17.1355,13.4305 17.1593,13.537 C17.1831,13.6435 17.204,13.7489 17.2226,13.8558 C17.2412,13.9628 17.2575,14.0718 17.272,14.1852 C17.2867,14.2987 17.2994,14.4167 17.3104,14.5391 C17.3213,14.6617 17.3306,14.7887 17.338,14.9184 C17.3453,15.0481 17.3508,15.1804 17.3546,15.3122 C17.3582,15.444 17.3601,15.5751 17.3605,15.7027 C17.3608,15.8302 17.3595,15.954 17.357,16.0723 C17.3546,16.1906 17.3508,16.3034 17.3461,16.4109 C17.3415,16.5184 17.336,16.6206 17.3297,16.7198 C17.3233,16.819 17.3163,16.9156 17.3082,17.0124 C17.3001,17.109 17.2909,17.2058 17.2806,17.303 C17.2702,17.4001 17.2587,17.4976 17.2461,17.5947 C17.2334,17.6919 17.2196,17.7883 17.205,17.8827 C17.1902,17.977 17.1747,18.0692 17.1585,18.1577 C17.1424,18.2462 17.1258,18.331 17.1088,18.4117 C17.0917,18.4925 17.0744,18.569 17.0569,18.6423 C17.0393,18.7154 17.0214,18.7854 17.0028,18.8544 C16.9842,18.9233 16.9649,18.9914 16.9441,19.0602 C16.9234,19.1288 16.9011,19.1982 16.8769,19.2676 C16.8528,19.3371 16.8269,19.4069 16.7991,19.4757 C16.7715,19.5447 16.7419,19.6125 16.7111,19.6776 C16.6802,19.7426 16.6481,19.8048 16.615,19.8629 C16.5821,19.921 16.5482,19.9747 16.514,20.0235 C16.4796,20.0722 16.445,20.1161 16.4096,20.1552 C16.3744,20.1944 16.3386,20.2288 16.3013,20.2596 C16.264,20.2903 16.2251,20.3173 16.1837,20.3408 C16.1423,20.3643 16.0984,20.384 16.052,20.3994 C16.0055,20.415 15.9565,20.426 15.9056,20.4319 C15.8547,20.4378 15.8022,20.4385 15.749,20.4336 C15.6958,20.4286 15.6422,20.4181 15.5892,20.402 C15.5364,20.3859 15.4844,20.3645 15.4341,20.3377 C15.3838,20.3111 15.3352,20.2793 15.2883,20.2428 C15.2414,20.2062 15.1962,20.1649 15.1518,20.1178 C15.1074,20.0708 15.0636,20.0183 15.0195,19.9587 C14.9754,19.8992 14.9309,19.8327 14.8863,19.7595 C14.8416,19.6863 14.7968,19.6061 14.7524,19.5205 C14.7081,19.4349 14.6643,19.3439 14.6221,19.25 C14.5799,19.156 14.5393,19.0592 14.5013,18.9622 C14.4631,18.8653 14.4276,18.7681 14.3949,18.6731 C14.3622,18.578 14.3325,18.485 14.3055,18.3943 C14.2785,18.3037 14.2542,18.2156 14.2319,18.1284 C14.2097,18.0413 14.1894,17.9547 14.1704,17.8666 C14.1515,17.7783 14.134,17.6882 14.118,17.5959 C14.102,17.5036 14.0874,17.4089 14.0743,17.3128 C14.0612,17.2167 14.0498,17.1194 14.0399,17.0221 C14.0301,16.925 14.0219,16.828 14.0153,16.7331 C14.0086,16.6382 14.0037,16.5454 14,16.4553 C13.9965,16.3652 13.9943,16.278 13.9931,16.1929 C13.9919,16.1078 13.9917,16.025 13.9924,15.942 C13.9931,15.859 13.9946,15.7756 13.9969,15.6893 C13.9992,15.6031 14.0026,15.5141 14.0071,15.4219 C14.0115,15.3296 14.0171,15.2341 14.0239,15.1362 C14.0306,15.0383 14.0385,14.9382 14.0477,14.8375 C14.0567,14.7369 14.0668,14.6359 14.078,14.5364 C14.0891,14.4369 14.1011,14.339 14.1139,14.2436 C14.1267,14.1482 14.1401,14.0554 14.1543,13.9648 C14.1685,13.8741 14.1836,13.7855 14.1995,13.6968 C14.2154,13.6081 14.2326,13.5188 14.2515,13.4267 C14.2705,13.3346 14.2912,13.2397 14.3145,13.1417 C14.3376,13.0437 14.3629,12.9425 14.3908,12.8395 C14.4186,12.7365 14.4489,12.6316 14.481,12.527 C14.5132,12.4224 14.5475,12.3182 14.5831,12.2165 C14.6187,12.1148 14.6559,12.0155 14.6941,11.92 C14.7323,11.8244 14.7716,11.7326 14.812,11.644 C14.8523,11.5554 14.8939,11.4701 14.9377,11.386 C14.9815,11.3018 15.0276,11.2184 15.0771,11.134 C15.1267,11.0495 15.1797,10.9642 15.2365,10.8779 C15.2931,10.7916 15.3534,10.7045 15.4165,10.618 C15.4795,10.5314 15.5453,10.4455 15.6123,10.3621 C15.6792,10.2788 15.7474,10.1981 15.815,10.1219 C15.8826,10.0458 15.9497,9.97405 16.0151,9.90768 C16.0806,9.84129 16.1442,9.78023 16.2064,9.72414 C16.2685,9.66805 16.3288,9.61694 16.3886,9.56941 C16.4485,9.52188 16.5082,9.47774 16.5695,9.43613 C16.6308,9.39453 16.6936,9.35552 16.7587,9.31928 C16.8238,9.28303 16.891,9.24957 16.96,9.21951 C17.0289,9.18946 17.0996,9.16282 17.1709,9.1402 C17.2423,9.11756 17.3142,9.09894 17.3856,9.08453 C17.457,9.07009 17.5279,9.05988 17.5974,9.05361 C17.6672,9.04733 17.7358,9.04498 17.8037,9.04612 C17.8716,9.04724 17.9388,9.05181 18.0072,9.05953 C18.0757,9.06726 18.1456,9.07817 18.2185,9.09256 C18.2914,9.10694 18.3673,9.12483 18.4459,9.14628 C18.5247,9.16771 18.6062,9.19274 18.6892,9.22098 C18.7723,9.24921 18.8568,9.28063 18.9405,9.31439 C19.0243,9.34814 19.1074,9.38421 19.1877,9.42153 C19.2679,9.45885 19.3454,9.49736 19.4188,9.53621 C19.492,9.57506 19.5613,9.61423 19.6267,9.65343 C19.6919,9.69263 19.7532,9.73183 19.8118,9.77163 C19.8704,9.81144 19.9266,9.85202 19.982,9.89499 C20.0375,9.93796 20.0921,9.98333 20.1466,10.0319 C20.2011,10.0805 20.2554,10.1324 20.3092,10.1875 C20.3629,10.2426 20.4161,10.301 20.4684,10.3621 C20.5206,10.4232 20.5718,10.4869 20.6212,10.5524 C20.6708,10.6179 20.7187,10.6852 20.765,10.7536 C20.8114,10.8221 20.8561,10.8918 20.9,10.9631 C20.9438,11.0344 20.9868,11.1073 21.0303,11.1837 C21.0738,11.2602 21.1184,11.3405 21.1643,11.4269 C21.2102,11.5133 21.2577,11.6057 21.3066,11.7047 C21.3553,11.8037 21.4053,11.9093 21.4555,12.0202 C21.5056,12.1311 21.5559,12.2474 21.6049,12.3665 C21.6539,12.4856 21.7016,12.6075 21.7465,12.7295 C21.7913,12.8515 21.8334,12.9734 21.872,13.0936 C21.9106,13.2137 21.9457,13.3321 21.9772,13.4486 C22.0086,13.5652 22.0367,13.6799 22.0615,13.7954 C22.0863,13.9108 22.1082,14.0275 22.1278,14.148 C22.1474,14.2686 22.1646,14.393 22.1794,14.5214 C22.1943,14.6498 22.2069,14.7822 22.2171,14.9166 C22.2274,15.051 22.2353,15.1874 22.2409,15.3226 C22.2466,15.4579 22.25,15.5919 22.2515,15.7217 C22.2529,15.8515 22.2525,15.9771 22.2505,16.0966 C22.2487,16.2162 22.2453,16.3299 22.2408,16.4379 C22.2364,16.5459 22.2311,16.6482 22.2249,16.7475 C22.2187,16.8467 22.2119,16.9431 22.2039,17.0396 C22.196,17.1358 22.1868,17.2319 22.1766,17.3284 C22.1663,17.4248 22.1547,17.5214 22.1418,17.6174 C22.129,17.7135 22.1147,17.8087 22.0995,17.9017 C22.0842,17.9948 22.0678,18.0854 22.0506,18.1725 C22.0334,18.2595 22.0156,18.3429 21.997,18.4221 C21.9784,18.5013 21.9593,18.5765 21.9396,18.6482 C21.9199,18.7201 21.8996,18.7885 21.8783,18.8561 C21.8571,18.9237 21.8345,18.9904 21.8103,19.0578 C21.7861,19.125 21.76,19.193 21.7318,19.2612 C21.7037,19.3293 21.6734,19.398 21.6414,19.4655 C21.6093,19.5331 21.5755,19.5997 21.5404,19.6636 C21.5055,19.7276 21.4693,19.7889 21.4326,19.8461 C21.396,19.9032 21.359,19.9562 21.322,20.0045 C21.2851,20.0527 21.2484,20.0961 21.2116,20.1349 C21.1748,20.1738 21.1382,20.2081 21.1007,20.2388 C21.0633,20.2696 21.025,20.2967 20.9847,20.3204 C20.9444,20.3443 20.9023,20.3645 20.8582,20.3804 C20.8141,20.3965 20.768,20.4082 20.7207,20.415 C20.6732,20.4219 20.6245,20.4236 20.5754,20.4196 C20.5264,20.4158 20.4771,20.4065 20.4288,20.3918 C20.3803,20.3769 20.3329,20.3567 20.2869,20.3313 C20.241,20.3059 20.1966,20.2756 20.1538,20.2404 C20.111,20.2051 20.0696,20.1652 20.0287,20.1196 C19.9879,20.0739 19.9474,20.0228 19.9066,19.9645 C19.8656,19.9065 19.8243,19.8413 19.7829,19.7692 C19.7413,19.6971 19.6995,19.618 19.6582,19.5329 C19.6171,19.4481 19.5764,19.3573 19.5372,19.2633 C19.4982,19.1691 19.4607,19.0718 19.4258,18.9736 C19.3909,18.8756 19.3585,18.7769 19.329,18.6798 C19.2996,18.5825 19.2731,18.4867 19.2494,18.3927 C19.2258,18.2987 19.2049,18.2066 19.1863,18.1146 C19.1677,18.0227 19.1514,17.9307 19.1367,17.8362 C19.1221,17.7416 19.1091,17.6445 19.0979,17.5446 C19.0866,17.4445 19.0769,17.3417 19.0687,17.2371 C19.0607,17.1324 19.0542,17.0261 19.0491,16.9201 C19.044,16.8142 19.0405,16.7086 19.0383,16.6055 C19.0359,16.5025 19.0349,16.4019 19.0347,16.3049 C19.0345,16.208 19.0352,16.1146 19.0364,16.0243 C19.0376,15.934 19.0393,15.8469 19.0412,15.7605 C19.0432,15.6742 19.0453,15.5883 19.048,15.5006 C19.0505,15.4128 19.0535,15.3233 19.0571,15.2315 C19.0608,15.1397 19.0649,15.0457 19.0698,14.9504 C19.0746,14.8551 19.0801,14.7586 19.0863,14.6627 C19.0925,14.5668 19.0994,14.4715 19.107,14.3786 C19.1145,14.2856 19.1225,14.1951 19.1312,14.1078 C19.14,14.0206 19.1491,13.9365 19.159,13.8552 C19.1689,13.7739 19.1793,13.6954 19.1905,13.6173 C19.2018,13.5393 19.2141,13.4615 19.2279,13.3817 C19.2417,13.302 19.2572,13.2203 19.2749,13.1362 C19.2925,13.0521 19.3123,12.9656 19.3345,12.8774 C19.3566,12.7892 19.3811,12.6995 19.4079,12.6097 C19.4347,12.5199 19.4637,12.4301 19.4945,12.3419 C19.5254,12.2538 19.5581,12.1672 19.5923,12.0831 C19.6267,11.999 19.6625,11.9173 19.7001,11.8376 C19.7375,11.7578 19.7768,11.68 19.8188,11.602 C19.8608,11.524 19.9056,11.4454 19.9545,11.3647 C20.0032,11.284 20.0561,11.2012 20.113,11.1165 C20.1699,11.0318 20.2309,10.9452 20.295,10.8582 C20.3592,10.7712 20.4267,10.6838 20.4956,10.5983 C20.5646,10.5128 20.6352,10.4292 20.7055,10.3496 C20.7756,10.27 20.8456,10.1944 20.9142,10.1239 C20.9827,10.0533 21.0497,9.98791 21.1153,9.92743 C21.1806,9.86696 21.2444,9.81142 21.3078,9.75954 C21.3712,9.70765 21.4346,9.65918 21.4995,9.61305 C21.5646,9.56694 21.6311,9.52318 21.6997,9.48182 C21.7683,9.44044 21.8389,9.40146 21.9107,9.36541 C21.9826,9.32935 22.0557,9.29624 22.1288,9.26663 C22.2018,9.23701 22.2746,9.21089 22.346,9.18852 C22.4176,9.16614 22.4875,9.14749 22.5552,9.13233 C22.6231,9.11718 22.6888,9.10549 22.7526,9.09673 C22.8164,9.08797 22.8785,9.08211 22.9405,9.07855 C23.0025,9.07499 23.0646,9.07369 23.1286,9.07499 C23.1925,9.07626 23.2582,9.08015 23.3258,9.08698 C23.3935,9.09383 23.4631,9.10364 23.534,9.11662 C23.605,9.1296 23.677,9.14575 23.7488,9.1649 C23.8207,9.18406 23.8922,9.20621 23.9621,9.2309 C24.0318,9.2556 24.1,9.28283 24.1657,9.31212 C24.2313,9.34142 24.2945,9.37275 24.3555,9.40604 C24.4165,9.43933 24.4754,9.47454 24.5337,9.51237 C24.5921,9.55021 24.65,9.59079 24.709,9.63559 C24.768,9.68038 24.8282,9.72938 24.8896,9.78318 C24.9511,9.837 25.014,9.89563 25.0775,9.95879 C25.141,10.0219 25.2053,10.0896 25.2688,10.1605 C25.3323,10.2315 25.3953,10.3058 25.4564,10.3819 C25.5176,10.458 25.5769,10.5359 25.6339,10.6145 C25.6909,10.6931 25.7454,10.7725 25.7979,10.8526 C25.8505,10.9328 25.901,11.0137 25.9509,11.0973 C26.0008,11.1809 26.0502,11.2675 26.1002,11.3594 C26.1501,11.4513 26.2007,11.5486 26.2514,11.6518 C26.3021,11.755 26.3531,11.8642 26.4035,11.9781 C26.4539,12.092 26.5035,12.2107 26.5513,12.3317 C26.5989,12.4527 26.6445,12.5759 26.6871,12.6988 C26.7296,12.8217 26.7689,12.9442 26.8046,13.0646 C26.8403,13.185 26.8723,13.3033 26.9008,13.4198 C26.9294,13.5362 26.9543,13.6507 26.9764,13.766 C26.9985,13.8812 27.0178,13.9977 27.035,14.1183 C27.0521,14.2388 27.0669,14.3634 27.0795,14.4923 C27.0922,14.6212 27.1028,14.7543 27.1111,14.8901 C27.1194,15.0257 27.1255,15.1639 27.1296,15.3016 C27.1338,15.4392 27.1358,15.5762 27.136,15.7097 C27.1365,15.8432 27.1351,15.973 27.1324,16.0976 C27.1297,16.2222 27.1258,16.3415 27.1211,16.4559 C27.1163,16.5703 27.1108,16.6799 27.1046,16.7872 C27.0984,16.8945 27.0918,17.0001 27.0842,17.1066 C27.0766,17.2129 27.068,17.3201 27.0584,17.4281 C27.049,17.5361 27.0383,17.645 27.0267,17.7534 C27.015,17.8619 27.0024,17.9698 26.9887,18.0749 C26.9752,18.18 26.9608,18.2821 26.9457,18.3796 C26.9306,18.4772 26.915,18.5699 26.899,18.657 C26.883,18.7441 26.8666,18.8255 26.8496,18.9021 C26.8329,18.9785 26.8156,19.05 26.7975,19.1188 C26.7795,19.1876 26.7605,19.2536 26.7399,19.3188 C26.7193,19.384 26.6972,19.4479 26.6733,19.5108 C26.6493,19.5737 26.6236,19.6354 26.5959,19.6952 C26.5682,19.755 26.5389,19.8128 26.5082,19.8674 C26.4775,19.922 26.4455,19.9733 26.4128,20.0207 C26.3801,20.0679 26.3467,20.1111 26.3131,20.15 C26.2794,20.189 26.2455,20.2236 26.2109,20.2546 C26.1766,20.2855 26.1419,20.3128 26.1059,20.3373 C26.0698,20.3619 26.0325,20.3838 25.9929,20.4034 C25.9532,20.4229 25.9113,20.4398 25.8669,20.4538 C25.8227,20.4678 25.7759,20.4787 25.7275,20.4862 C25.6792,20.4934 25.629,20.4972 25.5783,20.4969 C25.5276,20.4967 25.4763,20.4924 25.4257,20.4841 C25.3752,20.4758 25.3253,20.4635 25.2768,20.4476 C25.2285,20.4315 25.1815,20.4118 25.136,20.3887 C25.0905,20.3653 25.0464,20.3387 25.0028,20.308 C24.9593,20.2772 24.9159,20.2425 24.872,20.2024 C24.8282,20.1624 24.7835,20.1171 24.7383,20.066 C24.6932,20.015 24.6473,19.9583 24.6016,19.8963 C24.5559,19.8342 24.5102,19.7668 24.4657,19.6956 C24.4212,19.6244 24.3779,19.5494 24.3367,19.4723 C24.2955,19.3952 24.2564,19.3159 24.2199,19.236 C24.1834,19.156 24.1493,19.0754 24.1178,18.9942 C24.0862,18.913 24.057,18.8312 24.0294,18.7472 C24.0018,18.6632 23.9758,18.5768 23.9504,18.4855 C23.9252,18.3943 23.9008,18.2982 23.8774,18.1972 C23.8539,18.0963 23.8314,17.9902 23.8098,17.8806 C23.7884,17.7708 23.7683,17.6576 23.7495,17.543 C23.7308,17.4286 23.7136,17.3132 23.6982,17.1991 C23.6829,17.085 23.6692,16.9727 23.6573,16.8634 C23.6454,16.7542 23.6351,16.648 23.6264,16.545 C23.6177,16.442 23.6103,16.342 23.604,16.2428 C23.5977,16.1435 23.5925,16.0447 23.5882,15.9436 C23.584,15.8426 23.5808,15.7394 23.5788,15.6337 C23.5768,15.528 23.5761,15.4197 23.5768,15.3102 C23.5775,15.2007 23.5796,15.09 23.5832,14.9803 C23.5867,14.8705 23.5916,14.7618 23.5979,14.6562 C23.6043,14.5505 23.612,14.4481 23.6209,14.3498 C23.6298,14.2515 23.6399,14.1573 23.6512,14.0669 C23.6625,13.9764 23.6749,13.8895 23.6885,13.804 C23.7022,13.7184 23.7174,13.6338 23.7343,13.5482 C23.7512,13.4626 23.7698,13.376 23.7902,13.2884 C23.8107,13.2008 23.8329,13.1123 23.8567,13.0241 C23.8804,12.9358 23.9056,12.8479 23.9317,12.7623 C23.9576,12.6767 23.9844,12.5934 24.0113,12.5142 C24.0382,12.435 24.0651,12.3598 24.0916,12.2896 C24.118,12.2193 24.1441,12.1539 24.1696,12.0929 C24.1951,12.032 24.2202,11.9754 24.245,11.9218 C24.2698,11.8681 24.2947,11.8171 24.3205,11.7669 C24.3462,11.7168 24.3729,11.6676 24.4009,11.6186 C24.4289,11.5696 24.4582,11.5209 24.4888,11.4724 C24.5194,11.4238 24.5512,11.3756 24.584,11.3279 C24.6167,11.2802 24.6504,11.233 24.6845,11.1867 C24.7186,11.1404 24.7531,11.0949 24.7879,11.0502 C24.8227,11.0053 24.8576,10.9613 24.893,10.9171 C24.9283,10.8729 24.9641,10.8287 25.0014,10.7827 C25.0388,10.7368 25.0776,10.6889 25.1192,10.6384 C25.1609,10.5878 25.2051,10.5345 25.2525,10.4787 C25.2998,10.423 25.3502,10.3648 25.4031,10.3053 C25.4559,10.2458 25.5112,10.1851 25.568,10.1249 C25.6248,10.0648 25.6828,10.0052 25.741,9.94788 C25.7993,9.89058 25.8576,9.83562 25.9151,9.78406 C25.9727,9.73249 26.0296,9.68432 26.0859,9.63971 C26.1421,9.59511 26.1976,9.55405 26.2538,9.51583 C26.31,9.47762 26.367,9.44205 26.4265,9.40852 C26.4859,9.37498 26.5479,9.34353 26.6128,9.31428 C26.6776,9.28506 26.7454,9.25809 26.8154,9.23393 C26.8854,9.20977 26.9577,9.18842 27.0309,9.17041 C27.1041,9.1524 27.1782,9.13773 27.2517,9.12656 C27.3252,9.11541 27.3982,9.10776 27.4698,9.10345 C27.5415,9.09917 27.6116,9.09818 27.6808,9.10017 C27.7498,9.10217 27.8178,9.10712 27.8865,9.11484 C27.9551,9.12257 28.0245,9.13309 28.0966,9.1473 C28.1688,9.16149 28.2436,9.1794 28.3212,9.20175 C28.3988,9.22409 28.4792,9.25088 28.5615,9.28245 C28.6438,9.31401 28.7279,9.35032 28.812,9.39108 C28.8961,9.43185 28.9802,9.47703 29.0624,9.52591 C29.1447,9.57479 29.2251,9.62733 29.3028,9.68286 C29.3804,9.73841 29.4552,9.79692 29.5273,9.85844 C29.5994,9.91997 29.6689,9.98444 29.7375,10.0534 C29.8061,10.1223 29.8741,10.1959 29.9429,10.276 C30.0116,10.356 30.0812,10.4425 30.1514,10.5355 C30.2215,10.6285 30.2924,10.728 30.3628,10.8326 C30.4331,10.9371 30.5028,11.0466 30.5704,11.1584 C30.6379,11.2702 30.7031,11.3841 30.7647,11.4973 C30.8261,11.6105 30.8839,11.7228 30.9373,11.8324 C30.9905,11.9419 31.0394,12.0486 31.0841,12.1522 C31.1289,12.2559 31.1693,12.3564 31.2068,12.4558 C31.2442,12.5553 31.2785,12.6534 31.3104,12.7545 C31.3424,12.8556 31.3721,12.9599 31.4012,13.0726 C31.43,13.1852 31.4584,13.3066 31.4868,13.4394 C31.5153,13.5721 31.544,13.7167 31.5723,13.8676 C31.6006,14.0185 31.6287,14.1757 31.6536,14.3211 C31.6787,14.4665 31.7005,14.5984 31.7166,14.6972 C31.7328,14.7959 31.7429,14.8602 31.748,14.8929 C31.7531,14.9257 31.7533,14.9275 31.7533,14.9275" fill-rule="nonzero" vector-effect="none"/></g><defs><clipPath id="clip65"><path d="M1,1 L41,1 L41,29 L1,29 L1,1 z"/></clipPath></defs><g clip-path="url(#clip65)" fill="none" opacity="1" stroke="#ffffff" stroke-linecap="butt" stroke-linejoin="miter" stroke-miterlimit="20" stroke-opacity="1" stroke-width="0.9425" transform="matrix(3.33333,0,0,3.33333,30,3.33333)"><path d="M1.06339,1 L41,1 L41,29.0001 L1.06339,29.0001 L1.06339,1 z" fill-rule="nonzero" vector-effect="none"/></g><defs><clipPath id="clip82"><path d="M-189,-72 L16,-72 L16,71 L-189,71 L-189,-72 z"/></clipPath></defs><g clip-path="url(#clip82)" fill="none" opacity="1" stroke="#e60000" stroke-linecap="square" stroke-linejoin="bevel" stroke-opacity="1" stroke-width="1" transform="matrix(0.651042,0,0,0.651042,156.667,53.3333)"><text fill="#e60000" fill-opacity="1" font-family="Liberation Sans" font-size="40" font-style="normal" font-weight="400" stroke="none" textLength="29" x="-36.9531" xml:space="preserve" y="17.9219">C</text></g><defs><clipPath id="clip85"><path d="M-15,-72 L190,-72 L190,71 L-15,71 L-15,-72 z"/></clipPath></defs><g clip-path="url(#clip85)" fill="none" opacity="1" stroke="#e60000" stroke-linecap="square" stroke-linejoin="bevel" stroke-opacity="1" stroke-width="1" transform="matrix(0.651042,0,0,0.651042,43.3333,53.3333)"><text fill="#e60000" fill-opacity="1" font-family="Liberation Sans" font-size="40" font-style="normal" font-weight="400" stroke="none" textLength="29" x="0" xml:space="preserve" y="17.9219">R</text></g><defs><clipPath id="clip91"><path d="M-10,-2 L50,-2 L50,30 L-10,30 L-10,-2 z"/></clipPath></defs><g clip-path="url(#clip91)" fill="none" opacity="1" stroke="none" stroke-opacity="0" transform="matrix(3.33333,0,0,3.33333,33.3333,6.66667)"><path d="M0,0 L40,0 L40,28 L0,28 L0,0 z" fill-rule="evenodd" vector-effect="none"/></g></g></svg>
