<?xml version="1.0" encoding="UTF-8"?><svg width="52.9167mm" height="42.3333mm" viewBox="0 0 200 160" xmlns="http://www.w3.org/2000/svg" xmlns:xlink="http://www.w3.org/1999/xlink"><g fill="none" stroke="black" stroke-width="1" fill-rule="evenodd" stroke-linecap="square" stroke-linejoin="bevel"><g clip-path="none" fill="none" opacity="1" stroke="none" stroke-opacity="0" transform="matrix(1,0,0,1,0,0)"><path d="M0,0 L200,0 L200,160 L0,160 L0,0 z" fill-rule="evenodd" vector-effect="none"/></g><defs><clipPath id="clip6"><path d="M0,0 L10,0 L10,10 L0,10 L0,0 z"/></clipPath></defs><g clip-path="url(#clip6)" fill="#ffffff" fill-opacity="1" opacity="1" stroke="none" stroke-opacity="0" transform="matrix(2.5,0,0,2.5,175,70)"><path d="M0.5,0.809 L8.882,5 L0.5,9.191 L0.5,0.809 z" fill-rule="evenodd" vector-effect="none"/></g><defs><clipPath id="clip8"><path d="M0,0 L10,0 L10,10 L0,10 L0,0 z"/></clipPath></defs><g clip-path="url(#clip8)" fill="#000000" fill-opacity="1" opacity="1" stroke="none" stroke-opacity="0" transform="matrix(2.5,0,0,2.5,175,70)"><path d="M1,1.618 L7.764,5 L1,8.382 L1,1.618 M0,0 L0,10 L10,5 L0,0" fill-rule="nonzero" vector-effect="none"/></g><defs><clipPath id="clip31"><path d="M0,0 L10,0 L10,10 L0,10 L0,0 z"/></clipPath></defs><g clip-path="url(#clip31)" fill="#ffffff" fill-opacity="1" opacity="1" stroke="none" stroke-opacity="0" transform="matrix(2.5,0,0,2.5,0,120)"><path d="M8.882,5 L0.5,9.191 L0.5,0.809 L8.882,5 z" fill-rule="evenodd" vector-effect="none"/></g><defs><clipPath id="clip33"><path d="M0,0 L10,0 L10,10 L0,10 L0,0 z"/></clipPath></defs><g clip-path="url(#clip33)" fill="#000000" fill-opacity="1" opacity="1" stroke="none" stroke-opacity="0" transform="matrix(2.5,0,0,2.5,0,120)"><path d="M1,1.618 L7.764,5 L1,8.382 L1,1.618 M0,0 L0,10 L10,5 L0,0" fill-rule="nonzero" vector-effect="none"/></g><defs><clipPath id="clip56"><path d="M0,0 L10,0 L10,10 L0,10 L0,0 z"/></clipPath></defs><g clip-path="url(#clip56)" fill="#ffffff" fill-opacity="1" opacity="1" stroke="none" stroke-opacity="0" transform="matrix(2.5,0,0,2.5,0,70)"><path d="M8.882,5 L0.5,9.191 L0.5,0.809 L8.882,5 z" fill-rule="evenodd" vector-effect="none"/></g><defs><clipPath id="clip58"><path d="M0,0 L10,0 L10,10 L0,10 L0,0 z"/></clipPath></defs><g clip-path="url(#clip58)" fill="#000000" fill-opacity="1" opacity="1" stroke="none" stroke-opacity="0" transform="matrix(2.5,0,0,2.5,0,70)"><path d="M1,1.618 L7.764,5 L1,8.382 L1,1.618 M0,0 L0,10 L10,5 L0,0" fill-rule="nonzero" vector-effect="none"/></g><defs><clipPath id="clip81"><path d="M0,0 L10,0 L10,10 L0,10 L0,0 z"/></clipPath></defs><g clip-path="url(#clip81)" fill="#ffffff" fill-opacity="1" opacity="1" stroke="none" stroke-opacity="0" transform="matrix(2.5,0,0,2.5,0,20)"><path d="M8.882,5 L0.5,9.191 L0.5,0.809 L8.882,5 z" fill-rule="evenodd" vector-effect="none"/></g><defs><clipPath id="clip83"><path d="M0,0 L10,0 L10,10 L0,10 L0,0 z"/></clipPath></defs><g clip-path="url(#clip83)" fill="#000000" fill-opacity="1" opacity="1" stroke="none" stroke-opacity="0" transform="matrix(2.5,0,0,2.5,0,20)"><path d="M1,1.618 L7.764,5 L1,8.382 L1,1.618 M0,0 L0,10 L10,5 L0,0" fill-rule="nonzero" vector-effect="none"/></g><defs><clipPath id="clip102"><path d="M-10,-2 L70,-2 L70,62 L-10,62 L-10,-2 z"/></clipPath></defs><g clip-path="url(#clip102)" fill="#ffffff" fill-opacity="1" opacity="1" stroke="none" stroke-opacity="0" transform="matrix(2.5,0,0,2.5,25,5)"><path d="M0,0 L60,0 L60,60 L0,60 L0,0 z" fill-rule="evenodd" vector-effect="none"/></g><defs><clipPath id="clip106"><path d="M0,0 L60,0 L60,60 L0,60 L0,0 z"/></clipPath></defs><g clip-path="url(#clip106)" fill="none" opacity="1" stroke="none" stroke-opacity="0" transform="matrix(2.5,0,0,2.5,25,5)"><path d="M0,0 L60,0 L60,60 L0,60 L0,0 z" fill-rule="evenodd" vector-effect="none"/></g><defs><clipPath id="clip116"><path d="M1,1 L61,1 L61,61 L1,61 L1,1 z"/></clipPath></defs><g clip-path="url(#clip116)" fill="none" opacity="1" stroke="#a06c70" stroke-linecap="butt" stroke-linejoin="miter" stroke-miterlimit="4" stroke-opacity="1" stroke-width="1.9825" transform="matrix(2.5,0,0,2.5,22.5,2.5)"><path d="M16.9842,36.452 C17.0033,36.7958 17.1893,37.1085 17.4822,37.2893 C17.7752,37.4701 18.138,37.4962 18.4539,37.3592" fill-rule="nonzero" vector-effect="none"/></g><defs><clipPath id="clip117"><path d="M1,1 L61,1 L61,61 L1,61 L1,1 z"/></clipPath></defs><g clip-path="url(#clip117)" fill="none" opacity="1" stroke="#a06c70" stroke-linecap="butt" stroke-linejoin="miter" stroke-miterlimit="4" stroke-opacity="1" stroke-width="1.9825" transform="matrix(2.5,0,0,2.5,22.5,2.5)"><path d="M13.5189,36.2524 C13.8877,35.6897 14.5152,35.3507 15.1881,35.3507 C15.8609,35.3507 16.4884,35.6897 16.8572,36.2524" fill-rule="nonzero" vector-effect="none"/></g><defs><clipPath id="clip118"><path d="M1,1 L61,1 L61,61 L1,61 L1,1 z"/></clipPath></defs><g clip-path="url(#clip118)" fill="none" opacity="1" stroke="#a06c70" stroke-linecap="butt" stroke-linejoin="miter" stroke-miterlimit="4" stroke-opacity="1" stroke-width="1.9825" transform="matrix(2.5,0,0,2.5,22.5,2.5)"><path d="M10.0354,36.3613 C10.4337,36.88 11.0505,37.184 11.7045,37.184 C12.3585,37.184 12.9754,36.88 13.3737,36.3613" fill-rule="nonzero" vector-effect="none"/></g><defs><clipPath id="clip119"><path d="M1,1 L61,1 L61,61 L1,61 L1,1 z"/></clipPath></defs><g clip-path="url(#clip119)" fill="none" opacity="1" stroke="#a06c70" stroke-linecap="butt" stroke-linejoin="bevel" stroke-opacity="1" stroke-width="1.9825" transform="matrix(2.5,0,0,2.5,22.5,2.5)"><path d="M18.5446,37.3955 L20.8306,37.3955" fill-rule="nonzero" vector-effect="none"/></g><defs><clipPath id="clip120"><path d="M1,1 L61,1 L61,61 L1,61 L1,1 z"/></clipPath></defs><g clip-path="url(#clip120)" fill="none" opacity="1" stroke="#a06c70" stroke-linecap="butt" stroke-linejoin="miter" stroke-miterlimit="8" stroke-opacity="1" stroke-width="1.9825" transform="matrix(2.5,0,0,2.5,22.5,2.5)"><path d="M18.3269,38.8651 L21.2842,37.3955 L18.3269,35.9077" fill-rule="nonzero" vector-effect="none"/></g><defs><clipPath id="clip121"><path d="M1,1 L61,1 L61,61 L1,61 L1,1 z"/></clipPath></defs><g clip-path="url(#clip121)" fill="none" opacity="1" stroke="#a06c70" stroke-linecap="butt" stroke-linejoin="miter" stroke-miterlimit="4" stroke-opacity="1" stroke-width="1.9825" transform="matrix(2.5,0,0,2.5,22.5,2.5)"><path d="M1,1 L60.9999,1 L60.9999,60.9999 L1,60.9999 L1,1 z" fill-rule="nonzero" vector-effect="none"/></g><defs><clipPath id="clip122"><path d="M1,1 L61,1 L61,61 L1,61 L1,1 z"/></clipPath></defs><g clip-path="url(#clip122)" fill="none" opacity="1" stroke="#a06c70" stroke-linecap="butt" stroke-linejoin="miter" stroke-miterlimit="4" stroke-opacity="1" stroke-width="1.9825" transform="matrix(2.5,0,0,2.5,22.5,2.5)"><path d="M4.46537,52.1097 L18.8893,52.1097 L4.46537,52.1097 z" fill-rule="nonzero" vector-effect="none"/></g><defs><clipPath id="clip123"><path d="M1,1 L61,1 L61,61 L1,61 L1,1 z"/></clipPath></defs><g clip-path="url(#clip123)" fill="none" opacity="1" stroke="#a06c70" stroke-linecap="butt" stroke-linejoin="bevel" stroke-opacity="1" stroke-width="1.9825" transform="matrix(2.5,0,0,2.5,22.5,2.5)"><path d="M4.61052,52.0371 L4.61052,52.019 L4.62866,51.9645 L4.6468,51.892 L4.68309,51.7287 L4.73752,51.5472 L4.82824,51.2569 L4.91895,50.9122 L5.02781,50.4768 L5.17296,49.9506 L5.33625,49.3338 L5.51768,48.6262 L5.75355,47.846 L6.00755,46.9751 L6.26156,46.0135 L6.56999,44.9975 L6.89657,43.8908 L7.2413,42.7296 L7.60416,41.514 L7.98517,40.2258 L8.38432,38.9195 L8.80162,37.5769 L9.23706,36.2161 L9.69064,34.8191 L10.1805,33.4221 L10.6522,32.0432 L11.1421,30.6462 L11.6501,29.2673 L12.1763,27.8884 L12.7024,26.5276 L13.2649,25.2032 L13.8273,23.8968 L14.4079,22.6268 L14.9885,21.3931 L15.6054,20.1775 L16.2222,19.0163 L16.8754,17.9096 L17.5285,16.821 L18.218,15.7868 L18.9256,14.8433 L19.6513,13.918 L20.4133,13.0653 L21.2116,12.2851 L22.0281,11.5957 L22.8808,10.9788 L23.7336,10.4527 L24.6226,10.0172 L25.5479,9.69064 L26.4732,9.50921 L27.4166,9.43664 L28.342,9.49107 L29.3036,9.6725 L30.2107,9.98093 L31.1179,10.3982 L32.0069,10.9062 L32.8596,11.505 L33.7124,12.1944 L34.5107,12.9746 L35.309,13.791 L36.071,14.6982 L36.8149,15.6598 L37.5406,16.6758 L38.2482,17.7281 L38.9376,18.8349 L39.6089,19.996 L40.244,21.1754 L40.879,22.4272 L41.514,23.6791 L42.1127,24.9673 L42.7115,26.3099 L43.2739,27.6344 L43.8545,29.0133 L44.3988,30.374 L44.9612,31.771 L45.4874,33.1681 L45.9954,34.547 L46.5034,35.9259 L46.9933,37.2866 L47.465,38.6111 L47.9004,39.9174 L48.3359,41.1874 L48.7532,42.403 L49.1342,43.5642 L49.4789,44.6528 L49.8236,45.6688 L50.1321,46.6304 L50.4042,47.5013 L50.6582,48.2814 L50.8759,48.989 L51.0755,49.6059 L51.2207,50.1139 L51.3477,50.5494 L51.4747,50.8941 L51.5472,51.1844 L51.6017,51.3658 L51.6561,51.5291 L51.6742,51.6017 L51.6924,51.6561 L51.6924,51.6742" fill-rule="nonzero" vector-effect="none"/></g><defs><clipPath id="clip124"><path d="M1,1 L61,1 L61,61 L1,61 L1,1 z"/></clipPath></defs><g clip-path="url(#clip124)" fill="none" opacity="1" stroke="#a06c70" stroke-linecap="butt" stroke-linejoin="bevel" stroke-opacity="1" stroke-width="1.9825" transform="matrix(2.5,0,0,2.5,22.5,2.5)"><path d="M18.8167,52.3818 L18.8167,52.3637 L18.8349,52.3093 L18.853,52.2185 L18.8893,52.0371 L18.9619,51.8194 L19.0344,51.511 L19.107,51.1118 L19.2159,50.6219 L19.361,50.0413 L19.5243,49.37 L19.7239,48.5899 L19.9235,47.719 L20.1593,46.7574 L20.3952,45.7232 L20.6855,44.5984 L20.9939,43.4009 L21.3024,42.1309 L21.6471,40.8245 L22.0099,39.4638 L22.391,38.0849 L22.772,36.6516 L23.1711,35.2183 L23.5884,33.7487 L24.0239,32.2972 L24.4593,30.8639 L24.8947,29.4124 L25.3665,27.9791 L25.8382,26.5639 L26.328,25.2032 L26.8179,23.8424 L27.3259,22.5361 L27.8521,21.2661 L28.3782,20.0142 L28.9407,18.8167 L29.5031,17.6737 L30.1019,16.5851 L30.7006,15.5509 L31.3356,14.5712 L31.9888,13.664 L32.6419,12.8476 L33.3495,12.0856 L34.0571,11.4143 L34.801,10.8518 L35.563,10.3801 L36.3432,10.0354 L37.1233,9.83579 L37.9216,9.74507 L38.7199,9.81764 L39.5001,10.0172 L40.2802,10.3619 L41.0423,10.7974 L41.7861,11.3598 L42.5119,11.9948 L43.2013,12.7387 L43.8908,13.5552 L44.5439,14.4805 L45.1608,15.4239 L45.7777,16.4581 L46.3583,17.5467 L46.9388,18.6716 L47.4831,19.869 L48.0456,21.0846 L48.5536,22.3547 L49.0616,23.6791 L49.5878,25.0036 L50.0595,26.3825 L50.5312,27.7977 L51.0029,29.1947 L51.4747,30.628 L51.9101,32.0795 L52.3455,33.5309 L52.7628,34.9643 L53.162,36.4157 L53.5611,37.8309 L53.9422,39.2279 L54.305,40.5705 L54.6497,41.8769 L54.9763,43.1287 L55.2848,44.3262 L55.5569,45.4329 L55.8109,46.4853 L56.0649,47.4287 L56.2645,48.2996 L56.4641,49.0616 L56.6092,49.7511 L56.7362,50.3316 L56.8632,50.8215 L56.9539,51.2025 L57.0265,51.511 L57.0809,51.7287 L57.1172,51.9101 L57.1535,52.0008 L57.1717,52.0553 L57.1717,52.0734" fill-rule="nonzero" vector-effect="none"/></g><defs><clipPath id="clip141"><path d="M-292,-154 L15,-154 L15,153 L-292,153 L-292,-154 z"/></clipPath></defs><g clip-path="url(#clip141)" fill="none" opacity="1" stroke="#e60000" stroke-linecap="square" stroke-linejoin="bevel" stroke-opacity="1" stroke-width="1" transform="matrix(0.488281,0,0,0.488281,167.5,80)"><text fill="#e60000" fill-opacity="1" font-family="Liberation Sans" font-size="40" font-style="normal" font-weight="400" stroke="none" textLength="26" x="-34.125" xml:space="preserve" y="17.9219">Y</text></g><defs><clipPath id="clip144"><path d="M-15,-256 L292,-256 L292,51 L-15,51 L-15,-256 z"/></clipPath></defs><g clip-path="url(#clip144)" fill="none" opacity="1" stroke="#e60000" stroke-linecap="square" stroke-linejoin="bevel" stroke-opacity="1" stroke-width="1" transform="matrix(0.488281,0,0,0.488281,32.5,130)"><text fill="#e60000" fill-opacity="1" font-family="Liberation Sans" font-size="40" font-style="normal" font-weight="400" stroke="none" textLength="29" x="0" xml:space="preserve" y="17.9219">H</text></g><defs><clipPath id="clip147"><path d="M-15,-154 L292,-154 L292,153 L-15,153 L-15,-154 z"/></clipPath></defs><g clip-path="url(#clip147)" fill="none" opacity="1" stroke="#e60000" stroke-linecap="square" stroke-linejoin="bevel" stroke-opacity="1" stroke-width="1" transform="matrix(0.488281,0,0,0.488281,32.5,80)"><text fill="#e60000" fill-opacity="1" font-family="Liberation Sans" font-size="40" font-style="normal" font-weight="400" stroke="none" textLength="24" x="0" xml:space="preserve" y="17.9219">T</text></g><defs><clipPath id="clip150"><path d="M-15,-51 L292,-51 L292,256 L-15,256 L-15,-51 z"/></clipPath></defs><g clip-path="url(#clip150)" fill="none" opacity="1" stroke="#e60000" stroke-linecap="square" stroke-linejoin="bevel" stroke-opacity="1" stroke-width="1" transform="matrix(0.488281,0,0,0.488281,32.5,30)"><text fill="#e60000" fill-opacity="1" font-family="Liberation Sans" font-size="40" font-style="normal" font-weight="400" stroke="none" textLength="29" x="0" xml:space="preserve" y="17.9219">U</text></g><defs><clipPath id="clip156"><path d="M-10,-2 L70,-2 L70,62 L-10,62 L-10,-2 z"/></clipPath></defs><g clip-path="url(#clip156)" fill="none" opacity="1" stroke="none" stroke-opacity="0" transform="matrix(2.5,0,0,2.5,25,5)"><path d="M0,0 L60,0 L60,60 L0,60 L0,0 z" fill-rule="evenodd" vector-effect="none"/></g></g></svg>
