<?xml version="1.0" encoding="UTF-8"?><svg width="52.9167mm" height="22.4896mm" viewBox="0 0 200 85" xmlns="http://www.w3.org/2000/svg" xmlns:xlink="http://www.w3.org/1999/xlink"><g fill="none" stroke="black" stroke-width="1" fill-rule="evenodd" stroke-linecap="square" stroke-linejoin="bevel"><g clip-path="none" fill="none" opacity="1" stroke="none" stroke-opacity="0" transform="matrix(1,0,0,1,0,0)"><path d="M0,0 L200,0 L200,85 L0,85 L0,0 z" fill-rule="evenodd" vector-effect="none"/></g><defs><clipPath id="clip6"><path d="M0,0 L10,0 L10,10 L0,10 L0,0 z"/></clipPath></defs><g clip-path="url(#clip6)" fill="#ffffff" fill-opacity="1" opacity="1" stroke="none" stroke-opacity="0" transform="matrix(2.5,0,0,2.5,175,32.5)"><path d="M0.5,0.809 L8.882,5 L0.5,9.191 L0.5,0.809 z" fill-rule="evenodd" vector-effect="none"/></g><defs><clipPath id="clip8"><path d="M0,0 L10,0 L10,10 L0,10 L0,0 z"/></clipPath></defs><g clip-path="url(#clip8)" fill="#000000" fill-opacity="1" opacity="1" stroke="none" stroke-opacity="0" transform="matrix(2.5,0,0,2.5,175,32.5)"><path d="M1,1.618 L7.764,5 L1,8.382 L1,1.618 M0,0 L0,10 L10,5 L0,0" fill-rule="nonzero" vector-effect="none"/></g><defs><clipPath id="clip31"><path d="M0,0 L10,0 L10,10 L0,10 L0,0 z"/></clipPath></defs><g clip-path="url(#clip31)" fill="#ffffff" fill-opacity="1" opacity="1" stroke="none" stroke-opacity="0" transform="matrix(2.5,0,0,2.5,0,32.5)"><path d="M8.882,5 L0.5,9.191 L0.5,0.809 L8.882,5 z" fill-rule="evenodd" vector-effect="none"/></g><defs><clipPath id="clip33"><path d="M0,0 L10,0 L10,10 L0,10 L0,0 z"/></clipPath></defs><g clip-path="url(#clip33)" fill="#000000" fill-opacity="1" opacity="1" stroke="none" stroke-opacity="0" transform="matrix(2.5,0,0,2.5,0,32.5)"><path d="M1,1.618 L7.764,5 L1,8.382 L1,1.618 M0,0 L0,10 L10,5 L0,0" fill-rule="nonzero" vector-effect="none"/></g><defs><clipPath id="clip52"><path d="M-10,-2 L70,-2 L70,32 L-10,32 L-10,-2 z"/></clipPath></defs><g clip-path="url(#clip52)" fill="#ffffff" fill-opacity="1" opacity="1" stroke="none" stroke-opacity="0" transform="matrix(2.5,0,0,2.5,25,5)"><path d="M0,0 L60,0 L60,30 L0,30 L0,0 z" fill-rule="evenodd" vector-effect="none"/></g><defs><clipPath id="clip56"><path d="M0,0 L60,0 L60,30 L0,30 L0,0 z"/></clipPath></defs><g clip-path="url(#clip56)" fill="none" opacity="1" stroke="none" stroke-opacity="0" transform="matrix(2.5,0,0,2.5,25,5)"><path d="M0,0 L60,0 L60,30 L0,30 L0,0 z" fill-rule="evenodd" vector-effect="none"/></g><defs><clipPath id="clip66"><path d="M1,1 L61,1 L61,31 L1,31 L1,1 z"/></clipPath></defs><g clip-path="url(#clip66)" fill="none" opacity="1" stroke="#a06c70" stroke-linecap="butt" stroke-linejoin="miter" stroke-miterlimit="4" stroke-opacity="1" stroke-width="1.0075" transform="matrix(2.5,0,0,2.5,22.5,2.5)"><path d="M4.57346,10.1316 C6.74546,7.63319 9.94114,6.19172 13.3081,6.19172 C16.675,6.19172 19.8706,7.6332 22.0426,10.1316" fill-rule="nonzero" vector-effect="none"/></g><defs><clipPath id="clip67"><path d="M1,1 L61,1 L61,31 L1,31 L1,1 z"/></clipPath></defs><g clip-path="url(#clip67)" fill="none" opacity="1" stroke="#a06c70" stroke-linecap="butt" stroke-linejoin="miter" stroke-miterlimit="4" stroke-opacity="1" stroke-width="1.0075" transform="matrix(2.5,0,0,2.5,22.5,2.5)"><path d="M22.4881,10.5643 C24.6601,13.0627 27.8558,14.5042 31.2227,14.5042 C34.5897,14.5042 37.7853,13.0627 39.9573,10.5643" fill-rule="nonzero" vector-effect="none"/></g><defs><clipPath id="clip68"><path d="M1,1 L61,1 L61,31 L1,31 L1,1 z"/></clipPath></defs><g clip-path="url(#clip68)" fill="none" opacity="1" stroke="#a06c70" stroke-linecap="butt" stroke-linejoin="miter" stroke-miterlimit="4" stroke-opacity="1" stroke-width="1.0075" transform="matrix(2.5,0,0,2.5,22.5,2.5)"><path d="M40.4028,10.1316 C42.5748,7.63319 45.7705,6.19172 49.1374,6.19172 C52.5043,6.19172 55.7,7.6332 57.872,10.1316" fill-rule="nonzero" vector-effect="none"/></g><defs><clipPath id="clip69"><path d="M0,94 L6330,94 L6330,3353 L0,3353 L0,94 z"/></clipPath></defs><g clip-path="url(#clip69)" fill="#a06c70" fill-opacity="1" opacity="1" stroke="none" stroke-opacity="0" transform="matrix(0.0236967,0,0,0.0230132,25,2.83676)"><path d="M708,1086 L5668,1086 L5668,1133 L708,1133 L708,1086 z" fill-rule="nonzero" vector-effect="none"/></g><defs><clipPath id="clip70"><path d="M1,1 L61,1 L61,31 L1,31 L1,1 z"/></clipPath></defs><g clip-path="url(#clip70)" fill="none" opacity="1" stroke="#a06c70" stroke-linecap="butt" stroke-linejoin="miter" stroke-miterlimit="4" stroke-opacity="1" stroke-width="1.0075" transform="matrix(2.5,0,0,2.5,22.5,2.5)"><path d="M7.7109,10.1316 L54.7251,10.1316 L54.7251,10.5643 L7.7109,10.5643 L7.7109,10.1316 z" fill-rule="nonzero" vector-effect="none"/></g><defs><clipPath id="clip71"><path d="M0,94 L6330,94 L6330,3353 L0,3353 L0,94 z"/></clipPath></defs><g clip-path="url(#clip71)" fill="#a06c70" fill-opacity="1" opacity="1" stroke="none" stroke-opacity="0" transform="matrix(0.0236967,0,0,0.0230132,25,2.83676)"><path d="M708,2503 L1558,2503 L1558,2550 L708,2550 L708,2503 z" fill-rule="nonzero" vector-effect="none"/></g><defs><clipPath id="clip72"><path d="M1,1 L61,1 L61,31 L1,31 L1,1 z"/></clipPath></defs><g clip-path="url(#clip72)" fill="none" opacity="1" stroke="#a06c70" stroke-linecap="butt" stroke-linejoin="miter" stroke-miterlimit="4" stroke-opacity="1" stroke-width="1.0075" transform="matrix(2.5,0,0,2.5,22.5,2.5)"><path d="M7.7109,23.1755 L15.7678,23.1755 L15.7678,23.6082 L7.7109,23.6082 L7.7109,23.1755 z" fill-rule="nonzero" vector-effect="none"/></g><defs><clipPath id="clip73"><path d="M0,94 L6330,94 L6330,3353 L0,3353 L0,94 z"/></clipPath></defs><g clip-path="url(#clip73)" fill="#a06c70" fill-opacity="1" opacity="1" stroke="none" stroke-opacity="0" transform="matrix(0.0236967,0,0,0.0230132,25,2.83676)"><path d="M2031,2503 L2881,2503 L2881,2550 L2031,2550 L2031,2503 z" fill-rule="nonzero" vector-effect="none"/></g><defs><clipPath id="clip74"><path d="M1,1 L61,1 L61,31 L1,31 L1,1 z"/></clipPath></defs><g clip-path="url(#clip74)" fill="none" opacity="1" stroke="#a06c70" stroke-linecap="butt" stroke-linejoin="miter" stroke-miterlimit="4" stroke-opacity="1" stroke-width="1.0075" transform="matrix(2.5,0,0,2.5,22.5,2.5)"><path d="M20.2512,23.1755 L28.308,23.1755 L28.308,23.6082 L20.2512,23.6082 L20.2512,23.1755 z" fill-rule="nonzero" vector-effect="none"/></g><defs><clipPath id="clip75"><path d="M0,94 L6330,94 L6330,3353 L0,3353 L0,94 z"/></clipPath></defs><g clip-path="url(#clip75)" fill="#a06c70" fill-opacity="1" opacity="1" stroke="none" stroke-opacity="0" transform="matrix(0.0236967,0,0,0.0230132,25,2.83676)"><path d="M4629,2503 L5479,2503 L5479,2550 L4629,2550 L4629,2503 z" fill-rule="nonzero" vector-effect="none"/></g><defs><clipPath id="clip76"><path d="M1,1 L61,1 L61,31 L1,31 L1,1 z"/></clipPath></defs><g clip-path="url(#clip76)" fill="none" opacity="1" stroke="#a06c70" stroke-linecap="butt" stroke-linejoin="miter" stroke-miterlimit="4" stroke-opacity="1" stroke-width="1.0075" transform="matrix(2.5,0,0,2.5,22.5,2.5)"><path d="M44.8768,23.1755 L52.9336,23.1755 L52.9336,23.6082 L44.8768,23.6082 L44.8768,23.1755 z" fill-rule="nonzero" vector-effect="none"/></g><defs><clipPath id="clip77"><path d="M0,94 L6330,94 L6330,3353 L0,3353 L0,94 z"/></clipPath></defs><g clip-path="url(#clip77)" fill="#a06c70" fill-opacity="1" opacity="1" stroke="none" stroke-opacity="0" transform="matrix(0.0236967,0,0,0.0230132,25,2.83676)"><path d="M3354,2503 L4204,2503 L4204,2550 L3354,2550 L3354,2503 z" fill-rule="nonzero" vector-effect="none"/></g><defs><clipPath id="clip78"><path d="M1,1 L61,1 L61,31 L1,31 L1,1 z"/></clipPath></defs><g clip-path="url(#clip78)" fill="none" opacity="1" stroke="#a06c70" stroke-linecap="butt" stroke-linejoin="miter" stroke-miterlimit="4" stroke-opacity="1" stroke-width="1.0075" transform="matrix(2.5,0,0,2.5,22.5,2.5)"><path d="M32.7915,23.1755 L40.8483,23.1755 L40.8483,23.6082 L32.7915,23.6082 L32.7915,23.1755 z" fill-rule="nonzero" vector-effect="none"/></g><defs><clipPath id="clip79"><path d="M1,1 L61,1 L61,31 L1,31 L1,1 z"/></clipPath></defs><g clip-path="url(#clip79)" fill="none" opacity="1" stroke="#a06c70" stroke-linecap="butt" stroke-linejoin="miter" stroke-miterlimit="4" stroke-opacity="1" stroke-width="1.0075" transform="matrix(2.5,0,0,2.5,22.5,2.5)"><path d="M1,0.999999 L61,0.999999 L61,31 L1,31 L1,0.999999 z" fill-rule="nonzero" vector-effect="none"/></g><defs><clipPath id="clip99"><path d="M-10,-2 L70,-2 L70,32 L-10,32 L-10,-2 z"/></clipPath></defs><g clip-path="url(#clip99)" fill="none" opacity="1" stroke="none" stroke-opacity="0" transform="matrix(2.5,0,0,2.5,25,5)"><path d="M0,0 L60,0 L60,30 L0,30 L0,0 z" fill-rule="evenodd" vector-effect="none"/></g></g></svg>
