<?xml version="1.0" encoding="UTF-8"?><svg width="52.9167mm" height="42.3333mm" viewBox="0 0 200 160" xmlns="http://www.w3.org/2000/svg" xmlns:xlink="http://www.w3.org/1999/xlink"><g fill="none" stroke="black" stroke-width="1" fill-rule="evenodd" stroke-linecap="square" stroke-linejoin="bevel"><g clip-path="none" fill="none" opacity="1" stroke="none" stroke-opacity="0" transform="matrix(1,0,0,1,0,0)"><path d="M0,0 L200,0 L200,160 L0,160 L0,0 z" fill-rule="evenodd" vector-effect="none"/></g><defs><clipPath id="clip6"><path d="M0,0 L10,0 L10,10 L0,10 L0,0 z"/></clipPath></defs><g clip-path="url(#clip6)" fill="#ffffff" fill-opacity="1" opacity="1" stroke="none" stroke-opacity="0" transform="matrix(2.5,0,0,2.5,175,107.5)"><path d="M0.5,0.809 L8.882,5 L0.5,9.191 L0.5,0.809 z" fill-rule="evenodd" vector-effect="none"/></g><defs><clipPath id="clip8"><path d="M0,0 L10,0 L10,10 L0,10 L0,0 z"/></clipPath></defs><g clip-path="url(#clip8)" fill="#000000" fill-opacity="1" opacity="1" stroke="none" stroke-opacity="0" transform="matrix(2.5,0,0,2.5,175,107.5)"><path d="M1,1.618 L7.764,5 L1,8.382 L1,1.618 M0,0 L0,10 L10,5 L0,0" fill-rule="nonzero" vector-effect="none"/></g><defs><clipPath id="clip30"><path d="M0,0 L10,0 L10,10 L0,10 L0,0 z"/></clipPath></defs><g clip-path="url(#clip30)" fill="#ffffff" fill-opacity="1" opacity="1" stroke="none" stroke-opacity="0" transform="matrix(2.5,0,0,2.5,175,32.5)"><path d="M0.5,0.809 L8.882,5 L0.5,9.191 L0.5,0.809 z" fill-rule="evenodd" vector-effect="none"/></g><defs><clipPath id="clip32"><path d="M0,0 L10,0 L10,10 L0,10 L0,0 z"/></clipPath></defs><g clip-path="url(#clip32)" fill="#000000" fill-opacity="1" opacity="1" stroke="none" stroke-opacity="0" transform="matrix(2.5,0,0,2.5,175,32.5)"><path d="M1,1.618 L7.764,5 L1,8.382 L1,1.618 M0,0 L0,10 L10,5 L0,0" fill-rule="nonzero" vector-effect="none"/></g><defs><clipPath id="clip55"><path d="M0,0 L10,0 L10,10 L0,10 L0,0 z"/></clipPath></defs><g clip-path="url(#clip55)" fill="#ffffff" fill-opacity="1" opacity="1" stroke="none" stroke-opacity="0" transform="matrix(2.5,0,0,2.5,0,70)"><path d="M8.882,5 L0.5,9.191 L0.5,0.809 L8.882,5 z" fill-rule="evenodd" vector-effect="none"/></g><defs><clipPath id="clip57"><path d="M0,0 L10,0 L10,10 L0,10 L0,0 z"/></clipPath></defs><g clip-path="url(#clip57)" fill="#000000" fill-opacity="1" opacity="1" stroke="none" stroke-opacity="0" transform="matrix(2.5,0,0,2.5,0,70)"><path d="M1,1.618 L7.764,5 L1,8.382 L1,1.618 M0,0 L0,10 L10,5 L0,0" fill-rule="nonzero" vector-effect="none"/></g><defs><clipPath id="clip76"><path d="M-10,-2 L70,-2 L70,62 L-10,62 L-10,-2 z"/></clipPath></defs><g clip-path="url(#clip76)" fill="#ffffff" fill-opacity="1" opacity="1" stroke="none" stroke-opacity="0" transform="matrix(2.5,0,0,2.5,25,5)"><path d="M0,0 L60,0 L60,60 L0,60 L0,0 z" fill-rule="evenodd" vector-effect="none"/></g><defs><clipPath id="clip80"><path d="M0,0 L60,0 L60,60 L0,60 L0,0 z"/></clipPath></defs><g clip-path="url(#clip80)" fill="none" opacity="1" stroke="none" stroke-opacity="0" transform="matrix(2.5,0,0,2.5,25,5)"><path d="M0,0 L60,0 L60,60 L0,60 L0,0 z" fill-rule="evenodd" vector-effect="none"/></g><defs><clipPath id="clip90"><path d="M54,77 L189,77 L189,195 L54,195 L54,77 z"/></clipPath></defs><g clip-path="url(#clip90)" fill="#ffffff" fill-opacity="1" opacity="1" stroke="none" stroke-opacity="0" transform="matrix(1.10838,0,0,1.26761,-34.4833,-92.606)"><path d="M53.667,77 L189,77 L189,195.333 L53.667,195.333 L53.667,77 z" fill-rule="nonzero" vector-effect="none"/></g><defs><clipPath id="clip91"><path d="M1,1 L61,1 L61,61 L1,61 L1,1 z"/></clipPath></defs><g clip-path="url(#clip91)" fill="none" opacity="1" stroke="#a06c70" stroke-linecap="butt" stroke-linejoin="miter" stroke-miterlimit="4" stroke-opacity="1" stroke-width="1.9825" transform="matrix(2.5,0,0,2.5,22.5,2.5)"><path d="M1.00002,0.999989 L61,0.999989 L61,61 L1.00002,61 L1.00002,0.999989 z" fill-rule="nonzero" vector-effect="none"/></g><defs><clipPath id="clip92"><path d="M54,77 L189,77 L189,195 L54,195 L54,77 z"/></clipPath></defs><g clip-path="url(#clip92)" fill="#a06c70" fill-opacity="1" opacity="1" stroke="none" stroke-opacity="0" transform="matrix(1.10838,0,0,1.26761,-34.4833,-92.606)"><path d="M139.904,84.375 L116.144,116.654 C113.956,119.63 112.312,121.573 111.208,122.485 C110.104,123.395 108.831,123.88 107.388,123.938 L107.066,125 L118.818,125 L119.14,123.937 C117.966,123.898 117.126,123.652 116.619,123.202 C116.109,122.751 115.855,122.212 115.855,121.585 C115.855,121.115 115.972,120.609 116.209,120.07 C116.443,119.532 117.022,118.644 117.938,117.411 L121.965,111.936 L133.383,111.936 L132.893,116.973 C132.7,119.226 132.495,120.657 132.278,121.264 C131.965,122.125 131.526,122.743 130.962,123.116 C130.161,123.665 129.126,123.938 127.858,123.938 L127.184,123.938 L126.861,125 L142.506,125 L142.828,123.937 C141.324,123.937 140.255,123.798 139.62,123.525 C138.984,123.25 138.482,122.83 138.111,122.259 C137.818,121.849 137.672,121.25 137.672,120.466 C137.672,119.978 137.75,118.957 137.906,117.409 L140.937,84.372 L139.904,84.375 z" fill-rule="nonzero" vector-effect="none"/></g><defs><clipPath id="clip93"><path d="M54,77 L189,77 L189,195 L54,195 L54,77 z"/></clipPath></defs><g clip-path="url(#clip93)" fill="#ffffff" fill-opacity="1" opacity="1" stroke="none" stroke-opacity="0" transform="matrix(1.10838,0,0,1.26761,-34.4833,-92.606)"><path d="M133.592,109.812 L123.532,109.812 L135.123,94.062 L133.592,109.812 z" fill-rule="nonzero" vector-effect="none"/></g><defs><clipPath id="clip94"><path d="M54,77 L189,77 L189,195 L54,195 L54,77 z"/></clipPath></defs><g clip-path="url(#clip94)" fill="#a06c70" fill-opacity="1" opacity="1" stroke="none" stroke-opacity="0" transform="matrix(1.10838,0,0,1.26761,-34.4833,-92.606)"><path d="M123.986,178.219 C129.34,178.024 133.472,176.069 136.382,172.352 C139.293,168.635 140.748,164.414 140.748,159.694 C140.748,157.08 140.229,154.977 139.197,153.385 C138.162,151.795 136.709,151 134.836,151 C133.509,151 132.261,151.425 131.09,152.273 C129.918,153.123 128.935,154.371 128.133,156.019 C127.334,157.668 126.437,160.181 125.441,163.553 L121.517,176.623 C118.318,176.485 116.717,174.192 116.717,169.742 C116.717,166.054 117.693,162.287 119.64,158.44 C121.588,154.594 123.874,152.459 126.498,152.029 L126.819,150.998 C122.635,151.115 119.143,152.969 116.348,156.56 C113.551,160.15 112.153,164.189 112.153,168.674 C112.153,171.621 112.934,173.939 114.498,175.625 C116.061,177.313 118.269,178.166 121.119,178.187 L117.528,190.342 L120.528,190.342 L123.986,178.219 z" fill-rule="nonzero" vector-effect="none"/></g><defs><clipPath id="clip95"><path d="M54,77 L189,77 L189,195 L54,195 L54,77 z"/></clipPath></defs><g clip-path="url(#clip95)" fill="#ffffff" fill-opacity="1" opacity="1" stroke="none" stroke-opacity="0" transform="matrix(1.10838,0,0,1.26761,-34.4833,-92.606)"><path d="M128.182,164.234 C129.481,159.801 130.539,156.963 131.36,155.713 C132.18,154.466 133.108,153.842 134.143,153.842 C135.86,153.842 136.719,155.529 136.719,158.902 C136.719,162.859 135.658,166.734 133.539,170.525 C131.42,174.318 128.416,176.338 124.527,176.592 L128.182,164.234 z" fill-rule="nonzero" vector-effect="none"/></g><defs><clipPath id="clip112"><path d="M-292,-230 L15,-230 L15,77 L-292,77 L-292,-230 z"/></clipPath></defs><g clip-path="url(#clip112)" fill="none" opacity="1" stroke="#e60000" stroke-linecap="square" stroke-linejoin="bevel" stroke-opacity="1" stroke-width="1" transform="matrix(0.488281,0,0,0.488281,167.5,117.5)"><text fill="#e60000" fill-opacity="1" font-family="Liberation Sans" font-size="40" font-style="normal" font-weight="400" stroke="none" textLength="56" x="-73.9531" xml:space="preserve" y="17.9219">Phi</text></g><defs><clipPath id="clip115"><path d="M-292,-77 L15,-77 L15,230 L-292,230 L-292,-77 z"/></clipPath></defs><g clip-path="url(#clip115)" fill="none" opacity="1" stroke="#e60000" stroke-linecap="square" stroke-linejoin="bevel" stroke-opacity="1" stroke-width="1" transform="matrix(0.488281,0,0,0.488281,167.5,42.5)"><text fill="#e60000" fill-opacity="1" font-family="Liberation Sans" font-size="40" font-style="normal" font-weight="400" stroke="none" textLength="27" x="-34.125" xml:space="preserve" y="17.9219">A</text></g><defs><clipPath id="clip121"><path d="M-10,-2 L70,-2 L70,62 L-10,62 L-10,-2 z"/></clipPath></defs><g clip-path="url(#clip121)" fill="none" opacity="1" stroke="none" stroke-opacity="0" transform="matrix(2.5,0,0,2.5,25,5)"><path d="M0,0 L60,0 L60,60 L0,60 L0,0 z" fill-rule="evenodd" vector-effect="none"/></g></g></svg>
