<?xml version="1.0" encoding="UTF-8"?><svg width="52.9167mm" height="39.1583mm" viewBox="0 0 200 148" xmlns="http://www.w3.org/2000/svg" xmlns:xlink="http://www.w3.org/1999/xlink"><g fill="none" stroke="black" stroke-width="1" fill-rule="evenodd" stroke-linecap="square" stroke-linejoin="bevel"><g clip-path="none" fill="none" opacity="1" stroke="none" stroke-opacity="0" transform="matrix(1,0,0,1,0,0)"><path d="M0,0 L200,0 L200,148 L0,148 L0,0 z" fill-rule="evenodd" vector-effect="none"/></g><defs><clipPath id="clip7"><path d="M0,0 L10,0 L10,10 L0,10 L0,0 z"/></clipPath></defs><g clip-path="url(#clip7)" fill="#ffffff" fill-opacity="1" opacity="1" stroke="none" stroke-opacity="0" transform="matrix(7.40741,0,0,7.40741,5.68434e-14,44.4444)"><path d="M8.882,5 L0.5,9.191 L0.5,0.809 L8.882,5 z" fill-rule="evenodd" vector-effect="none"/></g><defs><clipPath id="clip9"><path d="M0,0 L10,0 L10,10 L0,10 L0,0 z"/></clipPath></defs><g clip-path="url(#clip9)" fill="#000000" fill-opacity="1" opacity="1" stroke="none" stroke-opacity="0" transform="matrix(7.40741,0,0,7.40741,5.68434e-14,44.4444)"><path d="M1,1.618 L7.764,5 L1,8.382 L1,1.618 M0,0 L0,10 L10,5 L0,0" fill-rule="nonzero" vector-effect="none"/></g><defs><clipPath id="clip28"><path d="M-10,-2 L17,-2 L17,18 L-10,18 L-10,-2 z"/></clipPath></defs><g clip-path="url(#clip28)" fill="#ffffff" fill-opacity="1" opacity="1" stroke="none" stroke-opacity="0" transform="matrix(7.40741,0,0,7.40741,74.0741,14.8148)"><path d="M0,0 L15,0 L15,16 L0,16 L0,0 z" fill-rule="evenodd" vector-effect="none"/></g><defs><clipPath id="clip32"><path d="M0,0 L15,0 L15,16 L0,16 L0,0 z"/></clipPath></defs><g clip-path="url(#clip32)" fill="none" opacity="1" stroke="none" stroke-opacity="0" transform="matrix(7.40741,0,0,7.40741,74.0741,14.8148)"><path d="M0,0 L15,0 L15,16 L0,16 L0,0 z" fill-rule="evenodd" vector-effect="none"/></g><defs><clipPath id="clip42"><path d="M1,1 L16,1 L16,17 L1,17 L1,1 z"/></clipPath></defs><g clip-path="url(#clip42)" fill="none" opacity="1" stroke="#a06c70" stroke-linecap="butt" stroke-linejoin="miter" stroke-miterlimit="20" stroke-opacity="1" stroke-width="0.5525" transform="matrix(7.40741,0,0,7.40741,66.6667,7.40741)"><path d="M1,9.00003 L13.75,9.00003" fill-rule="nonzero" vector-effect="none"/></g><defs><clipPath id="clip43"><path d="M1,1 L16,1 L16,17 L1,17 L1,1 z"/></clipPath></defs><g clip-path="url(#clip43)" fill="none" opacity="1" stroke="#a06c70" stroke-linecap="butt" stroke-linejoin="miter" stroke-miterlimit="20" stroke-opacity="1" stroke-width="0.5525" transform="matrix(7.40741,0,0,7.40741,66.6667,7.40741)"><path d="M4.75001,3.40001 L13.75,3.40001 L13.75,14.6 L4.75001,14.6" fill-rule="nonzero" vector-effect="none"/></g><defs><clipPath id="clip44"><path d="M1,1 L16,1 L16,17 L1,17 L1,1 z"/></clipPath></defs><g clip-path="url(#clip44)" fill="none" opacity="1" stroke="#a06c70" stroke-linecap="butt" stroke-linejoin="miter" stroke-miterlimit="20" stroke-opacity="1" stroke-width="0.5525" transform="matrix(7.40741,0,0,7.40741,66.6667,7.40741)"><path d="M1,1 L16,1 L16,17.0001 L1,17.0001 L1,1 z" fill-rule="nonzero" vector-effect="none"/></g><defs><clipPath id="clip64"><path d="M-10,-2 L17,-2 L17,18 L-10,18 L-10,-2 z"/></clipPath></defs><g clip-path="url(#clip64)" fill="none" opacity="1" stroke="none" stroke-opacity="0" transform="matrix(7.40741,0,0,7.40741,74.0741,14.8148)"><path d="M0,0 L15,0 L15,16 L0,16 L0,0 z" fill-rule="evenodd" vector-effect="none"/></g></g></svg>
