<?xml version="1.0" encoding="UTF-8"?><svg width="52.9167mm" height="42.5979mm" viewBox="0 0 200 161" xmlns="http://www.w3.org/2000/svg" xmlns:xlink="http://www.w3.org/1999/xlink"><g fill="none" stroke="black" stroke-width="1" fill-rule="evenodd" stroke-linecap="square" stroke-linejoin="bevel"><g clip-path="none" fill="none" opacity="1" stroke="none" stroke-opacity="0" transform="matrix(1,0,0,1,0,0)"><path d="M0,0 L200,0 L200,161 L0,161 L0,0 z" fill-rule="evenodd" vector-effect="none"/></g><defs><clipPath id="clip6"><path d="M0,0 L10,0 L10,10 L0,10 L0,0 z"/></clipPath></defs><g clip-path="url(#clip6)" fill="#ffffff" fill-opacity="1" opacity="1" stroke="none" stroke-opacity="0" transform="matrix(4.7619,0,0,4.7619,152.381,61.9048)"><path d="M0.5,0.809 L8.882,5 L0.5,9.191 L0.5,0.809 z" fill-rule="evenodd" vector-effect="none"/></g><defs><clipPath id="clip8"><path d="M0,0 L10,0 L10,10 L0,10 L0,0 z"/></clipPath></defs><g clip-path="url(#clip8)" fill="#000000" fill-opacity="1" opacity="1" stroke="none" stroke-opacity="0" transform="matrix(4.7619,0,0,4.7619,152.381,61.9048)"><path d="M1,1.618 L7.764,5 L1,8.382 L1,1.618 M0,0 L0,10 L10,5 L0,0" fill-rule="nonzero" vector-effect="none"/></g><defs><clipPath id="clip27"><path d="M-2,-2 L40,-2 L40,32 L-2,32 L-2,-2 z"/></clipPath></defs><g clip-path="url(#clip27)" fill="#ffffff" fill-opacity="1" opacity="1" stroke="none" stroke-opacity="0" transform="matrix(4.7619,0,0,4.7619,9.52381,9.52381)"><path d="M0,0 L30,0 L30,30 L0,30 L0,0 z" fill-rule="evenodd" vector-effect="none"/></g><defs><clipPath id="clip31"><path d="M0,0 L30,0 L30,30 L0,30 L0,0 z"/></clipPath></defs><g clip-path="url(#clip31)" fill="none" opacity="1" stroke="none" stroke-opacity="0" transform="matrix(4.7619,0,0,4.7619,9.52381,9.52381)"><path d="M0,0 L30,0 L30,30 L0,30 L0,0 z" fill-rule="evenodd" vector-effect="none"/></g><defs><clipPath id="clip41"><path d="M1,1 L31,1 L31,31 L1,31 L1,1 z"/></clipPath></defs><g clip-path="url(#clip41)" fill="none" opacity="1" stroke="#a06c70" stroke-linecap="butt" stroke-linejoin="miter" stroke-miterlimit="20" stroke-opacity="1" stroke-width="1.0075" transform="matrix(4.7619,0,0,4.7619,4.7619,4.7619)"><path d="M20.4595,11 L18.8379,10.1667 L17.2163,9.33336 L15.5946,9.33336 L12.3514,11 L11.5406,16.0001 L12.3514,21.0001 L15.5946,22.6667 L17.2163,22.6667 L20.4595,21.0001" fill-rule="nonzero" vector-effect="none"/></g><defs><clipPath id="clip42"><path d="M1,1 L31,1 L31,31 L1,31 L1,1 z"/></clipPath></defs><g clip-path="url(#clip42)" fill="none" opacity="1" stroke="#a06c70" stroke-linecap="butt" stroke-linejoin="miter" stroke-miterlimit="20" stroke-opacity="1" stroke-width="1.0075" transform="matrix(4.7619,0,0,4.7619,4.7619,4.7619)"><path d="M1.00001,1 L31.0001,1 L31.0001,31.0001 L1.00001,31.0001 L1.00001,1 z" fill-rule="nonzero" vector-effect="none"/></g><defs><clipPath id="clip62"><path d="M-2,-2 L40,-2 L40,32 L-2,32 L-2,-2 z"/></clipPath></defs><g clip-path="url(#clip62)" fill="none" opacity="1" stroke="none" stroke-opacity="0" transform="matrix(4.7619,0,0,4.7619,9.52381,9.52381)"><path d="M0,0 L30,0 L30,30 L0,30 L0,0 z" fill-rule="evenodd" vector-effect="none"/></g></g></svg>
