<?xml version="1.0" encoding="UTF-8"?><svg width="52.9167mm" height="42.5979mm" viewBox="0 0 200 161" xmlns="http://www.w3.org/2000/svg" xmlns:xlink="http://www.w3.org/1999/xlink"><g fill="none" stroke="black" stroke-width="1" fill-rule="evenodd" stroke-linecap="square" stroke-linejoin="bevel"><g clip-path="none" fill="none" opacity="1" stroke="none" stroke-opacity="0" transform="matrix(1,0,0,1,0,0)"><path d="M0,0 L200,0 L200,161 L0,161 L0,0 z" fill-rule="evenodd" vector-effect="none"/></g><defs><clipPath id="clip6"><path d="M0,0 L10,0 L10,10 L0,10 L0,0 z"/></clipPath></defs><g clip-path="url(#clip6)" fill="#ffffff" fill-opacity="1" opacity="1" stroke="none" stroke-opacity="0" transform="matrix(4.7619,0,0,4.7619,152.381,61.9048)"><path d="M0.5,0.809 L8.882,5 L0.5,9.191 L0.5,0.809 z" fill-rule="evenodd" vector-effect="none"/></g><defs><clipPath id="clip8"><path d="M0,0 L10,0 L10,10 L0,10 L0,0 z"/></clipPath></defs><g clip-path="url(#clip8)" fill="#000000" fill-opacity="1" opacity="1" stroke="none" stroke-opacity="0" transform="matrix(4.7619,0,0,4.7619,152.381,61.9048)"><path d="M1,1.618 L7.764,5 L1,8.382 L1,1.618 M0,0 L0,10 L10,5 L0,0" fill-rule="nonzero" vector-effect="none"/></g><defs><clipPath id="clip27"><path d="M-2,-2 L40,-2 L40,32 L-2,32 L-2,-2 z"/></clipPath></defs><g clip-path="url(#clip27)" fill="#ffffff" fill-opacity="1" opacity="1" stroke="none" stroke-opacity="0" transform="matrix(4.7619,0,0,4.7619,9.52381,9.52381)"><path d="M0,0 L30,0 L30,30 L0,30 L0,0 z" fill-rule="evenodd" vector-effect="none"/></g><defs><clipPath id="clip31"><path d="M0,0 L30,0 L30,30 L0,30 L0,0 z"/></clipPath></defs><g clip-path="url(#clip31)" fill="none" opacity="1" stroke="none" stroke-opacity="0" transform="matrix(4.7619,0,0,4.7619,9.52381,9.52381)"><path d="M0,0 L30,0 L30,30 L0,30 L0,0 z" fill-rule="evenodd" vector-effect="none"/></g><defs><clipPath id="clip41"><path d="M1,1 L31,1 L31,31 L1,31 L1,1 z"/></clipPath></defs><g clip-path="url(#clip41)" fill="none" opacity="1" stroke="#a06c70" stroke-linecap="butt" stroke-linejoin="miter" stroke-miterlimit="20" stroke-opacity="1" stroke-width="1.0075" transform="matrix(4.7619,0,0,4.7619,4.7619,4.7619)"><path d="M3.25,2.5 L3.25,29.875" fill-rule="nonzero" vector-effect="none"/></g><defs><clipPath id="clip42"><path d="M1,1 L31,1 L31,31 L1,31 L1,1 z"/></clipPath></defs><g clip-path="url(#clip42)" fill="none" opacity="1" stroke="#a06c70" stroke-linecap="butt" stroke-linejoin="miter" stroke-miterlimit="20" stroke-opacity="1" stroke-width="1.0075" transform="matrix(4.7619,0,0,4.7619,4.7619,4.7619)"><path d="M2.125,28.75 L29.5,28.75" fill-rule="nonzero" vector-effect="none"/></g><defs><clipPath id="clip43"><path d="M1,1 L31,1 L31,31 L1,31 L1,1 z"/></clipPath></defs><g clip-path="url(#clip43)" fill="none" opacity="1" stroke="#a06c70" stroke-linecap="butt" stroke-linejoin="miter" stroke-miterlimit="20" stroke-opacity="1" stroke-width="1.0075" transform="matrix(4.7619,0,0,4.7619,4.7619,4.7619)"><path d="M4,27.25 L5.5,28.75 L9.25001,4 L11.5,22.75 L14.5,12.25 L16,20.5 L19,16 L22,28.375 L25,2.875 L26.875,8.50001" fill-rule="nonzero" vector-effect="none"/></g><defs><clipPath id="clip44"><path d="M1,1 L31,1 L31,31 L1,31 L1,1 z"/></clipPath></defs><g clip-path="url(#clip44)" fill="none" opacity="1" stroke="#a06c70" stroke-linecap="butt" stroke-linejoin="miter" stroke-miterlimit="20" stroke-opacity="1" stroke-width="1.0075" transform="matrix(4.7619,0,0,4.7619,4.7619,4.7619)"><path d="M1,1 L31,1 L31,31 L1,31 L1,1 z" fill-rule="nonzero" vector-effect="none"/></g><defs><clipPath id="clip61"><path d="M-138,-77 L16,-77 L16,77 L-138,77 L-138,-77 z"/></clipPath></defs><g clip-path="url(#clip61)" fill="none" opacity="1" stroke="#e60000" stroke-linecap="square" stroke-linejoin="bevel" stroke-opacity="1" stroke-width="1" transform="matrix(0.93006,0,0,0.93006,138.095,80.9524)"><text fill="#e60000" fill-opacity="1" font-family="Liberation Sans" font-size="40" font-style="normal" font-weight="400" stroke="none" textLength="26" x="-34.125" xml:space="preserve" y="17.9219">Y</text></g><defs><clipPath id="clip67"><path d="M-2,-2 L40,-2 L40,32 L-2,32 L-2,-2 z"/></clipPath></defs><g clip-path="url(#clip67)" fill="none" opacity="1" stroke="none" stroke-opacity="0" transform="matrix(4.7619,0,0,4.7619,9.52381,9.52381)"><path d="M0,0 L30,0 L30,30 L0,30 L0,0 z" fill-rule="evenodd" vector-effect="none"/></g></g></svg>
