<?xml version="1.0" encoding="UTF-8"?><svg width="52.9167mm" height="28.0458mm" viewBox="0 0 200 106" xmlns="http://www.w3.org/2000/svg" xmlns:xlink="http://www.w3.org/1999/xlink"><g fill="none" stroke="black" stroke-width="1" fill-rule="evenodd" stroke-linecap="square" stroke-linejoin="bevel"><g clip-path="none" fill="none" opacity="1" stroke="none" stroke-opacity="0" transform="matrix(1,0,0,1,0,0)"><path d="M0,0 L200,0 L200,106 L0,106 L0,0 z" fill-rule="evenodd" vector-effect="none"/></g><defs><clipPath id="clip6"><path d="M0,0 L10,0 L10,10 L0,10 L0,0 z"/></clipPath></defs><g clip-path="url(#clip6)" fill="#b3b3b3" fill-opacity="1" opacity="1" stroke="none" stroke-opacity="0" transform="matrix(3.33333,0,0,3.33333,166.667,40)"><path d="M0.5,3.5 L3.5,3.5 L3.5,6.5 L0.5,6.5 L0.5,3.5 z" fill-rule="evenodd" vector-effect="none"/></g><defs><clipPath id="clip8"><path d="M0,0 L10,0 L10,10 L0,10 L0,0 z"/></clipPath></defs><g clip-path="url(#clip8)" fill="#000000" fill-opacity="1" opacity="1" stroke="none" stroke-opacity="0" transform="matrix(3.33333,0,0,3.33333,166.667,40)"><path d="M3,4 L3,6 L1,6 L1,4 L3,4 M4,3 L0,3 L0,7 L4,7 L4,3" fill-rule="nonzero" vector-effect="none"/></g><defs><clipPath id="clip28"><path d="M0,0 L10,0 L10,10 L0,10 L0,0 z"/></clipPath></defs><g clip-path="url(#clip28)" fill="#b3b3b3" fill-opacity="1" opacity="1" stroke="none" stroke-opacity="0" transform="matrix(-3.33333,0,0,3.33333,33.3333,73.3333)"><path d="M0.5,3.5 L3.5,3.5 L3.5,6.5 L0.5,6.5 L0.5,3.5 z" fill-rule="evenodd" vector-effect="none"/></g><defs><clipPath id="clip30"><path d="M0,0 L10,0 L10,10 L0,10 L0,0 z"/></clipPath></defs><g clip-path="url(#clip30)" fill="#000000" fill-opacity="1" opacity="1" stroke="none" stroke-opacity="0" transform="matrix(-3.33333,0,0,3.33333,33.3333,73.3333)"><path d="M3,4 L3,6 L1,6 L1,4 L3,4 M4,3 L0,3 L0,7 L4,7 L4,3" fill-rule="nonzero" vector-effect="none"/></g><defs><clipPath id="clip50"><path d="M0,0 L10,0 L10,10 L0,10 L0,0 z"/></clipPath></defs><g clip-path="url(#clip50)" fill="#b3b3b3" fill-opacity="1" opacity="1" stroke="none" stroke-opacity="0" transform="matrix(-3.33333,0,0,3.33333,33.3333,6.66667)"><path d="M0.5,3.5 L3.5,3.5 L3.5,6.5 L0.5,6.5 L0.5,3.5 z" fill-rule="evenodd" vector-effect="none"/></g><defs><clipPath id="clip52"><path d="M0,0 L10,0 L10,10 L0,10 L0,0 z"/></clipPath></defs><g clip-path="url(#clip52)" fill="#000000" fill-opacity="1" opacity="1" stroke="none" stroke-opacity="0" transform="matrix(-3.33333,0,0,3.33333,33.3333,6.66667)"><path d="M3,4 L3,6 L1,6 L1,4 L3,4 M4,3 L0,3 L0,7 L4,7 L4,3" fill-rule="nonzero" vector-effect="none"/></g><defs><clipPath id="clip72"><path d="M0,0 L10,0 L10,10 L0,10 L0,0 z"/></clipPath></defs><g clip-path="url(#clip72)" fill="#b3b3b3" fill-opacity="1" opacity="1" stroke="none" stroke-opacity="0" transform="matrix(-3.33333,0,0,3.33333,33.3333,40)"><path d="M0.5,3.5 L3.5,3.5 L3.5,6.5 L0.5,6.5 L0.5,3.5 z" fill-rule="evenodd" vector-effect="none"/></g><defs><clipPath id="clip74"><path d="M0,0 L10,0 L10,10 L0,10 L0,0 z"/></clipPath></defs><g clip-path="url(#clip74)" fill="#000000" fill-opacity="1" opacity="1" stroke="none" stroke-opacity="0" transform="matrix(-3.33333,0,0,3.33333,33.3333,40)"><path d="M3,4 L3,6 L1,6 L1,4 L3,4 M4,3 L0,3 L0,7 L4,7 L4,3" fill-rule="nonzero" vector-effect="none"/></g><defs><clipPath id="clip91"><path d="M-10,-2 L50,-2 L50,30 L-10,30 L-10,-2 z"/></clipPath></defs><g clip-path="url(#clip91)" fill="#ffffff" fill-opacity="1" opacity="1" stroke="none" stroke-opacity="0" transform="matrix(3.33333,0,0,3.33333,33.3333,6.66667)"><path d="M0,0 L40,0 L40,28 L0,28 L0,0 z" fill-rule="evenodd" vector-effect="none"/></g><defs><clipPath id="clip95"><path d="M0,0 L40,0 L40,28 L0,28 L0,0 z"/></clipPath></defs><g clip-path="url(#clip95)" fill="none" opacity="1" stroke="none" stroke-opacity="0" transform="matrix(3.33333,0,0,3.33333,33.3333,6.66667)"><path d="M0,0 L40,0 L40,28 L0,28 L0,0 z" fill-rule="evenodd" vector-effect="none"/></g><defs><clipPath id="clip105"><path d="M1,1 L41,1 L41,29 L1,29 L1,1 z"/></clipPath></defs><g clip-path="url(#clip105)" fill="none" opacity="1" stroke="#ffffff" stroke-linecap="butt" stroke-linejoin="miter" stroke-miterlimit="20" stroke-opacity="1" stroke-width="0.9425" transform="matrix(3.33333,0,0,3.33333,30,3.33333)"><path d="M1,1 L41,1 L41,29 L1,29 L1,1 z" fill-rule="nonzero" vector-effect="none"/></g><defs><clipPath id="clip106"><path d="M1,1 L41,1 L41,29 L1,29 L1,1 z"/></clipPath></defs><g clip-path="url(#clip106)" fill="none" opacity="1" stroke="#35d461" stroke-linecap="butt" stroke-linejoin="miter" stroke-miterlimit="20" stroke-opacity="1" stroke-width="0.9425" transform="matrix(3.33333,0,0,3.33333,30,3.33333)"><path d="M41,15 L28.4667,15" fill-rule="nonzero" vector-effect="none"/></g><defs><clipPath id="clip107"><path d="M1,1 L41,1 L41,29 L1,29 L1,1 z"/></clipPath></defs><g clip-path="url(#clip107)" fill="none" opacity="1" stroke="#35d461" stroke-linecap="butt" stroke-linejoin="miter" stroke-miterlimit="20" stroke-opacity="1" stroke-width="0.9425" transform="matrix(3.33333,0,0,3.33333,30,3.33333)"><path d="M1,15 L13.2667,15" fill-rule="nonzero" vector-effect="none"/></g><defs><clipPath id="clip108"><path d="M1,1 L41,1 L41,29 L1,29 L1,1 z"/></clipPath></defs><g clip-path="url(#clip108)" fill="none" opacity="1" stroke="#35d461" stroke-linecap="butt" stroke-linejoin="miter" stroke-miterlimit="20" stroke-opacity="1" stroke-width="0.9425" transform="matrix(3.33333,0,0,3.33333,30,3.33333)"><path d="M13.2667,8 L13.2667,27.8333" fill-rule="nonzero" vector-effect="none"/></g><defs><clipPath id="clip109"><path d="M1,1 L41,1 L41,29 L1,29 L1,1 z"/></clipPath></defs><g clip-path="url(#clip109)" fill="none" opacity="1" stroke="#35d461" stroke-linecap="butt" stroke-linejoin="miter" stroke-miterlimit="4" stroke-opacity="1" stroke-width="0.9425" transform="matrix(3.33333,0,0,3.33333,30,3.33333)"><path d="M13.2667,2.16667 C16.4356,2.0676 19.5559,2.86928 22.1606,4.45167 C24.7653,6.03406 26.7143,8.31204 27.7156,10.9447 C28.717,13.5772 28.717,16.4228 27.7156,19.0553 C26.7143,21.6879 24.7653,23.966 22.1606,25.5483 C19.5559,27.1308 16.4356,27.9324 13.2667,27.8333" fill-rule="nonzero" vector-effect="none"/></g><defs><clipPath id="clip110"><path d="M1,1 L41,1 L41,29 L1,29 L1,1 z"/></clipPath></defs><g clip-path="url(#clip110)" fill="none" opacity="1" stroke="#e9631e" stroke-linecap="butt" stroke-linejoin="miter" stroke-miterlimit="20" stroke-opacity="1" stroke-width="0.9425" transform="matrix(3.33333,0,0,3.33333,30,3.33333)"><path d="M1,24.3333 L10.0667,24.3333" fill-rule="nonzero" vector-effect="none"/></g><defs><clipPath id="clip111"><path d="M1,1 L41,1 L41,29 L1,29 L1,1 z"/></clipPath></defs><g clip-path="url(#clip111)" fill="none" opacity="1" stroke="#e9631e" stroke-linecap="butt" stroke-linejoin="miter" stroke-miterlimit="4" stroke-opacity="1" stroke-width="0.9425" transform="matrix(3.33333,0,0,3.33333,30,3.33333)"><path d="M12.1111,21.2845 C12.2443,21.0681 12.4626,20.9014 12.7255,20.8151 C12.9884,20.7288 13.2782,20.7288 13.5411,20.8151 C13.804,20.9014 14.0223,21.0681 14.1556,21.2845" fill-rule="nonzero" vector-effect="none"/></g><defs><clipPath id="clip112"><path d="M1,1 L41,1 L41,29 L1,29 L1,1 z"/></clipPath></defs><g clip-path="url(#clip112)" fill="none" opacity="1" stroke="#e9631e" stroke-linecap="butt" stroke-linejoin="miter" stroke-miterlimit="4" stroke-opacity="1" stroke-width="0.9425" transform="matrix(3.33333,0,0,3.33333,30,3.33333)"><path d="M12.1111,21.2845 C11.9796,21.5025 11.7615,21.671 11.4979,21.7583 C11.2344,21.8455 10.9434,21.8455 10.6799,21.7583 C10.4163,21.671 10.1982,21.5025 10.0667,21.2845" fill-rule="nonzero" vector-effect="none"/></g><defs><clipPath id="clip113"><path d="M1,1 L41,1 L41,29 L1,29 L1,1 z"/></clipPath></defs><g clip-path="url(#clip113)" fill="none" opacity="1" stroke="#e9631e" stroke-linecap="butt" stroke-linejoin="miter" stroke-miterlimit="4" stroke-opacity="1" stroke-width="0.9425" transform="matrix(3.33333,0,0,3.33333,30,3.33333)"><path d="M16.2,21.2845 C16.0684,21.5025 15.8504,21.671 15.5868,21.7583 C15.3233,21.8455 15.0323,21.8455 14.7688,21.7583 C14.5052,21.671 14.2871,21.5025 14.1556,21.2845" fill-rule="nonzero" vector-effect="none"/></g><defs><clipPath id="clip114"><path d="M1,1 L41,1 L41,29 L1,29 L1,1 z"/></clipPath></defs><g clip-path="url(#clip114)" fill="none" opacity="1" stroke="#e9631e" stroke-linecap="butt" stroke-linejoin="miter" stroke-miterlimit="4" stroke-opacity="1" stroke-width="0.9425" transform="matrix(3.33333,0,0,3.33333,30,3.33333)"><path d="M12.1111,23.8511 C12.2443,23.6348 12.4626,23.468 12.7255,23.3818 C12.9884,23.2954 13.2782,23.2954 13.5411,23.3818 C13.804,23.468 14.0223,23.6348 14.1556,23.8511" fill-rule="nonzero" vector-effect="none"/></g><defs><clipPath id="clip115"><path d="M1,1 L41,1 L41,29 L1,29 L1,1 z"/></clipPath></defs><g clip-path="url(#clip115)" fill="none" opacity="1" stroke="#e9631e" stroke-linecap="butt" stroke-linejoin="miter" stroke-miterlimit="4" stroke-opacity="1" stroke-width="0.9425" transform="matrix(3.33333,0,0,3.33333,30,3.33333)"><path d="M12.1111,23.8511 C11.9796,24.0692 11.7615,24.2377 11.4979,24.325 C11.2344,24.4122 10.9434,24.4122 10.6799,24.325 C10.4163,24.2377 10.1982,24.0692 10.0667,23.8511" fill-rule="nonzero" vector-effect="none"/></g><defs><clipPath id="clip116"><path d="M1,1 L41,1 L41,29 L1,29 L1,1 z"/></clipPath></defs><g clip-path="url(#clip116)" fill="none" opacity="1" stroke="#e9631e" stroke-linecap="butt" stroke-linejoin="miter" stroke-miterlimit="4" stroke-opacity="1" stroke-width="0.9425" transform="matrix(3.33333,0,0,3.33333,30,3.33333)"><path d="M16.2,23.8511 C16.0684,24.0692 15.8504,24.2377 15.5868,24.325 C15.3233,24.4122 15.0323,24.4122 14.7688,24.325 C14.5052,24.2377 14.2871,24.0692 14.1556,23.8511" fill-rule="nonzero" vector-effect="none"/></g><defs><clipPath id="clip117"><path d="M1,1 L41,1 L41,29 L1,29 L1,1 z"/></clipPath></defs><g clip-path="url(#clip117)" fill="none" opacity="1" stroke="#e9631e" stroke-linecap="butt" stroke-linejoin="miter" stroke-miterlimit="4" stroke-opacity="1" stroke-width="0.9425" transform="matrix(3.33333,0,0,3.33333,30,3.33333)"><path d="M12.1111,26.1845 C12.2443,25.9681 12.4626,25.8014 12.7255,25.7151 C12.9884,25.6288 13.2782,25.6288 13.5411,25.7151 C13.804,25.8014 14.0223,25.9681 14.1556,26.1845" fill-rule="nonzero" vector-effect="none"/></g><defs><clipPath id="clip118"><path d="M1,1 L41,1 L41,29 L1,29 L1,1 z"/></clipPath></defs><g clip-path="url(#clip118)" fill="none" opacity="1" stroke="#e9631e" stroke-linecap="butt" stroke-linejoin="miter" stroke-miterlimit="4" stroke-opacity="1" stroke-width="0.9425" transform="matrix(3.33333,0,0,3.33333,30,3.33333)"><path d="M12.1111,26.1845 C11.9796,26.4025 11.7615,26.571 11.4979,26.6583 C11.2344,26.7455 10.9434,26.7455 10.6799,26.6583 C10.4163,26.571 10.1982,26.4025 10.0667,26.1845" fill-rule="nonzero" vector-effect="none"/></g><defs><clipPath id="clip119"><path d="M1,1 L41,1 L41,29 L1,29 L1,1 z"/></clipPath></defs><g clip-path="url(#clip119)" fill="none" opacity="1" stroke="#e9631e" stroke-linecap="butt" stroke-linejoin="miter" stroke-miterlimit="4" stroke-opacity="1" stroke-width="0.9425" transform="matrix(3.33333,0,0,3.33333,30,3.33333)"><path d="M16.2,26.1845 C16.0684,26.4025 15.8504,26.571 15.5868,26.6583 C15.3233,26.7455 15.0323,26.7455 14.7688,26.6583 C14.5052,26.571 14.2871,26.4025 14.1556,26.1845" fill-rule="nonzero" vector-effect="none"/></g><defs><clipPath id="clip120"><path d="M9,9 L414,9 L414,333 L9,333 L9,9 z"/></clipPath></defs><g clip-path="url(#clip120)" fill="#e9631e" fill-opacity="1" opacity="1" stroke="none" stroke-opacity="0" transform="matrix(0.329218,0,0,0.288066,30.3704,4.07407)"><path d="M100.8,243.72 L107.04,252 L111.18,245.82 L100.8,245.82 L100.8,243.72 z" fill-rule="nonzero" vector-effect="none"/></g><defs><clipPath id="clip121"><path d="M1,1 L41,1 L41,29 L1,29 L1,1 z"/></clipPath></defs><g clip-path="url(#clip121)" fill="none" opacity="1" stroke="#e9631e" stroke-linecap="butt" stroke-linejoin="miter" stroke-miterlimit="20" stroke-opacity="1" stroke-width="0.9425" transform="matrix(3.33333,0,0,3.33333,30,3.33333)"><path d="M10.0667,21.2845 L10.683,22 L11.0918,21.4659 L10.0667,21.4659 L10.0667,21.2845 z" fill-rule="nonzero" vector-effect="none"/></g><defs><clipPath id="clip122"><path d="M9,9 L414,9 L414,333 L9,333 L9,9 z"/></clipPath></defs><g clip-path="url(#clip122)" fill="#e9631e" fill-opacity="1" opacity="1" stroke="none" stroke-opacity="0" transform="matrix(0.329218,0,0,0.288066,30.3704,4.07407)"><path d="M100.8,273.42 L107.04,281.7 L111.18,275.52 L100.8,275.52 L100.8,273.42 z" fill-rule="nonzero" vector-effect="none"/></g><defs><clipPath id="clip123"><path d="M1,1 L41,1 L41,29 L1,29 L1,1 z"/></clipPath></defs><g clip-path="url(#clip123)" fill="none" opacity="1" stroke="#e9631e" stroke-linecap="butt" stroke-linejoin="miter" stroke-miterlimit="20" stroke-opacity="1" stroke-width="0.9425" transform="matrix(3.33333,0,0,3.33333,30,3.33333)"><path d="M10.0667,23.8511 L10.683,24.5667 L11.0918,24.0326 L10.0667,24.0326 L10.0667,23.8511 z" fill-rule="nonzero" vector-effect="none"/></g><defs><clipPath id="clip124"><path d="M9,9 L414,9 L414,333 L9,333 L9,9 z"/></clipPath></defs><g clip-path="url(#clip124)" fill="#e9631e" fill-opacity="1" opacity="1" stroke="none" stroke-opacity="0" transform="matrix(0.329218,0,0,0.288066,30.3704,4.07407)"><path d="M100.8,300.42 L107.04,308.7 L111.18,302.52 L100.8,302.52 L100.8,300.42 z" fill-rule="nonzero" vector-effect="none"/></g><defs><clipPath id="clip125"><path d="M1,1 L41,1 L41,29 L1,29 L1,1 z"/></clipPath></defs><g clip-path="url(#clip125)" fill="none" opacity="1" stroke="#e9631e" stroke-linecap="butt" stroke-linejoin="miter" stroke-miterlimit="20" stroke-opacity="1" stroke-width="0.9425" transform="matrix(3.33333,0,0,3.33333,30,3.33333)"><path d="M10.0667,26.1845 L10.683,26.9 L11.0918,26.3659 L10.0667,26.3659 L10.0667,26.1845 z" fill-rule="nonzero" vector-effect="none"/></g><defs><clipPath id="clip126"><path d="M1,1 L41,1 L41,29 L1,29 L1,1 z"/></clipPath></defs><g clip-path="url(#clip126)" fill="none" opacity="1" stroke="#8368aa" stroke-linecap="butt" stroke-linejoin="miter" stroke-miterlimit="20" stroke-opacity="1" stroke-width="0.9425" transform="matrix(3.33333,0,0,3.33333,30,3.33333)"><path d="M13.2667,5.66667 L1,5.66667" fill-rule="nonzero" vector-effect="none"/></g><defs><clipPath id="clip127"><path d="M1,1 L41,1 L41,29 L1,29 L1,1 z"/></clipPath></defs><g clip-path="url(#clip127)" fill="none" opacity="1" stroke="#8368aa" stroke-linecap="butt" stroke-linejoin="miter" stroke-miterlimit="20" stroke-opacity="1" stroke-width="0.9425" transform="matrix(3.33333,0,0,3.33333,30,3.33333)"><path d="M18.3333,5.66667 L13.2667,9.16667 L13.2667,2.16667 L18.3333,5.66667 z" fill-rule="nonzero" vector-effect="none"/></g><defs><clipPath id="clip144"><path d="M-189,-72 L16,-72 L16,71 L-189,71 L-189,-72 z"/></clipPath></defs><g clip-path="url(#clip144)" fill="none" opacity="1" stroke="#e60000" stroke-linecap="square" stroke-linejoin="bevel" stroke-opacity="1" stroke-width="1" transform="matrix(0.651042,0,0,0.651042,156.667,53.3333)"><text fill="#e60000" fill-opacity="1" font-family="Liberation Sans" font-size="40" font-style="normal" font-weight="400" stroke="none" textLength="29" x="-36.9531" xml:space="preserve" y="17.9219">R</text></g><defs><clipPath id="clip147"><path d="M-15,-118 L190,-118 L190,25 L-15,25 L-15,-118 z"/></clipPath></defs><g clip-path="url(#clip147)" fill="none" opacity="1" stroke="#e60000" stroke-linecap="square" stroke-linejoin="bevel" stroke-opacity="1" stroke-width="1" transform="matrix(0.651042,0,0,0.651042,43.3333,83.3333)"><text fill="#e60000" fill-opacity="1" font-family="Liberation Sans" font-size="40" font-style="normal" font-weight="400" stroke="none" textLength="29" x="0" xml:space="preserve" y="17.9219">H</text></g><defs><clipPath id="clip150"><path d="M-15,-72 L190,-72 L190,71 L-15,71 L-15,-72 z"/></clipPath></defs><g clip-path="url(#clip150)" fill="none" opacity="1" stroke="#e60000" stroke-linecap="square" stroke-linejoin="bevel" stroke-opacity="1" stroke-width="1" transform="matrix(0.651042,0,0,0.651042,43.3333,53.3333)"><text fill="#e60000" fill-opacity="1" font-family="Liberation Sans" font-size="40" font-style="normal" font-weight="400" stroke="none" textLength="29" x="0" xml:space="preserve" y="17.9219">C</text></g><defs><clipPath id="clip153"><path d="M-15,-26 L190,-26 L190,117 L-15,117 L-15,-26 z"/></clipPath></defs><g clip-path="url(#clip153)" fill="none" opacity="1" stroke="#e60000" stroke-linecap="square" stroke-linejoin="bevel" stroke-opacity="1" stroke-width="1" transform="matrix(0.651042,0,0,0.651042,43.3333,23.3333)"><text fill="#e60000" fill-opacity="1" font-family="Liberation Sans" font-size="40" font-style="normal" font-weight="400" stroke="none" textLength="27" x="0" xml:space="preserve" y="17.9219">A</text></g><defs><clipPath id="clip159"><path d="M-10,-2 L50,-2 L50,30 L-10,30 L-10,-2 z"/></clipPath></defs><g clip-path="url(#clip159)" fill="none" opacity="1" stroke="none" stroke-opacity="0" transform="matrix(3.33333,0,0,3.33333,33.3333,6.66667)"><path d="M0,0 L40,0 L40,28 L0,28 L0,0 z" fill-rule="evenodd" vector-effect="none"/></g></g></svg>
