<?xml version="1.0" encoding="UTF-8"?><svg width="52.9167mm" height="49.2125mm" viewBox="0 0 200 186" xmlns="http://www.w3.org/2000/svg" xmlns:xlink="http://www.w3.org/1999/xlink"><g fill="none" stroke="black" stroke-width="1" fill-rule="evenodd" stroke-linecap="square" stroke-linejoin="bevel"><g clip-path="none" fill="none" opacity="1" stroke="none" stroke-opacity="0" transform="matrix(1,0,0,1,0,0)"><path d="M0,0 L200,0 L200,186 L0,186 L0,0 z" fill-rule="evenodd" vector-effect="none"/></g><defs><clipPath id="clip6"><path d="M0,0 L10,0 L10,10 L0,10 L0,0 z"/></clipPath></defs><g clip-path="url(#clip6)" fill="#b3b3b3" fill-opacity="1" opacity="1" stroke="none" stroke-opacity="0" transform="matrix(-4.89843e-16,2.66667,-2.66667,-4.89843e-16,157.333,160)"><path d="M0.5,3.5 L3.5,3.5 L3.5,6.5 L0.5,6.5 L0.5,3.5 z" fill-rule="evenodd" vector-effect="none"/></g><defs><clipPath id="clip8"><path d="M0,0 L10,0 L10,10 L0,10 L0,0 z"/></clipPath></defs><g clip-path="url(#clip8)" fill="#000000" fill-opacity="1" opacity="1" stroke="none" stroke-opacity="0" transform="matrix(-4.89843e-16,2.66667,-2.66667,-4.89843e-16,157.333,160)"><path d="M3,4 L3,6 L1,6 L1,4 L3,4 M4,3 L0,3 L0,7 L4,7 L4,3" fill-rule="nonzero" vector-effect="none"/></g><defs><clipPath id="clip28"><path d="M0,0 L10,0 L10,10 L0,10 L0,0 z"/></clipPath></defs><g clip-path="url(#clip28)" fill="#b3b3b3" fill-opacity="1" opacity="1" stroke="none" stroke-opacity="0" transform="matrix(-4.89843e-16,2.66667,-2.66667,-4.89843e-16,64,160)"><path d="M0.5,3.5 L3.5,3.5 L3.5,6.5 L0.5,6.5 L0.5,3.5 z" fill-rule="evenodd" vector-effect="none"/></g><defs><clipPath id="clip30"><path d="M0,0 L10,0 L10,10 L0,10 L0,0 z"/></clipPath></defs><g clip-path="url(#clip30)" fill="#000000" fill-opacity="1" opacity="1" stroke="none" stroke-opacity="0" transform="matrix(-4.89843e-16,2.66667,-2.66667,-4.89843e-16,64,160)"><path d="M3,4 L3,6 L1,6 L1,4 L3,4 M4,3 L0,3 L0,7 L4,7 L4,3" fill-rule="nonzero" vector-effect="none"/></g><defs><clipPath id="clip50"><path d="M0,0 L10,0 L10,10 L0,10 L0,0 z"/></clipPath></defs><g clip-path="url(#clip50)" fill="#b3b3b3" fill-opacity="1" opacity="1" stroke="none" stroke-opacity="0" transform="matrix(1.63281e-16,-2.66667,2.66667,1.63281e-16,136,26.6667)"><path d="M0.5,3.5 L3.5,3.5 L3.5,6.5 L0.5,6.5 L0.5,3.5 z" fill-rule="evenodd" vector-effect="none"/></g><defs><clipPath id="clip52"><path d="M0,0 L10,0 L10,10 L0,10 L0,0 z"/></clipPath></defs><g clip-path="url(#clip52)" fill="#000000" fill-opacity="1" opacity="1" stroke="none" stroke-opacity="0" transform="matrix(1.63281e-16,-2.66667,2.66667,1.63281e-16,136,26.6667)"><path d="M3,4 L3,6 L1,6 L1,4 L3,4 M4,3 L0,3 L0,7 L4,7 L4,3" fill-rule="nonzero" vector-effect="none"/></g><defs><clipPath id="clip72"><path d="M0,0 L10,0 L10,10 L0,10 L0,0 z"/></clipPath></defs><g clip-path="url(#clip72)" fill="#b3b3b3" fill-opacity="1" opacity="1" stroke="none" stroke-opacity="0" transform="matrix(1.63281e-16,-2.66667,2.66667,1.63281e-16,42.6667,26.6667)"><path d="M0.5,3.5 L3.5,3.5 L3.5,6.5 L0.5,6.5 L0.5,3.5 z" fill-rule="evenodd" vector-effect="none"/></g><defs><clipPath id="clip74"><path d="M0,0 L10,0 L10,10 L0,10 L0,0 z"/></clipPath></defs><g clip-path="url(#clip74)" fill="#000000" fill-opacity="1" opacity="1" stroke="none" stroke-opacity="0" transform="matrix(1.63281e-16,-2.66667,2.66667,1.63281e-16,42.6667,26.6667)"><path d="M3,4 L3,6 L1,6 L1,4 L3,4 M4,3 L0,3 L0,7 L4,7 L4,3" fill-rule="nonzero" vector-effect="none"/></g><defs><clipPath id="clip91"><path d="M-2,-10 L73,-10 L73,60 L-2,60 L-2,-10 z"/></clipPath></defs><g clip-path="url(#clip91)" fill="#ffffff" fill-opacity="1" opacity="1" stroke="none" stroke-opacity="0" transform="matrix(2.66667,0,0,2.66667,5.33333,26.6667)"><path d="M0,0 L71,0 L71,50 L0,50 L0,0 z" fill-rule="evenodd" vector-effect="none"/></g><defs><clipPath id="clip95"><path d="M0,0 L71,0 L71,50 L0,50 L0,0 z"/></clipPath></defs><g clip-path="url(#clip95)" fill="none" opacity="1" stroke="none" stroke-opacity="0" transform="matrix(2.66667,0,0,2.66667,5.33333,26.6667)"><path d="M0,0 L71,0 L71,50 L0,50 L0,0 z" fill-rule="evenodd" vector-effect="none"/></g><defs><clipPath id="clip105"><path d="M1,1 L51,1 L51,72 L1,72 L1,1 z"/></clipPath></defs><g clip-path="url(#clip105)" fill="none" opacity="1" stroke="#ffffff" stroke-linecap="butt" stroke-linejoin="miter" stroke-miterlimit="20" stroke-opacity="1" stroke-width="2.6975" transform="matrix(4.89843e-16,2.66667,2.66667,-4.89843e-16,2.66667,24)"><path d="M2.13122,1 L50.9999,1 L50.9999,72.0001 L2.13122,72.0001 L2.13122,1 z" fill-rule="nonzero" vector-effect="none"/></g><defs><clipPath id="clip106"><path d="M1,1 L51,1 L51,72 L1,72 L1,1 z"/></clipPath></defs><g clip-path="url(#clip106)" fill="none" opacity="1" stroke="#35d461" stroke-linecap="butt" stroke-linejoin="miter" stroke-miterlimit="20" stroke-opacity="1" stroke-width="2.6975" transform="matrix(4.89843e-16,2.66667,2.66667,-4.89843e-16,2.66667,24)"><path d="M14.4389,54.2501 L0.999999,54.2501" fill-rule="nonzero" vector-effect="none"/></g><defs><clipPath id="clip107"><path d="M1,1 L51,1 L51,72 L1,72 L1,1 z"/></clipPath></defs><g clip-path="url(#clip107)" fill="none" opacity="1" stroke="#35d461" stroke-linecap="butt" stroke-linejoin="miter" stroke-miterlimit="20" stroke-opacity="1" stroke-width="2.6975" transform="matrix(4.89843e-16,2.66667,2.66667,-4.89843e-16,2.66667,24)"><path d="M31.5429,54.2501 L49.8687,54.2501" fill-rule="nonzero" vector-effect="none"/></g><defs><clipPath id="clip108"><path d="M1,1 L51,1 L51,72 L1,72 L1,1 z"/></clipPath></defs><g clip-path="url(#clip108)" fill="none" opacity="1" stroke="#8368aa" stroke-linecap="butt" stroke-linejoin="miter" stroke-miterlimit="20" stroke-opacity="1" stroke-width="2.6975" transform="matrix(4.89843e-16,2.66667,2.66667,-4.89843e-16,2.66667,24)"><path d="M15.5701,18.75 L2.13122,18.75" fill-rule="nonzero" vector-effect="none"/></g><defs><clipPath id="clip109"><path d="M1,1 L51,1 L51,72 L1,72 L1,1 z"/></clipPath></defs><g clip-path="url(#clip109)" fill="none" opacity="1" stroke="#8368aa" stroke-linecap="butt" stroke-linejoin="miter" stroke-miterlimit="20" stroke-opacity="1" stroke-width="2.6975" transform="matrix(4.89843e-16,2.66667,2.66667,-4.89843e-16,2.66667,24)"><path d="M37.561,18.75 L50.9999,18.75" fill-rule="nonzero" vector-effect="none"/></g><defs><clipPath id="clip110"><path d="M1,1 L51,1 L51,72 L1,72 L1,1 z"/></clipPath></defs><g clip-path="url(#clip110)" fill="none" opacity="1" stroke="#8368aa" stroke-linecap="butt" stroke-linejoin="miter" stroke-miterlimit="20" stroke-opacity="1" stroke-width="2.6975" transform="matrix(4.89843e-16,2.66667,2.66667,-4.89843e-16,2.66667,24)"><path d="M16.7918,15.2 L16.7918,22.3 L22.9004,18.75 L16.7918,15.2 z" fill-rule="nonzero" vector-effect="none"/></g><defs><clipPath id="clip111"><path d="M1,1 L51,1 L51,72 L1,72 L1,1 z"/></clipPath></defs><g clip-path="url(#clip111)" fill="none" opacity="1" stroke="#8368aa" stroke-linecap="butt" stroke-linejoin="miter" stroke-miterlimit="20" stroke-opacity="1" stroke-width="2.6975" transform="matrix(4.89843e-16,2.66667,2.66667,-4.89843e-16,2.66667,24)"><path d="M36.3393,15.7917 L36.3393,22.8917 L30.2307,19.3417 L36.3393,15.7917 z" fill-rule="nonzero" vector-effect="none"/></g><defs><clipPath id="clip112"><path d="M1,1 L51,1 L51,72 L1,72 L1,1 z"/></clipPath></defs><g clip-path="url(#clip112)" fill="none" opacity="1" stroke="#8368aa" stroke-linecap="butt" stroke-linejoin="miter" stroke-miterlimit="4" stroke-opacity="1" stroke-width="2.6975" transform="matrix(4.89843e-16,2.66667,2.66667,-4.89843e-16,2.66667,24)"><path d="M37.561,18.75 C37.561,24.6319 32.6382,29.4 26.5656,29.4 C20.4929,29.4 15.5701,24.6319 15.5701,18.75 C15.5701,12.8682 20.4929,8.10001 26.5656,8.10001 C32.6382,8.10001 37.561,12.8682 37.561,18.75 z" fill-rule="nonzero" vector-effect="none"/></g><defs><clipPath id="clip113"><path d="M1,1 L51,1 L51,72 L1,72 L1,1 z"/></clipPath></defs><g clip-path="url(#clip113)" fill="none" opacity="1" stroke="#35d461" stroke-linecap="butt" stroke-linejoin="miter" stroke-miterlimit="20" stroke-opacity="1" stroke-width="1" transform="matrix(4.89843e-16,2.66667,2.66667,-4.89843e-16,2.66667,24)"><path d="M22.9909,50.7001 L19.3258,54.2501 L22.9909,57.8001" fill-rule="nonzero" vector-effect="none"/></g><defs><clipPath id="clip114"><path d="M1,1 L51,1 L51,72 L1,72 L1,1 z"/></clipPath></defs><g clip-path="url(#clip114)" fill="none" opacity="1" stroke="#35d461" stroke-linecap="butt" stroke-linejoin="miter" stroke-miterlimit="20" stroke-opacity="1" stroke-width="1" transform="matrix(4.89843e-16,2.66667,2.66667,-4.89843e-16,2.66667,24)"><path d="M22.9909,48.3334 L16.8823,54.2501 L22.9909,60.1667" fill-rule="nonzero" vector-effect="none"/></g><defs><clipPath id="clip115"><path d="M1,1 L51,1 L51,72 L1,72 L1,1 z"/></clipPath></defs><g clip-path="url(#clip115)" fill="none" opacity="1" stroke="#35d461" stroke-linecap="butt" stroke-linejoin="miter" stroke-miterlimit="20" stroke-opacity="1" stroke-width="1" transform="matrix(4.89843e-16,2.66667,2.66667,-4.89843e-16,2.66667,24)"><path d="M29.7104,54.2501 L19.3258,54.2501" fill-rule="nonzero" vector-effect="none"/></g><defs><clipPath id="clip116"><path d="M1,1 L51,1 L51,72 L1,72 L1,1 z"/></clipPath></defs><g clip-path="url(#clip116)" fill="none" opacity="1" stroke="#35d461" stroke-linecap="butt" stroke-linejoin="miter" stroke-miterlimit="20" stroke-opacity="1" stroke-width="2.6975" transform="matrix(4.89843e-16,2.66667,2.66667,-4.89843e-16,2.66667,24)"><path d="M19.3258,45.375 C19.3258,45.375 19.3218,45.3803 19.2619,45.4625 C19.2021,45.5449 19.0871,45.7029 18.9058,45.9558 C18.7245,46.2084 18.4775,46.5549 18.1822,46.9765 C17.8869,47.3983 17.5441,47.8942 17.1878,48.4259 C16.8314,48.9575 16.4624,49.5235 16.1193,50.081 C15.7763,50.6385 15.4602,51.1863 15.2025,51.6934 C14.9448,52.2003 14.7463,52.6655 14.6196,53.0858 C14.493,53.5059 14.4389,53.8802 14.4389,54.2501 C14.4389,54.62 14.493,54.9942 14.6196,55.4143 C14.7463,55.8346 14.9448,56.2999 15.2025,56.8067 C15.4602,57.3138 15.7763,57.8616 16.1193,58.4191 C16.4624,58.9766 16.8314,59.5426 17.1878,60.0743 C17.5441,60.6059 17.8869,61.1018 18.1822,61.5236 C18.4775,61.9452 18.7244,62.2917 18.9058,62.5443 C19.0871,62.7972 19.2021,62.9552 19.2619,63.0376 C19.3218,63.1198 19.3258,63.1251 19.3258,63.1251" fill-rule="nonzero" vector-effect="none"/></g><defs><clipPath id="clip117"><path d="M1,1 L51,1 L51,72 L1,72 L1,1 z"/></clipPath></defs><g clip-path="url(#clip117)" fill="none" opacity="1" stroke="#35d461" stroke-linecap="butt" stroke-linejoin="miter" stroke-miterlimit="20" stroke-opacity="1" stroke-width="2.6975" transform="matrix(4.89843e-16,2.66667,2.66667,-4.89843e-16,2.66667,24)"><path d="M19.3258,45.375 L31.5429,45.375 L31.5429,63.1251 L19.3258,63.1251" fill-rule="nonzero" vector-effect="none"/></g><defs><clipPath id="clip118"><path d="M1,1 L51,1 L51,72 L1,72 L1,1 z"/></clipPath></defs><g clip-path="url(#clip118)" fill="none" opacity="1" stroke="#000000" stroke-linecap="butt" stroke-linejoin="miter" stroke-miterlimit="20" stroke-opacity="1" stroke-width="2.6975" transform="matrix(4.89843e-16,2.66667,2.66667,-4.89843e-16,2.66667,24)"><path d="M25.3439,29.4 L25.3439,45.375" fill-rule="nonzero" vector-effect="none"/></g><defs><clipPath id="clip119"><path d="M1,1 L51,1 L51,72 L1,72 L1,1 z"/></clipPath></defs><g clip-path="url(#clip119)" fill="none" opacity="1" stroke="#000000" stroke-linecap="butt" stroke-linejoin="miter" stroke-miterlimit="20" stroke-opacity="1" stroke-width="2.6975" transform="matrix(4.89843e-16,2.66667,2.66667,-4.89843e-16,2.66667,24)"><path d="M26.6561,29.4 L26.6561,45.375" fill-rule="nonzero" vector-effect="none"/></g><defs><clipPath id="clip136"><path d="M-15,-271 L241,-271 L241,92 L-15,92 L-15,-271 z"/></clipPath></defs><g clip-path="url(#clip136)" fill="none" opacity="1" stroke="#e60000" stroke-linecap="square" stroke-linejoin="bevel" stroke-opacity="1" stroke-width="1" transform="matrix(0,-0.520833,0.520833,0,146.667,152)"><text fill="#e60000" fill-opacity="1" font-family="Liberation Sans" font-size="40" font-style="normal" font-weight="400" stroke="none" textLength="29" x="0" xml:space="preserve" y="17.9219">C</text></g><defs><clipPath id="clip139"><path d="M-241,-271 L15,-271 L15,92 L-241,92 L-241,-271 z"/></clipPath></defs><g clip-path="url(#clip139)" fill="none" opacity="1" stroke="#e60000" stroke-linecap="square" stroke-linejoin="bevel" stroke-opacity="1" stroke-width="1" transform="matrix(0,-0.520833,0.520833,0,146.667,34.6667)"><text fill="#e60000" fill-opacity="1" font-family="Liberation Sans" font-size="40" font-style="normal" font-weight="400" stroke="none" textLength="29" x="-36.9531" xml:space="preserve" y="17.9219">R</text></g><defs><clipPath id="clip142"><path d="M-15,-92 L241,-92 L241,271 L-15,271 L-15,-92 z"/></clipPath></defs><g clip-path="url(#clip142)" fill="none" opacity="1" stroke="#e60000" stroke-linecap="square" stroke-linejoin="bevel" stroke-opacity="1" stroke-width="1" transform="matrix(0,-0.520833,0.520833,0,53.3333,152)"><text fill="#e60000" fill-opacity="1" font-family="Liberation Sans" font-size="40" font-style="normal" font-weight="400" stroke="none" textLength="27" x="0" xml:space="preserve" y="17.9219">B</text></g><defs><clipPath id="clip145"><path d="M-241,-92 L15,-92 L15,271 L-241,271 L-241,-92 z"/></clipPath></defs><g clip-path="url(#clip145)" fill="none" opacity="1" stroke="#e60000" stroke-linecap="square" stroke-linejoin="bevel" stroke-opacity="1" stroke-width="1" transform="matrix(0,-0.520833,0.520833,0,53.3333,34.6667)"><text fill="#e60000" fill-opacity="1" font-family="Liberation Sans" font-size="40" font-style="normal" font-weight="400" stroke="none" textLength="27" x="-34.125" xml:space="preserve" y="17.9219">A</text></g><defs><clipPath id="clip151"><path d="M-2,-10 L73,-10 L73,60 L-2,60 L-2,-10 z"/></clipPath></defs><g clip-path="url(#clip151)" fill="none" opacity="1" stroke="none" stroke-opacity="0" transform="matrix(2.66667,0,0,2.66667,5.33333,26.6667)"><path d="M0,0 L71,0 L71,50 L0,50 L0,0 z" fill-rule="evenodd" vector-effect="none"/></g></g></svg>
