<?xml version="1.0" encoding="UTF-8"?><svg width="38.6292mm" height="52.9167mm" viewBox="0 0 146 200" xmlns="http://www.w3.org/2000/svg" xmlns:xlink="http://www.w3.org/1999/xlink"><g fill="none" stroke="black" stroke-width="1" fill-rule="evenodd" stroke-linecap="square" stroke-linejoin="bevel"><g clip-path="none" fill="none" opacity="1" stroke="none" stroke-opacity="0" transform="matrix(1,0,0,1,0,0)"><path d="M0,0 L146,0 L146,200 L0,200 L0,0 z" fill-rule="evenodd" vector-effect="none"/></g><defs><clipPath id="clip6"><path d="M0,0 L10,0 L10,10 L0,10 L0,0 z"/></clipPath></defs><g clip-path="url(#clip6)" fill="#b3b3b3" fill-opacity="1" opacity="1" stroke="none" stroke-opacity="0" transform="matrix(-6.12303e-16,3.33333,-3.33333,-6.12303e-16,86.6667,166.667)"><path d="M0.5,3.5 L3.5,3.5 L3.5,6.5 L0.5,6.5 L0.5,3.5 z" fill-rule="evenodd" vector-effect="none"/></g><defs><clipPath id="clip8"><path d="M0,0 L10,0 L10,10 L0,10 L0,0 z"/></clipPath></defs><g clip-path="url(#clip8)" fill="#000000" fill-opacity="1" opacity="1" stroke="none" stroke-opacity="0" transform="matrix(-6.12303e-16,3.33333,-3.33333,-6.12303e-16,86.6667,166.667)"><path d="M3,4 L3,6 L1,6 L1,4 L3,4 M4,3 L0,3 L0,7 L4,7 L4,3" fill-rule="nonzero" vector-effect="none"/></g><defs><clipPath id="clip28"><path d="M0,0 L10,0 L10,10 L0,10 L0,0 z"/></clipPath></defs><g clip-path="url(#clip28)" fill="#b3b3b3" fill-opacity="1" opacity="1" stroke="none" stroke-opacity="0" transform="matrix(2.04101e-16,-3.33333,3.33333,2.04101e-16,60,33.3333)"><path d="M0.5,3.5 L3.5,3.5 L3.5,6.5 L0.5,6.5 L0.5,3.5 z" fill-rule="evenodd" vector-effect="none"/></g><defs><clipPath id="clip30"><path d="M0,0 L10,0 L10,10 L0,10 L0,0 z"/></clipPath></defs><g clip-path="url(#clip30)" fill="#000000" fill-opacity="1" opacity="1" stroke="none" stroke-opacity="0" transform="matrix(2.04101e-16,-3.33333,3.33333,2.04101e-16,60,33.3333)"><path d="M3,4 L3,6 L1,6 L1,4 L3,4 M4,3 L0,3 L0,7 L4,7 L4,3" fill-rule="nonzero" vector-effect="none"/></g><defs><clipPath id="clip47"><path d="M-2,-10 L42,-10 L42,50 L-2,50 L-2,-10 z"/></clipPath></defs><g clip-path="url(#clip47)" fill="#ffffff" fill-opacity="1" opacity="1" stroke="none" stroke-opacity="0" transform="matrix(3.33333,0,0,3.33333,6.66667,33.3333)"><path d="M0,0 L40,0 L40,40 L0,40 L0,0 z" fill-rule="evenodd" vector-effect="none"/></g><defs><clipPath id="clip51"><path d="M0,0 L40,0 L40,40 L0,40 L0,0 z"/></clipPath></defs><g clip-path="url(#clip51)" fill="none" opacity="1" stroke="none" stroke-opacity="0" transform="matrix(3.33333,0,0,3.33333,6.66667,33.3333)"><path d="M0,0 L40,0 L40,40 L0,40 L0,0 z" fill-rule="evenodd" vector-effect="none"/></g><defs><clipPath id="clip61"><path d="M1,1 L41,1 L41,41 L1,41 L1,1 z"/></clipPath></defs><g clip-path="url(#clip61)" fill="none" opacity="1" stroke="#8368aa" stroke-linecap="butt" stroke-linejoin="miter" stroke-miterlimit="20" stroke-opacity="1" stroke-width="2.3725" transform="matrix(6.12303e-16,3.33333,3.33333,-6.12303e-16,3.33333,30)"><path d="M32.8368,21 L40.796,21" fill-rule="nonzero" vector-effect="none"/></g><defs><clipPath id="clip62"><path d="M1,1 L41,1 L41,41 L1,41 L1,1 z"/></clipPath></defs><g clip-path="url(#clip62)" fill="none" opacity="1" stroke="#8368aa" stroke-linecap="butt" stroke-linejoin="miter" stroke-miterlimit="20" stroke-opacity="1" stroke-width="2.3725" transform="matrix(6.12303e-16,3.33333,3.33333,-6.12303e-16,3.33333,30)"><path d="M10.4898,21 L1,21" fill-rule="nonzero" vector-effect="none"/></g><defs><clipPath id="clip63"><path d="M1,1 L41,1 L41,41 L1,41 L1,1 z"/></clipPath></defs><g clip-path="url(#clip63)" fill="none" opacity="1" stroke="#8368aa" stroke-linecap="butt" stroke-linejoin="miter" stroke-miterlimit="20" stroke-opacity="1" stroke-width="2.3725" transform="matrix(6.12303e-16,3.33333,3.33333,-6.12303e-16,3.33333,30)"><path d="M10.4762,20.9111 L16.3674,16.5852 L16.3674,25.2371 L10.5783,20.8074 L10.4762,20.9111 z" fill-rule="nonzero" vector-effect="none"/></g><defs><clipPath id="clip64"><path d="M1,1 L41,1 L41,41 L1,41 L1,1 z"/></clipPath></defs><g clip-path="url(#clip64)" fill="none" opacity="1" stroke="#8368aa" stroke-linecap="butt" stroke-linejoin="miter" stroke-miterlimit="4" stroke-opacity="1" stroke-width="2.3725" transform="matrix(6.12303e-16,3.33333,3.33333,-6.12303e-16,3.33333,30)"><path d="M32.7144,20.9111 C32.7144,27.5549 27.7682,32.9408 21.6667,32.9408 C15.5653,32.9408 10.6191,27.5549 10.6191,20.9111 C10.6191,14.2674 15.5653,8.8815 21.6667,8.8815 C27.7682,8.8815 32.7144,14.2674 32.7144,20.9111 z" fill-rule="nonzero" vector-effect="none"/></g><defs><clipPath id="clip65"><path d="M1,1 L41,1 L41,41 L1,41 L1,1 z"/></clipPath></defs><g clip-path="url(#clip65)" fill="none" opacity="1" stroke="#ffffff" stroke-linecap="butt" stroke-linejoin="miter" stroke-miterlimit="20" stroke-opacity="1" stroke-width="2.3725" transform="matrix(6.12303e-16,3.33333,3.33333,-6.12303e-16,3.33333,30)"><path d="M1,1 L41.0001,1 L41.0001,41.0001 L1,41.0001 L1,1 z" fill-rule="nonzero" vector-effect="none"/></g><defs><clipPath id="clip82"><path d="M-189,-102 L15,-102 L15,102 L-189,102 L-189,-102 z"/></clipPath></defs><g clip-path="url(#clip82)" fill="none" opacity="1" stroke="#e60000" stroke-linecap="square" stroke-linejoin="bevel" stroke-opacity="1" stroke-width="1" transform="matrix(0,-0.651042,0.651042,0,73.3333,43.3333)"><text fill="#e60000" fill-opacity="1" font-family="Liberation Sans" font-size="40" font-style="normal" font-weight="400" stroke="none" textLength="27" x="-34.125" xml:space="preserve" y="17.9219">B</text></g><defs><clipPath id="clip85"><path d="M-15,-102 L189,-102 L189,102 L-15,102 L-15,-102 z"/></clipPath></defs><g clip-path="url(#clip85)" fill="none" opacity="1" stroke="#e60000" stroke-linecap="square" stroke-linejoin="bevel" stroke-opacity="1" stroke-width="1" transform="matrix(0,-0.651042,0.651042,0,73.3333,156.667)"><text fill="#e60000" fill-opacity="1" font-family="Liberation Sans" font-size="40" font-style="normal" font-weight="400" stroke="none" textLength="27" x="0" xml:space="preserve" y="17.9219">A</text></g><defs><clipPath id="clip91"><path d="M-2,-10 L42,-10 L42,50 L-2,50 L-2,-10 z"/></clipPath></defs><g clip-path="url(#clip91)" fill="none" opacity="1" stroke="none" stroke-opacity="0" transform="matrix(3.33333,0,0,3.33333,6.66667,33.3333)"><path d="M0,0 L40,0 L40,40 L0,40 L0,0 z" fill-rule="evenodd" vector-effect="none"/></g></g></svg>
