<?xml version="1.0" encoding="UTF-8"?><svg width="39.9521mm" height="52.9167mm" viewBox="0 0 151 200" xmlns="http://www.w3.org/2000/svg" xmlns:xlink="http://www.w3.org/1999/xlink"><g fill="none" stroke="black" stroke-width="1" fill-rule="evenodd" stroke-linecap="square" stroke-linejoin="bevel"><g clip-path="none" fill="none" opacity="1" stroke="none" stroke-opacity="0" transform="matrix(1,0,0,1,0,0)"><path d="M0,0 L151,0 L151,200 L0,200 L0,0 z" fill-rule="evenodd" vector-effect="none"/></g><defs><clipPath id="clip6"><path d="M0,0 L10,0 L10,10 L0,10 L0,0 z"/></clipPath></defs><g clip-path="url(#clip6)" fill="#b3b3b3" fill-opacity="1" opacity="1" stroke="none" stroke-opacity="0" transform="matrix(3.30975e-16,-5.40541,5.40541,3.30975e-16,54.0541,54.0541)"><path d="M0.5,3.5 L3.5,3.5 L3.5,6.5 L0.5,6.5 L0.5,3.5 z" fill-rule="evenodd" vector-effect="none"/></g><defs><clipPath id="clip8"><path d="M0,0 L10,0 L10,10 L0,10 L0,0 z"/></clipPath></defs><g clip-path="url(#clip8)" fill="#000000" fill-opacity="1" opacity="1" stroke="none" stroke-opacity="0" transform="matrix(3.30975e-16,-5.40541,5.40541,3.30975e-16,54.0541,54.0541)"><path d="M3,4 L3,6 L1,6 L1,4 L3,4 M4,3 L0,3 L0,7 L4,7 L4,3" fill-rule="nonzero" vector-effect="none"/></g><defs><clipPath id="clip25"><path d="M-2,-10 L26,-10 L26,27 L-2,27 L-2,-10 z"/></clipPath></defs><g clip-path="url(#clip25)" fill="#ffffff" fill-opacity="1" opacity="1" stroke="none" stroke-opacity="0" transform="matrix(5.40541,0,0,5.40541,10.8108,54.0541)"><path d="M0,0 L24,0 L24,25 L0,25 L0,0 z" fill-rule="evenodd" vector-effect="none"/></g><defs><clipPath id="clip29"><path d="M0,0 L24,0 L24,25 L0,25 L0,0 z"/></clipPath></defs><g clip-path="url(#clip29)" fill="none" opacity="1" stroke="none" stroke-opacity="0" transform="matrix(5.40541,0,0,5.40541,10.8108,54.0541)"><path d="M0,0 L24,0 L24,25 L0,25 L0,0 z" fill-rule="evenodd" vector-effect="none"/></g><defs><clipPath id="clip39"><path d="M1,1 L26,1 L26,25 L1,25 L1,1 z"/></clipPath></defs><g clip-path="url(#clip39)" fill="none" opacity="1" stroke="#e9631e" stroke-linecap="butt" stroke-linejoin="miter" stroke-miterlimit="20" stroke-opacity="1" stroke-width="1.365" transform="matrix(9.92924e-16,5.40541,5.40541,-9.92924e-16,5.40541,48.6486)"><path d="M14.8889,1 L12.1111,1" fill-rule="nonzero" vector-effect="none"/></g><defs><clipPath id="clip40"><path d="M1,1 L26,1 L26,25 L1,25 L1,1 z"/></clipPath></defs><g clip-path="url(#clip40)" fill="none" opacity="1" stroke="#e9631e" stroke-linecap="butt" stroke-linejoin="miter" stroke-miterlimit="20" stroke-opacity="1" stroke-width="1.365" transform="matrix(9.92924e-16,5.40541,5.40541,-9.92924e-16,5.40541,48.6486)"><path d="M18.3611,13 L1.00001,13" fill-rule="nonzero" vector-effect="none"/></g><defs><clipPath id="clip41"><path d="M1,1 L26,1 L26,25 L1,25 L1,1 z"/></clipPath></defs><g clip-path="url(#clip41)" fill="none" opacity="1" stroke="#e9631e" stroke-linecap="butt" stroke-linejoin="miter" stroke-miterlimit="4" stroke-opacity="1" stroke-width="1.365" transform="matrix(9.92924e-16,5.40541,5.40541,-9.92924e-16,5.40541,48.6486)"><path d="M15.5834,1 C18.2218,1.20987 20.6929,2.56534 22.4974,4.79269 C24.302,7.02005 25.3056,9.95327 25.3056,13 C25.3056,16.0468 24.302,18.98 22.4974,21.2074 C20.6929,23.4347 18.2218,24.7902 15.5834,25.0001" fill-rule="nonzero" vector-effect="none"/></g><defs><clipPath id="clip42"><path d="M1,1 L26,1 L26,25 L1,25 L1,1 z"/></clipPath></defs><g clip-path="url(#clip42)" fill="none" opacity="1" stroke="#e9631e" stroke-linecap="butt" stroke-linejoin="miter" stroke-miterlimit="4" stroke-opacity="1" stroke-width="1.365" transform="matrix(9.92924e-16,5.40541,5.40541,-9.92924e-16,5.40541,48.6486)"><path d="M15.5834,2.60001 C17.8529,2.80949 19.9706,3.99601 21.5149,5.9233 C23.0592,7.85057 23.9167,10.3772 23.9167,13 C23.9167,15.6229 23.0592,18.1495 21.5149,20.0768 C19.9706,22.0041 17.8529,23.1906 15.5834,23.4001" fill-rule="nonzero" vector-effect="none"/></g><defs><clipPath id="clip43"><path d="M9,9 L106,9 L106,90 L9,90 L9,9 z"/></clipPath></defs><g clip-path="url(#clip43)" fill="#e9631e" fill-opacity="1" opacity="1" stroke="none" stroke-opacity="0" transform="matrix(2.55382e-16,1.39028,1.60161,-2.942e-16,-3.60362,41.5416)"><path d="M71.1,36 L79.2,36 L79.2,63 L71.1,63 L71.1,36 z" fill-rule="nonzero" vector-effect="none"/></g><defs><clipPath id="clip44"><path d="M1,1 L26,1 L26,25 L1,25 L1,1 z"/></clipPath></defs><g clip-path="url(#clip44)" fill="none" opacity="1" stroke="#e9631e" stroke-linecap="butt" stroke-linejoin="miter" stroke-miterlimit="20" stroke-opacity="1" stroke-width="1.365" transform="matrix(9.92924e-16,5.40541,5.40541,-9.92924e-16,5.40541,48.6486)"><path d="M16.9723,9.00002 L19.0556,9.00002 L19.0556,17 L16.9723,17 L16.9723,9.00002 z" fill-rule="nonzero" vector-effect="none"/></g><defs><clipPath id="clip45"><path d="M9,9 L106,9 L106,90 L9,90 L9,9 z"/></clipPath></defs><g clip-path="url(#clip45)" fill="#e9631e" fill-opacity="1" opacity="1" stroke="none" stroke-opacity="0" transform="matrix(2.55382e-16,1.39028,1.60161,-2.942e-16,-3.60362,41.5416)"><path d="M44.1,84.6 L65.7,84.6 L65.7,90 L44.1,90 L44.1,84.6 z" fill-rule="nonzero" vector-effect="none"/></g><defs><clipPath id="clip46"><path d="M1,1 L26,1 L26,25 L1,25 L1,1 z"/></clipPath></defs><g clip-path="url(#clip46)" fill="none" opacity="1" stroke="#e9631e" stroke-linecap="butt" stroke-linejoin="miter" stroke-miterlimit="20" stroke-opacity="1" stroke-width="1.365" transform="matrix(9.92924e-16,5.40541,5.40541,-9.92924e-16,5.40541,48.6486)"><path d="M10.0278,23.4001 L15.5834,23.4001 L15.5834,25.0001 L10.0278,25.0001 L10.0278,23.4001 z" fill-rule="nonzero" vector-effect="none"/></g><defs><clipPath id="clip47"><path d="M9,9 L106,9 L106,90 L9,90 L9,9 z"/></clipPath></defs><g clip-path="url(#clip47)" fill="#e9631e" fill-opacity="1" opacity="1" stroke="none" stroke-opacity="0" transform="matrix(2.55382e-16,1.39028,1.60161,-2.942e-16,-3.60362,41.5416)"><path d="M44.1,9 L65.7,9 L65.7,14.4 L44.1,14.4 L44.1,9 z" fill-rule="nonzero" vector-effect="none"/></g><defs><clipPath id="clip48"><path d="M1,1 L26,1 L26,25 L1,25 L1,1 z"/></clipPath></defs><g clip-path="url(#clip48)" fill="none" opacity="1" stroke="#e9631e" stroke-linecap="butt" stroke-linejoin="miter" stroke-miterlimit="20" stroke-opacity="1" stroke-width="1.365" transform="matrix(9.92924e-16,5.40541,5.40541,-9.92924e-16,5.40541,48.6486)"><path d="M10.0278,1 L15.5834,1 L15.5834,2.60001 L10.0278,2.60001 L10.0278,1 z" fill-rule="nonzero" vector-effect="none"/></g><defs><clipPath id="clip49"><path d="M1,1 L26,1 L26,25 L1,25 L1,1 z"/></clipPath></defs><g clip-path="url(#clip49)" fill="none" opacity="1" stroke="#ffffff" stroke-linecap="butt" stroke-linejoin="miter" stroke-miterlimit="20" stroke-opacity="1" stroke-width="1.365" transform="matrix(9.92924e-16,5.40541,5.40541,-9.92924e-16,5.40541,48.6486)"><path d="M1.00001,1 L26,1 L26,25.0001 L1.00001,25.0001 L1.00001,1 z" fill-rule="nonzero" vector-effect="none"/></g><defs><clipPath id="clip66"><path d="M-113,-61 L15,-61 L15,61 L-113,61 L-113,-61 z"/></clipPath></defs><g clip-path="url(#clip66)" fill="none" opacity="1" stroke="#e60000" stroke-linecap="square" stroke-linejoin="bevel" stroke-opacity="1" stroke-width="1" transform="matrix(0,-1.05574,1.05574,0,75.6757,70.2703)"><text fill="#e60000" fill-opacity="1" font-family="Liberation Sans" font-size="40" font-style="normal" font-weight="400" stroke="none" textLength="29" x="-36.9531" xml:space="preserve" y="17.9219">H</text></g><defs><clipPath id="clip72"><path d="M-2,-10 L26,-10 L26,27 L-2,27 L-2,-10 z"/></clipPath></defs><g clip-path="url(#clip72)" fill="none" opacity="1" stroke="none" stroke-opacity="0" transform="matrix(5.40541,0,0,5.40541,10.8108,54.0541)"><path d="M0,0 L24,0 L24,25 L0,25 L0,0 z" fill-rule="evenodd" vector-effect="none"/></g></g></svg>
