<?xml version="1.0" encoding="UTF-8"?><svg width="52.9167mm" height="28.0458mm" viewBox="0 0 200 106" xmlns="http://www.w3.org/2000/svg" xmlns:xlink="http://www.w3.org/1999/xlink"><g fill="none" stroke="black" stroke-width="1" fill-rule="evenodd" stroke-linecap="square" stroke-linejoin="bevel"><g clip-path="none" fill="none" opacity="1" stroke="none" stroke-opacity="0" transform="matrix(1,0,0,1,0,0)"><path d="M0,0 L200,0 L200,106 L0,106 L0,0 z" fill-rule="evenodd" vector-effect="none"/></g><defs><clipPath id="clip6"><path d="M0,0 L10,0 L10,10 L0,10 L0,0 z"/></clipPath></defs><g clip-path="url(#clip6)" fill="#b3b3b3" fill-opacity="1" opacity="1" stroke="none" stroke-opacity="0" transform="matrix(3.33333,0,0,3.33333,166.667,40)"><path d="M0.5,3.5 L3.5,3.5 L3.5,6.5 L0.5,6.5 L0.5,3.5 z" fill-rule="evenodd" vector-effect="none"/></g><defs><clipPath id="clip8"><path d="M0,0 L10,0 L10,10 L0,10 L0,0 z"/></clipPath></defs><g clip-path="url(#clip8)" fill="#000000" fill-opacity="1" opacity="1" stroke="none" stroke-opacity="0" transform="matrix(3.33333,0,0,3.33333,166.667,40)"><path d="M3,4 L3,6 L1,6 L1,4 L3,4 M4,3 L0,3 L0,7 L4,7 L4,3" fill-rule="nonzero" vector-effect="none"/></g><defs><clipPath id="clip28"><path d="M0,0 L10,0 L10,10 L0,10 L0,0 z"/></clipPath></defs><g clip-path="url(#clip28)" fill="#b3b3b3" fill-opacity="1" opacity="1" stroke="none" stroke-opacity="0" transform="matrix(-3.33333,0,0,3.33333,33.3333,40)"><path d="M0.5,3.5 L3.5,3.5 L3.5,6.5 L0.5,6.5 L0.5,3.5 z" fill-rule="evenodd" vector-effect="none"/></g><defs><clipPath id="clip30"><path d="M0,0 L10,0 L10,10 L0,10 L0,0 z"/></clipPath></defs><g clip-path="url(#clip30)" fill="#000000" fill-opacity="1" opacity="1" stroke="none" stroke-opacity="0" transform="matrix(-3.33333,0,0,3.33333,33.3333,40)"><path d="M3,4 L3,6 L1,6 L1,4 L3,4 M4,3 L0,3 L0,7 L4,7 L4,3" fill-rule="nonzero" vector-effect="none"/></g><defs><clipPath id="clip47"><path d="M-10,-2 L50,-2 L50,30 L-10,30 L-10,-2 z"/></clipPath></defs><g clip-path="url(#clip47)" fill="#ffffff" fill-opacity="1" opacity="1" stroke="none" stroke-opacity="0" transform="matrix(3.33333,0,0,3.33333,33.3333,6.66667)"><path d="M0,0 L40,0 L40,28 L0,28 L0,0 z" fill-rule="evenodd" vector-effect="none"/></g><defs><clipPath id="clip51"><path d="M0,0 L40,0 L40,28 L0,28 L0,0 z"/></clipPath></defs><g clip-path="url(#clip51)" fill="none" opacity="1" stroke="none" stroke-opacity="0" transform="matrix(3.33333,0,0,3.33333,33.3333,6.66667)"><path d="M0,0 L40,0 L40,28 L0,28 L0,0 z" fill-rule="evenodd" vector-effect="none"/></g><defs><clipPath id="clip61"><path d="M1,1 L41,1 L41,29 L1,29 L1,1 z"/></clipPath></defs><g clip-path="url(#clip61)" fill="none" opacity="1" stroke="#e9631e" stroke-linecap="butt" stroke-linejoin="miter" stroke-miterlimit="20" stroke-opacity="1" stroke-width="0.9425" transform="matrix(3.33333,0,0,3.33333,30,3.33333)"><path d="M14.3334,11.6939 L27.6667,11.6939" fill-rule="nonzero" vector-effect="none"/></g><defs><clipPath id="clip62"><path d="M1,1 L41,1 L41,29 L1,29 L1,1 z"/></clipPath></defs><g clip-path="url(#clip62)" fill="none" opacity="1" stroke="#e9631e" stroke-linecap="butt" stroke-linejoin="miter" stroke-miterlimit="20" stroke-opacity="1" stroke-width="0.9425" transform="matrix(3.33333,0,0,3.33333,30,3.33333)"><path d="M14.3334,18.3923 L27.6667,18.3923" fill-rule="nonzero" vector-effect="none"/></g><defs><clipPath id="clip63"><path d="M1,1 L41,1 L41,29 L1,29 L1,1 z"/></clipPath></defs><g clip-path="url(#clip63)" fill="none" opacity="1" stroke="#e9631e" stroke-linecap="butt" stroke-linejoin="miter" stroke-miterlimit="20" stroke-opacity="1" stroke-width="0.9425" transform="matrix(3.33333,0,0,3.33333,30,3.33333)"><path d="M1,14.8669 L9.66668,14.8669" fill-rule="nonzero" vector-effect="none"/></g><defs><clipPath id="clip64"><path d="M1,1 L41,1 L41,29 L1,29 L1,1 z"/></clipPath></defs><g clip-path="url(#clip64)" fill="none" opacity="1" stroke="#e9631e" stroke-linecap="butt" stroke-linejoin="miter" stroke-miterlimit="20" stroke-opacity="1" stroke-width="0.9425" transform="matrix(3.33333,0,0,3.33333,30,3.33333)"><path d="M32.6667,14.8669 L41.0001,14.8669" fill-rule="nonzero" vector-effect="none"/></g><defs><clipPath id="clip65"><path d="M9,2 L333,2 L333,216 L9,216 L9,2 z"/></clipPath></defs><g clip-path="url(#clip65)" fill="#e9631e" fill-opacity="1" opacity="1" stroke="none" stroke-opacity="0" transform="matrix(0.411523,0,0,0.435243,29.6296,5.88323)"><path d="M225,83.7 L184.5,72.9 L184.5,91.8 L222.3,83.7 L225,83.7 z" fill-rule="nonzero" vector-effect="none"/></g><defs><clipPath id="clip66"><path d="M1,1 L41,1 L41,29 L1,29 L1,1 z"/></clipPath></defs><g clip-path="url(#clip66)" fill="none" opacity="1" stroke="#e9631e" stroke-linecap="butt" stroke-linejoin="miter" stroke-miterlimit="20" stroke-opacity="1" stroke-width="0.9425" transform="matrix(3.33333,0,0,3.33333,30,3.33333)"><path d="M27.6667,11.6939 L22.6667,10.2837 L22.6667,12.7516 L27.3334,11.6939 L27.6667,11.6939 z" fill-rule="nonzero" vector-effect="none"/></g><defs><clipPath id="clip67"><path d="M9,2 L333,2 L333,216 L9,216 L9,2 z"/></clipPath></defs><g clip-path="url(#clip67)" fill="#e9631e" fill-opacity="1" opacity="1" stroke="none" stroke-opacity="0" transform="matrix(0.411523,0,0,0.435243,29.6296,5.88323)"><path d="M225,135 L184.5,124.2 L184.5,143.1 L222.3,135 L225,135 z" fill-rule="nonzero" vector-effect="none"/></g><defs><clipPath id="clip68"><path d="M1,1 L41,1 L41,29 L1,29 L1,1 z"/></clipPath></defs><g clip-path="url(#clip68)" fill="none" opacity="1" stroke="#e9631e" stroke-linecap="butt" stroke-linejoin="miter" stroke-miterlimit="20" stroke-opacity="1" stroke-width="0.9425" transform="matrix(3.33333,0,0,3.33333,30,3.33333)"><path d="M27.6667,18.3923 L22.6667,16.9821 L22.6667,19.45 L27.3334,18.3923 L27.6667,18.3923 z" fill-rule="nonzero" vector-effect="none"/></g><defs><clipPath id="clip69"><path d="M1,1 L41,1 L41,29 L1,29 L1,1 z"/></clipPath></defs><g clip-path="url(#clip69)" fill="none" opacity="1" stroke="#e9631e" stroke-linecap="butt" stroke-linejoin="miter" stroke-miterlimit="20" stroke-opacity="1" stroke-width="0.9425" transform="matrix(3.33333,0,0,3.33333,30,3.33333)"><path d="M29.6667,7.81591 L32.6667,7.81591 L32.6667,21.9178 L29.6667,21.9178 L29.6667,7.81591 z" fill-rule="nonzero" vector-effect="none"/></g><defs><clipPath id="clip70"><path d="M1,1 L41,1 L41,29 L1,29 L1,1 z"/></clipPath></defs><g clip-path="url(#clip70)" fill="none" opacity="1" stroke="#e9631e" stroke-linecap="butt" stroke-linejoin="miter" stroke-miterlimit="20" stroke-opacity="1" stroke-width="0.9425" transform="matrix(3.33333,0,0,3.33333,30,3.33333)"><path d="M9.66668,7.81591 L12.6667,7.81591 L12.6667,21.9178 L9.66668,21.9178 L9.66668,7.81591 z" fill-rule="nonzero" vector-effect="none"/></g><defs><clipPath id="clip71"><path d="M1,1 L41,1 L41,29 L1,29 L1,1 z"/></clipPath></defs><g clip-path="url(#clip71)" fill="none" opacity="1" stroke="#ffffff" stroke-linecap="butt" stroke-linejoin="miter" stroke-miterlimit="20" stroke-opacity="1" stroke-width="0.9425" transform="matrix(3.33333,0,0,3.33333,30,3.33333)"><path d="M1,1 L41.0001,1 L41.0001,29.0001 L1,29.0001 L1,1 z" fill-rule="nonzero" vector-effect="none"/></g><defs><clipPath id="clip88"><path d="M-189,-72 L16,-72 L16,71 L-189,71 L-189,-72 z"/></clipPath></defs><g clip-path="url(#clip88)" fill="none" opacity="1" stroke="#e60000" stroke-linecap="square" stroke-linejoin="bevel" stroke-opacity="1" stroke-width="1" transform="matrix(0.651042,0,0,0.651042,156.667,53.3333)"><text fill="#e60000" fill-opacity="1" font-family="Liberation Sans" font-size="40" font-style="normal" font-weight="400" stroke="none" textLength="27" x="-34.125" xml:space="preserve" y="17.9219">B</text></g><defs><clipPath id="clip91"><path d="M-15,-72 L190,-72 L190,71 L-15,71 L-15,-72 z"/></clipPath></defs><g clip-path="url(#clip91)" fill="none" opacity="1" stroke="#e60000" stroke-linecap="square" stroke-linejoin="bevel" stroke-opacity="1" stroke-width="1" transform="matrix(0.651042,0,0,0.651042,43.3333,53.3333)"><text fill="#e60000" fill-opacity="1" font-family="Liberation Sans" font-size="40" font-style="normal" font-weight="400" stroke="none" textLength="27" x="0" xml:space="preserve" y="17.9219">A</text></g><defs><clipPath id="clip97"><path d="M-10,-2 L50,-2 L50,30 L-10,30 L-10,-2 z"/></clipPath></defs><g clip-path="url(#clip97)" fill="none" opacity="1" stroke="none" stroke-opacity="0" transform="matrix(3.33333,0,0,3.33333,33.3333,6.66667)"><path d="M0,0 L40,0 L40,28 L0,28 L0,0 z" fill-rule="evenodd" vector-effect="none"/></g></g></svg>
