<?xml version="1.0" encoding="UTF-8"?><svg width="52.9167mm" height="30.6917mm" viewBox="0 0 200 116" xmlns="http://www.w3.org/2000/svg" xmlns:xlink="http://www.w3.org/1999/xlink"><g fill="none" stroke="black" stroke-width="1" fill-rule="evenodd" stroke-linecap="square" stroke-linejoin="bevel"><g clip-path="none" fill="none" opacity="1" stroke="none" stroke-opacity="0" transform="matrix(1,0,0,1,0,0)"><path d="M0,0 L200,0 L200,116 L0,116 L0,0 z" fill-rule="evenodd" vector-effect="none"/></g><defs><clipPath id="clip6"><path d="M0,0 L10,0 L10,10 L0,10 L0,0 z"/></clipPath></defs><g clip-path="url(#clip6)" fill="#b3b3b3" fill-opacity="1" opacity="1" stroke="none" stroke-opacity="0" transform="matrix(2,0,0,2,180,50)"><path d="M0.5,3.5 L3.5,3.5 L3.5,6.5 L0.5,6.5 L0.5,3.5 z" fill-rule="evenodd" vector-effect="none"/></g><defs><clipPath id="clip8"><path d="M0,0 L10,0 L10,10 L0,10 L0,0 z"/></clipPath></defs><g clip-path="url(#clip8)" fill="#000000" fill-opacity="1" opacity="1" stroke="none" stroke-opacity="0" transform="matrix(2,0,0,2,180,50)"><path d="M3,4 L3,6 L1,6 L1,4 L3,4 M4,3 L0,3 L0,7 L4,7 L4,3" fill-rule="nonzero" vector-effect="none"/></g><defs><clipPath id="clip28"><path d="M0,0 L10,0 L10,10 L0,10 L0,0 z"/></clipPath></defs><g clip-path="url(#clip28)" fill="#b3b3b3" fill-opacity="1" opacity="1" stroke="none" stroke-opacity="0" transform="matrix(-2,0,0,2,20,90)"><path d="M0.5,3.5 L3.5,3.5 L3.5,6.5 L0.5,6.5 L0.5,3.5 z" fill-rule="evenodd" vector-effect="none"/></g><defs><clipPath id="clip30"><path d="M0,0 L10,0 L10,10 L0,10 L0,0 z"/></clipPath></defs><g clip-path="url(#clip30)" fill="#000000" fill-opacity="1" opacity="1" stroke="none" stroke-opacity="0" transform="matrix(-2,0,0,2,20,90)"><path d="M3,4 L3,6 L1,6 L1,4 L3,4 M4,3 L0,3 L0,7 L4,7 L4,3" fill-rule="nonzero" vector-effect="none"/></g><defs><clipPath id="clip50"><path d="M0,0 L10,0 L10,10 L0,10 L0,0 z"/></clipPath></defs><g clip-path="url(#clip50)" fill="#b3b3b3" fill-opacity="1" opacity="1" stroke="none" stroke-opacity="0" transform="matrix(-2,0,0,2,20,50)"><path d="M0.5,3.5 L3.5,3.5 L3.5,6.5 L0.5,6.5 L0.5,3.5 z" fill-rule="evenodd" vector-effect="none"/></g><defs><clipPath id="clip52"><path d="M0,0 L10,0 L10,10 L0,10 L0,0 z"/></clipPath></defs><g clip-path="url(#clip52)" fill="#000000" fill-opacity="1" opacity="1" stroke="none" stroke-opacity="0" transform="matrix(-2,0,0,2,20,50)"><path d="M3,4 L3,6 L1,6 L1,4 L3,4 M4,3 L0,3 L0,7 L4,7 L4,3" fill-rule="nonzero" vector-effect="none"/></g><defs><clipPath id="clip72"><path d="M0,0 L10,0 L10,10 L0,10 L0,0 z"/></clipPath></defs><g clip-path="url(#clip72)" fill="#b3b3b3" fill-opacity="1" opacity="1" stroke="none" stroke-opacity="0" transform="matrix(-2,0,0,2,20,10)"><path d="M0.5,3.5 L3.5,3.5 L3.5,6.5 L0.5,6.5 L0.5,3.5 z" fill-rule="evenodd" vector-effect="none"/></g><defs><clipPath id="clip74"><path d="M0,0 L10,0 L10,10 L0,10 L0,0 z"/></clipPath></defs><g clip-path="url(#clip74)" fill="#000000" fill-opacity="1" opacity="1" stroke="none" stroke-opacity="0" transform="matrix(-2,0,0,2,20,10)"><path d="M3,4 L3,6 L1,6 L1,4 L3,4 M4,3 L0,3 L0,7 L4,7 L4,3" fill-rule="nonzero" vector-effect="none"/></g><defs><clipPath id="clip91"><path d="M-10,-2 L90,-2 L90,56 L-10,56 L-10,-2 z"/></clipPath></defs><g clip-path="url(#clip91)" fill="#ffffff" fill-opacity="1" opacity="1" stroke="none" stroke-opacity="0" transform="matrix(2,0,0,2,20,4)"><path d="M0,0 L80,0 L80,54 L0,54 L0,0 z" fill-rule="evenodd" vector-effect="none"/></g><defs><clipPath id="clip95"><path d="M0,0 L80,0 L80,54 L0,54 L0,0 z"/></clipPath></defs><g clip-path="url(#clip95)" fill="none" opacity="1" stroke="none" stroke-opacity="0" transform="matrix(2,0,0,2,20,4)"><path d="M0,0 L80,0 L80,54 L0,54 L0,0 z" fill-rule="evenodd" vector-effect="none"/></g><defs><clipPath id="clip105"><path d="M0,0 L8031,0 L8031,5669 L0,5669 L0,0 z"/></clipPath></defs><g clip-path="url(#clip105)" fill="#44805c" fill-opacity="1" opacity="0" stroke="none" stroke-opacity="0" transform="matrix(0.0199228,0,0,0.019051,20,4)"><path d="M0,0 L8031,0 L8031,5669 L0,5669 L0,0 z" fill-rule="nonzero" vector-effect="none"/></g><defs><clipPath id="clip106"><path d="M1,1 L81,1 L81,55 L1,55 L1,1 z"/></clipPath></defs><g clip-path="url(#clip106)" fill="none" opacity="1" stroke="#ffffff" stroke-linecap="butt" stroke-linejoin="miter" stroke-miterlimit="4" stroke-opacity="1" stroke-width="1.7875" transform="matrix(2,0,0,2,18,2)"><path d="M1,1 L81,1 L81,55 L1,55 L1,1 z" fill-rule="nonzero" vector-effect="none"/></g><defs><clipPath id="clip107"><path d="M0,0 L8031,0 L8031,5669 L0,5669 L0,0 z"/></clipPath></defs><g clip-path="url(#clip107)" fill="#44805c" fill-opacity="1" opacity="0" stroke="none" stroke-opacity="0" transform="matrix(0.0199228,0,0,0.019051,20,4)"><path d="M3070,1889 L3778,1889 L3778,3778 L3070,3778 L3070,1889 z" fill-rule="nonzero" vector-effect="none"/></g><defs><clipPath id="clip108"><path d="M1,1 L81,1 L81,55 L1,55 L1,1 z"/></clipPath></defs><g clip-path="url(#clip108)" fill="none" opacity="1" stroke="#44805c" stroke-linecap="butt" stroke-linejoin="miter" stroke-miterlimit="4" stroke-opacity="1" stroke-width="1.7875" transform="matrix(2,0,0,2,18,2)"><path d="M31.5815,18.9937 L38.6342,18.9937 L38.6342,36.9873 L31.5815,36.9873 L31.5815,18.9937 z" fill-rule="nonzero" vector-effect="none"/></g><defs><clipPath id="clip109"><path d="M0,0 L8031,0 L8031,5669 L0,5669 L0,0 z"/></clipPath></defs><g clip-path="url(#clip109)" fill="#000000" fill-opacity="1" opacity="0" stroke="none" stroke-opacity="0" transform="matrix(0.0199228,0,0,0.019051,20,4)"><path d="M8031,2834 L6141,2834" fill-rule="nonzero" vector-effect="none"/></g><defs><clipPath id="clip110"><path d="M1,1 L81,1 L81,55 L1,55 L1,1 z"/></clipPath></defs><g clip-path="url(#clip110)" fill="none" opacity="1" stroke="#44805c" stroke-linecap="butt" stroke-linejoin="miter" stroke-miterlimit="4" stroke-opacity="1" stroke-width="1.7875" transform="matrix(2,0,0,2,18,2)"><path d="M81,27.9952 L62.173,27.9952" fill-rule="nonzero" vector-effect="none"/></g><defs><clipPath id="clip111"><path d="M0,0 L8031,0 L8031,5669 L0,5669 L0,0 z"/></clipPath></defs><g clip-path="url(#clip111)" fill="#000000" fill-opacity="1" opacity="0" stroke="none" stroke-opacity="0" transform="matrix(0.0199228,0,0,0.019051,20,4)"><path d="M0,2834 L1889,2834" fill-rule="nonzero" vector-effect="none"/></g><defs><clipPath id="clip112"><path d="M1,1 L81,1 L81,55 L1,55 L1,1 z"/></clipPath></defs><g clip-path="url(#clip112)" fill="none" opacity="1" stroke="#44805c" stroke-linecap="butt" stroke-linejoin="miter" stroke-miterlimit="4" stroke-opacity="1" stroke-width="1.7875" transform="matrix(2,0,0,2,18,2)"><path d="M1,27.9952 L19.8171,27.9952" fill-rule="nonzero" vector-effect="none"/></g><defs><clipPath id="clip113"><path d="M0,0 L8031,0 L8031,5669 L0,5669 L0,0 z"/></clipPath></defs><g clip-path="url(#clip113)" fill="#44805c" fill-opacity="1" opacity="0" stroke="none" stroke-opacity="0" transform="matrix(0.0199228,0,0,0.019051,20,4)"><path d="M3779,2362 L6141,2362 L6141,3306 L3779,3306 L3779,2362 z" fill-rule="nonzero" vector-effect="none"/></g><defs><clipPath id="clip114"><path d="M1,1 L81,1 L81,55 L1,55 L1,1 z"/></clipPath></defs><g clip-path="url(#clip114)" fill="none" opacity="1" stroke="#44805c" stroke-linecap="butt" stroke-linejoin="miter" stroke-miterlimit="4" stroke-opacity="1" stroke-width="1.7875" transform="matrix(2,0,0,2,18,2)"><path d="M38.6441,23.4992 L62.173,23.4992 L62.173,32.4913 L38.6441,32.4913 L38.6441,23.4992 z" fill-rule="nonzero" vector-effect="none"/></g><defs><clipPath id="clip115"><path d="M0,0 L8031,0 L8031,5669 L0,5669 L0,0 z"/></clipPath></defs><g clip-path="url(#clip115)" fill="#000000" fill-opacity="1" opacity="0" stroke="none" stroke-opacity="0" transform="matrix(0.0199228,0,0,0.019051,20,4)"><path d="M5669,3779 L1889,3779 L1889,1889 L5669,1889" fill-rule="nonzero" vector-effect="none"/></g><defs><clipPath id="clip116"><path d="M1,1 L81,1 L81,55 L1,55 L1,1 z"/></clipPath></defs><g clip-path="url(#clip116)" fill="none" opacity="1" stroke="#44805c" stroke-linecap="butt" stroke-linejoin="miter" stroke-miterlimit="4" stroke-opacity="1" stroke-width="1.7875" transform="matrix(2,0,0,2,18,2)"><path d="M57.4712,36.9968 L19.8171,36.9968 L19.8171,18.9937 L57.4712,18.9937" fill-rule="nonzero" vector-effect="none"/></g><defs><clipPath id="clip117"><path d="M0,0 L8031,0 L8031,5669 L0,5669 L0,0 z"/></clipPath></defs><g clip-path="url(#clip117)" fill="#000000" fill-opacity="1" opacity="0" stroke="none" stroke-opacity="0" transform="matrix(0.0199228,0,0,0.019051,20,4)"><path d="M2125,1889 L2125,944 L0,944" fill-rule="nonzero" vector-effect="none"/></g><defs><clipPath id="clip118"><path d="M1,1 L81,1 L81,55 L1,55 L1,1 z"/></clipPath></defs><g clip-path="url(#clip118)" fill="none" opacity="1" stroke="#e6b85c" stroke-linecap="butt" stroke-linejoin="miter" stroke-miterlimit="4" stroke-opacity="1" stroke-width="1.7875" transform="matrix(2,0,0,2,18,2)"><path d="M22.168,18.9937 L22.168,9.99206 L1,9.99206" fill-rule="nonzero" vector-effect="none"/></g><defs><clipPath id="clip119"><path d="M0,0 L8031,0 L8031,5669 L0,5669 L0,0 z"/></clipPath></defs><g clip-path="url(#clip119)" fill="#e9631e" fill-opacity="1" opacity="0" stroke="none" stroke-opacity="0" transform="matrix(0.0199228,0,0,0.019051,20,4)"><path d="M2075,3748 C2007.55,3712.58 1965.3,3642.68 1965.3,3566.5 C1965.3,3490.32 2007.55,3420.42 2075,3385" fill-rule="nonzero" vector-effect="none"/></g><defs><clipPath id="clip120"><path d="M1,1 L81,1 L81,55 L1,55 L1,1 z"/></clipPath></defs><g clip-path="url(#clip120)" fill="none" opacity="1" stroke="#e9631e" stroke-linecap="butt" stroke-linejoin="miter" stroke-miterlimit="4" stroke-opacity="1" stroke-width="1.7875" transform="matrix(2,0,0,2,18,2)"><path d="M21.6699,36.7015 C20.998,36.3642 20.5772,35.6983 20.5772,34.9727 C20.5772,34.247 20.998,33.5812 21.6699,33.2438" fill-rule="nonzero" vector-effect="none"/></g><defs><clipPath id="clip121"><path d="M0,0 L8031,0 L8031,5669 L0,5669 L0,0 z"/></clipPath></defs><g clip-path="url(#clip121)" fill="#e9631e" fill-opacity="1" opacity="0" stroke="none" stroke-opacity="0" transform="matrix(0.0199228,0,0,0.019051,20,4)"><path d="M2075,4110 C2142.53,4074.89 2184.9,4005.11 2184.9,3929 C2184.9,3852.89 2142.53,3783.11 2075,3748" fill-rule="nonzero" vector-effect="none"/></g><defs><clipPath id="clip122"><path d="M1,1 L81,1 L81,55 L1,55 L1,1 z"/></clipPath></defs><g clip-path="url(#clip122)" fill="none" opacity="1" stroke="#e9631e" stroke-linecap="butt" stroke-linejoin="miter" stroke-miterlimit="4" stroke-opacity="1" stroke-width="1.7875" transform="matrix(2,0,0,2,18,2)"><path d="M21.6699,40.1498 C22.3426,39.8153 22.7647,39.1506 22.7647,38.4257 C22.7647,37.7007 22.3426,37.036 21.6699,36.7015" fill-rule="nonzero" vector-effect="none"/></g><defs><clipPath id="clip123"><path d="M0,0 L8031,0 L8031,5669 L0,5669 L0,0 z"/></clipPath></defs><g clip-path="url(#clip123)" fill="#e9631e" fill-opacity="1" opacity="0" stroke="none" stroke-opacity="0" transform="matrix(0.0199228,0,0,0.019051,20,4)"><path d="M2075,3385 C2142.53,3349.89 2184.9,3280.11 2184.9,3204 C2184.9,3127.89 2142.53,3058.11 2075,3023" fill-rule="nonzero" vector-effect="none"/></g><defs><clipPath id="clip124"><path d="M1,1 L81,1 L81,55 L1,55 L1,1 z"/></clipPath></defs><g clip-path="url(#clip124)" fill="none" opacity="1" stroke="#e9631e" stroke-linecap="butt" stroke-linejoin="miter" stroke-miterlimit="4" stroke-opacity="1" stroke-width="1.7875" transform="matrix(2,0,0,2,18,2)"><path d="M21.6699,33.2438 C22.3426,32.9094 22.7647,32.2447 22.7647,31.5197 C22.7647,30.7947 22.3426,30.13 21.6699,29.7956" fill-rule="nonzero" vector-effect="none"/></g><defs><clipPath id="clip125"><path d="M0,0 L8031,0 L8031,5669 L0,5669 L0,0 z"/></clipPath></defs><g clip-path="url(#clip125)" fill="#e9631e" fill-opacity="1" opacity="0" stroke="none" stroke-opacity="0" transform="matrix(0.0199228,0,0,0.019051,20,4)"><path d="M2595,3748 C2527.55,3712.58 2485.3,3642.68 2485.3,3566.5 C2485.3,3490.32 2527.55,3420.42 2595,3385" fill-rule="nonzero" vector-effect="none"/></g><defs><clipPath id="clip126"><path d="M1,1 L81,1 L81,55 L1,55 L1,1 z"/></clipPath></defs><g clip-path="url(#clip126)" fill="none" opacity="1" stroke="#e9631e" stroke-linecap="butt" stroke-linejoin="miter" stroke-miterlimit="4" stroke-opacity="1" stroke-width="1.7875" transform="matrix(2,0,0,2,18,2)"><path d="M26.8498,36.7015 C26.1779,36.3642 25.7571,35.6983 25.7571,34.9727 C25.7571,34.247 26.1779,33.5812 26.8498,33.2438" fill-rule="nonzero" vector-effect="none"/></g><defs><clipPath id="clip127"><path d="M0,0 L8031,0 L8031,5669 L0,5669 L0,0 z"/></clipPath></defs><g clip-path="url(#clip127)" fill="#e9631e" fill-opacity="1" opacity="0" stroke="none" stroke-opacity="0" transform="matrix(0.0199228,0,0,0.019051,20,4)"><path d="M2595,4110 C2662.53,4074.89 2704.9,4005.11 2704.9,3929 C2704.9,3852.89 2662.53,3783.11 2595,3748" fill-rule="nonzero" vector-effect="none"/></g><defs><clipPath id="clip128"><path d="M1,1 L81,1 L81,55 L1,55 L1,1 z"/></clipPath></defs><g clip-path="url(#clip128)" fill="none" opacity="1" stroke="#e9631e" stroke-linecap="butt" stroke-linejoin="miter" stroke-miterlimit="4" stroke-opacity="1" stroke-width="1.7875" transform="matrix(2,0,0,2,18,2)"><path d="M26.8498,40.1498 C27.5225,39.8153 27.9446,39.1506 27.9446,38.4257 C27.9446,37.7007 27.5225,37.036 26.8498,36.7015" fill-rule="nonzero" vector-effect="none"/></g><defs><clipPath id="clip129"><path d="M0,0 L8031,0 L8031,5669 L0,5669 L0,0 z"/></clipPath></defs><g clip-path="url(#clip129)" fill="#e9631e" fill-opacity="1" opacity="0" stroke="none" stroke-opacity="0" transform="matrix(0.0199228,0,0,0.019051,20,4)"><path d="M2595,3385 C2662.53,3349.89 2704.9,3280.11 2704.9,3204 C2704.9,3127.89 2662.53,3058.11 2595,3023" fill-rule="nonzero" vector-effect="none"/></g><defs><clipPath id="clip130"><path d="M1,1 L81,1 L81,55 L1,55 L1,1 z"/></clipPath></defs><g clip-path="url(#clip130)" fill="none" opacity="1" stroke="#e9631e" stroke-linecap="butt" stroke-linejoin="miter" stroke-miterlimit="4" stroke-opacity="1" stroke-width="1.7875" transform="matrix(2,0,0,2,18,2)"><path d="M26.8498,33.2438 C27.5225,32.9094 27.9446,32.2447 27.9446,31.5197 C27.9446,30.7947 27.5225,30.13 26.8498,29.7956" fill-rule="nonzero" vector-effect="none"/></g><defs><clipPath id="clip131"><path d="M0,0 L8031,0 L8031,5669 L0,5669 L0,0 z"/></clipPath></defs><g clip-path="url(#clip131)" fill="#e9631e" fill-opacity="1" opacity="0" stroke="none" stroke-opacity="0" transform="matrix(0.0199228,0,0,0.019051,20,4)"><path d="M3067,3748 C2999.55,3712.58 2957.3,3642.68 2957.3,3566.5 C2957.3,3490.32 2999.55,3420.42 3067,3385" fill-rule="nonzero" vector-effect="none"/></g><defs><clipPath id="clip132"><path d="M1,1 L81,1 L81,55 L1,55 L1,1 z"/></clipPath></defs><g clip-path="url(#clip132)" fill="none" opacity="1" stroke="#e9631e" stroke-linecap="butt" stroke-linejoin="miter" stroke-miterlimit="4" stroke-opacity="1" stroke-width="1.7875" transform="matrix(2,0,0,2,18,2)"><path d="M31.5516,36.7015 C30.8797,36.3642 30.4589,35.6983 30.4589,34.9727 C30.4589,34.247 30.8797,33.5812 31.5516,33.2438" fill-rule="nonzero" vector-effect="none"/></g><defs><clipPath id="clip133"><path d="M0,0 L8031,0 L8031,5669 L0,5669 L0,0 z"/></clipPath></defs><g clip-path="url(#clip133)" fill="#e9631e" fill-opacity="1" opacity="0" stroke="none" stroke-opacity="0" transform="matrix(0.0199228,0,0,0.019051,20,4)"><path d="M3067,4110 C3134.53,4074.89 3176.9,4005.11 3176.9,3929 C3176.9,3852.89 3134.53,3783.11 3067,3748" fill-rule="nonzero" vector-effect="none"/></g><defs><clipPath id="clip134"><path d="M1,1 L81,1 L81,55 L1,55 L1,1 z"/></clipPath></defs><g clip-path="url(#clip134)" fill="none" opacity="1" stroke="#e9631e" stroke-linecap="butt" stroke-linejoin="miter" stroke-miterlimit="4" stroke-opacity="1" stroke-width="1.7875" transform="matrix(2,0,0,2,18,2)"><path d="M31.5516,40.1498 C32.2243,39.8153 32.6464,39.1506 32.6464,38.4257 C32.6464,37.7007 32.2243,37.036 31.5516,36.7015" fill-rule="nonzero" vector-effect="none"/></g><defs><clipPath id="clip135"><path d="M0,0 L8031,0 L8031,5669 L0,5669 L0,0 z"/></clipPath></defs><g clip-path="url(#clip135)" fill="#e9631e" fill-opacity="1" opacity="0" stroke="none" stroke-opacity="0" transform="matrix(0.0199228,0,0,0.019051,20,4)"><path d="M3067,3385 C3134.53,3349.89 3176.9,3280.11 3176.9,3204 C3176.9,3127.89 3134.53,3058.11 3067,3023" fill-rule="nonzero" vector-effect="none"/></g><defs><clipPath id="clip136"><path d="M1,1 L81,1 L81,55 L1,55 L1,1 z"/></clipPath></defs><g clip-path="url(#clip136)" fill="none" opacity="1" stroke="#e9631e" stroke-linecap="butt" stroke-linejoin="miter" stroke-miterlimit="4" stroke-opacity="1" stroke-width="1.7875" transform="matrix(2,0,0,2,18,2)"><path d="M31.5516,33.2438 C32.2243,32.9094 32.6464,32.2447 32.6464,31.5197 C32.6464,30.7947 32.2243,30.13 31.5516,29.7956" fill-rule="nonzero" vector-effect="none"/></g><defs><clipPath id="clip137"><path d="M0,0 L8031,0 L8031,5669 L0,5669 L0,0 z"/></clipPath></defs><g clip-path="url(#clip137)" fill="#e9631e" fill-opacity="1" opacity="1" stroke="none" stroke-opacity="0" transform="matrix(0.0199228,0,0,0.019051,20,4)"><path d="M2220,4001 L2112,3928 L2078,4110 L2220,4001 z" fill-rule="nonzero" vector-effect="none"/></g><defs><clipPath id="clip138"><path d="M1,1 L81,1 L81,55 L1,55 L1,1 z"/></clipPath></defs><g clip-path="url(#clip138)" fill="none" opacity="1" stroke="#e9631e" stroke-linecap="butt" stroke-linejoin="miter" stroke-miterlimit="4" stroke-opacity="1" stroke-width="1.7875" transform="matrix(2,0,0,2,18,2)"><path d="M23.1143,39.1115 L22.0385,38.4161 L21.6998,40.1498 L23.1143,39.1115 z" fill-rule="nonzero" vector-effect="none"/></g><defs><clipPath id="clip139"><path d="M0,0 L8031,0 L8031,5669 L0,5669 L0,0 z"/></clipPath></defs><g clip-path="url(#clip139)" fill="#e9631e" fill-opacity="1" opacity="1" stroke="none" stroke-opacity="0" transform="matrix(0.0199228,0,0,0.019051,20,4)"><path d="M2740,4001 L2632,3928 L2598,4110 L2740,4001 z" fill-rule="nonzero" vector-effect="none"/></g><defs><clipPath id="clip140"><path d="M1,1 L81,1 L81,55 L1,55 L1,1 z"/></clipPath></defs><g clip-path="url(#clip140)" fill="none" opacity="1" stroke="#e9631e" stroke-linecap="butt" stroke-linejoin="miter" stroke-miterlimit="4" stroke-opacity="1" stroke-width="1.7875" transform="matrix(2,0,0,2,18,2)"><path d="M28.2942,39.1115 L27.2184,38.4161 L26.8797,40.1498 L28.2942,39.1115 z" fill-rule="nonzero" vector-effect="none"/></g><defs><clipPath id="clip141"><path d="M0,0 L8031,0 L8031,5669 L0,5669 L0,0 z"/></clipPath></defs><g clip-path="url(#clip141)" fill="#e9631e" fill-opacity="1" opacity="1" stroke="none" stroke-opacity="0" transform="matrix(0.0199228,0,0,0.019051,20,4)"><path d="M3067,4110 L3212,4001 L3104,3928 L3067,4110 z" fill-rule="nonzero" vector-effect="none"/></g><defs><clipPath id="clip142"><path d="M1,1 L81,1 L81,55 L1,55 L1,1 z"/></clipPath></defs><g clip-path="url(#clip142)" fill="none" opacity="1" stroke="#e9631e" stroke-linecap="butt" stroke-linejoin="miter" stroke-miterlimit="4" stroke-opacity="1" stroke-width="1.7875" transform="matrix(2,0,0,2,18,2)"><path d="M31.5516,40.1498 L32.996,39.1115 L31.9202,38.4161 L31.5516,40.1498 z" fill-rule="nonzero" vector-effect="none"/></g><defs><clipPath id="clip143"><path d="M0,0 L8031,0 L8031,5669 L0,5669 L0,0 z"/></clipPath></defs><g clip-path="url(#clip143)" fill="#000000" fill-opacity="1" opacity="0" stroke="none" stroke-opacity="0" transform="matrix(0.0199228,0,0,0.019051,20,4)"><path d="M0,4724 L2598,4724 L2598,4110" fill-rule="nonzero" vector-effect="none"/></g><defs><clipPath id="clip144"><path d="M1,1 L81,1 L81,55 L1,55 L1,1 z"/></clipPath></defs><g clip-path="url(#clip144)" fill="none" opacity="1" stroke="#e9631e" stroke-linecap="butt" stroke-linejoin="miter" stroke-miterlimit="4" stroke-opacity="1" stroke-width="1.7875" transform="matrix(2,0,0,2,18,2)"><path d="M1,45.9984 L26.8797,45.9984 L26.8797,40.1498" fill-rule="nonzero" vector-effect="none"/></g><defs><clipPath id="clip161"><path d="M-394,-138 L16,-138 L16,138 L-394,138 L-394,-138 z"/></clipPath></defs><g clip-path="url(#clip161)" fill="none" opacity="1" stroke="#e60000" stroke-linecap="square" stroke-linejoin="bevel" stroke-opacity="1" stroke-width="1" transform="matrix(0.390625,0,0,0.390625,174,58)"><text fill="#e60000" fill-opacity="1" font-family="Liberation Sans" font-size="40" font-style="normal" font-weight="400" stroke="none" textLength="29" x="-36.9531" xml:space="preserve" y="17.9219">R</text></g><defs><clipPath id="clip164"><path d="M-15,-241 L395,-241 L395,35 L-15,35 L-15,-241 z"/></clipPath></defs><g clip-path="url(#clip164)" fill="none" opacity="1" stroke="#e60000" stroke-linecap="square" stroke-linejoin="bevel" stroke-opacity="1" stroke-width="1" transform="matrix(0.390625,0,0,0.390625,26,98)"><text fill="#e60000" fill-opacity="1" font-family="Liberation Sans" font-size="40" font-style="normal" font-weight="400" stroke="none" textLength="31" x="0" xml:space="preserve" y="17.9219">Q</text></g><defs><clipPath id="clip167"><path d="M-15,-138 L395,-138 L395,138 L-15,138 L-15,-138 z"/></clipPath></defs><g clip-path="url(#clip167)" fill="none" opacity="1" stroke="#e60000" stroke-linecap="square" stroke-linejoin="bevel" stroke-opacity="1" stroke-width="1" transform="matrix(0.390625,0,0,0.390625,26,58)"><text fill="#e60000" fill-opacity="1" font-family="Liberation Sans" font-size="40" font-style="normal" font-weight="400" stroke="none" textLength="29" x="0" xml:space="preserve" y="17.9219">C</text></g><defs><clipPath id="clip170"><path d="M-15,-36 L395,-36 L395,240 L-15,240 L-15,-36 z"/></clipPath></defs><g clip-path="url(#clip170)" fill="none" opacity="1" stroke="#e60000" stroke-linecap="square" stroke-linejoin="bevel" stroke-opacity="1" stroke-width="1" transform="matrix(0.390625,0,0,0.390625,26,18)"><text fill="#e60000" fill-opacity="1" font-family="Liberation Sans" font-size="40" font-style="normal" font-weight="400" stroke="none" textLength="27" x="0" xml:space="preserve" y="17.9219">A</text></g><defs><clipPath id="clip176"><path d="M-10,-2 L90,-2 L90,56 L-10,56 L-10,-2 z"/></clipPath></defs><g clip-path="url(#clip176)" fill="none" opacity="1" stroke="none" stroke-opacity="0" transform="matrix(2,0,0,2,20,4)"><path d="M0,0 L80,0 L80,54 L0,54 L0,0 z" fill-rule="evenodd" vector-effect="none"/></g></g></svg>
