<?xml version="1.0" encoding="UTF-8"?><svg width="52.9167mm" height="38.6292mm" viewBox="0 0 200 146" xmlns="http://www.w3.org/2000/svg" xmlns:xlink="http://www.w3.org/1999/xlink"><g fill="none" stroke="black" stroke-width="1" fill-rule="evenodd" stroke-linecap="square" stroke-linejoin="bevel"><g clip-path="none" fill="none" opacity="1" stroke="none" stroke-opacity="0" transform="matrix(1,0,0,1,0,0)"><path d="M0,0 L200,0 L200,146 L0,146 L0,0 z" fill-rule="evenodd" vector-effect="none"/></g><defs><clipPath id="clip6"><path d="M0,0 L10,0 L10,10 L0,10 L0,0 z"/></clipPath></defs><g clip-path="url(#clip6)" fill="#b3b3b3" fill-opacity="1" opacity="1" stroke="none" stroke-opacity="0" transform="matrix(3.33333,0,0,3.33333,166.667,60)"><path d="M0.5,3.5 L3.5,3.5 L3.5,6.5 L0.5,6.5 L0.5,3.5 z" fill-rule="evenodd" vector-effect="none"/></g><defs><clipPath id="clip8"><path d="M0,0 L10,0 L10,10 L0,10 L0,0 z"/></clipPath></defs><g clip-path="url(#clip8)" fill="#000000" fill-opacity="1" opacity="1" stroke="none" stroke-opacity="0" transform="matrix(3.33333,0,0,3.33333,166.667,60)"><path d="M3,4 L3,6 L1,6 L1,4 L3,4 M4,3 L0,3 L0,7 L4,7 L4,3" fill-rule="nonzero" vector-effect="none"/></g><defs><clipPath id="clip28"><path d="M0,0 L10,0 L10,10 L0,10 L0,0 z"/></clipPath></defs><g clip-path="url(#clip28)" fill="#b3b3b3" fill-opacity="1" opacity="1" stroke="none" stroke-opacity="0" transform="matrix(-3.33333,0,0,3.33333,33.3333,60)"><path d="M0.5,3.5 L3.5,3.5 L3.5,6.5 L0.5,6.5 L0.5,3.5 z" fill-rule="evenodd" vector-effect="none"/></g><defs><clipPath id="clip30"><path d="M0,0 L10,0 L10,10 L0,10 L0,0 z"/></clipPath></defs><g clip-path="url(#clip30)" fill="#000000" fill-opacity="1" opacity="1" stroke="none" stroke-opacity="0" transform="matrix(-3.33333,0,0,3.33333,33.3333,60)"><path d="M3,4 L3,6 L1,6 L1,4 L3,4 M4,3 L0,3 L0,7 L4,7 L4,3" fill-rule="nonzero" vector-effect="none"/></g><defs><clipPath id="clip47"><path d="M-10,-2 L50,-2 L50,42 L-10,42 L-10,-2 z"/></clipPath></defs><g clip-path="url(#clip47)" fill="#ffffff" fill-opacity="1" opacity="1" stroke="none" stroke-opacity="0" transform="matrix(3.33333,0,0,3.33333,33.3333,6.66667)"><path d="M0,0 L40,0 L40,40 L0,40 L0,0 z" fill-rule="evenodd" vector-effect="none"/></g><defs><clipPath id="clip51"><path d="M0,0 L40,0 L40,40 L0,40 L0,0 z"/></clipPath></defs><g clip-path="url(#clip51)" fill="none" opacity="1" stroke="none" stroke-opacity="0" transform="matrix(3.33333,0,0,3.33333,33.3333,6.66667)"><path d="M0,0 L40,0 L40,40 L0,40 L0,0 z" fill-rule="evenodd" vector-effect="none"/></g><defs><clipPath id="clip61"><path d="M1,1 L41,1 L41,41 L1,41 L1,1 z"/></clipPath></defs><g clip-path="url(#clip61)" fill="none" opacity="1" stroke="#e6b85c" stroke-linecap="butt" stroke-linejoin="miter" stroke-miterlimit="20" stroke-opacity="1" stroke-width="1.3325" transform="matrix(3.33333,0,0,3.33333,30,3.33333)"><path d="M9.42107,21.0554 L1.11081,21.0554" fill-rule="nonzero" vector-effect="none"/></g><defs><clipPath id="clip62"><path d="M1,1 L41,1 L41,41 L1,41 L1,1 z"/></clipPath></defs><g clip-path="url(#clip62)" fill="none" opacity="1" stroke="#e6b85c" stroke-linecap="butt" stroke-linejoin="miter" stroke-miterlimit="20" stroke-opacity="1" stroke-width="1.3325" transform="matrix(3.33333,0,0,3.33333,30,3.33333)"><path d="M33.3546,21.0554 L41.0001,21.0554" fill-rule="nonzero" vector-effect="none"/></g><defs><clipPath id="clip63"><path d="M8,8 L333,8 L333,333 L8,333 L8,8 z"/></clipPath></defs><g clip-path="url(#clip63)" fill="#e6b85c" fill-opacity="1" opacity="1" stroke="none" stroke-opacity="0" transform="matrix(0.410383,0,0,0.410383,30.0092,3.34257)"><path d="M192.12,170.64 C192.12,180.78 183.9,189 173.76,189 C163.62,189 155.4,180.78 155.4,170.64 C155.4,160.5 163.62,152.28 173.76,152.28 C183.9,152.28 192.12,160.5 192.12,170.64 z" fill-rule="nonzero" vector-effect="none"/></g><defs><clipPath id="clip64"><path d="M1,1 L41,1 L41,41 L1,41 L1,1 z"/></clipPath></defs><g clip-path="url(#clip64)" fill="none" opacity="1" stroke="#e6b85c" stroke-linecap="butt" stroke-linejoin="miter" stroke-miterlimit="4" stroke-opacity="1" stroke-width="1.3325" transform="matrix(3.33333,0,0,3.33333,30,3.33333)"><path d="M23.6556,21.0111 C23.6556,22.2595 22.6436,23.2715 21.3952,23.2715 C20.1469,23.2715 19.1348,22.2595 19.1348,21.0111 C19.1348,19.7627 20.1469,18.7507 21.3952,18.7507 C22.6436,18.7507 23.6556,19.7627 23.6556,21.0111 z" fill-rule="nonzero" vector-effect="none"/></g><defs><clipPath id="clip65"><path d="M8,8 L333,8 L333,333 L8,333 L8,8 z"/></clipPath></defs><g clip-path="url(#clip65)" fill="#e6b85c" fill-opacity="1" opacity="1" stroke="none" stroke-opacity="0" transform="matrix(0.410383,0,0,0.410383,30.0092,3.34257)"><path d="M270.36,169.74 L223.14,139.14 L223.14,196.56 L269.52,168.9 L270.36,169.74 z" fill-rule="nonzero" vector-effect="none"/></g><defs><clipPath id="clip66"><path d="M1,1 L41,1 L41,41 L1,41 L1,1 z"/></clipPath></defs><g clip-path="url(#clip66)" fill="none" opacity="1" stroke="#e6b85c" stroke-linecap="butt" stroke-linejoin="miter" stroke-miterlimit="20" stroke-opacity="1" stroke-width="1.3325" transform="matrix(3.33333,0,0,3.33333,30,3.33333)"><path d="M33.2881,20.9003 L27.4747,17.133 L27.4747,24.2023 L33.1847,20.7969 L33.2881,20.9003 z" fill-rule="nonzero" vector-effect="none"/></g><defs><clipPath id="clip67"><path d="M1,1 L41,1 L41,41 L1,41 L1,1 z"/></clipPath></defs><g clip-path="url(#clip67)" fill="none" opacity="1" stroke="#e6b85c" stroke-linecap="butt" stroke-linejoin="miter" stroke-miterlimit="4" stroke-opacity="1" stroke-width="1.3325" transform="matrix(3.33333,0,0,3.33333,30,3.33333)"><path d="M33.1404,20.9003 C33.1404,27.4155 27.8588,32.6972 21.3435,32.6972 C14.8283,32.6972 9.54664,27.4155 9.54664,20.9003 C9.54664,14.3851 14.8283,9.10343 21.3435,9.10343 C27.8588,9.10343 33.1404,14.3851 33.1404,20.9003 z" fill-rule="nonzero" vector-effect="none"/></g><defs><clipPath id="clip68"><path d="M1,1 L41,1 L41,41 L1,41 L1,1 z"/></clipPath></defs><g clip-path="url(#clip68)" fill="none" opacity="1" stroke="#ffffff" stroke-linecap="butt" stroke-linejoin="miter" stroke-miterlimit="20" stroke-opacity="1" stroke-width="1.3325" transform="matrix(3.33333,0,0,3.33333,30,3.33333)"><path d="M1,1 L41.0001,1 L41.0001,41.0001 L1,41.0001 L1,1 z" fill-rule="nonzero" vector-effect="none"/></g><defs><clipPath id="clip85"><path d="M-189,-102 L16,-102 L16,103 L-189,103 L-189,-102 z"/></clipPath></defs><g clip-path="url(#clip85)" fill="none" opacity="1" stroke="#e60000" stroke-linecap="square" stroke-linejoin="bevel" stroke-opacity="1" stroke-width="1" transform="matrix(0.651042,0,0,0.651042,156.667,73.3333)"><text fill="#e60000" fill-opacity="1" font-family="Liberation Sans" font-size="40" font-style="normal" font-weight="400" stroke="none" textLength="27" x="-34.125" xml:space="preserve" y="17.9219">B</text></g><defs><clipPath id="clip88"><path d="M-15,-102 L190,-102 L190,103 L-15,103 L-15,-102 z"/></clipPath></defs><g clip-path="url(#clip88)" fill="none" opacity="1" stroke="#e60000" stroke-linecap="square" stroke-linejoin="bevel" stroke-opacity="1" stroke-width="1" transform="matrix(0.651042,0,0,0.651042,43.3333,73.3333)"><text fill="#e60000" fill-opacity="1" font-family="Liberation Sans" font-size="40" font-style="normal" font-weight="400" stroke="none" textLength="27" x="0" xml:space="preserve" y="17.9219">A</text></g><defs><clipPath id="clip94"><path d="M-10,-2 L50,-2 L50,42 L-10,42 L-10,-2 z"/></clipPath></defs><g clip-path="url(#clip94)" fill="none" opacity="1" stroke="none" stroke-opacity="0" transform="matrix(3.33333,0,0,3.33333,33.3333,6.66667)"><path d="M0,0 L40,0 L40,40 L0,40 L0,0 z" fill-rule="evenodd" vector-effect="none"/></g></g></svg>
