<?xml version="1.0" encoding="UTF-8"?><svg width="24.3417mm" height="52.9167mm" viewBox="0 0 92 200" xmlns="http://www.w3.org/2000/svg" xmlns:xlink="http://www.w3.org/1999/xlink"><g fill="none" stroke="black" stroke-width="1" fill-rule="evenodd" stroke-linecap="square" stroke-linejoin="bevel"><g clip-path="none" fill="none" opacity="1" stroke="none" stroke-opacity="0" transform="matrix(1,0,0,1,0,0)"><path d="M0,0 L92,0 L92,200 L0,200 L0,0 z" fill-rule="evenodd" vector-effect="none"/></g><defs><clipPath id="clip6"><path d="M0,0 L10,0 L10,10 L0,10 L0,0 z"/></clipPath></defs><g clip-path="url(#clip6)" fill="#b3b3b3" fill-opacity="1" opacity="1" stroke="none" stroke-opacity="0" transform="matrix(2.35501e-16,-3.84615,3.84615,2.35501e-16,30.7692,38.4615)"><path d="M0.5,3.5 L3.5,3.5 L3.5,6.5 L0.5,6.5 L0.5,3.5 z" fill-rule="evenodd" vector-effect="none"/></g><defs><clipPath id="clip8"><path d="M0,0 L10,0 L10,10 L0,10 L0,0 z"/></clipPath></defs><g clip-path="url(#clip8)" fill="#000000" fill-opacity="1" opacity="1" stroke="none" stroke-opacity="0" transform="matrix(2.35501e-16,-3.84615,3.84615,2.35501e-16,30.7692,38.4615)"><path d="M3,4 L3,6 L1,6 L1,4 L3,4 M4,3 L0,3 L0,7 L4,7 L4,3" fill-rule="nonzero" vector-effect="none"/></g><defs><clipPath id="clip25"><path d="M-2,-10 L22,-10 L22,42 L-2,42 L-2,-10 z"/></clipPath></defs><g clip-path="url(#clip25)" fill="#ffffff" fill-opacity="1" opacity="1" stroke="none" stroke-opacity="0" transform="matrix(3.84615,0,0,3.84615,7.69231,38.4615)"><path d="M0,0 L20,0 L20,40 L0,40 L0,0 z" fill-rule="evenodd" vector-effect="none"/></g><defs><clipPath id="clip29"><path d="M0,0 L20,0 L20,40 L0,40 L0,0 z"/></clipPath></defs><g clip-path="url(#clip29)" fill="none" opacity="1" stroke="none" stroke-opacity="0" transform="matrix(3.84615,0,0,3.84615,7.69231,38.4615)"><path d="M0,0 L20,0 L20,40 L0,40 L0,0 z" fill-rule="evenodd" vector-effect="none"/></g><defs><clipPath id="clip39"><path d="M1,1 L41,1 L41,21 L1,21 L1,1 z"/></clipPath></defs><g clip-path="url(#clip39)" fill="none" opacity="1" stroke="#079ccf" stroke-linecap="butt" stroke-linejoin="miter" stroke-miterlimit="20" stroke-opacity="1" stroke-width="1.8525" transform="matrix(7.06504e-16,3.84615,3.84615,-7.06504e-16,3.84615,34.6154)"><path d="M40.3056,10.98 L1.00001,10.98" fill-rule="nonzero" vector-effect="none"/></g><defs><clipPath id="clip40"><path d="M1,1 L41,1 L41,21 L1,21 L1,1 z"/></clipPath></defs><g clip-path="url(#clip40)" fill="none" opacity="1" stroke="#079ccf" stroke-linecap="butt" stroke-linejoin="miter" stroke-miterlimit="20" stroke-opacity="1" stroke-width="1.8525" transform="matrix(7.06504e-16,3.84615,3.84615,-7.06504e-16,3.84615,34.6154)"><path d="M40.3056,1.00001 L40.3056,20.96" fill-rule="nonzero" vector-effect="none"/></g><defs><clipPath id="clip60"><path d="M-2,-10 L22,-10 L22,42 L-2,42 L-2,-10 z"/></clipPath></defs><g clip-path="url(#clip60)" fill="none" opacity="1" stroke="none" stroke-opacity="0" transform="matrix(3.84615,0,0,3.84615,7.69231,38.4615)"><path d="M0,0 L20,0 L20,40 L0,40 L0,0 z" fill-rule="evenodd" vector-effect="none"/></g></g></svg>
