<?xml version="1.0" encoding="UTF-8"?><svg width="52.9167mm" height="38.6292mm" viewBox="0 0 200 146" xmlns="http://www.w3.org/2000/svg" xmlns:xlink="http://www.w3.org/1999/xlink"><g fill="none" stroke="black" stroke-width="1" fill-rule="evenodd" stroke-linecap="square" stroke-linejoin="bevel"><g clip-path="none" fill="none" opacity="1" stroke="none" stroke-opacity="0" transform="matrix(1,0,0,1,0,0)"><path d="M0,0 L200,0 L200,146 L0,146 L0,0 z" fill-rule="evenodd" vector-effect="none"/></g><defs><clipPath id="clip6"><path d="M0,0 L10,0 L10,10 L0,10 L0,0 z"/></clipPath></defs><g clip-path="url(#clip6)" fill="#b3b3b3" fill-opacity="1" opacity="1" stroke="none" stroke-opacity="0" transform="matrix(3.33333,0,0,3.33333,166.667,26.6667)"><path d="M0.5,3.5 L3.5,3.5 L3.5,6.5 L0.5,6.5 L0.5,3.5 z" fill-rule="evenodd" vector-effect="none"/></g><defs><clipPath id="clip8"><path d="M0,0 L10,0 L10,10 L0,10 L0,0 z"/></clipPath></defs><g clip-path="url(#clip8)" fill="#000000" fill-opacity="1" opacity="1" stroke="none" stroke-opacity="0" transform="matrix(3.33333,0,0,3.33333,166.667,26.6667)"><path d="M3,4 L3,6 L1,6 L1,4 L3,4 M4,3 L0,3 L0,7 L4,7 L4,3" fill-rule="nonzero" vector-effect="none"/></g><defs><clipPath id="clip28"><path d="M0,0 L10,0 L10,10 L0,10 L0,0 z"/></clipPath></defs><g clip-path="url(#clip28)" fill="#ffffff" fill-opacity="1" opacity="1" stroke="none" stroke-opacity="0" transform="matrix(3.33333,0,0,3.33333,166.667,93.3333)"><path d="M0.5,0.809 L8.882,5 L0.5,9.191 L0.5,0.809 z" fill-rule="evenodd" vector-effect="none"/></g><defs><clipPath id="clip30"><path d="M0,0 L10,0 L10,10 L0,10 L0,0 z"/></clipPath></defs><g clip-path="url(#clip30)" fill="#000000" fill-opacity="1" opacity="1" stroke="none" stroke-opacity="0" transform="matrix(3.33333,0,0,3.33333,166.667,93.3333)"><path d="M1,1.618 L7.764,5 L1,8.382 L1,1.618 M0,0 L0,10 L10,5 L0,0" fill-rule="nonzero" vector-effect="none"/></g><defs><clipPath id="clip52"><path d="M0,0 L10,0 L10,10 L0,10 L0,0 z"/></clipPath></defs><g clip-path="url(#clip52)" fill="#b3b3b3" fill-opacity="1" opacity="1" stroke="none" stroke-opacity="0" transform="matrix(-3.33333,0,0,3.33333,33.3333,60)"><path d="M0.5,3.5 L3.5,3.5 L3.5,6.5 L0.5,6.5 L0.5,3.5 z" fill-rule="evenodd" vector-effect="none"/></g><defs><clipPath id="clip54"><path d="M0,0 L10,0 L10,10 L0,10 L0,0 z"/></clipPath></defs><g clip-path="url(#clip54)" fill="#000000" fill-opacity="1" opacity="1" stroke="none" stroke-opacity="0" transform="matrix(-3.33333,0,0,3.33333,33.3333,60)"><path d="M3,4 L3,6 L1,6 L1,4 L3,4 M4,3 L0,3 L0,7 L4,7 L4,3" fill-rule="nonzero" vector-effect="none"/></g><defs><clipPath id="clip71"><path d="M-10,-2 L50,-2 L50,42 L-10,42 L-10,-2 z"/></clipPath></defs><g clip-path="url(#clip71)" fill="#ffffff" fill-opacity="1" opacity="1" stroke="none" stroke-opacity="0" transform="matrix(3.33333,0,0,3.33333,33.3333,6.66667)"><path d="M0,0 L40,0 L40,40 L0,40 L0,0 z" fill-rule="evenodd" vector-effect="none"/></g><defs><clipPath id="clip75"><path d="M0,0 L40,0 L40,40 L0,40 L0,0 z"/></clipPath></defs><g clip-path="url(#clip75)" fill="none" opacity="1" stroke="none" stroke-opacity="0" transform="matrix(3.33333,0,0,3.33333,33.3333,6.66667)"><path d="M0,0 L40,0 L40,40 L0,40 L0,0 z" fill-rule="evenodd" vector-effect="none"/></g><defs><clipPath id="clip85"><path d="M1,1 L41,1 L41,41 L1,41 L1,1 z"/></clipPath></defs><g clip-path="url(#clip85)" fill="none" opacity="1" stroke="#079ccf" stroke-linecap="butt" stroke-linejoin="miter" stroke-miterlimit="4" stroke-opacity="1" stroke-width="1.3325" transform="matrix(3.33333,0,0,3.33333,30,3.33333)"><path d="M32.109,23.2227 C32.109,29.3594 27.1343,34.3341 20.9976,34.3341 C14.861,34.3341 9.88627,29.3594 9.88627,23.2227 C9.88627,17.0861 14.861,12.1114 20.9976,12.1114 C27.1343,12.1114 32.109,17.0861 32.109,23.2227 z" fill-rule="nonzero" vector-effect="none"/></g><defs><clipPath id="clip86"><path d="M1,1 L41,1 L41,41 L1,41 L1,1 z"/></clipPath></defs><g clip-path="url(#clip86)" fill="none" opacity="1" stroke="#079ccf" stroke-linecap="butt" stroke-linejoin="miter" stroke-miterlimit="4" stroke-opacity="1" stroke-width="1.3325" transform="matrix(3.33333,0,0,3.33333,30,3.33333)"><path d="M1,1 L41,1 L41,41 L1,41 L1,1 z" fill-rule="nonzero" vector-effect="none"/></g><defs><clipPath id="clip87"><path d="M1,1 L41,1 L41,41 L1,41 L1,1 z"/></clipPath></defs><g clip-path="url(#clip87)" fill="none" opacity="1" stroke="#079ccf" stroke-linecap="butt" stroke-linejoin="miter" stroke-miterlimit="4" stroke-opacity="1" stroke-width="1.3325" transform="matrix(3.33333,0,0,3.33333,30,3.33333)"><path d="M10.1121,20.9976 L31.8879,20.9976" fill-rule="nonzero" vector-effect="none"/></g><defs><clipPath id="clip88"><path d="M1,1 L41,1 L41,41 L1,41 L1,1 z"/></clipPath></defs><g clip-path="url(#clip88)" fill="none" opacity="1" stroke="#079ccf" stroke-linecap="butt" stroke-linejoin="miter" stroke-miterlimit="4" stroke-opacity="1" stroke-width="1.3325" transform="matrix(3.33333,0,0,3.33333,30,3.33333)"><path d="M10.1121,25.4431 L31.8879,25.4431" fill-rule="nonzero" vector-effect="none"/></g><defs><clipPath id="clip105"><path d="M-189,-154 L16,-154 L16,51 L-189,51 L-189,-154 z"/></clipPath></defs><g clip-path="url(#clip105)" fill="none" opacity="1" stroke="#e60000" stroke-linecap="square" stroke-linejoin="bevel" stroke-opacity="1" stroke-width="1" transform="matrix(0.651042,0,0,0.651042,156.667,106.667)"><text fill="#e60000" fill-opacity="1" font-family="Liberation Sans" font-size="40" font-style="normal" font-weight="400" stroke="none" textLength="27" x="-34.125" xml:space="preserve" y="17.9219">V</text></g><defs><clipPath id="clip108"><path d="M-189,-51 L16,-51 L16,154 L-189,154 L-189,-51 z"/></clipPath></defs><g clip-path="url(#clip108)" fill="none" opacity="1" stroke="#e60000" stroke-linecap="square" stroke-linejoin="bevel" stroke-opacity="1" stroke-width="1" transform="matrix(0.651042,0,0,0.651042,156.667,40)"><text fill="#e60000" fill-opacity="1" font-family="Liberation Sans" font-size="40" font-style="normal" font-weight="400" stroke="none" textLength="27" x="-34.125" xml:space="preserve" y="17.9219">B</text></g><defs><clipPath id="clip111"><path d="M-15,-102 L190,-102 L190,103 L-15,103 L-15,-102 z"/></clipPath></defs><g clip-path="url(#clip111)" fill="none" opacity="1" stroke="#e60000" stroke-linecap="square" stroke-linejoin="bevel" stroke-opacity="1" stroke-width="1" transform="matrix(0.651042,0,0,0.651042,43.3333,73.3333)"><text fill="#e60000" fill-opacity="1" font-family="Liberation Sans" font-size="40" font-style="normal" font-weight="400" stroke="none" textLength="27" x="0" xml:space="preserve" y="17.9219">A</text></g><defs><clipPath id="clip117"><path d="M-10,-2 L50,-2 L50,42 L-10,42 L-10,-2 z"/></clipPath></defs><g clip-path="url(#clip117)" fill="none" opacity="1" stroke="none" stroke-opacity="0" transform="matrix(3.33333,0,0,3.33333,33.3333,6.66667)"><path d="M0,0 L40,0 L40,40 L0,40 L0,0 z" fill-rule="evenodd" vector-effect="none"/></g></g></svg>
