<?xml version="1.0" encoding="UTF-8"?><svg width="52.9167mm" height="23.5479mm" viewBox="0 0 200 89" xmlns="http://www.w3.org/2000/svg" xmlns:xlink="http://www.w3.org/1999/xlink"><g fill="none" stroke="black" stroke-width="1" fill-rule="evenodd" stroke-linecap="square" stroke-linejoin="bevel"><g clip-path="none" fill="none" opacity="1" stroke="none" stroke-opacity="0" transform="matrix(1,0,0,1,0,0)"><path d="M0,0 L200,0 L200,89 L0,89 L0,0 z" fill-rule="evenodd" vector-effect="none"/></g><defs><clipPath id="clip3"><path d="M-107,-28 L7,-28 L7,23 L-107,23 L-107,-28 z"/></clipPath></defs><g clip-path="url(#clip3)" fill="none" opacity="1" stroke="#000000" stroke-linecap="round" stroke-linejoin="miter" stroke-miterlimit="2" stroke-opacity="1" stroke-width="2" transform="matrix(1.75439,0,0,1.75439,187.719,49.1228)"><path d="M0,-5 L5,0 L0,5" fill-rule="evenodd" vector-effect="none"/></g><defs><clipPath id="clip6"><path d="M7,-57 L7,57 L-44,57 L-44,-57 L7,-57 z"/></clipPath></defs><g clip-path="url(#clip6)" fill="none" opacity="1" stroke="#000000" stroke-linecap="round" stroke-linejoin="miter" stroke-miterlimit="2" stroke-opacity="1" stroke-width="2" transform="matrix(1.07422e-16,-1.75439,1.75439,1.07422e-16,100,12.2807)"><path d="M5,-5 L0,0 L5,5" fill-rule="evenodd" vector-effect="none"/></g><defs><clipPath id="clip9"><path d="M7,28 L-107,28 L-107,-23 L7,-23 L7,28 z"/></clipPath></defs><g clip-path="url(#clip9)" fill="none" opacity="1" stroke="#000000" stroke-linecap="round" stroke-linejoin="miter" stroke-miterlimit="2" stroke-opacity="1" stroke-width="2" transform="matrix(-1.75439,0,0,-1.75439,12.2807,49.1228)"><path d="M5,-5 L0,0 L5,5" fill-rule="evenodd" vector-effect="none"/></g><defs><clipPath id="clip12"><path d="M-7,-7 L107,-7 L107,44 L-7,44 L-7,-7 z"/></clipPath></defs><g clip-path="url(#clip12)" fill="#ffffff" fill-opacity="1" opacity="1" stroke="none" stroke-opacity="0" transform="matrix(1.75439,0,0,1.75439,12.2807,12.2807)"><path d="M0,0 L100,0 L100,42 L0,42 L0,0 z" fill-rule="evenodd" vector-effect="none"/></g><defs><clipPath id="clip17"><path d="M-15,-108 L497,-108 L497,107 L-15,107 L-15,-108 z"/></clipPath></defs><g clip-path="url(#clip17)" fill="none" opacity="1" stroke="#000000" stroke-linecap="butt" stroke-linejoin="miter" stroke-miterlimit="2" stroke-opacity="1" stroke-width="0.57" transform="matrix(0.342654,0,0,0.342654,17.5439,49.1228)"><text fill="#000000" fill-opacity="1" font-family="Liberation Sans" font-size="36" font-style="normal" font-weight="400" stroke="none" textLength="48" x="0" xml:space="preserve" y="16">In1</text></g><defs><clipPath id="clip20"><path d="M-497,-108 L15,-108 L15,107 L-497,107 L-497,-108 z"/></clipPath></defs><g clip-path="url(#clip20)" fill="none" opacity="1" stroke="#000000" stroke-linecap="butt" stroke-linejoin="miter" stroke-miterlimit="2" stroke-opacity="1" stroke-width="0.57" transform="matrix(0.342654,0,0,0.342654,182.456,49.1228)"><text fill="#000000" fill-opacity="1" font-family="Liberation Sans" font-size="36" font-style="normal" font-weight="400" stroke="none" textLength="77" x="-99.875" xml:space="preserve" y="16">Out1</text></g><defs><clipPath id="clip22"><path d="M155,454 L255,454 L255,496 L155,496 L155,454 z"/></clipPath></defs><g clip-path="url(#clip22)" fill="none" opacity="1" stroke="#000000" stroke-linecap="butt" stroke-linejoin="miter" stroke-miterlimit="2" stroke-opacity="1" stroke-width="0.57" transform="matrix(1.75439,0,0,1.75439,-258.772,-783.333)"><polyline fill="none" points="201,463 203,463" vector-effect="none"/></g><defs><clipPath id="clip23"><path d="M155,454 L255,454 L255,496 L155,496 L155,454 z"/></clipPath></defs><g clip-path="url(#clip23)" fill="none" opacity="1" stroke="#000000" stroke-linecap="butt" stroke-linejoin="miter" stroke-miterlimit="2" stroke-opacity="1" stroke-width="0.57" transform="matrix(1.75439,0,0,1.75439,-258.772,-783.333)"><polyline fill="none" points="203,463 203,457" vector-effect="none"/></g><defs><clipPath id="clip24"><path d="M155,454 L255,454 L255,496 L155,496 L155,454 z"/></clipPath></defs><g clip-path="url(#clip24)" fill="none" opacity="1" stroke="#000000" stroke-linecap="butt" stroke-linejoin="miter" stroke-miterlimit="2" stroke-opacity="1" stroke-width="0.57" transform="matrix(1.75439,0,0,1.75439,-258.772,-783.333)"><polyline fill="none" points="203,457 206,457" vector-effect="none"/></g><defs><clipPath id="clip25"><path d="M155,454 L255,454 L255,496 L155,496 L155,454 z"/></clipPath></defs><g clip-path="url(#clip25)" fill="none" opacity="1" stroke="#000000" stroke-linecap="butt" stroke-linejoin="miter" stroke-miterlimit="2" stroke-opacity="1" stroke-width="0.57" transform="matrix(1.75439,0,0,1.75439,-258.772,-783.333)"><polyline fill="none" points="206,457 206,463" vector-effect="none"/></g><defs><clipPath id="clip26"><path d="M155,454 L255,454 L255,496 L155,496 L155,454 z"/></clipPath></defs><g clip-path="url(#clip26)" fill="none" opacity="1" stroke="#000000" stroke-linecap="butt" stroke-linejoin="miter" stroke-miterlimit="2" stroke-opacity="1" stroke-width="0.57" transform="matrix(1.75439,0,0,1.75439,-258.772,-783.333)"><polyline fill="none" points="206,463 208,463" vector-effect="none"/></g><defs><clipPath id="clip31"><path d="M-7,-7 L107,-7 L107,44 L-7,44 L-7,-7 z"/></clipPath></defs><g clip-path="url(#clip31)" fill="none" opacity="1" stroke="#000000" stroke-linecap="butt" stroke-linejoin="miter" stroke-miterlimit="2" stroke-opacity="1" stroke-width="1.59728" transform="matrix(1.75439,0,0,1.75439,12.2807,12.2807)"><path d="M0,0 L100,0 L100,42 L0,42 L0,0 z" fill-rule="evenodd" vector-effect="none"/></g></g></svg>
