<?xml version="1.0" encoding="UTF-8"?><svg width="52.9167mm" height="47.3604mm" viewBox="0 0 200 179" xmlns="http://www.w3.org/2000/svg" xmlns:xlink="http://www.w3.org/1999/xlink"><g fill="none" stroke="black" stroke-width="1" fill-rule="evenodd" stroke-linecap="square" stroke-linejoin="bevel"><g clip-path="none" fill="none" opacity="1" stroke="none" stroke-opacity="0" transform="matrix(1,0,0,1,0,0)"><path d="M0,0 L200,0 L200,179 L0,179 L0,0 z" fill-rule="evenodd" vector-effect="none"/></g><defs><clipPath id="clip6"><path d="M0,0 L10,0 L10,10 L0,10 L0,0 z"/></clipPath></defs><g clip-path="url(#clip6)" fill="#b3b3b3" fill-opacity="1" opacity="1" stroke="none" stroke-opacity="0" transform="matrix(-2.98507,0,0,2.98507,29.8507,122.388)"><path d="M0.5,3.5 L3.5,3.5 L3.5,6.5 L0.5,6.5 L0.5,3.5 z" fill-rule="evenodd" vector-effect="none"/></g><defs><clipPath id="clip8"><path d="M0,0 L10,0 L10,10 L0,10 L0,0 z"/></clipPath></defs><g clip-path="url(#clip8)" fill="#000000" fill-opacity="1" opacity="1" stroke="none" stroke-opacity="0" transform="matrix(-2.98507,0,0,2.98507,29.8507,122.388)"><path d="M3,4 L3,6 L1,6 L1,4 L3,4 M4,3 L0,3 L0,7 L4,7 L4,3" fill-rule="nonzero" vector-effect="none"/></g><defs><clipPath id="clip29"><path d="M0,0 L10,0 L10,10 L0,10 L0,0 z"/></clipPath></defs><g clip-path="url(#clip29)" fill="#ffffff" fill-opacity="1" opacity="1" stroke="none" stroke-opacity="0" transform="matrix(2.98507,0,0,2.98507,-1.06581e-14,32.8358)"><path d="M8.882,5 L0.5,9.191 L0.5,0.809 L8.882,5 z" fill-rule="evenodd" vector-effect="none"/></g><defs><clipPath id="clip31"><path d="M0,0 L10,0 L10,10 L0,10 L0,0 z"/></clipPath></defs><g clip-path="url(#clip31)" fill="#000000" fill-opacity="1" opacity="1" stroke="none" stroke-opacity="0" transform="matrix(2.98507,0,0,2.98507,-1.06581e-14,32.8358)"><path d="M1,1.618 L7.764,5 L1,8.382 L1,1.618 M0,0 L0,10 L10,5 L0,0" fill-rule="nonzero" vector-effect="none"/></g><defs><clipPath id="clip50"><path d="M-10,-2 L57,-2 L57,58 L-10,58 L-10,-2 z"/></clipPath></defs><g clip-path="url(#clip50)" fill="#ffffff" fill-opacity="1" opacity="1" stroke="none" stroke-opacity="0" transform="matrix(2.98507,0,0,2.98507,29.8507,5.97015)"><path d="M0,0 L55,0 L55,56 L0,56 L0,0 z" fill-rule="evenodd" vector-effect="none"/></g><defs><clipPath id="clip54"><path d="M0,0 L55,0 L55,56 L0,56 L0,0 z"/></clipPath></defs><g clip-path="url(#clip54)" fill="none" opacity="1" stroke="none" stroke-opacity="0" transform="matrix(2.98507,0,0,2.98507,29.8507,5.97015)"><path d="M0,0 L55,0 L55,56 L0,56 L0,0 z" fill-rule="evenodd" vector-effect="none"/></g><defs><clipPath id="clip64"><path d="M1,1 L56,1 L56,57 L1,57 L1,1 z"/></clipPath></defs><g clip-path="url(#clip64)" fill="none" opacity="1" stroke="#a06c70" stroke-linecap="butt" stroke-linejoin="miter" stroke-miterlimit="20" stroke-opacity="1" stroke-width="1.8525" transform="matrix(2.98507,0,0,2.98507,26.8657,2.98507)"><path d="M0.999999,15 L14.75,15" fill-rule="nonzero" vector-effect="none"/></g><defs><clipPath id="clip65"><path d="M1,1 L56,1 L56,57 L1,57 L1,1 z"/></clipPath></defs><g clip-path="url(#clip65)" fill="none" opacity="1" stroke="#000000" stroke-linecap="butt" stroke-linejoin="miter" stroke-miterlimit="20" stroke-opacity="1" stroke-width="1.8525" transform="matrix(2.98507,0,0,2.98507,26.8657,2.98507)"><path d="M14.75,14.0667 L14.75,15.9334" fill-rule="nonzero" vector-effect="none"/></g><defs><clipPath id="clip66"><path d="M1,1 L56,1 L56,57 L1,57 L1,1 z"/></clipPath></defs><g clip-path="url(#clip66)" fill="none" opacity="1" stroke="#000000" stroke-linecap="butt" stroke-linejoin="miter" stroke-miterlimit="20" stroke-opacity="1" stroke-width="1.8525" transform="matrix(2.98507,0,0,2.98507,26.8657,2.98507)"><path d="M30.7916,15.9334 L15.2083,15.9334 L14.75,15.9334" fill-rule="nonzero" vector-effect="none"/></g><defs><clipPath id="clip67"><path d="M9,9 L333,9 L333,333 L9,333 L9,9 z"/></clipPath></defs><g clip-path="url(#clip67)" fill="#000000" fill-opacity="1" opacity="1" stroke="none" stroke-opacity="0" transform="matrix(0.506725,0,0,0.51594,25.2902,1.3267)"><path d="M181.8,84.6 L90,84.6 L181.8,84.6 z" fill-rule="nonzero" vector-effect="none"/></g><defs><clipPath id="clip68"><path d="M1,1 L56,1 L56,57 L1,57 L1,1 z"/></clipPath></defs><g clip-path="url(#clip68)" fill="none" opacity="1" stroke="#000000" stroke-linecap="butt" stroke-linejoin="miter" stroke-miterlimit="20" stroke-opacity="1" stroke-width="1.8525" transform="matrix(2.98507,0,0,2.98507,26.8657,2.98507)"><path d="M30.3333,14.0667 L14.75,14.0667 L30.3333,14.0667 z" fill-rule="nonzero" vector-effect="none"/></g><defs><clipPath id="clip69"><path d="M1,1 L56,1 L56,57 L1,57 L1,1 z"/></clipPath></defs><g clip-path="url(#clip69)" fill="none" opacity="1" stroke="#000000" stroke-linecap="butt" stroke-linejoin="miter" stroke-miterlimit="20" stroke-opacity="1" stroke-width="1.8525" transform="matrix(2.98507,0,0,2.98507,26.8657,2.98507)"><path d="M15.6667,38.3334 L11.5417,27.1334" fill-rule="nonzero" vector-effect="none"/></g><defs><clipPath id="clip70"><path d="M1,1 L56,1 L56,57 L1,57 L1,1 z"/></clipPath></defs><g clip-path="url(#clip70)" fill="none" opacity="1" stroke="#000000" stroke-linecap="butt" stroke-linejoin="miter" stroke-miterlimit="20" stroke-opacity="1" stroke-width="1.8525" transform="matrix(2.98507,0,0,2.98507,26.8657,2.98507)"><path d="M13.9657,39.6816 L9.84073,28.0149" fill-rule="nonzero" vector-effect="none"/></g><defs><clipPath id="clip71"><path d="M1,1 L56,1 L56,57 L1,57 L1,1 z"/></clipPath></defs><g clip-path="url(#clip71)" fill="none" opacity="1" stroke="#000000" stroke-linecap="butt" stroke-linejoin="miter" stroke-miterlimit="20" stroke-opacity="1" stroke-width="1.8525" transform="matrix(2.98507,0,0,2.98507,26.8657,2.98507)"><path d="M9.70833,28.0668 L12,27.1334" fill-rule="nonzero" vector-effect="none"/></g><defs><clipPath id="clip72"><path d="M1,1 L56,1 L56,57 L1,57 L1,1 z"/></clipPath></defs><g clip-path="url(#clip72)" fill="none" opacity="1" stroke="#35d461" stroke-linecap="butt" stroke-linejoin="miter" stroke-miterlimit="20" stroke-opacity="1" stroke-width="1.8525" transform="matrix(2.98507,0,0,2.98507,26.8657,2.98507)"><path d="M8.79166,43.0001 L8.79166,51.8668 L30.3333,51.8668 L30.3333,32.2668" fill-rule="nonzero" vector-effect="none"/></g><defs><clipPath id="clip73"><path d="M1,1 L56,1 L56,57 L1,57 L1,1 z"/></clipPath></defs><g clip-path="url(#clip73)" fill="none" opacity="1" stroke="#35d461" stroke-linecap="butt" stroke-linejoin="miter" stroke-miterlimit="20" stroke-opacity="1" stroke-width="1.8525" transform="matrix(2.98507,0,0,2.98507,26.8657,2.98507)"><path d="M0.999999,43.0001 L8.79166,43.0001" fill-rule="nonzero" vector-effect="none"/></g><defs><clipPath id="clip74"><path d="M1,1 L56,1 L56,57 L1,57 L1,1 z"/></clipPath></defs><g clip-path="url(#clip74)" fill="none" opacity="1" stroke="#000000" stroke-linecap="butt" stroke-linejoin="miter" stroke-miterlimit="4" stroke-opacity="1" stroke-width="1.8525" transform="matrix(2.98507,0,0,2.98507,26.8657,2.98507)"><path d="M30.7916,15.9334 C34.7727,16.037 38.5721,17.6507 41.4455,20.4582 C44.3188,23.2658 46.0587,27.0646 46.3242,31.1103 C46.5899,35.156 45.3619,39.1569 42.8811,42.3288 C40.4003,45.5006 36.8455,47.6148 32.9136,48.2569 C28.9814,48.8992 24.9555,48.0229 21.625,45.8001" fill-rule="nonzero" vector-effect="none"/></g><defs><clipPath id="clip75"><path d="M1,1 L56,1 L56,57 L1,57 L1,1 z"/></clipPath></defs><g clip-path="url(#clip75)" fill="none" opacity="1" stroke="#000000" stroke-linecap="butt" stroke-linejoin="miter" stroke-miterlimit="4" stroke-opacity="1" stroke-width="1.8525" transform="matrix(2.98507,0,0,2.98507,26.8657,2.98507)"><path d="M18.4167,43.0001 C17.2319,41.6255 16.3003,40.0447 15.6667,38.3334" fill-rule="nonzero" vector-effect="none"/></g><defs><clipPath id="clip76"><path d="M1,1 L56,1 L56,57 L1,57 L1,1 z"/></clipPath></defs><g clip-path="url(#clip76)" fill="none" opacity="1" stroke="#000000" stroke-linecap="butt" stroke-linejoin="miter" stroke-miterlimit="4" stroke-opacity="1" stroke-width="1.8525" transform="matrix(2.98507,0,0,2.98507,26.8657,2.98507)"><path d="M14.75,36.0001 C13.9314,32.6864 14.1653,29.1938 15.418,26.024 C16.6706,22.8542 18.8777,20.17 21.7223,18.3571 C24.5666,16.5441 27.9023,15.6956 31.25,15.9334" fill-rule="nonzero" vector-effect="none"/></g><defs><clipPath id="clip77"><path d="M1,1 L56,1 L56,57 L1,57 L1,1 z"/></clipPath></defs><g clip-path="url(#clip77)" fill="none" opacity="1" stroke="#000000" stroke-linecap="butt" stroke-linejoin="miter" stroke-miterlimit="4" stroke-opacity="1" stroke-width="1.8525" transform="matrix(2.98507,0,0,2.98507,26.8657,2.98507)"><path d="M30.3333,14.0667 C34.6601,14.086 38.8347,15.6958 42.0885,18.5998 C45.3424,21.5038 47.4566,25.5068 48.0423,29.8719 C48.6279,34.237 47.6454,38.6705 45.2758,42.3566 C42.9061,46.0428 39.3087,48.7336 35.1453,49.9338 C30.9821,51.134 26.5331,50.7627 22.6172,48.8886 C18.7013,47.0143 15.5821,43.7632 13.8333,39.7335" fill-rule="nonzero" vector-effect="none"/></g><defs><clipPath id="clip78"><path d="M1,1 L56,1 L56,57 L1,57 L1,1 z"/></clipPath></defs><g clip-path="url(#clip78)" fill="none" opacity="1" stroke="#ffffff" stroke-linecap="butt" stroke-linejoin="miter" stroke-miterlimit="20" stroke-opacity="1" stroke-width="1.8525" transform="matrix(2.98507,0,0,2.98507,26.8657,2.98507)"><path d="M0.999999,1 L56,1 L56,57.0002 L0.999999,57.0002 L0.999999,1 z" fill-rule="nonzero" vector-effect="none"/></g><defs><clipPath id="clip79"><path d="M1,1 L56,1 L56,57 L1,57 L1,1 z"/></clipPath></defs><g clip-path="url(#clip79)" fill="none" opacity="1" stroke="#a06c70" stroke-linecap="butt" stroke-linejoin="miter" stroke-miterlimit="20" stroke-opacity="1" stroke-width="1.8525" transform="matrix(2.98507,0,0,2.98507,26.8657,2.98507)"><path d="M10.625,27.6001 L9.24999,23.4001" fill-rule="nonzero" vector-effect="none"/></g><defs><clipPath id="clip80"><path d="M1,1 L56,1 L56,57 L1,57 L1,1 z"/></clipPath></defs><g clip-path="url(#clip80)" fill="none" opacity="1" stroke="#a06c70" stroke-linecap="butt" stroke-linejoin="miter" stroke-miterlimit="20" stroke-opacity="1" stroke-width="1.8525" transform="matrix(2.98507,0,0,2.98507,26.8657,2.98507)"><path d="M4.66666,24.8001 L12.9167,22.0001" fill-rule="nonzero" vector-effect="none"/></g><defs><clipPath id="clip81"><path d="M1,1 L56,1 L56,57 L1,57 L1,1 z"/></clipPath></defs><g clip-path="url(#clip81)" fill="none" opacity="1" stroke="#a06c70" stroke-linecap="butt" stroke-linejoin="miter" stroke-miterlimit="20" stroke-opacity="1" stroke-width="1.8525" transform="matrix(2.98507,0,0,2.98507,26.8657,2.98507)"><path d="M15.2083,15 L30.7916,15" fill-rule="nonzero" vector-effect="none"/></g><defs><clipPath id="clip82"><path d="M1,1 L56,1 L56,57 L1,57 L1,1 z"/></clipPath></defs><g clip-path="url(#clip82)" fill="none" opacity="1" stroke="#a06c70" stroke-linecap="butt" stroke-linejoin="miter" stroke-miterlimit="20" stroke-opacity="1" stroke-width="1.8525" transform="matrix(2.98507,0,0,2.98507,26.8657,2.98507)"><path d="M16.125,41.6001 L10.625,27.6001" fill-rule="nonzero" vector-effect="none"/></g><defs><clipPath id="clip83"><path d="M1,1 L56,1 L56,57 L1,57 L1,1 z"/></clipPath></defs><g clip-path="url(#clip83)" fill="none" opacity="1" stroke="#a06c70" stroke-linecap="butt" stroke-linejoin="miter" stroke-miterlimit="4" stroke-opacity="1" stroke-width="1.8525" transform="matrix(2.98507,0,0,2.98507,26.8657,2.98507)"><path d="M30.7916,15 C34.7449,15.1208 38.5329,16.6415 41.5034,19.3001 C44.4739,21.9588 46.4408,25.5887 47.0655,29.5651 C47.6902,33.5415 46.9333,37.6153 44.9254,41.0845 C42.9174,44.554 39.7841,47.2017 36.0652,48.5718 C32.3462,49.9421 28.2744,49.9488 24.551,48.5912 C20.8275,47.2333 17.6857,44.5961 15.6667,41.1335" fill-rule="nonzero" vector-effect="none"/></g><defs><clipPath id="clip100"><path d="M-15,-220 L267,-220 L267,67 L-15,67 L-15,-220 z"/></clipPath></defs><g clip-path="url(#clip100)" fill="none" opacity="1" stroke="#e60000" stroke-linecap="square" stroke-linejoin="bevel" stroke-opacity="1" stroke-width="1" transform="matrix(0.583022,0,0,0.583022,38.806,134.328)"><text fill="#e60000" fill-opacity="1" font-family="Liberation Sans" font-size="40" font-style="normal" font-weight="400" stroke="none" textLength="27" x="0" xml:space="preserve" y="17.9219">S</text></g><defs><clipPath id="clip103"><path d="M-15,-67 L267,-67 L267,220 L-15,220 L-15,-67 z"/></clipPath></defs><g clip-path="url(#clip103)" fill="none" opacity="1" stroke="#e60000" stroke-linecap="square" stroke-linejoin="bevel" stroke-opacity="1" stroke-width="1" transform="matrix(0.583022,0,0,0.583022,38.806,44.7761)"><text fill="#e60000" fill-opacity="1" font-family="Liberation Sans" font-size="40" font-style="normal" font-weight="400" stroke="none" textLength="24" x="0" xml:space="preserve" y="17.9219">F</text></g><defs><clipPath id="clip109"><path d="M-10,-2 L57,-2 L57,58 L-10,58 L-10,-2 z"/></clipPath></defs><g clip-path="url(#clip109)" fill="none" opacity="1" stroke="none" stroke-opacity="0" transform="matrix(2.98507,0,0,2.98507,29.8507,5.97015)"><path d="M0,0 L55,0 L55,56 L0,56 L0,0 z" fill-rule="evenodd" vector-effect="none"/></g></g></svg>
