<?xml version="1.0" encoding="UTF-8"?><svg width="52.9167mm" height="29.6333mm" viewBox="0 0 200 112" xmlns="http://www.w3.org/2000/svg" xmlns:xlink="http://www.w3.org/1999/xlink"><g fill="none" stroke="black" stroke-width="1" fill-rule="evenodd" stroke-linecap="square" stroke-linejoin="bevel"><g clip-path="none" fill="none" opacity="1" stroke="none" stroke-opacity="0" transform="matrix(1,0,0,1,0,0)"><path d="M0,0 L200,0 L200,112 L0,112 L0,0 z" fill-rule="evenodd" vector-effect="none"/></g><defs><clipPath id="clip6"><path d="M0,0 L10,0 L10,10 L0,10 L0,0 z"/></clipPath></defs><g clip-path="url(#clip6)" fill="#b3b3b3" fill-opacity="1" opacity="1" stroke="none" stroke-opacity="0" transform="matrix(-2.66667,0,0,2.66667,26.6667,45.3333)"><path d="M0.5,3.5 L3.5,3.5 L3.5,6.5 L0.5,6.5 L0.5,3.5 z" fill-rule="evenodd" vector-effect="none"/></g><defs><clipPath id="clip8"><path d="M0,0 L10,0 L10,10 L0,10 L0,0 z"/></clipPath></defs><g clip-path="url(#clip8)" fill="#000000" fill-opacity="1" opacity="1" stroke="none" stroke-opacity="0" transform="matrix(-2.66667,0,0,2.66667,26.6667,45.3333)"><path d="M3,4 L3,6 L1,6 L1,4 L3,4 M4,3 L0,3 L0,7 L4,7 L4,3" fill-rule="nonzero" vector-effect="none"/></g><defs><clipPath id="clip28"><path d="M0,0 L10,0 L10,10 L0,10 L0,0 z"/></clipPath></defs><g clip-path="url(#clip28)" fill="#b3b3b3" fill-opacity="1" opacity="1" stroke="none" stroke-opacity="0" transform="matrix(2.66667,0,0,2.66667,173.333,45.3333)"><path d="M0.5,3.5 L3.5,3.5 L3.5,6.5 L0.5,6.5 L0.5,3.5 z" fill-rule="evenodd" vector-effect="none"/></g><defs><clipPath id="clip30"><path d="M0,0 L10,0 L10,10 L0,10 L0,0 z"/></clipPath></defs><g clip-path="url(#clip30)" fill="#000000" fill-opacity="1" opacity="1" stroke="none" stroke-opacity="0" transform="matrix(2.66667,0,0,2.66667,173.333,45.3333)"><path d="M3,4 L3,6 L1,6 L1,4 L3,4 M4,3 L0,3 L0,7 L4,7 L4,3" fill-rule="nonzero" vector-effect="none"/></g><defs><clipPath id="clip47"><path d="M-10,-2 L65,-2 L65,40 L-10,40 L-10,-2 z"/></clipPath></defs><g clip-path="url(#clip47)" fill="#ffffff" fill-opacity="1" opacity="1" stroke="none" stroke-opacity="0" transform="matrix(2.66667,0,0,2.66667,26.6667,5.33333)"><path d="M0,0 L55,0 L55,38 L0,38 L0,0 z" fill-rule="evenodd" vector-effect="none"/></g><defs><clipPath id="clip51"><path d="M0,0 L55,0 L55,38 L0,38 L0,0 z"/></clipPath></defs><g clip-path="url(#clip51)" fill="none" opacity="1" stroke="none" stroke-opacity="0" transform="matrix(2.66667,0,0,2.66667,26.6667,5.33333)"><path d="M0,0 L55,0 L55,38 L0,38 L0,0 z" fill-rule="evenodd" vector-effect="none"/></g><defs><clipPath id="clip61"><path d="M1,1 L56,1 L56,39 L1,39 L1,1 z"/></clipPath></defs><g clip-path="url(#clip61)" fill="none" opacity="1" stroke="#35d461" stroke-linecap="butt" stroke-linejoin="miter" stroke-miterlimit="20" stroke-opacity="1" stroke-width="1.2675" transform="matrix(2.66667,0,0,2.66667,24,2.66667)"><path d="M23.0142,24.75 L33.9861,24.75 L23.4362,28.075 L33.9861,31.875 L24.2801,35.2 L33.5641,35.2" fill-rule="nonzero" vector-effect="none"/></g><defs><clipPath id="clip62"><path d="M4,9 L356,9 L356,225 L4,225 L4,9 z"/></clipPath></defs><g clip-path="url(#clip62)" fill="#35d461" fill-opacity="1" opacity="1" stroke="none" stroke-opacity="0" transform="matrix(0.416787,0,0,0.469136,24.9787,1.11111)"><path d="M355.05,116.55 L355.95,116.55 L355.95,117.45 L355.05,117.45 L355.05,116.55 z" fill-rule="nonzero" vector-effect="none"/></g><defs><clipPath id="clip63"><path d="M1,1 L56,1 L56,39 L1,39 L1,1 z"/></clipPath></defs><g clip-path="url(#clip63)" fill="none" opacity="1" stroke="#35d461" stroke-linecap="butt" stroke-linejoin="miter" stroke-miterlimit="20" stroke-opacity="1" stroke-width="1.2675" transform="matrix(2.66667,0,0,2.66667,24,2.66667)"><path d="M20.9042,17.625 L28.5001,8.60001 L36.518,17.625" fill-rule="nonzero" vector-effect="none"/></g><defs><clipPath id="clip64"><path d="M4,9 L356,9 L356,225 L4,225 L4,9 z"/></clipPath></defs><g clip-path="url(#clip64)" fill="#35d461" fill-opacity="1" opacity="1" stroke="none" stroke-opacity="0" transform="matrix(0.416787,0,0,0.469136,24.9787,1.11111)"><path d="M4.05,116.55 L4.95,116.55 L4.95,117.45 L4.05,117.45 L4.05,116.55 z" fill-rule="nonzero" vector-effect="none"/></g><defs><clipPath id="clip65"><path d="M1,1 L56,1 L56,39 L1,39 L1,1 z"/></clipPath></defs><g clip-path="url(#clip65)" fill="none" opacity="1" stroke="#35d461" stroke-linecap="butt" stroke-linejoin="miter" stroke-miterlimit="20" stroke-opacity="1" stroke-width="1.2675" transform="matrix(2.66667,0,0,2.66667,24,2.66667)"><path d="M21.3262,22.375 L21.3262,37.575 L35.6741,37.575 L35.6741,22.85" fill-rule="nonzero" vector-effect="none"/></g><defs><clipPath id="clip66"><path d="M1,1 L56,1 L56,39 L1,39 L1,1 z"/></clipPath></defs><g clip-path="url(#clip66)" fill="none" opacity="1" stroke="#35d461" stroke-linecap="butt" stroke-linejoin="miter" stroke-miterlimit="20" stroke-opacity="1" stroke-width="1.2675" transform="matrix(2.66667,0,0,2.66667,24,2.66667)"><path d="M1.07034,19.9789 L8.45059,19.9789 L8.45059,26.3861 L13.0925,26.3861" fill-rule="nonzero" vector-effect="none"/></g><defs><clipPath id="clip67"><path d="M1,1 L56,1 L56,39 L1,39 L1,1 z"/></clipPath></defs><g clip-path="url(#clip67)" fill="none" opacity="1" stroke="#35d461" stroke-linecap="butt" stroke-linejoin="miter" stroke-miterlimit="20" stroke-opacity="1" stroke-width="1.2675" transform="matrix(2.66667,0,0,2.66667,24,2.66667)"><path d="M55.9486,19.9789 L47.293,19.9789 L47.293,23.4622 L45.0799,23.4622" fill-rule="nonzero" vector-effect="none"/></g><defs><clipPath id="clip68"><path d="M1,1 L56,1 L56,39 L1,39 L1,1 z"/></clipPath></defs><g clip-path="url(#clip68)" fill="none" opacity="1" stroke="#35d461" stroke-linecap="butt" stroke-linejoin="miter" stroke-miterlimit="4" stroke-opacity="1" stroke-width="1.2675" transform="matrix(2.66667,0,0,2.66667,24,2.66667)"><path d="M28.5001,15.25 C29.6107,15.2805 30.6685,15.7907 31.4541,16.675 C32.2396,17.5592 32.693,18.7499 32.7201,20" fill-rule="nonzero" vector-effect="none"/></g><defs><clipPath id="clip69"><path d="M1,1 L56,1 L56,39 L1,39 L1,1 z"/></clipPath></defs><g clip-path="url(#clip69)" fill="none" opacity="1" stroke="#35d461" stroke-linecap="butt" stroke-linejoin="miter" stroke-miterlimit="4" stroke-opacity="1" stroke-width="1.2675" transform="matrix(2.66667,0,0,2.66667,24,2.66667)"><path d="M28.5001,17.625 C29.0596,17.625 29.5964,17.8752 29.9921,18.3206 C30.3878,18.7661 30.6101,19.3702 30.6101,20" fill-rule="nonzero" vector-effect="none"/></g><defs><clipPath id="clip70"><path d="M1,1 L56,1 L56,39 L1,39 L1,1 z"/></clipPath></defs><g clip-path="url(#clip70)" fill="none" opacity="1" stroke="#35d461" stroke-linecap="butt" stroke-linejoin="miter" stroke-miterlimit="4" stroke-opacity="1" stroke-width="1.2675" transform="matrix(2.66667,0,0,2.66667,24,2.66667)"><path d="M36.5931,17.6567 C39.8925,18.6994 42.9513,20.5361 45.5582,23.04" fill-rule="nonzero" vector-effect="none"/></g><defs><clipPath id="clip71"><path d="M1,1 L56,1 L56,39 L1,39 L1,1 z"/></clipPath></defs><g clip-path="url(#clip71)" fill="none" opacity="1" stroke="#35d461" stroke-linecap="butt" stroke-linejoin="miter" stroke-miterlimit="4" stroke-opacity="1" stroke-width="1.2675" transform="matrix(2.66667,0,0,2.66667,24,2.66667)"><path d="M11.5171,23.04 C14.297,20.4843 17.5341,18.6336 21.0073,17.6145" fill-rule="nonzero" vector-effect="none"/></g><defs><clipPath id="clip72"><path d="M1,1 L56,1 L56,39 L1,39 L1,1 z"/></clipPath></defs><g clip-path="url(#clip72)" fill="none" opacity="1" stroke="#35d461" stroke-linecap="butt" stroke-linejoin="miter" stroke-miterlimit="4" stroke-opacity="1" stroke-width="1.2675" transform="matrix(2.66667,0,0,2.66667,24,2.66667)"><path d="M13.7677,27.3361 C15.9677,25.1434 18.5571,23.5025 21.3637,22.5228" fill-rule="nonzero" vector-effect="none"/></g><defs><clipPath id="clip73"><path d="M1,1 L56,1 L56,39 L1,39 L1,1 z"/></clipPath></defs><g clip-path="url(#clip73)" fill="none" opacity="1" stroke="#35d461" stroke-linecap="butt" stroke-linejoin="miter" stroke-miterlimit="4" stroke-opacity="1" stroke-width="1.2675" transform="matrix(2.66667,0,0,2.66667,24,2.66667)"><path d="M35.6741,22.85 C38.4242,23.6719 40.9648,25.2085 43.0918,27.3361" fill-rule="nonzero" vector-effect="none"/></g><defs><clipPath id="clip74"><path d="M1,1 L56,1 L56,39 L1,39 L1,1 z"/></clipPath></defs><g clip-path="url(#clip74)" fill="none" opacity="1" stroke="#35d461" stroke-linecap="butt" stroke-linejoin="miter" stroke-miterlimit="4" stroke-opacity="1" stroke-width="1.2675" transform="matrix(2.66667,0,0,2.66667,24,2.66667)"><path d="M34.8301,20 C34.8301,23.935 31.996,27.125 28.5001,27.125 C25.0042,27.125 22.1702,23.935 22.1702,20 C22.1702,16.065 25.0042,12.875 28.5001,12.875 C31.996,12.875 34.8301,16.065 34.8301,20 z" fill-rule="nonzero" vector-effect="none"/></g><defs><clipPath id="clip75"><path d="M1,1 L56,1 L56,39 L1,39 L1,1 z"/></clipPath></defs><g clip-path="url(#clip75)" fill="none" opacity="1" stroke="#ffffff" stroke-linecap="butt" stroke-linejoin="miter" stroke-miterlimit="20" stroke-opacity="1" stroke-width="1.2675" transform="matrix(2.66667,0,0,2.66667,24,2.66667)"><path d="M1.07034,1 L55.9299,1 L55.9299,39 L1.07034,39 L1.07034,1 z" fill-rule="nonzero" vector-effect="none"/></g><defs><clipPath id="clip76"><path d="M1,1 L56,1 L56,39 L1,39 L1,1 z"/></clipPath></defs><g clip-path="url(#clip76)" fill="none" opacity="1" stroke="#35d461" stroke-linecap="butt" stroke-linejoin="miter" stroke-miterlimit="20" stroke-opacity="1" stroke-width="1.2675" transform="matrix(2.66667,0,0,2.66667,24,2.66667)"><path d="M28.5001,10.025 L20.9042,18.575" fill-rule="nonzero" vector-effect="none"/></g><defs><clipPath id="clip77"><path d="M1,1 L56,1 L56,39 L1,39 L1,1 z"/></clipPath></defs><g clip-path="url(#clip77)" fill="none" opacity="1" stroke="#35d461" stroke-linecap="butt" stroke-linejoin="miter" stroke-miterlimit="20" stroke-opacity="1" stroke-width="1.2675" transform="matrix(2.66667,0,0,2.66667,24,2.66667)"><path d="M22.1702,21.425 L22.1702,36.625 L34.8301,36.625 L34.8301,21.425" fill-rule="nonzero" vector-effect="none"/></g><defs><clipPath id="clip78"><path d="M1,1 L56,1 L56,39 L1,39 L1,1 z"/></clipPath></defs><g clip-path="url(#clip78)" fill="none" opacity="1" stroke="#35d461" stroke-linecap="butt" stroke-linejoin="miter" stroke-miterlimit="20" stroke-opacity="1" stroke-width="1.2675" transform="matrix(2.66667,0,0,2.66667,24,2.66667)"><path d="M28.5001,10.025 L36.096,18.575" fill-rule="nonzero" vector-effect="none"/></g><defs><clipPath id="clip79"><path d="M1,1 L56,1 L56,39 L1,39 L1,1 z"/></clipPath></defs><g clip-path="url(#clip79)" fill="none" opacity="1" stroke="#35d461" stroke-linecap="butt" stroke-linejoin="miter" stroke-miterlimit="4" stroke-opacity="1" stroke-width="1.2675" transform="matrix(2.66667,0,0,2.66667,24,2.66667)"><path d="M13.3082,26.65 C15.7748,24.0173 18.843,22.2084 22.1702,21.425" fill-rule="nonzero" vector-effect="none"/></g><defs><clipPath id="clip80"><path d="M1,1 L56,1 L56,39 L1,39 L1,1 z"/></clipPath></defs><g clip-path="url(#clip80)" fill="none" opacity="1" stroke="#35d461" stroke-linecap="butt" stroke-linejoin="miter" stroke-miterlimit="4" stroke-opacity="1" stroke-width="1.2675" transform="matrix(2.66667,0,0,2.66667,24,2.66667)"><path d="M34.8301,21.425 C38.084,22.4274 41.107,24.2099 43.692,26.65" fill-rule="nonzero" vector-effect="none"/></g><defs><clipPath id="clip81"><path d="M1,1 L56,1 L56,39 L1,39 L1,1 z"/></clipPath></defs><g clip-path="url(#clip81)" fill="none" opacity="1" stroke="#35d461" stroke-linecap="butt" stroke-linejoin="miter" stroke-miterlimit="4" stroke-opacity="1" stroke-width="1.2675" transform="matrix(2.66667,0,0,2.66667,24,2.66667)"><path d="M36.096,18.575 C39.3221,19.6559 42.3316,21.4303 44.958,23.8" fill-rule="nonzero" vector-effect="none"/></g><defs><clipPath id="clip82"><path d="M1,1 L56,1 L56,39 L1,39 L1,1 z"/></clipPath></defs><g clip-path="url(#clip82)" fill="none" opacity="1" stroke="#35d461" stroke-linecap="butt" stroke-linejoin="miter" stroke-miterlimit="4" stroke-opacity="1" stroke-width="1.2675" transform="matrix(2.66667,0,0,2.66667,24,2.66667)"><path d="M12.0422,23.8 C14.6815,21.4526 17.687,19.6805 20.9042,18.575" fill-rule="nonzero" vector-effect="none"/></g><defs><clipPath id="clip99"><path d="M-266,-97 L16,-97 L16,98 L-266,98 L-266,-97 z"/></clipPath></defs><g clip-path="url(#clip99)" fill="none" opacity="1" stroke="#e60000" stroke-linecap="square" stroke-linejoin="bevel" stroke-opacity="1" stroke-width="1" transform="matrix(0.520833,0,0,0.520833,165.333,56)"><text fill="#e60000" fill-opacity="1" font-family="Liberation Sans" font-size="40" font-style="normal" font-weight="400" stroke="none" textLength="29" x="-36.9531" xml:space="preserve" y="17.9219">C</text></g><defs><clipPath id="clip102"><path d="M-15,-97 L267,-97 L267,98 L-15,98 L-15,-97 z"/></clipPath></defs><g clip-path="url(#clip102)" fill="none" opacity="1" stroke="#e60000" stroke-linecap="square" stroke-linejoin="bevel" stroke-opacity="1" stroke-width="1" transform="matrix(0.520833,0,0,0.520833,34.6667,56)"><text fill="#e60000" fill-opacity="1" font-family="Liberation Sans" font-size="40" font-style="normal" font-weight="400" stroke="none" textLength="29" x="0" xml:space="preserve" y="17.9219">R</text></g><defs><clipPath id="clip108"><path d="M-10,-2 L65,-2 L65,40 L-10,40 L-10,-2 z"/></clipPath></defs><g clip-path="url(#clip108)" fill="none" opacity="1" stroke="none" stroke-opacity="0" transform="matrix(2.66667,0,0,2.66667,26.6667,5.33333)"><path d="M0,0 L55,0 L55,38 L0,38 L0,0 z" fill-rule="evenodd" vector-effect="none"/></g></g></svg>
