<?xml version="1.0" encoding="UTF-8"?><svg width="52.9167mm" height="43.9208mm" viewBox="0 0 200 166" xmlns="http://www.w3.org/2000/svg" xmlns:xlink="http://www.w3.org/1999/xlink"><g fill="none" stroke="black" stroke-width="1" fill-rule="evenodd" stroke-linecap="square" stroke-linejoin="bevel"><g clip-path="none" fill="none" opacity="1" stroke="none" stroke-opacity="0" transform="matrix(1,0,0,1,0,0)"><path d="M0,0 L200,0 L200,166 L0,166 L0,0 z" fill-rule="evenodd" vector-effect="none"/></g><defs><clipPath id="clip6"><path d="M0,0 L10,0 L10,10 L0,10 L0,0 z"/></clipPath></defs><g clip-path="url(#clip6)" fill="#ffffff" fill-opacity="1" opacity="1" stroke="none" stroke-opacity="0" transform="matrix(2.22222,0,0,2.22222,177.778,35.5556)"><path d="M0.5,0.809 L8.882,5 L0.5,9.191 L0.5,0.809 z" fill-rule="evenodd" vector-effect="none"/></g><defs><clipPath id="clip8"><path d="M0,0 L10,0 L10,10 L0,10 L0,0 z"/></clipPath></defs><g clip-path="url(#clip8)" fill="#000000" fill-opacity="1" opacity="1" stroke="none" stroke-opacity="0" transform="matrix(2.22222,0,0,2.22222,177.778,35.5556)"><path d="M1,1.618 L7.764,5 L1,8.382 L1,1.618 M0,0 L0,10 L10,5 L0,0" fill-rule="nonzero" vector-effect="none"/></g><defs><clipPath id="clip30"><path d="M0,0 L10,0 L10,10 L0,10 L0,0 z"/></clipPath></defs><g clip-path="url(#clip30)" fill="#b3b3b3" fill-opacity="1" opacity="1" stroke="none" stroke-opacity="0" transform="matrix(-2.22222,0,0,2.22222,22.2222,113.333)"><path d="M0.5,3.5 L3.5,3.5 L3.5,6.5 L0.5,6.5 L0.5,3.5 z" fill-rule="evenodd" vector-effect="none"/></g><defs><clipPath id="clip32"><path d="M0,0 L10,0 L10,10 L0,10 L0,0 z"/></clipPath></defs><g clip-path="url(#clip32)" fill="#000000" fill-opacity="1" opacity="1" stroke="none" stroke-opacity="0" transform="matrix(-2.22222,0,0,2.22222,22.2222,113.333)"><path d="M3,4 L3,6 L1,6 L1,4 L3,4 M4,3 L0,3 L0,7 L4,7 L4,3" fill-rule="nonzero" vector-effect="none"/></g><defs><clipPath id="clip52"><path d="M0,0 L10,0 L10,10 L0,10 L0,0 z"/></clipPath></defs><g clip-path="url(#clip52)" fill="#b3b3b3" fill-opacity="1" opacity="1" stroke="none" stroke-opacity="0" transform="matrix(2.22222,0,0,2.22222,177.778,113.333)"><path d="M0.5,3.5 L3.5,3.5 L3.5,6.5 L0.5,6.5 L0.5,3.5 z" fill-rule="evenodd" vector-effect="none"/></g><defs><clipPath id="clip54"><path d="M0,0 L10,0 L10,10 L0,10 L0,0 z"/></clipPath></defs><g clip-path="url(#clip54)" fill="#000000" fill-opacity="1" opacity="1" stroke="none" stroke-opacity="0" transform="matrix(2.22222,0,0,2.22222,177.778,113.333)"><path d="M3,4 L3,6 L1,6 L1,4 L3,4 M4,3 L0,3 L0,7 L4,7 L4,3" fill-rule="nonzero" vector-effect="none"/></g><defs><clipPath id="clip74"><path d="M0,0 L10,0 L10,10 L0,10 L0,0 z"/></clipPath></defs><g clip-path="url(#clip74)" fill="#b3b3b3" fill-opacity="1" opacity="1" stroke="none" stroke-opacity="0" transform="matrix(-2.22222,0,0,2.22222,22.2222,35.5556)"><path d="M0.5,3.5 L3.5,3.5 L3.5,6.5 L0.5,6.5 L0.5,3.5 z" fill-rule="evenodd" vector-effect="none"/></g><defs><clipPath id="clip76"><path d="M0,0 L10,0 L10,10 L0,10 L0,0 z"/></clipPath></defs><g clip-path="url(#clip76)" fill="#000000" fill-opacity="1" opacity="1" stroke="none" stroke-opacity="0" transform="matrix(-2.22222,0,0,2.22222,22.2222,35.5556)"><path d="M3,4 L3,6 L1,6 L1,4 L3,4 M4,3 L0,3 L0,7 L4,7 L4,3" fill-rule="nonzero" vector-effect="none"/></g><defs><clipPath id="clip93"><path d="M-10,-2 L80,-2 L80,73 L-10,73 L-10,-2 z"/></clipPath></defs><g clip-path="url(#clip93)" fill="#ffffff" fill-opacity="1" opacity="1" stroke="none" stroke-opacity="0" transform="matrix(2.22222,0,0,2.22222,22.2222,4.44444)"><path d="M0,0 L70,0 L70,71 L0,71 L0,0 z" fill-rule="evenodd" vector-effect="none"/></g><defs><clipPath id="clip97"><path d="M0,0 L70,0 L70,71 L0,71 L0,0 z"/></clipPath></defs><g clip-path="url(#clip97)" fill="none" opacity="1" stroke="none" stroke-opacity="0" transform="matrix(2.22222,0,0,2.22222,22.2222,4.44444)"><path d="M0,0 L70,0 L70,71 L0,71 L0,0 z" fill-rule="evenodd" vector-effect="none"/></g><defs><clipPath id="clip107"><path d="M1,1 L71,1 L71,72 L1,72 L1,1 z"/></clipPath></defs><g clip-path="url(#clip107)" fill="none" opacity="1" stroke="#35d461" stroke-linecap="butt" stroke-linejoin="miter" stroke-miterlimit="20" stroke-opacity="1" stroke-width="2.34" transform="matrix(2.22222,0,0,2.22222,20,2.22222)"><path d="M28.3913,40.05 L28.3913,68.45 L31.4348,68.45 L31.4348,63.48 L37.5218,63.48 L37.5218,57.8 L31.4348,57.8 L31.4348,50.7 L37.5218,50.7 L37.5218,45.02 L31.4348,45.02 L31.4348,40.05 L28.3913,40.05 z" fill-rule="nonzero" vector-effect="none"/></g><defs><clipPath id="clip108"><path d="M1,1 L71,1 L71,72 L1,72 L1,1 z"/></clipPath></defs><g clip-path="url(#clip108)" fill="none" opacity="1" stroke="#35d461" stroke-linecap="butt" stroke-linejoin="miter" stroke-miterlimit="20" stroke-opacity="1" stroke-width="2.34" transform="matrix(2.22222,0,0,2.22222,20,2.22222)"><path d="M50.3044,40.05 L40.5652,40.05 L40.5652,45.02 L46.6522,45.02 L46.6522,50.7 L40.5652,50.7 L40.5652,57.8 L46.6522,57.8 L46.6522,63.48 L40.5652,63.48 L40.5652,68.45 L50.3044,68.45 L50.3044,40.05 z" fill-rule="nonzero" vector-effect="none"/></g><defs><clipPath id="clip109"><path d="M1,1 L71,1 L71,72 L1,72 L1,1 z"/></clipPath></defs><g clip-path="url(#clip109)" fill="none" opacity="1" stroke="#44805c" stroke-linecap="butt" stroke-linejoin="miter" stroke-miterlimit="20" stroke-opacity="1" stroke-width="2.34" transform="matrix(2.22222,0,0,2.22222,20,2.22222)"><path d="M0.999997,18.75 L25.3478,18.75 L25.3478,42.18" fill-rule="nonzero" vector-effect="none"/></g><defs><clipPath id="clip110"><path d="M1,1 L71,1 L71,72 L1,72 L1,1 z"/></clipPath></defs><g clip-path="url(#clip110)" fill="none" opacity="1" stroke="#35d461" stroke-linecap="butt" stroke-linejoin="miter" stroke-miterlimit="20" stroke-opacity="1" stroke-width="2.34" transform="matrix(2.22222,0,0,2.22222,20,2.22222)"><path d="M0.999997,54.25 L19.2609,54.25" fill-rule="nonzero" vector-effect="none"/></g><defs><clipPath id="clip111"><path d="M1,1 L71,1 L71,72 L1,72 L1,1 z"/></clipPath></defs><g clip-path="url(#clip111)" fill="none" opacity="1" stroke="#35d461" stroke-linecap="butt" stroke-linejoin="miter" stroke-miterlimit="20" stroke-opacity="1" stroke-width="2.34" transform="matrix(2.22222,0,0,2.22222,20,2.22222)"><path d="M50.3044,54.25 L71,54.25" fill-rule="nonzero" vector-effect="none"/></g><defs><clipPath id="clip112"><path d="M1,1 L71,1 L71,72 L1,72 L1,1 z"/></clipPath></defs><g clip-path="url(#clip112)" fill="none" opacity="1" stroke="#35d461" stroke-linecap="butt" stroke-linejoin="miter" stroke-miterlimit="20" stroke-opacity="1" stroke-width="2.34" transform="matrix(2.22222,0,0,2.22222,20,2.22222)"><path d="M22.3044,45.02 L28.3913,45.02 L28.3913,63.48 L22.3044,63.48 L22.3044,45.02 z" fill-rule="nonzero" vector-effect="none"/></g><defs><clipPath id="clip113"><path d="M1,1 L71,1 L71,72 L1,72 L1,1 z"/></clipPath></defs><g clip-path="url(#clip113)" fill="none" opacity="1" stroke="#35d461" stroke-linecap="butt" stroke-linejoin="miter" stroke-miterlimit="20" stroke-opacity="1" stroke-width="2.34" transform="matrix(2.22222,0,0,2.22222,20,2.22222)"><path d="M19.2609,40.05 L22.3044,40.05 L22.3044,68.45 L19.2609,68.45 L19.2609,40.05 z" fill-rule="nonzero" vector-effect="none"/></g><defs><clipPath id="clip114"><path d="M1,1 L71,1 L71,72 L1,72 L1,1 z"/></clipPath></defs><g clip-path="url(#clip114)" fill="none" opacity="1" stroke="#ffffff" stroke-linecap="butt" stroke-linejoin="miter" stroke-miterlimit="20" stroke-opacity="1" stroke-width="2.34" transform="matrix(2.22222,0,0,2.22222,20,2.22222)"><path d="M0.999997,0.999997 L71,0.999997 L71,72 L0.999997,72 L0.999997,0.999997 z" fill-rule="nonzero" vector-effect="none"/></g><defs><clipPath id="clip115"><path d="M1,1 L71,1 L71,72 L1,72 L1,1 z"/></clipPath></defs><g clip-path="url(#clip115)" fill="none" opacity="1" stroke="#a06c70" stroke-linecap="butt" stroke-linejoin="miter" stroke-miterlimit="20" stroke-opacity="1" stroke-width="2.34" transform="matrix(2.22222,0,0,2.22222,20,2.22222)"><path d="M31.4348,18.75 L31.4348,22.3" fill-rule="nonzero" vector-effect="none"/></g><defs><clipPath id="clip116"><path d="M1,1 L71,1 L71,72 L1,72 L1,1 z"/></clipPath></defs><g clip-path="url(#clip116)" fill="none" opacity="1" stroke="#a06c70" stroke-linecap="butt" stroke-linejoin="miter" stroke-miterlimit="20" stroke-opacity="1" stroke-width="2.34" transform="matrix(2.22222,0,0,2.22222,20,2.22222)"><path d="M31.4348,24.43 L31.4348,27.98" fill-rule="nonzero" vector-effect="none"/></g><defs><clipPath id="clip117"><path d="M1,1 L71,1 L71,72 L1,72 L1,1 z"/></clipPath></defs><g clip-path="url(#clip117)" fill="none" opacity="1" stroke="#a06c70" stroke-linecap="butt" stroke-linejoin="miter" stroke-miterlimit="20" stroke-opacity="1" stroke-width="2.34" transform="matrix(2.22222,0,0,2.22222,20,2.22222)"><path d="M31.4348,30.11 L31.4348,33.66" fill-rule="nonzero" vector-effect="none"/></g><defs><clipPath id="clip118"><path d="M1,1 L71,1 L71,72 L1,72 L1,1 z"/></clipPath></defs><g clip-path="url(#clip118)" fill="none" opacity="1" stroke="#a06c70" stroke-linecap="butt" stroke-linejoin="miter" stroke-miterlimit="20" stroke-opacity="1" stroke-width="2.34" transform="matrix(2.22222,0,0,2.22222,20,2.22222)"><path d="M31.4348,35.79 L31.4348,39.34" fill-rule="nonzero" vector-effect="none"/></g><defs><clipPath id="clip119"><path d="M1,1 L71,1 L71,72 L1,72 L1,1 z"/></clipPath></defs><g clip-path="url(#clip119)" fill="none" opacity="1" stroke="#a06c70" stroke-linecap="butt" stroke-linejoin="miter" stroke-miterlimit="20" stroke-opacity="1" stroke-width="2.34" transform="matrix(2.22222,0,0,2.22222,20,2.22222)"><path d="M67.3479,18.75 L70.3913,18.75" fill-rule="nonzero" vector-effect="none"/></g><defs><clipPath id="clip120"><path d="M1,1 L71,1 L71,72 L1,72 L1,1 z"/></clipPath></defs><g clip-path="url(#clip120)" fill="none" opacity="1" stroke="#a06c70" stroke-linecap="butt" stroke-linejoin="miter" stroke-miterlimit="20" stroke-opacity="1" stroke-width="2.34" transform="matrix(2.22222,0,0,2.22222,20,2.22222)"><path d="M33.2609,18.75 L36.3044,18.75" fill-rule="nonzero" vector-effect="none"/></g><defs><clipPath id="clip121"><path d="M1,1 L71,1 L71,72 L1,72 L1,1 z"/></clipPath></defs><g clip-path="url(#clip121)" fill="none" opacity="1" stroke="#a06c70" stroke-linecap="butt" stroke-linejoin="miter" stroke-miterlimit="20" stroke-opacity="1" stroke-width="2.34" transform="matrix(2.22222,0,0,2.22222,20,2.22222)"><path d="M38.1305,18.75 L41.1739,18.75" fill-rule="nonzero" vector-effect="none"/></g><defs><clipPath id="clip122"><path d="M1,1 L71,1 L71,72 L1,72 L1,1 z"/></clipPath></defs><g clip-path="url(#clip122)" fill="none" opacity="1" stroke="#a06c70" stroke-linecap="butt" stroke-linejoin="miter" stroke-miterlimit="20" stroke-opacity="1" stroke-width="2.34" transform="matrix(2.22222,0,0,2.22222,20,2.22222)"><path d="M43,18.75 L46.0435,18.75" fill-rule="nonzero" vector-effect="none"/></g><defs><clipPath id="clip123"><path d="M1,1 L71,1 L71,72 L1,72 L1,1 z"/></clipPath></defs><g clip-path="url(#clip123)" fill="none" opacity="1" stroke="#a06c70" stroke-linecap="butt" stroke-linejoin="miter" stroke-miterlimit="20" stroke-opacity="1" stroke-width="2.34" transform="matrix(2.22222,0,0,2.22222,20,2.22222)"><path d="M47.8696,18.75 L50.9131,18.75" fill-rule="nonzero" vector-effect="none"/></g><defs><clipPath id="clip124"><path d="M1,1 L71,1 L71,72 L1,72 L1,1 z"/></clipPath></defs><g clip-path="url(#clip124)" fill="none" opacity="1" stroke="#a06c70" stroke-linecap="butt" stroke-linejoin="miter" stroke-miterlimit="20" stroke-opacity="1" stroke-width="2.34" transform="matrix(2.22222,0,0,2.22222,20,2.22222)"><path d="M52.7392,18.75 L55.7826,18.75" fill-rule="nonzero" vector-effect="none"/></g><defs><clipPath id="clip125"><path d="M1,1 L71,1 L71,72 L1,72 L1,1 z"/></clipPath></defs><g clip-path="url(#clip125)" fill="none" opacity="1" stroke="#a06c70" stroke-linecap="butt" stroke-linejoin="miter" stroke-miterlimit="20" stroke-opacity="1" stroke-width="2.34" transform="matrix(2.22222,0,0,2.22222,20,2.22222)"><path d="M57.6087,18.75 L60.6522,18.75" fill-rule="nonzero" vector-effect="none"/></g><defs><clipPath id="clip126"><path d="M1,1 L71,1 L71,72 L1,72 L1,1 z"/></clipPath></defs><g clip-path="url(#clip126)" fill="none" opacity="1" stroke="#a06c70" stroke-linecap="butt" stroke-linejoin="miter" stroke-miterlimit="20" stroke-opacity="1" stroke-width="2.34" transform="matrix(2.22222,0,0,2.22222,20,2.22222)"><path d="M62.4783,18.75 L65.5218,18.75" fill-rule="nonzero" vector-effect="none"/></g><defs><clipPath id="clip143"><path d="M-343,-271 L15,-271 L15,93 L-343,93 L-343,-271 z"/></clipPath></defs><g clip-path="url(#clip143)" fill="none" opacity="1" stroke="#e60000" stroke-linecap="square" stroke-linejoin="bevel" stroke-opacity="1" stroke-width="1" transform="matrix(0.434028,0,0,0.434028,171.111,122.222)"><text fill="#e60000" fill-opacity="1" font-family="Liberation Sans" font-size="40" font-style="normal" font-weight="400" stroke="none" textLength="29" x="-36.9531" xml:space="preserve" y="17.9219">H</text></g><defs><clipPath id="clip146"><path d="M-343,-92 L15,-92 L15,272 L-343,272 L-343,-92 z"/></clipPath></defs><g clip-path="url(#clip146)" fill="none" opacity="1" stroke="#e60000" stroke-linecap="square" stroke-linejoin="bevel" stroke-opacity="1" stroke-width="1" transform="matrix(0.434028,0,0,0.434028,171.111,44.4444)"><text fill="#e60000" fill-opacity="1" font-family="Liberation Sans" font-size="40" font-style="normal" font-weight="400" stroke="none" textLength="27" x="-34.125" xml:space="preserve" y="17.9219">X</text></g><defs><clipPath id="clip149"><path d="M-15,-271 L343,-271 L343,93 L-15,93 L-15,-271 z"/></clipPath></defs><g clip-path="url(#clip149)" fill="none" opacity="1" stroke="#e60000" stroke-linecap="square" stroke-linejoin="bevel" stroke-opacity="1" stroke-width="1" transform="matrix(0.434028,0,0,0.434028,28.8889,122.222)"><text fill="#e60000" fill-opacity="1" font-family="Liberation Sans" font-size="40" font-style="normal" font-weight="400" stroke="none" textLength="29" x="0" xml:space="preserve" y="17.9219">R</text></g><defs><clipPath id="clip152"><path d="M-15,-92 L343,-92 L343,272 L-15,272 L-15,-92 z"/></clipPath></defs><g clip-path="url(#clip152)" fill="none" opacity="1" stroke="#e60000" stroke-linecap="square" stroke-linejoin="bevel" stroke-opacity="1" stroke-width="1" transform="matrix(0.434028,0,0,0.434028,28.8889,44.4444)"><text fill="#e60000" fill-opacity="1" font-family="Liberation Sans" font-size="40" font-style="normal" font-weight="400" stroke="none" textLength="27" x="0" xml:space="preserve" y="17.9219">S</text></g><defs><clipPath id="clip158"><path d="M-10,-2 L80,-2 L80,73 L-10,73 L-10,-2 z"/></clipPath></defs><g clip-path="url(#clip158)" fill="none" opacity="1" stroke="none" stroke-opacity="0" transform="matrix(2.22222,0,0,2.22222,22.2222,4.44444)"><path d="M0,0 L70,0 L70,71 L0,71 L0,0 z" fill-rule="evenodd" vector-effect="none"/></g></g></svg>
