<?xml version="1.0" encoding="UTF-8"?><svg width="52.9167mm" height="42.3333mm" viewBox="0 0 200 160" xmlns="http://www.w3.org/2000/svg" xmlns:xlink="http://www.w3.org/1999/xlink"><g fill="none" stroke="black" stroke-width="1" fill-rule="evenodd" stroke-linecap="square" stroke-linejoin="bevel"><g clip-path="none" fill="none" opacity="1" stroke="none" stroke-opacity="0" transform="matrix(1,0,0,1,0,0)"><path d="M0,0 L200,0 L200,160 L0,160 L0,0 z" fill-rule="evenodd" vector-effect="none"/></g><defs><clipPath id="clip6"><path d="M0,0 L10,0 L10,10 L0,10 L0,0 z"/></clipPath></defs><g clip-path="url(#clip6)" fill="#b3b3b3" fill-opacity="1" opacity="1" stroke="none" stroke-opacity="0" transform="matrix(2.66667,0,0,2.66667,173.333,69.3333)"><path d="M0.5,3.5 L3.5,3.5 L3.5,6.5 L0.5,6.5 L0.5,3.5 z" fill-rule="evenodd" vector-effect="none"/></g><defs><clipPath id="clip8"><path d="M0,0 L10,0 L10,10 L0,10 L0,0 z"/></clipPath></defs><g clip-path="url(#clip8)" fill="#000000" fill-opacity="1" opacity="1" stroke="none" stroke-opacity="0" transform="matrix(2.66667,0,0,2.66667,173.333,69.3333)"><path d="M3,4 L3,6 L1,6 L1,4 L3,4 M4,3 L0,3 L0,7 L4,7 L4,3" fill-rule="nonzero" vector-effect="none"/></g><defs><clipPath id="clip28"><path d="M0,0 L10,0 L10,10 L0,10 L0,0 z"/></clipPath></defs><g clip-path="url(#clip28)" fill="#b3b3b3" fill-opacity="1" opacity="1" stroke="none" stroke-opacity="0" transform="matrix(-2.66667,0,0,2.66667,26.6667,69.3333)"><path d="M0.5,3.5 L3.5,3.5 L3.5,6.5 L0.5,6.5 L0.5,3.5 z" fill-rule="evenodd" vector-effect="none"/></g><defs><clipPath id="clip30"><path d="M0,0 L10,0 L10,10 L0,10 L0,0 z"/></clipPath></defs><g clip-path="url(#clip30)" fill="#000000" fill-opacity="1" opacity="1" stroke="none" stroke-opacity="0" transform="matrix(-2.66667,0,0,2.66667,26.6667,69.3333)"><path d="M3,4 L3,6 L1,6 L1,4 L3,4 M4,3 L0,3 L0,7 L4,7 L4,3" fill-rule="nonzero" vector-effect="none"/></g><defs><clipPath id="clip47"><path d="M-10,-2 L65,-2 L65,58 L-10,58 L-10,-2 z"/></clipPath></defs><g clip-path="url(#clip47)" fill="#ffffff" fill-opacity="1" opacity="1" stroke="none" stroke-opacity="0" transform="matrix(2.66667,0,0,2.66667,26.6667,5.33333)"><path d="M0,0 L55,0 L55,56 L0,56 L0,0 z" fill-rule="evenodd" vector-effect="none"/></g><defs><clipPath id="clip51"><path d="M0,0 L55,0 L55,56 L0,56 L0,0 z"/></clipPath></defs><g clip-path="url(#clip51)" fill="none" opacity="1" stroke="none" stroke-opacity="0" transform="matrix(2.66667,0,0,2.66667,26.6667,5.33333)"><path d="M0,0 L55,0 L55,56 L0,56 L0,0 z" fill-rule="evenodd" vector-effect="none"/></g><defs><clipPath id="clip61"><path d="M1,1 L56,1 L56,57 L1,57 L1,1 z"/></clipPath></defs><g clip-path="url(#clip61)" fill="none" opacity="1" stroke="#35d461" stroke-linecap="butt" stroke-linejoin="miter" stroke-miterlimit="20" stroke-opacity="1" stroke-width="1.8525" transform="matrix(2.66667,0,0,2.66667,24,2.66667)"><path d="M28.5002,5.66668 L19.3334,15 L28.5002,24.8001 L38.1252,15 L28.5002,5.66668 z" fill-rule="nonzero" vector-effect="none"/></g><defs><clipPath id="clip62"><path d="M1,1 L56,1 L56,57 L1,57 L1,1 z"/></clipPath></defs><g clip-path="url(#clip62)" fill="none" opacity="1" stroke="#35d461" stroke-linecap="butt" stroke-linejoin="miter" stroke-miterlimit="20" stroke-opacity="1" stroke-width="1.8525" transform="matrix(2.66667,0,0,2.66667,24,2.66667)"><path d="M28.5002,33.2001 L19.3334,43.0001 L28.5002,52.3335 L38.1252,43.0001 L28.5002,33.2001 z" fill-rule="nonzero" vector-effect="none"/></g><defs><clipPath id="clip63"><path d="M9,9 L333,9 L333,333 L9,333 L9,9 z"/></clipPath></defs><g clip-path="url(#clip63)" fill="#35d461" fill-opacity="1" opacity="1" stroke="none" stroke-opacity="0" transform="matrix(0.452677,0,0,0.460907,22.5926,1.18518)"><path d="M90,87.3 L117,87.3 L117,92.7 L90,92.7 L90,87.3 z" fill-rule="nonzero" vector-effect="none"/></g><defs><clipPath id="clip64"><path d="M1,1 L56,1 L56,57 L1,57 L1,1 z"/></clipPath></defs><g clip-path="url(#clip64)" fill="none" opacity="1" stroke="#35d461" stroke-linecap="butt" stroke-linejoin="miter" stroke-miterlimit="20" stroke-opacity="1" stroke-width="1.8525" transform="matrix(2.66667,0,0,2.66667,24,2.66667)"><path d="M14.7501,14.5334 L19.3334,14.5334 L19.3334,15.4667 L14.7501,15.4667 L14.7501,14.5334 z" fill-rule="nonzero" vector-effect="none"/></g><defs><clipPath id="clip65"><path d="M9,9 L333,9 L333,333 L9,333 L9,9 z"/></clipPath></defs><g clip-path="url(#clip65)" fill="#35d461" fill-opacity="1" opacity="1" stroke="none" stroke-opacity="0" transform="matrix(0.452677,0,0,0.460907,22.5926,1.18518)"><path d="M227.7,87.3 L254.7,87.3 L254.7,92.7 L227.7,92.7 L227.7,87.3 z" fill-rule="nonzero" vector-effect="none"/></g><defs><clipPath id="clip66"><path d="M1,1 L56,1 L56,57 L1,57 L1,1 z"/></clipPath></defs><g clip-path="url(#clip66)" fill="none" opacity="1" stroke="#35d461" stroke-linecap="butt" stroke-linejoin="miter" stroke-miterlimit="20" stroke-opacity="1" stroke-width="1.8525" transform="matrix(2.66667,0,0,2.66667,24,2.66667)"><path d="M38.1252,14.5334 L42.7086,14.5334 L42.7086,15.4667 L38.1252,15.4667 L38.1252,14.5334 z" fill-rule="nonzero" vector-effect="none"/></g><defs><clipPath id="clip67"><path d="M9,9 L333,9 L333,333 L9,333 L9,9 z"/></clipPath></defs><g clip-path="url(#clip67)" fill="#35d461" fill-opacity="1" opacity="1" stroke="none" stroke-opacity="0" transform="matrix(0.452677,0,0,0.460907,22.5926,1.18518)"><path d="M92.7,249.3 L119.7,249.3 L119.7,254.7 L92.7,254.7 L92.7,249.3 z" fill-rule="nonzero" vector-effect="none"/></g><defs><clipPath id="clip68"><path d="M1,1 L56,1 L56,57 L1,57 L1,1 z"/></clipPath></defs><g clip-path="url(#clip68)" fill="none" opacity="1" stroke="#35d461" stroke-linecap="butt" stroke-linejoin="miter" stroke-miterlimit="20" stroke-opacity="1" stroke-width="1.8525" transform="matrix(2.66667,0,0,2.66667,24,2.66667)"><path d="M15.2084,42.5335 L19.7918,42.5335 L19.7918,43.4668 L15.2084,43.4668 L15.2084,42.5335 z" fill-rule="nonzero" vector-effect="none"/></g><defs><clipPath id="clip69"><path d="M9,9 L333,9 L333,333 L9,333 L9,9 z"/></clipPath></defs><g clip-path="url(#clip69)" fill="#35d461" fill-opacity="1" opacity="1" stroke="none" stroke-opacity="0" transform="matrix(0.452677,0,0,0.460907,22.5926,1.18518)"><path d="M227.7,249.3 L254.7,249.3 L254.7,254.7 L227.7,254.7 L227.7,249.3 z" fill-rule="nonzero" vector-effect="none"/></g><defs><clipPath id="clip70"><path d="M1,1 L56,1 L56,57 L1,57 L1,1 z"/></clipPath></defs><g clip-path="url(#clip70)" fill="none" opacity="1" stroke="#35d461" stroke-linecap="butt" stroke-linejoin="miter" stroke-miterlimit="20" stroke-opacity="1" stroke-width="1.8525" transform="matrix(2.66667,0,0,2.66667,24,2.66667)"><path d="M38.1252,42.5335 L42.7086,42.5335 L42.7086,43.4668 L38.1252,43.4668 L38.1252,42.5335 z" fill-rule="nonzero" vector-effect="none"/></g><defs><clipPath id="clip71"><path d="M9,9 L333,9 L333,333 L9,333 L9,9 z"/></clipPath></defs><g clip-path="url(#clip71)" fill="#35d461" fill-opacity="1" opacity="1" stroke="none" stroke-opacity="0" transform="matrix(0.452677,0,0,0.460907,22.5926,1.18518)"><path d="M168.3,36 L173.7,36 L173.7,63 L168.3,63 L168.3,36 z" fill-rule="nonzero" vector-effect="none"/></g><defs><clipPath id="clip72"><path d="M1,1 L56,1 L56,57 L1,57 L1,1 z"/></clipPath></defs><g clip-path="url(#clip72)" fill="none" opacity="1" stroke="#35d461" stroke-linecap="butt" stroke-linejoin="miter" stroke-miterlimit="20" stroke-opacity="1" stroke-width="1.8525" transform="matrix(2.66667,0,0,2.66667,24,2.66667)"><path d="M28.0418,5.66668 L28.9585,5.66668 L28.9585,10.3334 L28.0418,10.3334 L28.0418,5.66668 z" fill-rule="nonzero" vector-effect="none"/></g><defs><clipPath id="clip73"><path d="M9,9 L333,9 L333,333 L9,333 L9,9 z"/></clipPath></defs><g clip-path="url(#clip73)" fill="#35d461" fill-opacity="1" opacity="1" stroke="none" stroke-opacity="0" transform="matrix(0.452677,0,0,0.460907,22.5926,1.18518)"><path d="M168.3,76.5 L173.7,76.5 L173.7,103.5 L168.3,103.5 L168.3,76.5 z" fill-rule="nonzero" vector-effect="none"/></g><defs><clipPath id="clip74"><path d="M1,1 L56,1 L56,57 L1,57 L1,1 z"/></clipPath></defs><g clip-path="url(#clip74)" fill="none" opacity="1" stroke="#35d461" stroke-linecap="butt" stroke-linejoin="miter" stroke-miterlimit="20" stroke-opacity="1" stroke-width="1.8525" transform="matrix(2.66667,0,0,2.66667,24,2.66667)"><path d="M28.0418,12.6667 L28.9585,12.6667 L28.9585,17.3334 L28.0418,17.3334 L28.0418,12.6667 z" fill-rule="nonzero" vector-effect="none"/></g><defs><clipPath id="clip75"><path d="M9,9 L333,9 L333,333 L9,333 L9,9 z"/></clipPath></defs><g clip-path="url(#clip75)" fill="#35d461" fill-opacity="1" opacity="1" stroke="none" stroke-opacity="0" transform="matrix(0.452677,0,0,0.460907,22.5926,1.18518)"><path d="M168.3,117 L173.7,117 L173.7,144 L168.3,144 L168.3,117 z" fill-rule="nonzero" vector-effect="none"/></g><defs><clipPath id="clip76"><path d="M1,1 L56,1 L56,57 L1,57 L1,1 z"/></clipPath></defs><g clip-path="url(#clip76)" fill="none" opacity="1" stroke="#35d461" stroke-linecap="butt" stroke-linejoin="miter" stroke-miterlimit="20" stroke-opacity="1" stroke-width="1.8525" transform="matrix(2.66667,0,0,2.66667,24,2.66667)"><path d="M28.0418,19.6667 L28.9585,19.6667 L28.9585,24.3334 L28.0418,24.3334 L28.0418,19.6667 z" fill-rule="nonzero" vector-effect="none"/></g><defs><clipPath id="clip77"><path d="M9,9 L333,9 L333,333 L9,333 L9,9 z"/></clipPath></defs><g clip-path="url(#clip77)" fill="#35d461" fill-opacity="1" opacity="1" stroke="none" stroke-opacity="0" transform="matrix(0.452677,0,0,0.460907,22.5926,1.18518)"><path d="M168.3,154.8 L173.7,154.8 L173.7,181.8 L168.3,181.8 L168.3,154.8 z" fill-rule="nonzero" vector-effect="none"/></g><defs><clipPath id="clip78"><path d="M1,1 L56,1 L56,57 L1,57 L1,1 z"/></clipPath></defs><g clip-path="url(#clip78)" fill="none" opacity="1" stroke="#35d461" stroke-linecap="butt" stroke-linejoin="miter" stroke-miterlimit="20" stroke-opacity="1" stroke-width="1.8525" transform="matrix(2.66667,0,0,2.66667,24,2.66667)"><path d="M28.0418,26.2001 L28.9585,26.2001 L28.9585,30.8668 L28.0418,30.8668 L28.0418,26.2001 z" fill-rule="nonzero" vector-effect="none"/></g><defs><clipPath id="clip79"><path d="M9,9 L333,9 L333,333 L9,333 L9,9 z"/></clipPath></defs><g clip-path="url(#clip79)" fill="#35d461" fill-opacity="1" opacity="1" stroke="none" stroke-opacity="0" transform="matrix(0.452677,0,0,0.460907,22.5926,1.18518)"><path d="M168.3,195.3 L173.7,195.3 L173.7,222.3 L168.3,222.3 L168.3,195.3 z" fill-rule="nonzero" vector-effect="none"/></g><defs><clipPath id="clip80"><path d="M1,1 L56,1 L56,57 L1,57 L1,1 z"/></clipPath></defs><g clip-path="url(#clip80)" fill="none" opacity="1" stroke="#35d461" stroke-linecap="butt" stroke-linejoin="miter" stroke-miterlimit="20" stroke-opacity="1" stroke-width="1.8525" transform="matrix(2.66667,0,0,2.66667,24,2.66667)"><path d="M28.0418,33.2001 L28.9585,33.2001 L28.9585,37.8668 L28.0418,37.8668 L28.0418,33.2001 z" fill-rule="nonzero" vector-effect="none"/></g><defs><clipPath id="clip81"><path d="M9,9 L333,9 L333,333 L9,333 L9,9 z"/></clipPath></defs><g clip-path="url(#clip81)" fill="#35d461" fill-opacity="1" opacity="1" stroke="none" stroke-opacity="0" transform="matrix(0.452677,0,0,0.460907,22.5926,1.18518)"><path d="M168.3,235.8 L173.7,235.8 L173.7,262.8 L168.3,262.8 L168.3,235.8 z" fill-rule="nonzero" vector-effect="none"/></g><defs><clipPath id="clip82"><path d="M1,1 L56,1 L56,57 L1,57 L1,1 z"/></clipPath></defs><g clip-path="url(#clip82)" fill="none" opacity="1" stroke="#35d461" stroke-linecap="butt" stroke-linejoin="miter" stroke-miterlimit="20" stroke-opacity="1" stroke-width="1.8525" transform="matrix(2.66667,0,0,2.66667,24,2.66667)"><path d="M28.0418,40.2001 L28.9585,40.2001 L28.9585,44.8668 L28.0418,44.8668 L28.0418,40.2001 z" fill-rule="nonzero" vector-effect="none"/></g><defs><clipPath id="clip83"><path d="M9,9 L333,9 L333,333 L9,333 L9,9 z"/></clipPath></defs><g clip-path="url(#clip83)" fill="#35d461" fill-opacity="1" opacity="1" stroke="none" stroke-opacity="0" transform="matrix(0.452677,0,0,0.460907,22.5926,1.18518)"><path d="M168.3,279 L173.7,279 L173.7,306 L168.3,306 L168.3,279 z" fill-rule="nonzero" vector-effect="none"/></g><defs><clipPath id="clip84"><path d="M1,1 L56,1 L56,57 L1,57 L1,1 z"/></clipPath></defs><g clip-path="url(#clip84)" fill="none" opacity="1" stroke="#35d461" stroke-linecap="butt" stroke-linejoin="miter" stroke-miterlimit="20" stroke-opacity="1" stroke-width="1.8525" transform="matrix(2.66667,0,0,2.66667,24,2.66667)"><path d="M28.0418,47.6668 L28.9585,47.6668 L28.9585,52.3335 L28.0418,52.3335 L28.0418,47.6668 z" fill-rule="nonzero" vector-effect="none"/></g><defs><clipPath id="clip85"><path d="M1,1 L56,1 L56,57 L1,57 L1,1 z"/></clipPath></defs><g clip-path="url(#clip85)" fill="none" opacity="1" stroke="#35d461" stroke-linecap="butt" stroke-linejoin="miter" stroke-miterlimit="20" stroke-opacity="1" stroke-width="1.8525" transform="matrix(2.66667,0,0,2.66667,24,2.66667)"><path d="M1.00001,1 L56.0003,1 L56.0003,57.0002 L1.00001,57.0002 L1.00001,1 z" fill-rule="nonzero" vector-effect="none"/></g><defs><clipPath id="clip102"><path d="M-266,-143 L16,-143 L16,144 L-266,144 L-266,-143 z"/></clipPath></defs><g clip-path="url(#clip102)" fill="none" opacity="1" stroke="#e60000" stroke-linecap="square" stroke-linejoin="bevel" stroke-opacity="1" stroke-width="1" transform="matrix(0.520833,0,0,0.520833,165.333,80)"><text fill="#e60000" fill-opacity="1" font-family="Liberation Sans" font-size="40" font-style="normal" font-weight="400" stroke="none" textLength="27" x="-34.125" xml:space="preserve" y="17.9219">B</text></g><defs><clipPath id="clip105"><path d="M-15,-143 L267,-143 L267,144 L-15,144 L-15,-143 z"/></clipPath></defs><g clip-path="url(#clip105)" fill="none" opacity="1" stroke="#e60000" stroke-linecap="square" stroke-linejoin="bevel" stroke-opacity="1" stroke-width="1" transform="matrix(0.520833,0,0,0.520833,34.6667,80)"><text fill="#e60000" fill-opacity="1" font-family="Liberation Sans" font-size="40" font-style="normal" font-weight="400" stroke="none" textLength="27" x="0" xml:space="preserve" y="17.9219">A</text></g><defs><clipPath id="clip111"><path d="M-10,-2 L65,-2 L65,58 L-10,58 L-10,-2 z"/></clipPath></defs><g clip-path="url(#clip111)" fill="none" opacity="1" stroke="none" stroke-opacity="0" transform="matrix(2.66667,0,0,2.66667,26.6667,5.33333)"><path d="M0,0 L55,0 L55,56 L0,56 L0,0 z" fill-rule="evenodd" vector-effect="none"/></g></g></svg>
