<?xml version="1.0" encoding="UTF-8"?><svg width="52.9167mm" height="42.3333mm" viewBox="0 0 200 160" xmlns="http://www.w3.org/2000/svg" xmlns:xlink="http://www.w3.org/1999/xlink"><g fill="none" stroke="black" stroke-width="1" fill-rule="evenodd" stroke-linecap="square" stroke-linejoin="bevel"><g clip-path="none" fill="none" opacity="1" stroke="none" stroke-opacity="0" transform="matrix(1,0,0,1,0,0)"><path d="M0,0 L200,0 L200,160 L0,160 L0,0 z" fill-rule="evenodd" vector-effect="none"/></g><defs><clipPath id="clip6"><path d="M0,0 L10,0 L10,10 L0,10 L0,0 z"/></clipPath></defs><g clip-path="url(#clip6)" fill="#b3b3b3" fill-opacity="1" opacity="1" stroke="none" stroke-opacity="0" transform="matrix(2.66667,0,0,2.66667,173.333,109.333)"><path d="M0.5,3.5 L3.5,3.5 L3.5,6.5 L0.5,6.5 L0.5,3.5 z" fill-rule="evenodd" vector-effect="none"/></g><defs><clipPath id="clip8"><path d="M0,0 L10,0 L10,10 L0,10 L0,0 z"/></clipPath></defs><g clip-path="url(#clip8)" fill="#000000" fill-opacity="1" opacity="1" stroke="none" stroke-opacity="0" transform="matrix(2.66667,0,0,2.66667,173.333,109.333)"><path d="M3,4 L3,6 L1,6 L1,4 L3,4 M4,3 L0,3 L0,7 L4,7 L4,3" fill-rule="nonzero" vector-effect="none"/></g><defs><clipPath id="clip28"><path d="M0,0 L10,0 L10,10 L0,10 L0,0 z"/></clipPath></defs><g clip-path="url(#clip28)" fill="#b3b3b3" fill-opacity="1" opacity="1" stroke="none" stroke-opacity="0" transform="matrix(2.66667,0,0,2.66667,173.333,29.3333)"><path d="M0.5,3.5 L3.5,3.5 L3.5,6.5 L0.5,6.5 L0.5,3.5 z" fill-rule="evenodd" vector-effect="none"/></g><defs><clipPath id="clip30"><path d="M0,0 L10,0 L10,10 L0,10 L0,0 z"/></clipPath></defs><g clip-path="url(#clip30)" fill="#000000" fill-opacity="1" opacity="1" stroke="none" stroke-opacity="0" transform="matrix(2.66667,0,0,2.66667,173.333,29.3333)"><path d="M3,4 L3,6 L1,6 L1,4 L3,4 M4,3 L0,3 L0,7 L4,7 L4,3" fill-rule="nonzero" vector-effect="none"/></g><defs><clipPath id="clip50"><path d="M0,0 L10,0 L10,10 L0,10 L0,0 z"/></clipPath></defs><g clip-path="url(#clip50)" fill="#b3b3b3" fill-opacity="1" opacity="1" stroke="none" stroke-opacity="0" transform="matrix(-2.66667,0,0,2.66667,26.6667,69.3333)"><path d="M0.5,3.5 L3.5,3.5 L3.5,6.5 L0.5,6.5 L0.5,3.5 z" fill-rule="evenodd" vector-effect="none"/></g><defs><clipPath id="clip52"><path d="M0,0 L10,0 L10,10 L0,10 L0,0 z"/></clipPath></defs><g clip-path="url(#clip52)" fill="#000000" fill-opacity="1" opacity="1" stroke="none" stroke-opacity="0" transform="matrix(-2.66667,0,0,2.66667,26.6667,69.3333)"><path d="M3,4 L3,6 L1,6 L1,4 L3,4 M4,3 L0,3 L0,7 L4,7 L4,3" fill-rule="nonzero" vector-effect="none"/></g><defs><clipPath id="clip69"><path d="M-10,-2 L65,-2 L65,58 L-10,58 L-10,-2 z"/></clipPath></defs><g clip-path="url(#clip69)" fill="#ffffff" fill-opacity="1" opacity="1" stroke="none" stroke-opacity="0" transform="matrix(2.66667,0,0,2.66667,26.6667,5.33333)"><path d="M0,0 L55,0 L55,56 L0,56 L0,0 z" fill-rule="evenodd" vector-effect="none"/></g><defs><clipPath id="clip73"><path d="M0,0 L55,0 L55,56 L0,56 L0,0 z"/></clipPath></defs><g clip-path="url(#clip73)" fill="none" opacity="1" stroke="none" stroke-opacity="0" transform="matrix(2.66667,0,0,2.66667,26.6667,5.33333)"><path d="M0,0 L55,0 L55,56 L0,56 L0,0 z" fill-rule="evenodd" vector-effect="none"/></g><defs><clipPath id="clip83"><path d="M1,1 L56,1 L56,57 L1,57 L1,1 z"/></clipPath></defs><g clip-path="url(#clip83)" fill="none" opacity="1" stroke="#35d461" stroke-linecap="butt" stroke-linejoin="miter" stroke-miterlimit="20" stroke-opacity="1" stroke-width="1.8525" transform="matrix(2.66667,0,0,2.66667,24,2.66667)"><path d="M17.0417,9.40003 L39.9583,9.40003" fill-rule="nonzero" vector-effect="none"/></g><defs><clipPath id="clip84"><path d="M1,1 L56,1 L56,57 L1,57 L1,1 z"/></clipPath></defs><g clip-path="url(#clip84)" fill="none" opacity="1" stroke="#35d461" stroke-linecap="butt" stroke-linejoin="miter" stroke-miterlimit="20" stroke-opacity="1" stroke-width="1.8525" transform="matrix(2.66667,0,0,2.66667,24,2.66667)"><path d="M17.0417,49.0668 L39.9583,49.0668" fill-rule="nonzero" vector-effect="none"/></g><defs><clipPath id="clip85"><path d="M1,1 L56,1 L56,57 L1,57 L1,1 z"/></clipPath></defs><g clip-path="url(#clip85)" fill="none" opacity="1" stroke="#35d461" stroke-linecap="butt" stroke-linejoin="miter" stroke-miterlimit="20" stroke-opacity="1" stroke-width="1.8525" transform="matrix(2.66667,0,0,2.66667,24,2.66667)"><path d="M0.999999,1 L56,1 L56,57.0002 L0.999999,57.0002 L0.999999,1 z" fill-rule="nonzero" vector-effect="none"/></g><defs><clipPath id="clip86"><path d="M1,1 L56,1 L56,57 L1,57 L1,1 z"/></clipPath></defs><g clip-path="url(#clip86)" fill="none" opacity="1" stroke="#35d461" stroke-linecap="butt" stroke-linejoin="miter" stroke-miterlimit="20" stroke-opacity="1" stroke-width="1.8525" transform="matrix(2.66667,0,0,2.66667,24,2.66667)"><path d="M19.3333,10.3334 L37.6666,10.3334 L37.6666,47.6668 L19.3333,47.6668 L19.3333,10.3334 z" fill-rule="nonzero" vector-effect="none"/></g><defs><clipPath id="clip87"><path d="M1,1 L56,1 L56,57 L1,57 L1,1 z"/></clipPath></defs><g clip-path="url(#clip87)" fill="none" opacity="1" stroke="#35d461" stroke-linecap="butt" stroke-linejoin="miter" stroke-miterlimit="20" stroke-opacity="1" stroke-width="1.8525" transform="matrix(2.66667,0,0,2.66667,24,2.66667)"><path d="M17.0417,8.00002 L39.9583,8.00002 L39.9583,10.3334 L17.0417,10.3334 L17.0417,8.00002 z" fill-rule="nonzero" vector-effect="none"/></g><defs><clipPath id="clip88"><path d="M1,1 L56,1 L56,57 L1,57 L1,1 z"/></clipPath></defs><g clip-path="url(#clip88)" fill="none" opacity="1" stroke="#35d461" stroke-linecap="butt" stroke-linejoin="miter" stroke-miterlimit="20" stroke-opacity="1" stroke-width="1.8525" transform="matrix(2.66667,0,0,2.66667,24,2.66667)"><path d="M17.0417,47.6668 L39.9583,47.6668 L39.9583,50.0001 L17.0417,50.0001 L17.0417,47.6668 z" fill-rule="nonzero" vector-effect="none"/></g><defs><clipPath id="clip89"><path d="M1,1 L56,1 L56,57 L1,57 L1,1 z"/></clipPath></defs><g clip-path="url(#clip89)" fill="none" opacity="1" stroke="#44805c" stroke-linecap="butt" stroke-linejoin="miter" stroke-miterlimit="20" stroke-opacity="1" stroke-width="1.8525" transform="matrix(2.66667,0,0,2.66667,24,2.66667)"><path d="M56,43.0001 L37.6666,43.0001" fill-rule="nonzero" vector-effect="none"/></g><defs><clipPath id="clip90"><path d="M1,1 L56,1 L56,57 L1,57 L1,1 z"/></clipPath></defs><g clip-path="url(#clip90)" fill="none" opacity="1" stroke="#44805c" stroke-linecap="butt" stroke-linejoin="miter" stroke-miterlimit="20" stroke-opacity="1" stroke-width="1.8525" transform="matrix(2.66667,0,0,2.66667,24,2.66667)"><path d="M19.3333,15 L56,15" fill-rule="nonzero" vector-effect="none"/></g><defs><clipPath id="clip91"><path d="M1,1 L56,1 L56,57 L1,57 L1,1 z"/></clipPath></defs><g clip-path="url(#clip91)" fill="none" opacity="1" stroke="#44805c" stroke-linecap="butt" stroke-linejoin="miter" stroke-miterlimit="20" stroke-opacity="1" stroke-width="1.8525" transform="matrix(2.66667,0,0,2.66667,24,2.66667)"><path d="M37.5953,38.0638 L19.7204,42.7305" fill-rule="nonzero" vector-effect="none"/></g><defs><clipPath id="clip92"><path d="M1,1 L56,1 L56,57 L1,57 L1,1 z"/></clipPath></defs><g clip-path="url(#clip92)" fill="none" opacity="1" stroke="#44805c" stroke-linecap="butt" stroke-linejoin="miter" stroke-miterlimit="20" stroke-opacity="1" stroke-width="1.8525" transform="matrix(2.66667,0,0,2.66667,24,2.66667)"><path d="M37.8172,28.6682 L19.4838,33.3349" fill-rule="nonzero" vector-effect="none"/></g><defs><clipPath id="clip93"><path d="M1,1 L56,1 L56,57 L1,57 L1,1 z"/></clipPath></defs><g clip-path="url(#clip93)" fill="none" opacity="1" stroke="#44805c" stroke-linecap="butt" stroke-linejoin="miter" stroke-miterlimit="20" stroke-opacity="1" stroke-width="1.8525" transform="matrix(2.66667,0,0,2.66667,24,2.66667)"><path d="M37.7232,19.2346 L19.3899,23.9013" fill-rule="nonzero" vector-effect="none"/></g><defs><clipPath id="clip110"><path d="M-266,-220 L16,-220 L16,67 L-266,67 L-266,-220 z"/></clipPath></defs><g clip-path="url(#clip110)" fill="none" opacity="1" stroke="#e60000" stroke-linecap="square" stroke-linejoin="bevel" stroke-opacity="1" stroke-width="1" transform="matrix(0.520833,0,0,0.520833,165.333,120)"><text fill="#e60000" fill-opacity="1" font-family="Liberation Sans" font-size="40" font-style="normal" font-weight="400" stroke="none" textLength="27" x="-34.125" xml:space="preserve" y="17.9219">B</text></g><defs><clipPath id="clip113"><path d="M-266,-67 L16,-67 L16,220 L-266,220 L-266,-67 z"/></clipPath></defs><g clip-path="url(#clip113)" fill="none" opacity="1" stroke="#e60000" stroke-linecap="square" stroke-linejoin="bevel" stroke-opacity="1" stroke-width="1" transform="matrix(0.520833,0,0,0.520833,165.333,40)"><text fill="#e60000" fill-opacity="1" font-family="Liberation Sans" font-size="40" font-style="normal" font-weight="400" stroke="none" textLength="27" x="-34.125" xml:space="preserve" y="17.9219">A</text></g><defs><clipPath id="clip116"><path d="M-15,-143 L267,-143 L267,144 L-15,144 L-15,-143 z"/></clipPath></defs><g clip-path="url(#clip116)" fill="none" opacity="1" stroke="#e60000" stroke-linecap="square" stroke-linejoin="bevel" stroke-opacity="1" stroke-width="1" transform="matrix(0.520833,0,0,0.520833,34.6667,80)"><text fill="#e60000" fill-opacity="1" font-family="Liberation Sans" font-size="40" font-style="normal" font-weight="400" stroke="none" textLength="27" x="0" xml:space="preserve" y="17.9219">S</text></g><defs><clipPath id="clip122"><path d="M-10,-2 L65,-2 L65,58 L-10,58 L-10,-2 z"/></clipPath></defs><g clip-path="url(#clip122)" fill="none" opacity="1" stroke="none" stroke-opacity="0" transform="matrix(2.66667,0,0,2.66667,26.6667,5.33333)"><path d="M0,0 L55,0 L55,56 L0,56 L0,0 z" fill-rule="evenodd" vector-effect="none"/></g></g></svg>
