<?xml version="1.0" encoding="UTF-8"?><svg width="52.9167mm" height="22.4896mm" viewBox="0 0 200 85" xmlns="http://www.w3.org/2000/svg" xmlns:xlink="http://www.w3.org/1999/xlink"><g fill="none" stroke="black" stroke-width="1" fill-rule="evenodd" stroke-linecap="square" stroke-linejoin="bevel"><g clip-path="none" fill="none" opacity="1" stroke="none" stroke-opacity="0" transform="matrix(1,0,0,1,0,0)"><path d="M0,0 L200,0 L200,85 L0,85 L0,0 z" fill-rule="evenodd" vector-effect="none"/></g><defs><clipPath id="clip6"><path d="M0,0 L10,0 L10,10 L0,10 L0,0 z"/></clipPath></defs><g clip-path="url(#clip6)" fill="#b3b3b3" fill-opacity="1" opacity="1" stroke="none" stroke-opacity="0" transform="matrix(2.85714,0,0,2.85714,171.429,31.4286)"><path d="M0.5,3.5 L3.5,3.5 L3.5,6.5 L0.5,6.5 L0.5,3.5 z" fill-rule="evenodd" vector-effect="none"/></g><defs><clipPath id="clip8"><path d="M0,0 L10,0 L10,10 L0,10 L0,0 z"/></clipPath></defs><g clip-path="url(#clip8)" fill="#000000" fill-opacity="1" opacity="1" stroke="none" stroke-opacity="0" transform="matrix(2.85714,0,0,2.85714,171.429,31.4286)"><path d="M3,4 L3,6 L1,6 L1,4 L3,4 M4,3 L0,3 L0,7 L4,7 L4,3" fill-rule="nonzero" vector-effect="none"/></g><defs><clipPath id="clip28"><path d="M0,0 L10,0 L10,10 L0,10 L0,0 z"/></clipPath></defs><g clip-path="url(#clip28)" fill="#b3b3b3" fill-opacity="1" opacity="1" stroke="none" stroke-opacity="0" transform="matrix(-2.85714,0,0,2.85714,28.5714,31.4286)"><path d="M0.5,3.5 L3.5,3.5 L3.5,6.5 L0.5,6.5 L0.5,3.5 z" fill-rule="evenodd" vector-effect="none"/></g><defs><clipPath id="clip30"><path d="M0,0 L10,0 L10,10 L0,10 L0,0 z"/></clipPath></defs><g clip-path="url(#clip30)" fill="#000000" fill-opacity="1" opacity="1" stroke="none" stroke-opacity="0" transform="matrix(-2.85714,0,0,2.85714,28.5714,31.4286)"><path d="M3,4 L3,6 L1,6 L1,4 L3,4 M4,3 L0,3 L0,7 L4,7 L4,3" fill-rule="nonzero" vector-effect="none"/></g><defs><clipPath id="clip47"><path d="M-10,-2 L60,-2 L60,28 L-10,28 L-10,-2 z"/></clipPath></defs><g clip-path="url(#clip47)" fill="#ffffff" fill-opacity="1" opacity="1" stroke="none" stroke-opacity="0" transform="matrix(2.85714,0,0,2.85714,28.5714,5.71429)"><path d="M0,0 L50,0 L50,26 L0,26 L0,0 z" fill-rule="evenodd" vector-effect="none"/></g><defs><clipPath id="clip51"><path d="M0,0 L50,0 L50,26 L0,26 L0,0 z"/></clipPath></defs><g clip-path="url(#clip51)" fill="none" opacity="1" stroke="none" stroke-opacity="0" transform="matrix(2.85714,0,0,2.85714,28.5714,5.71429)"><path d="M0,0 L50,0 L50,26 L0,26 L0,0 z" fill-rule="evenodd" vector-effect="none"/></g><defs><clipPath id="clip61"><path d="M1,1 L51,1 L51,27 L1,27 L1,1 z"/></clipPath></defs><g clip-path="url(#clip61)" fill="none" opacity="1" stroke="#35d461" stroke-linecap="butt" stroke-linejoin="miter" stroke-miterlimit="20" stroke-opacity="1" stroke-width="0.8775" transform="matrix(2.85714,0,0,2.85714,25.7143,2.85714)"><path d="M41.1516,14 L51.0001,14" fill-rule="nonzero" vector-effect="none"/></g><defs><clipPath id="clip62"><path d="M1,1 L51,1 L51,27 L1,27 L1,1 z"/></clipPath></defs><g clip-path="url(#clip62)" fill="none" opacity="1" stroke="#35d461" stroke-linecap="butt" stroke-linejoin="miter" stroke-miterlimit="20" stroke-opacity="1" stroke-width="0.8775" transform="matrix(2.85714,0,0,2.85714,25.7143,2.85714)"><path d="M1,14 L10.8485,14" fill-rule="nonzero" vector-effect="none"/></g><defs><clipPath id="clip63"><path d="M1,1 L51,1 L51,27 L1,27 L1,1 z"/></clipPath></defs><g clip-path="url(#clip63)" fill="none" opacity="1" stroke="#35d461" stroke-linecap="butt" stroke-linejoin="miter" stroke-miterlimit="20" stroke-opacity="1" stroke-width="0.8775" transform="matrix(2.85714,0,0,2.85714,25.7143,2.85714)"><path d="M19.5606,15.1143 L31.6819,15.1143 L31.6819,24.0285 L19.1818,24.0285" fill-rule="nonzero" vector-effect="none"/></g><defs><clipPath id="clip64"><path d="M1,1 L51,1 L51,27 L1,27 L1,1 z"/></clipPath></defs><g clip-path="url(#clip64)" fill="none" opacity="1" stroke="#35d461" stroke-linecap="butt" stroke-linejoin="miter" stroke-miterlimit="20" stroke-opacity="1" stroke-width="0.8775" transform="matrix(2.85714,0,0,2.85714,25.7143,2.85714)"><path d="M10.8485,19.5714 L25.2425,19.5714" fill-rule="nonzero" vector-effect="none"/></g><defs><clipPath id="clip65"><path d="M1,1 L51,1 L51,27 L1,27 L1,1 z"/></clipPath></defs><g clip-path="url(#clip65)" fill="none" opacity="1" stroke="#35d461" stroke-linecap="butt" stroke-linejoin="miter" stroke-miterlimit="20" stroke-opacity="1" stroke-width="0.8775" transform="matrix(2.85714,0,0,2.85714,25.7143,2.85714)"><path d="M25.2425,16.6 L25.2425,22.5428" fill-rule="nonzero" vector-effect="none"/></g><defs><clipPath id="clip66"><path d="M1,1 L51,1 L51,27 L1,27 L1,1 z"/></clipPath></defs><g clip-path="url(#clip66)" fill="none" opacity="1" stroke="#35d461" stroke-linecap="butt" stroke-linejoin="miter" stroke-miterlimit="20" stroke-opacity="1" stroke-width="0.8775" transform="matrix(2.85714,0,0,2.85714,25.7143,2.85714)"><path d="M22.9697,16.6 L27.5152,16.6" fill-rule="nonzero" vector-effect="none"/></g><defs><clipPath id="clip67"><path d="M1,1 L51,1 L51,27 L1,27 L1,1 z"/></clipPath></defs><g clip-path="url(#clip67)" fill="none" opacity="1" stroke="#35d461" stroke-linecap="butt" stroke-linejoin="miter" stroke-miterlimit="20" stroke-opacity="1" stroke-width="0.8775" transform="matrix(2.85714,0,0,2.85714,25.7143,2.85714)"><path d="M22.9697,22.5428 L27.5152,22.5428" fill-rule="nonzero" vector-effect="none"/></g><defs><clipPath id="clip68"><path d="M1,1 L51,1 L51,27 L1,27 L1,1 z"/></clipPath></defs><g clip-path="url(#clip68)" fill="none" opacity="1" stroke="#35d461" stroke-linecap="butt" stroke-linejoin="miter" stroke-miterlimit="20" stroke-opacity="1" stroke-width="0.8775" transform="matrix(2.85714,0,0,2.85714,25.7143,2.85714)"><path d="M31.6819,19.5714 L41.1516,19.5714" fill-rule="nonzero" vector-effect="none"/></g><defs><clipPath id="clip69"><path d="M1,1 L51,1 L51,27 L1,27 L1,1 z"/></clipPath></defs><g clip-path="url(#clip69)" fill="none" opacity="1" stroke="#35d461" stroke-linecap="butt" stroke-linejoin="miter" stroke-miterlimit="20" stroke-opacity="1" stroke-width="0.8775" transform="matrix(2.85714,0,0,2.85714,25.7143,2.85714)"><path d="M10.8485,8.42856 L14.6364,8.42856" fill-rule="nonzero" vector-effect="none"/></g><defs><clipPath id="clip70"><path d="M1,1 L51,1 L51,27 L1,27 L1,1 z"/></clipPath></defs><g clip-path="url(#clip70)" fill="none" opacity="1" stroke="#35d461" stroke-linecap="butt" stroke-linejoin="miter" stroke-miterlimit="20" stroke-opacity="1" stroke-width="0.8775" transform="matrix(2.85714,0,0,2.85714,25.7143,2.85714)"><path d="M36.9849,8.42856 L41.1516,8.42856" fill-rule="nonzero" vector-effect="none"/></g><defs><clipPath id="clip71"><path d="M1,1 L51,1 L51,27 L1,27 L1,1 z"/></clipPath></defs><g clip-path="url(#clip71)" fill="none" opacity="1" stroke="#35d461" stroke-linecap="butt" stroke-linejoin="miter" stroke-miterlimit="20" stroke-opacity="1" stroke-width="0.8775" transform="matrix(2.85714,0,0,2.85714,25.7143,2.85714)"><path d="M10.8485,14 L10.8485,8.42856" fill-rule="nonzero" vector-effect="none"/></g><defs><clipPath id="clip72"><path d="M1,1 L51,1 L51,27 L1,27 L1,1 z"/></clipPath></defs><g clip-path="url(#clip72)" fill="none" opacity="1" stroke="#35d461" stroke-linecap="butt" stroke-linejoin="miter" stroke-miterlimit="20" stroke-opacity="1" stroke-width="0.8775" transform="matrix(2.85714,0,0,2.85714,25.7143,2.85714)"><path d="M41.1516,14 L41.1516,8.42856" fill-rule="nonzero" vector-effect="none"/></g><defs><clipPath id="clip73"><path d="M1,1 L51,1 L51,27 L1,27 L1,1 z"/></clipPath></defs><g clip-path="url(#clip73)" fill="none" opacity="1" stroke="#35d461" stroke-linecap="butt" stroke-linejoin="miter" stroke-miterlimit="20" stroke-opacity="1" stroke-width="0.8775" transform="matrix(2.85714,0,0,2.85714,25.7143,2.85714)"><path d="M41.1516,14 L41.1516,19.5714" fill-rule="nonzero" vector-effect="none"/></g><defs><clipPath id="clip74"><path d="M1,1 L51,1 L51,27 L1,27 L1,1 z"/></clipPath></defs><g clip-path="url(#clip74)" fill="none" opacity="1" stroke="#35d461" stroke-linecap="butt" stroke-linejoin="miter" stroke-miterlimit="20" stroke-opacity="1" stroke-width="0.8775" transform="matrix(2.85714,0,0,2.85714,25.7143,2.85714)"><path d="M10.8485,14 L10.8485,19.5714" fill-rule="nonzero" vector-effect="none"/></g><defs><clipPath id="clip75"><path d="M1,1 L51,1 L51,27 L1,27 L1,1 z"/></clipPath></defs><g clip-path="url(#clip75)" fill="none" opacity="1" stroke="#35d461" stroke-linecap="butt" stroke-linejoin="miter" stroke-miterlimit="20" stroke-opacity="1" stroke-width="0.8775" transform="matrix(2.85714,0,0,2.85714,25.7143,2.85714)"><path d="M14.6616,8.38729 C14.6616,8.38729 14.6621,8.38538 14.6715,8.35139 C14.6809,8.31738 14.6994,8.2507 14.728,8.14884 C14.7568,8.04697 14.7953,7.91126 14.8385,7.76283 C14.8818,7.61438 14.9292,7.45479 14.9756,7.30326 C15.022,7.15174 15.0676,7.00826 15.111,6.87885 C15.1542,6.74945 15.1954,6.63362 15.2354,6.52909 C15.2756,6.42458 15.3147,6.33109 15.3547,6.24388 C15.3948,6.15666 15.4359,6.07552 15.4795,5.9964 C15.5232,5.91727 15.569,5.84018 15.6183,5.7633 C15.6677,5.68643 15.7206,5.60981 15.777,5.53329 C15.8335,5.45678 15.8937,5.38042 15.9567,5.30517 C16.0197,5.22992 16.0856,5.15583 16.1528,5.08435 C16.2201,5.01288 16.2886,4.94407 16.3569,4.87913 C16.4252,4.81418 16.4931,4.75312 16.5596,4.69637 C16.6261,4.63961 16.6912,4.58716 16.7549,4.53843 C16.8185,4.4897 16.8808,4.44472 16.9428,4.40201 C17.0048,4.35929 17.0669,4.31867 17.1311,4.2793 C17.195,4.23994 17.2607,4.20186 17.3286,4.16515 C17.3965,4.12843 17.4665,4.09309 17.538,4.0597 C17.6095,4.02631 17.6823,3.99491 17.7551,3.96613 C17.8279,3.93736 17.9007,3.91125 17.9721,3.88821 C18.0437,3.86518 18.1137,3.84522 18.1816,3.82834 C18.2495,3.81146 18.3151,3.79765 18.3791,3.78656 C18.4432,3.77548 18.5054,3.7671 18.5674,3.76095 C18.6294,3.7548 18.6915,3.75087 18.7556,3.74938 C18.8196,3.74791 18.8853,3.7489 18.9532,3.75279 C19.0211,3.75667 19.0912,3.76345 19.1626,3.77338 C19.2342,3.78332 19.307,3.79641 19.3798,3.81262 C19.4527,3.82881 19.5256,3.8481 19.5971,3.87012 C19.6687,3.89215 19.7388,3.91689 19.8067,3.94395 C19.8747,3.97101 19.9405,4.00035 20.0047,4.03191 C20.0688,4.06346 20.1312,4.09719 20.1933,4.13375 C20.2555,4.17032 20.3179,4.2099 20.3819,4.25353 C20.4459,4.29717 20.5114,4.34489 20.5786,4.39694 C20.6458,4.44901 20.7147,4.5054 20.7841,4.56548 C20.8537,4.62554 20.924,4.68926 20.9933,4.75521 C21.0626,4.82114 21.1311,4.88928 21.197,4.95795 C21.2631,5.02664 21.3266,5.09582 21.387,5.16438 C21.4474,5.23295 21.5047,5.30085 21.5588,5.36802 C21.6131,5.43518 21.6645,5.50157 21.7141,5.56857 C21.7638,5.63556 21.812,5.70342 21.8599,5.77419 C21.9077,5.84495 21.9551,5.91859 22.002,5.99572 C22.049,6.07286 22.0953,6.15347 22.1405,6.23693 C22.1856,6.32039 22.2295,6.40667 22.2712,6.4943 C22.3129,6.58192 22.3523,6.67083 22.3886,6.75942 C22.425,6.84803 22.4582,6.93626 22.4882,7.02322 C22.5183,7.11019 22.5449,7.19586 22.5686,7.28064 C22.5923,7.36541 22.6131,7.44927 22.6316,7.53438 C22.6501,7.61951 22.6664,7.70624 22.6809,7.79656 C22.6955,7.88687 22.7081,7.98074 22.719,8.07824 C22.73,8.17574 22.7392,8.27687 22.7465,8.3801 C22.7538,8.48334 22.7593,8.58862 22.7631,8.69352 C22.7667,8.7984 22.7686,8.90279 22.769,9.00429 C22.7693,9.10577 22.768,9.20431 22.7655,9.29848 C22.7631,9.39265 22.7593,9.48244 22.7547,9.56799 C22.75,9.65356 22.7446,9.73488 22.7382,9.81385 C22.7319,9.89283 22.7249,9.96977 22.7169,10.0467 C22.7088,10.1237 22.6997,10.2006 22.6894,10.278 C22.679,10.3553 22.6675,10.433 22.6551,10.5102 C22.6424,10.5875 22.6287,10.6643 22.6141,10.7394 C22.5994,10.8145 22.5839,10.8878 22.5678,10.9583 C22.5518,11.0287 22.5352,11.0962 22.5183,11.1604 C22.5013,11.2247 22.484,11.2856 22.4666,11.3439 C22.4491,11.4023 22.4313,11.4579 22.4128,11.5128 C22.3943,11.5676 22.375,11.6219 22.3543,11.6766 C22.3336,11.7313 22.3115,11.7864 22.2873,11.8417 C22.2634,11.897 22.2375,11.9526 22.2099,12.0074 C22.1824,12.0622 22.1529,12.1162 22.1222,12.168 C22.0915,12.2197 22.0595,12.2693 22.0265,12.3155 C21.9937,12.3617 21.96,12.4044 21.926,12.4433 C21.8917,12.4821 21.8572,12.517 21.822,12.5482 C21.7869,12.5793 21.7513,12.6068 21.7141,12.6312 C21.6769,12.6556 21.6382,12.6772 21.597,12.6958 C21.5557,12.7145 21.5121,12.7303 21.4658,12.7425 C21.4195,12.7548 21.3707,12.7636 21.32,12.7683 C21.2694,12.773 21.2171,12.7736 21.164,12.7697 C21.1111,12.7658 21.0577,12.7574 21.0049,12.7446 C20.9523,12.7318 20.9006,12.7146 20.8505,12.6934 C20.8004,12.6722 20.752,12.6469 20.7053,12.6178 C20.6586,12.5887 20.6135,12.5558 20.5693,12.5184 C20.5251,12.481 20.4815,12.4391 20.4376,12.3917 C20.3937,12.3443 20.3494,12.2915 20.3049,12.2332 C20.2604,12.1749 20.2158,12.1111 20.1716,12.043 C20.1274,11.9749 20.0838,11.9024 20.0418,11.8276 C19.9997,11.7528 19.9593,11.6758 19.9215,11.5986 C19.8834,11.5214 19.8481,11.4442 19.8155,11.3685 C19.783,11.2929 19.7534,11.2188 19.7265,11.1466 C19.6997,11.0745 19.6754,11.0044 19.6532,10.935 C19.6311,10.8657 19.6109,10.7968 19.5919,10.7265 C19.5731,10.6563 19.5557,10.5846 19.5397,10.5111 C19.5239,10.4377 19.5093,10.3624 19.4962,10.2859 C19.4832,10.2094 19.4718,10.1318 19.462,10.0545 C19.4522,9.9771 19.4441,9.9 19.4375,9.82447 C19.4309,9.74894 19.426,9.67502 19.4223,9.60334 C19.4188,9.53164 19.4166,9.46219 19.4154,9.39448 C19.4142,9.32679 19.414,9.26085 19.4147,9.19481 C19.4154,9.12876 19.4168,9.06233 19.4192,8.9937 C19.4215,8.92507 19.4248,8.85425 19.4293,8.7808 C19.4337,8.70737 19.4393,8.63134 19.446,8.55343 C19.4527,8.47554 19.4606,8.39581 19.4697,8.31573 C19.4787,8.23565 19.4888,8.15526 19.4999,8.07608 C19.511,7.99688 19.5229,7.91892 19.5357,7.84301 C19.5484,7.76709 19.5618,7.69323 19.5759,7.62106 C19.5901,7.5489 19.6051,7.47844 19.621,7.40782 C19.6368,7.33721 19.6539,7.26614 19.6727,7.19284 C19.6917,7.11953 19.7123,7.044 19.7354,6.96599 C19.7584,6.88796 19.7837,6.80747 19.8115,6.72547 C19.8391,6.64347 19.8693,6.55999 19.9013,6.47676 C19.9334,6.39352 19.9675,6.31057 20.003,6.2296 C20.0385,6.14863 20.0755,6.06965 20.1135,5.9936 C20.1515,5.91756 20.1907,5.84444 20.2309,5.77394 C20.2711,5.70344 20.3125,5.63556 20.3561,5.56857 C20.3997,5.50157 20.4456,5.43518 20.495,5.36799 C20.5444,5.30081 20.5971,5.23286 20.6536,5.1642 C20.71,5.09555 20.7701,5.02621 20.8329,4.95732 C20.8957,4.88843 20.9612,4.82 21.0279,4.75368 C21.0946,4.68735 21.1625,4.62316 21.2298,4.56252 C21.2972,4.50188 21.3639,4.4448 21.429,4.39198 C21.4943,4.33914 21.5577,4.29054 21.6196,4.2459 C21.6814,4.20126 21.7415,4.16058 21.8011,4.12275 C21.8607,4.08492 21.9202,4.04978 21.9812,4.01667 C22.0423,3.98356 22.1048,3.95251 22.1696,3.92366 C22.2345,3.89481 22.3014,3.86818 22.3701,3.84426 C22.4387,3.82034 22.5092,3.79914 22.5801,3.78113 C22.6513,3.76311 22.7228,3.74829 22.7939,3.73682 C22.8651,3.72533 22.9356,3.7172 23.0049,3.71221 C23.0744,3.70722 23.1427,3.70534 23.2103,3.70625 C23.2779,3.70715 23.3449,3.71078 23.4131,3.71693 C23.4812,3.72308 23.5508,3.73176 23.6235,3.74322 C23.696,3.75466 23.7716,3.7689 23.8499,3.78596 C23.9283,3.80303 24.0096,3.82295 24.0922,3.84543 C24.175,3.86789 24.2592,3.8929 24.3425,3.91977 C24.426,3.94664 24.5087,3.97535 24.5887,4.00505 C24.6685,4.03475 24.7457,4.0654 24.8188,4.09632 C24.8917,4.12725 24.9608,4.15842 25.0258,4.18962 C25.0908,4.22082 25.1518,4.25202 25.2102,4.2837 C25.2686,4.31538 25.3245,4.34768 25.3797,4.38188 C25.4349,4.41608 25.4894,4.45219 25.5437,4.49087 C25.598,4.52956 25.652,4.57083 25.7056,4.6147 C25.759,4.65858 25.812,4.70506 25.8641,4.75368 C25.9161,4.8023 25.9671,4.853 26.0163,4.90514 C26.0657,4.95726 26.1134,5.01079 26.1595,5.06529 C26.2057,5.1198 26.2502,5.17526 26.2939,5.23201 C26.3376,5.28877 26.3804,5.34677 26.4237,5.40761 C26.4671,5.46846 26.5114,5.53239 26.5571,5.60114 C26.6029,5.6699 26.6501,5.74347 26.6988,5.82225 C26.7474,5.90105 26.7972,5.98506 26.8471,6.07335 C26.8971,6.16164 26.9471,6.25417 26.996,6.34898 C27.0448,6.44379 27.0922,6.54083 27.137,6.63789 C27.1816,6.73497 27.2235,6.83205 27.262,6.92769 C27.3004,7.02333 27.3353,7.1175 27.3668,7.21026 C27.398,7.30303 27.426,7.39434 27.4507,7.48624 C27.4753,7.57813 27.4972,7.671 27.5167,7.76695 C27.5362,7.86292 27.5533,7.96193 27.5681,8.06412 C27.583,8.16632 27.5954,8.27167 27.6057,8.37864 C27.6159,8.48563 27.6238,8.59416 27.6294,8.70182 C27.635,8.80947 27.6384,8.91614 27.6399,9.01946 C27.6413,9.12278 27.6409,9.22269 27.6389,9.31787 C27.6371,9.41305 27.6337,9.50349 27.6292,9.58945 C27.6249,9.67542 27.6196,9.75689 27.6134,9.83586 C27.6072,9.91484 27.6005,9.99163 27.5925,10.0683 C27.5846,10.145 27.5755,10.2215 27.5653,10.2982 C27.555,10.3749 27.5435,10.4519 27.5306,10.5283 C27.5179,10.6047 27.5037,10.6805 27.4885,10.7546 C27.4732,10.8286 27.457,10.9008 27.4399,10.9701 C27.4227,11.0393 27.4049,11.1057 27.3864,11.1687 C27.3679,11.2318 27.3489,11.2915 27.3293,11.3487 C27.3097,11.4059 27.2895,11.4604 27.2683,11.5142 C27.2471,11.5679 27.2246,11.6211 27.2005,11.6747 C27.1764,11.7283 27.1504,11.7823 27.1224,11.8366 C27.0943,11.8909 27.0642,11.9454 27.0323,11.9992 C27.0003,12.053 26.9666,12.106 26.9317,12.1569 C26.8969,12.2078 26.8609,12.2566 26.8244,12.3021 C26.7879,12.3476 26.751,12.3898 26.7143,12.4281 C26.6775,12.4665 26.6409,12.5011 26.6043,12.532 C26.5677,12.5629 26.5312,12.5903 26.4939,12.6147 C26.4565,12.6391 26.4184,12.6608 26.3783,12.6797 C26.3381,12.6986 26.2962,12.7147 26.2523,12.7274 C26.2084,12.7402 26.1625,12.7496 26.1154,12.7549 C26.0681,12.7603 26.0195,12.7617 25.9707,12.7586 C25.9219,12.7556 25.8728,12.7482 25.8247,12.7364 C25.7764,12.7246 25.7291,12.7085 25.6834,12.6883 C25.6377,12.6681 25.5935,12.6439 25.5508,12.6159 C25.5082,12.5879 25.4669,12.556 25.4262,12.5198 C25.3856,12.4835 25.3453,12.4427 25.3046,12.3964 C25.2638,12.3501 25.2227,12.2983 25.1814,12.2409 C25.14,12.1835 25.0984,12.1205 25.0573,12.0529 C25.0163,11.9853 24.9758,11.9131 24.9368,11.8382 C24.8979,11.7633 24.8606,11.6858 24.8258,11.6078 C24.791,11.5297 24.7587,11.4512 24.7294,11.3738 C24.7001,11.2964 24.6737,11.2201 24.6501,11.1453 C24.6266,11.0705 24.6058,10.9972 24.5873,10.924 C24.5688,10.8509 24.5525,10.7776 24.5379,10.7024 C24.5233,10.6271 24.5104,10.5498 24.4992,10.4703 C24.488,10.3907 24.4783,10.3088 24.4702,10.2255 C24.4622,10.1423 24.4557,10.0576 24.4507,9.97326 C24.4456,9.88892 24.4421,9.80492 24.4399,9.72289 C24.4375,9.64086 24.4365,9.56083 24.4363,9.48365 C24.4361,9.40646 24.4368,9.33215 24.438,9.2603 C24.4391,9.18845 24.4408,9.11909 24.4428,9.05036 C24.4448,8.98163 24.4469,8.91326 24.4495,8.84343 C24.4521,8.77361 24.455,8.70233 24.4586,8.62927 C24.4623,8.55621 24.4664,8.48139 24.4713,8.40555 C24.476,8.32971 24.4815,8.25292 24.4877,8.17657 C24.4939,8.10022 24.5007,8.02439 24.5083,7.95042 C24.5157,7.87647 24.5237,7.80441 24.5324,7.73496 C24.5411,7.66548 24.5503,7.59861 24.5601,7.5339 C24.5699,7.46918 24.5803,7.40665 24.5915,7.34454 C24.6027,7.28243 24.6149,7.22051 24.6287,7.15704 C24.6424,7.09357 24.6579,7.02857 24.6755,6.96161 C24.6931,6.89467 24.7127,6.82581 24.7349,6.75562 C24.7569,6.68545 24.7813,6.614 24.808,6.54253 C24.8346,6.47107 24.8635,6.39962 24.8943,6.32944 C24.925,6.25926 24.9575,6.19039 24.9916,6.12345 C25.0258,6.0565 25.0615,5.9915 25.0989,5.92803 C25.1363,5.86455 25.1754,5.80263 25.2172,5.74052 C25.259,5.67841 25.3036,5.61588 25.3523,5.55166 C25.4008,5.48743 25.4535,5.42155 25.5101,5.35413 C25.5668,5.28671 25.6276,5.21777 25.6914,5.14851 C25.7554,5.07926 25.8226,5.00972 25.8912,4.94166 C25.9599,4.87362 26.0302,4.8071 26.1002,4.74373 C26.1701,4.68037 26.2398,4.62017 26.3081,4.56405 C26.3763,4.50792 26.4431,4.45584 26.5083,4.4077 C26.5734,4.35957 26.637,4.31537 26.7001,4.27407 C26.7632,4.23277 26.8264,4.1942 26.891,4.15748 C26.9558,4.12078 27.0221,4.08595 27.0904,4.05303 C27.1587,4.0201 27.229,3.98907 27.3005,3.96038 C27.3721,3.93168 27.4449,3.90532 27.5177,3.88176 C27.5904,3.85818 27.6629,3.83739 27.734,3.81959 C27.8053,3.80178 27.8749,3.78693 27.9424,3.77487 C28.01,3.76281 28.0754,3.75351 28.1389,3.74653 C28.2025,3.73956 28.2643,3.73489 28.3261,3.73206 C28.3878,3.72923 28.4497,3.72819 28.5134,3.72923 C28.5771,3.73024 28.6424,3.73334 28.7098,3.73877 C28.7773,3.74422 28.8466,3.75203 28.9171,3.76237 C28.9878,3.7727 29.0595,3.78555 29.1311,3.80079 C29.2026,3.81604 29.2739,3.83367 29.3435,3.85332 C29.4129,3.87298 29.4808,3.89465 29.5462,3.91797 C29.6116,3.94128 29.6746,3.96622 29.7353,3.99272 C29.7961,4.01921 29.8547,4.04724 29.9128,4.07735 C29.9709,4.10746 30.0285,4.13976 30.0873,4.17542 C30.1461,4.21106 30.206,4.25006 30.2672,4.29289 C30.3285,4.33573 30.391,4.38239 30.4543,4.43266 C30.5176,4.48292 30.5816,4.53675 30.6448,4.59324 C30.7081,4.64974 30.7708,4.70885 30.8317,4.76942 C30.8926,4.82999 30.9516,4.89196 31.0085,4.95455 C31.0651,5.01713 31.1194,5.08029 31.1718,5.14409 C31.2241,5.2079 31.2745,5.27232 31.3241,5.33883 C31.3738,5.40534 31.423,5.47425 31.4728,5.54741 C31.5225,5.62058 31.5729,5.69802 31.6234,5.78017 C31.6739,5.86232 31.7247,5.9492 31.7749,6.03988 C31.8251,6.13055 31.8745,6.22499 31.922,6.32129 C31.9695,6.4176 32.0149,6.51568 32.0573,6.6135 C32.0997,6.71131 32.1388,6.80879 32.1743,6.90463 C32.2099,7.00048 32.2418,7.09464 32.2701,7.18731 C32.2986,7.27998 32.3234,7.37111 32.3454,7.46285 C32.3675,7.55459 32.3867,7.64731 32.4038,7.74326 C32.4208,7.83922 32.4355,7.93835 32.4481,8.04093 C32.4608,8.14351 32.4713,8.24951 32.4796,8.35752 C32.4878,8.46553 32.4939,8.57551 32.4979,8.68507 C32.5021,8.79463 32.5041,8.90367 32.5044,9.00992 C32.5048,9.11615 32.5034,9.21948 32.5007,9.31864 C32.4981,9.4178 32.4942,9.51276 32.4895,9.60383 C32.4848,9.6949 32.4793,9.78207 32.4731,9.8675 C32.4669,9.95293 32.4603,10.037 32.4528,10.1217 C32.4452,10.2063 32.4366,10.2916 32.4271,10.3776 C32.4177,10.4635 32.407,10.5503 32.3955,10.6366 C32.3839,10.7228 32.3713,10.8087 32.3576,10.8923 C32.3442,10.976 32.3299,11.0574 32.3149,11.135 C32.2998,11.2126 32.2843,11.2863 32.2683,11.3557 C32.2524,11.425 32.236,11.4898 32.2192,11.5507 C32.2025,11.6116 32.1852,11.6686 32.1673,11.7233 C32.1493,11.778 32.1304,11.8306 32.1099,11.8824 C32.0894,11.9343 32.0674,11.9852 32.0435,12.0352 C32.0197,12.0853 31.994,12.1345 31.9665,12.1821 C31.9389,12.2296 31.9097,12.2756 31.8791,12.3191 C31.8485,12.3625 31.8167,12.4034 31.7841,12.441 C31.7516,12.4787 31.7183,12.513 31.6848,12.544 C31.6513,12.575 31.6175,12.6026 31.5831,12.6273 C31.5489,12.6519 31.5144,12.6736 31.4784,12.6931 C31.4425,12.7127 31.4053,12.7302 31.3659,12.7457 C31.3264,12.7612 31.2847,12.7747 31.2405,12.7858 C31.1965,12.797 31.1499,12.8057 31.1016,12.8115 C31.0535,12.8174 31.0036,12.8204 30.953,12.8201 C30.9025,12.8199 30.8515,12.8165 30.8011,12.8099 C30.7507,12.8033 30.7011,12.7935 30.6528,12.7808 C30.6047,12.7681 30.5578,12.7524 30.5125,12.7339 C30.4672,12.7154 30.4233,12.6942 30.38,12.6697 C30.3366,12.6453 30.2934,12.6176 30.2496,12.5857 C30.206,12.5539 30.1615,12.5178 30.1165,12.4772 C30.0716,12.4366 30.0259,12.3914 29.9804,12.342 C29.9348,12.2926 29.8894,12.239 29.845,12.1824 C29.8007,12.1257 29.7576,12.066 29.7165,12.0046 C29.6755,11.9432 29.6365,11.8802 29.6002,11.8165 C29.5639,11.7529 29.5299,11.6887 29.4985,11.6241 C29.4671,11.5594 29.438,11.4943 29.4105,11.4275 C29.383,11.3607 29.3571,11.2918 29.3318,11.2192 C29.3067,11.1465 29.2824,11.0702 29.2592,10.9898 C29.2357,10.9094 29.2133,10.825 29.1918,10.7377 C29.1705,10.6504 29.1504,10.5602 29.1318,10.4691 C29.1131,10.378 29.096,10.2861 29.0807,10.1953 C29.0654,10.1046 29.0518,10.0151 29.0399,9.92814 C29.0281,9.84117 29.0179,9.75674 29.0092,9.67473 C29.0005,9.59272 28.9932,9.51315 28.9869,9.43417 C28.9805,9.35519 28.9753,9.27651 28.9711,9.19607 C28.9669,9.11565 28.9637,9.03352 28.9617,8.94939 C28.9598,8.86524 28.9591,8.77911 28.9598,8.69195 C28.9605,8.6048 28.9626,8.51669 28.9661,8.42933 C28.9696,8.34198 28.9745,8.25545 28.9808,8.17137 C28.9871,8.0873 28.9948,8.00574 29.0037,7.92749 C29.0125,7.84926 29.0226,7.77435 29.0339,7.70234 C29.0451,7.63032 29.0574,7.56121 29.071,7.49311 C29.0846,7.42502 29.0998,7.35765 29.1166,7.2895 C29.1335,7.22137 29.152,7.15246 29.1723,7.08275 C29.1927,7.01306 29.2148,6.94259 29.2385,6.87235 C29.2621,6.80211 29.2872,6.73215 29.3132,6.66402 C29.339,6.59588 29.3656,6.52962 29.3924,6.46656 C29.4192,6.40351 29.446,6.3437 29.4724,6.28776 C29.4988,6.23184 29.5247,6.17977 29.5501,6.13125 C29.5755,6.08273 29.6005,6.03773 29.6252,5.99502 C29.6499,5.95231 29.6747,5.91168 29.7004,5.87178 C29.7261,5.83187 29.7526,5.7927 29.7805,5.75372 C29.8084,5.71472 29.8376,5.67594 29.868,5.63734 C29.8985,5.59872 29.9302,5.56033 29.9629,5.52234 C29.9954,5.48438 30.0289,5.44686 30.0629,5.41001 C30.0968,5.37314 30.1312,5.33693 30.1659,5.30129 C30.2005,5.26563 30.2353,5.23054 30.2705,5.19538 C30.3057,5.16023 30.3414,5.12503 30.3786,5.08846 C30.4157,5.0519 30.4544,5.0138 30.4958,4.97354 C30.5374,4.93329 30.5814,4.89087 30.6286,4.8465 C30.6757,4.8021 30.7259,4.75577 30.7785,4.70843 C30.8311,4.6611 30.8863,4.61278 30.9428,4.56488 C30.9993,4.517 31.0571,4.46958 31.1151,4.42398 C31.1732,4.37837 31.2312,4.33463 31.2885,4.29359 C31.3459,4.25254 31.4025,4.2142 31.4585,4.1787 C31.5145,4.1432 31.5698,4.11052 31.6257,4.0801 C31.6817,4.04969 31.7385,4.02137 31.7977,3.99469 C31.8569,3.968 31.9187,3.94296 31.9833,3.91969 C32.0479,3.89642 32.1154,3.87496 32.1851,3.85573 C32.2548,3.8365 32.3268,3.81951 32.3997,3.80518 C32.4725,3.79084 32.5463,3.77916 32.6196,3.77028 C32.6928,3.7614 32.7655,3.75531 32.8367,3.75188 C32.9082,3.74847 32.978,3.74769 33.0469,3.74927 C33.1156,3.75087 33.1834,3.7548 33.2517,3.76095 C33.3201,3.7671 33.3892,3.77548 33.461,3.78678 C33.5329,3.79808 33.6074,3.81233 33.6847,3.83012 C33.762,3.8479 33.8421,3.86923 33.924,3.89435 C34.0059,3.91947 34.0897,3.94837 34.1734,3.98081 C34.2572,4.01326 34.341,4.04922 34.4229,4.08812 C34.5048,4.12703 34.5849,4.16885 34.6622,4.21305 C34.7395,4.25726 34.814,4.30383 34.8859,4.35279 C34.9577,4.40176 35.0268,4.45307 35.0952,4.50793 C35.1635,4.56278 35.2312,4.62141 35.2997,4.68512 C35.3682,4.74884 35.4375,4.81765 35.5073,4.89167 C35.5772,4.96568 35.6478,5.04489 35.7179,5.12811 C35.7879,5.21132 35.8574,5.2985 35.9247,5.38745 C35.9919,5.47641 36.0569,5.56709 36.1182,5.65719 C36.1793,5.74726 36.2369,5.83668 36.29,5.92387 C36.3431,6.01106 36.3917,6.09598 36.4362,6.17846 C36.4808,6.26095 36.5211,6.34097 36.5584,6.4201 C36.5957,6.49923 36.6298,6.57738 36.6617,6.65784 C36.6935,6.7383 36.7231,6.82128 36.752,6.91096 C36.7808,7.00064 36.809,7.09724 36.8373,7.20291 C36.8657,7.30857 36.8943,7.42363 36.9225,7.54374 C36.9507,7.66385 36.9786,7.78899 37.0034,7.90468 C37.0284,8.02038 37.0501,8.1254 37.0661,8.204 C37.0823,8.28259 37.0924,8.33375 37.0974,8.35981 C37.1025,8.38586 37.1027,8.38729 37.1027,8.38729" fill-rule="nonzero" vector-effect="none"/></g><defs><clipPath id="clip76"><path d="M1,1 L51,1 L51,27 L1,27 L1,1 z"/></clipPath></defs><g clip-path="url(#clip76)" fill="none" opacity="1" stroke="#ffffff" stroke-linecap="butt" stroke-linejoin="miter" stroke-miterlimit="20" stroke-opacity="1" stroke-width="0.8775" transform="matrix(2.85714,0,0,2.85714,25.7143,2.85714)"><path d="M1,0.999999 L51.0001,0.999999 L51.0001,27 L1,27 L1,0.999999 z" fill-rule="nonzero" vector-effect="none"/></g><defs><clipPath id="clip93"><path d="M-241,-67 L15,-67 L15,66 L-241,66 L-241,-67 z"/></clipPath></defs><g clip-path="url(#clip93)" fill="none" opacity="1" stroke="#e60000" stroke-linecap="square" stroke-linejoin="bevel" stroke-opacity="1" stroke-width="1" transform="matrix(0.558036,0,0,0.558036,162.857,42.8571)"><text fill="#e60000" fill-opacity="1" font-family="Liberation Sans" font-size="40" font-style="normal" font-weight="400" stroke="none" textLength="29" x="-36.9531" xml:space="preserve" y="17.9219">C</text></g><defs><clipPath id="clip96"><path d="M-15,-67 L241,-67 L241,66 L-15,66 L-15,-67 z"/></clipPath></defs><g clip-path="url(#clip96)" fill="none" opacity="1" stroke="#e60000" stroke-linecap="square" stroke-linejoin="bevel" stroke-opacity="1" stroke-width="1" transform="matrix(0.558036,0,0,0.558036,37.1429,42.8571)"><text fill="#e60000" fill-opacity="1" font-family="Liberation Sans" font-size="40" font-style="normal" font-weight="400" stroke="none" textLength="29" x="0" xml:space="preserve" y="17.9219">R</text></g><defs><clipPath id="clip102"><path d="M-10,-2 L60,-2 L60,28 L-10,28 L-10,-2 z"/></clipPath></defs><g clip-path="url(#clip102)" fill="none" opacity="1" stroke="none" stroke-opacity="0" transform="matrix(2.85714,0,0,2.85714,28.5714,5.71429)"><path d="M0,0 L50,0 L50,26 L0,26 L0,0 z" fill-rule="evenodd" vector-effect="none"/></g></g></svg>
