<?xml version="1.0" encoding="UTF-8"?><svg width="52.9167mm" height="29.1042mm" viewBox="0 0 200 110" xmlns="http://www.w3.org/2000/svg" xmlns:xlink="http://www.w3.org/1999/xlink"><g fill="none" stroke="black" stroke-width="1" fill-rule="evenodd" stroke-linecap="square" stroke-linejoin="bevel"><g clip-path="none" fill="none" opacity="1" stroke="none" stroke-opacity="0" transform="matrix(1,0,0,1,0,0)"><path d="M0,0 L200,0 L200,110 L0,110 L0,0 z" fill-rule="evenodd" vector-effect="none"/></g><defs><clipPath id="clip6"><path d="M0,0 L10,0 L10,10 L0,10 L0,0 z"/></clipPath></defs><g clip-path="url(#clip6)" fill="#b3b3b3" fill-opacity="1" opacity="1" stroke="none" stroke-opacity="0" transform="matrix(2.5,0,0,2.5,175,45)"><path d="M0.5,3.5 L3.5,3.5 L3.5,6.5 L0.5,6.5 L0.5,3.5 z" fill-rule="evenodd" vector-effect="none"/></g><defs><clipPath id="clip8"><path d="M0,0 L10,0 L10,10 L0,10 L0,0 z"/></clipPath></defs><g clip-path="url(#clip8)" fill="#000000" fill-opacity="1" opacity="1" stroke="none" stroke-opacity="0" transform="matrix(2.5,0,0,2.5,175,45)"><path d="M3,4 L3,6 L1,6 L1,4 L3,4 M4,3 L0,3 L0,7 L4,7 L4,3" fill-rule="nonzero" vector-effect="none"/></g><defs><clipPath id="clip28"><path d="M0,0 L10,0 L10,10 L0,10 L0,0 z"/></clipPath></defs><g clip-path="url(#clip28)" fill="#b3b3b3" fill-opacity="1" opacity="1" stroke="none" stroke-opacity="0" transform="matrix(-2.5,0,0,2.5,25,45)"><path d="M0.5,3.5 L3.5,3.5 L3.5,6.5 L0.5,6.5 L0.5,3.5 z" fill-rule="evenodd" vector-effect="none"/></g><defs><clipPath id="clip30"><path d="M0,0 L10,0 L10,10 L0,10 L0,0 z"/></clipPath></defs><g clip-path="url(#clip30)" fill="#000000" fill-opacity="1" opacity="1" stroke="none" stroke-opacity="0" transform="matrix(-2.5,0,0,2.5,25,45)"><path d="M3,4 L3,6 L1,6 L1,4 L3,4 M4,3 L0,3 L0,7 L4,7 L4,3" fill-rule="nonzero" vector-effect="none"/></g><defs><clipPath id="clip47"><path d="M-10,-2 L70,-2 L70,42 L-10,42 L-10,-2 z"/></clipPath></defs><g clip-path="url(#clip47)" fill="#ffffff" fill-opacity="1" opacity="1" stroke="none" stroke-opacity="0" transform="matrix(2.5,0,0,2.5,25,5)"><path d="M0,0 L60,0 L60,40 L0,40 L0,0 z" fill-rule="evenodd" vector-effect="none"/></g><defs><clipPath id="clip51"><path d="M0,0 L60,0 L60,40 L0,40 L0,0 z"/></clipPath></defs><g clip-path="url(#clip51)" fill="none" opacity="1" stroke="none" stroke-opacity="0" transform="matrix(2.5,0,0,2.5,25,5)"><path d="M0,0 L60,0 L60,40 L0,40 L0,0 z" fill-rule="evenodd" vector-effect="none"/></g><defs><clipPath id="clip61"><path d="M1,1 L61,1 L61,41 L1,41 L1,1 z"/></clipPath></defs><g clip-path="url(#clip61)" fill="none" opacity="1" stroke="#35d461" stroke-linecap="butt" stroke-linejoin="miter" stroke-miterlimit="20" stroke-opacity="1" stroke-width="1.3325" transform="matrix(2.5,0,0,2.5,22.5,2.5)"><path d="M1,21 L31,21" fill-rule="nonzero" vector-effect="none"/></g><defs><clipPath id="clip62"><path d="M1,1 L61,1 L61,41 L1,41 L1,1 z"/></clipPath></defs><g clip-path="url(#clip62)" fill="none" opacity="1" stroke="#35d461" stroke-linecap="butt" stroke-linejoin="miter" stroke-miterlimit="20" stroke-opacity="1" stroke-width="1.3325" transform="matrix(2.5,0,0,2.5,22.5,2.5)"><path d="M19.75,7.00002 L42.25,12.3334 L42.25,29.6667 L19.75,35.0001" fill-rule="nonzero" vector-effect="none"/></g><defs><clipPath id="clip63"><path d="M1,1 L61,1 L61,41 L1,41 L1,1 z"/></clipPath></defs><g clip-path="url(#clip63)" fill="none" opacity="1" stroke="#35d461" stroke-linecap="butt" stroke-linejoin="miter" stroke-miterlimit="20" stroke-opacity="1" stroke-width="1.3325" transform="matrix(2.5,0,0,2.5,22.5,2.5)"><path d="M42.25,21 L61,21" fill-rule="nonzero" vector-effect="none"/></g><defs><clipPath id="clip64"><path d="M1,1 L61,1 L61,41 L1,41 L1,1 z"/></clipPath></defs><g clip-path="url(#clip64)" fill="none" opacity="1" stroke="#35d461" stroke-linecap="butt" stroke-linejoin="miter" stroke-miterlimit="20" stroke-opacity="1" stroke-width="1.3325" transform="matrix(2.5,0,0,2.5,22.5,2.5)"><path d="M31,11.9926 L31,30.1408" fill-rule="nonzero" vector-effect="none"/></g><defs><clipPath id="clip65"><path d="M1,1 L61,1 L61,41 L1,41 L1,1 z"/></clipPath></defs><g clip-path="url(#clip65)" fill="none" opacity="1" stroke="#35d461" stroke-linecap="butt" stroke-linejoin="miter" stroke-miterlimit="20" stroke-opacity="1" stroke-width="1.3325" transform="matrix(2.5,0,0,2.5,22.5,2.5)"><path d="M31,30.1408 L31,30.3334" fill-rule="nonzero" vector-effect="none"/></g><defs><clipPath id="clip66"><path d="M1,1 L61,1 L61,41 L1,41 L1,1 z"/></clipPath></defs><g clip-path="url(#clip66)" fill="none" opacity="1" stroke="#35d461" stroke-linecap="butt" stroke-linejoin="miter" stroke-miterlimit="20" stroke-opacity="1" stroke-width="1.3325" transform="matrix(2.5,0,0,2.5,22.5,2.5)"><path d="M26.5,31.0001 L37,29.0001" fill-rule="nonzero" vector-effect="none"/></g><defs><clipPath id="clip67"><path d="M1,1 L61,1 L61,41 L1,41 L1,1 z"/></clipPath></defs><g clip-path="url(#clip67)" fill="none" opacity="1" stroke="#35d461" stroke-linecap="butt" stroke-linejoin="miter" stroke-miterlimit="20" stroke-opacity="1" stroke-width="1.3325" transform="matrix(2.5,0,0,2.5,22.5,2.5)"><path d="M25.75,11 L36.25,13" fill-rule="nonzero" vector-effect="none"/></g><defs><clipPath id="clip68"><path d="M1,1 L61,1 L61,41 L1,41 L1,1 z"/></clipPath></defs><g clip-path="url(#clip68)" fill="none" opacity="1" stroke="#ffffff" stroke-linecap="butt" stroke-linejoin="miter" stroke-miterlimit="20" stroke-opacity="1" stroke-width="1.3325" transform="matrix(2.5,0,0,2.5,22.5,2.5)"><path d="M1,1.00001 L61,1.00001 L61,41.0001 L1,41.0001 L1,1.00001 z" fill-rule="nonzero" vector-effect="none"/></g><defs><clipPath id="clip85"><path d="M-292,-102 L15,-102 L15,103 L-292,103 L-292,-102 z"/></clipPath></defs><g clip-path="url(#clip85)" fill="none" opacity="1" stroke="#e60000" stroke-linecap="square" stroke-linejoin="bevel" stroke-opacity="1" stroke-width="1" transform="matrix(0.488281,0,0,0.488281,167.5,55)"><text fill="#e60000" fill-opacity="1" font-family="Liberation Sans" font-size="40" font-style="normal" font-weight="400" stroke="none" textLength="29" x="-36.9531" xml:space="preserve" y="17.9219">C</text></g><defs><clipPath id="clip88"><path d="M-15,-102 L292,-102 L292,103 L-15,103 L-15,-102 z"/></clipPath></defs><g clip-path="url(#clip88)" fill="none" opacity="1" stroke="#e60000" stroke-linecap="square" stroke-linejoin="bevel" stroke-opacity="1" stroke-width="1" transform="matrix(0.488281,0,0,0.488281,32.5,55)"><text fill="#e60000" fill-opacity="1" font-family="Liberation Sans" font-size="40" font-style="normal" font-weight="400" stroke="none" textLength="29" x="0" xml:space="preserve" y="17.9219">R</text></g><defs><clipPath id="clip94"><path d="M-10,-2 L70,-2 L70,42 L-10,42 L-10,-2 z"/></clipPath></defs><g clip-path="url(#clip94)" fill="none" opacity="1" stroke="none" stroke-opacity="0" transform="matrix(2.5,0,0,2.5,25,5)"><path d="M0,0 L60,0 L60,40 L0,40 L0,0 z" fill-rule="evenodd" vector-effect="none"/></g></g></svg>
