<?xml version="1.0" encoding="UTF-8"?><svg width="52.9167mm" height="29.1042mm" viewBox="0 0 200 110" xmlns="http://www.w3.org/2000/svg" xmlns:xlink="http://www.w3.org/1999/xlink"><g fill="none" stroke="black" stroke-width="1" fill-rule="evenodd" stroke-linecap="square" stroke-linejoin="bevel"><g clip-path="none" fill="none" opacity="1" stroke="none" stroke-opacity="0" transform="matrix(1,0,0,1,0,0)"><path d="M0,0 L200,0 L200,110 L0,110 L0,0 z" fill-rule="evenodd" vector-effect="none"/></g><defs><clipPath id="clip6"><path d="M0,0 L10,0 L10,10 L0,10 L0,0 z"/></clipPath></defs><g clip-path="url(#clip6)" fill="#b3b3b3" fill-opacity="1" opacity="1" stroke="none" stroke-opacity="0" transform="matrix(2.5,0,0,2.5,175,45)"><path d="M0.5,3.5 L3.5,3.5 L3.5,6.5 L0.5,6.5 L0.5,3.5 z" fill-rule="evenodd" vector-effect="none"/></g><defs><clipPath id="clip8"><path d="M0,0 L10,0 L10,10 L0,10 L0,0 z"/></clipPath></defs><g clip-path="url(#clip8)" fill="#000000" fill-opacity="1" opacity="1" stroke="none" stroke-opacity="0" transform="matrix(2.5,0,0,2.5,175,45)"><path d="M3,4 L3,6 L1,6 L1,4 L3,4 M4,3 L0,3 L0,7 L4,7 L4,3" fill-rule="nonzero" vector-effect="none"/></g><defs><clipPath id="clip28"><path d="M0,0 L10,0 L10,10 L0,10 L0,0 z"/></clipPath></defs><g clip-path="url(#clip28)" fill="#b3b3b3" fill-opacity="1" opacity="1" stroke="none" stroke-opacity="0" transform="matrix(-2.5,0,0,2.5,25,70)"><path d="M0.5,3.5 L3.5,3.5 L3.5,6.5 L0.5,6.5 L0.5,3.5 z" fill-rule="evenodd" vector-effect="none"/></g><defs><clipPath id="clip30"><path d="M0,0 L10,0 L10,10 L0,10 L0,0 z"/></clipPath></defs><g clip-path="url(#clip30)" fill="#000000" fill-opacity="1" opacity="1" stroke="none" stroke-opacity="0" transform="matrix(-2.5,0,0,2.5,25,70)"><path d="M3,4 L3,6 L1,6 L1,4 L3,4 M4,3 L0,3 L0,7 L4,7 L4,3" fill-rule="nonzero" vector-effect="none"/></g><defs><clipPath id="clip51"><path d="M0,0 L10,0 L10,10 L0,10 L0,0 z"/></clipPath></defs><g clip-path="url(#clip51)" fill="#ffffff" fill-opacity="1" opacity="1" stroke="none" stroke-opacity="0" transform="matrix(2.5,0,0,2.5,0,20)"><path d="M8.882,5 L0.5,9.191 L0.5,0.809 L8.882,5 z" fill-rule="evenodd" vector-effect="none"/></g><defs><clipPath id="clip53"><path d="M0,0 L10,0 L10,10 L0,10 L0,0 z"/></clipPath></defs><g clip-path="url(#clip53)" fill="#000000" fill-opacity="1" opacity="1" stroke="none" stroke-opacity="0" transform="matrix(2.5,0,0,2.5,0,20)"><path d="M1,1.618 L7.764,5 L1,8.382 L1,1.618 M0,0 L0,10 L10,5 L0,0" fill-rule="nonzero" vector-effect="none"/></g><defs><clipPath id="clip72"><path d="M-10,-2 L70,-2 L70,42 L-10,42 L-10,-2 z"/></clipPath></defs><g clip-path="url(#clip72)" fill="#ffffff" fill-opacity="1" opacity="1" stroke="none" stroke-opacity="0" transform="matrix(2.5,0,0,2.5,25,5)"><path d="M0,0 L60,0 L60,40 L0,40 L0,0 z" fill-rule="evenodd" vector-effect="none"/></g><defs><clipPath id="clip76"><path d="M0,0 L60,0 L60,40 L0,40 L0,0 z"/></clipPath></defs><g clip-path="url(#clip76)" fill="none" opacity="1" stroke="none" stroke-opacity="0" transform="matrix(2.5,0,0,2.5,25,5)"><path d="M0,0 L60,0 L60,40 L0,40 L0,0 z" fill-rule="evenodd" vector-effect="none"/></g><defs><clipPath id="clip86"><path d="M1,1 L61,1 L61,41 L1,41 L1,1 z"/></clipPath></defs><g clip-path="url(#clip86)" fill="none" opacity="1" stroke="#35d461" stroke-linecap="butt" stroke-linejoin="miter" stroke-miterlimit="20" stroke-opacity="1" stroke-width="1.3325" transform="matrix(2.5,0,0,2.5,22.5,2.5)"><path d="M47.2857,21 L60.9999,21" fill-rule="nonzero" vector-effect="none"/></g><defs><clipPath id="clip87"><path d="M1,1 L61,1 L61,41 L1,41 L1,1 z"/></clipPath></defs><g clip-path="url(#clip87)" fill="none" opacity="1" stroke="#35d461" stroke-linecap="butt" stroke-linejoin="miter" stroke-miterlimit="20" stroke-opacity="1" stroke-width="1.3325" transform="matrix(2.5,0,0,2.5,22.5,2.5)"><path d="M0.999998,31.6667 L10.1428,31.6667 L10.1428,21 L13,21 L13.254,20.8963 L13,21" fill-rule="nonzero" vector-effect="none"/></g><defs><clipPath id="clip88"><path d="M1,1 L61,1 L61,41 L1,41 L1,1 z"/></clipPath></defs><g clip-path="url(#clip88)" fill="none" opacity="1" stroke="#35d461" stroke-linecap="butt" stroke-linejoin="miter" stroke-miterlimit="20" stroke-opacity="1" stroke-width="1.3325" transform="matrix(2.5,0,0,2.5,22.5,2.5)"><path d="M13.254,20.8963 C13.254,20.8963 13.2547,20.8929 13.2688,20.8319 C13.283,20.7709 13.3108,20.6512 13.3541,20.4683 C13.3974,20.2855 13.4557,20.0419 13.5209,19.7755 C13.586,19.5091 13.6574,19.2226 13.7275,18.9506 C13.7977,18.6787 13.8664,18.4211 13.9318,18.1889 C13.9971,17.9566 14.0592,17.7487 14.1196,17.5611 C14.1801,17.3735 14.2391,17.2057 14.2996,17.0492 C14.36,16.8926 14.4221,16.747 14.4878,16.605 C14.5535,16.4629 14.6228,16.3246 14.6972,16.1866 C14.7716,16.0486 14.8514,15.9111 14.9366,15.7738 C15.0218,15.6364 15.1125,15.4994 15.2076,15.3643 C15.3027,15.2292 15.4021,15.0963 15.5036,14.968 C15.605,14.8397 15.7085,14.7162 15.8114,14.5996 C15.9144,14.483 16.0169,14.3734 16.1172,14.2716 C16.2176,14.1697 16.3158,14.0756 16.4118,13.9881 C16.5078,13.9006 16.6016,13.8199 16.6952,13.7432 C16.7888,13.6666 16.8826,13.5937 16.9791,13.523 C17.0756,13.4523 17.1749,13.384 17.2773,13.3181 C17.3797,13.2522 17.4853,13.1888 17.5931,13.1288 C17.7009,13.0689 17.8107,13.0125 17.9206,12.9609 C18.0305,12.9093 18.1404,12.8624 18.2481,12.821 C18.3559,12.7797 18.4615,12.7439 18.5639,12.7136 C18.6664,12.6833 18.7656,12.6585 18.8621,12.6386 C18.9586,12.6187 19.0524,12.6037 19.146,12.5926 C19.2396,12.5816 19.3334,12.5745 19.4299,12.5719 C19.5265,12.5692 19.6257,12.571 19.7281,12.578 C19.8306,12.5849 19.9362,12.5971 20.044,12.6149 C20.1518,12.6328 20.2618,12.6563 20.3716,12.6854 C20.4817,12.7144 20.5915,12.749 20.6995,12.7886 C20.8074,12.8281 20.9132,12.8725 21.0157,12.9211 C21.1183,12.9697 21.2176,13.0223 21.3143,13.079 C21.411,13.1356 21.5052,13.1961 21.5989,13.2618 C21.6927,13.3274 21.7869,13.3984 21.8834,13.4767 C21.9799,13.5551 22.0787,13.6407 22.1801,13.7342 C22.2815,13.8276 22.3854,13.9288 22.4901,14.0366 C22.5951,14.1445 22.7012,14.2588 22.8057,14.3772 C22.9103,14.4955 23.0135,14.6178 23.113,14.7411 C23.2127,14.8644 23.3086,14.9885 23.3996,15.1116 C23.4908,15.2347 23.5771,15.3566 23.6588,15.4771 C23.7407,15.5977 23.8182,15.7168 23.8931,15.8371 C23.968,15.9573 24.0408,16.0791 24.113,16.2061 C24.1852,16.3331 24.2567,16.4653 24.3274,16.6038 C24.3983,16.7422 24.4681,16.8869 24.5363,17.0367 C24.6044,17.1865 24.6707,17.3414 24.7335,17.4987 C24.7964,17.6559 24.8559,17.8155 24.9107,17.9745 C24.9655,18.1335 25.0156,18.2919 25.0609,18.448 C25.1062,18.6041 25.1464,18.7579 25.1822,18.91 C25.218,19.0622 25.2493,19.2127 25.2772,19.3655 C25.3052,19.5183 25.3297,19.6739 25.3515,19.836 C25.3735,19.9981 25.3926,20.1666 25.4091,20.3416 C25.4256,20.5166 25.4396,20.6981 25.4506,20.8834 C25.4616,21.0687 25.4698,21.2577 25.4755,21.446 C25.481,21.6342 25.4838,21.8216 25.4844,22.0038 C25.4849,22.1859 25.4829,22.3628 25.4791,22.5318 C25.4755,22.7008 25.4698,22.862 25.4628,23.0156 C25.4559,23.1691 25.4476,23.3151 25.4381,23.4568 C25.4286,23.5986 25.418,23.7366 25.4059,23.8749 C25.3936,24.0129 25.3799,24.1512 25.3644,24.2899 C25.3488,24.4287 25.3314,24.568 25.3126,24.7067 C25.2935,24.8455 25.2728,24.9833 25.2508,25.1181 C25.2286,25.2529 25.2053,25.3845 25.1809,25.5109 C25.1568,25.6373 25.1318,25.7586 25.1062,25.8739 C25.0806,25.9892 25.0546,26.0986 25.0283,26.2033 C25.0019,26.3077 24.975,26.4077 24.9471,26.5062 C24.9191,26.6047 24.8901,26.702 24.8588,26.8003 C24.8277,26.8983 24.7943,26.9973 24.7579,27.0966 C24.7217,27.1959 24.6827,27.2956 24.641,27.3939 C24.5996,27.4924 24.5551,27.5892 24.5088,27.6823 C24.4624,27.7751 24.4142,27.864 24.3644,27.947 C24.3149,28.0299 24.2641,28.1067 24.2127,28.1764 C24.161,28.246 24.109,28.3087 24.0559,28.3645 C24.0029,28.4206 23.9492,28.4697 23.8931,28.5136 C23.837,28.5576 23.7786,28.5961 23.7164,28.6297 C23.6542,28.6633 23.5883,28.6914 23.5185,28.7134 C23.4487,28.7356 23.375,28.7514 23.2986,28.7598 C23.2222,28.7682 23.1433,28.7692 23.0633,28.7623 C22.9835,28.7551 22.9028,28.7401 22.8233,28.7171 C22.7439,28.6941 22.6658,28.6635 22.5903,28.6252 C22.5147,28.5872 22.4417,28.5418 22.3712,28.4897 C22.3007,28.4373 22.2328,28.3783 22.1661,28.3112 C22.0995,28.244 22.0336,28.1689 21.9674,28.0838 C21.9012,27.9988 21.8343,27.9038 21.7672,27.7993 C21.7001,27.6946 21.6328,27.58 21.5661,27.4578 C21.4995,27.3356 21.4336,27.2055 21.3704,27.0714 C21.3069,26.9371 21.2459,26.7988 21.1888,26.6603 C21.1314,26.5218 21.0781,26.383 21.029,26.2472 C20.9799,26.1114 20.9352,25.9786 20.8946,25.8489 C20.8542,25.7196 20.8176,25.5936 20.7841,25.4692 C20.7507,25.3447 20.7202,25.221 20.6916,25.0951 C20.6633,24.9689 20.637,24.8403 20.6129,24.7084 C20.589,24.5766 20.567,24.4413 20.5473,24.304 C20.5276,24.1667 20.5105,24.0277 20.4957,23.8887 C20.4808,23.7499 20.4686,23.6114 20.4586,23.4758 C20.4487,23.3403 20.4413,23.2076 20.4358,23.079 C20.4305,22.9503 20.4271,22.8256 20.4254,22.7041 C20.4235,22.5826 20.4233,22.4643 20.4243,22.3457 C20.4254,22.2272 20.4275,22.1079 20.4311,21.9848 C20.4345,21.8616 20.4396,21.7345 20.4463,21.6026 C20.4529,21.4708 20.4614,21.3344 20.4715,21.1945 C20.4817,21.0547 20.4935,20.9116 20.5073,20.7679 C20.5208,20.6242 20.5361,20.4799 20.5528,20.3377 C20.5695,20.1956 20.5875,20.0557 20.6068,19.9194 C20.626,19.7831 20.6461,19.6506 20.6675,19.521 C20.6889,19.3915 20.7115,19.265 20.7354,19.1383 C20.7594,19.0116 20.7852,18.884 20.8135,18.7524 C20.8421,18.6208 20.8732,18.4853 20.9081,18.3453 C20.9428,18.2052 20.9809,18.0607 21.0228,17.9136 C21.0645,17.7664 21.11,17.6165 21.1583,17.4672 C21.2068,17.3178 21.2582,17.1689 21.3117,17.0235 C21.3653,16.8782 21.4212,16.7364 21.4785,16.5999 C21.5359,16.4635 21.5949,16.3322 21.6557,16.2057 C21.7162,16.0791 21.7786,15.9573 21.8444,15.8371 C21.9103,15.7168 21.9795,15.5977 22.054,15.4771 C22.1285,15.3565 22.208,15.2345 22.2933,15.1113 C22.3784,14.9881 22.469,14.8636 22.5638,14.74 C22.6584,14.6163 22.7572,14.4935 22.858,14.3744 C22.9585,14.2554 23.0609,14.1402 23.1625,14.0313 C23.2641,13.9225 23.3649,13.82 23.4631,13.7252 C23.5615,13.6304 23.6571,13.5432 23.7505,13.463 C23.8438,13.3829 23.9344,13.3099 24.0243,13.242 C24.1143,13.1741 24.204,13.111 24.2961,13.0516 C24.3881,12.9922 24.4825,12.9364 24.5803,12.8847 C24.6781,12.8329 24.779,12.7851 24.8827,12.7421 C24.9862,12.6992 25.0925,12.6612 25.1996,12.6288 C25.3069,12.5965 25.4148,12.5699 25.5221,12.5493 C25.6294,12.5287 25.7359,12.5141 25.8404,12.5051 C25.9452,12.4962 26.0482,12.4928 26.1503,12.4944 C26.2523,12.496 26.3532,12.5026 26.4561,12.5136 C26.5589,12.5246 26.6639,12.5402 26.7735,12.5608 C26.8829,12.5813 26.997,12.6069 27.1151,12.6375 C27.2334,12.6681 27.356,12.7039 27.4806,12.7442 C27.6055,12.7846 27.7325,12.8295 27.8582,12.8777 C27.9841,12.9259 28.109,12.9774 28.2296,13.0307 C28.35,13.084 28.4664,13.1391 28.5767,13.1946 C28.6868,13.2501 28.7909,13.306 28.8891,13.362 C28.9871,13.418 29.0791,13.474 29.1672,13.5309 C29.2552,13.5878 29.3397,13.6457 29.4228,13.7071 C29.5062,13.7685 29.5883,13.8333 29.6702,13.9027 C29.7522,13.9722 29.8336,14.0462 29.9145,14.125 C29.9951,14.2038 30.0751,14.2872 30.1536,14.3744 C30.2322,14.4617 30.309,14.5527 30.3833,14.6463 C30.4578,14.7399 30.5297,14.8359 30.5993,14.9338 C30.669,15.0316 30.7361,15.1311 30.8021,15.233 C30.8679,15.3349 30.9325,15.439 30.9979,15.5482 C31.0633,15.6574 31.1301,15.7721 31.1991,15.8955 C31.2681,16.0189 31.3395,16.151 31.4129,16.2924 C31.4861,16.4338 31.5613,16.5846 31.6366,16.7431 C31.7119,16.9016 31.7875,17.0676 31.8611,17.2378 C31.9348,17.408 32.0063,17.5822 32.0738,17.7564 C32.1411,17.9306 32.2044,18.1049 32.2624,18.2765 C32.3204,18.4482 32.3731,18.6172 32.4205,18.7837 C32.4677,18.9502 32.5098,19.1141 32.5471,19.2791 C32.5843,19.444 32.6173,19.6107 32.6468,19.7829 C32.6762,19.9552 32.702,20.1329 32.7242,20.3163 C32.7467,20.4997 32.7655,20.6888 32.7809,20.8808 C32.7964,21.0728 32.8082,21.2676 32.8167,21.4609 C32.8252,21.6541 32.8302,21.8455 32.8326,22.031 C32.8347,22.2164 32.8341,22.3958 32.8311,22.5666 C32.8283,22.7375 32.8233,22.8998 32.8165,23.0541 C32.8099,23.2084 32.8019,23.3546 32.7926,23.4963 C32.7833,23.6381 32.7731,23.7759 32.761,23.9136 C32.7492,24.0512 32.7354,24.1884 32.72,24.3262 C32.7045,24.464 32.6872,24.602 32.6677,24.7391 C32.6485,24.8763 32.6271,25.0124 32.6042,25.1452 C32.5811,25.2783 32.5566,25.4077 32.5308,25.5321 C32.505,25.6563 32.4781,25.7756 32.4501,25.8887 C32.4222,26.0018 32.3936,26.1092 32.364,26.2117 C32.3344,26.3144 32.3039,26.4121 32.2719,26.5087 C32.24,26.6052 32.2061,26.7005 32.1697,26.7968 C32.1333,26.8929 32.0942,26.9899 32.0518,27.0875 C32.0095,27.1847 31.964,27.2828 31.916,27.3793 C31.8677,27.4759 31.8169,27.5709 31.7642,27.6623 C31.7117,27.7536 31.6573,27.8413 31.6023,27.923 C31.5473,28.0045 31.4916,28.0803 31.4362,28.1492 C31.3807,28.2181 31.3255,28.2801 31.2703,28.3356 C31.215,28.3912 31.16,28.4401 31.1037,28.484 C31.0474,28.528 30.9898,28.5667 30.9293,28.6005 C30.8688,28.6346 30.8055,28.6635 30.7392,28.6862 C30.673,28.7092 30.6038,28.726 30.5327,28.7356 C30.4614,28.7455 30.3881,28.748 30.3145,28.7423 C30.2408,28.7368 30.1668,28.7235 30.0942,28.7025 C30.0214,28.6813 29.95,28.6524 29.881,28.6161 C29.8121,28.5798 29.7454,28.5366 29.681,28.4862 C29.6167,28.4359 29.5545,28.3788 29.4931,28.3136 C29.4317,28.2484 29.371,28.1754 29.3096,28.0922 C29.248,28.0092 29.186,27.9161 29.1238,27.8131 C29.0614,27.7102 28.9985,27.5971 28.9365,27.4756 C28.8747,27.3544 28.8135,27.2247 28.7547,27.0904 C28.6961,26.9559 28.6398,26.8168 28.5873,26.6766 C28.5348,26.5366 28.4861,26.3956 28.4419,26.2568 C28.3977,26.1178 28.3579,25.981 28.3223,25.8467 C28.2868,25.7124 28.2554,25.5808 28.2275,25.4494 C28.1996,25.3181 28.175,25.1867 28.153,25.0517 C28.131,24.9166 28.1115,24.7778 28.0946,24.6351 C28.0777,24.4921 28.0631,24.3452 28.0508,24.1959 C28.0387,24.0462 28.029,23.8944 28.0214,23.743 C28.0137,23.5917 28.0085,23.4408 28.0051,23.2936 C28.0015,23.1463 28,23.0027 27.9998,22.8642 C27.9994,22.7256 28.0004,22.5922 28.0023,22.4633 C28.004,22.3343 28.0066,22.2098 28.0095,22.0865 C28.0125,21.9631 28.0157,21.8404 28.0197,21.7151 C28.0235,21.5897 28.0279,21.4618 28.0334,21.3307 C28.0389,21.1995 28.0451,21.0652 28.0525,20.9291 C28.0597,20.793 28.0679,20.6552 28.0772,20.5181 C28.0865,20.3811 28.0969,20.245 28.1084,20.1122 C28.1196,19.9795 28.1316,19.8501 28.1448,19.7255 C28.1579,19.6008 28.1716,19.4807 28.1864,19.3646 C28.2013,19.2484 28.2169,19.1362 28.2339,19.0247 C28.2508,18.9132 28.2692,18.8021 28.2899,18.6882 C28.3107,18.5743 28.334,18.4576 28.3606,18.3374 C28.3871,18.2173 28.4167,18.0937 28.4501,17.9677 C28.4834,17.8417 28.5202,17.7135 28.5604,17.5852 C28.6006,17.4569 28.6442,17.3287 28.6906,17.2027 C28.7369,17.0768 28.786,16.9532 28.8374,16.833 C28.8891,16.7128 28.9428,16.5962 28.9994,16.4822 C29.0557,16.3683 29.1147,16.2572 29.1778,16.1457 C29.2408,16.0342 29.3081,15.922 29.3816,15.8067 C29.4548,15.6914 29.5342,15.5732 29.6197,15.4522 C29.7052,15.3312 29.7968,15.2074 29.8931,15.0831 C29.9896,14.9588 30.091,14.834 30.1945,14.7118 C30.2982,14.5897 30.4042,14.4703 30.5098,14.3566 C30.6152,14.2429 30.7204,14.1348 30.8235,14.0341 C30.9263,13.9333 31.0271,13.8398 31.1255,13.7534 C31.2237,13.6671 31.3196,13.5877 31.4148,13.5136 C31.51,13.4395 31.6053,13.3702 31.7028,13.3043 C31.8006,13.2385 31.9005,13.1759 32.0036,13.1169 C32.1067,13.0577 32.2127,13.0021 32.3206,12.9506 C32.4286,12.8991 32.5384,12.8517 32.6482,12.8094 C32.7579,12.7671 32.8673,12.7298 32.9746,12.6979 C33.0821,12.6659 33.1871,12.6392 33.2889,12.6176 C33.3909,12.5959 33.4895,12.5792 33.5854,12.5667 C33.6813,12.5542 33.7746,12.5458 33.8677,12.5408 C33.9608,12.5357 34.0542,12.5338 34.1502,12.5357 C34.2463,12.5375 34.345,12.543 34.4465,12.5528 C34.5483,12.5626 34.6529,12.5766 34.7593,12.5951 C34.866,12.6137 34.9742,12.6368 35.0821,12.6641 C35.19,12.6915 35.2975,12.7231 35.4025,12.7584 C35.5073,12.7937 35.6097,12.8326 35.7083,12.8744 C35.807,12.9163 35.902,12.9611 35.9936,13.0086 C36.0853,13.0562 36.1737,13.1065 36.2614,13.1605 C36.349,13.2146 36.436,13.2725 36.5246,13.3365 C36.6133,13.4005 36.7037,13.4705 36.796,13.5474 C36.8884,13.6243 36.9828,13.708 37.0783,13.7982 C37.1737,13.8885 37.2702,13.9851 37.3657,14.0865 C37.4611,14.1879 37.5557,14.294 37.6476,14.4027 C37.7395,14.5114 37.8286,14.6226 37.9143,14.735 C37.9998,14.8473 38.0817,14.9607 38.1606,15.0752 C38.2396,15.1897 38.3155,15.3053 38.3905,15.4247 C38.4654,15.5441 38.5397,15.6678 38.6148,15.7991 C38.6897,15.9304 38.7657,16.0694 38.8419,16.2169 C38.9181,16.3643 38.9947,16.5202 39.0705,16.683 C39.1462,16.8457 39.2207,17.0153 39.2925,17.1881 C39.364,17.361 39.4326,17.537 39.4965,17.7126 C39.5604,17.8881 39.6195,18.0631 39.673,18.2351 C39.7267,18.4072 39.7748,18.5762 39.8175,18.7425 C39.8605,18.9088 39.898,19.0724 39.9312,19.2371 C39.9644,19.4017 39.9934,19.5681 40.0192,19.7404 C40.0448,19.9126 40.0671,20.0905 40.0861,20.2746 C40.1052,20.4588 40.121,20.649 40.1335,20.8429 C40.146,21.0367 40.1551,21.2341 40.1612,21.4308 C40.1676,21.6274 40.1706,21.8232 40.171,22.0139 C40.1716,22.2045 40.1695,22.39 40.1655,22.568 C40.1615,22.7459 40.1555,22.9164 40.1486,23.0799 C40.1414,23.2433 40.1331,23.3998 40.1238,23.5531 C40.1145,23.7064 40.1045,23.8573 40.0931,24.0094 C40.0817,24.1613 40.0688,24.3143 40.0544,24.4687 C40.0402,24.623 40.0241,24.7785 40.0068,24.9334 C39.9892,25.0884 39.9701,25.2425 39.9496,25.3926 C39.9293,25.5427 39.9077,25.6887 39.8851,25.8279 C39.8624,25.9674 39.8389,26.0998 39.8148,26.2242 C39.7909,26.3487 39.7661,26.465 39.7407,26.5743 C39.7155,26.6835 39.6895,26.7857 39.6624,26.884 C39.6353,26.9822 39.6068,27.0766 39.5759,27.1697 C39.545,27.2627 39.5117,27.3541 39.4758,27.444 C39.4398,27.5339 39.401,27.622 39.3596,27.7074 C39.3179,27.7929 39.2738,27.8753 39.2277,27.9534 C39.1816,28.0314 39.1335,28.1047 39.0844,28.1724 C39.0353,28.2398 38.9852,28.3015 38.9346,28.3571 C38.884,28.4129 38.833,28.4622 38.7811,28.5064 C38.7295,28.5506 38.6774,28.5897 38.6233,28.6247 C38.5691,28.6598 38.513,28.6911 38.4535,28.719 C38.3938,28.7469 38.331,28.7711 38.2643,28.7911 C38.1979,28.8111 38.1276,28.8267 38.0548,28.8373 C37.9822,28.8477 37.9069,28.8531 37.8307,28.8526 C37.7545,28.8524 37.6774,28.8462 37.6015,28.8343 C37.5255,28.8225 37.4506,28.805 37.3778,28.7822 C37.3052,28.7593 37.2345,28.7311 37.1661,28.698 C37.0978,28.6647 37.0315,28.6267 36.9661,28.5827 C36.9007,28.5388 36.8355,28.4892 36.7695,28.4319 C36.7037,28.3748 36.6366,28.3101 36.5687,28.2371 C36.5009,28.1642 36.4319,28.0832 36.3634,27.9946 C36.2946,27.9059 36.226,27.8096 36.1591,27.7079 C36.0923,27.6062 36.0273,27.499 35.9653,27.3889 C35.9035,27.2788 35.8446,27.1655 35.7898,27.0514 C35.735,26.9371 35.6838,26.822 35.6364,26.7059 C35.589,26.5899 35.5452,26.4731 35.5037,26.3531 C35.4622,26.2331 35.423,26.1096 35.385,25.9793 C35.3471,25.8489 35.3105,25.7116 35.2753,25.5674 C35.24,25.4232 35.2061,25.2716 35.1737,25.1151 C35.1416,24.9583 35.1113,24.7966 35.0832,24.6329 C35.055,24.4694 35.0292,24.3045 35.0061,24.1415 C34.9831,23.9785 34.9625,23.818 34.9445,23.662 C34.9268,23.5059 34.9113,23.3543 34.8982,23.2071 C34.8851,23.0599 34.8741,22.9171 34.8645,22.7753 C34.855,22.6336 34.8472,22.4923 34.8408,22.348 C34.8345,22.2036 34.8296,22.0562 34.8267,21.9052 C34.8237,21.7542 34.8226,21.5996 34.8237,21.4431 C34.8247,21.2867 34.8279,21.1285 34.8332,20.9718 C34.8385,20.815 34.8459,20.6597 34.8554,20.5087 C34.865,20.3579 34.8766,20.2115 34.8899,20.071 C34.9033,19.9306 34.9185,19.7962 34.9354,19.6669 C34.9524,19.5376 34.971,19.4136 34.9915,19.2914 C35.0121,19.1691 35.0349,19.0482 35.0603,18.9259 C35.0857,18.8036 35.1136,18.6799 35.1443,18.5548 C35.175,18.4297 35.2085,18.3032 35.2442,18.1772 C35.2798,18.0511 35.3177,17.9255 35.3568,17.8032 C35.3958,17.6809 35.436,17.562 35.4764,17.4488 C35.5168,17.3357 35.5572,17.2283 35.597,17.1279 C35.6368,17.0275 35.676,16.9341 35.7143,16.847 C35.7526,16.7599 35.7903,16.6791 35.8275,16.6025 C35.8647,16.5258 35.9022,16.4529 35.9409,16.3813 C35.9797,16.3096 36.0197,16.2393 36.0618,16.1694 C36.1039,16.0994 36.1479,16.0298 36.1938,15.9605 C36.2398,15.8912 36.2876,15.8222 36.3369,15.7541 C36.386,15.6859 36.4366,15.6186 36.4878,15.5524 C36.539,15.4863 36.5909,15.4213 36.6432,15.3573 C36.6954,15.2933 36.7479,15.2303 36.801,15.1672 C36.8542,15.1041 36.9079,15.0409 36.964,14.9753 C37.0201,14.9097 37.0785,14.8413 37.1409,14.769 C37.2036,14.6968 37.27,14.6207 37.3411,14.541 C37.4123,14.4613 37.488,14.3782 37.5674,14.2932 C37.6468,14.2082 37.7299,14.1215 37.8152,14.0355 C37.9005,13.9496 37.9877,13.8645 38.0751,13.7826 C38.1627,13.7008 38.2504,13.6223 38.3367,13.5486 C38.4233,13.4749 38.5088,13.4061 38.5932,13.3424 C38.6777,13.2787 38.761,13.22 38.8455,13.1654 C38.9299,13.1108 39.0156,13.06 39.105,13.0121 C39.1943,12.9642 39.2874,12.9193 39.385,12.8775 C39.4823,12.8357 39.5841,12.7972 39.6893,12.7627 C39.7945,12.7282 39.9031,12.6977 40.0131,12.672 C40.1229,12.6462 40.2343,12.6253 40.3447,12.6093 C40.4552,12.5934 40.5648,12.5825 40.6724,12.5763 C40.7801,12.5702 40.8855,12.5688 40.9894,12.5716 C41.0931,12.5745 41.1953,12.5815 41.2984,12.5926 C41.4015,12.6036 41.5058,12.6187 41.6142,12.639 C41.7225,12.6592 41.8349,12.6848 41.9515,12.7167 C42.0681,12.7487 42.189,12.7869 42.3126,12.832 C42.4362,12.8771 42.5625,12.929 42.6889,12.9872 C42.8152,13.0454 42.9416,13.11 43.0652,13.1798 C43.1888,13.2496 43.3096,13.3247 43.4262,13.404 C43.5428,13.4834 43.6552,13.567 43.7636,13.6549 C43.8719,13.7428 43.9763,13.8349 44.0793,13.9333 C44.1824,14.0318 44.2846,14.137 44.3879,14.2513 C44.4912,14.3657 44.5957,14.4892 44.7011,14.6221 C44.8065,14.7549 44.913,14.8971 45.0188,15.0465 C45.1244,15.1958 45.2292,15.3523 45.3308,15.5119 C45.4321,15.6716 45.5301,15.8344 45.6226,15.9961 C45.7149,16.1578 45.8017,16.3183 45.8819,16.4748 C45.9619,16.6313 46.0353,16.7837 46.1024,16.9317 C46.1697,17.0798 46.2305,17.2234 46.2867,17.3654 C46.343,17.5075 46.3945,17.6477 46.4425,17.7921 C46.4906,17.9366 46.5352,18.0855 46.5788,18.2465 C46.6222,18.4074 46.6647,18.5808 46.7075,18.7705 C46.7502,18.9601 46.7934,19.1666 46.8359,19.3822 C46.8785,19.5978 46.9206,19.8224 46.9581,20.0301 C46.9957,20.2377 47.0285,20.4262 47.0527,20.5673 C47.077,20.7084 47.0922,20.8002 47.0999,20.847 C47.1075,20.8937 47.1079,20.8963 47.1079,20.8963" fill-rule="nonzero" vector-effect="none"/></g><defs><clipPath id="clip89"><path d="M1,1 L61,1 L61,41 L1,41 L1,1 z"/></clipPath></defs><g clip-path="url(#clip89)" fill="none" opacity="1" stroke="#ffffff" stroke-linecap="butt" stroke-linejoin="miter" stroke-miterlimit="20" stroke-opacity="1" stroke-width="1.3325" transform="matrix(2.5,0,0,2.5,22.5,2.5)"><path d="M0.999998,1.00001 L60.9999,1.00001 L60.9999,41.0001 L0.999998,41.0001 L0.999998,1.00001 z" fill-rule="nonzero" vector-effect="none"/></g><defs><clipPath id="clip90"><path d="M1,1 L61,1 L61,41 L1,41 L1,1 z"/></clipPath></defs><g clip-path="url(#clip90)" fill="none" opacity="1" stroke="#a06c70" stroke-linecap="butt" stroke-linejoin="miter" stroke-miterlimit="20" stroke-opacity="1" stroke-width="1.3325" transform="matrix(2.5,0,0,2.5,22.5,2.5)"><path d="M0.999998,11.6667 L23.8571,11.6667 L44.4285,35.6667" fill-rule="nonzero" vector-effect="none"/></g><defs><clipPath id="clip91"><path d="M1,1 L61,1 L61,41 L1,41 L1,1 z"/></clipPath></defs><g clip-path="url(#clip91)" fill="none" opacity="1" stroke="#a06c70" stroke-linecap="butt" stroke-linejoin="miter" stroke-miterlimit="20" stroke-opacity="1" stroke-width="1.3325" transform="matrix(2.5,0,0,2.5,22.5,2.5)"><path d="M44.4285,35.6667 L44.4285,30.3334" fill-rule="nonzero" vector-effect="none"/></g><defs><clipPath id="clip92"><path d="M1,1 L61,1 L61,41 L1,41 L1,1 z"/></clipPath></defs><g clip-path="url(#clip92)" fill="none" opacity="1" stroke="#a06c70" stroke-linecap="butt" stroke-linejoin="miter" stroke-miterlimit="20" stroke-opacity="1" stroke-width="1.3325" transform="matrix(2.5,0,0,2.5,22.5,2.5)"><path d="M44.4285,35.6667 L39.8571,35.6667" fill-rule="nonzero" vector-effect="none"/></g><defs><clipPath id="clip109"><path d="M-292,-102 L15,-102 L15,103 L-292,103 L-292,-102 z"/></clipPath></defs><g clip-path="url(#clip109)" fill="none" opacity="1" stroke="#e60000" stroke-linecap="square" stroke-linejoin="bevel" stroke-opacity="1" stroke-width="1" transform="matrix(0.488281,0,0,0.488281,167.5,55)"><text fill="#e60000" fill-opacity="1" font-family="Liberation Sans" font-size="40" font-style="normal" font-weight="400" stroke="none" textLength="29" x="-36.9531" xml:space="preserve" y="17.9219">C</text></g><defs><clipPath id="clip112"><path d="M-15,-154 L292,-154 L292,51 L-15,51 L-15,-154 z"/></clipPath></defs><g clip-path="url(#clip112)" fill="none" opacity="1" stroke="#e60000" stroke-linecap="square" stroke-linejoin="bevel" stroke-opacity="1" stroke-width="1" transform="matrix(0.488281,0,0,0.488281,32.5,80)"><text fill="#e60000" fill-opacity="1" font-family="Liberation Sans" font-size="40" font-style="normal" font-weight="400" stroke="none" textLength="29" x="0" xml:space="preserve" y="17.9219">R</text></g><defs><clipPath id="clip115"><path d="M-15,-51 L292,-51 L292,154 L-15,154 L-15,-51 z"/></clipPath></defs><g clip-path="url(#clip115)" fill="none" opacity="1" stroke="#e60000" stroke-linecap="square" stroke-linejoin="bevel" stroke-opacity="1" stroke-width="1" transform="matrix(0.488281,0,0,0.488281,32.5,30)"><text fill="#e60000" fill-opacity="1" font-family="Liberation Sans" font-size="40" font-style="normal" font-weight="400" stroke="none" textLength="27" x="0" xml:space="preserve" y="17.9219">K</text></g><defs><clipPath id="clip121"><path d="M-10,-2 L70,-2 L70,42 L-10,42 L-10,-2 z"/></clipPath></defs><g clip-path="url(#clip121)" fill="none" opacity="1" stroke="none" stroke-opacity="0" transform="matrix(2.5,0,0,2.5,25,5)"><path d="M0,0 L60,0 L60,40 L0,40 L0,0 z" fill-rule="evenodd" vector-effect="none"/></g></g></svg>
