<?xml version="1.0" encoding="UTF-8"?><svg width="52.9167mm" height="31.75mm" viewBox="0 0 200 120" xmlns="http://www.w3.org/2000/svg" xmlns:xlink="http://www.w3.org/1999/xlink"><g fill="none" stroke="black" stroke-width="1" fill-rule="evenodd" stroke-linecap="square" stroke-linejoin="bevel"><g clip-path="none" fill="none" opacity="1" stroke="none" stroke-opacity="0" transform="matrix(1,0,0,1,0,0)"><path d="M0,0 L200,0 L200,120 L0,120 L0,0 z" fill-rule="evenodd" vector-effect="none"/></g><defs><clipPath id="clip6"><path d="M0,0 L10,0 L10,10 L0,10 L0,0 z"/></clipPath></defs><g clip-path="url(#clip6)" fill="#b3b3b3" fill-opacity="1" opacity="1" stroke="none" stroke-opacity="0" transform="matrix(1.81818,0,0,1.81818,181.818,89.0909)"><path d="M0.5,3.5 L3.5,3.5 L3.5,6.5 L0.5,6.5 L0.5,3.5 z" fill-rule="evenodd" vector-effect="none"/></g><defs><clipPath id="clip8"><path d="M0,0 L10,0 L10,10 L0,10 L0,0 z"/></clipPath></defs><g clip-path="url(#clip8)" fill="#000000" fill-opacity="1" opacity="1" stroke="none" stroke-opacity="0" transform="matrix(1.81818,0,0,1.81818,181.818,89.0909)"><path d="M3,4 L3,6 L1,6 L1,4 L3,4 M4,3 L0,3 L0,7 L4,7 L4,3" fill-rule="nonzero" vector-effect="none"/></g><defs><clipPath id="clip28"><path d="M0,0 L10,0 L10,10 L0,10 L0,0 z"/></clipPath></defs><g clip-path="url(#clip28)" fill="#ffffff" fill-opacity="1" opacity="1" stroke="none" stroke-opacity="0" transform="matrix(1.81818,0,0,1.81818,181.818,52.7273)"><path d="M0.5,0.809 L8.882,5 L0.5,9.191 L0.5,0.809 z" fill-rule="evenodd" vector-effect="none"/></g><defs><clipPath id="clip30"><path d="M0,0 L10,0 L10,10 L0,10 L0,0 z"/></clipPath></defs><g clip-path="url(#clip30)" fill="#000000" fill-opacity="1" opacity="1" stroke="none" stroke-opacity="0" transform="matrix(1.81818,0,0,1.81818,181.818,52.7273)"><path d="M1,1.618 L7.764,5 L1,8.382 L1,1.618 M0,0 L0,10 L10,5 L0,0" fill-rule="nonzero" vector-effect="none"/></g><defs><clipPath id="clip52"><path d="M0,0 L10,0 L10,10 L0,10 L0,0 z"/></clipPath></defs><g clip-path="url(#clip52)" fill="#ffffff" fill-opacity="1" opacity="1" stroke="none" stroke-opacity="0" transform="matrix(1.81818,0,0,1.81818,181.818,16.3636)"><path d="M0.5,0.809 L8.882,5 L0.5,9.191 L0.5,0.809 z" fill-rule="evenodd" vector-effect="none"/></g><defs><clipPath id="clip54"><path d="M0,0 L10,0 L10,10 L0,10 L0,0 z"/></clipPath></defs><g clip-path="url(#clip54)" fill="#000000" fill-opacity="1" opacity="1" stroke="none" stroke-opacity="0" transform="matrix(1.81818,0,0,1.81818,181.818,16.3636)"><path d="M1,1.618 L7.764,5 L1,8.382 L1,1.618 M0,0 L0,10 L10,5 L0,0" fill-rule="nonzero" vector-effect="none"/></g><defs><clipPath id="clip76"><path d="M0,0 L10,0 L10,10 L0,10 L0,0 z"/></clipPath></defs><g clip-path="url(#clip76)" fill="#b3b3b3" fill-opacity="1" opacity="1" stroke="none" stroke-opacity="0" transform="matrix(-1.81818,0,0,1.81818,18.1818,80)"><path d="M0.5,3.5 L3.5,3.5 L3.5,6.5 L0.5,6.5 L0.5,3.5 z" fill-rule="evenodd" vector-effect="none"/></g><defs><clipPath id="clip78"><path d="M0,0 L10,0 L10,10 L0,10 L0,0 z"/></clipPath></defs><g clip-path="url(#clip78)" fill="#000000" fill-opacity="1" opacity="1" stroke="none" stroke-opacity="0" transform="matrix(-1.81818,0,0,1.81818,18.1818,80)"><path d="M3,4 L3,6 L1,6 L1,4 L3,4 M4,3 L0,3 L0,7 L4,7 L4,3" fill-rule="nonzero" vector-effect="none"/></g><defs><clipPath id="clip99"><path d="M0,0 L10,0 L10,10 L0,10 L0,0 z"/></clipPath></defs><g clip-path="url(#clip99)" fill="#ffffff" fill-opacity="1" opacity="1" stroke="none" stroke-opacity="0" transform="matrix(1.81818,0,0,1.81818,0,25.4545)"><path d="M8.882,5 L0.5,9.191 L0.5,0.809 L8.882,5 z" fill-rule="evenodd" vector-effect="none"/></g><defs><clipPath id="clip101"><path d="M0,0 L10,0 L10,10 L0,10 L0,0 z"/></clipPath></defs><g clip-path="url(#clip101)" fill="#000000" fill-opacity="1" opacity="1" stroke="none" stroke-opacity="0" transform="matrix(1.81818,0,0,1.81818,0,25.4545)"><path d="M1,1.618 L7.764,5 L1,8.382 L1,1.618 M0,0 L0,10 L10,5 L0,0" fill-rule="nonzero" vector-effect="none"/></g><defs><clipPath id="clip120"><path d="M-10,-2 L100,-2 L100,64 L-10,64 L-10,-2 z"/></clipPath></defs><g clip-path="url(#clip120)" fill="#ffffff" fill-opacity="1" opacity="1" stroke="none" stroke-opacity="0" transform="matrix(1.81818,0,0,1.81818,18.1818,3.63636)"><path d="M0,0 L90,0 L90,62 L0,62 L0,0 z" fill-rule="evenodd" vector-effect="none"/></g><defs><clipPath id="clip124"><path d="M0,0 L90,0 L90,62 L0,62 L0,0 z"/></clipPath></defs><g clip-path="url(#clip124)" fill="none" opacity="1" stroke="none" stroke-opacity="0" transform="matrix(1.81818,0,0,1.81818,18.1818,3.63636)"><path d="M0,0 L90,0 L90,62 L0,62 L0,0 z" fill-rule="evenodd" vector-effect="none"/></g><defs><clipPath id="clip134"><path d="M1,1 L91,1 L91,63 L1,63 L1,1 z"/></clipPath></defs><g clip-path="url(#clip134)" fill="none" opacity="1" stroke="#35d461" stroke-linecap="butt" stroke-linejoin="miter" stroke-miterlimit="20" stroke-opacity="1" stroke-width="2.0475" transform="matrix(1.81818,0,0,1.81818,16.3636,1.81818)"><path d="M75.9999,51.8401 L90.9999,51.8401" fill-rule="nonzero" vector-effect="none"/></g><defs><clipPath id="clip135"><path d="M1,1 L91,1 L91,63 L1,63 L1,1 z"/></clipPath></defs><g clip-path="url(#clip135)" fill="none" opacity="1" stroke="#35d461" stroke-linecap="butt" stroke-linejoin="miter" stroke-miterlimit="20" stroke-opacity="1" stroke-width="2.0475" transform="matrix(1.81818,0,0,1.81818,16.3636,1.81818)"><path d="M65.9999,58.0401 L68.8571,58.0401 L68.8571,45.6401 L65.9999,45.6401" fill-rule="nonzero" vector-effect="none"/></g><defs><clipPath id="clip136"><path d="M1,1 L91,1 L91,63 L1,63 L1,1 z"/></clipPath></defs><g clip-path="url(#clip136)" fill="none" opacity="1" stroke="#35d461" stroke-linecap="butt" stroke-linejoin="miter" stroke-miterlimit="20" stroke-opacity="1" stroke-width="2.0475" transform="matrix(1.81818,0,0,1.81818,16.3636,1.81818)"><path d="M36.9523,35.5409 L36.9523,18.4289 L53.3809,18.4289 L53.3809,35.5409" fill-rule="nonzero" vector-effect="none"/></g><defs><clipPath id="clip137"><path d="M1,1 L91,1 L91,63 L1,63 L1,1 z"/></clipPath></defs><g clip-path="url(#clip137)" fill="none" opacity="1" stroke="#35d461" stroke-linecap="butt" stroke-linejoin="miter" stroke-miterlimit="20" stroke-opacity="1" stroke-width="2.0475" transform="matrix(1.81818,0,0,1.81818,16.3636,1.81818)"><path d="M36.9523,26.9849 L53.3809,26.9849" fill-rule="nonzero" vector-effect="none"/></g><defs><clipPath id="clip138"><path d="M1,1 L91,1 L91,63 L1,63 L1,1 z"/></clipPath></defs><g clip-path="url(#clip138)" fill="none" opacity="1" stroke="#35d461" stroke-linecap="butt" stroke-linejoin="miter" stroke-miterlimit="20" stroke-opacity="1" stroke-width="2.0475" transform="matrix(1.81818,0,0,1.81818,16.3636,1.81818)"><path d="M38.6031,26.9849 L38.6031,28.404" fill-rule="nonzero" vector-effect="none"/></g><defs><clipPath id="clip139"><path d="M1,1 L91,1 L91,63 L1,63 L1,1 z"/></clipPath></defs><g clip-path="url(#clip139)" fill="none" opacity="1" stroke="#35d461" stroke-linecap="butt" stroke-linejoin="miter" stroke-miterlimit="20" stroke-opacity="1" stroke-width="2.0475" transform="matrix(1.81818,0,0,1.81818,16.3636,1.81818)"><path d="M51.746,26.9849 L51.746,28.404" fill-rule="nonzero" vector-effect="none"/></g><defs><clipPath id="clip140"><path d="M1,1 L91,1 L91,63 L1,63 L1,1 z"/></clipPath></defs><g clip-path="url(#clip140)" fill="none" opacity="1" stroke="#35d461" stroke-linecap="butt" stroke-linejoin="miter" stroke-miterlimit="20" stroke-opacity="1" stroke-width="2.0475" transform="matrix(1.81818,0,0,1.81818,16.3636,1.81818)"><path d="M36.9523,24.1329 L53.3809,24.1329" fill-rule="nonzero" vector-effect="none"/></g><defs><clipPath id="clip141"><path d="M1,1 L91,1 L91,63 L1,63 L1,1 z"/></clipPath></defs><g clip-path="url(#clip141)" fill="none" opacity="1" stroke="#35d461" stroke-linecap="butt" stroke-linejoin="miter" stroke-miterlimit="20" stroke-opacity="1" stroke-width="2.0475" transform="matrix(1.81818,0,0,1.81818,16.3636,1.81818)"><path d="M46.4603,44.4965 L51.3968,48.7676" fill-rule="nonzero" vector-effect="none"/></g><defs><clipPath id="clip142"><path d="M1,1 L91,1 L91,63 L1,63 L1,1 z"/></clipPath></defs><g clip-path="url(#clip142)" fill="none" opacity="1" stroke="#35d461" stroke-linecap="butt" stroke-linejoin="miter" stroke-miterlimit="20" stroke-opacity="1" stroke-width="2.0475" transform="matrix(1.81818,0,0,1.81818,16.3636,1.81818)"><path d="M44.619,46.9352 L49.5555,51.2063" fill-rule="nonzero" vector-effect="none"/></g><defs><clipPath id="clip143"><path d="M1,1 L91,1 L91,63 L1,63 L1,1 z"/></clipPath></defs><g clip-path="url(#clip143)" fill="none" opacity="1" stroke="#35d461" stroke-linecap="butt" stroke-linejoin="miter" stroke-miterlimit="20" stroke-opacity="1" stroke-width="2.0475" transform="matrix(1.81818,0,0,1.81818,16.3636,1.81818)"><path d="M47.2222,32.5649 L51.4603,49.3187" fill-rule="nonzero" vector-effect="none"/></g><defs><clipPath id="clip144"><path d="M1,1 L91,1 L91,63 L1,63 L1,1 z"/></clipPath></defs><g clip-path="url(#clip144)" fill="none" opacity="1" stroke="#35d461" stroke-linecap="butt" stroke-linejoin="miter" stroke-miterlimit="20" stroke-opacity="1" stroke-width="2.0475" transform="matrix(1.81818,0,0,1.81818,16.3636,1.81818)"><path d="M47.4444,45.3645 L45.0317,32.5649" fill-rule="nonzero" vector-effect="none"/></g><defs><clipPath id="clip145"><path d="M1,1 L91,1 L91,63 L1,63 L1,1 z"/></clipPath></defs><g clip-path="url(#clip145)" fill="none" opacity="1" stroke="#35d461" stroke-linecap="butt" stroke-linejoin="miter" stroke-miterlimit="20" stroke-opacity="1" stroke-width="2.0475" transform="matrix(1.81818,0,0,1.81818,16.3636,1.81818)"><path d="M47.1746,49.3187 L48,52.5703 L53.0158,51.3027 L51.746,46.8663 L50.8253,46.949" fill-rule="nonzero" vector-effect="none"/></g><defs><clipPath id="clip146"><path d="M1,1 L91,1 L91,63 L1,63 L1,1 z"/></clipPath></defs><g clip-path="url(#clip146)" fill="none" opacity="1" stroke="#35d461" stroke-linecap="butt" stroke-linejoin="miter" stroke-miterlimit="20" stroke-opacity="1" stroke-width="2.0475" transform="matrix(1.81818,0,0,1.81818,16.3636,1.81818)"><path d="M42.4285,45.6401 L48.1428,45.6401" fill-rule="nonzero" vector-effect="none"/></g><defs><clipPath id="clip147"><path d="M1,1 L91,1 L91,63 L1,63 L1,1 z"/></clipPath></defs><g clip-path="url(#clip147)" fill="none" opacity="1" stroke="#35d461" stroke-linecap="butt" stroke-linejoin="miter" stroke-miterlimit="20" stroke-opacity="1" stroke-width="2.0475" transform="matrix(1.81818,0,0,1.81818,16.3636,1.81818)"><path d="M45.1746,42.857 L45.1111,48.2303" fill-rule="nonzero" vector-effect="none"/></g><defs><clipPath id="clip148"><path d="M1,1 L91,1 L91,63 L1,63 L1,1 z"/></clipPath></defs><g clip-path="url(#clip148)" fill="none" opacity="1" stroke="#35d461" stroke-linecap="butt" stroke-linejoin="miter" stroke-miterlimit="20" stroke-opacity="1" stroke-width="2.0475" transform="matrix(1.81818,0,0,1.81818,16.3636,1.81818)"><path d="M36.9523,28.404 L53.3809,28.404" fill-rule="nonzero" vector-effect="none"/></g><defs><clipPath id="clip149"><path d="M1,1 L91,1 L91,63 L1,63 L1,1 z"/></clipPath></defs><g clip-path="url(#clip149)" fill="none" opacity="1" stroke="#35d461" stroke-linecap="butt" stroke-linejoin="miter" stroke-miterlimit="20" stroke-opacity="1" stroke-width="2.0475" transform="matrix(1.81818,0,0,1.81818,16.3636,1.81818)"><path d="M26.7143,47.5001 L1,47.5001" fill-rule="nonzero" vector-effect="none"/></g><defs><clipPath id="clip150"><path d="M1,1 L91,1 L91,63 L1,63 L1,1 z"/></clipPath></defs><g clip-path="url(#clip150)" fill="none" opacity="1" stroke="#35d461" stroke-linecap="butt" stroke-linejoin="miter" stroke-miterlimit="4" stroke-opacity="1" stroke-width="2.0475" transform="matrix(1.81818,0,0,1.81818,16.3636,1.81818)"><path d="M49.1587,40.2392 C50.2603,40.7972 51.164,41.6071 51.7714,42.5805 C52.379,43.5539 52.6666,44.6533 52.6034,45.759 C52.5402,46.8647 52.1283,47.9341 51.4126,48.8503" fill-rule="nonzero" vector-effect="none"/></g><defs><clipPath id="clip151"><path d="M1,1 L91,1 L91,63 L1,63 L1,1 z"/></clipPath></defs><g clip-path="url(#clip151)" fill="none" opacity="1" stroke="#35d461" stroke-linecap="butt" stroke-linejoin="miter" stroke-miterlimit="4" stroke-opacity="1" stroke-width="2.0475" transform="matrix(1.81818,0,0,1.81818,16.3636,1.81818)"><path d="M47.6825,51.5094 C45.9722,52.0688 44.0838,52.058 42.3822,51.4789 C40.6806,50.8995 39.287,49.7934 38.4709,48.3738 C37.6545,46.9545 37.4738,45.3227 37.9632,43.7943 C38.4529,42.2659 39.578,40.9492 41.1211,40.0991 C42.6642,39.249 44.5156,38.9259 46.3174,39.1921" fill-rule="nonzero" vector-effect="none"/></g><defs><clipPath id="clip152"><path d="M1,1 L91,1 L91,63 L1,63 L1,1 z"/></clipPath></defs><g clip-path="url(#clip152)" fill="none" opacity="1" stroke="#35d461" stroke-linecap="butt" stroke-linejoin="miter" stroke-miterlimit="4" stroke-opacity="1" stroke-width="2.0475" transform="matrix(1.81818,0,0,1.81818,16.3636,1.81818)"><path d="M46.8253,45.5161 C46.8253,46.2998 46.0863,46.9352 45.1746,46.9352 C44.2628,46.9352 43.5238,46.2998 43.5238,45.5161 C43.5238,44.7323 44.2628,44.097 45.1746,44.097 C46.0863,44.097 46.8253,44.7323 46.8253,45.5161 z" fill-rule="nonzero" vector-effect="none"/></g><defs><clipPath id="clip153"><path d="M1,1 L91,1 L91,63 L1,63 L1,1 z"/></clipPath></defs><g clip-path="url(#clip153)" fill="none" opacity="1" stroke="#35d461" stroke-linecap="butt" stroke-linejoin="miter" stroke-miterlimit="4" stroke-opacity="1" stroke-width="2.0475" transform="matrix(1.81818,0,0,1.81818,16.3636,1.81818)"><path d="M51.746,49.801 C51.746,50.5847 51.0069,51.2201 50.0952,51.2201 C49.1835,51.2201 48.4444,50.5847 48.4444,49.801 C48.4444,49.0172 49.1835,48.3819 50.0952,48.3819 C51.0069,48.3819 51.746,49.0172 51.746,49.801 z" fill-rule="nonzero" vector-effect="none"/></g><defs><clipPath id="clip154"><path d="M1,1 L91,1 L91,63 L1,63 L1,1 z"/></clipPath></defs><g clip-path="url(#clip154)" fill="none" opacity="1" stroke="#35d461" stroke-linecap="butt" stroke-linejoin="miter" stroke-miterlimit="4" stroke-opacity="1" stroke-width="2.0475" transform="matrix(1.81818,0,0,1.81818,16.3636,1.81818)"><path d="M51.746,49.801 C51.746,50.5847 51.0069,51.2201 50.0952,51.2201 C49.1835,51.2201 48.4444,50.5847 48.4444,49.801 C48.4444,49.0172 49.1835,48.3819 50.0952,48.3819 C51.0069,48.3819 51.746,49.0172 51.746,49.801 z" fill-rule="nonzero" vector-effect="none"/></g><defs><clipPath id="clip155"><path d="M1,1 L91,1 L91,63 L1,63 L1,1 z"/></clipPath></defs><g clip-path="url(#clip155)" fill="none" opacity="1" stroke="#35d461" stroke-linecap="butt" stroke-linejoin="miter" stroke-miterlimit="20" stroke-opacity="1" stroke-width="2.0475" transform="matrix(1.81818,0,0,1.81818,16.3636,1.81818)"><path d="M68.8571,48.7401 L75.9999,48.7401 L75.9999,54.9401 L68.8571,54.9401 L68.8571,48.7401 z" fill-rule="nonzero" vector-effect="none"/></g><defs><clipPath id="clip156"><path d="M1,1 L91,1 L91,63 L1,63 L1,1 z"/></clipPath></defs><g clip-path="url(#clip156)" fill="none" opacity="1" stroke="#35d461" stroke-linecap="butt" stroke-linejoin="miter" stroke-miterlimit="20" stroke-opacity="1" stroke-width="2.0475" transform="matrix(1.81818,0,0,1.81818,16.3636,1.81818)"><path d="M36.9523,26.9849 L53.3809,26.9849 L53.3809,32.6889 L36.9523,32.6889 L36.9523,26.9849 z" fill-rule="nonzero" vector-effect="none"/></g><defs><clipPath id="clip157"><path d="M1,1 L91,1 L91,63 L1,63 L1,1 z"/></clipPath></defs><g clip-path="url(#clip157)" fill="none" opacity="1" stroke="#35d461" stroke-linecap="butt" stroke-linejoin="miter" stroke-miterlimit="20" stroke-opacity="1" stroke-width="2.0475" transform="matrix(1.81818,0,0,1.81818,16.3636,1.81818)"><path d="M28.3809,12.0498 L63.8571,12.0498 C64.7776,12.0498 65.5237,12.6975 65.5237,13.4965 L65.5237,57.8334 C65.5237,58.6324 64.7776,59.2801 63.8571,59.2801 L28.3809,59.2801 C27.4604,59.2801 26.7143,58.6324 26.7143,57.8334 L26.7143,13.4965 C26.7143,12.6975 27.4604,12.0498 28.3809,12.0498 z" fill-rule="nonzero" vector-effect="none"/></g><defs><clipPath id="clip158"><path d="M1,1 L91,1 L91,63 L1,63 L1,1 z"/></clipPath></defs><g clip-path="url(#clip158)" fill="none" opacity="1" stroke="#ffffff" stroke-linecap="butt" stroke-linejoin="miter" stroke-miterlimit="20" stroke-opacity="1" stroke-width="2.0475" transform="matrix(1.81818,0,0,1.81818,16.3636,1.81818)"><path d="M1,1 L90.2856,1 L90.2856,63.0001 L1,63.0001 L1,1 z" fill-rule="nonzero" vector-effect="none"/></g><defs><clipPath id="clip175"><path d="M-15,-236 L446,-236 L446,81 L-15,81 L-15,-236 z"/></clipPath></defs><g clip-path="url(#clip175)" fill="none" opacity="1" stroke="#e60000" stroke-linecap="square" stroke-linejoin="bevel" stroke-opacity="1" stroke-width="1" transform="matrix(0.355114,0,0,0.355114,23.6364,87.2727)"><text fill="#e60000" fill-opacity="1" font-family="Liberation Sans" font-size="40" font-style="normal" font-weight="400" stroke="none" textLength="27" x="0" xml:space="preserve" y="17.9219">B</text></g><defs><clipPath id="clip178"><path d="M-445,-261 L16,-261 L16,56 L-445,56 L-445,-261 z"/></clipPath></defs><g clip-path="url(#clip178)" fill="none" opacity="1" stroke="#e60000" stroke-linecap="square" stroke-linejoin="bevel" stroke-opacity="1" stroke-width="1" transform="matrix(0.355114,0,0,0.355114,176.364,96.3636)"><text fill="#e60000" fill-opacity="1" font-family="Liberation Sans" font-size="40" font-style="normal" font-weight="400" stroke="none" textLength="24" x="-31.25" xml:space="preserve" y="17.9219">F</text></g><defs><clipPath id="clip181"><path d="M-445,-159 L16,-159 L16,158 L-445,158 L-445,-159 z"/></clipPath></defs><g clip-path="url(#clip181)" fill="none" opacity="1" stroke="#e60000" stroke-linecap="square" stroke-linejoin="bevel" stroke-opacity="1" stroke-width="1" transform="matrix(0.355114,0,0,0.355114,176.364,60)"><text fill="#e60000" fill-opacity="1" font-family="Liberation Sans" font-size="40" font-style="normal" font-weight="400" stroke="none" textLength="53" x="-68.2188" xml:space="preserve" y="17.9219">FC</text></g><defs><clipPath id="clip184"><path d="M-445,-56 L16,-56 L16,261 L-445,261 L-445,-56 z"/></clipPath></defs><g clip-path="url(#clip184)" fill="none" opacity="1" stroke="#e60000" stroke-linecap="square" stroke-linejoin="bevel" stroke-opacity="1" stroke-width="1" transform="matrix(0.355114,0,0,0.355114,176.364,23.6364)"><text fill="#e60000" fill-opacity="1" font-family="Liberation Sans" font-size="40" font-style="normal" font-weight="400" stroke="none" textLength="27" x="-34.125" xml:space="preserve" y="17.9219">P</text></g><defs><clipPath id="clip187"><path d="M-15,-82 L446,-82 L446,235 L-15,235 L-15,-82 z"/></clipPath></defs><g clip-path="url(#clip187)" fill="none" opacity="1" stroke="#e60000" stroke-linecap="square" stroke-linejoin="bevel" stroke-opacity="1" stroke-width="1" transform="matrix(0.355114,0,0,0.355114,23.6364,32.7273)"><text fill="#e60000" fill-opacity="1" font-family="Liberation Sans" font-size="40" font-style="normal" font-weight="400" stroke="none" textLength="24" x="0" xml:space="preserve" y="17.9219">T</text></g><defs><clipPath id="clip193"><path d="M-10,-2 L100,-2 L100,64 L-10,64 L-10,-2 z"/></clipPath></defs><g clip-path="url(#clip193)" fill="none" opacity="1" stroke="none" stroke-opacity="0" transform="matrix(1.81818,0,0,1.81818,18.1818,3.63636)"><path d="M0,0 L90,0 L90,62 L0,62 L0,0 z" fill-rule="evenodd" vector-effect="none"/></g></g></svg>
