<?xml version="1.0" encoding="UTF-8"?><svg width="52.9167mm" height="38.6292mm" viewBox="0 0 200 146" xmlns="http://www.w3.org/2000/svg" xmlns:xlink="http://www.w3.org/1999/xlink"><g fill="none" stroke="black" stroke-width="1" fill-rule="evenodd" stroke-linecap="square" stroke-linejoin="bevel"><g clip-path="none" fill="none" opacity="1" stroke="none" stroke-opacity="0" transform="matrix(1,0,0,1,0,0)"><path d="M0,0 L200,0 L200,146 L0,146 L0,0 z" fill-rule="evenodd" vector-effect="none"/></g><defs><clipPath id="clip6"><path d="M0,0 L10,0 L10,10 L0,10 L0,0 z"/></clipPath></defs><g clip-path="url(#clip6)" fill="#b3b3b3" fill-opacity="1" opacity="1" stroke="none" stroke-opacity="0" transform="matrix(-3.33333,0,0,3.33333,33.3333,60)"><path d="M0.5,3.5 L3.5,3.5 L3.5,6.5 L0.5,6.5 L0.5,3.5 z" fill-rule="evenodd" vector-effect="none"/></g><defs><clipPath id="clip8"><path d="M0,0 L10,0 L10,10 L0,10 L0,0 z"/></clipPath></defs><g clip-path="url(#clip8)" fill="#000000" fill-opacity="1" opacity="1" stroke="none" stroke-opacity="0" transform="matrix(-3.33333,0,0,3.33333,33.3333,60)"><path d="M3,4 L3,6 L1,6 L1,4 L3,4 M4,3 L0,3 L0,7 L4,7 L4,3" fill-rule="nonzero" vector-effect="none"/></g><defs><clipPath id="clip28"><path d="M0,0 L10,0 L10,10 L0,10 L0,0 z"/></clipPath></defs><g clip-path="url(#clip28)" fill="#b3b3b3" fill-opacity="1" opacity="1" stroke="none" stroke-opacity="0" transform="matrix(3.33333,0,0,3.33333,166.667,60)"><path d="M0.5,3.5 L3.5,3.5 L3.5,6.5 L0.5,6.5 L0.5,3.5 z" fill-rule="evenodd" vector-effect="none"/></g><defs><clipPath id="clip30"><path d="M0,0 L10,0 L10,10 L0,10 L0,0 z"/></clipPath></defs><g clip-path="url(#clip30)" fill="#000000" fill-opacity="1" opacity="1" stroke="none" stroke-opacity="0" transform="matrix(3.33333,0,0,3.33333,166.667,60)"><path d="M3,4 L3,6 L1,6 L1,4 L3,4 M4,3 L0,3 L0,7 L4,7 L4,3" fill-rule="nonzero" vector-effect="none"/></g><defs><clipPath id="clip47"><path d="M-10,-2 L50,-2 L50,42 L-10,42 L-10,-2 z"/></clipPath></defs><g clip-path="url(#clip47)" fill="#ffffff" fill-opacity="1" opacity="1" stroke="none" stroke-opacity="0" transform="matrix(3.33333,0,0,3.33333,33.3333,6.66667)"><path d="M0,0 L40,0 L40,40 L0,40 L0,0 z" fill-rule="evenodd" vector-effect="none"/></g><defs><clipPath id="clip51"><path d="M0,0 L40,0 L40,40 L0,40 L0,0 z"/></clipPath></defs><g clip-path="url(#clip51)" fill="none" opacity="1" stroke="none" stroke-opacity="0" transform="matrix(3.33333,0,0,3.33333,33.3333,6.66667)"><path d="M0,0 L40,0 L40,40 L0,40 L0,0 z" fill-rule="evenodd" vector-effect="none"/></g><defs><clipPath id="clip61"><path d="M-688,163 L1726,163 L1726,2577 L-688,2577 L-688,163 z"/></clipPath></defs><g clip-path="url(#clip61)" fill="#35d461" fill-opacity="1" opacity="1" stroke="none" stroke-opacity="0" transform="matrix(0.0552333,0,0,0.0552333,71.334,-2.33637)"><path d="M1726,1370 C1726,2036.61 1185.61,2577 519,2577 C-147.608,2577 -688,2036.61 -688,1370 C-688,703.392 -147.608,163 519,163 C1185.61,163 1726,703.392 1726,1370 z" fill-rule="nonzero" vector-effect="none"/></g><defs><clipPath id="clip62"><path d="M1,1 L41,1 L41,41 L1,41 L1,1 z"/></clipPath></defs><g clip-path="url(#clip62)" fill="none" opacity="1" stroke="#35d461" stroke-linecap="butt" stroke-linejoin="miter" stroke-miterlimit="4" stroke-opacity="1" stroke-width="1.3325" transform="matrix(3.33333,0,0,3.33333,30,3.33333)"><path d="M41,21 C41,32.0457 32.0457,41 21,41 C9.95434,41 1.00004,32.0457 1.00004,21 C1.00004,9.9543 9.95434,1 21,1 C32.0457,1 41,9.9543 41,21 z" fill-rule="nonzero" vector-effect="none"/></g><defs><clipPath id="clip63"><path d="M-688,163 L1726,163 L1726,2577 L-688,2577 L-688,163 z"/></clipPath></defs><g clip-path="url(#clip63)" fill="#ffffff" fill-opacity="1" opacity="1" stroke="none" stroke-opacity="0" transform="matrix(0.0552333,0,0,0.0552333,71.334,-2.33637)"><path d="M1598,1370 C1598,1965.92 1114.92,2449 519,2449 C-76.9152,2449 -560,1965.92 -560,1370 C-560,774.085 -76.9152,291 519,291 C1114.92,291 1598,774.085 1598,1370 z" fill-rule="nonzero" vector-effect="none"/></g><defs><clipPath id="clip64"><path d="M1,1 L41,1 L41,41 L1,41 L1,1 z"/></clipPath></defs><g clip-path="url(#clip64)" fill="none" opacity="1" stroke="#35d461" stroke-linecap="butt" stroke-linejoin="miter" stroke-miterlimit="4" stroke-opacity="1" stroke-width="1.3325" transform="matrix(3.33333,0,0,3.33333,30,3.33333)"><path d="M38.8791,21 C38.8791,30.8743 30.8743,38.879 21,38.879 C11.1257,38.879 3.121,30.8743 3.121,21 C3.121,11.1257 11.1257,3.12096 21,3.12096 C30.8743,3.12096 38.8791,11.1257 38.8791,21 z" fill-rule="nonzero" vector-effect="none"/></g><defs><clipPath id="clip65"><path d="M-1207,-1207 L1207,-1207 L1207,1207 L-1207,1207 L-1207,-1207 z"/></clipPath></defs><g clip-path="url(#clip65)" fill="#35d461" fill-opacity="1" opacity="1" stroke="none" stroke-opacity="0" transform="matrix(0.0552333,0,0,0.0552333,100,73.3333)"><path d="M1039,0 C1039,312.593 573.824,566 0,566 C-573.824,566 -1039,312.593 -1039,0 C-1039,-312.593 -573.824,-566 0,-566 C573.824,-566 1039,-312.593 1039,0 z" fill-rule="nonzero" vector-effect="none"/></g><defs><clipPath id="clip66"><path d="M1,1 L41,1 L41,41 L1,41 L1,1 z"/></clipPath></defs><g clip-path="url(#clip66)" fill="none" opacity="1" stroke="#35d461" stroke-linecap="butt" stroke-linejoin="miter" stroke-miterlimit="4" stroke-opacity="1" stroke-width="1.3325" transform="matrix(3.33333,0,0,3.33333,30,3.33333)"><path d="M38.2163,21 C38.2163,26.1797 30.5083,30.3786 21,30.3786 C11.4918,30.3786 3.7838,26.1797 3.7838,21 C3.7838,15.8203 11.4918,11.6214 21,11.6214 C30.5083,11.6214 38.2163,15.8203 38.2163,21 z" fill-rule="nonzero" vector-effect="none"/></g><defs><clipPath id="clip67"><path d="M-1207,-1207 L1207,-1207 L1207,1207 L-1207,1207 L-1207,-1207 z"/></clipPath></defs><g clip-path="url(#clip67)" fill="#ffffff" fill-opacity="1" opacity="1" stroke="none" stroke-opacity="0" transform="matrix(0.0552333,0,0,0.0552333,100,73.3333)"><path d="M897,0 C897,234.721 495.399,425 0,425 C-495.399,425 -897,234.721 -897,0 C-897,-234.721 -495.399,-425 0,-425 C495.399,-425 897,-234.721 897,0 z" fill-rule="nonzero" vector-effect="none"/></g><defs><clipPath id="clip68"><path d="M1,1 L41,1 L41,41 L1,41 L1,1 z"/></clipPath></defs><g clip-path="url(#clip68)" fill="none" opacity="1" stroke="#35d461" stroke-linecap="butt" stroke-linejoin="miter" stroke-miterlimit="4" stroke-opacity="1" stroke-width="1.3325" transform="matrix(3.33333,0,0,3.33333,30,3.33333)"><path d="M35.8633,21 C35.8633,24.8893 29.2088,28.0422 21,28.0422 C12.7913,28.0422 6.13674,24.8893 6.13674,21 C6.13674,17.1107 12.7913,13.9577 21,13.9577 C29.2088,13.9577 35.8633,17.1107 35.8633,21 z" fill-rule="nonzero" vector-effect="none"/></g><defs><clipPath id="clip69"><path d="M-688,163 L1726,163 L1726,2577 L-688,2577 L-688,163 z"/></clipPath></defs><g clip-path="url(#clip69)" fill="#35d461" fill-opacity="1" opacity="1" stroke="none" stroke-opacity="0" transform="matrix(0.0552333,0,0,0.0552333,71.334,-2.33637)"><path d="M425,2456 L472,2362 L566,2362 L614,2456 L425,2456 z" fill-rule="nonzero" vector-effect="none"/></g><defs><clipPath id="clip70"><path d="M1,1 L41,1 L41,41 L1,41 L1,1 z"/></clipPath></defs><g clip-path="url(#clip70)" fill="none" opacity="1" stroke="#35d461" stroke-linecap="butt" stroke-linejoin="miter" stroke-miterlimit="4" stroke-opacity="1" stroke-width="1.3325" transform="matrix(3.33333,0,0,3.33333,30,3.33333)"><path d="M19.4424,38.995 L20.2212,37.4374 L21.7788,37.4374 L22.5742,38.995 L19.4424,38.995 z" fill-rule="nonzero" vector-effect="none"/></g><defs><clipPath id="clip71"><path d="M-688,163 L1726,163 L1726,2577 L-688,2577 L-688,163 z"/></clipPath></defs><g clip-path="url(#clip71)" fill="#35d461" fill-opacity="1" opacity="1" stroke="none" stroke-opacity="0" transform="matrix(0.0552333,0,0,0.0552333,71.334,-2.33637)"><path d="M-122,2230 L-34,2173 L47,2220 L40,2325 L-122,2230 z" fill-rule="nonzero" vector-effect="none"/></g><defs><clipPath id="clip72"><path d="M1,1 L41,1 L41,41 L1,41 L1,1 z"/></clipPath></defs><g clip-path="url(#clip72)" fill="none" opacity="1" stroke="#35d461" stroke-linecap="butt" stroke-linejoin="miter" stroke-miterlimit="4" stroke-opacity="1" stroke-width="1.3325" transform="matrix(3.33333,0,0,3.33333,30,3.33333)"><path d="M10.3787,35.2502 L11.8368,34.3057 L13.179,35.0845 L13.063,36.8243 L10.3787,35.2502 z" fill-rule="nonzero" vector-effect="none"/></g><defs><clipPath id="clip73"><path d="M-688,163 L1726,163 L1726,2577 L-688,2577 L-688,163 z"/></clipPath></defs><g clip-path="url(#clip73)" fill="#35d461" fill-opacity="1" opacity="1" stroke="none" stroke-opacity="0" transform="matrix(0.0552333,0,0,0.0552333,71.334,-2.33637)"><path d="M-482,1801 L-377,1795 L-330,1877 L-388,1965 L-482,1801 z" fill-rule="nonzero" vector-effect="none"/></g><defs><clipPath id="clip74"><path d="M1,1 L41,1 L41,41 L1,41 L1,1 z"/></clipPath></defs><g clip-path="url(#clip74)" fill="none" opacity="1" stroke="#35d461" stroke-linecap="butt" stroke-linejoin="miter" stroke-miterlimit="4" stroke-opacity="1" stroke-width="1.3325" transform="matrix(3.33333,0,0,3.33333,30,3.33333)"><path d="M4.41346,28.1417 L6.15331,28.0422 L6.9321,29.401 L5.97104,30.8591 L4.41346,28.1417 z" fill-rule="nonzero" vector-effect="none"/></g><defs><clipPath id="clip75"><path d="M-688,163 L1726,163 L1726,2577 L-688,2577 L-688,163 z"/></clipPath></defs><g clip-path="url(#clip75)" fill="#35d461" fill-opacity="1" opacity="1" stroke="none" stroke-opacity="0" transform="matrix(0.0552333,0,0,0.0552333,71.334,-2.33637)"><path d="M-566,1275 L-472,1322 L-472,1417 L-566,1464 L-566,1275 z" fill-rule="nonzero" vector-effect="none"/></g><defs><clipPath id="clip76"><path d="M1,1 L41,1 L41,41 L1,41 L1,1 z"/></clipPath></defs><g clip-path="url(#clip76)" fill="none" opacity="1" stroke="#35d461" stroke-linecap="butt" stroke-linejoin="miter" stroke-miterlimit="4" stroke-opacity="1" stroke-width="1.3325" transform="matrix(3.33333,0,0,3.33333,30,3.33333)"><path d="M3.02158,19.4258 L4.57916,20.2046 L4.57916,21.7788 L3.02158,22.5576 L3.02158,19.4258 z" fill-rule="nonzero" vector-effect="none"/></g><defs><clipPath id="clip77"><path d="M-688,163 L1726,163 L1726,2577 L-688,2577 L-688,163 z"/></clipPath></defs><g clip-path="url(#clip77)" fill="#35d461" fill-opacity="1" opacity="1" stroke="none" stroke-opacity="0" transform="matrix(0.0552333,0,0,0.0552333,71.334,-2.33637)"><path d="M-341,714 L-283,803 L-330,885 L-435,878 L-341,714 z" fill-rule="nonzero" vector-effect="none"/></g><defs><clipPath id="clip78"><path d="M1,1 L41,1 L41,41 L1,41 L1,1 z"/></clipPath></defs><g clip-path="url(#clip78)" fill="none" opacity="1" stroke="#35d461" stroke-linecap="butt" stroke-linejoin="miter" stroke-miterlimit="4" stroke-opacity="1" stroke-width="1.3325" transform="matrix(3.33333,0,0,3.33333,30,3.33333)"><path d="M6.74983,10.1301 L7.71089,11.6048 L6.9321,12.9635 L5.19225,12.8476 L6.74983,10.1301 z" fill-rule="nonzero" vector-effect="none"/></g><defs><clipPath id="clip79"><path d="M-688,163 L1726,163 L1726,2577 L-688,2577 L-688,163 z"/></clipPath></defs><g clip-path="url(#clip79)" fill="#35d461" fill-opacity="1" opacity="1" stroke="none" stroke-opacity="0" transform="matrix(0.0552333,0,0,0.0552333,71.334,-2.33637)"><path d="M94,377 L100,482 L18,530 L-69,472 L94,377 z" fill-rule="nonzero" vector-effect="none"/></g><defs><clipPath id="clip80"><path d="M1,1 L41,1 L41,41 L1,41 L1,1 z"/></clipPath></defs><g clip-path="url(#clip80)" fill="none" opacity="1" stroke="#35d461" stroke-linecap="butt" stroke-linejoin="miter" stroke-miterlimit="4" stroke-opacity="1" stroke-width="1.3325" transform="matrix(3.33333,0,0,3.33333,30,3.33333)"><path d="M13.9578,4.54598 L14.0572,6.28583 L12.6985,7.08119 L11.2569,6.12013 L13.9578,4.54598 z" fill-rule="nonzero" vector-effect="none"/></g><defs><clipPath id="clip81"><path d="M-688,163 L1726,163 L1726,2577 L-688,2577 L-688,163 z"/></clipPath></defs><g clip-path="url(#clip81)" fill="#35d461" fill-opacity="1" opacity="1" stroke="none" stroke-opacity="0" transform="matrix(0.0552333,0,0,0.0552333,71.334,-2.33637)"><path d="M614,283 L566,377 L472,377 L425,283 L614,283 z" fill-rule="nonzero" vector-effect="none"/></g><defs><clipPath id="clip82"><path d="M1,1 L41,1 L41,41 L1,41 L1,1 z"/></clipPath></defs><g clip-path="url(#clip82)" fill="none" opacity="1" stroke="#35d461" stroke-linecap="butt" stroke-linejoin="miter" stroke-miterlimit="4" stroke-opacity="1" stroke-width="1.3325" transform="matrix(3.33333,0,0,3.33333,30,3.33333)"><path d="M22.5742,2.9884 L21.7788,4.54598 L20.2212,4.54598 L19.4424,2.9884 L22.5742,2.9884 z" fill-rule="nonzero" vector-effect="none"/></g><defs><clipPath id="clip83"><path d="M-688,163 L1726,163 L1726,2577 L-688,2577 L-688,163 z"/></clipPath></defs><g clip-path="url(#clip83)" fill="#35d461" fill-opacity="1" opacity="1" stroke="none" stroke-opacity="0" transform="matrix(0.0552333,0,0,0.0552333,71.334,-2.33637)"><path d="M1133,472 L1045,530 L963,482 L970,377 L1133,472 z" fill-rule="nonzero" vector-effect="none"/></g><defs><clipPath id="clip84"><path d="M1,1 L41,1 L41,41 L1,41 L1,1 z"/></clipPath></defs><g clip-path="url(#clip84)" fill="none" opacity="1" stroke="#35d461" stroke-linecap="butt" stroke-linejoin="miter" stroke-miterlimit="4" stroke-opacity="1" stroke-width="1.3325" transform="matrix(3.33333,0,0,3.33333,30,3.33333)"><path d="M31.174,6.12013 L29.7158,7.08119 L28.3571,6.28583 L28.4731,4.54598 L31.174,6.12013 z" fill-rule="nonzero" vector-effect="none"/></g><defs><clipPath id="clip85"><path d="M-688,163 L1726,163 L1726,2577 L-688,2577 L-688,163 z"/></clipPath></defs><g clip-path="url(#clip85)" fill="#35d461" fill-opacity="1" opacity="1" stroke="none" stroke-opacity="0" transform="matrix(0.0552333,0,0,0.0552333,71.334,-2.33637)"><path d="M1511,897 L1406,903 L1359,822 L1417,733 L1511,897 z" fill-rule="nonzero" vector-effect="none"/></g><defs><clipPath id="clip86"><path d="M1,1 L41,1 L41,41 L1,41 L1,1 z"/></clipPath></defs><g clip-path="url(#clip86)" fill="none" opacity="1" stroke="#35d461" stroke-linecap="butt" stroke-linejoin="miter" stroke-miterlimit="4" stroke-opacity="1" stroke-width="1.3325" transform="matrix(3.33333,0,0,3.33333,30,3.33333)"><path d="M37.4375,13.1624 L35.6976,13.2618 L34.9188,11.9196 L35.8799,10.4449 L37.4375,13.1624 z" fill-rule="nonzero" vector-effect="none"/></g><defs><clipPath id="clip87"><path d="M-688,163 L1726,163 L1726,2577 L-688,2577 L-688,163 z"/></clipPath></defs><g clip-path="url(#clip87)" fill="#35d461" fill-opacity="1" opacity="1" stroke="none" stroke-opacity="0" transform="matrix(0.0552333,0,0,0.0552333,71.334,-2.33637)"><path d="M1606,1464 L1511,1417 L1511,1322 L1606,1275 L1606,1464 z" fill-rule="nonzero" vector-effect="none"/></g><defs><clipPath id="clip88"><path d="M1,1 L41,1 L41,41 L1,41 L1,1 z"/></clipPath></defs><g clip-path="url(#clip88)" fill="none" opacity="1" stroke="#35d461" stroke-linecap="butt" stroke-linejoin="miter" stroke-miterlimit="4" stroke-opacity="1" stroke-width="1.3325" transform="matrix(3.33333,0,0,3.33333,30,3.33333)"><path d="M39.0116,22.5576 L37.4375,21.7788 L37.4375,20.2046 L39.0116,19.4258 L39.0116,22.5576 z" fill-rule="nonzero" vector-effect="none"/></g><defs><clipPath id="clip89"><path d="M-688,163 L1726,163 L1726,2577 L-688,2577 L-688,163 z"/></clipPath></defs><g clip-path="url(#clip89)" fill="#35d461" fill-opacity="1" opacity="1" stroke="none" stroke-opacity="0" transform="matrix(0.0552333,0,0,0.0552333,71.334,-2.33637)"><path d="M1417,1937 L1359,1848 L1406,1766 L1511,1773 L1417,1937 z" fill-rule="nonzero" vector-effect="none"/></g><defs><clipPath id="clip90"><path d="M1,1 L41,1 L41,41 L1,41 L1,1 z"/></clipPath></defs><g clip-path="url(#clip90)" fill="none" opacity="1" stroke="#35d461" stroke-linecap="butt" stroke-linejoin="miter" stroke-miterlimit="4" stroke-opacity="1" stroke-width="1.3325" transform="matrix(3.33333,0,0,3.33333,30,3.33333)"><path d="M35.8799,30.3952 L34.9188,28.9204 L35.6976,27.5617 L37.4375,27.6777 L35.8799,30.3952 z" fill-rule="nonzero" vector-effect="none"/></g><defs><clipPath id="clip91"><path d="M-688,163 L1726,163 L1726,2577 L-688,2577 L-688,163 z"/></clipPath></defs><g clip-path="url(#clip91)" fill="#35d461" fill-opacity="1" opacity="1" stroke="none" stroke-opacity="0" transform="matrix(0.0552333,0,0,0.0552333,71.334,-2.33637)"><path d="M970,2362 L963,2257 L1045,2209 L1133,2267 L970,2362 z" fill-rule="nonzero" vector-effect="none"/></g><defs><clipPath id="clip92"><path d="M1,1 L41,1 L41,41 L1,41 L1,1 z"/></clipPath></defs><g clip-path="url(#clip92)" fill="none" opacity="1" stroke="#35d461" stroke-linecap="butt" stroke-linejoin="miter" stroke-miterlimit="4" stroke-opacity="1" stroke-width="1.3325" transform="matrix(3.33333,0,0,3.33333,30,3.33333)"><path d="M28.4731,37.4374 L28.3571,35.6976 L29.7158,34.9022 L31.174,35.8633 L28.4731,37.4374 z" fill-rule="nonzero" vector-effect="none"/></g><defs><clipPath id="clip93"><path d="M-688,163 L1726,163 L1726,2577 L-688,2577 L-688,163 z"/></clipPath></defs><g clip-path="url(#clip93)" fill="#35d461" fill-opacity="1" opacity="1" stroke="none" stroke-opacity="0" transform="matrix(0.0552333,0,0,0.0552333,71.334,-2.33637)"><path d="M924,857 L995,779 L1086,803 L1107,907 L924,857 z" fill-rule="nonzero" vector-effect="none"/></g><defs><clipPath id="clip94"><path d="M1,1 L41,1 L41,41 L1,41 L1,1 z"/></clipPath></defs><g clip-path="url(#clip94)" fill="none" opacity="1" stroke="#35d461" stroke-linecap="butt" stroke-linejoin="miter" stroke-miterlimit="4" stroke-opacity="1" stroke-width="1.3325" transform="matrix(3.33333,0,0,3.33333,30,3.33333)"><path d="M27.7109,12.4996 L28.8873,11.2071 L30.3952,11.6048 L30.7432,13.3281 L27.7109,12.4996 z" fill-rule="nonzero" vector-effect="none"/></g><defs><clipPath id="clip95"><path d="M-688,163 L1726,163 L1726,2577 L-688,2577 L-688,163 z"/></clipPath></defs><g clip-path="url(#clip95)" fill="#35d461" fill-opacity="1" opacity="1" stroke="none" stroke-opacity="0" transform="matrix(0.0552333,0,0,0.0552333,71.334,-2.33637)"><path d="M-18,880 L2,776 L93,752 L163,831 L-18,880 z" fill-rule="nonzero" vector-effect="none"/></g><defs><clipPath id="clip96"><path d="M1,1 L41,1 L41,41 L1,41 L1,1 z"/></clipPath></defs><g clip-path="url(#clip96)" fill="none" opacity="1" stroke="#35d461" stroke-linecap="butt" stroke-linejoin="miter" stroke-miterlimit="4" stroke-opacity="1" stroke-width="1.3325" transform="matrix(3.33333,0,0,3.33333,30,3.33333)"><path d="M12.1019,12.8807 L12.4333,11.1574 L13.9412,10.7597 L15.1011,12.0688 L12.1019,12.8807 z" fill-rule="nonzero" vector-effect="none"/></g><defs><clipPath id="clip97"><path d="M-688,163 L1726,163 L1726,2577 L-688,2577 L-688,163 z"/></clipPath></defs><g clip-path="url(#clip97)" fill="#35d461" fill-opacity="1" opacity="1" stroke="none" stroke-opacity="0" transform="matrix(0.0552333,0,0,0.0552333,71.334,-2.33637)"><path d="M425,803 L472,708 L566,708 L614,803 L425,803 z" fill-rule="nonzero" vector-effect="none"/></g><defs><clipPath id="clip98"><path d="M1,1 L41,1 L41,41 L1,41 L1,1 z"/></clipPath></defs><g clip-path="url(#clip98)" fill="none" opacity="1" stroke="#35d461" stroke-linecap="butt" stroke-linejoin="miter" stroke-miterlimit="4" stroke-opacity="1" stroke-width="1.3325" transform="matrix(3.33333,0,0,3.33333,30,3.33333)"><path d="M19.4424,11.6048 L20.2212,10.0307 L21.7788,10.0307 L22.5742,11.6048 L19.4424,11.6048 z" fill-rule="nonzero" vector-effect="none"/></g><defs><clipPath id="clip99"><path d="M-688,163 L1726,163 L1726,2577 L-688,2577 L-688,163 z"/></clipPath></defs><g clip-path="url(#clip99)" fill="#35d461" fill-opacity="1" opacity="1" stroke="none" stroke-opacity="0" transform="matrix(0.0552333,0,0,0.0552333,71.334,-2.33637)"><path d="M-17,1856 L3,1960 L94,1984 L164,1905 L-17,1856 z" fill-rule="nonzero" vector-effect="none"/></g><defs><clipPath id="clip100"><path d="M1,1 L41,1 L41,41 L1,41 L1,1 z"/></clipPath></defs><g clip-path="url(#clip100)" fill="none" opacity="1" stroke="#35d461" stroke-linecap="butt" stroke-linejoin="miter" stroke-miterlimit="4" stroke-opacity="1" stroke-width="1.3325" transform="matrix(3.33333,0,0,3.33333,30,3.33333)"><path d="M12.1185,29.053 L12.4499,30.7763 L13.9578,31.174 L15.1177,29.8649 L12.1185,29.053 z" fill-rule="nonzero" vector-effect="none"/></g><defs><clipPath id="clip101"><path d="M-688,163 L1726,163 L1726,2577 L-688,2577 L-688,163 z"/></clipPath></defs><g clip-path="url(#clip101)" fill="#35d461" fill-opacity="1" opacity="1" stroke="none" stroke-opacity="0" transform="matrix(0.0552333,0,0,0.0552333,71.334,-2.33637)"><path d="M425,1937 L472,2031 L566,2031 L614,1937 L425,1937 z" fill-rule="nonzero" vector-effect="none"/></g><defs><clipPath id="clip102"><path d="M1,1 L41,1 L41,41 L1,41 L1,1 z"/></clipPath></defs><g clip-path="url(#clip102)" fill="none" opacity="1" stroke="#35d461" stroke-linecap="butt" stroke-linejoin="miter" stroke-miterlimit="4" stroke-opacity="1" stroke-width="1.3325" transform="matrix(3.33333,0,0,3.33333,30,3.33333)"><path d="M19.4424,30.3952 L20.2212,31.9528 L21.7788,31.9528 L22.5742,30.3952 L19.4424,30.3952 z" fill-rule="nonzero" vector-effect="none"/></g><defs><clipPath id="clip103"><path d="M-688,163 L1726,163 L1726,2577 L-688,2577 L-688,163 z"/></clipPath></defs><g clip-path="url(#clip103)" fill="#35d461" fill-opacity="1" opacity="1" stroke="none" stroke-opacity="0" transform="matrix(0.0552333,0,0,0.0552333,71.334,-2.33637)"><path d="M924,1882 L995,1961 L1086,1937 L1107,1833 L924,1882 z" fill-rule="nonzero" vector-effect="none"/></g><defs><clipPath id="clip104"><path d="M1,1 L41,1 L41,41 L1,41 L1,1 z"/></clipPath></defs><g clip-path="url(#clip104)" fill="none" opacity="1" stroke="#35d461" stroke-linecap="butt" stroke-linejoin="miter" stroke-miterlimit="4" stroke-opacity="1" stroke-width="1.3325" transform="matrix(3.33333,0,0,3.33333,30,3.33333)"><path d="M27.7109,29.4838 L28.8873,30.7929 L30.3952,30.3952 L30.7432,28.6719 L27.7109,29.4838 z" fill-rule="nonzero" vector-effect="none"/></g><defs><clipPath id="clip105"><path d="M-688,163 L1726,163 L1726,2577 L-688,2577 L-688,163 z"/></clipPath></defs><g clip-path="url(#clip105)" fill="#35d461" fill-opacity="1" opacity="1" stroke="none" stroke-opacity="0" transform="matrix(0.0552333,0,0,0.0552333,71.334,-2.33637)"><path d="M1407,1055 L1511,1039 L1566,1117 L1516,1209 L1407,1055 z" fill-rule="nonzero" vector-effect="none"/></g><defs><clipPath id="clip106"><path d="M1,1 L41,1 L41,41 L1,41 L1,1 z"/></clipPath></defs><g clip-path="url(#clip106)" fill="none" opacity="1" stroke="#35d461" stroke-linecap="butt" stroke-linejoin="miter" stroke-miterlimit="4" stroke-opacity="1" stroke-width="1.3325" transform="matrix(3.33333,0,0,3.33333,30,3.33333)"><path d="M35.7142,15.7804 L37.4375,15.5153 L38.3488,16.8078 L37.5203,18.3322 L35.7142,15.7804 z" fill-rule="nonzero" vector-effect="none"/></g><defs><clipPath id="clip107"><path d="M-688,163 L1726,163 L1726,2577 L-688,2577 L-688,163 z"/></clipPath></defs><g clip-path="url(#clip107)" fill="#35d461" fill-opacity="1" opacity="1" stroke="none" stroke-opacity="0" transform="matrix(0.0552333,0,0,0.0552333,71.334,-2.33637)"><path d="M-368,1055 L-472,1039 L-527,1117 L-476,1209 L-368,1055 z" fill-rule="nonzero" vector-effect="none"/></g><defs><clipPath id="clip108"><path d="M1,1 L41,1 L41,41 L1,41 L1,1 z"/></clipPath></defs><g clip-path="url(#clip108)" fill="none" opacity="1" stroke="#35d461" stroke-linecap="butt" stroke-linejoin="miter" stroke-miterlimit="4" stroke-opacity="1" stroke-width="1.3325" transform="matrix(3.33333,0,0,3.33333,30,3.33333)"><path d="M6.30244,15.7804 L4.57916,15.5153 L3.66781,16.8078 L4.51288,18.3322 L6.30244,15.7804 z" fill-rule="nonzero" vector-effect="none"/></g><defs><clipPath id="clip109"><path d="M-688,163 L1726,163 L1726,2577 L-688,2577 L-688,163 z"/></clipPath></defs><g clip-path="url(#clip109)" fill="#35d461" fill-opacity="1" opacity="1" stroke="none" stroke-opacity="0" transform="matrix(0.0552333,0,0,0.0552333,71.334,-2.33637)"><path d="M-368,1685 L-472,1700 L-527,1623 L-476,1530 L-368,1685 z" fill-rule="nonzero" vector-effect="none"/></g><defs><clipPath id="clip110"><path d="M1,1 L41,1 L41,41 L1,41 L1,1 z"/></clipPath></defs><g clip-path="url(#clip110)" fill="none" opacity="1" stroke="#35d461" stroke-linecap="butt" stroke-linejoin="miter" stroke-miterlimit="4" stroke-opacity="1" stroke-width="1.3325" transform="matrix(3.33333,0,0,3.33333,30,3.33333)"><path d="M6.30244,26.2195 L4.57916,26.4681 L3.66781,25.1922 L4.51288,23.6512 L6.30244,26.2195 z" fill-rule="nonzero" vector-effect="none"/></g><defs><clipPath id="clip111"><path d="M-688,163 L1726,163 L1726,2577 L-688,2577 L-688,163 z"/></clipPath></defs><g clip-path="url(#clip111)" fill="#35d461" fill-opacity="1" opacity="1" stroke="none" stroke-opacity="0" transform="matrix(0.0552333,0,0,0.0552333,71.334,-2.33637)"><path d="M1407,1685 L1511,1700 L1566,1623 L1516,1530 L1407,1685 z" fill-rule="nonzero" vector-effect="none"/></g><defs><clipPath id="clip112"><path d="M1,1 L41,1 L41,41 L1,41 L1,1 z"/></clipPath></defs><g clip-path="url(#clip112)" fill="none" opacity="1" stroke="#35d461" stroke-linecap="butt" stroke-linejoin="miter" stroke-miterlimit="4" stroke-opacity="1" stroke-width="1.3325" transform="matrix(3.33333,0,0,3.33333,30,3.33333)"><path d="M35.7142,26.2195 L37.4375,26.4681 L38.3488,25.1922 L37.5203,23.6512 L35.7142,26.2195 z" fill-rule="nonzero" vector-effect="none"/></g><defs><clipPath id="clip129"><path d="M-189,-102 L16,-102 L16,103 L-189,103 L-189,-102 z"/></clipPath></defs><g clip-path="url(#clip129)" fill="none" opacity="1" stroke="#e60000" stroke-linecap="square" stroke-linejoin="bevel" stroke-opacity="1" stroke-width="1" transform="matrix(0.651042,0,0,0.651042,156.667,73.3333)"><text fill="#e60000" fill-opacity="1" font-family="Liberation Sans" font-size="40" font-style="normal" font-weight="400" stroke="none" textLength="24" x="-31.25" xml:space="preserve" y="17.9219">F</text></g><defs><clipPath id="clip132"><path d="M-15,-102 L190,-102 L190,103 L-15,103 L-15,-102 z"/></clipPath></defs><g clip-path="url(#clip132)" fill="none" opacity="1" stroke="#e60000" stroke-linecap="square" stroke-linejoin="bevel" stroke-opacity="1" stroke-width="1" transform="matrix(0.651042,0,0,0.651042,43.3333,73.3333)"><text fill="#e60000" fill-opacity="1" font-family="Liberation Sans" font-size="40" font-style="normal" font-weight="400" stroke="none" textLength="27" x="0" xml:space="preserve" y="17.9219">B</text></g><defs><clipPath id="clip138"><path d="M-10,-2 L50,-2 L50,42 L-10,42 L-10,-2 z"/></clipPath></defs><g clip-path="url(#clip138)" fill="none" opacity="1" stroke="none" stroke-opacity="0" transform="matrix(3.33333,0,0,3.33333,33.3333,6.66667)"><path d="M0,0 L40,0 L40,40 L0,40 L0,0 z" fill-rule="evenodd" vector-effect="none"/></g></g></svg>
