<?xml version="1.0" encoding="UTF-8"?><svg width="52.9167mm" height="42.3333mm" viewBox="0 0 200 160" xmlns="http://www.w3.org/2000/svg" xmlns:xlink="http://www.w3.org/1999/xlink"><g fill="none" stroke="black" stroke-width="1" fill-rule="evenodd" stroke-linecap="square" stroke-linejoin="bevel"><g clip-path="none" fill="none" opacity="1" stroke="none" stroke-opacity="0" transform="matrix(1,0,0,1,0,0)"><path d="M0,0 L200,0 L200,160 L0,160 L0,0 z" fill-rule="evenodd" vector-effect="none"/></g><defs><clipPath id="clip6"><path d="M0,0 L10,0 L10,10 L0,10 L0,0 z"/></clipPath></defs><g clip-path="url(#clip6)" fill="#b3b3b3" fill-opacity="1" opacity="1" stroke="none" stroke-opacity="0" transform="matrix(2.5,0,0,2.5,175,107.5)"><path d="M0.5,3.5 L3.5,3.5 L3.5,6.5 L0.5,6.5 L0.5,3.5 z" fill-rule="evenodd" vector-effect="none"/></g><defs><clipPath id="clip8"><path d="M0,0 L10,0 L10,10 L0,10 L0,0 z"/></clipPath></defs><g clip-path="url(#clip8)" fill="#000000" fill-opacity="1" opacity="1" stroke="none" stroke-opacity="0" transform="matrix(2.5,0,0,2.5,175,107.5)"><path d="M3,4 L3,6 L1,6 L1,4 L3,4 M4,3 L0,3 L0,7 L4,7 L4,3" fill-rule="nonzero" vector-effect="none"/></g><defs><clipPath id="clip28"><path d="M0,0 L10,0 L10,10 L0,10 L0,0 z"/></clipPath></defs><g clip-path="url(#clip28)" fill="#ffffff" fill-opacity="1" opacity="1" stroke="none" stroke-opacity="0" transform="matrix(2.5,0,0,2.5,175,32.5)"><path d="M0.5,0.809 L8.882,5 L0.5,9.191 L0.5,0.809 z" fill-rule="evenodd" vector-effect="none"/></g><defs><clipPath id="clip30"><path d="M0,0 L10,0 L10,10 L0,10 L0,0 z"/></clipPath></defs><g clip-path="url(#clip30)" fill="#000000" fill-opacity="1" opacity="1" stroke="none" stroke-opacity="0" transform="matrix(2.5,0,0,2.5,175,32.5)"><path d="M1,1.618 L7.764,5 L1,8.382 L1,1.618 M0,0 L0,10 L10,5 L0,0" fill-rule="nonzero" vector-effect="none"/></g><defs><clipPath id="clip52"><path d="M0,0 L10,0 L10,10 L0,10 L0,0 z"/></clipPath></defs><g clip-path="url(#clip52)" fill="#b3b3b3" fill-opacity="1" opacity="1" stroke="none" stroke-opacity="0" transform="matrix(-2.5,0,0,2.5,25,107.5)"><path d="M0.5,3.5 L3.5,3.5 L3.5,6.5 L0.5,6.5 L0.5,3.5 z" fill-rule="evenodd" vector-effect="none"/></g><defs><clipPath id="clip54"><path d="M0,0 L10,0 L10,10 L0,10 L0,0 z"/></clipPath></defs><g clip-path="url(#clip54)" fill="#000000" fill-opacity="1" opacity="1" stroke="none" stroke-opacity="0" transform="matrix(-2.5,0,0,2.5,25,107.5)"><path d="M3,4 L3,6 L1,6 L1,4 L3,4 M4,3 L0,3 L0,7 L4,7 L4,3" fill-rule="nonzero" vector-effect="none"/></g><defs><clipPath id="clip75"><path d="M0,0 L10,0 L10,10 L0,10 L0,0 z"/></clipPath></defs><g clip-path="url(#clip75)" fill="#ffffff" fill-opacity="1" opacity="1" stroke="none" stroke-opacity="0" transform="matrix(2.5,0,0,2.5,0,32.5)"><path d="M8.882,5 L0.5,9.191 L0.5,0.809 L8.882,5 z" fill-rule="evenodd" vector-effect="none"/></g><defs><clipPath id="clip77"><path d="M0,0 L10,0 L10,10 L0,10 L0,0 z"/></clipPath></defs><g clip-path="url(#clip77)" fill="#000000" fill-opacity="1" opacity="1" stroke="none" stroke-opacity="0" transform="matrix(2.5,0,0,2.5,0,32.5)"><path d="M1,1.618 L7.764,5 L1,8.382 L1,1.618 M0,0 L0,10 L10,5 L0,0" fill-rule="nonzero" vector-effect="none"/></g><defs><clipPath id="clip96"><path d="M-10,-2 L70,-2 L70,62 L-10,62 L-10,-2 z"/></clipPath></defs><g clip-path="url(#clip96)" fill="#ffffff" fill-opacity="1" opacity="1" stroke="none" stroke-opacity="0" transform="matrix(2.5,0,0,2.5,25,5)"><path d="M0,0 L60,0 L60,60 L0,60 L0,0 z" fill-rule="evenodd" vector-effect="none"/></g><defs><clipPath id="clip100"><path d="M0,0 L60,0 L60,60 L0,60 L0,0 z"/></clipPath></defs><g clip-path="url(#clip100)" fill="none" opacity="1" stroke="none" stroke-opacity="0" transform="matrix(2.5,0,0,2.5,25,5)"><path d="M0,0 L60,0 L60,60 L0,60 L0,0 z" fill-rule="evenodd" vector-effect="none"/></g><defs><clipPath id="clip110"><path d="M1,1 L61,1 L61,61 L1,61 L1,1 z"/></clipPath></defs><g clip-path="url(#clip110)" fill="none" opacity="1" stroke="#35d461" stroke-linecap="butt" stroke-linejoin="miter" stroke-miterlimit="20" stroke-opacity="1" stroke-width="1.9825" transform="matrix(2.5,0,0,2.5,22.5,2.5)"><path d="M25.4219,17.625 L27.7595,23.225" fill-rule="nonzero" vector-effect="none"/></g><defs><clipPath id="clip111"><path d="M1,1 L61,1 L61,61 L1,61 L1,1 z"/></clipPath></defs><g clip-path="url(#clip111)" fill="none" opacity="1" stroke="#35d461" stroke-linecap="butt" stroke-linejoin="miter" stroke-miterlimit="20" stroke-opacity="1" stroke-width="1.9825" transform="matrix(2.5,0,0,2.5,22.5,2.5)"><path d="M33.1013,23.225 L35.4388,17.625" fill-rule="nonzero" vector-effect="none"/></g><defs><clipPath id="clip112"><path d="M1,1 L61,1 L61,61 L1,61 L1,1 z"/></clipPath></defs><g clip-path="url(#clip112)" fill="none" opacity="1" stroke="#35d461" stroke-linecap="butt" stroke-linejoin="miter" stroke-miterlimit="20" stroke-opacity="1" stroke-width="1.9825" transform="matrix(2.5,0,0,2.5,22.5,2.5)"><path d="M16.4768,30.975 L22.5865,30.5084" fill-rule="nonzero" vector-effect="none"/></g><defs><clipPath id="clip113"><path d="M1,1 L61,1 L61,61 L1,61 L1,1 z"/></clipPath></defs><g clip-path="url(#clip113)" fill="none" opacity="1" stroke="#35d461" stroke-linecap="butt" stroke-linejoin="miter" stroke-miterlimit="20" stroke-opacity="1" stroke-width="1.9825" transform="matrix(2.5,0,0,2.5,22.5,2.5)"><path d="M24.2405,25.5 L19.5738,21.5667" fill-rule="nonzero" vector-effect="none"/></g><defs><clipPath id="clip114"><path d="M1,1 L61,1 L61,61 L1,61 L1,1 z"/></clipPath></defs><g clip-path="url(#clip114)" fill="none" opacity="1" stroke="#35d461" stroke-linecap="butt" stroke-linejoin="miter" stroke-miterlimit="20" stroke-opacity="1" stroke-width="1.9825" transform="matrix(2.5,0,0,2.5,22.5,2.5)"><path d="M26.0549,43.9 L27.4979,38.0167" fill-rule="nonzero" vector-effect="none"/></g><defs><clipPath id="clip115"><path d="M1,1 L61,1 L61,61 L1,61 L1,1 z"/></clipPath></defs><g clip-path="url(#clip115)" fill="none" opacity="1" stroke="#35d461" stroke-linecap="butt" stroke-linejoin="miter" stroke-miterlimit="20" stroke-opacity="1" stroke-width="1.9825" transform="matrix(2.5,0,0,2.5,22.5,2.5)"><path d="M23.1772,34.9167 L17.9536,38.0834" fill-rule="nonzero" vector-effect="none"/></g><defs><clipPath id="clip116"><path d="M1,1 L61,1 L61,61 L1,61 L1,1 z"/></clipPath></defs><g clip-path="url(#clip116)" fill="none" opacity="1" stroke="#35d461" stroke-linecap="butt" stroke-linejoin="miter" stroke-miterlimit="20" stroke-opacity="1" stroke-width="1.9825" transform="matrix(2.5,0,0,2.5,22.5,2.5)"><path d="M41.7848,22.2834 L37.1013,26.2167" fill-rule="nonzero" vector-effect="none"/></g><defs><clipPath id="clip117"><path d="M1,1 L61,1 L61,61 L1,61 L1,1 z"/></clipPath></defs><g clip-path="url(#clip117)" fill="none" opacity="1" stroke="#35d461" stroke-linecap="butt" stroke-linejoin="miter" stroke-miterlimit="20" stroke-opacity="1" stroke-width="1.9825" transform="matrix(2.5,0,0,2.5,22.5,2.5)"><path d="M38.7553,31.225 L44.865,31.7" fill-rule="nonzero" vector-effect="none"/></g><defs><clipPath id="clip118"><path d="M1,1 L61,1 L61,61 L1,61 L1,1 z"/></clipPath></defs><g clip-path="url(#clip118)" fill="none" opacity="1" stroke="#35d461" stroke-linecap="butt" stroke-linejoin="miter" stroke-miterlimit="20" stroke-opacity="1" stroke-width="1.9825" transform="matrix(2.5,0,0,2.5,22.5,2.5)"><path d="M42.9831,38.0917 L37.7764,34.925" fill-rule="nonzero" vector-effect="none"/></g><defs><clipPath id="clip119"><path d="M1,1 L61,1 L61,61 L1,61 L1,1 z"/></clipPath></defs><g clip-path="url(#clip119)" fill="none" opacity="1" stroke="#35d461" stroke-linecap="butt" stroke-linejoin="miter" stroke-miterlimit="20" stroke-opacity="1" stroke-width="1.9825" transform="matrix(2.5,0,0,2.5,22.5,2.5)"><path d="M33.4473,38.025 L34.8903,43.9084" fill-rule="nonzero" vector-effect="none"/></g><defs><clipPath id="clip120"><path d="M1,1 L61,1 L61,61 L1,61 L1,1 z"/></clipPath></defs><g clip-path="url(#clip120)" fill="none" opacity="1" stroke="#35d461" stroke-linecap="butt" stroke-linejoin="miter" stroke-miterlimit="4" stroke-opacity="1" stroke-width="1.9825" transform="matrix(2.5,0,0,2.5,22.5,2.5)"><path d="M27.7595,23.225 C29.5131,22.7917 31.3477,22.7917 33.1013,23.225" fill-rule="nonzero" vector-effect="none"/></g><defs><clipPath id="clip121"><path d="M1,1 L61,1 L61,61 L1,61 L1,1 z"/></clipPath></defs><g clip-path="url(#clip121)" fill="none" opacity="1" stroke="#35d461" stroke-linecap="butt" stroke-linejoin="miter" stroke-miterlimit="4" stroke-opacity="1" stroke-width="1.9825" transform="matrix(2.5,0,0,2.5,22.5,2.5)"><path d="M25.4219,17.625 C27.0091,16.9731 28.7113,16.6375 30.4304,16.6375 C32.1495,16.6375 33.8516,16.9731 35.4388,17.625" fill-rule="nonzero" vector-effect="none"/></g><defs><clipPath id="clip122"><path d="M1,1 L61,1 L61,61 L1,61 L1,1 z"/></clipPath></defs><g clip-path="url(#clip122)" fill="none" opacity="1" stroke="#35d461" stroke-linecap="butt" stroke-linejoin="miter" stroke-miterlimit="4" stroke-opacity="1" stroke-width="1.9825" transform="matrix(2.5,0,0,2.5,22.5,2.5)"><path d="M22.5865,30.5084 C22.7117,28.7299 23.2799,27.0095 24.2405,25.5" fill-rule="nonzero" vector-effect="none"/></g><defs><clipPath id="clip123"><path d="M1,1 L61,1 L61,61 L1,61 L1,1 z"/></clipPath></defs><g clip-path="url(#clip123)" fill="none" opacity="1" stroke="#35d461" stroke-linecap="butt" stroke-linejoin="miter" stroke-miterlimit="4" stroke-opacity="1" stroke-width="1.9825" transform="matrix(2.5,0,0,2.5,22.5,2.5)"><path d="M16.4768,30.975 C16.3331,29.2822 16.5329,27.5781 17.0647,25.9625 C17.5965,24.347 18.4495,22.8524 19.5738,21.5667" fill-rule="nonzero" vector-effect="none"/></g><defs><clipPath id="clip124"><path d="M1,1 L61,1 L61,61 L1,61 L1,1 z"/></clipPath></defs><g clip-path="url(#clip124)" fill="none" opacity="1" stroke="#35d461" stroke-linecap="butt" stroke-linejoin="miter" stroke-miterlimit="4" stroke-opacity="1" stroke-width="1.9825" transform="matrix(2.5,0,0,2.5,22.5,2.5)"><path d="M27.4979,38.0167 C25.8205,37.3514 24.3361,36.2864 23.1772,34.9167" fill-rule="nonzero" vector-effect="none"/></g><defs><clipPath id="clip125"><path d="M1,1 L61,1 L61,61 L1,61 L1,1 z"/></clipPath></defs><g clip-path="url(#clip125)" fill="none" opacity="1" stroke="#35d461" stroke-linecap="butt" stroke-linejoin="miter" stroke-miterlimit="4" stroke-opacity="1" stroke-width="1.9825" transform="matrix(2.5,0,0,2.5,22.5,2.5)"><path d="M26.0549,43.9 C24.3799,43.5129 22.8004,42.7989 21.4091,41.8 C20.0179,40.801 18.8429,39.5374 17.9536,38.0834" fill-rule="nonzero" vector-effect="none"/></g><defs><clipPath id="clip126"><path d="M1,1 L61,1 L61,61 L1,61 L1,1 z"/></clipPath></defs><g clip-path="url(#clip126)" fill="none" opacity="1" stroke="#35d461" stroke-linecap="butt" stroke-linejoin="miter" stroke-miterlimit="4" stroke-opacity="1" stroke-width="1.9825" transform="matrix(2.5,0,0,2.5,22.5,2.5)"><path d="M37.1013,26.2167 C38.0654,27.7245 38.6338,29.4459 38.7553,31.225" fill-rule="nonzero" vector-effect="none"/></g><defs><clipPath id="clip127"><path d="M1,1 L61,1 L61,61 L1,61 L1,1 z"/></clipPath></defs><g clip-path="url(#clip127)" fill="none" opacity="1" stroke="#35d461" stroke-linecap="butt" stroke-linejoin="miter" stroke-miterlimit="4" stroke-opacity="1" stroke-width="1.9825" transform="matrix(2.5,0,0,2.5,22.5,2.5)"><path d="M41.7848,22.2834 C42.903,23.574 43.7509,25.0709 44.2796,26.6871 C44.8083,28.3035 45.0073,30.0072 44.865,31.7" fill-rule="nonzero" vector-effect="none"/></g><defs><clipPath id="clip128"><path d="M1,1 L61,1 L61,61 L1,61 L1,1 z"/></clipPath></defs><g clip-path="url(#clip128)" fill="none" opacity="1" stroke="#35d461" stroke-linecap="butt" stroke-linejoin="miter" stroke-miterlimit="4" stroke-opacity="1" stroke-width="1.9825" transform="matrix(2.5,0,0,2.5,22.5,2.5)"><path d="M37.7764,34.925 C36.6136,36.2945 35.1267,37.3593 33.4473,38.025" fill-rule="nonzero" vector-effect="none"/></g><defs><clipPath id="clip129"><path d="M1,1 L61,1 L61,61 L1,61 L1,1 z"/></clipPath></defs><g clip-path="url(#clip129)" fill="none" opacity="1" stroke="#35d461" stroke-linecap="butt" stroke-linejoin="miter" stroke-miterlimit="4" stroke-opacity="1" stroke-width="1.9825" transform="matrix(2.5,0,0,2.5,22.5,2.5)"><path d="M42.9831,38.0917 C42.0979,39.5474 40.9253,40.8125 39.535,41.8117 C38.1447,42.811 36.5651,43.5241 34.8903,43.9084" fill-rule="nonzero" vector-effect="none"/></g><defs><clipPath id="clip130"><path d="M1,1 L61,1 L61,61 L1,61 L1,1 z"/></clipPath></defs><g clip-path="url(#clip130)" fill="none" opacity="1" stroke="#44805c" stroke-linecap="butt" stroke-linejoin="miter" stroke-miterlimit="4" stroke-opacity="1" stroke-width="1.9825" transform="matrix(2.5,0,0,2.5,22.5,2.5)"><path d="M50.7553,30.8167 C50.7553,41.8992 41.6574,50.8834 30.4346,50.8834 C19.2118,50.8834 10.1139,41.8992 10.1139,30.8167 C10.1139,19.7342 19.2118,10.75 30.4346,10.75 C41.6574,10.75 50.7553,19.7342 50.7553,30.8167 z" fill-rule="nonzero" vector-effect="none"/></g><defs><clipPath id="clip131"><path d="M1,1 L61,1 L61,61 L1,61 L1,1 z"/></clipPath></defs><g clip-path="url(#clip131)" fill="none" opacity="1" stroke="#44805c" stroke-linecap="butt" stroke-linejoin="miter" stroke-miterlimit="4" stroke-opacity="1" stroke-width="1.9825" transform="matrix(2.5,0,0,2.5,22.5,2.5)"><path d="M49.692,30.8167 C49.692,41.3193 41.0702,49.8334 30.4346,49.8334 C19.799,49.8334 11.1772,41.3193 11.1772,30.8167 C11.1772,20.3141 19.799,11.8 30.4346,11.8 C41.0702,11.8 49.692,20.3141 49.692,30.8167 z" fill-rule="nonzero" vector-effect="none"/></g><defs><clipPath id="clip132"><path d="M1,1 L61,1 L61,61 L1,61 L1,1 z"/></clipPath></defs><g clip-path="url(#clip132)" fill="none" opacity="1" stroke="#35d461" stroke-linecap="butt" stroke-linejoin="miter" stroke-miterlimit="4" stroke-opacity="1" stroke-width="1.9825" transform="matrix(2.5,0,0,2.5,22.5,2.5)"><path d="M36.0211,30.675 C36.0211,33.6896 33.5464,36.1334 30.4937,36.1334 C27.441,36.1334 24.9662,33.6896 24.9662,30.675 C24.9662,27.6605 27.441,25.2167 30.4937,25.2167 C33.5464,25.2167 36.0211,27.6605 36.0211,30.675 z" fill-rule="nonzero" vector-effect="none"/></g><defs><clipPath id="clip133"><path d="M1,1 L61,1 L61,61 L1,61 L1,1 z"/></clipPath></defs><g clip-path="url(#clip133)" fill="none" opacity="1" stroke="#35d461" stroke-linecap="butt" stroke-linejoin="miter" stroke-miterlimit="4" stroke-opacity="1" stroke-width="1.9825" transform="matrix(2.5,0,0,2.5,22.5,2.5)"><path d="M33.1857,30.4834 C33.1857,31.9837 31.954,33.2 30.4346,33.2 C28.9152,33.2 27.6835,31.9837 27.6835,30.4834 C27.6835,28.983 28.9152,27.7667 30.4346,27.7667 C31.954,27.7667 33.1857,28.983 33.1857,30.4834 z" fill-rule="nonzero" vector-effect="none"/></g><defs><clipPath id="clip134"><path d="M1,1 L61,1 L61,61 L1,61 L1,1 z"/></clipPath></defs><g clip-path="url(#clip134)" fill="none" opacity="1" stroke="#44805c" stroke-linecap="butt" stroke-linejoin="miter" stroke-miterlimit="4" stroke-opacity="1" stroke-width="1.9825" transform="matrix(2.5,0,0,2.5,22.5,2.5)"><path d="M46.4599,30.8167 C46.4599,39.5566 39.2851,46.6417 30.4346,46.6417 C21.5841,46.6417 14.4093,39.5566 14.4093,30.8167 C14.4093,22.0768 21.5841,14.9917 30.4346,14.9917 C39.2851,14.9917 46.4599,22.0768 46.4599,30.8167 z" fill-rule="nonzero" vector-effect="none"/></g><defs><clipPath id="clip135"><path d="M1,1 L61,1 L61,61 L1,61 L1,1 z"/></clipPath></defs><g clip-path="url(#clip135)" fill="none" opacity="1" stroke="#44805c" stroke-linecap="butt" stroke-linejoin="miter" stroke-miterlimit="20" stroke-opacity="1" stroke-width="1.9825" transform="matrix(2.5,0,0,2.5,22.5,2.5)"><path d="M1,1 L61,1 L61,61 L1,61 L1,1 z" fill-rule="nonzero" vector-effect="none"/></g><defs><clipPath id="clip152"><path d="M-292,-230 L15,-230 L15,77 L-292,77 L-292,-230 z"/></clipPath></defs><g clip-path="url(#clip152)" fill="none" opacity="1" stroke="#e60000" stroke-linecap="square" stroke-linejoin="bevel" stroke-opacity="1" stroke-width="1" transform="matrix(0.488281,0,0,0.488281,167.5,117.5)"><text fill="#e60000" fill-opacity="1" font-family="Liberation Sans" font-size="40" font-style="normal" font-weight="400" stroke="none" textLength="29" x="-36.9531" xml:space="preserve" y="17.9219">H</text></g><defs><clipPath id="clip155"><path d="M-292,-77 L15,-77 L15,230 L-292,230 L-292,-77 z"/></clipPath></defs><g clip-path="url(#clip155)" fill="none" opacity="1" stroke="#e60000" stroke-linecap="square" stroke-linejoin="bevel" stroke-opacity="1" stroke-width="1" transform="matrix(0.488281,0,0,0.488281,167.5,42.5)"><text fill="#e60000" fill-opacity="1" font-family="Liberation Sans" font-size="40" font-style="normal" font-weight="400" stroke="none" textLength="27" x="-34.125" xml:space="preserve" y="17.9219">S</text></g><defs><clipPath id="clip158"><path d="M-15,-230 L292,-230 L292,77 L-15,77 L-15,-230 z"/></clipPath></defs><g clip-path="url(#clip158)" fill="none" opacity="1" stroke="#e60000" stroke-linecap="square" stroke-linejoin="bevel" stroke-opacity="1" stroke-width="1" transform="matrix(0.488281,0,0,0.488281,32.5,117.5)"><text fill="#e60000" fill-opacity="1" font-family="Liberation Sans" font-size="40" font-style="normal" font-weight="400" stroke="none" textLength="27" x="0" xml:space="preserve" y="17.9219">A</text></g><defs><clipPath id="clip161"><path d="M-15,-77 L292,-77 L292,230 L-15,230 L-15,-77 z"/></clipPath></defs><g clip-path="url(#clip161)" fill="none" opacity="1" stroke="#e60000" stroke-linecap="square" stroke-linejoin="bevel" stroke-opacity="1" stroke-width="1" transform="matrix(0.488281,0,0,0.488281,32.5,42.5)"><text fill="#e60000" fill-opacity="1" font-family="Liberation Sans" font-size="40" font-style="normal" font-weight="400" stroke="none" textLength="29" x="0" xml:space="preserve" y="17.9219">N</text></g><defs><clipPath id="clip167"><path d="M-10,-2 L70,-2 L70,62 L-10,62 L-10,-2 z"/></clipPath></defs><g clip-path="url(#clip167)" fill="none" opacity="1" stroke="none" stroke-opacity="0" transform="matrix(2.5,0,0,2.5,25,5)"><path d="M0,0 L60,0 L60,60 L0,60 L0,0 z" fill-rule="evenodd" vector-effect="none"/></g></g></svg>
