<?xml version="1.0" encoding="UTF-8"?><svg width="52.9167mm" height="32.0146mm" viewBox="0 0 200 121" xmlns="http://www.w3.org/2000/svg" xmlns:xlink="http://www.w3.org/1999/xlink"><g fill="none" stroke="black" stroke-width="1" fill-rule="evenodd" stroke-linecap="square" stroke-linejoin="bevel"><g clip-path="none" fill="none" opacity="1" stroke="none" stroke-opacity="0" transform="matrix(1,0,0,1,0,0)"><path d="M0,0 L200,0 L200,121 L0,121 L0,0 z" fill-rule="evenodd" vector-effect="none"/></g><defs><clipPath id="clip6"><path d="M0,0 L10,0 L10,10 L0,10 L0,0 z"/></clipPath></defs><g clip-path="url(#clip6)" fill="#ffffff" fill-opacity="1" opacity="1" stroke="none" stroke-opacity="0" transform="matrix(-2.24013e-16,1.21951,-1.21951,-2.24013e-16,37.8049,109.756)"><path d="M0.5,0.809 L8.882,5 L0.5,9.191 L0.5,0.809 z" fill-rule="evenodd" vector-effect="none"/></g><defs><clipPath id="clip8"><path d="M0,0 L10,0 L10,10 L0,10 L0,0 z"/></clipPath></defs><g clip-path="url(#clip8)" fill="#000000" fill-opacity="1" opacity="1" stroke="none" stroke-opacity="0" transform="matrix(-2.24013e-16,1.21951,-1.21951,-2.24013e-16,37.8049,109.756)"><path d="M1,1.618 L7.764,5 L1,8.382 L1,1.618 M0,0 L0,10 L10,5 L0,0" fill-rule="nonzero" vector-effect="none"/></g><defs><clipPath id="clip30"><path d="M0,0 L10,0 L10,10 L0,10 L0,0 z"/></clipPath></defs><g clip-path="url(#clip30)" fill="#ffffff" fill-opacity="1" opacity="1" stroke="none" stroke-opacity="0" transform="matrix(-2.24013e-16,1.21951,-1.21951,-2.24013e-16,104.878,109.756)"><path d="M0.5,0.809 L8.882,5 L0.5,9.191 L0.5,0.809 z" fill-rule="evenodd" vector-effect="none"/></g><defs><clipPath id="clip32"><path d="M0,0 L10,0 L10,10 L0,10 L0,0 z"/></clipPath></defs><g clip-path="url(#clip32)" fill="#000000" fill-opacity="1" opacity="1" stroke="none" stroke-opacity="0" transform="matrix(-2.24013e-16,1.21951,-1.21951,-2.24013e-16,104.878,109.756)"><path d="M1,1.618 L7.764,5 L1,8.382 L1,1.618 M0,0 L0,10 L10,5 L0,0" fill-rule="nonzero" vector-effect="none"/></g><defs><clipPath id="clip55"><path d="M0,0 L10,0 L10,10 L0,10 L0,0 z"/></clipPath></defs><g clip-path="url(#clip55)" fill="#ffffff" fill-opacity="1" opacity="1" stroke="none" stroke-opacity="0" transform="matrix(-7.46711e-17,1.21951,1.21951,7.46711e-17,162.195,2.13163e-14)"><path d="M8.882,5 L0.5,9.191 L0.5,0.809 L8.882,5 z" fill-rule="evenodd" vector-effect="none"/></g><defs><clipPath id="clip57"><path d="M0,0 L10,0 L10,10 L0,10 L0,0 z"/></clipPath></defs><g clip-path="url(#clip57)" fill="#000000" fill-opacity="1" opacity="1" stroke="none" stroke-opacity="0" transform="matrix(-7.46711e-17,1.21951,1.21951,7.46711e-17,162.195,2.13163e-14)"><path d="M1,1.618 L7.764,5 L1,8.382 L1,1.618 M0,0 L0,10 L10,5 L0,0" fill-rule="nonzero" vector-effect="none"/></g><defs><clipPath id="clip80"><path d="M0,0 L10,0 L10,10 L0,10 L0,0 z"/></clipPath></defs><g clip-path="url(#clip80)" fill="#ffffff" fill-opacity="1" opacity="1" stroke="none" stroke-opacity="0" transform="matrix(2.24013e-16,-1.21951,-1.21951,-2.24013e-16,171.951,121.951)"><path d="M8.882,5 L0.5,9.191 L0.5,0.809 L8.882,5 z" fill-rule="evenodd" vector-effect="none"/></g><defs><clipPath id="clip82"><path d="M0,0 L10,0 L10,10 L0,10 L0,0 z"/></clipPath></defs><g clip-path="url(#clip82)" fill="#000000" fill-opacity="1" opacity="1" stroke="none" stroke-opacity="0" transform="matrix(2.24013e-16,-1.21951,-1.21951,-2.24013e-16,171.951,121.951)"><path d="M1,1.618 L7.764,5 L1,8.382 L1,1.618 M0,0 L0,10 L10,5 L0,0" fill-rule="nonzero" vector-effect="none"/></g><defs><clipPath id="clip104"><path d="M0,0 L10,0 L10,10 L0,10 L0,0 z"/></clipPath></defs><g clip-path="url(#clip104)" fill="#ffffff" fill-opacity="1" opacity="1" stroke="none" stroke-opacity="0" transform="matrix(7.46711e-17,-1.21951,1.21951,7.46711e-17,95.122,12.1951)"><path d="M0.5,0.809 L8.882,5 L0.5,9.191 L0.5,0.809 z" fill-rule="evenodd" vector-effect="none"/></g><defs><clipPath id="clip106"><path d="M0,0 L10,0 L10,10 L0,10 L0,0 z"/></clipPath></defs><g clip-path="url(#clip106)" fill="#000000" fill-opacity="1" opacity="1" stroke="none" stroke-opacity="0" transform="matrix(7.46711e-17,-1.21951,1.21951,7.46711e-17,95.122,12.1951)"><path d="M1,1.618 L7.764,5 L1,8.382 L1,1.618 M0,0 L0,10 L10,5 L0,0" fill-rule="nonzero" vector-effect="none"/></g><defs><clipPath id="clip128"><path d="M0,0 L10,0 L10,10 L0,10 L0,0 z"/></clipPath></defs><g clip-path="url(#clip128)" fill="#b3b3b3" fill-opacity="1" opacity="1" stroke="none" stroke-opacity="0" transform="matrix(7.46711e-17,-1.21951,1.21951,7.46711e-17,28.0488,12.1951)"><path d="M0.5,3.5 L3.5,3.5 L3.5,6.5 L0.5,6.5 L0.5,3.5 z" fill-rule="evenodd" vector-effect="none"/></g><defs><clipPath id="clip130"><path d="M0,0 L10,0 L10,10 L0,10 L0,0 z"/></clipPath></defs><g clip-path="url(#clip130)" fill="#000000" fill-opacity="1" opacity="1" stroke="none" stroke-opacity="0" transform="matrix(7.46711e-17,-1.21951,1.21951,7.46711e-17,28.0488,12.1951)"><path d="M3,4 L3,6 L1,6 L1,4 L3,4 M4,3 L0,3 L0,7 L4,7 L4,3" fill-rule="nonzero" vector-effect="none"/></g><defs><clipPath id="clip147"><path d="M-2,-10 L162,-10 L162,90 L-2,90 L-2,-10 z"/></clipPath></defs><g clip-path="url(#clip147)" fill="#ffffff" fill-opacity="1" opacity="1" stroke="none" stroke-opacity="0" transform="matrix(1.21951,0,0,1.21951,2.43902,12.1951)"><path d="M0,0 L160,0 L160,80 L0,80 L0,0 z" fill-rule="evenodd" vector-effect="none"/></g><defs><clipPath id="clip151"><path d="M0,0 L160,0 L160,80 L0,80 L0,0 z"/></clipPath></defs><g clip-path="url(#clip151)" fill="none" opacity="1" stroke="none" stroke-opacity="0" transform="matrix(1.21951,0,0,1.21951,2.43902,12.1951)"><path d="M0,0 L160,0 L160,80 L0,80 L0,0 z" fill-rule="evenodd" vector-effect="none"/></g><defs><clipPath id="clip161"><path d="M1,1 L81,1 L81,161 L1,161 L1,1 z"/></clipPath></defs><g clip-path="url(#clip161)" fill="none" opacity="1" stroke="#a06c70" stroke-linecap="butt" stroke-linejoin="miter" stroke-miterlimit="20" stroke-opacity="1" stroke-width="3.6725" transform="matrix(2.24013e-16,1.21951,1.21951,-2.24013e-16,1.21951,10.9756)"><path d="M19,139.667 L19,129" fill-rule="nonzero" vector-effect="none"/></g><defs><clipPath id="clip162"><path d="M1,1 L81,1 L81,161 L1,161 L1,1 z"/></clipPath></defs><g clip-path="url(#clip162)" fill="none" opacity="1" stroke="#a06c70" stroke-linecap="butt" stroke-linejoin="miter" stroke-miterlimit="20" stroke-opacity="1" stroke-width="3.6725" transform="matrix(2.24013e-16,1.21951,1.21951,-2.24013e-16,1.21951,10.9756)"><path d="M15,132.556 L19,129" fill-rule="nonzero" vector-effect="none"/></g><defs><clipPath id="clip163"><path d="M1,1 L81,1 L81,161 L1,161 L1,1 z"/></clipPath></defs><g clip-path="url(#clip163)" fill="none" opacity="1" stroke="#a06c70" stroke-linecap="butt" stroke-linejoin="miter" stroke-miterlimit="20" stroke-opacity="1" stroke-width="3.6725" transform="matrix(2.24013e-16,1.21951,1.21951,-2.24013e-16,1.21951,10.9756)"><path d="M23,132.556 L19,129" fill-rule="nonzero" vector-effect="none"/></g><defs><clipPath id="clip164"><path d="M1,1 L81,1 L81,161 L1,161 L1,1 z"/></clipPath></defs><g clip-path="url(#clip164)" fill="none" opacity="1" stroke="#a06c70" stroke-linecap="butt" stroke-linejoin="miter" stroke-miterlimit="20" stroke-opacity="1" stroke-width="3.6725" transform="matrix(2.24013e-16,1.21951,1.21951,-2.24013e-16,1.21951,10.9756)"><path d="M31,139.667 L31,129" fill-rule="nonzero" vector-effect="none"/></g><defs><clipPath id="clip165"><path d="M1,1 L81,1 L81,161 L1,161 L1,1 z"/></clipPath></defs><g clip-path="url(#clip165)" fill="none" opacity="1" stroke="#a06c70" stroke-linecap="butt" stroke-linejoin="miter" stroke-miterlimit="20" stroke-opacity="1" stroke-width="3.6725" transform="matrix(2.24013e-16,1.21951,1.21951,-2.24013e-16,1.21951,10.9756)"><path d="M35,132.556 L31,129" fill-rule="nonzero" vector-effect="none"/></g><defs><clipPath id="clip166"><path d="M1,1 L81,1 L81,161 L1,161 L1,1 z"/></clipPath></defs><g clip-path="url(#clip166)" fill="none" opacity="1" stroke="#a06c70" stroke-linecap="butt" stroke-linejoin="miter" stroke-miterlimit="20" stroke-opacity="1" stroke-width="3.6725" transform="matrix(2.24013e-16,1.21951,1.21951,-2.24013e-16,1.21951,10.9756)"><path d="M27,132.556 L31,129" fill-rule="nonzero" vector-effect="none"/></g><defs><clipPath id="clip167"><path d="M1,1 L81,1 L81,161 L1,161 L1,1 z"/></clipPath></defs><g clip-path="url(#clip167)" fill="none" opacity="1" stroke="#a06c70" stroke-linecap="butt" stroke-linejoin="miter" stroke-miterlimit="20" stroke-opacity="1" stroke-width="3.6725" transform="matrix(2.24013e-16,1.21951,1.21951,-2.24013e-16,1.21951,10.9756)"><path d="M26,70.3333 L26,81" fill-rule="nonzero" vector-effect="none"/></g><defs><clipPath id="clip168"><path d="M1,1 L81,1 L81,161 L1,161 L1,1 z"/></clipPath></defs><g clip-path="url(#clip168)" fill="none" opacity="1" stroke="#a06c70" stroke-linecap="butt" stroke-linejoin="miter" stroke-miterlimit="20" stroke-opacity="1" stroke-width="3.6725" transform="matrix(2.24013e-16,1.21951,1.21951,-2.24013e-16,1.21951,10.9756)"><path d="M22,77.4444 L26,81" fill-rule="nonzero" vector-effect="none"/></g><defs><clipPath id="clip169"><path d="M1,1 L81,1 L81,161 L1,161 L1,1 z"/></clipPath></defs><g clip-path="url(#clip169)" fill="none" opacity="1" stroke="#a06c70" stroke-linecap="butt" stroke-linejoin="miter" stroke-miterlimit="20" stroke-opacity="1" stroke-width="3.6725" transform="matrix(2.24013e-16,1.21951,1.21951,-2.24013e-16,1.21951,10.9756)"><path d="M30,77.4444 L26,81" fill-rule="nonzero" vector-effect="none"/></g><defs><clipPath id="clip170"><path d="M1,1 L81,1 L81,161 L1,161 L1,1 z"/></clipPath></defs><g clip-path="url(#clip170)" fill="none" opacity="1" stroke="#a06c70" stroke-linecap="butt" stroke-linejoin="miter" stroke-miterlimit="20" stroke-opacity="1" stroke-width="3.6725" transform="matrix(2.24013e-16,1.21951,1.21951,-2.24013e-16,1.21951,10.9756)"><path d="M22,83.6667 L30,87.2222 L22,90.7778" fill-rule="nonzero" vector-effect="none"/></g><defs><clipPath id="clip171"><path d="M1,1 L81,1 L81,161 L1,161 L1,1 z"/></clipPath></defs><g clip-path="url(#clip171)" fill="none" opacity="1" stroke="#a06c70" stroke-linecap="butt" stroke-linejoin="miter" stroke-miterlimit="20" stroke-opacity="1" stroke-width="3.6725" transform="matrix(2.24013e-16,1.21951,1.21951,-2.24013e-16,1.21951,10.9756)"><path d="M54.9999,32.1111 L54.9999,23.2222" fill-rule="nonzero" vector-effect="none"/></g><defs><clipPath id="clip172"><path d="M1,1 L81,1 L81,161 L1,161 L1,1 z"/></clipPath></defs><g clip-path="url(#clip172)" fill="none" opacity="1" stroke="#a06c70" stroke-linecap="butt" stroke-linejoin="miter" stroke-miterlimit="20" stroke-opacity="1" stroke-width="3.6725" transform="matrix(2.24013e-16,1.21951,1.21951,-2.24013e-16,1.21951,10.9756)"><path d="M50,27.6667 L59.9999,27.6667" fill-rule="nonzero" vector-effect="none"/></g><defs><clipPath id="clip173"><path d="M1,1 L81,1 L81,161 L1,161 L1,1 z"/></clipPath></defs><g clip-path="url(#clip173)" fill="none" opacity="1" stroke="#a06c70" stroke-linecap="butt" stroke-linejoin="miter" stroke-miterlimit="20" stroke-opacity="1" stroke-width="3.6725" transform="matrix(2.24013e-16,1.21951,1.21951,-2.24013e-16,1.21951,10.9756)"><path d="M54.9999,85.4444 L54.9999,76.5555" fill-rule="nonzero" vector-effect="none"/></g><defs><clipPath id="clip174"><path d="M1,1 L81,1 L81,161 L1,161 L1,1 z"/></clipPath></defs><g clip-path="url(#clip174)" fill="none" opacity="1" stroke="#a06c70" stroke-linecap="butt" stroke-linejoin="miter" stroke-miterlimit="20" stroke-opacity="1" stroke-width="3.6725" transform="matrix(2.24013e-16,1.21951,1.21951,-2.24013e-16,1.21951,10.9756)"><path d="M50,81 L59.9999,81" fill-rule="nonzero" vector-effect="none"/></g><defs><clipPath id="clip175"><path d="M1,1 L81,1 L81,161 L1,161 L1,1 z"/></clipPath></defs><g clip-path="url(#clip175)" fill="none" opacity="1" stroke="#a06c70" stroke-linecap="butt" stroke-linejoin="miter" stroke-miterlimit="20" stroke-opacity="1" stroke-width="3.6725" transform="matrix(2.24013e-16,1.21951,1.21951,-2.24013e-16,1.21951,10.9756)"><path d="M78.9999,130.778 L78.9999,111.222 L60.9999,127.222" fill-rule="nonzero" vector-effect="none"/></g><defs><clipPath id="clip176"><path d="M1,1 L81,1 L81,161 L1,161 L1,1 z"/></clipPath></defs><g clip-path="url(#clip176)" fill="none" opacity="1" stroke="#a06c70" stroke-linecap="butt" stroke-linejoin="miter" stroke-miterlimit="4" stroke-opacity="1" stroke-width="3.6725" transform="matrix(2.24013e-16,1.21951,1.21951,-2.24013e-16,1.21951,10.9756)"><path d="M78.9999,120.111 C77.6814,120.288 76.3362,120.022 75.2266,119.364 C74.1173,118.707 73.3233,117.705 72.9999,116.556" fill-rule="nonzero" vector-effect="none"/></g><defs><clipPath id="clip177"><path d="M1,1 L81,1 L81,161 L1,161 L1,1 z"/></clipPath></defs><g clip-path="url(#clip177)" fill="none" opacity="1" stroke="#a06c70" stroke-linecap="butt" stroke-linejoin="miter" stroke-miterlimit="20" stroke-opacity="1" stroke-width="3.6725" transform="matrix(2.24013e-16,1.21951,1.21951,-2.24013e-16,1.21951,10.9756)"><path d="M11,13.4444 L64.9999,13.4444 L64.9999,95.2222 L11,95.2222 L11,13.4444 z" fill-rule="nonzero" vector-effect="none"/></g><defs><clipPath id="clip178"><path d="M1,1 L81,1 L81,161 L1,161 L1,1 z"/></clipPath></defs><g clip-path="url(#clip178)" fill="none" opacity="1" stroke="#a06c70" stroke-linecap="butt" stroke-linejoin="miter" stroke-miterlimit="4" stroke-opacity="1" stroke-width="3.6725" transform="matrix(2.24013e-16,1.21951,1.21951,-2.24013e-16,1.21951,10.9756)"><path d="M58.5999,27.6667 C58.5999,29.434 56.9882,30.8667 54.9999,30.8667 C53.0117,30.8667 51.4,29.434 51.4,27.6667 C51.4,25.8994 53.0117,24.4667 54.9999,24.4667 C56.9882,24.4667 58.5999,25.8994 58.5999,27.6667 z" fill-rule="nonzero" vector-effect="none"/></g><defs><clipPath id="clip179"><path d="M1,1 L81,1 L81,161 L1,161 L1,1 z"/></clipPath></defs><g clip-path="url(#clip179)" fill="none" opacity="1" stroke="#a06c70" stroke-linecap="butt" stroke-linejoin="miter" stroke-miterlimit="4" stroke-opacity="1" stroke-width="3.6725" transform="matrix(2.24013e-16,1.21951,1.21951,-2.24013e-16,1.21951,10.9756)"><path d="M58.5999,81 C58.5999,82.7673 56.9882,84.2 54.9999,84.2 C53.0117,84.2 51.4,82.7673 51.4,81 C51.4,79.2327 53.0117,77.8 54.9999,77.8 C56.9882,77.8 58.5999,79.2327 58.5999,81 z" fill-rule="nonzero" vector-effect="none"/></g><defs><clipPath id="clip180"><path d="M1,1 L81,1 L81,161 L1,161 L1,1 z"/></clipPath></defs><g clip-path="url(#clip180)" fill="none" opacity="1" stroke="#a06c70" stroke-linecap="butt" stroke-linejoin="miter" stroke-miterlimit="20" stroke-opacity="1" stroke-width="3.6725" transform="matrix(2.24013e-16,1.21951,1.21951,-2.24013e-16,1.21951,10.9756)"><path d="M1,1 L80.9999,1 L80.9999,161 L1,161 L1,1 z" fill-rule="nonzero" vector-effect="none"/></g><defs><clipPath id="clip181"><path d="M1,1 L81,1 L81,161 L1,161 L1,1 z"/></clipPath></defs><g clip-path="url(#clip181)" fill="none" opacity="1" stroke="#a06c70" stroke-linecap="butt" stroke-linejoin="miter" stroke-miterlimit="20" stroke-opacity="1" stroke-width="3.6725" transform="matrix(2.24013e-16,1.21951,1.21951,-2.24013e-16,1.21951,10.9756)"><path d="M38,27.6667 L54.9999,27.6667" fill-rule="nonzero" vector-effect="none"/></g><defs><clipPath id="clip182"><path d="M1,1 L81,1 L81,161 L1,161 L1,1 z"/></clipPath></defs><g clip-path="url(#clip182)" fill="none" opacity="1" stroke="#a06c70" stroke-linecap="butt" stroke-linejoin="miter" stroke-miterlimit="20" stroke-opacity="1" stroke-width="3.6725" transform="matrix(2.24013e-16,1.21951,1.21951,-2.24013e-16,1.21951,10.9756)"><path d="M54.9999,27.6667 L49,33" fill-rule="nonzero" vector-effect="none"/></g><defs><clipPath id="clip183"><path d="M1,1 L81,1 L81,161 L1,161 L1,1 z"/></clipPath></defs><g clip-path="url(#clip183)" fill="none" opacity="1" stroke="#a06c70" stroke-linecap="butt" stroke-linejoin="miter" stroke-miterlimit="20" stroke-opacity="1" stroke-width="3.6725" transform="matrix(2.24013e-16,1.21951,1.21951,-2.24013e-16,1.21951,10.9756)"><path d="M49,27.6667 L43,33" fill-rule="nonzero" vector-effect="none"/></g><defs><clipPath id="clip184"><path d="M1,1 L81,1 L81,161 L1,161 L1,1 z"/></clipPath></defs><g clip-path="url(#clip184)" fill="none" opacity="1" stroke="#a06c70" stroke-linecap="butt" stroke-linejoin="miter" stroke-miterlimit="20" stroke-opacity="1" stroke-width="3.6725" transform="matrix(2.24013e-16,1.21951,1.21951,-2.24013e-16,1.21951,10.9756)"><path d="M54.9999,27.6667 L49,22.3333" fill-rule="nonzero" vector-effect="none"/></g><defs><clipPath id="clip185"><path d="M1,1 L81,1 L81,161 L1,161 L1,1 z"/></clipPath></defs><g clip-path="url(#clip185)" fill="none" opacity="1" stroke="#a06c70" stroke-linecap="butt" stroke-linejoin="miter" stroke-miterlimit="20" stroke-opacity="1" stroke-width="3.6725" transform="matrix(2.24013e-16,1.21951,1.21951,-2.24013e-16,1.21951,10.9756)"><path d="M49,27.6667 L43,22.3333" fill-rule="nonzero" vector-effect="none"/></g><defs><clipPath id="clip186"><path d="M1,1 L81,1 L81,161 L1,161 L1,1 z"/></clipPath></defs><g clip-path="url(#clip186)" fill="none" opacity="1" stroke="#a06c70" stroke-linecap="butt" stroke-linejoin="miter" stroke-miterlimit="20" stroke-opacity="1" stroke-width="3.6725" transform="matrix(2.24013e-16,1.21951,1.21951,-2.24013e-16,1.21951,10.9756)"><path d="M38,81 L54.9999,81" fill-rule="nonzero" vector-effect="none"/></g><defs><clipPath id="clip187"><path d="M1,1 L81,1 L81,161 L1,161 L1,1 z"/></clipPath></defs><g clip-path="url(#clip187)" fill="none" opacity="1" stroke="#a06c70" stroke-linecap="butt" stroke-linejoin="miter" stroke-miterlimit="20" stroke-opacity="1" stroke-width="3.6725" transform="matrix(2.24013e-16,1.21951,1.21951,-2.24013e-16,1.21951,10.9756)"><path d="M54.9999,81 L49,86.3333" fill-rule="nonzero" vector-effect="none"/></g><defs><clipPath id="clip188"><path d="M1,1 L81,1 L81,161 L1,161 L1,1 z"/></clipPath></defs><g clip-path="url(#clip188)" fill="none" opacity="1" stroke="#a06c70" stroke-linecap="butt" stroke-linejoin="miter" stroke-miterlimit="20" stroke-opacity="1" stroke-width="3.6725" transform="matrix(2.24013e-16,1.21951,1.21951,-2.24013e-16,1.21951,10.9756)"><path d="M49,81 L43,86.3333" fill-rule="nonzero" vector-effect="none"/></g><defs><clipPath id="clip189"><path d="M1,1 L81,1 L81,161 L1,161 L1,1 z"/></clipPath></defs><g clip-path="url(#clip189)" fill="none" opacity="1" stroke="#a06c70" stroke-linecap="butt" stroke-linejoin="miter" stroke-miterlimit="20" stroke-opacity="1" stroke-width="3.6725" transform="matrix(2.24013e-16,1.21951,1.21951,-2.24013e-16,1.21951,10.9756)"><path d="M54.9999,81 L49,75.6667" fill-rule="nonzero" vector-effect="none"/></g><defs><clipPath id="clip190"><path d="M1,1 L81,1 L81,161 L1,161 L1,1 z"/></clipPath></defs><g clip-path="url(#clip190)" fill="none" opacity="1" stroke="#a06c70" stroke-linecap="butt" stroke-linejoin="miter" stroke-miterlimit="20" stroke-opacity="1" stroke-width="3.6725" transform="matrix(2.24013e-16,1.21951,1.21951,-2.24013e-16,1.21951,10.9756)"><path d="M49,81 L43,75.6667" fill-rule="nonzero" vector-effect="none"/></g><defs><clipPath id="clip191"><path d="M1,1 L81,1 L81,161 L1,161 L1,1 z"/></clipPath></defs><g clip-path="url(#clip191)" fill="none" opacity="1" stroke="#a06c70" stroke-linecap="butt" stroke-linejoin="miter" stroke-miterlimit="20" stroke-opacity="1" stroke-width="3.6725" transform="matrix(2.24013e-16,1.21951,1.21951,-2.24013e-16,1.21951,10.9756)"><path d="M18,57 L35,57" fill-rule="nonzero" vector-effect="none"/></g><defs><clipPath id="clip192"><path d="M9,9 L225,9 L225,495 L9,495 L9,9 z"/></clipPath></defs><g clip-path="url(#clip192)" fill="#a06c70" fill-opacity="1" opacity="1" stroke="none" stroke-opacity="0" transform="matrix(8.29678e-17,0.451671,0.401485,-7.37492e-17,-1.17434,8.13009)"><path d="M76.5,179.1 L98.1,179.1 L98.1,173.7 L95.4,165.6 L90,160.2 L81.9,157.5 L76.5,154.8 L76.5,179.1 z" fill-rule="nonzero" vector-effect="none"/></g><defs><clipPath id="clip193"><path d="M1,1 L81,1 L81,161 L1,161 L1,1 z"/></clipPath></defs><g clip-path="url(#clip193)" fill="none" opacity="1" stroke="#a06c70" stroke-linecap="butt" stroke-linejoin="miter" stroke-miterlimit="20" stroke-opacity="1" stroke-width="3.6725" transform="matrix(2.24013e-16,1.21951,1.21951,-2.24013e-16,1.21951,10.9756)"><path d="M26,57 L34,57 L34,55.2222 L33,52.5555 L31,50.7778 L28,49.8889 L26,49 L26,57 z" fill-rule="nonzero" vector-effect="none"/></g><defs><clipPath id="clip194"><path d="M9,9 L225,9 L225,495 L9,495 L9,9 z"/></clipPath></defs><g clip-path="url(#clip194)" fill="#a06c70" fill-opacity="1" opacity="1" stroke="none" stroke-opacity="0" transform="matrix(8.29678e-17,0.451671,0.401485,-7.37492e-17,-1.17434,8.13009)"><path d="M76.5,203.4 L68.4,200.7 L60.3,195.3 L54.9,187.2 L54.9,179.1 L76.5,179.1 L76.5,203.4 L73.8,203.4 L76.5,203.4 z" fill-rule="nonzero" vector-effect="none"/></g><defs><clipPath id="clip195"><path d="M1,1 L81,1 L81,161 L1,161 L1,1 z"/></clipPath></defs><g clip-path="url(#clip195)" fill="none" opacity="1" stroke="#a06c70" stroke-linecap="butt" stroke-linejoin="miter" stroke-miterlimit="20" stroke-opacity="1" stroke-width="3.6725" transform="matrix(2.24013e-16,1.21951,1.21951,-2.24013e-16,1.21951,10.9756)"><path d="M26,65 L23,64.1111 L20,62.3333 L18,59.6667 L18,57 L26,57 L26,65 L25,65 L26,65 z" fill-rule="nonzero" vector-effect="none"/></g><defs><clipPath id="clip196"><path d="M1,1 L81,1 L81,161 L1,161 L1,1 z"/></clipPath></defs><g clip-path="url(#clip196)" fill="none" opacity="1" stroke="#a06c70" stroke-linecap="butt" stroke-linejoin="miter" stroke-miterlimit="20" stroke-opacity="1" stroke-width="3.6725" transform="matrix(2.24013e-16,1.21951,1.21951,-2.24013e-16,1.21951,10.9756)"><path d="M26,49 L26,64.1111" fill-rule="nonzero" vector-effect="none"/></g><defs><clipPath id="clip197"><path d="M1,1 L81,1 L81,161 L1,161 L1,1 z"/></clipPath></defs><g clip-path="url(#clip197)" fill="none" opacity="1" stroke="#a06c70" stroke-linecap="butt" stroke-linejoin="miter" stroke-miterlimit="4" stroke-opacity="1" stroke-width="3.6725" transform="matrix(2.24013e-16,1.21951,1.21951,-2.24013e-16,1.21951,10.9756)"><path d="M34.6,57 C34.6,61.2219 30.7496,64.6444 26,64.6444 C21.2503,64.6444 17.4,61.2219 17.4,57 C17.4,52.7781 21.2503,49.3555 26,49.3555 C30.7496,49.3555 34.6,52.7781 34.6,57 z" fill-rule="nonzero" vector-effect="none"/></g><defs><clipPath id="clip198"><path d="M1,1 L81,1 L81,161 L1,161 L1,1 z"/></clipPath></defs><g clip-path="url(#clip198)" fill="none" opacity="1" stroke="#44805c" stroke-linecap="butt" stroke-linejoin="miter" stroke-miterlimit="20" stroke-opacity="1" stroke-width="3.6725" transform="matrix(2.24013e-16,1.21951,1.21951,-2.24013e-16,1.21951,10.9756)"><path d="M1,27.6667 L26,27.6667 L26,33.8889" fill-rule="nonzero" vector-effect="none"/></g><defs><clipPath id="clip199"><path d="M1,1 L81,1 L81,161 L1,161 L1,1 z"/></clipPath></defs><g clip-path="url(#clip199)" fill="none" opacity="1" stroke="#44805c" stroke-linecap="butt" stroke-linejoin="miter" stroke-miterlimit="20" stroke-opacity="1" stroke-width="3.6725" transform="matrix(2.24013e-16,1.21951,1.21951,-2.24013e-16,1.21951,10.9756)"><path d="M26,33.8889 L26,49" fill-rule="nonzero" vector-effect="none"/></g><defs><clipPath id="clip200"><path d="M1,1 L81,1 L81,161 L1,161 L1,1 z"/></clipPath></defs><g clip-path="url(#clip200)" fill="none" opacity="1" stroke="#44805c" stroke-linecap="butt" stroke-linejoin="miter" stroke-miterlimit="20" stroke-opacity="1" stroke-width="3.6725" transform="matrix(2.24013e-16,1.21951,1.21951,-2.24013e-16,1.21951,10.9756)"><path d="M26,49 L20,43.6667" fill-rule="nonzero" vector-effect="none"/></g><defs><clipPath id="clip201"><path d="M1,1 L81,1 L81,161 L1,161 L1,1 z"/></clipPath></defs><g clip-path="url(#clip201)" fill="none" opacity="1" stroke="#44805c" stroke-linecap="butt" stroke-linejoin="miter" stroke-miterlimit="20" stroke-opacity="1" stroke-width="3.6725" transform="matrix(2.24013e-16,1.21951,1.21951,-2.24013e-16,1.21951,10.9756)"><path d="M26,43.6667 L20,38.3333" fill-rule="nonzero" vector-effect="none"/></g><defs><clipPath id="clip202"><path d="M1,1 L81,1 L81,161 L1,161 L1,1 z"/></clipPath></defs><g clip-path="url(#clip202)" fill="none" opacity="1" stroke="#44805c" stroke-linecap="butt" stroke-linejoin="miter" stroke-miterlimit="20" stroke-opacity="1" stroke-width="3.6725" transform="matrix(2.24013e-16,1.21951,1.21951,-2.24013e-16,1.21951,10.9756)"><path d="M26,49 L32,43.6667" fill-rule="nonzero" vector-effect="none"/></g><defs><clipPath id="clip203"><path d="M1,1 L81,1 L81,161 L1,161 L1,1 z"/></clipPath></defs><g clip-path="url(#clip203)" fill="none" opacity="1" stroke="#44805c" stroke-linecap="butt" stroke-linejoin="miter" stroke-miterlimit="20" stroke-opacity="1" stroke-width="3.6725" transform="matrix(2.24013e-16,1.21951,1.21951,-2.24013e-16,1.21951,10.9756)"><path d="M26,43.6667 L32,38.3333" fill-rule="nonzero" vector-effect="none"/></g><defs><clipPath id="clip220"><path d="M-15,-691 L394,-691 L394,128 L-15,128 L-15,-691 z"/></clipPath></defs><g clip-path="url(#clip220)" fill="none" opacity="1" stroke="#e60000" stroke-linecap="square" stroke-linejoin="bevel" stroke-opacity="1" stroke-width="1" transform="matrix(0,-0.238186,0.238186,0,167.073,106.098)"><text fill="#e60000" fill-opacity="1" font-family="Liberation Sans" font-size="40" font-style="normal" font-weight="400" stroke="none" textLength="77" x="0" xml:space="preserve" y="17.9219">beta</text></g><defs><clipPath id="clip223"><path d="M-394,-691 L15,-691 L15,128 L-394,128 L-394,-691 z"/></clipPath></defs><g clip-path="url(#clip223)" fill="none" opacity="1" stroke="#e60000" stroke-linecap="square" stroke-linejoin="bevel" stroke-opacity="1" stroke-width="1" transform="matrix(0,-0.238186,0.238186,0,167.073,15.8537)"><text fill="#e60000" fill-opacity="1" font-family="Liberation Sans" font-size="40" font-style="normal" font-weight="400" stroke="none" textLength="40" x="-48.3125" xml:space="preserve" y="17.9219">W</text></g><defs><clipPath id="clip226"><path d="M-15,-410 L394,-410 L394,410 L-15,410 L-15,-410 z"/></clipPath></defs><g clip-path="url(#clip226)" fill="none" opacity="1" stroke="#e60000" stroke-linecap="square" stroke-linejoin="bevel" stroke-opacity="1" stroke-width="1" transform="matrix(0,-0.238186,0.238186,0,100,106.098)"><text fill="#e60000" fill-opacity="1" font-family="Liberation Sans" font-size="40" font-style="normal" font-weight="400" stroke="none" textLength="53" x="0" xml:space="preserve" y="17.9219">NF</text></g><defs><clipPath id="clip229"><path d="M-15,-128 L394,-128 L394,691 L-15,691 L-15,-128 z"/></clipPath></defs><g clip-path="url(#clip229)" fill="none" opacity="1" stroke="#e60000" stroke-linecap="square" stroke-linejoin="bevel" stroke-opacity="1" stroke-width="1" transform="matrix(0,-0.238186,0.238186,0,32.9268,106.098)"><text fill="#e60000" fill-opacity="1" font-family="Liberation Sans" font-size="40" font-style="normal" font-weight="400" stroke="none" textLength="58" x="0" xml:space="preserve" y="17.9219">NR</text></g><defs><clipPath id="clip232"><path d="M-394,-410 L15,-410 L15,410 L-394,410 L-394,-410 z"/></clipPath></defs><g clip-path="url(#clip232)" fill="none" opacity="1" stroke="#e60000" stroke-linecap="square" stroke-linejoin="bevel" stroke-opacity="1" stroke-width="1" transform="matrix(0,-0.238186,0.238186,0,100,15.8537)"><text fill="#e60000" fill-opacity="1" font-family="Liberation Sans" font-size="40" font-style="normal" font-weight="400" stroke="none" textLength="27" x="-34.125" xml:space="preserve" y="17.9219">V</text></g><defs><clipPath id="clip235"><path d="M-394,-128 L15,-128 L15,691 L-394,691 L-394,-128 z"/></clipPath></defs><g clip-path="url(#clip235)" fill="none" opacity="1" stroke="#e60000" stroke-linecap="square" stroke-linejoin="bevel" stroke-opacity="1" stroke-width="1" transform="matrix(0,-0.238186,0.238186,0,32.9268,15.8537)"><text fill="#e60000" fill-opacity="1" font-family="Liberation Sans" font-size="40" font-style="normal" font-weight="400" stroke="none" textLength="29" x="-36.9531" xml:space="preserve" y="17.9219">H</text></g><defs><clipPath id="clip241"><path d="M-2,-10 L162,-10 L162,90 L-2,90 L-2,-10 z"/></clipPath></defs><g clip-path="url(#clip241)" fill="none" opacity="1" stroke="none" stroke-opacity="0" transform="matrix(1.21951,0,0,1.21951,2.43902,12.1951)"><path d="M0,0 L160,0 L160,80 L0,80 L0,0 z" fill-rule="evenodd" vector-effect="none"/></g></g></svg>
