<?xml version="1.0" encoding="UTF-8"?><svg width="52.9167mm" height="42.3333mm" viewBox="0 0 200 160" xmlns="http://www.w3.org/2000/svg" xmlns:xlink="http://www.w3.org/1999/xlink"><g fill="none" stroke="black" stroke-width="1" fill-rule="evenodd" stroke-linecap="square" stroke-linejoin="bevel"><g clip-path="none" fill="none" opacity="1" stroke="none" stroke-opacity="0" transform="matrix(1,0,0,1,0,0)"><path d="M0,0 L200,0 L200,160 L0,160 L0,0 z" fill-rule="evenodd" vector-effect="none"/></g><defs><clipPath id="clip6"><path d="M0,0 L10,0 L10,10 L0,10 L0,0 z"/></clipPath></defs><g clip-path="url(#clip6)" fill="#b3b3b3" fill-opacity="1" opacity="1" stroke="none" stroke-opacity="0" transform="matrix(2.5,0,0,2.5,175,107.5)"><path d="M0.5,3.5 L3.5,3.5 L3.5,6.5 L0.5,6.5 L0.5,3.5 z" fill-rule="evenodd" vector-effect="none"/></g><defs><clipPath id="clip8"><path d="M0,0 L10,0 L10,10 L0,10 L0,0 z"/></clipPath></defs><g clip-path="url(#clip8)" fill="#000000" fill-opacity="1" opacity="1" stroke="none" stroke-opacity="0" transform="matrix(2.5,0,0,2.5,175,107.5)"><path d="M3,4 L3,6 L1,6 L1,4 L3,4 M4,3 L0,3 L0,7 L4,7 L4,3" fill-rule="nonzero" vector-effect="none"/></g><defs><clipPath id="clip28"><path d="M0,0 L10,0 L10,10 L0,10 L0,0 z"/></clipPath></defs><g clip-path="url(#clip28)" fill="#ffffff" fill-opacity="1" opacity="1" stroke="none" stroke-opacity="0" transform="matrix(2.5,0,0,2.5,175,32.5)"><path d="M0.5,0.809 L8.882,5 L0.5,9.191 L0.5,0.809 z" fill-rule="evenodd" vector-effect="none"/></g><defs><clipPath id="clip30"><path d="M0,0 L10,0 L10,10 L0,10 L0,0 z"/></clipPath></defs><g clip-path="url(#clip30)" fill="#000000" fill-opacity="1" opacity="1" stroke="none" stroke-opacity="0" transform="matrix(2.5,0,0,2.5,175,32.5)"><path d="M1,1.618 L7.764,5 L1,8.382 L1,1.618 M0,0 L0,10 L10,5 L0,0" fill-rule="nonzero" vector-effect="none"/></g><defs><clipPath id="clip52"><path d="M0,0 L10,0 L10,10 L0,10 L0,0 z"/></clipPath></defs><g clip-path="url(#clip52)" fill="#b3b3b3" fill-opacity="1" opacity="1" stroke="none" stroke-opacity="0" transform="matrix(-2.5,0,0,2.5,25,107.5)"><path d="M0.5,3.5 L3.5,3.5 L3.5,6.5 L0.5,6.5 L0.5,3.5 z" fill-rule="evenodd" vector-effect="none"/></g><defs><clipPath id="clip54"><path d="M0,0 L10,0 L10,10 L0,10 L0,0 z"/></clipPath></defs><g clip-path="url(#clip54)" fill="#000000" fill-opacity="1" opacity="1" stroke="none" stroke-opacity="0" transform="matrix(-2.5,0,0,2.5,25,107.5)"><path d="M3,4 L3,6 L1,6 L1,4 L3,4 M4,3 L0,3 L0,7 L4,7 L4,3" fill-rule="nonzero" vector-effect="none"/></g><defs><clipPath id="clip75"><path d="M0,0 L10,0 L10,10 L0,10 L0,0 z"/></clipPath></defs><g clip-path="url(#clip75)" fill="#ffffff" fill-opacity="1" opacity="1" stroke="none" stroke-opacity="0" transform="matrix(2.5,0,0,2.5,0,32.5)"><path d="M8.882,5 L0.5,9.191 L0.5,0.809 L8.882,5 z" fill-rule="evenodd" vector-effect="none"/></g><defs><clipPath id="clip77"><path d="M0,0 L10,0 L10,10 L0,10 L0,0 z"/></clipPath></defs><g clip-path="url(#clip77)" fill="#000000" fill-opacity="1" opacity="1" stroke="none" stroke-opacity="0" transform="matrix(2.5,0,0,2.5,0,32.5)"><path d="M1,1.618 L7.764,5 L1,8.382 L1,1.618 M0,0 L0,10 L10,5 L0,0" fill-rule="nonzero" vector-effect="none"/></g><defs><clipPath id="clip96"><path d="M-10,-2 L70,-2 L70,62 L-10,62 L-10,-2 z"/></clipPath></defs><g clip-path="url(#clip96)" fill="#ffffff" fill-opacity="1" opacity="1" stroke="none" stroke-opacity="0" transform="matrix(2.5,0,0,2.5,25,5)"><path d="M0,0 L60,0 L60,60 L0,60 L0,0 z" fill-rule="evenodd" vector-effect="none"/></g><defs><clipPath id="clip100"><path d="M0,0 L60,0 L60,60 L0,60 L0,0 z"/></clipPath></defs><g clip-path="url(#clip100)" fill="none" opacity="1" stroke="none" stroke-opacity="0" transform="matrix(2.5,0,0,2.5,25,5)"><path d="M0,0 L60,0 L60,60 L0,60 L0,0 z" fill-rule="evenodd" vector-effect="none"/></g><defs><clipPath id="clip110"><path d="M1,1 L61,1 L61,61 L1,61 L1,1 z"/></clipPath></defs><g clip-path="url(#clip110)" fill="none" opacity="1" stroke="#44805c" stroke-linecap="butt" stroke-linejoin="miter" stroke-miterlimit="20" stroke-opacity="1" stroke-width="1.9825" transform="matrix(2.5,0,0,2.5,22.5,2.5)"><path d="M8.12501,28.375 C8.12501,28.375 8.12545,28.3741 8.13252,28.3589 C8.13958,28.3438 8.15316,28.3146 8.17485,28.2682 C8.19653,28.2218 8.22623,28.1585 8.26235,28.0818 C8.29848,28.0052 8.34092,27.9153 8.38634,27.8199 C8.43174,27.7246 8.48002,27.624 8.52741,27.5267 C8.5748,27.4293 8.6212,27.3356 8.66388,27.2517 C8.70656,27.1678 8.74544,27.0942 8.78015,27.0321 C8.81485,26.9702 8.84531,26.92 8.87501,26.875 C8.90469,26.83 8.93381,26.7897 8.96095,26.7547 C8.98809,26.7197 9.01334,26.6896 9.03688,26.6631 C9.06042,26.6365 9.08231,26.6132 9.10344,26.5917 C9.12455,26.57 9.14488,26.55 9.16563,26.5302 C9.18638,26.5104 9.20752,26.4907 9.23063,26.4697 C9.25375,26.4488 9.27885,26.4267 9.30807,26.402 C9.33728,26.3772 9.3707,26.3499 9.41055,26.3192 C9.45038,26.2884 9.49688,26.2539 9.55001,26.2167 C9.60313,26.1795 9.66267,26.1397 9.72683,26.097 C9.79098,26.0542 9.85958,26.0084 9.93048,25.9606 C10.0014,25.9128 10.0746,25.8629 10.1489,25.8122 C10.2232,25.7614 10.2986,25.7097 10.375,25.6579 C10.4514,25.6063 10.5287,25.5545 10.6079,25.5035 C10.687,25.4527 10.7679,25.4025 10.8524,25.3543 C10.9369,25.306 11.0251,25.2596 11.1197,25.2159 C11.2144,25.172 11.3156,25.1307 11.425,25.0917 C11.5344,25.0527 11.6521,25.0157 11.779,24.9813 C11.906,24.9468 12.0417,24.9149 12.1836,24.8847 C12.3254,24.8545 12.4731,24.826 12.6237,24.7982 C12.7742,24.7704 12.9276,24.7436 13.0813,24.7167 C13.2349,24.6897 13.3888,24.6629 13.5407,24.6352 C13.6926,24.6074 13.8425,24.5789 13.9881,24.5486 C14.1336,24.5185 14.2749,24.4865 14.4103,24.4521 C14.5457,24.4177 14.675,24.3807 14.8,24.3417 C14.925,24.3027 15.0457,24.2615 15.1608,24.2195 C15.276,24.1774 15.3858,24.1342 15.4917,24.0907 C15.5975,24.0472 15.6996,24.0032 15.7997,23.9592 C15.9,23.915 15.9983,23.8707 16.0968,23.826 C16.1954,23.7814 16.294,23.7363 16.3949,23.6902 C16.4958,23.644 16.5989,23.597 16.7067,23.5477 C16.8145,23.4985 16.927,23.4472 17.0463,23.3924 C17.1657,23.3377 17.2922,23.2792 17.425,23.2167 C17.5578,23.1542 17.6968,23.0871 17.8414,23.0115 C17.986,22.936 18.1361,22.8522 18.2896,22.7618 C18.4431,22.6714 18.6,22.5746 18.7583,22.4746 C18.9168,22.3747 19.077,22.2718 19.2375,22.1697 C19.3981,22.0678 19.5592,21.9667 19.7203,21.8715 C19.8815,21.7763 20.0425,21.687 20.2036,21.6097 C20.3647,21.5327 20.5257,21.4679 20.6872,21.422 C20.8488,21.376 21.011,21.3495 21.175,21.3417 C21.339,21.3339 21.5052,21.345 21.6734,21.3786 C21.8415,21.4122 22.0117,21.4672 22.1832,21.5375 C22.3546,21.6078 22.5274,21.6929 22.7006,21.7852 C22.8739,21.8774 23.0478,21.9767 23.222,22.0761 C23.396,22.1754 23.5702,22.275 23.744,22.3679 C23.9181,22.4607 24.0918,22.547 24.2652,22.619 C24.4385,22.6913 24.6114,22.7492 24.7838,22.787 C24.9563,22.8247 25.1281,22.8417 25.3,22.8417 C25.4718,22.8417 25.6439,22.825 25.8174,22.7904 C25.9909,22.7559 26.1659,22.704 26.3421,22.6407 C26.5184,22.5772 26.6959,22.5024 26.874,22.4222 C27.0522,22.342 27.231,22.2561 27.4093,22.1697 C27.5878,22.0835 27.7657,21.9964 27.942,21.9128 C28.1181,21.8292 28.2925,21.749 28.4631,21.6761 C28.6336,21.6032 28.8003,21.5378 28.9611,21.4821 C29.122,21.4264 29.2766,21.3807 29.425,21.3417 C29.5735,21.3027 29.7156,21.2695 29.8511,21.2402 C29.9867,21.2107 30.1159,21.1849 30.2407,21.1607 C30.3656,21.1364 30.4861,21.1139 30.6047,21.092 C30.7234,21.0702 30.8399,21.0492 30.9563,21.0292 C31.0727,21.0092 31.1886,20.9903 31.3059,20.9738 C31.4232,20.9574 31.5417,20.9432 31.6627,20.9342 C31.7838,20.9252 31.9074,20.9211 32.0345,20.9256 C32.1616,20.93 32.2922,20.9432 32.425,20.9667 C32.5578,20.9902 32.6927,21.0242 32.8291,21.0721 C32.9654,21.1199 33.1034,21.1809 33.2421,21.2514 C33.3809,21.322 33.5204,21.4018 33.6603,21.4861 C33.8003,21.5706 33.9406,21.6595 34.0813,21.7479 C34.2218,21.8365 34.3628,21.9247 34.5041,22.0078 C34.6454,22.0909 34.7871,22.1686 34.9296,22.2354 C35.0721,22.3021 35.2154,22.3577 35.3603,22.397 C35.5052,22.4363 35.6516,22.4589 35.8,22.4667 C35.9485,22.4745 36.0988,22.4679 36.2498,22.4474 C36.4007,22.427 36.5523,22.3931 36.7036,22.3507 C36.855,22.3084 37.0066,22.2575 37.1578,22.2028 C37.3092,22.1479 37.4606,22.089 37.6125,22.0292 C37.7645,21.9693 37.9168,21.9084 38.0709,21.8482 C38.225,21.7881 38.3806,21.7286 38.5396,21.6711 C38.6986,21.6136 38.861,21.5579 39.0289,21.5036 C39.1968,21.4493 39.3703,21.3964 39.55,21.3417 C39.7298,21.287 39.9159,21.2297 40.1111,21.1661 C40.3064,21.1025 40.5105,21.0327 40.721,20.9574 C40.9317,20.8822 41.1486,20.8018 41.3686,20.719 C41.5886,20.6361 41.8117,20.5509 42.0343,20.4667 C42.2571,20.3825 42.4793,20.2993 42.6974,20.2218 C42.9154,20.1443 43.1292,20.0725 43.3341,20.0124 C43.5389,19.9524 43.7349,19.9043 43.9174,19.8745 C44.1,19.8447 44.2688,19.8339 44.425,19.8417 C44.5813,19.8495 44.725,19.8757 44.8553,19.9181 C44.9857,19.9603 45.1032,20.0182 45.212,20.0854 C45.3207,20.1528 45.421,20.2293 45.5171,20.3104 C45.6132,20.3914 45.7053,20.477 45.7968,20.5643 C45.8885,20.6515 45.9795,20.7407 46.0732,20.831 C46.1668,20.9213 46.263,21.0125 46.3645,21.1057 C46.4661,21.199 46.5732,21.2945 46.6875,21.395 C46.8017,21.4956 46.9235,21.6014 47.05,21.7167 C47.1766,21.832 47.3078,21.9572 47.4452,22.0942 C47.5825,22.231 47.7257,22.379 47.8732,22.5349 C48.0207,22.6907 48.1723,22.8543 48.326,23.0214 C48.4796,23.1885 48.6352,23.3593 48.7906,23.5303 C48.9462,23.7011 49.1014,23.8722 49.2545,24.04 C49.4074,24.2078 49.558,24.3724 49.7035,24.53 C49.8491,24.6878 49.9896,24.8386 50.1227,24.9797 C50.2559,25.1209 50.3813,25.252 50.5,25.375 C50.6188,25.4981 50.7324,25.6149 50.8517,25.7365 C50.9712,25.8582 51.0962,25.9845 51.2274,26.116 C51.3585,26.2477 51.4956,26.3845 51.6325,26.5206 C51.7695,26.6568 51.9059,26.792 52.0328,26.9177 C52.1598,27.0432 52.277,27.1589 52.3762,27.2567 C52.4753,27.3546 52.5562,27.4342 52.6152,27.4922 C52.6741,27.5503 52.7107,27.5864 52.7298,27.6052 C52.7488,27.6239 52.75,27.625 52.75,27.625" fill-rule="nonzero" vector-effect="none"/></g><defs><clipPath id="clip111"><path d="M1,1 L61,1 L61,61 L1,61 L1,1 z"/></clipPath></defs><g clip-path="url(#clip111)" fill="none" opacity="1" stroke="#44805c" stroke-linecap="butt" stroke-linejoin="miter" stroke-miterlimit="4" stroke-opacity="1" stroke-width="1.9825" transform="matrix(2.5,0,0,2.5,22.5,2.5)"><path d="M48.4084,23.0417 C43.708,27.3402 37.6532,29.8611 31.2911,30.1685 C24.929,30.4759 18.6596,28.5504 13.5667,24.725" fill-rule="nonzero" vector-effect="none"/></g><defs><clipPath id="clip112"><path d="M1,1 L61,1 L61,61 L1,61 L1,1 z"/></clipPath></defs><g clip-path="url(#clip112)" fill="none" opacity="1" stroke="#44805c" stroke-linecap="butt" stroke-linejoin="miter" stroke-miterlimit="4" stroke-opacity="1" stroke-width="1.9825" transform="matrix(2.5,0,0,2.5,22.5,2.5)"><path d="M47.25,21.8834 C42.9802,25.8384 37.4898,28.2199 31.6845,28.635 C25.8792,29.05 20.1058,27.4739 15.3167,24.1667" fill-rule="nonzero" vector-effect="none"/></g><defs><clipPath id="clip113"><path d="M1,1 L61,1 L61,61 L1,61 L1,1 z"/></clipPath></defs><g clip-path="url(#clip113)" fill="none" opacity="1" stroke="#44805c" stroke-linecap="butt" stroke-linejoin="miter" stroke-miterlimit="4" stroke-opacity="1" stroke-width="1.9825" transform="matrix(2.5,0,0,2.5,22.5,2.5)"><path d="M51.25,26.125 C45.6802,31.7525 38.1317,34.9809 30.2152,35.1209 C22.2985,35.261 14.6406,32.302 8.87501,26.875" fill-rule="nonzero" vector-effect="none"/></g><defs><clipPath id="clip114"><path d="M1,1 L61,1 L61,61 L1,61 L1,1 z"/></clipPath></defs><g clip-path="url(#clip114)" fill="none" opacity="1" stroke="#44805c" stroke-linecap="butt" stroke-linejoin="miter" stroke-miterlimit="4" stroke-opacity="1" stroke-width="1.9825" transform="matrix(2.5,0,0,2.5,22.5,2.5)"><path d="M52,26.875 C46.2189,32.5767 38.4454,35.8043 30.326,35.8743 C22.2065,35.9443 14.3786,32.8513 8.50001,27.25" fill-rule="nonzero" vector-effect="none"/></g><defs><clipPath id="clip115"><path d="M1,1 L61,1 L61,61 L1,61 L1,1 z"/></clipPath></defs><g clip-path="url(#clip115)" fill="none" opacity="1" stroke="#44805c" stroke-linecap="butt" stroke-linejoin="miter" stroke-miterlimit="4" stroke-opacity="1" stroke-width="1.9825" transform="matrix(2.5,0,0,2.5,22.5,2.5)"><path d="M52.75,27.625 C46.853,33.4974 38.9098,36.8561 30.5888,36.996 C22.2677,37.1359 14.2161,34.0459 8.12501,28.375" fill-rule="nonzero" vector-effect="none"/></g><defs><clipPath id="clip116"><path d="M1,1 L61,1 L61,61 L1,61 L1,1 z"/></clipPath></defs><g clip-path="url(#clip116)" fill="none" opacity="1" stroke="#44805c" stroke-linecap="butt" stroke-linejoin="miter" stroke-miterlimit="4" stroke-opacity="1" stroke-width="1.9825" transform="matrix(2.5,0,0,2.5,22.5,2.5)"><path d="M52.375,27.25 C46.5523,33.1181 38.6681,36.4804 30.4025,36.6204 C22.137,36.7606 14.1433,33.6674 8.12501,28" fill-rule="nonzero" vector-effect="none"/></g><defs><clipPath id="clip117"><path d="M1,1 L61,1 L61,61 L1,61 L1,1 z"/></clipPath></defs><g clip-path="url(#clip117)" fill="none" opacity="1" stroke="#44805c" stroke-linecap="butt" stroke-linejoin="miter" stroke-miterlimit="20" stroke-opacity="1" stroke-width="1.9825" transform="matrix(2.5,0,0,2.5,22.5,2.5)"><path d="M9.62501,37 L50.5,37 L50.5,40.75 L9.62501,40.75 L9.62501,37 z" fill-rule="nonzero" vector-effect="none"/></g><defs><clipPath id="clip118"><path d="M1,1 L61,1 L61,61 L1,61 L1,1 z"/></clipPath></defs><g clip-path="url(#clip118)" fill="none" opacity="1" stroke="#44805c" stroke-linecap="butt" stroke-linejoin="miter" stroke-miterlimit="20" stroke-opacity="1" stroke-width="1.9825" transform="matrix(2.5,0,0,2.5,22.5,2.5)"><path d="M1,1 L61,1 L61,61 L1,61 L1,1 z" fill-rule="nonzero" vector-effect="none"/></g><defs><clipPath id="clip135"><path d="M-292,-230 L15,-230 L15,77 L-292,77 L-292,-230 z"/></clipPath></defs><g clip-path="url(#clip135)" fill="none" opacity="1" stroke="#e60000" stroke-linecap="square" stroke-linejoin="bevel" stroke-opacity="1" stroke-width="1" transform="matrix(0.488281,0,0,0.488281,167.5,117.5)"><text fill="#e60000" fill-opacity="1" font-family="Liberation Sans" font-size="40" font-style="normal" font-weight="400" stroke="none" textLength="29" x="-36.9531" xml:space="preserve" y="17.9219">H</text></g><defs><clipPath id="clip138"><path d="M-292,-77 L15,-77 L15,230 L-292,230 L-292,-77 z"/></clipPath></defs><g clip-path="url(#clip138)" fill="none" opacity="1" stroke="#e60000" stroke-linecap="square" stroke-linejoin="bevel" stroke-opacity="1" stroke-width="1" transform="matrix(0.488281,0,0,0.488281,167.5,42.5)"><text fill="#e60000" fill-opacity="1" font-family="Liberation Sans" font-size="40" font-style="normal" font-weight="400" stroke="none" textLength="27" x="-34.125" xml:space="preserve" y="17.9219">S</text></g><defs><clipPath id="clip141"><path d="M-15,-230 L292,-230 L292,77 L-15,77 L-15,-230 z"/></clipPath></defs><g clip-path="url(#clip141)" fill="none" opacity="1" stroke="#e60000" stroke-linecap="square" stroke-linejoin="bevel" stroke-opacity="1" stroke-width="1" transform="matrix(0.488281,0,0,0.488281,32.5,117.5)"><text fill="#e60000" fill-opacity="1" font-family="Liberation Sans" font-size="40" font-style="normal" font-weight="400" stroke="none" textLength="24" x="0" xml:space="preserve" y="17.9219">T</text></g><defs><clipPath id="clip144"><path d="M-15,-77 L292,-77 L292,230 L-15,230 L-15,-77 z"/></clipPath></defs><g clip-path="url(#clip144)" fill="none" opacity="1" stroke="#e60000" stroke-linecap="square" stroke-linejoin="bevel" stroke-opacity="1" stroke-width="1" transform="matrix(0.488281,0,0,0.488281,32.5,42.5)"><text fill="#e60000" fill-opacity="1" font-family="Liberation Sans" font-size="40" font-style="normal" font-weight="400" stroke="none" textLength="29" x="0" xml:space="preserve" y="17.9219">N</text></g><defs><clipPath id="clip150"><path d="M-10,-2 L70,-2 L70,62 L-10,62 L-10,-2 z"/></clipPath></defs><g clip-path="url(#clip150)" fill="none" opacity="1" stroke="none" stroke-opacity="0" transform="matrix(2.5,0,0,2.5,25,5)"><path d="M0,0 L60,0 L60,60 L0,60 L0,0 z" fill-rule="evenodd" vector-effect="none"/></g></g></svg>
