<?xml version="1.0" encoding="UTF-8"?><svg width="52.9167mm" height="29.1042mm" viewBox="0 0 200 110" xmlns="http://www.w3.org/2000/svg" xmlns:xlink="http://www.w3.org/1999/xlink"><g fill="none" stroke="black" stroke-width="1" fill-rule="evenodd" stroke-linecap="square" stroke-linejoin="bevel"><g clip-path="none" fill="none" opacity="1" stroke="none" stroke-opacity="0" transform="matrix(1,0,0,1,0,0)"><path d="M0,0 L200,0 L200,110 L0,110 L0,0 z" fill-rule="evenodd" vector-effect="none"/></g><defs><clipPath id="clip6"><path d="M0,0 L10,0 L10,10 L0,10 L0,0 z"/></clipPath></defs><g clip-path="url(#clip6)" fill="#b3b3b3" fill-opacity="1" opacity="1" stroke="none" stroke-opacity="0" transform="matrix(2.5,0,0,2.5,175,70)"><path d="M0.5,3.5 L3.5,3.5 L3.5,6.5 L0.5,6.5 L0.5,3.5 z" fill-rule="evenodd" vector-effect="none"/></g><defs><clipPath id="clip8"><path d="M0,0 L10,0 L10,10 L0,10 L0,0 z"/></clipPath></defs><g clip-path="url(#clip8)" fill="#000000" fill-opacity="1" opacity="1" stroke="none" stroke-opacity="0" transform="matrix(2.5,0,0,2.5,175,70)"><path d="M3,4 L3,6 L1,6 L1,4 L3,4 M4,3 L0,3 L0,7 L4,7 L4,3" fill-rule="nonzero" vector-effect="none"/></g><defs><clipPath id="clip28"><path d="M0,0 L10,0 L10,10 L0,10 L0,0 z"/></clipPath></defs><g clip-path="url(#clip28)" fill="#b3b3b3" fill-opacity="1" opacity="1" stroke="none" stroke-opacity="0" transform="matrix(2.5,0,0,2.5,175,20)"><path d="M0.5,3.5 L3.5,3.5 L3.5,6.5 L0.5,6.5 L0.5,3.5 z" fill-rule="evenodd" vector-effect="none"/></g><defs><clipPath id="clip30"><path d="M0,0 L10,0 L10,10 L0,10 L0,0 z"/></clipPath></defs><g clip-path="url(#clip30)" fill="#000000" fill-opacity="1" opacity="1" stroke="none" stroke-opacity="0" transform="matrix(2.5,0,0,2.5,175,20)"><path d="M3,4 L3,6 L1,6 L1,4 L3,4 M4,3 L0,3 L0,7 L4,7 L4,3" fill-rule="nonzero" vector-effect="none"/></g><defs><clipPath id="clip50"><path d="M0,0 L10,0 L10,10 L0,10 L0,0 z"/></clipPath></defs><g clip-path="url(#clip50)" fill="#b3b3b3" fill-opacity="1" opacity="1" stroke="none" stroke-opacity="0" transform="matrix(-2.5,0,0,2.5,25,70)"><path d="M0.5,3.5 L3.5,3.5 L3.5,6.5 L0.5,6.5 L0.5,3.5 z" fill-rule="evenodd" vector-effect="none"/></g><defs><clipPath id="clip52"><path d="M0,0 L10,0 L10,10 L0,10 L0,0 z"/></clipPath></defs><g clip-path="url(#clip52)" fill="#000000" fill-opacity="1" opacity="1" stroke="none" stroke-opacity="0" transform="matrix(-2.5,0,0,2.5,25,70)"><path d="M3,4 L3,6 L1,6 L1,4 L3,4 M4,3 L0,3 L0,7 L4,7 L4,3" fill-rule="nonzero" vector-effect="none"/></g><defs><clipPath id="clip72"><path d="M0,0 L10,0 L10,10 L0,10 L0,0 z"/></clipPath></defs><g clip-path="url(#clip72)" fill="#b3b3b3" fill-opacity="1" opacity="1" stroke="none" stroke-opacity="0" transform="matrix(-2.5,0,0,2.5,25,20)"><path d="M0.5,3.5 L3.5,3.5 L3.5,6.5 L0.5,6.5 L0.5,3.5 z" fill-rule="evenodd" vector-effect="none"/></g><defs><clipPath id="clip74"><path d="M0,0 L10,0 L10,10 L0,10 L0,0 z"/></clipPath></defs><g clip-path="url(#clip74)" fill="#000000" fill-opacity="1" opacity="1" stroke="none" stroke-opacity="0" transform="matrix(-2.5,0,0,2.5,25,20)"><path d="M3,4 L3,6 L1,6 L1,4 L3,4 M4,3 L0,3 L0,7 L4,7 L4,3" fill-rule="nonzero" vector-effect="none"/></g><defs><clipPath id="clip91"><path d="M-10,-2 L70,-2 L70,42 L-10,42 L-10,-2 z"/></clipPath></defs><g clip-path="url(#clip91)" fill="#ffffff" fill-opacity="1" opacity="1" stroke="none" stroke-opacity="0" transform="matrix(2.5,0,0,2.5,25,5)"><path d="M0,0 L60,0 L60,40 L0,40 L0,0 z" fill-rule="evenodd" vector-effect="none"/></g><defs><clipPath id="clip95"><path d="M0,0 L60,0 L60,40 L0,40 L0,0 z"/></clipPath></defs><g clip-path="url(#clip95)" fill="none" opacity="1" stroke="none" stroke-opacity="0" transform="matrix(2.5,0,0,2.5,25,5)"><path d="M0,0 L60,0 L60,40 L0,40 L0,0 z" fill-rule="evenodd" vector-effect="none"/></g><defs><clipPath id="clip105"><path d="M1,1 L61,1 L61,41 L1,41 L1,1 z"/></clipPath></defs><g clip-path="url(#clip105)" fill="none" opacity="1" stroke="#3369c9" stroke-linecap="butt" stroke-linejoin="miter" stroke-miterlimit="20" stroke-opacity="1" stroke-width="1.3325" transform="matrix(2.5,0,0,2.5,22.5,2.5)"><path d="M1.00001,1.00001 L61.0002,1.00001 L61.0002,41.0002 L1.00001,41.0002 L1.00001,1.00001 z" fill-rule="nonzero" vector-effect="none"/></g><defs><clipPath id="clip106"><path d="M1,1 L61,1 L61,41 L1,41 L1,1 z"/></clipPath></defs><g clip-path="url(#clip106)" fill="none" opacity="1" stroke="#3369c9" stroke-linecap="butt" stroke-linejoin="miter" stroke-miterlimit="20" stroke-opacity="1" stroke-width="1.3325" transform="matrix(2.5,0,0,2.5,22.5,2.5)"><path d="M15.1819,16.0001 L20.6364,16.0001 L20.6364,26.0001 L37.0001,26.0001 L37.0001,16.0001 L42.4547,16.0001 L42.4547,26.0001 L50.0911,26.0001" fill-rule="nonzero" vector-effect="none"/></g><defs><clipPath id="clip123"><path d="M-292,-154 L15,-154 L15,51 L-292,51 L-292,-154 z"/></clipPath></defs><g clip-path="url(#clip123)" fill="none" opacity="1" stroke="#e60000" stroke-linecap="square" stroke-linejoin="bevel" stroke-opacity="1" stroke-width="1" transform="matrix(0.488281,0,0,0.488281,167.5,80)"><text fill="#e60000" fill-opacity="1" font-family="Liberation Sans" font-size="40" font-style="normal" font-weight="400" stroke="none" textLength="80" x="-102.359" xml:space="preserve" y="17.9219">REF</text></g><defs><clipPath id="clip126"><path d="M-292,-51 L15,-51 L15,154 L-292,154 L-292,-51 z"/></clipPath></defs><g clip-path="url(#clip126)" fill="none" opacity="1" stroke="#e60000" stroke-linecap="square" stroke-linejoin="bevel" stroke-opacity="1" stroke-width="1" transform="matrix(0.488281,0,0,0.488281,167.5,30)"><text fill="#e60000" fill-opacity="1" font-family="Liberation Sans" font-size="40" font-style="normal" font-weight="400" stroke="none" textLength="100" x="-125.094" xml:space="preserve" y="17.9219">PWM</text></g><defs><clipPath id="clip129"><path d="M-15,-154 L292,-154 L292,51 L-15,51 L-15,-154 z"/></clipPath></defs><g clip-path="url(#clip129)" fill="none" opacity="1" stroke="#e60000" stroke-linecap="square" stroke-linejoin="bevel" stroke-opacity="1" stroke-width="1" transform="matrix(0.488281,0,0,0.488281,32.5,80)"><text fill="#e60000" fill-opacity="1" font-family="Liberation Sans" font-size="40" font-style="normal" font-weight="400" stroke="none" textLength="60" x="0" xml:space="preserve" y="17.9219">-ref</text></g><defs><clipPath id="clip132"><path d="M-15,-51 L292,-51 L292,154 L-15,154 L-15,-51 z"/></clipPath></defs><g clip-path="url(#clip132)" fill="none" opacity="1" stroke="#e60000" stroke-linecap="square" stroke-linejoin="bevel" stroke-opacity="1" stroke-width="1" transform="matrix(0.488281,0,0,0.488281,32.5,30)"><text fill="#e60000" fill-opacity="1" font-family="Liberation Sans" font-size="40" font-style="normal" font-weight="400" stroke="none" textLength="70" x="0" xml:space="preserve" y="17.9219">+ref</text></g><defs><clipPath id="clip138"><path d="M-10,-2 L70,-2 L70,42 L-10,42 L-10,-2 z"/></clipPath></defs><g clip-path="url(#clip138)" fill="none" opacity="1" stroke="none" stroke-opacity="0" transform="matrix(2.5,0,0,2.5,25,5)"><path d="M0,0 L60,0 L60,40 L0,40 L0,0 z" fill-rule="evenodd" vector-effect="none"/></g></g></svg>
