<?xml version="1.0" encoding="UTF-8"?><svg width="52.9167mm" height="31.2208mm" viewBox="0 0 200 118" xmlns="http://www.w3.org/2000/svg" xmlns:xlink="http://www.w3.org/1999/xlink"><g fill="none" stroke="black" stroke-width="1" fill-rule="evenodd" stroke-linecap="square" stroke-linejoin="bevel"><g clip-path="none" fill="none" opacity="1" stroke="none" stroke-opacity="0" transform="matrix(1,0,0,1,0,0)"><path d="M0,0 L200,0 L200,118 L0,118 L0,0 z" fill-rule="evenodd" vector-effect="none"/></g><defs><clipPath id="clip6"><path d="M0,0 L10,0 L10,10 L0,10 L0,0 z"/></clipPath></defs><g clip-path="url(#clip6)" fill="#b3b3b3" fill-opacity="1" opacity="1" stroke="none" stroke-opacity="0" transform="matrix(-2,0,0,2,20,96)"><path d="M0.5,3.5 L3.5,3.5 L3.5,6.5 L0.5,6.5 L0.5,3.5 z" fill-rule="evenodd" vector-effect="none"/></g><defs><clipPath id="clip8"><path d="M0,0 L10,0 L10,10 L0,10 L0,0 z"/></clipPath></defs><g clip-path="url(#clip8)" fill="#000000" fill-opacity="1" opacity="1" stroke="none" stroke-opacity="0" transform="matrix(-2,0,0,2,20,96)"><path d="M3,4 L3,6 L1,6 L1,4 L3,4 M4,3 L0,3 L0,7 L4,7 L4,3" fill-rule="nonzero" vector-effect="none"/></g><defs><clipPath id="clip28"><path d="M0,0 L10,0 L10,10 L0,10 L0,0 z"/></clipPath></defs><g clip-path="url(#clip28)" fill="#b3b3b3" fill-opacity="1" opacity="1" stroke="none" stroke-opacity="0" transform="matrix(2,0,0,2,180,76)"><path d="M0.5,3.5 L3.5,3.5 L3.5,6.5 L0.5,6.5 L0.5,3.5 z" fill-rule="evenodd" vector-effect="none"/></g><defs><clipPath id="clip30"><path d="M0,0 L10,0 L10,10 L0,10 L0,0 z"/></clipPath></defs><g clip-path="url(#clip30)" fill="#000000" fill-opacity="1" opacity="1" stroke="none" stroke-opacity="0" transform="matrix(2,0,0,2,180,76)"><path d="M3,4 L3,6 L1,6 L1,4 L3,4 M4,3 L0,3 L0,7 L4,7 L4,3" fill-rule="nonzero" vector-effect="none"/></g><defs><clipPath id="clip50"><path d="M0,0 L10,0 L10,10 L0,10 L0,0 z"/></clipPath></defs><g clip-path="url(#clip50)" fill="#b3b3b3" fill-opacity="1" opacity="1" stroke="none" stroke-opacity="0" transform="matrix(-2,0,0,2,20,66)"><path d="M0.5,3.5 L3.5,3.5 L3.5,6.5 L0.5,6.5 L0.5,3.5 z" fill-rule="evenodd" vector-effect="none"/></g><defs><clipPath id="clip52"><path d="M0,0 L10,0 L10,10 L0,10 L0,0 z"/></clipPath></defs><g clip-path="url(#clip52)" fill="#000000" fill-opacity="1" opacity="1" stroke="none" stroke-opacity="0" transform="matrix(-2,0,0,2,20,66)"><path d="M3,4 L3,6 L1,6 L1,4 L3,4 M4,3 L0,3 L0,7 L4,7 L4,3" fill-rule="nonzero" vector-effect="none"/></g><defs><clipPath id="clip72"><path d="M0,0 L10,0 L10,10 L0,10 L0,0 z"/></clipPath></defs><g clip-path="url(#clip72)" fill="#b3b3b3" fill-opacity="1" opacity="1" stroke="none" stroke-opacity="0" transform="matrix(2,0,0,2,180,26)"><path d="M0.5,3.5 L3.5,3.5 L3.5,6.5 L0.5,6.5 L0.5,3.5 z" fill-rule="evenodd" vector-effect="none"/></g><defs><clipPath id="clip74"><path d="M0,0 L10,0 L10,10 L0,10 L0,0 z"/></clipPath></defs><g clip-path="url(#clip74)" fill="#000000" fill-opacity="1" opacity="1" stroke="none" stroke-opacity="0" transform="matrix(2,0,0,2,180,26)"><path d="M3,4 L3,6 L1,6 L1,4 L3,4 M4,3 L0,3 L0,7 L4,7 L4,3" fill-rule="nonzero" vector-effect="none"/></g><defs><clipPath id="clip94"><path d="M0,0 L10,0 L10,10 L0,10 L0,0 z"/></clipPath></defs><g clip-path="url(#clip94)" fill="#b3b3b3" fill-opacity="1" opacity="1" stroke="none" stroke-opacity="0" transform="matrix(-2,0,0,2,20,36)"><path d="M0.5,3.5 L3.5,3.5 L3.5,6.5 L0.5,6.5 L0.5,3.5 z" fill-rule="evenodd" vector-effect="none"/></g><defs><clipPath id="clip96"><path d="M0,0 L10,0 L10,10 L0,10 L0,0 z"/></clipPath></defs><g clip-path="url(#clip96)" fill="#000000" fill-opacity="1" opacity="1" stroke="none" stroke-opacity="0" transform="matrix(-2,0,0,2,20,36)"><path d="M3,4 L3,6 L1,6 L1,4 L3,4 M4,3 L0,3 L0,7 L4,7 L4,3" fill-rule="nonzero" vector-effect="none"/></g><defs><clipPath id="clip116"><path d="M0,0 L10,0 L10,10 L0,10 L0,0 z"/></clipPath></defs><g clip-path="url(#clip116)" fill="#b3b3b3" fill-opacity="1" opacity="1" stroke="none" stroke-opacity="0" transform="matrix(-2,0,0,2,20,6)"><path d="M0.5,3.5 L3.5,3.5 L3.5,6.5 L0.5,6.5 L0.5,3.5 z" fill-rule="evenodd" vector-effect="none"/></g><defs><clipPath id="clip118"><path d="M0,0 L10,0 L10,10 L0,10 L0,0 z"/></clipPath></defs><g clip-path="url(#clip118)" fill="#000000" fill-opacity="1" opacity="1" stroke="none" stroke-opacity="0" transform="matrix(-2,0,0,2,20,6)"><path d="M3,4 L3,6 L1,6 L1,4 L3,4 M4,3 L0,3 L0,7 L4,7 L4,3" fill-rule="nonzero" vector-effect="none"/></g><defs><clipPath id="clip135"><path d="M-10,-2 L90,-2 L90,57 L-10,57 L-10,-2 z"/></clipPath></defs><g clip-path="url(#clip135)" fill="#ffffff" fill-opacity="1" opacity="1" stroke="none" stroke-opacity="0" transform="matrix(2,0,0,2,20,4)"><path d="M0,0 L80,0 L80,55 L0,55 L0,0 z" fill-rule="evenodd" vector-effect="none"/></g><defs><clipPath id="clip139"><path d="M0,0 L80,0 L80,55 L0,55 L0,0 z"/></clipPath></defs><g clip-path="url(#clip139)" fill="none" opacity="1" stroke="none" stroke-opacity="0" transform="matrix(2,0,0,2,20,4)"><path d="M0,0 L80,0 L80,55 L0,55 L0,0 z" fill-rule="evenodd" vector-effect="none"/></g><defs><clipPath id="clip149"><path d="M1,1 L81,1 L81,56 L1,56 L1,1 z"/></clipPath></defs><g clip-path="url(#clip149)" fill="none" opacity="1" stroke="#3369c9" stroke-linecap="butt" stroke-linejoin="miter" stroke-miterlimit="20" stroke-opacity="1" stroke-width="1.82" transform="matrix(2,0,0,2,18,2)"><path d="M1.00001,1 L81.0002,1 L81.0002,56.0001 L1.00001,56.0001 L1.00001,1 z" fill-rule="nonzero" vector-effect="none"/></g><defs><clipPath id="clip150"><path d="M1,1 L81,1 L81,56 L1,56 L1,1 z"/></clipPath></defs><g clip-path="url(#clip150)" fill="none" opacity="1" stroke="#3369c9" stroke-linecap="butt" stroke-linejoin="miter" stroke-miterlimit="20" stroke-opacity="1" stroke-width="1.82" transform="matrix(2,0,0,2,18,2)"><path d="M57.7274,20.25 L57.7274,14.75 L81.0002,14.75" fill-rule="nonzero" vector-effect="none"/></g><defs><clipPath id="clip151"><path d="M1,1 L81,1 L81,56 L1,56 L1,1 z"/></clipPath></defs><g clip-path="url(#clip151)" fill="none" opacity="1" stroke="#3369c9" stroke-linecap="butt" stroke-linejoin="miter" stroke-miterlimit="20" stroke-opacity="1" stroke-width="1.82" transform="matrix(2,0,0,2,18,2)"><path d="M57.7274,36.7501 L57.7274,42.2501 L81.0002,42.2501" fill-rule="nonzero" vector-effect="none"/></g><defs><clipPath id="clip152"><path d="M1,1 L81,1 L81,56 L1,56 L1,1 z"/></clipPath></defs><g clip-path="url(#clip152)" fill="none" opacity="1" stroke="#3369c9" stroke-linecap="butt" stroke-linejoin="miter" stroke-miterlimit="20" stroke-opacity="1" stroke-width="1.82" transform="matrix(2,0,0,2,18,2)"><path d="M27.1819,28.5 L30.091,28.5" fill-rule="nonzero" vector-effect="none"/></g><defs><clipPath id="clip153"><path d="M1,1 L81,1 L81,56 L1,56 L1,1 z"/></clipPath></defs><g clip-path="url(#clip153)" fill="none" opacity="1" stroke="#3369c9" stroke-linecap="butt" stroke-linejoin="miter" stroke-miterlimit="20" stroke-opacity="1" stroke-width="1.82" transform="matrix(2,0,0,2,18,2)"><path d="M33.0001,28.5 L35.9092,28.5" fill-rule="nonzero" vector-effect="none"/></g><defs><clipPath id="clip154"><path d="M1,1 L81,1 L81,56 L1,56 L1,1 z"/></clipPath></defs><g clip-path="url(#clip154)" fill="none" opacity="1" stroke="#3369c9" stroke-linecap="butt" stroke-linejoin="miter" stroke-miterlimit="20" stroke-opacity="1" stroke-width="1.82" transform="matrix(2,0,0,2,18,2)"><path d="M38.8183,28.5 L41.7274,28.5" fill-rule="nonzero" vector-effect="none"/></g><defs><clipPath id="clip155"><path d="M1,1 L81,1 L81,56 L1,56 L1,1 z"/></clipPath></defs><g clip-path="url(#clip155)" fill="none" opacity="1" stroke="#3369c9" stroke-linecap="butt" stroke-linejoin="miter" stroke-miterlimit="20" stroke-opacity="1" stroke-width="1.82" transform="matrix(2,0,0,2,18,2)"><path d="M44.6365,28.5 L47.5456,28.5" fill-rule="nonzero" vector-effect="none"/></g><defs><clipPath id="clip156"><path d="M1,1 L81,1 L81,56 L1,56 L1,1 z"/></clipPath></defs><g clip-path="url(#clip156)" fill="none" opacity="1" stroke="#3369c9" stroke-linecap="butt" stroke-linejoin="miter" stroke-miterlimit="20" stroke-opacity="1" stroke-width="1.82" transform="matrix(2,0,0,2,18,2)"><path d="M1.00001,7.87501 L3.90911,7.87501" fill-rule="nonzero" vector-effect="none"/></g><defs><clipPath id="clip157"><path d="M1,1 L81,1 L81,56 L1,56 L1,1 z"/></clipPath></defs><g clip-path="url(#clip157)" fill="none" opacity="1" stroke="#3369c9" stroke-linecap="butt" stroke-linejoin="miter" stroke-miterlimit="20" stroke-opacity="1" stroke-width="1.82" transform="matrix(2,0,0,2,18,2)"><path d="M6.81821,7.87501 L9.72731,7.87501" fill-rule="nonzero" vector-effect="none"/></g><defs><clipPath id="clip158"><path d="M1,1 L81,1 L81,56 L1,56 L1,1 z"/></clipPath></defs><g clip-path="url(#clip158)" fill="none" opacity="1" stroke="#3369c9" stroke-linecap="butt" stroke-linejoin="miter" stroke-miterlimit="20" stroke-opacity="1" stroke-width="1.82" transform="matrix(2,0,0,2,18,2)"><path d="M12.6364,7.87501 L15.5455,7.87501" fill-rule="nonzero" vector-effect="none"/></g><defs><clipPath id="clip159"><path d="M1,1 L81,1 L81,56 L1,56 L1,1 z"/></clipPath></defs><g clip-path="url(#clip159)" fill="none" opacity="1" stroke="#3369c9" stroke-linecap="butt" stroke-linejoin="miter" stroke-miterlimit="20" stroke-opacity="1" stroke-width="1.82" transform="matrix(2,0,0,2,18,2)"><path d="M18.4546,7.87501 L21.3637,7.87501" fill-rule="nonzero" vector-effect="none"/></g><defs><clipPath id="clip160"><path d="M1,1 L81,1 L81,56 L1,56 L1,1 z"/></clipPath></defs><g clip-path="url(#clip160)" fill="none" opacity="1" stroke="#3369c9" stroke-linecap="butt" stroke-linejoin="miter" stroke-miterlimit="20" stroke-opacity="1" stroke-width="1.82" transform="matrix(2,0,0,2,18,2)"><path d="M25.0001,27.125 L25.0001,24.375" fill-rule="nonzero" vector-effect="none"/></g><defs><clipPath id="clip161"><path d="M1,1 L81,1 L81,56 L1,56 L1,1 z"/></clipPath></defs><g clip-path="url(#clip161)" fill="none" opacity="1" stroke="#3369c9" stroke-linecap="butt" stroke-linejoin="miter" stroke-miterlimit="20" stroke-opacity="1" stroke-width="1.82" transform="matrix(2,0,0,2,18,2)"><path d="M25.0001,21.625 L25.0001,18.875" fill-rule="nonzero" vector-effect="none"/></g><defs><clipPath id="clip162"><path d="M1,1 L81,1 L81,56 L1,56 L1,1 z"/></clipPath></defs><g clip-path="url(#clip162)" fill="none" opacity="1" stroke="#3369c9" stroke-linecap="butt" stroke-linejoin="miter" stroke-miterlimit="20" stroke-opacity="1" stroke-width="1.82" transform="matrix(2,0,0,2,18,2)"><path d="M25.0001,16.125 L25.0001,13.375" fill-rule="nonzero" vector-effect="none"/></g><defs><clipPath id="clip163"><path d="M1,1 L81,1 L81,56 L1,56 L1,1 z"/></clipPath></defs><g clip-path="url(#clip163)" fill="none" opacity="1" stroke="#3369c9" stroke-linecap="butt" stroke-linejoin="miter" stroke-miterlimit="20" stroke-opacity="1" stroke-width="1.82" transform="matrix(2,0,0,2,18,2)"><path d="M25.0001,10.625 L25.0001,7.87501" fill-rule="nonzero" vector-effect="none"/></g><defs><clipPath id="clip164"><path d="M1,1 L81,1 L81,56 L1,56 L1,1 z"/></clipPath></defs><g clip-path="url(#clip164)" fill="none" opacity="1" stroke="#3369c9" stroke-linecap="butt" stroke-linejoin="miter" stroke-miterlimit="20" stroke-opacity="1" stroke-width="1.82" transform="matrix(2,0,0,2,18,2)"><path d="M51.9092,23 L51.9092,34.0001" fill-rule="nonzero" vector-effect="none"/></g><defs><clipPath id="clip165"><path d="M1,1 L81,1 L81,56 L1,56 L1,1 z"/></clipPath></defs><g clip-path="url(#clip165)" fill="none" opacity="1" stroke="#3369c9" stroke-linecap="butt" stroke-linejoin="miter" stroke-miterlimit="20" stroke-opacity="1" stroke-width="1.82" transform="matrix(2,0,0,2,18,2)"><path d="M63.5456,23 L63.5456,34.0001" fill-rule="nonzero" vector-effect="none"/></g><defs><clipPath id="clip166"><path d="M1,1 L81,1 L81,56 L1,56 L1,1 z"/></clipPath></defs><g clip-path="url(#clip166)" fill="none" opacity="1" stroke="#3369c9" stroke-linecap="butt" stroke-linejoin="miter" stroke-miterlimit="20" stroke-opacity="1" stroke-width="1.82" transform="matrix(2,0,0,2,18,2)"><path d="M51.9092,28.5 L52.6365,28.5 L54.8183,28.5" fill-rule="nonzero" vector-effect="none"/></g><defs><clipPath id="clip167"><path d="M1,1 L81,1 L81,56 L1,56 L1,1 z"/></clipPath></defs><g clip-path="url(#clip167)" fill="none" opacity="1" stroke="#3369c9" stroke-linecap="butt" stroke-linejoin="miter" stroke-miterlimit="20" stroke-opacity="1" stroke-width="1.82" transform="matrix(2,0,0,2,18,2)"><path d="M60.6365,28.5 L63.5456,28.5" fill-rule="nonzero" vector-effect="none"/></g><defs><clipPath id="clip168"><path d="M1,1 L81,1 L81,56 L1,56 L1,1 z"/></clipPath></defs><g clip-path="url(#clip168)" fill="none" opacity="1" stroke="#3369c9" stroke-linecap="butt" stroke-linejoin="miter" stroke-miterlimit="4" stroke-opacity="1" stroke-width="1.82" transform="matrix(2,0,0,2,18,2)"><path d="M60.8143,28.5 C60.8143,30.1116 59.4323,31.4181 57.7274,31.4181 C56.0226,31.4181 54.6406,30.1116 54.6406,28.5 C54.6406,26.8884 56.0226,25.582 57.7274,25.582 C59.4323,25.582 60.8143,26.8884 60.8143,28.5 z" fill-rule="nonzero" vector-effect="none"/></g><defs><clipPath id="clip169"><path d="M1,1 L81,1 L81,56 L1,56 L1,1 z"/></clipPath></defs><g clip-path="url(#clip169)" fill="none" opacity="1" stroke="#3369c9" stroke-linecap="butt" stroke-linejoin="miter" stroke-miterlimit="20" stroke-opacity="1" stroke-width="1.82" transform="matrix(2,0,0,2,18,2)"><path d="M49.0001,20.25 L66.4547,20.25 L66.4547,36.7501 L49.0001,36.7501 L49.0001,20.25 z" fill-rule="nonzero" vector-effect="none"/></g><defs><clipPath id="clip186"><path d="M-394,-205 L16,-205 L16,77 L-394,77 L-394,-205 z"/></clipPath></defs><g clip-path="url(#clip186)" fill="none" opacity="1" stroke="#e60000" stroke-linecap="square" stroke-linejoin="bevel" stroke-opacity="1" stroke-width="1" transform="matrix(0.390625,0,0,0.390625,174,84)"><text fill="#e60000" fill-opacity="1" font-family="Liberation Sans" font-size="40" font-style="normal" font-weight="400" stroke="none" textLength="13" x="-17.0312" xml:space="preserve" y="17.9219">-</text></g><defs><clipPath id="clip189"><path d="M-394,-77 L16,-77 L16,205 L-394,205 L-394,-77 z"/></clipPath></defs><g clip-path="url(#clip189)" fill="none" opacity="1" stroke="#e60000" stroke-linecap="square" stroke-linejoin="bevel" stroke-opacity="1" stroke-width="1" transform="matrix(0.390625,0,0,0.390625,174,34)"><text fill="#e60000" fill-opacity="1" font-family="Liberation Sans" font-size="40" font-style="normal" font-weight="400" stroke="none" textLength="23" x="-29.8906" xml:space="preserve" y="17.9219">+</text></g><defs><clipPath id="clip192"><path d="M-15,-256 L395,-256 L395,26 L-15,26 L-15,-256 z"/></clipPath></defs><g clip-path="url(#clip192)" fill="none" opacity="1" stroke="#e60000" stroke-linecap="square" stroke-linejoin="bevel" stroke-opacity="1" stroke-width="1" transform="matrix(0.390625,0,0,0.390625,26,104)"><text fill="#e60000" fill-opacity="1" font-family="Liberation Sans" font-size="40" font-style="normal" font-weight="400" stroke="none" textLength="83" x="0" xml:space="preserve" y="17.9219">BRK</text></g><defs><clipPath id="clip195"><path d="M-15,-179 L395,-179 L395,103 L-15,103 L-15,-179 z"/></clipPath></defs><g clip-path="url(#clip195)" fill="none" opacity="1" stroke="#e60000" stroke-linecap="square" stroke-linejoin="bevel" stroke-opacity="1" stroke-width="1" transform="matrix(0.390625,0,0,0.390625,26,74)"><text fill="#e60000" fill-opacity="1" font-family="Liberation Sans" font-size="40" font-style="normal" font-weight="400" stroke="none" textLength="83" x="0" xml:space="preserve" y="17.9219">REV</text></g><defs><clipPath id="clip198"><path d="M-15,-102 L395,-102 L395,180 L-15,180 L-15,-102 z"/></clipPath></defs><g clip-path="url(#clip198)" fill="none" opacity="1" stroke="#e60000" stroke-linecap="square" stroke-linejoin="bevel" stroke-opacity="1" stroke-width="1" transform="matrix(0.390625,0,0,0.390625,26,44)"><text fill="#e60000" fill-opacity="1" font-family="Liberation Sans" font-size="40" font-style="normal" font-weight="400" stroke="none" textLength="80" x="0" xml:space="preserve" y="17.9219">REF</text></g><defs><clipPath id="clip201"><path d="M-15,-26 L395,-26 L395,256 L-15,256 L-15,-26 z"/></clipPath></defs><g clip-path="url(#clip201)" fill="none" opacity="1" stroke="#e60000" stroke-linecap="square" stroke-linejoin="bevel" stroke-opacity="1" stroke-width="1" transform="matrix(0.390625,0,0,0.390625,26,14)"><text fill="#e60000" fill-opacity="1" font-family="Liberation Sans" font-size="40" font-style="normal" font-weight="400" stroke="none" textLength="100" x="0" xml:space="preserve" y="17.9219">PWM</text></g><defs><clipPath id="clip207"><path d="M-10,-2 L90,-2 L90,57 L-10,57 L-10,-2 z"/></clipPath></defs><g clip-path="url(#clip207)" fill="none" opacity="1" stroke="none" stroke-opacity="0" transform="matrix(2,0,0,2,20,4)"><path d="M0,0 L80,0 L80,55 L0,55 L0,0 z" fill-rule="evenodd" vector-effect="none"/></g></g></svg>
