<?xml version="1.0" encoding="UTF-8"?><svg width="52.9167mm" height="46.0375mm" viewBox="0 0 200 174" xmlns="http://www.w3.org/2000/svg" xmlns:xlink="http://www.w3.org/1999/xlink"><g fill="none" stroke="black" stroke-width="1" fill-rule="evenodd" stroke-linecap="square" stroke-linejoin="bevel"><g clip-path="none" fill="none" opacity="1" stroke="none" stroke-opacity="0" transform="matrix(1,0,0,1,0,0)"><path d="M0,0 L200,0 L200,174 L0,174 L0,0 z" fill-rule="evenodd" vector-effect="none"/></g><defs><clipPath id="clip6"><path d="M0,0 L10,0 L10,10 L0,10 L0,0 z"/></clipPath></defs><g clip-path="url(#clip6)" fill="#b3b3b3" fill-opacity="1" opacity="1" stroke="none" stroke-opacity="0" transform="matrix(2,0,0,2,180,124)"><path d="M0.5,3.5 L3.5,3.5 L3.5,6.5 L0.5,6.5 L0.5,3.5 z" fill-rule="evenodd" vector-effect="none"/></g><defs><clipPath id="clip8"><path d="M0,0 L10,0 L10,10 L0,10 L0,0 z"/></clipPath></defs><g clip-path="url(#clip8)" fill="#000000" fill-opacity="1" opacity="1" stroke="none" stroke-opacity="0" transform="matrix(2,0,0,2,180,124)"><path d="M3,4 L3,6 L1,6 L1,4 L3,4 M4,3 L0,3 L0,7 L4,7 L4,3" fill-rule="nonzero" vector-effect="none"/></g><defs><clipPath id="clip28"><path d="M0,0 L10,0 L10,10 L0,10 L0,0 z"/></clipPath></defs><g clip-path="url(#clip28)" fill="#b3b3b3" fill-opacity="1" opacity="1" stroke="none" stroke-opacity="0" transform="matrix(2,0,0,2,180,34)"><path d="M0.5,3.5 L3.5,3.5 L3.5,6.5 L0.5,6.5 L0.5,3.5 z" fill-rule="evenodd" vector-effect="none"/></g><defs><clipPath id="clip30"><path d="M0,0 L10,0 L10,10 L0,10 L0,0 z"/></clipPath></defs><g clip-path="url(#clip30)" fill="#000000" fill-opacity="1" opacity="1" stroke="none" stroke-opacity="0" transform="matrix(2,0,0,2,180,34)"><path d="M3,4 L3,6 L1,6 L1,4 L3,4 M4,3 L0,3 L0,7 L4,7 L4,3" fill-rule="nonzero" vector-effect="none"/></g><defs><clipPath id="clip50"><path d="M0,0 L10,0 L10,10 L0,10 L0,0 z"/></clipPath></defs><g clip-path="url(#clip50)" fill="#b3b3b3" fill-opacity="1" opacity="1" stroke="none" stroke-opacity="0" transform="matrix(2,0,0,2,180,94)"><path d="M0.5,3.5 L3.5,3.5 L3.5,6.5 L0.5,6.5 L0.5,3.5 z" fill-rule="evenodd" vector-effect="none"/></g><defs><clipPath id="clip52"><path d="M0,0 L10,0 L10,10 L0,10 L0,0 z"/></clipPath></defs><g clip-path="url(#clip52)" fill="#000000" fill-opacity="1" opacity="1" stroke="none" stroke-opacity="0" transform="matrix(2,0,0,2,180,94)"><path d="M3,4 L3,6 L1,6 L1,4 L3,4 M4,3 L0,3 L0,7 L4,7 L4,3" fill-rule="nonzero" vector-effect="none"/></g><defs><clipPath id="clip72"><path d="M0,0 L10,0 L10,10 L0,10 L0,0 z"/></clipPath></defs><g clip-path="url(#clip72)" fill="#b3b3b3" fill-opacity="1" opacity="1" stroke="none" stroke-opacity="0" transform="matrix(2,0,0,2,180,64)"><path d="M0.5,3.5 L3.5,3.5 L3.5,6.5 L0.5,6.5 L0.5,3.5 z" fill-rule="evenodd" vector-effect="none"/></g><defs><clipPath id="clip74"><path d="M0,0 L10,0 L10,10 L0,10 L0,0 z"/></clipPath></defs><g clip-path="url(#clip74)" fill="#000000" fill-opacity="1" opacity="1" stroke="none" stroke-opacity="0" transform="matrix(2,0,0,2,180,64)"><path d="M3,4 L3,6 L1,6 L1,4 L3,4 M4,3 L0,3 L0,7 L4,7 L4,3" fill-rule="nonzero" vector-effect="none"/></g><defs><clipPath id="clip94"><path d="M0,0 L10,0 L10,10 L0,10 L0,0 z"/></clipPath></defs><g clip-path="url(#clip94)" fill="#b3b3b3" fill-opacity="1" opacity="1" stroke="none" stroke-opacity="0" transform="matrix(2,0,0,2,180,4)"><path d="M0.5,3.5 L3.5,3.5 L3.5,6.5 L0.5,6.5 L0.5,3.5 z" fill-rule="evenodd" vector-effect="none"/></g><defs><clipPath id="clip96"><path d="M0,0 L10,0 L10,10 L0,10 L0,0 z"/></clipPath></defs><g clip-path="url(#clip96)" fill="#000000" fill-opacity="1" opacity="1" stroke="none" stroke-opacity="0" transform="matrix(2,0,0,2,180,4)"><path d="M3,4 L3,6 L1,6 L1,4 L3,4 M4,3 L0,3 L0,7 L4,7 L4,3" fill-rule="nonzero" vector-effect="none"/></g><defs><clipPath id="clip116"><path d="M0,0 L10,0 L10,10 L0,10 L0,0 z"/></clipPath></defs><g clip-path="url(#clip116)" fill="#b3b3b3" fill-opacity="1" opacity="1" stroke="none" stroke-opacity="0" transform="matrix(-2,0,0,2,20,134)"><path d="M0.5,3.5 L3.5,3.5 L3.5,6.5 L0.5,6.5 L0.5,3.5 z" fill-rule="evenodd" vector-effect="none"/></g><defs><clipPath id="clip118"><path d="M0,0 L10,0 L10,10 L0,10 L0,0 z"/></clipPath></defs><g clip-path="url(#clip118)" fill="#000000" fill-opacity="1" opacity="1" stroke="none" stroke-opacity="0" transform="matrix(-2,0,0,2,20,134)"><path d="M3,4 L3,6 L1,6 L1,4 L3,4 M4,3 L0,3 L0,7 L4,7 L4,3" fill-rule="nonzero" vector-effect="none"/></g><defs><clipPath id="clip138"><path d="M0,0 L10,0 L10,10 L0,10 L0,0 z"/></clipPath></defs><g clip-path="url(#clip138)" fill="#b3b3b3" fill-opacity="1" opacity="1" stroke="none" stroke-opacity="0" transform="matrix(-2,0,0,2,20,34)"><path d="M0.5,3.5 L3.5,3.5 L3.5,6.5 L0.5,6.5 L0.5,3.5 z" fill-rule="evenodd" vector-effect="none"/></g><defs><clipPath id="clip140"><path d="M0,0 L10,0 L10,10 L0,10 L0,0 z"/></clipPath></defs><g clip-path="url(#clip140)" fill="#000000" fill-opacity="1" opacity="1" stroke="none" stroke-opacity="0" transform="matrix(-2,0,0,2,20,34)"><path d="M3,4 L3,6 L1,6 L1,4 L3,4 M4,3 L0,3 L0,7 L4,7 L4,3" fill-rule="nonzero" vector-effect="none"/></g><defs><clipPath id="clip160"><path d="M0,0 L10,0 L10,10 L0,10 L0,0 z"/></clipPath></defs><g clip-path="url(#clip160)" fill="#b3b3b3" fill-opacity="1" opacity="1" stroke="none" stroke-opacity="0" transform="matrix(2,0,0,2,180,154)"><path d="M0.5,3.5 L3.5,3.5 L3.5,6.5 L0.5,6.5 L0.5,3.5 z" fill-rule="evenodd" vector-effect="none"/></g><defs><clipPath id="clip162"><path d="M0,0 L10,0 L10,10 L0,10 L0,0 z"/></clipPath></defs><g clip-path="url(#clip162)" fill="#000000" fill-opacity="1" opacity="1" stroke="none" stroke-opacity="0" transform="matrix(2,0,0,2,180,154)"><path d="M3,4 L3,6 L1,6 L1,4 L3,4 M4,3 L0,3 L0,7 L4,7 L4,3" fill-rule="nonzero" vector-effect="none"/></g><defs><clipPath id="clip182"><path d="M0,0 L10,0 L10,10 L0,10 L0,0 z"/></clipPath></defs><g clip-path="url(#clip182)" fill="#b3b3b3" fill-opacity="1" opacity="1" stroke="none" stroke-opacity="0" transform="matrix(-2,0,0,2,20,84)"><path d="M0.5,3.5 L3.5,3.5 L3.5,6.5 L0.5,6.5 L0.5,3.5 z" fill-rule="evenodd" vector-effect="none"/></g><defs><clipPath id="clip184"><path d="M0,0 L10,0 L10,10 L0,10 L0,0 z"/></clipPath></defs><g clip-path="url(#clip184)" fill="#000000" fill-opacity="1" opacity="1" stroke="none" stroke-opacity="0" transform="matrix(-2,0,0,2,20,84)"><path d="M3,4 L3,6 L1,6 L1,4 L3,4 M4,3 L0,3 L0,7 L4,7 L4,3" fill-rule="nonzero" vector-effect="none"/></g><defs><clipPath id="clip201"><path d="M-10,-3 L90,-3 L90,84 L-10,84 L-10,-3 z"/></clipPath></defs><g clip-path="url(#clip201)" fill="#ffffff" fill-opacity="1" opacity="1" stroke="none" stroke-opacity="0" transform="matrix(2,0,0,2,20,6)"><path d="M0,0 L80,0 L80,81 L0,81 L0,0 z" fill-rule="evenodd" vector-effect="none"/></g><defs><clipPath id="clip205"><path d="M0,0 L80,0 L80,81 L0,81 L0,0 z"/></clipPath></defs><g clip-path="url(#clip205)" fill="none" opacity="1" stroke="none" stroke-opacity="0" transform="matrix(2,0,0,2,20,6)"><path d="M0,0 L80,0 L80,81 L0,81 L0,0 z" fill-rule="evenodd" vector-effect="none"/></g><defs><clipPath id="clip215"><path d="M1,1 L81,1 L81,82 L1,82 L1,1 z"/></clipPath></defs><g clip-path="url(#clip215)" fill="none" opacity="1" stroke="#3369c9" stroke-linecap="butt" stroke-linejoin="miter" stroke-miterlimit="20" stroke-opacity="1" stroke-width="2.665" transform="matrix(2,0,0,2,18,4)"><path d="M1.00001,1.00001 L81.0002,1.00001 L81.0002,82.0002 L1.00001,82.0002 L1.00001,1.00001 z" fill-rule="nonzero" vector-effect="none"/></g><defs><clipPath id="clip216"><path d="M1,1 L81,1 L81,82 L1,82 L1,1 z"/></clipPath></defs><g clip-path="url(#clip216)" fill="none" opacity="1" stroke="#3369c9" stroke-linecap="butt" stroke-linejoin="miter" stroke-miterlimit="20" stroke-opacity="1" stroke-width="2.665" transform="matrix(2,0,0,2,18,4)"><path d="M19.9091,10 L34.4546,10 L34.4546,19 L49.0001,19 L49.0001,10 L63.5456,10 L63.5456,19 L66.4547,19" fill-rule="nonzero" vector-effect="none"/></g><defs><clipPath id="clip217"><path d="M1,1 L81,1 L81,82 L1,82 L1,1 z"/></clipPath></defs><g clip-path="url(#clip217)" fill="none" opacity="1" stroke="#3369c9" stroke-linecap="butt" stroke-linejoin="miter" stroke-miterlimit="20" stroke-opacity="1" stroke-width="2.665" transform="matrix(2,0,0,2,18,4)"><path d="M19.9091,55.0001 L27.1819,55.0001 L27.1819,46.0001 L41.7274,46.0001 L41.7274,55.0001 L56.2729,55.0001 L56.2729,46.0001 L66.4547,46.0001" fill-rule="nonzero" vector-effect="none"/></g><defs><clipPath id="clip218"><path d="M1,1 L81,1 L81,82 L1,82 L1,1 z"/></clipPath></defs><g clip-path="url(#clip218)" fill="none" opacity="1" stroke="#3369c9" stroke-linecap="butt" stroke-linejoin="miter" stroke-miterlimit="20" stroke-opacity="1" stroke-width="2.665" transform="matrix(2,0,0,2,18,4)"><path d="M21.3637,19 L23.5455,19" fill-rule="nonzero" vector-effect="none"/></g><defs><clipPath id="clip219"><path d="M1,1 L81,1 L81,82 L1,82 L1,1 z"/></clipPath></defs><g clip-path="url(#clip219)" fill="none" opacity="1" stroke="#3369c9" stroke-linecap="butt" stroke-linejoin="miter" stroke-miterlimit="20" stroke-opacity="1" stroke-width="2.665" transform="matrix(2,0,0,2,18,4)"><path d="M25.7273,19 L27.9092,19" fill-rule="nonzero" vector-effect="none"/></g><defs><clipPath id="clip220"><path d="M1,1 L81,1 L81,82 L1,82 L1,1 z"/></clipPath></defs><g clip-path="url(#clip220)" fill="none" opacity="1" stroke="#3369c9" stroke-linecap="butt" stroke-linejoin="miter" stroke-miterlimit="20" stroke-opacity="1" stroke-width="2.665" transform="matrix(2,0,0,2,18,4)"><path d="M30.091,19 L32.2728,19" fill-rule="nonzero" vector-effect="none"/></g><defs><clipPath id="clip221"><path d="M1,1 L81,1 L81,82 L1,82 L1,1 z"/></clipPath></defs><g clip-path="url(#clip221)" fill="none" opacity="1" stroke="#3369c9" stroke-linecap="butt" stroke-linejoin="miter" stroke-miterlimit="20" stroke-opacity="1" stroke-width="2.665" transform="matrix(2,0,0,2,18,4)"><path d="M36.6365,19 L38.8183,19" fill-rule="nonzero" vector-effect="none"/></g><defs><clipPath id="clip222"><path d="M1,1 L81,1 L81,82 L1,82 L1,1 z"/></clipPath></defs><g clip-path="url(#clip222)" fill="none" opacity="1" stroke="#3369c9" stroke-linecap="butt" stroke-linejoin="miter" stroke-miterlimit="20" stroke-opacity="1" stroke-width="2.665" transform="matrix(2,0,0,2,18,4)"><path d="M41.0001,19 L43.1819,19" fill-rule="nonzero" vector-effect="none"/></g><defs><clipPath id="clip223"><path d="M1,1 L81,1 L81,82 L1,82 L1,1 z"/></clipPath></defs><g clip-path="url(#clip223)" fill="none" opacity="1" stroke="#3369c9" stroke-linecap="butt" stroke-linejoin="miter" stroke-miterlimit="20" stroke-opacity="1" stroke-width="2.665" transform="matrix(2,0,0,2,18,4)"><path d="M45.3638,19 L47.5456,19" fill-rule="nonzero" vector-effect="none"/></g><defs><clipPath id="clip224"><path d="M1,1 L81,1 L81,82 L1,82 L1,1 z"/></clipPath></defs><g clip-path="url(#clip224)" fill="none" opacity="1" stroke="#3369c9" stroke-linecap="butt" stroke-linejoin="miter" stroke-miterlimit="20" stroke-opacity="1" stroke-width="2.665" transform="matrix(2,0,0,2,18,4)"><path d="M51.182,19 L53.3638,19" fill-rule="nonzero" vector-effect="none"/></g><defs><clipPath id="clip225"><path d="M1,1 L81,1 L81,82 L1,82 L1,1 z"/></clipPath></defs><g clip-path="url(#clip225)" fill="none" opacity="1" stroke="#3369c9" stroke-linecap="butt" stroke-linejoin="miter" stroke-miterlimit="20" stroke-opacity="1" stroke-width="2.665" transform="matrix(2,0,0,2,18,4)"><path d="M55.5456,19 L57.7274,19" fill-rule="nonzero" vector-effect="none"/></g><defs><clipPath id="clip226"><path d="M1,1 L81,1 L81,82 L1,82 L1,1 z"/></clipPath></defs><g clip-path="url(#clip226)" fill="none" opacity="1" stroke="#3369c9" stroke-linecap="butt" stroke-linejoin="miter" stroke-miterlimit="20" stroke-opacity="1" stroke-width="2.665" transform="matrix(2,0,0,2,18,4)"><path d="M59.9093,19 L62.0911,19" fill-rule="nonzero" vector-effect="none"/></g><defs><clipPath id="clip227"><path d="M1,1 L81,1 L81,82 L1,82 L1,1 z"/></clipPath></defs><g clip-path="url(#clip227)" fill="none" opacity="1" stroke="#3369c9" stroke-linecap="butt" stroke-linejoin="miter" stroke-miterlimit="20" stroke-opacity="1" stroke-width="2.665" transform="matrix(2,0,0,2,18,4)"><path d="M65.0002,19 L66.4547,19" fill-rule="nonzero" vector-effect="none"/></g><defs><clipPath id="clip228"><path d="M1,1 L81,1 L81,82 L1,82 L1,1 z"/></clipPath></defs><g clip-path="url(#clip228)" fill="none" opacity="1" stroke="#3369c9" stroke-linecap="butt" stroke-linejoin="miter" stroke-miterlimit="20" stroke-opacity="1" stroke-width="2.665" transform="matrix(2,0,0,2,18,4)"><path d="M22.8182,55.0001 L25.0001,55.0001" fill-rule="nonzero" vector-effect="none"/></g><defs><clipPath id="clip229"><path d="M1,1 L81,1 L81,82 L1,82 L1,1 z"/></clipPath></defs><g clip-path="url(#clip229)" fill="none" opacity="1" stroke="#3369c9" stroke-linecap="butt" stroke-linejoin="miter" stroke-miterlimit="20" stroke-opacity="1" stroke-width="2.665" transform="matrix(2,0,0,2,18,4)"><path d="M19.9091,55.0001 L21.3637,55.0001" fill-rule="nonzero" vector-effect="none"/></g><defs><clipPath id="clip230"><path d="M1,1 L81,1 L81,82 L1,82 L1,1 z"/></clipPath></defs><g clip-path="url(#clip230)" fill="none" opacity="1" stroke="#3369c9" stroke-linecap="butt" stroke-linejoin="miter" stroke-miterlimit="20" stroke-opacity="1" stroke-width="2.665" transform="matrix(2,0,0,2,18,4)"><path d="M29.3637,55.0001 L31.5455,55.0001" fill-rule="nonzero" vector-effect="none"/></g><defs><clipPath id="clip231"><path d="M1,1 L81,1 L81,82 L1,82 L1,1 z"/></clipPath></defs><g clip-path="url(#clip231)" fill="none" opacity="1" stroke="#3369c9" stroke-linecap="butt" stroke-linejoin="miter" stroke-miterlimit="20" stroke-opacity="1" stroke-width="2.665" transform="matrix(2,0,0,2,18,4)"><path d="M33.7274,55.0001 L35.9092,55.0001" fill-rule="nonzero" vector-effect="none"/></g><defs><clipPath id="clip232"><path d="M1,1 L81,1 L81,82 L1,82 L1,1 z"/></clipPath></defs><g clip-path="url(#clip232)" fill="none" opacity="1" stroke="#3369c9" stroke-linecap="butt" stroke-linejoin="miter" stroke-miterlimit="20" stroke-opacity="1" stroke-width="2.665" transform="matrix(2,0,0,2,18,4)"><path d="M38.091,55.0001 L40.2728,55.0001" fill-rule="nonzero" vector-effect="none"/></g><defs><clipPath id="clip233"><path d="M1,1 L81,1 L81,82 L1,82 L1,1 z"/></clipPath></defs><g clip-path="url(#clip233)" fill="none" opacity="1" stroke="#3369c9" stroke-linecap="butt" stroke-linejoin="miter" stroke-miterlimit="20" stroke-opacity="1" stroke-width="2.665" transform="matrix(2,0,0,2,18,4)"><path d="M43.9092,55.0001 L46.091,55.0001" fill-rule="nonzero" vector-effect="none"/></g><defs><clipPath id="clip234"><path d="M1,1 L81,1 L81,82 L1,82 L1,1 z"/></clipPath></defs><g clip-path="url(#clip234)" fill="none" opacity="1" stroke="#3369c9" stroke-linecap="butt" stroke-linejoin="miter" stroke-miterlimit="20" stroke-opacity="1" stroke-width="2.665" transform="matrix(2,0,0,2,18,4)"><path d="M48.2729,55.0001 L50.4547,55.0001" fill-rule="nonzero" vector-effect="none"/></g><defs><clipPath id="clip235"><path d="M1,1 L81,1 L81,82 L1,82 L1,1 z"/></clipPath></defs><g clip-path="url(#clip235)" fill="none" opacity="1" stroke="#3369c9" stroke-linecap="butt" stroke-linejoin="miter" stroke-miterlimit="20" stroke-opacity="1" stroke-width="2.665" transform="matrix(2,0,0,2,18,4)"><path d="M52.6365,55.0001 L54.8183,55.0001" fill-rule="nonzero" vector-effect="none"/></g><defs><clipPath id="clip236"><path d="M1,1 L81,1 L81,82 L1,82 L1,1 z"/></clipPath></defs><g clip-path="url(#clip236)" fill="none" opacity="1" stroke="#3369c9" stroke-linecap="butt" stroke-linejoin="miter" stroke-miterlimit="20" stroke-opacity="1" stroke-width="2.665" transform="matrix(2,0,0,2,18,4)"><path d="M58.4547,55.0001 L60.6365,55.0001" fill-rule="nonzero" vector-effect="none"/></g><defs><clipPath id="clip237"><path d="M1,1 L81,1 L81,82 L1,82 L1,1 z"/></clipPath></defs><g clip-path="url(#clip237)" fill="none" opacity="1" stroke="#3369c9" stroke-linecap="butt" stroke-linejoin="miter" stroke-miterlimit="20" stroke-opacity="1" stroke-width="2.665" transform="matrix(2,0,0,2,18,4)"><path d="M62.8184,55.0001 L65.0002,55.0001" fill-rule="nonzero" vector-effect="none"/></g><defs><clipPath id="clip238"><path d="M1,1 L81,1 L81,82 L1,82 L1,1 z"/></clipPath></defs><g clip-path="url(#clip238)" fill="none" opacity="1" stroke="#3369c9" stroke-linecap="butt" stroke-linejoin="miter" stroke-miterlimit="20" stroke-opacity="1" stroke-width="2.665" transform="matrix(2,0,0,2,18,4)"><path d="M19.9091,37.0001 L34.4546,37.0001 L34.4546,28.0001 L49.0001,28.0001 L49.0001,37.0001 L63.5456,37.0001 L63.5456,28.0001 L66.4547,28.0001" fill-rule="nonzero" vector-effect="none"/></g><defs><clipPath id="clip239"><path d="M1,1 L81,1 L81,82 L1,82 L1,1 z"/></clipPath></defs><g clip-path="url(#clip239)" fill="none" opacity="1" stroke="#3369c9" stroke-linecap="butt" stroke-linejoin="miter" stroke-miterlimit="20" stroke-opacity="1" stroke-width="2.665" transform="matrix(2,0,0,2,18,4)"><path d="M36.6365,37.0001 L38.8183,37.0001" fill-rule="nonzero" vector-effect="none"/></g><defs><clipPath id="clip240"><path d="M1,1 L81,1 L81,82 L1,82 L1,1 z"/></clipPath></defs><g clip-path="url(#clip240)" fill="none" opacity="1" stroke="#3369c9" stroke-linecap="butt" stroke-linejoin="miter" stroke-miterlimit="20" stroke-opacity="1" stroke-width="2.665" transform="matrix(2,0,0,2,18,4)"><path d="M47.5456,37.0001 L45.3638,37.0001" fill-rule="nonzero" vector-effect="none"/></g><defs><clipPath id="clip241"><path d="M1,1 L81,1 L81,82 L1,82 L1,1 z"/></clipPath></defs><g clip-path="url(#clip241)" fill="none" opacity="1" stroke="#3369c9" stroke-linecap="butt" stroke-linejoin="miter" stroke-miterlimit="20" stroke-opacity="1" stroke-width="2.665" transform="matrix(2,0,0,2,18,4)"><path d="M43.1819,37.0001 L41.0001,37.0001" fill-rule="nonzero" vector-effect="none"/></g><defs><clipPath id="clip242"><path d="M1,1 L81,1 L81,82 L1,82 L1,1 z"/></clipPath></defs><g clip-path="url(#clip242)" fill="none" opacity="1" stroke="#3369c9" stroke-linecap="butt" stroke-linejoin="miter" stroke-miterlimit="20" stroke-opacity="1" stroke-width="2.665" transform="matrix(2,0,0,2,18,4)"><path d="M19.9091,64.0001 L27.1819,64.0001 L27.1819,73.0001 L41.7274,73.0001 L41.7274,64.0001 L56.2729,64.0001 L56.2729,73.0001 L66.4547,73.0001" fill-rule="nonzero" vector-effect="none"/></g><defs><clipPath id="clip243"><path d="M1,1 L81,1 L81,82 L1,82 L1,1 z"/></clipPath></defs><g clip-path="url(#clip243)" fill="none" opacity="1" stroke="#3369c9" stroke-linecap="butt" stroke-linejoin="miter" stroke-miterlimit="20" stroke-opacity="1" stroke-width="2.665" transform="matrix(2,0,0,2,18,4)"><path d="M25.7273,73.0001 L23.5455,73.0001" fill-rule="nonzero" vector-effect="none"/></g><defs><clipPath id="clip244"><path d="M1,1 L81,1 L81,82 L1,82 L1,1 z"/></clipPath></defs><g clip-path="url(#clip244)" fill="none" opacity="1" stroke="#3369c9" stroke-linecap="butt" stroke-linejoin="miter" stroke-miterlimit="20" stroke-opacity="1" stroke-width="2.665" transform="matrix(2,0,0,2,18,4)"><path d="M22.091,73.0001 L19.9091,73.0001" fill-rule="nonzero" vector-effect="none"/></g><defs><clipPath id="clip245"><path d="M1,1 L81,1 L81,82 L1,82 L1,1 z"/></clipPath></defs><g clip-path="url(#clip245)" fill="none" opacity="1" stroke="#3369c9" stroke-linecap="butt" stroke-linejoin="miter" stroke-miterlimit="20" stroke-opacity="1" stroke-width="2.665" transform="matrix(2,0,0,2,18,4)"><path d="M43.9092,73.0001 L46.091,73.0001" fill-rule="nonzero" vector-effect="none"/></g><defs><clipPath id="clip246"><path d="M1,1 L81,1 L81,82 L1,82 L1,1 z"/></clipPath></defs><g clip-path="url(#clip246)" fill="none" opacity="1" stroke="#3369c9" stroke-linecap="butt" stroke-linejoin="miter" stroke-miterlimit="20" stroke-opacity="1" stroke-width="2.665" transform="matrix(2,0,0,2,18,4)"><path d="M48.2729,73.0001 L50.4547,73.0001" fill-rule="nonzero" vector-effect="none"/></g><defs><clipPath id="clip247"><path d="M1,1 L81,1 L81,82 L1,82 L1,1 z"/></clipPath></defs><g clip-path="url(#clip247)" fill="none" opacity="1" stroke="#3369c9" stroke-linecap="butt" stroke-linejoin="miter" stroke-miterlimit="20" stroke-opacity="1" stroke-width="2.665" transform="matrix(2,0,0,2,18,4)"><path d="M52.6365,73.0001 L54.8183,73.0001" fill-rule="nonzero" vector-effect="none"/></g><defs><clipPath id="clip264"><path d="M-394,-389 L16,-389 L16,26 L-394,26 L-394,-389 z"/></clipPath></defs><g clip-path="url(#clip264)" fill="none" opacity="1" stroke="#e60000" stroke-linecap="square" stroke-linejoin="bevel" stroke-opacity="1" stroke-width="1" transform="matrix(0.390625,0,0,0.390625,174,158)"><text fill="#e60000" fill-opacity="1" font-family="Liberation Sans" font-size="40" font-style="normal" font-weight="400" stroke="none" textLength="40" x="-51.1719" xml:space="preserve" y="17.9219">B-</text></g><defs><clipPath id="clip267"><path d="M-394,-323 L16,-323 L16,92 L-394,92 L-394,-323 z"/></clipPath></defs><g clip-path="url(#clip267)" fill="none" opacity="1" stroke="#e60000" stroke-linecap="square" stroke-linejoin="bevel" stroke-opacity="1" stroke-width="1" transform="matrix(0.390625,0,0,0.390625,174,132)"><text fill="#e60000" fill-opacity="1" font-family="Liberation Sans" font-size="40" font-style="normal" font-weight="400" stroke="none" textLength="49" x="-62.5938" xml:space="preserve" y="17.9219">B0</text></g><defs><clipPath id="clip270"><path d="M-394,-246 L16,-246 L16,169 L-394,169 L-394,-246 z"/></clipPath></defs><g clip-path="url(#clip270)" fill="none" opacity="1" stroke="#e60000" stroke-linecap="square" stroke-linejoin="bevel" stroke-opacity="1" stroke-width="1" transform="matrix(0.390625,0,0,0.390625,174,102)"><text fill="#e60000" fill-opacity="1" font-family="Liberation Sans" font-size="40" font-style="normal" font-weight="400" stroke="none" textLength="50" x="-64.0312" xml:space="preserve" y="17.9219">B+</text></g><defs><clipPath id="clip273"><path d="M-394,-169 L16,-169 L16,246 L-394,246 L-394,-169 z"/></clipPath></defs><g clip-path="url(#clip273)" fill="none" opacity="1" stroke="#e60000" stroke-linecap="square" stroke-linejoin="bevel" stroke-opacity="1" stroke-width="1" transform="matrix(0.390625,0,0,0.390625,174,72)"><text fill="#e60000" fill-opacity="1" font-family="Liberation Sans" font-size="40" font-style="normal" font-weight="400" stroke="none" textLength="40" x="-51.1719" xml:space="preserve" y="17.9219">A-</text></g><defs><clipPath id="clip276"><path d="M-394,-92 L16,-92 L16,323 L-394,323 L-394,-92 z"/></clipPath></defs><g clip-path="url(#clip276)" fill="none" opacity="1" stroke="#e60000" stroke-linecap="square" stroke-linejoin="bevel" stroke-opacity="1" stroke-width="1" transform="matrix(0.390625,0,0,0.390625,174,42)"><text fill="#e60000" fill-opacity="1" font-family="Liberation Sans" font-size="40" font-style="normal" font-weight="400" stroke="none" textLength="49" x="-62.5938" xml:space="preserve" y="17.9219">A0</text></g><defs><clipPath id="clip279"><path d="M-394,-26 L16,-26 L16,389 L-394,389 L-394,-26 z"/></clipPath></defs><g clip-path="url(#clip279)" fill="none" opacity="1" stroke="#e60000" stroke-linecap="square" stroke-linejoin="bevel" stroke-opacity="1" stroke-width="1" transform="matrix(0.390625,0,0,0.390625,174,16)"><text fill="#e60000" fill-opacity="1" font-family="Liberation Sans" font-size="40" font-style="normal" font-weight="400" stroke="none" textLength="50" x="-64.0312" xml:space="preserve" y="17.9219">A+</text></g><defs><clipPath id="clip282"><path d="M-15,-348 L395,-348 L395,67 L-15,67 L-15,-348 z"/></clipPath></defs><g clip-path="url(#clip282)" fill="none" opacity="1" stroke="#e60000" stroke-linecap="square" stroke-linejoin="bevel" stroke-opacity="1" stroke-width="1" transform="matrix(0.390625,0,0,0.390625,26,142)"><text fill="#e60000" fill-opacity="1" font-family="Liberation Sans" font-size="40" font-style="normal" font-weight="400" stroke="none" textLength="83" x="0" xml:space="preserve" y="17.9219">REV</text></g><defs><clipPath id="clip285"><path d="M-15,-220 L395,-220 L395,195 L-15,195 L-15,-220 z"/></clipPath></defs><g clip-path="url(#clip285)" fill="none" opacity="1" stroke="#e60000" stroke-linecap="square" stroke-linejoin="bevel" stroke-opacity="1" stroke-width="1" transform="matrix(0.390625,0,0,0.390625,26,92)"><text fill="#e60000" fill-opacity="1" font-family="Liberation Sans" font-size="40" font-style="normal" font-weight="400" stroke="none" textLength="80" x="0" xml:space="preserve" y="17.9219">REF</text></g><defs><clipPath id="clip288"><path d="M-15,-92 L395,-92 L395,323 L-15,323 L-15,-92 z"/></clipPath></defs><g clip-path="url(#clip288)" fill="none" opacity="1" stroke="#e60000" stroke-linecap="square" stroke-linejoin="bevel" stroke-opacity="1" stroke-width="1" transform="matrix(0.390625,0,0,0.390625,26,42)"><text fill="#e60000" fill-opacity="1" font-family="Liberation Sans" font-size="40" font-style="normal" font-weight="400" stroke="none" textLength="83" x="0" xml:space="preserve" y="17.9219">ENA</text></g><defs><clipPath id="clip294"><path d="M-10,-3 L90,-3 L90,84 L-10,84 L-10,-3 z"/></clipPath></defs><g clip-path="url(#clip294)" fill="none" opacity="1" stroke="none" stroke-opacity="0" transform="matrix(2,0,0,2,20,6)"><path d="M0,0 L80,0 L80,81 L0,81 L0,0 z" fill-rule="evenodd" vector-effect="none"/></g></g></svg>
