<?xml version="1.0" encoding="UTF-8"?><svg width="52.9167mm" height="34.1313mm" viewBox="0 0 200 129" xmlns="http://www.w3.org/2000/svg" xmlns:xlink="http://www.w3.org/1999/xlink"><g fill="none" stroke="black" stroke-width="1" fill-rule="evenodd" stroke-linecap="square" stroke-linejoin="bevel"><g clip-path="none" fill="none" opacity="1" stroke="none" stroke-opacity="0" transform="matrix(1,0,0,1,0,0)"><path d="M0,0 L200,0 L200,129 L0,129 L0,0 z" fill-rule="evenodd" vector-effect="none"/></g><defs><clipPath id="clip6"><path d="M0,0 L10,0 L10,10 L0,10 L0,0 z"/></clipPath></defs><g clip-path="url(#clip6)" fill="#b3b3b3" fill-opacity="1" opacity="1" stroke="none" stroke-opacity="0" transform="matrix(-2.96276e-16,1.6129,-1.6129,-2.96276e-16,154.839,112.903)"><path d="M0.5,3.5 L3.5,3.5 L3.5,6.5 L0.5,6.5 L0.5,3.5 z" fill-rule="evenodd" vector-effect="none"/></g><defs><clipPath id="clip8"><path d="M0,0 L10,0 L10,10 L0,10 L0,0 z"/></clipPath></defs><g clip-path="url(#clip8)" fill="#000000" fill-opacity="1" opacity="1" stroke="none" stroke-opacity="0" transform="matrix(-2.96276e-16,1.6129,-1.6129,-2.96276e-16,154.839,112.903)"><path d="M3,4 L3,6 L1,6 L1,4 L3,4 M4,3 L0,3 L0,7 L4,7 L4,3" fill-rule="nonzero" vector-effect="none"/></g><defs><clipPath id="clip28"><path d="M0,0 L10,0 L10,10 L0,10 L0,0 z"/></clipPath></defs><g clip-path="url(#clip28)" fill="#b3b3b3" fill-opacity="1" opacity="1" stroke="none" stroke-opacity="0" transform="matrix(-2.96276e-16,1.6129,-1.6129,-2.96276e-16,58.0645,112.903)"><path d="M0.5,3.5 L3.5,3.5 L3.5,6.5 L0.5,6.5 L0.5,3.5 z" fill-rule="evenodd" vector-effect="none"/></g><defs><clipPath id="clip30"><path d="M0,0 L10,0 L10,10 L0,10 L0,0 z"/></clipPath></defs><g clip-path="url(#clip30)" fill="#000000" fill-opacity="1" opacity="1" stroke="none" stroke-opacity="0" transform="matrix(-2.96276e-16,1.6129,-1.6129,-2.96276e-16,58.0645,112.903)"><path d="M3,4 L3,6 L1,6 L1,4 L3,4 M4,3 L0,3 L0,7 L4,7 L4,3" fill-rule="nonzero" vector-effect="none"/></g><defs><clipPath id="clip50"><path d="M0,0 L10,0 L10,10 L0,10 L0,0 z"/></clipPath></defs><g clip-path="url(#clip50)" fill="#b3b3b3" fill-opacity="1" opacity="1" stroke="none" stroke-opacity="0" transform="matrix(9.87586e-17,-1.6129,1.6129,9.87586e-17,141.935,16.129)"><path d="M0.5,3.5 L3.5,3.5 L3.5,6.5 L0.5,6.5 L0.5,3.5 z" fill-rule="evenodd" vector-effect="none"/></g><defs><clipPath id="clip52"><path d="M0,0 L10,0 L10,10 L0,10 L0,0 z"/></clipPath></defs><g clip-path="url(#clip52)" fill="#000000" fill-opacity="1" opacity="1" stroke="none" stroke-opacity="0" transform="matrix(9.87586e-17,-1.6129,1.6129,9.87586e-17,141.935,16.129)"><path d="M3,4 L3,6 L1,6 L1,4 L3,4 M4,3 L0,3 L0,7 L4,7 L4,3" fill-rule="nonzero" vector-effect="none"/></g><defs><clipPath id="clip72"><path d="M0,0 L10,0 L10,10 L0,10 L0,0 z"/></clipPath></defs><g clip-path="url(#clip72)" fill="#b3b3b3" fill-opacity="1" opacity="1" stroke="none" stroke-opacity="0" transform="matrix(9.87586e-17,-1.6129,1.6129,9.87586e-17,45.1613,16.129)"><path d="M0.5,3.5 L3.5,3.5 L3.5,6.5 L0.5,6.5 L0.5,3.5 z" fill-rule="evenodd" vector-effect="none"/></g><defs><clipPath id="clip74"><path d="M0,0 L10,0 L10,10 L0,10 L0,0 z"/></clipPath></defs><g clip-path="url(#clip74)" fill="#000000" fill-opacity="1" opacity="1" stroke="none" stroke-opacity="0" transform="matrix(9.87586e-17,-1.6129,1.6129,9.87586e-17,45.1613,16.129)"><path d="M3,4 L3,6 L1,6 L1,4 L3,4 M4,3 L0,3 L0,7 L4,7 L4,3" fill-rule="nonzero" vector-effect="none"/></g><defs><clipPath id="clip91"><path d="M-2,-10 L122,-10 L122,70 L-2,70 L-2,-10 z"/></clipPath></defs><g clip-path="url(#clip91)" fill="#ffffff" fill-opacity="1" opacity="1" stroke="none" stroke-opacity="0" transform="matrix(1.6129,0,0,1.6129,3.22581,16.129)"><path d="M0,0 L120,0 L120,60 L0,60 L0,0 z" fill-rule="evenodd" vector-effect="none"/></g><defs><clipPath id="clip95"><path d="M0,0 L120,0 L120,60 L0,60 L0,0 z"/></clipPath></defs><g clip-path="url(#clip95)" fill="none" opacity="1" stroke="none" stroke-opacity="0" transform="matrix(1.6129,0,0,1.6129,3.22581,16.129)"><path d="M0,0 L120,0 L120,60 L0,60 L0,0 z" fill-rule="evenodd" vector-effect="none"/></g><defs><clipPath id="clip105"><path d="M1,1 L61,1 L61,121 L1,121 L1,1 z"/></clipPath></defs><g clip-path="url(#clip105)" fill="none" opacity="1" stroke="#000000" stroke-linecap="butt" stroke-linejoin="miter" stroke-miterlimit="4" stroke-opacity="1" stroke-width="3.0225" transform="matrix(2.96276e-16,1.6129,1.6129,-2.96276e-16,1.6129,14.5161)"><path d="M30.9784,41.6587 L30.9784,44.9893" fill-rule="nonzero" vector-effect="none"/></g><defs><clipPath id="clip106"><path d="M1,1 L61,1 L61,121 L1,121 L1,1 z"/></clipPath></defs><g clip-path="url(#clip106)" fill="none" opacity="1" stroke="#000000" stroke-linecap="butt" stroke-linejoin="miter" stroke-miterlimit="4" stroke-opacity="1" stroke-width="3.0225" transform="matrix(2.96276e-16,1.6129,1.6129,-2.96276e-16,1.6129,14.5161)"><path d="M30.9784,77.6602 L30.9784,80.9908" fill-rule="nonzero" vector-effect="none"/></g><defs><clipPath id="clip107"><path d="M1,1 L61,1 L61,121 L1,121 L1,1 z"/></clipPath></defs><g clip-path="url(#clip107)" fill="none" opacity="1" stroke="#000000" stroke-linecap="butt" stroke-linejoin="miter" stroke-miterlimit="4" stroke-opacity="1" stroke-width="3.0225" transform="matrix(2.96276e-16,1.6129,1.6129,-2.96276e-16,1.6129,14.5161)"><path d="M17.3387,47.6566 L44.6036,47.6566 L44.6036,74.3155 L17.3387,74.3155 L17.3387,47.6566 z" fill-rule="nonzero" vector-effect="none"/></g><defs><clipPath id="clip108"><path d="M1,1 L61,1 L61,121 L1,121 L1,1 z"/></clipPath></defs><g clip-path="url(#clip108)" fill="none" opacity="1" stroke="#000000" stroke-linecap="butt" stroke-linejoin="miter" stroke-miterlimit="4" stroke-opacity="1" stroke-width="3.0225" transform="matrix(2.96276e-16,1.6129,1.6129,-2.96276e-16,1.6129,14.5161)"><path d="M21.1636,51.8339 L40.8076,51.8339 L40.8076,71.1825" fill-rule="nonzero" vector-effect="none"/></g><defs><clipPath id="clip109"><path d="M1,1 L61,1 L61,121 L1,121 L1,1 z"/></clipPath></defs><g clip-path="url(#clip109)" fill="none" opacity="1" stroke="#ffffff" stroke-linecap="butt" stroke-linejoin="miter" stroke-miterlimit="4" stroke-opacity="1" stroke-width="3.0225" transform="matrix(2.96276e-16,1.6129,1.6129,-2.96276e-16,1.6129,14.5161)"><path d="M1,1 L61.0001,1 L61.0001,121 L1,121 L1,1 z" fill-rule="nonzero" vector-effect="none"/></g><defs><clipPath id="clip110"><path d="M1,1 L61,1 L61,121 L1,121 L1,1 z"/></clipPath></defs><g clip-path="url(#clip110)" fill="none" opacity="1" stroke="#000000" stroke-linecap="butt" stroke-linejoin="miter" stroke-miterlimit="4" stroke-opacity="1" stroke-width="3.0225" transform="matrix(2.96276e-16,1.6129,1.6129,-2.96276e-16,1.6129,14.5161)"><path d="M22.7946,50.3239 L22.8235,50.338 L22.9245,50.3803 L23.0688,50.4509 L23.2998,50.5779 L23.6173,50.719 L24.007,50.9166 L24.4833,51.1565 L25.0173,51.4247 L25.5947,51.7069 L26.172,52.0033 L26.7638,52.3138 L27.3556,52.6101 L27.9329,52.9065 L28.4814,53.2029 L29.0154,53.4569 L29.4773,53.725 L29.9392,53.9791 L30.3577,54.219 L30.733,54.4448 L31.1083,54.6706 L31.4403,54.8682 L31.7578,55.0799 L32.0609,55.2774 L32.3496,55.475 L32.6238,55.6867 L32.9413,55.9266 L33.2444,56.1665 L33.5331,56.4065 L33.8362,56.6746 L34.1104,56.9286 L34.3847,57.2109 L34.6734,57.4931 L34.9476,57.7895 L35.2218,58.0859 L35.4816,58.3822 L35.7414,58.6927 L36.0012,59.0032 L36.2466,59.3137 L36.4775,59.6242 L36.7085,59.9346 L36.925,60.2451 L37.1415,60.5556 L37.3291,60.852 L37.5312,61.1483 L37.7188,61.4447 L37.9065,61.7411 L38.1085,62.0374 L38.2673,62.3056 L38.4405,62.5878 L38.5993,62.8701 L38.7869,63.1664 L38.989,63.4769 L39.1766,63.8015 L39.3787,64.1543 L39.6096,64.5354 L39.8261,64.9305 L40.0859,65.3398 L40.3457,65.8055 L40.62,66.2712 L40.8942,66.7511 L41.1829,67.2309 L41.4571,67.7107 L41.7169,68.1623 L41.9334,68.5575 L42.1499,68.9244 L42.3231,69.1926 L42.4386,69.4043 L42.5107,69.5454 L42.554,69.6301 L42.5685,69.6583" fill-rule="nonzero" vector-effect="none"/></g><defs><clipPath id="clip111"><path d="M1,1 L61,1 L61,121 L1,121 L1,1 z"/></clipPath></defs><g clip-path="url(#clip111)" fill="none" opacity="1" stroke="#3369c9" stroke-linecap="butt" stroke-linejoin="miter" stroke-miterlimit="4" stroke-opacity="1" stroke-width="3.0225" transform="matrix(2.96276e-16,1.6129,1.6129,-2.96276e-16,1.6129,14.5161)"><path d="M39.4075,31.4693 C39.4075,36.0211 35.6337,39.7111 30.9784,39.7111 C26.3231,39.7111 22.5492,36.0211 22.5492,31.4693 C22.5492,26.9175 26.3231,23.2275 30.9784,23.2275 C35.6337,23.2275 39.4075,26.9175 39.4075,31.4693 z" fill-rule="nonzero" vector-effect="none"/></g><defs><clipPath id="clip112"><path d="M1,1 L61,1 L61,121 L1,121 L1,1 z"/></clipPath></defs><g clip-path="url(#clip112)" fill="none" opacity="1" stroke="#3369c9" stroke-linecap="butt" stroke-linejoin="miter" stroke-miterlimit="4" stroke-opacity="1" stroke-width="3.0225" transform="matrix(2.96276e-16,1.6129,1.6129,-2.96276e-16,1.6129,14.5161)"><path d="M1,31.4693 L22.7946,31.4693" fill-rule="nonzero" vector-effect="none"/></g><defs><clipPath id="clip113"><path d="M1,1 L61,1 L61,121 L1,121 L1,1 z"/></clipPath></defs><g clip-path="url(#clip113)" fill="none" opacity="1" stroke="#3369c9" stroke-linecap="butt" stroke-linejoin="miter" stroke-miterlimit="4" stroke-opacity="1" stroke-width="3.0225" transform="matrix(2.96276e-16,1.6129,1.6129,-2.96276e-16,1.6129,14.5161)"><path d="M24.1658,31.4693 L37.8054,31.4693" fill-rule="nonzero" vector-effect="none"/></g><defs><clipPath id="clip114"><path d="M1,1 L61,1 L61,121 L1,121 L1,1 z"/></clipPath></defs><g clip-path="url(#clip114)" fill="none" opacity="1" stroke="#3369c9" stroke-linecap="butt" stroke-linejoin="miter" stroke-miterlimit="4" stroke-opacity="1" stroke-width="3.0225" transform="matrix(2.96276e-16,1.6129,1.6129,-2.96276e-16,1.6129,14.5161)"><path d="M37.8054,31.4693 L33.7063,27.4613" fill-rule="nonzero" vector-effect="none"/></g><defs><clipPath id="clip115"><path d="M1,1 L61,1 L61,121 L1,121 L1,1 z"/></clipPath></defs><g clip-path="url(#clip115)" fill="none" opacity="1" stroke="#3369c9" stroke-linecap="butt" stroke-linejoin="miter" stroke-miterlimit="4" stroke-opacity="1" stroke-width="3.0225" transform="matrix(2.96276e-16,1.6129,1.6129,-2.96276e-16,1.6129,14.5161)"><path d="M33.7063,35.4632 L37.8054,31.4693" fill-rule="nonzero" vector-effect="none"/></g><defs><clipPath id="clip116"><path d="M1,1 L61,1 L61,121 L1,121 L1,1 z"/></clipPath></defs><g clip-path="url(#clip116)" fill="none" opacity="1" stroke="#3369c9" stroke-linecap="butt" stroke-linejoin="miter" stroke-miterlimit="4" stroke-opacity="1" stroke-width="3.0225" transform="matrix(2.96276e-16,1.6129,1.6129,-2.96276e-16,1.6129,14.5161)"><path d="M39.1622,31.4693 L60.9856,31.4693" fill-rule="nonzero" vector-effect="none"/></g><defs><clipPath id="clip117"><path d="M1,1 L61,1 L61,121 L1,121 L1,1 z"/></clipPath></defs><g clip-path="url(#clip117)" fill="none" opacity="1" stroke="#35d461" stroke-linecap="butt" stroke-linejoin="miter" stroke-miterlimit="4" stroke-opacity="1" stroke-width="3.0225" transform="matrix(2.96276e-16,1.6129,1.6129,-2.96276e-16,1.6129,14.5161)"><path d="M26.8937,82.8113 L26.8793,82.8254 L26.8215,82.8678 L26.7205,82.9383 L26.5906,83.0371 L26.403,83.1783 L26.1576,83.3758 L25.8978,83.6016 L25.5658,83.8557 L25.2338,84.152 L24.873,84.4766 L24.4977,84.8153 L24.1369,85.1823 L23.7761,85.5492 L23.4008,85.9726 L23.0688,86.3818 L22.7369,86.8334 L22.4482,87.2992 L22.1739,87.7931 L21.9286,88.3294 L21.7265,88.908 L21.5677,89.5149 L21.4667,90.1499 L21.4378,90.8132 L21.4667,91.4765 L21.5677,92.1116 L21.7265,92.7184 L21.9286,93.2971 L22.1739,93.8333 L22.4482,94.3273 L22.7369,94.793 L23.0688,95.2446 L23.4008,95.6539 L23.7761,96.0773 L24.1369,96.4442 L24.5122,96.8111 L24.873,97.1498 L25.2338,97.4744 L25.5658,97.7708 L25.8978,98.0248 L26.1576,98.2506 L26.403,98.4482 L26.5906,98.5893 L26.7205,98.7022 L26.8215,98.7587 L26.8793,98.801 L26.8937,98.8151" fill-rule="nonzero" vector-effect="none"/></g><defs><clipPath id="clip118"><path d="M1,1 L61,1 L61,121 L1,121 L1,1 z"/></clipPath></defs><g clip-path="url(#clip118)" fill="none" opacity="1" stroke="#35d461" stroke-linecap="butt" stroke-linejoin="miter" stroke-miterlimit="4" stroke-opacity="1" stroke-width="3.0225" transform="matrix(2.96276e-16,1.6129,1.6129,-2.96276e-16,1.6129,14.5161)"><path d="M21.4378,90.8132 L1,90.8132" fill-rule="nonzero" vector-effect="none"/></g><defs><clipPath id="clip119"><path d="M1,1 L61,1 L61,121 L1,121 L1,1 z"/></clipPath></defs><g clip-path="url(#clip119)" fill="none" opacity="1" stroke="#35d461" stroke-linecap="butt" stroke-linejoin="miter" stroke-miterlimit="4" stroke-opacity="1" stroke-width="3.0225" transform="matrix(2.96276e-16,1.6129,1.6129,-2.96276e-16,1.6129,14.5161)"><path d="M26.8937,82.8113 L37.8054,82.8113 L37.8054,98.8151 L26.8937,98.8151" fill-rule="nonzero" vector-effect="none"/></g><defs><clipPath id="clip120"><path d="M1,1 L61,1 L61,121 L1,121 L1,1 z"/></clipPath></defs><g clip-path="url(#clip120)" fill="none" opacity="1" stroke="#35d461" stroke-linecap="butt" stroke-linejoin="miter" stroke-miterlimit="4" stroke-opacity="1" stroke-width="3.0225" transform="matrix(2.96276e-16,1.6129,1.6129,-2.96276e-16,1.6129,14.5161)"><path d="M37.8054,90.8132 L60.9856,90.8132" fill-rule="nonzero" vector-effect="none"/></g><defs><clipPath id="clip121"><path d="M1,1 L61,1 L61,121 L1,121 L1,1 z"/></clipPath></defs><g clip-path="url(#clip121)" fill="none" opacity="1" stroke="#35d461" stroke-linecap="butt" stroke-linejoin="miter" stroke-miterlimit="4" stroke-opacity="1" stroke-width="3.0225" transform="matrix(2.96276e-16,1.6129,1.6129,-2.96276e-16,1.6129,14.5161)"><path d="M34.3847,90.8132 L26.8937,90.8132" fill-rule="nonzero" vector-effect="none"/></g><defs><clipPath id="clip122"><path d="M1,1 L61,1 L61,121 L1,121 L1,1 z"/></clipPath></defs><g clip-path="url(#clip122)" fill="none" opacity="1" stroke="#35d461" stroke-linecap="butt" stroke-linejoin="miter" stroke-miterlimit="4" stroke-opacity="1" stroke-width="3.0225" transform="matrix(2.96276e-16,1.6129,1.6129,-2.96276e-16,1.6129,14.5161)"><path d="M30.9784,86.8193 L26.8937,90.8132 L30.9784,94.8212" fill-rule="nonzero" vector-effect="none"/></g><defs><clipPath id="clip123"><path d="M1,1 L61,1 L61,121 L1,121 L1,1 z"/></clipPath></defs><g clip-path="url(#clip123)" fill="none" opacity="1" stroke="#35d461" stroke-linecap="butt" stroke-linejoin="miter" stroke-miterlimit="4" stroke-opacity="1" stroke-width="3.0225" transform="matrix(2.96276e-16,1.6129,1.6129,-2.96276e-16,1.6129,14.5161)"><path d="M30.9784,84.8153 L24.8441,90.8132 L30.9784,96.8111" fill-rule="nonzero" vector-effect="none"/></g><defs><clipPath id="clip140"><path d="M-15,-461 L292,-461 L292,154 L-15,154 L-15,-461 z"/></clipPath></defs><g clip-path="url(#clip140)" fill="none" opacity="1" stroke="#e60000" stroke-linecap="square" stroke-linejoin="bevel" stroke-opacity="1" stroke-width="1" transform="matrix(0,-0.31502,0.31502,0,148.387,108.065)"><text fill="#e60000" fill-opacity="1" font-family="Liberation Sans" font-size="40" font-style="normal" font-weight="400" stroke="none" textLength="29" x="0" xml:space="preserve" y="17.9219">C</text></g><defs><clipPath id="clip143"><path d="M-292,-461 L15,-461 L15,154 L-292,154 L-292,-461 z"/></clipPath></defs><g clip-path="url(#clip143)" fill="none" opacity="1" stroke="#e60000" stroke-linecap="square" stroke-linejoin="bevel" stroke-opacity="1" stroke-width="1" transform="matrix(0,-0.31502,0.31502,0,148.387,20.9677)"><text fill="#e60000" fill-opacity="1" font-family="Liberation Sans" font-size="40" font-style="normal" font-weight="400" stroke="none" textLength="29" x="-36.9531" xml:space="preserve" y="17.9219">R</text></g><defs><clipPath id="clip146"><path d="M-15,-154 L292,-154 L292,461 L-15,461 L-15,-154 z"/></clipPath></defs><g clip-path="url(#clip146)" fill="none" opacity="1" stroke="#e60000" stroke-linecap="square" stroke-linejoin="bevel" stroke-opacity="1" stroke-width="1" transform="matrix(0,-0.31502,0.31502,0,51.6129,108.065)"><text fill="#e60000" fill-opacity="1" font-family="Liberation Sans" font-size="40" font-style="normal" font-weight="400" stroke="none" textLength="13" x="0" xml:space="preserve" y="17.9219">-</text></g><defs><clipPath id="clip149"><path d="M-292,-154 L15,-154 L15,461 L-292,461 L-292,-154 z"/></clipPath></defs><g clip-path="url(#clip149)" fill="none" opacity="1" stroke="#e60000" stroke-linecap="square" stroke-linejoin="bevel" stroke-opacity="1" stroke-width="1" transform="matrix(0,-0.31502,0.31502,0,51.6129,20.9677)"><text fill="#e60000" fill-opacity="1" font-family="Liberation Sans" font-size="40" font-style="normal" font-weight="400" stroke="none" textLength="23" x="-29.8906" xml:space="preserve" y="17.9219">+</text></g><defs><clipPath id="clip155"><path d="M-2,-10 L122,-10 L122,70 L-2,70 L-2,-10 z"/></clipPath></defs><g clip-path="url(#clip155)" fill="none" opacity="1" stroke="none" stroke-opacity="0" transform="matrix(1.6129,0,0,1.6129,3.22581,16.129)"><path d="M0,0 L120,0 L120,60 L0,60 L0,0 z" fill-rule="evenodd" vector-effect="none"/></g></g></svg>
