<?xml version="1.0" encoding="UTF-8"?><svg width="52.9167mm" height="43.9208mm" viewBox="0 0 200 166" xmlns="http://www.w3.org/2000/svg" xmlns:xlink="http://www.w3.org/1999/xlink"><g fill="none" stroke="black" stroke-width="1" fill-rule="evenodd" stroke-linecap="square" stroke-linejoin="bevel"><g clip-path="none" fill="none" opacity="1" stroke="none" stroke-opacity="0" transform="matrix(1,0,0,1,0,0)"><path d="M0,0 L200,0 L200,166 L0,166 L0,0 z" fill-rule="evenodd" vector-effect="none"/></g><defs><clipPath id="clip6"><path d="M0,0 L10,0 L10,10 L0,10 L0,0 z"/></clipPath></defs><g clip-path="url(#clip6)" fill="#b3b3b3" fill-opacity="1" opacity="1" stroke="none" stroke-opacity="0" transform="matrix(-4.37359e-16,2.38095,-2.38095,-4.37359e-16,157.143,142.857)"><path d="M0.5,3.5 L3.5,3.5 L3.5,6.5 L0.5,6.5 L0.5,3.5 z" fill-rule="evenodd" vector-effect="none"/></g><defs><clipPath id="clip8"><path d="M0,0 L10,0 L10,10 L0,10 L0,0 z"/></clipPath></defs><g clip-path="url(#clip8)" fill="#000000" fill-opacity="1" opacity="1" stroke="none" stroke-opacity="0" transform="matrix(-4.37359e-16,2.38095,-2.38095,-4.37359e-16,157.143,142.857)"><path d="M3,4 L3,6 L1,6 L1,4 L3,4 M4,3 L0,3 L0,7 L4,7 L4,3" fill-rule="nonzero" vector-effect="none"/></g><defs><clipPath id="clip28"><path d="M0,0 L10,0 L10,10 L0,10 L0,0 z"/></clipPath></defs><g clip-path="url(#clip28)" fill="#b3b3b3" fill-opacity="1" opacity="1" stroke="none" stroke-opacity="0" transform="matrix(-4.37359e-16,2.38095,-2.38095,-4.37359e-16,61.9048,142.857)"><path d="M0.5,3.5 L3.5,3.5 L3.5,6.5 L0.5,6.5 L0.5,3.5 z" fill-rule="evenodd" vector-effect="none"/></g><defs><clipPath id="clip30"><path d="M0,0 L10,0 L10,10 L0,10 L0,0 z"/></clipPath></defs><g clip-path="url(#clip30)" fill="#000000" fill-opacity="1" opacity="1" stroke="none" stroke-opacity="0" transform="matrix(-4.37359e-16,2.38095,-2.38095,-4.37359e-16,61.9048,142.857)"><path d="M3,4 L3,6 L1,6 L1,4 L3,4 M4,3 L0,3 L0,7 L4,7 L4,3" fill-rule="nonzero" vector-effect="none"/></g><defs><clipPath id="clip50"><path d="M0,0 L10,0 L10,10 L0,10 L0,0 z"/></clipPath></defs><g clip-path="url(#clip50)" fill="#b3b3b3" fill-opacity="1" opacity="1" stroke="none" stroke-opacity="0" transform="matrix(1.45786e-16,-2.38095,2.38095,1.45786e-16,138.095,23.8095)"><path d="M0.5,3.5 L3.5,3.5 L3.5,6.5 L0.5,6.5 L0.5,3.5 z" fill-rule="evenodd" vector-effect="none"/></g><defs><clipPath id="clip52"><path d="M0,0 L10,0 L10,10 L0,10 L0,0 z"/></clipPath></defs><g clip-path="url(#clip52)" fill="#000000" fill-opacity="1" opacity="1" stroke="none" stroke-opacity="0" transform="matrix(1.45786e-16,-2.38095,2.38095,1.45786e-16,138.095,23.8095)"><path d="M3,4 L3,6 L1,6 L1,4 L3,4 M4,3 L0,3 L0,7 L4,7 L4,3" fill-rule="nonzero" vector-effect="none"/></g><defs><clipPath id="clip72"><path d="M0,0 L10,0 L10,10 L0,10 L0,0 z"/></clipPath></defs><g clip-path="url(#clip72)" fill="#b3b3b3" fill-opacity="1" opacity="1" stroke="none" stroke-opacity="0" transform="matrix(1.45786e-16,-2.38095,2.38095,1.45786e-16,42.8571,23.8095)"><path d="M0.5,3.5 L3.5,3.5 L3.5,6.5 L0.5,6.5 L0.5,3.5 z" fill-rule="evenodd" vector-effect="none"/></g><defs><clipPath id="clip74"><path d="M0,0 L10,0 L10,10 L0,10 L0,0 z"/></clipPath></defs><g clip-path="url(#clip74)" fill="#000000" fill-opacity="1" opacity="1" stroke="none" stroke-opacity="0" transform="matrix(1.45786e-16,-2.38095,2.38095,1.45786e-16,42.8571,23.8095)"><path d="M3,4 L3,6 L1,6 L1,4 L3,4 M4,3 L0,3 L0,7 L4,7 L4,3" fill-rule="nonzero" vector-effect="none"/></g><defs><clipPath id="clip91"><path d="M-2,-10 L82,-10 L82,60 L-2,60 L-2,-10 z"/></clipPath></defs><g clip-path="url(#clip91)" fill="#ffffff" fill-opacity="1" opacity="1" stroke="none" stroke-opacity="0" transform="matrix(2.38095,0,0,2.38095,4.7619,23.8095)"><path d="M0,0 L80,0 L80,50 L0,50 L0,0 z" fill-rule="evenodd" vector-effect="none"/></g><defs><clipPath id="clip95"><path d="M0,0 L80,0 L80,50 L0,50 L0,0 z"/></clipPath></defs><g clip-path="url(#clip95)" fill="none" opacity="1" stroke="none" stroke-opacity="0" transform="matrix(2.38095,0,0,2.38095,4.7619,23.8095)"><path d="M0,0 L80,0 L80,50 L0,50 L0,0 z" fill-rule="evenodd" vector-effect="none"/></g><defs><clipPath id="clip105"><path d="M1,1 L51,1 L51,81 L1,81 L1,1 z"/></clipPath></defs><g clip-path="url(#clip105)" fill="none" opacity="1" stroke="#000000" stroke-linecap="butt" stroke-linejoin="miter" stroke-miterlimit="20" stroke-opacity="1" stroke-width="2.6975" transform="matrix(4.37359e-16,2.38095,2.38095,-4.37359e-16,2.38095,21.4286)"><path d="M25.9999,51.6668 L25.9999,47.6668" fill-rule="nonzero" vector-effect="none"/></g><defs><clipPath id="clip106"><path d="M1,1 L51,1 L51,81 L1,81 L1,1 z"/></clipPath></defs><g clip-path="url(#clip106)" fill="none" opacity="1" stroke="#000000" stroke-linecap="butt" stroke-linejoin="miter" stroke-miterlimit="20" stroke-opacity="1" stroke-width="2.6975" transform="matrix(4.37359e-16,2.38095,2.38095,-4.37359e-16,2.38095,21.4286)"><path d="M25.9999,32.3334 L25.9999,36.3334" fill-rule="nonzero" vector-effect="none"/></g><defs><clipPath id="clip107"><path d="M1,1 L51,1 L51,81 L1,81 L1,1 z"/></clipPath></defs><g clip-path="url(#clip107)" fill="none" opacity="1" stroke="#000000" stroke-linecap="butt" stroke-linejoin="miter" stroke-miterlimit="20" stroke-opacity="1" stroke-width="2.6975" transform="matrix(4.37359e-16,2.38095,2.38095,-4.37359e-16,2.38095,21.4286)"><path d="M25.9999,39.6667 L25.9999,43.6667" fill-rule="nonzero" vector-effect="none"/></g><defs><clipPath id="clip108"><path d="M1,1 L51,1 L51,81 L1,81 L1,1 z"/></clipPath></defs><g clip-path="url(#clip108)" fill="none" opacity="1" stroke="#ffffff" stroke-linecap="butt" stroke-linejoin="miter" stroke-miterlimit="20" stroke-opacity="1" stroke-width="2.6975" transform="matrix(4.37359e-16,2.38095,2.38095,-4.37359e-16,2.38095,21.4286)"><path d="M0.999999,1.00001 L50.9999,1.00001 L50.9999,81.0001 L0.999999,81.0001 L0.999999,1.00001 z" fill-rule="nonzero" vector-effect="none"/></g><defs><clipPath id="clip109"><path d="M1,1 L51,1 L51,81 L1,81 L1,1 z"/></clipPath></defs><g clip-path="url(#clip109)" fill="none" opacity="1" stroke="#3369c9" stroke-linecap="butt" stroke-linejoin="miter" stroke-miterlimit="20" stroke-opacity="1" stroke-width="2.6975" transform="matrix(4.37359e-16,2.38095,2.38095,-4.37359e-16,2.38095,21.4286)"><path d="M0.999999,21 L13.5,21" fill-rule="nonzero" vector-effect="none"/></g><defs><clipPath id="clip110"><path d="M1,1 L51,1 L51,81 L1,81 L1,1 z"/></clipPath></defs><g clip-path="url(#clip110)" fill="none" opacity="1" stroke="#3369c9" stroke-linecap="butt" stroke-linejoin="miter" stroke-miterlimit="20" stroke-opacity="1" stroke-width="2.6975" transform="matrix(4.37359e-16,2.38095,2.38095,-4.37359e-16,2.38095,21.4286)"><path d="M39.1249,21 L50.9999,21" fill-rule="nonzero" vector-effect="none"/></g><defs><clipPath id="clip111"><path d="M1,1 L51,1 L51,81 L1,81 L1,1 z"/></clipPath></defs><g clip-path="url(#clip111)" fill="none" opacity="1" stroke="#3369c9" stroke-linecap="butt" stroke-linejoin="miter" stroke-miterlimit="20" stroke-opacity="1" stroke-width="2.6975" transform="matrix(4.37359e-16,2.38095,2.38095,-4.37359e-16,2.38095,21.4286)"><path d="M16,5.00001 L8.49998,5.00001 L8.49998,21" fill-rule="nonzero" vector-effect="none"/></g><defs><clipPath id="clip112"><path d="M1,1 L51,1 L51,81 L1,81 L1,1 z"/></clipPath></defs><g clip-path="url(#clip112)" fill="none" opacity="1" stroke="#3369c9" stroke-linecap="butt" stroke-linejoin="miter" stroke-miterlimit="20" stroke-opacity="1" stroke-width="2.6975" transform="matrix(4.37359e-16,2.38095,2.38095,-4.37359e-16,2.38095,21.4286)"><path d="M35.9999,5.00001 L43.4999,5.00001 L43.4999,21" fill-rule="nonzero" vector-effect="none"/></g><defs><clipPath id="clip113"><path d="M1,1 L51,1 L51,81 L1,81 L1,1 z"/></clipPath></defs><g clip-path="url(#clip113)" fill="none" opacity="1" stroke="#3369c9" stroke-linecap="butt" stroke-linejoin="miter" stroke-miterlimit="4" stroke-opacity="1" stroke-width="2.6975" transform="matrix(4.37359e-16,2.38095,2.38095,-4.37359e-16,2.38095,21.4286)"><path d="M21,5.00001 C21,5.70725 20.7366,6.38555 20.2677,6.88565 C19.7989,7.38572 19.163,7.66668 18.5,7.66668 C17.8369,7.66668 17.201,7.38572 16.7322,6.88565 C16.2634,6.38555 16,5.70725 16,5.00001" fill-rule="nonzero" vector-effect="none"/></g><defs><clipPath id="clip114"><path d="M1,1 L51,1 L51,81 L1,81 L1,1 z"/></clipPath></defs><g clip-path="url(#clip114)" fill="none" opacity="1" stroke="#3369c9" stroke-linecap="butt" stroke-linejoin="miter" stroke-miterlimit="4" stroke-opacity="1" stroke-width="2.6975" transform="matrix(4.37359e-16,2.38095,2.38095,-4.37359e-16,2.38095,21.4286)"><path d="M25.9999,5.00001 C25.9999,5.70725 25.7365,6.38555 25.2678,6.88565 C24.7988,7.38572 24.1629,7.66668 23.5,7.66668 C22.837,7.66668 22.2011,7.38572 21.7322,6.88565 C21.2634,6.38555 21,5.70725 21,5.00001" fill-rule="nonzero" vector-effect="none"/></g><defs><clipPath id="clip115"><path d="M1,1 L51,1 L51,81 L1,81 L1,1 z"/></clipPath></defs><g clip-path="url(#clip115)" fill="none" opacity="1" stroke="#3369c9" stroke-linecap="butt" stroke-linejoin="miter" stroke-miterlimit="4" stroke-opacity="1" stroke-width="2.6975" transform="matrix(4.37359e-16,2.38095,2.38095,-4.37359e-16,2.38095,21.4286)"><path d="M30.9999,5.00001 C30.9999,5.70725 30.7365,6.38555 30.2678,6.88565 C29.7988,7.38572 29.1629,7.66668 28.4999,7.66668 C27.837,7.66668 27.2011,7.38572 26.7321,6.88565 C26.2634,6.38555 25.9999,5.70725 25.9999,5.00001" fill-rule="nonzero" vector-effect="none"/></g><defs><clipPath id="clip116"><path d="M1,1 L51,1 L51,81 L1,81 L1,1 z"/></clipPath></defs><g clip-path="url(#clip116)" fill="none" opacity="1" stroke="#3369c9" stroke-linecap="butt" stroke-linejoin="miter" stroke-miterlimit="4" stroke-opacity="1" stroke-width="2.6975" transform="matrix(4.37359e-16,2.38095,2.38095,-4.37359e-16,2.38095,21.4286)"><path d="M35.9999,5.00001 C35.9999,5.70725 35.7365,6.38555 35.2678,6.88565 C34.7988,7.38572 34.1629,7.66668 33.4999,7.66668 C32.837,7.66668 32.2011,7.38572 31.7321,6.88565 C31.2634,6.38555 30.9999,5.70725 30.9999,5.00001" fill-rule="nonzero" vector-effect="none"/></g><defs><clipPath id="clip117"><path d="M1,1 L51,1 L51,81 L1,81 L1,1 z"/></clipPath></defs><g clip-path="url(#clip117)" fill="none" opacity="1" stroke="#3369c9" stroke-linecap="butt" stroke-linejoin="miter" stroke-miterlimit="4" stroke-opacity="1" stroke-width="2.6975" transform="matrix(4.37359e-16,2.38095,2.38095,-4.37359e-16,2.38095,21.4286)"><path d="M35.3749,21 C35.3749,26.3429 31.3144,30.6741 26.3055,30.6741 C21.2966,30.6741 17.2361,26.3429 17.2361,21 C17.2361,15.6572 21.2966,11.3259 26.3055,11.3259 C31.3144,11.3259 35.3749,15.6572 35.3749,21 z" fill-rule="nonzero" vector-effect="none"/></g><defs><clipPath id="clip118"><path d="M1,1 L51,1 L51,81 L1,81 L1,1 z"/></clipPath></defs><g clip-path="url(#clip118)" fill="none" opacity="1" stroke="#3369c9" stroke-linecap="butt" stroke-linejoin="miter" stroke-miterlimit="20" stroke-opacity="1" stroke-width="2.6975" transform="matrix(4.37359e-16,2.38095,2.38095,-4.37359e-16,2.38095,21.4286)"><path d="M13.5,17 L17.25,17 L17.25,25 L13.5,25 L13.5,17 z" fill-rule="nonzero" vector-effect="none"/></g><defs><clipPath id="clip119"><path d="M1,1 L51,1 L51,81 L1,81 L1,1 z"/></clipPath></defs><g clip-path="url(#clip119)" fill="none" opacity="1" stroke="#3369c9" stroke-linecap="butt" stroke-linejoin="miter" stroke-miterlimit="20" stroke-opacity="1" stroke-width="2.6975" transform="matrix(4.37359e-16,2.38095,2.38095,-4.37359e-16,2.38095,21.4286)"><path d="M35.3749,17 L39.1249,17 L39.1249,25 L35.3749,25 L35.3749,17 z" fill-rule="nonzero" vector-effect="none"/></g><defs><clipPath id="clip120"><path d="M1,1 L51,1 L51,81 L1,81 L1,1 z"/></clipPath></defs><g clip-path="url(#clip120)" fill="none" opacity="1" stroke="#35d461" stroke-linecap="butt" stroke-linejoin="miter" stroke-miterlimit="20" stroke-opacity="1" stroke-width="2.6975" transform="matrix(4.37359e-16,2.38095,2.38095,-4.37359e-16,2.38095,21.4286)"><path d="M25.9999,57.0001 L22.25,61.0001 L25.9999,65.0001" fill-rule="nonzero" vector-effect="none"/></g><defs><clipPath id="clip121"><path d="M1,1 L51,1 L51,81 L1,81 L1,1 z"/></clipPath></defs><g clip-path="url(#clip121)" fill="none" opacity="1" stroke="#35d461" stroke-linecap="butt" stroke-linejoin="miter" stroke-miterlimit="20" stroke-opacity="1" stroke-width="2.6975" transform="matrix(4.37359e-16,2.38095,2.38095,-4.37359e-16,2.38095,21.4286)"><path d="M25.9999,54.3334 L19.75,61.0001 L25.9999,67.6668" fill-rule="nonzero" vector-effect="none"/></g><defs><clipPath id="clip122"><path d="M1,1 L51,1 L51,81 L1,81 L1,1 z"/></clipPath></defs><g clip-path="url(#clip122)" fill="none" opacity="1" stroke="#35d461" stroke-linecap="butt" stroke-linejoin="miter" stroke-miterlimit="20" stroke-opacity="1" stroke-width="2.6975" transform="matrix(4.37359e-16,2.38095,2.38095,-4.37359e-16,2.38095,21.4286)"><path d="M22.25,53.6668 L32.2499,53.6668 L32.2499,68.3335 L22.25,68.3335" fill-rule="nonzero" vector-effect="none"/></g><defs><clipPath id="clip123"><path d="M1,1 L51,1 L51,81 L1,81 L1,1 z"/></clipPath></defs><g clip-path="url(#clip123)" fill="none" opacity="1" stroke="#35d461" stroke-linecap="butt" stroke-linejoin="miter" stroke-miterlimit="20" stroke-opacity="1" stroke-width="2.6975" transform="matrix(4.37359e-16,2.38095,2.38095,-4.37359e-16,2.38095,21.4286)"><path d="M17.25,61.0001 L0.999999,61.0001" fill-rule="nonzero" vector-effect="none"/></g><defs><clipPath id="clip124"><path d="M1,1 L51,1 L51,81 L1,81 L1,1 z"/></clipPath></defs><g clip-path="url(#clip124)" fill="none" opacity="1" stroke="#35d461" stroke-linecap="butt" stroke-linejoin="miter" stroke-miterlimit="20" stroke-opacity="1" stroke-width="2.6975" transform="matrix(4.37359e-16,2.38095,2.38095,-4.37359e-16,2.38095,21.4286)"><path d="M32.2499,61.0001 L50.9999,61.0001" fill-rule="nonzero" vector-effect="none"/></g><defs><clipPath id="clip125"><path d="M1,1 L51,1 L51,81 L1,81 L1,1 z"/></clipPath></defs><g clip-path="url(#clip125)" fill="none" opacity="1" stroke="#35d461" stroke-linecap="butt" stroke-linejoin="miter" stroke-miterlimit="20" stroke-opacity="1" stroke-width="2.6975" transform="matrix(4.37359e-16,2.38095,2.38095,-4.37359e-16,2.38095,21.4286)"><path d="M29.1249,61.0001 L22.25,61.0001" fill-rule="nonzero" vector-effect="none"/></g><defs><clipPath id="clip126"><path d="M1,1 L51,1 L51,81 L1,81 L1,1 z"/></clipPath></defs><g clip-path="url(#clip126)" fill="none" opacity="1" stroke="#35d461" stroke-linecap="butt" stroke-linejoin="miter" stroke-miterlimit="20" stroke-opacity="1" stroke-width="2.6975" transform="matrix(4.37359e-16,2.38095,2.38095,-4.37359e-16,2.38095,21.4286)"><path d="M22.25,53.6668 C22.25,53.6668 22.2458,53.6712 22.1847,53.7391 C22.1233,53.807 22.0058,53.9376 21.8203,54.1465 C21.6347,54.3554 21.382,54.6416 21.0799,54.99 C20.7778,55.3386 20.427,55.7482 20.0625,56.1875 C19.6979,56.6268 19.3203,57.0947 18.9693,57.5552 C18.6184,58.0159 18.2949,58.4685 18.0312,58.8875 C17.7675,59.3065 17.5645,59.6907 17.4349,60.0381 C17.3053,60.3853 17.25,60.6944 17.25,61.0001 C17.25,61.3055 17.3053,61.6149 17.4349,61.9621 C17.5645,62.3095 17.7675,62.6937 18.0312,63.1127 C18.2949,63.5317 18.6184,63.9843 18.9693,64.4451 C19.3203,64.9055 19.6979,65.3735 20.0625,65.8127 C20.427,66.252 20.7778,66.6616 21.0799,67.0102 C21.382,67.3586 21.6347,67.6448 21.8203,67.8537 C22.0058,68.0626 22.1233,68.1932 22.1847,68.2611 C22.2458,68.329 22.25,68.3335 22.25,68.3335" fill-rule="nonzero" vector-effect="none"/></g><defs><clipPath id="clip143"><path d="M-15,-307 L241,-307 L241,102 L-15,102 L-15,-307 z"/></clipPath></defs><g clip-path="url(#clip143)" fill="none" opacity="1" stroke="#e60000" stroke-linecap="square" stroke-linejoin="bevel" stroke-opacity="1" stroke-width="1" transform="matrix(0,-0.46503,0.46503,0,147.619,135.714)"><text fill="#e60000" fill-opacity="1" font-family="Liberation Sans" font-size="40" font-style="normal" font-weight="400" stroke="none" textLength="29" x="0" xml:space="preserve" y="17.9219">C</text></g><defs><clipPath id="clip146"><path d="M-241,-307 L15,-307 L15,102 L-241,102 L-241,-307 z"/></clipPath></defs><g clip-path="url(#clip146)" fill="none" opacity="1" stroke="#e60000" stroke-linecap="square" stroke-linejoin="bevel" stroke-opacity="1" stroke-width="1" transform="matrix(0,-0.46503,0.46503,0,147.619,30.9524)"><text fill="#e60000" fill-opacity="1" font-family="Liberation Sans" font-size="40" font-style="normal" font-weight="400" stroke="none" textLength="29" x="-36.9531" xml:space="preserve" y="17.9219">R</text></g><defs><clipPath id="clip149"><path d="M-15,-102 L241,-102 L241,307 L-15,307 L-15,-102 z"/></clipPath></defs><g clip-path="url(#clip149)" fill="none" opacity="1" stroke="#e60000" stroke-linecap="square" stroke-linejoin="bevel" stroke-opacity="1" stroke-width="1" transform="matrix(0,-0.46503,0.46503,0,52.381,135.714)"><text fill="#e60000" fill-opacity="1" font-family="Liberation Sans" font-size="40" font-style="normal" font-weight="400" stroke="none" textLength="13" x="0" xml:space="preserve" y="17.9219">-</text></g><defs><clipPath id="clip152"><path d="M-241,-102 L15,-102 L15,307 L-241,307 L-241,-102 z"/></clipPath></defs><g clip-path="url(#clip152)" fill="none" opacity="1" stroke="#e60000" stroke-linecap="square" stroke-linejoin="bevel" stroke-opacity="1" stroke-width="1" transform="matrix(0,-0.46503,0.46503,0,52.381,30.9524)"><text fill="#e60000" fill-opacity="1" font-family="Liberation Sans" font-size="40" font-style="normal" font-weight="400" stroke="none" textLength="23" x="-29.8906" xml:space="preserve" y="17.9219">+</text></g><defs><clipPath id="clip158"><path d="M-2,-10 L82,-10 L82,60 L-2,60 L-2,-10 z"/></clipPath></defs><g clip-path="url(#clip158)" fill="none" opacity="1" stroke="none" stroke-opacity="0" transform="matrix(2.38095,0,0,2.38095,4.7619,23.8095)"><path d="M0,0 L80,0 L80,50 L0,50 L0,0 z" fill-rule="evenodd" vector-effect="none"/></g></g></svg>
