<?xml version="1.0" encoding="UTF-8"?><svg width="52.9167mm" height="34.1313mm" viewBox="0 0 200 129" xmlns="http://www.w3.org/2000/svg" xmlns:xlink="http://www.w3.org/1999/xlink"><g fill="none" stroke="black" stroke-width="1" fill-rule="evenodd" stroke-linecap="square" stroke-linejoin="bevel"><g clip-path="none" fill="none" opacity="1" stroke="none" stroke-opacity="0" transform="matrix(1,0,0,1,0,0)"><path d="M0,0 L200,0 L200,129 L0,129 L0,0 z" fill-rule="evenodd" vector-effect="none"/></g><defs><clipPath id="clip6"><path d="M0,0 L10,0 L10,10 L0,10 L0,0 z"/></clipPath></defs><g clip-path="url(#clip6)" fill="#b3b3b3" fill-opacity="1" opacity="1" stroke="none" stroke-opacity="0" transform="matrix(-2.96276e-16,1.6129,-1.6129,-2.96276e-16,154.839,112.903)"><path d="M0.5,3.5 L3.5,3.5 L3.5,6.5 L0.5,6.5 L0.5,3.5 z" fill-rule="evenodd" vector-effect="none"/></g><defs><clipPath id="clip8"><path d="M0,0 L10,0 L10,10 L0,10 L0,0 z"/></clipPath></defs><g clip-path="url(#clip8)" fill="#000000" fill-opacity="1" opacity="1" stroke="none" stroke-opacity="0" transform="matrix(-2.96276e-16,1.6129,-1.6129,-2.96276e-16,154.839,112.903)"><path d="M3,4 L3,6 L1,6 L1,4 L3,4 M4,3 L0,3 L0,7 L4,7 L4,3" fill-rule="nonzero" vector-effect="none"/></g><defs><clipPath id="clip28"><path d="M0,0 L10,0 L10,10 L0,10 L0,0 z"/></clipPath></defs><g clip-path="url(#clip28)" fill="#b3b3b3" fill-opacity="1" opacity="1" stroke="none" stroke-opacity="0" transform="matrix(-2.96276e-16,1.6129,-1.6129,-2.96276e-16,58.0645,112.903)"><path d="M0.5,3.5 L3.5,3.5 L3.5,6.5 L0.5,6.5 L0.5,3.5 z" fill-rule="evenodd" vector-effect="none"/></g><defs><clipPath id="clip30"><path d="M0,0 L10,0 L10,10 L0,10 L0,0 z"/></clipPath></defs><g clip-path="url(#clip30)" fill="#000000" fill-opacity="1" opacity="1" stroke="none" stroke-opacity="0" transform="matrix(-2.96276e-16,1.6129,-1.6129,-2.96276e-16,58.0645,112.903)"><path d="M3,4 L3,6 L1,6 L1,4 L3,4 M4,3 L0,3 L0,7 L4,7 L4,3" fill-rule="nonzero" vector-effect="none"/></g><defs><clipPath id="clip50"><path d="M0,0 L10,0 L10,10 L0,10 L0,0 z"/></clipPath></defs><g clip-path="url(#clip50)" fill="#b3b3b3" fill-opacity="1" opacity="1" stroke="none" stroke-opacity="0" transform="matrix(9.87586e-17,-1.6129,1.6129,9.87586e-17,141.935,16.129)"><path d="M0.5,3.5 L3.5,3.5 L3.5,6.5 L0.5,6.5 L0.5,3.5 z" fill-rule="evenodd" vector-effect="none"/></g><defs><clipPath id="clip52"><path d="M0,0 L10,0 L10,10 L0,10 L0,0 z"/></clipPath></defs><g clip-path="url(#clip52)" fill="#000000" fill-opacity="1" opacity="1" stroke="none" stroke-opacity="0" transform="matrix(9.87586e-17,-1.6129,1.6129,9.87586e-17,141.935,16.129)"><path d="M3,4 L3,6 L1,6 L1,4 L3,4 M4,3 L0,3 L0,7 L4,7 L4,3" fill-rule="nonzero" vector-effect="none"/></g><defs><clipPath id="clip72"><path d="M0,0 L10,0 L10,10 L0,10 L0,0 z"/></clipPath></defs><g clip-path="url(#clip72)" fill="#b3b3b3" fill-opacity="1" opacity="1" stroke="none" stroke-opacity="0" transform="matrix(9.87586e-17,-1.6129,1.6129,9.87586e-17,45.1613,16.129)"><path d="M0.5,3.5 L3.5,3.5 L3.5,6.5 L0.5,6.5 L0.5,3.5 z" fill-rule="evenodd" vector-effect="none"/></g><defs><clipPath id="clip74"><path d="M0,0 L10,0 L10,10 L0,10 L0,0 z"/></clipPath></defs><g clip-path="url(#clip74)" fill="#000000" fill-opacity="1" opacity="1" stroke="none" stroke-opacity="0" transform="matrix(9.87586e-17,-1.6129,1.6129,9.87586e-17,45.1613,16.129)"><path d="M3,4 L3,6 L1,6 L1,4 L3,4 M4,3 L0,3 L0,7 L4,7 L4,3" fill-rule="nonzero" vector-effect="none"/></g><defs><clipPath id="clip91"><path d="M-2,-10 L122,-10 L122,70 L-2,70 L-2,-10 z"/></clipPath></defs><g clip-path="url(#clip91)" fill="#ffffff" fill-opacity="1" opacity="1" stroke="none" stroke-opacity="0" transform="matrix(1.6129,0,0,1.6129,3.22581,16.129)"><path d="M0,0 L120,0 L120,60 L0,60 L0,0 z" fill-rule="evenodd" vector-effect="none"/></g><defs><clipPath id="clip95"><path d="M0,0 L120,0 L120,60 L0,60 L0,0 z"/></clipPath></defs><g clip-path="url(#clip95)" fill="none" opacity="1" stroke="none" stroke-opacity="0" transform="matrix(1.6129,0,0,1.6129,3.22581,16.129)"><path d="M0,0 L120,0 L120,60 L0,60 L0,0 z" fill-rule="evenodd" vector-effect="none"/></g><defs><clipPath id="clip105"><path d="M1,1 L61,1 L61,121 L1,121 L1,1 z"/></clipPath></defs><g clip-path="url(#clip105)" fill="none" opacity="1" stroke="#000000" stroke-linecap="butt" stroke-linejoin="miter" stroke-miterlimit="4" stroke-opacity="1" stroke-width="3.0225" transform="matrix(2.96276e-16,1.6129,1.6129,-2.96276e-16,1.6129,14.5161)"><path d="M36.4198,60.9931 C36.4198,63.9315 33.9836,66.3136 30.9784,66.3136 C27.9732,66.3136 25.537,63.9315 25.537,60.9931 C25.537,58.0547 27.9732,55.6726 30.9784,55.6726 C33.9836,55.6726 36.4198,58.0547 36.4198,60.9931 z" fill-rule="nonzero" vector-effect="none"/></g><defs><clipPath id="clip106"><path d="M1,1 L61,1 L61,121 L1,121 L1,1 z"/></clipPath></defs><g clip-path="url(#clip106)" fill="none" opacity="1" stroke="#000000" stroke-linecap="butt" stroke-linejoin="miter" stroke-miterlimit="4" stroke-opacity="1" stroke-width="3.0225" transform="matrix(2.96276e-16,1.6129,1.6129,-2.96276e-16,1.6129,14.5161)"><path d="M30.9784,41.6587 L30.9784,44.9893" fill-rule="nonzero" vector-effect="none"/></g><defs><clipPath id="clip107"><path d="M1,1 L61,1 L61,121 L1,121 L1,1 z"/></clipPath></defs><g clip-path="url(#clip107)" fill="none" opacity="1" stroke="#000000" stroke-linecap="butt" stroke-linejoin="miter" stroke-miterlimit="4" stroke-opacity="1" stroke-width="3.0225" transform="matrix(2.96276e-16,1.6129,1.6129,-2.96276e-16,1.6129,14.5161)"><path d="M17.3387,47.6566 L44.6036,47.6566 L44.6036,74.3155 L17.3387,74.3155 L17.3387,47.6566 z" fill-rule="nonzero" vector-effect="none"/></g><defs><clipPath id="clip108"><path d="M1,1 L61,1 L61,121 L1,121 L1,1 z"/></clipPath></defs><g clip-path="url(#clip108)" fill="none" opacity="1" stroke="#ffffff" stroke-linecap="butt" stroke-linejoin="miter" stroke-miterlimit="4" stroke-opacity="1" stroke-width="3.0225" transform="matrix(2.96276e-16,1.6129,1.6129,-2.96276e-16,1.6129,14.5161)"><path d="M1,1 L61.0001,1 L61.0001,121 L1,121 L1,1 z" fill-rule="nonzero" vector-effect="none"/></g><defs><clipPath id="clip109"><path d="M1,1 L61,1 L61,121 L1,121 L1,1 z"/></clipPath></defs><g clip-path="url(#clip109)" fill="none" opacity="1" stroke="#000000" stroke-linecap="butt" stroke-linejoin="miter" stroke-miterlimit="4" stroke-opacity="1" stroke-width="3.0225" transform="matrix(2.96276e-16,1.6129,1.6129,-2.96276e-16,1.6129,14.5161)"><path d="M30.9784,76.9969 L30.9784,80.3275" fill-rule="nonzero" vector-effect="none"/></g><defs><clipPath id="clip110"><path d="M1,1 L61,1 L61,121 L1,121 L1,1 z"/></clipPath></defs><g clip-path="url(#clip110)" fill="none" opacity="1" stroke="#000000" stroke-linecap="butt" stroke-linejoin="miter" stroke-miterlimit="4" stroke-opacity="1" stroke-width="3.0225" transform="matrix(2.96276e-16,1.6129,1.6129,-2.96276e-16,1.6129,14.5161)"><path d="M21.4378,60.9931 L40.5334,60.9931" fill-rule="nonzero" vector-effect="none"/></g><defs><clipPath id="clip111"><path d="M1,1 L61,1 L61,121 L1,121 L1,1 z"/></clipPath></defs><g clip-path="url(#clip111)" fill="none" opacity="1" stroke="#000000" stroke-linecap="butt" stroke-linejoin="miter" stroke-miterlimit="4" stroke-opacity="1" stroke-width="3.0225" transform="matrix(2.96276e-16,1.6129,1.6129,-2.96276e-16,1.6129,14.5161)"><path d="M21.4378,56.9851 L21.4378,64.987" fill-rule="nonzero" vector-effect="none"/></g><defs><clipPath id="clip112"><path d="M1,1 L61,1 L61,121 L1,121 L1,1 z"/></clipPath></defs><g clip-path="url(#clip112)" fill="none" opacity="1" stroke="#000000" stroke-linecap="butt" stroke-linejoin="miter" stroke-miterlimit="4" stroke-opacity="1" stroke-width="3.0225" transform="matrix(2.96276e-16,1.6129,1.6129,-2.96276e-16,1.6129,14.5161)"><path d="M40.5334,56.9851 L40.5334,64.987" fill-rule="nonzero" vector-effect="none"/></g><defs><clipPath id="clip113"><path d="M1,1 L61,1 L61,121 L1,121 L1,1 z"/></clipPath></defs><g clip-path="url(#clip113)" fill="none" opacity="1" stroke="#44805c" stroke-linecap="butt" stroke-linejoin="miter" stroke-miterlimit="4" stroke-opacity="1" stroke-width="3.0225" transform="matrix(2.96276e-16,1.6129,1.6129,-2.96276e-16,1.6129,14.5161)"><path d="M35.7559,90.9967 L28.2504,90.9967" fill-rule="nonzero" vector-effect="none"/></g><defs><clipPath id="clip114"><path d="M1,1 L61,1 L61,121 L1,121 L1,1 z"/></clipPath></defs><g clip-path="url(#clip114)" fill="none" opacity="1" stroke="#44805c" stroke-linecap="butt" stroke-linejoin="miter" stroke-miterlimit="4" stroke-opacity="1" stroke-width="3.0225" transform="matrix(2.96276e-16,1.6129,1.6129,-2.96276e-16,1.6129,14.5161)"><path d="M32.3496,86.9887 L28.2504,90.9967 L32.3496,94.9906" fill-rule="nonzero" vector-effect="none"/></g><defs><clipPath id="clip115"><path d="M1,1 L61,1 L61,121 L1,121 L1,1 z"/></clipPath></defs><g clip-path="url(#clip115)" fill="none" opacity="1" stroke="#44805c" stroke-linecap="butt" stroke-linejoin="miter" stroke-miterlimit="4" stroke-opacity="1" stroke-width="3.0225" transform="matrix(2.96276e-16,1.6129,1.6129,-2.96276e-16,1.6129,14.5161)"><path d="M32.3496,84.9988 L26.2153,90.9967 L32.3496,96.9946" fill-rule="nonzero" vector-effect="none"/></g><defs><clipPath id="clip116"><path d="M1,1 L61,1 L61,121 L1,121 L1,1 z"/></clipPath></defs><g clip-path="url(#clip116)" fill="none" opacity="1" stroke="#44805c" stroke-linecap="butt" stroke-linejoin="miter" stroke-miterlimit="4" stroke-opacity="1" stroke-width="3.0225" transform="matrix(2.96276e-16,1.6129,1.6129,-2.96276e-16,1.6129,14.5161)"><path d="M37.8054,90.9967 L60.9856,90.9967" fill-rule="nonzero" vector-effect="none"/></g><defs><clipPath id="clip117"><path d="M1,1 L61,1 L61,121 L1,121 L1,1 z"/></clipPath></defs><g clip-path="url(#clip117)" fill="none" opacity="1" stroke="#44805c" stroke-linecap="butt" stroke-linejoin="miter" stroke-miterlimit="4" stroke-opacity="1" stroke-width="3.0225" transform="matrix(2.96276e-16,1.6129,1.6129,-2.96276e-16,1.6129,14.5161)"><path d="M24.1658,82.9948 L37.8054,82.9948 L37.8054,98.9986 L24.1658,98.9986" fill-rule="nonzero" vector-effect="none"/></g><defs><clipPath id="clip118"><path d="M1,1 L61,1 L61,121 L1,121 L1,1 z"/></clipPath></defs><g clip-path="url(#clip118)" fill="none" opacity="1" stroke="#44805c" stroke-linecap="butt" stroke-linejoin="miter" stroke-miterlimit="4" stroke-opacity="1" stroke-width="3.0225" transform="matrix(2.96276e-16,1.6129,1.6129,-2.96276e-16,1.6129,14.5161)"><path d="M24.1658,98.9986 L24.1658,82.9948" fill-rule="nonzero" vector-effect="none"/></g><defs><clipPath id="clip119"><path d="M1,1 L61,1 L61,121 L1,121 L1,1 z"/></clipPath></defs><g clip-path="url(#clip119)" fill="none" opacity="1" stroke="#44805c" stroke-linecap="butt" stroke-linejoin="miter" stroke-miterlimit="4" stroke-opacity="1" stroke-width="3.0225" transform="matrix(2.96276e-16,1.6129,1.6129,-2.96276e-16,1.6129,14.5161)"><path d="M24.1658,90.9967 L1,90.9967" fill-rule="nonzero" vector-effect="none"/></g><defs><clipPath id="clip120"><path d="M1,1 L61,1 L61,121 L1,121 L1,1 z"/></clipPath></defs><g clip-path="url(#clip120)" fill="none" opacity="1" stroke="#3369c9" stroke-linecap="butt" stroke-linejoin="miter" stroke-miterlimit="4" stroke-opacity="1" stroke-width="3.0225" transform="matrix(2.96276e-16,1.6129,1.6129,-2.96276e-16,1.6129,14.5161)"><path d="M39.4075,31.0036 C39.4075,35.5554 35.6337,39.2454 30.9784,39.2454 C26.3231,39.2454 22.5492,35.5554 22.5492,31.0036 C22.5492,26.4518 26.3231,22.7618 30.9784,22.7618 C35.6337,22.7618 39.4075,26.4518 39.4075,31.0036 z" fill-rule="nonzero" vector-effect="none"/></g><defs><clipPath id="clip121"><path d="M1,1 L61,1 L61,121 L1,121 L1,1 z"/></clipPath></defs><g clip-path="url(#clip121)" fill="none" opacity="1" stroke="#3369c9" stroke-linecap="butt" stroke-linejoin="miter" stroke-miterlimit="4" stroke-opacity="1" stroke-width="3.0225" transform="matrix(2.96276e-16,1.6129,1.6129,-2.96276e-16,1.6129,14.5161)"><path d="M39.1622,31.0036 L60.9856,31.0036" fill-rule="nonzero" vector-effect="none"/></g><defs><clipPath id="clip122"><path d="M1,1 L61,1 L61,121 L1,121 L1,1 z"/></clipPath></defs><g clip-path="url(#clip122)" fill="none" opacity="1" stroke="#3369c9" stroke-linecap="butt" stroke-linejoin="miter" stroke-miterlimit="4" stroke-opacity="1" stroke-width="3.0225" transform="matrix(2.96276e-16,1.6129,1.6129,-2.96276e-16,1.6129,14.5161)"><path d="M1,31.0036 L22.7946,31.0036" fill-rule="nonzero" vector-effect="none"/></g><defs><clipPath id="clip123"><path d="M1,1 L61,1 L61,121 L1,121 L1,1 z"/></clipPath></defs><g clip-path="url(#clip123)" fill="none" opacity="1" stroke="#3369c9" stroke-linecap="butt" stroke-linejoin="miter" stroke-miterlimit="4" stroke-opacity="1" stroke-width="3.0225" transform="matrix(2.96276e-16,1.6129,1.6129,-2.96276e-16,1.6129,14.5161)"><path d="M24.1658,31.0036 L37.8054,31.0036" fill-rule="nonzero" vector-effect="none"/></g><defs><clipPath id="clip124"><path d="M1,1 L61,1 L61,121 L1,121 L1,1 z"/></clipPath></defs><g clip-path="url(#clip124)" fill="none" opacity="1" stroke="#3369c9" stroke-linecap="butt" stroke-linejoin="miter" stroke-miterlimit="4" stroke-opacity="1" stroke-width="3.0225" transform="matrix(2.96276e-16,1.6129,1.6129,-2.96276e-16,1.6129,14.5161)"><path d="M37.8054,31.0036 L33.7063,26.9956" fill-rule="nonzero" vector-effect="none"/></g><defs><clipPath id="clip125"><path d="M1,1 L61,1 L61,121 L1,121 L1,1 z"/></clipPath></defs><g clip-path="url(#clip125)" fill="none" opacity="1" stroke="#3369c9" stroke-linecap="butt" stroke-linejoin="miter" stroke-miterlimit="4" stroke-opacity="1" stroke-width="3.0225" transform="matrix(2.96276e-16,1.6129,1.6129,-2.96276e-16,1.6129,14.5161)"><path d="M33.7063,34.9975 L37.8054,31.0036" fill-rule="nonzero" vector-effect="none"/></g><defs><clipPath id="clip142"><path d="M-15,-461 L292,-461 L292,154 L-15,154 L-15,-461 z"/></clipPath></defs><g clip-path="url(#clip142)" fill="none" opacity="1" stroke="#e60000" stroke-linecap="square" stroke-linejoin="bevel" stroke-opacity="1" stroke-width="1" transform="matrix(0,-0.31502,0.31502,0,148.387,108.065)"><text fill="#e60000" fill-opacity="1" font-family="Liberation Sans" font-size="40" font-style="normal" font-weight="400" stroke="none" textLength="29" x="0" xml:space="preserve" y="17.9219">C</text></g><defs><clipPath id="clip145"><path d="M-292,-461 L15,-461 L15,154 L-292,154 L-292,-461 z"/></clipPath></defs><g clip-path="url(#clip145)" fill="none" opacity="1" stroke="#e60000" stroke-linecap="square" stroke-linejoin="bevel" stroke-opacity="1" stroke-width="1" transform="matrix(0,-0.31502,0.31502,0,148.387,20.9677)"><text fill="#e60000" fill-opacity="1" font-family="Liberation Sans" font-size="40" font-style="normal" font-weight="400" stroke="none" textLength="29" x="-36.9531" xml:space="preserve" y="17.9219">R</text></g><defs><clipPath id="clip148"><path d="M-15,-154 L292,-154 L292,461 L-15,461 L-15,-154 z"/></clipPath></defs><g clip-path="url(#clip148)" fill="none" opacity="1" stroke="#e60000" stroke-linecap="square" stroke-linejoin="bevel" stroke-opacity="1" stroke-width="1" transform="matrix(0,-0.31502,0.31502,0,51.6129,108.065)"><text fill="#e60000" fill-opacity="1" font-family="Liberation Sans" font-size="40" font-style="normal" font-weight="400" stroke="none" textLength="13" x="0" xml:space="preserve" y="17.9219">-</text></g><defs><clipPath id="clip151"><path d="M-292,-154 L15,-154 L15,461 L-292,461 L-292,-154 z"/></clipPath></defs><g clip-path="url(#clip151)" fill="none" opacity="1" stroke="#e60000" stroke-linecap="square" stroke-linejoin="bevel" stroke-opacity="1" stroke-width="1" transform="matrix(0,-0.31502,0.31502,0,51.6129,20.9677)"><text fill="#e60000" fill-opacity="1" font-family="Liberation Sans" font-size="40" font-style="normal" font-weight="400" stroke="none" textLength="23" x="-29.8906" xml:space="preserve" y="17.9219">+</text></g><defs><clipPath id="clip157"><path d="M-2,-10 L122,-10 L122,70 L-2,70 L-2,-10 z"/></clipPath></defs><g clip-path="url(#clip157)" fill="none" opacity="1" stroke="none" stroke-opacity="0" transform="matrix(1.6129,0,0,1.6129,3.22581,16.129)"><path d="M0,0 L120,0 L120,60 L0,60 L0,0 z" fill-rule="evenodd" vector-effect="none"/></g></g></svg>
