<?xml version="1.0" encoding="UTF-8"?><svg width="52.9167mm" height="39.1583mm" viewBox="0 0 200 148" xmlns="http://www.w3.org/2000/svg" xmlns:xlink="http://www.w3.org/1999/xlink"><g fill="none" stroke="black" stroke-width="1" fill-rule="evenodd" stroke-linecap="square" stroke-linejoin="bevel"><g clip-path="none" fill="none" opacity="1" stroke="none" stroke-opacity="0" transform="matrix(1,0,0,1,0,0)"><path d="M0,0 L200,0 L200,148 L0,148 L0,0 z" fill-rule="evenodd" vector-effect="none"/></g><defs><clipPath id="clip6"><path d="M0,0 L10,0 L10,10 L0,10 L0,0 z"/></clipPath></defs><g clip-path="url(#clip6)" fill="#b3b3b3" fill-opacity="1" opacity="1" stroke="none" stroke-opacity="0" transform="matrix(-2.85714,0,0,2.85714,28.5714,105.714)"><path d="M0.5,3.5 L3.5,3.5 L3.5,6.5 L0.5,6.5 L0.5,3.5 z" fill-rule="evenodd" vector-effect="none"/></g><defs><clipPath id="clip8"><path d="M0,0 L10,0 L10,10 L0,10 L0,0 z"/></clipPath></defs><g clip-path="url(#clip8)" fill="#000000" fill-opacity="1" opacity="1" stroke="none" stroke-opacity="0" transform="matrix(-2.85714,0,0,2.85714,28.5714,105.714)"><path d="M3,4 L3,6 L1,6 L1,4 L3,4 M4,3 L0,3 L0,7 L4,7 L4,3" fill-rule="nonzero" vector-effect="none"/></g><defs><clipPath id="clip28"><path d="M0,0 L10,0 L10,10 L0,10 L0,0 z"/></clipPath></defs><g clip-path="url(#clip28)" fill="#b3b3b3" fill-opacity="1" opacity="1" stroke="none" stroke-opacity="0" transform="matrix(2.85714,0,0,2.85714,171.429,34.2857)"><path d="M0.5,3.5 L3.5,3.5 L3.5,6.5 L0.5,6.5 L0.5,3.5 z" fill-rule="evenodd" vector-effect="none"/></g><defs><clipPath id="clip30"><path d="M0,0 L10,0 L10,10 L0,10 L0,0 z"/></clipPath></defs><g clip-path="url(#clip30)" fill="#000000" fill-opacity="1" opacity="1" stroke="none" stroke-opacity="0" transform="matrix(2.85714,0,0,2.85714,171.429,34.2857)"><path d="M3,4 L3,6 L1,6 L1,4 L3,4 M4,3 L0,3 L0,7 L4,7 L4,3" fill-rule="nonzero" vector-effect="none"/></g><defs><clipPath id="clip50"><path d="M0,0 L10,0 L10,10 L0,10 L0,0 z"/></clipPath></defs><g clip-path="url(#clip50)" fill="#b3b3b3" fill-opacity="1" opacity="1" stroke="none" stroke-opacity="0" transform="matrix(-2.85714,0,0,2.85714,28.5714,62.8571)"><path d="M0.5,3.5 L3.5,3.5 L3.5,6.5 L0.5,6.5 L0.5,3.5 z" fill-rule="evenodd" vector-effect="none"/></g><defs><clipPath id="clip52"><path d="M0,0 L10,0 L10,10 L0,10 L0,0 z"/></clipPath></defs><g clip-path="url(#clip52)" fill="#000000" fill-opacity="1" opacity="1" stroke="none" stroke-opacity="0" transform="matrix(-2.85714,0,0,2.85714,28.5714,62.8571)"><path d="M3,4 L3,6 L1,6 L1,4 L3,4 M4,3 L0,3 L0,7 L4,7 L4,3" fill-rule="nonzero" vector-effect="none"/></g><defs><clipPath id="clip72"><path d="M0,0 L10,0 L10,10 L0,10 L0,0 z"/></clipPath></defs><g clip-path="url(#clip72)" fill="#b3b3b3" fill-opacity="1" opacity="1" stroke="none" stroke-opacity="0" transform="matrix(2.85714,0,0,2.85714,171.429,105.714)"><path d="M0.5,3.5 L3.5,3.5 L3.5,6.5 L0.5,6.5 L0.5,3.5 z" fill-rule="evenodd" vector-effect="none"/></g><defs><clipPath id="clip74"><path d="M0,0 L10,0 L10,10 L0,10 L0,0 z"/></clipPath></defs><g clip-path="url(#clip74)" fill="#000000" fill-opacity="1" opacity="1" stroke="none" stroke-opacity="0" transform="matrix(2.85714,0,0,2.85714,171.429,105.714)"><path d="M3,4 L3,6 L1,6 L1,4 L3,4 M4,3 L0,3 L0,7 L4,7 L4,3" fill-rule="nonzero" vector-effect="none"/></g><defs><clipPath id="clip94"><path d="M0,0 L10,0 L10,10 L0,10 L0,0 z"/></clipPath></defs><g clip-path="url(#clip94)" fill="#b3b3b3" fill-opacity="1" opacity="1" stroke="none" stroke-opacity="0" transform="matrix(-2.85714,0,0,2.85714,28.5714,20)"><path d="M0.5,3.5 L3.5,3.5 L3.5,6.5 L0.5,6.5 L0.5,3.5 z" fill-rule="evenodd" vector-effect="none"/></g><defs><clipPath id="clip96"><path d="M0,0 L10,0 L10,10 L0,10 L0,0 z"/></clipPath></defs><g clip-path="url(#clip96)" fill="#000000" fill-opacity="1" opacity="1" stroke="none" stroke-opacity="0" transform="matrix(-2.85714,0,0,2.85714,28.5714,20)"><path d="M3,4 L3,6 L1,6 L1,4 L3,4 M4,3 L0,3 L0,7 L4,7 L4,3" fill-rule="nonzero" vector-effect="none"/></g><defs><clipPath id="clip113"><path d="M-10,-2 L60,-2 L60,50 L-10,50 L-10,-2 z"/></clipPath></defs><g clip-path="url(#clip113)" fill="#ffffff" fill-opacity="1" opacity="1" stroke="none" stroke-opacity="0" transform="matrix(2.85714,0,0,2.85714,28.5714,5.71429)"><path d="M0,0 L50,0 L50,48 L0,48 L0,0 z" fill-rule="evenodd" vector-effect="none"/></g><defs><clipPath id="clip117"><path d="M0,0 L50,0 L50,48 L0,48 L0,0 z"/></clipPath></defs><g clip-path="url(#clip117)" fill="none" opacity="1" stroke="none" stroke-opacity="0" transform="matrix(2.85714,0,0,2.85714,28.5714,5.71429)"><path d="M0,0 L50,0 L50,48 L0,48 L0,0 z" fill-rule="evenodd" vector-effect="none"/></g><defs><clipPath id="clip127"><path d="M1,1 L51,1 L51,49 L1,49 L1,1 z"/></clipPath></defs><g clip-path="url(#clip127)" fill="none" opacity="1" stroke="#3369c9" stroke-linecap="butt" stroke-linejoin="miter" stroke-miterlimit="20" stroke-opacity="1" stroke-width="1.5925" transform="matrix(2.85714,0,0,2.85714,25.7143,2.85714)"><path d="M20.9317,5.71113 L20.9317,44.1112 L44.0087,24.9112 L20.9317,5.71113 z" fill-rule="nonzero" vector-effect="none"/></g><defs><clipPath id="clip128"><path d="M1,1 L51,1 L51,49 L1,49 L1,1 z"/></clipPath></defs><g clip-path="url(#clip128)" fill="none" opacity="1" stroke="#3369c9" stroke-linecap="butt" stroke-linejoin="miter" stroke-miterlimit="20" stroke-opacity="1" stroke-width="1.5925" transform="matrix(2.85714,0,0,2.85714,25.7143,2.85714)"><path d="M1.00001,25.0001 L21.0001,25.0001" fill-rule="nonzero" vector-effect="none"/></g><defs><clipPath id="clip129"><path d="M1,1 L51,1 L51,49 L1,49 L1,1 z"/></clipPath></defs><g clip-path="url(#clip129)" fill="none" opacity="1" stroke="#3369c9" stroke-linecap="butt" stroke-linejoin="miter" stroke-miterlimit="20" stroke-opacity="1" stroke-width="1.5925" transform="matrix(2.85714,0,0,2.85714,25.7143,2.85714)"><path d="M1.00001,9.00002 L21.0001,9.00002" fill-rule="nonzero" vector-effect="none"/></g><defs><clipPath id="clip130"><path d="M1,1 L51,1 L51,49 L1,49 L1,1 z"/></clipPath></defs><g clip-path="url(#clip130)" fill="none" opacity="1" stroke="#3369c9" stroke-linecap="butt" stroke-linejoin="miter" stroke-miterlimit="20" stroke-opacity="1" stroke-width="1.5925" transform="matrix(2.85714,0,0,2.85714,25.7143,2.85714)"><path d="M1.00001,41.0001 L21.0001,41.0001" fill-rule="nonzero" vector-effect="none"/></g><defs><clipPath id="clip131"><path d="M1,1 L51,1 L51,49 L1,49 L1,1 z"/></clipPath></defs><g clip-path="url(#clip131)" fill="none" opacity="1" stroke="#3369c9" stroke-linecap="butt" stroke-linejoin="miter" stroke-miterlimit="20" stroke-opacity="1" stroke-width="1.5925" transform="matrix(2.85714,0,0,2.85714,25.7143,2.85714)"><path d="M29.4616,13 L51.0001,13" fill-rule="nonzero" vector-effect="none"/></g><defs><clipPath id="clip132"><path d="M1,1 L51,1 L51,49 L1,49 L1,1 z"/></clipPath></defs><g clip-path="url(#clip132)" fill="none" opacity="1" stroke="#3369c9" stroke-linecap="butt" stroke-linejoin="miter" stroke-miterlimit="20" stroke-opacity="1" stroke-width="1.5925" transform="matrix(2.85714,0,0,2.85714,25.7143,2.85714)"><path d="M37.1539,37.0001 L51.0001,37.0001" fill-rule="nonzero" vector-effect="none"/></g><defs><clipPath id="clip133"><path d="M1,1 L51,1 L51,49 L1,49 L1,1 z"/></clipPath></defs><g clip-path="url(#clip133)" fill="none" opacity="1" stroke="#3369c9" stroke-linecap="butt" stroke-linejoin="miter" stroke-miterlimit="4" stroke-opacity="1" stroke-width="1.5925" transform="matrix(2.85714,0,0,2.85714,25.7143,2.85714)"><path d="M37.1539,37.0001 C37.1539,38.7674 35.7764,40.2001 34.077,40.2001 C32.3777,40.2001 31.0001,38.7674 31.0001,37.0001 C31.0001,35.2328 32.3777,33.8001 34.077,33.8001 C35.7764,33.8001 37.1539,35.2328 37.1539,37.0001 z" fill-rule="nonzero" vector-effect="none"/></g><defs><clipPath id="clip134"><path d="M1,1 L51,1 L51,49 L1,49 L1,1 z"/></clipPath></defs><g clip-path="url(#clip134)" fill="none" opacity="1" stroke="#ffffff" stroke-linecap="butt" stroke-linejoin="miter" stroke-miterlimit="20" stroke-opacity="1" stroke-width="1.5925" transform="matrix(2.85714,0,0,2.85714,25.7143,2.85714)"><path d="M1.00001,1 L51.0001,1 L51.0001,49.0001 L1.00001,49.0001 L1.00001,1 z" fill-rule="nonzero" vector-effect="none"/></g><defs><clipPath id="clip151"><path d="M-241,-200 L15,-200 L15,46 L-241,46 L-241,-200 z"/></clipPath></defs><g clip-path="url(#clip151)" fill="none" opacity="1" stroke="#e60000" stroke-linecap="square" stroke-linejoin="bevel" stroke-opacity="1" stroke-width="1" transform="matrix(0.558036,0,0,0.558036,162.857,117.143)"><text fill="#e60000" fill-opacity="1" font-family="Liberation Sans" font-size="40" font-style="normal" font-weight="400" stroke="none" textLength="13" x="-17.0312" xml:space="preserve" y="17.9219">-</text></g><defs><clipPath id="clip154"><path d="M-241,-72 L15,-72 L15,174 L-241,174 L-241,-72 z"/></clipPath></defs><g clip-path="url(#clip154)" fill="none" opacity="1" stroke="#e60000" stroke-linecap="square" stroke-linejoin="bevel" stroke-opacity="1" stroke-width="1" transform="matrix(0.558036,0,0,0.558036,162.857,45.7143)"><text fill="#e60000" fill-opacity="1" font-family="Liberation Sans" font-size="40" font-style="normal" font-weight="400" stroke="none" textLength="23" x="-29.8906" xml:space="preserve" y="17.9219">+</text></g><defs><clipPath id="clip157"><path d="M-15,-200 L241,-200 L241,46 L-15,46 L-15,-200 z"/></clipPath></defs><g clip-path="url(#clip157)" fill="none" opacity="1" stroke="#e60000" stroke-linecap="square" stroke-linejoin="bevel" stroke-opacity="1" stroke-width="1" transform="matrix(0.558036,0,0,0.558036,37.1429,117.143)"><text fill="#e60000" fill-opacity="1" font-family="Liberation Sans" font-size="40" font-style="normal" font-weight="400" stroke="none" textLength="23" x="0" xml:space="preserve" y="17.9219">+</text></g><defs><clipPath id="clip160"><path d="M-15,-123 L241,-123 L241,123 L-15,123 L-15,-123 z"/></clipPath></defs><g clip-path="url(#clip160)" fill="none" opacity="1" stroke="#e60000" stroke-linecap="square" stroke-linejoin="bevel" stroke-opacity="1" stroke-width="1" transform="matrix(0.558036,0,0,0.558036,37.1429,74.2857)"><text fill="#e60000" fill-opacity="1" font-family="Liberation Sans" font-size="40" font-style="normal" font-weight="400" stroke="none" textLength="54" x="0" xml:space="preserve" y="17.9219">cm</text></g><defs><clipPath id="clip163"><path d="M-15,-46 L241,-46 L241,200 L-15,200 L-15,-46 z"/></clipPath></defs><g clip-path="url(#clip163)" fill="none" opacity="1" stroke="#e60000" stroke-linecap="square" stroke-linejoin="bevel" stroke-opacity="1" stroke-width="1" transform="matrix(0.558036,0,0,0.558036,37.1429,31.4286)"><text fill="#e60000" fill-opacity="1" font-family="Liberation Sans" font-size="40" font-style="normal" font-weight="400" stroke="none" textLength="13" x="0" xml:space="preserve" y="17.9219">-</text></g><defs><clipPath id="clip169"><path d="M-10,-2 L60,-2 L60,50 L-10,50 L-10,-2 z"/></clipPath></defs><g clip-path="url(#clip169)" fill="none" opacity="1" stroke="none" stroke-opacity="0" transform="matrix(2.85714,0,0,2.85714,28.5714,5.71429)"><path d="M0,0 L50,0 L50,48 L0,48 L0,0 z" fill-rule="evenodd" vector-effect="none"/></g></g></svg>
