<?xml version="1.0" encoding="UTF-8"?><svg width="52.9167mm" height="39.1583mm" viewBox="0 0 200 148" xmlns="http://www.w3.org/2000/svg" xmlns:xlink="http://www.w3.org/1999/xlink"><g fill="none" stroke="black" stroke-width="1" fill-rule="evenodd" stroke-linecap="square" stroke-linejoin="bevel"><g clip-path="none" fill="none" opacity="1" stroke="none" stroke-opacity="0" transform="matrix(1,0,0,1,0,0)"><path d="M0,0 L200,0 L200,148 L0,148 L0,0 z" fill-rule="evenodd" vector-effect="none"/></g><defs><clipPath id="clip7"><path d="M0,0 L10,0 L10,10 L0,10 L0,0 z"/></clipPath></defs><g clip-path="url(#clip7)" fill="#ffffff" fill-opacity="1" opacity="1" stroke="none" stroke-opacity="0" transform="matrix(2.85714,0,0,2.85714,-1.3145e-13,62.8571)"><path d="M8.882,5 L0.5,9.191 L0.5,0.809 L8.882,5 z" fill-rule="evenodd" vector-effect="none"/></g><defs><clipPath id="clip9"><path d="M0,0 L10,0 L10,10 L0,10 L0,0 z"/></clipPath></defs><g clip-path="url(#clip9)" fill="#000000" fill-opacity="1" opacity="1" stroke="none" stroke-opacity="0" transform="matrix(2.85714,0,0,2.85714,-1.3145e-13,62.8571)"><path d="M1,1.618 L7.764,5 L1,8.382 L1,1.618 M0,0 L0,10 L10,5 L0,0" fill-rule="nonzero" vector-effect="none"/></g><defs><clipPath id="clip31"><path d="M0,0 L10,0 L10,10 L0,10 L0,0 z"/></clipPath></defs><g clip-path="url(#clip31)" fill="#b3b3b3" fill-opacity="1" opacity="1" stroke="none" stroke-opacity="0" transform="matrix(2.85714,0,0,2.85714,171.429,62.8571)"><path d="M0.5,3.5 L3.5,3.5 L3.5,6.5 L0.5,6.5 L0.5,3.5 z" fill-rule="evenodd" vector-effect="none"/></g><defs><clipPath id="clip33"><path d="M0,0 L10,0 L10,10 L0,10 L0,0 z"/></clipPath></defs><g clip-path="url(#clip33)" fill="#000000" fill-opacity="1" opacity="1" stroke="none" stroke-opacity="0" transform="matrix(2.85714,0,0,2.85714,171.429,62.8571)"><path d="M3,4 L3,6 L1,6 L1,4 L3,4 M4,3 L0,3 L0,7 L4,7 L4,3" fill-rule="nonzero" vector-effect="none"/></g><defs><clipPath id="clip50"><path d="M-10,-2 L60,-2 L60,50 L-10,50 L-10,-2 z"/></clipPath></defs><g clip-path="url(#clip50)" fill="#ffffff" fill-opacity="1" opacity="1" stroke="none" stroke-opacity="0" transform="matrix(2.85714,0,0,2.85714,28.5714,5.71429)"><path d="M0,0 L50,0 L50,48 L0,48 L0,0 z" fill-rule="evenodd" vector-effect="none"/></g><defs><clipPath id="clip54"><path d="M0,0 L50,0 L50,48 L0,48 L0,0 z"/></clipPath></defs><g clip-path="url(#clip54)" fill="none" opacity="1" stroke="none" stroke-opacity="0" transform="matrix(2.85714,0,0,2.85714,28.5714,5.71429)"><path d="M0,0 L50,0 L50,48 L0,48 L0,0 z" fill-rule="evenodd" vector-effect="none"/></g><defs><clipPath id="clip64"><path d="M1,1 L51,1 L51,49 L1,49 L1,1 z"/></clipPath></defs><g clip-path="url(#clip64)" fill="none" opacity="1" stroke="#a06c70" stroke-linecap="butt" stroke-linejoin="miter" stroke-miterlimit="20" stroke-opacity="1" stroke-width="1.5925" transform="matrix(2.85714,0,0,2.85714,25.7143,2.85714)"><path d="M0.999998,25 L10.375,25" fill-rule="nonzero" vector-effect="none"/></g><defs><clipPath id="clip65"><path d="M1,1 L51,1 L51,49 L1,49 L1,1 z"/></clipPath></defs><g clip-path="url(#clip65)" fill="none" opacity="1" stroke="#3369c9" stroke-linecap="butt" stroke-linejoin="miter" stroke-miterlimit="20" stroke-opacity="1" stroke-width="1.5925" transform="matrix(2.85714,0,0,2.85714,25.7143,2.85714)"><path d="M40.5833,25 L50.9999,25" fill-rule="nonzero" vector-effect="none"/></g><defs><clipPath id="clip66"><path d="M1,1 L51,1 L51,49 L1,49 L1,1 z"/></clipPath></defs><g clip-path="url(#clip66)" fill="none" opacity="1" stroke="#3369c9" stroke-linecap="butt" stroke-linejoin="miter" stroke-miterlimit="20" stroke-opacity="1" stroke-width="1.5925" transform="matrix(2.85714,0,0,2.85714,25.7143,2.85714)"><path d="M40.5833,29.8 L40.5833,20.2" fill-rule="nonzero" vector-effect="none"/></g><defs><clipPath id="clip67"><path d="M1,1 L51,1 L51,49 L1,49 L1,1 z"/></clipPath></defs><g clip-path="url(#clip67)" fill="none" opacity="1" stroke="#3369c9" stroke-linecap="butt" stroke-linejoin="miter" stroke-miterlimit="20" stroke-opacity="1" stroke-width="1.5925" transform="matrix(2.85714,0,0,2.85714,25.7143,2.85714)"><path d="M40.5833,8.19999 L40.5833,0.999998" fill-rule="nonzero" vector-effect="none"/></g><defs><clipPath id="clip68"><path d="M1,1 L51,1 L51,49 L1,49 L1,1 z"/></clipPath></defs><g clip-path="url(#clip68)" fill="none" opacity="1" stroke="#3369c9" stroke-linecap="butt" stroke-linejoin="miter" stroke-miterlimit="20" stroke-opacity="1" stroke-width="1.5925" transform="matrix(2.85714,0,0,2.85714,25.7143,2.85714)"><path d="M40.5833,41.8 L40.5833,49" fill-rule="nonzero" vector-effect="none"/></g><defs><clipPath id="clip69"><path d="M1,1 L51,1 L51,49 L1,49 L1,1 z"/></clipPath></defs><g clip-path="url(#clip69)" fill="none" opacity="1" stroke="#3369c9" stroke-linecap="butt" stroke-linejoin="miter" stroke-miterlimit="20" stroke-opacity="1" stroke-width="1.5925" transform="matrix(2.85714,0,0,2.85714,25.7143,2.85714)"><path d="M40.5833,8.19999 L40.5833,10.6 L37.4583,10.6" fill-rule="nonzero" vector-effect="none"/></g><defs><clipPath id="clip70"><path d="M1,1 L51,1 L51,49 L1,49 L1,1 z"/></clipPath></defs><g clip-path="url(#clip70)" fill="none" opacity="1" stroke="#3369c9" stroke-linecap="butt" stroke-linejoin="miter" stroke-miterlimit="20" stroke-opacity="1" stroke-width="1.5925" transform="matrix(2.85714,0,0,2.85714,25.7143,2.85714)"><path d="M40.5833,20.2 L40.5833,17.8 L37.4583,17.8" fill-rule="nonzero" vector-effect="none"/></g><defs><clipPath id="clip71"><path d="M1,1 L51,1 L51,49 L1,49 L1,1 z"/></clipPath></defs><g clip-path="url(#clip71)" fill="none" opacity="1" stroke="#3369c9" stroke-linecap="butt" stroke-linejoin="miter" stroke-miterlimit="20" stroke-opacity="1" stroke-width="1.5925" transform="matrix(2.85714,0,0,2.85714,25.7143,2.85714)"><path d="M40.5833,29.8 L40.5833,32.2 L37.4583,32.2" fill-rule="nonzero" vector-effect="none"/></g><defs><clipPath id="clip72"><path d="M1,1 L51,1 L51,49 L1,49 L1,1 z"/></clipPath></defs><g clip-path="url(#clip72)" fill="none" opacity="1" stroke="#3369c9" stroke-linecap="butt" stroke-linejoin="miter" stroke-miterlimit="20" stroke-opacity="1" stroke-width="1.5925" transform="matrix(2.85714,0,0,2.85714,25.7143,2.85714)"><path d="M40.5833,41.8 L40.5833,39.4 L37.4583,39.4" fill-rule="nonzero" vector-effect="none"/></g><defs><clipPath id="clip73"><path d="M1,1 L51,1 L51,49 L1,49 L1,1 z"/></clipPath></defs><g clip-path="url(#clip73)" fill="none" opacity="1" stroke="#3369c9" stroke-linecap="butt" stroke-linejoin="miter" stroke-miterlimit="20" stroke-opacity="1" stroke-width="1.5925" transform="matrix(2.85714,0,0,2.85714,25.7143,2.85714)"><path d="M37.4583,8.79999 L37.4583,19.6" fill-rule="nonzero" vector-effect="none"/></g><defs><clipPath id="clip74"><path d="M1,1 L51,1 L51,49 L1,49 L1,1 z"/></clipPath></defs><g clip-path="url(#clip74)" fill="none" opacity="1" stroke="#3369c9" stroke-linecap="butt" stroke-linejoin="miter" stroke-miterlimit="20" stroke-opacity="1" stroke-width="1.5925" transform="matrix(2.85714,0,0,2.85714,25.7143,2.85714)"><path d="M37.4583,30.4 L37.4583,41.2" fill-rule="nonzero" vector-effect="none"/></g><defs><clipPath id="clip75"><path d="M1,1 L51,1 L51,49 L1,49 L1,1 z"/></clipPath></defs><g clip-path="url(#clip75)" fill="none" opacity="1" stroke="#3369c9" stroke-linecap="butt" stroke-linejoin="miter" stroke-miterlimit="20" stroke-opacity="1" stroke-width="1.5925" transform="matrix(2.85714,0,0,2.85714,25.7143,2.85714)"><path d="M35.375,8.79999 L35.375,19.6" fill-rule="nonzero" vector-effect="none"/></g><defs><clipPath id="clip76"><path d="M1,1 L51,1 L51,49 L1,49 L1,1 z"/></clipPath></defs><g clip-path="url(#clip76)" fill="none" opacity="1" stroke="#3369c9" stroke-linecap="butt" stroke-linejoin="miter" stroke-miterlimit="20" stroke-opacity="1" stroke-width="1.5925" transform="matrix(2.85714,0,0,2.85714,25.7143,2.85714)"><path d="M35.375,30.4 L35.375,41.2" fill-rule="nonzero" vector-effect="none"/></g><defs><clipPath id="clip77"><path d="M1,1 L51,1 L51,49 L1,49 L1,1 z"/></clipPath></defs><g clip-path="url(#clip77)" fill="none" opacity="1" stroke="#a06c70" stroke-linecap="butt" stroke-linejoin="miter" stroke-miterlimit="20" stroke-opacity="1" stroke-width="1.5925" transform="matrix(2.85714,0,0,2.85714,25.7143,2.85714)"><path d="M10.375,17.2 L10.375,32.2 L18.1875,25 L10.375,17.2 z" fill-rule="nonzero" vector-effect="none"/></g><defs><clipPath id="clip78"><path d="M1,1 L51,1 L51,49 L1,49 L1,1 z"/></clipPath></defs><g clip-path="url(#clip78)" fill="none" opacity="1" stroke="#3369c9" stroke-linecap="butt" stroke-linejoin="miter" stroke-miterlimit="20" stroke-opacity="1" stroke-width="1.5925" transform="matrix(2.85714,0,0,2.85714,25.7143,2.85714)"><path d="M18.1875,25 L23.9166,25 L23.9166,14.2 L35.375,14.2" fill-rule="nonzero" vector-effect="none"/></g><defs><clipPath id="clip79"><path d="M1,1 L51,1 L51,49 L1,49 L1,1 z"/></clipPath></defs><g clip-path="url(#clip79)" fill="none" opacity="1" stroke="#3369c9" stroke-linecap="butt" stroke-linejoin="miter" stroke-miterlimit="20" stroke-opacity="1" stroke-width="1.5925" transform="matrix(2.85714,0,0,2.85714,25.7143,2.85714)"><path d="M23.9166,25 L23.9166,35.8 L35.375,35.8" fill-rule="nonzero" vector-effect="none"/></g><defs><clipPath id="clip80"><path d="M1,1 L51,1 L51,49 L1,49 L1,1 z"/></clipPath></defs><g clip-path="url(#clip80)" fill="none" opacity="1" stroke="#3369c9" stroke-linecap="butt" stroke-linejoin="miter" stroke-miterlimit="4" stroke-opacity="1" stroke-width="1.5925" transform="matrix(2.85714,0,0,2.85714,25.7143,2.85714)"><path d="M43.2106,14.2 C43.2106,18.5225 40.1688,22.0266 36.4166,22.0266 C32.6644,22.0266 29.6226,18.5225 29.6226,14.2 C29.6226,9.87744 32.6644,6.37333 36.4166,6.37333 C40.1688,6.37333 43.2106,9.87744 43.2106,14.2 z" fill-rule="nonzero" vector-effect="none"/></g><defs><clipPath id="clip81"><path d="M1,1 L51,1 L51,49 L1,49 L1,1 z"/></clipPath></defs><g clip-path="url(#clip81)" fill="none" opacity="1" stroke="#3369c9" stroke-linecap="butt" stroke-linejoin="miter" stroke-miterlimit="4" stroke-opacity="1" stroke-width="1.5925" transform="matrix(2.85714,0,0,2.85714,25.7143,2.85714)"><path d="M43.2106,35.8 C43.2106,40.1225 40.1688,43.6266 36.4166,43.6266 C32.6644,43.6266 29.6226,40.1225 29.6226,35.8 C29.6226,31.4774 32.6644,27.9733 36.4166,27.9733 C40.1688,27.9733 43.2106,31.4774 43.2106,35.8 z" fill-rule="nonzero" vector-effect="none"/></g><defs><clipPath id="clip82"><path d="M1,1 L51,1 L51,49 L1,49 L1,1 z"/></clipPath></defs><g clip-path="url(#clip82)" fill="none" opacity="1" stroke="#ffffff" stroke-linecap="butt" stroke-linejoin="miter" stroke-miterlimit="20" stroke-opacity="1" stroke-width="1.5925" transform="matrix(2.85714,0,0,2.85714,25.7143,2.85714)"><path d="M0.999998,0.999998 L50.9999,0.999998 L50.9999,49 L0.999998,49 L0.999998,0.999998 z" fill-rule="nonzero" vector-effect="none"/></g><defs><clipPath id="clip99"><path d="M-15,-123 L241,-123 L241,123 L-15,123 L-15,-123 z"/></clipPath></defs><g clip-path="url(#clip99)" fill="none" opacity="1" stroke="#e60000" stroke-linecap="square" stroke-linejoin="bevel" stroke-opacity="1" stroke-width="1" transform="matrix(0.558036,0,0,0.558036,37.1429,74.2857)"><text fill="#e60000" fill-opacity="1" font-family="Liberation Sans" font-size="40" font-style="normal" font-weight="400" stroke="none" textLength="27" x="0" xml:space="preserve" y="17.9219">X</text></g><defs><clipPath id="clip105"><path d="M-10,-2 L60,-2 L60,50 L-10,50 L-10,-2 z"/></clipPath></defs><g clip-path="url(#clip105)" fill="none" opacity="1" stroke="none" stroke-opacity="0" transform="matrix(2.85714,0,0,2.85714,28.5714,5.71429)"><path d="M0,0 L50,0 L50,48 L0,48 L0,0 z" fill-rule="evenodd" vector-effect="none"/></g></g></svg>
