<?xml version="1.0" encoding="UTF-8"?><svg width="52.9167mm" height="27.2521mm" viewBox="0 0 200 103" xmlns="http://www.w3.org/2000/svg" xmlns:xlink="http://www.w3.org/1999/xlink"><g fill="none" stroke="black" stroke-width="1" fill-rule="evenodd" stroke-linecap="square" stroke-linejoin="bevel"><g clip-path="none" fill="none" opacity="1" stroke="none" stroke-opacity="0" transform="matrix(1,0,0,1,0,0)"><path d="M0,0 L200,0 L200,103 L0,103 L0,0 z" fill-rule="evenodd" vector-effect="none"/></g><defs><clipPath id="clip6"><path d="M0,0 L10,0 L10,10 L0,10 L0,0 z"/></clipPath></defs><g clip-path="url(#clip6)" fill="#b3b3b3" fill-opacity="1" opacity="1" stroke="none" stroke-opacity="0" transform="matrix(-3.33333,0,0,3.33333,33.3333,63.3333)"><path d="M0.5,3.5 L3.5,3.5 L3.5,6.5 L0.5,6.5 L0.5,3.5 z" fill-rule="evenodd" vector-effect="none"/></g><defs><clipPath id="clip8"><path d="M0,0 L10,0 L10,10 L0,10 L0,0 z"/></clipPath></defs><g clip-path="url(#clip8)" fill="#000000" fill-opacity="1" opacity="1" stroke="none" stroke-opacity="0" transform="matrix(-3.33333,0,0,3.33333,33.3333,63.3333)"><path d="M3,4 L3,6 L1,6 L1,4 L3,4 M4,3 L0,3 L0,7 L4,7 L4,3" fill-rule="nonzero" vector-effect="none"/></g><defs><clipPath id="clip28"><path d="M0,0 L10,0 L10,10 L0,10 L0,0 z"/></clipPath></defs><g clip-path="url(#clip28)" fill="#b3b3b3" fill-opacity="1" opacity="1" stroke="none" stroke-opacity="0" transform="matrix(-3.33333,0,0,3.33333,33.3333,13.3333)"><path d="M0.5,3.5 L3.5,3.5 L3.5,6.5 L0.5,6.5 L0.5,3.5 z" fill-rule="evenodd" vector-effect="none"/></g><defs><clipPath id="clip30"><path d="M0,0 L10,0 L10,10 L0,10 L0,0 z"/></clipPath></defs><g clip-path="url(#clip30)" fill="#000000" fill-opacity="1" opacity="1" stroke="none" stroke-opacity="0" transform="matrix(-3.33333,0,0,3.33333,33.3333,13.3333)"><path d="M3,4 L3,6 L1,6 L1,4 L3,4 M4,3 L0,3 L0,7 L4,7 L4,3" fill-rule="nonzero" vector-effect="none"/></g><defs><clipPath id="clip50"><path d="M0,0 L10,0 L10,10 L0,10 L0,0 z"/></clipPath></defs><g clip-path="url(#clip50)" fill="#b3b3b3" fill-opacity="1" opacity="1" stroke="none" stroke-opacity="0" transform="matrix(3.33333,0,0,3.33333,166.667,46.6667)"><path d="M0.5,3.5 L3.5,3.5 L3.5,6.5 L0.5,6.5 L0.5,3.5 z" fill-rule="evenodd" vector-effect="none"/></g><defs><clipPath id="clip52"><path d="M0,0 L10,0 L10,10 L0,10 L0,0 z"/></clipPath></defs><g clip-path="url(#clip52)" fill="#000000" fill-opacity="1" opacity="1" stroke="none" stroke-opacity="0" transform="matrix(3.33333,0,0,3.33333,166.667,46.6667)"><path d="M3,4 L3,6 L1,6 L1,4 L3,4 M4,3 L0,3 L0,7 L4,7 L4,3" fill-rule="nonzero" vector-effect="none"/></g><defs><clipPath id="clip69"><path d="M-10,-2 L50,-2 L50,29 L-10,29 L-10,-2 z"/></clipPath></defs><g clip-path="url(#clip69)" fill="#ffffff" fill-opacity="1" opacity="1" stroke="none" stroke-opacity="0" transform="matrix(3.33333,0,0,3.33333,33.3333,6.66667)"><path d="M0,0 L40,0 L40,27 L0,27 L0,0 z" fill-rule="evenodd" vector-effect="none"/></g><defs><clipPath id="clip73"><path d="M0,0 L40,0 L40,27 L0,27 L0,0 z"/></clipPath></defs><g clip-path="url(#clip73)" fill="none" opacity="1" stroke="none" stroke-opacity="0" transform="matrix(3.33333,0,0,3.33333,33.3333,6.66667)"><path d="M0,0 L40,0 L40,27 L0,27 L0,0 z" fill-rule="evenodd" vector-effect="none"/></g><defs><clipPath id="clip83"><path d="M1,1 L41,1 L41,28 L1,28 L1,1 z"/></clipPath></defs><g clip-path="url(#clip83)" fill="none" opacity="1" stroke="#3369c9" stroke-linecap="butt" stroke-linejoin="miter" stroke-miterlimit="20" stroke-opacity="1" stroke-width="0.91" transform="matrix(3.33333,0,0,3.33333,30,3.33333)"><path d="M1.00001,7.75 L10.6001,7.75" fill-rule="nonzero" vector-effect="none"/></g><defs><clipPath id="clip84"><path d="M1,1 L41,1 L41,28 L1,28 L1,1 z"/></clipPath></defs><g clip-path="url(#clip84)" fill="none" opacity="1" stroke="#3369c9" stroke-linecap="butt" stroke-linejoin="miter" stroke-miterlimit="20" stroke-opacity="1" stroke-width="0.91" transform="matrix(3.33333,0,0,3.33333,30,3.33333)"><path d="M1.00001,21.25 L10.6001,21.25" fill-rule="nonzero" vector-effect="none"/></g><defs><clipPath id="clip85"><path d="M1,1 L41,1 L41,28 L1,28 L1,1 z"/></clipPath></defs><g clip-path="url(#clip85)" fill="none" opacity="1" stroke="#3369c9" stroke-linecap="butt" stroke-linejoin="miter" stroke-miterlimit="20" stroke-opacity="1" stroke-width="0.91" transform="matrix(3.33333,0,0,3.33333,30,3.33333)"><path d="M31.4002,14.5 L41.0002,14.5" fill-rule="nonzero" vector-effect="none"/></g><defs><clipPath id="clip86"><path d="M1,1 L41,1 L41,28 L1,28 L1,1 z"/></clipPath></defs><g clip-path="url(#clip86)" fill="none" opacity="1" stroke="#3369c9" stroke-linecap="butt" stroke-linejoin="miter" stroke-miterlimit="20" stroke-opacity="1" stroke-width="0.91" transform="matrix(3.33333,0,0,3.33333,30,3.33333)"><path d="M10.6001,22.6 L10.6001,6.4" fill-rule="nonzero" vector-effect="none"/></g><defs><clipPath id="clip87"><path d="M1,1 L41,1 L41,28 L1,28 L1,1 z"/></clipPath></defs><g clip-path="url(#clip87)" fill="none" opacity="1" stroke="#3369c9" stroke-linecap="butt" stroke-linejoin="miter" stroke-miterlimit="20" stroke-opacity="1" stroke-width="0.91" transform="matrix(3.33333,0,0,3.33333,30,3.33333)"><path d="M21.0001,22.6 L21.8001,22.6" fill-rule="nonzero" vector-effect="none"/></g><defs><clipPath id="clip88"><path d="M1,1 L41,1 L41,28 L1,28 L1,1 z"/></clipPath></defs><g clip-path="url(#clip88)" fill="none" opacity="1" stroke="#3369c9" stroke-linecap="butt" stroke-linejoin="miter" stroke-miterlimit="20" stroke-opacity="1" stroke-width="0.91" transform="matrix(3.33333,0,0,3.33333,30,3.33333)"><path d="M10.6001,6.4 L21.8001,6.4" fill-rule="nonzero" vector-effect="none"/></g><defs><clipPath id="clip89"><path d="M1,1 L41,1 L41,28 L1,28 L1,1 z"/></clipPath></defs><g clip-path="url(#clip89)" fill="none" opacity="1" stroke="#3369c9" stroke-linecap="butt" stroke-linejoin="miter" stroke-miterlimit="20" stroke-opacity="1" stroke-width="0.91" transform="matrix(3.33333,0,0,3.33333,30,3.33333)"><path d="M10.6001,22.6 L21.0001,22.6" fill-rule="nonzero" vector-effect="none"/></g><defs><clipPath id="clip90"><path d="M1,1 L41,1 L41,28 L1,28 L1,1 z"/></clipPath></defs><g clip-path="url(#clip90)" fill="none" opacity="1" stroke="#3369c9" stroke-linecap="butt" stroke-linejoin="miter" stroke-miterlimit="4" stroke-opacity="1" stroke-width="0.91" transform="matrix(3.33333,0,0,3.33333,30,3.33333)"><path d="M21.8001,6.4 C24.3462,6.4 26.788,7.25339 28.5885,8.77244 C30.3888,10.2915 31.4002,12.3518 31.4002,14.5 C31.4002,16.6483 30.3888,18.7085 28.5885,20.2276 C26.788,21.7466 24.3462,22.6 21.8001,22.6" fill-rule="nonzero" vector-effect="none"/></g><defs><clipPath id="clip91"><path d="M1,1 L41,1 L41,28 L1,28 L1,1 z"/></clipPath></defs><g clip-path="url(#clip91)" fill="none" opacity="1" stroke="#ffffff" stroke-linecap="butt" stroke-linejoin="miter" stroke-miterlimit="20" stroke-opacity="1" stroke-width="0.91" transform="matrix(3.33333,0,0,3.33333,30,3.33333)"><path d="M1.00001,1 L41.0002,1 L41.0002,28 L1.00001,28 L1.00001,1 z" fill-rule="nonzero" vector-effect="none"/></g><defs><clipPath id="clip111"><path d="M-10,-2 L50,-2 L50,29 L-10,29 L-10,-2 z"/></clipPath></defs><g clip-path="url(#clip111)" fill="none" opacity="1" stroke="none" stroke-opacity="0" transform="matrix(3.33333,0,0,3.33333,33.3333,6.66667)"><path d="M0,0 L40,0 L40,27 L0,27 L0,0 z" fill-rule="evenodd" vector-effect="none"/></g></g></svg>
