<?xml version="1.0" encoding="UTF-8"?><svg width="52.9167mm" height="37.0417mm" viewBox="0 0 200 140" xmlns="http://www.w3.org/2000/svg" xmlns:xlink="http://www.w3.org/1999/xlink"><g fill="none" stroke="black" stroke-width="1" fill-rule="evenodd" stroke-linecap="square" stroke-linejoin="bevel"><g clip-path="none" fill="none" opacity="1" stroke="none" stroke-opacity="0" transform="matrix(1,0,0,1,0,0)"><path d="M0,0 L200,0 L200,140 L0,140 L0,0 z" fill-rule="evenodd" vector-effect="none"/></g><defs><clipPath id="clip6"><path d="M0,0 L10,0 L10,10 L0,10 L0,0 z"/></clipPath></defs><g clip-path="url(#clip6)" fill="#ffffff" fill-opacity="1" opacity="1" stroke="none" stroke-opacity="0" transform="matrix(4,0,0,4,160,84)"><path d="M0.5,0.809 L8.882,5 L0.5,9.191 L0.5,0.809 z" fill-rule="evenodd" vector-effect="none"/></g><defs><clipPath id="clip8"><path d="M0,0 L10,0 L10,10 L0,10 L0,0 z"/></clipPath></defs><g clip-path="url(#clip8)" fill="#000000" fill-opacity="1" opacity="1" stroke="none" stroke-opacity="0" transform="matrix(4,0,0,4,160,84)"><path d="M1,1.618 L7.764,5 L1,8.382 L1,1.618 M0,0 L0,10 L10,5 L0,0" fill-rule="nonzero" vector-effect="none"/></g><defs><clipPath id="clip30"><path d="M0,0 L10,0 L10,10 L0,10 L0,0 z"/></clipPath></defs><g clip-path="url(#clip30)" fill="#b3b3b3" fill-opacity="1" opacity="1" stroke="none" stroke-opacity="0" transform="matrix(4,0,0,4,160,24)"><path d="M0.5,3.5 L3.5,3.5 L3.5,6.5 L0.5,6.5 L0.5,3.5 z" fill-rule="evenodd" vector-effect="none"/></g><defs><clipPath id="clip32"><path d="M0,0 L10,0 L10,10 L0,10 L0,0 z"/></clipPath></defs><g clip-path="url(#clip32)" fill="#000000" fill-opacity="1" opacity="1" stroke="none" stroke-opacity="0" transform="matrix(4,0,0,4,160,24)"><path d="M3,4 L3,6 L1,6 L1,4 L3,4 M4,3 L0,3 L0,7 L4,7 L4,3" fill-rule="nonzero" vector-effect="none"/></g><defs><clipPath id="clip53"><path d="M0,0 L10,0 L10,10 L0,10 L0,0 z"/></clipPath></defs><g clip-path="url(#clip53)" fill="#ffffff" fill-opacity="1" opacity="1" stroke="none" stroke-opacity="0" transform="matrix(4,0,0,4,0,84)"><path d="M8.882,5 L0.5,9.191 L0.5,0.809 L8.882,5 z" fill-rule="evenodd" vector-effect="none"/></g><defs><clipPath id="clip55"><path d="M0,0 L10,0 L10,10 L0,10 L0,0 z"/></clipPath></defs><g clip-path="url(#clip55)" fill="#000000" fill-opacity="1" opacity="1" stroke="none" stroke-opacity="0" transform="matrix(4,0,0,4,0,84)"><path d="M1,1.618 L7.764,5 L1,8.382 L1,1.618 M0,0 L0,10 L10,5 L0,0" fill-rule="nonzero" vector-effect="none"/></g><defs><clipPath id="clip77"><path d="M0,0 L10,0 L10,10 L0,10 L0,0 z"/></clipPath></defs><g clip-path="url(#clip77)" fill="#b3b3b3" fill-opacity="1" opacity="1" stroke="none" stroke-opacity="0" transform="matrix(-4,0,0,4,40,24)"><path d="M0.5,3.5 L3.5,3.5 L3.5,6.5 L0.5,6.5 L0.5,3.5 z" fill-rule="evenodd" vector-effect="none"/></g><defs><clipPath id="clip79"><path d="M0,0 L10,0 L10,10 L0,10 L0,0 z"/></clipPath></defs><g clip-path="url(#clip79)" fill="#000000" fill-opacity="1" opacity="1" stroke="none" stroke-opacity="0" transform="matrix(-4,0,0,4,40,24)"><path d="M3,4 L3,6 L1,6 L1,4 L3,4 M4,3 L0,3 L0,7 L4,7 L4,3" fill-rule="nonzero" vector-effect="none"/></g><defs><clipPath id="clip96"><path d="M-10,-2 L40,-2 L40,33 L-10,33 L-10,-2 z"/></clipPath></defs><g clip-path="url(#clip96)" fill="#ffffff" fill-opacity="1" opacity="1" stroke="none" stroke-opacity="0" transform="matrix(4,0,0,4,40,8)"><path d="M0,0 L30,0 L30,31 L0,31 L0,0 z" fill-rule="evenodd" vector-effect="none"/></g><defs><clipPath id="clip100"><path d="M0,0 L30,0 L30,31 L0,31 L0,0 z"/></clipPath></defs><g clip-path="url(#clip100)" fill="none" opacity="1" stroke="none" stroke-opacity="0" transform="matrix(4,0,0,4,40,8)"><path d="M0,0 L30,0 L30,31 L0,31 L0,0 z" fill-rule="evenodd" vector-effect="none"/></g><defs><clipPath id="clip110"><path d="M1,1 L31,1 L31,32 L1,32 L1,1 z"/></clipPath></defs><g clip-path="url(#clip110)" fill="none" opacity="1" stroke="#3369c9" stroke-linecap="butt" stroke-linejoin="miter" stroke-miterlimit="4" stroke-opacity="1" stroke-width="1.04" transform="matrix(4,0,0,4,36,4)"><path d="M1,1 L31,1 L31,32 L1,32 L1,1 z" fill-rule="nonzero" vector-effect="none"/></g><defs><clipPath id="clip111"><path d="M0,0 L3307,0 L3307,3307 L0,3307 L0,0 z"/></clipPath></defs><g clip-path="url(#clip111)" fill="#3369c9" fill-opacity="1" opacity="1" stroke="none" stroke-opacity="0" transform="matrix(0.0362867,0,0,0.0374962,40,8)"><path d="M1511,377 L1700,566 L1937,661 L1322,1748 L2078,1464 L1842,2503 L2031,2551 L1700,2787 L1511,2409 L1700,2456 L1842,1795 L992,2031 L1511,377 z" fill-rule="nonzero" vector-effect="none"/></g><defs><clipPath id="clip112"><path d="M1,1 L31,1 L31,32 L1,32 L1,1 z"/></clipPath></defs><g clip-path="url(#clip112)" fill="none" opacity="1" stroke="#3369c9" stroke-linecap="butt" stroke-linejoin="miter" stroke-miterlimit="4" stroke-opacity="1" stroke-width="1.04" transform="matrix(4,0,0,4,36,4)"><path d="M14.7073,4.53402 L16.4218,6.30572 L18.5718,7.19625 L12.9927,17.3859 L19.8509,14.7236 L17.71,24.4633 L19.4246,24.9132 L16.4218,27.1255 L14.7073,23.5821 L16.4218,24.0227 L17.71,17.8264 L9.9991,20.0387 L14.7073,4.53402 z" fill-rule="nonzero" vector-effect="none"/></g><defs><clipPath id="clip129"><path d="M-138,-118 L16,-118 L16,41 L-138,41 L-138,-118 z"/></clipPath></defs><g clip-path="url(#clip129)" fill="none" opacity="1" stroke="#e60000" stroke-linecap="square" stroke-linejoin="bevel" stroke-opacity="1" stroke-width="1" transform="matrix(0.78125,0,0,0.78125,148,100)"><text fill="#e60000" fill-opacity="1" font-family="Liberation Sans" font-size="40" font-style="normal" font-weight="400" stroke="none" textLength="27" x="-34.125" xml:space="preserve" y="17.9219">X</text></g><defs><clipPath id="clip132"><path d="M-15,-118 L139,-118 L139,41 L-15,41 L-15,-118 z"/></clipPath></defs><g clip-path="url(#clip132)" fill="none" opacity="1" stroke="#e60000" stroke-linecap="square" stroke-linejoin="bevel" stroke-opacity="1" stroke-width="1" transform="matrix(0.78125,0,0,0.78125,52,100)"><text fill="#e60000" fill-opacity="1" font-family="Liberation Sans" font-size="40" font-style="normal" font-weight="400" stroke="none" textLength="24" x="0" xml:space="preserve" y="17.9219">F</text></g><defs><clipPath id="clip135"><path d="M-138,-41 L16,-41 L16,118 L-138,118 L-138,-41 z"/></clipPath></defs><g clip-path="url(#clip135)" fill="none" opacity="1" stroke="#e60000" stroke-linecap="square" stroke-linejoin="bevel" stroke-opacity="1" stroke-width="1" transform="matrix(0.78125,0,0,0.78125,148,40)"><text fill="#e60000" fill-opacity="1" font-family="Liberation Sans" font-size="40" font-style="normal" font-weight="400" stroke="none" textLength="13" x="-17.0312" xml:space="preserve" y="17.9219">-</text></g><defs><clipPath id="clip138"><path d="M-15,-41 L139,-41 L139,118 L-15,118 L-15,-41 z"/></clipPath></defs><g clip-path="url(#clip138)" fill="none" opacity="1" stroke="#e60000" stroke-linecap="square" stroke-linejoin="bevel" stroke-opacity="1" stroke-width="1" transform="matrix(0.78125,0,0,0.78125,52,40)"><text fill="#e60000" fill-opacity="1" font-family="Liberation Sans" font-size="40" font-style="normal" font-weight="400" stroke="none" textLength="23" x="0" xml:space="preserve" y="17.9219">+</text></g><defs><clipPath id="clip144"><path d="M-10,-2 L40,-2 L40,33 L-10,33 L-10,-2 z"/></clipPath></defs><g clip-path="url(#clip144)" fill="none" opacity="1" stroke="none" stroke-opacity="0" transform="matrix(4,0,0,4,40,8)"><path d="M0,0 L30,0 L30,31 L0,31 L0,0 z" fill-rule="evenodd" vector-effect="none"/></g></g></svg>
