<?xml version="1.0" encoding="UTF-8"?><svg width="52.9167mm" height="44.45mm" viewBox="0 0 200 168" xmlns="http://www.w3.org/2000/svg" xmlns:xlink="http://www.w3.org/1999/xlink"><g fill="none" stroke="black" stroke-width="1" fill-rule="evenodd" stroke-linecap="square" stroke-linejoin="bevel"><g clip-path="none" fill="none" opacity="1" stroke="none" stroke-opacity="0" transform="matrix(1,0,0,1,0,0)"><path d="M0,0 L200,0 L200,168 L0,168 L0,0 z" fill-rule="evenodd" vector-effect="none"/></g><defs><clipPath id="clip6"><path d="M0,0 L10,0 L10,10 L0,10 L0,0 z"/></clipPath></defs><g clip-path="url(#clip6)" fill="#b3b3b3" fill-opacity="1" opacity="1" stroke="none" stroke-opacity="0" transform="matrix(2,0,0,2,180,96)"><path d="M0.5,3.5 L3.5,3.5 L3.5,6.5 L0.5,6.5 L0.5,3.5 z" fill-rule="evenodd" vector-effect="none"/></g><defs><clipPath id="clip8"><path d="M0,0 L10,0 L10,10 L0,10 L0,0 z"/></clipPath></defs><g clip-path="url(#clip8)" fill="#000000" fill-opacity="1" opacity="1" stroke="none" stroke-opacity="0" transform="matrix(2,0,0,2,180,96)"><path d="M3,4 L3,6 L1,6 L1,4 L3,4 M4,3 L0,3 L0,7 L4,7 L4,3" fill-rule="nonzero" vector-effect="none"/></g><defs><clipPath id="clip28"><path d="M0,0 L10,0 L10,10 L0,10 L0,0 z"/></clipPath></defs><g clip-path="url(#clip28)" fill="#b3b3b3" fill-opacity="1" opacity="1" stroke="none" stroke-opacity="0" transform="matrix(2,0,0,2,180,136)"><path d="M0.5,3.5 L3.5,3.5 L3.5,6.5 L0.5,6.5 L0.5,3.5 z" fill-rule="evenodd" vector-effect="none"/></g><defs><clipPath id="clip30"><path d="M0,0 L10,0 L10,10 L0,10 L0,0 z"/></clipPath></defs><g clip-path="url(#clip30)" fill="#000000" fill-opacity="1" opacity="1" stroke="none" stroke-opacity="0" transform="matrix(2,0,0,2,180,136)"><path d="M3,4 L3,6 L1,6 L1,4 L3,4 M4,3 L0,3 L0,7 L4,7 L4,3" fill-rule="nonzero" vector-effect="none"/></g><defs><clipPath id="clip50"><path d="M0,0 L10,0 L10,10 L0,10 L0,0 z"/></clipPath></defs><g clip-path="url(#clip50)" fill="#b3b3b3" fill-opacity="1" opacity="1" stroke="none" stroke-opacity="0" transform="matrix(2,0,0,2,180,56)"><path d="M0.5,3.5 L3.5,3.5 L3.5,6.5 L0.5,6.5 L0.5,3.5 z" fill-rule="evenodd" vector-effect="none"/></g><defs><clipPath id="clip52"><path d="M0,0 L10,0 L10,10 L0,10 L0,0 z"/></clipPath></defs><g clip-path="url(#clip52)" fill="#000000" fill-opacity="1" opacity="1" stroke="none" stroke-opacity="0" transform="matrix(2,0,0,2,180,56)"><path d="M3,4 L3,6 L1,6 L1,4 L3,4 M4,3 L0,3 L0,7 L4,7 L4,3" fill-rule="nonzero" vector-effect="none"/></g><defs><clipPath id="clip72"><path d="M0,0 L10,0 L10,10 L0,10 L0,0 z"/></clipPath></defs><g clip-path="url(#clip72)" fill="#b3b3b3" fill-opacity="1" opacity="1" stroke="none" stroke-opacity="0" transform="matrix(-2,0,0,2,20,116)"><path d="M0.5,3.5 L3.5,3.5 L3.5,6.5 L0.5,6.5 L0.5,3.5 z" fill-rule="evenodd" vector-effect="none"/></g><defs><clipPath id="clip74"><path d="M0,0 L10,0 L10,10 L0,10 L0,0 z"/></clipPath></defs><g clip-path="url(#clip74)" fill="#000000" fill-opacity="1" opacity="1" stroke="none" stroke-opacity="0" transform="matrix(-2,0,0,2,20,116)"><path d="M3,4 L3,6 L1,6 L1,4 L3,4 M4,3 L0,3 L0,7 L4,7 L4,3" fill-rule="nonzero" vector-effect="none"/></g><defs><clipPath id="clip94"><path d="M0,0 L10,0 L10,10 L0,10 L0,0 z"/></clipPath></defs><g clip-path="url(#clip94)" fill="#b3b3b3" fill-opacity="1" opacity="1" stroke="none" stroke-opacity="0" transform="matrix(2,0,0,2,180,16)"><path d="M0.5,3.5 L3.5,3.5 L3.5,6.5 L0.5,6.5 L0.5,3.5 z" fill-rule="evenodd" vector-effect="none"/></g><defs><clipPath id="clip96"><path d="M0,0 L10,0 L10,10 L0,10 L0,0 z"/></clipPath></defs><g clip-path="url(#clip96)" fill="#000000" fill-opacity="1" opacity="1" stroke="none" stroke-opacity="0" transform="matrix(2,0,0,2,180,16)"><path d="M3,4 L3,6 L1,6 L1,4 L3,4 M4,3 L0,3 L0,7 L4,7 L4,3" fill-rule="nonzero" vector-effect="none"/></g><defs><clipPath id="clip116"><path d="M0,0 L10,0 L10,10 L0,10 L0,0 z"/></clipPath></defs><g clip-path="url(#clip116)" fill="#b3b3b3" fill-opacity="1" opacity="1" stroke="none" stroke-opacity="0" transform="matrix(-2,0,0,2,20,36)"><path d="M0.5,3.5 L3.5,3.5 L3.5,6.5 L0.5,6.5 L0.5,3.5 z" fill-rule="evenodd" vector-effect="none"/></g><defs><clipPath id="clip118"><path d="M0,0 L10,0 L10,10 L0,10 L0,0 z"/></clipPath></defs><g clip-path="url(#clip118)" fill="#000000" fill-opacity="1" opacity="1" stroke="none" stroke-opacity="0" transform="matrix(-2,0,0,2,20,36)"><path d="M3,4 L3,6 L1,6 L1,4 L3,4 M4,3 L0,3 L0,7 L4,7 L4,3" fill-rule="nonzero" vector-effect="none"/></g><defs><clipPath id="clip135"><path d="M-10,-2 L90,-2 L90,82 L-10,82 L-10,-2 z"/></clipPath></defs><g clip-path="url(#clip135)" fill="#ffffff" fill-opacity="1" opacity="1" stroke="none" stroke-opacity="0" transform="matrix(2,0,0,2,20,4)"><path d="M0,0 L80,0 L80,80 L0,80 L0,0 z" fill-rule="evenodd" vector-effect="none"/></g><defs><clipPath id="clip139"><path d="M0,0 L80,0 L80,80 L0,80 L0,0 z"/></clipPath></defs><g clip-path="url(#clip139)" fill="none" opacity="1" stroke="none" stroke-opacity="0" transform="matrix(2,0,0,2,20,4)"><path d="M0,0 L80,0 L80,80 L0,80 L0,0 z" fill-rule="evenodd" vector-effect="none"/></g><defs><clipPath id="clip149"><path d="M1,1 L81,1 L81,81 L1,81 L1,1 z"/></clipPath></defs><g clip-path="url(#clip149)" fill="none" opacity="1" stroke="#3369c9" stroke-linecap="butt" stroke-linejoin="miter" stroke-miterlimit="20" stroke-opacity="1" stroke-width="2.6325" transform="matrix(2,0,0,2,18,2)"><path d="M1.00001,21 L29.9363,21" fill-rule="nonzero" vector-effect="none"/></g><defs><clipPath id="clip150"><path d="M1,1 L81,1 L81,81 L1,81 L1,1 z"/></clipPath></defs><g clip-path="url(#clip150)" fill="none" opacity="1" stroke="#3369c9" stroke-linecap="butt" stroke-linejoin="miter" stroke-miterlimit="20" stroke-opacity="1" stroke-width="2.6325" transform="matrix(2,0,0,2,18,2)"><path d="M1.00001,61.0001 L29.9363,61.0001" fill-rule="nonzero" vector-effect="none"/></g><defs><clipPath id="clip151"><path d="M1,1 L81,1 L81,81 L1,81 L1,1 z"/></clipPath></defs><g clip-path="url(#clip151)" fill="none" opacity="1" stroke="#3369c9" stroke-linecap="butt" stroke-linejoin="miter" stroke-miterlimit="20" stroke-opacity="1" stroke-width="2.6325" transform="matrix(2,0,0,2,18,2)"><path d="M29.9363,21 L29.9363,25.0001" fill-rule="nonzero" vector-effect="none"/></g><defs><clipPath id="clip152"><path d="M1,1 L81,1 L81,81 L1,81 L1,1 z"/></clipPath></defs><g clip-path="url(#clip152)" fill="none" opacity="1" stroke="#3369c9" stroke-linecap="butt" stroke-linejoin="miter" stroke-miterlimit="20" stroke-opacity="1" stroke-width="2.6325" transform="matrix(2,0,0,2,18,2)"><path d="M29.9363,61.0001 L29.9363,57.0001" fill-rule="nonzero" vector-effect="none"/></g><defs><clipPath id="clip153"><path d="M1,1 L81,1 L81,81 L1,81 L1,1 z"/></clipPath></defs><g clip-path="url(#clip153)" fill="none" opacity="1" stroke="#3369c9" stroke-linecap="butt" stroke-linejoin="miter" stroke-miterlimit="20" stroke-opacity="1" stroke-width="2.6325" transform="matrix(2,0,0,2,18,2)"><path d="M53.7662,9.00002 L53.7662,5.00002 L75.8939,5.00002 L75.8939,11 L81.0003,11" fill-rule="nonzero" vector-effect="none"/></g><defs><clipPath id="clip154"><path d="M1,1 L81,1 L81,81 L1,81 L1,1 z"/></clipPath></defs><g clip-path="url(#clip154)" fill="none" opacity="1" stroke="#3369c9" stroke-linecap="butt" stroke-linejoin="miter" stroke-miterlimit="20" stroke-opacity="1" stroke-width="2.6325" transform="matrix(2,0,0,2,18,2)"><path d="M53.7662,34.0001 L53.7662,37.0001 L75.8939,37.0001 L75.8939,31.0001 L81.0003,31.0001" fill-rule="nonzero" vector-effect="none"/></g><defs><clipPath id="clip155"><path d="M1,1 L81,1 L81,81 L1,81 L1,1 z"/></clipPath></defs><g clip-path="url(#clip155)" fill="none" opacity="1" stroke="#3369c9" stroke-linecap="butt" stroke-linejoin="miter" stroke-miterlimit="20" stroke-opacity="1" stroke-width="2.6325" transform="matrix(2,0,0,2,18,2)"><path d="M53.7662,49.0001 L53.7662,45.0001 L75.8939,45.0001 L75.8939,51.0001 L81.0003,51.0001" fill-rule="nonzero" vector-effect="none"/></g><defs><clipPath id="clip156"><path d="M1,1 L81,1 L81,81 L1,81 L1,1 z"/></clipPath></defs><g clip-path="url(#clip156)" fill="none" opacity="1" stroke="#3369c9" stroke-linecap="butt" stroke-linejoin="miter" stroke-miterlimit="20" stroke-opacity="1" stroke-width="2.6325" transform="matrix(2,0,0,2,18,2)"><path d="M53.7662,73.0001 L53.7662,77.0001 L75.8939,77.0001 L75.8939,71.0001 L81.0003,71.0001" fill-rule="nonzero" vector-effect="none"/></g><defs><clipPath id="clip157"><path d="M1,1 L81,1 L81,81 L1,81 L1,1 z"/></clipPath></defs><g clip-path="url(#clip157)" fill="none" opacity="1" stroke="#3369c9" stroke-linecap="butt" stroke-linejoin="miter" stroke-miterlimit="4" stroke-opacity="1" stroke-width="2.6325" transform="matrix(2,0,0,2,18,2)"><path d="M29.9363,33.0001 C29.1996,33.0331 28.4737,32.7845 27.8675,32.2915 C27.2614,31.7985 26.8076,31.0878 26.5745,30.266 C26.3414,29.4443 26.3414,28.5558 26.5745,27.7341 C26.8076,26.9123 27.2614,26.2016 27.8675,25.7086 C28.4737,25.2156 29.1996,24.967 29.9363,25.0001" fill-rule="nonzero" vector-effect="none"/></g><defs><clipPath id="clip158"><path d="M1,1 L81,1 L81,81 L1,81 L1,1 z"/></clipPath></defs><g clip-path="url(#clip158)" fill="none" opacity="1" stroke="#3369c9" stroke-linecap="butt" stroke-linejoin="miter" stroke-miterlimit="4" stroke-opacity="1" stroke-width="2.6325" transform="matrix(2,0,0,2,18,2)"><path d="M29.9363,41.0001 C29.1996,41.033 28.4737,40.7845 27.8675,40.2916 C27.2614,39.7986 26.8076,39.0879 26.5745,38.266 C26.3414,37.4441 26.3414,36.556 26.5745,35.7341 C26.8076,34.9123 27.2614,34.2016 27.8675,33.7087 C28.4737,33.2157 29.1996,32.967 29.9363,33.0001" fill-rule="nonzero" vector-effect="none"/></g><defs><clipPath id="clip159"><path d="M1,1 L81,1 L81,81 L1,81 L1,1 z"/></clipPath></defs><g clip-path="url(#clip159)" fill="none" opacity="1" stroke="#3369c9" stroke-linecap="butt" stroke-linejoin="miter" stroke-miterlimit="4" stroke-opacity="1" stroke-width="2.6325" transform="matrix(2,0,0,2,18,2)"><path d="M29.9363,49.0001 C29.1996,49.0331 28.4737,48.7845 27.8675,48.2916 C27.2614,47.7986 26.8076,47.0879 26.5745,46.266 C26.3414,45.4442 26.3414,44.556 26.5745,43.7342 C26.8076,42.9123 27.2614,42.2016 27.8675,41.7086 C28.4737,41.2156 29.1996,40.9671 29.9363,41.0001" fill-rule="nonzero" vector-effect="none"/></g><defs><clipPath id="clip160"><path d="M1,1 L81,1 L81,81 L1,81 L1,1 z"/></clipPath></defs><g clip-path="url(#clip160)" fill="none" opacity="1" stroke="#3369c9" stroke-linecap="butt" stroke-linejoin="miter" stroke-miterlimit="4" stroke-opacity="1" stroke-width="2.6325" transform="matrix(2,0,0,2,18,2)"><path d="M29.9363,57.0001 C29.1996,57.0331 28.4737,56.7845 27.8675,56.2916 C27.2614,55.7986 26.8076,55.0879 26.5745,54.266 C26.3414,53.4442 26.3414,52.556 26.5745,51.7342 C26.8076,50.9123 27.2614,50.2016 27.8675,49.7086 C28.4737,49.2157 29.1996,48.9671 29.9363,49.0001" fill-rule="nonzero" vector-effect="none"/></g><defs><clipPath id="clip161"><path d="M1,1 L81,1 L81,81 L1,81 L1,1 z"/></clipPath></defs><g clip-path="url(#clip161)" fill="none" opacity="1" stroke="#3369c9" stroke-linecap="butt" stroke-linejoin="miter" stroke-miterlimit="4" stroke-opacity="1" stroke-width="2.6325" transform="matrix(2,0,0,2,18,2)"><path d="M53.7662,25.0001 C54.5053,24.9623 55.2347,25.2082 55.8447,25.7006 C56.4543,26.1931 56.911,26.9053 57.1455,27.7298 C57.3804,28.5542 57.3804,29.4459 57.1455,30.2704 C56.911,31.0948 56.4543,31.807 55.8447,32.2995 C55.2347,32.7919 54.5053,33.0378 53.7662,33.0001" fill-rule="nonzero" vector-effect="none"/></g><defs><clipPath id="clip162"><path d="M1,1 L81,1 L81,81 L1,81 L1,1 z"/></clipPath></defs><g clip-path="url(#clip162)" fill="none" opacity="1" stroke="#3369c9" stroke-linecap="butt" stroke-linejoin="miter" stroke-miterlimit="4" stroke-opacity="1" stroke-width="2.6325" transform="matrix(2,0,0,2,18,2)"><path d="M53.7662,17 C54.5053,16.9623 55.2347,17.2082 55.8447,17.7006 C56.4543,18.1931 56.911,18.9053 57.1455,19.7297 C57.3804,20.5542 57.3804,21.4459 57.1455,22.2703 C56.911,23.0948 56.4543,23.807 55.8447,24.2995 C55.2347,24.7919 54.5053,25.0378 53.7662,25.0001" fill-rule="nonzero" vector-effect="none"/></g><defs><clipPath id="clip163"><path d="M1,1 L81,1 L81,81 L1,81 L1,1 z"/></clipPath></defs><g clip-path="url(#clip163)" fill="none" opacity="1" stroke="#3369c9" stroke-linecap="butt" stroke-linejoin="miter" stroke-miterlimit="4" stroke-opacity="1" stroke-width="2.6325" transform="matrix(2,0,0,2,18,2)"><path d="M53.7662,9.00002 C54.5053,8.96224 55.2347,9.20817 55.8447,9.70062 C56.4543,10.1931 56.911,10.9053 57.1455,11.7297 C57.3804,12.5541 57.3804,13.4459 57.1455,14.2703 C56.911,15.0947 56.4543,15.807 55.8447,16.2994 C55.2347,16.7919 54.5053,17.0378 53.7662,17" fill-rule="nonzero" vector-effect="none"/></g><defs><clipPath id="clip164"><path d="M1,1 L81,1 L81,81 L1,81 L1,1 z"/></clipPath></defs><g clip-path="url(#clip164)" fill="none" opacity="1" stroke="#3369c9" stroke-linecap="butt" stroke-linejoin="miter" stroke-miterlimit="4" stroke-opacity="1" stroke-width="2.6325" transform="matrix(2,0,0,2,18,2)"><path d="M53.7662,65.0001 C54.5053,64.9623 55.2347,65.2083 55.8447,65.7009 C56.4543,66.1931 56.911,66.9053 57.1455,67.7298 C57.3804,68.5542 57.3804,69.4461 57.1455,70.2705 C56.911,71.0949 56.4543,71.8072 55.8447,72.2994 C55.2347,72.792 54.5053,73.0379 53.7662,73.0001" fill-rule="nonzero" vector-effect="none"/></g><defs><clipPath id="clip165"><path d="M1,1 L81,1 L81,81 L1,81 L1,1 z"/></clipPath></defs><g clip-path="url(#clip165)" fill="none" opacity="1" stroke="#3369c9" stroke-linecap="butt" stroke-linejoin="miter" stroke-miterlimit="4" stroke-opacity="1" stroke-width="2.6325" transform="matrix(2,0,0,2,18,2)"><path d="M53.7662,57.0001 C54.5053,56.9623 55.2347,57.2083 55.8447,57.7008 C56.4543,58.1931 56.911,58.9053 57.1455,59.7297 C57.3804,60.5542 57.3804,61.446 57.1455,62.2705 C56.911,63.0949 56.4543,63.8072 55.8447,64.2994 C55.2347,64.792 54.5053,65.0379 53.7662,65.0001" fill-rule="nonzero" vector-effect="none"/></g><defs><clipPath id="clip166"><path d="M1,1 L81,1 L81,81 L1,81 L1,1 z"/></clipPath></defs><g clip-path="url(#clip166)" fill="none" opacity="1" stroke="#3369c9" stroke-linecap="butt" stroke-linejoin="miter" stroke-miterlimit="4" stroke-opacity="1" stroke-width="2.6325" transform="matrix(2,0,0,2,18,2)"><path d="M53.7662,49.0001 C54.5053,48.9623 55.2347,49.2082 55.8447,49.7008 C56.4543,50.1931 56.911,50.9053 57.1455,51.7297 C57.3804,52.5542 57.3804,53.446 57.1455,54.2705 C56.911,55.0949 56.4543,55.8071 55.8447,56.2994 C55.2347,56.792 54.5053,57.0379 53.7662,57.0001" fill-rule="nonzero" vector-effect="none"/></g><defs><clipPath id="clip167"><path d="M9,9 L263,9 L263,225 L9,225 L9,9 z"/></clipPath></defs><g clip-path="url(#clip167)" fill="#3369c9" fill-opacity="1" opacity="1" stroke="none" stroke-opacity="0" transform="matrix(0.63042,0,0,0.740742,14.3262,-2.66666)"><path d="M79.2,76.5 C79.2,79.4823 76.7823,81.9 73.8,81.9 C70.8177,81.9 68.4,79.4823 68.4,76.5 C68.4,73.5177 70.8177,71.1 73.8,71.1 C76.7823,71.1 79.2,73.5177 79.2,76.5 z" fill-rule="nonzero" vector-effect="none"/></g><defs><clipPath id="clip168"><path d="M1,1 L81,1 L81,81 L1,81 L1,1 z"/></clipPath></defs><g clip-path="url(#clip168)" fill="none" opacity="1" stroke="#3369c9" stroke-linecap="butt" stroke-linejoin="miter" stroke-miterlimit="4" stroke-opacity="1" stroke-width="2.6325" transform="matrix(2,0,0,2,18,2)"><path d="M23.1278,26.0001 C23.1278,27.1046 22.3657,28.0001 21.4256,28.0001 C20.4856,28.0001 19.7235,27.1046 19.7235,26.0001 C19.7235,24.8955 20.4856,24 21.4256,24 C22.3657,24 23.1278,24.8955 23.1278,26.0001 z" fill-rule="nonzero" vector-effect="none"/></g><defs><clipPath id="clip169"><path d="M9,9 L263,9 L263,225 L9,225 L9,9 z"/></clipPath></defs><g clip-path="url(#clip169)" fill="#3369c9" fill-opacity="1" opacity="1" stroke="none" stroke-opacity="0" transform="matrix(0.63042,0,0,0.740742,14.3262,-2.66666)"><path d="M204.96,32.16 C204.96,35.1423 202.542,37.56 199.56,37.56 C196.578,37.56 194.16,35.1423 194.16,32.16 C194.16,29.1777 196.578,26.76 199.56,26.76 C202.542,26.76 204.96,29.1777 204.96,32.16 z" fill-rule="nonzero" vector-effect="none"/></g><defs><clipPath id="clip170"><path d="M1,1 L81,1 L81,81 L1,81 L1,1 z"/></clipPath></defs><g clip-path="url(#clip170)" fill="none" opacity="1" stroke="#3369c9" stroke-linecap="butt" stroke-linejoin="miter" stroke-miterlimit="4" stroke-opacity="1" stroke-width="2.6325" transform="matrix(2,0,0,2,18,2)"><path d="M62.7686,9.5778 C62.7686,10.6824 62.0065,11.5778 61.0664,11.5778 C60.1264,11.5778 59.3643,10.6824 59.3643,9.5778 C59.3643,8.47323 60.1264,7.5778 61.0664,7.5778 C62.0065,7.5778 62.7686,8.47323 62.7686,9.5778 z" fill-rule="nonzero" vector-effect="none"/></g><defs><clipPath id="clip171"><path d="M9,9 L263,9 L263,225 L9,225 L9,9 z"/></clipPath></defs><g clip-path="url(#clip171)" fill="#3369c9" fill-opacity="1" opacity="1" stroke="none" stroke-opacity="0" transform="matrix(0.63042,0,0,0.740742,14.3262,-2.66666)"><path d="M206.1,138.6 C206.1,141.582 203.682,144 200.7,144 C197.718,144 195.3,141.582 195.3,138.6 C195.3,135.618 197.718,133.2 200.7,133.2 C203.682,133.2 206.1,135.618 206.1,138.6 z" fill-rule="nonzero" vector-effect="none"/></g><defs><clipPath id="clip172"><path d="M1,1 L81,1 L81,81 L1,81 L1,1 z"/></clipPath></defs><g clip-path="url(#clip172)" fill="none" opacity="1" stroke="#3369c9" stroke-linecap="butt" stroke-linejoin="miter" stroke-miterlimit="4" stroke-opacity="1" stroke-width="2.6325" transform="matrix(2,0,0,2,18,2)"><path d="M63.1279,49.0001 C63.1279,50.1047 62.3658,51.0001 61.4258,51.0001 C60.4857,51.0001 59.7236,50.1047 59.7236,49.0001 C59.7236,47.8955 60.4857,47.0001 61.4258,47.0001 C62.3658,47.0001 63.1279,47.8955 63.1279,49.0001 z" fill-rule="nonzero" vector-effect="none"/></g><defs><clipPath id="clip173"><path d="M1,1 L81,1 L81,81 L1,81 L1,1 z"/></clipPath></defs><g clip-path="url(#clip173)" fill="none" opacity="1" stroke="#ffffff" stroke-linecap="butt" stroke-linejoin="miter" stroke-miterlimit="20" stroke-opacity="1" stroke-width="2.6325" transform="matrix(2,0,0,2,18,2)"><path d="M1.00001,1.00001 L81.0003,1.00001 L81.0003,81.0001 L1.00001,81.0001 L1.00001,1.00001 z" fill-rule="nonzero" vector-effect="none"/></g><defs><clipPath id="clip174"><path d="M1,1 L81,1 L81,81 L1,81 L1,1 z"/></clipPath></defs><g clip-path="url(#clip174)" fill="none" opacity="1" stroke="#3369c9" stroke-linecap="butt" stroke-linejoin="miter" stroke-miterlimit="20" stroke-opacity="1" stroke-width="2.6325" transform="matrix(2,0,0,2,18,2)"><path d="M38.447,9.00002 L38.447,73.0001" fill-rule="nonzero" vector-effect="none"/></g><defs><clipPath id="clip175"><path d="M1,1 L81,1 L81,81 L1,81 L1,1 z"/></clipPath></defs><g clip-path="url(#clip175)" fill="none" opacity="1" stroke="#3369c9" stroke-linecap="butt" stroke-linejoin="miter" stroke-miterlimit="20" stroke-opacity="1" stroke-width="2.6325" transform="matrix(2,0,0,2,18,2)"><path d="M45.2555,9.00002 L45.2555,73.0001" fill-rule="nonzero" vector-effect="none"/></g><defs><clipPath id="clip192"><path d="M-394,-358 L16,-358 L16,52 L-394,52 L-394,-358 z"/></clipPath></defs><g clip-path="url(#clip192)" fill="none" opacity="1" stroke="#e60000" stroke-linecap="square" stroke-linejoin="bevel" stroke-opacity="1" stroke-width="1" transform="matrix(0.390625,0,0,0.390625,174,144)"><text fill="#e60000" fill-opacity="1" font-family="Liberation Sans" font-size="40" font-style="normal" font-weight="400" stroke="none" textLength="35" x="-45.5" xml:space="preserve" y="17.9219">3-</text></g><defs><clipPath id="clip195"><path d="M-394,-256 L16,-256 L16,154 L-394,154 L-394,-256 z"/></clipPath></defs><g clip-path="url(#clip195)" fill="none" opacity="1" stroke="#e60000" stroke-linecap="square" stroke-linejoin="bevel" stroke-opacity="1" stroke-width="1" transform="matrix(0.390625,0,0,0.390625,174,104)"><text fill="#e60000" fill-opacity="1" font-family="Liberation Sans" font-size="40" font-style="normal" font-weight="400" stroke="none" textLength="45" x="-58.3594" xml:space="preserve" y="17.9219">3+</text></g><defs><clipPath id="clip198"><path d="M-394,-154 L16,-154 L16,256 L-394,256 L-394,-154 z"/></clipPath></defs><g clip-path="url(#clip198)" fill="none" opacity="1" stroke="#e60000" stroke-linecap="square" stroke-linejoin="bevel" stroke-opacity="1" stroke-width="1" transform="matrix(0.390625,0,0,0.390625,174,64)"><text fill="#e60000" fill-opacity="1" font-family="Liberation Sans" font-size="40" font-style="normal" font-weight="400" stroke="none" textLength="35" x="-45.5" xml:space="preserve" y="17.9219">2-</text></g><defs><clipPath id="clip201"><path d="M-394,-51 L16,-51 L16,359 L-394,359 L-394,-51 z"/></clipPath></defs><g clip-path="url(#clip201)" fill="none" opacity="1" stroke="#e60000" stroke-linecap="square" stroke-linejoin="bevel" stroke-opacity="1" stroke-width="1" transform="matrix(0.390625,0,0,0.390625,174,24)"><text fill="#e60000" fill-opacity="1" font-family="Liberation Sans" font-size="40" font-style="normal" font-weight="400" stroke="none" textLength="45" x="-58.3594" xml:space="preserve" y="17.9219">2+</text></g><defs><clipPath id="clip204"><path d="M-15,-307 L395,-307 L395,103 L-15,103 L-15,-307 z"/></clipPath></defs><g clip-path="url(#clip204)" fill="none" opacity="1" stroke="#e60000" stroke-linecap="square" stroke-linejoin="bevel" stroke-opacity="1" stroke-width="1" transform="matrix(0.390625,0,0,0.390625,26,124)"><text fill="#e60000" fill-opacity="1" font-family="Liberation Sans" font-size="40" font-style="normal" font-weight="400" stroke="none" textLength="35" x="0" xml:space="preserve" y="17.9219">1-</text></g><defs><clipPath id="clip207"><path d="M-15,-102 L395,-102 L395,308 L-15,308 L-15,-102 z"/></clipPath></defs><g clip-path="url(#clip207)" fill="none" opacity="1" stroke="#e60000" stroke-linecap="square" stroke-linejoin="bevel" stroke-opacity="1" stroke-width="1" transform="matrix(0.390625,0,0,0.390625,26,44)"><text fill="#e60000" fill-opacity="1" font-family="Liberation Sans" font-size="40" font-style="normal" font-weight="400" stroke="none" textLength="45" x="0" xml:space="preserve" y="17.9219">1+</text></g><defs><clipPath id="clip213"><path d="M-10,-2 L90,-2 L90,82 L-10,82 L-10,-2 z"/></clipPath></defs><g clip-path="url(#clip213)" fill="none" opacity="1" stroke="none" stroke-opacity="0" transform="matrix(2,0,0,2,20,4)"><path d="M0,0 L80,0 L80,80 L0,80 L0,0 z" fill-rule="evenodd" vector-effect="none"/></g></g></svg>
