<?xml version="1.0" encoding="UTF-8"?><svg width="47.0958mm" height="52.9167mm" viewBox="0 0 178 200" xmlns="http://www.w3.org/2000/svg" xmlns:xlink="http://www.w3.org/1999/xlink"><g fill="none" stroke="black" stroke-width="1" fill-rule="evenodd" stroke-linecap="square" stroke-linejoin="bevel"><g clip-path="none" fill="none" opacity="1" stroke="none" stroke-opacity="0" transform="matrix(1,0,0,1,0,0)"><path d="M0,0 L178,0 L178,200 L0,200 L0,0 z" fill-rule="evenodd" vector-effect="none"/></g><defs><clipPath id="clip6"><path d="M0,0 L10,0 L10,10 L0,10 L0,0 z"/></clipPath></defs><g clip-path="url(#clip6)" fill="#b3b3b3" fill-opacity="1" opacity="1" stroke="none" stroke-opacity="0" transform="matrix(2.38095,0,0,2.38095,154.762,42.8571)"><path d="M0.5,3.5 L3.5,3.5 L3.5,6.5 L0.5,6.5 L0.5,3.5 z" fill-rule="evenodd" vector-effect="none"/></g><defs><clipPath id="clip8"><path d="M0,0 L10,0 L10,10 L0,10 L0,0 z"/></clipPath></defs><g clip-path="url(#clip8)" fill="#000000" fill-opacity="1" opacity="1" stroke="none" stroke-opacity="0" transform="matrix(2.38095,0,0,2.38095,154.762,42.8571)"><path d="M3,4 L3,6 L1,6 L1,4 L3,4 M4,3 L0,3 L0,7 L4,7 L4,3" fill-rule="nonzero" vector-effect="none"/></g><defs><clipPath id="clip28"><path d="M0,0 L10,0 L10,10 L0,10 L0,0 z"/></clipPath></defs><g clip-path="url(#clip28)" fill="#b3b3b3" fill-opacity="1" opacity="1" stroke="none" stroke-opacity="0" transform="matrix(2.38095,0,0,2.38095,154.762,138.095)"><path d="M0.5,3.5 L3.5,3.5 L3.5,6.5 L0.5,6.5 L0.5,3.5 z" fill-rule="evenodd" vector-effect="none"/></g><defs><clipPath id="clip30"><path d="M0,0 L10,0 L10,10 L0,10 L0,0 z"/></clipPath></defs><g clip-path="url(#clip30)" fill="#000000" fill-opacity="1" opacity="1" stroke="none" stroke-opacity="0" transform="matrix(2.38095,0,0,2.38095,154.762,138.095)"><path d="M3,4 L3,6 L1,6 L1,4 L3,4 M4,3 L0,3 L0,7 L4,7 L4,3" fill-rule="nonzero" vector-effect="none"/></g><defs><clipPath id="clip50"><path d="M0,0 L10,0 L10,10 L0,10 L0,0 z"/></clipPath></defs><g clip-path="url(#clip50)" fill="#b3b3b3" fill-opacity="1" opacity="1" stroke="none" stroke-opacity="0" transform="matrix(-2.38095,0,0,2.38095,23.8095,150)"><path d="M0.5,3.5 L3.5,3.5 L3.5,6.5 L0.5,6.5 L0.5,3.5 z" fill-rule="evenodd" vector-effect="none"/></g><defs><clipPath id="clip52"><path d="M0,0 L10,0 L10,10 L0,10 L0,0 z"/></clipPath></defs><g clip-path="url(#clip52)" fill="#000000" fill-opacity="1" opacity="1" stroke="none" stroke-opacity="0" transform="matrix(-2.38095,0,0,2.38095,23.8095,150)"><path d="M3,4 L3,6 L1,6 L1,4 L3,4 M4,3 L0,3 L0,7 L4,7 L4,3" fill-rule="nonzero" vector-effect="none"/></g><defs><clipPath id="clip72"><path d="M0,0 L10,0 L10,10 L0,10 L0,0 z"/></clipPath></defs><g clip-path="url(#clip72)" fill="#b3b3b3" fill-opacity="1" opacity="1" stroke="none" stroke-opacity="0" transform="matrix(-2.38095,0,0,2.38095,23.8095,90.4762)"><path d="M0.5,3.5 L3.5,3.5 L3.5,6.5 L0.5,6.5 L0.5,3.5 z" fill-rule="evenodd" vector-effect="none"/></g><defs><clipPath id="clip74"><path d="M0,0 L10,0 L10,10 L0,10 L0,0 z"/></clipPath></defs><g clip-path="url(#clip74)" fill="#000000" fill-opacity="1" opacity="1" stroke="none" stroke-opacity="0" transform="matrix(-2.38095,0,0,2.38095,23.8095,90.4762)"><path d="M3,4 L3,6 L1,6 L1,4 L3,4 M4,3 L0,3 L0,7 L4,7 L4,3" fill-rule="nonzero" vector-effect="none"/></g><defs><clipPath id="clip95"><path d="M0,0 L10,0 L10,10 L0,10 L0,0 z"/></clipPath></defs><g clip-path="url(#clip95)" fill="#ffffff" fill-opacity="1" opacity="1" stroke="none" stroke-opacity="0" transform="matrix(2.38095,0,0,2.38095,4.26326e-14,30.9524)"><path d="M8.882,5 L0.5,9.191 L0.5,0.809 L8.882,5 z" fill-rule="evenodd" vector-effect="none"/></g><defs><clipPath id="clip97"><path d="M0,0 L10,0 L10,10 L0,10 L0,0 z"/></clipPath></defs><g clip-path="url(#clip97)" fill="#000000" fill-opacity="1" opacity="1" stroke="none" stroke-opacity="0" transform="matrix(2.38095,0,0,2.38095,4.26326e-14,30.9524)"><path d="M1,1.618 L7.764,5 L1,8.382 L1,1.618 M0,0 L0,10 L10,5 L0,0" fill-rule="nonzero" vector-effect="none"/></g><defs><clipPath id="clip116"><path d="M-10,-2 L65,-2 L65,82 L-10,82 L-10,-2 z"/></clipPath></defs><g clip-path="url(#clip116)" fill="#ffffff" fill-opacity="1" opacity="1" stroke="none" stroke-opacity="0" transform="matrix(2.38095,0,0,2.38095,23.8095,4.7619)"><path d="M0,0 L55,0 L55,80 L0,80 L0,0 z" fill-rule="evenodd" vector-effect="none"/></g><defs><clipPath id="clip120"><path d="M0,0 L55,0 L55,80 L0,80 L0,0 z"/></clipPath></defs><g clip-path="url(#clip120)" fill="none" opacity="1" stroke="none" stroke-opacity="0" transform="matrix(2.38095,0,0,2.38095,23.8095,4.7619)"><path d="M0,0 L55,0 L55,80 L0,80 L0,0 z" fill-rule="evenodd" vector-effect="none"/></g><defs><clipPath id="clip130"><path d="M1,1 L56,1 L56,81 L1,81 L1,1 z"/></clipPath></defs><g clip-path="url(#clip130)" fill="none" opacity="1" stroke="#3369c9" stroke-linecap="butt" stroke-linejoin="miter" stroke-miterlimit="20" stroke-opacity="1" stroke-width="2.6325" transform="matrix(2.38095,0,0,2.38095,21.4286,2.38095)"><path d="M0.999999,41.0001 L13.6923,41.0001" fill-rule="nonzero" vector-effect="none"/></g><defs><clipPath id="clip131"><path d="M1,1 L56,1 L56,81 L1,81 L1,1 z"/></clipPath></defs><g clip-path="url(#clip131)" fill="none" opacity="1" stroke="#3369c9" stroke-linecap="butt" stroke-linejoin="miter" stroke-miterlimit="20" stroke-opacity="1" stroke-width="2.6325" transform="matrix(2.38095,0,0,2.38095,21.4286,2.38095)"><path d="M1.60439,67.6668 L13.6923,67.6668" fill-rule="nonzero" vector-effect="none"/></g><defs><clipPath id="clip132"><path d="M1,1 L56,1 L56,81 L1,81 L1,1 z"/></clipPath></defs><g clip-path="url(#clip132)" fill="none" opacity="1" stroke="#3369c9" stroke-linecap="butt" stroke-linejoin="miter" stroke-miterlimit="20" stroke-opacity="1" stroke-width="2.6325" transform="matrix(2.38095,0,0,2.38095,21.4286,2.38095)"><path d="M13.6923,67.6668 L37.8681,54.3334" fill-rule="nonzero" vector-effect="none"/></g><defs><clipPath id="clip133"><path d="M1,1 L56,1 L56,81 L1,81 L1,1 z"/></clipPath></defs><g clip-path="url(#clip133)" fill="none" opacity="1" stroke="#3369c9" stroke-linecap="butt" stroke-linejoin="miter" stroke-miterlimit="20" stroke-opacity="1" stroke-width="2.6325" transform="matrix(2.38095,0,0,2.38095,21.4286,2.38095)"><path d="M37.8681,67.6668 L53.5824,67.6668 L53.5824,61.0001 L55.9999,61.0001" fill-rule="nonzero" vector-effect="none"/></g><defs><clipPath id="clip134"><path d="M1,1 L56,1 L56,81 L1,81 L1,1 z"/></clipPath></defs><g clip-path="url(#clip134)" fill="none" opacity="1" stroke="#3369c9" stroke-linecap="butt" stroke-linejoin="miter" stroke-miterlimit="20" stroke-opacity="1" stroke-width="2.6325" transform="matrix(2.38095,0,0,2.38095,21.4286,2.38095)"><path d="M13.6923,41.0001 L37.8681,27.6667" fill-rule="nonzero" vector-effect="none"/></g><defs><clipPath id="clip135"><path d="M1,1 L56,1 L56,81 L1,81 L1,1 z"/></clipPath></defs><g clip-path="url(#clip135)" fill="none" opacity="1" stroke="#3369c9" stroke-linecap="butt" stroke-linejoin="miter" stroke-miterlimit="20" stroke-opacity="1" stroke-width="2.6325" transform="matrix(2.38095,0,0,2.38095,21.4286,2.38095)"><path d="M55.9999,21 L53.5824,21 L53.5824,41.0001 L37.8681,41.0001" fill-rule="nonzero" vector-effect="none"/></g><defs><clipPath id="clip136"><path d="M6,9 L252,9 L252,333 L6,333 L6,9 z"/></clipPath></defs><g clip-path="url(#clip136)" fill="#3369c9" fill-opacity="1" opacity="1" stroke="none" stroke-opacity="0" transform="matrix(0.532976,0,0,0.58789,20.4518,-0.529095)"><path d="M75.06,279 C75.06,285.661 69.6606,291.06 63,291.06 C56.3394,291.06 50.94,285.661 50.94,279 C50.94,272.339 56.3394,266.94 63,266.94 C69.6606,266.94 75.06,272.339 75.06,279 z" fill-rule="nonzero" vector-effect="none"/></g><defs><clipPath id="clip137"><path d="M1,1 L56,1 L56,81 L1,81 L1,1 z"/></clipPath></defs><g clip-path="url(#clip137)" fill="none" opacity="1" stroke="#3369c9" stroke-linecap="butt" stroke-linejoin="miter" stroke-miterlimit="4" stroke-opacity="1" stroke-width="2.6325" transform="matrix(2.38095,0,0,2.38095,21.4286,2.38095)"><path d="M16.3919,67.6668 C16.3919,69.3114 15.1833,70.6446 13.6923,70.6446 C12.2013,70.6446 10.9927,69.3114 10.9927,67.6668 C10.9927,66.0222 12.2013,64.689 13.6923,64.689 C15.1833,64.689 16.3919,66.0222 16.3919,67.6668 z" fill-rule="nonzero" vector-effect="none"/></g><defs><clipPath id="clip138"><path d="M6,9 L252,9 L252,333 L6,333 L6,9 z"/></clipPath></defs><g clip-path="url(#clip138)" fill="#3369c9" fill-opacity="1" opacity="1" stroke="none" stroke-opacity="0" transform="matrix(0.532976,0,0,0.58789,20.4518,-0.529095)"><path d="M183.06,276.3 C183.06,282.961 177.661,288.36 171,288.36 C164.339,288.36 158.94,282.961 158.94,276.3 C158.94,269.639 164.339,264.24 171,264.24 C177.661,264.24 183.06,269.639 183.06,276.3 z" fill-rule="nonzero" vector-effect="none"/></g><defs><clipPath id="clip139"><path d="M1,1 L56,1 L56,81 L1,81 L1,1 z"/></clipPath></defs><g clip-path="url(#clip139)" fill="none" opacity="1" stroke="#3369c9" stroke-linecap="butt" stroke-linejoin="miter" stroke-miterlimit="4" stroke-opacity="1" stroke-width="2.6325" transform="matrix(2.38095,0,0,2.38095,21.4286,2.38095)"><path d="M40.5677,67.0001 C40.5677,68.6447 39.3591,69.9779 37.8681,69.9779 C36.3771,69.9779 35.1685,68.6447 35.1685,67.0001 C35.1685,65.3555 36.3771,64.0223 37.8681,64.0223 C39.3591,64.0223 40.5677,65.3555 40.5677,67.0001 z" fill-rule="nonzero" vector-effect="none"/></g><defs><clipPath id="clip140"><path d="M6,9 L252,9 L252,333 L6,333 L6,9 z"/></clipPath></defs><g clip-path="url(#clip140)" fill="#3369c9" fill-opacity="1" opacity="1" stroke="none" stroke-opacity="0" transform="matrix(0.532976,0,0,0.58789,20.4518,-0.529095)"><path d="M75.06,171 C75.06,177.661 69.6606,183.06 63,183.06 C56.3394,183.06 50.94,177.661 50.94,171 C50.94,164.339 56.3394,158.94 63,158.94 C69.6606,158.94 75.06,164.339 75.06,171 z" fill-rule="nonzero" vector-effect="none"/></g><defs><clipPath id="clip141"><path d="M1,1 L56,1 L56,81 L1,81 L1,1 z"/></clipPath></defs><g clip-path="url(#clip141)" fill="none" opacity="1" stroke="#3369c9" stroke-linecap="butt" stroke-linejoin="miter" stroke-miterlimit="4" stroke-opacity="1" stroke-width="2.6325" transform="matrix(2.38095,0,0,2.38095,21.4286,2.38095)"><path d="M16.3919,41.0001 C16.3919,42.6447 15.1833,43.9779 13.6923,43.9779 C12.2013,43.9779 10.9927,42.6447 10.9927,41.0001 C10.9927,39.3555 12.2013,38.0223 13.6923,38.0223 C15.1833,38.0223 16.3919,39.3555 16.3919,41.0001 z" fill-rule="nonzero" vector-effect="none"/></g><defs><clipPath id="clip142"><path d="M6,9 L252,9 L252,333 L6,333 L6,9 z"/></clipPath></defs><g clip-path="url(#clip142)" fill="#3369c9" fill-opacity="1" opacity="1" stroke="none" stroke-opacity="0" transform="matrix(0.532976,0,0,0.58789,20.4518,-0.529095)"><path d="M183.06,171 C183.06,177.661 177.661,183.06 171,183.06 C164.339,183.06 158.94,177.661 158.94,171 C158.94,164.339 164.339,158.94 171,158.94 C177.661,158.94 183.06,164.339 183.06,171 z" fill-rule="nonzero" vector-effect="none"/></g><defs><clipPath id="clip143"><path d="M1,1 L56,1 L56,81 L1,81 L1,1 z"/></clipPath></defs><g clip-path="url(#clip143)" fill="none" opacity="1" stroke="#3369c9" stroke-linecap="butt" stroke-linejoin="miter" stroke-miterlimit="4" stroke-opacity="1" stroke-width="2.6325" transform="matrix(2.38095,0,0,2.38095,21.4286,2.38095)"><path d="M40.5677,41.0001 C40.5677,42.6447 39.3591,43.9779 37.8681,43.9779 C36.3771,43.9779 35.1685,42.6447 35.1685,41.0001 C35.1685,39.3555 36.3771,38.0223 37.8681,38.0223 C39.3591,38.0223 40.5677,39.3555 40.5677,41.0001 z" fill-rule="nonzero" vector-effect="none"/></g><defs><clipPath id="clip144"><path d="M1,1 L56,1 L56,81 L1,81 L1,1 z"/></clipPath></defs><g clip-path="url(#clip144)" fill="none" opacity="1" stroke="#ffffff" stroke-linecap="butt" stroke-linejoin="miter" stroke-miterlimit="20" stroke-opacity="1" stroke-width="2.6325" transform="matrix(2.38095,0,0,2.38095,21.4286,2.38095)"><path d="M1.60439,1.00001 L55.9999,1.00001 L55.9999,81.0001 L1.60439,81.0001 L1.60439,1.00001 z" fill-rule="nonzero" vector-effect="none"/></g><defs><clipPath id="clip145"><path d="M1,1 L56,1 L56,81 L1,81 L1,1 z"/></clipPath></defs><g clip-path="url(#clip145)" fill="none" opacity="1" stroke="#a06c70" stroke-linecap="butt" stroke-linejoin="miter" stroke-miterlimit="20" stroke-opacity="1" stroke-width="2.6325" transform="matrix(2.38095,0,0,2.38095,21.4286,2.38095)"><path d="M1.60439,14.3334 L5.23076,14.3334" fill-rule="nonzero" vector-effect="none"/></g><defs><clipPath id="clip146"><path d="M1,1 L56,1 L56,81 L1,81 L1,1 z"/></clipPath></defs><g clip-path="url(#clip146)" fill="none" opacity="1" stroke="#a06c70" stroke-linecap="butt" stroke-linejoin="miter" stroke-miterlimit="20" stroke-opacity="1" stroke-width="2.6325" transform="matrix(2.38095,0,0,2.38095,21.4286,2.38095)"><path d="M7.64834,14.3334 L11.2747,14.3334" fill-rule="nonzero" vector-effect="none"/></g><defs><clipPath id="clip147"><path d="M1,1 L56,1 L56,81 L1,81 L1,1 z"/></clipPath></defs><g clip-path="url(#clip147)" fill="none" opacity="1" stroke="#a06c70" stroke-linecap="butt" stroke-linejoin="miter" stroke-miterlimit="20" stroke-opacity="1" stroke-width="2.6325" transform="matrix(2.38095,0,0,2.38095,21.4286,2.38095)"><path d="M13.6923,14.3334 L17.3187,14.3334" fill-rule="nonzero" vector-effect="none"/></g><defs><clipPath id="clip148"><path d="M1,1 L56,1 L56,81 L1,81 L1,1 z"/></clipPath></defs><g clip-path="url(#clip148)" fill="none" opacity="1" stroke="#a06c70" stroke-linecap="butt" stroke-linejoin="miter" stroke-miterlimit="20" stroke-opacity="1" stroke-width="2.6325" transform="matrix(2.38095,0,0,2.38095,21.4286,2.38095)"><path d="M19.7362,14.3334 L23.3626,14.3334" fill-rule="nonzero" vector-effect="none"/></g><defs><clipPath id="clip149"><path d="M1,1 L56,1 L56,81 L1,81 L1,1 z"/></clipPath></defs><g clip-path="url(#clip149)" fill="none" opacity="1" stroke="#a06c70" stroke-linecap="butt" stroke-linejoin="miter" stroke-miterlimit="20" stroke-opacity="1" stroke-width="2.6325" transform="matrix(2.38095,0,0,2.38095,21.4286,2.38095)"><path d="M23.3626,15.6667 L23.3626,19.6667" fill-rule="nonzero" vector-effect="none"/></g><defs><clipPath id="clip150"><path d="M1,1 L56,1 L56,81 L1,81 L1,1 z"/></clipPath></defs><g clip-path="url(#clip150)" fill="none" opacity="1" stroke="#a06c70" stroke-linecap="butt" stroke-linejoin="miter" stroke-miterlimit="20" stroke-opacity="1" stroke-width="2.6325" transform="matrix(2.38095,0,0,2.38095,21.4286,2.38095)"><path d="M23.3626,22.3334 L23.3626,26.3334" fill-rule="nonzero" vector-effect="none"/></g><defs><clipPath id="clip151"><path d="M1,1 L56,1 L56,81 L1,81 L1,1 z"/></clipPath></defs><g clip-path="url(#clip151)" fill="none" opacity="1" stroke="#a06c70" stroke-linecap="butt" stroke-linejoin="miter" stroke-miterlimit="20" stroke-opacity="1" stroke-width="2.6325" transform="matrix(2.38095,0,0,2.38095,21.4286,2.38095)"><path d="M23.3626,29.0001 L23.3626,33.0001" fill-rule="nonzero" vector-effect="none"/></g><defs><clipPath id="clip152"><path d="M1,1 L56,1 L56,81 L1,81 L1,1 z"/></clipPath></defs><g clip-path="url(#clip152)" fill="none" opacity="1" stroke="#a06c70" stroke-linecap="butt" stroke-linejoin="miter" stroke-miterlimit="20" stroke-opacity="1" stroke-width="2.6325" transform="matrix(2.38095,0,0,2.38095,21.4286,2.38095)"><path d="M23.3626,53.6668 L23.3626,57.6668" fill-rule="nonzero" vector-effect="none"/></g><defs><clipPath id="clip153"><path d="M1,1 L56,1 L56,81 L1,81 L1,1 z"/></clipPath></defs><g clip-path="url(#clip153)" fill="none" opacity="1" stroke="#a06c70" stroke-linecap="butt" stroke-linejoin="miter" stroke-miterlimit="20" stroke-opacity="1" stroke-width="2.6325" transform="matrix(2.38095,0,0,2.38095,21.4286,2.38095)"><path d="M23.3626,40.3334 L23.3626,44.3334" fill-rule="nonzero" vector-effect="none"/></g><defs><clipPath id="clip154"><path d="M1,1 L56,1 L56,81 L1,81 L1,1 z"/></clipPath></defs><g clip-path="url(#clip154)" fill="none" opacity="1" stroke="#a06c70" stroke-linecap="butt" stroke-linejoin="miter" stroke-miterlimit="20" stroke-opacity="1" stroke-width="2.6325" transform="matrix(2.38095,0,0,2.38095,21.4286,2.38095)"><path d="M23.3626,47.0001 L23.3626,51.0001" fill-rule="nonzero" vector-effect="none"/></g><defs><clipPath id="clip171"><path d="M-266,-307 L16,-307 L16,103 L-266,103 L-266,-307 z"/></clipPath></defs><g clip-path="url(#clip171)" fill="none" opacity="1" stroke="#e60000" stroke-linecap="square" stroke-linejoin="bevel" stroke-opacity="1" stroke-width="1" transform="matrix(0.46503,0,0,0.46503,147.619,147.619)"><text fill="#e60000" fill-opacity="1" font-family="Liberation Sans" font-size="40" font-style="normal" font-weight="400" stroke="none" textLength="41" x="-54.0469" xml:space="preserve" y="17.9219">s2</text></g><defs><clipPath id="clip174"><path d="M-266,-102 L16,-102 L16,308 L-266,308 L-266,-102 z"/></clipPath></defs><g clip-path="url(#clip174)" fill="none" opacity="1" stroke="#e60000" stroke-linecap="square" stroke-linejoin="bevel" stroke-opacity="1" stroke-width="1" transform="matrix(0.46503,0,0,0.46503,147.619,52.381)"><text fill="#e60000" fill-opacity="1" font-family="Liberation Sans" font-size="40" font-style="normal" font-weight="400" stroke="none" textLength="41" x="-54.0469" xml:space="preserve" y="17.9219">s1</text></g><defs><clipPath id="clip177"><path d="M-15,-333 L267,-333 L267,77 L-15,77 L-15,-333 z"/></clipPath></defs><g clip-path="url(#clip177)" fill="none" opacity="1" stroke="#e60000" stroke-linecap="square" stroke-linejoin="bevel" stroke-opacity="1" stroke-width="1" transform="matrix(0.46503,0,0,0.46503,30.9524,159.524)"><text fill="#e60000" fill-opacity="1" font-family="Liberation Sans" font-size="40" font-style="normal" font-weight="400" stroke="none" textLength="42" x="0" xml:space="preserve" y="17.9219">c2</text></g><defs><clipPath id="clip180"><path d="M-15,-205 L267,-205 L267,205 L-15,205 L-15,-205 z"/></clipPath></defs><g clip-path="url(#clip180)" fill="none" opacity="1" stroke="#e60000" stroke-linecap="square" stroke-linejoin="bevel" stroke-opacity="1" stroke-width="1" transform="matrix(0.46503,0,0,0.46503,30.9524,100)"><text fill="#e60000" fill-opacity="1" font-family="Liberation Sans" font-size="40" font-style="normal" font-weight="400" stroke="none" textLength="42" x="0" xml:space="preserve" y="17.9219">c1</text></g><defs><clipPath id="clip183"><path d="M-15,-77 L267,-77 L267,333 L-15,333 L-15,-77 z"/></clipPath></defs><g clip-path="url(#clip183)" fill="none" opacity="1" stroke="#e60000" stroke-linecap="square" stroke-linejoin="bevel" stroke-opacity="1" stroke-width="1" transform="matrix(0.46503,0,0,0.46503,30.9524,40.4762)"><text fill="#e60000" fill-opacity="1" font-family="Liberation Sans" font-size="40" font-style="normal" font-weight="400" stroke="none" textLength="43" x="0" xml:space="preserve" y="17.9219">vT</text></g><defs><clipPath id="clip189"><path d="M-10,-2 L65,-2 L65,82 L-10,82 L-10,-2 z"/></clipPath></defs><g clip-path="url(#clip189)" fill="none" opacity="1" stroke="none" stroke-opacity="0" transform="matrix(2.38095,0,0,2.38095,23.8095,4.7619)"><path d="M0,0 L55,0 L55,80 L0,80 L0,0 z" fill-rule="evenodd" vector-effect="none"/></g></g></svg>
