<?xml version="1.0" encoding="UTF-8"?><svg width="41.275mm" height="52.9167mm" viewBox="0 0 156 200" xmlns="http://www.w3.org/2000/svg" xmlns:xlink="http://www.w3.org/1999/xlink"><g fill="none" stroke="black" stroke-width="1" fill-rule="evenodd" stroke-linecap="square" stroke-linejoin="bevel"><g clip-path="none" fill="none" opacity="1" stroke="none" stroke-opacity="0" transform="matrix(1,0,0,1,0,0)"><path d="M0,0 L156,0 L156,200 L0,200 L0,0 z" fill-rule="evenodd" vector-effect="none"/></g><defs><clipPath id="clip6"><path d="M0,0 L10,0 L10,10 L0,10 L0,0 z"/></clipPath></defs><g clip-path="url(#clip6)" fill="#b3b3b3" fill-opacity="1" opacity="1" stroke="none" stroke-opacity="0" transform="matrix(-3.125,0,0,3.125,31.25,87.5)"><path d="M0.5,3.5 L3.5,3.5 L3.5,6.5 L0.5,6.5 L0.5,3.5 z" fill-rule="evenodd" vector-effect="none"/></g><defs><clipPath id="clip8"><path d="M0,0 L10,0 L10,10 L0,10 L0,0 z"/></clipPath></defs><g clip-path="url(#clip8)" fill="#000000" fill-opacity="1" opacity="1" stroke="none" stroke-opacity="0" transform="matrix(-3.125,0,0,3.125,31.25,87.5)"><path d="M3,4 L3,6 L1,6 L1,4 L3,4 M4,3 L0,3 L0,7 L4,7 L4,3" fill-rule="nonzero" vector-effect="none"/></g><defs><clipPath id="clip28"><path d="M0,0 L10,0 L10,10 L0,10 L0,0 z"/></clipPath></defs><g clip-path="url(#clip28)" fill="#b3b3b3" fill-opacity="1" opacity="1" stroke="none" stroke-opacity="0" transform="matrix(3.125,0,0,3.125,125,134.375)"><path d="M0.5,3.5 L3.5,3.5 L3.5,6.5 L0.5,6.5 L0.5,3.5 z" fill-rule="evenodd" vector-effect="none"/></g><defs><clipPath id="clip30"><path d="M0,0 L10,0 L10,10 L0,10 L0,0 z"/></clipPath></defs><g clip-path="url(#clip30)" fill="#000000" fill-opacity="1" opacity="1" stroke="none" stroke-opacity="0" transform="matrix(3.125,0,0,3.125,125,134.375)"><path d="M3,4 L3,6 L1,6 L1,4 L3,4 M4,3 L0,3 L0,7 L4,7 L4,3" fill-rule="nonzero" vector-effect="none"/></g><defs><clipPath id="clip50"><path d="M0,0 L10,0 L10,10 L0,10 L0,0 z"/></clipPath></defs><g clip-path="url(#clip50)" fill="#b3b3b3" fill-opacity="1" opacity="1" stroke="none" stroke-opacity="0" transform="matrix(3.125,0,0,3.125,125,40.625)"><path d="M0.5,3.5 L3.5,3.5 L3.5,6.5 L0.5,6.5 L0.5,3.5 z" fill-rule="evenodd" vector-effect="none"/></g><defs><clipPath id="clip52"><path d="M0,0 L10,0 L10,10 L0,10 L0,0 z"/></clipPath></defs><g clip-path="url(#clip52)" fill="#000000" fill-opacity="1" opacity="1" stroke="none" stroke-opacity="0" transform="matrix(3.125,0,0,3.125,125,40.625)"><path d="M3,4 L3,6 L1,6 L1,4 L3,4 M4,3 L0,3 L0,7 L4,7 L4,3" fill-rule="nonzero" vector-effect="none"/></g><defs><clipPath id="clip69"><path d="M-10,-2 L40,-2 L40,62 L-10,62 L-10,-2 z"/></clipPath></defs><g clip-path="url(#clip69)" fill="#ffffff" fill-opacity="1" opacity="1" stroke="none" stroke-opacity="0" transform="matrix(3.125,0,0,3.125,31.25,6.25)"><path d="M0,0 L30,0 L30,60 L0,60 L0,0 z" fill-rule="evenodd" vector-effect="none"/></g><defs><clipPath id="clip73"><path d="M0,0 L30,0 L30,60 L0,60 L0,0 z"/></clipPath></defs><g clip-path="url(#clip73)" fill="none" opacity="1" stroke="none" stroke-opacity="0" transform="matrix(3.125,0,0,3.125,31.25,6.25)"><path d="M0,0 L30,0 L30,60 L0,60 L0,0 z" fill-rule="evenodd" vector-effect="none"/></g><defs><clipPath id="clip83"><path d="M1,1 L31,1 L31,61 L1,61 L1,1 z"/></clipPath></defs><g clip-path="url(#clip83)" fill="none" opacity="1" stroke="#3369c9" stroke-linecap="butt" stroke-linejoin="miter" stroke-miterlimit="4" stroke-opacity="1" stroke-width="1.9825" transform="matrix(3.125,0,0,3.125,28.125,3.125)"><path d="M29.3236,30.992 C29.3236,36.7882 24.1011,41.4869 17.6589,41.4869 C11.2166,41.4869 5.99413,36.7882 5.99413,30.992 C5.99413,25.1959 11.2166,20.4972 17.6589,20.4972 C24.1011,20.4972 29.3236,25.1959 29.3236,30.992 z" fill-rule="nonzero" vector-effect="none"/></g><defs><clipPath id="clip84"><path d="M1,1 L31,1 L31,61 L1,61 L1,1 z"/></clipPath></defs><g clip-path="url(#clip84)" fill="none" opacity="1" stroke="#3369c9" stroke-linecap="butt" stroke-linejoin="miter" stroke-miterlimit="4" stroke-opacity="1" stroke-width="1.9825" transform="matrix(3.125,0,0,3.125,28.125,3.125)"><path d="M1,30.992 L10.9883,30.992" fill-rule="nonzero" vector-effect="none"/></g><defs><clipPath id="clip85"><path d="M1,1 L31,1 L31,61 L1,61 L1,1 z"/></clipPath></defs><g clip-path="url(#clip85)" fill="none" opacity="1" stroke="#3369c9" stroke-linecap="butt" stroke-linejoin="miter" stroke-miterlimit="4" stroke-opacity="1" stroke-width="1.9825" transform="matrix(3.125,0,0,3.125,28.125,3.125)"><path d="M14.3236,24.9904 L14.3236,36.9936" fill-rule="nonzero" vector-effect="none"/></g><defs><clipPath id="clip86"><path d="M1,1 L31,1 L31,61 L1,61 L1,1 z"/></clipPath></defs><g clip-path="url(#clip86)" fill="none" opacity="1" stroke="#3369c9" stroke-linecap="butt" stroke-linejoin="miter" stroke-miterlimit="4" stroke-opacity="1" stroke-width="1.9825" transform="matrix(3.125,0,0,3.125,28.125,3.125)"><path d="M14.3236,26.4988 L20.9942,26.4988" fill-rule="nonzero" vector-effect="none"/></g><defs><clipPath id="clip87"><path d="M1,1 L31,1 L31,61 L1,61 L1,1 z"/></clipPath></defs><g clip-path="url(#clip87)" fill="none" opacity="1" stroke="#3369c9" stroke-linecap="butt" stroke-linejoin="miter" stroke-miterlimit="4" stroke-opacity="1" stroke-width="1.9825" transform="matrix(3.125,0,0,3.125,28.125,3.125)"><path d="M20.9942,26.4988 L20.9942,15.9881" fill-rule="nonzero" vector-effect="none"/></g><defs><clipPath id="clip88"><path d="M1,1 L31,1 L31,61 L1,61 L1,1 z"/></clipPath></defs><g clip-path="url(#clip88)" fill="none" opacity="1" stroke="#3369c9" stroke-linecap="butt" stroke-linejoin="miter" stroke-miterlimit="4" stroke-opacity="1" stroke-width="1.9825" transform="matrix(3.125,0,0,3.125,28.125,3.125)"><path d="M20.9942,15.9881 L31.0001,15.9881" fill-rule="nonzero" vector-effect="none"/></g><defs><clipPath id="clip89"><path d="M1,1 L31,1 L31,61 L1,61 L1,1 z"/></clipPath></defs><g clip-path="url(#clip89)" fill="none" opacity="1" stroke="#3369c9" stroke-linecap="butt" stroke-linejoin="miter" stroke-miterlimit="4" stroke-opacity="1" stroke-width="1.9825" transform="matrix(3.125,0,0,3.125,28.125,3.125)"><path d="M14.3236,35.5012 L20.9942,35.5012" fill-rule="nonzero" vector-effect="none"/></g><defs><clipPath id="clip90"><path d="M1,1 L31,1 L31,61 L1,61 L1,1 z"/></clipPath></defs><g clip-path="url(#clip90)" fill="none" opacity="1" stroke="#3369c9" stroke-linecap="butt" stroke-linejoin="miter" stroke-miterlimit="4" stroke-opacity="1" stroke-width="1.9825" transform="matrix(3.125,0,0,3.125,28.125,3.125)"><path d="M20.9942,35.5012 L20.9942,45.996" fill-rule="nonzero" vector-effect="none"/></g><defs><clipPath id="clip91"><path d="M1,1 L31,1 L31,61 L1,61 L1,1 z"/></clipPath></defs><g clip-path="url(#clip91)" fill="none" opacity="1" stroke="#3369c9" stroke-linecap="butt" stroke-linejoin="miter" stroke-miterlimit="4" stroke-opacity="1" stroke-width="1.9825" transform="matrix(3.125,0,0,3.125,28.125,3.125)"><path d="M20.9942,45.996 L31.0001,45.996" fill-rule="nonzero" vector-effect="none"/></g><defs><clipPath id="clip92"><path d="M1,1 L31,1 L31,61 L1,61 L1,1 z"/></clipPath></defs><g clip-path="url(#clip92)" fill="none" opacity="1" stroke="#3369c9" stroke-linecap="butt" stroke-linejoin="miter" stroke-miterlimit="4" stroke-opacity="1" stroke-width="1.9825" transform="matrix(3.125,0,0,3.125,28.125,3.125)"><path d="M10.9883,30.992 L14.3236,30.992" fill-rule="nonzero" vector-effect="none"/></g><defs><clipPath id="clip93"><path d="M1,1 L31,1 L31,61 L1,61 L1,1 z"/></clipPath></defs><g clip-path="url(#clip93)" fill="none" opacity="1" stroke="#3369c9" stroke-linecap="butt" stroke-linejoin="miter" stroke-miterlimit="4" stroke-opacity="1" stroke-width="1.9825" transform="matrix(3.125,0,0,3.125,28.125,3.125)"><path d="M10.9883,27.9912 L14.3236,30.992 L10.9883,33.9928" fill-rule="nonzero" vector-effect="none"/></g><defs><clipPath id="clip94"><path d="M1,1 L31,1 L31,61 L1,61 L1,1 z"/></clipPath></defs><g clip-path="url(#clip94)" fill="none" opacity="1" stroke="#ffffff" stroke-linecap="butt" stroke-linejoin="miter" stroke-miterlimit="4" stroke-opacity="1" stroke-width="1.9825" transform="matrix(3.125,0,0,3.125,28.125,3.125)"><path d="M1,1 L31.0001,1 L31.0001,60.9999 L1,60.9999 L1,1 z" fill-rule="nonzero" vector-effect="none"/></g><defs><clipPath id="clip111"><path d="M-138,-230 L16,-230 L16,77 L-138,77 L-138,-230 z"/></clipPath></defs><g clip-path="url(#clip111)" fill="none" opacity="1" stroke="#e60000" stroke-linecap="square" stroke-linejoin="bevel" stroke-opacity="1" stroke-width="1" transform="matrix(0.610352,0,0,0.610352,115.625,146.875)"><text fill="#e60000" fill-opacity="1" font-family="Liberation Sans" font-size="40" font-style="normal" font-weight="400" stroke="none" textLength="19" x="-25.5938" xml:space="preserve" y="17.9219">s</text></g><defs><clipPath id="clip114"><path d="M-138,-77 L16,-77 L16,230 L-138,230 L-138,-77 z"/></clipPath></defs><g clip-path="url(#clip114)" fill="none" opacity="1" stroke="#e60000" stroke-linecap="square" stroke-linejoin="bevel" stroke-opacity="1" stroke-width="1" transform="matrix(0.610352,0,0,0.610352,115.625,53.125)"><text fill="#e60000" fill-opacity="1" font-family="Liberation Sans" font-size="40" font-style="normal" font-weight="400" stroke="none" textLength="22" x="-28.4531" xml:space="preserve" y="17.9219">d</text></g><defs><clipPath id="clip120"><path d="M-10,-2 L40,-2 L40,62 L-10,62 L-10,-2 z"/></clipPath></defs><g clip-path="url(#clip120)" fill="none" opacity="1" stroke="none" stroke-opacity="0" transform="matrix(3.125,0,0,3.125,31.25,6.25)"><path d="M0,0 L30,0 L30,60 L0,60 L0,0 z" fill-rule="evenodd" vector-effect="none"/></g></g></svg>
