<?xml version="1.0" encoding="UTF-8"?><svg width="52.9167mm" height="29.8979mm" viewBox="0 0 200 113" xmlns="http://www.w3.org/2000/svg" xmlns:xlink="http://www.w3.org/1999/xlink"><g fill="none" stroke="black" stroke-width="1" fill-rule="evenodd" stroke-linecap="square" stroke-linejoin="bevel"><g clip-path="none" fill="none" opacity="1" stroke="none" stroke-opacity="0" transform="matrix(1,0,0,1,0,0)"><path d="M0,0 L200,0 L200,113 L0,113 L0,0 z" fill-rule="evenodd" vector-effect="none"/></g><defs><clipPath id="clip6"><path d="M0,0 L10,0 L10,10 L0,10 L0,0 z"/></clipPath></defs><g clip-path="url(#clip6)" fill="#b3b3b3" fill-opacity="1" opacity="1" stroke="none" stroke-opacity="0" transform="matrix(2.22222,0,0,2.22222,177.778,53.3333)"><path d="M0.5,3.5 L3.5,3.5 L3.5,6.5 L0.5,6.5 L0.5,3.5 z" fill-rule="evenodd" vector-effect="none"/></g><defs><clipPath id="clip8"><path d="M0,0 L10,0 L10,10 L0,10 L0,0 z"/></clipPath></defs><g clip-path="url(#clip8)" fill="#000000" fill-opacity="1" opacity="1" stroke="none" stroke-opacity="0" transform="matrix(2.22222,0,0,2.22222,177.778,53.3333)"><path d="M3,4 L3,6 L1,6 L1,4 L3,4 M4,3 L0,3 L0,7 L4,7 L4,3" fill-rule="nonzero" vector-effect="none"/></g><defs><clipPath id="clip28"><path d="M0,0 L10,0 L10,10 L0,10 L0,0 z"/></clipPath></defs><g clip-path="url(#clip28)" fill="#b3b3b3" fill-opacity="1" opacity="1" stroke="none" stroke-opacity="0" transform="matrix(-2.22222,0,0,2.22222,22.2222,20)"><path d="M0.5,3.5 L3.5,3.5 L3.5,6.5 L0.5,6.5 L0.5,3.5 z" fill-rule="evenodd" vector-effect="none"/></g><defs><clipPath id="clip30"><path d="M0,0 L10,0 L10,10 L0,10 L0,0 z"/></clipPath></defs><g clip-path="url(#clip30)" fill="#000000" fill-opacity="1" opacity="1" stroke="none" stroke-opacity="0" transform="matrix(-2.22222,0,0,2.22222,22.2222,20)"><path d="M3,4 L3,6 L1,6 L1,4 L3,4 M4,3 L0,3 L0,7 L4,7 L4,3" fill-rule="nonzero" vector-effect="none"/></g><defs><clipPath id="clip50"><path d="M0,0 L10,0 L10,10 L0,10 L0,0 z"/></clipPath></defs><g clip-path="url(#clip50)" fill="#b3b3b3" fill-opacity="1" opacity="1" stroke="none" stroke-opacity="0" transform="matrix(-2.22222,0,0,2.22222,22.2222,75.5556)"><path d="M0.5,3.5 L3.5,3.5 L3.5,6.5 L0.5,6.5 L0.5,3.5 z" fill-rule="evenodd" vector-effect="none"/></g><defs><clipPath id="clip52"><path d="M0,0 L10,0 L10,10 L0,10 L0,0 z"/></clipPath></defs><g clip-path="url(#clip52)" fill="#000000" fill-opacity="1" opacity="1" stroke="none" stroke-opacity="0" transform="matrix(-2.22222,0,0,2.22222,22.2222,75.5556)"><path d="M3,4 L3,6 L1,6 L1,4 L3,4 M4,3 L0,3 L0,7 L4,7 L4,3" fill-rule="nonzero" vector-effect="none"/></g><defs><clipPath id="clip69"><path d="M-10,-2 L80,-2 L80,49 L-10,49 L-10,-2 z"/></clipPath></defs><g clip-path="url(#clip69)" fill="#ffffff" fill-opacity="1" opacity="1" stroke="none" stroke-opacity="0" transform="matrix(2.22222,0,0,2.22222,22.2222,4.44444)"><path d="M0,0 L70,0 L70,47 L0,47 L0,0 z" fill-rule="evenodd" vector-effect="none"/></g><defs><clipPath id="clip73"><path d="M0,0 L70,0 L70,47 L0,47 L0,0 z"/></clipPath></defs><g clip-path="url(#clip73)" fill="none" opacity="1" stroke="none" stroke-opacity="0" transform="matrix(2.22222,0,0,2.22222,22.2222,4.44444)"><path d="M0,0 L70,0 L70,47 L0,47 L0,0 z" fill-rule="evenodd" vector-effect="none"/></g><defs><clipPath id="clip83"><path d="M1,1 L71,1 L71,48 L1,48 L1,1 z"/></clipPath></defs><g clip-path="url(#clip83)" fill="none" opacity="1" stroke="#3369c9" stroke-linecap="butt" stroke-linejoin="miter" stroke-miterlimit="20" stroke-opacity="1" stroke-width="1.56" transform="matrix(2.22222,0,0,2.22222,20,2.22222)"><path d="M0.999997,36.2501 L10.3333,36.2501 L10.3333,30.3751" fill-rule="nonzero" vector-effect="none"/></g><defs><clipPath id="clip84"><path d="M1,1 L71,1 L71,48 L1,48 L1,1 z"/></clipPath></defs><g clip-path="url(#clip84)" fill="none" opacity="1" stroke="#3369c9" stroke-linecap="butt" stroke-linejoin="miter" stroke-miterlimit="20" stroke-opacity="1" stroke-width="1.56" transform="matrix(2.22222,0,0,2.22222,20,2.22222)"><path d="M61.6666,30.3751 L61.6666,24.5 L70.9999,24.5" fill-rule="nonzero" vector-effect="none"/></g><defs><clipPath id="clip85"><path d="M1,1 L71,1 L71,48 L1,48 L1,1 z"/></clipPath></defs><g clip-path="url(#clip85)" fill="none" opacity="1" stroke="#3369c9" stroke-linecap="butt" stroke-linejoin="miter" stroke-miterlimit="20" stroke-opacity="1" stroke-width="1.56" transform="matrix(2.22222,0,0,2.22222,20,2.22222)"><path d="M23.1666,10.4 L30.1666,10.4" fill-rule="nonzero" vector-effect="none"/></g><defs><clipPath id="clip86"><path d="M1,1 L71,1 L71,48 L1,48 L1,1 z"/></clipPath></defs><g clip-path="url(#clip86)" fill="none" opacity="1" stroke="#3369c9" stroke-linecap="butt" stroke-linejoin="miter" stroke-miterlimit="20" stroke-opacity="1" stroke-width="1.56" transform="matrix(2.22222,0,0,2.22222,20,2.22222)"><path d="M26.6666,17.45 L26.6666,10.4" fill-rule="nonzero" vector-effect="none"/></g><defs><clipPath id="clip87"><path d="M1,1 L71,1 L71,48 L1,48 L1,1 z"/></clipPath></defs><g clip-path="url(#clip87)" fill="none" opacity="1" stroke="#3369c9" stroke-linecap="butt" stroke-linejoin="miter" stroke-miterlimit="20" stroke-opacity="1" stroke-width="1.56" transform="matrix(2.22222,0,0,2.22222,20,2.22222)"><path d="M10.3333,30.3751 L17.9166,30.3751" fill-rule="nonzero" vector-effect="none"/></g><defs><clipPath id="clip88"><path d="M1,1 L71,1 L71,48 L1,48 L1,1 z"/></clipPath></defs><g clip-path="url(#clip88)" fill="none" opacity="1" stroke="#3369c9" stroke-linecap="butt" stroke-linejoin="miter" stroke-miterlimit="20" stroke-opacity="1" stroke-width="1.56" transform="matrix(2.22222,0,0,2.22222,20,2.22222)"><path d="M52.9166,30.3751 L61.6666,30.3751" fill-rule="nonzero" vector-effect="none"/></g><defs><clipPath id="clip89"><path d="M1,1 L71,1 L71,48 L1,48 L1,1 z"/></clipPath></defs><g clip-path="url(#clip89)" fill="none" opacity="1" stroke="#3369c9" stroke-linecap="butt" stroke-linejoin="miter" stroke-miterlimit="20" stroke-opacity="1" stroke-width="1.56" transform="matrix(2.22222,0,0,2.22222,20,2.22222)"><path d="M19.6666,39.7751 L40.6666,20.975" fill-rule="nonzero" vector-effect="none"/></g><defs><clipPath id="clip90"><path d="M1,1 L71,1 L71,48 L1,48 L1,1 z"/></clipPath></defs><g clip-path="url(#clip90)" fill="none" opacity="1" stroke="#3369c9" stroke-linecap="butt" stroke-linejoin="miter" stroke-miterlimit="20" stroke-opacity="1" stroke-width="1.56" transform="matrix(2.22222,0,0,2.22222,20,2.22222)"><path d="M40.6666,20.975 L49.9999,20.975" fill-rule="nonzero" vector-effect="none"/></g><defs><clipPath id="clip91"><path d="M1,1 L71,1 L71,48 L1,48 L1,1 z"/></clipPath></defs><g clip-path="url(#clip91)" fill="none" opacity="1" stroke="#3369c9" stroke-linecap="butt" stroke-linejoin="miter" stroke-miterlimit="20" stroke-opacity="1" stroke-width="1.56" transform="matrix(2.22222,0,0,2.22222,20,2.22222)"><path d="M45.3333,11.575 L45.3333,17.45" fill-rule="nonzero" vector-effect="none"/></g><defs><clipPath id="clip92"><path d="M1,1 L71,1 L71,48 L1,48 L1,1 z"/></clipPath></defs><g clip-path="url(#clip92)" fill="none" opacity="1" stroke="#3369c9" stroke-linecap="butt" stroke-linejoin="miter" stroke-miterlimit="20" stroke-opacity="1" stroke-width="1.56" transform="matrix(2.22222,0,0,2.22222,20,2.22222)"><path d="M42.4166,14.5125 L48.2499,14.5125" fill-rule="nonzero" vector-effect="none"/></g><defs><clipPath id="clip93"><path d="M1,1 L71,1 L71,48 L1,48 L1,1 z"/></clipPath></defs><g clip-path="url(#clip93)" fill="none" opacity="1" stroke="#3369c9" stroke-linecap="butt" stroke-linejoin="miter" stroke-miterlimit="20" stroke-opacity="1" stroke-width="1.56" transform="matrix(2.22222,0,0,2.22222,20,2.22222)"><path d="M17.9166,25.6751 L52.9166,25.6751 L52.9166,35.0751 L17.9166,35.0751 L17.9166,25.6751 z" fill-rule="nonzero" vector-effect="none"/></g><defs><clipPath id="clip94"><path d="M1,1 L71,1 L71,48 L1,48 L1,1 z"/></clipPath></defs><g clip-path="url(#clip94)" fill="none" opacity="1" stroke="#ffffff" stroke-linecap="butt" stroke-linejoin="miter" stroke-miterlimit="20" stroke-opacity="1" stroke-width="1.56" transform="matrix(2.22222,0,0,2.22222,20,2.22222)"><path d="M0.999997,1 L70.9999,1 L70.9999,48.0001 L0.999997,48.0001 L0.999997,1 z" fill-rule="nonzero" vector-effect="none"/></g><defs><clipPath id="clip95"><path d="M1,1 L71,1 L71,48 L1,48 L1,1 z"/></clipPath></defs><g clip-path="url(#clip95)" fill="none" opacity="1" stroke="#e9631e" stroke-linecap="butt" stroke-linejoin="miter" stroke-miterlimit="20" stroke-opacity="1" stroke-width="1.56" transform="matrix(2.22222,0,0,2.22222,20,2.22222)"><path d="M9.16665,9.22502 L17.3333,9.22502" fill-rule="nonzero" vector-effect="none"/></g><defs><clipPath id="clip96"><path d="M1,1 L71,1 L71,48 L1,48 L1,1 z"/></clipPath></defs><g clip-path="url(#clip96)" fill="none" opacity="1" stroke="#e9631e" stroke-linecap="butt" stroke-linejoin="miter" stroke-miterlimit="20" stroke-opacity="1" stroke-width="1.56" transform="matrix(2.22222,0,0,2.22222,20,2.22222)"><path d="M0.999997,12.75 L9.16665,12.75" fill-rule="nonzero" vector-effect="none"/></g><defs><clipPath id="clip97"><path d="M1,1 L71,1 L71,48 L1,48 L1,1 z"/></clipPath></defs><g clip-path="url(#clip97)" fill="none" opacity="1" stroke="#e9631e" stroke-linecap="butt" stroke-linejoin="miter" stroke-miterlimit="20" stroke-opacity="1" stroke-width="1.56" transform="matrix(2.22222,0,0,2.22222,20,2.22222)"><path d="M17.3333,16.275 L8.58332,16.275" fill-rule="nonzero" vector-effect="none"/></g><defs><clipPath id="clip98"><path d="M1,1 L71,1 L71,48 L1,48 L1,1 z"/></clipPath></defs><g clip-path="url(#clip98)" fill="none" opacity="1" stroke="#e9631e" stroke-linecap="butt" stroke-linejoin="miter" stroke-miterlimit="20" stroke-opacity="1" stroke-width="1.56" transform="matrix(2.22222,0,0,2.22222,20,2.22222)"><path d="M17.3333,9.22502 C17.3333,9.22502 17.3336,9.22524 17.339,9.22894 C17.3445,9.23261 17.3549,9.23975 17.3715,9.25141 C17.3881,9.26308 17.4108,9.27924 17.4386,9.29957 C17.4663,9.31989 17.4989,9.34435 17.5338,9.37189 C17.5688,9.39944 17.606,9.43001 17.6426,9.46259 C17.6793,9.49516 17.7153,9.52967 17.7486,9.56581 C17.7819,9.60196 17.8125,9.63969 17.8401,9.68009 C17.8677,9.7205 17.8923,9.76356 17.9166,9.81252 C17.9409,9.86148 17.9653,9.91699 17.9905,9.9797 C18.0156,10.0424 18.0415,10.112 18.0681,10.1864 C18.0946,10.2608 18.1219,10.3398 18.1494,10.421 C18.177,10.5022 18.2049,10.5856 18.2326,10.6693 C18.2603,10.7529 18.2878,10.8368 18.3143,10.919 C18.3408,11.0013 18.3664,11.082 18.3901,11.1593 C18.4137,11.2366 18.4353,11.3106 18.4539,11.3799 C18.4724,11.4492 18.4878,11.5138 18.5,11.575 C18.5121,11.6362 18.5211,11.6942 18.5268,11.7489 C18.5325,11.8037 18.5352,11.8553 18.5359,11.905 C18.5366,11.9546 18.5353,12.0022 18.533,12.049 C18.5308,12.0957 18.5276,12.1414 18.5243,12.187 C18.5209,12.2326 18.5173,12.2779 18.514,12.3236 C18.5108,12.3692 18.5078,12.4152 18.5056,12.4619 C18.5033,12.5086 18.5017,12.556 18.5009,12.6041 C18.5001,12.6522 18.5,12.7011 18.5,12.75 C18.5,12.799 18.5001,12.8479 18.5009,12.896 C18.5017,12.9441 18.5033,12.9915 18.5056,13.0381 C18.5078,13.0848 18.5108,13.1308 18.514,13.1765 C18.5173,13.2221 18.5209,13.2675 18.5243,13.313 C18.5276,13.3586 18.5308,13.4044 18.533,13.4511 C18.5353,13.4978 18.5366,13.5455 18.5359,13.5951 C18.5352,13.6447 18.5325,13.6964 18.5268,13.7511 C18.5211,13.8059 18.5121,13.8638 18.5,13.925 C18.4878,13.9862 18.4724,14.0508 18.4539,14.1201 C18.4353,14.1895 18.4137,14.2634 18.3901,14.3407 C18.3664,14.4181 18.3408,14.4987 18.3143,14.581 C18.2878,14.6633 18.2603,14.7471 18.2326,14.8308 C18.2049,14.9144 18.177,14.9978 18.1494,15.0791 C18.1219,15.1603 18.0946,15.2393 18.0681,15.3136 C18.0415,15.388 18.0156,15.4576 17.9905,15.5204 C17.9653,15.5831 17.9409,15.6386 17.9166,15.6875 C17.8923,15.7365 17.8677,15.7796 17.8401,15.82 C17.8125,15.8604 17.7819,15.8981 17.7486,15.9342 C17.7153,15.9704 17.6793,16.0049 17.6426,16.0375 C17.606,16.07 17.5688,16.1006 17.5338,16.1282 C17.4989,16.1557 17.4663,16.1802 17.4386,16.2005 C17.4108,16.2208 17.3881,16.237 17.3715,16.2486 C17.3549,16.2603 17.3445,16.2674 17.339,16.2711 C17.3336,16.2748 17.3333,16.275 17.3333,16.275" fill-rule="nonzero" vector-effect="none"/></g><defs><clipPath id="clip99"><path d="M1,1 L71,1 L71,48 L1,48 L1,1 z"/></clipPath></defs><g clip-path="url(#clip99)" fill="none" opacity="1" stroke="#e9631e" stroke-linecap="butt" stroke-linejoin="miter" stroke-miterlimit="4" stroke-opacity="1" stroke-width="1.56" transform="matrix(2.22222,0,0,2.22222,20,2.22222)"><path d="M9.73702,12.6978 C9.73702,14.6735 9.36558,16.275 8.90739,16.275 C8.4492,16.275 8.07776,14.6735 8.07776,12.6978 C8.07776,10.7222 8.4492,9.12057 8.90739,9.12057 C9.36558,9.12057 9.73702,10.7222 9.73702,12.6978 z" fill-rule="nonzero" vector-effect="none"/></g><defs><clipPath id="clip116"><path d="M-343,-133 L15,-133 L15,108 L-343,108 L-343,-133 z"/></clipPath></defs><g clip-path="url(#clip116)" fill="none" opacity="1" stroke="#e60000" stroke-linecap="square" stroke-linejoin="bevel" stroke-opacity="1" stroke-width="1" transform="matrix(0.434028,0,0,0.434028,171.111,62.2222)"><text fill="#e60000" fill-opacity="1" font-family="Liberation Sans" font-size="40" font-style="normal" font-weight="400" stroke="none" textLength="13" x="-17.0312" xml:space="preserve" y="17.9219">-</text></g><defs><clipPath id="clip119"><path d="M-15,-184 L343,-184 L343,57 L-15,57 L-15,-184 z"/></clipPath></defs><g clip-path="url(#clip119)" fill="none" opacity="1" stroke="#e60000" stroke-linecap="square" stroke-linejoin="bevel" stroke-opacity="1" stroke-width="1" transform="matrix(0.434028,0,0,0.434028,28.8889,84.4444)"><text fill="#e60000" fill-opacity="1" font-family="Liberation Sans" font-size="40" font-style="normal" font-weight="400" stroke="none" textLength="23" x="0" xml:space="preserve" y="17.9219">+</text></g><defs><clipPath id="clip122"><path d="M-15,-56 L343,-56 L343,185 L-15,185 L-15,-56 z"/></clipPath></defs><g clip-path="url(#clip122)" fill="none" opacity="1" stroke="#e60000" stroke-linecap="square" stroke-linejoin="bevel" stroke-opacity="1" stroke-width="1" transform="matrix(0.434028,0,0,0.434028,28.8889,28.8889)"><text fill="#e60000" fill-opacity="1" font-family="Liberation Sans" font-size="40" font-style="normal" font-weight="400" stroke="none" textLength="27" x="0" xml:space="preserve" y="17.9219">A</text></g><defs><clipPath id="clip128"><path d="M-10,-2 L80,-2 L80,49 L-10,49 L-10,-2 z"/></clipPath></defs><g clip-path="url(#clip128)" fill="none" opacity="1" stroke="none" stroke-opacity="0" transform="matrix(2.22222,0,0,2.22222,22.2222,4.44444)"><path d="M0,0 L70,0 L70,47 L0,47 L0,0 z" fill-rule="evenodd" vector-effect="none"/></g></g></svg>
