<?xml version="1.0" encoding="UTF-8"?><svg width="44.7146mm" height="52.9167mm" viewBox="0 0 169 200" xmlns="http://www.w3.org/2000/svg" xmlns:xlink="http://www.w3.org/1999/xlink"><g fill="none" stroke="black" stroke-width="1" fill-rule="evenodd" stroke-linecap="square" stroke-linejoin="bevel"><g clip-path="none" fill="none" opacity="1" stroke="none" stroke-opacity="0" transform="matrix(1,0,0,1,0,0)"><path d="M0,0 L169,0 L169,200 L0,200 L0,0 z" fill-rule="evenodd" vector-effect="none"/></g><defs><clipPath id="clip6"><path d="M0,0 L10,0 L10,10 L0,10 L0,0 z"/></clipPath></defs><g clip-path="url(#clip6)" fill="#b3b3b3" fill-opacity="1" opacity="1" stroke="none" stroke-opacity="0" transform="matrix(-7.06504e-16,3.84615,-3.84615,-7.06504e-16,100,161.538)"><path d="M0.5,3.5 L3.5,3.5 L3.5,6.5 L0.5,6.5 L0.5,3.5 z" fill-rule="evenodd" vector-effect="none"/></g><defs><clipPath id="clip8"><path d="M0,0 L10,0 L10,10 L0,10 L0,0 z"/></clipPath></defs><g clip-path="url(#clip8)" fill="#000000" fill-opacity="1" opacity="1" stroke="none" stroke-opacity="0" transform="matrix(-7.06504e-16,3.84615,-3.84615,-7.06504e-16,100,161.538)"><path d="M3,4 L3,6 L1,6 L1,4 L3,4 M4,3 L0,3 L0,7 L4,7 L4,3" fill-rule="nonzero" vector-effect="none"/></g><defs><clipPath id="clip25"><path d="M-2,-2 L42,-2 L42,50 L-2,50 L-2,-2 z"/></clipPath></defs><g clip-path="url(#clip25)" fill="#ffffff" fill-opacity="1" opacity="1" stroke="none" stroke-opacity="0" transform="matrix(3.84615,0,0,3.84615,7.69231,7.69231)"><path d="M0,0 L40,0 L40,40 L0,40 L0,0 z" fill-rule="evenodd" vector-effect="none"/></g><defs><clipPath id="clip29"><path d="M0,0 L40,0 L40,40 L0,40 L0,0 z"/></clipPath></defs><g clip-path="url(#clip29)" fill="none" opacity="1" stroke="none" stroke-opacity="0" transform="matrix(3.84615,0,0,3.84615,7.69231,7.69231)"><path d="M0,0 L40,0 L40,40 L0,40 L0,0 z" fill-rule="evenodd" vector-effect="none"/></g><defs><clipPath id="clip39"><path d="M1,1 L41,1 L41,41 L1,41 L1,1 z"/></clipPath></defs><g clip-path="url(#clip39)" fill="none" opacity="1" stroke="#3369c9" stroke-linecap="butt" stroke-linejoin="miter" stroke-miterlimit="20" stroke-opacity="1" stroke-width="1.8525" transform="matrix(7.06504e-16,3.84615,3.84615,-7.06504e-16,3.84615,3.84615)"><path d="M41.0001,21 L32.0001,21" fill-rule="nonzero" vector-effect="none"/></g><defs><clipPath id="clip40"><path d="M1,1 L41,1 L41,41 L1,41 L1,1 z"/></clipPath></defs><g clip-path="url(#clip40)" fill="none" opacity="1" stroke="#3369c9" stroke-linecap="butt" stroke-linejoin="miter" stroke-miterlimit="20" stroke-opacity="1" stroke-width="1.8525" transform="matrix(7.06504e-16,3.84615,3.84615,-7.06504e-16,3.84615,3.84615)"><path d="M17,15 L27.0001,21 L17,27.0001" fill-rule="nonzero" vector-effect="none"/></g><defs><clipPath id="clip41"><path d="M1,1 L41,1 L41,41 L1,41 L1,1 z"/></clipPath></defs><g clip-path="url(#clip41)" fill="none" opacity="1" stroke="#3369c9" stroke-linecap="butt" stroke-linejoin="miter" stroke-miterlimit="20" stroke-opacity="1" stroke-width="1.8525" transform="matrix(7.06504e-16,3.84615,3.84615,-7.06504e-16,3.84615,3.84615)"><path d="M22,27.0001 L22,33.0001" fill-rule="nonzero" vector-effect="none"/></g><defs><clipPath id="clip42"><path d="M1,1 L41,1 L41,41 L1,41 L1,1 z"/></clipPath></defs><g clip-path="url(#clip42)" fill="none" opacity="1" stroke="#3369c9" stroke-linecap="butt" stroke-linejoin="miter" stroke-miterlimit="20" stroke-opacity="1" stroke-width="1.8525" transform="matrix(7.06504e-16,3.84615,3.84615,-7.06504e-16,3.84615,3.84615)"><path d="M19,30.0001 L25.0001,30.0001" fill-rule="nonzero" vector-effect="none"/></g><defs><clipPath id="clip43"><path d="M1,1 L41,1 L41,41 L1,41 L1,1 z"/></clipPath></defs><g clip-path="url(#clip43)" fill="none" opacity="1" stroke="#3369c9" stroke-linecap="butt" stroke-linejoin="miter" stroke-miterlimit="20" stroke-opacity="1" stroke-width="1.8525" transform="matrix(7.06504e-16,3.84615,3.84615,-7.06504e-16,3.84615,3.84615)"><path d="M31.0001,15 L31.0001,27.0001" fill-rule="nonzero" vector-effect="none"/></g><defs><clipPath id="clip44"><path d="M9,9 L117,9 L117,117 L9,117 L9,9 z"/></clipPath></defs><g clip-path="url(#clip44)" fill="#3369c9" fill-opacity="1" opacity="1" stroke="none" stroke-opacity="0" transform="matrix(2.61668e-16,1.4245,1.4245,-2.61668e-16,-5.12819,-5.12819)"><path d="M93.84,63 C93.84,65.1208 92.1208,66.84 90,66.84 C87.8792,66.84 86.16,65.1208 86.16,63 C86.16,60.8792 87.8792,59.16 90,59.16 C92.1208,59.16 93.84,60.8792 93.84,63 z" fill-rule="nonzero" vector-effect="none"/></g><defs><clipPath id="clip45"><path d="M1,1 L41,1 L41,41 L1,41 L1,1 z"/></clipPath></defs><g clip-path="url(#clip45)" fill="none" opacity="1" stroke="#3369c9" stroke-linecap="butt" stroke-linejoin="miter" stroke-miterlimit="4" stroke-opacity="1" stroke-width="1.8525" transform="matrix(7.06504e-16,3.84615,3.84615,-7.06504e-16,3.84615,3.84615)"><path d="M32.4223,21 C32.4223,21.7855 31.7855,22.4223 31.0001,22.4223 C30.2146,22.4223 29.5778,21.7855 29.5778,21 C29.5778,20.2146 30.2146,19.5778 31.0001,19.5778 C31.7855,19.5778 32.4223,20.2146 32.4223,21 z" fill-rule="nonzero" vector-effect="none"/></g><defs><clipPath id="clip46"><path d="M1,1 L41,1 L41,41 L1,41 L1,1 z"/></clipPath></defs><g clip-path="url(#clip46)" fill="none" opacity="1" stroke="#ffffff" stroke-linecap="butt" stroke-linejoin="miter" stroke-miterlimit="20" stroke-opacity="1" stroke-width="1.8525" transform="matrix(7.06504e-16,3.84615,3.84615,-7.06504e-16,3.84615,3.84615)"><path d="M1.00001,1.00001 L41.0001,1.00001 L41.0001,41.0001 L1.00001,41.0001 L1.00001,1.00001 z" fill-rule="nonzero" vector-effect="none"/></g><defs><clipPath id="clip66"><path d="M-2,-2 L42,-2 L42,50 L-2,50 L-2,-2 z"/></clipPath></defs><g clip-path="url(#clip66)" fill="none" opacity="1" stroke="none" stroke-opacity="0" transform="matrix(3.84615,0,0,3.84615,7.69231,7.69231)"><path d="M0,0 L40,0 L40,40 L0,40 L0,0 z" fill-rule="evenodd" vector-effect="none"/></g></g></svg>
