<?xml version="1.0" encoding="UTF-8"?><svg width="38.6292mm" height="52.9167mm" viewBox="0 0 146 200" xmlns="http://www.w3.org/2000/svg" xmlns:xlink="http://www.w3.org/1999/xlink"><g fill="none" stroke="black" stroke-width="1" fill-rule="evenodd" stroke-linecap="square" stroke-linejoin="bevel"><g clip-path="none" fill="none" opacity="1" stroke="none" stroke-opacity="0" transform="matrix(1,0,0,1,0,0)"><path d="M0,0 L146,0 L146,200 L0,200 L0,0 z" fill-rule="evenodd" vector-effect="none"/></g><defs><clipPath id="clip6"><path d="M0,0 L10,0 L10,10 L0,10 L0,0 z"/></clipPath></defs><g clip-path="url(#clip6)" fill="#b3b3b3" fill-opacity="1" opacity="1" stroke="none" stroke-opacity="0" transform="matrix(2.04101e-16,-3.33333,3.33333,2.04101e-16,93.3333,33.3333)"><path d="M0.5,3.5 L3.5,3.5 L3.5,6.5 L0.5,6.5 L0.5,3.5 z" fill-rule="evenodd" vector-effect="none"/></g><defs><clipPath id="clip8"><path d="M0,0 L10,0 L10,10 L0,10 L0,0 z"/></clipPath></defs><g clip-path="url(#clip8)" fill="#000000" fill-opacity="1" opacity="1" stroke="none" stroke-opacity="0" transform="matrix(2.04101e-16,-3.33333,3.33333,2.04101e-16,93.3333,33.3333)"><path d="M3,4 L3,6 L1,6 L1,4 L3,4 M4,3 L0,3 L0,7 L4,7 L4,3" fill-rule="nonzero" vector-effect="none"/></g><defs><clipPath id="clip28"><path d="M0,0 L10,0 L10,10 L0,10 L0,0 z"/></clipPath></defs><g clip-path="url(#clip28)" fill="#b3b3b3" fill-opacity="1" opacity="1" stroke="none" stroke-opacity="0" transform="matrix(-6.12303e-16,3.33333,-3.33333,-6.12303e-16,86.6667,166.667)"><path d="M0.5,3.5 L3.5,3.5 L3.5,6.5 L0.5,6.5 L0.5,3.5 z" fill-rule="evenodd" vector-effect="none"/></g><defs><clipPath id="clip30"><path d="M0,0 L10,0 L10,10 L0,10 L0,0 z"/></clipPath></defs><g clip-path="url(#clip30)" fill="#000000" fill-opacity="1" opacity="1" stroke="none" stroke-opacity="0" transform="matrix(-6.12303e-16,3.33333,-3.33333,-6.12303e-16,86.6667,166.667)"><path d="M3,4 L3,6 L1,6 L1,4 L3,4 M4,3 L0,3 L0,7 L4,7 L4,3" fill-rule="nonzero" vector-effect="none"/></g><defs><clipPath id="clip51"><path d="M0,0 L10,0 L10,10 L0,10 L0,0 z"/></clipPath></defs><g clip-path="url(#clip51)" fill="#ffffff" fill-opacity="1" opacity="1" stroke="none" stroke-opacity="0" transform="matrix(-2.04101e-16,3.33333,3.33333,2.04101e-16,26.6667,-2.13163e-14)"><path d="M8.882,5 L0.5,9.191 L0.5,0.809 L8.882,5 z" fill-rule="evenodd" vector-effect="none"/></g><defs><clipPath id="clip53"><path d="M0,0 L10,0 L10,10 L0,10 L0,0 z"/></clipPath></defs><g clip-path="url(#clip53)" fill="#000000" fill-opacity="1" opacity="1" stroke="none" stroke-opacity="0" transform="matrix(-2.04101e-16,3.33333,3.33333,2.04101e-16,26.6667,-2.13163e-14)"><path d="M1,1.618 L7.764,5 L1,8.382 L1,1.618 M0,0 L0,10 L10,5 L0,0" fill-rule="nonzero" vector-effect="none"/></g><defs><clipPath id="clip72"><path d="M-2,-10 L42,-10 L42,50 L-2,50 L-2,-10 z"/></clipPath></defs><g clip-path="url(#clip72)" fill="#ffffff" fill-opacity="1" opacity="1" stroke="none" stroke-opacity="0" transform="matrix(3.33333,0,0,3.33333,6.66667,33.3333)"><path d="M0,0 L40,0 L40,40 L0,40 L0,0 z" fill-rule="evenodd" vector-effect="none"/></g><defs><clipPath id="clip76"><path d="M0,0 L40,0 L40,40 L0,40 L0,0 z"/></clipPath></defs><g clip-path="url(#clip76)" fill="none" opacity="1" stroke="none" stroke-opacity="0" transform="matrix(3.33333,0,0,3.33333,6.66667,33.3333)"><path d="M0,0 L40,0 L40,40 L0,40 L0,0 z" fill-rule="evenodd" vector-effect="none"/></g><defs><clipPath id="clip86"><path d="M1,1 L41,1 L41,41 L1,41 L1,1 z"/></clipPath></defs><g clip-path="url(#clip86)" fill="none" opacity="1" stroke="#3369c9" stroke-linecap="butt" stroke-linejoin="miter" stroke-miterlimit="20" stroke-opacity="1" stroke-width="2.3725" transform="matrix(6.12303e-16,3.33333,3.33333,-6.12303e-16,3.33333,30)"><path d="M41.0001,21 L31.0001,21" fill-rule="nonzero" vector-effect="none"/></g><defs><clipPath id="clip87"><path d="M1,1 L41,1 L41,41 L1,41 L1,1 z"/></clipPath></defs><g clip-path="url(#clip87)" fill="none" opacity="1" stroke="#3369c9" stroke-linecap="butt" stroke-linejoin="miter" stroke-miterlimit="20" stroke-opacity="1" stroke-width="2.3725" transform="matrix(6.12303e-16,3.33333,3.33333,-6.12303e-16,3.33333,30)"><path d="M1.00001,31.0001 L7.00002,31.0001 L7.00002,25.0001 L25.0001,25.0001" fill-rule="nonzero" vector-effect="none"/></g><defs><clipPath id="clip88"><path d="M1,1 L41,1 L41,41 L1,41 L1,1 z"/></clipPath></defs><g clip-path="url(#clip88)" fill="none" opacity="1" stroke="#3369c9" stroke-linecap="butt" stroke-linejoin="miter" stroke-miterlimit="20" stroke-opacity="1" stroke-width="2.3725" transform="matrix(6.12303e-16,3.33333,3.33333,-6.12303e-16,3.33333,30)"><path d="M23,19 L11,15" fill-rule="nonzero" vector-effect="none"/></g><defs><clipPath id="clip89"><path d="M1,1 L41,1 L41,41 L1,41 L1,1 z"/></clipPath></defs><g clip-path="url(#clip89)" fill="none" opacity="1" stroke="#3369c9" stroke-linecap="butt" stroke-linejoin="miter" stroke-miterlimit="20" stroke-opacity="1" stroke-width="2.3725" transform="matrix(6.12303e-16,3.33333,3.33333,-6.12303e-16,3.33333,30)"><path d="M23,13 L13,9.00002" fill-rule="nonzero" vector-effect="none"/></g><defs><clipPath id="clip90"><path d="M1,1 L41,1 L41,41 L1,41 L1,1 z"/></clipPath></defs><g clip-path="url(#clip90)" fill="none" opacity="1" stroke="#3369c9" stroke-linecap="butt" stroke-linejoin="miter" stroke-miterlimit="20" stroke-opacity="1" stroke-width="2.3725" transform="matrix(6.12303e-16,3.33333,3.33333,-6.12303e-16,3.33333,30)"><path d="M21,20 L23,19 L22,17" fill-rule="nonzero" vector-effect="none"/></g><defs><clipPath id="clip91"><path d="M1,1 L41,1 L41,41 L1,41 L1,1 z"/></clipPath></defs><g clip-path="url(#clip91)" fill="none" opacity="1" stroke="#3369c9" stroke-linecap="butt" stroke-linejoin="miter" stroke-miterlimit="20" stroke-opacity="1" stroke-width="2.3725" transform="matrix(6.12303e-16,3.33333,3.33333,-6.12303e-16,3.33333,30)"><path d="M21,14 L23,13 L22,11" fill-rule="nonzero" vector-effect="none"/></g><defs><clipPath id="clip92"><path d="M9,9 L117,9 L117,117 L9,117 L9,9 z"/></clipPath></defs><g clip-path="url(#clip92)" fill="#3369c9" fill-opacity="1" opacity="1" stroke="none" stroke-opacity="0" transform="matrix(2.26779e-16,1.23457,1.23457,-2.26779e-16,-4.44443,22.2222)"><path d="M73.8,36 L79.2,36 L79.2,90 L73.8,90 L73.8,36 z" fill-rule="nonzero" vector-effect="none"/></g><defs><clipPath id="clip93"><path d="M1,1 L41,1 L41,41 L1,41 L1,1 z"/></clipPath></defs><g clip-path="url(#clip93)" fill="none" opacity="1" stroke="#3369c9" stroke-linecap="butt" stroke-linejoin="miter" stroke-miterlimit="20" stroke-opacity="1" stroke-width="2.3725" transform="matrix(6.12303e-16,3.33333,3.33333,-6.12303e-16,3.33333,30)"><path d="M25.0001,11 L27.0001,11 L27.0001,31.0001 L25.0001,31.0001 L25.0001,11 z" fill-rule="nonzero" vector-effect="none"/></g><defs><clipPath id="clip94"><path d="M9,9 L117,9 L117,117 L9,117 L9,9 z"/></clipPath></defs><g clip-path="url(#clip94)" fill="#3369c9" fill-opacity="1" opacity="1" stroke="none" stroke-opacity="0" transform="matrix(2.26779e-16,1.23457,1.23457,-2.26779e-16,-4.44443,22.2222)"><path d="M84.6,52.2 L90,52.2 L90,73.8 L84.6,73.8 L84.6,52.2 z" fill-rule="nonzero" vector-effect="none"/></g><defs><clipPath id="clip95"><path d="M1,1 L41,1 L41,41 L1,41 L1,1 z"/></clipPath></defs><g clip-path="url(#clip95)" fill="none" opacity="1" stroke="#3369c9" stroke-linecap="butt" stroke-linejoin="miter" stroke-miterlimit="20" stroke-opacity="1" stroke-width="2.3725" transform="matrix(6.12303e-16,3.33333,3.33333,-6.12303e-16,3.33333,30)"><path d="M29.0001,17 L31.0001,17 L31.0001,25.0001 L29.0001,25.0001 L29.0001,17 z" fill-rule="nonzero" vector-effect="none"/></g><defs><clipPath id="clip96"><path d="M1,1 L41,1 L41,41 L1,41 L1,1 z"/></clipPath></defs><g clip-path="url(#clip96)" fill="none" opacity="1" stroke="#ffffff" stroke-linecap="butt" stroke-linejoin="miter" stroke-miterlimit="20" stroke-opacity="1" stroke-width="2.3725" transform="matrix(6.12303e-16,3.33333,3.33333,-6.12303e-16,3.33333,30)"><path d="M1.00001,1.00001 L41.0001,1.00001 L41.0001,41.0001 L1.00001,41.0001 L1.00001,1.00001 z" fill-rule="nonzero" vector-effect="none"/></g><defs><clipPath id="clip113"><path d="M-15,-102 L189,-102 L189,102 L-15,102 L-15,-102 z"/></clipPath></defs><g clip-path="url(#clip113)" fill="none" opacity="1" stroke="#e60000" stroke-linecap="square" stroke-linejoin="bevel" stroke-opacity="1" stroke-width="1" transform="matrix(0,-0.651042,0.651042,0,73.3333,156.667)"><text fill="#e60000" fill-opacity="1" font-family="Liberation Sans" font-size="40" font-style="normal" font-weight="400" stroke="none" textLength="13" x="0" xml:space="preserve" y="17.9219">-</text></g><defs><clipPath id="clip116"><path d="M-189,-154 L15,-154 L15,51 L-189,51 L-189,-154 z"/></clipPath></defs><g clip-path="url(#clip116)" fill="none" opacity="1" stroke="#e60000" stroke-linecap="square" stroke-linejoin="bevel" stroke-opacity="1" stroke-width="1" transform="matrix(0,-0.651042,0.651042,0,106.667,43.3333)"><text fill="#e60000" fill-opacity="1" font-family="Liberation Sans" font-size="40" font-style="normal" font-weight="400" stroke="none" textLength="23" x="-29.8906" xml:space="preserve" y="17.9219">+</text></g><defs><clipPath id="clip119"><path d="M-189,-51 L15,-51 L15,154 L-189,154 L-189,-51 z"/></clipPath></defs><g clip-path="url(#clip119)" fill="none" opacity="1" stroke="#e60000" stroke-linecap="square" stroke-linejoin="bevel" stroke-opacity="1" stroke-width="1" transform="matrix(0,-0.651042,0.651042,0,40,43.3333)"><text fill="#e60000" fill-opacity="1" font-family="Liberation Sans" font-size="40" font-style="normal" font-weight="400" stroke="none" textLength="23" x="-31.25" xml:space="preserve" y="17.9219">Ir</text></g><defs><clipPath id="clip125"><path d="M-2,-10 L42,-10 L42,50 L-2,50 L-2,-10 z"/></clipPath></defs><g clip-path="url(#clip125)" fill="none" opacity="1" stroke="none" stroke-opacity="0" transform="matrix(3.33333,0,0,3.33333,6.66667,33.3333)"><path d="M0,0 L40,0 L40,40 L0,40 L0,0 z" fill-rule="evenodd" vector-effect="none"/></g></g></svg>
