<?xml version="1.0" encoding="UTF-8"?><svg width="23.8125mm" height="52.9167mm" viewBox="0 0 90 200" xmlns="http://www.w3.org/2000/svg" xmlns:xlink="http://www.w3.org/1999/xlink"><g fill="none" stroke="black" stroke-width="1" fill-rule="evenodd" stroke-linecap="square" stroke-linejoin="bevel"><g clip-path="none" fill="none" opacity="1" stroke="none" stroke-opacity="0" transform="matrix(1,0,0,1,0,0)"><path d="M0,0 L90,0 L90,200 L0,200 L0,0 z" fill-rule="evenodd" vector-effect="none"/></g><defs><clipPath id="clip3"><path d="M7,31 L-12,31 L-12,-11 L7,-11 L7,31 z"/></clipPath></defs><g clip-path="url(#clip3)" fill="none" opacity="1" stroke="#000000" stroke-linecap="round" stroke-linejoin="miter" stroke-miterlimit="2" stroke-opacity="1" stroke-width="2" transform="matrix(-4.7619,0,0,-4.7619,33.3333,147.619)"><path d="M5,-5 L0,0 L5,5" fill-rule="evenodd" vector-effect="none"/></g><defs><clipPath id="clip6"><path d="M-12,-21 L7,-21 L7,21 L-12,21 L-12,-21 z"/></clipPath></defs><g clip-path="url(#clip6)" fill="none" opacity="1" stroke="#000000" stroke-linecap="round" stroke-linejoin="miter" stroke-miterlimit="2" stroke-opacity="1" stroke-width="2" transform="matrix(4.7619,0,0,4.7619,57.1429,100)"><path d="M0,-5 L5,0 L0,5" fill-rule="evenodd" vector-effect="none"/></g><defs><clipPath id="clip9"><path d="M7,11 L-12,11 L-12,-31 L7,-31 L7,11 z"/></clipPath></defs><g clip-path="url(#clip9)" fill="none" opacity="1" stroke="#000000" stroke-linecap="round" stroke-linejoin="miter" stroke-miterlimit="2" stroke-opacity="1" stroke-width="2" transform="matrix(-4.7619,0,0,-4.7619,33.3333,52.381)"><path d="M5,-5 L0,0 L5,5" fill-rule="evenodd" vector-effect="none"/></g><defs><clipPath id="clip12"><path d="M-7,-2 L12,-2 L12,40 L-7,40 L-7,-2 z"/></clipPath></defs><g clip-path="url(#clip12)" fill="#ffffff" fill-opacity="1" opacity="1" stroke="none" stroke-opacity="0" transform="matrix(4.7619,0,0,4.7619,33.3333,9.52381)"><path d="M0,0 L5,0 L5,38 L0,38 L0,0 z" fill-rule="evenodd" vector-effect="none"/></g><defs><clipPath id="clip16"><path d="M30,110 L35,110 L35,148 L30,148 L30,110 z"/></clipPath></defs><g clip-path="url(#clip16)" fill="none" opacity="1" stroke="#000000" stroke-linecap="butt" stroke-linejoin="miter" stroke-miterlimit="2" stroke-opacity="1" stroke-width="0.21" transform="matrix(4.7619,0,0,4.7619,-107.143,-516.667)"><polyline fill="none" points="30,129 35,129" vector-effect="none"/></g><defs><clipPath id="clip17"><path d="M30,110 L35,110 L35,148 L30,148 L30,110 z"/></clipPath></defs><g clip-path="url(#clip17)" fill="none" opacity="1" stroke="#000000" stroke-linecap="butt" stroke-linejoin="miter" stroke-miterlimit="2" stroke-opacity="1" stroke-width="0.21" transform="matrix(4.7619,0,0,4.7619,-107.143,-516.667)"><polyline fill="none" points="30,131 35,131" vector-effect="none"/></g><defs><clipPath id="clip18"><path d="M30,111 L35,111 L35,149 L30,149 L30,111 z"/></clipPath></defs><g clip-path="url(#clip18)" fill="#000000" fill-opacity="1" opacity="1" stroke="none" stroke-opacity="0" transform="matrix(4.7619,0,0,4.7619,-109.524,-519.048)"><path d="M30,111 L35,111 L35,126 L30,126 L30,111 z" fill-rule="evenodd" vector-effect="none"/></g><defs><clipPath id="clip19"><path d="M30,111 L35,111 L35,149 L30,149 L30,111 z"/></clipPath></defs><g clip-path="url(#clip19)" fill="#000000" fill-opacity="1" opacity="1" stroke="none" stroke-opacity="0" transform="matrix(4.7619,0,0,4.7619,-109.524,-519.048)"><path d="M30,134 L35,134 L35,149 L30,149 L30,134 z" fill-rule="evenodd" vector-effect="none"/></g><defs><clipPath id="clip24"><path d="M-7,-2 L12,-2 L12,40 L-7,40 L-7,-2 z"/></clipPath></defs><g clip-path="url(#clip24)" fill="none" opacity="1" stroke="#000000" stroke-linecap="butt" stroke-linejoin="miter" stroke-miterlimit="2" stroke-opacity="1" stroke-width="0.535658" transform="matrix(4.7619,0,0,4.7619,33.3333,9.52381)"><path d="M0,0 L5,0 L5,38 L0,38 L0,0 z" fill-rule="evenodd" vector-effect="none"/></g></g></svg>
