<?xml version="1.0" encoding="UTF-8"?><svg width="28.0458mm" height="52.9167mm" viewBox="0 0 106 200" xmlns="http://www.w3.org/2000/svg" xmlns:xlink="http://www.w3.org/1999/xlink"><g fill="none" stroke="black" stroke-width="1" fill-rule="evenodd" stroke-linecap="square" stroke-linejoin="bevel"><g clip-path="none" fill="none" opacity="1" stroke="none" stroke-opacity="0" transform="matrix(1,0,0,1,0,0)"><path d="M0,0 L106,0 L106,200 L0,200 L0,0 z" fill-rule="evenodd" vector-effect="none"/></g><defs><clipPath id="clip6"><path d="M0,0 L10,0 L10,10 L0,10 L0,0 z"/></clipPath></defs><g clip-path="url(#clip6)" fill="#b3b3b3" fill-opacity="1" opacity="1" stroke="none" stroke-opacity="0" transform="matrix(-6.12303e-16,3.33333,-3.33333,-6.12303e-16,66.6667,166.667)"><path d="M0.5,3.5 L3.5,3.5 L3.5,6.5 L0.5,6.5 L0.5,3.5 z" fill-rule="evenodd" vector-effect="none"/></g><defs><clipPath id="clip8"><path d="M0,0 L10,0 L10,10 L0,10 L0,0 z"/></clipPath></defs><g clip-path="url(#clip8)" fill="#000000" fill-opacity="1" opacity="1" stroke="none" stroke-opacity="0" transform="matrix(-6.12303e-16,3.33333,-3.33333,-6.12303e-16,66.6667,166.667)"><path d="M3,4 L3,6 L1,6 L1,4 L3,4 M4,3 L0,3 L0,7 L4,7 L4,3" fill-rule="nonzero" vector-effect="none"/></g><defs><clipPath id="clip28"><path d="M0,0 L10,0 L10,10 L0,10 L0,0 z"/></clipPath></defs><g clip-path="url(#clip28)" fill="#b3b3b3" fill-opacity="1" opacity="1" stroke="none" stroke-opacity="0" transform="matrix(2.04101e-16,-3.33333,3.33333,2.04101e-16,40,33.3333)"><path d="M0.5,3.5 L3.5,3.5 L3.5,6.5 L0.5,6.5 L0.5,3.5 z" fill-rule="evenodd" vector-effect="none"/></g><defs><clipPath id="clip30"><path d="M0,0 L10,0 L10,10 L0,10 L0,0 z"/></clipPath></defs><g clip-path="url(#clip30)" fill="#000000" fill-opacity="1" opacity="1" stroke="none" stroke-opacity="0" transform="matrix(2.04101e-16,-3.33333,3.33333,2.04101e-16,40,33.3333)"><path d="M3,4 L3,6 L1,6 L1,4 L3,4 M4,3 L0,3 L0,7 L4,7 L4,3" fill-rule="nonzero" vector-effect="none"/></g><defs><clipPath id="clip47"><path d="M-2,-10 L30,-10 L30,50 L-2,50 L-2,-10 z"/></clipPath></defs><g clip-path="url(#clip47)" fill="#ffffff" fill-opacity="1" opacity="1" stroke="none" stroke-opacity="0" transform="matrix(3.33333,0,0,3.33333,6.66667,33.3333)"><path d="M0,0 L28,0 L28,40 L0,40 L0,0 z" fill-rule="evenodd" vector-effect="none"/></g><defs><clipPath id="clip51"><path d="M0,0 L28,0 L28,40 L0,40 L0,0 z"/></clipPath></defs><g clip-path="url(#clip51)" fill="none" opacity="1" stroke="none" stroke-opacity="0" transform="matrix(3.33333,0,0,3.33333,6.66667,33.3333)"><path d="M0,0 L28,0 L28,40 L0,40 L0,0 z" fill-rule="evenodd" vector-effect="none"/></g><defs><clipPath id="clip61"><path d="M1,1 L41,1 L41,29 L1,29 L1,1 z"/></clipPath></defs><g clip-path="url(#clip61)" fill="none" opacity="1" stroke="#3369c9" stroke-linecap="butt" stroke-linejoin="miter" stroke-miterlimit="20" stroke-opacity="1" stroke-width="2.3725" transform="matrix(6.12303e-16,3.33333,3.33333,-6.12303e-16,3.33333,30)"><path d="M14.7778,12.6667 L14.7778,17.3334" fill-rule="nonzero" vector-effect="none"/></g><defs><clipPath id="clip62"><path d="M1,1 L41,1 L41,29 L1,29 L1,1 z"/></clipPath></defs><g clip-path="url(#clip62)" fill="none" opacity="1" stroke="#3369c9" stroke-linecap="butt" stroke-linejoin="miter" stroke-miterlimit="20" stroke-opacity="1" stroke-width="2.3725" transform="matrix(6.12303e-16,3.33333,3.33333,-6.12303e-16,3.33333,30)"><path d="M12.5556,15 L17,15" fill-rule="nonzero" vector-effect="none"/></g><defs><clipPath id="clip63"><path d="M1,1 L41,1 L41,29 L1,29 L1,1 z"/></clipPath></defs><g clip-path="url(#clip63)" fill="none" opacity="1" stroke="#3369c9" stroke-linecap="butt" stroke-linejoin="miter" stroke-miterlimit="20" stroke-opacity="1" stroke-width="2.3725" transform="matrix(6.12303e-16,3.33333,3.33333,-6.12303e-16,3.33333,30)"><path d="M31.2222,15 L41,15" fill-rule="nonzero" vector-effect="none"/></g><defs><clipPath id="clip64"><path d="M1,1 L41,1 L41,29 L1,29 L1,1 z"/></clipPath></defs><g clip-path="url(#clip64)" fill="none" opacity="1" stroke="#3369c9" stroke-linecap="butt" stroke-linejoin="miter" stroke-miterlimit="20" stroke-opacity="1" stroke-width="2.3725" transform="matrix(6.12303e-16,3.33333,3.33333,-6.12303e-16,3.33333,30)"><path d="M10.7778,15 L1,15" fill-rule="nonzero" vector-effect="none"/></g><defs><clipPath id="clip65"><path d="M1,1 L41,1 L41,29 L1,29 L1,1 z"/></clipPath></defs><g clip-path="url(#clip65)" fill="none" opacity="1" stroke="#3369c9" stroke-linecap="butt" stroke-linejoin="miter" stroke-miterlimit="20" stroke-opacity="1" stroke-width="2.3725" transform="matrix(6.12303e-16,3.33333,3.33333,-6.12303e-16,3.33333,30)"><path d="M27.6667,12.6667 L27.6667,17.3334" fill-rule="nonzero" vector-effect="none"/></g><defs><clipPath id="clip66"><path d="M1,1 L41,1 L41,29 L1,29 L1,1 z"/></clipPath></defs><g clip-path="url(#clip66)" fill="none" opacity="1" stroke="#3369c9" stroke-linecap="butt" stroke-linejoin="miter" stroke-miterlimit="20" stroke-opacity="1" stroke-width="2.3725" transform="matrix(6.12303e-16,3.33333,3.33333,-6.12303e-16,3.33333,30)"><path d="M20.9506,21.9793 C20.9506,21.9793 20.9503,21.979 20.9439,21.9738 C20.9374,21.9686 20.9251,21.9588 20.9053,21.9429 C20.8858,21.927 20.8588,21.9052 20.8258,21.8786 C20.7931,21.8521 20.7544,21.8208 20.7129,21.7871 C20.6716,21.7536 20.6275,21.7176 20.584,21.682 C20.5406,21.6466 20.4979,21.6115 20.4584,21.5787 C20.4189,21.546 20.3827,21.5156 20.35,21.4878 C20.3172,21.4598 20.2881,21.4344 20.2593,21.409 C20.2304,21.3835 20.2016,21.3574 20.173,21.3313 C20.1444,21.3051 20.1159,21.2786 20.0876,21.2518 C20.0594,21.2252 20.0311,21.1984 20.0031,21.1716 C19.975,21.1449 19.947,21.1179 19.919,21.0909 C19.8909,21.064 19.8627,21.0368 19.8344,21.0097 C19.8061,20.9824 19.7776,20.9551 19.7486,20.9274 C19.7197,20.8998 19.6904,20.8718 19.6602,20.8431 C19.6301,20.8146 19.5993,20.7853 19.5679,20.7556 C19.5365,20.7257 19.5042,20.6953 19.4706,20.6635 C19.4372,20.6319 19.4025,20.599 19.3667,20.5653 C19.3312,20.5316 19.2945,20.4972 19.2574,20.4623 C19.2206,20.4274 19.183,20.392 19.1457,20.3569 C19.1083,20.3216 19.0711,20.2864 19.0346,20.252 C18.998,20.2174 18.9623,20.1835 18.9282,20.1512 C18.894,20.1187 18.8614,20.0876 18.8313,20.0586 C18.8011,20.0295 18.7735,20.0027 18.7481,19.9778 C18.7228,19.9529 18.6999,19.9301 18.6792,19.9094 C18.6584,19.8887 18.64,19.8698 18.6229,19.8524 C18.6059,19.8347 18.5901,19.8185 18.5751,19.8029 C18.5602,19.7874 18.5458,19.7723 18.5317,19.7575 C18.5175,19.7426 18.5035,19.7277 18.4894,19.7127 C18.4751,19.6977 18.4607,19.6825 18.4459,19.6664 C18.4311,19.6505 18.416,19.6339 18.4005,19.6168 C18.3848,19.5995 18.3689,19.5813 18.3531,19.563 C18.3373,19.5447 18.3215,19.526 18.3058,19.5072 C18.2902,19.4885 18.2746,19.4695 18.2588,19.4505 C18.2431,19.4315 18.2273,19.4125 18.2115,19.3935 C18.1957,19.3745 18.1799,19.3553 18.1641,19.3361 C18.1485,19.3171 18.1328,19.2979 18.1172,19.2785 C18.1017,19.2592 18.0864,19.2396 18.0714,19.2199 C18.0565,19.2001 18.0418,19.18 18.0278,19.1596 C18.0138,19.139 18.0005,19.118 17.9876,19.0964 C17.9748,19.0747 17.9628,19.0526 17.9504,19.0298 C17.9383,19.007 17.9259,18.9835 17.9134,18.9596 C17.9009,18.9358 17.8881,18.9116 17.8752,18.887 C17.8624,18.8627 17.8494,18.838 17.8365,18.8132 C17.8239,18.7887 17.8114,18.764 17.7997,18.7394 C17.788,18.7149 17.7771,18.6905 17.7679,18.6663 C17.7587,18.6423 17.7513,18.6185 17.7465,18.5951 C17.7417,18.5716 17.7397,18.5486 17.7407,18.526 C17.7417,18.5033 17.7458,18.4809 17.7526,18.4587 C17.7593,18.4368 17.7687,18.415 17.7797,18.3934 C17.7908,18.3718 17.8034,18.3504 17.8169,18.3291 C17.8304,18.3079 17.8448,18.2866 17.8593,18.2653 C17.8737,18.2443 17.8886,18.223 17.9034,18.2019 C17.918,18.1806 17.9328,18.1592 17.9475,18.138 C17.9621,18.1165 17.9766,18.0949 17.9914,18.0731 C18.0062,18.0514 18.0212,18.0296 18.037,18.0075 C18.0528,17.9853 18.0696,17.9632 18.0872,17.9409 C18.105,17.9186 18.1236,17.8963 18.1427,17.8737 C18.1618,17.8512 18.1814,17.8286 18.2013,17.8059 C18.2212,17.7833 18.2415,17.7605 18.2617,17.7378 C18.282,17.7152 18.3024,17.6924 18.3225,17.6697 C18.3427,17.6471 18.363,17.6244 18.383,17.602 C18.403,17.5793 18.4229,17.557 18.4425,17.5347 C18.4622,17.5124 18.4816,17.4902 18.5012,17.4682 C18.5208,17.4462 18.5404,17.4243 18.5595,17.4027 C18.5788,17.3813 18.5975,17.36 18.616,17.3391 C18.6344,17.3182 18.6525,17.2976 18.6703,17.277 C18.6882,17.2566 18.706,17.2362 18.7238,17.2159 C18.7417,17.1955 18.7597,17.1751 18.7783,17.1541 C18.7967,17.1334 18.8158,17.1123 18.836,17.0905 C18.8561,17.0689 18.8775,17.0465 18.9006,17.023 C18.9236,16.9996 18.9485,16.9751 18.9753,16.9497 C19.002,16.9243 19.0306,16.8977 19.0607,16.8705 C19.0909,16.8436 19.1225,16.8157 19.1549,16.7877 C19.1873,16.7597 19.2207,16.7316 19.2545,16.7031 C19.2882,16.6747 19.3225,16.6461 19.3567,16.6174 C19.3911,16.5887 19.4257,16.5598 19.4606,16.5305 C19.4953,16.5012 19.5302,16.4716 19.5654,16.4411 C19.6008,16.4106 19.6365,16.3794 19.6729,16.3468 C19.7095,16.3141 19.7467,16.2801 19.7852,16.2445 C19.8237,16.2088 19.8634,16.1716 19.904,16.1327 C19.9447,16.0939 19.9862,16.0536 20.0283,16.0123 C20.0703,15.9711 20.1129,15.9289 20.1557,15.8863 C20.1985,15.8437 20.2415,15.8007 20.2848,15.7575 C20.3279,15.7143 20.3713,15.671 20.415,15.6277 C20.4586,15.5845 20.5024,15.5412 20.5468,15.498 C20.5911,15.4549 20.636,15.4118 20.6818,15.3686 C20.7276,15.3254 20.7743,15.2822 20.8222,15.2386 C20.8701,15.1949 20.9195,15.1508 20.9707,15.1055 C21.0219,15.0602 21.0751,15.0138 21.1297,14.9665 C21.1844,14.9192 21.2405,14.871 21.2973,14.8224 C21.3539,14.7738 21.4113,14.7248 21.4688,14.676 C21.5261,14.6271 21.5832,14.5784 21.6393,14.5306 C21.6955,14.4828 21.7506,14.4358 21.8034,14.3907 C21.8563,14.3457 21.907,14.3024 21.9544,14.2621 C22.0018,14.2217 22.0456,14.1842 22.0864,14.1497 C22.1271,14.1151 22.1648,14.0834 22.1993,14.0545 C22.2339,14.0256 22.2657,13.9994 22.2955,13.9749 C22.3253,13.9505 22.3534,13.9278 22.3806,13.9059 C22.4077,13.884 22.4341,13.8629 22.4601,13.842 C22.4861,13.8211 22.5119,13.8004 22.5379,13.7795 C22.5639,13.7586 22.5901,13.7374 22.6165,13.7157 C22.643,13.6939 22.6698,13.6716 22.6968,13.6488 C22.7238,13.626 22.7509,13.6026 22.7778,13.5793 C22.8046,13.556 22.8308,13.5328 22.8566,13.5097 C22.8823,13.4866 22.9078,13.4637 22.933,13.4408 C22.9582,13.418 22.983,13.3952 23.0081,13.3725 C23.0329,13.3498 23.0576,13.3271 23.0823,13.3045 C23.107,13.2818 23.1317,13.2592 23.1562,13.2365 C23.1806,13.2137 23.2051,13.191 23.2293,13.1681 C23.2535,13.1453 23.2774,13.1224 23.3011,13.0993 C23.3246,13.0762 23.3478,13.053 23.3704,13.0297 C23.3929,13.0063 23.4151,12.9829 23.4369,12.9591 C23.4586,12.9354 23.48,12.9113 23.5014,12.8871 C23.5226,12.8628 23.5437,12.8383 23.5648,12.8137 C23.5857,12.7891 23.6067,12.7644 23.6275,12.7397 C23.6484,12.7151 23.6691,12.6904 23.6899,12.666 C23.7104,12.6416 23.7309,12.6175 23.7508,12.5938 C23.7709,12.5701 23.7904,12.5469 23.8094,12.5244 C23.8285,12.502 23.8467,12.4802 23.8642,12.4593 C23.8816,12.4383 23.8984,12.4181 23.9147,12.3986 C23.9312,12.379 23.9472,12.3602 23.9631,12.3417 C23.9789,12.3232 23.9947,12.3052 24.0105,12.2873 C24.0263,12.2694 24.0421,12.2518 24.0576,12.2342 C24.0731,12.2166 24.0886,12.199 24.1034,12.1815 C24.1183,12.1639 24.1327,12.1464 24.1462,12.1288 C24.1597,12.1112 24.172,12.0936 24.1829,12.0761 C24.1936,12.0585 24.2026,12.041 24.2099,12.0237 C24.2171,12.0065 24.2224,11.9894 24.2263,11.973 C24.2301,11.9565 24.2326,11.9406 24.2342,11.925 C24.2359,11.9095 24.2369,11.8945 24.2374,11.8796 C24.2378,11.8647 24.238,11.8501 24.2378,11.8353 C24.2377,11.8206 24.2374,11.8058 24.2367,11.7906 C24.236,11.7753 24.2351,11.7597 24.2332,11.7431 C24.2316,11.7266 24.2291,11.7091 24.2253,11.6903 C24.2217,11.6715 24.2166,11.6513 24.2099,11.6297 C24.2031,11.6081 24.1946,11.5851 24.184,11.5604 C24.1737,11.5357 24.1615,11.5093 24.1481,11.4819 C24.1348,11.4544 24.1205,11.4258 24.1053,11.3967 C24.0904,11.3675 24.0749,11.3379 24.0593,11.3082 C24.0436,11.2785 24.0278,11.2488 24.0123,11.2197 C23.9969,11.1906 23.9816,11.162 23.9667,11.1345 C23.9519,11.107 23.9376,11.0807 23.9238,11.056 C23.9101,11.0313 23.8969,11.0083 23.8839,10.9867 C23.8709,10.9651 23.8583,10.9449 23.8456,10.9261 C23.8331,10.9074 23.8209,10.8901 23.8087,10.8737 C23.7965,10.8574 23.7847,10.842 23.7728,10.8271 C23.761,10.8121 23.7493,10.7976 23.7374,10.7832 C23.7256,10.7687 23.7139,10.7544 23.7019,10.7397 C23.69,10.725 23.678,10.7101 23.6657,10.6945 C23.6533,10.6789 23.6408,10.6628 23.6278,10.6458 C23.6148,10.6288 23.6015,10.611 23.5876,10.5926 C23.5738,10.5743 23.5597,10.5554 23.5455,10.5361 C23.5312,10.5168 23.5167,10.4971 23.5022,10.4771 C23.4877,10.4572 23.4732,10.437 23.4588,10.4166 C23.4443,10.3963 23.4298,10.3759 23.4151,10.3554 C23.4006,10.3349 23.386,10.3144 23.371,10.2938 C23.356,10.2732 23.3409,10.2525 23.3253,10.2318 C23.3095,10.211 23.2933,10.1902 23.2762,10.1691 C23.2591,10.1481 23.2411,10.1268 23.2222,10.1052 C23.2033,10.0836 23.1834,10.0617 23.1625,10.0394 C23.1416,10.0171 23.1198,9.99441 23.0974,9.97154 C23.0749,9.94867 23.0518,9.92558 23.0286,9.90239 C23.0053,9.87919 22.9817,9.85588 22.958,9.83256 C22.9343,9.80925 22.9106,9.78589 22.8871,9.76261 C22.8634,9.73931 22.8398,9.71608 22.8165,9.69296 C22.7932,9.66981 22.77,9.64679 22.7472,9.62391 C22.7243,9.60102 22.7016,9.57828 22.679,9.55558 C22.6563,9.53289 22.6337,9.51028 22.611,9.48774 C22.5885,9.46522 22.5658,9.44279 22.5432,9.42042 C22.5207,9.39808 22.4979,9.37578 22.4754,9.35352 C22.4527,9.33127 22.4301,9.30905 22.4074,9.28682 C22.3847,9.26459 22.3621,9.24235 22.3394,9.22007 C22.3169,9.19777 22.2941,9.17542 22.2716,9.15295 C22.249,9.13048 22.2263,9.10791 22.2036,9.08515 C22.1811,9.06239 22.1583,9.03943 22.1358,9.01632 C22.1132,8.99322 22.0905,8.9699 22.068,8.94629 C22.0454,8.9227 22.0229,8.89879 22.0003,8.87465 C21.9778,8.85052 21.9552,8.82617 21.9328,8.80169 C21.9103,8.77723 21.8879,8.75266 21.8653,8.72811 C21.843,8.70357 21.8206,8.67904 21.798,8.65471 C21.7755,8.63037 21.7529,8.60623 21.7302,8.58246 C21.7075,8.5587 21.6848,8.53531 21.6619,8.51253 C21.639,8.48973 21.6158,8.46756 21.5926,8.44595 C21.5694,8.42435 21.5458,8.40326 21.5213,8.38217 C21.4969,8.36107 21.4714,8.33998 21.4453,8.31872 C21.4189,8.29747 21.3919,8.27605 21.3644,8.25457 C21.3369,8.23306 21.3091,8.21151 21.2815,8.19015 C21.2538,8.16879 21.2263,8.14761 21.2,8.12708 C21.1737,8.10655 21.1481,8.08667 21.1249,8.06814 C21.1017,8.0496 21.0805,8.03241 21.0627,8.01741 C21.0449,8.00241 21.0306,7.98965 21.0197,7.97928 C21.0089,7.96891 21.0013,7.96082 20.9969,7.95469 C20.9926,7.94855 20.9914,7.94435 20.9929,7.9416 C20.9944,7.93887 20.9983,7.9376 21.0038,7.93725 C21.0092,7.9369 21.016,7.93747 21.023,7.93844 C21.03,7.93943 21.0372,7.94079 21.0436,7.94212 C21.0499,7.94345 21.0555,7.94475 21.0596,7.94574 C21.0635,7.94674 21.0663,7.94741 21.0676,7.94778 C21.069,7.94814 21.0691,7.94817 21.0691,7.94817" fill-rule="nonzero" vector-effect="none"/></g><defs><clipPath id="clip67"><path d="M1,1 L41,1 L41,29 L1,29 L1,1 z"/></clipPath></defs><g clip-path="url(#clip67)" fill="none" opacity="1" stroke="#3369c9" stroke-linecap="butt" stroke-linejoin="miter" stroke-miterlimit="4" stroke-opacity="1" stroke-width="2.3725" transform="matrix(6.12303e-16,3.33333,3.33333,-6.12303e-16,3.33333,30)"><path d="M30.9654,14.803 C30.9654,20.582 26.5037,25.2667 21,25.2667 C15.4962,25.2667 11.0346,20.582 11.0346,14.803 C11.0346,9.02405 15.4962,4.33927 21,4.33927 C26.5037,4.33927 30.9654,9.02405 30.9654,14.803 z" fill-rule="nonzero" vector-effect="none"/></g><defs><clipPath id="clip68"><path d="M1,1 L41,1 L41,29 L1,29 L1,1 z"/></clipPath></defs><g clip-path="url(#clip68)" fill="none" opacity="1" stroke="#ffffff" stroke-linecap="butt" stroke-linejoin="miter" stroke-miterlimit="20" stroke-opacity="1" stroke-width="2.3725" transform="matrix(6.12303e-16,3.33333,3.33333,-6.12303e-16,3.33333,30)"><path d="M1,1 L41,1 L41,29.0001 L1,29.0001 L1,1 z" fill-rule="nonzero" vector-effect="none"/></g><defs><clipPath id="clip85"><path d="M-15,-72 L189,-72 L189,72 L-15,72 L-15,-72 z"/></clipPath></defs><g clip-path="url(#clip85)" fill="none" opacity="1" stroke="#e60000" stroke-linecap="square" stroke-linejoin="bevel" stroke-opacity="1" stroke-width="1" transform="matrix(0,-0.651042,0.651042,0,53.3333,156.667)"><text fill="#e60000" fill-opacity="1" font-family="Liberation Sans" font-size="40" font-style="normal" font-weight="400" stroke="none" textLength="13" x="0" xml:space="preserve" y="17.9219">-</text></g><defs><clipPath id="clip88"><path d="M-189,-72 L15,-72 L15,72 L-189,72 L-189,-72 z"/></clipPath></defs><g clip-path="url(#clip88)" fill="none" opacity="1" stroke="#e60000" stroke-linecap="square" stroke-linejoin="bevel" stroke-opacity="1" stroke-width="1" transform="matrix(0,-0.651042,0.651042,0,53.3333,43.3333)"><text fill="#e60000" fill-opacity="1" font-family="Liberation Sans" font-size="40" font-style="normal" font-weight="400" stroke="none" textLength="23" x="-29.8906" xml:space="preserve" y="17.9219">+</text></g><defs><clipPath id="clip94"><path d="M-2,-10 L30,-10 L30,50 L-2,50 L-2,-10 z"/></clipPath></defs><g clip-path="url(#clip94)" fill="none" opacity="1" stroke="none" stroke-opacity="0" transform="matrix(3.33333,0,0,3.33333,6.66667,33.3333)"><path d="M0,0 L28,0 L28,40 L0,40 L0,0 z" fill-rule="evenodd" vector-effect="none"/></g></g></svg>
