<?xml version="1.0" encoding="UTF-8"?><svg width="52.9167mm" height="42.3333mm" viewBox="0 0 200 160" xmlns="http://www.w3.org/2000/svg" xmlns:xlink="http://www.w3.org/1999/xlink"><g fill="none" stroke="black" stroke-width="1" fill-rule="evenodd" stroke-linecap="square" stroke-linejoin="bevel"><g clip-path="none" fill="none" opacity="1" stroke="none" stroke-opacity="0" transform="matrix(1,0,0,1,0,0)"><path d="M0,0 L200,0 L200,160 L0,160 L0,0 z" fill-rule="evenodd" vector-effect="none"/></g><defs><clipPath id="clip6"><path d="M0,0 L10,0 L10,10 L0,10 L0,0 z"/></clipPath></defs><g clip-path="url(#clip6)" fill="#b3b3b3" fill-opacity="1" opacity="1" stroke="none" stroke-opacity="0" transform="matrix(2.5,0,0,2.5,175,32.5)"><path d="M0.5,3.5 L3.5,3.5 L3.5,6.5 L0.5,6.5 L0.5,3.5 z" fill-rule="evenodd" vector-effect="none"/></g><defs><clipPath id="clip8"><path d="M0,0 L10,0 L10,10 L0,10 L0,0 z"/></clipPath></defs><g clip-path="url(#clip8)" fill="#000000" fill-opacity="1" opacity="1" stroke="none" stroke-opacity="0" transform="matrix(2.5,0,0,2.5,175,32.5)"><path d="M3,4 L3,6 L1,6 L1,4 L3,4 M4,3 L0,3 L0,7 L4,7 L4,3" fill-rule="nonzero" vector-effect="none"/></g><defs><clipPath id="clip28"><path d="M0,0 L10,0 L10,10 L0,10 L0,0 z"/></clipPath></defs><g clip-path="url(#clip28)" fill="#b3b3b3" fill-opacity="1" opacity="1" stroke="none" stroke-opacity="0" transform="matrix(-2.5,0,0,2.5,25,107.5)"><path d="M0.5,3.5 L3.5,3.5 L3.5,6.5 L0.5,6.5 L0.5,3.5 z" fill-rule="evenodd" vector-effect="none"/></g><defs><clipPath id="clip30"><path d="M0,0 L10,0 L10,10 L0,10 L0,0 z"/></clipPath></defs><g clip-path="url(#clip30)" fill="#000000" fill-opacity="1" opacity="1" stroke="none" stroke-opacity="0" transform="matrix(-2.5,0,0,2.5,25,107.5)"><path d="M3,4 L3,6 L1,6 L1,4 L3,4 M4,3 L0,3 L0,7 L4,7 L4,3" fill-rule="nonzero" vector-effect="none"/></g><defs><clipPath id="clip50"><path d="M0,0 L10,0 L10,10 L0,10 L0,0 z"/></clipPath></defs><g clip-path="url(#clip50)" fill="#b3b3b3" fill-opacity="1" opacity="1" stroke="none" stroke-opacity="0" transform="matrix(2.5,0,0,2.5,175,107.5)"><path d="M0.5,3.5 L3.5,3.5 L3.5,6.5 L0.5,6.5 L0.5,3.5 z" fill-rule="evenodd" vector-effect="none"/></g><defs><clipPath id="clip52"><path d="M0,0 L10,0 L10,10 L0,10 L0,0 z"/></clipPath></defs><g clip-path="url(#clip52)" fill="#000000" fill-opacity="1" opacity="1" stroke="none" stroke-opacity="0" transform="matrix(2.5,0,0,2.5,175,107.5)"><path d="M3,4 L3,6 L1,6 L1,4 L3,4 M4,3 L0,3 L0,7 L4,7 L4,3" fill-rule="nonzero" vector-effect="none"/></g><defs><clipPath id="clip72"><path d="M0,0 L10,0 L10,10 L0,10 L0,0 z"/></clipPath></defs><g clip-path="url(#clip72)" fill="#b3b3b3" fill-opacity="1" opacity="1" stroke="none" stroke-opacity="0" transform="matrix(-2.5,0,0,2.5,25,32.5)"><path d="M0.5,3.5 L3.5,3.5 L3.5,6.5 L0.5,6.5 L0.5,3.5 z" fill-rule="evenodd" vector-effect="none"/></g><defs><clipPath id="clip74"><path d="M0,0 L10,0 L10,10 L0,10 L0,0 z"/></clipPath></defs><g clip-path="url(#clip74)" fill="#000000" fill-opacity="1" opacity="1" stroke="none" stroke-opacity="0" transform="matrix(-2.5,0,0,2.5,25,32.5)"><path d="M3,4 L3,6 L1,6 L1,4 L3,4 M4,3 L0,3 L0,7 L4,7 L4,3" fill-rule="nonzero" vector-effect="none"/></g><defs><clipPath id="clip91"><path d="M-10,-2 L70,-2 L70,62 L-10,62 L-10,-2 z"/></clipPath></defs><g clip-path="url(#clip91)" fill="#ffffff" fill-opacity="1" opacity="1" stroke="none" stroke-opacity="0" transform="matrix(2.5,0,0,2.5,25,5)"><path d="M0,0 L60,0 L60,60 L0,60 L0,0 z" fill-rule="evenodd" vector-effect="none"/></g><defs><clipPath id="clip95"><path d="M0,0 L60,0 L60,60 L0,60 L0,0 z"/></clipPath></defs><g clip-path="url(#clip95)" fill="none" opacity="1" stroke="none" stroke-opacity="0" transform="matrix(2.5,0,0,2.5,25,5)"><path d="M0,0 L60,0 L60,60 L0,60 L0,0 z" fill-rule="evenodd" vector-effect="none"/></g><defs><clipPath id="clip105"><path d="M1,1 L61,1 L61,61 L1,61 L1,1 z"/></clipPath></defs><g clip-path="url(#clip105)" fill="none" opacity="1" stroke="#44805c" stroke-linecap="butt" stroke-linejoin="miter" stroke-miterlimit="20" stroke-opacity="1" stroke-width="1.9825" transform="matrix(2.5,0,0,2.5,22.5,2.5)"><path d="M43.5,20.8347 L33.5,20.8347 L33.5,40.6695 L48.5,40.6695" fill-rule="nonzero" vector-effect="none"/></g><defs><clipPath id="clip106"><path d="M1,1 L61,1 L61,61 L1,61 L1,1 z"/></clipPath></defs><g clip-path="url(#clip106)" fill="none" opacity="1" stroke="#b09952" stroke-linecap="butt" stroke-linejoin="miter" stroke-miterlimit="20" stroke-opacity="1" stroke-width="1.9825" transform="matrix(2.5,0,0,2.5,22.5,2.5)"><path d="M0.999998,45.6282 L18.5,45.6282 L18.5,40.6695" fill-rule="nonzero" vector-effect="none"/></g><defs><clipPath id="clip107"><path d="M1,1 L61,1 L61,61 L1,61 L1,1 z"/></clipPath></defs><g clip-path="url(#clip107)" fill="none" opacity="1" stroke="#000000" stroke-linecap="butt" stroke-linejoin="miter" stroke-miterlimit="20" stroke-opacity="1" stroke-width="1.9825" transform="matrix(2.5,0,0,2.5,22.5,2.5)"><path d="M26,40.6695 L33.5,40.6695" fill-rule="nonzero" vector-effect="none"/></g><defs><clipPath id="clip108"><path d="M1,1 L61,1 L61,61 L1,61 L1,1 z"/></clipPath></defs><g clip-path="url(#clip108)" fill="none" opacity="1" stroke="#44805c" stroke-linecap="butt" stroke-linejoin="miter" stroke-miterlimit="20" stroke-opacity="1" stroke-width="1.9825" transform="matrix(2.5,0,0,2.5,22.5,2.5)"><path d="M60.9999,15.8761 L40,15.8761 L40,30.7521" fill-rule="nonzero" vector-effect="none"/></g><defs><clipPath id="clip109"><path d="M1,1 L61,1 L61,61 L1,61 L1,1 z"/></clipPath></defs><g clip-path="url(#clip109)" fill="none" opacity="1" stroke="#44805c" stroke-linecap="butt" stroke-linejoin="miter" stroke-miterlimit="20" stroke-opacity="1" stroke-width="1.9825" transform="matrix(2.5,0,0,2.5,22.5,2.5)"><path d="M48.5,20.8347 L26,20.8347 L26,25.7934 L21,25.7934 L21,20.8347 L16,20.8347 L16,40.6695 L21,40.6695 L21,35.7108 L26,35.7108 L26,40.6695 L49,40.6695" fill-rule="nonzero" vector-effect="none"/></g><defs><clipPath id="clip110"><path d="M1,1 L61,1 L61,61 L1,61 L1,1 z"/></clipPath></defs><g clip-path="url(#clip110)" fill="none" opacity="1" stroke="#44805c" stroke-linecap="butt" stroke-linejoin="miter" stroke-miterlimit="20" stroke-opacity="1" stroke-width="1.9825" transform="matrix(2.5,0,0,2.5,22.5,2.5)"><path d="M0.999998,15.8761 L16,15.8761 L16,20.8347" fill-rule="nonzero" vector-effect="none"/></g><defs><clipPath id="clip111"><path d="M1,1 L61,1 L61,61 L1,61 L1,1 z"/></clipPath></defs><g clip-path="url(#clip111)" fill="none" opacity="1" stroke="#44805c" stroke-linecap="butt" stroke-linejoin="miter" stroke-miterlimit="20" stroke-opacity="1" stroke-width="1.9825" transform="matrix(2.5,0,0,2.5,22.5,2.5)"><path d="M33.5,25.7934 L28,27.281 L28,34.2232 L33.5,35.7108" fill-rule="nonzero" vector-effect="none"/></g><defs><clipPath id="clip112"><path d="M1,1 L61,1 L61,61 L1,61 L1,1 z"/></clipPath></defs><g clip-path="url(#clip112)" fill="none" opacity="1" stroke="#44805c" stroke-linecap="butt" stroke-linejoin="miter" stroke-miterlimit="20" stroke-opacity="1" stroke-width="1.9825" transform="matrix(2.5,0,0,2.5,22.5,2.5)"><path d="M48.5,20.3389 L25.5,20.3389 L25.5,25.2976 L21.5,25.2976 L21.5,20.3389 L15.5,20.3389 L15.5,41.1654 L21.5,41.1654 L21.5,36.2067 L25.5,36.2067 L25.5,41.1654 L48.5,41.1654" fill-rule="nonzero" vector-effect="none"/></g><defs><clipPath id="clip113"><path d="M1,1 L61,1 L61,61 L1,61 L1,1 z"/></clipPath></defs><g clip-path="url(#clip113)" fill="none" opacity="1" stroke="#44805c" stroke-linecap="butt" stroke-linejoin="miter" stroke-miterlimit="20" stroke-opacity="1" stroke-width="1.9825" transform="matrix(2.5,0,0,2.5,22.5,2.5)"><path d="M15.5,20.3389 L15.5,15.8761" fill-rule="nonzero" vector-effect="none"/></g><defs><clipPath id="clip114"><path d="M1,1 L61,1 L61,61 L1,61 L1,1 z"/></clipPath></defs><g clip-path="url(#clip114)" fill="none" opacity="1" stroke="#b09952" stroke-linecap="butt" stroke-linejoin="miter" stroke-miterlimit="20" stroke-opacity="1" stroke-width="1.9825" transform="matrix(2.5,0,0,2.5,22.5,2.5)"><path d="M60.9999,45.6282 L28.5,45.6282 L28.5,40.6695" fill-rule="nonzero" vector-effect="none"/></g><defs><clipPath id="clip115"><path d="M1,1 L61,1 L61,61 L1,61 L1,1 z"/></clipPath></defs><g clip-path="url(#clip115)" fill="none" opacity="1" stroke="#44805c" stroke-linecap="butt" stroke-linejoin="miter" stroke-miterlimit="20" stroke-opacity="1" stroke-width="1.9825" transform="matrix(2.5,0,0,2.5,22.5,2.5)"><path d="M33.5,21.8265 L46,21.8265" fill-rule="nonzero" vector-effect="none"/></g><defs><clipPath id="clip116"><path d="M1,1 L61,1 L61,61 L1,61 L1,1 z"/></clipPath></defs><g clip-path="url(#clip116)" fill="none" opacity="1" stroke="#44805c" stroke-linecap="butt" stroke-linejoin="miter" stroke-miterlimit="20" stroke-opacity="1" stroke-width="1.9825" transform="matrix(2.5,0,0,2.5,22.5,2.5)"><path d="M33.5,23.3141 L46,23.3141" fill-rule="nonzero" vector-effect="none"/></g><defs><clipPath id="clip117"><path d="M1,1 L61,1 L61,61 L1,61 L1,1 z"/></clipPath></defs><g clip-path="url(#clip117)" fill="none" opacity="1" stroke="#44805c" stroke-linecap="butt" stroke-linejoin="miter" stroke-miterlimit="20" stroke-opacity="1" stroke-width="1.9825" transform="matrix(2.5,0,0,2.5,22.5,2.5)"><path d="M33.5,25.2976 L46,25.2976" fill-rule="nonzero" vector-effect="none"/></g><defs><clipPath id="clip118"><path d="M1,1 L61,1 L61,61 L1,61 L1,1 z"/></clipPath></defs><g clip-path="url(#clip118)" fill="none" opacity="1" stroke="#44805c" stroke-linecap="butt" stroke-linejoin="miter" stroke-miterlimit="20" stroke-opacity="1" stroke-width="1.9825" transform="matrix(2.5,0,0,2.5,22.5,2.5)"><path d="M33.5,28.2728 L46,28.2728" fill-rule="nonzero" vector-effect="none"/></g><defs><clipPath id="clip119"><path d="M1,1 L61,1 L61,61 L1,61 L1,1 z"/></clipPath></defs><g clip-path="url(#clip119)" fill="none" opacity="1" stroke="#44805c" stroke-linecap="butt" stroke-linejoin="miter" stroke-miterlimit="20" stroke-opacity="1" stroke-width="1.9825" transform="matrix(2.5,0,0,2.5,22.5,2.5)"><path d="M33.5,33.2315 L46,33.2315" fill-rule="nonzero" vector-effect="none"/></g><defs><clipPath id="clip120"><path d="M1,1 L61,1 L61,61 L1,61 L1,1 z"/></clipPath></defs><g clip-path="url(#clip120)" fill="none" opacity="1" stroke="#44805c" stroke-linecap="butt" stroke-linejoin="miter" stroke-miterlimit="20" stroke-opacity="1" stroke-width="1.9825" transform="matrix(2.5,0,0,2.5,22.5,2.5)"><path d="M33.5,36.2067 L46,36.2067" fill-rule="nonzero" vector-effect="none"/></g><defs><clipPath id="clip121"><path d="M1,1 L61,1 L61,61 L1,61 L1,1 z"/></clipPath></defs><g clip-path="url(#clip121)" fill="none" opacity="1" stroke="#44805c" stroke-linecap="butt" stroke-linejoin="miter" stroke-miterlimit="20" stroke-opacity="1" stroke-width="1.9825" transform="matrix(2.5,0,0,2.5,22.5,2.5)"><path d="M33.5,38.1901 L46,38.1901" fill-rule="nonzero" vector-effect="none"/></g><defs><clipPath id="clip122"><path d="M1,1 L61,1 L61,61 L1,61 L1,1 z"/></clipPath></defs><g clip-path="url(#clip122)" fill="none" opacity="1" stroke="#44805c" stroke-linecap="butt" stroke-linejoin="miter" stroke-miterlimit="20" stroke-opacity="1" stroke-width="1.9825" transform="matrix(2.5,0,0,2.5,22.5,2.5)"><path d="M33.5,39.6777 L46,39.6777" fill-rule="nonzero" vector-effect="none"/></g><defs><clipPath id="clip123"><path d="M1,1 L61,1 L61,61 L1,61 L1,1 z"/></clipPath></defs><g clip-path="url(#clip123)" fill="none" opacity="1" stroke="#44805c" stroke-linecap="butt" stroke-linejoin="miter" stroke-miterlimit="20" stroke-opacity="1" stroke-width="1.9825" transform="matrix(2.5,0,0,2.5,22.5,2.5)"><path d="M48.5,19.843 L25,19.843 L25,24.8017 L22,24.8017 L22,19.843 L15,19.843 L15,41.6612 L22,41.6612 L22,36.7025 L25,36.7025 L25,41.6612 L48.5,41.6612" fill-rule="nonzero" vector-effect="none"/></g><defs><clipPath id="clip124"><path d="M1,1 L61,1 L61,61 L1,61 L1,1 z"/></clipPath></defs><g clip-path="url(#clip124)" fill="none" opacity="1" stroke="#44805c" stroke-linecap="butt" stroke-linejoin="miter" stroke-miterlimit="20" stroke-opacity="1" stroke-width="1.9825" transform="matrix(2.5,0,0,2.5,22.5,2.5)"><path d="M15,19.843 L15,15.8761" fill-rule="nonzero" vector-effect="none"/></g><defs><clipPath id="clip125"><path d="M1,1 L61,1 L61,61 L1,61 L1,1 z"/></clipPath></defs><g clip-path="url(#clip125)" fill="none" opacity="1" stroke="#44805c" stroke-linecap="butt" stroke-linejoin="miter" stroke-miterlimit="20" stroke-opacity="1" stroke-width="1.9825" transform="matrix(2.5,0,0,2.5,22.5,2.5)"><path d="M48.5,19.843 L48.5,20.8347" fill-rule="nonzero" vector-effect="none"/></g><defs><clipPath id="clip126"><path d="M1,1 L61,1 L61,61 L1,61 L1,1 z"/></clipPath></defs><g clip-path="url(#clip126)" fill="none" opacity="1" stroke="#44805c" stroke-linecap="butt" stroke-linejoin="miter" stroke-miterlimit="20" stroke-opacity="1" stroke-width="1.9825" transform="matrix(2.5,0,0,2.5,22.5,2.5)"><path d="M48.5,40.6695 L48.5,41.6612" fill-rule="nonzero" vector-effect="none"/></g><defs><clipPath id="clip127"><path d="M1,1 L61,1 L61,61 L1,61 L1,1 z"/></clipPath></defs><g clip-path="url(#clip127)" fill="none" opacity="1" stroke="#44805c" stroke-linecap="butt" stroke-linejoin="miter" stroke-miterlimit="20" stroke-opacity="1" stroke-width="1.9825" transform="matrix(2.5,0,0,2.5,22.5,2.5)"><path d="M46,20.8347 L46,40.6695" fill-rule="nonzero" vector-effect="none"/></g><defs><clipPath id="clip128"><path d="M9,9 L333,9 L333,336 L9,336 L9,9 z"/></clipPath></defs><g clip-path="url(#clip128)" fill="#44805c" fill-opacity="1" opacity="1" stroke="none" stroke-opacity="0" transform="matrix(0.462963,0,0,0.459138,20.8333,0.867767)"><path d="M223.44,171 C223.44,173.121 221.721,174.84 219.6,174.84 C217.479,174.84 215.76,173.121 215.76,171 C215.76,168.879 217.479,167.16 219.6,167.16 C221.721,167.16 223.44,168.879 223.44,171 z" fill-rule="nonzero" vector-effect="none"/></g><defs><clipPath id="clip129"><path d="M1,1 L61,1 L61,61 L1,61 L1,1 z"/></clipPath></defs><g clip-path="url(#clip129)" fill="none" opacity="1" stroke="#44805c" stroke-linecap="butt" stroke-linejoin="miter" stroke-miterlimit="4" stroke-opacity="1" stroke-width="1.9825" transform="matrix(2.5,0,0,2.5,22.5,2.5)"><path d="M40.7111,30.7521 C40.7111,31.1416 40.3927,31.4573 40,31.4573 C39.6072,31.4573 39.2889,31.1416 39.2889,30.7521 C39.2889,30.3626 39.6072,30.0469 40,30.0469 C40.3927,30.0469 40.7111,30.3626 40.7111,30.7521 z" fill-rule="nonzero" vector-effect="none"/></g><defs><clipPath id="clip130"><path d="M1,1 L61,1 L61,61 L1,61 L1,1 z"/></clipPath></defs><g clip-path="url(#clip130)" fill="none" opacity="1" stroke="#ffffff" stroke-linecap="butt" stroke-linejoin="miter" stroke-miterlimit="20" stroke-opacity="1" stroke-width="1.9825" transform="matrix(2.5,0,0,2.5,22.5,2.5)"><path d="M0.999998,1 L60.9999,1 L60.9999,61.0001 L0.999998,61.0001 L0.999998,1 z" fill-rule="nonzero" vector-effect="none"/></g><defs><clipPath id="clip147"><path d="M-292,-230 L15,-230 L15,77 L-292,77 L-292,-230 z"/></clipPath></defs><g clip-path="url(#clip147)" fill="none" opacity="1" stroke="#e60000" stroke-linecap="square" stroke-linejoin="bevel" stroke-opacity="1" stroke-width="1" transform="matrix(0.488281,0,0,0.488281,167.5,117.5)"><text fill="#e60000" fill-opacity="1" font-family="Liberation Sans" font-size="40" font-style="normal" font-weight="400" stroke="none" textLength="27" x="-34.125" xml:space="preserve" y="17.9219">B</text></g><defs><clipPath id="clip150"><path d="M-292,-77 L15,-77 L15,230 L-292,230 L-292,-77 z"/></clipPath></defs><g clip-path="url(#clip150)" fill="none" opacity="1" stroke="#e60000" stroke-linecap="square" stroke-linejoin="bevel" stroke-opacity="1" stroke-width="1" transform="matrix(0.488281,0,0,0.488281,167.5,42.5)"><text fill="#e60000" fill-opacity="1" font-family="Liberation Sans" font-size="40" font-style="normal" font-weight="400" stroke="none" textLength="29" x="-36.9531" xml:space="preserve" y="17.9219">R</text></g><defs><clipPath id="clip153"><path d="M-15,-230 L292,-230 L292,77 L-15,77 L-15,-230 z"/></clipPath></defs><g clip-path="url(#clip153)" fill="none" opacity="1" stroke="#e60000" stroke-linecap="square" stroke-linejoin="bevel" stroke-opacity="1" stroke-width="1" transform="matrix(0.488281,0,0,0.488281,32.5,117.5)"><text fill="#e60000" fill-opacity="1" font-family="Liberation Sans" font-size="40" font-style="normal" font-weight="400" stroke="none" textLength="27" x="0" xml:space="preserve" y="17.9219">A</text></g><defs><clipPath id="clip156"><path d="M-15,-77 L292,-77 L292,230 L-15,230 L-15,-77 z"/></clipPath></defs><g clip-path="url(#clip156)" fill="none" opacity="1" stroke="#e60000" stroke-linecap="square" stroke-linejoin="bevel" stroke-opacity="1" stroke-width="1" transform="matrix(0.488281,0,0,0.488281,32.5,42.5)"><text fill="#e60000" fill-opacity="1" font-family="Liberation Sans" font-size="40" font-style="normal" font-weight="400" stroke="none" textLength="29" x="0" xml:space="preserve" y="17.9219">C</text></g><defs><clipPath id="clip162"><path d="M-10,-2 L70,-2 L70,62 L-10,62 L-10,-2 z"/></clipPath></defs><g clip-path="url(#clip162)" fill="none" opacity="1" stroke="none" stroke-opacity="0" transform="matrix(2.5,0,0,2.5,25,5)"><path d="M0,0 L60,0 L60,60 L0,60 L0,0 z" fill-rule="evenodd" vector-effect="none"/></g></g></svg>
