<?xml version="1.0" encoding="UTF-8"?><svg width="52.9167mm" height="24.0771mm" viewBox="0 0 200 91" xmlns="http://www.w3.org/2000/svg" xmlns:xlink="http://www.w3.org/1999/xlink"><g fill="none" stroke="black" stroke-width="1" fill-rule="evenodd" stroke-linecap="square" stroke-linejoin="bevel"><g clip-path="none" fill="none" opacity="1" stroke="none" stroke-opacity="0" transform="matrix(1,0,0,1,0,0)"><path d="M0,0 L200,0 L200,91 L0,91 L0,0 z" fill-rule="evenodd" vector-effect="none"/></g><defs><clipPath id="clip6"><path d="M0,0 L10,0 L10,10 L0,10 L0,0 z"/></clipPath></defs><g clip-path="url(#clip6)" fill="#b3b3b3" fill-opacity="1" opacity="1" stroke="none" stroke-opacity="0" transform="matrix(1.42857,0,0,1.42857,185.714,61.4286)"><path d="M0.5,3.5 L3.5,3.5 L3.5,6.5 L0.5,6.5 L0.5,3.5 z" fill-rule="evenodd" vector-effect="none"/></g><defs><clipPath id="clip8"><path d="M0,0 L10,0 L10,10 L0,10 L0,0 z"/></clipPath></defs><g clip-path="url(#clip8)" fill="#000000" fill-opacity="1" opacity="1" stroke="none" stroke-opacity="0" transform="matrix(1.42857,0,0,1.42857,185.714,61.4286)"><path d="M3,4 L3,6 L1,6 L1,4 L3,4 M4,3 L0,3 L0,7 L4,7 L4,3" fill-rule="nonzero" vector-effect="none"/></g><defs><clipPath id="clip28"><path d="M0,0 L10,0 L10,10 L0,10 L0,0 z"/></clipPath></defs><g clip-path="url(#clip28)" fill="#b3b3b3" fill-opacity="1" opacity="1" stroke="none" stroke-opacity="0" transform="matrix(1.42857,0,0,1.42857,185.714,18.5714)"><path d="M0.5,3.5 L3.5,3.5 L3.5,6.5 L0.5,6.5 L0.5,3.5 z" fill-rule="evenodd" vector-effect="none"/></g><defs><clipPath id="clip30"><path d="M0,0 L10,0 L10,10 L0,10 L0,0 z"/></clipPath></defs><g clip-path="url(#clip30)" fill="#000000" fill-opacity="1" opacity="1" stroke="none" stroke-opacity="0" transform="matrix(1.42857,0,0,1.42857,185.714,18.5714)"><path d="M3,4 L3,6 L1,6 L1,4 L3,4 M4,3 L0,3 L0,7 L4,7 L4,3" fill-rule="nonzero" vector-effect="none"/></g><defs><clipPath id="clip50"><path d="M0,0 L10,0 L10,10 L0,10 L0,0 z"/></clipPath></defs><g clip-path="url(#clip50)" fill="#b3b3b3" fill-opacity="1" opacity="1" stroke="none" stroke-opacity="0" transform="matrix(-1.42857,0,0,1.42857,14.2857,61.4286)"><path d="M0.5,3.5 L3.5,3.5 L3.5,6.5 L0.5,6.5 L0.5,3.5 z" fill-rule="evenodd" vector-effect="none"/></g><defs><clipPath id="clip52"><path d="M0,0 L10,0 L10,10 L0,10 L0,0 z"/></clipPath></defs><g clip-path="url(#clip52)" fill="#000000" fill-opacity="1" opacity="1" stroke="none" stroke-opacity="0" transform="matrix(-1.42857,0,0,1.42857,14.2857,61.4286)"><path d="M3,4 L3,6 L1,6 L1,4 L3,4 M4,3 L0,3 L0,7 L4,7 L4,3" fill-rule="nonzero" vector-effect="none"/></g><defs><clipPath id="clip72"><path d="M0,0 L10,0 L10,10 L0,10 L0,0 z"/></clipPath></defs><g clip-path="url(#clip72)" fill="#b3b3b3" fill-opacity="1" opacity="1" stroke="none" stroke-opacity="0" transform="matrix(-1.42857,0,0,1.42857,14.2857,18.5714)"><path d="M0.5,3.5 L3.5,3.5 L3.5,6.5 L0.5,6.5 L0.5,3.5 z" fill-rule="evenodd" vector-effect="none"/></g><defs><clipPath id="clip74"><path d="M0,0 L10,0 L10,10 L0,10 L0,0 z"/></clipPath></defs><g clip-path="url(#clip74)" fill="#000000" fill-opacity="1" opacity="1" stroke="none" stroke-opacity="0" transform="matrix(-1.42857,0,0,1.42857,14.2857,18.5714)"><path d="M3,4 L3,6 L1,6 L1,4 L3,4 M4,3 L0,3 L0,7 L4,7 L4,3" fill-rule="nonzero" vector-effect="none"/></g><defs><clipPath id="clip91"><path d="M-10,-2 L130,-2 L130,62 L-10,62 L-10,-2 z"/></clipPath></defs><g clip-path="url(#clip91)" fill="#ffffff" fill-opacity="1" opacity="1" stroke="none" stroke-opacity="0" transform="matrix(1.42857,0,0,1.42857,14.2857,2.85714)"><path d="M0,0 L120,0 L120,60 L0,60 L0,0 z" fill-rule="evenodd" vector-effect="none"/></g><defs><clipPath id="clip95"><path d="M0,0 L120,0 L120,60 L0,60 L0,0 z"/></clipPath></defs><g clip-path="url(#clip95)" fill="none" opacity="1" stroke="none" stroke-opacity="0" transform="matrix(1.42857,0,0,1.42857,14.2857,2.85714)"><path d="M0,0 L120,0 L120,60 L0,60 L0,0 z" fill-rule="evenodd" vector-effect="none"/></g><defs><clipPath id="clip105"><path d="M1,1 L121,1 L121,61 L1,61 L1,1 z"/></clipPath></defs><g clip-path="url(#clip105)" fill="none" opacity="1" stroke="#44805c" stroke-linecap="butt" stroke-linejoin="miter" stroke-miterlimit="4" stroke-opacity="1" stroke-width="1.9825" transform="matrix(1.42857,0,0,1.42857,12.8571,1.42857)"><path d="M57.3597,27.9937 L102.452,27.9937 L102.452,33.9852 L57.3597,33.9852 L57.3597,27.9937 z" fill-rule="nonzero" vector-effect="none"/></g><defs><clipPath id="clip106"><path d="M1,1 L121,1 L121,61 L1,61 L1,1 z"/></clipPath></defs><g clip-path="url(#clip106)" fill="none" opacity="1" stroke="#44805c" stroke-linecap="butt" stroke-linejoin="miter" stroke-miterlimit="4" stroke-opacity="1" stroke-width="1.9825" transform="matrix(1.42857,0,0,1.42857,12.8571,1.42857)"><path d="M79.9179,27.9937 L79.9179,20.9859 L23.5343,20.9859 L23.5343,40.993 L79.9179,40.993 L79.9179,33.9852" fill-rule="nonzero" vector-effect="none"/></g><defs><clipPath id="clip107"><path d="M1,1 L121,1 L121,61 L1,61 L1,1 z"/></clipPath></defs><g clip-path="url(#clip107)" fill="none" opacity="1" stroke="#44805c" stroke-linecap="butt" stroke-linejoin="miter" stroke-miterlimit="4" stroke-opacity="1" stroke-width="1.9825" transform="matrix(1.42857,0,0,1.42857,12.8571,1.42857)"><path d="M121,15.9894 L102.476,15.9894 L102.476,30.9788" fill-rule="nonzero" vector-effect="none"/></g><defs><clipPath id="clip108"><path d="M1,1 L121,1 L121,61 L1,61 L1,1 z"/></clipPath></defs><g clip-path="url(#clip108)" fill="none" opacity="1" stroke="#8368aa" stroke-linecap="butt" stroke-linejoin="miter" stroke-miterlimit="4" stroke-opacity="1" stroke-width="1.9825" transform="matrix(1.42857,0,0,1.42857,12.8571,1.42857)"><path d="M120.968,45.9894 L74.2843,45.9894 L74.2843,40.993" fill-rule="nonzero" vector-effect="none"/></g><defs><clipPath id="clip109"><path d="M0,0 L5027,0 L5027,2834 L0,2834 L0,0 z"/></clipPath></defs><g clip-path="url(#clip109)" fill="#8368aa" fill-opacity="1" opacity="1" stroke="none" stroke-opacity="0" transform="matrix(0.0341016,0,0,0.030245,14.2857,2.85714)"><path d="M2913,1635 L3209,1635 L3075,1889 L2959,1710 L2913,1635 z" fill-rule="nonzero" vector-effect="none"/></g><defs><clipPath id="clip110"><path d="M1,1 L121,1 L121,61 L1,61 L1,1 z"/></clipPath></defs><g clip-path="url(#clip110)" fill="none" opacity="1" stroke="#8368aa" stroke-linecap="butt" stroke-linejoin="miter" stroke-miterlimit="4" stroke-opacity="1" stroke-width="1.9825" transform="matrix(1.42857,0,0,1.42857,12.8571,1.42857)"><path d="M70.5365,35.6154 L77.6024,35.6154 L74.4036,40.993 L71.6346,37.2033 L70.5365,35.6154 z" fill-rule="nonzero" vector-effect="none"/></g><defs><clipPath id="clip111"><path d="M0,0 L5027,0 L5027,2834 L0,2834 L0,0 z"/></clipPath></defs><g clip-path="url(#clip111)" fill="#b09952" fill-opacity="1" opacity="1" stroke="none" stroke-opacity="0" transform="matrix(0.0341016,0,0,0.030245,14.2857,2.85714)"><path d="M1369,1605 L1180,1889 L991,1605 L1369,1605 z" fill-rule="nonzero" vector-effect="none"/></g><defs><clipPath id="clip112"><path d="M1,1 L121,1 L121,61 L1,61 L1,1 z"/></clipPath></defs><g clip-path="url(#clip112)" fill="none" opacity="1" stroke="#b09952" stroke-linecap="butt" stroke-linejoin="miter" stroke-miterlimit="4" stroke-opacity="1" stroke-width="1.9825" transform="matrix(1.42857,0,0,1.42857,12.8571,1.42857)"><path d="M33.6795,34.9803 L29.1679,40.993 L24.6563,34.9803 L33.6795,34.9803 z" fill-rule="nonzero" vector-effect="none"/></g><defs><clipPath id="clip113"><path d="M1,1 L121,1 L121,61 L1,61 L1,1 z"/></clipPath></defs><g clip-path="url(#clip113)" fill="none" opacity="1" stroke="#b09952" stroke-linecap="butt" stroke-linejoin="miter" stroke-miterlimit="4" stroke-opacity="1" stroke-width="1.9825" transform="matrix(1.42857,0,0,1.42857,12.8571,1.42857)"><path d="M29.1679,40.993 L29.1679,45.9894 L1,45.9894" fill-rule="nonzero" vector-effect="none"/></g><defs><clipPath id="clip114"><path d="M1,1 L121,1 L121,61 L1,61 L1,1 z"/></clipPath></defs><g clip-path="url(#clip114)" fill="none" opacity="1" stroke="#44805c" stroke-linecap="butt" stroke-linejoin="miter" stroke-miterlimit="4" stroke-opacity="1" stroke-width="1.9825" transform="matrix(1.42857,0,0,1.42857,12.8571,1.42857)"><path d="M46.0925,20.9859 L57.3597,20.9859 L57.3597,40.9718 L46.0925,40.9718 L46.0925,20.9859 z" fill-rule="nonzero" vector-effect="none"/></g><defs><clipPath id="clip115"><path d="M1,1 L121,1 L121,61 L1,61 L1,1 z"/></clipPath></defs><g clip-path="url(#clip115)" fill="none" opacity="1" stroke="#ffffff" stroke-linecap="butt" stroke-linejoin="miter" stroke-miterlimit="4" stroke-opacity="1" stroke-width="1.9825" transform="matrix(1.42857,0,0,1.42857,12.8571,1.42857)"><path d="M1.32623,1 L120.833,1 L120.833,61 L1.32623,61 L1.32623,1 z" fill-rule="nonzero" vector-effect="none"/></g><defs><clipPath id="clip116"><path d="M1,1 L121,1 L121,61 L1,61 L1,1 z"/></clipPath></defs><g clip-path="url(#clip116)" fill="none" opacity="1" stroke="#e9631e" stroke-linecap="butt" stroke-linejoin="miter" stroke-miterlimit="4" stroke-opacity="1" stroke-width="1.9825" transform="matrix(1.42857,0,0,1.42857,12.8571,1.42857)"><path d="M1,15.9894 L67.5049,15.9894 L67.5049,18.9746" fill-rule="nonzero" vector-effect="none"/></g><defs><clipPath id="clip117"><path d="M1,1 L121,1 L121,61 L1,61 L1,1 z"/></clipPath></defs><g clip-path="url(#clip117)" fill="none" opacity="1" stroke="#e9631e" stroke-linecap="butt" stroke-linejoin="miter" stroke-miterlimit="4" stroke-opacity="1" stroke-width="1.9825" transform="matrix(1.42857,0,0,1.42857,12.8571,1.42857)"><path d="M65.7384,18.9746 C65.1801,19.1532 64.8079,19.6232 64.8079,20.1496 C64.8079,20.6761 65.1801,21.146 65.7384,21.3246" fill-rule="nonzero" vector-effect="none"/></g><defs><clipPath id="clip118"><path d="M1,1 L121,1 L121,61 L1,61 L1,1 z"/></clipPath></defs><g clip-path="url(#clip118)" fill="none" opacity="1" stroke="#e9631e" stroke-linecap="butt" stroke-linejoin="miter" stroke-miterlimit="4" stroke-opacity="1" stroke-width="1.9825" transform="matrix(1.42857,0,0,1.42857,12.8571,1.42857)"><path d="M65.7384,23.6535 C65.1967,23.84 64.8398,24.3025 64.8398,24.8179 C64.8398,25.3333 65.1967,25.7958 65.7384,25.9824" fill-rule="nonzero" vector-effect="none"/></g><defs><clipPath id="clip119"><path d="M1,1 L121,1 L121,61 L1,61 L1,1 z"/></clipPath></defs><g clip-path="url(#clip119)" fill="none" opacity="1" stroke="#e9631e" stroke-linecap="butt" stroke-linejoin="miter" stroke-miterlimit="4" stroke-opacity="1" stroke-width="1.9825" transform="matrix(1.42857,0,0,1.42857,12.8571,1.42857)"><path d="M65.7384,21.3246 C66.2607,21.5266 66.5983,21.9838 66.5983,22.4891 C66.5983,22.9943 66.2607,23.4516 65.7384,23.6535" fill-rule="nonzero" vector-effect="none"/></g><defs><clipPath id="clip120"><path d="M1,1 L121,1 L121,61 L1,61 L1,1 z"/></clipPath></defs><g clip-path="url(#clip120)" fill="none" opacity="1" stroke="#e9631e" stroke-linecap="butt" stroke-linejoin="miter" stroke-miterlimit="4" stroke-opacity="1" stroke-width="1.9825" transform="matrix(1.42857,0,0,1.42857,12.8571,1.42857)"><path d="M65.7384,18.9746 L64.8552,19.4615 L65.2133,19.7579 L65.7384,18.9746 z" fill-rule="nonzero" vector-effect="none"/></g><defs><clipPath id="clip121"><path d="M1,1 L121,1 L121,61 L1,61 L1,1 z"/></clipPath></defs><g clip-path="url(#clip121)" fill="none" opacity="1" stroke="#e9631e" stroke-linecap="butt" stroke-linejoin="miter" stroke-miterlimit="4" stroke-opacity="1" stroke-width="1.9825" transform="matrix(1.42857,0,0,1.42857,12.8571,1.42857)"><path d="M68.5075,18.9746 C67.9702,19.1703 67.6194,19.6345 67.6194,20.1496 C67.6194,20.6648 67.9702,21.1289 68.5075,21.3246" fill-rule="nonzero" vector-effect="none"/></g><defs><clipPath id="clip122"><path d="M1,1 L121,1 L121,61 L1,61 L1,1 z"/></clipPath></defs><g clip-path="url(#clip122)" fill="none" opacity="1" stroke="#e9631e" stroke-linecap="butt" stroke-linejoin="miter" stroke-miterlimit="4" stroke-opacity="1" stroke-width="1.9825" transform="matrix(1.42857,0,0,1.42857,12.8571,1.42857)"><path d="M68.5075,23.6535 C67.9853,23.8554 67.6476,24.3127 67.6476,24.8179 C67.6476,25.3232 67.9853,25.7804 68.5075,25.9824" fill-rule="nonzero" vector-effect="none"/></g><defs><clipPath id="clip123"><path d="M1,1 L121,1 L121,61 L1,61 L1,1 z"/></clipPath></defs><g clip-path="url(#clip123)" fill="none" opacity="1" stroke="#e9631e" stroke-linecap="butt" stroke-linejoin="miter" stroke-miterlimit="4" stroke-opacity="1" stroke-width="1.9825" transform="matrix(1.42857,0,0,1.42857,12.8571,1.42857)"><path d="M68.5075,21.3246 C69.0492,21.5112 69.4061,21.9737 69.4061,22.4891 C69.4061,23.0045 69.0492,23.467 68.5075,23.6535" fill-rule="nonzero" vector-effect="none"/></g><defs><clipPath id="clip124"><path d="M1,1 L121,1 L121,61 L1,61 L1,1 z"/></clipPath></defs><g clip-path="url(#clip124)" fill="none" opacity="1" stroke="#e9631e" stroke-linecap="butt" stroke-linejoin="miter" stroke-miterlimit="4" stroke-opacity="1" stroke-width="1.9825" transform="matrix(1.42857,0,0,1.42857,12.8571,1.42857)"><path d="M68.5075,18.9746 L67.672,19.4615 L68.0062,19.7579 L68.5075,18.9746 z" fill-rule="nonzero" vector-effect="none"/></g><defs><clipPath id="clip125"><path d="M1,1 L121,1 L121,61 L1,61 L1,1 z"/></clipPath></defs><g clip-path="url(#clip125)" fill="none" opacity="1" stroke="#e9631e" stroke-linecap="butt" stroke-linejoin="miter" stroke-miterlimit="4" stroke-opacity="1" stroke-width="1.9825" transform="matrix(1.42857,0,0,1.42857,12.8571,1.42857)"><path d="M70.9662,18.9746 C70.4078,19.1532 70.0357,19.6232 70.0357,20.1496 C70.0357,20.6761 70.4078,21.146 70.9662,21.3246" fill-rule="nonzero" vector-effect="none"/></g><defs><clipPath id="clip126"><path d="M1,1 L121,1 L121,61 L1,61 L1,1 z"/></clipPath></defs><g clip-path="url(#clip126)" fill="none" opacity="1" stroke="#e9631e" stroke-linecap="butt" stroke-linejoin="miter" stroke-miterlimit="4" stroke-opacity="1" stroke-width="1.9825" transform="matrix(1.42857,0,0,1.42857,12.8571,1.42857)"><path d="M70.9662,23.6535 C70.4245,23.84 70.0676,24.3025 70.0676,24.8179 C70.0676,25.3333 70.4245,25.7958 70.9662,25.9824" fill-rule="nonzero" vector-effect="none"/></g><defs><clipPath id="clip127"><path d="M1,1 L121,1 L121,61 L1,61 L1,1 z"/></clipPath></defs><g clip-path="url(#clip127)" fill="none" opacity="1" stroke="#e9631e" stroke-linecap="butt" stroke-linejoin="miter" stroke-miterlimit="4" stroke-opacity="1" stroke-width="1.9825" transform="matrix(1.42857,0,0,1.42857,12.8571,1.42857)"><path d="M70.9662,21.3246 C71.5079,21.5112 71.8649,21.9737 71.8649,22.4891 C71.8649,23.0045 71.5079,23.467 70.9662,23.6535" fill-rule="nonzero" vector-effect="none"/></g><defs><clipPath id="clip128"><path d="M1,1 L121,1 L121,61 L1,61 L1,1 z"/></clipPath></defs><g clip-path="url(#clip128)" fill="none" opacity="1" stroke="#e9631e" stroke-linecap="butt" stroke-linejoin="miter" stroke-miterlimit="4" stroke-opacity="1" stroke-width="1.9825" transform="matrix(1.42857,0,0,1.42857,12.8571,1.42857)"><path d="M70.9662,18.9746 L70.083,19.4615 L70.441,19.7579 L70.9662,18.9746 z" fill-rule="nonzero" vector-effect="none"/></g><defs><clipPath id="clip129"><path d="M1,1 L121,1 L121,61 L1,61 L1,1 z"/></clipPath></defs><g clip-path="url(#clip129)" fill="none" opacity="1" stroke="#e9631e" stroke-linecap="butt" stroke-linejoin="miter" stroke-miterlimit="4" stroke-opacity="1" stroke-width="1.9825" transform="matrix(1.42857,0,0,1.42857,12.8571,1.42857)"><path d="M65.7384,18.9746 L70.7991,18.9746" fill-rule="nonzero" vector-effect="none"/></g><defs><clipPath id="clip146"><path d="M-599,-230 L15,-230 L15,77 L-599,77 L-599,-230 z"/></clipPath></defs><g clip-path="url(#clip146)" fill="none" opacity="1" stroke="#e60000" stroke-linecap="square" stroke-linejoin="bevel" stroke-opacity="1" stroke-width="1" transform="matrix(0.279018,0,0,0.279018,181.429,67.1429)"><text fill="#e60000" fill-opacity="1" font-family="Liberation Sans" font-size="40" font-style="normal" font-weight="400" stroke="none" textLength="27" x="-34.125" xml:space="preserve" y="17.9219">P</text></g><defs><clipPath id="clip149"><path d="M-599,-77 L15,-77 L15,230 L-599,230 L-599,-77 z"/></clipPath></defs><g clip-path="url(#clip149)" fill="none" opacity="1" stroke="#e60000" stroke-linecap="square" stroke-linejoin="bevel" stroke-opacity="1" stroke-width="1" transform="matrix(0.279018,0,0,0.279018,181.429,24.2857)"><text fill="#e60000" fill-opacity="1" font-family="Liberation Sans" font-size="40" font-style="normal" font-weight="400" stroke="none" textLength="22" x="-28.4531" xml:space="preserve" y="17.9219">L</text></g><defs><clipPath id="clip152"><path d="M-15,-230 L599,-230 L599,77 L-15,77 L-15,-230 z"/></clipPath></defs><g clip-path="url(#clip152)" fill="none" opacity="1" stroke="#e60000" stroke-linecap="square" stroke-linejoin="bevel" stroke-opacity="1" stroke-width="1" transform="matrix(0.279018,0,0,0.279018,18.5714,67.1429)"><text fill="#e60000" fill-opacity="1" font-family="Liberation Sans" font-size="40" font-style="normal" font-weight="400" stroke="none" textLength="29" x="0" xml:space="preserve" y="17.9219">H</text></g><defs><clipPath id="clip155"><path d="M-15,-77 L599,-77 L599,230 L-15,230 L-15,-77 z"/></clipPath></defs><g clip-path="url(#clip155)" fill="none" opacity="1" stroke="#e60000" stroke-linecap="square" stroke-linejoin="bevel" stroke-opacity="1" stroke-width="1" transform="matrix(0.279018,0,0,0.279018,18.5714,24.2857)"><text fill="#e60000" fill-opacity="1" font-family="Liberation Sans" font-size="40" font-style="normal" font-weight="400" stroke="none" textLength="27" x="0" xml:space="preserve" y="17.9219">E</text></g><defs><clipPath id="clip161"><path d="M-10,-2 L130,-2 L130,62 L-10,62 L-10,-2 z"/></clipPath></defs><g clip-path="url(#clip161)" fill="none" opacity="1" stroke="none" stroke-opacity="0" transform="matrix(1.42857,0,0,1.42857,14.2857,2.85714)"><path d="M0,0 L120,0 L120,60 L0,60 L0,0 z" fill-rule="evenodd" vector-effect="none"/></g></g></svg>
