<?xml version="1.0" encoding="UTF-8"?><svg width="52.9167mm" height="32.2792mm" viewBox="0 0 200 122" xmlns="http://www.w3.org/2000/svg" xmlns:xlink="http://www.w3.org/1999/xlink"><g fill="none" stroke="black" stroke-width="1" fill-rule="evenodd" stroke-linecap="square" stroke-linejoin="bevel"><g clip-path="none" fill="none" opacity="1" stroke="none" stroke-opacity="0" transform="matrix(1,0,0,1,0,0)"><path d="M0,0 L200,0 L200,122 L0,122 L0,0 z" fill-rule="evenodd" vector-effect="none"/></g><defs><clipPath id="clip6"><path d="M0,0 L10,0 L10,10 L0,10 L0,0 z"/></clipPath></defs><g clip-path="url(#clip6)" fill="#b3b3b3" fill-opacity="1" opacity="1" stroke="none" stroke-opacity="0" transform="matrix(2.77778,0,0,2.77778,172.222,50)"><path d="M0.5,3.5 L3.5,3.5 L3.5,6.5 L0.5,6.5 L0.5,3.5 z" fill-rule="evenodd" vector-effect="none"/></g><defs><clipPath id="clip8"><path d="M0,0 L10,0 L10,10 L0,10 L0,0 z"/></clipPath></defs><g clip-path="url(#clip8)" fill="#000000" fill-opacity="1" opacity="1" stroke="none" stroke-opacity="0" transform="matrix(2.77778,0,0,2.77778,172.222,50)"><path d="M3,4 L3,6 L1,6 L1,4 L3,4 M4,3 L0,3 L0,7 L4,7 L4,3" fill-rule="nonzero" vector-effect="none"/></g><defs><clipPath id="clip25"><path d="M-2,-2 L70,-2 L70,42 L-2,42 L-2,-2 z"/></clipPath></defs><g clip-path="url(#clip25)" fill="#ffffff" fill-opacity="1" opacity="1" stroke="none" stroke-opacity="0" transform="matrix(2.77778,0,0,2.77778,5.55556,5.55556)"><path d="M0,0 L60,0 L60,40 L0,40 L0,0 z" fill-rule="evenodd" vector-effect="none"/></g><defs><clipPath id="clip29"><path d="M0,0 L60,0 L60,40 L0,40 L0,0 z"/></clipPath></defs><g clip-path="url(#clip29)" fill="none" opacity="1" stroke="none" stroke-opacity="0" transform="matrix(2.77778,0,0,2.77778,5.55556,5.55556)"><path d="M0,0 L60,0 L60,40 L0,40 L0,0 z" fill-rule="evenodd" vector-effect="none"/></g><defs><clipPath id="clip39"><path d="M1,1 L61,1 L61,41 L1,41 L1,1 z"/></clipPath></defs><g clip-path="url(#clip39)" fill="none" opacity="1" stroke="#b09952" stroke-linecap="butt" stroke-linejoin="miter" stroke-miterlimit="20" stroke-opacity="1" stroke-width="1.3325" transform="matrix(2.77778,0,0,2.77778,2.77778,2.77778)"><path d="M28.3601,24.2418 L51.6269,10.7647 L52.3469,12.0458 L28.3468,29.5882" fill-rule="nonzero" vector-effect="none"/></g><defs><clipPath id="clip40"><path d="M1,1 L61,1 L61,41 L1,41 L1,1 z"/></clipPath></defs><g clip-path="url(#clip40)" fill="none" opacity="1" stroke="#b09952" stroke-linecap="butt" stroke-linejoin="miter" stroke-miterlimit="20" stroke-opacity="1" stroke-width="1.3325" transform="matrix(2.77778,0,0,2.77778,2.77778,2.77778)"><path d="M53.3602,20.098 C53.3602,20.098 53.36,20.0987 53.3577,20.1096 C53.3553,20.1204 53.3506,20.1413 53.3433,20.1748 C53.336,20.2084 53.326,20.2544 53.3135,20.3108 C53.3013,20.3671 53.2866,20.4337 53.2709,20.5057 C53.2551,20.5778 53.238,20.6551 53.2209,20.7325 C53.204,20.81 53.1869,20.8874 53.1704,20.961 C53.1542,21.0349 53.1386,21.1048 53.1237,21.1713 C53.1091,21.2379 53.0949,21.3007 53.0802,21.366 C53.0655,21.4314 53.05,21.5002 53.0329,21.5739 C53.016,21.6473 52.9977,21.7255 52.9784,21.807 C52.9593,21.8887 52.9389,21.9736 52.9182,22.0599 C52.8975,22.1464 52.8762,22.2347 52.8551,22.3225 C52.8342,22.4103 52.8131,22.4981 52.7929,22.5837 C52.7726,22.6691 52.7531,22.7525 52.7353,22.8314 C52.7175,22.9105 52.7013,22.9848 52.6875,23.0525 C52.6737,23.1201 52.6624,23.1808 52.6535,23.2353 C52.6446,23.2898 52.6382,23.3381 52.6337,23.3806 C52.6293,23.4233 52.6269,23.4604 52.6257,23.4939 C52.6249,23.5275 52.6251,23.5577 52.6257,23.5863 C52.6266,23.615 52.628,23.6418 52.6297,23.6682 C52.6313,23.6948 52.6331,23.7207 52.6349,23.7466 C52.6366,23.7726 52.6386,23.7987 52.6404,23.8251 C52.6422,23.8514 52.644,23.8778 52.6462,23.9042 C52.6482,23.9303 52.6504,23.9562 52.6535,23.9804 C52.6566,24.0046 52.6604,24.027 52.6649,24.0479 C52.6693,24.0686 52.6744,24.088 52.68,24.1063 C52.6853,24.1244 52.6911,24.1418 52.6971,24.1586 C52.7029,24.1754 52.7091,24.1919 52.7153,24.2081 C52.7213,24.2242 52.7277,24.2403 52.7342,24.2564 C52.7404,24.2723 52.7471,24.2885 52.754,24.3046 C52.7606,24.3205 52.768,24.3366 52.7755,24.3523 C52.7831,24.3682 52.7913,24.3837 52.8002,24.3987 C52.8091,24.4137 52.8186,24.4281 52.8289,24.4421 C52.8393,24.456 52.8502,24.4695 52.8613,24.4828 C52.8726,24.4963 52.8842,24.5094 52.896,24.5225 C52.9077,24.5357 52.9197,24.5486 52.9317,24.5615 C52.944,24.5745 52.956,24.5872 52.9682,24.5998 C52.9804,24.6124 52.9926,24.6246 53.0049,24.6366 C53.0171,24.6484 53.0293,24.6599 53.042,24.6704 C53.0544,24.6808 53.0671,24.6906 53.0802,24.6994 C53.0933,24.7081 53.1066,24.7159 53.1204,24.7231 C53.134,24.7303 53.148,24.7368 53.162,24.7434 C53.176,24.7497 53.1902,24.756 53.2044,24.7621 C53.2186,24.7682 53.2331,24.7741 53.2473,24.78 C53.2617,24.7859 53.2762,24.7913 53.2906,24.7965 C53.3053,24.8018 53.3197,24.8065 53.3346,24.8103 C53.3495,24.8142 53.3644,24.817 53.3797,24.8183 C53.3951,24.8196 53.4106,24.8192 53.4269,24.817 C53.4431,24.8148 53.4595,24.8109 53.4769,24.8052 C53.4942,24.7998 53.5122,24.7928 53.5306,24.7852 C53.5491,24.7774 53.5682,24.7689 53.5875,24.7599 C53.6069,24.751 53.6262,24.7416 53.6457,24.732 C53.6653,24.7225 53.6846,24.7126 53.7037,24.7026 C53.7226,24.6926 53.7413,24.6821 53.7593,24.6713 C53.7771,24.6604 53.7942,24.6488 53.81,24.6364 C53.8257,24.6238 53.8402,24.61 53.8535,24.5948 C53.8669,24.5795 53.8791,24.5628 53.8902,24.5442 C53.9013,24.5259 53.9115,24.5061 53.9213,24.4852 C53.9309,24.4643 53.94,24.4425 53.9489,24.4203 C53.9577,24.3981 53.9662,24.3752 53.9746,24.3523 C53.9831,24.3296 53.9913,24.3065 53.9995,24.2839 C54.0077,24.261 54.016,24.2384 54.0237,24.2159 C54.0317,24.1937 54.0393,24.1715 54.0466,24.1497 C54.054,24.1279 54.0606,24.1065 54.0669,24.085 C54.0729,24.0634 54.0784,24.0418 54.0833,24.0205 C54.0882,23.9989 54.0924,23.9776 54.0966,23.9562 C54.1006,23.9351 54.1046,23.914 54.1082,23.8928 C54.112,23.8717 54.1155,23.8506 54.1191,23.8294 C54.1226,23.8085 54.126,23.7874 54.1291,23.7658 C54.1324,23.7445 54.1353,23.7229 54.138,23.7011 C54.1406,23.6791 54.1429,23.6567 54.1444,23.6336 C54.146,23.6105 54.1469,23.5865 54.1469,23.5621 C54.1469,23.5375 54.146,23.5124 54.1444,23.4867 C54.1429,23.461 54.1406,23.4349 54.138,23.4083 C54.1353,23.3819 54.1324,23.3553 54.1291,23.3286 C54.126,23.3018 54.1226,23.2747 54.1191,23.2477 C54.1155,23.2209 54.112,23.1937 54.1082,23.1665 C54.1046,23.139 54.1006,23.1116 54.0966,23.0837 C54.0924,23.0558 54.0882,23.0272 54.0833,22.9983 C54.0784,22.9691 54.0729,22.9392 54.0669,22.9085 C54.0606,22.8778 54.054,22.8462 54.0469,22.8153 C54.0395,22.7843 54.032,22.7538 54.0244,22.7242 C54.0169,22.6946 54.0091,22.6658 54.0011,22.6375 C53.9933,22.6089 53.9855,22.5808 53.9773,22.5523 C53.9693,22.5238 53.9611,22.4948 53.9526,22.4638 C53.944,22.4331 53.9351,22.4004 53.9253,22.3641 C53.9157,22.3279 53.9051,22.2878 53.8933,22.2416 C53.8815,22.1957 53.8682,22.1436 53.8535,22.085 C53.8389,22.0264 53.8224,21.9612 53.804,21.8869 C53.7855,21.8129 53.7649,21.7301 53.7426,21.641 C53.7206,21.5516 53.6969,21.4562 53.6724,21.358 C53.6482,21.2595 53.6231,21.1582 53.598,21.0571 C53.5729,20.9562 53.548,20.8553 53.524,20.7585 C53.5,20.6616 53.4769,20.5686 53.4557,20.4836 C53.4349,20.3985 53.4157,20.3217 53.3995,20.2568 C53.3835,20.1919 53.3704,20.1394 53.3602,20.098 C53.35,20.0567 53.3422,20.0257 53.3369,20.0045 C53.3317,19.9832 53.3289,19.9714 53.3277,19.9671 C53.3266,19.9627 53.3273,19.9657 53.3291,19.973 C53.3309,19.9803 53.3337,19.992 53.3371,20.0049 C53.3402,20.0179 53.3437,20.032 53.3471,20.0448 C53.3502,20.0577 53.3531,20.0691 53.3551,20.0777 C53.3573,20.0862 53.3586,20.0919 53.3593,20.0949 C53.3602,20.0978 53.3602,20.098 53.3602,20.098 z" fill-rule="nonzero" vector-effect="none"/></g><defs><clipPath id="clip41"><path d="M1,1 L61,1 L61,41 L1,41 L1,1 z"/></clipPath></defs><g clip-path="url(#clip41)" fill="none" opacity="1" stroke="#b09952" stroke-linecap="butt" stroke-linejoin="miter" stroke-miterlimit="4" stroke-opacity="1" stroke-width="1.3325" transform="matrix(2.77778,0,0,2.77778,2.77778,2.77778)"><path d="M13.8267,29.4052 C12.3048,29.2804 10.8838,28.6076 9.83779,27.5166 C8.79174,26.4257 8.19461,24.9937 8.16148,23.4967 C8.12837,21.9998 8.66159,20.5438 9.65841,19.4094 C10.6552,18.275 12.0451,17.5424 13.5601,17.3529" fill-rule="nonzero" vector-effect="none"/></g><defs><clipPath id="clip42"><path d="M1,1 L61,1 L61,41 L1,41 L1,1 z"/></clipPath></defs><g clip-path="url(#clip42)" fill="none" opacity="1" stroke="#b09952" stroke-linecap="butt" stroke-linejoin="miter" stroke-miterlimit="4" stroke-opacity="1" stroke-width="1.3325" transform="matrix(2.77778,0,0,2.77778,2.77778,2.77778)"><path d="M13.5601,27.7974 C12.5769,27.8157 11.6146,27.519 10.8193,26.9521 C10.024,26.385 9.43935,25.5791 9.15412,24.6564 C8.86888,23.734 8.89872,22.7453 9.23908,21.8408 C9.57946,20.9364 10.2117,20.1657 11.0398,19.6459 C11.8679,19.126 12.8464,18.8855 13.8267,18.9608" fill-rule="nonzero" vector-effect="none"/></g><defs><clipPath id="clip43"><path d="M1,1 L61,1 L61,41 L1,41 L1,1 z"/></clipPath></defs><g clip-path="url(#clip43)" fill="none" opacity="1" stroke="#b09952" stroke-linecap="butt" stroke-linejoin="miter" stroke-miterlimit="20" stroke-opacity="1" stroke-width="1.3325" transform="matrix(2.77778,0,0,2.77778,2.77778,2.77778)"><path d="M19.0934,9.86275 L22.8667,9.86275 L22.8667,11.4706 L19.0934,11.4706 L19.0934,9.86275 z" fill-rule="nonzero" vector-effect="none"/></g><defs><clipPath id="clip44"><path d="M1,1 L61,1 L61,41 L1,41 L1,1 z"/></clipPath></defs><g clip-path="url(#clip44)" fill="none" opacity="1" stroke="#b09952" stroke-linecap="butt" stroke-linejoin="miter" stroke-miterlimit="20" stroke-opacity="1" stroke-width="1.3325" transform="matrix(2.77778,0,0,2.77778,2.77778,2.77778)"><path d="M13.8267,15.3268 L28.3468,15.3268 L28.3468,31.353 L13.8267,31.353 L13.8267,15.3268 z" fill-rule="nonzero" vector-effect="none"/></g><defs><clipPath id="clip45"><path d="M1,1 L61,1 L61,41 L1,41 L1,1 z"/></clipPath></defs><g clip-path="url(#clip45)" fill="none" opacity="1" stroke="#b09952" stroke-linecap="butt" stroke-linejoin="miter" stroke-miterlimit="20" stroke-opacity="1" stroke-width="1.3325" transform="matrix(2.77778,0,0,2.77778,2.77778,2.77778)"><path d="M13.0134,13.7059 L28.9468,13.7059 L28.9468,15.3268 L13.0134,15.3268 L13.0134,13.7059 z" fill-rule="nonzero" vector-effect="none"/></g><defs><clipPath id="clip46"><path d="M1,1 L61,1 L61,41 L1,41 L1,1 z"/></clipPath></defs><g clip-path="url(#clip46)" fill="none" opacity="1" stroke="#b09952" stroke-linecap="butt" stroke-linejoin="miter" stroke-miterlimit="20" stroke-opacity="1" stroke-width="1.3325" transform="matrix(2.77778,0,0,2.77778,2.77778,2.77778)"><path d="M20.2801,11.6536 L21.7467,11.6536 L21.7467,13.7582 L20.2801,13.7582 L20.2801,11.6536 z" fill-rule="nonzero" vector-effect="none"/></g><defs><clipPath id="clip47"><path d="M1,1 L61,1 L61,41 L1,41 L1,1 z"/></clipPath></defs><g clip-path="url(#clip47)" fill="none" opacity="1" stroke="#b09952" stroke-linecap="butt" stroke-linejoin="miter" stroke-miterlimit="20" stroke-opacity="1" stroke-width="1.3325" transform="matrix(2.77778,0,0,2.77778,2.77778,2.77778)"><path d="M1.00001,1 L61.0002,1 L61.0002,41 L1.00001,41 L1.00001,1 z" fill-rule="nonzero" vector-effect="none"/></g><defs><clipPath id="clip67"><path d="M-2,-2 L70,-2 L70,42 L-2,42 L-2,-2 z"/></clipPath></defs><g clip-path="url(#clip67)" fill="none" opacity="1" stroke="none" stroke-opacity="0" transform="matrix(2.77778,0,0,2.77778,5.55556,5.55556)"><path d="M0,0 L60,0 L60,40 L0,40 L0,0 z" fill-rule="evenodd" vector-effect="none"/></g></g></svg>
