<?xml version="1.0" encoding="UTF-8"?><svg width="52.9167mm" height="42.8625mm" viewBox="0 0 200 162" xmlns="http://www.w3.org/2000/svg" xmlns:xlink="http://www.w3.org/1999/xlink"><g fill="none" stroke="black" stroke-width="1" fill-rule="evenodd" stroke-linecap="square" stroke-linejoin="bevel"><g clip-path="none" fill="none" opacity="1" stroke="none" stroke-opacity="0" transform="matrix(1,0,0,1,0,0)"><path d="M0,0 L200,0 L200,162 L0,162 L0,0 z" fill-rule="evenodd" vector-effect="none"/></g><defs><clipPath id="clip6"><path d="M0,0 L10,0 L10,10 L0,10 L0,0 z"/></clipPath></defs><g clip-path="url(#clip6)" fill="#b3b3b3" fill-opacity="1" opacity="1" stroke="none" stroke-opacity="0" transform="matrix(1.91345e-16,-3.125,3.125,1.91345e-16,150,31.25)"><path d="M0.5,3.5 L3.5,3.5 L3.5,6.5 L0.5,6.5 L0.5,3.5 z" fill-rule="evenodd" vector-effect="none"/></g><defs><clipPath id="clip8"><path d="M0,0 L10,0 L10,10 L0,10 L0,0 z"/></clipPath></defs><g clip-path="url(#clip8)" fill="#000000" fill-opacity="1" opacity="1" stroke="none" stroke-opacity="0" transform="matrix(1.91345e-16,-3.125,3.125,1.91345e-16,150,31.25)"><path d="M3,4 L3,6 L1,6 L1,4 L3,4 M4,3 L0,3 L0,7 L4,7 L4,3" fill-rule="nonzero" vector-effect="none"/></g><defs><clipPath id="clip28"><path d="M0,0 L10,0 L10,10 L0,10 L0,0 z"/></clipPath></defs><g clip-path="url(#clip28)" fill="#ffffff" fill-opacity="1" opacity="1" stroke="none" stroke-opacity="0" transform="matrix(1.91345e-16,-3.125,3.125,1.91345e-16,25,31.25)"><path d="M0.5,0.809 L8.882,5 L0.5,9.191 L0.5,0.809 z" fill-rule="evenodd" vector-effect="none"/></g><defs><clipPath id="clip30"><path d="M0,0 L10,0 L10,10 L0,10 L0,0 z"/></clipPath></defs><g clip-path="url(#clip30)" fill="#000000" fill-opacity="1" opacity="1" stroke="none" stroke-opacity="0" transform="matrix(1.91345e-16,-3.125,3.125,1.91345e-16,25,31.25)"><path d="M1,1.618 L7.764,5 L1,8.382 L1,1.618 M0,0 L0,10 L10,5 L0,0" fill-rule="nonzero" vector-effect="none"/></g><defs><clipPath id="clip52"><path d="M0,0 L10,0 L10,10 L0,10 L0,0 z"/></clipPath></defs><g clip-path="url(#clip52)" fill="#b3b3b3" fill-opacity="1" opacity="1" stroke="none" stroke-opacity="0" transform="matrix(1.91345e-16,-3.125,3.125,1.91345e-16,87.5,31.25)"><path d="M0.5,3.5 L3.5,3.5 L3.5,6.5 L0.5,6.5 L0.5,3.5 z" fill-rule="evenodd" vector-effect="none"/></g><defs><clipPath id="clip54"><path d="M0,0 L10,0 L10,10 L0,10 L0,0 z"/></clipPath></defs><g clip-path="url(#clip54)" fill="#000000" fill-opacity="1" opacity="1" stroke="none" stroke-opacity="0" transform="matrix(1.91345e-16,-3.125,3.125,1.91345e-16,87.5,31.25)"><path d="M3,4 L3,6 L1,6 L1,4 L3,4 M4,3 L0,3 L0,7 L4,7 L4,3" fill-rule="nonzero" vector-effect="none"/></g><defs><clipPath id="clip71"><path d="M-2,-10 L62,-10 L62,42 L-2,42 L-2,-10 z"/></clipPath></defs><g clip-path="url(#clip71)" fill="#ffffff" fill-opacity="1" opacity="1" stroke="none" stroke-opacity="0" transform="matrix(3.125,0,0,3.125,6.25,31.25)"><path d="M0,0 L60,0 L60,40 L0,40 L0,0 z" fill-rule="evenodd" vector-effect="none"/></g><defs><clipPath id="clip75"><path d="M0,0 L60,0 L60,40 L0,40 L0,0 z"/></clipPath></defs><g clip-path="url(#clip75)" fill="none" opacity="1" stroke="none" stroke-opacity="0" transform="matrix(3.125,0,0,3.125,6.25,31.25)"><path d="M0,0 L60,0 L60,40 L0,40 L0,0 z" fill-rule="evenodd" vector-effect="none"/></g><defs><clipPath id="clip85"><path d="M1,1 L41,1 L41,61 L1,61 L1,1 z"/></clipPath></defs><g clip-path="url(#clip85)" fill="none" opacity="1" stroke="#b09952" stroke-linecap="butt" stroke-linejoin="miter" stroke-miterlimit="20" stroke-opacity="1" stroke-width="1.8525" transform="matrix(5.74034e-16,3.125,3.125,-5.74034e-16,3.125,28.125)"><path d="M17.279,0.999998 L17.279,5.99999" fill-rule="nonzero" vector-effect="none"/></g><defs><clipPath id="clip86"><path d="M1,1 L41,1 L41,61 L1,61 L1,1 z"/></clipPath></defs><g clip-path="url(#clip86)" fill="none" opacity="1" stroke="#b09952" stroke-linecap="butt" stroke-linejoin="miter" stroke-miterlimit="20" stroke-opacity="1" stroke-width="1.8525" transform="matrix(5.74034e-16,3.125,3.125,-5.74034e-16,3.125,28.125)"><path d="M17.7442,55.9999 L17.7442,60.9999" fill-rule="nonzero" vector-effect="none"/></g><defs><clipPath id="clip87"><path d="M1,1 L41,1 L41,61 L1,61 L1,1 z"/></clipPath></defs><g clip-path="url(#clip87)" fill="none" opacity="1" stroke="#b09952" stroke-linecap="butt" stroke-linejoin="miter" stroke-miterlimit="20" stroke-opacity="1" stroke-width="1.8525" transform="matrix(5.74034e-16,3.125,3.125,-5.74034e-16,3.125,28.125)"><path d="M18.6744,55.9999 L18.6744,60.9999" fill-rule="nonzero" vector-effect="none"/></g><defs><clipPath id="clip88"><path d="M1,1 L41,1 L41,61 L1,61 L1,1 z"/></clipPath></defs><g clip-path="url(#clip88)" fill="none" opacity="1" stroke="#b09952" stroke-linecap="butt" stroke-linejoin="miter" stroke-miterlimit="20" stroke-opacity="1" stroke-width="1.8525" transform="matrix(5.74034e-16,3.125,3.125,-5.74034e-16,3.125,28.125)"><path d="M18.2093,0.999998 L18.2093,5.99999" fill-rule="nonzero" vector-effect="none"/></g><defs><clipPath id="clip89"><path d="M1,1 L41,1 L41,61 L1,61 L1,1 z"/></clipPath></defs><g clip-path="url(#clip89)" fill="none" opacity="1" stroke="#b09952" stroke-linecap="butt" stroke-linejoin="miter" stroke-miterlimit="20" stroke-opacity="1" stroke-width="1.8525" transform="matrix(5.74034e-16,3.125,3.125,-5.74034e-16,3.125,28.125)"><path d="M18.2093,5.99999 L38.2092,5.99999 L38.2092,55.9999 L18.6744,55.9999" fill-rule="nonzero" vector-effect="none"/></g><defs><clipPath id="clip90"><path d="M1,1 L41,1 L41,61 L1,61 L1,1 z"/></clipPath></defs><g clip-path="url(#clip90)" fill="none" opacity="1" stroke="#b09952" stroke-linecap="butt" stroke-linejoin="miter" stroke-miterlimit="20" stroke-opacity="1" stroke-width="1.8525" transform="matrix(5.74034e-16,3.125,3.125,-5.74034e-16,3.125,28.125)"><path d="M0.999997,31 L31.2325,31" fill-rule="nonzero" vector-effect="none"/></g><defs><clipPath id="clip91"><path d="M1,1 L41,1 L41,61 L1,61 L1,1 z"/></clipPath></defs><g clip-path="url(#clip91)" fill="none" opacity="1" stroke="#b09952" stroke-linecap="butt" stroke-linejoin="miter" stroke-miterlimit="20" stroke-opacity="1" stroke-width="1.8525" transform="matrix(5.74034e-16,3.125,3.125,-5.74034e-16,3.125,28.125)"><path d="M0.999997,51 L31.2325,51" fill-rule="nonzero" vector-effect="none"/></g><defs><clipPath id="clip92"><path d="M1,1 L41,1 L41,61 L1,61 L1,1 z"/></clipPath></defs><g clip-path="url(#clip92)" fill="none" opacity="1" stroke="#b09952" stroke-linecap="butt" stroke-linejoin="miter" stroke-miterlimit="20" stroke-opacity="1" stroke-width="1.8525" transform="matrix(5.74034e-16,3.125,3.125,-5.74034e-16,3.125,28.125)"><path d="M20.5349,20 L20.5349,24" fill-rule="nonzero" vector-effect="none"/></g><defs><clipPath id="clip93"><path d="M1,1 L41,1 L41,61 L1,61 L1,1 z"/></clipPath></defs><g clip-path="url(#clip93)" fill="none" opacity="1" stroke="#b09952" stroke-linecap="butt" stroke-linejoin="miter" stroke-miterlimit="20" stroke-opacity="1" stroke-width="1.8525" transform="matrix(5.74034e-16,3.125,3.125,-5.74034e-16,3.125,28.125)"><path d="M20.5349,34 L20.5349,38" fill-rule="nonzero" vector-effect="none"/></g><defs><clipPath id="clip94"><path d="M1,1 L41,1 L41,61 L1,61 L1,1 z"/></clipPath></defs><g clip-path="url(#clip94)" fill="none" opacity="1" stroke="#b09952" stroke-linecap="butt" stroke-linejoin="miter" stroke-miterlimit="20" stroke-opacity="1" stroke-width="1.8525" transform="matrix(5.74034e-16,3.125,3.125,-5.74034e-16,3.125,28.125)"><path d="M20.5349,47 L20.5349,51" fill-rule="nonzero" vector-effect="none"/></g><defs><clipPath id="clip95"><path d="M1,1 L41,1 L41,61 L1,61 L1,1 z"/></clipPath></defs><g clip-path="url(#clip95)" fill="none" opacity="1" stroke="#b09952" stroke-linecap="butt" stroke-linejoin="miter" stroke-miterlimit="20" stroke-opacity="1" stroke-width="1.8525" transform="matrix(5.74034e-16,3.125,3.125,-5.74034e-16,3.125,28.125)"><path d="M25.186,14.5 L25.186,18.5" fill-rule="nonzero" vector-effect="none"/></g><defs><clipPath id="clip96"><path d="M1,1 L41,1 L41,61 L1,61 L1,1 z"/></clipPath></defs><g clip-path="url(#clip96)" fill="none" opacity="1" stroke="#b09952" stroke-linecap="butt" stroke-linejoin="miter" stroke-miterlimit="20" stroke-opacity="1" stroke-width="1.8525" transform="matrix(5.74034e-16,3.125,3.125,-5.74034e-16,3.125,28.125)"><path d="M25.6511,26 L25.6511,30" fill-rule="nonzero" vector-effect="none"/></g><defs><clipPath id="clip97"><path d="M1,1 L41,1 L41,61 L1,61 L1,1 z"/></clipPath></defs><g clip-path="url(#clip97)" fill="none" opacity="1" stroke="#b09952" stroke-linecap="butt" stroke-linejoin="miter" stroke-miterlimit="20" stroke-opacity="1" stroke-width="1.8525" transform="matrix(5.74034e-16,3.125,3.125,-5.74034e-16,3.125,28.125)"><path d="M24.7209,39.5 L24.7209,43.5" fill-rule="nonzero" vector-effect="none"/></g><defs><clipPath id="clip98"><path d="M1,1 L41,1 L41,61 L1,61 L1,1 z"/></clipPath></defs><g clip-path="url(#clip98)" fill="none" opacity="1" stroke="#b09952" stroke-linecap="butt" stroke-linejoin="miter" stroke-miterlimit="20" stroke-opacity="1" stroke-width="1.8525" transform="matrix(5.74034e-16,3.125,3.125,-5.74034e-16,3.125,28.125)"><path d="M24.2558,52.5 L24.2558,56.4999" fill-rule="nonzero" vector-effect="none"/></g><defs><clipPath id="clip99"><path d="M1,1 L41,1 L41,61 L1,61 L1,1 z"/></clipPath></defs><g clip-path="url(#clip99)" fill="none" opacity="1" stroke="#b09952" stroke-linecap="butt" stroke-linejoin="miter" stroke-miterlimit="20" stroke-opacity="1" stroke-width="1.8525" transform="matrix(5.74034e-16,3.125,3.125,-5.74034e-16,3.125,28.125)"><path d="M30.3023,9.49999 L30.3023,13.5" fill-rule="nonzero" vector-effect="none"/></g><defs><clipPath id="clip100"><path d="M1,1 L41,1 L41,61 L1,61 L1,1 z"/></clipPath></defs><g clip-path="url(#clip100)" fill="none" opacity="1" stroke="#b09952" stroke-linecap="butt" stroke-linejoin="miter" stroke-miterlimit="20" stroke-opacity="1" stroke-width="1.8525" transform="matrix(5.74034e-16,3.125,3.125,-5.74034e-16,3.125,28.125)"><path d="M29.372,19.5 L29.372,23.5" fill-rule="nonzero" vector-effect="none"/></g><defs><clipPath id="clip101"><path d="M1,1 L41,1 L41,61 L1,61 L1,1 z"/></clipPath></defs><g clip-path="url(#clip101)" fill="none" opacity="1" stroke="#b09952" stroke-linecap="butt" stroke-linejoin="miter" stroke-miterlimit="20" stroke-opacity="1" stroke-width="1.8525" transform="matrix(5.74034e-16,3.125,3.125,-5.74034e-16,3.125,28.125)"><path d="M29.372,33 L29.372,37" fill-rule="nonzero" vector-effect="none"/></g><defs><clipPath id="clip102"><path d="M1,1 L41,1 L41,61 L1,61 L1,1 z"/></clipPath></defs><g clip-path="url(#clip102)" fill="none" opacity="1" stroke="#b09952" stroke-linecap="butt" stroke-linejoin="miter" stroke-miterlimit="20" stroke-opacity="1" stroke-width="1.8525" transform="matrix(5.74034e-16,3.125,3.125,-5.74034e-16,3.125,28.125)"><path d="M28.4418,45.5 L28.4418,49.5" fill-rule="nonzero" vector-effect="none"/></g><defs><clipPath id="clip103"><path d="M1,1 L41,1 L41,61 L1,61 L1,1 z"/></clipPath></defs><g clip-path="url(#clip103)" fill="none" opacity="1" stroke="#b09952" stroke-linecap="butt" stroke-linejoin="miter" stroke-miterlimit="20" stroke-opacity="1" stroke-width="1.8525" transform="matrix(5.74034e-16,3.125,3.125,-5.74034e-16,3.125,28.125)"><path d="M35.8837,9.49999 L35.8837,13.5" fill-rule="nonzero" vector-effect="none"/></g><defs><clipPath id="clip104"><path d="M1,1 L41,1 L41,61 L1,61 L1,1 z"/></clipPath></defs><g clip-path="url(#clip104)" fill="none" opacity="1" stroke="#b09952" stroke-linecap="butt" stroke-linejoin="miter" stroke-miterlimit="20" stroke-opacity="1" stroke-width="1.8525" transform="matrix(5.74034e-16,3.125,3.125,-5.74034e-16,3.125,28.125)"><path d="M34.4883,21.5 L34.4883,25.5" fill-rule="nonzero" vector-effect="none"/></g><defs><clipPath id="clip105"><path d="M1,1 L41,1 L41,61 L1,61 L1,1 z"/></clipPath></defs><g clip-path="url(#clip105)" fill="none" opacity="1" stroke="#b09952" stroke-linecap="butt" stroke-linejoin="miter" stroke-miterlimit="20" stroke-opacity="1" stroke-width="1.8525" transform="matrix(5.74034e-16,3.125,3.125,-5.74034e-16,3.125,28.125)"><path d="M35.8837,34 L35.8837,38" fill-rule="nonzero" vector-effect="none"/></g><defs><clipPath id="clip106"><path d="M1,1 L41,1 L41,61 L1,61 L1,1 z"/></clipPath></defs><g clip-path="url(#clip106)" fill="none" opacity="1" stroke="#b09952" stroke-linecap="butt" stroke-linejoin="miter" stroke-miterlimit="20" stroke-opacity="1" stroke-width="1.8525" transform="matrix(5.74034e-16,3.125,3.125,-5.74034e-16,3.125,28.125)"><path d="M32.6279,43.5 L32.6279,47.5" fill-rule="nonzero" vector-effect="none"/></g><defs><clipPath id="clip107"><path d="M1,1 L41,1 L41,61 L1,61 L1,1 z"/></clipPath></defs><g clip-path="url(#clip107)" fill="none" opacity="1" stroke="#b09952" stroke-linecap="butt" stroke-linejoin="miter" stroke-miterlimit="20" stroke-opacity="1" stroke-width="1.8525" transform="matrix(5.74034e-16,3.125,3.125,-5.74034e-16,3.125,28.125)"><path d="M35.4186,50.5 L35.4186,54.4999" fill-rule="nonzero" vector-effect="none"/></g><defs><clipPath id="clip108"><path d="M1,1 L41,1 L41,61 L1,61 L1,1 z"/></clipPath></defs><g clip-path="url(#clip108)" fill="none" opacity="1" stroke="#b09952" stroke-linecap="butt" stroke-linejoin="miter" stroke-miterlimit="20" stroke-opacity="1" stroke-width="1.8525" transform="matrix(5.74034e-16,3.125,3.125,-5.74034e-16,3.125,28.125)"><path d="M27.5116,7.49999 L27.5116,11.5" fill-rule="nonzero" vector-effect="none"/></g><defs><clipPath id="clip109"><path d="M1,1 L41,1 L41,61 L1,61 L1,1 z"/></clipPath></defs><g clip-path="url(#clip109)" fill="none" opacity="1" stroke="#b09952" stroke-linecap="butt" stroke-linejoin="miter" stroke-miterlimit="20" stroke-opacity="1" stroke-width="1.8525" transform="matrix(5.74034e-16,3.125,3.125,-5.74034e-16,3.125,28.125)"><path d="M19.6046,13 L19.6046,5.99999" fill-rule="nonzero" vector-effect="none"/></g><defs><clipPath id="clip110"><path d="M1,1 L41,1 L41,61 L1,61 L1,1 z"/></clipPath></defs><g clip-path="url(#clip110)" fill="none" opacity="1" stroke="#b09952" stroke-linecap="butt" stroke-linejoin="miter" stroke-miterlimit="20" stroke-opacity="1" stroke-width="1.8525" transform="matrix(5.74034e-16,3.125,3.125,-5.74034e-16,3.125,28.125)"><path d="M19.6046,18.5 L19.6046,55.9999" fill-rule="nonzero" vector-effect="none"/></g><defs><clipPath id="clip111"><path d="M1,1 L41,1 L41,61 L1,61 L1,1 z"/></clipPath></defs><g clip-path="url(#clip111)" fill="none" opacity="1" stroke="#b09952" stroke-linecap="butt" stroke-linejoin="miter" stroke-miterlimit="4" stroke-opacity="1" stroke-width="1.8525" transform="matrix(5.74034e-16,3.125,3.125,-5.74034e-16,3.125,28.125)"><path d="M17.7442,55.9999 C14.1521,48.2468 12.2438,39.7185 12.1633,31.0574 C12.0827,22.3965 13.8319,13.8287 17.279,5.99999" fill-rule="nonzero" vector-effect="none"/></g><defs><clipPath id="clip112"><path d="M1,1 L41,1 L41,61 L1,61 L1,1 z"/></clipPath></defs><g clip-path="url(#clip112)" fill="none" opacity="1" stroke="#ffffff" stroke-linecap="butt" stroke-linejoin="miter" stroke-miterlimit="20" stroke-opacity="1" stroke-width="1.8525" transform="matrix(5.74034e-16,3.125,3.125,-5.74034e-16,3.125,28.125)"><path d="M0.999997,0.999998 L40.9999,0.999998 L40.9999,60.9999 L0.999997,60.9999 L0.999997,0.999998 z" fill-rule="nonzero" vector-effect="none"/></g><defs><clipPath id="clip113"><path d="M1,1 L41,1 L41,61 L1,61 L1,1 z"/></clipPath></defs><g clip-path="url(#clip113)" fill="none" opacity="1" stroke="#a06c70" stroke-linecap="butt" stroke-linejoin="miter" stroke-miterlimit="20" stroke-opacity="1" stroke-width="1.8525" transform="matrix(5.74034e-16,3.125,3.125,-5.74034e-16,3.125,28.125)"><path d="M0.999997,11 L15.4186,11 L19.6046,15.5" fill-rule="nonzero" vector-effect="none"/></g><defs><clipPath id="clip114"><path d="M1,1 L41,1 L41,61 L1,61 L1,1 z"/></clipPath></defs><g clip-path="url(#clip114)" fill="none" opacity="1" stroke="#a06c70" stroke-linecap="butt" stroke-linejoin="miter" stroke-miterlimit="4" stroke-opacity="1" stroke-width="1.8525" transform="matrix(5.74034e-16,3.125,3.125,-5.74034e-16,3.125,28.125)"><path d="M22.2403,15.5 C22.2403,17.0648 21.0603,18.3333 19.6046,18.3333 C18.149,18.3333 16.969,17.0648 16.969,15.5 C16.969,13.9352 18.149,12.6667 19.6046,12.6667 C21.0603,12.6667 22.2403,13.9352 22.2403,15.5 z" fill-rule="nonzero" vector-effect="none"/></g><defs><clipPath id="clip131"><path d="M-189,-256 L15,-256 L15,51 L-189,51 L-189,-256 z"/></clipPath></defs><g clip-path="url(#clip131)" fill="none" opacity="1" stroke="#e60000" stroke-linecap="square" stroke-linejoin="bevel" stroke-opacity="1" stroke-width="1" transform="matrix(0,-0.610352,0.610352,0,162.5,40.625)"><text fill="#e60000" fill-opacity="1" font-family="Liberation Sans" font-size="40" font-style="normal" font-weight="400" stroke="none" textLength="29" x="-36.9531" xml:space="preserve" y="17.9219">R</text></g><defs><clipPath id="clip134"><path d="M-189,-154 L15,-154 L15,154 L-189,154 L-189,-154 z"/></clipPath></defs><g clip-path="url(#clip134)" fill="none" opacity="1" stroke="#e60000" stroke-linecap="square" stroke-linejoin="bevel" stroke-opacity="1" stroke-width="1" transform="matrix(0,-0.610352,0.610352,0,100,40.625)"><text fill="#e60000" fill-opacity="1" font-family="Liberation Sans" font-size="40" font-style="normal" font-weight="400" stroke="none" textLength="27" x="-34.125" xml:space="preserve" y="17.9219">P</text></g><defs><clipPath id="clip137"><path d="M-189,-51 L15,-51 L15,256 L-189,256 L-189,-51 z"/></clipPath></defs><g clip-path="url(#clip137)" fill="none" opacity="1" stroke="#e60000" stroke-linecap="square" stroke-linejoin="bevel" stroke-opacity="1" stroke-width="1" transform="matrix(0,-0.610352,0.610352,0,37.5,40.625)"><text fill="#e60000" fill-opacity="1" font-family="Liberation Sans" font-size="40" font-style="normal" font-weight="400" stroke="none" textLength="27" x="-34.125" xml:space="preserve" y="17.9219">V</text></g><defs><clipPath id="clip143"><path d="M-2,-10 L62,-10 L62,42 L-2,42 L-2,-10 z"/></clipPath></defs><g clip-path="url(#clip143)" fill="none" opacity="1" stroke="none" stroke-opacity="0" transform="matrix(3.125,0,0,3.125,6.25,31.25)"><path d="M0,0 L60,0 L60,40 L0,40 L0,0 z" fill-rule="evenodd" vector-effect="none"/></g></g></svg>
