<?xml version="1.0" encoding="UTF-8"?><svg width="52.9167mm" height="26.9875mm" viewBox="0 0 200 102" xmlns="http://www.w3.org/2000/svg" xmlns:xlink="http://www.w3.org/1999/xlink"><g fill="none" stroke="black" stroke-width="1" fill-rule="evenodd" stroke-linecap="square" stroke-linejoin="bevel"><g clip-path="none" fill="none" opacity="1" stroke="none" stroke-opacity="0" transform="matrix(1,0,0,1,0,0)"><path d="M0,0 L200,0 L200,102 L0,102 L0,0 z" fill-rule="evenodd" vector-effect="none"/></g><defs><clipPath id="clip6"><path d="M0,0 L10,0 L10,10 L0,10 L0,0 z"/></clipPath></defs><g clip-path="url(#clip6)" fill="#b3b3b3" fill-opacity="1" opacity="1" stroke="none" stroke-opacity="0" transform="matrix(2.85714,0,0,2.85714,171.429,40)"><path d="M0.5,3.5 L3.5,3.5 L3.5,6.5 L0.5,6.5 L0.5,3.5 z" fill-rule="evenodd" vector-effect="none"/></g><defs><clipPath id="clip8"><path d="M0,0 L10,0 L10,10 L0,10 L0,0 z"/></clipPath></defs><g clip-path="url(#clip8)" fill="#000000" fill-opacity="1" opacity="1" stroke="none" stroke-opacity="0" transform="matrix(2.85714,0,0,2.85714,171.429,40)"><path d="M3,4 L3,6 L1,6 L1,4 L3,4 M4,3 L0,3 L0,7 L4,7 L4,3" fill-rule="nonzero" vector-effect="none"/></g><defs><clipPath id="clip28"><path d="M0,0 L10,0 L10,10 L0,10 L0,0 z"/></clipPath></defs><g clip-path="url(#clip28)" fill="#b3b3b3" fill-opacity="1" opacity="1" stroke="none" stroke-opacity="0" transform="matrix(-2.85714,0,0,2.85714,28.5714,40)"><path d="M0.5,3.5 L3.5,3.5 L3.5,6.5 L0.5,6.5 L0.5,3.5 z" fill-rule="evenodd" vector-effect="none"/></g><defs><clipPath id="clip30"><path d="M0,0 L10,0 L10,10 L0,10 L0,0 z"/></clipPath></defs><g clip-path="url(#clip30)" fill="#000000" fill-opacity="1" opacity="1" stroke="none" stroke-opacity="0" transform="matrix(-2.85714,0,0,2.85714,28.5714,40)"><path d="M3,4 L3,6 L1,6 L1,4 L3,4 M4,3 L0,3 L0,7 L4,7 L4,3" fill-rule="nonzero" vector-effect="none"/></g><defs><clipPath id="clip47"><path d="M-10,-2 L60,-2 L60,34 L-10,34 L-10,-2 z"/></clipPath></defs><g clip-path="url(#clip47)" fill="#ffffff" fill-opacity="1" opacity="1" stroke="none" stroke-opacity="0" transform="matrix(2.85714,0,0,2.85714,28.5714,5.71429)"><path d="M0,0 L50,0 L50,32 L0,32 L0,0 z" fill-rule="evenodd" vector-effect="none"/></g><defs><clipPath id="clip51"><path d="M0,0 L50,0 L50,32 L0,32 L0,0 z"/></clipPath></defs><g clip-path="url(#clip51)" fill="none" opacity="1" stroke="none" stroke-opacity="0" transform="matrix(2.85714,0,0,2.85714,28.5714,5.71429)"><path d="M0,0 L50,0 L50,32 L0,32 L0,0 z" fill-rule="evenodd" vector-effect="none"/></g><defs><clipPath id="clip61"><path d="M1,1 L51,1 L51,33 L1,33 L1,1 z"/></clipPath></defs><g clip-path="url(#clip61)" fill="none" opacity="1" stroke="#b09952" stroke-linecap="butt" stroke-linejoin="miter" stroke-miterlimit="20" stroke-opacity="1" stroke-width="1.0725" transform="matrix(2.85714,0,0,2.85714,25.7143,2.85714)"><path d="M1,17.0237 L13.4337,17.0237" fill-rule="nonzero" vector-effect="none"/></g><defs><clipPath id="clip62"><path d="M1,1 L51,1 L51,33 L1,33 L1,1 z"/></clipPath></defs><g clip-path="url(#clip62)" fill="none" opacity="1" stroke="#b09952" stroke-linecap="butt" stroke-linejoin="miter" stroke-miterlimit="20" stroke-opacity="1" stroke-width="1.0725" transform="matrix(2.85714,0,0,2.85714,25.7143,2.85714)"><path d="M38.8206,16.9644 L51.0001,16.9644" fill-rule="nonzero" vector-effect="none"/></g><defs><clipPath id="clip63"><path d="M1,1 L51,1 L51,33 L1,33 L1,1 z"/></clipPath></defs><g clip-path="url(#clip63)" fill="none" opacity="1" stroke="#b09952" stroke-linecap="butt" stroke-linejoin="miter" stroke-miterlimit="4" stroke-opacity="1" stroke-width="1.0725" transform="matrix(2.85714,0,0,2.85714,25.7143,2.85714)"><path d="M18.4293,25.2374 C18.2738,22.3436 18.8811,19.4613 20.1816,16.9213 C21.4819,14.3813 23.4227,12.2864 25.781,10.8769 C28.1396,9.46738 30.8203,8.80042 33.5155,8.95253" fill-rule="nonzero" vector-effect="none"/></g><defs><clipPath id="clip64"><path d="M1,1 L51,1 L51,33 L1,33 L1,1 z"/></clipPath></defs><g clip-path="url(#clip64)" fill="none" opacity="1" stroke="#b09952" stroke-linecap="butt" stroke-linejoin="miter" stroke-miterlimit="4" stroke-opacity="1" stroke-width="1.0725" transform="matrix(2.85714,0,0,2.85714,25.7143,2.85714)"><path d="M23.6459,25.1543 C23.5118,23.251 23.8902,21.3464 24.7358,19.6677 C25.5813,17.9887 26.8586,16.6063 28.4153,15.6851 C29.9718,14.7639 31.7422,14.3428 33.5155,14.4718" fill-rule="nonzero" vector-effect="none"/></g><defs><clipPath id="clip65"><path d="M1,1 L51,1 L51,33 L1,33 L1,1 z"/></clipPath></defs><g clip-path="url(#clip65)" fill="none" opacity="1" stroke="#b09952" stroke-linecap="butt" stroke-linejoin="miter" stroke-miterlimit="4" stroke-opacity="1" stroke-width="1.0725" transform="matrix(2.85714,0,0,2.85714,25.7143,2.85714)"><path d="M33.4934,9.09496 C33.806,9.46311 33.9828,9.94097 33.9911,10.4391 C33.9992,10.9373 33.8381,11.4215 33.5376,11.8012" fill-rule="nonzero" vector-effect="none"/></g><defs><clipPath id="clip66"><path d="M1,1 L51,1 L51,33 L1,33 L1,1 z"/></clipPath></defs><g clip-path="url(#clip66)" fill="none" opacity="1" stroke="#b09952" stroke-linecap="butt" stroke-linejoin="miter" stroke-miterlimit="4" stroke-opacity="1" stroke-width="1.0725" transform="matrix(2.85714,0,0,2.85714,25.7143,2.85714)"><path d="M33.5376,11.7537 C33.846,12.1247 34.0228,12.6006 34.037,13.0977 C34.0512,13.5947 33.9016,14.0813 33.615,14.4718" fill-rule="nonzero" vector-effect="none"/></g><defs><clipPath id="clip67"><path d="M1,1 L51,1 L51,33 L1,33 L1,1 z"/></clipPath></defs><g clip-path="url(#clip67)" fill="none" opacity="1" stroke="#b09952" stroke-linecap="butt" stroke-linejoin="miter" stroke-miterlimit="4" stroke-opacity="1" stroke-width="1.0725" transform="matrix(2.85714,0,0,2.85714,25.7143,2.85714)"><path d="M33.5708,14.4718 C33.3151,14.2561 33.1257,13.9628 33.0274,13.6299 C32.929,13.2971 32.9261,12.9402 33.0191,12.6056 C33.1121,12.271 33.2965,11.9742 33.5487,11.7537" fill-rule="nonzero" vector-effect="none"/></g><defs><clipPath id="clip68"><path d="M1,1 L51,1 L51,33 L1,33 L1,1 z"/></clipPath></defs><g clip-path="url(#clip68)" fill="none" opacity="1" stroke="#b09952" stroke-linecap="butt" stroke-linejoin="miter" stroke-miterlimit="4" stroke-opacity="1" stroke-width="1.0725" transform="matrix(2.85714,0,0,2.85714,25.7143,2.85714)"><path d="M23.4912,25.095 C23.1484,25.4307 22.7034,25.6206 22.2395,25.6295 C21.7757,25.6382 21.3248,25.4651 20.9713,25.1424" fill-rule="nonzero" vector-effect="none"/></g><defs><clipPath id="clip69"><path d="M1,1 L51,1 L51,33 L1,33 L1,1 z"/></clipPath></defs><g clip-path="url(#clip69)" fill="none" opacity="1" stroke="#b09952" stroke-linecap="butt" stroke-linejoin="miter" stroke-miterlimit="4" stroke-opacity="1" stroke-width="1.0725" transform="matrix(2.85714,0,0,2.85714,25.7143,2.85714)"><path d="M21.0155,25.1424 C20.6701,25.4736 20.2269,25.6635 19.764,25.6787 C19.3013,25.694 18.8482,25.5333 18.4846,25.2255" fill-rule="nonzero" vector-effect="none"/></g><defs><clipPath id="clip70"><path d="M1,1 L51,1 L51,33 L1,33 L1,1 z"/></clipPath></defs><g clip-path="url(#clip70)" fill="none" opacity="1" stroke="#b09952" stroke-linecap="butt" stroke-linejoin="miter" stroke-miterlimit="4" stroke-opacity="1" stroke-width="1.0725" transform="matrix(2.85714,0,0,2.85714,25.7143,2.85714)"><path d="M18.4846,25.178 C18.6855,24.9035 18.9585,24.7001 19.2685,24.5945 C19.5783,24.4888 19.9107,24.4857 20.2221,24.5856 C20.5338,24.6855 20.8101,24.8835 21.0155,25.1543" fill-rule="nonzero" vector-effect="none"/></g><defs><clipPath id="clip71"><path d="M1,1 L51,1 L51,33 L1,33 L1,1 z"/></clipPath></defs><g clip-path="url(#clip71)" fill="none" opacity="1" stroke="#b09952" stroke-linecap="butt" stroke-linejoin="miter" stroke-miterlimit="20" stroke-opacity="1" stroke-width="1.0725" transform="matrix(2.85714,0,0,2.85714,25.7143,2.85714)"><path d="M13.4337,3.67062 L38.7985,3.67062 L38.7985,30.3769 L13.4337,30.3769 L13.4337,3.67062 z" fill-rule="nonzero" vector-effect="none"/></g><defs><clipPath id="clip72"><path d="M1,1 L51,1 L51,33 L1,33 L1,1 z"/></clipPath></defs><g clip-path="url(#clip72)" fill="none" opacity="1" stroke="#ffffff" stroke-linecap="butt" stroke-linejoin="miter" stroke-miterlimit="20" stroke-opacity="1" stroke-width="1.0725" transform="matrix(2.85714,0,0,2.85714,25.7143,2.85714)"><path d="M1,1 L50.7459,1 L50.7459,33 L1,33 L1,1 z" fill-rule="nonzero" vector-effect="none"/></g><defs><clipPath id="clip89"><path d="M-241,-82 L15,-82 L15,82 L-241,82 L-241,-82 z"/></clipPath></defs><g clip-path="url(#clip89)" fill="none" opacity="1" stroke="#e60000" stroke-linecap="square" stroke-linejoin="bevel" stroke-opacity="1" stroke-width="1" transform="matrix(0.558036,0,0,0.558036,162.857,51.4286)"><text fill="#e60000" fill-opacity="1" font-family="Liberation Sans" font-size="40" font-style="normal" font-weight="400" stroke="none" textLength="27" x="-34.125" xml:space="preserve" y="17.9219">B</text></g><defs><clipPath id="clip92"><path d="M-15,-82 L241,-82 L241,82 L-15,82 L-15,-82 z"/></clipPath></defs><g clip-path="url(#clip92)" fill="none" opacity="1" stroke="#e60000" stroke-linecap="square" stroke-linejoin="bevel" stroke-opacity="1" stroke-width="1" transform="matrix(0.558036,0,0,0.558036,37.1429,51.4286)"><text fill="#e60000" fill-opacity="1" font-family="Liberation Sans" font-size="40" font-style="normal" font-weight="400" stroke="none" textLength="27" x="0" xml:space="preserve" y="17.9219">A</text></g><defs><clipPath id="clip98"><path d="M-10,-2 L60,-2 L60,34 L-10,34 L-10,-2 z"/></clipPath></defs><g clip-path="url(#clip98)" fill="none" opacity="1" stroke="none" stroke-opacity="0" transform="matrix(2.85714,0,0,2.85714,28.5714,5.71429)"><path d="M0,0 L50,0 L50,32 L0,32 L0,0 z" fill-rule="evenodd" vector-effect="none"/></g></g></svg>
