<?xml version="1.0" encoding="UTF-8"?><svg width="52.9167mm" height="27.7812mm" viewBox="0 0 200 105" xmlns="http://www.w3.org/2000/svg" xmlns:xlink="http://www.w3.org/1999/xlink"><g fill="none" stroke="black" stroke-width="1" fill-rule="evenodd" stroke-linecap="square" stroke-linejoin="bevel"><g clip-path="none" fill="none" opacity="1" stroke="none" stroke-opacity="0" transform="matrix(1,0,0,1,0,0)"><path d="M0,0 L200,0 L200,105 L0,105 L0,0 z" fill-rule="evenodd" vector-effect="none"/></g><defs><clipPath id="clip6"><path d="M0,0 L10,0 L10,10 L0,10 L0,0 z"/></clipPath></defs><g clip-path="url(#clip6)" fill="#b3b3b3" fill-opacity="1" opacity="1" stroke="none" stroke-opacity="0" transform="matrix(2.85714,0,0,2.85714,171.429,48.5714)"><path d="M0.5,3.5 L3.5,3.5 L3.5,6.5 L0.5,6.5 L0.5,3.5 z" fill-rule="evenodd" vector-effect="none"/></g><defs><clipPath id="clip8"><path d="M0,0 L10,0 L10,10 L0,10 L0,0 z"/></clipPath></defs><g clip-path="url(#clip8)" fill="#000000" fill-opacity="1" opacity="1" stroke="none" stroke-opacity="0" transform="matrix(2.85714,0,0,2.85714,171.429,48.5714)"><path d="M3,4 L3,6 L1,6 L1,4 L3,4 M4,3 L0,3 L0,7 L4,7 L4,3" fill-rule="nonzero" vector-effect="none"/></g><defs><clipPath id="clip28"><path d="M0,0 L10,0 L10,10 L0,10 L0,0 z"/></clipPath></defs><g clip-path="url(#clip28)" fill="#b3b3b3" fill-opacity="1" opacity="1" stroke="none" stroke-opacity="0" transform="matrix(-2.85714,0,0,2.85714,28.5714,62.8571)"><path d="M0.5,3.5 L3.5,3.5 L3.5,6.5 L0.5,6.5 L0.5,3.5 z" fill-rule="evenodd" vector-effect="none"/></g><defs><clipPath id="clip30"><path d="M0,0 L10,0 L10,10 L0,10 L0,0 z"/></clipPath></defs><g clip-path="url(#clip30)" fill="#000000" fill-opacity="1" opacity="1" stroke="none" stroke-opacity="0" transform="matrix(-2.85714,0,0,2.85714,28.5714,62.8571)"><path d="M3,4 L3,6 L1,6 L1,4 L3,4 M4,3 L0,3 L0,7 L4,7 L4,3" fill-rule="nonzero" vector-effect="none"/></g><defs><clipPath id="clip50"><path d="M0,0 L10,0 L10,10 L0,10 L0,0 z"/></clipPath></defs><g clip-path="url(#clip50)" fill="#b3b3b3" fill-opacity="1" opacity="1" stroke="none" stroke-opacity="0" transform="matrix(-2.85714,0,0,2.85714,28.5714,20)"><path d="M0.5,3.5 L3.5,3.5 L3.5,6.5 L0.5,6.5 L0.5,3.5 z" fill-rule="evenodd" vector-effect="none"/></g><defs><clipPath id="clip52"><path d="M0,0 L10,0 L10,10 L0,10 L0,0 z"/></clipPath></defs><g clip-path="url(#clip52)" fill="#000000" fill-opacity="1" opacity="1" stroke="none" stroke-opacity="0" transform="matrix(-2.85714,0,0,2.85714,28.5714,20)"><path d="M3,4 L3,6 L1,6 L1,4 L3,4 M4,3 L0,3 L0,7 L4,7 L4,3" fill-rule="nonzero" vector-effect="none"/></g><defs><clipPath id="clip69"><path d="M-10,-2 L60,-2 L60,35 L-10,35 L-10,-2 z"/></clipPath></defs><g clip-path="url(#clip69)" fill="#ffffff" fill-opacity="1" opacity="1" stroke="none" stroke-opacity="0" transform="matrix(2.85714,0,0,2.85714,28.5714,5.71429)"><path d="M0,0 L50,0 L50,33 L0,33 L0,0 z" fill-rule="evenodd" vector-effect="none"/></g><defs><clipPath id="clip73"><path d="M0,0 L50,0 L50,33 L0,33 L0,0 z"/></clipPath></defs><g clip-path="url(#clip73)" fill="none" opacity="1" stroke="none" stroke-opacity="0" transform="matrix(2.85714,0,0,2.85714,28.5714,5.71429)"><path d="M0,0 L50,0 L50,33 L0,33 L0,0 z" fill-rule="evenodd" vector-effect="none"/></g><defs><clipPath id="clip83"><path d="M1,1 L51,1 L51,34 L1,34 L1,1 z"/></clipPath></defs><g clip-path="url(#clip83)" fill="none" opacity="1" stroke="#b09952" stroke-linecap="butt" stroke-linejoin="miter" stroke-miterlimit="20" stroke-opacity="1" stroke-width="1.105" transform="matrix(2.85714,0,0,2.85714,25.7143,2.85714)"><path d="M1,9.25001 L12.7648,9.25001 L15.706,13.375" fill-rule="nonzero" vector-effect="none"/></g><defs><clipPath id="clip84"><path d="M1,1 L51,1 L51,34 L1,34 L1,1 z"/></clipPath></defs><g clip-path="url(#clip84)" fill="none" opacity="1" stroke="#b09952" stroke-linecap="butt" stroke-linejoin="miter" stroke-miterlimit="20" stroke-opacity="1" stroke-width="1.105" transform="matrix(2.85714,0,0,2.85714,25.7143,2.85714)"><path d="M1,25.75 L25.4119,25.75 L25.4119,21.625" fill-rule="nonzero" vector-effect="none"/></g><defs><clipPath id="clip85"><path d="M1,1 L51,1 L51,34 L1,34 L1,1 z"/></clipPath></defs><g clip-path="url(#clip85)" fill="none" opacity="1" stroke="#b09952" stroke-linecap="butt" stroke-linejoin="miter" stroke-miterlimit="20" stroke-opacity="1" stroke-width="1.105" transform="matrix(2.85714,0,0,2.85714,25.7143,2.85714)"><path d="M51.0003,17.5 L38.059,17.5 L34.8237,13.375" fill-rule="nonzero" vector-effect="none"/></g><defs><clipPath id="clip86"><path d="M1,1 L51,1 L51,34 L1,34 L1,1 z"/></clipPath></defs><g clip-path="url(#clip86)" fill="none" opacity="1" stroke="#b09952" stroke-linecap="butt" stroke-linejoin="miter" stroke-miterlimit="20" stroke-opacity="1" stroke-width="1.105" transform="matrix(2.85714,0,0,2.85714,25.7143,2.85714)"><path d="M17.1177,10.075 L33.5361,10.075" fill-rule="nonzero" vector-effect="none"/></g><defs><clipPath id="clip87"><path d="M1,1 L51,1 L51,34 L1,34 L1,1 z"/></clipPath></defs><g clip-path="url(#clip87)" fill="none" opacity="1" stroke="#b09952" stroke-linecap="butt" stroke-linejoin="miter" stroke-miterlimit="20" stroke-opacity="1" stroke-width="1.105" transform="matrix(2.85714,0,0,2.85714,25.7143,2.85714)"><path d="M17.1766,16.675 L21.5164,16.675 L21.5883,20.25" fill-rule="nonzero" vector-effect="none"/></g><defs><clipPath id="clip88"><path d="M1,1 L51,1 L51,34 L1,34 L1,1 z"/></clipPath></defs><g clip-path="url(#clip88)" fill="none" opacity="1" stroke="#b09952" stroke-linecap="butt" stroke-linejoin="miter" stroke-miterlimit="20" stroke-opacity="1" stroke-width="1.105" transform="matrix(2.85714,0,0,2.85714,25.7143,2.85714)"><path d="M28.9413,20.25 L28.9413,16.675 L33.3531,16.675" fill-rule="nonzero" vector-effect="none"/></g><defs><clipPath id="clip89"><path d="M1,1 L51,1 L51,34 L1,34 L1,1 z"/></clipPath></defs><g clip-path="url(#clip89)" fill="none" opacity="1" stroke="#b09952" stroke-linecap="butt" stroke-linejoin="miter" stroke-miterlimit="20" stroke-opacity="1" stroke-width="1.105" transform="matrix(2.85714,0,0,2.85714,25.7143,2.85714)"><path d="M15.706,9.25001 L17.1766,9.25001 L17.1766,17.5 L15.706,17.5 L15.706,9.25001 z" fill-rule="nonzero" vector-effect="none"/></g><defs><clipPath id="clip90"><path d="M1,1 L51,1 L51,34 L1,34 L1,1 z"/></clipPath></defs><g clip-path="url(#clip90)" fill="none" opacity="1" stroke="#b09952" stroke-linecap="butt" stroke-linejoin="miter" stroke-miterlimit="20" stroke-opacity="1" stroke-width="1.105" transform="matrix(2.85714,0,0,2.85714,25.7143,2.85714)"><path d="M33.3531,9.25001 L34.8237,9.25001 L34.8237,17.5 L33.3531,17.5 L33.3531,9.25001 z" fill-rule="nonzero" vector-effect="none"/></g><defs><clipPath id="clip91"><path d="M1,1 L51,1 L51,34 L1,34 L1,1 z"/></clipPath></defs><g clip-path="url(#clip91)" fill="none" opacity="1" stroke="#b09952" stroke-linecap="butt" stroke-linejoin="miter" stroke-miterlimit="20" stroke-opacity="1" stroke-width="1.105" transform="matrix(2.85714,0,0,2.85714,25.7143,2.85714)"><path d="M21.0916,20.2867 L29.8237,20.2867 L29.8237,21.625 L21.0916,21.625 L21.0916,20.2867 z" fill-rule="nonzero" vector-effect="none"/></g><defs><clipPath id="clip92"><path d="M1,1 L51,1 L51,34 L1,34 L1,1 z"/></clipPath></defs><g clip-path="url(#clip92)" fill="none" opacity="1" stroke="#ffffff" stroke-linecap="butt" stroke-linejoin="miter" stroke-miterlimit="20" stroke-opacity="1" stroke-width="1.105" transform="matrix(2.85714,0,0,2.85714,25.7143,2.85714)"><path d="M1,1 L51.0003,1 L51.0003,34 L1,34 L1,1 z" fill-rule="nonzero" vector-effect="none"/></g><defs><clipPath id="clip109"><path d="M-241,-97 L15,-97 L15,72 L-241,72 L-241,-97 z"/></clipPath></defs><g clip-path="url(#clip109)" fill="none" opacity="1" stroke="#e60000" stroke-linecap="square" stroke-linejoin="bevel" stroke-opacity="1" stroke-width="1" transform="matrix(0.558036,0,0,0.558036,162.857,60)"><text fill="#e60000" fill-opacity="1" font-family="Liberation Sans" font-size="40" font-style="normal" font-weight="400" stroke="none" textLength="27" x="-34.125" xml:space="preserve" y="17.9219">B</text></g><defs><clipPath id="clip112"><path d="M-15,-123 L241,-123 L241,46 L-15,46 L-15,-123 z"/></clipPath></defs><g clip-path="url(#clip112)" fill="none" opacity="1" stroke="#e60000" stroke-linecap="square" stroke-linejoin="bevel" stroke-opacity="1" stroke-width="1" transform="matrix(0.558036,0,0,0.558036,37.1429,74.2857)"><text fill="#e60000" fill-opacity="1" font-family="Liberation Sans" font-size="40" font-style="normal" font-weight="400" stroke="none" textLength="49" x="0" xml:space="preserve" y="17.9219">A1</text></g><defs><clipPath id="clip115"><path d="M-15,-46 L241,-46 L241,123 L-15,123 L-15,-46 z"/></clipPath></defs><g clip-path="url(#clip115)" fill="none" opacity="1" stroke="#e60000" stroke-linecap="square" stroke-linejoin="bevel" stroke-opacity="1" stroke-width="1" transform="matrix(0.558036,0,0,0.558036,37.1429,31.4286)"><text fill="#e60000" fill-opacity="1" font-family="Liberation Sans" font-size="40" font-style="normal" font-weight="400" stroke="none" textLength="27" x="0" xml:space="preserve" y="17.9219">A</text></g><defs><clipPath id="clip121"><path d="M-10,-2 L60,-2 L60,35 L-10,35 L-10,-2 z"/></clipPath></defs><g clip-path="url(#clip121)" fill="none" opacity="1" stroke="none" stroke-opacity="0" transform="matrix(2.85714,0,0,2.85714,28.5714,5.71429)"><path d="M0,0 L50,0 L50,33 L0,33 L0,0 z" fill-rule="evenodd" vector-effect="none"/></g></g></svg>
