<?xml version="1.0" encoding="UTF-8"?><svg width="52.9167mm" height="30.6917mm" viewBox="0 0 200 116" xmlns="http://www.w3.org/2000/svg" xmlns:xlink="http://www.w3.org/1999/xlink"><g fill="none" stroke="black" stroke-width="1" fill-rule="evenodd" stroke-linecap="square" stroke-linejoin="bevel"><g clip-path="none" fill="none" opacity="1" stroke="none" stroke-opacity="0" transform="matrix(1,0,0,1,0,0)"><path d="M0,0 L200,0 L200,116 L0,116 L0,0 z" fill-rule="evenodd" vector-effect="none"/></g><defs><clipPath id="clip6"><path d="M0,0 L10,0 L10,10 L0,10 L0,0 z"/></clipPath></defs><g clip-path="url(#clip6)" fill="#b3b3b3" fill-opacity="1" opacity="1" stroke="none" stroke-opacity="0" transform="matrix(1.81818,0,0,1.81818,181.818,78.1818)"><path d="M0.5,3.5 L3.5,3.5 L3.5,6.5 L0.5,6.5 L0.5,3.5 z" fill-rule="evenodd" vector-effect="none"/></g><defs><clipPath id="clip8"><path d="M0,0 L10,0 L10,10 L0,10 L0,0 z"/></clipPath></defs><g clip-path="url(#clip8)" fill="#000000" fill-opacity="1" opacity="1" stroke="none" stroke-opacity="0" transform="matrix(1.81818,0,0,1.81818,181.818,78.1818)"><path d="M3,4 L3,6 L1,6 L1,4 L3,4 M4,3 L0,3 L0,7 L4,7 L4,3" fill-rule="nonzero" vector-effect="none"/></g><defs><clipPath id="clip29"><path d="M0,0 L10,0 L10,10 L0,10 L0,0 z"/></clipPath></defs><g clip-path="url(#clip29)" fill="#ffffff" fill-opacity="1" opacity="1" stroke="none" stroke-opacity="0" transform="matrix(-1.81818,0,0,1.81818,200,23.6364)"><path d="M8.882,5 L0.5,9.191 L0.5,0.809 L8.882,5 z" fill-rule="evenodd" vector-effect="none"/></g><defs><clipPath id="clip31"><path d="M0,0 L10,0 L10,10 L0,10 L0,0 z"/></clipPath></defs><g clip-path="url(#clip31)" fill="#000000" fill-opacity="1" opacity="1" stroke="none" stroke-opacity="0" transform="matrix(-1.81818,0,0,1.81818,200,23.6364)"><path d="M1,1.618 L7.764,5 L1,8.382 L1,1.618 M0,0 L0,10 L10,5 L0,0" fill-rule="nonzero" vector-effect="none"/></g><defs><clipPath id="clip53"><path d="M0,0 L10,0 L10,10 L0,10 L0,0 z"/></clipPath></defs><g clip-path="url(#clip53)" fill="#b3b3b3" fill-opacity="1" opacity="1" stroke="none" stroke-opacity="0" transform="matrix(-1.81818,0,0,1.81818,18.1818,78.1818)"><path d="M0.5,3.5 L3.5,3.5 L3.5,6.5 L0.5,6.5 L0.5,3.5 z" fill-rule="evenodd" vector-effect="none"/></g><defs><clipPath id="clip55"><path d="M0,0 L10,0 L10,10 L0,10 L0,0 z"/></clipPath></defs><g clip-path="url(#clip55)" fill="#000000" fill-opacity="1" opacity="1" stroke="none" stroke-opacity="0" transform="matrix(-1.81818,0,0,1.81818,18.1818,78.1818)"><path d="M3,4 L3,6 L1,6 L1,4 L3,4 M4,3 L0,3 L0,7 L4,7 L4,3" fill-rule="nonzero" vector-effect="none"/></g><defs><clipPath id="clip76"><path d="M0,0 L10,0 L10,10 L0,10 L0,0 z"/></clipPath></defs><g clip-path="url(#clip76)" fill="#ffffff" fill-opacity="1" opacity="1" stroke="none" stroke-opacity="0" transform="matrix(1.81818,0,0,1.81818,-4.9738e-14,23.6364)"><path d="M8.882,5 L0.5,9.191 L0.5,0.809 L8.882,5 z" fill-rule="evenodd" vector-effect="none"/></g><defs><clipPath id="clip78"><path d="M0,0 L10,0 L10,10 L0,10 L0,0 z"/></clipPath></defs><g clip-path="url(#clip78)" fill="#000000" fill-opacity="1" opacity="1" stroke="none" stroke-opacity="0" transform="matrix(1.81818,0,0,1.81818,-4.9738e-14,23.6364)"><path d="M1,1.618 L7.764,5 L1,8.382 L1,1.618 M0,0 L0,10 L10,5 L0,0" fill-rule="nonzero" vector-effect="none"/></g><defs><clipPath id="clip97"><path d="M-10,-2 L100,-2 L100,62 L-10,62 L-10,-2 z"/></clipPath></defs><g clip-path="url(#clip97)" fill="#ffffff" fill-opacity="1" opacity="1" stroke="none" stroke-opacity="0" transform="matrix(1.81818,0,0,1.81818,18.1818,3.63636)"><path d="M0,0 L90,0 L90,60 L0,60 L0,0 z" fill-rule="evenodd" vector-effect="none"/></g><defs><clipPath id="clip101"><path d="M0,0 L90,0 L90,60 L0,60 L0,0 z"/></clipPath></defs><g clip-path="url(#clip101)" fill="none" opacity="1" stroke="none" stroke-opacity="0" transform="matrix(1.81818,0,0,1.81818,18.1818,3.63636)"><path d="M0,0 L90,0 L90,60 L0,60 L0,0 z" fill-rule="evenodd" vector-effect="none"/></g><defs><clipPath id="clip111"><path d="M1,1 L91,1 L91,61 L1,61 L1,1 z"/></clipPath></defs><g clip-path="url(#clip111)" fill="none" opacity="1" stroke="#b09952" stroke-linecap="butt" stroke-linejoin="miter" stroke-miterlimit="20" stroke-opacity="1" stroke-width="1.9825" transform="matrix(1.81818,0,0,1.81818,16.3636,1.81818)"><path d="M91,46.3781 L65.6409,46.3781 L65.6409,39.8234" fill-rule="nonzero" vector-effect="none"/></g><defs><clipPath id="clip112"><path d="M1,1 L91,1 L91,61 L1,61 L1,1 z"/></clipPath></defs><g clip-path="url(#clip112)" fill="none" opacity="1" stroke="#b09952" stroke-linecap="butt" stroke-linejoin="miter" stroke-miterlimit="20" stroke-opacity="1" stroke-width="1.9825" transform="matrix(1.81818,0,0,1.81818,16.3636,1.81818)"><path d="M25.8287,24.5294 L66.1381,24.6974" fill-rule="nonzero" vector-effect="none"/></g><defs><clipPath id="clip113"><path d="M1,1 L91,1 L91,61 L1,61 L1,1 z"/></clipPath></defs><g clip-path="url(#clip113)" fill="none" opacity="1" stroke="#b09952" stroke-linecap="butt" stroke-linejoin="miter" stroke-miterlimit="20" stroke-opacity="1" stroke-width="1.9825" transform="matrix(1.81818,0,0,1.81818,16.3636,1.81818)"><path d="M25.6961,40.0812 L66.1381,39.8234" fill-rule="nonzero" vector-effect="none"/></g><defs><clipPath id="clip114"><path d="M1,1 L91,1 L91,61 L1,61 L1,1 z"/></clipPath></defs><g clip-path="url(#clip114)" fill="none" opacity="1" stroke="#b09952" stroke-linecap="butt" stroke-linejoin="miter" stroke-miterlimit="20" stroke-opacity="1" stroke-width="1.9825" transform="matrix(1.81818,0,0,1.81818,16.3636,1.81818)"><path d="M1,46.3781 L24.8674,46.3781 L24.8674,32.7646" fill-rule="nonzero" vector-effect="none"/></g><defs><clipPath id="clip115"><path d="M1,1 L91,1 L91,61 L1,61 L1,1 z"/></clipPath></defs><g clip-path="url(#clip115)" fill="none" opacity="1" stroke="#b09952" stroke-linecap="butt" stroke-linejoin="miter" stroke-miterlimit="4" stroke-opacity="1" stroke-width="1.9825" transform="matrix(1.81818,0,0,1.81818,16.3636,1.81818)"><path d="M65.884,24.8655 C67.4083,26.0233 68.5471,27.6259 69.1477,29.4586 C69.7482,31.2914 69.7817,33.2664 69.2438,35.1191 C68.7059,36.9715 67.6223,38.6132 66.1381,39.8234" fill-rule="nonzero" vector-effect="none"/></g><defs><clipPath id="clip116"><path d="M1,1 L91,1 L91,61 L1,61 L1,1 z"/></clipPath></defs><g clip-path="url(#clip116)" fill="none" opacity="1" stroke="#b09952" stroke-linecap="butt" stroke-linejoin="miter" stroke-miterlimit="4" stroke-opacity="1" stroke-width="1.9825" transform="matrix(1.81818,0,0,1.81818,16.3636,1.81818)"><path d="M27.3536,24.731 C27.7287,24.7079 28.1035,24.7809 28.4435,24.9434 C28.7834,25.106 29.0773,25.3527 29.2983,25.661" fill-rule="nonzero" vector-effect="none"/></g><defs><clipPath id="clip117"><path d="M1,1 L91,1 L91,61 L1,61 L1,1 z"/></clipPath></defs><g clip-path="url(#clip117)" fill="none" opacity="1" stroke="#b09952" stroke-linecap="butt" stroke-linejoin="miter" stroke-miterlimit="4" stroke-opacity="1" stroke-width="1.9825" transform="matrix(1.81818,0,0,1.81818,16.3636,1.81818)"><path d="M29.674,38.3893 C29.4528,38.8339 29.1237,39.2141 28.7179,39.4944 C28.312,39.7747 27.8425,39.9458 27.3536,39.9915" fill-rule="nonzero" vector-effect="none"/></g><defs><clipPath id="clip118"><path d="M1,1 L91,1 L91,61 L1,61 L1,1 z"/></clipPath></defs><g clip-path="url(#clip118)" fill="none" opacity="1" stroke="#b09952" stroke-linecap="butt" stroke-linejoin="miter" stroke-miterlimit="4" stroke-opacity="1" stroke-width="1.9825" transform="matrix(1.81818,0,0,1.81818,16.3636,1.81818)"><path d="M29.3425,25.661 C30.5074,27.6009 31.1508,29.8164 31.209,32.0868 C31.2672,34.3572 30.7379,36.6035 29.674,38.6022" fill-rule="nonzero" vector-effect="none"/></g><defs><clipPath id="clip119"><path d="M1,1 L91,1 L91,61 L1,61 L1,1 z"/></clipPath></defs><g clip-path="url(#clip119)" fill="none" opacity="1" stroke="#b09952" stroke-linecap="butt" stroke-linejoin="miter" stroke-miterlimit="4" stroke-opacity="1" stroke-width="1.9825" transform="matrix(1.81818,0,0,1.81818,16.3636,1.81818)"><path d="M29.8398,24.731 C30.2149,24.7079 30.5897,24.7809 30.9296,24.9434 C31.2696,25.106 31.5635,25.3527 31.7845,25.661" fill-rule="nonzero" vector-effect="none"/></g><defs><clipPath id="clip120"><path d="M1,1 L91,1 L91,61 L1,61 L1,1 z"/></clipPath></defs><g clip-path="url(#clip120)" fill="none" opacity="1" stroke="#b09952" stroke-linecap="butt" stroke-linejoin="miter" stroke-miterlimit="4" stroke-opacity="1" stroke-width="1.9825" transform="matrix(1.81818,0,0,1.81818,16.3636,1.81818)"><path d="M32.1602,38.3893 C31.939,38.8339 31.6099,39.2141 31.204,39.4944 C30.7981,39.7747 30.3287,39.9458 29.8398,39.9915" fill-rule="nonzero" vector-effect="none"/></g><defs><clipPath id="clip121"><path d="M1,1 L91,1 L91,61 L1,61 L1,1 z"/></clipPath></defs><g clip-path="url(#clip121)" fill="none" opacity="1" stroke="#b09952" stroke-linecap="butt" stroke-linejoin="miter" stroke-miterlimit="4" stroke-opacity="1" stroke-width="1.9825" transform="matrix(1.81818,0,0,1.81818,16.3636,1.81818)"><path d="M31.8287,25.661 C32.9935,27.6009 33.637,29.8164 33.6952,32.0868 C33.7534,34.3572 33.2241,36.6035 32.1602,38.6022" fill-rule="nonzero" vector-effect="none"/></g><defs><clipPath id="clip122"><path d="M1,1 L91,1 L91,61 L1,61 L1,1 z"/></clipPath></defs><g clip-path="url(#clip122)" fill="none" opacity="1" stroke="#b09952" stroke-linecap="butt" stroke-linejoin="miter" stroke-miterlimit="4" stroke-opacity="1" stroke-width="1.9825" transform="matrix(1.81818,0,0,1.81818,16.3636,1.81818)"><path d="M28.9779,32.3053 C28.9779,36.5317 27.2464,39.9579 25.1105,39.9579 C22.9746,39.9579 21.2431,36.5317 21.2431,32.3053 C21.2431,28.0788 22.9746,24.6526 25.1105,24.6526 C27.2464,24.6526 28.9779,28.0788 28.9779,32.3053 z" fill-rule="nonzero" vector-effect="none"/></g><defs><clipPath id="clip123"><path d="M1,1 L91,1 L91,61 L1,61 L1,1 z"/></clipPath></defs><g clip-path="url(#clip123)" fill="none" opacity="1" stroke="#ffffff" stroke-linecap="butt" stroke-linejoin="miter" stroke-miterlimit="20" stroke-opacity="1" stroke-width="1.9825" transform="matrix(1.81818,0,0,1.81818,16.3636,1.81818)"><path d="M1.99447,0.999997 L91,0.999997 L91,60.9999 L1.99447,60.9999 L1.99447,0.999997 z" fill-rule="nonzero" vector-effect="none"/></g><defs><clipPath id="clip124"><path d="M1,1 L91,1 L91,61 L1,61 L1,1 z"/></clipPath></defs><g clip-path="url(#clip124)" fill="none" opacity="1" stroke="#a06c70" stroke-linecap="butt" stroke-linejoin="miter" stroke-miterlimit="20" stroke-opacity="1" stroke-width="1.9825" transform="matrix(1.81818,0,0,1.81818,16.3636,1.81818)"><path d="M91,16.126 L66.1381,16.126 L66.1381,24.6974" fill-rule="nonzero" vector-effect="none"/></g><defs><clipPath id="clip125"><path d="M1,1 L91,1 L91,61 L1,61 L1,1 z"/></clipPath></defs><g clip-path="url(#clip125)" fill="none" opacity="1" stroke="#a06c70" stroke-linecap="butt" stroke-linejoin="miter" stroke-miterlimit="20" stroke-opacity="1" stroke-width="1.9825" transform="matrix(1.81818,0,0,1.81818,16.3636,1.81818)"><path d="M1.49724,16.126 L24.8674,16.126 L24.8674,24.6974" fill-rule="nonzero" vector-effect="none"/></g><defs><clipPath id="clip142"><path d="M-445,-230 L16,-230 L16,77 L-445,77 L-445,-230 z"/></clipPath></defs><g clip-path="url(#clip142)" fill="none" opacity="1" stroke="#e60000" stroke-linecap="square" stroke-linejoin="bevel" stroke-opacity="1" stroke-width="1" transform="matrix(0.355114,0,0,0.355114,176.364,85.4545)"><text fill="#e60000" fill-opacity="1" font-family="Liberation Sans" font-size="40" font-style="normal" font-weight="400" stroke="none" textLength="27" x="-34.125" xml:space="preserve" y="17.9219">B</text></g><defs><clipPath id="clip145"><path d="M-445,-77 L16,-77 L16,230 L-445,230 L-445,-77 z"/></clipPath></defs><g clip-path="url(#clip145)" fill="none" opacity="1" stroke="#e60000" stroke-linecap="square" stroke-linejoin="bevel" stroke-opacity="1" stroke-width="1" transform="matrix(0.355114,0,0,0.355114,176.364,30.9091)"><text fill="#e60000" fill-opacity="1" font-family="Liberation Sans" font-size="40" font-style="normal" font-weight="400" stroke="none" textLength="79" x="-102.406" xml:space="preserve" y="17.9219">el_B</text></g><defs><clipPath id="clip148"><path d="M-15,-230 L446,-230 L446,77 L-15,77 L-15,-230 z"/></clipPath></defs><g clip-path="url(#clip148)" fill="none" opacity="1" stroke="#e60000" stroke-linecap="square" stroke-linejoin="bevel" stroke-opacity="1" stroke-width="1" transform="matrix(0.355114,0,0,0.355114,23.6364,85.4545)"><text fill="#e60000" fill-opacity="1" font-family="Liberation Sans" font-size="40" font-style="normal" font-weight="400" stroke="none" textLength="27" x="0" xml:space="preserve" y="17.9219">A</text></g><defs><clipPath id="clip151"><path d="M-15,-77 L446,-77 L446,230 L-15,230 L-15,-77 z"/></clipPath></defs><g clip-path="url(#clip151)" fill="none" opacity="1" stroke="#e60000" stroke-linecap="square" stroke-linejoin="bevel" stroke-opacity="1" stroke-width="1" transform="matrix(0.355114,0,0,0.355114,23.6364,30.9091)"><text fill="#e60000" fill-opacity="1" font-family="Liberation Sans" font-size="40" font-style="normal" font-weight="400" stroke="none" textLength="79" x="0" xml:space="preserve" y="17.9219">el_A</text></g><defs><clipPath id="clip157"><path d="M-10,-2 L100,-2 L100,62 L-10,62 L-10,-2 z"/></clipPath></defs><g clip-path="url(#clip157)" fill="none" opacity="1" stroke="none" stroke-opacity="0" transform="matrix(1.81818,0,0,1.81818,18.1818,3.63636)"><path d="M0,0 L90,0 L90,60 L0,60 L0,0 z" fill-rule="evenodd" vector-effect="none"/></g></g></svg>
