<?xml version="1.0" encoding="UTF-8"?><svg width="52.9167mm" height="30.9562mm" viewBox="0 0 200 117" xmlns="http://www.w3.org/2000/svg" xmlns:xlink="http://www.w3.org/1999/xlink"><g fill="none" stroke="black" stroke-width="1" fill-rule="evenodd" stroke-linecap="square" stroke-linejoin="bevel"><g clip-path="none" fill="none" opacity="1" stroke="none" stroke-opacity="0" transform="matrix(1,0,0,1,0,0)"><path d="M0,0 L200,0 L200,117 L0,117 L0,0 z" fill-rule="evenodd" vector-effect="none"/></g><defs><clipPath id="clip6"><path d="M0,0 L10,0 L10,10 L0,10 L0,0 z"/></clipPath></defs><g clip-path="url(#clip6)" fill="#b3b3b3" fill-opacity="1" opacity="1" stroke="none" stroke-opacity="0" transform="matrix(2.22222,0,0,2.22222,177.778,55.5556)"><path d="M0.5,3.5 L3.5,3.5 L3.5,6.5 L0.5,6.5 L0.5,3.5 z" fill-rule="evenodd" vector-effect="none"/></g><defs><clipPath id="clip8"><path d="M0,0 L10,0 L10,10 L0,10 L0,0 z"/></clipPath></defs><g clip-path="url(#clip8)" fill="#000000" fill-opacity="1" opacity="1" stroke="none" stroke-opacity="0" transform="matrix(2.22222,0,0,2.22222,177.778,55.5556)"><path d="M3,4 L3,6 L1,6 L1,4 L3,4 M4,3 L0,3 L0,7 L4,7 L4,3" fill-rule="nonzero" vector-effect="none"/></g><defs><clipPath id="clip29"><path d="M0,0 L10,0 L10,10 L0,10 L0,0 z"/></clipPath></defs><g clip-path="url(#clip29)" fill="#ffffff" fill-opacity="1" opacity="1" stroke="none" stroke-opacity="0" transform="matrix(2.22222,0,0,2.22222,-4.9738e-14,22.2222)"><path d="M8.882,5 L0.5,9.191 L0.5,0.809 L8.882,5 z" fill-rule="evenodd" vector-effect="none"/></g><defs><clipPath id="clip31"><path d="M0,0 L10,0 L10,10 L0,10 L0,0 z"/></clipPath></defs><g clip-path="url(#clip31)" fill="#000000" fill-opacity="1" opacity="1" stroke="none" stroke-opacity="0" transform="matrix(2.22222,0,0,2.22222,-4.9738e-14,22.2222)"><path d="M1,1.618 L7.764,5 L1,8.382 L1,1.618 M0,0 L0,10 L10,5 L0,0" fill-rule="nonzero" vector-effect="none"/></g><defs><clipPath id="clip53"><path d="M0,0 L10,0 L10,10 L0,10 L0,0 z"/></clipPath></defs><g clip-path="url(#clip53)" fill="#b3b3b3" fill-opacity="1" opacity="1" stroke="none" stroke-opacity="0" transform="matrix(-2.22222,0,0,2.22222,22.2222,77.7778)"><path d="M0.5,3.5 L3.5,3.5 L3.5,6.5 L0.5,6.5 L0.5,3.5 z" fill-rule="evenodd" vector-effect="none"/></g><defs><clipPath id="clip55"><path d="M0,0 L10,0 L10,10 L0,10 L0,0 z"/></clipPath></defs><g clip-path="url(#clip55)" fill="#000000" fill-opacity="1" opacity="1" stroke="none" stroke-opacity="0" transform="matrix(-2.22222,0,0,2.22222,22.2222,77.7778)"><path d="M3,4 L3,6 L1,6 L1,4 L3,4 M4,3 L0,3 L0,7 L4,7 L4,3" fill-rule="nonzero" vector-effect="none"/></g><defs><clipPath id="clip72"><path d="M-10,-2 L80,-2 L80,51 L-10,51 L-10,-2 z"/></clipPath></defs><g clip-path="url(#clip72)" fill="#ffffff" fill-opacity="1" opacity="1" stroke="none" stroke-opacity="0" transform="matrix(2.22222,0,0,2.22222,22.2222,4.44444)"><path d="M0,0 L70,0 L70,49 L0,49 L0,0 z" fill-rule="evenodd" vector-effect="none"/></g><defs><clipPath id="clip76"><path d="M0,0 L70,0 L70,49 L0,49 L0,0 z"/></clipPath></defs><g clip-path="url(#clip76)" fill="none" opacity="1" stroke="none" stroke-opacity="0" transform="matrix(2.22222,0,0,2.22222,22.2222,4.44444)"><path d="M0,0 L70,0 L70,49 L0,49 L0,0 z" fill-rule="evenodd" vector-effect="none"/></g><defs><clipPath id="clip86"><path d="M1,1 L71,1 L71,50 L1,50 L1,1 z"/></clipPath></defs><g clip-path="url(#clip86)" fill="none" opacity="1" stroke="#b09952" stroke-linecap="butt" stroke-linejoin="miter" stroke-miterlimit="4" stroke-opacity="1" stroke-width="1.625" transform="matrix(2.22222,0,0,2.22222,20,2.22222)"><path d="M35.7548,25.8414 C35.7548,30.3525 31.6045,34.0095 26.4849,34.0095 C21.3652,34.0095 17.215,30.3525 17.215,25.8414 C17.215,21.3303 21.3652,17.6733 26.4849,17.6733 C31.6045,17.6733 35.7548,21.3303 35.7548,25.8414 z" fill-rule="nonzero" vector-effect="none"/></g><defs><clipPath id="clip87"><path d="M1,1 L71,1 L71,50 L1,50 L1,1 z"/></clipPath></defs><g clip-path="url(#clip87)" fill="none" opacity="1" stroke="#b09952" stroke-linecap="butt" stroke-linejoin="miter" stroke-miterlimit="4" stroke-opacity="1" stroke-width="1.625" transform="matrix(2.22222,0,0,2.22222,20,2.22222)"><path d="M52.9703,25.8414 C52.9703,31.7417 47.542,36.5248 40.8459,36.5248 C34.1497,36.5248 28.7214,31.7417 28.7214,25.8414 C28.7214,19.9412 34.1497,15.1581 40.8459,15.1581 C47.542,15.1581 52.9703,19.9412 52.9703,25.8414 z" fill-rule="nonzero" vector-effect="none"/></g><defs><clipPath id="clip88"><path d="M1,1 L71,1 L71,50 L1,50 L1,1 z"/></clipPath></defs><g clip-path="url(#clip88)" fill="none" opacity="1" stroke="#b09952" stroke-linecap="butt" stroke-linejoin="miter" stroke-miterlimit="4" stroke-opacity="1" stroke-width="1.625" transform="matrix(2.22222,0,0,2.22222,20,2.22222)"><path d="M12.5849,5.42547 L58.9246,5.42547 L58.9246,46.2574 L12.5849,46.2574 L12.5849,5.42547 z" fill-rule="nonzero" vector-effect="none"/></g><defs><clipPath id="clip89"><path d="M1,1 L71,1 L71,50 L1,50 L1,1 z"/></clipPath></defs><g clip-path="url(#clip89)" fill="none" opacity="1" stroke="#b09952" stroke-linecap="butt" stroke-linejoin="miter" stroke-miterlimit="4" stroke-opacity="1" stroke-width="1.625" transform="matrix(2.22222,0,0,2.22222,20,2.22222)"><path d="M12.5849,37.7781 L1,37.7781" fill-rule="nonzero" vector-effect="none"/></g><defs><clipPath id="clip90"><path d="M1,1 L71,1 L71,50 L1,50 L1,1 z"/></clipPath></defs><g clip-path="url(#clip90)" fill="none" opacity="1" stroke="#a06c70" stroke-linecap="butt" stroke-linejoin="miter" stroke-miterlimit="4" stroke-opacity="1" stroke-width="1.625" transform="matrix(2.22222,0,0,2.22222,20,2.22222)"><path d="M12.5849,13.2133 L1,13.2133" fill-rule="nonzero" vector-effect="none"/></g><defs><clipPath id="clip91"><path d="M1,1 L71,1 L71,50 L1,50 L1,1 z"/></clipPath></defs><g clip-path="url(#clip91)" fill="none" opacity="1" stroke="#b09952" stroke-linecap="butt" stroke-linejoin="miter" stroke-miterlimit="4" stroke-opacity="1" stroke-width="1.625" transform="matrix(2.22222,0,0,2.22222,20,2.22222)"><path d="M58.9246,25.8414 L71,25.8414" fill-rule="nonzero" vector-effect="none"/></g><defs><clipPath id="clip92"><path d="M1,1 L71,1 L71,50 L1,50 L1,1 z"/></clipPath></defs><g clip-path="url(#clip92)" fill="none" opacity="1" stroke="#b09952" stroke-linecap="butt" stroke-linejoin="miter" stroke-miterlimit="4" stroke-opacity="1" stroke-width="1.625" transform="matrix(2.22222,0,0,2.22222,20,2.22222)"><path d="M33.4299,20.1194 L28.7999,23.3867" fill-rule="nonzero" vector-effect="none"/></g><defs><clipPath id="clip93"><path d="M1,1 L71,1 L71,50 L1,50 L1,1 z"/></clipPath></defs><g clip-path="url(#clip93)" fill="none" opacity="1" stroke="#b09952" stroke-linecap="butt" stroke-linejoin="miter" stroke-miterlimit="4" stroke-opacity="1" stroke-width="1.625" transform="matrix(2.22222,0,0,2.22222,20,2.22222)"><path d="M28.7999,25.8414 L34.8229,21.753" fill-rule="nonzero" vector-effect="none"/></g><defs><clipPath id="clip94"><path d="M1,1 L71,1 L71,50 L1,50 L1,1 z"/></clipPath></defs><g clip-path="url(#clip94)" fill="none" opacity="1" stroke="#b09952" stroke-linecap="butt" stroke-linejoin="miter" stroke-miterlimit="4" stroke-opacity="1" stroke-width="1.625" transform="matrix(2.22222,0,0,2.22222,20,2.22222)"><path d="M28.7999,27.8813 L35.2839,23.7929" fill-rule="nonzero" vector-effect="none"/></g><defs><clipPath id="clip95"><path d="M1,1 L71,1 L71,50 L1,50 L1,1 z"/></clipPath></defs><g clip-path="url(#clip95)" fill="none" opacity="1" stroke="#b09952" stroke-linecap="butt" stroke-linejoin="miter" stroke-miterlimit="4" stroke-opacity="1" stroke-width="1.625" transform="matrix(2.22222,0,0,2.22222,20,2.22222)"><path d="M29.7318,29.5149 L35.7548,25.8414" fill-rule="nonzero" vector-effect="none"/></g><defs><clipPath id="clip96"><path d="M1,1 L71,1 L71,50 L1,50 L1,1 z"/></clipPath></defs><g clip-path="url(#clip96)" fill="none" opacity="1" stroke="#b09952" stroke-linecap="butt" stroke-linejoin="miter" stroke-miterlimit="4" stroke-opacity="1" stroke-width="1.625" transform="matrix(2.22222,0,0,2.22222,20,2.22222)"><path d="M30.6539,31.1485 L35.2839,28.2875" fill-rule="nonzero" vector-effect="none"/></g><defs><clipPath id="clip97"><path d="M1,1 L71,1 L71,50 L1,50 L1,1 z"/></clipPath></defs><g clip-path="url(#clip97)" fill="none" opacity="1" stroke="#b09952" stroke-linecap="butt" stroke-linejoin="miter" stroke-miterlimit="4" stroke-opacity="1" stroke-width="1.625" transform="matrix(2.22222,0,0,2.22222,20,2.22222)"><path d="M30.6539,20.1194 L32.0468,19.3069" fill-rule="nonzero" vector-effect="none"/></g><defs><clipPath id="clip98"><path d="M1,1 L71,1 L71,50 L1,50 L1,1 z"/></clipPath></defs><g clip-path="url(#clip98)" fill="none" opacity="1" stroke="#b09952" stroke-linecap="butt" stroke-linejoin="miter" stroke-miterlimit="4" stroke-opacity="1" stroke-width="1.625" transform="matrix(2.22222,0,0,2.22222,20,2.22222)"><path d="M31.5858,32.3759 L32.9689,31.5548" fill-rule="nonzero" vector-effect="none"/></g><defs><clipPath id="clip99"><path d="M1,1 L71,1 L71,50 L1,50 L1,1 z"/></clipPath></defs><g clip-path="url(#clip99)" fill="none" opacity="1" stroke="#b09952" stroke-linecap="butt" stroke-linejoin="miter" stroke-miterlimit="4" stroke-opacity="1" stroke-width="1.625" transform="matrix(2.22222,0,0,2.22222,20,2.22222)"><path d="M15.822,25.8414 L20.4619,25.8414" fill-rule="nonzero" vector-effect="none"/></g><defs><clipPath id="clip100"><path d="M1,1 L71,1 L71,50 L1,50 L1,1 z"/></clipPath></defs><g clip-path="url(#clip100)" fill="none" opacity="1" stroke="#b09952" stroke-linecap="butt" stroke-linejoin="miter" stroke-miterlimit="4" stroke-opacity="1" stroke-width="1.625" transform="matrix(2.22222,0,0,2.22222,20,2.22222)"><path d="M21.845,25.8414 L22.7769,25.8414" fill-rule="nonzero" vector-effect="none"/></g><defs><clipPath id="clip101"><path d="M1,1 L71,1 L71,50 L1,50 L1,1 z"/></clipPath></defs><g clip-path="url(#clip101)" fill="none" opacity="1" stroke="#b09952" stroke-linecap="butt" stroke-linejoin="miter" stroke-miterlimit="4" stroke-opacity="1" stroke-width="1.625" transform="matrix(2.22222,0,0,2.22222,20,2.22222)"><path d="M24.1698,25.8414 L37.6088,25.8414" fill-rule="nonzero" vector-effect="none"/></g><defs><clipPath id="clip102"><path d="M1,1 L71,1 L71,50 L1,50 L1,1 z"/></clipPath></defs><g clip-path="url(#clip102)" fill="none" opacity="1" stroke="#b09952" stroke-linecap="butt" stroke-linejoin="miter" stroke-miterlimit="4" stroke-opacity="1" stroke-width="1.625" transform="matrix(2.22222,0,0,2.22222,20,2.22222)"><path d="M38.9919,25.8414 L39.4627,25.8414" fill-rule="nonzero" vector-effect="none"/></g><defs><clipPath id="clip103"><path d="M1,1 L71,1 L71,50 L1,50 L1,1 z"/></clipPath></defs><g clip-path="url(#clip103)" fill="none" opacity="1" stroke="#b09952" stroke-linecap="butt" stroke-linejoin="miter" stroke-miterlimit="4" stroke-opacity="1" stroke-width="1.625" transform="matrix(2.22222,0,0,2.22222,20,2.22222)"><path d="M41.3167,25.8414 L48.7326,25.8414" fill-rule="nonzero" vector-effect="none"/></g><defs><clipPath id="clip104"><path d="M1,1 L71,1 L71,50 L1,50 L1,1 z"/></clipPath></defs><g clip-path="url(#clip104)" fill="none" opacity="1" stroke="#b09952" stroke-linecap="butt" stroke-linejoin="miter" stroke-miterlimit="4" stroke-opacity="1" stroke-width="1.625" transform="matrix(2.22222,0,0,2.22222,20,2.22222)"><path d="M49.6547,25.8414 L50.5866,25.8414" fill-rule="nonzero" vector-effect="none"/></g><defs><clipPath id="clip105"><path d="M1,1 L71,1 L71,50 L1,50 L1,1 z"/></clipPath></defs><g clip-path="url(#clip105)" fill="none" opacity="1" stroke="#b09952" stroke-linecap="butt" stroke-linejoin="miter" stroke-miterlimit="4" stroke-opacity="1" stroke-width="1.625" transform="matrix(2.22222,0,0,2.22222,20,2.22222)"><path d="M51.5087,25.8414 L54.7556,25.8414" fill-rule="nonzero" vector-effect="none"/></g><defs><clipPath id="clip106"><path d="M1,1 L71,1 L71,50 L1,50 L1,1 z"/></clipPath></defs><g clip-path="url(#clip106)" fill="none" opacity="1" stroke="#b09952" stroke-linecap="butt" stroke-linejoin="miter" stroke-miterlimit="4" stroke-opacity="1" stroke-width="1.625" transform="matrix(2.22222,0,0,2.22222,20,2.22222)"><path d="M40.3848,13.9998 L40.3848,22.5742" fill-rule="nonzero" vector-effect="none"/></g><defs><clipPath id="clip107"><path d="M1,1 L71,1 L71,50 L1,50 L1,1 z"/></clipPath></defs><g clip-path="url(#clip107)" fill="none" opacity="1" stroke="#b09952" stroke-linecap="butt" stroke-linejoin="miter" stroke-miterlimit="4" stroke-opacity="1" stroke-width="1.625" transform="matrix(2.22222,0,0,2.22222,20,2.22222)"><path d="M40.3848,23.7929 L40.3848,24.614" fill-rule="nonzero" vector-effect="none"/></g><defs><clipPath id="clip108"><path d="M1,1 L71,1 L71,50 L1,50 L1,1 z"/></clipPath></defs><g clip-path="url(#clip108)" fill="none" opacity="1" stroke="#b09952" stroke-linecap="butt" stroke-linejoin="miter" stroke-miterlimit="4" stroke-opacity="1" stroke-width="1.625" transform="matrix(2.22222,0,0,2.22222,20,2.22222)"><path d="M40.3848,25.4265 L40.3848,33.1884" fill-rule="nonzero" vector-effect="none"/></g><defs><clipPath id="clip109"><path d="M1,1 L71,1 L71,50 L1,50 L1,1 z"/></clipPath></defs><g clip-path="url(#clip109)" fill="none" opacity="1" stroke="#b09952" stroke-linecap="butt" stroke-linejoin="miter" stroke-miterlimit="4" stroke-opacity="1" stroke-width="1.625" transform="matrix(2.22222,0,0,2.22222,20,2.22222)"><path d="M40.3848,34.0095 L40.3848,34.4158" fill-rule="nonzero" vector-effect="none"/></g><defs><clipPath id="clip110"><path d="M1,1 L71,1 L71,50 L1,50 L1,1 z"/></clipPath></defs><g clip-path="url(#clip110)" fill="none" opacity="1" stroke="#b09952" stroke-linecap="butt" stroke-linejoin="miter" stroke-miterlimit="4" stroke-opacity="1" stroke-width="1.625" transform="matrix(2.22222,0,0,2.22222,20,2.22222)"><path d="M40.3848,35.6432 L40.3848,38.4955" fill-rule="nonzero" vector-effect="none"/></g><defs><clipPath id="clip111"><path d="M1,1 L71,1 L71,50 L1,50 L1,1 z"/></clipPath></defs><g clip-path="url(#clip111)" fill="none" opacity="1" stroke="#b09952" stroke-linecap="butt" stroke-linejoin="miter" stroke-miterlimit="4" stroke-opacity="1" stroke-width="1.625" transform="matrix(2.22222,0,0,2.22222,20,2.22222)"><path d="M26.4849,16.8522 L26.4849,23.7929" fill-rule="nonzero" vector-effect="none"/></g><defs><clipPath id="clip112"><path d="M1,1 L71,1 L71,50 L1,50 L1,1 z"/></clipPath></defs><g clip-path="url(#clip112)" fill="none" opacity="1" stroke="#b09952" stroke-linecap="butt" stroke-linejoin="miter" stroke-miterlimit="4" stroke-opacity="1" stroke-width="1.625" transform="matrix(2.22222,0,0,2.22222,20,2.22222)"><path d="M26.4849,24.614 L26.4849,25.0203" fill-rule="nonzero" vector-effect="none"/></g><defs><clipPath id="clip113"><path d="M1,1 L71,1 L71,50 L1,50 L1,1 z"/></clipPath></defs><g clip-path="url(#clip113)" fill="none" opacity="1" stroke="#b09952" stroke-linecap="butt" stroke-linejoin="miter" stroke-miterlimit="4" stroke-opacity="1" stroke-width="1.625" transform="matrix(2.22222,0,0,2.22222,20,2.22222)"><path d="M26.4849,25.4265 L26.4849,31.961" fill-rule="nonzero" vector-effect="none"/></g><defs><clipPath id="clip114"><path d="M1,1 L71,1 L71,50 L1,50 L1,1 z"/></clipPath></defs><g clip-path="url(#clip114)" fill="none" opacity="1" stroke="#b09952" stroke-linecap="butt" stroke-linejoin="miter" stroke-miterlimit="4" stroke-opacity="1" stroke-width="1.625" transform="matrix(2.22222,0,0,2.22222,20,2.22222)"><path d="M26.4849,32.7822 L26.4849,33.1884" fill-rule="nonzero" vector-effect="none"/></g><defs><clipPath id="clip115"><path d="M1,1 L71,1 L71,50 L1,50 L1,1 z"/></clipPath></defs><g clip-path="url(#clip115)" fill="none" opacity="1" stroke="#b09952" stroke-linecap="butt" stroke-linejoin="miter" stroke-miterlimit="4" stroke-opacity="1" stroke-width="1.625" transform="matrix(2.22222,0,0,2.22222,20,2.22222)"><path d="M26.4849,34.0095 L26.4849,35.6432" fill-rule="nonzero" vector-effect="none"/></g><defs><clipPath id="clip116"><path d="M1,1 L71,1 L71,50 L1,50 L1,1 z"/></clipPath></defs><g clip-path="url(#clip116)" fill="none" opacity="1" stroke="#ffffff" stroke-linecap="butt" stroke-linejoin="miter" stroke-miterlimit="4" stroke-opacity="1" stroke-width="1.625" transform="matrix(2.22222,0,0,2.22222,20,2.22222)"><path d="M1,1 L70.9706,1 L70.9706,50 L1,50 L1,1 z" fill-rule="nonzero" vector-effect="none"/></g><defs><clipPath id="clip133"><path d="M-343,-138 L15,-138 L15,113 L-343,113 L-343,-138 z"/></clipPath></defs><g clip-path="url(#clip133)" fill="none" opacity="1" stroke="#e60000" stroke-linecap="square" stroke-linejoin="bevel" stroke-opacity="1" stroke-width="1" transform="matrix(0.434028,0,0,0.434028,171.111,64.4444)"><text fill="#e60000" fill-opacity="1" font-family="Liberation Sans" font-size="40" font-style="normal" font-weight="400" stroke="none" textLength="27" x="-34.125" xml:space="preserve" y="17.9219">B</text></g><defs><clipPath id="clip136"><path d="M-15,-189 L343,-189 L343,62 L-15,62 L-15,-189 z"/></clipPath></defs><g clip-path="url(#clip136)" fill="none" opacity="1" stroke="#e60000" stroke-linecap="square" stroke-linejoin="bevel" stroke-opacity="1" stroke-width="1" transform="matrix(0.434028,0,0,0.434028,28.8889,86.6667)"><text fill="#e60000" fill-opacity="1" font-family="Liberation Sans" font-size="40" font-style="normal" font-weight="400" stroke="none" textLength="27" x="0" xml:space="preserve" y="17.9219">A</text></g><defs><clipPath id="clip139"><path d="M-15,-61 L343,-61 L343,190 L-15,190 L-15,-61 z"/></clipPath></defs><g clip-path="url(#clip139)" fill="none" opacity="1" stroke="#e60000" stroke-linecap="square" stroke-linejoin="bevel" stroke-opacity="1" stroke-width="1" transform="matrix(0.434028,0,0,0.434028,28.8889,31.1111)"><text fill="#e60000" fill-opacity="1" font-family="Liberation Sans" font-size="40" font-style="normal" font-weight="400" stroke="none" textLength="27" x="0" xml:space="preserve" y="17.9219">S</text></g><defs><clipPath id="clip145"><path d="M-10,-2 L80,-2 L80,51 L-10,51 L-10,-2 z"/></clipPath></defs><g clip-path="url(#clip145)" fill="none" opacity="1" stroke="none" stroke-opacity="0" transform="matrix(2.22222,0,0,2.22222,22.2222,4.44444)"><path d="M0,0 L70,0 L70,49 L0,49 L0,0 z" fill-rule="evenodd" vector-effect="none"/></g></g></svg>
