<?xml version="1.0" encoding="UTF-8"?><svg width="30.9562mm" height="52.9167mm" viewBox="0 0 117 200" xmlns="http://www.w3.org/2000/svg" xmlns:xlink="http://www.w3.org/1999/xlink"><g fill="none" stroke="black" stroke-width="1" fill-rule="evenodd" stroke-linecap="square" stroke-linejoin="bevel"><g clip-path="none" fill="none" opacity="1" stroke="none" stroke-opacity="0" transform="matrix(1,0,0,1,0,0)"><path d="M0,0 L117,0 L117,200 L0,200 L0,0 z" fill-rule="evenodd" vector-effect="none"/></g><defs><clipPath id="clip6"><path d="M0,0 L10,0 L10,10 L0,10 L0,0 z"/></clipPath></defs><g clip-path="url(#clip6)" fill="#b3b3b3" fill-opacity="1" opacity="1" stroke="none" stroke-opacity="0" transform="matrix(-4.08202e-16,2.22222,-2.22222,-4.08202e-16,95.5556,177.778)"><path d="M0.5,3.5 L3.5,3.5 L3.5,6.5 L0.5,6.5 L0.5,3.5 z" fill-rule="evenodd" vector-effect="none"/></g><defs><clipPath id="clip8"><path d="M0,0 L10,0 L10,10 L0,10 L0,0 z"/></clipPath></defs><g clip-path="url(#clip8)" fill="#000000" fill-opacity="1" opacity="1" stroke="none" stroke-opacity="0" transform="matrix(-4.08202e-16,2.22222,-2.22222,-4.08202e-16,95.5556,177.778)"><path d="M3,4 L3,6 L1,6 L1,4 L3,4 M4,3 L0,3 L0,7 L4,7 L4,3" fill-rule="nonzero" vector-effect="none"/></g><defs><clipPath id="clip29"><path d="M0,0 L10,0 L10,10 L0,10 L0,0 z"/></clipPath></defs><g clip-path="url(#clip29)" fill="#ffffff" fill-opacity="1" opacity="1" stroke="none" stroke-opacity="0" transform="matrix(4.08202e-16,-2.22222,-2.22222,-4.08202e-16,40,200)"><path d="M8.882,5 L0.5,9.191 L0.5,0.809 L8.882,5 z" fill-rule="evenodd" vector-effect="none"/></g><defs><clipPath id="clip31"><path d="M0,0 L10,0 L10,10 L0,10 L0,0 z"/></clipPath></defs><g clip-path="url(#clip31)" fill="#000000" fill-opacity="1" opacity="1" stroke="none" stroke-opacity="0" transform="matrix(4.08202e-16,-2.22222,-2.22222,-4.08202e-16,40,200)"><path d="M1,1.618 L7.764,5 L1,8.382 L1,1.618 M0,0 L0,10 L10,5 L0,0" fill-rule="nonzero" vector-effect="none"/></g><defs><clipPath id="clip53"><path d="M0,0 L10,0 L10,10 L0,10 L0,0 z"/></clipPath></defs><g clip-path="url(#clip53)" fill="#b3b3b3" fill-opacity="1" opacity="1" stroke="none" stroke-opacity="0" transform="matrix(1.36067e-16,-2.22222,2.22222,1.36067e-16,55.5556,22.2222)"><path d="M0.5,3.5 L3.5,3.5 L3.5,6.5 L0.5,6.5 L0.5,3.5 z" fill-rule="evenodd" vector-effect="none"/></g><defs><clipPath id="clip55"><path d="M0,0 L10,0 L10,10 L0,10 L0,0 z"/></clipPath></defs><g clip-path="url(#clip55)" fill="#000000" fill-opacity="1" opacity="1" stroke="none" stroke-opacity="0" transform="matrix(1.36067e-16,-2.22222,2.22222,1.36067e-16,55.5556,22.2222)"><path d="M3,4 L3,6 L1,6 L1,4 L3,4 M4,3 L0,3 L0,7 L4,7 L4,3" fill-rule="nonzero" vector-effect="none"/></g><defs><clipPath id="clip72"><path d="M-2,-10 L51,-10 L51,80 L-2,80 L-2,-10 z"/></clipPath></defs><g clip-path="url(#clip72)" fill="#ffffff" fill-opacity="1" opacity="1" stroke="none" stroke-opacity="0" transform="matrix(2.22222,0,0,2.22222,4.44444,22.2222)"><path d="M0,0 L49,0 L49,70 L0,70 L0,0 z" fill-rule="evenodd" vector-effect="none"/></g><defs><clipPath id="clip76"><path d="M0,0 L49,0 L49,70 L0,70 L0,0 z"/></clipPath></defs><g clip-path="url(#clip76)" fill="none" opacity="1" stroke="none" stroke-opacity="0" transform="matrix(2.22222,0,0,2.22222,4.44444,22.2222)"><path d="M0,0 L49,0 L49,70 L0,70 L0,0 z" fill-rule="evenodd" vector-effect="none"/></g><defs><clipPath id="clip86"><path d="M1,1 L71,1 L71,50 L1,50 L1,1 z"/></clipPath></defs><g clip-path="url(#clip86)" fill="none" opacity="1" stroke="#b09952" stroke-linecap="butt" stroke-linejoin="miter" stroke-miterlimit="20" stroke-opacity="1" stroke-width="3.3475" transform="matrix(4.08202e-16,2.22222,2.22222,-4.08202e-16,2.22222,20)"><path d="M19.6667,21.8251 L55.7273,28.3584" fill-rule="nonzero" vector-effect="none"/></g><defs><clipPath id="clip87"><path d="M1,1 L71,1 L71,50 L1,50 L1,1 z"/></clipPath></defs><g clip-path="url(#clip87)" fill="none" opacity="1" stroke="#b09952" stroke-linecap="butt" stroke-linejoin="miter" stroke-miterlimit="20" stroke-opacity="1" stroke-width="3.3475" transform="matrix(4.08202e-16,2.22222,2.22222,-4.08202e-16,2.22222,20)"><path d="M16.2727,34.0751 L52.3334,40.6085" fill-rule="nonzero" vector-effect="none"/></g><defs><clipPath id="clip88"><path d="M1,1 L71,1 L71,50 L1,50 L1,1 z"/></clipPath></defs><g clip-path="url(#clip88)" fill="none" opacity="1" stroke="#b09952" stroke-linecap="butt" stroke-linejoin="miter" stroke-miterlimit="20" stroke-opacity="1" stroke-width="3.3475" transform="matrix(4.08202e-16,2.22222,2.22222,-4.08202e-16,2.22222,20)"><path d="M1,25.5001 L15,27.9501" fill-rule="nonzero" vector-effect="none"/></g><defs><clipPath id="clip89"><path d="M1,1 L71,1 L71,50 L1,50 L1,1 z"/></clipPath></defs><g clip-path="url(#clip89)" fill="none" opacity="1" stroke="#b09952" stroke-linecap="butt" stroke-linejoin="miter" stroke-miterlimit="20" stroke-opacity="1" stroke-width="3.3475" transform="matrix(4.08202e-16,2.22222,2.22222,-4.08202e-16,2.22222,20)"><path d="M54.8789,35.3001 L71.0001,37.7501" fill-rule="nonzero" vector-effect="none"/></g><defs><clipPath id="clip90"><path d="M1,1 L71,1 L71,50 L1,50 L1,1 z"/></clipPath></defs><g clip-path="url(#clip90)" fill="none" opacity="1" stroke="#a06c70" stroke-linecap="butt" stroke-linejoin="miter" stroke-miterlimit="20" stroke-opacity="1" stroke-width="3.3475" transform="matrix(4.08202e-16,2.22222,2.22222,-4.08202e-16,2.22222,20)"><path d="M54.8789,6.30835 L54.8789,45.5085" fill-rule="nonzero" vector-effect="none"/></g><defs><clipPath id="clip91"><path d="M1,1 L71,1 L71,50 L1,50 L1,1 z"/></clipPath></defs><g clip-path="url(#clip91)" fill="none" opacity="1" stroke="#b09952" stroke-linecap="butt" stroke-linejoin="miter" stroke-miterlimit="4" stroke-opacity="1" stroke-width="3.3475" transform="matrix(4.08202e-16,2.22222,2.22222,-4.08202e-16,2.22222,20)"><path d="M17.1212,23.0501 C17.3904,22.6431 17.7694,22.314 18.2177,22.0982 C18.6661,21.8825 19.1669,21.788 19.6667,21.8251" fill-rule="nonzero" vector-effect="none"/></g><defs><clipPath id="clip92"><path d="M1,1 L71,1 L71,50 L1,50 L1,1 z"/></clipPath></defs><g clip-path="url(#clip92)" fill="none" opacity="1" stroke="#b09952" stroke-linecap="butt" stroke-linejoin="miter" stroke-miterlimit="4" stroke-opacity="1" stroke-width="3.3475" transform="matrix(4.08202e-16,2.22222,2.22222,-4.08202e-16,2.22222,20)"><path d="M16.2727,34.0751 C15.879,34.021 15.5236,33.8185 15.2849,33.5122 C15.0462,33.2058 14.9438,32.8208 15,32.4418" fill-rule="nonzero" vector-effect="none"/></g><defs><clipPath id="clip93"><path d="M1,1 L71,1 L71,50 L1,50 L1,1 z"/></clipPath></defs><g clip-path="url(#clip93)" fill="none" opacity="1" stroke="#b09952" stroke-linecap="butt" stroke-linejoin="miter" stroke-miterlimit="4" stroke-opacity="1" stroke-width="3.3475" transform="matrix(4.08202e-16,2.22222,2.22222,-4.08202e-16,2.22222,20)"><path d="M15,32.4418 C14.692,30.819 14.7208,29.1536 15.0849,27.5417 C15.4489,25.9299 16.1411,24.4032 17.1212,23.0501" fill-rule="nonzero" vector-effect="none"/></g><defs><clipPath id="clip94"><path d="M1,1 L71,1 L71,50 L1,50 L1,1 z"/></clipPath></defs><g clip-path="url(#clip94)" fill="none" opacity="1" stroke="#a06c70" stroke-linecap="butt" stroke-linejoin="miter" stroke-miterlimit="4" stroke-opacity="1" stroke-width="3.3475" transform="matrix(4.08202e-16,2.22222,2.22222,-4.08202e-16,2.22222,20)"><path d="M48.9395,16.5167 C49.6514,14.9018 50.9838,13.6141 52.6586,12.922 C54.3333,12.2299 56.221,12.187 57.9277,12.8023 C59.6346,13.4176 61.0286,14.6435 61.819,16.2242 C62.6093,17.8049 62.7349,19.6184 62.1695,21.2861 C61.6042,22.9537 60.3917,24.3469 58.7847,25.1748 C57.1779,26.0028 55.3011,26.2015 53.5456,25.7295 C51.7904,25.2575 50.2922,24.1514 49.3637,22.6417" fill-rule="nonzero" vector-effect="none"/></g><defs><clipPath id="clip95"><path d="M9,9 L454,9 L454,333 L9,333 L9,9 z"/></clipPath></defs><g clip-path="url(#clip95)" fill="#a06c70" fill-opacity="1" opacity="1" stroke="none" stroke-opacity="0" transform="matrix(6.41396e-17,0.349171,0.336078,-6.17345e-17,1.41975,19.0797)"><path d="M316.8,152.1 L330.3,176.4 L341.1,162.9 L316.8,152.1 z" fill-rule="nonzero" vector-effect="none"/></g><defs><clipPath id="clip96"><path d="M1,1 L71,1 L71,50 L1,50 L1,1 z"/></clipPath></defs><g clip-path="url(#clip96)" fill="none" opacity="1" stroke="#a06c70" stroke-linecap="butt" stroke-linejoin="miter" stroke-miterlimit="20" stroke-opacity="1" stroke-width="3.3475" transform="matrix(4.08202e-16,2.22222,2.22222,-4.08202e-16,2.22222,20)"><path d="M49.3637,22.6417 L51.4849,26.3167 L53.1819,24.2751 L49.3637,22.6417 z" fill-rule="nonzero" vector-effect="none"/></g><defs><clipPath id="clip97"><path d="M1,1 L71,1 L71,50 L1,50 L1,1 z"/></clipPath></defs><g clip-path="url(#clip97)" fill="none" opacity="1" stroke="#b09952" stroke-linecap="butt" stroke-linejoin="miter" stroke-miterlimit="4" stroke-opacity="1" stroke-width="3.3475" transform="matrix(4.08202e-16,2.22222,2.22222,-4.08202e-16,2.22222,20)"><path d="M57.3132,35.3958 C56.3578,38.8279 54.1726,41.2464 52.4325,40.7976 C50.6923,40.3488 50.0561,37.2028 51.0115,33.7707 C51.9669,30.3386 54.1521,27.9201 55.8922,28.3689 C57.6324,28.8177 58.2686,31.9637 57.3132,35.3958 z" fill-rule="nonzero" vector-effect="none"/></g><defs><clipPath id="clip98"><path d="M1,1 L71,1 L71,50 L1,50 L1,1 z"/></clipPath></defs><g clip-path="url(#clip98)" fill="none" opacity="1" stroke="#b09952" stroke-linecap="butt" stroke-linejoin="miter" stroke-miterlimit="20" stroke-opacity="1" stroke-width="3.3475" transform="matrix(4.08202e-16,2.22222,2.22222,-4.08202e-16,2.22222,20)"><path d="M1,1 L71.0001,1 L71.0001,50.0001 L1,50.0001 L1,1 z" fill-rule="nonzero" vector-effect="none"/></g><defs><clipPath id="clip115"><path d="M-15,-189 L343,-189 L343,61 L-15,61 L-15,-189 z"/></clipPath></defs><g clip-path="url(#clip115)" fill="none" opacity="1" stroke="#e60000" stroke-linecap="square" stroke-linejoin="bevel" stroke-opacity="1" stroke-width="1" transform="matrix(0,-0.434028,0.434028,0,86.6667,171.111)"><text fill="#e60000" fill-opacity="1" font-family="Liberation Sans" font-size="40" font-style="normal" font-weight="400" stroke="none" textLength="27" x="0" xml:space="preserve" y="17.9219">A</text></g><defs><clipPath id="clip118"><path d="M-15,-61 L343,-61 L343,189 L-15,189 L-15,-61 z"/></clipPath></defs><g clip-path="url(#clip118)" fill="none" opacity="1" stroke="#e60000" stroke-linecap="square" stroke-linejoin="bevel" stroke-opacity="1" stroke-width="1" transform="matrix(0,-0.434028,0.434028,0,31.1111,171.111)"><text fill="#e60000" fill-opacity="1" font-family="Liberation Sans" font-size="40" font-style="normal" font-weight="400" stroke="none" textLength="40" x="0" xml:space="preserve" y="17.9219">W</text></g><defs><clipPath id="clip121"><path d="M-343,-138 L15,-138 L15,113 L-343,113 L-343,-138 z"/></clipPath></defs><g clip-path="url(#clip121)" fill="none" opacity="1" stroke="#e60000" stroke-linecap="square" stroke-linejoin="bevel" stroke-opacity="1" stroke-width="1" transform="matrix(0,-0.434028,0.434028,0,64.4444,28.8889)"><text fill="#e60000" fill-opacity="1" font-family="Liberation Sans" font-size="40" font-style="normal" font-weight="400" stroke="none" textLength="27" x="-34.125" xml:space="preserve" y="17.9219">B</text></g><defs><clipPath id="clip127"><path d="M-2,-10 L51,-10 L51,80 L-2,80 L-2,-10 z"/></clipPath></defs><g clip-path="url(#clip127)" fill="none" opacity="1" stroke="none" stroke-opacity="0" transform="matrix(2.22222,0,0,2.22222,4.44444,22.2222)"><path d="M0,0 L49,0 L49,70 L0,70 L0,0 z" fill-rule="evenodd" vector-effect="none"/></g></g></svg>
