<?xml version="1.0" encoding="UTF-8"?><svg width="52.9167mm" height="49.4771mm" viewBox="0 0 200 187" xmlns="http://www.w3.org/2000/svg" xmlns:xlink="http://www.w3.org/1999/xlink"><g fill="none" stroke="black" stroke-width="1" fill-rule="evenodd" stroke-linecap="square" stroke-linejoin="bevel"><g clip-path="none" fill="none" opacity="1" stroke="none" stroke-opacity="0" transform="matrix(1,0,0,1,0,0)"><path d="M0,0 L200,0 L200,187 L0,187 L0,0 z" fill-rule="evenodd" vector-effect="none"/></g><defs><clipPath id="clip6"><path d="M0,0 L10,0 L10,10 L0,10 L0,0 z"/></clipPath></defs><g clip-path="url(#clip6)" fill="#b3b3b3" fill-opacity="1" opacity="1" stroke="none" stroke-opacity="0" transform="matrix(-5.74034e-16,3.125,-3.125,-5.74034e-16,175,156.25)"><path d="M0.5,3.5 L3.5,3.5 L3.5,6.5 L0.5,6.5 L0.5,3.5 z" fill-rule="evenodd" vector-effect="none"/></g><defs><clipPath id="clip8"><path d="M0,0 L10,0 L10,10 L0,10 L0,0 z"/></clipPath></defs><g clip-path="url(#clip8)" fill="#000000" fill-opacity="1" opacity="1" stroke="none" stroke-opacity="0" transform="matrix(-5.74034e-16,3.125,-3.125,-5.74034e-16,175,156.25)"><path d="M3,4 L3,6 L1,6 L1,4 L3,4 M4,3 L0,3 L0,7 L4,7 L4,3" fill-rule="nonzero" vector-effect="none"/></g><defs><clipPath id="clip28"><path d="M0,0 L10,0 L10,10 L0,10 L0,0 z"/></clipPath></defs><g clip-path="url(#clip28)" fill="#b3b3b3" fill-opacity="1" opacity="1" stroke="none" stroke-opacity="0" transform="matrix(-5.74034e-16,3.125,-3.125,-5.74034e-16,112.5,156.25)"><path d="M0.5,3.5 L3.5,3.5 L3.5,6.5 L0.5,6.5 L0.5,3.5 z" fill-rule="evenodd" vector-effect="none"/></g><defs><clipPath id="clip30"><path d="M0,0 L10,0 L10,10 L0,10 L0,0 z"/></clipPath></defs><g clip-path="url(#clip30)" fill="#000000" fill-opacity="1" opacity="1" stroke="none" stroke-opacity="0" transform="matrix(-5.74034e-16,3.125,-3.125,-5.74034e-16,112.5,156.25)"><path d="M3,4 L3,6 L1,6 L1,4 L3,4 M4,3 L0,3 L0,7 L4,7 L4,3" fill-rule="nonzero" vector-effect="none"/></g><defs><clipPath id="clip51"><path d="M0,0 L10,0 L10,10 L0,10 L0,0 z"/></clipPath></defs><g clip-path="url(#clip51)" fill="#ffffff" fill-opacity="1" opacity="1" stroke="none" stroke-opacity="0" transform="matrix(5.74034e-16,-3.125,-3.125,-5.74034e-16,50,187.5)"><path d="M8.882,5 L0.5,9.191 L0.5,0.809 L8.882,5 z" fill-rule="evenodd" vector-effect="none"/></g><defs><clipPath id="clip53"><path d="M0,0 L10,0 L10,10 L0,10 L0,0 z"/></clipPath></defs><g clip-path="url(#clip53)" fill="#000000" fill-opacity="1" opacity="1" stroke="none" stroke-opacity="0" transform="matrix(5.74034e-16,-3.125,-3.125,-5.74034e-16,50,187.5)"><path d="M1,1.618 L7.764,5 L1,8.382 L1,1.618 M0,0 L0,10 L10,5 L0,0" fill-rule="nonzero" vector-effect="none"/></g><defs><clipPath id="clip75"><path d="M0,0 L10,0 L10,10 L0,10 L0,0 z"/></clipPath></defs><g clip-path="url(#clip75)" fill="#b3b3b3" fill-opacity="1" opacity="1" stroke="none" stroke-opacity="0" transform="matrix(1.91345e-16,-3.125,3.125,1.91345e-16,87.5,31.25)"><path d="M0.5,3.5 L3.5,3.5 L3.5,6.5 L0.5,6.5 L0.5,3.5 z" fill-rule="evenodd" vector-effect="none"/></g><defs><clipPath id="clip77"><path d="M0,0 L10,0 L10,10 L0,10 L0,0 z"/></clipPath></defs><g clip-path="url(#clip77)" fill="#000000" fill-opacity="1" opacity="1" stroke="none" stroke-opacity="0" transform="matrix(1.91345e-16,-3.125,3.125,1.91345e-16,87.5,31.25)"><path d="M3,4 L3,6 L1,6 L1,4 L3,4 M4,3 L0,3 L0,7 L4,7 L4,3" fill-rule="nonzero" vector-effect="none"/></g><defs><clipPath id="clip94"><path d="M-2,-10 L62,-10 L62,50 L-2,50 L-2,-10 z"/></clipPath></defs><g clip-path="url(#clip94)" fill="#ffffff" fill-opacity="1" opacity="1" stroke="none" stroke-opacity="0" transform="matrix(3.125,0,0,3.125,6.25,31.25)"><path d="M0,0 L60,0 L60,40 L0,40 L0,0 z" fill-rule="evenodd" vector-effect="none"/></g><defs><clipPath id="clip98"><path d="M0,0 L60,0 L60,40 L0,40 L0,0 z"/></clipPath></defs><g clip-path="url(#clip98)" fill="none" opacity="1" stroke="none" stroke-opacity="0" transform="matrix(3.125,0,0,3.125,6.25,31.25)"><path d="M0,0 L60,0 L60,40 L0,40 L0,0 z" fill-rule="evenodd" vector-effect="none"/></g><defs><clipPath id="clip108"><path d="M1,1 L41,1 L41,61 L1,61 L1,1 z"/></clipPath></defs><g clip-path="url(#clip108)" fill="none" opacity="1" stroke="#b09952" stroke-linecap="butt" stroke-linejoin="miter" stroke-miterlimit="20" stroke-opacity="1" stroke-width="2.3725" transform="matrix(5.74034e-16,3.125,3.125,-5.74034e-16,3.125,28.125)"><path d="M30.1852,31.1334 L12.5259,31.1334" fill-rule="nonzero" vector-effect="none"/></g><defs><clipPath id="clip109"><path d="M1,1 L41,1 L41,61 L1,61 L1,1 z"/></clipPath></defs><g clip-path="url(#clip109)" fill="none" opacity="1" stroke="#b09952" stroke-linecap="butt" stroke-linejoin="miter" stroke-miterlimit="20" stroke-opacity="1" stroke-width="2.3725" transform="matrix(5.74034e-16,3.125,3.125,-5.74034e-16,3.125,28.125)"><path d="M30.1852,13.9408 L14.9334,18.6371" fill-rule="nonzero" vector-effect="none"/></g><defs><clipPath id="clip110"><path d="M1,1 L41,1 L41,61 L1,61 L1,1 z"/></clipPath></defs><g clip-path="url(#clip110)" fill="none" opacity="1" stroke="#b09952" stroke-linecap="butt" stroke-linejoin="miter" stroke-miterlimit="20" stroke-opacity="1" stroke-width="2.3725" transform="matrix(5.74034e-16,3.125,3.125,-5.74034e-16,3.125,28.125)"><path d="M28.0075,47.8075 L12.9037,42.0667" fill-rule="nonzero" vector-effect="none"/></g><defs><clipPath id="clip111"><path d="M1,1 L41,1 L41,61 L1,61 L1,1 z"/></clipPath></defs><g clip-path="url(#clip111)" fill="none" opacity="1" stroke="#b09952" stroke-linecap="butt" stroke-linejoin="miter" stroke-miterlimit="20" stroke-opacity="1" stroke-width="2.3725" transform="matrix(5.74034e-16,3.125,3.125,-5.74034e-16,3.125,28.125)"><path d="M30.1852,24.8815 L26.6519,24.8815" fill-rule="nonzero" vector-effect="none"/></g><defs><clipPath id="clip112"><path d="M1,1 L41,1 L41,61 L1,61 L1,1 z"/></clipPath></defs><g clip-path="url(#clip112)" fill="none" opacity="1" stroke="#b09952" stroke-linecap="butt" stroke-linejoin="miter" stroke-miterlimit="20" stroke-opacity="1" stroke-width="2.3725" transform="matrix(5.74034e-16,3.125,3.125,-5.74034e-16,3.125,28.125)"><path d="M26.6519,22.5334 L26.6519,27.2223 L26.6519,26.4445" fill-rule="nonzero" vector-effect="none"/></g><defs><clipPath id="clip113"><path d="M1,1 L41,1 L41,61 L1,61 L1,1 z"/></clipPath></defs><g clip-path="url(#clip113)" fill="none" opacity="1" stroke="#b09952" stroke-linecap="butt" stroke-linejoin="miter" stroke-miterlimit="20" stroke-opacity="1" stroke-width="2.3725" transform="matrix(5.74034e-16,3.125,3.125,-5.74034e-16,3.125,28.125)"><path d="M30.1852,37.3778 L26.6519,37.3778" fill-rule="nonzero" vector-effect="none"/></g><defs><clipPath id="clip114"><path d="M1,1 L41,1 L41,61 L1,61 L1,1 z"/></clipPath></defs><g clip-path="url(#clip114)" fill="none" opacity="1" stroke="#b09952" stroke-linecap="butt" stroke-linejoin="miter" stroke-miterlimit="20" stroke-opacity="1" stroke-width="2.3725" transform="matrix(5.74034e-16,3.125,3.125,-5.74034e-16,3.125,28.125)"><path d="M26.6519,35.0445 L26.6519,39.726 L26.6519,38.9334" fill-rule="nonzero" vector-effect="none"/></g><defs><clipPath id="clip115"><path d="M9,9 L333,9 L333,495 L9,495 L9,9 z"/></clipPath></defs><g clip-path="url(#clip115)" fill="#b09952" fill-opacity="1" opacity="1" stroke="none" stroke-opacity="0" transform="matrix(7.08685e-17,0.385803,0.385803,-7.08685e-17,2.77778,27.7778)"><path d="M112.74,151.86 L151.08,125.52 L160.14,157.86 L106.02,158.16 L112.74,151.86 z" fill-rule="nonzero" vector-effect="none"/></g><defs><clipPath id="clip116"><path d="M1,1 L41,1 L41,61 L1,61 L1,1 z"/></clipPath></defs><g clip-path="url(#clip116)" fill="none" opacity="1" stroke="#b09952" stroke-linecap="butt" stroke-linejoin="miter" stroke-miterlimit="20" stroke-opacity="1" stroke-width="2.3725" transform="matrix(5.74034e-16,3.125,3.125,-5.74034e-16,3.125,28.125)"><path d="M13.8074,18.6371 L18.5408,15.3852 L19.6593,19.3778 L12.9778,19.4148 L13.8074,18.6371 z" fill-rule="nonzero" vector-effect="none"/></g><defs><clipPath id="clip117"><path d="M9,9 L333,9 L333,495 L9,495 L9,9 z"/></clipPath></defs><g clip-path="url(#clip117)" fill="#b09952" fill-opacity="1" opacity="1" stroke="none" stroke-opacity="0" transform="matrix(7.08685e-17,0.385803,0.385803,-7.08685e-17,2.77778,27.7778)"><path d="M241.8,392.22 L191.28,357.84 L183.96,388.14 L241.8,392.22 z" fill-rule="nonzero" vector-effect="none"/></g><defs><clipPath id="clip118"><path d="M1,1 L41,1 L41,61 L1,61 L1,1 z"/></clipPath></defs><g clip-path="url(#clip118)" fill="none" opacity="1" stroke="#b09952" stroke-linecap="butt" stroke-linejoin="miter" stroke-miterlimit="20" stroke-opacity="1" stroke-width="2.3725" transform="matrix(5.74034e-16,3.125,3.125,-5.74034e-16,3.125,28.125)"><path d="M29.7408,48.3112 L23.5037,44.0667 L22.6,47.8075 L29.7408,48.3112 z" fill-rule="nonzero" vector-effect="none"/></g><defs><clipPath id="clip119"><path d="M1,1 L41,1 L41,61 L1,61 L1,1 z"/></clipPath></defs><g clip-path="url(#clip119)" fill="none" opacity="1" stroke="#b09952" stroke-linecap="butt" stroke-linejoin="miter" stroke-miterlimit="20" stroke-opacity="1" stroke-width="2.3725" transform="matrix(5.74034e-16,3.125,3.125,-5.74034e-16,3.125,28.125)"><path d="M12.5259,7.69631 L30.1852,7.69631 L30.1852,54.5557 L12.5259,54.5557 L12.5259,7.69631 z" fill-rule="nonzero" vector-effect="none"/></g><defs><clipPath id="clip120"><path d="M1,1 L41,1 L41,61 L1,61 L1,1 z"/></clipPath></defs><g clip-path="url(#clip120)" fill="none" opacity="1" stroke="#b09952" stroke-linecap="butt" stroke-linejoin="miter" stroke-miterlimit="20" stroke-opacity="1" stroke-width="2.3725" transform="matrix(5.74034e-16,3.125,3.125,-5.74034e-16,3.125,28.125)"><path d="M1,1 L41.0001,1 L41.0001,61.0001 L1,61.0001 L1,1 z" fill-rule="nonzero" vector-effect="none"/></g><defs><clipPath id="clip137"><path d="M-15,-256 L189,-256 L189,51 L-15,51 L-15,-256 z"/></clipPath></defs><g clip-path="url(#clip137)" fill="none" opacity="1" stroke="#e60000" stroke-linecap="square" stroke-linejoin="bevel" stroke-opacity="1" stroke-width="1" transform="matrix(0,-0.610352,0.610352,0,162.5,146.875)"><text fill="#e60000" fill-opacity="1" font-family="Liberation Sans" font-size="40" font-style="normal" font-weight="400" stroke="none" textLength="24" x="0" xml:space="preserve" y="17.9219">T</text></g><defs><clipPath id="clip140"><path d="M-15,-154 L189,-154 L189,154 L-15,154 L-15,-154 z"/></clipPath></defs><g clip-path="url(#clip140)" fill="none" opacity="1" stroke="#e60000" stroke-linecap="square" stroke-linejoin="bevel" stroke-opacity="1" stroke-width="1" transform="matrix(0,-0.610352,0.610352,0,100,146.875)"><text fill="#e60000" fill-opacity="1" font-family="Liberation Sans" font-size="40" font-style="normal" font-weight="400" stroke="none" textLength="27" x="0" xml:space="preserve" y="17.9219">P</text></g><defs><clipPath id="clip143"><path d="M-15,-51 L189,-51 L189,256 L-15,256 L-15,-51 z"/></clipPath></defs><g clip-path="url(#clip143)" fill="none" opacity="1" stroke="#e60000" stroke-linecap="square" stroke-linejoin="bevel" stroke-opacity="1" stroke-width="1" transform="matrix(0,-0.610352,0.610352,0,37.5,146.875)"><text fill="#e60000" fill-opacity="1" font-family="Liberation Sans" font-size="40" font-style="normal" font-weight="400" stroke="none" textLength="27" x="0" xml:space="preserve" y="17.9219">S</text></g><defs><clipPath id="clip146"><path d="M-189,-154 L15,-154 L15,154 L-189,154 L-189,-154 z"/></clipPath></defs><g clip-path="url(#clip146)" fill="none" opacity="1" stroke="#e60000" stroke-linecap="square" stroke-linejoin="bevel" stroke-opacity="1" stroke-width="1" transform="matrix(0,-0.610352,0.610352,0,100,40.625)"><text fill="#e60000" fill-opacity="1" font-family="Liberation Sans" font-size="40" font-style="normal" font-weight="400" stroke="none" textLength="27" x="-34.125" xml:space="preserve" y="17.9219">A</text></g><defs><clipPath id="clip152"><path d="M-2,-10 L62,-10 L62,50 L-2,50 L-2,-10 z"/></clipPath></defs><g clip-path="url(#clip152)" fill="none" opacity="1" stroke="none" stroke-opacity="0" transform="matrix(3.125,0,0,3.125,6.25,31.25)"><path d="M0,0 L60,0 L60,40 L0,40 L0,0 z" fill-rule="evenodd" vector-effect="none"/></g></g></svg>
