<?xml version="1.0" encoding="UTF-8"?><svg width="52.9167mm" height="49.4771mm" viewBox="0 0 200 187" xmlns="http://www.w3.org/2000/svg" xmlns:xlink="http://www.w3.org/1999/xlink"><g fill="none" stroke="black" stroke-width="1" fill-rule="evenodd" stroke-linecap="square" stroke-linejoin="bevel"><g clip-path="none" fill="none" opacity="1" stroke="none" stroke-opacity="0" transform="matrix(1,0,0,1,0,0)"><path d="M0,0 L200,0 L200,187 L0,187 L0,0 z" fill-rule="evenodd" vector-effect="none"/></g><defs><clipPath id="clip6"><path d="M0,0 L10,0 L10,10 L0,10 L0,0 z"/></clipPath></defs><g clip-path="url(#clip6)" fill="#b3b3b3" fill-opacity="1" opacity="1" stroke="none" stroke-opacity="0" transform="matrix(-5.74034e-16,3.125,-3.125,-5.74034e-16,175,156.25)"><path d="M0.5,3.5 L3.5,3.5 L3.5,6.5 L0.5,6.5 L0.5,3.5 z" fill-rule="evenodd" vector-effect="none"/></g><defs><clipPath id="clip8"><path d="M0,0 L10,0 L10,10 L0,10 L0,0 z"/></clipPath></defs><g clip-path="url(#clip8)" fill="#000000" fill-opacity="1" opacity="1" stroke="none" stroke-opacity="0" transform="matrix(-5.74034e-16,3.125,-3.125,-5.74034e-16,175,156.25)"><path d="M3,4 L3,6 L1,6 L1,4 L3,4 M4,3 L0,3 L0,7 L4,7 L4,3" fill-rule="nonzero" vector-effect="none"/></g><defs><clipPath id="clip28"><path d="M0,0 L10,0 L10,10 L0,10 L0,0 z"/></clipPath></defs><g clip-path="url(#clip28)" fill="#b3b3b3" fill-opacity="1" opacity="1" stroke="none" stroke-opacity="0" transform="matrix(-5.74034e-16,3.125,-3.125,-5.74034e-16,112.5,156.25)"><path d="M0.5,3.5 L3.5,3.5 L3.5,6.5 L0.5,6.5 L0.5,3.5 z" fill-rule="evenodd" vector-effect="none"/></g><defs><clipPath id="clip30"><path d="M0,0 L10,0 L10,10 L0,10 L0,0 z"/></clipPath></defs><g clip-path="url(#clip30)" fill="#000000" fill-opacity="1" opacity="1" stroke="none" stroke-opacity="0" transform="matrix(-5.74034e-16,3.125,-3.125,-5.74034e-16,112.5,156.25)"><path d="M3,4 L3,6 L1,6 L1,4 L3,4 M4,3 L0,3 L0,7 L4,7 L4,3" fill-rule="nonzero" vector-effect="none"/></g><defs><clipPath id="clip50"><path d="M0,0 L10,0 L10,10 L0,10 L0,0 z"/></clipPath></defs><g clip-path="url(#clip50)" fill="#b3b3b3" fill-opacity="1" opacity="1" stroke="none" stroke-opacity="0" transform="matrix(1.91345e-16,-3.125,3.125,1.91345e-16,134.375,31.25)"><path d="M0.5,3.5 L3.5,3.5 L3.5,6.5 L0.5,6.5 L0.5,3.5 z" fill-rule="evenodd" vector-effect="none"/></g><defs><clipPath id="clip52"><path d="M0,0 L10,0 L10,10 L0,10 L0,0 z"/></clipPath></defs><g clip-path="url(#clip52)" fill="#000000" fill-opacity="1" opacity="1" stroke="none" stroke-opacity="0" transform="matrix(1.91345e-16,-3.125,3.125,1.91345e-16,134.375,31.25)"><path d="M3,4 L3,6 L1,6 L1,4 L3,4 M4,3 L0,3 L0,7 L4,7 L4,3" fill-rule="nonzero" vector-effect="none"/></g><defs><clipPath id="clip73"><path d="M0,0 L10,0 L10,10 L0,10 L0,0 z"/></clipPath></defs><g clip-path="url(#clip73)" fill="#ffffff" fill-opacity="1" opacity="1" stroke="none" stroke-opacity="0" transform="matrix(5.74034e-16,-3.125,-3.125,-5.74034e-16,50,187.5)"><path d="M8.882,5 L0.5,9.191 L0.5,0.809 L8.882,5 z" fill-rule="evenodd" vector-effect="none"/></g><defs><clipPath id="clip75"><path d="M0,0 L10,0 L10,10 L0,10 L0,0 z"/></clipPath></defs><g clip-path="url(#clip75)" fill="#000000" fill-opacity="1" opacity="1" stroke="none" stroke-opacity="0" transform="matrix(5.74034e-16,-3.125,-3.125,-5.74034e-16,50,187.5)"><path d="M1,1.618 L7.764,5 L1,8.382 L1,1.618 M0,0 L0,10 L10,5 L0,0" fill-rule="nonzero" vector-effect="none"/></g><defs><clipPath id="clip97"><path d="M0,0 L10,0 L10,10 L0,10 L0,0 z"/></clipPath></defs><g clip-path="url(#clip97)" fill="#b3b3b3" fill-opacity="1" opacity="1" stroke="none" stroke-opacity="0" transform="matrix(1.91345e-16,-3.125,3.125,1.91345e-16,40.625,31.25)"><path d="M0.5,3.5 L3.5,3.5 L3.5,6.5 L0.5,6.5 L0.5,3.5 z" fill-rule="evenodd" vector-effect="none"/></g><defs><clipPath id="clip99"><path d="M0,0 L10,0 L10,10 L0,10 L0,0 z"/></clipPath></defs><g clip-path="url(#clip99)" fill="#000000" fill-opacity="1" opacity="1" stroke="none" stroke-opacity="0" transform="matrix(1.91345e-16,-3.125,3.125,1.91345e-16,40.625,31.25)"><path d="M3,4 L3,6 L1,6 L1,4 L3,4 M4,3 L0,3 L0,7 L4,7 L4,3" fill-rule="nonzero" vector-effect="none"/></g><defs><clipPath id="clip116"><path d="M-2,-10 L62,-10 L62,50 L-2,50 L-2,-10 z"/></clipPath></defs><g clip-path="url(#clip116)" fill="#ffffff" fill-opacity="1" opacity="1" stroke="none" stroke-opacity="0" transform="matrix(3.125,0,0,3.125,6.25,31.25)"><path d="M0,0 L60,0 L60,40 L0,40 L0,0 z" fill-rule="evenodd" vector-effect="none"/></g><defs><clipPath id="clip120"><path d="M0,0 L60,0 L60,40 L0,40 L0,0 z"/></clipPath></defs><g clip-path="url(#clip120)" fill="none" opacity="1" stroke="none" stroke-opacity="0" transform="matrix(3.125,0,0,3.125,6.25,31.25)"><path d="M0,0 L60,0 L60,40 L0,40 L0,0 z" fill-rule="evenodd" vector-effect="none"/></g><defs><clipPath id="clip130"><path d="M1,1 L41,1 L41,61 L1,61 L1,1 z"/></clipPath></defs><g clip-path="url(#clip130)" fill="none" opacity="1" stroke="#b09952" stroke-linecap="butt" stroke-linejoin="miter" stroke-miterlimit="20" stroke-opacity="1" stroke-width="2.3725" transform="matrix(5.74034e-16,3.125,3.125,-5.74034e-16,3.125,28.125)"><path d="M11.0393,22.56 L29.6388,22.56" fill-rule="nonzero" vector-effect="none"/></g><defs><clipPath id="clip131"><path d="M1,1 L41,1 L41,61 L1,61 L1,1 z"/></clipPath></defs><g clip-path="url(#clip131)" fill="none" opacity="1" stroke="#b09952" stroke-linecap="butt" stroke-linejoin="miter" stroke-miterlimit="20" stroke-opacity="1" stroke-width="2.3725" transform="matrix(5.74034e-16,3.125,3.125,-5.74034e-16,3.125,28.125)"><path d="M11.0393,39.32 L29.6388,39.32" fill-rule="nonzero" vector-effect="none"/></g><defs><clipPath id="clip132"><path d="M1,1 L41,1 L41,61 L1,61 L1,1 z"/></clipPath></defs><g clip-path="url(#clip132)" fill="none" opacity="1" stroke="#b09952" stroke-linecap="butt" stroke-linejoin="miter" stroke-miterlimit="20" stroke-opacity="1" stroke-width="2.3725" transform="matrix(5.74034e-16,3.125,3.125,-5.74034e-16,3.125,28.125)"><path d="M11.0393,10.2667 L29.6388,10.2667" fill-rule="nonzero" vector-effect="none"/></g><defs><clipPath id="clip133"><path d="M1,1 L41,1 L41,61 L1,61 L1,1 z"/></clipPath></defs><g clip-path="url(#clip133)" fill="none" opacity="1" stroke="#b09952" stroke-linecap="butt" stroke-linejoin="miter" stroke-miterlimit="20" stroke-opacity="1" stroke-width="2.3725" transform="matrix(5.74034e-16,3.125,3.125,-5.74034e-16,3.125,28.125)"><path d="M11.0393,34.8533 L14.7517,34.8533" fill-rule="nonzero" vector-effect="none"/></g><defs><clipPath id="clip134"><path d="M1,1 L41,1 L41,61 L1,61 L1,1 z"/></clipPath></defs><g clip-path="url(#clip134)" fill="none" opacity="1" stroke="#b09952" stroke-linecap="butt" stroke-linejoin="miter" stroke-miterlimit="20" stroke-opacity="1" stroke-width="2.3725" transform="matrix(5.74034e-16,3.125,3.125,-5.74034e-16,3.125,28.125)"><path d="M14.7517,33.18 L14.7517,36.5266 L14.7517,35.9733" fill-rule="nonzero" vector-effect="none"/></g><defs><clipPath id="clip135"><path d="M1,1 L41,1 L41,61 L1,61 L1,1 z"/></clipPath></defs><g clip-path="url(#clip135)" fill="none" opacity="1" stroke="#b09952" stroke-linecap="butt" stroke-linejoin="miter" stroke-miterlimit="20" stroke-opacity="1" stroke-width="2.3725" transform="matrix(5.74034e-16,3.125,3.125,-5.74034e-16,3.125,28.125)"><path d="M11.0393,27.0266 L14.7517,27.0266" fill-rule="nonzero" vector-effect="none"/></g><defs><clipPath id="clip136"><path d="M1,1 L41,1 L41,61 L1,61 L1,1 z"/></clipPath></defs><g clip-path="url(#clip136)" fill="none" opacity="1" stroke="#b09952" stroke-linecap="butt" stroke-linejoin="miter" stroke-miterlimit="20" stroke-opacity="1" stroke-width="2.3725" transform="matrix(5.74034e-16,3.125,3.125,-5.74034e-16,3.125,28.125)"><path d="M14.7517,25.3533 L14.7517,28.7 L14.7517,28.1466" fill-rule="nonzero" vector-effect="none"/></g><defs><clipPath id="clip137"><path d="M1,1 L41,1 L41,61 L1,61 L1,1 z"/></clipPath></defs><g clip-path="url(#clip137)" fill="none" opacity="1" stroke="#b09952" stroke-linecap="butt" stroke-linejoin="miter" stroke-miterlimit="20" stroke-opacity="1" stroke-width="2.3725" transform="matrix(5.74034e-16,3.125,3.125,-5.74034e-16,3.125,28.125)"><path d="M11.0393,42.3866 L29.6388,52.5066" fill-rule="nonzero" vector-effect="none"/></g><defs><clipPath id="clip138"><path d="M1,1 L41,1 L41,61 L1,61 L1,1 z"/></clipPath></defs><g clip-path="url(#clip138)" fill="none" opacity="1" stroke="#b09952" stroke-linecap="butt" stroke-linejoin="miter" stroke-miterlimit="20" stroke-opacity="1" stroke-width="2.3725" transform="matrix(5.74034e-16,3.125,3.125,-5.74034e-16,3.125,28.125)"><path d="M29.6388,42.64 L11.0393,52.5066" fill-rule="nonzero" vector-effect="none"/></g><defs><clipPath id="clip139"><path d="M1,1 L41,1 L41,61 L1,61 L1,1 z"/></clipPath></defs><g clip-path="url(#clip139)" fill="none" opacity="1" stroke="#b09952" stroke-linecap="butt" stroke-linejoin="miter" stroke-miterlimit="20" stroke-opacity="1" stroke-width="2.3725" transform="matrix(5.74034e-16,3.125,3.125,-5.74034e-16,3.125,28.125)"><path d="M11.0393,18.0933 L29.6388,18.0933" fill-rule="nonzero" vector-effect="none"/></g><defs><clipPath id="clip140"><path d="M1,1 L41,1 L41,61 L1,61 L1,1 z"/></clipPath></defs><g clip-path="url(#clip140)" fill="none" opacity="1" stroke="#b09952" stroke-linecap="butt" stroke-linejoin="miter" stroke-miterlimit="20" stroke-opacity="1" stroke-width="2.3725" transform="matrix(5.74034e-16,3.125,3.125,-5.74034e-16,3.125,28.125)"><path d="M29.5716,27.1 L22.8489,27.1 L22.8489,34.9 L29.9077,34.9" fill-rule="nonzero" vector-effect="none"/></g><defs><clipPath id="clip141"><path d="M9,9 L330,9 L330,549 L9,549 L9,9 z"/></clipPath></defs><g clip-path="url(#clip141)" fill="#b09952" fill-opacity="1" opacity="1" stroke="none" stroke-opacity="0" transform="matrix(7.14644e-17,0.389047,0.347222,-6.37815e-17,3.125,27.7486)"><path d="M90,470.7 L114.3,443.7 L125.1,462.6 L90,470.7 z" fill-rule="nonzero" vector-effect="none"/></g><defs><clipPath id="clip142"><path d="M1,1 L41,1 L41,61 L1,61 L1,1 z"/></clipPath></defs><g clip-path="url(#clip142)" fill="none" opacity="1" stroke="#b09952" stroke-linecap="butt" stroke-linejoin="miter" stroke-miterlimit="20" stroke-opacity="1" stroke-width="2.3725" transform="matrix(5.74034e-16,3.125,3.125,-5.74034e-16,3.125,28.125)"><path d="M11.0841,52.2999 L14.1093,49.3 L15.4539,51.3999 L11.0841,52.2999 z" fill-rule="nonzero" vector-effect="none"/></g><defs><clipPath id="clip143"><path d="M9,9 L330,9 L330,549 L9,549 L9,9 z"/></clipPath></defs><g clip-path="url(#clip143)" fill="#b09952" fill-opacity="1" opacity="1" stroke="none" stroke-opacity="0" transform="matrix(7.14644e-17,0.389047,0.347222,-6.37815e-17,3.125,27.7486)"><path d="M238.5,473.4 L203.4,462.6 L214.2,443.7 L238.5,473.4 z" fill-rule="nonzero" vector-effect="none"/></g><defs><clipPath id="clip144"><path d="M1,1 L41,1 L41,61 L1,61 L1,1 z"/></clipPath></defs><g clip-path="url(#clip144)" fill="none" opacity="1" stroke="#b09952" stroke-linecap="butt" stroke-linejoin="miter" stroke-miterlimit="20" stroke-opacity="1" stroke-width="2.3725" transform="matrix(5.74034e-16,3.125,3.125,-5.74034e-16,3.125,28.125)"><path d="M29.5716,52.5999 L25.2018,51.3999 L26.5464,49.3 L29.5716,52.5999 z" fill-rule="nonzero" vector-effect="none"/></g><defs><clipPath id="clip145"><path d="M9,9 L330,9 L330,549 L9,549 L9,9 z"/></clipPath></defs><g clip-path="url(#clip145)" fill="#b09952" fill-opacity="1" opacity="1" stroke="none" stroke-opacity="0" transform="matrix(7.14644e-17,0.389047,0.347222,-6.37815e-17,3.125,27.7486)"><path d="M88.68,93.42 L130.5,83.34 L130.5,103.5 L88.68,93.42 z" fill-rule="nonzero" vector-effect="none"/></g><defs><clipPath id="clip146"><path d="M1,1 L41,1 L41,61 L1,61 L1,1 z"/></clipPath></defs><g clip-path="url(#clip146)" fill="none" opacity="1" stroke="#b09952" stroke-linecap="butt" stroke-linejoin="miter" stroke-miterlimit="20" stroke-opacity="1" stroke-width="2.3725" transform="matrix(5.74034e-16,3.125,3.125,-5.74034e-16,3.125,28.125)"><path d="M10.9198,10.38 L16.1262,9.25999 L16.1262,11.5 L10.9198,10.38 z" fill-rule="nonzero" vector-effect="none"/></g><defs><clipPath id="clip147"><path d="M9,9 L330,9 L330,549 L9,549 L9,9 z"/></clipPath></defs><g clip-path="url(#clip147)" fill="#b09952" fill-opacity="1" opacity="1" stroke="none" stroke-opacity="0" transform="matrix(7.14644e-17,0.389047,0.347222,-6.37815e-17,3.125,27.7486)"><path d="M242.64,163.62 L200.7,153.54 L200.7,173.7 L242.64,163.62 z" fill-rule="nonzero" vector-effect="none"/></g><defs><clipPath id="clip148"><path d="M1,1 L41,1 L41,61 L1,61 L1,1 z"/></clipPath></defs><g clip-path="url(#clip148)" fill="none" opacity="1" stroke="#b09952" stroke-linecap="butt" stroke-linejoin="miter" stroke-miterlimit="20" stroke-opacity="1" stroke-width="2.3725" transform="matrix(5.74034e-16,3.125,3.125,-5.74034e-16,3.125,28.125)"><path d="M30.087,18.18 L24.8657,17.06 L24.8657,19.3 L30.087,18.18 z" fill-rule="nonzero" vector-effect="none"/></g><defs><clipPath id="clip149"><path d="M1,1 L41,1 L41,61 L1,61 L1,1 z"/></clipPath></defs><g clip-path="url(#clip149)" fill="none" opacity="1" stroke="#b09952" stroke-linecap="butt" stroke-linejoin="miter" stroke-miterlimit="20" stroke-opacity="1" stroke-width="2.3725" transform="matrix(5.74034e-16,3.125,3.125,-5.74034e-16,3.125,28.125)"><path d="M1.00001,0.999999 L41.0003,0.999999 L41.0003,60.9999 L1.00001,60.9999 L1.00001,0.999999 z" fill-rule="nonzero" vector-effect="none"/></g><defs><clipPath id="clip150"><path d="M1,1 L41,1 L41,61 L1,61 L1,1 z"/></clipPath></defs><g clip-path="url(#clip150)" fill="none" opacity="1" stroke="#b09952" stroke-linecap="butt" stroke-linejoin="miter" stroke-miterlimit="20" stroke-opacity="1" stroke-width="2.3725" transform="matrix(5.74034e-16,3.125,3.125,-5.74034e-16,3.125,28.125)"><path d="M11.0393,5.80666 L29.6388,5.80666 L29.6388,56.0799 L11.0393,56.0799 L11.0393,5.80666 z" fill-rule="nonzero" vector-effect="none"/></g><defs><clipPath id="clip167"><path d="M-15,-256 L189,-256 L189,51 L-15,51 L-15,-256 z"/></clipPath></defs><g clip-path="url(#clip167)" fill="none" opacity="1" stroke="#e60000" stroke-linecap="square" stroke-linejoin="bevel" stroke-opacity="1" stroke-width="1" transform="matrix(0,-0.610352,0.610352,0,162.5,146.875)"><text fill="#e60000" fill-opacity="1" font-family="Liberation Sans" font-size="40" font-style="normal" font-weight="400" stroke="none" textLength="24" x="0" xml:space="preserve" y="17.9219">T</text></g><defs><clipPath id="clip170"><path d="M-15,-154 L189,-154 L189,154 L-15,154 L-15,-154 z"/></clipPath></defs><g clip-path="url(#clip170)" fill="none" opacity="1" stroke="#e60000" stroke-linecap="square" stroke-linejoin="bevel" stroke-opacity="1" stroke-width="1" transform="matrix(0,-0.610352,0.610352,0,100,146.875)"><text fill="#e60000" fill-opacity="1" font-family="Liberation Sans" font-size="40" font-style="normal" font-weight="400" stroke="none" textLength="27" x="0" xml:space="preserve" y="17.9219">P</text></g><defs><clipPath id="clip173"><path d="M-15,-51 L189,-51 L189,256 L-15,256 L-15,-51 z"/></clipPath></defs><g clip-path="url(#clip173)" fill="none" opacity="1" stroke="#e60000" stroke-linecap="square" stroke-linejoin="bevel" stroke-opacity="1" stroke-width="1" transform="matrix(0,-0.610352,0.610352,0,37.5,146.875)"><text fill="#e60000" fill-opacity="1" font-family="Liberation Sans" font-size="40" font-style="normal" font-weight="400" stroke="none" textLength="27" x="0" xml:space="preserve" y="17.9219">S</text></g><defs><clipPath id="clip176"><path d="M-189,-230 L15,-230 L15,77 L-189,77 L-189,-230 z"/></clipPath></defs><g clip-path="url(#clip176)" fill="none" opacity="1" stroke="#e60000" stroke-linecap="square" stroke-linejoin="bevel" stroke-opacity="1" stroke-width="1" transform="matrix(0,-0.610352,0.610352,0,146.875,40.625)"><text fill="#e60000" fill-opacity="1" font-family="Liberation Sans" font-size="40" font-style="normal" font-weight="400" stroke="none" textLength="27" x="-34.125" xml:space="preserve" y="17.9219">B</text></g><defs><clipPath id="clip179"><path d="M-189,-77 L15,-77 L15,230 L-189,230 L-189,-77 z"/></clipPath></defs><g clip-path="url(#clip179)" fill="none" opacity="1" stroke="#e60000" stroke-linecap="square" stroke-linejoin="bevel" stroke-opacity="1" stroke-width="1" transform="matrix(0,-0.610352,0.610352,0,53.125,40.625)"><text fill="#e60000" fill-opacity="1" font-family="Liberation Sans" font-size="40" font-style="normal" font-weight="400" stroke="none" textLength="27" x="-34.125" xml:space="preserve" y="17.9219">A</text></g><defs><clipPath id="clip185"><path d="M-2,-10 L62,-10 L62,50 L-2,50 L-2,-10 z"/></clipPath></defs><g clip-path="url(#clip185)" fill="none" opacity="1" stroke="none" stroke-opacity="0" transform="matrix(3.125,0,0,3.125,6.25,31.25)"><path d="M0,0 L60,0 L60,40 L0,40 L0,0 z" fill-rule="evenodd" vector-effect="none"/></g></g></svg>
