<?xml version="1.0" encoding="UTF-8"?><svg width="52.9167mm" height="49.4771mm" viewBox="0 0 200 187" xmlns="http://www.w3.org/2000/svg" xmlns:xlink="http://www.w3.org/1999/xlink"><g fill="none" stroke="black" stroke-width="1" fill-rule="evenodd" stroke-linecap="square" stroke-linejoin="bevel"><g clip-path="none" fill="none" opacity="1" stroke="none" stroke-opacity="0" transform="matrix(1,0,0,1,0,0)"><path d="M0,0 L200,0 L200,187 L0,187 L0,0 z" fill-rule="evenodd" vector-effect="none"/></g><defs><clipPath id="clip6"><path d="M0,0 L10,0 L10,10 L0,10 L0,0 z"/></clipPath></defs><g clip-path="url(#clip6)" fill="#b3b3b3" fill-opacity="1" opacity="1" stroke="none" stroke-opacity="0" transform="matrix(-5.74034e-16,3.125,-3.125,-5.74034e-16,112.5,156.25)"><path d="M0.5,3.5 L3.5,3.5 L3.5,6.5 L0.5,6.5 L0.5,3.5 z" fill-rule="evenodd" vector-effect="none"/></g><defs><clipPath id="clip8"><path d="M0,0 L10,0 L10,10 L0,10 L0,0 z"/></clipPath></defs><g clip-path="url(#clip8)" fill="#000000" fill-opacity="1" opacity="1" stroke="none" stroke-opacity="0" transform="matrix(-5.74034e-16,3.125,-3.125,-5.74034e-16,112.5,156.25)"><path d="M3,4 L3,6 L1,6 L1,4 L3,4 M4,3 L0,3 L0,7 L4,7 L4,3" fill-rule="nonzero" vector-effect="none"/></g><defs><clipPath id="clip29"><path d="M0,0 L10,0 L10,10 L0,10 L0,0 z"/></clipPath></defs><g clip-path="url(#clip29)" fill="#ffffff" fill-opacity="1" opacity="1" stroke="none" stroke-opacity="0" transform="matrix(5.74034e-16,-3.125,-3.125,-5.74034e-16,50,187.5)"><path d="M8.882,5 L0.5,9.191 L0.5,0.809 L8.882,5 z" fill-rule="evenodd" vector-effect="none"/></g><defs><clipPath id="clip31"><path d="M0,0 L10,0 L10,10 L0,10 L0,0 z"/></clipPath></defs><g clip-path="url(#clip31)" fill="#000000" fill-opacity="1" opacity="1" stroke="none" stroke-opacity="0" transform="matrix(5.74034e-16,-3.125,-3.125,-5.74034e-16,50,187.5)"><path d="M1,1.618 L7.764,5 L1,8.382 L1,1.618 M0,0 L0,10 L10,5 L0,0" fill-rule="nonzero" vector-effect="none"/></g><defs><clipPath id="clip53"><path d="M0,0 L10,0 L10,10 L0,10 L0,0 z"/></clipPath></defs><g clip-path="url(#clip53)" fill="#b3b3b3" fill-opacity="1" opacity="1" stroke="none" stroke-opacity="0" transform="matrix(1.91345e-16,-3.125,3.125,1.91345e-16,134.375,31.25)"><path d="M0.5,3.5 L3.5,3.5 L3.5,6.5 L0.5,6.5 L0.5,3.5 z" fill-rule="evenodd" vector-effect="none"/></g><defs><clipPath id="clip55"><path d="M0,0 L10,0 L10,10 L0,10 L0,0 z"/></clipPath></defs><g clip-path="url(#clip55)" fill="#000000" fill-opacity="1" opacity="1" stroke="none" stroke-opacity="0" transform="matrix(1.91345e-16,-3.125,3.125,1.91345e-16,134.375,31.25)"><path d="M3,4 L3,6 L1,6 L1,4 L3,4 M4,3 L0,3 L0,7 L4,7 L4,3" fill-rule="nonzero" vector-effect="none"/></g><defs><clipPath id="clip75"><path d="M0,0 L10,0 L10,10 L0,10 L0,0 z"/></clipPath></defs><g clip-path="url(#clip75)" fill="#b3b3b3" fill-opacity="1" opacity="1" stroke="none" stroke-opacity="0" transform="matrix(-5.74034e-16,3.125,-3.125,-5.74034e-16,175,156.25)"><path d="M0.5,3.5 L3.5,3.5 L3.5,6.5 L0.5,6.5 L0.5,3.5 z" fill-rule="evenodd" vector-effect="none"/></g><defs><clipPath id="clip77"><path d="M0,0 L10,0 L10,10 L0,10 L0,0 z"/></clipPath></defs><g clip-path="url(#clip77)" fill="#000000" fill-opacity="1" opacity="1" stroke="none" stroke-opacity="0" transform="matrix(-5.74034e-16,3.125,-3.125,-5.74034e-16,175,156.25)"><path d="M3,4 L3,6 L1,6 L1,4 L3,4 M4,3 L0,3 L0,7 L4,7 L4,3" fill-rule="nonzero" vector-effect="none"/></g><defs><clipPath id="clip97"><path d="M0,0 L10,0 L10,10 L0,10 L0,0 z"/></clipPath></defs><g clip-path="url(#clip97)" fill="#b3b3b3" fill-opacity="1" opacity="1" stroke="none" stroke-opacity="0" transform="matrix(1.91345e-16,-3.125,3.125,1.91345e-16,40.625,31.25)"><path d="M0.5,3.5 L3.5,3.5 L3.5,6.5 L0.5,6.5 L0.5,3.5 z" fill-rule="evenodd" vector-effect="none"/></g><defs><clipPath id="clip99"><path d="M0,0 L10,0 L10,10 L0,10 L0,0 z"/></clipPath></defs><g clip-path="url(#clip99)" fill="#000000" fill-opacity="1" opacity="1" stroke="none" stroke-opacity="0" transform="matrix(1.91345e-16,-3.125,3.125,1.91345e-16,40.625,31.25)"><path d="M3,4 L3,6 L1,6 L1,4 L3,4 M4,3 L0,3 L0,7 L4,7 L4,3" fill-rule="nonzero" vector-effect="none"/></g><defs><clipPath id="clip116"><path d="M-2,-10 L62,-10 L62,50 L-2,50 L-2,-10 z"/></clipPath></defs><g clip-path="url(#clip116)" fill="#ffffff" fill-opacity="1" opacity="1" stroke="none" stroke-opacity="0" transform="matrix(3.125,0,0,3.125,6.25,31.25)"><path d="M0,0 L60,0 L60,40 L0,40 L0,0 z" fill-rule="evenodd" vector-effect="none"/></g><defs><clipPath id="clip120"><path d="M0,0 L60,0 L60,40 L0,40 L0,0 z"/></clipPath></defs><g clip-path="url(#clip120)" fill="none" opacity="1" stroke="none" stroke-opacity="0" transform="matrix(3.125,0,0,3.125,6.25,31.25)"><path d="M0,0 L60,0 L60,40 L0,40 L0,0 z" fill-rule="evenodd" vector-effect="none"/></g><defs><clipPath id="clip130"><path d="M1,1 L41,1 L41,61 L1,61 L1,1 z"/></clipPath></defs><g clip-path="url(#clip130)" fill="none" opacity="1" stroke="#b09952" stroke-linecap="butt" stroke-linejoin="miter" stroke-miterlimit="20" stroke-opacity="1" stroke-width="2.3725" transform="matrix(5.74034e-16,3.125,3.125,-5.74034e-16,3.125,28.125)"><path d="M11.0393,9.68666 L29.6388,19.8066" fill-rule="nonzero" vector-effect="none"/></g><defs><clipPath id="clip131"><path d="M1,1 L41,1 L41,61 L1,61 L1,1 z"/></clipPath></defs><g clip-path="url(#clip131)" fill="none" opacity="1" stroke="#b09952" stroke-linecap="butt" stroke-linejoin="miter" stroke-miterlimit="20" stroke-opacity="1" stroke-width="2.3725" transform="matrix(5.74034e-16,3.125,3.125,-5.74034e-16,3.125,28.125)"><path d="M29.6388,9.93999 L11.0393,19.8066" fill-rule="nonzero" vector-effect="none"/></g><defs><clipPath id="clip132"><path d="M1,1 L41,1 L41,61 L1,61 L1,1 z"/></clipPath></defs><g clip-path="url(#clip132)" fill="none" opacity="1" stroke="#b09952" stroke-linecap="butt" stroke-linejoin="miter" stroke-miterlimit="20" stroke-opacity="1" stroke-width="2.3725" transform="matrix(5.74034e-16,3.125,3.125,-5.74034e-16,3.125,28.125)"><path d="M29.5716,51.0999 L25.538,51.0999" fill-rule="nonzero" vector-effect="none"/></g><defs><clipPath id="clip133"><path d="M1,1 L41,1 L41,61 L1,61 L1,1 z"/></clipPath></defs><g clip-path="url(#clip133)" fill="none" opacity="1" stroke="#b09952" stroke-linecap="butt" stroke-linejoin="miter" stroke-miterlimit="20" stroke-opacity="1" stroke-width="2.3725" transform="matrix(5.74034e-16,3.125,3.125,-5.74034e-16,3.125,28.125)"><path d="M25.538,49.9 L25.538,52.5999" fill-rule="nonzero" vector-effect="none"/></g><defs><clipPath id="clip134"><path d="M1,1 L41,1 L41,61 L1,61 L1,1 z"/></clipPath></defs><g clip-path="url(#clip134)" fill="none" opacity="1" stroke="#b09952" stroke-linecap="butt" stroke-linejoin="miter" stroke-miterlimit="20" stroke-opacity="1" stroke-width="2.3725" transform="matrix(5.74034e-16,3.125,3.125,-5.74034e-16,3.125,28.125)"><path d="M11.0393,51.7333 L20.1598,51.6999 L20.1598,43.9" fill-rule="nonzero" vector-effect="none"/></g><defs><clipPath id="clip135"><path d="M1,1 L41,1 L41,61 L1,61 L1,1 z"/></clipPath></defs><g clip-path="url(#clip135)" fill="none" opacity="1" stroke="#b09952" stroke-linecap="butt" stroke-linejoin="miter" stroke-miterlimit="20" stroke-opacity="1" stroke-width="2.3725" transform="matrix(5.74034e-16,3.125,3.125,-5.74034e-16,3.125,28.125)"><path d="M11.0393,43.6 L29.6388,43.6" fill-rule="nonzero" vector-effect="none"/></g><defs><clipPath id="clip136"><path d="M1,1 L41,1 L41,61 L1,61 L1,1 z"/></clipPath></defs><g clip-path="url(#clip136)" fill="none" opacity="1" stroke="#b09952" stroke-linecap="butt" stroke-linejoin="miter" stroke-miterlimit="20" stroke-opacity="1" stroke-width="2.3725" transform="matrix(5.74034e-16,3.125,3.125,-5.74034e-16,3.125,28.125)"><path d="M11.0393,22.56 L29.6388,22.56" fill-rule="nonzero" vector-effect="none"/></g><defs><clipPath id="clip137"><path d="M1,1 L41,1 L41,61 L1,61 L1,1 z"/></clipPath></defs><g clip-path="url(#clip137)" fill="none" opacity="1" stroke="#b09952" stroke-linecap="butt" stroke-linejoin="miter" stroke-miterlimit="20" stroke-opacity="1" stroke-width="2.3725" transform="matrix(5.74034e-16,3.125,3.125,-5.74034e-16,3.125,28.125)"><path d="M11.0393,39.32 L29.6388,39.32" fill-rule="nonzero" vector-effect="none"/></g><defs><clipPath id="clip138"><path d="M1,1 L41,1 L41,61 L1,61 L1,1 z"/></clipPath></defs><g clip-path="url(#clip138)" fill="none" opacity="1" stroke="#b09952" stroke-linecap="butt" stroke-linejoin="miter" stroke-miterlimit="20" stroke-opacity="1" stroke-width="2.3725" transform="matrix(5.74034e-16,3.125,3.125,-5.74034e-16,3.125,28.125)"><path d="M11.0393,34.8533 L29.9077,34.9" fill-rule="nonzero" vector-effect="none"/></g><defs><clipPath id="clip139"><path d="M1,1 L41,1 L41,61 L1,61 L1,1 z"/></clipPath></defs><g clip-path="url(#clip139)" fill="none" opacity="1" stroke="#b09952" stroke-linecap="butt" stroke-linejoin="miter" stroke-miterlimit="20" stroke-opacity="1" stroke-width="2.3725" transform="matrix(5.74034e-16,3.125,3.125,-5.74034e-16,3.125,28.125)"><path d="M11.0393,27.0266 L29.9077,27.1" fill-rule="nonzero" vector-effect="none"/></g><defs><clipPath id="clip140"><path d="M1,1 L41,1 L41,61 L1,61 L1,1 z"/></clipPath></defs><g clip-path="url(#clip140)" fill="none" opacity="1" stroke="#b09952" stroke-linecap="butt" stroke-linejoin="miter" stroke-miterlimit="20" stroke-opacity="1" stroke-width="2.3725" transform="matrix(5.74034e-16,3.125,3.125,-5.74034e-16,3.125,28.125)"><path d="M20.4959,27.1 L20.4959,34.9" fill-rule="nonzero" vector-effect="none"/></g><defs><clipPath id="clip141"><path d="M9,9 L330,9 L330,549 L9,549 L9,9 z"/></clipPath></defs><g clip-path="url(#clip141)" fill="#b09952" fill-opacity="1" opacity="1" stroke="none" stroke-opacity="0" transform="matrix(7.14644e-17,0.389047,0.347222,-6.37815e-17,3.125,27.7486)"><path d="M168.66,392.04 C168.66,395.221 166.081,397.8 162.9,397.8 C159.719,397.8 157.14,395.221 157.14,392.04 C157.14,388.859 159.719,386.28 162.9,386.28 C166.081,386.28 168.66,388.859 168.66,392.04 z" fill-rule="nonzero" vector-effect="none"/></g><defs><clipPath id="clip142"><path d="M1,1 L41,1 L41,61 L1,61 L1,1 z"/></clipPath></defs><g clip-path="url(#clip142)" fill="none" opacity="1" stroke="#b09952" stroke-linecap="butt" stroke-linejoin="miter" stroke-miterlimit="4" stroke-opacity="1" stroke-width="2.3725" transform="matrix(5.74034e-16,3.125,3.125,-5.74034e-16,3.125,28.125)"><path d="M20.8769,43.56 C20.8769,43.9134 20.5558,44.2 20.1598,44.2 C19.7638,44.2 19.4427,43.9134 19.4427,43.56 C19.4427,43.2065 19.7638,42.92 20.1598,42.92 C20.5558,42.92 20.8769,43.2065 20.8769,43.56 z" fill-rule="nonzero" vector-effect="none"/></g><defs><clipPath id="clip143"><path d="M9,9 L330,9 L330,549 L9,549 L9,9 z"/></clipPath></defs><g clip-path="url(#clip143)" fill="#b09952" fill-opacity="1" opacity="1" stroke="none" stroke-opacity="0" transform="matrix(7.14644e-17,0.389047,0.347222,-6.37815e-17,3.125,27.7486)"><path d="M171.36,243.9 C171.36,247.081 168.781,249.66 165.6,249.66 C162.419,249.66 159.84,247.081 159.84,243.9 C159.84,240.719 162.419,238.14 165.6,238.14 C168.781,238.14 171.36,240.719 171.36,243.9 z" fill-rule="nonzero" vector-effect="none"/></g><defs><clipPath id="clip144"><path d="M1,1 L41,1 L41,61 L1,61 L1,1 z"/></clipPath></defs><g clip-path="url(#clip144)" fill="none" opacity="1" stroke="#b09952" stroke-linecap="butt" stroke-linejoin="miter" stroke-miterlimit="4" stroke-opacity="1" stroke-width="2.3725" transform="matrix(5.74034e-16,3.125,3.125,-5.74034e-16,3.125,28.125)"><path d="M21.213,27.1 C21.213,27.4534 20.892,27.74 20.4959,27.74 C20.0999,27.74 19.7788,27.4534 19.7788,27.1 C19.7788,26.7465 20.0999,26.46 20.4959,26.46 C20.892,26.46 21.213,26.7465 21.213,27.1 z" fill-rule="nonzero" vector-effect="none"/></g><defs><clipPath id="clip145"><path d="M9,9 L330,9 L330,549 L9,549 L9,9 z"/></clipPath></defs><g clip-path="url(#clip145)" fill="#b09952" fill-opacity="1" opacity="1" stroke="none" stroke-opacity="0" transform="matrix(7.14644e-17,0.389047,0.347222,-6.37815e-17,3.125,27.7486)"><path d="M170.46,314.16 C170.46,317.341 167.881,319.92 164.7,319.92 C161.519,319.92 158.94,317.341 158.94,314.16 C158.94,310.979 161.519,308.4 164.7,308.4 C167.881,308.4 170.46,310.979 170.46,314.16 z" fill-rule="nonzero" vector-effect="none"/></g><defs><clipPath id="clip146"><path d="M1,1 L41,1 L41,61 L1,61 L1,1 z"/></clipPath></defs><g clip-path="url(#clip146)" fill="none" opacity="1" stroke="#b09952" stroke-linecap="butt" stroke-linejoin="miter" stroke-miterlimit="4" stroke-opacity="1" stroke-width="2.3725" transform="matrix(5.74034e-16,3.125,3.125,-5.74034e-16,3.125,28.125)"><path d="M21.101,34.9066 C21.101,35.2601 20.7799,35.5466 20.3839,35.5466 C19.9878,35.5466 19.6668,35.2601 19.6668,34.9066 C19.6668,34.5532 19.9878,34.2666 20.3839,34.2666 C20.7799,34.2666 21.101,34.5532 21.101,34.9066 z" fill-rule="nonzero" vector-effect="none"/></g><defs><clipPath id="clip147"><path d="M9,9 L330,9 L330,549 L9,549 L9,9 z"/></clipPath></defs><g clip-path="url(#clip147)" fill="#b09952" fill-opacity="1" opacity="1" stroke="none" stroke-opacity="0" transform="matrix(7.14644e-17,0.389047,0.347222,-6.37815e-17,3.125,27.7486)"><path d="M90,176.4 L114.3,149.4 L125.1,168.3 L90,176.4 z" fill-rule="nonzero" vector-effect="none"/></g><defs><clipPath id="clip148"><path d="M1,1 L41,1 L41,61 L1,61 L1,1 z"/></clipPath></defs><g clip-path="url(#clip148)" fill="none" opacity="1" stroke="#b09952" stroke-linecap="butt" stroke-linejoin="miter" stroke-miterlimit="20" stroke-opacity="1" stroke-width="2.3725" transform="matrix(5.74034e-16,3.125,3.125,-5.74034e-16,3.125,28.125)"><path d="M11.0841,19.6 L14.1093,16.6 L15.4539,18.7 L11.0841,19.6 z" fill-rule="nonzero" vector-effect="none"/></g><defs><clipPath id="clip149"><path d="M9,9 L330,9 L330,549 L9,549 L9,9 z"/></clipPath></defs><g clip-path="url(#clip149)" fill="#b09952" fill-opacity="1" opacity="1" stroke="none" stroke-opacity="0" transform="matrix(7.14644e-17,0.389047,0.347222,-6.37815e-17,3.125,27.7486)"><path d="M238.5,179.1 L203.4,168.3 L214.2,149.4 L238.5,179.1 z" fill-rule="nonzero" vector-effect="none"/></g><defs><clipPath id="clip150"><path d="M1,1 L41,1 L41,61 L1,61 L1,1 z"/></clipPath></defs><g clip-path="url(#clip150)" fill="none" opacity="1" stroke="#b09952" stroke-linecap="butt" stroke-linejoin="miter" stroke-miterlimit="20" stroke-opacity="1" stroke-width="2.3725" transform="matrix(5.74034e-16,3.125,3.125,-5.74034e-16,3.125,28.125)"><path d="M29.5716,19.9 L25.2018,18.7 L26.5464,16.6 L29.5716,19.9 z" fill-rule="nonzero" vector-effect="none"/></g><defs><clipPath id="clip151"><path d="M1,1 L41,1 L41,61 L1,61 L1,1 z"/></clipPath></defs><g clip-path="url(#clip151)" fill="none" opacity="1" stroke="#b09952" stroke-linecap="butt" stroke-linejoin="miter" stroke-miterlimit="20" stroke-opacity="1" stroke-width="2.3725" transform="matrix(5.74034e-16,3.125,3.125,-5.74034e-16,3.125,28.125)"><path d="M1.00001,0.999999 L41.0003,0.999999 L41.0003,60.9999 L1.00001,60.9999 L1.00001,0.999999 z" fill-rule="nonzero" vector-effect="none"/></g><defs><clipPath id="clip152"><path d="M1,1 L41,1 L41,61 L1,61 L1,1 z"/></clipPath></defs><g clip-path="url(#clip152)" fill="none" opacity="1" stroke="#b09952" stroke-linecap="butt" stroke-linejoin="miter" stroke-miterlimit="20" stroke-opacity="1" stroke-width="2.3725" transform="matrix(5.74034e-16,3.125,3.125,-5.74034e-16,3.125,28.125)"><path d="M11.0393,5.80666 L29.6388,5.80666 L29.6388,56.0799 L11.0393,56.0799 L11.0393,5.80666 z" fill-rule="nonzero" vector-effect="none"/></g><defs><clipPath id="clip169"><path d="M-15,-256 L189,-256 L189,51 L-15,51 L-15,-256 z"/></clipPath></defs><g clip-path="url(#clip169)" fill="none" opacity="1" stroke="#e60000" stroke-linecap="square" stroke-linejoin="bevel" stroke-opacity="1" stroke-width="1" transform="matrix(0,-0.610352,0.610352,0,162.5,146.875)"><text fill="#e60000" fill-opacity="1" font-family="Liberation Sans" font-size="40" font-style="normal" font-weight="400" stroke="none" textLength="24" x="0" xml:space="preserve" y="17.9219">T</text></g><defs><clipPath id="clip172"><path d="M-15,-154 L189,-154 L189,154 L-15,154 L-15,-154 z"/></clipPath></defs><g clip-path="url(#clip172)" fill="none" opacity="1" stroke="#e60000" stroke-linecap="square" stroke-linejoin="bevel" stroke-opacity="1" stroke-width="1" transform="matrix(0,-0.610352,0.610352,0,100,146.875)"><text fill="#e60000" fill-opacity="1" font-family="Liberation Sans" font-size="40" font-style="normal" font-weight="400" stroke="none" textLength="27" x="0" xml:space="preserve" y="17.9219">P</text></g><defs><clipPath id="clip175"><path d="M-15,-51 L189,-51 L189,256 L-15,256 L-15,-51 z"/></clipPath></defs><g clip-path="url(#clip175)" fill="none" opacity="1" stroke="#e60000" stroke-linecap="square" stroke-linejoin="bevel" stroke-opacity="1" stroke-width="1" transform="matrix(0,-0.610352,0.610352,0,37.5,146.875)"><text fill="#e60000" fill-opacity="1" font-family="Liberation Sans" font-size="40" font-style="normal" font-weight="400" stroke="none" textLength="27" x="0" xml:space="preserve" y="17.9219">S</text></g><defs><clipPath id="clip178"><path d="M-189,-230 L15,-230 L15,77 L-189,77 L-189,-230 z"/></clipPath></defs><g clip-path="url(#clip178)" fill="none" opacity="1" stroke="#e60000" stroke-linecap="square" stroke-linejoin="bevel" stroke-opacity="1" stroke-width="1" transform="matrix(0,-0.610352,0.610352,0,146.875,40.625)"><text fill="#e60000" fill-opacity="1" font-family="Liberation Sans" font-size="40" font-style="normal" font-weight="400" stroke="none" textLength="27" x="-34.125" xml:space="preserve" y="17.9219">B</text></g><defs><clipPath id="clip181"><path d="M-189,-77 L15,-77 L15,230 L-189,230 L-189,-77 z"/></clipPath></defs><g clip-path="url(#clip181)" fill="none" opacity="1" stroke="#e60000" stroke-linecap="square" stroke-linejoin="bevel" stroke-opacity="1" stroke-width="1" transform="matrix(0,-0.610352,0.610352,0,53.125,40.625)"><text fill="#e60000" fill-opacity="1" font-family="Liberation Sans" font-size="40" font-style="normal" font-weight="400" stroke="none" textLength="27" x="-34.125" xml:space="preserve" y="17.9219">A</text></g><defs><clipPath id="clip187"><path d="M-2,-10 L62,-10 L62,50 L-2,50 L-2,-10 z"/></clipPath></defs><g clip-path="url(#clip187)" fill="none" opacity="1" stroke="none" stroke-opacity="0" transform="matrix(3.125,0,0,3.125,6.25,31.25)"><path d="M0,0 L60,0 L60,40 L0,40 L0,0 z" fill-rule="evenodd" vector-effect="none"/></g></g></svg>
