<?xml version="1.0" encoding="UTF-8"?><svg width="52.9167mm" height="47.8896mm" viewBox="0 0 200 181" xmlns="http://www.w3.org/2000/svg" xmlns:xlink="http://www.w3.org/1999/xlink"><g fill="none" stroke="black" stroke-width="1" fill-rule="evenodd" stroke-linecap="square" stroke-linejoin="bevel"><g clip-path="none" fill="none" opacity="1" stroke="none" stroke-opacity="0" transform="matrix(1,0,0,1,0,0)"><path d="M0,0 L200,0 L200,181 L0,181 L0,0 z" fill-rule="evenodd" vector-effect="none"/></g><defs><clipPath id="clip3"><path d="M7,10 L-37,10 L-37,-30 L7,-30 L7,10 z"/></clipPath></defs><g clip-path="url(#clip3)" fill="none" opacity="1" stroke="#000000" stroke-linecap="round" stroke-linejoin="miter" stroke-miterlimit="2" stroke-opacity="1" stroke-width="2" transform="matrix(-4.54545,0,0,-4.54545,31.8182,45.4545)"><path d="M5,-5 L0,0 L5,5" fill-rule="evenodd" vector-effect="none"/></g><defs><clipPath id="clip6"><path d="M-37,-20 L7,-20 L7,20 L-37,20 L-37,-20 z"/></clipPath></defs><g clip-path="url(#clip6)" fill="none" opacity="1" stroke="#000000" stroke-linecap="round" stroke-linejoin="miter" stroke-miterlimit="2" stroke-opacity="1" stroke-width="2" transform="matrix(4.54545,0,0,4.54545,168.182,90.9091)"><path d="M0,-5 L5,0 L0,5" fill-rule="evenodd" vector-effect="none"/></g><defs><clipPath id="clip9"><path d="M7,30 L-37,30 L-37,-10 L7,-10 L7,30 z"/></clipPath></defs><g clip-path="url(#clip9)" fill="none" opacity="1" stroke="#000000" stroke-linecap="round" stroke-linejoin="miter" stroke-miterlimit="2" stroke-opacity="1" stroke-width="2" transform="matrix(-4.54545,0,0,-4.54545,31.8182,136.364)"><path d="M5,-5 L0,0 L5,5" fill-rule="evenodd" vector-effect="none"/></g><defs><clipPath id="clip12"><path d="M-7,-2 L37,-2 L37,38 L-7,38 L-7,-2 z"/></clipPath></defs><g clip-path="url(#clip12)" fill="#ffffff" fill-opacity="1" opacity="1" stroke="none" stroke-opacity="0" transform="matrix(4.54545,0,0,4.54545,31.8182,9.09091)"><path d="M0,0 L30,0 L30,36 L0,36 L0,0 z" fill-rule="evenodd" vector-effect="none"/></g><defs><clipPath id="clip16"><path d="M55,207 L85,207 L85,243 L55,243 L55,207 z"/></clipPath></defs><g clip-path="url(#clip16)" fill="none" opacity="1" stroke="#000000" stroke-linecap="butt" stroke-linejoin="miter" stroke-miterlimit="2" stroke-opacity="1" stroke-width="0.22" transform="matrix(4.54545,0,0,4.54545,-215.909,-929.545)"><polyline fill="none" points="55,215 59,215" vector-effect="none"/></g><defs><clipPath id="clip17"><path d="M55,207 L85,207 L85,243 L55,243 L55,207 z"/></clipPath></defs><g clip-path="url(#clip17)" fill="none" opacity="1" stroke="#000000" stroke-linecap="butt" stroke-linejoin="miter" stroke-miterlimit="2" stroke-opacity="1" stroke-width="0.22" transform="matrix(4.54545,0,0,4.54545,-215.909,-929.545)"><polyline fill="none" points="55,235 59,235" vector-effect="none"/></g><defs><clipPath id="clip18"><path d="M55,207 L85,207 L85,243 L55,243 L55,207 z"/></clipPath></defs><g clip-path="url(#clip18)" fill="none" opacity="1" stroke="#000000" stroke-linecap="butt" stroke-linejoin="miter" stroke-miterlimit="2" stroke-opacity="1" stroke-width="0.22" transform="matrix(4.54545,0,0,4.54545,-215.909,-929.545)"><polyline fill="none" points="81,225 85,225" vector-effect="none"/></g><defs><clipPath id="clip19"><path d="M55,207 L85,207 L85,243 L55,243 L55,207 z"/></clipPath></defs><g clip-path="url(#clip19)" fill="none" opacity="1" stroke="#000000" stroke-linecap="butt" stroke-linejoin="miter" stroke-miterlimit="2" stroke-opacity="1" stroke-width="0.22" transform="matrix(4.54545,0,0,4.54545,-215.909,-929.545)"><path d="M64,215 C64,216.105 62.8807,217 61.5,217 C60.1193,217 59,216.105 59,215 C59,213.895 60.1193,213 61.5,213 C62.8807,213 64,213.895 64,215 z" fill-rule="evenodd" vector-effect="none"/></g><defs><clipPath id="clip20"><path d="M55,207 L85,207 L85,243 L55,243 L55,207 z"/></clipPath></defs><g clip-path="url(#clip20)" fill="none" opacity="1" stroke="#000000" stroke-linecap="butt" stroke-linejoin="miter" stroke-miterlimit="2" stroke-opacity="1" stroke-width="0.22" transform="matrix(4.54545,0,0,4.54545,-215.909,-929.545)"><path d="M64,235 C64,236.105 62.8807,237 61.5,237 C60.1193,237 59,236.105 59,235 C59,233.895 60.1193,233 61.5,233 C62.8807,233 64,233.895 64,235 z" fill-rule="evenodd" vector-effect="none"/></g><defs><clipPath id="clip21"><path d="M55,207 L85,207 L85,243 L55,243 L55,207 z"/></clipPath></defs><g clip-path="url(#clip21)" fill="none" opacity="1" stroke="#000000" stroke-linecap="butt" stroke-linejoin="miter" stroke-miterlimit="2" stroke-opacity="1" stroke-width="0.22" transform="matrix(4.54545,0,0,4.54545,-215.909,-929.545)"><path d="M81,225 C81,226.105 79.8807,227 78.5,227 C77.1193,227 76,226.105 76,225 C76,223.895 77.1193,223 78.5,223 C79.8807,223 81,223.895 81,225 z" fill-rule="evenodd" vector-effect="none"/></g><defs><clipPath id="clip22"><path d="M55,207 L85,207 L85,243 L55,243 L55,207 z"/></clipPath></defs><g clip-path="url(#clip22)" fill="none" opacity="1" stroke="#000000" stroke-linecap="butt" stroke-linejoin="miter" stroke-miterlimit="2" stroke-opacity="1" stroke-width="0.22" transform="matrix(4.54545,0,0,4.54545,-215.909,-929.545)"><polyline fill="none" points="64,215 76,225" vector-effect="none"/></g><defs><clipPath id="clip27"><path d="M-7,-2 L37,-2 L37,38 L-7,38 L-7,-2 z"/></clipPath></defs><g clip-path="url(#clip27)" fill="none" opacity="1" stroke="none" stroke-opacity="0" transform="matrix(4.54545,0,0,4.54545,31.8182,9.09091)"><path d="M0,0 L30,0 L30,36 L0,36 L0,0 z" fill-rule="evenodd" vector-effect="none"/></g></g></svg>
