<?xml version="1.0" encoding="UTF-8"?><svg width="52.9167mm" height="29.1042mm" viewBox="0 0 200 110" xmlns="http://www.w3.org/2000/svg" xmlns:xlink="http://www.w3.org/1999/xlink"><g fill="none" stroke="black" stroke-width="1" fill-rule="evenodd" stroke-linecap="square" stroke-linejoin="bevel"><g clip-path="none" fill="none" opacity="1" stroke="none" stroke-opacity="0" transform="matrix(1,0,0,1,0,0)"><path d="M0,0 L200,0 L200,110 L0,110 L0,0 z" fill-rule="evenodd" vector-effect="none"/></g><defs><clipPath id="clip7"><path d="M0,0 L10,0 L10,10 L0,10 L0,0 z"/></clipPath></defs><g clip-path="url(#clip7)" fill="#ffffff" fill-opacity="1" opacity="1" stroke="none" stroke-opacity="0" transform="matrix(2.5,0,0,2.5,0,45)"><path d="M8.882,5 L0.5,9.191 L0.5,0.809 L8.882,5 z" fill-rule="evenodd" vector-effect="none"/></g><defs><clipPath id="clip9"><path d="M0,0 L10,0 L10,10 L0,10 L0,0 z"/></clipPath></defs><g clip-path="url(#clip9)" fill="#000000" fill-opacity="1" opacity="1" stroke="none" stroke-opacity="0" transform="matrix(2.5,0,0,2.5,0,45)"><path d="M1,1.618 L7.764,5 L1,8.382 L1,1.618 M0,0 L0,10 L10,5 L0,0" fill-rule="nonzero" vector-effect="none"/></g><defs><clipPath id="clip31"><path d="M0,0 L10,0 L10,10 L0,10 L0,0 z"/></clipPath></defs><g clip-path="url(#clip31)" fill="#ffffff" fill-opacity="1" opacity="1" stroke="none" stroke-opacity="0" transform="matrix(2.5,0,0,2.5,175,45)"><path d="M0.5,0.809 L8.882,5 L0.5,9.191 L0.5,0.809 z" fill-rule="evenodd" vector-effect="none"/></g><defs><clipPath id="clip33"><path d="M0,0 L10,0 L10,10 L0,10 L0,0 z"/></clipPath></defs><g clip-path="url(#clip33)" fill="#000000" fill-opacity="1" opacity="1" stroke="none" stroke-opacity="0" transform="matrix(2.5,0,0,2.5,175,45)"><path d="M1,1.618 L7.764,5 L1,8.382 L1,1.618 M0,0 L0,10 L10,5 L0,0" fill-rule="nonzero" vector-effect="none"/></g><defs><clipPath id="clip52"><path d="M-10,-2 L70,-2 L70,42 L-10,42 L-10,-2 z"/></clipPath></defs><g clip-path="url(#clip52)" fill="#ffffff" fill-opacity="1" opacity="1" stroke="none" stroke-opacity="0" transform="matrix(2.5,0,0,2.5,25,5)"><path d="M0,0 L60,0 L60,40 L0,40 L0,0 z" fill-rule="evenodd" vector-effect="none"/></g><defs><clipPath id="clip56"><path d="M0,0 L60,0 L60,40 L0,40 L0,0 z"/></clipPath></defs><g clip-path="url(#clip56)" fill="none" opacity="1" stroke="none" stroke-opacity="0" transform="matrix(2.5,0,0,2.5,25,5)"><path d="M0,0 L60,0 L60,40 L0,40 L0,0 z" fill-rule="evenodd" vector-effect="none"/></g><defs><clipPath id="clip66"><path d="M1,1 L61,1 L61,41 L1,41 L1,1 z"/></clipPath></defs><g clip-path="url(#clip66)" fill="none" opacity="1" stroke="#a06c70" stroke-linecap="butt" stroke-linejoin="miter" stroke-miterlimit="20" stroke-opacity="1" stroke-width="1.3325" transform="matrix(2.5,0,0,2.5,22.5,2.5)"><path d="M50.8329,21 L60.7995,21" fill-rule="nonzero" vector-effect="none"/></g><defs><clipPath id="clip67"><path d="M1,1 L61,1 L61,41 L1,41 L1,1 z"/></clipPath></defs><g clip-path="url(#clip67)" fill="none" opacity="1" stroke="#a06c70" stroke-linecap="butt" stroke-linejoin="miter" stroke-miterlimit="20" stroke-opacity="1" stroke-width="1.3325" transform="matrix(2.5,0,0,2.5,22.5,2.5)"><path d="M44.8574,19 L50.4316,19" fill-rule="nonzero" vector-effect="none"/></g><defs><clipPath id="clip68"><path d="M1,1 L61,1 L61,41 L1,41 L1,1 z"/></clipPath></defs><g clip-path="url(#clip68)" fill="none" opacity="1" stroke="#a06c70" stroke-linecap="butt" stroke-linejoin="miter" stroke-miterlimit="20" stroke-opacity="1" stroke-width="1.3325" transform="matrix(2.5,0,0,2.5,22.5,2.5)"><path d="M44.8574,23 L50.8329,23" fill-rule="nonzero" vector-effect="none"/></g><defs><clipPath id="clip69"><path d="M1,1 L61,1 L61,41 L1,41 L1,1 z"/></clipPath></defs><g clip-path="url(#clip69)" fill="none" opacity="1" stroke="#a06c70" stroke-linecap="butt" stroke-linejoin="miter" stroke-miterlimit="20" stroke-opacity="1" stroke-width="1.3325" transform="matrix(2.5,0,0,2.5,22.5,2.5)"><path d="M1,21 L12.9621,21" fill-rule="nonzero" vector-effect="none"/></g><defs><clipPath id="clip70"><path d="M1,1 L61,1 L61,41 L1,41 L1,1 z"/></clipPath></defs><g clip-path="url(#clip70)" fill="none" opacity="1" stroke="#a06c70" stroke-linecap="butt" stroke-linejoin="miter" stroke-miterlimit="20" stroke-opacity="1" stroke-width="1.3325" transform="matrix(2.5,0,0,2.5,22.5,2.5)"><path d="M20.9332,14.0059 L36.8864,28.0059" fill-rule="nonzero" vector-effect="none"/></g><defs><clipPath id="clip71"><path d="M1,1 L61,1 L61,41 L1,41 L1,1 z"/></clipPath></defs><g clip-path="url(#clip71)" fill="none" opacity="1" stroke="#a06c70" stroke-linecap="butt" stroke-linejoin="miter" stroke-miterlimit="20" stroke-opacity="1" stroke-width="1.3325" transform="matrix(2.5,0,0,2.5,22.5,2.5)"><path d="M50.8329,16.0059 L50.8329,26.0059" fill-rule="nonzero" vector-effect="none"/></g><defs><clipPath id="clip72"><path d="M1,1 L61,1 L61,41 L1,41 L1,1 z"/></clipPath></defs><g clip-path="url(#clip72)" fill="none" opacity="1" stroke="#a06c70" stroke-linecap="butt" stroke-linejoin="miter" stroke-miterlimit="20" stroke-opacity="1" stroke-width="1.3325" transform="matrix(2.5,0,0,2.5,22.5,2.5)"><path d="M10.9666,11 L46.853,11 L46.4516,11" fill-rule="nonzero" vector-effect="none"/></g><defs><clipPath id="clip73"><path d="M1,1 L61,1 L61,41 L1,41 L1,1 z"/></clipPath></defs><g clip-path="url(#clip73)" fill="none" opacity="1" stroke="#a06c70" stroke-linecap="butt" stroke-linejoin="miter" stroke-miterlimit="20" stroke-opacity="1" stroke-width="1.3325" transform="matrix(2.5,0,0,2.5,22.5,2.5)"><path d="M10.9666,31 L46.853,31" fill-rule="nonzero" vector-effect="none"/></g><defs><clipPath id="clip74"><path d="M1,1 L61,1 L61,41 L1,41 L1,1 z"/></clipPath></defs><g clip-path="url(#clip74)" fill="none" opacity="1" stroke="#a06c70" stroke-linecap="butt" stroke-linejoin="miter" stroke-miterlimit="20" stroke-opacity="1" stroke-width="1.3325" transform="matrix(2.5,0,0,2.5,22.5,2.5)"><path d="M12.9621,14.0059 L44.8574,14.0059 L44.8574,28.0059 L12.9621,28.0059 L12.9621,14.0059 z" fill-rule="nonzero" vector-effect="none"/></g><defs><clipPath id="clip75"><path d="M1,1 L61,1 L61,41 L1,41 L1,1 z"/></clipPath></defs><g clip-path="url(#clip75)" fill="none" opacity="1" stroke="#ffffff" stroke-linecap="butt" stroke-linejoin="miter" stroke-miterlimit="20" stroke-opacity="1" stroke-width="1.3325" transform="matrix(2.5,0,0,2.5,22.5,2.5)"><path d="M1,1 L61.0002,1 L61.0002,41 L1,41 L1,1 z" fill-rule="nonzero" vector-effect="none"/></g><defs><clipPath id="clip95"><path d="M-10,-2 L70,-2 L70,42 L-10,42 L-10,-2 z"/></clipPath></defs><g clip-path="url(#clip95)" fill="none" opacity="1" stroke="none" stroke-opacity="0" transform="matrix(2.5,0,0,2.5,25,5)"><path d="M0,0 L60,0 L60,40 L0,40 L0,0 z" fill-rule="evenodd" vector-effect="none"/></g></g></svg>
