<?xml version="1.0" encoding="UTF-8"?><svg width="52.9167mm" height="42.3333mm" viewBox="0 0 200 160" xmlns="http://www.w3.org/2000/svg" xmlns:xlink="http://www.w3.org/1999/xlink"><g fill="none" stroke="black" stroke-width="1" fill-rule="evenodd" stroke-linecap="square" stroke-linejoin="bevel"><g clip-path="none" fill="none" opacity="1" stroke="none" stroke-opacity="0" transform="matrix(1,0,0,1,0,0)"><path d="M0,0 L200,0 L200,160 L0,160 L0,0 z" fill-rule="evenodd" vector-effect="none"/></g><defs><clipPath id="clip7"><path d="M0,0 L10,0 L10,10 L0,10 L0,0 z"/></clipPath></defs><g clip-path="url(#clip7)" fill="#ffffff" fill-opacity="1" opacity="1" stroke="none" stroke-opacity="0" transform="matrix(2.5,0,0,2.5,0,70)"><path d="M8.882,5 L0.5,9.191 L0.5,0.809 L8.882,5 z" fill-rule="evenodd" vector-effect="none"/></g><defs><clipPath id="clip9"><path d="M0,0 L10,0 L10,10 L0,10 L0,0 z"/></clipPath></defs><g clip-path="url(#clip9)" fill="#000000" fill-opacity="1" opacity="1" stroke="none" stroke-opacity="0" transform="matrix(2.5,0,0,2.5,0,70)"><path d="M1,1.618 L7.764,5 L1,8.382 L1,1.618 M0,0 L0,10 L10,5 L0,0" fill-rule="nonzero" vector-effect="none"/></g><defs><clipPath id="clip31"><path d="M0,0 L10,0 L10,10 L0,10 L0,0 z"/></clipPath></defs><g clip-path="url(#clip31)" fill="#ffffff" fill-opacity="1" opacity="1" stroke="none" stroke-opacity="0" transform="matrix(2.5,0,0,2.5,175,70)"><path d="M0.5,0.809 L8.882,5 L0.5,9.191 L0.5,0.809 z" fill-rule="evenodd" vector-effect="none"/></g><defs><clipPath id="clip33"><path d="M0,0 L10,0 L10,10 L0,10 L0,0 z"/></clipPath></defs><g clip-path="url(#clip33)" fill="#000000" fill-opacity="1" opacity="1" stroke="none" stroke-opacity="0" transform="matrix(2.5,0,0,2.5,175,70)"><path d="M1,1.618 L7.764,5 L1,8.382 L1,1.618 M0,0 L0,10 L10,5 L0,0" fill-rule="nonzero" vector-effect="none"/></g><defs><clipPath id="clip52"><path d="M-10,-2 L70,-2 L70,62 L-10,62 L-10,-2 z"/></clipPath></defs><g clip-path="url(#clip52)" fill="#ffffff" fill-opacity="1" opacity="1" stroke="none" stroke-opacity="0" transform="matrix(2.5,0,0,2.5,25,5)"><path d="M0,0 L60,0 L60,60 L0,60 L0,0 z" fill-rule="evenodd" vector-effect="none"/></g><defs><clipPath id="clip56"><path d="M0,0 L60,0 L60,60 L0,60 L0,0 z"/></clipPath></defs><g clip-path="url(#clip56)" fill="none" opacity="1" stroke="none" stroke-opacity="0" transform="matrix(2.5,0,0,2.5,25,5)"><path d="M0,0 L60,0 L60,60 L0,60 L0,0 z" fill-rule="evenodd" vector-effect="none"/></g><defs><clipPath id="clip66"><path d="M1,1 L61,1 L61,61 L1,61 L1,1 z"/></clipPath></defs><g clip-path="url(#clip66)" fill="none" opacity="1" stroke="#a06c70" stroke-linecap="butt" stroke-linejoin="miter" stroke-miterlimit="20" stroke-opacity="1" stroke-width="1.9825" transform="matrix(2.5,0,0,2.5,22.5,2.5)"><path d="M1,30.9918 L15.8148,30.9918" fill-rule="nonzero" vector-effect="none"/></g><defs><clipPath id="clip67"><path d="M1,1 L61,1 L61,61 L1,61 L1,1 z"/></clipPath></defs><g clip-path="url(#clip67)" fill="none" opacity="1" stroke="#a06c70" stroke-linecap="butt" stroke-linejoin="miter" stroke-miterlimit="20" stroke-opacity="1" stroke-width="1.9825" transform="matrix(2.5,0,0,2.5,22.5,2.5)"><path d="M25.2424,23.4897 L31.303,30.9918 L25.2424,38.4939" fill-rule="nonzero" vector-effect="none"/></g><defs><clipPath id="clip68"><path d="M1,1 L61,1 L61,61 L1,61 L1,1 z"/></clipPath></defs><g clip-path="url(#clip68)" fill="none" opacity="1" stroke="#a06c70" stroke-linecap="butt" stroke-linejoin="miter" stroke-miterlimit="20" stroke-opacity="1" stroke-width="1.9825" transform="matrix(2.5,0,0,2.5,22.5,2.5)"><path d="M50.6297,30.9918 L60.5017,30.9918" fill-rule="nonzero" vector-effect="none"/></g><defs><clipPath id="clip69"><path d="M1,1 L61,1 L61,61 L1,61 L1,1 z"/></clipPath></defs><g clip-path="url(#clip69)" fill="none" opacity="1" stroke="#a06c70" stroke-linecap="butt" stroke-linejoin="miter" stroke-miterlimit="20" stroke-opacity="1" stroke-width="1.9825" transform="matrix(2.5,0,0,2.5,22.5,2.5)"><path d="M40.7576,26.9907 L50.6297,26.9907" fill-rule="nonzero" vector-effect="none"/></g><defs><clipPath id="clip70"><path d="M1,1 L61,1 L61,61 L1,61 L1,1 z"/></clipPath></defs><g clip-path="url(#clip70)" fill="none" opacity="1" stroke="#a06c70" stroke-linecap="butt" stroke-linejoin="miter" stroke-miterlimit="20" stroke-opacity="1" stroke-width="1.9825" transform="matrix(2.5,0,0,2.5,22.5,2.5)"><path d="M40.7576,34.9929 L50.6297,34.9929" fill-rule="nonzero" vector-effect="none"/></g><defs><clipPath id="clip71"><path d="M1,1 L61,1 L61,61 L1,61 L1,1 z"/></clipPath></defs><g clip-path="url(#clip71)" fill="none" opacity="1" stroke="#a06c70" stroke-linecap="butt" stroke-linejoin="miter" stroke-miterlimit="20" stroke-opacity="1" stroke-width="1.9825" transform="matrix(2.5,0,0,2.5,22.5,2.5)"><path d="M50.6297,20.989 L50.6297,40.9946" fill-rule="nonzero" vector-effect="none"/></g><defs><clipPath id="clip72"><path d="M1,1 L61,1 L61,61 L1,61 L1,1 z"/></clipPath></defs><g clip-path="url(#clip72)" fill="none" opacity="1" stroke="#a06c70" stroke-linecap="butt" stroke-linejoin="miter" stroke-miterlimit="20" stroke-opacity="1" stroke-width="1.9825" transform="matrix(2.5,0,0,2.5,22.5,2.5)"><path d="M16.0573,19.3885 L40.394,19.3885 L40.394,42.245 L16.0573,42.245 L16.0573,19.3885 z" fill-rule="nonzero" vector-effect="none"/></g><defs><clipPath id="clip73"><path d="M1,1 L61,1 L61,61 L1,61 L1,1 z"/></clipPath></defs><g clip-path="url(#clip73)" fill="none" opacity="1" stroke="#ffffff" stroke-linecap="butt" stroke-linejoin="miter" stroke-miterlimit="20" stroke-opacity="1" stroke-width="1.9825" transform="matrix(2.5,0,0,2.5,22.5,2.5)"><path d="M1,1.00001 L61,1.00001 L61,61.0002 L1,61.0002 L1,1.00001 z" fill-rule="nonzero" vector-effect="none"/></g><defs><clipPath id="clip93"><path d="M-10,-2 L70,-2 L70,62 L-10,62 L-10,-2 z"/></clipPath></defs><g clip-path="url(#clip93)" fill="none" opacity="1" stroke="none" stroke-opacity="0" transform="matrix(2.5,0,0,2.5,25,5)"><path d="M0,0 L60,0 L60,60 L0,60 L0,0 z" fill-rule="evenodd" vector-effect="none"/></g></g></svg>
