<?xml version="1.0" encoding="UTF-8"?><svg width="52.9167mm" height="14.2875mm" viewBox="0 0 200 54" xmlns="http://www.w3.org/2000/svg" xmlns:xlink="http://www.w3.org/1999/xlink"><g fill="none" stroke="black" stroke-width="1" fill-rule="evenodd" stroke-linecap="square" stroke-linejoin="bevel"><g clip-path="none" fill="none" opacity="1" stroke="none" stroke-opacity="0" transform="matrix(1,0,0,1,0,0)"><path d="M0,0 L200,0 L200,54 L0,54 L0,0 z" fill-rule="evenodd" vector-effect="none"/></g><defs><clipPath id="clip3"><path d="M7,21 L-147,21 L-147,-21 L7,-21 L7,21 z"/></clipPath></defs><g clip-path="url(#clip3)" fill="none" opacity="1" stroke="#000000" stroke-linecap="round" stroke-linejoin="miter" stroke-miterlimit="2" stroke-opacity="1" stroke-width="2" transform="matrix(-1.2987,0,0,-1.2987,9.09091,27.2727)"><path d="M5,-5 L0,0 L5,5" fill-rule="evenodd" vector-effect="none"/></g><defs><clipPath id="clip6"><path d="M-147,-21 L7,-21 L7,21 L-147,21 L-147,-21 z"/></clipPath></defs><g clip-path="url(#clip6)" fill="none" opacity="1" stroke="#000000" stroke-linecap="round" stroke-linejoin="miter" stroke-miterlimit="2" stroke-opacity="1" stroke-width="2" transform="matrix(1.2987,0,0,1.2987,190.909,27.2727)"><path d="M0,-5 L5,0 L0,5" fill-rule="evenodd" vector-effect="none"/></g><defs><clipPath id="clip9"><path d="M-7,-2 L147,-2 L147,40 L-7,40 L-7,-2 z"/></clipPath></defs><g clip-path="url(#clip9)" fill="#ffffff" fill-opacity="1" opacity="1" stroke="none" stroke-opacity="0" transform="matrix(1.2987,0,0,1.2987,9.09091,2.5974)"><path d="M0,0 L140,0 L140,38 L0,38 L0,0 z" fill-rule="evenodd" vector-effect="none"/></g><defs><clipPath id="clip14"><path d="M-358,-97 L359,-97 L359,98 L-358,98 L-358,-97 z"/></clipPath></defs><g clip-path="url(#clip14)" fill="none" opacity="1" stroke="#000000" stroke-linecap="butt" stroke-linejoin="miter" stroke-miterlimit="2" stroke-opacity="1" stroke-width="0.77" transform="matrix(0.253653,0,0,0.253653,100,27.2727)"><text fill="#000000" fill-opacity="1" font-family="Liberation Sans" font-size="40" font-style="normal" font-weight="400" stroke="none" textLength="329" x="-214.734" xml:space="preserve" y="17.9219">RotationMatrix2VR</text></g><defs><clipPath id="clip20"><path d="M-7,-2 L147,-2 L147,40 L-7,40 L-7,-2 z"/></clipPath></defs><g clip-path="url(#clip20)" fill="none" opacity="1" stroke="#000000" stroke-linecap="butt" stroke-linejoin="miter" stroke-miterlimit="2" stroke-opacity="1" stroke-width="0.900733" transform="matrix(1.2987,0,0,1.2987,9.09091,2.5974)"><path d="M0,0 L140,0 L140,38 L0,38 L0,0 z" fill-rule="evenodd" vector-effect="none"/></g></g></svg>
