<?xml version="1.0" encoding="UTF-8"?><svg width="52.9167mm" height="48.9479mm" viewBox="0 0 200 185" xmlns="http://www.w3.org/2000/svg" xmlns:xlink="http://www.w3.org/1999/xlink"><g fill="none" stroke="black" stroke-width="1" fill-rule="evenodd" stroke-linecap="square" stroke-linejoin="bevel"><g clip-path="none" fill="none" opacity="1" stroke="none" stroke-opacity="0" transform="matrix(1,0,0,1,0,0)"><path d="M0,0 L200,0 L200,185 L0,185 L0,0 z" fill-rule="evenodd" vector-effect="none"/></g><defs><clipPath id="clip6"><path d="M0,0 L10,0 L10,10 L0,10 L0,0 z"/></clipPath></defs><g clip-path="url(#clip6)" fill="#b3b3b3" fill-opacity="1" opacity="1" stroke="none" stroke-opacity="0" transform="matrix(3.06152e-16,-5,5,3.06152e-16,80,50)"><path d="M0.5,3.5 L3.5,3.5 L3.5,6.5 L0.5,6.5 L0.5,3.5 z" fill-rule="evenodd" vector-effect="none"/></g><defs><clipPath id="clip8"><path d="M0,0 L10,0 L10,10 L0,10 L0,0 z"/></clipPath></defs><g clip-path="url(#clip8)" fill="#000000" fill-opacity="1" opacity="1" stroke="none" stroke-opacity="0" transform="matrix(3.06152e-16,-5,5,3.06152e-16,80,50)"><path d="M3,4 L3,6 L1,6 L1,4 L3,4 M4,3 L0,3 L0,7 L4,7 L4,3" fill-rule="nonzero" vector-effect="none"/></g><defs><clipPath id="clip25"><path d="M-2,-10 L38,-10 L38,27 L-2,27 L-2,-10 z"/></clipPath></defs><g clip-path="url(#clip25)" fill="#ffffff" fill-opacity="1" opacity="1" stroke="none" stroke-opacity="0" transform="matrix(5,0,0,5,10,50)"><path d="M0,0 L36,0 L36,25 L0,25 L0,0 z" fill-rule="evenodd" vector-effect="none"/></g><defs><clipPath id="clip29"><path d="M0,0 L36,0 L36,25 L0,25 L0,0 z"/></clipPath></defs><g clip-path="url(#clip29)" fill="none" opacity="1" stroke="none" stroke-opacity="0" transform="matrix(5,0,0,5,10,50)"><path d="M0,0 L36,0 L36,25 L0,25 L0,0 z" fill-rule="evenodd" vector-effect="none"/></g><defs><clipPath id="clip39"><path d="M1,1 L26,1 L26,37 L1,37 L1,1 z"/></clipPath></defs><g clip-path="url(#clip39)" fill="none" opacity="1" stroke="#81afca" stroke-linecap="butt" stroke-linejoin="miter" stroke-miterlimit="20" stroke-opacity="1" stroke-width="1.365" transform="matrix(9.18455e-16,5,5,-9.18455e-16,5,45)"><path d="M13.5001,7.75001 L13.5001,30.25" fill-rule="nonzero" vector-effect="none"/></g><defs><clipPath id="clip40"><path d="M1,1 L26,1 L26,37 L1,37 L1,1 z"/></clipPath></defs><g clip-path="url(#clip40)" fill="none" opacity="1" stroke="#81afca" stroke-linecap="butt" stroke-linejoin="miter" stroke-miterlimit="20" stroke-opacity="1" stroke-width="1.365" transform="matrix(9.18455e-16,5,5,-9.18455e-16,5,45)"><path d="M13.5001,7.75001 L26.0001,19 L13.5001,30.25" fill-rule="nonzero" vector-effect="none"/></g><defs><clipPath id="clip41"><path d="M1,1 L26,1 L26,37 L1,37 L1,1 z"/></clipPath></defs><g clip-path="url(#clip41)" fill="none" opacity="1" stroke="#ffffff" stroke-linecap="butt" stroke-linejoin="miter" stroke-miterlimit="20" stroke-opacity="1" stroke-width="1.365" transform="matrix(9.18455e-16,5,5,-9.18455e-16,5,45)"><path d="M1.00001,1 L26.0001,1 L26.0001,37 L1.00001,37 L1.00001,1 z" fill-rule="nonzero" vector-effect="none"/></g><defs><clipPath id="clip58"><path d="M-113,-92 L15,-92 L15,92 L-113,92 L-113,-92 z"/></clipPath></defs><g clip-path="url(#clip58)" fill="none" opacity="1" stroke="#e60000" stroke-linecap="square" stroke-linejoin="bevel" stroke-opacity="1" stroke-width="1" transform="matrix(0,-0.976562,0.976562,0,100,65)"><text fill="#e60000" fill-opacity="1" font-family="Liberation Sans" font-size="40" font-style="normal" font-weight="400" stroke="none" textLength="23" x="-29.8906" xml:space="preserve" y="17.9219">~</text></g><defs><clipPath id="clip64"><path d="M-2,-10 L38,-10 L38,27 L-2,27 L-2,-10 z"/></clipPath></defs><g clip-path="url(#clip64)" fill="none" opacity="1" stroke="none" stroke-opacity="0" transform="matrix(5,0,0,5,10,50)"><path d="M0,0 L36,0 L36,25 L0,25 L0,0 z" fill-rule="evenodd" vector-effect="none"/></g></g></svg>
