<?xml version="1.0" encoding="UTF-8"?><svg width="47.0958mm" height="52.9167mm" viewBox="0 0 178 200" xmlns="http://www.w3.org/2000/svg" xmlns:xlink="http://www.w3.org/1999/xlink"><g fill="none" stroke="black" stroke-width="1" fill-rule="evenodd" stroke-linecap="square" stroke-linejoin="bevel"><g clip-path="none" fill="none" opacity="1" stroke="none" stroke-opacity="0" transform="matrix(1,0,0,1,0,0)"><path d="M0,0 L178,0 L178,200 L0,200 L0,0 z" fill-rule="evenodd" vector-effect="none"/></g><defs><clipPath id="clip6"><path d="M0,0 L10,0 L10,10 L0,10 L0,0 z"/></clipPath></defs><g clip-path="url(#clip6)" fill="#b3b3b3" fill-opacity="1" opacity="1" stroke="none" stroke-opacity="0" transform="matrix(2.38095,0,0,2.38095,154.762,150)"><path d="M0.5,3.5 L3.5,3.5 L3.5,6.5 L0.5,6.5 L0.5,3.5 z" fill-rule="evenodd" vector-effect="none"/></g><defs><clipPath id="clip8"><path d="M0,0 L10,0 L10,10 L0,10 L0,0 z"/></clipPath></defs><g clip-path="url(#clip8)" fill="#000000" fill-opacity="1" opacity="1" stroke="none" stroke-opacity="0" transform="matrix(2.38095,0,0,2.38095,154.762,150)"><path d="M3,4 L3,6 L1,6 L1,4 L3,4 M4,3 L0,3 L0,7 L4,7 L4,3" fill-rule="nonzero" vector-effect="none"/></g><defs><clipPath id="clip28"><path d="M0,0 L10,0 L10,10 L0,10 L0,0 z"/></clipPath></defs><g clip-path="url(#clip28)" fill="#b3b3b3" fill-opacity="1" opacity="1" stroke="none" stroke-opacity="0" transform="matrix(2.38095,0,0,2.38095,154.762,90.4762)"><path d="M0.5,3.5 L3.5,3.5 L3.5,6.5 L0.5,6.5 L0.5,3.5 z" fill-rule="evenodd" vector-effect="none"/></g><defs><clipPath id="clip30"><path d="M0,0 L10,0 L10,10 L0,10 L0,0 z"/></clipPath></defs><g clip-path="url(#clip30)" fill="#000000" fill-opacity="1" opacity="1" stroke="none" stroke-opacity="0" transform="matrix(2.38095,0,0,2.38095,154.762,90.4762)"><path d="M3,4 L3,6 L1,6 L1,4 L3,4 M4,3 L0,3 L0,7 L4,7 L4,3" fill-rule="nonzero" vector-effect="none"/></g><defs><clipPath id="clip50"><path d="M0,0 L10,0 L10,10 L0,10 L0,0 z"/></clipPath></defs><g clip-path="url(#clip50)" fill="#b3b3b3" fill-opacity="1" opacity="1" stroke="none" stroke-opacity="0" transform="matrix(2.38095,0,0,2.38095,154.762,30.9524)"><path d="M0.5,3.5 L3.5,3.5 L3.5,6.5 L0.5,6.5 L0.5,3.5 z" fill-rule="evenodd" vector-effect="none"/></g><defs><clipPath id="clip52"><path d="M0,0 L10,0 L10,10 L0,10 L0,0 z"/></clipPath></defs><g clip-path="url(#clip52)" fill="#000000" fill-opacity="1" opacity="1" stroke="none" stroke-opacity="0" transform="matrix(2.38095,0,0,2.38095,154.762,30.9524)"><path d="M3,4 L3,6 L1,6 L1,4 L3,4 M4,3 L0,3 L0,7 L4,7 L4,3" fill-rule="nonzero" vector-effect="none"/></g><defs><clipPath id="clip72"><path d="M0,0 L10,0 L10,10 L0,10 L0,0 z"/></clipPath></defs><g clip-path="url(#clip72)" fill="#b3b3b3" fill-opacity="1" opacity="1" stroke="none" stroke-opacity="0" transform="matrix(-2.38095,0,0,2.38095,23.8095,90.4762)"><path d="M0.5,3.5 L3.5,3.5 L3.5,6.5 L0.5,6.5 L0.5,3.5 z" fill-rule="evenodd" vector-effect="none"/></g><defs><clipPath id="clip74"><path d="M0,0 L10,0 L10,10 L0,10 L0,0 z"/></clipPath></defs><g clip-path="url(#clip74)" fill="#000000" fill-opacity="1" opacity="1" stroke="none" stroke-opacity="0" transform="matrix(-2.38095,0,0,2.38095,23.8095,90.4762)"><path d="M3,4 L3,6 L1,6 L1,4 L3,4 M4,3 L0,3 L0,7 L4,7 L4,3" fill-rule="nonzero" vector-effect="none"/></g><defs><clipPath id="clip91"><path d="M-10,-2 L65,-2 L65,82 L-10,82 L-10,-2 z"/></clipPath></defs><g clip-path="url(#clip91)" fill="#ffffff" fill-opacity="1" opacity="1" stroke="none" stroke-opacity="0" transform="matrix(2.38095,0,0,2.38095,23.8095,4.7619)"><path d="M0,0 L55,0 L55,80 L0,80 L0,0 z" fill-rule="evenodd" vector-effect="none"/></g><defs><clipPath id="clip95"><path d="M0,0 L55,0 L55,80 L0,80 L0,0 z"/></clipPath></defs><g clip-path="url(#clip95)" fill="none" opacity="1" stroke="none" stroke-opacity="0" transform="matrix(2.38095,0,0,2.38095,23.8095,4.7619)"><path d="M0,0 L55,0 L55,80 L0,80 L0,0 z" fill-rule="evenodd" vector-effect="none"/></g><defs><clipPath id="clip105"><path d="M1,1 L56,1 L56,81 L1,81 L1,1 z"/></clipPath></defs><g clip-path="url(#clip105)" fill="none" opacity="1" stroke="#81afca" stroke-linecap="butt" stroke-linejoin="miter" stroke-miterlimit="20" stroke-opacity="1" stroke-width="2.6325" transform="matrix(2.38095,0,0,2.38095,21.4286,2.38095)"><path d="M1,41.0001 L16.7143,41.0001" fill-rule="nonzero" vector-effect="none"/></g><defs><clipPath id="clip106"><path d="M1,1 L56,1 L56,81 L1,81 L1,1 z"/></clipPath></defs><g clip-path="url(#clip106)" fill="none" opacity="1" stroke="#3369c9" stroke-linecap="butt" stroke-linejoin="miter" stroke-miterlimit="20" stroke-opacity="1" stroke-width="2.6325" transform="matrix(2.38095,0,0,2.38095,21.4286,2.38095)"><path d="M1,38.3334 L16.7143,38.3334" fill-rule="nonzero" vector-effect="none"/></g><defs><clipPath id="clip107"><path d="M1,1 L56,1 L56,81 L1,81 L1,1 z"/></clipPath></defs><g clip-path="url(#clip107)" fill="none" opacity="1" stroke="#3369c9" stroke-linecap="butt" stroke-linejoin="miter" stroke-miterlimit="20" stroke-opacity="1" stroke-width="2.6325" transform="matrix(2.38095,0,0,2.38095,21.4286,2.38095)"><path d="M1,43.6667 L16.7143,43.6667" fill-rule="nonzero" vector-effect="none"/></g><defs><clipPath id="clip108"><path d="M1,1 L56,1 L56,81 L1,81 L1,1 z"/></clipPath></defs><g clip-path="url(#clip108)" fill="none" opacity="1" stroke="#3369c9" stroke-linecap="butt" stroke-linejoin="miter" stroke-miterlimit="20" stroke-opacity="1" stroke-width="2.6325" transform="matrix(2.38095,0,0,2.38095,21.4286,2.38095)"><path d="M56.0001,14.3334 L40.2858,14.3334" fill-rule="nonzero" vector-effect="none"/></g><defs><clipPath id="clip109"><path d="M1,1 L56,1 L56,81 L1,81 L1,1 z"/></clipPath></defs><g clip-path="url(#clip109)" fill="none" opacity="1" stroke="#3369c9" stroke-linecap="butt" stroke-linejoin="miter" stroke-miterlimit="20" stroke-opacity="1" stroke-width="2.6325" transform="matrix(2.38095,0,0,2.38095,21.4286,2.38095)"><path d="M56.0001,41.0001 L40.2858,41.0001" fill-rule="nonzero" vector-effect="none"/></g><defs><clipPath id="clip110"><path d="M1,1 L56,1 L56,81 L1,81 L1,1 z"/></clipPath></defs><g clip-path="url(#clip110)" fill="none" opacity="1" stroke="#3369c9" stroke-linecap="butt" stroke-linejoin="miter" stroke-miterlimit="20" stroke-opacity="1" stroke-width="2.6325" transform="matrix(2.38095,0,0,2.38095,21.4286,2.38095)"><path d="M56.0001,67.6668 L40.2858,67.6668" fill-rule="nonzero" vector-effect="none"/></g><defs><clipPath id="clip111"><path d="M1,1 L56,1 L56,81 L1,81 L1,1 z"/></clipPath></defs><g clip-path="url(#clip111)" fill="none" opacity="1" stroke="#3369c9" stroke-linecap="butt" stroke-linejoin="miter" stroke-miterlimit="20" stroke-opacity="1" stroke-width="2.6325" transform="matrix(2.38095,0,0,2.38095,21.4286,2.38095)"><path d="M16.7143,38.3334 L40.2858,14.3334" fill-rule="nonzero" vector-effect="none"/></g><defs><clipPath id="clip112"><path d="M1,1 L56,1 L56,81 L1,81 L1,1 z"/></clipPath></defs><g clip-path="url(#clip112)" fill="none" opacity="1" stroke="#3369c9" stroke-linecap="butt" stroke-linejoin="miter" stroke-miterlimit="20" stroke-opacity="1" stroke-width="2.6325" transform="matrix(2.38095,0,0,2.38095,21.4286,2.38095)"><path d="M16.7143,41.0001 L40.2858,41.0001" fill-rule="nonzero" vector-effect="none"/></g><defs><clipPath id="clip113"><path d="M1,1 L56,1 L56,81 L1,81 L1,1 z"/></clipPath></defs><g clip-path="url(#clip113)" fill="none" opacity="1" stroke="#3369c9" stroke-linecap="butt" stroke-linejoin="miter" stroke-miterlimit="20" stroke-opacity="1" stroke-width="2.6325" transform="matrix(2.38095,0,0,2.38095,21.4286,2.38095)"><path d="M16.7143,43.6667 L40.2858,67.6668" fill-rule="nonzero" vector-effect="none"/></g><defs><clipPath id="clip114"><path d="M1,1 L56,1 L56,81 L1,81 L1,1 z"/></clipPath></defs><g clip-path="url(#clip114)" fill="none" opacity="1" stroke="#ffffff" stroke-linecap="butt" stroke-linejoin="miter" stroke-miterlimit="20" stroke-opacity="1" stroke-width="2.6325" transform="matrix(2.38095,0,0,2.38095,21.4286,2.38095)"><path d="M1,1.00001 L56.0001,1.00001 L56.0001,81.0001 L1,81.0001 L1,1.00001 z" fill-rule="nonzero" vector-effect="none"/></g><defs><clipPath id="clip131"><path d="M-266,-333 L16,-333 L16,77 L-266,77 L-266,-333 z"/></clipPath></defs><g clip-path="url(#clip131)" fill="none" opacity="1" stroke="#e60000" stroke-linecap="square" stroke-linejoin="bevel" stroke-opacity="1" stroke-width="1" transform="matrix(0.46503,0,0,0.46503,147.619,159.524)"><text fill="#e60000" fill-opacity="1" font-family="Liberation Sans" font-size="40" font-style="normal" font-weight="400" stroke="none" textLength="20" x="-25.5938" xml:space="preserve" y="17.9219">c</text></g><defs><clipPath id="clip134"><path d="M-266,-205 L16,-205 L16,205 L-266,205 L-266,-205 z"/></clipPath></defs><g clip-path="url(#clip134)" fill="none" opacity="1" stroke="#e60000" stroke-linecap="square" stroke-linejoin="bevel" stroke-opacity="1" stroke-width="1" transform="matrix(0.46503,0,0,0.46503,147.619,100)"><text fill="#e60000" fill-opacity="1" font-family="Liberation Sans" font-size="40" font-style="normal" font-weight="400" stroke="none" textLength="22" x="-28.4531" xml:space="preserve" y="17.9219">b</text></g><defs><clipPath id="clip137"><path d="M-266,-77 L16,-77 L16,333 L-266,333 L-266,-77 z"/></clipPath></defs><g clip-path="url(#clip137)" fill="none" opacity="1" stroke="#e60000" stroke-linecap="square" stroke-linejoin="bevel" stroke-opacity="1" stroke-width="1" transform="matrix(0.46503,0,0,0.46503,147.619,40.4762)"><text fill="#e60000" fill-opacity="1" font-family="Liberation Sans" font-size="40" font-style="normal" font-weight="400" stroke="none" textLength="22" x="-28.4531" xml:space="preserve" y="17.9219">a</text></g><defs><clipPath id="clip140"><path d="M-15,-205 L267,-205 L267,205 L-15,205 L-15,-205 z"/></clipPath></defs><g clip-path="url(#clip140)" fill="none" opacity="1" stroke="#e60000" stroke-linecap="square" stroke-linejoin="bevel" stroke-opacity="1" stroke-width="1" transform="matrix(0.46503,0,0,0.46503,30.9524,100)"><text fill="#e60000" fill-opacity="1" font-family="Liberation Sans" font-size="40" font-style="normal" font-weight="400" stroke="none" textLength="23" x="0" xml:space="preserve" y="17.9219">~</text></g><defs><clipPath id="clip146"><path d="M-10,-2 L65,-2 L65,82 L-10,82 L-10,-2 z"/></clipPath></defs><g clip-path="url(#clip146)" fill="none" opacity="1" stroke="none" stroke-opacity="0" transform="matrix(2.38095,0,0,2.38095,23.8095,4.7619)"><path d="M0,0 L55,0 L55,80 L0,80 L0,0 z" fill-rule="evenodd" vector-effect="none"/></g></g></svg>
