<?xml version="1.0" encoding="UTF-8"?><svg width="52.9167mm" height="44.45mm" viewBox="0 0 200 168" xmlns="http://www.w3.org/2000/svg" xmlns:xlink="http://www.w3.org/1999/xlink"><g fill="none" stroke="black" stroke-width="1" fill-rule="evenodd" stroke-linecap="square" stroke-linejoin="bevel"><g clip-path="none" fill="none" opacity="1" stroke="none" stroke-opacity="0" transform="matrix(1,0,0,1,0,0)"><path d="M0,0 L200,0 L200,168 L0,168 L0,0 z" fill-rule="evenodd" vector-effect="none"/></g><defs><clipPath id="clip6"><path d="M0,0 L10,0 L10,10 L0,10 L0,0 z"/></clipPath></defs><g clip-path="url(#clip6)" fill="#b3b3b3" fill-opacity="1" opacity="1" stroke="none" stroke-opacity="0" transform="matrix(2,0,0,2,180,126)"><path d="M0.5,3.5 L3.5,3.5 L3.5,6.5 L0.5,6.5 L0.5,3.5 z" fill-rule="evenodd" vector-effect="none"/></g><defs><clipPath id="clip8"><path d="M0,0 L10,0 L10,10 L0,10 L0,0 z"/></clipPath></defs><g clip-path="url(#clip8)" fill="#000000" fill-opacity="1" opacity="1" stroke="none" stroke-opacity="0" transform="matrix(2,0,0,2,180,126)"><path d="M3,4 L3,6 L1,6 L1,4 L3,4 M4,3 L0,3 L0,7 L4,7 L4,3" fill-rule="nonzero" vector-effect="none"/></g><defs><clipPath id="clip28"><path d="M0,0 L10,0 L10,10 L0,10 L0,0 z"/></clipPath></defs><g clip-path="url(#clip28)" fill="#b3b3b3" fill-opacity="1" opacity="1" stroke="none" stroke-opacity="0" transform="matrix(2,0,0,2,180,76)"><path d="M0.5,3.5 L3.5,3.5 L3.5,6.5 L0.5,6.5 L0.5,3.5 z" fill-rule="evenodd" vector-effect="none"/></g><defs><clipPath id="clip30"><path d="M0,0 L10,0 L10,10 L0,10 L0,0 z"/></clipPath></defs><g clip-path="url(#clip30)" fill="#000000" fill-opacity="1" opacity="1" stroke="none" stroke-opacity="0" transform="matrix(2,0,0,2,180,76)"><path d="M3,4 L3,6 L1,6 L1,4 L3,4 M4,3 L0,3 L0,7 L4,7 L4,3" fill-rule="nonzero" vector-effect="none"/></g><defs><clipPath id="clip50"><path d="M0,0 L10,0 L10,10 L0,10 L0,0 z"/></clipPath></defs><g clip-path="url(#clip50)" fill="#ffffff" fill-opacity="1" opacity="1" stroke="none" stroke-opacity="0" transform="matrix(2,0,0,2,180,26)"><path d="M0.5,0.809 L8.882,5 L0.5,9.191 L0.5,0.809 z" fill-rule="evenodd" vector-effect="none"/></g><defs><clipPath id="clip52"><path d="M0,0 L10,0 L10,10 L0,10 L0,0 z"/></clipPath></defs><g clip-path="url(#clip52)" fill="#000000" fill-opacity="1" opacity="1" stroke="none" stroke-opacity="0" transform="matrix(2,0,0,2,180,26)"><path d="M1,1.618 L7.764,5 L1,8.382 L1,1.618 M0,0 L0,10 L10,5 L0,0" fill-rule="nonzero" vector-effect="none"/></g><defs><clipPath id="clip74"><path d="M0,0 L10,0 L10,10 L0,10 L0,0 z"/></clipPath></defs><g clip-path="url(#clip74)" fill="#b3b3b3" fill-opacity="1" opacity="1" stroke="none" stroke-opacity="0" transform="matrix(-2,0,0,2,20,136)"><path d="M0.5,3.5 L3.5,3.5 L3.5,6.5 L0.5,6.5 L0.5,3.5 z" fill-rule="evenodd" vector-effect="none"/></g><defs><clipPath id="clip76"><path d="M0,0 L10,0 L10,10 L0,10 L0,0 z"/></clipPath></defs><g clip-path="url(#clip76)" fill="#000000" fill-opacity="1" opacity="1" stroke="none" stroke-opacity="0" transform="matrix(-2,0,0,2,20,136)"><path d="M3,4 L3,6 L1,6 L1,4 L3,4 M4,3 L0,3 L0,7 L4,7 L4,3" fill-rule="nonzero" vector-effect="none"/></g><defs><clipPath id="clip96"><path d="M0,0 L10,0 L10,10 L0,10 L0,0 z"/></clipPath></defs><g clip-path="url(#clip96)" fill="#b3b3b3" fill-opacity="1" opacity="1" stroke="none" stroke-opacity="0" transform="matrix(-2,0,0,2,20,96)"><path d="M0.5,3.5 L3.5,3.5 L3.5,6.5 L0.5,6.5 L0.5,3.5 z" fill-rule="evenodd" vector-effect="none"/></g><defs><clipPath id="clip98"><path d="M0,0 L10,0 L10,10 L0,10 L0,0 z"/></clipPath></defs><g clip-path="url(#clip98)" fill="#000000" fill-opacity="1" opacity="1" stroke="none" stroke-opacity="0" transform="matrix(-2,0,0,2,20,96)"><path d="M3,4 L3,6 L1,6 L1,4 L3,4 M4,3 L0,3 L0,7 L4,7 L4,3" fill-rule="nonzero" vector-effect="none"/></g><defs><clipPath id="clip118"><path d="M0,0 L10,0 L10,10 L0,10 L0,0 z"/></clipPath></defs><g clip-path="url(#clip118)" fill="#b3b3b3" fill-opacity="1" opacity="1" stroke="none" stroke-opacity="0" transform="matrix(-2,0,0,2,20,56)"><path d="M0.5,3.5 L3.5,3.5 L3.5,6.5 L0.5,6.5 L0.5,3.5 z" fill-rule="evenodd" vector-effect="none"/></g><defs><clipPath id="clip120"><path d="M0,0 L10,0 L10,10 L0,10 L0,0 z"/></clipPath></defs><g clip-path="url(#clip120)" fill="#000000" fill-opacity="1" opacity="1" stroke="none" stroke-opacity="0" transform="matrix(-2,0,0,2,20,56)"><path d="M3,4 L3,6 L1,6 L1,4 L3,4 M4,3 L0,3 L0,7 L4,7 L4,3" fill-rule="nonzero" vector-effect="none"/></g><defs><clipPath id="clip140"><path d="M0,0 L10,0 L10,10 L0,10 L0,0 z"/></clipPath></defs><g clip-path="url(#clip140)" fill="#b3b3b3" fill-opacity="1" opacity="1" stroke="none" stroke-opacity="0" transform="matrix(-2,0,0,2,20,16)"><path d="M0.5,3.5 L3.5,3.5 L3.5,6.5 L0.5,6.5 L0.5,3.5 z" fill-rule="evenodd" vector-effect="none"/></g><defs><clipPath id="clip142"><path d="M0,0 L10,0 L10,10 L0,10 L0,0 z"/></clipPath></defs><g clip-path="url(#clip142)" fill="#000000" fill-opacity="1" opacity="1" stroke="none" stroke-opacity="0" transform="matrix(-2,0,0,2,20,16)"><path d="M3,4 L3,6 L1,6 L1,4 L3,4 M4,3 L0,3 L0,7 L4,7 L4,3" fill-rule="nonzero" vector-effect="none"/></g><defs><clipPath id="clip159"><path d="M-10,-2 L90,-2 L90,82 L-10,82 L-10,-2 z"/></clipPath></defs><g clip-path="url(#clip159)" fill="#ffffff" fill-opacity="1" opacity="1" stroke="none" stroke-opacity="0" transform="matrix(2,0,0,2,20,4)"><path d="M0,0 L80,0 L80,80 L0,80 L0,0 z" fill-rule="evenodd" vector-effect="none"/></g><defs><clipPath id="clip163"><path d="M0,0 L80,0 L80,80 L0,80 L0,0 z"/></clipPath></defs><g clip-path="url(#clip163)" fill="none" opacity="1" stroke="none" stroke-opacity="0" transform="matrix(2,0,0,2,20,4)"><path d="M0,0 L80,0 L80,80 L0,80 L0,0 z" fill-rule="evenodd" vector-effect="none"/></g><defs><clipPath id="clip173"><path d="M1,1 L81,1 L81,81 L1,81 L1,1 z"/></clipPath></defs><g clip-path="url(#clip173)" fill="none" opacity="1" stroke="#81afca" stroke-linecap="butt" stroke-linejoin="miter" stroke-miterlimit="20" stroke-opacity="1" stroke-width="2.6325" transform="matrix(2,0,0,2,18,2)"><path d="M38.3334,18.3334 L38.4816,22.8075" fill-rule="nonzero" vector-effect="none"/></g><defs><clipPath id="clip174"><path d="M1,1 L81,1 L81,81 L1,81 L1,1 z"/></clipPath></defs><g clip-path="url(#clip174)" fill="none" opacity="1" stroke="#81afca" stroke-linecap="butt" stroke-linejoin="miter" stroke-miterlimit="20" stroke-opacity="1" stroke-width="2.6325" transform="matrix(2,0,0,2,18,2)"><path d="M59.2964,54.6594 L55.4297,52.1556" fill-rule="nonzero" vector-effect="none"/></g><defs><clipPath id="clip175"><path d="M1,1 L81,1 L81,81 L1,81 L1,1 z"/></clipPath></defs><g clip-path="url(#clip175)" fill="none" opacity="1" stroke="#81afca" stroke-linecap="butt" stroke-linejoin="miter" stroke-miterlimit="20" stroke-opacity="1" stroke-width="2.6325" transform="matrix(2,0,0,2,18,2)"><path d="M61.8297,50.3334 L57.8594,48.2149" fill-rule="nonzero" vector-effect="none"/></g><defs><clipPath id="clip176"><path d="M1,1 L81,1 L81,81 L1,81 L1,1 z"/></clipPath></defs><g clip-path="url(#clip176)" fill="none" opacity="1" stroke="#81afca" stroke-linecap="butt" stroke-linejoin="miter" stroke-miterlimit="20" stroke-opacity="1" stroke-width="2.6325" transform="matrix(2,0,0,2,18,2)"><path d="M61.7408,31.8149 L57.6223,33.9186" fill-rule="nonzero" vector-effect="none"/></g><defs><clipPath id="clip177"><path d="M1,1 L81,1 L81,81 L1,81 L1,1 z"/></clipPath></defs><g clip-path="url(#clip177)" fill="none" opacity="1" stroke="#81afca" stroke-linecap="butt" stroke-linejoin="miter" stroke-miterlimit="20" stroke-opacity="1" stroke-width="2.6325" transform="matrix(2,0,0,2,18,2)"><path d="M43.4149,18.363 L43.2667,22.8371" fill-rule="nonzero" vector-effect="none"/></g><defs><clipPath id="clip178"><path d="M1,1 L81,1 L81,81 L1,81 L1,1 z"/></clipPath></defs><g clip-path="url(#clip178)" fill="none" opacity="1" stroke="#81afca" stroke-linecap="butt" stroke-linejoin="miter" stroke-miterlimit="20" stroke-opacity="1" stroke-width="2.6325" transform="matrix(2,0,0,2,18,2)"><path d="M59.4149,27.6963 L55.5482,30.2001" fill-rule="nonzero" vector-effect="none"/></g><defs><clipPath id="clip179"><path d="M1,1 L81,1 L81,81 L1,81 L1,1 z"/></clipPath></defs><g clip-path="url(#clip179)" fill="none" opacity="1" stroke="#81afca" stroke-linecap="butt" stroke-linejoin="miter" stroke-miterlimit="20" stroke-opacity="1" stroke-width="2.6325" transform="matrix(2,0,0,2,18,2)"><path d="M22.763,54.4668 L26.5704,52.1112" fill-rule="nonzero" vector-effect="none"/></g><defs><clipPath id="clip180"><path d="M1,1 L81,1 L81,81 L1,81 L1,1 z"/></clipPath></defs><g clip-path="url(#clip180)" fill="none" opacity="1" stroke="#81afca" stroke-linecap="butt" stroke-linejoin="miter" stroke-miterlimit="20" stroke-opacity="1" stroke-width="2.6325" transform="matrix(2,0,0,2,18,2)"><path d="M20.2,50.3186 L24.2889,48.2297" fill-rule="nonzero" vector-effect="none"/></g><defs><clipPath id="clip181"><path d="M1,1 L81,1 L81,81 L1,81 L1,1 z"/></clipPath></defs><g clip-path="url(#clip181)" fill="none" opacity="1" stroke="#81afca" stroke-linecap="butt" stroke-linejoin="miter" stroke-miterlimit="20" stroke-opacity="1" stroke-width="2.6325" transform="matrix(2,0,0,2,18,2)"><path d="M38.6149,63.6371 L38.8519,59.0445" fill-rule="nonzero" vector-effect="none"/></g><defs><clipPath id="clip182"><path d="M1,1 L81,1 L81,81 L1,81 L1,1 z"/></clipPath></defs><g clip-path="url(#clip182)" fill="none" opacity="1" stroke="#81afca" stroke-linecap="butt" stroke-linejoin="miter" stroke-miterlimit="20" stroke-opacity="1" stroke-width="2.6325" transform="matrix(2,0,0,2,18,2)"><path d="M43.3408,63.6371 L43.1927,59.1483" fill-rule="nonzero" vector-effect="none"/></g><defs><clipPath id="clip183"><path d="M1,1 L81,1 L81,81 L1,81 L1,1 z"/></clipPath></defs><g clip-path="url(#clip183)" fill="none" opacity="1" stroke="#81afca" stroke-linecap="butt" stroke-linejoin="miter" stroke-miterlimit="20" stroke-opacity="1" stroke-width="2.6325" transform="matrix(2,0,0,2,18,2)"><path d="M20.1408,32.0964 L24.0815,34.2149" fill-rule="nonzero" vector-effect="none"/></g><defs><clipPath id="clip184"><path d="M1,1 L81,1 L81,81 L1,81 L1,1 z"/></clipPath></defs><g clip-path="url(#clip184)" fill="none" opacity="1" stroke="#81afca" stroke-linecap="butt" stroke-linejoin="miter" stroke-miterlimit="20" stroke-opacity="1" stroke-width="2.6325" transform="matrix(2,0,0,2,18,2)"><path d="M22.5112,27.7852 L26.3778,30.2889" fill-rule="nonzero" vector-effect="none"/></g><defs><clipPath id="clip185"><path d="M1,1 L81,1 L81,81 L1,81 L1,1 z"/></clipPath></defs><g clip-path="url(#clip185)" fill="none" opacity="1" stroke="#81afca" stroke-linecap="butt" stroke-linejoin="miter" stroke-miterlimit="20" stroke-opacity="1" stroke-width="2.6325" transform="matrix(2,0,0,2,18,2)"><path d="M50.7779,34.3778 L40.0075,53.089" fill-rule="nonzero" vector-effect="none"/></g><defs><clipPath id="clip186"><path d="M1,1 L81,1 L81,81 L1,81 L1,1 z"/></clipPath></defs><g clip-path="url(#clip186)" fill="none" opacity="1" stroke="#81afca" stroke-linecap="butt" stroke-linejoin="miter" stroke-miterlimit="20" stroke-opacity="1" stroke-width="2.6325" transform="matrix(2,0,0,2,18,2)"><path d="M28.5112,46.5408 L31.1186,47.9779" fill-rule="nonzero" vector-effect="none"/></g><defs><clipPath id="clip187"><path d="M1,1 L81,1 L81,81 L1,81 L1,1 z"/></clipPath></defs><g clip-path="url(#clip187)" fill="none" opacity="1" stroke="#81afca" stroke-linecap="butt" stroke-linejoin="miter" stroke-miterlimit="20" stroke-opacity="1" stroke-width="2.6325" transform="matrix(2,0,0,2,18,2)"><path d="M40.1112,53.089 L42.8964,54.5853" fill-rule="nonzero" vector-effect="none"/></g><defs><clipPath id="clip188"><path d="M1,1 L81,1 L81,81 L1,81 L1,1 z"/></clipPath></defs><g clip-path="url(#clip188)" fill="none" opacity="1" stroke="#81afca" stroke-linecap="butt" stroke-linejoin="miter" stroke-miterlimit="20" stroke-opacity="1" stroke-width="2.6325" transform="matrix(2,0,0,2,18,2)"><path d="M50.8371,34.3778 L53.7853,35.9778" fill-rule="nonzero" vector-effect="none"/></g><defs><clipPath id="clip189"><path d="M1,1 L81,1 L81,81 L1,81 L1,1 z"/></clipPath></defs><g clip-path="url(#clip189)" fill="none" opacity="1" stroke="#81afca" stroke-linecap="butt" stroke-linejoin="miter" stroke-miterlimit="20" stroke-opacity="1" stroke-width="2.6325" transform="matrix(2,0,0,2,18,2)"><path d="M39.0001,27.4297 L41.889,29.1482" fill-rule="nonzero" vector-effect="none"/></g><defs><clipPath id="clip190"><path d="M1,1 L81,1 L81,81 L1,81 L1,1 z"/></clipPath></defs><g clip-path="url(#clip190)" fill="none" opacity="1" stroke="#81afca" stroke-linecap="butt" stroke-linejoin="miter" stroke-miterlimit="20" stroke-opacity="1" stroke-width="2.6325" transform="matrix(2,0,0,2,18,2)"><path d="M31.1038,47.9038 L41.9334,29.1334" fill-rule="nonzero" vector-effect="none"/></g><defs><clipPath id="clip191"><path d="M1,1 L81,1 L81,81 L1,81 L1,1 z"/></clipPath></defs><g clip-path="url(#clip191)" fill="none" opacity="1" stroke="#81afca" stroke-linecap="butt" stroke-linejoin="miter" stroke-miterlimit="4" stroke-opacity="1" stroke-width="2.6325" transform="matrix(2,0,0,2,18,2)"><path d="M24.3186,48.289 C23.3345,46.0848 22.8062,43.7045 22.7655,41.2909 C22.7247,38.8774 23.1724,36.4806 24.0815,34.2445" fill-rule="nonzero" vector-effect="none"/></g><defs><clipPath id="clip192"><path d="M1,1 L81,1 L81,81 L1,81 L1,1 z"/></clipPath></defs><g clip-path="url(#clip192)" fill="none" opacity="1" stroke="#81afca" stroke-linecap="butt" stroke-linejoin="miter" stroke-miterlimit="4" stroke-opacity="1" stroke-width="2.6325" transform="matrix(2,0,0,2,18,2)"><path d="M38.9112,59.089 C36.4796,58.7922 34.1304,58.0194 31.9978,56.8144 C29.865,55.6095 27.9907,53.9961 26.4815,52.0668" fill-rule="nonzero" vector-effect="none"/></g><defs><clipPath id="clip193"><path d="M1,1 L81,1 L81,81 L1,81 L1,1 z"/></clipPath></defs><g clip-path="url(#clip193)" fill="none" opacity="1" stroke="#81afca" stroke-linecap="butt" stroke-linejoin="miter" stroke-miterlimit="4" stroke-opacity="1" stroke-width="2.6325" transform="matrix(2,0,0,2,18,2)"><path d="M55.3705,52.1556 C52.3213,55.9238 47.9714,58.4134 43.1779,59.1334" fill-rule="nonzero" vector-effect="none"/></g><defs><clipPath id="clip194"><path d="M1,1 L81,1 L81,81 L1,81 L1,1 z"/></clipPath></defs><g clip-path="url(#clip194)" fill="none" opacity="1" stroke="#81afca" stroke-linecap="butt" stroke-linejoin="miter" stroke-miterlimit="4" stroke-opacity="1" stroke-width="2.6325" transform="matrix(2,0,0,2,18,2)"><path d="M57.7408,33.8741 C58.6927,36.1411 59.1865,38.5739 59.1942,41.0327 C59.2018,43.4914 58.7231,45.9272 57.7853,48.2001" fill-rule="nonzero" vector-effect="none"/></g><defs><clipPath id="clip195"><path d="M1,1 L81,1 L81,81 L1,81 L1,1 z"/></clipPath></defs><g clip-path="url(#clip195)" fill="none" opacity="1" stroke="#81afca" stroke-linecap="butt" stroke-linejoin="miter" stroke-miterlimit="4" stroke-opacity="1" stroke-width="2.6325" transform="matrix(2,0,0,2,18,2)"><path d="M43.2667,22.8815 C45.7159,23.187 48.0771,23.9882 50.2065,25.2363 C52.3359,26.4842 54.1887,28.1531 55.6519,30.1408" fill-rule="nonzero" vector-effect="none"/></g><defs><clipPath id="clip196"><path d="M1,1 L81,1 L81,81 L1,81 L1,1 z"/></clipPath></defs><g clip-path="url(#clip196)" fill="none" opacity="1" stroke="#81afca" stroke-linecap="butt" stroke-linejoin="miter" stroke-miterlimit="4" stroke-opacity="1" stroke-width="2.6325" transform="matrix(2,0,0,2,18,2)"><path d="M26.2149,30.2297 C27.6647,28.2388 29.5084,26.5672 31.6314,25.3183 C33.7541,24.0697 36.1109,23.2704 38.5556,22.9704" fill-rule="nonzero" vector-effect="none"/></g><defs><clipPath id="clip197"><path d="M1,1 L81,1 L81,81 L1,81 L1,1 z"/></clipPath></defs><g clip-path="url(#clip197)" fill="none" opacity="1" stroke="#81afca" stroke-linecap="butt" stroke-linejoin="miter" stroke-miterlimit="4" stroke-opacity="1" stroke-width="2.6325" transform="matrix(2,0,0,2,18,2)"><path d="M20.1852,32.1852 C20.7088,30.6109 21.5228,29.1485 22.5852,27.8741" fill-rule="nonzero" vector-effect="none"/></g><defs><clipPath id="clip198"><path d="M1,1 L81,1 L81,81 L1,81 L1,1 z"/></clipPath></defs><g clip-path="url(#clip198)" fill="none" opacity="1" stroke="#81afca" stroke-linecap="butt" stroke-linejoin="miter" stroke-miterlimit="4" stroke-opacity="1" stroke-width="2.6325" transform="matrix(2,0,0,2,18,2)"><path d="M38.3186,18.5704 C40.0043,18.3488 41.7107,18.3338 43.4001,18.526" fill-rule="nonzero" vector-effect="none"/></g><defs><clipPath id="clip199"><path d="M1,1 L81,1 L81,81 L1,81 L1,1 z"/></clipPath></defs><g clip-path="url(#clip199)" fill="none" opacity="1" stroke="#81afca" stroke-linecap="butt" stroke-linejoin="miter" stroke-miterlimit="4" stroke-opacity="1" stroke-width="2.6325" transform="matrix(2,0,0,2,18,2)"><path d="M59.326,27.7852 C60.2463,29.0605 61.0354,30.4255 61.6816,31.8593" fill-rule="nonzero" vector-effect="none"/></g><defs><clipPath id="clip200"><path d="M1,1 L81,1 L81,81 L1,81 L1,1 z"/></clipPath></defs><g clip-path="url(#clip200)" fill="none" opacity="1" stroke="#81afca" stroke-linecap="butt" stroke-linejoin="miter" stroke-miterlimit="4" stroke-opacity="1" stroke-width="2.6325" transform="matrix(2,0,0,2,18,2)"><path d="M61.6816,50.2297 C61.0085,51.7873 60.1371,53.2512 59.089,54.5853" fill-rule="nonzero" vector-effect="none"/></g><defs><clipPath id="clip201"><path d="M1,1 L81,1 L81,81 L1,81 L1,1 z"/></clipPath></defs><g clip-path="url(#clip201)" fill="none" opacity="1" stroke="#81afca" stroke-linecap="butt" stroke-linejoin="miter" stroke-miterlimit="4" stroke-opacity="1" stroke-width="2.6325" transform="matrix(2,0,0,2,18,2)"><path d="M43.4001,63.5631 C41.7872,63.6957 40.1658,63.6809 38.5556,63.5186" fill-rule="nonzero" vector-effect="none"/></g><defs><clipPath id="clip202"><path d="M1,1 L81,1 L81,81 L1,81 L1,1 z"/></clipPath></defs><g clip-path="url(#clip202)" fill="none" opacity="1" stroke="#81afca" stroke-linecap="butt" stroke-linejoin="miter" stroke-miterlimit="4" stroke-opacity="1" stroke-width="2.6325" transform="matrix(2,0,0,2,18,2)"><path d="M22.8075,54.3927 C21.8157,53.0843 20.9665,51.6739 20.2741,50.1853" fill-rule="nonzero" vector-effect="none"/></g><defs><clipPath id="clip203"><path d="M1,1 L81,1 L81,81 L1,81 L1,1 z"/></clipPath></defs><g clip-path="url(#clip203)" fill="none" opacity="1" stroke="#81afca" stroke-linecap="butt" stroke-linejoin="miter" stroke-miterlimit="4" stroke-opacity="1" stroke-width="2.6325" transform="matrix(2,0,0,2,18,2)"><path d="M38.9556,27.4741 C42.0574,26.9877 45.2319,27.5855 47.944,29.167 C50.6561,30.7485 52.7401,33.2166 53.8445,36.1556" fill-rule="nonzero" vector-effect="none"/></g><defs><clipPath id="clip204"><path d="M1,1 L81,1 L81,81 L1,81 L1,1 z"/></clipPath></defs><g clip-path="url(#clip204)" fill="none" opacity="1" stroke="#81afca" stroke-linecap="butt" stroke-linejoin="miter" stroke-miterlimit="4" stroke-opacity="1" stroke-width="2.6325" transform="matrix(2,0,0,2,18,2)"><path d="M43.0593,54.6445 C40.0591,55.0675 37.0028,54.4991 34.3554,53.0255 C31.708,51.5522 29.6141,49.2544 28.3926,46.4816" fill-rule="nonzero" vector-effect="none"/></g><defs><clipPath id="clip205"><path d="M1,1 L81,1 L81,81 L1,81 L1,1 z"/></clipPath></defs><g clip-path="url(#clip205)" fill="none" opacity="1" stroke="#81afca" stroke-linecap="butt" stroke-linejoin="miter" stroke-miterlimit="4" stroke-opacity="1" stroke-width="2.6325" transform="matrix(2,0,0,2,18,2)"><path d="M69.2964,41.0001 C69.2964,56.6277 56.6277,69.2964 41.0001,69.2964 C25.3724,69.2964 12.7037,56.6277 12.7037,41.0001 C12.7037,25.3724 25.3724,12.7037 41.0001,12.7037 C56.6277,12.7037 69.2964,25.3724 69.2964,41.0001 z" fill-rule="nonzero" vector-effect="none"/></g><defs><clipPath id="clip206"><path d="M1,1 L81,1 L81,81 L1,81 L1,1 z"/></clipPath></defs><g clip-path="url(#clip206)" fill="none" opacity="1" stroke="#81afca" stroke-linecap="butt" stroke-linejoin="miter" stroke-miterlimit="20" stroke-opacity="1" stroke-width="2.6325" transform="matrix(2,0,0,2,18,2)"><path d="M1.00001,1.00001 L81.0001,1.00001 L81.0001,81.0001 L1.00001,81.0001 L1.00001,1.00001 z" fill-rule="nonzero" vector-effect="none"/></g><defs><clipPath id="clip223"><path d="M-394,-333 L16,-333 L16,77 L-394,77 L-394,-333 z"/></clipPath></defs><g clip-path="url(#clip223)" fill="none" opacity="1" stroke="#e60000" stroke-linecap="square" stroke-linejoin="bevel" stroke-opacity="1" stroke-width="1" transform="matrix(0.390625,0,0,0.390625,174,134)"><text fill="#e60000" fill-opacity="1" font-family="Liberation Sans" font-size="40" font-style="normal" font-weight="400" stroke="none" textLength="21" x="-28.4531" xml:space="preserve" y="17.9219">n</text></g><defs><clipPath id="clip226"><path d="M-394,-205 L16,-205 L16,205 L-394,205 L-394,-205 z"/></clipPath></defs><g clip-path="url(#clip226)" fill="none" opacity="1" stroke="#e60000" stroke-linecap="square" stroke-linejoin="bevel" stroke-opacity="1" stroke-width="1" transform="matrix(0.390625,0,0,0.390625,174,84)"><text fill="#e60000" fill-opacity="1" font-family="Liberation Sans" font-size="40" font-style="normal" font-weight="400" stroke="none" textLength="23" x="-29.8906" xml:space="preserve" y="17.9219">~</text></g><defs><clipPath id="clip229"><path d="M-15,-358 L395,-358 L395,52 L-15,52 L-15,-358 z"/></clipPath></defs><g clip-path="url(#clip229)" fill="none" opacity="1" stroke="#e60000" stroke-linecap="square" stroke-linejoin="bevel" stroke-opacity="1" stroke-width="1" transform="matrix(0.390625,0,0,0.390625,26,144)"><text fill="#e60000" fill-opacity="1" font-family="Liberation Sans" font-size="40" font-style="normal" font-weight="400" stroke="none" textLength="29" x="0" xml:space="preserve" y="17.9219">C</text></g><defs><clipPath id="clip232"><path d="M-15,-256 L395,-256 L395,154 L-15,154 L-15,-256 z"/></clipPath></defs><g clip-path="url(#clip232)" fill="none" opacity="1" stroke="#e60000" stroke-linecap="square" stroke-linejoin="bevel" stroke-opacity="1" stroke-width="1" transform="matrix(0.390625,0,0,0.390625,26,104)"><text fill="#e60000" fill-opacity="1" font-family="Liberation Sans" font-size="40" font-style="normal" font-weight="400" stroke="none" textLength="29" x="0" xml:space="preserve" y="17.9219">R</text></g><defs><clipPath id="clip235"><path d="M-15,-154 L395,-154 L395,256 L-15,256 L-15,-154 z"/></clipPath></defs><g clip-path="url(#clip235)" fill="none" opacity="1" stroke="#e60000" stroke-linecap="square" stroke-linejoin="bevel" stroke-opacity="1" stroke-width="1" transform="matrix(0.390625,0,0,0.390625,26,64)"><text fill="#e60000" fill-opacity="1" font-family="Liberation Sans" font-size="40" font-style="normal" font-weight="400" stroke="none" textLength="47" x="0" xml:space="preserve" y="17.9219">fd-</text></g><defs><clipPath id="clip238"><path d="M-15,-51 L395,-51 L395,359 L-15,359 L-15,-51 z"/></clipPath></defs><g clip-path="url(#clip238)" fill="none" opacity="1" stroke="#e60000" stroke-linecap="square" stroke-linejoin="bevel" stroke-opacity="1" stroke-width="1" transform="matrix(0.390625,0,0,0.390625,26,24)"><text fill="#e60000" fill-opacity="1" font-family="Liberation Sans" font-size="40" font-style="normal" font-weight="400" stroke="none" textLength="57" x="0" xml:space="preserve" y="17.9219">fd+</text></g><defs><clipPath id="clip241"><path d="M-394,-77 L16,-77 L16,333 L-394,333 L-394,-77 z"/></clipPath></defs><g clip-path="url(#clip241)" fill="none" opacity="1" stroke="#e60000" stroke-linecap="square" stroke-linejoin="bevel" stroke-opacity="1" stroke-width="1" transform="matrix(0.390625,0,0,0.390625,174,34)"><text fill="#e60000" fill-opacity="1" font-family="Liberation Sans" font-size="40" font-style="normal" font-weight="400" stroke="none" textLength="43" x="-56.9062" xml:space="preserve" y="17.9219">pu</text></g><defs><clipPath id="clip247"><path d="M-10,-2 L90,-2 L90,82 L-10,82 L-10,-2 z"/></clipPath></defs><g clip-path="url(#clip247)" fill="none" opacity="1" stroke="none" stroke-opacity="0" transform="matrix(2,0,0,2,20,4)"><path d="M0,0 L80,0 L80,80 L0,80 L0,0 z" fill-rule="evenodd" vector-effect="none"/></g></g></svg>
