<?xml version="1.0" encoding="UTF-8"?><svg width="52.9167mm" height="44.45mm" viewBox="0 0 200 168" xmlns="http://www.w3.org/2000/svg" xmlns:xlink="http://www.w3.org/1999/xlink"><g fill="none" stroke="black" stroke-width="1" fill-rule="evenodd" stroke-linecap="square" stroke-linejoin="bevel"><g clip-path="none" fill="none" opacity="1" stroke="none" stroke-opacity="0" transform="matrix(1,0,0,1,0,0)"><path d="M0,0 L200,0 L200,168 L0,168 L0,0 z" fill-rule="evenodd" vector-effect="none"/></g><defs><clipPath id="clip6"><path d="M0,0 L10,0 L10,10 L0,10 L0,0 z"/></clipPath></defs><g clip-path="url(#clip6)" fill="#b3b3b3" fill-opacity="1" opacity="1" stroke="none" stroke-opacity="0" transform="matrix(2,0,0,2,180,116)"><path d="M0.5,3.5 L3.5,3.5 L3.5,6.5 L0.5,6.5 L0.5,3.5 z" fill-rule="evenodd" vector-effect="none"/></g><defs><clipPath id="clip8"><path d="M0,0 L10,0 L10,10 L0,10 L0,0 z"/></clipPath></defs><g clip-path="url(#clip8)" fill="#000000" fill-opacity="1" opacity="1" stroke="none" stroke-opacity="0" transform="matrix(2,0,0,2,180,116)"><path d="M3,4 L3,6 L1,6 L1,4 L3,4 M4,3 L0,3 L0,7 L4,7 L4,3" fill-rule="nonzero" vector-effect="none"/></g><defs><clipPath id="clip28"><path d="M0,0 L10,0 L10,10 L0,10 L0,0 z"/></clipPath></defs><g clip-path="url(#clip28)" fill="#b3b3b3" fill-opacity="1" opacity="1" stroke="none" stroke-opacity="0" transform="matrix(2,0,0,2,180,36)"><path d="M0.5,3.5 L3.5,3.5 L3.5,6.5 L0.5,6.5 L0.5,3.5 z" fill-rule="evenodd" vector-effect="none"/></g><defs><clipPath id="clip30"><path d="M0,0 L10,0 L10,10 L0,10 L0,0 z"/></clipPath></defs><g clip-path="url(#clip30)" fill="#000000" fill-opacity="1" opacity="1" stroke="none" stroke-opacity="0" transform="matrix(2,0,0,2,180,36)"><path d="M3,4 L3,6 L1,6 L1,4 L3,4 M4,3 L0,3 L0,7 L4,7 L4,3" fill-rule="nonzero" vector-effect="none"/></g><defs><clipPath id="clip50"><path d="M0,0 L10,0 L10,10 L0,10 L0,0 z"/></clipPath></defs><g clip-path="url(#clip50)" fill="#b3b3b3" fill-opacity="1" opacity="1" stroke="none" stroke-opacity="0" transform="matrix(-2,0,0,2,20,116)"><path d="M0.5,3.5 L3.5,3.5 L3.5,6.5 L0.5,6.5 L0.5,3.5 z" fill-rule="evenodd" vector-effect="none"/></g><defs><clipPath id="clip52"><path d="M0,0 L10,0 L10,10 L0,10 L0,0 z"/></clipPath></defs><g clip-path="url(#clip52)" fill="#000000" fill-opacity="1" opacity="1" stroke="none" stroke-opacity="0" transform="matrix(-2,0,0,2,20,116)"><path d="M3,4 L3,6 L1,6 L1,4 L3,4 M4,3 L0,3 L0,7 L4,7 L4,3" fill-rule="nonzero" vector-effect="none"/></g><defs><clipPath id="clip72"><path d="M0,0 L10,0 L10,10 L0,10 L0,0 z"/></clipPath></defs><g clip-path="url(#clip72)" fill="#b3b3b3" fill-opacity="1" opacity="1" stroke="none" stroke-opacity="0" transform="matrix(-2,0,0,2,20,36)"><path d="M0.5,3.5 L3.5,3.5 L3.5,6.5 L0.5,6.5 L0.5,3.5 z" fill-rule="evenodd" vector-effect="none"/></g><defs><clipPath id="clip74"><path d="M0,0 L10,0 L10,10 L0,10 L0,0 z"/></clipPath></defs><g clip-path="url(#clip74)" fill="#000000" fill-opacity="1" opacity="1" stroke="none" stroke-opacity="0" transform="matrix(-2,0,0,2,20,36)"><path d="M3,4 L3,6 L1,6 L1,4 L3,4 M4,3 L0,3 L0,7 L4,7 L4,3" fill-rule="nonzero" vector-effect="none"/></g><defs><clipPath id="clip91"><path d="M-10,-2 L90,-2 L90,82 L-10,82 L-10,-2 z"/></clipPath></defs><g clip-path="url(#clip91)" fill="#ffffff" fill-opacity="1" opacity="1" stroke="none" stroke-opacity="0" transform="matrix(2,0,0,2,20,4)"><path d="M0,0 L80,0 L80,80 L0,80 L0,0 z" fill-rule="evenodd" vector-effect="none"/></g><defs><clipPath id="clip95"><path d="M0,0 L80,0 L80,80 L0,80 L0,0 z"/></clipPath></defs><g clip-path="url(#clip95)" fill="none" opacity="1" stroke="none" stroke-opacity="0" transform="matrix(2,0,0,2,20,4)"><path d="M0,0 L80,0 L80,80 L0,80 L0,0 z" fill-rule="evenodd" vector-effect="none"/></g><defs><clipPath id="clip105"><path d="M1,1 L81,1 L81,81 L1,81 L1,1 z"/></clipPath></defs><g clip-path="url(#clip105)" fill="none" opacity="1" stroke="#3369c9" stroke-linecap="butt" stroke-linejoin="miter" stroke-miterlimit="20" stroke-opacity="1" stroke-width="2.6325" transform="matrix(2,0,0,2,18,2)"><path d="M57.0001,61.0001 L81.0001,61.0001" fill-rule="nonzero" vector-effect="none"/></g><defs><clipPath id="clip106"><path d="M1,1 L81,1 L81,81 L1,81 L1,1 z"/></clipPath></defs><g clip-path="url(#clip106)" fill="none" opacity="1" stroke="#3369c9" stroke-linecap="butt" stroke-linejoin="miter" stroke-miterlimit="20" stroke-opacity="1" stroke-width="2.6325" transform="matrix(2,0,0,2,18,2)"><path d="M1.00001,61.0001 L57.6668,61.0001" fill-rule="nonzero" vector-effect="none"/></g><defs><clipPath id="clip107"><path d="M1,1 L81,1 L81,81 L1,81 L1,1 z"/></clipPath></defs><g clip-path="url(#clip107)" fill="none" opacity="1" stroke="#81afca" stroke-linecap="butt" stroke-linejoin="miter" stroke-miterlimit="20" stroke-opacity="1" stroke-width="2.6325" transform="matrix(2,0,0,2,18,2)"><path d="M1.00001,1.00001 L81.0001,1.00001 L81.0001,81.0001 L1.00001,81.0001 L1.00001,1.00001 z" fill-rule="nonzero" vector-effect="none"/></g><defs><clipPath id="clip108"><path d="M1,1 L81,1 L81,81 L1,81 L1,1 z"/></clipPath></defs><g clip-path="url(#clip108)" fill="none" opacity="1" stroke="#81afca" stroke-linecap="butt" stroke-linejoin="miter" stroke-miterlimit="20" stroke-opacity="1" stroke-width="2.6325" transform="matrix(2,0,0,2,18,2)"><path d="M14.3334,21 L26.3334,21" fill-rule="nonzero" vector-effect="none"/></g><defs><clipPath id="clip109"><path d="M1,1 L81,1 L81,81 L1,81 L1,1 z"/></clipPath></defs><g clip-path="url(#clip109)" fill="none" opacity="1" stroke="#81afca" stroke-linecap="butt" stroke-linejoin="miter" stroke-miterlimit="20" stroke-opacity="1" stroke-width="2.6325" transform="matrix(2,0,0,2,18,2)"><path d="M39.6667,21 L42.3334,21" fill-rule="nonzero" vector-effect="none"/></g><defs><clipPath id="clip110"><path d="M1,1 L81,1 L81,81 L1,81 L1,1 z"/></clipPath></defs><g clip-path="url(#clip110)" fill="none" opacity="1" stroke="#81afca" stroke-linecap="butt" stroke-linejoin="miter" stroke-miterlimit="20" stroke-opacity="1" stroke-width="2.6325" transform="matrix(2,0,0,2,18,2)"><path d="M63.6668,21 L63.6668,38.3334" fill-rule="nonzero" vector-effect="none"/></g><defs><clipPath id="clip111"><path d="M1,1 L81,1 L81,81 L1,81 L1,1 z"/></clipPath></defs><g clip-path="url(#clip111)" fill="none" opacity="1" stroke="#81afca" stroke-linecap="butt" stroke-linejoin="miter" stroke-miterlimit="20" stroke-opacity="1" stroke-width="2.6325" transform="matrix(2,0,0,2,18,2)"><path d="M29.0001,21 L27.6667,25 L26.3334,21" fill-rule="nonzero" vector-effect="none"/></g><defs><clipPath id="clip112"><path d="M1,1 L81,1 L81,81 L1,81 L1,1 z"/></clipPath></defs><g clip-path="url(#clip112)" fill="none" opacity="1" stroke="#81afca" stroke-linecap="butt" stroke-linejoin="miter" stroke-miterlimit="20" stroke-opacity="1" stroke-width="2.6325" transform="matrix(2,0,0,2,18,2)"><path d="M1.00001,21 L14.3334,21" fill-rule="nonzero" vector-effect="none"/></g><defs><clipPath id="clip113"><path d="M1,1 L81,1 L81,81 L1,81 L1,1 z"/></clipPath></defs><g clip-path="url(#clip113)" fill="none" opacity="1" stroke="#81afca" stroke-linecap="butt" stroke-linejoin="miter" stroke-miterlimit="20" stroke-opacity="1" stroke-width="2.6325" transform="matrix(2,0,0,2,18,2)"><path d="M81.0001,21 L67.6668,21" fill-rule="nonzero" vector-effect="none"/></g><defs><clipPath id="clip114"><path d="M1,1 L81,1 L81,81 L1,81 L1,1 z"/></clipPath></defs><g clip-path="url(#clip114)" fill="none" opacity="1" stroke="#81afca" stroke-linecap="butt" stroke-linejoin="miter" stroke-miterlimit="20" stroke-opacity="1" stroke-width="2.6325" transform="matrix(2,0,0,2,18,2)"><path d="M67.6668,21 L57.0001,21" fill-rule="nonzero" vector-effect="none"/></g><defs><clipPath id="clip115"><path d="M1,1 L81,1 L81,81 L1,81 L1,1 z"/></clipPath></defs><g clip-path="url(#clip115)" fill="none" opacity="1" stroke="#81afca" stroke-linecap="butt" stroke-linejoin="miter" stroke-miterlimit="20" stroke-opacity="1" stroke-width="2.6325" transform="matrix(2,0,0,2,18,2)"><path d="M29.0001,21 L30.3334,17 L33.0001,25 L35.6667,17 L38.3334,25 L39.6667,21" fill-rule="nonzero" vector-effect="none"/></g><defs><clipPath id="clip116"><path d="M1,1 L81,1 L81,81 L1,81 L1,1 z"/></clipPath></defs><g clip-path="url(#clip116)" fill="none" opacity="1" stroke="#81afca" stroke-linecap="butt" stroke-linejoin="miter" stroke-miterlimit="20" stroke-opacity="1" stroke-width="2.6325" transform="matrix(2,0,0,2,18,2)"><path d="M18.2149,21 L18.3334,38.3334" fill-rule="nonzero" vector-effect="none"/></g><defs><clipPath id="clip117"><path d="M1,1 L81,1 L81,81 L1,81 L1,1 z"/></clipPath></defs><g clip-path="url(#clip117)" fill="none" opacity="1" stroke="#81afca" stroke-linecap="butt" stroke-linejoin="miter" stroke-miterlimit="20" stroke-opacity="1" stroke-width="2.6325" transform="matrix(2,0,0,2,18,2)"><path d="M18.3334,45.0001 L18.3334,61.0001" fill-rule="nonzero" vector-effect="none"/></g><defs><clipPath id="clip118"><path d="M1,1 L81,1 L81,81 L1,81 L1,1 z"/></clipPath></defs><g clip-path="url(#clip118)" fill="none" opacity="1" stroke="#81afca" stroke-linecap="butt" stroke-linejoin="miter" stroke-miterlimit="20" stroke-opacity="1" stroke-width="2.6325" transform="matrix(2,0,0,2,18,2)"><path d="M63.6668,45.0001 L63.6668,61.0001" fill-rule="nonzero" vector-effect="none"/></g><defs><clipPath id="clip119"><path d="M1,1 L81,1 L81,81 L1,81 L1,1 z"/></clipPath></defs><g clip-path="url(#clip119)" fill="none" opacity="1" stroke="#81afca" stroke-linecap="butt" stroke-linejoin="miter" stroke-miterlimit="20" stroke-opacity="1" stroke-width="2.6325" transform="matrix(2,0,0,2,18,2)"><path d="M42.3334,21.0741 C42.3334,21.0741 42.3349,21.0708 42.3576,21.0209 C42.3801,20.971 42.4238,20.8752 42.4934,20.724 C42.563,20.5728 42.6583,20.3669 42.7744,20.1208 C42.8907,19.8746 43.0272,19.5888 43.1737,19.2917 C43.3201,18.9946 43.4761,18.687 43.6295,18.401 C43.783,18.115 43.9339,17.8514 44.0737,17.6366 C44.2134,17.4218 44.3413,17.2563 44.4571,17.1507 C44.5729,17.0451 44.6759,17 44.7779,17 C44.8798,17 44.9821,17.045 45.0885,17.1345 C45.1951,17.2239 45.3058,17.3564 45.4201,17.5167 C45.5347,17.6771 45.6532,17.8648 45.7732,18.0657 C45.8932,18.2666 46.0151,18.4807 46.1359,18.6976 C46.2566,18.9145 46.3761,19.1343 46.4905,19.3497 C46.6048,19.5652 46.7139,19.7761 46.8119,19.9776 C46.91,20.179 46.9969,20.3707 47.0668,20.5521 C47.1364,20.7335 47.1882,20.9044 47.2223,21.0741 C47.2561,21.2439 47.2722,21.4147 47.2705,21.5961 C47.2685,21.7776 47.2495,21.9693 47.2193,22.1707 C47.1892,22.3722 47.148,22.5831 47.1016,22.7985 C47.0551,23.0139 47.0035,23.2338 46.9507,23.4507 C46.8979,23.6675 46.8438,23.8815 46.7917,24.0825 C46.7396,24.2835 46.689,24.4712 46.6423,24.6314 C46.5959,24.7919 46.5532,24.9243 46.5144,25.0139 C46.4759,25.1033 46.4413,25.1482 46.4075,25.1482 C46.3734,25.1482 46.3391,25.1033 46.3006,25.0139 C46.2618,24.9243 46.2191,24.7919 46.1727,24.6314 C46.126,24.4712 46.0754,24.2835 46.0233,24.0825 C45.9712,23.8815 45.9171,23.6675 45.8643,23.4507 C45.8114,23.2338 45.7598,23.0139 45.7134,22.7985 C45.667,22.5831 45.6258,22.3722 45.5956,22.1707 C45.5655,21.9693 45.5465,21.7776 45.5445,21.5961 C45.5428,21.4147 45.5588,21.2439 45.5927,21.0741 C45.6265,20.9044 45.6786,20.7336 45.7482,20.5521 C45.8181,20.3707 45.905,20.179 46.003,19.9776 C46.1011,19.7761 46.2102,19.5652 46.3245,19.3497 C46.4388,19.1343 46.5584,18.9145 46.6791,18.6976 C46.7998,18.4807 46.9218,18.2666 47.0418,18.0657 C47.1618,17.8648 47.2803,17.6771 47.3949,17.5167 C47.5092,17.3564 47.6198,17.2239 47.7265,17.1345 C47.8329,17.045 47.9354,17 48.0371,17 C48.1388,17 48.2413,17.045 48.3477,17.1345 C48.4544,17.2239 48.565,17.3564 48.6793,17.5167 C48.7939,17.6771 48.9124,17.8648 49.0324,18.0657 C49.1524,18.2666 49.2744,18.4807 49.3951,18.6976 C49.5159,18.9145 49.6354,19.1343 49.7497,19.3497 C49.864,19.5652 49.9732,19.7761 50.0712,19.9776 C50.1692,20.179 50.2561,20.3707 50.326,20.5521 C50.3956,20.7335 50.4475,20.9044 50.4816,21.0741 C50.5154,21.2439 50.5314,21.4147 50.5297,21.5961 C50.5277,21.7776 50.5087,21.9693 50.4786,22.1707 C50.4485,22.3722 50.4072,22.5831 50.3608,22.7985 C50.3144,23.0139 50.2628,23.2338 50.21,23.4507 C50.1571,23.6675 50.103,23.8815 50.051,24.0825 C49.9989,24.2835 49.9482,24.4712 49.9016,24.6314 C49.8551,24.7919 49.8124,24.9243 49.7737,25.0139 C49.7351,25.1033 49.7006,25.1482 49.6668,25.1482 C49.6329,25.1482 49.5984,25.1033 49.5598,25.0139 C49.5211,24.9243 49.4784,24.7919 49.4319,24.6314 C49.3853,24.4712 49.3346,24.2835 49.2826,24.0825 C49.2305,23.8815 49.1764,23.6675 49.1235,23.4507 C49.0707,23.2338 49.0191,23.0139 48.9727,22.7985 C48.9263,22.5831 48.885,22.3722 48.8549,22.1707 C48.8248,21.9693 48.8058,21.7776 48.8038,21.5961 C48.8021,21.4147 48.8179,21.2439 48.8519,21.0741 C48.8858,20.9044 48.9379,20.7336 49.0075,20.5521 C49.0774,20.3707 49.1643,20.179 49.2623,19.9776 C49.3603,19.7761 49.4695,19.5652 49.5838,19.3497 C49.6981,19.1343 49.8176,18.9145 49.9384,18.6976 C50.0591,18.4807 50.1811,18.2666 50.3011,18.0657 C50.4211,17.8648 50.5396,17.6771 50.6542,17.5167 C50.7685,17.3564 50.8791,17.2239 50.9858,17.1345 C51.0922,17.045 51.1944,17 51.2964,17 C51.3981,17 51.5006,17.045 51.607,17.1345 C51.7137,17.2239 51.8243,17.3564 51.9386,17.5167 C52.0532,17.6771 52.1717,17.8648 52.2917,18.0657 C52.4117,18.2666 52.5337,18.4807 52.6544,18.6976 C52.7751,18.9145 52.8947,19.1343 53.009,19.3497 C53.1233,19.5652 53.2324,19.7761 53.3305,19.9776 C53.4285,20.179 53.5154,20.3707 53.5853,20.5521 C53.6549,20.7335 53.707,20.9044 53.7408,21.0741 C53.7747,21.2439 53.7907,21.4147 53.789,21.5961 C53.787,21.7776 53.768,21.9693 53.7379,22.1707 C53.7077,22.3722 53.6665,22.5831 53.6201,22.7985 C53.5737,23.0139 53.5221,23.2338 53.4692,23.4507 C53.4164,23.6675 53.3623,23.8815 53.3102,24.0825 C53.2581,24.2835 53.2075,24.4712 53.1608,24.6314 C53.1144,24.7919 53.0717,24.9243 53.0329,25.0139 C52.9944,25.1033 52.9598,25.1482 52.926,25.1482 C52.8919,25.1482 52.8576,25.1033 52.8191,25.0139 C52.7803,24.9243 52.7376,24.7919 52.6912,24.6314 C52.6445,24.4712 52.5939,24.2835 52.5418,24.0825 C52.4897,23.8815 52.4356,23.6675 52.3828,23.4507 C52.33,23.2338 52.2784,23.0139 52.2319,22.7985 C52.1855,22.5831 52.1443,22.3722 52.1141,22.1707 C52.084,21.9693 52.065,21.7776 52.063,21.5961 C52.0613,21.4147 52.0774,21.2439 52.1112,21.0741 C52.145,20.9044 52.1971,20.7336 52.2667,20.5521 C52.3366,20.3707 52.4235,20.179 52.5216,19.9776 C52.6196,19.7761 52.7287,19.5652 52.843,19.3497 C52.9574,19.1343 53.0769,18.9145 53.1976,18.6976 C53.3183,18.4807 53.4403,18.2666 53.5603,18.0657 C53.6803,17.8648 53.7988,17.6771 53.9134,17.5167 C54.0277,17.3564 54.1384,17.2239 54.245,17.1345 C54.3514,17.045 54.4537,17 54.5556,17 C54.6574,17 54.7606,17.0451 54.8764,17.1507 C54.9922,17.2563 55.1201,17.4218 55.2598,17.6366 C55.3996,17.8514 55.5505,18.115 55.704,18.401 C55.8574,18.6869 56.0134,18.9946 56.1598,19.2917 C56.3063,19.5888 56.4428,19.8746 56.5591,20.1208 C56.6751,20.3669 56.7705,20.5728 56.8401,20.724 C56.9097,20.8752 56.9534,20.971 56.9759,21.0209 C56.9986,21.0708 57.0001,21.0741 57.0001,21.0741" fill-rule="nonzero" vector-effect="none"/></g><defs><clipPath id="clip120"><path d="M9,9 L333,9 L333,333 L9,333 L9,9 z"/></clipPath></defs><g clip-path="url(#clip120)" fill="#81afca" fill-opacity="1" opacity="1" stroke="none" stroke-opacity="0" transform="matrix(0.493828,0,0,0.493828,15.5556,-0.44444)"><path d="M57.6,181.8 L100.8,181.8 L100.8,187.2 L57.6,187.2 L57.6,181.8 z" fill-rule="nonzero" vector-effect="none"/></g><defs><clipPath id="clip121"><path d="M1,1 L81,1 L81,81 L1,81 L1,1 z"/></clipPath></defs><g clip-path="url(#clip121)" fill="none" opacity="1" stroke="#81afca" stroke-linecap="butt" stroke-linejoin="miter" stroke-miterlimit="20" stroke-opacity="1" stroke-width="2.6325" transform="matrix(2,0,0,2,18,2)"><path d="M13,43.6667 L23.6667,43.6667 L23.6667,45.0001 L13,45.0001 L13,43.6667 z" fill-rule="nonzero" vector-effect="none"/></g><defs><clipPath id="clip122"><path d="M9,9 L333,9 L333,333 L9,333 L9,9 z"/></clipPath></defs><g clip-path="url(#clip122)" fill="#81afca" fill-opacity="1" opacity="1" stroke="none" stroke-opacity="0" transform="matrix(0.493828,0,0,0.493828,15.5556,-0.44444)"><path d="M241.2,181.8 L284.4,181.8 L284.4,187.2 L241.2,187.2 L241.2,181.8 z" fill-rule="nonzero" vector-effect="none"/></g><defs><clipPath id="clip123"><path d="M1,1 L81,1 L81,81 L1,81 L1,1 z"/></clipPath></defs><g clip-path="url(#clip123)" fill="none" opacity="1" stroke="#81afca" stroke-linecap="butt" stroke-linejoin="miter" stroke-miterlimit="20" stroke-opacity="1" stroke-width="2.6325" transform="matrix(2,0,0,2,18,2)"><path d="M58.3334,43.6667 L69.0001,43.6667 L69.0001,45.0001 L58.3334,45.0001 L58.3334,43.6667 z" fill-rule="nonzero" vector-effect="none"/></g><defs><clipPath id="clip124"><path d="M9,9 L333,9 L333,333 L9,333 L9,9 z"/></clipPath></defs><g clip-path="url(#clip124)" fill="#81afca" fill-opacity="1" opacity="1" stroke="none" stroke-opacity="0" transform="matrix(0.493828,0,0,0.493828,15.5556,-0.44444)"><path d="M57.6,160.2 L100.8,160.2 L100.8,165.6 L57.6,165.6 L57.6,160.2 z" fill-rule="nonzero" vector-effect="none"/></g><defs><clipPath id="clip125"><path d="M1,1 L81,1 L81,81 L1,81 L1,1 z"/></clipPath></defs><g clip-path="url(#clip125)" fill="none" opacity="1" stroke="#81afca" stroke-linecap="butt" stroke-linejoin="miter" stroke-miterlimit="20" stroke-opacity="1" stroke-width="2.6325" transform="matrix(2,0,0,2,18,2)"><path d="M13,38.3334 L23.6667,38.3334 L23.6667,39.6667 L13,39.6667 L13,38.3334 z" fill-rule="nonzero" vector-effect="none"/></g><defs><clipPath id="clip126"><path d="M9,9 L333,9 L333,333 L9,333 L9,9 z"/></clipPath></defs><g clip-path="url(#clip126)" fill="#81afca" fill-opacity="1" opacity="1" stroke="none" stroke-opacity="0" transform="matrix(0.493828,0,0,0.493828,15.5556,-0.44444)"><path d="M241.2,160.2 L284.4,160.2 L284.4,165.6 L241.2,165.6 L241.2,160.2 z" fill-rule="nonzero" vector-effect="none"/></g><defs><clipPath id="clip127"><path d="M1,1 L81,1 L81,81 L1,81 L1,1 z"/></clipPath></defs><g clip-path="url(#clip127)" fill="none" opacity="1" stroke="#81afca" stroke-linecap="butt" stroke-linejoin="miter" stroke-miterlimit="20" stroke-opacity="1" stroke-width="2.6325" transform="matrix(2,0,0,2,18,2)"><path d="M58.3334,38.3334 L69.0001,38.3334 L69.0001,39.6667 L58.3334,39.6667 L58.3334,38.3334 z" fill-rule="nonzero" vector-effect="none"/></g><defs><clipPath id="clip144"><path d="M-394,-307 L16,-307 L16,103 L-394,103 L-394,-307 z"/></clipPath></defs><g clip-path="url(#clip144)" fill="none" opacity="1" stroke="#e60000" stroke-linecap="square" stroke-linejoin="bevel" stroke-opacity="1" stroke-width="1" transform="matrix(0.390625,0,0,0.390625,174,124)"><text fill="#e60000" fill-opacity="1" font-family="Liberation Sans" font-size="40" font-style="normal" font-weight="400" stroke="none" textLength="44" x="-56.9062" xml:space="preserve" y="17.9219">g2</text></g><defs><clipPath id="clip147"><path d="M-15,-307 L395,-307 L395,103 L-15,103 L-15,-307 z"/></clipPath></defs><g clip-path="url(#clip147)" fill="none" opacity="1" stroke="#e60000" stroke-linecap="square" stroke-linejoin="bevel" stroke-opacity="1" stroke-width="1" transform="matrix(0.390625,0,0,0.390625,26,124)"><text fill="#e60000" fill-opacity="1" font-family="Liberation Sans" font-size="40" font-style="normal" font-weight="400" stroke="none" textLength="44" x="0" xml:space="preserve" y="17.9219">g1</text></g><defs><clipPath id="clip150"><path d="M-394,-102 L16,-102 L16,308 L-394,308 L-394,-102 z"/></clipPath></defs><g clip-path="url(#clip150)" fill="none" opacity="1" stroke="#e60000" stroke-linecap="square" stroke-linejoin="bevel" stroke-opacity="1" stroke-width="1" transform="matrix(0.390625,0,0,0.390625,174,44)"><text fill="#e60000" fill-opacity="1" font-family="Liberation Sans" font-size="40" font-style="normal" font-weight="400" stroke="none" textLength="45" x="-58.3594" xml:space="preserve" y="17.9219">~2</text></g><defs><clipPath id="clip153"><path d="M-15,-102 L395,-102 L395,308 L-15,308 L-15,-102 z"/></clipPath></defs><g clip-path="url(#clip153)" fill="none" opacity="1" stroke="#e60000" stroke-linecap="square" stroke-linejoin="bevel" stroke-opacity="1" stroke-width="1" transform="matrix(0.390625,0,0,0.390625,26,44)"><text fill="#e60000" fill-opacity="1" font-family="Liberation Sans" font-size="40" font-style="normal" font-weight="400" stroke="none" textLength="45" x="0" xml:space="preserve" y="17.9219">~1</text></g><defs><clipPath id="clip159"><path d="M-10,-2 L90,-2 L90,82 L-10,82 L-10,-2 z"/></clipPath></defs><g clip-path="url(#clip159)" fill="none" opacity="1" stroke="none" stroke-opacity="0" transform="matrix(2,0,0,2,20,4)"><path d="M0,0 L80,0 L80,80 L0,80 L0,0 z" fill-rule="evenodd" vector-effect="none"/></g></g></svg>
