<?xml version="1.0" encoding="UTF-8"?><svg width="52.9167mm" height="44.45mm" viewBox="0 0 200 168" xmlns="http://www.w3.org/2000/svg" xmlns:xlink="http://www.w3.org/1999/xlink"><g fill="none" stroke="black" stroke-width="1" fill-rule="evenodd" stroke-linecap="square" stroke-linejoin="bevel"><g clip-path="none" fill="none" opacity="1" stroke="none" stroke-opacity="0" transform="matrix(1,0,0,1,0,0)"><path d="M0,0 L200,0 L200,168 L0,168 L0,0 z" fill-rule="evenodd" vector-effect="none"/></g><defs><clipPath id="clip6"><path d="M0,0 L10,0 L10,10 L0,10 L0,0 z"/></clipPath></defs><g clip-path="url(#clip6)" fill="#b3b3b3" fill-opacity="1" opacity="1" stroke="none" stroke-opacity="0" transform="matrix(2,0,0,2,180,76)"><path d="M0.5,3.5 L3.5,3.5 L3.5,6.5 L0.5,6.5 L0.5,3.5 z" fill-rule="evenodd" vector-effect="none"/></g><defs><clipPath id="clip8"><path d="M0,0 L10,0 L10,10 L0,10 L0,0 z"/></clipPath></defs><g clip-path="url(#clip8)" fill="#000000" fill-opacity="1" opacity="1" stroke="none" stroke-opacity="0" transform="matrix(2,0,0,2,180,76)"><path d="M3,4 L3,6 L1,6 L1,4 L3,4 M4,3 L0,3 L0,7 L4,7 L4,3" fill-rule="nonzero" vector-effect="none"/></g><defs><clipPath id="clip28"><path d="M0,0 L10,0 L10,10 L0,10 L0,0 z"/></clipPath></defs><g clip-path="url(#clip28)" fill="#b3b3b3" fill-opacity="1" opacity="1" stroke="none" stroke-opacity="0" transform="matrix(-2,0,0,2,20,76)"><path d="M0.5,3.5 L3.5,3.5 L3.5,6.5 L0.5,6.5 L0.5,3.5 z" fill-rule="evenodd" vector-effect="none"/></g><defs><clipPath id="clip30"><path d="M0,0 L10,0 L10,10 L0,10 L0,0 z"/></clipPath></defs><g clip-path="url(#clip30)" fill="#000000" fill-opacity="1" opacity="1" stroke="none" stroke-opacity="0" transform="matrix(-2,0,0,2,20,76)"><path d="M3,4 L3,6 L1,6 L1,4 L3,4 M4,3 L0,3 L0,7 L4,7 L4,3" fill-rule="nonzero" vector-effect="none"/></g><defs><clipPath id="clip47"><path d="M-10,-2 L90,-2 L90,82 L-10,82 L-10,-2 z"/></clipPath></defs><g clip-path="url(#clip47)" fill="#ffffff" fill-opacity="1" opacity="1" stroke="none" stroke-opacity="0" transform="matrix(2,0,0,2,20,4)"><path d="M0,0 L80,0 L80,80 L0,80 L0,0 z" fill-rule="evenodd" vector-effect="none"/></g><defs><clipPath id="clip51"><path d="M0,0 L80,0 L80,80 L0,80 L0,0 z"/></clipPath></defs><g clip-path="url(#clip51)" fill="none" opacity="1" stroke="none" stroke-opacity="0" transform="matrix(2,0,0,2,20,4)"><path d="M0,0 L80,0 L80,80 L0,80 L0,0 z" fill-rule="evenodd" vector-effect="none"/></g><defs><clipPath id="clip61"><path d="M1,1 L81,1 L81,81 L1,81 L1,1 z"/></clipPath></defs><g clip-path="url(#clip61)" fill="none" opacity="1" stroke="#81afca" stroke-linecap="butt" stroke-linejoin="miter" stroke-miterlimit="20" stroke-opacity="1" stroke-width="2.6325" transform="matrix(2,0,0,2,18,2)"><path d="M39.2371,53.2964 L35.2371,46.363" fill-rule="nonzero" vector-effect="none"/></g><defs><clipPath id="clip62"><path d="M1,1 L81,1 L81,81 L1,81 L1,1 z"/></clipPath></defs><g clip-path="url(#clip62)" fill="none" opacity="1" stroke="#81afca" stroke-linecap="butt" stroke-linejoin="miter" stroke-miterlimit="20" stroke-opacity="1" stroke-width="2.6325" transform="matrix(2,0,0,2,18,2)"><path d="M7.51854,62.3631 L35.2371,46.363" fill-rule="nonzero" vector-effect="none"/></g><defs><clipPath id="clip63"><path d="M1,1 L81,1 L81,81 L1,81 L1,1 z"/></clipPath></defs><g clip-path="url(#clip63)" fill="none" opacity="1" stroke="#81afca" stroke-linecap="butt" stroke-linejoin="miter" stroke-miterlimit="20" stroke-opacity="1" stroke-width="2.6325" transform="matrix(2,0,0,2,18,2)"><path d="M11.6963,69.3409 L39.4149,53.3408" fill-rule="nonzero" vector-effect="none"/></g><defs><clipPath id="clip64"><path d="M1,1 L81,1 L81,81 L1,81 L1,1 z"/></clipPath></defs><g clip-path="url(#clip64)" fill="none" opacity="1" stroke="#81afca" stroke-linecap="butt" stroke-linejoin="miter" stroke-miterlimit="20" stroke-opacity="1" stroke-width="2.6325" transform="matrix(2,0,0,2,18,2)"><path d="M41.0001,11.6667 L41.0001,9.00002" fill-rule="nonzero" vector-effect="none"/></g><defs><clipPath id="clip65"><path d="M1,1 L81,1 L81,81 L1,81 L1,1 z"/></clipPath></defs><g clip-path="url(#clip65)" fill="none" opacity="1" stroke="#81afca" stroke-linecap="butt" stroke-linejoin="miter" stroke-miterlimit="20" stroke-opacity="1" stroke-width="2.6325" transform="matrix(2,0,0,2,18,2)"><path d="M72.0372,66.4223 L75.089,68.1853" fill-rule="nonzero" vector-effect="none"/></g><defs><clipPath id="clip66"><path d="M1,1 L81,1 L81,81 L1,81 L1,1 z"/></clipPath></defs><g clip-path="url(#clip66)" fill="none" opacity="1" stroke="#81afca" stroke-linecap="butt" stroke-linejoin="miter" stroke-miterlimit="20" stroke-opacity="1" stroke-width="2.6325" transform="matrix(2,0,0,2,18,2)"><path d="M69.9779,69.4149 L42.2593,53.4149" fill-rule="nonzero" vector-effect="none"/></g><defs><clipPath id="clip67"><path d="M1,1 L81,1 L81,81 L1,81 L1,1 z"/></clipPath></defs><g clip-path="url(#clip67)" fill="none" opacity="1" stroke="#81afca" stroke-linecap="butt" stroke-linejoin="miter" stroke-miterlimit="20" stroke-opacity="1" stroke-width="2.6325" transform="matrix(2,0,0,2,18,2)"><path d="M41.0001,47.9482 L41.0001,43.9482" fill-rule="nonzero" vector-effect="none"/></g><defs><clipPath id="clip68"><path d="M1,1 L81,1 L81,81 L1,81 L1,1 z"/></clipPath></defs><g clip-path="url(#clip68)" fill="none" opacity="1" stroke="#81afca" stroke-linecap="butt" stroke-linejoin="miter" stroke-miterlimit="20" stroke-opacity="1" stroke-width="2.6325" transform="matrix(2,0,0,2,18,2)"><path d="M41.0001,47.9482 L37.5334,49.9482" fill-rule="nonzero" vector-effect="none"/></g><defs><clipPath id="clip69"><path d="M1,1 L81,1 L81,81 L1,81 L1,1 z"/></clipPath></defs><g clip-path="url(#clip69)" fill="none" opacity="1" stroke="#81afca" stroke-linecap="butt" stroke-linejoin="miter" stroke-miterlimit="20" stroke-opacity="1" stroke-width="2.6325" transform="matrix(2,0,0,2,18,2)"><path d="M41.0001,47.9482 L44.4667,49.9482" fill-rule="nonzero" vector-effect="none"/></g><defs><clipPath id="clip70"><path d="M1,1 L81,1 L81,81 L1,81 L1,1 z"/></clipPath></defs><g clip-path="url(#clip70)" fill="none" opacity="1" stroke="#81afca" stroke-linecap="butt" stroke-linejoin="miter" stroke-miterlimit="20" stroke-opacity="1" stroke-width="2.6325" transform="matrix(2,0,0,2,18,2)"><path d="M46.3334,46.3482 L42.3334,53.2816" fill-rule="nonzero" vector-effect="none"/></g><defs><clipPath id="clip71"><path d="M1,1 L81,1 L81,81 L1,81 L1,1 z"/></clipPath></defs><g clip-path="url(#clip71)" fill="none" opacity="1" stroke="#81afca" stroke-linecap="butt" stroke-linejoin="miter" stroke-miterlimit="20" stroke-opacity="1" stroke-width="2.6325" transform="matrix(2,0,0,2,18,2)"><path d="M74.052,62.6149 L46.3334,46.6149" fill-rule="nonzero" vector-effect="none"/></g><defs><clipPath id="clip72"><path d="M1,1 L81,1 L81,81 L1,81 L1,1 z"/></clipPath></defs><g clip-path="url(#clip72)" fill="none" opacity="1" stroke="#81afca" stroke-linecap="butt" stroke-linejoin="miter" stroke-miterlimit="20" stroke-opacity="1" stroke-width="2.6325" transform="matrix(2,0,0,2,18,2)"><path d="M74.1557,62.452 L70.1557,69.3853" fill-rule="nonzero" vector-effect="none"/></g><defs><clipPath id="clip73"><path d="M1,1 L81,1 L81,81 L1,81 L1,1 z"/></clipPath></defs><g clip-path="url(#clip73)" fill="none" opacity="1" stroke="#81afca" stroke-linecap="butt" stroke-linejoin="miter" stroke-miterlimit="20" stroke-opacity="1" stroke-width="2.6325" transform="matrix(2,0,0,2,18,2)"><path d="M9.69632,66.1853 L6.77779,67.8149" fill-rule="nonzero" vector-effect="none"/></g><defs><clipPath id="clip74"><path d="M1,1 L81,1 L81,81 L1,81 L1,1 z"/></clipPath></defs><g clip-path="url(#clip74)" fill="none" opacity="1" stroke="#81afca" stroke-linecap="butt" stroke-linejoin="miter" stroke-miterlimit="20" stroke-opacity="1" stroke-width="2.6325" transform="matrix(2,0,0,2,18,2)"><path d="M11.5778,69.3112 L7.57779,62.3779" fill-rule="nonzero" vector-effect="none"/></g><defs><clipPath id="clip75"><path d="M1,1 L81,1 L81,81 L1,81 L1,1 z"/></clipPath></defs><g clip-path="url(#clip75)" fill="none" opacity="1" stroke="#81afca" stroke-linecap="butt" stroke-linejoin="miter" stroke-miterlimit="20" stroke-opacity="1" stroke-width="2.6325" transform="matrix(2,0,0,2,18,2)"><path d="M1.00001,1.00001 L81.0001,1.00001 L81.0001,81.0001 L1.00001,81.0001 L1.00001,1.00001 z" fill-rule="nonzero" vector-effect="none"/></g><defs><clipPath id="clip76"><path d="M1,1 L81,1 L81,81 L1,81 L1,1 z"/></clipPath></defs><g clip-path="url(#clip76)" fill="none" opacity="1" stroke="#81afca" stroke-linecap="butt" stroke-linejoin="miter" stroke-miterlimit="20" stroke-opacity="1" stroke-width="2.6325" transform="matrix(2,0,0,2,18,2)"><path d="M37.0001,11.9482 L45.0001,11.9482 L45.0001,43.9482 L37.0001,43.9482 L37.0001,11.9482 z" fill-rule="nonzero" vector-effect="none"/></g><defs><clipPath id="clip77"><path d="M1,1 L81,1 L81,81 L1,81 L1,1 z"/></clipPath></defs><g clip-path="url(#clip77)" fill="none" opacity="1" stroke="#81afca" stroke-linecap="butt" stroke-linejoin="miter" stroke-miterlimit="20" stroke-opacity="1" stroke-width="2.6325" transform="matrix(2,0,0,2,18,2)"><path d="M1.00001,1.00001 L81.0001,1.00001 L81.0001,81.0001 L1.00001,81.0001 L1.00001,1.00001 z" fill-rule="nonzero" vector-effect="none"/></g><defs><clipPath id="clip94"><path d="M-394,-205 L16,-205 L16,205 L-394,205 L-394,-205 z"/></clipPath></defs><g clip-path="url(#clip94)" fill="none" opacity="1" stroke="#e60000" stroke-linecap="square" stroke-linejoin="bevel" stroke-opacity="1" stroke-width="1" transform="matrix(0.390625,0,0,0.390625,174,84)"><text fill="#e60000" fill-opacity="1" font-family="Liberation Sans" font-size="40" font-style="normal" font-weight="400" stroke="none" textLength="21" x="-28.4531" xml:space="preserve" y="17.9219">n</text></g><defs><clipPath id="clip97"><path d="M-15,-205 L395,-205 L395,205 L-15,205 L-15,-205 z"/></clipPath></defs><g clip-path="url(#clip97)" fill="none" opacity="1" stroke="#e60000" stroke-linecap="square" stroke-linejoin="bevel" stroke-opacity="1" stroke-width="1" transform="matrix(0.390625,0,0,0.390625,26,84)"><text fill="#e60000" fill-opacity="1" font-family="Liberation Sans" font-size="40" font-style="normal" font-weight="400" stroke="none" textLength="23" x="0" xml:space="preserve" y="17.9219">~</text></g><defs><clipPath id="clip103"><path d="M-10,-2 L90,-2 L90,82 L-10,82 L-10,-2 z"/></clipPath></defs><g clip-path="url(#clip103)" fill="none" opacity="1" stroke="none" stroke-opacity="0" transform="matrix(2,0,0,2,20,4)"><path d="M0,0 L80,0 L80,80 L0,80 L0,0 z" fill-rule="evenodd" vector-effect="none"/></g></g></svg>
