<?xml version="1.0" encoding="UTF-8"?><svg width="47.0958mm" height="52.9167mm" viewBox="0 0 178 200" xmlns="http://www.w3.org/2000/svg" xmlns:xlink="http://www.w3.org/1999/xlink"><g fill="none" stroke="black" stroke-width="1" fill-rule="evenodd" stroke-linecap="square" stroke-linejoin="bevel"><g clip-path="none" fill="none" opacity="1" stroke="none" stroke-opacity="0" transform="matrix(1,0,0,1,0,0)"><path d="M0,0 L178,0 L178,200 L0,200 L0,0 z" fill-rule="evenodd" vector-effect="none"/></g><defs><clipPath id="clip6"><path d="M0,0 L10,0 L10,10 L0,10 L0,0 z"/></clipPath></defs><g clip-path="url(#clip6)" fill="#b3b3b3" fill-opacity="1" opacity="1" stroke="none" stroke-opacity="0" transform="matrix(2.38095,0,0,2.38095,154.762,150)"><path d="M0.5,3.5 L3.5,3.5 L3.5,6.5 L0.5,6.5 L0.5,3.5 z" fill-rule="evenodd" vector-effect="none"/></g><defs><clipPath id="clip8"><path d="M0,0 L10,0 L10,10 L0,10 L0,0 z"/></clipPath></defs><g clip-path="url(#clip8)" fill="#000000" fill-opacity="1" opacity="1" stroke="none" stroke-opacity="0" transform="matrix(2.38095,0,0,2.38095,154.762,150)"><path d="M3,4 L3,6 L1,6 L1,4 L3,4 M4,3 L0,3 L0,7 L4,7 L4,3" fill-rule="nonzero" vector-effect="none"/></g><defs><clipPath id="clip28"><path d="M0,0 L10,0 L10,10 L0,10 L0,0 z"/></clipPath></defs><g clip-path="url(#clip28)" fill="#b3b3b3" fill-opacity="1" opacity="1" stroke="none" stroke-opacity="0" transform="matrix(2.38095,0,0,2.38095,154.762,90.4762)"><path d="M0.5,3.5 L3.5,3.5 L3.5,6.5 L0.5,6.5 L0.5,3.5 z" fill-rule="evenodd" vector-effect="none"/></g><defs><clipPath id="clip30"><path d="M0,0 L10,0 L10,10 L0,10 L0,0 z"/></clipPath></defs><g clip-path="url(#clip30)" fill="#000000" fill-opacity="1" opacity="1" stroke="none" stroke-opacity="0" transform="matrix(2.38095,0,0,2.38095,154.762,90.4762)"><path d="M3,4 L3,6 L1,6 L1,4 L3,4 M4,3 L0,3 L0,7 L4,7 L4,3" fill-rule="nonzero" vector-effect="none"/></g><defs><clipPath id="clip50"><path d="M0,0 L10,0 L10,10 L0,10 L0,0 z"/></clipPath></defs><g clip-path="url(#clip50)" fill="#b3b3b3" fill-opacity="1" opacity="1" stroke="none" stroke-opacity="0" transform="matrix(2.38095,0,0,2.38095,154.762,30.9524)"><path d="M0.5,3.5 L3.5,3.5 L3.5,6.5 L0.5,6.5 L0.5,3.5 z" fill-rule="evenodd" vector-effect="none"/></g><defs><clipPath id="clip52"><path d="M0,0 L10,0 L10,10 L0,10 L0,0 z"/></clipPath></defs><g clip-path="url(#clip52)" fill="#000000" fill-opacity="1" opacity="1" stroke="none" stroke-opacity="0" transform="matrix(2.38095,0,0,2.38095,154.762,30.9524)"><path d="M3,4 L3,6 L1,6 L1,4 L3,4 M4,3 L0,3 L0,7 L4,7 L4,3" fill-rule="nonzero" vector-effect="none"/></g><defs><clipPath id="clip72"><path d="M0,0 L10,0 L10,10 L0,10 L0,0 z"/></clipPath></defs><g clip-path="url(#clip72)" fill="#b3b3b3" fill-opacity="1" opacity="1" stroke="none" stroke-opacity="0" transform="matrix(-2.38095,0,0,2.38095,23.8095,138.095)"><path d="M0.5,3.5 L3.5,3.5 L3.5,6.5 L0.5,6.5 L0.5,3.5 z" fill-rule="evenodd" vector-effect="none"/></g><defs><clipPath id="clip74"><path d="M0,0 L10,0 L10,10 L0,10 L0,0 z"/></clipPath></defs><g clip-path="url(#clip74)" fill="#000000" fill-opacity="1" opacity="1" stroke="none" stroke-opacity="0" transform="matrix(-2.38095,0,0,2.38095,23.8095,138.095)"><path d="M3,4 L3,6 L1,6 L1,4 L3,4 M4,3 L0,3 L0,7 L4,7 L4,3" fill-rule="nonzero" vector-effect="none"/></g><defs><clipPath id="clip94"><path d="M0,0 L10,0 L10,10 L0,10 L0,0 z"/></clipPath></defs><g clip-path="url(#clip94)" fill="#b3b3b3" fill-opacity="1" opacity="1" stroke="none" stroke-opacity="0" transform="matrix(-2.38095,0,0,2.38095,23.8095,42.8571)"><path d="M0.5,3.5 L3.5,3.5 L3.5,6.5 L0.5,6.5 L0.5,3.5 z" fill-rule="evenodd" vector-effect="none"/></g><defs><clipPath id="clip96"><path d="M0,0 L10,0 L10,10 L0,10 L0,0 z"/></clipPath></defs><g clip-path="url(#clip96)" fill="#000000" fill-opacity="1" opacity="1" stroke="none" stroke-opacity="0" transform="matrix(-2.38095,0,0,2.38095,23.8095,42.8571)"><path d="M3,4 L3,6 L1,6 L1,4 L3,4 M4,3 L0,3 L0,7 L4,7 L4,3" fill-rule="nonzero" vector-effect="none"/></g><defs><clipPath id="clip113"><path d="M-10,-2 L65,-2 L65,82 L-10,82 L-10,-2 z"/></clipPath></defs><g clip-path="url(#clip113)" fill="#ffffff" fill-opacity="1" opacity="1" stroke="none" stroke-opacity="0" transform="matrix(2.38095,0,0,2.38095,23.8095,4.7619)"><path d="M0,0 L55,0 L55,80 L0,80 L0,0 z" fill-rule="evenodd" vector-effect="none"/></g><defs><clipPath id="clip117"><path d="M0,0 L55,0 L55,80 L0,80 L0,0 z"/></clipPath></defs><g clip-path="url(#clip117)" fill="none" opacity="1" stroke="none" stroke-opacity="0" transform="matrix(2.38095,0,0,2.38095,23.8095,4.7619)"><path d="M0,0 L55,0 L55,80 L0,80 L0,0 z" fill-rule="evenodd" vector-effect="none"/></g><defs><clipPath id="clip127"><path d="M1,1 L56,1 L56,81 L1,81 L1,1 z"/></clipPath></defs><g clip-path="url(#clip127)" fill="none" opacity="1" stroke="#81afca" stroke-linecap="butt" stroke-linejoin="miter" stroke-miterlimit="20" stroke-opacity="1" stroke-width="2.6325" transform="matrix(2.38095,0,0,2.38095,21.4286,2.38095)"><path d="M37.6666,33 L37.6666,43" fill-rule="nonzero" vector-effect="none"/></g><defs><clipPath id="clip128"><path d="M1,1 L56,1 L56,81 L1,81 L1,1 z"/></clipPath></defs><g clip-path="url(#clip128)" fill="none" opacity="1" stroke="#81afca" stroke-linecap="butt" stroke-linejoin="miter" stroke-miterlimit="20" stroke-opacity="1" stroke-width="2.6325" transform="matrix(2.38095,0,0,2.38095,21.4286,2.38095)"><path d="M37.6666,43 L45.4583,48" fill-rule="nonzero" vector-effect="none"/></g><defs><clipPath id="clip129"><path d="M1,1 L56,1 L56,81 L1,81 L1,1 z"/></clipPath></defs><g clip-path="url(#clip129)" fill="none" opacity="1" stroke="#81afca" stroke-linecap="butt" stroke-linejoin="miter" stroke-miterlimit="20" stroke-opacity="1" stroke-width="2.6325" transform="matrix(2.38095,0,0,2.38095,21.4286,2.38095)"><path d="M37.6666,43 L29.875,48" fill-rule="nonzero" vector-effect="none"/></g><defs><clipPath id="clip130"><path d="M1,1 L56,1 L56,81 L1,81 L1,1 z"/></clipPath></defs><g clip-path="url(#clip130)" fill="none" opacity="1" stroke="#81afca" stroke-linecap="butt" stroke-linejoin="miter" stroke-miterlimit="20" stroke-opacity="1" stroke-width="2.6325" transform="matrix(2.38095,0,0,2.38095,21.4286,2.38095)"><path d="M19.3333,31 L19.3333,41" fill-rule="nonzero" vector-effect="none"/></g><defs><clipPath id="clip131"><path d="M1,1 L56,1 L56,81 L1,81 L1,1 z"/></clipPath></defs><g clip-path="url(#clip131)" fill="none" opacity="1" stroke="#81afca" stroke-linecap="butt" stroke-linejoin="miter" stroke-miterlimit="20" stroke-opacity="1" stroke-width="2.6325" transform="matrix(2.38095,0,0,2.38095,21.4286,2.38095)"><path d="M19.3333,41 L27.125,46" fill-rule="nonzero" vector-effect="none"/></g><defs><clipPath id="clip132"><path d="M1,1 L56,1 L56,81 L1,81 L1,1 z"/></clipPath></defs><g clip-path="url(#clip132)" fill="none" opacity="1" stroke="#81afca" stroke-linecap="butt" stroke-linejoin="miter" stroke-miterlimit="20" stroke-opacity="1" stroke-width="2.6325" transform="matrix(2.38095,0,0,2.38095,21.4286,2.38095)"><path d="M19.3333,41 L11.5417,46" fill-rule="nonzero" vector-effect="none"/></g><defs><clipPath id="clip133"><path d="M1,1 L56,1 L56,81 L1,81 L1,1 z"/></clipPath></defs><g clip-path="url(#clip133)" fill="none" opacity="1" stroke="#81afca" stroke-linecap="butt" stroke-linejoin="miter" stroke-miterlimit="20" stroke-opacity="1" stroke-width="2.6325" transform="matrix(2.38095,0,0,2.38095,21.4286,2.38095)"><path d="M29.875,22 L37.6666,6.99999 L45.4583,22 L29.875,22 z" fill-rule="nonzero" vector-effect="none"/></g><defs><clipPath id="clip134"><path d="M1,1 L56,1 L56,81 L1,81 L1,1 z"/></clipPath></defs><g clip-path="url(#clip134)" fill="none" opacity="1" stroke="#81afca" stroke-linecap="butt" stroke-linejoin="miter" stroke-miterlimit="20" stroke-opacity="1" stroke-width="2.6325" transform="matrix(2.38095,0,0,2.38095,21.4286,2.38095)"><path d="M37.6666,17.5 L37.6666,14.5" fill-rule="nonzero" vector-effect="none"/></g><defs><clipPath id="clip135"><path d="M1,1 L56,1 L56,81 L1,81 L1,1 z"/></clipPath></defs><g clip-path="url(#clip135)" fill="none" opacity="1" stroke="#81afca" stroke-linecap="butt" stroke-linejoin="miter" stroke-miterlimit="20" stroke-opacity="1" stroke-width="2.6325" transform="matrix(2.38095,0,0,2.38095,21.4286,2.38095)"><path d="M0.999999,0.999998 L56,0.999998 L56,80.9999 L0.999999,80.9999 L0.999999,0.999998 z" fill-rule="nonzero" vector-effect="none"/></g><defs><clipPath id="clip136"><path d="M1,1 L56,1 L56,81 L1,81 L1,1 z"/></clipPath></defs><g clip-path="url(#clip136)" fill="none" opacity="1" stroke="#3369c9" stroke-linecap="butt" stroke-linejoin="miter" stroke-miterlimit="20" stroke-opacity="1" stroke-width="2.6325" transform="matrix(2.38095,0,0,2.38095,21.4286,2.38095)"><path d="M7.41666,60.9999 L10.1667,60.9999" fill-rule="nonzero" vector-effect="none"/></g><defs><clipPath id="clip137"><path d="M1,1 L56,1 L56,81 L1,81 L1,1 z"/></clipPath></defs><g clip-path="url(#clip137)" fill="none" opacity="1" stroke="#3369c9" stroke-linecap="butt" stroke-linejoin="miter" stroke-miterlimit="20" stroke-opacity="1" stroke-width="2.6325" transform="matrix(2.38095,0,0,2.38095,21.4286,2.38095)"><path d="M12,60.9999 L14.75,60.9999" fill-rule="nonzero" vector-effect="none"/></g><defs><clipPath id="clip138"><path d="M1,1 L56,1 L56,81 L1,81 L1,1 z"/></clipPath></defs><g clip-path="url(#clip138)" fill="none" opacity="1" stroke="#3369c9" stroke-linecap="butt" stroke-linejoin="miter" stroke-miterlimit="20" stroke-opacity="1" stroke-width="2.6325" transform="matrix(2.38095,0,0,2.38095,21.4286,2.38095)"><path d="M16.5833,60.9999 L19.3333,60.9999 L19.3333,57.9999" fill-rule="nonzero" vector-effect="none"/></g><defs><clipPath id="clip139"><path d="M1,1 L56,1 L56,81 L1,81 L1,1 z"/></clipPath></defs><g clip-path="url(#clip139)" fill="none" opacity="1" stroke="#3369c9" stroke-linecap="butt" stroke-linejoin="miter" stroke-miterlimit="20" stroke-opacity="1" stroke-width="2.6325" transform="matrix(2.38095,0,0,2.38095,21.4286,2.38095)"><path d="M19.3333,55.9999 L19.3333,52.9999" fill-rule="nonzero" vector-effect="none"/></g><defs><clipPath id="clip140"><path d="M1,1 L56,1 L56,81 L1,81 L1,1 z"/></clipPath></defs><g clip-path="url(#clip140)" fill="none" opacity="1" stroke="#3369c9" stroke-linecap="butt" stroke-linejoin="miter" stroke-miterlimit="20" stroke-opacity="1" stroke-width="2.6325" transform="matrix(2.38095,0,0,2.38095,21.4286,2.38095)"><path d="M19.3333,51 L19.3333,48" fill-rule="nonzero" vector-effect="none"/></g><defs><clipPath id="clip141"><path d="M1,1 L56,1 L56,81 L1,81 L1,1 z"/></clipPath></defs><g clip-path="url(#clip141)" fill="none" opacity="1" stroke="#3369c9" stroke-linecap="butt" stroke-linejoin="miter" stroke-miterlimit="20" stroke-opacity="1" stroke-width="2.6325" transform="matrix(2.38095,0,0,2.38095,21.4286,2.38095)"><path d="M19.3333,46 L19.3333,43" fill-rule="nonzero" vector-effect="none"/></g><defs><clipPath id="clip142"><path d="M1,1 L56,1 L56,81 L1,81 L1,1 z"/></clipPath></defs><g clip-path="url(#clip142)" fill="none" opacity="1" stroke="#3369c9" stroke-linecap="butt" stroke-linejoin="miter" stroke-miterlimit="20" stroke-opacity="1" stroke-width="2.6325" transform="matrix(2.38095,0,0,2.38095,21.4286,2.38095)"><path d="M40.4166,66.9999 L37.6666,66.9999 L37.6666,64.4999" fill-rule="nonzero" vector-effect="none"/></g><defs><clipPath id="clip143"><path d="M1,1 L56,1 L56,81 L1,81 L1,1 z"/></clipPath></defs><g clip-path="url(#clip143)" fill="none" opacity="1" stroke="#3369c9" stroke-linecap="butt" stroke-linejoin="miter" stroke-miterlimit="20" stroke-opacity="1" stroke-width="2.6325" transform="matrix(2.38095,0,0,2.38095,21.4286,2.38095)"><path d="M37.6666,62.4999 L37.6666,59.4999" fill-rule="nonzero" vector-effect="none"/></g><defs><clipPath id="clip144"><path d="M1,1 L56,1 L56,81 L1,81 L1,1 z"/></clipPath></defs><g clip-path="url(#clip144)" fill="none" opacity="1" stroke="#3369c9" stroke-linecap="butt" stroke-linejoin="miter" stroke-miterlimit="20" stroke-opacity="1" stroke-width="2.6325" transform="matrix(2.38095,0,0,2.38095,21.4286,2.38095)"><path d="M37.6666,54.4999 L37.6666,57.4999" fill-rule="nonzero" vector-effect="none"/></g><defs><clipPath id="clip145"><path d="M1,1 L56,1 L56,81 L1,81 L1,1 z"/></clipPath></defs><g clip-path="url(#clip145)" fill="none" opacity="1" stroke="#3369c9" stroke-linecap="butt" stroke-linejoin="miter" stroke-miterlimit="20" stroke-opacity="1" stroke-width="2.6325" transform="matrix(2.38095,0,0,2.38095,21.4286,2.38095)"><path d="M37.6666,49.5 L37.6666,52.5" fill-rule="nonzero" vector-effect="none"/></g><defs><clipPath id="clip146"><path d="M1,1 L56,1 L56,81 L1,81 L1,1 z"/></clipPath></defs><g clip-path="url(#clip146)" fill="none" opacity="1" stroke="#3369c9" stroke-linecap="butt" stroke-linejoin="miter" stroke-miterlimit="20" stroke-opacity="1" stroke-width="2.6325" transform="matrix(2.38095,0,0,2.38095,21.4286,2.38095)"><path d="M37.6666,44.5 L37.6666,47.5" fill-rule="nonzero" vector-effect="none"/></g><defs><clipPath id="clip147"><path d="M1,1 L56,1 L56,81 L1,81 L1,1 z"/></clipPath></defs><g clip-path="url(#clip147)" fill="none" opacity="1" stroke="#3369c9" stroke-linecap="butt" stroke-linejoin="miter" stroke-miterlimit="20" stroke-opacity="1" stroke-width="2.6325" transform="matrix(2.38095,0,0,2.38095,21.4286,2.38095)"><path d="M49.5833,66.9999 L46.8333,66.9999" fill-rule="nonzero" vector-effect="none"/></g><defs><clipPath id="clip148"><path d="M1,1 L56,1 L56,81 L1,81 L1,1 z"/></clipPath></defs><g clip-path="url(#clip148)" fill="none" opacity="1" stroke="#3369c9" stroke-linecap="butt" stroke-linejoin="miter" stroke-miterlimit="20" stroke-opacity="1" stroke-width="2.6325" transform="matrix(2.38095,0,0,2.38095,21.4286,2.38095)"><path d="M42.25,66.9999 L45,66.9999" fill-rule="nonzero" vector-effect="none"/></g><defs><clipPath id="clip165"><path d="M-266,-333 L16,-333 L16,77 L-266,77 L-266,-333 z"/></clipPath></defs><g clip-path="url(#clip165)" fill="none" opacity="1" stroke="#e60000" stroke-linecap="square" stroke-linejoin="bevel" stroke-opacity="1" stroke-width="1" transform="matrix(0.46503,0,0,0.46503,147.619,159.524)"><text fill="#e60000" fill-opacity="1" font-family="Liberation Sans" font-size="40" font-style="normal" font-weight="400" stroke="none" textLength="43" x="-56.9062" xml:space="preserve" y="17.9219">n3</text></g><defs><clipPath id="clip168"><path d="M-266,-205 L16,-205 L16,205 L-266,205 L-266,-205 z"/></clipPath></defs><g clip-path="url(#clip168)" fill="none" opacity="1" stroke="#e60000" stroke-linecap="square" stroke-linejoin="bevel" stroke-opacity="1" stroke-width="1" transform="matrix(0.46503,0,0,0.46503,147.619,100)"><text fill="#e60000" fill-opacity="1" font-family="Liberation Sans" font-size="40" font-style="normal" font-weight="400" stroke="none" textLength="45" x="-58.3594" xml:space="preserve" y="17.9219">~3</text></g><defs><clipPath id="clip171"><path d="M-266,-77 L16,-77 L16,333 L-266,333 L-266,-77 z"/></clipPath></defs><g clip-path="url(#clip171)" fill="none" opacity="1" stroke="#e60000" stroke-linecap="square" stroke-linejoin="bevel" stroke-opacity="1" stroke-width="1" transform="matrix(0.46503,0,0,0.46503,147.619,40.4762)"><text fill="#e60000" fill-opacity="1" font-family="Liberation Sans" font-size="40" font-style="normal" font-weight="400" stroke="none" textLength="45" x="-58.3594" xml:space="preserve" y="17.9219">~2</text></g><defs><clipPath id="clip174"><path d="M-15,-307 L267,-307 L267,103 L-15,103 L-15,-307 z"/></clipPath></defs><g clip-path="url(#clip174)" fill="none" opacity="1" stroke="#e60000" stroke-linecap="square" stroke-linejoin="bevel" stroke-opacity="1" stroke-width="1" transform="matrix(0.46503,0,0,0.46503,30.9524,147.619)"><text fill="#e60000" fill-opacity="1" font-family="Liberation Sans" font-size="40" font-style="normal" font-weight="400" stroke="none" textLength="43" x="0" xml:space="preserve" y="17.9219">n1</text></g><defs><clipPath id="clip177"><path d="M-15,-102 L267,-102 L267,308 L-15,308 L-15,-102 z"/></clipPath></defs><g clip-path="url(#clip177)" fill="none" opacity="1" stroke="#e60000" stroke-linecap="square" stroke-linejoin="bevel" stroke-opacity="1" stroke-width="1" transform="matrix(0.46503,0,0,0.46503,30.9524,52.381)"><text fill="#e60000" fill-opacity="1" font-family="Liberation Sans" font-size="40" font-style="normal" font-weight="400" stroke="none" textLength="45" x="0" xml:space="preserve" y="17.9219">~1</text></g><defs><clipPath id="clip183"><path d="M-10,-2 L65,-2 L65,82 L-10,82 L-10,-2 z"/></clipPath></defs><g clip-path="url(#clip183)" fill="none" opacity="1" stroke="none" stroke-opacity="0" transform="matrix(2.38095,0,0,2.38095,23.8095,4.7619)"><path d="M0,0 L55,0 L55,80 L0,80 L0,0 z" fill-rule="evenodd" vector-effect="none"/></g></g></svg>
