<?xml version="1.0" encoding="UTF-8"?><svg width="52.9167mm" height="31.2208mm" viewBox="0 0 200 118" xmlns="http://www.w3.org/2000/svg" xmlns:xlink="http://www.w3.org/1999/xlink"><g fill="none" stroke="black" stroke-width="1" fill-rule="evenodd" stroke-linecap="square" stroke-linejoin="bevel"><g clip-path="none" fill="none" opacity="1" stroke="none" stroke-opacity="0" transform="matrix(1,0,0,1,0,0)"><path d="M0,0 L200,0 L200,118 L0,118 L0,0 z" fill-rule="evenodd" vector-effect="none"/></g><defs><clipPath id="clip6"><path d="M0,0 L10,0 L10,10 L0,10 L0,0 z"/></clipPath></defs><g clip-path="url(#clip6)" fill="#b3b3b3" fill-opacity="1" opacity="1" stroke="none" stroke-opacity="0" transform="matrix(2,0,0,2,180,76)"><path d="M0.5,3.5 L3.5,3.5 L3.5,6.5 L0.5,6.5 L0.5,3.5 z" fill-rule="evenodd" vector-effect="none"/></g><defs><clipPath id="clip8"><path d="M0,0 L10,0 L10,10 L0,10 L0,0 z"/></clipPath></defs><g clip-path="url(#clip8)" fill="#000000" fill-opacity="1" opacity="1" stroke="none" stroke-opacity="0" transform="matrix(2,0,0,2,180,76)"><path d="M3,4 L3,6 L1,6 L1,4 L3,4 M4,3 L0,3 L0,7 L4,7 L4,3" fill-rule="nonzero" vector-effect="none"/></g><defs><clipPath id="clip28"><path d="M0,0 L10,0 L10,10 L0,10 L0,0 z"/></clipPath></defs><g clip-path="url(#clip28)" fill="#b3b3b3" fill-opacity="1" opacity="1" stroke="none" stroke-opacity="0" transform="matrix(2,0,0,2,180,26)"><path d="M0.5,3.5 L3.5,3.5 L3.5,6.5 L0.5,6.5 L0.5,3.5 z" fill-rule="evenodd" vector-effect="none"/></g><defs><clipPath id="clip30"><path d="M0,0 L10,0 L10,10 L0,10 L0,0 z"/></clipPath></defs><g clip-path="url(#clip30)" fill="#000000" fill-opacity="1" opacity="1" stroke="none" stroke-opacity="0" transform="matrix(2,0,0,2,180,26)"><path d="M3,4 L3,6 L1,6 L1,4 L3,4 M4,3 L0,3 L0,7 L4,7 L4,3" fill-rule="nonzero" vector-effect="none"/></g><defs><clipPath id="clip50"><path d="M0,0 L10,0 L10,10 L0,10 L0,0 z"/></clipPath></defs><g clip-path="url(#clip50)" fill="#b3b3b3" fill-opacity="1" opacity="1" stroke="none" stroke-opacity="0" transform="matrix(-2,0,0,2,20,76)"><path d="M0.5,3.5 L3.5,3.5 L3.5,6.5 L0.5,6.5 L0.5,3.5 z" fill-rule="evenodd" vector-effect="none"/></g><defs><clipPath id="clip52"><path d="M0,0 L10,0 L10,10 L0,10 L0,0 z"/></clipPath></defs><g clip-path="url(#clip52)" fill="#000000" fill-opacity="1" opacity="1" stroke="none" stroke-opacity="0" transform="matrix(-2,0,0,2,20,76)"><path d="M3,4 L3,6 L1,6 L1,4 L3,4 M4,3 L0,3 L0,7 L4,7 L4,3" fill-rule="nonzero" vector-effect="none"/></g><defs><clipPath id="clip72"><path d="M0,0 L10,0 L10,10 L0,10 L0,0 z"/></clipPath></defs><g clip-path="url(#clip72)" fill="#b3b3b3" fill-opacity="1" opacity="1" stroke="none" stroke-opacity="0" transform="matrix(-2,0,0,2,20,26)"><path d="M0.5,3.5 L3.5,3.5 L3.5,6.5 L0.5,6.5 L0.5,3.5 z" fill-rule="evenodd" vector-effect="none"/></g><defs><clipPath id="clip74"><path d="M0,0 L10,0 L10,10 L0,10 L0,0 z"/></clipPath></defs><g clip-path="url(#clip74)" fill="#000000" fill-opacity="1" opacity="1" stroke="none" stroke-opacity="0" transform="matrix(-2,0,0,2,20,26)"><path d="M3,4 L3,6 L1,6 L1,4 L3,4 M4,3 L0,3 L0,7 L4,7 L4,3" fill-rule="nonzero" vector-effect="none"/></g><defs><clipPath id="clip91"><path d="M-10,-2 L90,-2 L90,57 L-10,57 L-10,-2 z"/></clipPath></defs><g clip-path="url(#clip91)" fill="#ffffff" fill-opacity="1" opacity="1" stroke="none" stroke-opacity="0" transform="matrix(2,0,0,2,20,4)"><path d="M0,0 L80,0 L80,55 L0,55 L0,0 z" fill-rule="evenodd" vector-effect="none"/></g><defs><clipPath id="clip95"><path d="M0,0 L80,0 L80,55 L0,55 L0,0 z"/></clipPath></defs><g clip-path="url(#clip95)" fill="none" opacity="1" stroke="none" stroke-opacity="0" transform="matrix(2,0,0,2,20,4)"><path d="M0,0 L80,0 L80,55 L0,55 L0,0 z" fill-rule="evenodd" vector-effect="none"/></g><defs><clipPath id="clip105"><path d="M1,1 L81,1 L81,56 L1,56 L1,1 z"/></clipPath></defs><g clip-path="url(#clip105)" fill="none" opacity="1" stroke="#81afca" stroke-linecap="butt" stroke-linejoin="miter" stroke-miterlimit="20" stroke-opacity="1" stroke-width="1.82" transform="matrix(2,0,0,2,18,2)"><path d="M1.00001,1 L81.0001,1 L81.0001,56.0001 L1.00001,56.0001 L1.00001,1 z" fill-rule="nonzero" vector-effect="none"/></g><defs><clipPath id="clip106"><path d="M1,1 L81,1 L81,56 L1,56 L1,1 z"/></clipPath></defs><g clip-path="url(#clip106)" fill="none" opacity="1" stroke="#81afca" stroke-linecap="butt" stroke-linejoin="miter" stroke-miterlimit="20" stroke-opacity="1" stroke-width="1.82" transform="matrix(2,0,0,2,18,2)"><path d="M27.6667,7.87501 L27.6667,21.625" fill-rule="nonzero" vector-effect="none"/></g><defs><clipPath id="clip107"><path d="M1,1 L81,1 L81,56 L1,56 L1,1 z"/></clipPath></defs><g clip-path="url(#clip107)" fill="none" opacity="1" stroke="#81afca" stroke-linecap="butt" stroke-linejoin="miter" stroke-miterlimit="20" stroke-opacity="1" stroke-width="1.82" transform="matrix(2,0,0,2,18,2)"><path d="M16.1111,28.4542 L27.6519,21.5639" fill-rule="nonzero" vector-effect="none"/></g><defs><clipPath id="clip108"><path d="M1,1 L81,1 L81,56 L1,56 L1,1 z"/></clipPath></defs><g clip-path="url(#clip108)" fill="none" opacity="1" stroke="#81afca" stroke-linecap="butt" stroke-linejoin="miter" stroke-miterlimit="20" stroke-opacity="1" stroke-width="1.82" transform="matrix(2,0,0,2,18,2)"><path d="M39.2223,28.5306 L27.6815,21.6556" fill-rule="nonzero" vector-effect="none"/></g><defs><clipPath id="clip109"><path d="M1,1 L81,1 L81,56 L1,56 L1,1 z"/></clipPath></defs><g clip-path="url(#clip109)" fill="none" opacity="1" stroke="#81afca" stroke-linecap="butt" stroke-linejoin="miter" stroke-miterlimit="20" stroke-opacity="1" stroke-width="1.82" transform="matrix(2,0,0,2,18,2)"><path d="M54.3482,7.85973 L54.3482,21.6098" fill-rule="nonzero" vector-effect="none"/></g><defs><clipPath id="clip110"><path d="M1,1 L81,1 L81,56 L1,56 L1,1 z"/></clipPath></defs><g clip-path="url(#clip110)" fill="none" opacity="1" stroke="#81afca" stroke-linecap="butt" stroke-linejoin="miter" stroke-miterlimit="20" stroke-opacity="1" stroke-width="1.82" transform="matrix(2,0,0,2,18,2)"><path d="M42.7927,28.4389 L54.3334,21.5486" fill-rule="nonzero" vector-effect="none"/></g><defs><clipPath id="clip111"><path d="M1,1 L81,1 L81,56 L1,56 L1,1 z"/></clipPath></defs><g clip-path="url(#clip111)" fill="none" opacity="1" stroke="#81afca" stroke-linecap="butt" stroke-linejoin="miter" stroke-miterlimit="20" stroke-opacity="1" stroke-width="1.82" transform="matrix(2,0,0,2,18,2)"><path d="M65.9038,28.5153 L54.3631,21.6403" fill-rule="nonzero" vector-effect="none"/></g><defs><clipPath id="clip112"><path d="M1,1 L81,1 L81,56 L1,56 L1,1 z"/></clipPath></defs><g clip-path="url(#clip112)" fill="none" opacity="1" stroke="#3369c9" stroke-linecap="butt" stroke-linejoin="miter" stroke-miterlimit="20" stroke-opacity="1" stroke-width="1.82" transform="matrix(2,0,0,2,18,2)"><path d="M10.3334,42.2501 L14.3334,42.2501" fill-rule="nonzero" vector-effect="none"/></g><defs><clipPath id="clip113"><path d="M1,1 L81,1 L81,56 L1,56 L1,1 z"/></clipPath></defs><g clip-path="url(#clip113)" fill="none" opacity="1" stroke="#3369c9" stroke-linecap="butt" stroke-linejoin="miter" stroke-miterlimit="20" stroke-opacity="1" stroke-width="1.82" transform="matrix(2,0,0,2,18,2)"><path d="M17,42.2501 L21,42.2501" fill-rule="nonzero" vector-effect="none"/></g><defs><clipPath id="clip114"><path d="M1,1 L81,1 L81,56 L1,56 L1,1 z"/></clipPath></defs><g clip-path="url(#clip114)" fill="none" opacity="1" stroke="#3369c9" stroke-linecap="butt" stroke-linejoin="miter" stroke-miterlimit="20" stroke-opacity="1" stroke-width="1.82" transform="matrix(2,0,0,2,18,2)"><path d="M23.6667,42.2501 L27.6667,42.2501" fill-rule="nonzero" vector-effect="none"/></g><defs><clipPath id="clip115"><path d="M1,1 L81,1 L81,56 L1,56 L1,1 z"/></clipPath></defs><g clip-path="url(#clip115)" fill="none" opacity="1" stroke="#3369c9" stroke-linecap="butt" stroke-linejoin="miter" stroke-miterlimit="20" stroke-opacity="1" stroke-width="1.82" transform="matrix(2,0,0,2,18,2)"><path d="M27.6667,42.2501 L27.6667,38.1251" fill-rule="nonzero" vector-effect="none"/></g><defs><clipPath id="clip116"><path d="M1,1 L81,1 L81,56 L1,56 L1,1 z"/></clipPath></defs><g clip-path="url(#clip116)" fill="none" opacity="1" stroke="#3369c9" stroke-linecap="butt" stroke-linejoin="miter" stroke-miterlimit="20" stroke-opacity="1" stroke-width="1.82" transform="matrix(2,0,0,2,18,2)"><path d="M27.6667,35.3751 L27.6667,31.25" fill-rule="nonzero" vector-effect="none"/></g><defs><clipPath id="clip117"><path d="M1,1 L81,1 L81,56 L1,56 L1,1 z"/></clipPath></defs><g clip-path="url(#clip117)" fill="none" opacity="1" stroke="#3369c9" stroke-linecap="butt" stroke-linejoin="miter" stroke-miterlimit="20" stroke-opacity="1" stroke-width="1.82" transform="matrix(2,0,0,2,18,2)"><path d="M27.6667,28.5 L27.6667,24.375" fill-rule="nonzero" vector-effect="none"/></g><defs><clipPath id="clip118"><path d="M1,1 L81,1 L81,56 L1,56 L1,1 z"/></clipPath></defs><g clip-path="url(#clip118)" fill="none" opacity="1" stroke="#3369c9" stroke-linecap="butt" stroke-linejoin="miter" stroke-miterlimit="20" stroke-opacity="1" stroke-width="1.82" transform="matrix(2,0,0,2,18,2)"><path d="M54.3334,24.375 L54.3334,28.5" fill-rule="nonzero" vector-effect="none"/></g><defs><clipPath id="clip119"><path d="M1,1 L81,1 L81,56 L1,56 L1,1 z"/></clipPath></defs><g clip-path="url(#clip119)" fill="none" opacity="1" stroke="#3369c9" stroke-linecap="butt" stroke-linejoin="miter" stroke-miterlimit="20" stroke-opacity="1" stroke-width="1.82" transform="matrix(2,0,0,2,18,2)"><path d="M54.3334,31.25 L54.3334,35.3751" fill-rule="nonzero" vector-effect="none"/></g><defs><clipPath id="clip120"><path d="M1,1 L81,1 L81,56 L1,56 L1,1 z"/></clipPath></defs><g clip-path="url(#clip120)" fill="none" opacity="1" stroke="#3369c9" stroke-linecap="butt" stroke-linejoin="miter" stroke-miterlimit="20" stroke-opacity="1" stroke-width="1.82" transform="matrix(2,0,0,2,18,2)"><path d="M54.3334,38.1251 L54.3334,42.2501 L58.3334,42.2501" fill-rule="nonzero" vector-effect="none"/></g><defs><clipPath id="clip121"><path d="M1,1 L81,1 L81,56 L1,56 L1,1 z"/></clipPath></defs><g clip-path="url(#clip121)" fill="none" opacity="1" stroke="#3369c9" stroke-linecap="butt" stroke-linejoin="miter" stroke-miterlimit="20" stroke-opacity="1" stroke-width="1.82" transform="matrix(2,0,0,2,18,2)"><path d="M61.0001,42.2501 L65.0001,42.2501" fill-rule="nonzero" vector-effect="none"/></g><defs><clipPath id="clip122"><path d="M1,1 L81,1 L81,56 L1,56 L1,1 z"/></clipPath></defs><g clip-path="url(#clip122)" fill="none" opacity="1" stroke="#3369c9" stroke-linecap="butt" stroke-linejoin="miter" stroke-miterlimit="20" stroke-opacity="1" stroke-width="1.82" transform="matrix(2,0,0,2,18,2)"><path d="M67.6668,42.2501 L71.6668,42.2501" fill-rule="nonzero" vector-effect="none"/></g><defs><clipPath id="clip139"><path d="M-394,-205 L16,-205 L16,77 L-394,77 L-394,-205 z"/></clipPath></defs><g clip-path="url(#clip139)" fill="none" opacity="1" stroke="#e60000" stroke-linecap="square" stroke-linejoin="bevel" stroke-opacity="1" stroke-width="1" transform="matrix(0.390625,0,0,0.390625,174,84)"><text fill="#e60000" fill-opacity="1" font-family="Liberation Sans" font-size="40" font-style="normal" font-weight="400" stroke="none" textLength="43" x="-56.9062" xml:space="preserve" y="17.9219">n2</text></g><defs><clipPath id="clip142"><path d="M-15,-205 L395,-205 L395,77 L-15,77 L-15,-205 z"/></clipPath></defs><g clip-path="url(#clip142)" fill="none" opacity="1" stroke="#e60000" stroke-linecap="square" stroke-linejoin="bevel" stroke-opacity="1" stroke-width="1" transform="matrix(0.390625,0,0,0.390625,26,84)"><text fill="#e60000" fill-opacity="1" font-family="Liberation Sans" font-size="40" font-style="normal" font-weight="400" stroke="none" textLength="43" x="0" xml:space="preserve" y="17.9219">n1</text></g><defs><clipPath id="clip145"><path d="M-394,-77 L16,-77 L16,205 L-394,205 L-394,-77 z"/></clipPath></defs><g clip-path="url(#clip145)" fill="none" opacity="1" stroke="#e60000" stroke-linecap="square" stroke-linejoin="bevel" stroke-opacity="1" stroke-width="1" transform="matrix(0.390625,0,0,0.390625,174,34)"><text fill="#e60000" fill-opacity="1" font-family="Liberation Sans" font-size="40" font-style="normal" font-weight="400" stroke="none" textLength="45" x="-58.3594" xml:space="preserve" y="17.9219">~2</text></g><defs><clipPath id="clip148"><path d="M-15,-77 L395,-77 L395,205 L-15,205 L-15,-77 z"/></clipPath></defs><g clip-path="url(#clip148)" fill="none" opacity="1" stroke="#e60000" stroke-linecap="square" stroke-linejoin="bevel" stroke-opacity="1" stroke-width="1" transform="matrix(0.390625,0,0,0.390625,26,34)"><text fill="#e60000" fill-opacity="1" font-family="Liberation Sans" font-size="40" font-style="normal" font-weight="400" stroke="none" textLength="45" x="0" xml:space="preserve" y="17.9219">~1</text></g><defs><clipPath id="clip154"><path d="M-10,-2 L90,-2 L90,57 L-10,57 L-10,-2 z"/></clipPath></defs><g clip-path="url(#clip154)" fill="none" opacity="1" stroke="none" stroke-opacity="0" transform="matrix(2,0,0,2,20,4)"><path d="M0,0 L80,0 L80,55 L0,55 L0,0 z" fill-rule="evenodd" vector-effect="none"/></g></g></svg>
