<?xml version="1.0" encoding="UTF-8"?><svg width="44.45mm" height="52.9167mm" viewBox="0 0 168 200" xmlns="http://www.w3.org/2000/svg" xmlns:xlink="http://www.w3.org/1999/xlink"><g fill="none" stroke="black" stroke-width="1" fill-rule="evenodd" stroke-linecap="square" stroke-linejoin="bevel"><g clip-path="none" fill="none" opacity="1" stroke="none" stroke-opacity="0" transform="matrix(1,0,0,1,0,0)"><path d="M0,0 L168,0 L168,200 L0,200 L0,0 z" fill-rule="evenodd" vector-effect="none"/></g><defs><clipPath id="clip6"><path d="M0,0 L10,0 L10,10 L0,10 L0,0 z"/></clipPath></defs><g clip-path="url(#clip6)" fill="#b3b3b3" fill-opacity="1" opacity="1" stroke="none" stroke-opacity="0" transform="matrix(1.22461e-16,-2,2,1.22461e-16,76,20)"><path d="M0.5,3.5 L3.5,3.5 L3.5,6.5 L0.5,6.5 L0.5,3.5 z" fill-rule="evenodd" vector-effect="none"/></g><defs><clipPath id="clip8"><path d="M0,0 L10,0 L10,10 L0,10 L0,0 z"/></clipPath></defs><g clip-path="url(#clip8)" fill="#000000" fill-opacity="1" opacity="1" stroke="none" stroke-opacity="0" transform="matrix(1.22461e-16,-2,2,1.22461e-16,76,20)"><path d="M3,4 L3,6 L1,6 L1,4 L3,4 M4,3 L0,3 L0,7 L4,7 L4,3" fill-rule="nonzero" vector-effect="none"/></g><defs><clipPath id="clip28"><path d="M0,0 L10,0 L10,10 L0,10 L0,0 z"/></clipPath></defs><g clip-path="url(#clip28)" fill="#ffffff" fill-opacity="1" opacity="1" stroke="none" stroke-opacity="0" transform="matrix(-3.67382e-16,2,-2,-3.67382e-16,92,180)"><path d="M0.5,0.809 L8.882,5 L0.5,9.191 L0.5,0.809 z" fill-rule="evenodd" vector-effect="none"/></g><defs><clipPath id="clip30"><path d="M0,0 L10,0 L10,10 L0,10 L0,0 z"/></clipPath></defs><g clip-path="url(#clip30)" fill="#000000" fill-opacity="1" opacity="1" stroke="none" stroke-opacity="0" transform="matrix(-3.67382e-16,2,-2,-3.67382e-16,92,180)"><path d="M1,1.618 L7.764,5 L1,8.382 L1,1.618 M0,0 L0,10 L10,5 L0,0" fill-rule="nonzero" vector-effect="none"/></g><defs><clipPath id="clip49"><path d="M-2,-10 L82,-10 L82,90 L-2,90 L-2,-10 z"/></clipPath></defs><g clip-path="url(#clip49)" fill="#ffffff" fill-opacity="1" opacity="1" stroke="none" stroke-opacity="0" transform="matrix(2,0,0,2,4,20)"><path d="M0,0 L80,0 L80,80 L0,80 L0,0 z" fill-rule="evenodd" vector-effect="none"/></g><defs><clipPath id="clip53"><path d="M0,0 L80,0 L80,80 L0,80 L0,0 z"/></clipPath></defs><g clip-path="url(#clip53)" fill="none" opacity="1" stroke="none" stroke-opacity="0" transform="matrix(2,0,0,2,4,20)"><path d="M0,0 L80,0 L80,80 L0,80 L0,0 z" fill-rule="evenodd" vector-effect="none"/></g><defs><clipPath id="clip63"><path d="M1,1 L81,1 L81,81 L1,81 L1,1 z"/></clipPath></defs><g clip-path="url(#clip63)" fill="none" opacity="1" stroke="#81afca" stroke-linecap="butt" stroke-linejoin="miter" stroke-miterlimit="20" stroke-opacity="1" stroke-width="3.6725" transform="matrix(3.67382e-16,2,2,-3.67382e-16,2,18)"><path d="M42.6,24.9012 L36.2418,22.6691" fill-rule="nonzero" vector-effect="none"/></g><defs><clipPath id="clip64"><path d="M1,1 L81,1 L81,81 L1,81 L1,1 z"/></clipPath></defs><g clip-path="url(#clip64)" fill="none" opacity="1" stroke="#81afca" stroke-linecap="butt" stroke-linejoin="miter" stroke-miterlimit="20" stroke-opacity="1" stroke-width="3.6725" transform="matrix(3.67382e-16,2,2,-3.67382e-16,2,18)"><path d="M36.2418,28.0815 L36.2418,26.0667" fill-rule="nonzero" vector-effect="none"/></g><defs><clipPath id="clip65"><path d="M1,1 L81,1 L81,81 L1,81 L1,1 z"/></clipPath></defs><g clip-path="url(#clip65)" fill="none" opacity="1" stroke="#81afca" stroke-linecap="butt" stroke-linejoin="miter" stroke-miterlimit="20" stroke-opacity="1" stroke-width="3.6725" transform="matrix(3.67382e-16,2,2,-3.67382e-16,2,18)"><path d="M36.2418,23.5778 L36.2418,21.7605" fill-rule="nonzero" vector-effect="none"/></g><defs><clipPath id="clip66"><path d="M1,1 L81,1 L81,81 L1,81 L1,1 z"/></clipPath></defs><g clip-path="url(#clip66)" fill="none" opacity="1" stroke="#81afca" stroke-linecap="butt" stroke-linejoin="miter" stroke-miterlimit="20" stroke-opacity="1" stroke-width="3.6725" transform="matrix(3.67382e-16,2,2,-3.67382e-16,2,18)"><path d="M42.6,55.1234 L36.2418,52.8913" fill-rule="nonzero" vector-effect="none"/></g><defs><clipPath id="clip67"><path d="M1,1 L81,1 L81,81 L1,81 L1,1 z"/></clipPath></defs><g clip-path="url(#clip67)" fill="none" opacity="1" stroke="#81afca" stroke-linecap="butt" stroke-linejoin="miter" stroke-miterlimit="20" stroke-opacity="1" stroke-width="3.6725" transform="matrix(3.67382e-16,2,2,-3.67382e-16,2,18)"><path d="M36.2418,58.3037 L36.2418,56.2889" fill-rule="nonzero" vector-effect="none"/></g><defs><clipPath id="clip68"><path d="M1,1 L81,1 L81,81 L1,81 L1,1 z"/></clipPath></defs><g clip-path="url(#clip68)" fill="none" opacity="1" stroke="#81afca" stroke-linecap="butt" stroke-linejoin="miter" stroke-miterlimit="20" stroke-opacity="1" stroke-width="3.6725" transform="matrix(3.67382e-16,2,2,-3.67382e-16,2,18)"><path d="M36.2418,53.8 L36.2418,51.9827" fill-rule="nonzero" vector-effect="none"/></g><defs><clipPath id="clip69"><path d="M1,1 L81,1 L81,81 L1,81 L1,1 z"/></clipPath></defs><g clip-path="url(#clip69)" fill="none" opacity="1" stroke="#81afca" stroke-linecap="butt" stroke-linejoin="miter" stroke-miterlimit="20" stroke-opacity="1" stroke-width="3.6725" transform="matrix(3.67382e-16,2,2,-3.67382e-16,2,18)"><path d="M42.6,40.0123 L36.2418,37.7802" fill-rule="nonzero" vector-effect="none"/></g><defs><clipPath id="clip70"><path d="M1,1 L81,1 L81,81 L1,81 L1,1 z"/></clipPath></defs><g clip-path="url(#clip70)" fill="none" opacity="1" stroke="#81afca" stroke-linecap="butt" stroke-linejoin="miter" stroke-miterlimit="20" stroke-opacity="1" stroke-width="3.6725" transform="matrix(3.67382e-16,2,2,-3.67382e-16,2,18)"><path d="M36.2418,43.1926 L36.2418,41.1778" fill-rule="nonzero" vector-effect="none"/></g><defs><clipPath id="clip71"><path d="M1,1 L81,1 L81,81 L1,81 L1,1 z"/></clipPath></defs><g clip-path="url(#clip71)" fill="none" opacity="1" stroke="#81afca" stroke-linecap="butt" stroke-linejoin="miter" stroke-miterlimit="20" stroke-opacity="1" stroke-width="3.6725" transform="matrix(3.67382e-16,2,2,-3.67382e-16,2,18)"><path d="M36.2418,38.6889 L36.2418,36.8716" fill-rule="nonzero" vector-effect="none"/></g><defs><clipPath id="clip72"><path d="M1,1 L81,1 L81,81 L1,81 L1,1 z"/></clipPath></defs><g clip-path="url(#clip72)" fill="none" opacity="1" stroke="#81afca" stroke-linecap="butt" stroke-linejoin="miter" stroke-miterlimit="20" stroke-opacity="1" stroke-width="3.6725" transform="matrix(3.67382e-16,2,2,-3.67382e-16,2,18)"><path d="M31.1177,40.1111 L17,40.1111" fill-rule="nonzero" vector-effect="none"/></g><defs><clipPath id="clip73"><path d="M1,1 L81,1 L81,81 L1,81 L1,1 z"/></clipPath></defs><g clip-path="url(#clip73)" fill="none" opacity="1" stroke="#81afca" stroke-linecap="butt" stroke-linejoin="miter" stroke-miterlimit="20" stroke-opacity="1" stroke-width="3.6725" transform="matrix(3.67382e-16,2,2,-3.67382e-16,2,18)"><path d="M31.1177,24.1111 L17,24.1111" fill-rule="nonzero" vector-effect="none"/></g><defs><clipPath id="clip74"><path d="M1,1 L81,1 L81,81 L1,81 L1,1 z"/></clipPath></defs><g clip-path="url(#clip74)" fill="none" opacity="1" stroke="#81afca" stroke-linecap="butt" stroke-linejoin="miter" stroke-miterlimit="20" stroke-opacity="1" stroke-width="3.6725" transform="matrix(3.67382e-16,2,2,-3.67382e-16,2,18)"><path d="M31.1177,55.2222 L17,55.2222" fill-rule="nonzero" vector-effect="none"/></g><defs><clipPath id="clip75"><path d="M1,1 L81,1 L81,81 L1,81 L1,1 z"/></clipPath></defs><g clip-path="url(#clip75)" fill="none" opacity="1" stroke="#81afca" stroke-linecap="butt" stroke-linejoin="miter" stroke-miterlimit="20" stroke-opacity="1" stroke-width="3.6725" transform="matrix(3.67382e-16,2,2,-3.67382e-16,2,18)"><path d="M52.7647,24.1111 L47.1177,24.1111" fill-rule="nonzero" vector-effect="none"/></g><defs><clipPath id="clip76"><path d="M1,1 L81,1 L81,81 L1,81 L1,1 z"/></clipPath></defs><g clip-path="url(#clip76)" fill="none" opacity="1" stroke="#81afca" stroke-linecap="butt" stroke-linejoin="miter" stroke-miterlimit="20" stroke-opacity="1" stroke-width="3.6725" transform="matrix(3.67382e-16,2,2,-3.67382e-16,2,18)"><path d="M52.7647,24.1111 L57.4706,40.1111" fill-rule="nonzero" vector-effect="none"/></g><defs><clipPath id="clip77"><path d="M1,1 L81,1 L81,81 L1,81 L1,1 z"/></clipPath></defs><g clip-path="url(#clip77)" fill="none" opacity="1" stroke="#81afca" stroke-linecap="butt" stroke-linejoin="miter" stroke-miterlimit="20" stroke-opacity="1" stroke-width="3.6725" transform="matrix(3.67382e-16,2,2,-3.67382e-16,2,18)"><path d="M52.7647,40.1111 L57.4706,55.2222" fill-rule="nonzero" vector-effect="none"/></g><defs><clipPath id="clip78"><path d="M1,1 L81,1 L81,81 L1,81 L1,1 z"/></clipPath></defs><g clip-path="url(#clip78)" fill="none" opacity="1" stroke="#81afca" stroke-linecap="butt" stroke-linejoin="miter" stroke-miterlimit="20" stroke-opacity="1" stroke-width="3.6725" transform="matrix(3.67382e-16,2,2,-3.67382e-16,2,18)"><path d="M52.7647,40.1111 L47.1177,40.1111" fill-rule="nonzero" vector-effect="none"/></g><defs><clipPath id="clip79"><path d="M1,1 L81,1 L81,81 L1,81 L1,1 z"/></clipPath></defs><g clip-path="url(#clip79)" fill="none" opacity="1" stroke="#81afca" stroke-linecap="butt" stroke-linejoin="miter" stroke-miterlimit="20" stroke-opacity="1" stroke-width="3.6725" transform="matrix(3.67382e-16,2,2,-3.67382e-16,2,18)"><path d="M61.2353,40.1111 L57.4706,40.1111" fill-rule="nonzero" vector-effect="none"/></g><defs><clipPath id="clip80"><path d="M1,1 L81,1 L81,81 L1,81 L1,1 z"/></clipPath></defs><g clip-path="url(#clip80)" fill="none" opacity="1" stroke="#81afca" stroke-linecap="butt" stroke-linejoin="miter" stroke-miterlimit="20" stroke-opacity="1" stroke-width="3.6725" transform="matrix(3.67382e-16,2,2,-3.67382e-16,2,18)"><path d="M52.7647,55.2222 L47.1177,55.2222" fill-rule="nonzero" vector-effect="none"/></g><defs><clipPath id="clip81"><path d="M1,1 L81,1 L81,81 L1,81 L1,1 z"/></clipPath></defs><g clip-path="url(#clip81)" fill="none" opacity="1" stroke="#81afca" stroke-linecap="butt" stroke-linejoin="miter" stroke-miterlimit="20" stroke-opacity="1" stroke-width="3.6725" transform="matrix(3.67382e-16,2,2,-3.67382e-16,2,18)"><path d="M57.4706,24.1111 L52.7647,55.2222" fill-rule="nonzero" vector-effect="none"/></g><defs><clipPath id="clip82"><path d="M1,1 L81,1 L81,81 L1,81 L1,1 z"/></clipPath></defs><g clip-path="url(#clip82)" fill="none" opacity="1" stroke="#81afca" stroke-linecap="butt" stroke-linejoin="miter" stroke-miterlimit="20" stroke-opacity="1" stroke-width="3.6725" transform="matrix(3.67382e-16,2,2,-3.67382e-16,2,18)"><path d="M57.4706,55.2222 L61.2353,55.2222" fill-rule="nonzero" vector-effect="none"/></g><defs><clipPath id="clip83"><path d="M1,1 L81,1 L81,81 L1,81 L1,1 z"/></clipPath></defs><g clip-path="url(#clip83)" fill="none" opacity="1" stroke="#81afca" stroke-linecap="butt" stroke-linejoin="miter" stroke-miterlimit="20" stroke-opacity="1" stroke-width="3.6725" transform="matrix(3.67382e-16,2,2,-3.67382e-16,2,18)"><path d="M57.4706,24.1111 L61.2353,24.1111" fill-rule="nonzero" vector-effect="none"/></g><defs><clipPath id="clip84"><path d="M1,1 L81,1 L81,81 L1,81 L1,1 z"/></clipPath></defs><g clip-path="url(#clip84)" fill="none" opacity="1" stroke="#81afca" stroke-linecap="butt" stroke-linejoin="miter" stroke-miterlimit="4" stroke-opacity="1" stroke-width="3.6725" transform="matrix(3.67382e-16,2,2,-3.67382e-16,2,18)"><path d="M46.8249,24.5654 C46.8249,28.5801 43.3789,31.8346 39.1281,31.8346 C34.8773,31.8346 31.4314,28.5801 31.4314,24.5654 C31.4314,20.5508 34.8773,17.2963 39.1281,17.2963 C43.3789,17.2963 46.8249,20.5508 46.8249,24.5654 z" fill-rule="nonzero" vector-effect="none"/></g><defs><clipPath id="clip85"><path d="M1,1 L81,1 L81,81 L1,81 L1,1 z"/></clipPath></defs><g clip-path="url(#clip85)" fill="none" opacity="1" stroke="#81afca" stroke-linecap="butt" stroke-linejoin="miter" stroke-miterlimit="4" stroke-opacity="1" stroke-width="3.6725" transform="matrix(3.67382e-16,2,2,-3.67382e-16,2,18)"><path d="M46.8249,54.7876 C46.8249,58.8023 43.3789,62.0568 39.1281,62.0568 C34.8773,62.0568 31.4314,58.8023 31.4314,54.7876 C31.4314,50.773 34.8773,47.5185 39.1281,47.5185 C43.3789,47.5185 46.8249,50.773 46.8249,54.7876 z" fill-rule="nonzero" vector-effect="none"/></g><defs><clipPath id="clip86"><path d="M1,1 L81,1 L81,81 L1,81 L1,1 z"/></clipPath></defs><g clip-path="url(#clip86)" fill="none" opacity="1" stroke="#81afca" stroke-linecap="butt" stroke-linejoin="miter" stroke-miterlimit="4" stroke-opacity="1" stroke-width="3.6725" transform="matrix(3.67382e-16,2,2,-3.67382e-16,2,18)"><path d="M46.8249,39.6765 C46.8249,43.6912 43.3789,46.9457 39.1281,46.9457 C34.8773,46.9457 31.4314,43.6912 31.4314,39.6765 C31.4314,35.6619 34.8773,32.4074 39.1281,32.4074 C43.3789,32.4074 46.8249,35.6619 46.8249,39.6765 z" fill-rule="nonzero" vector-effect="none"/></g><defs><clipPath id="clip87"><path d="M1,1 L81,1 L81,81 L1,81 L1,1 z"/></clipPath></defs><g clip-path="url(#clip87)" fill="none" opacity="1" stroke="#81afca" stroke-linecap="butt" stroke-linejoin="miter" stroke-miterlimit="20" stroke-opacity="1" stroke-width="3.6725" transform="matrix(3.67382e-16,2,2,-3.67382e-16,2,18)"><path d="M1.00001,1 L81,1 L81,81 L1.00001,81 L1.00001,1 z" fill-rule="nonzero" vector-effect="none"/></g><defs><clipPath id="clip88"><path d="M1,1 L81,1 L81,81 L1,81 L1,1 z"/></clipPath></defs><g clip-path="url(#clip88)" fill="none" opacity="1" stroke="#81afca" stroke-linecap="butt" stroke-linejoin="miter" stroke-miterlimit="20" stroke-opacity="1" stroke-width="3.6725" transform="matrix(3.67382e-16,2,2,-3.67382e-16,2,18)"><path d="M36.2418,27.1333 L42.6418,24.8617" fill-rule="nonzero" vector-effect="none"/></g><defs><clipPath id="clip89"><path d="M1,1 L81,1 L81,81 L1,81 L1,1 z"/></clipPath></defs><g clip-path="url(#clip89)" fill="none" opacity="1" stroke="#81afca" stroke-linecap="butt" stroke-linejoin="miter" stroke-miterlimit="20" stroke-opacity="1" stroke-width="3.6725" transform="matrix(3.67382e-16,2,2,-3.67382e-16,2,18)"><path d="M36.2418,57.3555 L42.6418,55.0839" fill-rule="nonzero" vector-effect="none"/></g><defs><clipPath id="clip90"><path d="M1,1 L81,1 L81,81 L1,81 L1,1 z"/></clipPath></defs><g clip-path="url(#clip90)" fill="none" opacity="1" stroke="#81afca" stroke-linecap="butt" stroke-linejoin="miter" stroke-miterlimit="20" stroke-opacity="1" stroke-width="3.6725" transform="matrix(3.67382e-16,2,2,-3.67382e-16,2,18)"><path d="M36.2418,42.2444 L42.6418,39.9728" fill-rule="nonzero" vector-effect="none"/></g><defs><clipPath id="clip107"><path d="M-394,-205 L15,-205 L15,205 L-394,205 L-394,-205 z"/></clipPath></defs><g clip-path="url(#clip107)" fill="none" opacity="1" stroke="#e60000" stroke-linecap="square" stroke-linejoin="bevel" stroke-opacity="1" stroke-width="1" transform="matrix(0,-0.390625,0.390625,0,84,26)"><text fill="#e60000" fill-opacity="1" font-family="Liberation Sans" font-size="40" font-style="normal" font-weight="400" stroke="none" textLength="23" x="-29.8906" xml:space="preserve" y="17.9219">~</text></g><defs><clipPath id="clip110"><path d="M-15,-205 L394,-205 L394,205 L-15,205 L-15,-205 z"/></clipPath></defs><g clip-path="url(#clip110)" fill="none" opacity="1" stroke="#e60000" stroke-linecap="square" stroke-linejoin="bevel" stroke-opacity="1" stroke-width="1" transform="matrix(0,-0.390625,0.390625,0,84,174)"><text fill="#e60000" fill-opacity="1" font-family="Liberation Sans" font-size="40" font-style="normal" font-weight="400" stroke="none" textLength="27" x="0" xml:space="preserve" y="17.9219">V</text></g><defs><clipPath id="clip116"><path d="M-2,-10 L82,-10 L82,90 L-2,90 L-2,-10 z"/></clipPath></defs><g clip-path="url(#clip116)" fill="none" opacity="1" stroke="none" stroke-opacity="0" transform="matrix(2,0,0,2,4,20)"><path d="M0,0 L80,0 L80,80 L0,80 L0,0 z" fill-rule="evenodd" vector-effect="none"/></g></g></svg>
