<?xml version="1.0" encoding="UTF-8"?><svg width="52.9167mm" height="44.45mm" viewBox="0 0 200 168" xmlns="http://www.w3.org/2000/svg" xmlns:xlink="http://www.w3.org/1999/xlink"><g fill="none" stroke="black" stroke-width="1" fill-rule="evenodd" stroke-linecap="square" stroke-linejoin="bevel"><g clip-path="none" fill="none" opacity="1" stroke="none" stroke-opacity="0" transform="matrix(1,0,0,1,0,0)"><path d="M0,0 L200,0 L200,168 L0,168 L0,0 z" fill-rule="evenodd" vector-effect="none"/></g><defs><clipPath id="clip6"><path d="M0,0 L10,0 L10,10 L0,10 L0,0 z"/></clipPath></defs><g clip-path="url(#clip6)" fill="#b3b3b3" fill-opacity="1" opacity="1" stroke="none" stroke-opacity="0" transform="matrix(2,0,0,2,180,76)"><path d="M0.5,3.5 L3.5,3.5 L3.5,6.5 L0.5,6.5 L0.5,3.5 z" fill-rule="evenodd" vector-effect="none"/></g><defs><clipPath id="clip8"><path d="M0,0 L10,0 L10,10 L0,10 L0,0 z"/></clipPath></defs><g clip-path="url(#clip8)" fill="#000000" fill-opacity="1" opacity="1" stroke="none" stroke-opacity="0" transform="matrix(2,0,0,2,180,76)"><path d="M3,4 L3,6 L1,6 L1,4 L3,4 M4,3 L0,3 L0,7 L4,7 L4,3" fill-rule="nonzero" vector-effect="none"/></g><defs><clipPath id="clip28"><path d="M0,0 L10,0 L10,10 L0,10 L0,0 z"/></clipPath></defs><g clip-path="url(#clip28)" fill="#b3b3b3" fill-opacity="1" opacity="1" stroke="none" stroke-opacity="0" transform="matrix(-2,0,0,2,20,76)"><path d="M0.5,3.5 L3.5,3.5 L3.5,6.5 L0.5,6.5 L0.5,3.5 z" fill-rule="evenodd" vector-effect="none"/></g><defs><clipPath id="clip30"><path d="M0,0 L10,0 L10,10 L0,10 L0,0 z"/></clipPath></defs><g clip-path="url(#clip30)" fill="#000000" fill-opacity="1" opacity="1" stroke="none" stroke-opacity="0" transform="matrix(-2,0,0,2,20,76)"><path d="M3,4 L3,6 L1,6 L1,4 L3,4 M4,3 L0,3 L0,7 L4,7 L4,3" fill-rule="nonzero" vector-effect="none"/></g><defs><clipPath id="clip47"><path d="M-10,-2 L90,-2 L90,82 L-10,82 L-10,-2 z"/></clipPath></defs><g clip-path="url(#clip47)" fill="#ffffff" fill-opacity="1" opacity="1" stroke="none" stroke-opacity="0" transform="matrix(2,0,0,2,20,4)"><path d="M0,0 L80,0 L80,80 L0,80 L0,0 z" fill-rule="evenodd" vector-effect="none"/></g><defs><clipPath id="clip51"><path d="M0,0 L80,0 L80,80 L0,80 L0,0 z"/></clipPath></defs><g clip-path="url(#clip51)" fill="none" opacity="1" stroke="none" stroke-opacity="0" transform="matrix(2,0,0,2,20,4)"><path d="M0,0 L80,0 L80,80 L0,80 L0,0 z" fill-rule="evenodd" vector-effect="none"/></g><defs><clipPath id="clip61"><path d="M1,1 L81,1 L81,81 L1,81 L1,1 z"/></clipPath></defs><g clip-path="url(#clip61)" fill="none" opacity="1" stroke="#81afca" stroke-linecap="butt" stroke-linejoin="miter" stroke-miterlimit="20" stroke-opacity="1" stroke-width="2.6325" transform="matrix(2,0,0,2,18,2)"><path d="M52.3334,14.3334 L67.6668,14.3334" fill-rule="nonzero" vector-effect="none"/></g><defs><clipPath id="clip62"><path d="M1,1 L81,1 L81,81 L1,81 L1,1 z"/></clipPath></defs><g clip-path="url(#clip62)" fill="none" opacity="1" stroke="#81afca" stroke-linecap="butt" stroke-linejoin="miter" stroke-miterlimit="20" stroke-opacity="1" stroke-width="2.6325" transform="matrix(2,0,0,2,18,2)"><path d="M52.3334,41.0001 L67.6668,41.0001" fill-rule="nonzero" vector-effect="none"/></g><defs><clipPath id="clip63"><path d="M1,1 L81,1 L81,81 L1,81 L1,1 z"/></clipPath></defs><g clip-path="url(#clip63)" fill="none" opacity="1" stroke="#81afca" stroke-linecap="butt" stroke-linejoin="miter" stroke-miterlimit="20" stroke-opacity="1" stroke-width="2.6325" transform="matrix(2,0,0,2,18,2)"><path d="M52.3334,67.6668 L67.6668,67.6668" fill-rule="nonzero" vector-effect="none"/></g><defs><clipPath id="clip64"><path d="M1,1 L81,1 L81,81 L1,81 L1,1 z"/></clipPath></defs><g clip-path="url(#clip64)" fill="none" opacity="1" stroke="#81afca" stroke-linecap="butt" stroke-linejoin="miter" stroke-miterlimit="20" stroke-opacity="1" stroke-width="2.6325" transform="matrix(2,0,0,2,18,2)"><path d="M1.00001,41.0001 L29.6667,41.0001" fill-rule="nonzero" vector-effect="none"/></g><defs><clipPath id="clip65"><path d="M1,1 L81,1 L81,81 L1,81 L1,1 z"/></clipPath></defs><g clip-path="url(#clip65)" fill="none" opacity="1" stroke="#81afca" stroke-linecap="butt" stroke-linejoin="miter" stroke-miterlimit="20" stroke-opacity="1" stroke-width="2.6325" transform="matrix(2,0,0,2,18,2)"><path d="M29.6667,14.3334 L14.3334,14.3334 L14.3334,41.0001" fill-rule="nonzero" vector-effect="none"/></g><defs><clipPath id="clip66"><path d="M1,1 L81,1 L81,81 L1,81 L1,1 z"/></clipPath></defs><g clip-path="url(#clip66)" fill="none" opacity="1" stroke="#81afca" stroke-linecap="butt" stroke-linejoin="miter" stroke-miterlimit="20" stroke-opacity="1" stroke-width="2.6325" transform="matrix(2,0,0,2,18,2)"><path d="M29.6667,67.6668 L14.3334,67.6668 L14.3334,41.0001" fill-rule="nonzero" vector-effect="none"/></g><defs><clipPath id="clip67"><path d="M1,1 L81,1 L81,81 L1,81 L1,1 z"/></clipPath></defs><g clip-path="url(#clip67)" fill="none" opacity="1" stroke="#81afca" stroke-linecap="butt" stroke-linejoin="miter" stroke-miterlimit="20" stroke-opacity="1" stroke-width="2.6325" transform="matrix(2,0,0,2,18,2)"><path d="M50.3334,14.3334 L43.6667,14.3334" fill-rule="nonzero" vector-effect="none"/></g><defs><clipPath id="clip68"><path d="M1,1 L81,1 L81,81 L1,81 L1,1 z"/></clipPath></defs><g clip-path="url(#clip68)" fill="none" opacity="1" stroke="#81afca" stroke-linecap="butt" stroke-linejoin="miter" stroke-miterlimit="20" stroke-opacity="1" stroke-width="2.6325" transform="matrix(2,0,0,2,18,2)"><path d="M47.0001,11 L47.0001,17.6667" fill-rule="nonzero" vector-effect="none"/></g><defs><clipPath id="clip69"><path d="M1,1 L81,1 L81,81 L1,81 L1,1 z"/></clipPath></defs><g clip-path="url(#clip69)" fill="none" opacity="1" stroke="#81afca" stroke-linecap="butt" stroke-linejoin="miter" stroke-miterlimit="20" stroke-opacity="1" stroke-width="2.6325" transform="matrix(2,0,0,2,18,2)"><path d="M31.6667,14.3334 L38.3334,14.3334" fill-rule="nonzero" vector-effect="none"/></g><defs><clipPath id="clip70"><path d="M1,1 L81,1 L81,81 L1,81 L1,1 z"/></clipPath></defs><g clip-path="url(#clip70)" fill="none" opacity="1" stroke="#81afca" stroke-linecap="butt" stroke-linejoin="miter" stroke-miterlimit="20" stroke-opacity="1" stroke-width="2.6325" transform="matrix(2,0,0,2,18,2)"><path d="M31.6667,41.0001 L38.3334,41.0001" fill-rule="nonzero" vector-effect="none"/></g><defs><clipPath id="clip71"><path d="M1,1 L81,1 L81,81 L1,81 L1,1 z"/></clipPath></defs><g clip-path="url(#clip71)" fill="none" opacity="1" stroke="#81afca" stroke-linecap="butt" stroke-linejoin="miter" stroke-miterlimit="20" stroke-opacity="1" stroke-width="2.6325" transform="matrix(2,0,0,2,18,2)"><path d="M31.6667,67.6668 L38.3334,67.6668" fill-rule="nonzero" vector-effect="none"/></g><defs><clipPath id="clip72"><path d="M1,1 L81,1 L81,81 L1,81 L1,1 z"/></clipPath></defs><g clip-path="url(#clip72)" fill="none" opacity="1" stroke="#81afca" stroke-linecap="butt" stroke-linejoin="miter" stroke-miterlimit="20" stroke-opacity="1" stroke-width="2.6325" transform="matrix(2,0,0,2,18,2)"><path d="M43.6667,41.0001 L50.3334,41.0001" fill-rule="nonzero" vector-effect="none"/></g><defs><clipPath id="clip73"><path d="M1,1 L81,1 L81,81 L1,81 L1,1 z"/></clipPath></defs><g clip-path="url(#clip73)" fill="none" opacity="1" stroke="#81afca" stroke-linecap="butt" stroke-linejoin="miter" stroke-miterlimit="20" stroke-opacity="1" stroke-width="2.6325" transform="matrix(2,0,0,2,18,2)"><path d="M47.0001,37.6667 L47.0001,44.3334" fill-rule="nonzero" vector-effect="none"/></g><defs><clipPath id="clip74"><path d="M1,1 L81,1 L81,81 L1,81 L1,1 z"/></clipPath></defs><g clip-path="url(#clip74)" fill="none" opacity="1" stroke="#81afca" stroke-linecap="butt" stroke-linejoin="miter" stroke-miterlimit="20" stroke-opacity="1" stroke-width="2.6325" transform="matrix(2,0,0,2,18,2)"><path d="M43.6667,67.6668 L50.3334,67.6668" fill-rule="nonzero" vector-effect="none"/></g><defs><clipPath id="clip75"><path d="M1,1 L81,1 L81,81 L1,81 L1,1 z"/></clipPath></defs><g clip-path="url(#clip75)" fill="none" opacity="1" stroke="#81afca" stroke-linecap="butt" stroke-linejoin="miter" stroke-miterlimit="20" stroke-opacity="1" stroke-width="2.6325" transform="matrix(2,0,0,2,18,2)"><path d="M47.0001,64.3334 L47.0001,71.0001" fill-rule="nonzero" vector-effect="none"/></g><defs><clipPath id="clip76"><path d="M1,1 L81,1 L81,81 L1,81 L1,1 z"/></clipPath></defs><g clip-path="url(#clip76)" fill="none" opacity="1" stroke="#81afca" stroke-linecap="butt" stroke-linejoin="miter" stroke-miterlimit="4" stroke-opacity="1" stroke-width="2.6325" transform="matrix(2,0,0,2,18,2)"><path d="M52.3334,41.0001 C52.3334,47.2593 47.2593,52.3334 41.0001,52.3334 C34.7408,52.3334 29.6667,47.2593 29.6667,41.0001 C29.6667,34.7408 34.7408,29.6667 41.0001,29.6667 C47.2593,29.6667 52.3334,34.7408 52.3334,41.0001 z" fill-rule="nonzero" vector-effect="none"/></g><defs><clipPath id="clip77"><path d="M1,1 L81,1 L81,81 L1,81 L1,1 z"/></clipPath></defs><g clip-path="url(#clip77)" fill="none" opacity="1" stroke="#81afca" stroke-linecap="butt" stroke-linejoin="miter" stroke-miterlimit="4" stroke-opacity="1" stroke-width="2.6325" transform="matrix(2,0,0,2,18,2)"><path d="M52.3334,14.3334 C52.3334,20.5926 47.2593,25.6667 41.0001,25.6667 C34.7408,25.6667 29.6667,20.5926 29.6667,14.3334 C29.6667,8.07412 34.7408,3.00001 41.0001,3.00001 C47.2593,3.00001 52.3334,8.07412 52.3334,14.3334 z" fill-rule="nonzero" vector-effect="none"/></g><defs><clipPath id="clip78"><path d="M1,1 L81,1 L81,81 L1,81 L1,1 z"/></clipPath></defs><g clip-path="url(#clip78)" fill="none" opacity="1" stroke="#81afca" stroke-linecap="butt" stroke-linejoin="miter" stroke-miterlimit="4" stroke-opacity="1" stroke-width="2.6325" transform="matrix(2,0,0,2,18,2)"><path d="M52.3334,67.6668 C52.3334,73.926 47.2593,79.0001 41.0001,79.0001 C34.7408,79.0001 29.6667,73.926 29.6667,67.6668 C29.6667,61.4075 34.7408,56.3334 41.0001,56.3334 C47.2593,56.3334 52.3334,61.4075 52.3334,67.6668 z" fill-rule="nonzero" vector-effect="none"/></g><defs><clipPath id="clip79"><path d="M1,1 L81,1 L81,81 L1,81 L1,1 z"/></clipPath></defs><g clip-path="url(#clip79)" fill="none" opacity="1" stroke="#81afca" stroke-linecap="butt" stroke-linejoin="miter" stroke-miterlimit="20" stroke-opacity="1" stroke-width="2.6325" transform="matrix(2,0,0,2,18,2)"><path d="M1.00001,1.00001 L81.0001,1.00001 L81.0001,81.0001 L1.00001,81.0001 L1.00001,1.00001 z" fill-rule="nonzero" vector-effect="none"/></g><defs><clipPath id="clip96"><path d="M-15,-205 L395,-205 L395,205 L-15,205 L-15,-205 z"/></clipPath></defs><g clip-path="url(#clip96)" fill="none" opacity="1" stroke="#e60000" stroke-linecap="square" stroke-linejoin="bevel" stroke-opacity="1" stroke-width="1" transform="matrix(0.390625,0,0,0.390625,26,84)"><text fill="#e60000" fill-opacity="1" font-family="Liberation Sans" font-size="40" font-style="normal" font-weight="400" stroke="none" textLength="21" x="0" xml:space="preserve" y="17.9219">n</text></g><defs><clipPath id="clip99"><path d="M-394,-205 L16,-205 L16,205 L-394,205 L-394,-205 z"/></clipPath></defs><g clip-path="url(#clip99)" fill="none" opacity="1" stroke="#e60000" stroke-linecap="square" stroke-linejoin="bevel" stroke-opacity="1" stroke-width="1" transform="matrix(0.390625,0,0,0.390625,174,84)"><text fill="#e60000" fill-opacity="1" font-family="Liberation Sans" font-size="40" font-style="normal" font-weight="400" stroke="none" textLength="23" x="-29.8906" xml:space="preserve" y="17.9219">~</text></g><defs><clipPath id="clip105"><path d="M-10,-2 L90,-2 L90,82 L-10,82 L-10,-2 z"/></clipPath></defs><g clip-path="url(#clip105)" fill="none" opacity="1" stroke="none" stroke-opacity="0" transform="matrix(2,0,0,2,20,4)"><path d="M0,0 L80,0 L80,80 L0,80 L0,0 z" fill-rule="evenodd" vector-effect="none"/></g></g></svg>
