<?xml version="1.0" encoding="UTF-8"?><svg width="52.9167mm" height="19.8438mm" viewBox="0 0 200 75" xmlns="http://www.w3.org/2000/svg" xmlns:xlink="http://www.w3.org/1999/xlink"><g fill="none" stroke="black" stroke-width="1" fill-rule="evenodd" stroke-linecap="square" stroke-linejoin="bevel"><g clip-path="none" fill="none" opacity="1" stroke="none" stroke-opacity="0" transform="matrix(1,0,0,1,0,0)"><path d="M0,0 L200,0 L200,75 L0,75 L0,0 z" fill-rule="evenodd" vector-effect="none"/></g><defs><clipPath id="clip3"><path d="M-67,-14 L7,-14 L7,14 L-67,14 L-67,-14 z"/></clipPath></defs><g clip-path="url(#clip3)" fill="none" opacity="1" stroke="#000000" stroke-linecap="round" stroke-linejoin="miter" stroke-miterlimit="2" stroke-opacity="1" stroke-width="2" transform="matrix(2.7027,0,0,2.7027,181.081,37.8378)"><path d="M0,-5 L5,0 L0,5" fill-rule="evenodd" vector-effect="none"/></g><defs><clipPath id="clip6"><path d="M-2,-2 L72,-2 L72,26 L-2,26 L-2,-2 z"/></clipPath></defs><g clip-path="url(#clip6)" fill="#ffffff" fill-opacity="1" opacity="1" stroke="none" stroke-opacity="0" transform="matrix(2.7027,0,0,2.7027,5.40541,5.40541)"><path d="M0,0 L65,0 L65,24 L0,24 L0,0 z" fill-rule="evenodd" vector-effect="none"/></g><defs><clipPath id="clip11"><path d="M-164,-61 L169,-61 L169,62 L-164,62 L-164,-61 z"/></clipPath></defs><g clip-path="url(#clip11)" fill="none" opacity="1" stroke="#000000" stroke-linecap="butt" stroke-linejoin="miter" stroke-miterlimit="2" stroke-opacity="1" stroke-width="0.37" transform="matrix(0.527872,0,0,0.527872,91.8919,37.8378)"><text fill="#000000" fill-opacity="1" font-family="Liberation Sans" font-size="40" font-style="normal" font-weight="400" stroke="none" textLength="90" x="-59.6875" xml:space="preserve" y="17.9219">simin</text></g><defs><clipPath id="clip17"><path d="M-2,-2 L72,-2 L72,26 L-2,26 L-2,-2 z"/></clipPath></defs><g clip-path="url(#clip17)" fill="none" opacity="1" stroke="#000000" stroke-linecap="butt" stroke-linejoin="miter" stroke-miterlimit="2" stroke-opacity="1" stroke-width="0.671863" transform="matrix(2.7027,0,0,2.7027,5.40541,5.40541)"><path d="M0,0 L65,0 L65,24 L0,24 L0,0 z" fill-rule="evenodd" vector-effect="none"/></g></g></svg>
