<?xml version="1.0" encoding="UTF-8"?><svg width="47.0958mm" height="52.9167mm" viewBox="0 0 178 200" xmlns="http://www.w3.org/2000/svg" xmlns:xlink="http://www.w3.org/1999/xlink"><g fill="none" stroke="black" stroke-width="1" fill-rule="evenodd" stroke-linecap="square" stroke-linejoin="bevel"><g clip-path="none" fill="none" opacity="1" stroke="none" stroke-opacity="0" transform="matrix(1,0,0,1,0,0)"><path d="M0,0 L178,0 L178,200 L0,200 L0,0 z" fill-rule="evenodd" vector-effect="none"/></g><defs><clipPath id="clip6"><path d="M0,0 L10,0 L10,10 L0,10 L0,0 z"/></clipPath></defs><g clip-path="url(#clip6)" fill="#b3b3b3" fill-opacity="1" opacity="1" stroke="none" stroke-opacity="0" transform="matrix(-2.38095,0,0,2.38095,23.8095,138.095)"><path d="M0.5,3.5 L3.5,3.5 L3.5,6.5 L0.5,6.5 L0.5,3.5 z" fill-rule="evenodd" vector-effect="none"/></g><defs><clipPath id="clip8"><path d="M0,0 L10,0 L10,10 L0,10 L0,0 z"/></clipPath></defs><g clip-path="url(#clip8)" fill="#000000" fill-opacity="1" opacity="1" stroke="none" stroke-opacity="0" transform="matrix(-2.38095,0,0,2.38095,23.8095,138.095)"><path d="M3,4 L3,6 L1,6 L1,4 L3,4 M4,3 L0,3 L0,7 L4,7 L4,3" fill-rule="nonzero" vector-effect="none"/></g><defs><clipPath id="clip28"><path d="M0,0 L10,0 L10,10 L0,10 L0,0 z"/></clipPath></defs><g clip-path="url(#clip28)" fill="#b3b3b3" fill-opacity="1" opacity="1" stroke="none" stroke-opacity="0" transform="matrix(2.38095,0,0,2.38095,154.762,90.4762)"><path d="M0.5,3.5 L3.5,3.5 L3.5,6.5 L0.5,6.5 L0.5,3.5 z" fill-rule="evenodd" vector-effect="none"/></g><defs><clipPath id="clip30"><path d="M0,0 L10,0 L10,10 L0,10 L0,0 z"/></clipPath></defs><g clip-path="url(#clip30)" fill="#000000" fill-opacity="1" opacity="1" stroke="none" stroke-opacity="0" transform="matrix(2.38095,0,0,2.38095,154.762,90.4762)"><path d="M3,4 L3,6 L1,6 L1,4 L3,4 M4,3 L0,3 L0,7 L4,7 L4,3" fill-rule="nonzero" vector-effect="none"/></g><defs><clipPath id="clip51"><path d="M0,0 L10,0 L10,10 L0,10 L0,0 z"/></clipPath></defs><g clip-path="url(#clip51)" fill="#ffffff" fill-opacity="1" opacity="1" stroke="none" stroke-opacity="0" transform="matrix(2.38095,0,0,2.38095,4.26326e-14,42.8571)"><path d="M8.882,5 L0.5,9.191 L0.5,0.809 L8.882,5 z" fill-rule="evenodd" vector-effect="none"/></g><defs><clipPath id="clip53"><path d="M0,0 L10,0 L10,10 L0,10 L0,0 z"/></clipPath></defs><g clip-path="url(#clip53)" fill="#000000" fill-opacity="1" opacity="1" stroke="none" stroke-opacity="0" transform="matrix(2.38095,0,0,2.38095,4.26326e-14,42.8571)"><path d="M1,1.618 L7.764,5 L1,8.382 L1,1.618 M0,0 L0,10 L10,5 L0,0" fill-rule="nonzero" vector-effect="none"/></g><defs><clipPath id="clip72"><path d="M-10,-2 L65,-2 L65,82 L-10,82 L-10,-2 z"/></clipPath></defs><g clip-path="url(#clip72)" fill="#ffffff" fill-opacity="1" opacity="1" stroke="none" stroke-opacity="0" transform="matrix(2.38095,0,0,2.38095,23.8095,4.7619)"><path d="M0,0 L55,0 L55,80 L0,80 L0,0 z" fill-rule="evenodd" vector-effect="none"/></g><defs><clipPath id="clip76"><path d="M0,0 L55,0 L55,80 L0,80 L0,0 z"/></clipPath></defs><g clip-path="url(#clip76)" fill="none" opacity="1" stroke="none" stroke-opacity="0" transform="matrix(2.38095,0,0,2.38095,23.8095,4.7619)"><path d="M0,0 L55,0 L55,80 L0,80 L0,0 z" fill-rule="evenodd" vector-effect="none"/></g><defs><clipPath id="clip86"><path d="M1,1 L56,1 L56,81 L1,81 L1,1 z"/></clipPath></defs><g clip-path="url(#clip86)" fill="none" opacity="1" stroke="#3369c9" stroke-linecap="butt" stroke-linejoin="miter" stroke-miterlimit="20" stroke-opacity="1" stroke-width="2.6325" transform="matrix(2.38095,0,0,2.38095,21.4286,2.38095)"><path d="M0.999993,60.2738 L13.2222,60.2738" fill-rule="nonzero" vector-effect="none"/></g><defs><clipPath id="clip87"><path d="M1,1 L56,1 L56,81 L1,81 L1,1 z"/></clipPath></defs><g clip-path="url(#clip87)" fill="none" opacity="1" stroke="#3369c9" stroke-linecap="butt" stroke-linejoin="miter" stroke-miterlimit="20" stroke-opacity="1" stroke-width="2.6325" transform="matrix(2.38095,0,0,2.38095,21.4286,2.38095)"><path d="M37.6666,60.2738 L53.5554,60.2738 L53.5554,40.5159 L55.9999,40.5159" fill-rule="nonzero" vector-effect="none"/></g><defs><clipPath id="clip88"><path d="M1,1 L56,1 L56,81 L1,81 L1,1 z"/></clipPath></defs><g clip-path="url(#clip88)" fill="none" opacity="1" stroke="#3369c9" stroke-linecap="butt" stroke-linejoin="miter" stroke-miterlimit="20" stroke-opacity="1" stroke-width="2.6325" transform="matrix(2.38095,0,0,2.38095,21.4286,2.38095)"><path d="M13.2222,60.2738 L37.6666,47.1018" fill-rule="nonzero" vector-effect="none"/></g><defs><clipPath id="clip89"><path d="M1,1 L56,1 L56,81 L1,81 L1,1 z"/></clipPath></defs><g clip-path="url(#clip89)" fill="none" opacity="1" stroke="#3369c9" stroke-linecap="butt" stroke-linejoin="miter" stroke-miterlimit="20" stroke-opacity="1" stroke-width="2.6325" transform="matrix(2.38095,0,0,2.38095,21.4286,2.38095)"><path d="M34.611,56.9808 L40.7221,63.5668" fill-rule="nonzero" vector-effect="none"/></g><defs><clipPath id="clip90"><path d="M1,1 L56,1 L56,81 L1,81 L1,1 z"/></clipPath></defs><g clip-path="url(#clip90)" fill="none" opacity="1" stroke="#3369c9" stroke-linecap="butt" stroke-linejoin="miter" stroke-miterlimit="20" stroke-opacity="1" stroke-width="2.6325" transform="matrix(2.38095,0,0,2.38095,21.4286,2.38095)"><path d="M34.611,63.5668 L40.7221,56.9808" fill-rule="nonzero" vector-effect="none"/></g><defs><clipPath id="clip91"><path d="M9,9 L252,9 L252,337 L9,337 L9,9 z"/></clipPath></defs><g clip-path="url(#clip91)" fill="#3369c9" fill-opacity="1" opacity="1" stroke="none" stroke-opacity="0" transform="matrix(0.538898,0,0,0.580774,18.9594,-0.465048)"><path d="M73.8,252 C73.8,258.661 68.4006,264.06 61.74,264.06 C55.0794,264.06 49.68,258.661 49.68,252 C49.68,245.339 55.0794,239.94 61.74,239.94 C68.4006,239.94 73.8,245.339 73.8,252 z" fill-rule="nonzero" vector-effect="none"/></g><defs><clipPath id="clip92"><path d="M1,1 L56,1 L56,81 L1,81 L1,1 z"/></clipPath></defs><g clip-path="url(#clip92)" fill="none" opacity="1" stroke="#3369c9" stroke-linecap="butt" stroke-linejoin="miter" stroke-miterlimit="4" stroke-opacity="1" stroke-width="2.6325" transform="matrix(2.38095,0,0,2.38095,21.4286,2.38095)"><path d="M15.6666,60.2738 C15.6666,61.8985 14.4445,63.2155 12.937,63.2155 C11.4295,63.2155 10.2074,61.8985 10.2074,60.2738 C10.2074,58.6491 11.4295,57.332 12.937,57.332 C14.4445,57.332 15.6666,58.6491 15.6666,60.2738 z" fill-rule="nonzero" vector-effect="none"/></g><defs><clipPath id="clip93"><path d="M1,1 L56,1 L56,81 L1,81 L1,1 z"/></clipPath></defs><g clip-path="url(#clip93)" fill="none" opacity="1" stroke="#ffffff" stroke-linecap="butt" stroke-linejoin="miter" stroke-miterlimit="20" stroke-opacity="1" stroke-width="2.6325" transform="matrix(2.38095,0,0,2.38095,21.4286,2.38095)"><path d="M0.999993,1.00001 L55.9999,1.00001 L55.9999,80.0317 L0.999993,80.0317 L0.999993,1.00001 z" fill-rule="nonzero" vector-effect="none"/></g><defs><clipPath id="clip94"><path d="M1,1 L56,1 L56,81 L1,81 L1,1 z"/></clipPath></defs><g clip-path="url(#clip94)" fill="none" opacity="1" stroke="#a06c70" stroke-linecap="butt" stroke-linejoin="miter" stroke-miterlimit="20" stroke-opacity="1" stroke-width="2.6325" transform="matrix(2.38095,0,0,2.38095,21.4286,2.38095)"><path d="M0.999993,20.7579 L4.66665,20.7579" fill-rule="nonzero" vector-effect="none"/></g><defs><clipPath id="clip95"><path d="M1,1 L56,1 L56,81 L1,81 L1,1 z"/></clipPath></defs><g clip-path="url(#clip95)" fill="none" opacity="1" stroke="#a06c70" stroke-linecap="butt" stroke-linejoin="miter" stroke-miterlimit="20" stroke-opacity="1" stroke-width="2.6325" transform="matrix(2.38095,0,0,2.38095,21.4286,2.38095)"><path d="M7.11109,20.7579 L10.7778,20.7579" fill-rule="nonzero" vector-effect="none"/></g><defs><clipPath id="clip96"><path d="M1,1 L56,1 L56,81 L1,81 L1,1 z"/></clipPath></defs><g clip-path="url(#clip96)" fill="none" opacity="1" stroke="#a06c70" stroke-linecap="butt" stroke-linejoin="miter" stroke-miterlimit="20" stroke-opacity="1" stroke-width="2.6325" transform="matrix(2.38095,0,0,2.38095,21.4286,2.38095)"><path d="M13.2222,20.7579 L16.8888,20.7579" fill-rule="nonzero" vector-effect="none"/></g><defs><clipPath id="clip97"><path d="M1,1 L56,1 L56,81 L1,81 L1,1 z"/></clipPath></defs><g clip-path="url(#clip97)" fill="none" opacity="1" stroke="#a06c70" stroke-linecap="butt" stroke-linejoin="miter" stroke-miterlimit="20" stroke-opacity="1" stroke-width="2.6325" transform="matrix(2.38095,0,0,2.38095,21.4286,2.38095)"><path d="M19.3333,20.7579 L22.9999,20.7579" fill-rule="nonzero" vector-effect="none"/></g><defs><clipPath id="clip98"><path d="M1,1 L56,1 L56,81 L1,81 L1,1 z"/></clipPath></defs><g clip-path="url(#clip98)" fill="none" opacity="1" stroke="#a06c70" stroke-linecap="butt" stroke-linejoin="miter" stroke-miterlimit="20" stroke-opacity="1" stroke-width="2.6325" transform="matrix(2.38095,0,0,2.38095,21.4286,2.38095)"><path d="M22.9999,23.3923 L22.9999,27.3439" fill-rule="nonzero" vector-effect="none"/></g><defs><clipPath id="clip99"><path d="M1,1 L56,1 L56,81 L1,81 L1,1 z"/></clipPath></defs><g clip-path="url(#clip99)" fill="none" opacity="1" stroke="#a06c70" stroke-linecap="butt" stroke-linejoin="miter" stroke-miterlimit="20" stroke-opacity="1" stroke-width="2.6325" transform="matrix(2.38095,0,0,2.38095,21.4286,2.38095)"><path d="M22.9999,29.9783 L22.9999,33.9299" fill-rule="nonzero" vector-effect="none"/></g><defs><clipPath id="clip100"><path d="M1,1 L56,1 L56,81 L1,81 L1,1 z"/></clipPath></defs><g clip-path="url(#clip100)" fill="none" opacity="1" stroke="#a06c70" stroke-linecap="butt" stroke-linejoin="miter" stroke-miterlimit="20" stroke-opacity="1" stroke-width="2.6325" transform="matrix(2.38095,0,0,2.38095,21.4286,2.38095)"><path d="M22.9999,36.5643 L22.9999,40.5159" fill-rule="nonzero" vector-effect="none"/></g><defs><clipPath id="clip101"><path d="M1,1 L56,1 L56,81 L1,81 L1,1 z"/></clipPath></defs><g clip-path="url(#clip101)" fill="none" opacity="1" stroke="#a06c70" stroke-linecap="butt" stroke-linejoin="miter" stroke-miterlimit="20" stroke-opacity="1" stroke-width="2.6325" transform="matrix(2.38095,0,0,2.38095,21.4286,2.38095)"><path d="M22.9999,43.1502 L22.9999,47.1018" fill-rule="nonzero" vector-effect="none"/></g><defs><clipPath id="clip102"><path d="M1,1 L56,1 L56,81 L1,81 L1,1 z"/></clipPath></defs><g clip-path="url(#clip102)" fill="none" opacity="1" stroke="#a06c70" stroke-linecap="butt" stroke-linejoin="miter" stroke-miterlimit="20" stroke-opacity="1" stroke-width="2.6325" transform="matrix(2.38095,0,0,2.38095,21.4286,2.38095)"><path d="M22.9999,49.7362 L22.9999,53.6878" fill-rule="nonzero" vector-effect="none"/></g><defs><clipPath id="clip103"><path d="M9,9 L252,9 L252,337 L9,337 L9,9 z"/></clipPath></defs><g clip-path="url(#clip103)" fill="#3369c9" fill-opacity="1" opacity="1" stroke="none" stroke-opacity="0" transform="matrix(0.538898,0,0,0.580774,18.9594,-0.465048)"><path d="M132.956,235.038 L103.06,303.288 L126.977,289.993 L112.361,336.97 L141.592,272.266 L117.676,285.561 L132.956,235.038 z" fill-rule="nonzero" vector-effect="none"/></g><defs><clipPath id="clip120"><path d="M-266,-205 L16,-205 L16,205 L-266,205 L-266,-205 z"/></clipPath></defs><g clip-path="url(#clip120)" fill="none" opacity="1" stroke="#e60000" stroke-linecap="square" stroke-linejoin="bevel" stroke-opacity="1" stroke-width="1" transform="matrix(0.46503,0,0,0.46503,147.619,100)"><text fill="#e60000" fill-opacity="1" font-family="Liberation Sans" font-size="40" font-style="normal" font-weight="400" stroke="none" textLength="22" x="-28.4531" xml:space="preserve" y="17.9219">2</text></g><defs><clipPath id="clip123"><path d="M-15,-307 L267,-307 L267,103 L-15,103 L-15,-307 z"/></clipPath></defs><g clip-path="url(#clip123)" fill="none" opacity="1" stroke="#e60000" stroke-linecap="square" stroke-linejoin="bevel" stroke-opacity="1" stroke-width="1" transform="matrix(0.46503,0,0,0.46503,30.9524,147.619)"><text fill="#e60000" fill-opacity="1" font-family="Liberation Sans" font-size="40" font-style="normal" font-weight="400" stroke="none" textLength="22" x="0" xml:space="preserve" y="17.9219">1</text></g><defs><clipPath id="clip126"><path d="M-15,-102 L267,-102 L267,308 L-15,308 L-15,-102 z"/></clipPath></defs><g clip-path="url(#clip126)" fill="none" opacity="1" stroke="#e60000" stroke-linecap="square" stroke-linejoin="bevel" stroke-opacity="1" stroke-width="1" transform="matrix(0.46503,0,0,0.46503,30.9524,52.381)"><text fill="#e60000" fill-opacity="1" font-family="Liberation Sans" font-size="40" font-style="normal" font-weight="400" stroke="none" textLength="43" x="0" xml:space="preserve" y="17.9219">vT</text></g><defs><clipPath id="clip132"><path d="M-10,-2 L65,-2 L65,82 L-10,82 L-10,-2 z"/></clipPath></defs><g clip-path="url(#clip132)" fill="none" opacity="1" stroke="none" stroke-opacity="0" transform="matrix(2.38095,0,0,2.38095,23.8095,4.7619)"><path d="M0,0 L55,0 L55,80 L0,80 L0,0 z" fill-rule="evenodd" vector-effect="none"/></g></g></svg>
