<?xml version="1.0" encoding="UTF-8"?><svg width="52.9167mm" height="24.6062mm" viewBox="0 0 200 93" xmlns="http://www.w3.org/2000/svg" xmlns:xlink="http://www.w3.org/1999/xlink"><g fill="none" stroke="black" stroke-width="1" fill-rule="evenodd" stroke-linecap="square" stroke-linejoin="bevel"><g clip-path="none" fill="none" opacity="1" stroke="none" stroke-opacity="0" transform="matrix(1,0,0,1,0,0)"><path d="M0,0 L200,0 L200,93 L0,93 L0,0 z" fill-rule="evenodd" vector-effect="none"/></g><defs><clipPath id="clip3"><path d="M-87,-22 L7,-22 L7,22 L-87,22 L-87,-22 z"/></clipPath></defs><g clip-path="url(#clip3)" fill="none" opacity="1" stroke="#000000" stroke-linecap="round" stroke-linejoin="miter" stroke-miterlimit="2" stroke-opacity="1" stroke-width="2" transform="matrix(2.12766,0,0,2.12766,185.106,46.8085)"><path d="M0,-5 L5,0 L0,5" fill-rule="evenodd" vector-effect="none"/></g><defs><clipPath id="clip6"><path d="M-2,-2 L92,-2 L92,42 L-2,42 L-2,-2 z"/></clipPath></defs><g clip-path="url(#clip6)" fill="#ffffff" fill-opacity="1" opacity="1" stroke="none" stroke-opacity="0" transform="matrix(2.12766,0,0,2.12766,4.25532,4.25532)"><path d="M0,0 L85,0 L85,40 L0,40 L0,0 z" fill-rule="evenodd" vector-effect="none"/></g><defs><clipPath id="clip11"><path d="M-420,-102 L15,-102 L15,103 L-420,103 L-420,-102 z"/></clipPath></defs><g clip-path="url(#clip11)" fill="none" opacity="1" stroke="#000000" stroke-linecap="butt" stroke-linejoin="miter" stroke-miterlimit="2" stroke-opacity="1" stroke-width="0.47" transform="matrix(0.415559,0,0,0.415559,178.723,46.8085)"><text fill="#000000" fill-opacity="1" font-family="Liberation Sans" font-size="36" font-style="normal" font-weight="400" stroke="none" textLength="127" x="-166.438" xml:space="preserve" y="16">Signal 1</text></g><defs><clipPath id="clip13"><path d="M235,110 L320,110 L320,150 L235,150 L235,110 z"/></clipPath></defs><g clip-path="url(#clip13)" fill="none" opacity="1" stroke="#000000" stroke-linecap="butt" stroke-linejoin="miter" stroke-miterlimit="2" stroke-opacity="1" stroke-width="0.47" transform="matrix(2.12766,0,0,2.12766,-494.681,-228.723)"><polyline fill="none" points="240,124 240,144" vector-effect="none"/></g><defs><clipPath id="clip14"><path d="M235,110 L320,110 L320,150 L235,150 L235,110 z"/></clipPath></defs><g clip-path="url(#clip14)" fill="none" opacity="1" stroke="#000000" stroke-linecap="butt" stroke-linejoin="miter" stroke-miterlimit="2" stroke-opacity="1" stroke-width="0.47" transform="matrix(2.12766,0,0,2.12766,-494.681,-228.723)"><polyline fill="none" points="240,144 263,144" vector-effect="none"/></g><defs><clipPath id="clip15"><path d="M235,110 L320,110 L320,150 L235,150 L235,110 z"/></clipPath></defs><g clip-path="url(#clip15)" fill="none" opacity="1" stroke="#000000" stroke-linecap="butt" stroke-linejoin="miter" stroke-miterlimit="2" stroke-opacity="1" stroke-width="0.47" transform="matrix(2.12766,0,0,2.12766,-494.681,-228.723)"><polyline fill="none" points="263,144 263,124" vector-effect="none"/></g><defs><clipPath id="clip16"><path d="M235,110 L320,110 L320,150 L235,150 L235,110 z"/></clipPath></defs><g clip-path="url(#clip16)" fill="none" opacity="1" stroke="#000000" stroke-linecap="butt" stroke-linejoin="miter" stroke-miterlimit="2" stroke-opacity="1" stroke-width="0.47" transform="matrix(2.12766,0,0,2.12766,-494.681,-228.723)"><polyline fill="none" points="263,124 240,124" vector-effect="none"/></g><defs><clipPath id="clip17"><path d="M235,110 L320,110 L320,150 L235,150 L235,110 z"/></clipPath></defs><g clip-path="url(#clip17)" fill="none" opacity="1" stroke="#000000" stroke-linecap="butt" stroke-linejoin="miter" stroke-miterlimit="2" stroke-opacity="1" stroke-width="0.47" transform="matrix(2.12766,0,0,2.12766,-494.681,-228.723)"><polyline fill="none" points="263,134 240,134" vector-effect="none"/></g><defs><clipPath id="clip18"><path d="M235,110 L320,110 L320,150 L235,150 L235,110 z"/></clipPath></defs><g clip-path="url(#clip18)" fill="none" opacity="1" stroke="#000000" stroke-linecap="butt" stroke-linejoin="miter" stroke-miterlimit="2" stroke-opacity="1" stroke-width="0.47" transform="matrix(2.12766,0,0,2.12766,-494.681,-228.723)"><polyline fill="none" points="263,129 253,127" vector-effect="none"/></g><defs><clipPath id="clip19"><path d="M235,110 L320,110 L320,150 L235,150 L235,110 z"/></clipPath></defs><g clip-path="url(#clip19)" fill="none" opacity="1" stroke="#000000" stroke-linecap="butt" stroke-linejoin="miter" stroke-miterlimit="2" stroke-opacity="1" stroke-width="0.47" transform="matrix(2.12766,0,0,2.12766,-494.681,-228.723)"><polyline fill="none" points="253,127 240,132" vector-effect="none"/></g><defs><clipPath id="clip20"><path d="M235,110 L320,110 L320,150 L235,150 L235,110 z"/></clipPath></defs><g clip-path="url(#clip20)" fill="none" opacity="1" stroke="#000000" stroke-linecap="butt" stroke-linejoin="miter" stroke-miterlimit="2" stroke-opacity="1" stroke-width="0.47" transform="matrix(2.12766,0,0,2.12766,-494.681,-228.723)"><polyline fill="none" points="263,142 251,142" vector-effect="none"/></g><defs><clipPath id="clip21"><path d="M235,110 L320,110 L320,150 L235,150 L235,110 z"/></clipPath></defs><g clip-path="url(#clip21)" fill="none" opacity="1" stroke="#000000" stroke-linecap="butt" stroke-linejoin="miter" stroke-miterlimit="2" stroke-opacity="1" stroke-width="0.47" transform="matrix(2.12766,0,0,2.12766,-494.681,-228.723)"><polyline fill="none" points="251,142 251,136" vector-effect="none"/></g><defs><clipPath id="clip22"><path d="M235,110 L320,110 L320,150 L235,150 L235,110 z"/></clipPath></defs><g clip-path="url(#clip22)" fill="none" opacity="1" stroke="#000000" stroke-linecap="butt" stroke-linejoin="miter" stroke-miterlimit="2" stroke-opacity="1" stroke-width="0.47" transform="matrix(2.12766,0,0,2.12766,-494.681,-228.723)"><polyline fill="none" points="251,136 240,136" vector-effect="none"/></g><defs><clipPath id="clip24"><path d="M-5,-5 L430,-5 L430,200 L-5,200 L-5,-5 z"/></clipPath></defs><g clip-path="url(#clip24)" fill="none" opacity="1" stroke="#000000" stroke-linecap="butt" stroke-linejoin="miter" stroke-miterlimit="2" stroke-opacity="1" stroke-width="0.47" transform="matrix(0.415559,0,0,0.415559,6.38298,6.38298)"><text fill="#000000" fill-opacity="1" font-family="Liberation Sans" font-size="40" font-style="normal" font-weight="400" stroke="none" textLength="142" x="0" xml:space="preserve" y="46.0781">Group 1</text></g><defs><clipPath id="clip30"><path d="M-2,-2 L92,-2 L92,42 L-2,42 L-2,-2 z"/></clipPath></defs><g clip-path="url(#clip30)" fill="none" opacity="1" stroke="#000000" stroke-linecap="butt" stroke-linejoin="miter" stroke-miterlimit="2" stroke-opacity="1" stroke-width="0.739331" transform="matrix(2.12766,0,0,2.12766,4.25532,4.25532)"><path d="M0,0 L85,0 L85,40 L0,40 L0,0 z" fill-rule="evenodd" vector-effect="none"/></g></g></svg>
