<?xml version="1.0" encoding="UTF-8"?><svg width="52.9167mm" height="46.0375mm" viewBox="0 0 200 174" xmlns="http://www.w3.org/2000/svg" xmlns:xlink="http://www.w3.org/1999/xlink"><g fill="none" stroke="black" stroke-width="1" fill-rule="evenodd" stroke-linecap="square" stroke-linejoin="bevel"><g clip-path="none" fill="none" opacity="1" stroke="none" stroke-opacity="0" transform="matrix(1,0,0,1,0,0)"><path d="M0,0 L200,0 L200,174 L0,174 L0,0 z" fill-rule="evenodd" vector-effect="none"/></g><defs><clipPath id="clip3"><path d="M-32,-17 L7,-17 L7,17 L-32,17 L-32,-17 z"/></clipPath></defs><g clip-path="url(#clip3)" fill="none" opacity="1" stroke="#000000" stroke-linecap="round" stroke-linejoin="miter" stroke-miterlimit="2" stroke-opacity="1" stroke-width="2" transform="matrix(5.12821,0,0,5.12821,164.103,87.1795)"><path d="M0,-5 L5,0 L0,5" fill-rule="evenodd" vector-effect="none"/></g><defs><clipPath id="clip6"><path d="M-2,-2 L37,-2 L37,32 L-2,32 L-2,-2 z"/></clipPath></defs><g clip-path="url(#clip6)" fill="#ffffff" fill-opacity="1" opacity="1" stroke="none" stroke-opacity="0" transform="matrix(5.12821,0,0,5.12821,10.2564,10.2564)"><path d="M0,0 L30,0 L30,30 L0,30 L0,0 z" fill-rule="evenodd" vector-effect="none"/></g><defs><clipPath id="clip10"><path d="M270,184 L300,184 L300,214 L270,214 L270,184 z"/></clipPath></defs><g clip-path="url(#clip10)" fill="none" opacity="1" stroke="#000000" stroke-linecap="butt" stroke-linejoin="miter" stroke-miterlimit="2" stroke-opacity="1" stroke-width="0.195" transform="matrix(5.12821,0,0,5.12821,-1371.79,-935.897)"><path d="M273,189 L276,189 L276,194 L273,194 L273,189 z" fill-rule="evenodd" vector-effect="none"/></g><defs><clipPath id="clip11"><path d="M270,184 L300,184 L300,214 L270,214 L270,184 z"/></clipPath></defs><g clip-path="url(#clip11)" fill="none" opacity="1" stroke="#000000" stroke-linecap="butt" stroke-linejoin="miter" stroke-miterlimit="2" stroke-opacity="1" stroke-width="0.195" transform="matrix(5.12821,0,0,5.12821,-1371.79,-935.897)"><path d="M279,189 L283,189 L283,194 L279,194 L279,189 z" fill-rule="evenodd" vector-effect="none"/></g><defs><clipPath id="clip12"><path d="M270,184 L300,184 L300,214 L270,214 L270,184 z"/></clipPath></defs><g clip-path="url(#clip12)" fill="none" opacity="1" stroke="#000000" stroke-linecap="butt" stroke-linejoin="miter" stroke-miterlimit="2" stroke-opacity="1" stroke-width="0.195" transform="matrix(5.12821,0,0,5.12821,-1371.79,-935.897)"><path d="M286,189 L290,189 L290,194 L286,194 L286,189 z" fill-rule="evenodd" vector-effect="none"/></g><defs><clipPath id="clip13"><path d="M270,184 L300,184 L300,214 L270,214 L270,184 z"/></clipPath></defs><g clip-path="url(#clip13)" fill="none" opacity="1" stroke="#000000" stroke-linecap="butt" stroke-linejoin="miter" stroke-miterlimit="2" stroke-opacity="1" stroke-width="0.195" transform="matrix(5.12821,0,0,5.12821,-1371.79,-935.897)"><path d="M293,189 L296,189 L296,194 L293,194 L293,189 z" fill-rule="evenodd" vector-effect="none"/></g><defs><clipPath id="clip14"><path d="M270,184 L300,184 L300,214 L270,214 L270,184 z"/></clipPath></defs><g clip-path="url(#clip14)" fill="none" opacity="1" stroke="#000000" stroke-linecap="butt" stroke-linejoin="miter" stroke-miterlimit="2" stroke-opacity="1" stroke-width="0.195" transform="matrix(5.12821,0,0,5.12821,-1371.79,-935.897)"><path d="M279,200.5 C279,201.881 278.328,203 277.5,203 C276.672,203 276,201.881 276,200.5 C276,199.119 276.672,198 277.5,198 C278.328,198 279,199.119 279,200.5 z" fill-rule="evenodd" vector-effect="none"/></g><defs><clipPath id="clip15"><path d="M270,184 L300,184 L300,214 L270,214 L270,184 z"/></clipPath></defs><g clip-path="url(#clip15)" fill="none" opacity="1" stroke="#000000" stroke-linecap="butt" stroke-linejoin="miter" stroke-miterlimit="2" stroke-opacity="1" stroke-width="0.195" transform="matrix(5.12821,0,0,5.12821,-1371.79,-935.897)"><path d="M286,200.5 C286,201.881 285.328,203 284.5,203 C283.672,203 283,201.881 283,200.5 C283,199.119 283.672,198 284.5,198 C285.328,198 286,199.119 286,200.5 z" fill-rule="evenodd" vector-effect="none"/></g><defs><clipPath id="clip20"><path d="M-2,-2 L37,-2 L37,32 L-2,32 L-2,-2 z"/></clipPath></defs><g clip-path="url(#clip20)" fill="none" opacity="1" stroke="#000000" stroke-linecap="butt" stroke-linejoin="miter" stroke-miterlimit="2" stroke-opacity="1" stroke-width="0.520013" transform="matrix(5.12821,0,0,5.12821,10.2564,10.2564)"><path d="M0,0 L30,0 L30,30 L0,30 L0,0 z" fill-rule="evenodd" vector-effect="none"/></g></g></svg>
