<?xml version="1.0" encoding="UTF-8"?><svg width="52.9167mm" height="46.0375mm" viewBox="0 0 200 174" xmlns="http://www.w3.org/2000/svg" xmlns:xlink="http://www.w3.org/1999/xlink"><g fill="none" stroke="black" stroke-width="1" fill-rule="evenodd" stroke-linecap="square" stroke-linejoin="bevel"><g clip-path="none" fill="none" opacity="1" stroke="none" stroke-opacity="0" transform="matrix(1,0,0,1,0,0)"><path d="M0,0 L200,0 L200,174 L0,174 L0,0 z" fill-rule="evenodd" vector-effect="none"/></g><defs><clipPath id="clip3"><path d="M-32,-17 L7,-17 L7,17 L-32,17 L-32,-17 z"/></clipPath></defs><g clip-path="url(#clip3)" fill="none" opacity="1" stroke="#000000" stroke-linecap="round" stroke-linejoin="miter" stroke-miterlimit="2" stroke-opacity="1" stroke-width="2" transform="matrix(5.12821,0,0,5.12821,164.103,87.1795)"><path d="M0,-5 L5,0 L0,5" fill-rule="evenodd" vector-effect="none"/></g><defs><clipPath id="clip6"><path d="M-2,-2 L37,-2 L37,32 L-2,32 L-2,-2 z"/></clipPath></defs><g clip-path="url(#clip6)" fill="#ffffff" fill-opacity="1" opacity="1" stroke="none" stroke-opacity="0" transform="matrix(5.12821,0,0,5.12821,10.2564,10.2564)"><path d="M0,0 L30,0 L30,30 L0,30 L0,0 z" fill-rule="evenodd" vector-effect="none"/></g><defs><clipPath id="clip10"><path d="M35,250 L65,250 L65,280 L35,280 L35,250 z"/></clipPath></defs><g clip-path="url(#clip10)" fill="#000000" fill-opacity="1" opacity="1" stroke="none" stroke-opacity="0" transform="matrix(5.12821,0,0,5.12821,-166.667,-1269.23)"><path d="M37.5,264.5 L38.5,264.5 L38.5,265.5 L37.5,265.5 L37.5,264.5 z" fill-rule="evenodd" vector-effect="none"/></g><defs><clipPath id="clip11"><path d="M35,250 L65,250 L65,280 L35,280 L35,250 z"/></clipPath></defs><g clip-path="url(#clip11)" fill="none" opacity="1" stroke="#000000" stroke-linecap="square" stroke-linejoin="bevel" stroke-opacity="1" stroke-width="1" transform="matrix(5.12821,0,0,5.12821,-166.667,-1269.23)"><polyline fill="none" points="38,265 39,265" vector-effect="none"/></g><defs><clipPath id="clip12"><path d="M35,250 L65,250 L65,280 L35,280 L35,250 z"/></clipPath></defs><g clip-path="url(#clip12)" fill="none" opacity="1" stroke="#000000" stroke-linecap="square" stroke-linejoin="bevel" stroke-opacity="1" stroke-width="1" transform="matrix(5.12821,0,0,5.12821,-166.667,-1269.23)"><polyline fill="none" points="39,265 39,264" vector-effect="none"/></g><defs><clipPath id="clip13"><path d="M35,250 L65,250 L65,280 L35,280 L35,250 z"/></clipPath></defs><g clip-path="url(#clip13)" fill="none" opacity="1" stroke="#000000" stroke-linecap="square" stroke-linejoin="bevel" stroke-opacity="1" stroke-width="1" transform="matrix(5.12821,0,0,5.12821,-166.667,-1269.23)"><polyline fill="none" points="39,264 40,263" vector-effect="none"/></g><defs><clipPath id="clip14"><path d="M35,250 L65,250 L65,280 L35,280 L35,250 z"/></clipPath></defs><g clip-path="url(#clip14)" fill="none" opacity="1" stroke="#000000" stroke-linecap="square" stroke-linejoin="bevel" stroke-opacity="1" stroke-width="1" transform="matrix(5.12821,0,0,5.12821,-166.667,-1269.23)"><polyline fill="none" points="40,263 40,262" vector-effect="none"/></g><defs><clipPath id="clip15"><path d="M35,250 L65,250 L65,280 L35,280 L35,250 z"/></clipPath></defs><g clip-path="url(#clip15)" fill="none" opacity="1" stroke="#000000" stroke-linecap="square" stroke-linejoin="bevel" stroke-opacity="1" stroke-width="1" transform="matrix(5.12821,0,0,5.12821,-166.667,-1269.23)"><polyline fill="none" points="40,262 41,261" vector-effect="none"/></g><defs><clipPath id="clip16"><path d="M35,250 L65,250 L65,280 L35,280 L35,250 z"/></clipPath></defs><g clip-path="url(#clip16)" fill="none" opacity="1" stroke="#000000" stroke-linecap="square" stroke-linejoin="bevel" stroke-opacity="1" stroke-width="1" transform="matrix(5.12821,0,0,5.12821,-166.667,-1269.23)"><polyline fill="none" points="41,261 41,259" vector-effect="none"/></g><defs><clipPath id="clip17"><path d="M35,250 L65,250 L65,280 L35,280 L35,250 z"/></clipPath></defs><g clip-path="url(#clip17)" fill="none" opacity="1" stroke="#000000" stroke-linecap="square" stroke-linejoin="bevel" stroke-opacity="1" stroke-width="1" transform="matrix(5.12821,0,0,5.12821,-166.667,-1269.23)"><polyline fill="none" points="41,259 42,258" vector-effect="none"/></g><defs><clipPath id="clip18"><path d="M35,250 L65,250 L65,280 L35,280 L35,250 z"/></clipPath></defs><g clip-path="url(#clip18)" fill="none" opacity="1" stroke="#000000" stroke-linecap="square" stroke-linejoin="bevel" stroke-opacity="1" stroke-width="1" transform="matrix(5.12821,0,0,5.12821,-166.667,-1269.23)"><polyline fill="none" points="42,258 42,256" vector-effect="none"/></g><defs><clipPath id="clip19"><path d="M35,250 L65,250 L65,280 L35,280 L35,250 z"/></clipPath></defs><g clip-path="url(#clip19)" fill="none" opacity="1" stroke="#000000" stroke-linecap="square" stroke-linejoin="bevel" stroke-opacity="1" stroke-width="1" transform="matrix(5.12821,0,0,5.12821,-166.667,-1269.23)"><polyline fill="none" points="42,256 43,255" vector-effect="none"/></g><defs><clipPath id="clip20"><path d="M35,250 L65,250 L65,280 L35,280 L35,250 z"/></clipPath></defs><g clip-path="url(#clip20)" fill="none" opacity="1" stroke="#000000" stroke-linecap="square" stroke-linejoin="bevel" stroke-opacity="1" stroke-width="1" transform="matrix(5.12821,0,0,5.12821,-166.667,-1269.23)"><polyline fill="none" points="43,255 43,254" vector-effect="none"/></g><defs><clipPath id="clip21"><path d="M35,250 L65,250 L65,280 L35,280 L35,250 z"/></clipPath></defs><g clip-path="url(#clip21)" fill="none" opacity="1" stroke="#000000" stroke-linecap="square" stroke-linejoin="bevel" stroke-opacity="1" stroke-width="1" transform="matrix(5.12821,0,0,5.12821,-166.667,-1269.23)"><polyline fill="none" points="43,254 44,253" vector-effect="none"/></g><defs><clipPath id="clip22"><path d="M35,250 L65,250 L65,280 L35,280 L35,250 z"/></clipPath></defs><g clip-path="url(#clip22)" fill="none" opacity="1" stroke="#000000" stroke-linecap="square" stroke-linejoin="bevel" stroke-opacity="1" stroke-width="1" transform="matrix(5.12821,0,0,5.12821,-166.667,-1269.23)"><polyline fill="none" points="44,253 45,254" vector-effect="none"/></g><defs><clipPath id="clip23"><path d="M35,250 L65,250 L65,280 L35,280 L35,250 z"/></clipPath></defs><g clip-path="url(#clip23)" fill="none" opacity="1" stroke="#000000" stroke-linecap="square" stroke-linejoin="bevel" stroke-opacity="1" stroke-width="1" transform="matrix(5.12821,0,0,5.12821,-166.667,-1269.23)"><polyline fill="none" points="45,254 45,256" vector-effect="none"/></g><defs><clipPath id="clip24"><path d="M35,250 L65,250 L65,280 L35,280 L35,250 z"/></clipPath></defs><g clip-path="url(#clip24)" fill="none" opacity="1" stroke="#000000" stroke-linecap="square" stroke-linejoin="bevel" stroke-opacity="1" stroke-width="1" transform="matrix(5.12821,0,0,5.12821,-166.667,-1269.23)"><polyline fill="none" points="45,256 46,258" vector-effect="none"/></g><defs><clipPath id="clip25"><path d="M35,250 L65,250 L65,280 L35,280 L35,250 z"/></clipPath></defs><g clip-path="url(#clip25)" fill="none" opacity="1" stroke="#000000" stroke-linecap="square" stroke-linejoin="bevel" stroke-opacity="1" stroke-width="1" transform="matrix(5.12821,0,0,5.12821,-166.667,-1269.23)"><polyline fill="none" points="46,258 46,262" vector-effect="none"/></g><defs><clipPath id="clip26"><path d="M35,250 L65,250 L65,280 L35,280 L35,250 z"/></clipPath></defs><g clip-path="url(#clip26)" fill="none" opacity="1" stroke="#000000" stroke-linecap="square" stroke-linejoin="bevel" stroke-opacity="1" stroke-width="1" transform="matrix(5.12821,0,0,5.12821,-166.667,-1269.23)"><polyline fill="none" points="46,262 47,266" vector-effect="none"/></g><defs><clipPath id="clip27"><path d="M35,250 L65,250 L65,280 L35,280 L35,250 z"/></clipPath></defs><g clip-path="url(#clip27)" fill="none" opacity="1" stroke="#000000" stroke-linecap="square" stroke-linejoin="bevel" stroke-opacity="1" stroke-width="1" transform="matrix(5.12821,0,0,5.12821,-166.667,-1269.23)"><polyline fill="none" points="47,266 47,270" vector-effect="none"/></g><defs><clipPath id="clip28"><path d="M35,250 L65,250 L65,280 L35,280 L35,250 z"/></clipPath></defs><g clip-path="url(#clip28)" fill="none" opacity="1" stroke="#000000" stroke-linecap="square" stroke-linejoin="bevel" stroke-opacity="1" stroke-width="1" transform="matrix(5.12821,0,0,5.12821,-166.667,-1269.23)"><polyline fill="none" points="47,270 48,274" vector-effect="none"/></g><defs><clipPath id="clip29"><path d="M35,250 L65,250 L65,280 L35,280 L35,250 z"/></clipPath></defs><g clip-path="url(#clip29)" fill="none" opacity="1" stroke="#000000" stroke-linecap="square" stroke-linejoin="bevel" stroke-opacity="1" stroke-width="1" transform="matrix(5.12821,0,0,5.12821,-166.667,-1269.23)"><polyline fill="none" points="48,274 48,277" vector-effect="none"/></g><defs><clipPath id="clip30"><path d="M35,250 L65,250 L65,280 L35,280 L35,250 z"/></clipPath></defs><g clip-path="url(#clip30)" fill="none" opacity="1" stroke="#000000" stroke-linecap="square" stroke-linejoin="bevel" stroke-opacity="1" stroke-width="1" transform="matrix(5.12821,0,0,5.12821,-166.667,-1269.23)"><polyline fill="none" points="48,277 49,277" vector-effect="none"/></g><defs><clipPath id="clip31"><path d="M35,250 L65,250 L65,280 L35,280 L35,250 z"/></clipPath></defs><g clip-path="url(#clip31)" fill="none" opacity="1" stroke="#000000" stroke-linecap="square" stroke-linejoin="bevel" stroke-opacity="1" stroke-width="1" transform="matrix(5.12821,0,0,5.12821,-166.667,-1269.23)"><polyline fill="none" points="49,277 49,275" vector-effect="none"/></g><defs><clipPath id="clip32"><path d="M35,250 L65,250 L65,280 L35,280 L35,250 z"/></clipPath></defs><g clip-path="url(#clip32)" fill="none" opacity="1" stroke="#000000" stroke-linecap="square" stroke-linejoin="bevel" stroke-opacity="1" stroke-width="1" transform="matrix(5.12821,0,0,5.12821,-166.667,-1269.23)"><polyline fill="none" points="49,275 50,271" vector-effect="none"/></g><defs><clipPath id="clip33"><path d="M35,250 L65,250 L65,280 L35,280 L35,250 z"/></clipPath></defs><g clip-path="url(#clip33)" fill="none" opacity="1" stroke="#000000" stroke-linecap="square" stroke-linejoin="bevel" stroke-opacity="1" stroke-width="1" transform="matrix(5.12821,0,0,5.12821,-166.667,-1269.23)"><polyline fill="none" points="50,271 50,265" vector-effect="none"/></g><defs><clipPath id="clip34"><path d="M35,250 L65,250 L65,280 L35,280 L35,250 z"/></clipPath></defs><g clip-path="url(#clip34)" fill="none" opacity="1" stroke="#000000" stroke-linecap="square" stroke-linejoin="bevel" stroke-opacity="1" stroke-width="1" transform="matrix(5.12821,0,0,5.12821,-166.667,-1269.23)"><polyline fill="none" points="50,265 50,260" vector-effect="none"/></g><defs><clipPath id="clip35"><path d="M35,250 L65,250 L65,280 L35,280 L35,250 z"/></clipPath></defs><g clip-path="url(#clip35)" fill="none" opacity="1" stroke="#000000" stroke-linecap="square" stroke-linejoin="bevel" stroke-opacity="1" stroke-width="1" transform="matrix(5.12821,0,0,5.12821,-166.667,-1269.23)"><polyline fill="none" points="50,260 51,255" vector-effect="none"/></g><defs><clipPath id="clip36"><path d="M35,250 L65,250 L65,280 L35,280 L35,250 z"/></clipPath></defs><g clip-path="url(#clip36)" fill="none" opacity="1" stroke="#000000" stroke-linecap="square" stroke-linejoin="bevel" stroke-opacity="1" stroke-width="1" transform="matrix(5.12821,0,0,5.12821,-166.667,-1269.23)"><polyline fill="none" points="51,255 51,253" vector-effect="none"/></g><defs><clipPath id="clip37"><path d="M35,250 L65,250 L65,280 L35,280 L35,250 z"/></clipPath></defs><g clip-path="url(#clip37)" fill="none" opacity="1" stroke="#000000" stroke-linecap="square" stroke-linejoin="bevel" stroke-opacity="1" stroke-width="1" transform="matrix(5.12821,0,0,5.12821,-166.667,-1269.23)"><polyline fill="none" points="51,253 52,255" vector-effect="none"/></g><defs><clipPath id="clip38"><path d="M35,250 L65,250 L65,280 L35,280 L35,250 z"/></clipPath></defs><g clip-path="url(#clip38)" fill="none" opacity="1" stroke="#000000" stroke-linecap="square" stroke-linejoin="bevel" stroke-opacity="1" stroke-width="1" transform="matrix(5.12821,0,0,5.12821,-166.667,-1269.23)"><polyline fill="none" points="52,255 52,260" vector-effect="none"/></g><defs><clipPath id="clip39"><path d="M35,250 L65,250 L65,280 L35,280 L35,250 z"/></clipPath></defs><g clip-path="url(#clip39)" fill="none" opacity="1" stroke="#000000" stroke-linecap="square" stroke-linejoin="bevel" stroke-opacity="1" stroke-width="1" transform="matrix(5.12821,0,0,5.12821,-166.667,-1269.23)"><polyline fill="none" points="52,260 53,267" vector-effect="none"/></g><defs><clipPath id="clip40"><path d="M35,250 L65,250 L65,280 L35,280 L35,250 z"/></clipPath></defs><g clip-path="url(#clip40)" fill="none" opacity="1" stroke="#000000" stroke-linecap="square" stroke-linejoin="bevel" stroke-opacity="1" stroke-width="1" transform="matrix(5.12821,0,0,5.12821,-166.667,-1269.23)"><polyline fill="none" points="53,267 53,274" vector-effect="none"/></g><defs><clipPath id="clip41"><path d="M35,250 L65,250 L65,280 L35,280 L35,250 z"/></clipPath></defs><g clip-path="url(#clip41)" fill="none" opacity="1" stroke="#000000" stroke-linecap="square" stroke-linejoin="bevel" stroke-opacity="1" stroke-width="1" transform="matrix(5.12821,0,0,5.12821,-166.667,-1269.23)"><polyline fill="none" points="53,274 54,277" vector-effect="none"/></g><defs><clipPath id="clip42"><path d="M35,250 L65,250 L65,280 L35,280 L35,250 z"/></clipPath></defs><g clip-path="url(#clip42)" fill="none" opacity="1" stroke="#000000" stroke-linecap="square" stroke-linejoin="bevel" stroke-opacity="1" stroke-width="1" transform="matrix(5.12821,0,0,5.12821,-166.667,-1269.23)"><polyline fill="none" points="54,277 54,275" vector-effect="none"/></g><defs><clipPath id="clip43"><path d="M35,250 L65,250 L65,280 L35,280 L35,250 z"/></clipPath></defs><g clip-path="url(#clip43)" fill="none" opacity="1" stroke="#000000" stroke-linecap="square" stroke-linejoin="bevel" stroke-opacity="1" stroke-width="1" transform="matrix(5.12821,0,0,5.12821,-166.667,-1269.23)"><polyline fill="none" points="54,275 55,269" vector-effect="none"/></g><defs><clipPath id="clip44"><path d="M35,250 L65,250 L65,280 L35,280 L35,250 z"/></clipPath></defs><g clip-path="url(#clip44)" fill="none" opacity="1" stroke="#000000" stroke-linecap="square" stroke-linejoin="bevel" stroke-opacity="1" stroke-width="1" transform="matrix(5.12821,0,0,5.12821,-166.667,-1269.23)"><polyline fill="none" points="55,269 55,260" vector-effect="none"/></g><defs><clipPath id="clip45"><path d="M35,250 L65,250 L65,280 L35,280 L35,250 z"/></clipPath></defs><g clip-path="url(#clip45)" fill="none" opacity="1" stroke="#000000" stroke-linecap="square" stroke-linejoin="bevel" stroke-opacity="1" stroke-width="1" transform="matrix(5.12821,0,0,5.12821,-166.667,-1269.23)"><polyline fill="none" points="55,260 56,254" vector-effect="none"/></g><defs><clipPath id="clip46"><path d="M35,250 L65,250 L65,280 L35,280 L35,250 z"/></clipPath></defs><g clip-path="url(#clip46)" fill="none" opacity="1" stroke="#000000" stroke-linecap="square" stroke-linejoin="bevel" stroke-opacity="1" stroke-width="1" transform="matrix(5.12821,0,0,5.12821,-166.667,-1269.23)"><polyline fill="none" points="56,254 57,259" vector-effect="none"/></g><defs><clipPath id="clip47"><path d="M35,250 L65,250 L65,280 L35,280 L35,250 z"/></clipPath></defs><g clip-path="url(#clip47)" fill="none" opacity="1" stroke="#000000" stroke-linecap="square" stroke-linejoin="bevel" stroke-opacity="1" stroke-width="1" transform="matrix(5.12821,0,0,5.12821,-166.667,-1269.23)"><polyline fill="none" points="57,259 57,268" vector-effect="none"/></g><defs><clipPath id="clip48"><path d="M35,250 L65,250 L65,280 L35,280 L35,250 z"/></clipPath></defs><g clip-path="url(#clip48)" fill="none" opacity="1" stroke="#000000" stroke-linecap="square" stroke-linejoin="bevel" stroke-opacity="1" stroke-width="1" transform="matrix(5.12821,0,0,5.12821,-166.667,-1269.23)"><polyline fill="none" points="57,268 58,276" vector-effect="none"/></g><defs><clipPath id="clip49"><path d="M35,250 L65,250 L65,280 L35,280 L35,250 z"/></clipPath></defs><g clip-path="url(#clip49)" fill="none" opacity="1" stroke="#000000" stroke-linecap="square" stroke-linejoin="bevel" stroke-opacity="1" stroke-width="1" transform="matrix(5.12821,0,0,5.12821,-166.667,-1269.23)"><polyline fill="none" points="58,276 59,269" vector-effect="none"/></g><defs><clipPath id="clip50"><path d="M35,250 L65,250 L65,280 L35,280 L35,250 z"/></clipPath></defs><g clip-path="url(#clip50)" fill="none" opacity="1" stroke="#000000" stroke-linecap="square" stroke-linejoin="bevel" stroke-opacity="1" stroke-width="1" transform="matrix(5.12821,0,0,5.12821,-166.667,-1269.23)"><polyline fill="none" points="59,269 59,259" vector-effect="none"/></g><defs><clipPath id="clip51"><path d="M35,250 L65,250 L65,280 L35,280 L35,250 z"/></clipPath></defs><g clip-path="url(#clip51)" fill="none" opacity="1" stroke="#000000" stroke-linecap="square" stroke-linejoin="bevel" stroke-opacity="1" stroke-width="1" transform="matrix(5.12821,0,0,5.12821,-166.667,-1269.23)"><polyline fill="none" points="59,259 60,253" vector-effect="none"/></g><defs><clipPath id="clip52"><path d="M35,250 L65,250 L65,280 L35,280 L35,250 z"/></clipPath></defs><g clip-path="url(#clip52)" fill="none" opacity="1" stroke="#000000" stroke-linecap="square" stroke-linejoin="bevel" stroke-opacity="1" stroke-width="1" transform="matrix(5.12821,0,0,5.12821,-166.667,-1269.23)"><polyline fill="none" points="60,253 60,256" vector-effect="none"/></g><defs><clipPath id="clip53"><path d="M35,250 L65,250 L65,280 L35,280 L35,250 z"/></clipPath></defs><g clip-path="url(#clip53)" fill="none" opacity="1" stroke="#000000" stroke-linecap="square" stroke-linejoin="bevel" stroke-opacity="1" stroke-width="1" transform="matrix(5.12821,0,0,5.12821,-166.667,-1269.23)"><polyline fill="none" points="60,256 61,266" vector-effect="none"/></g><defs><clipPath id="clip54"><path d="M35,250 L65,250 L65,280 L35,280 L35,250 z"/></clipPath></defs><g clip-path="url(#clip54)" fill="none" opacity="1" stroke="#000000" stroke-linecap="square" stroke-linejoin="bevel" stroke-opacity="1" stroke-width="1" transform="matrix(5.12821,0,0,5.12821,-166.667,-1269.23)"><polyline fill="none" points="61,266 61,275" vector-effect="none"/></g><defs><clipPath id="clip55"><path d="M35,250 L65,250 L65,280 L35,280 L35,250 z"/></clipPath></defs><g clip-path="url(#clip55)" fill="none" opacity="1" stroke="#000000" stroke-linecap="square" stroke-linejoin="bevel" stroke-opacity="1" stroke-width="1" transform="matrix(5.12821,0,0,5.12821,-166.667,-1269.23)"><polyline fill="none" points="61,275 62,276" vector-effect="none"/></g><defs><clipPath id="clip56"><path d="M35,250 L65,250 L65,280 L35,280 L35,250 z"/></clipPath></defs><g clip-path="url(#clip56)" fill="none" opacity="1" stroke="#000000" stroke-linecap="square" stroke-linejoin="bevel" stroke-opacity="1" stroke-width="1" transform="matrix(5.12821,0,0,5.12821,-166.667,-1269.23)"><polyline fill="none" points="62,276 62,267" vector-effect="none"/></g><defs><clipPath id="clip61"><path d="M-2,-2 L37,-2 L37,32 L-2,32 L-2,-2 z"/></clipPath></defs><g clip-path="url(#clip61)" fill="none" opacity="1" stroke="#000000" stroke-linecap="butt" stroke-linejoin="miter" stroke-miterlimit="2" stroke-opacity="1" stroke-width="0.520013" transform="matrix(5.12821,0,0,5.12821,10.2564,10.2564)"><path d="M0,0 L30,0 L30,30 L0,30 L0,0 z" fill-rule="evenodd" vector-effect="none"/></g></g></svg>
