<?xml version="1.0" encoding="UTF-8"?><svg width="42.0688mm" height="52.9167mm" viewBox="0 0 159 200" xmlns="http://www.w3.org/2000/svg" xmlns:xlink="http://www.w3.org/1999/xlink"><g fill="none" stroke="black" stroke-width="1" fill-rule="evenodd" stroke-linecap="square" stroke-linejoin="bevel"><g clip-path="none" fill="none" opacity="1" stroke="none" stroke-opacity="0" transform="matrix(1,0,0,1,0,0)"><path d="M0,0 L159,0 L159,200 L0,200 L0,0 z" fill-rule="evenodd" vector-effect="none"/></g><defs><clipPath id="clip3"><path d="M-92,-62 L7,-62 L7,62 L-92,62 L-92,-62 z"/></clipPath></defs><g clip-path="url(#clip3)" fill="none" opacity="1" stroke="#000000" stroke-linecap="round" stroke-linejoin="miter" stroke-miterlimit="2" stroke-opacity="1" stroke-width="2" transform="matrix(1.6129,0,0,1.6129,148.387,100)"><path d="M0,-5 L5,0 L0,5" fill-rule="evenodd" vector-effect="none"/></g><defs><clipPath id="clip6"><path d="M7,102 L-92,102 L-92,-22 L7,-22 L7,102 z"/></clipPath></defs><g clip-path="url(#clip6)" fill="none" opacity="1" stroke="#000000" stroke-linecap="round" stroke-linejoin="miter" stroke-miterlimit="2" stroke-opacity="1" stroke-width="2" transform="matrix(-1.6129,0,0,-1.6129,11.2903,164.516)"><path d="M5,-5 L0,0 L5,5" fill-rule="evenodd" vector-effect="none"/></g><defs><clipPath id="clip9"><path d="M7,62 L-92,62 L-92,-62 L7,-62 L7,62 z"/></clipPath></defs><g clip-path="url(#clip9)" fill="none" opacity="1" stroke="#000000" stroke-linecap="round" stroke-linejoin="miter" stroke-miterlimit="2" stroke-opacity="1" stroke-width="2" transform="matrix(-1.6129,0,0,-1.6129,11.2903,100)"><path d="M5,-5 L0,0 L5,5" fill-rule="evenodd" vector-effect="none"/></g><defs><clipPath id="clip12"><path d="M7,22 L-92,22 L-92,-102 L7,-102 L7,22 z"/></clipPath></defs><g clip-path="url(#clip12)" fill="none" opacity="1" stroke="#000000" stroke-linecap="round" stroke-linejoin="miter" stroke-miterlimit="2" stroke-opacity="1" stroke-width="2" transform="matrix(-1.6129,0,0,-1.6129,11.2903,35.4839)"><path d="M5,-5 L0,0 L5,5" fill-rule="evenodd" vector-effect="none"/></g><defs><clipPath id="clip15"><path d="M-7,-2 L92,-2 L92,122 L-7,122 L-7,-2 z"/></clipPath></defs><g clip-path="url(#clip15)" fill="#ffffff" fill-opacity="1" opacity="1" stroke="none" stroke-opacity="0" transform="matrix(1.6129,0,0,1.6129,11.2903,3.22581)"><path d="M0,0 L85,0 L85,120 L0,120 L0,0 z" fill-rule="evenodd" vector-effect="none"/></g><defs><clipPath id="clip20"><path d="M-15,-102 L420,-102 L420,512 L-15,512 L-15,-102 z"/></clipPath></defs><g clip-path="url(#clip20)" fill="none" opacity="1" stroke="#000000" stroke-linecap="butt" stroke-linejoin="miter" stroke-miterlimit="2" stroke-opacity="1" stroke-width="0.62" transform="matrix(0.31502,0,0,0.31502,16.129,35.4839)"><text fill="#000000" fill-opacity="1" font-family="Liberation Sans" font-size="36" font-style="normal" font-weight="400" stroke="none" textLength="65" x="0" xml:space="preserve" y="16">Vref</text></g><defs><clipPath id="clip23"><path d="M-15,-307 L420,-307 L420,307 L-15,307 L-15,-307 z"/></clipPath></defs><g clip-path="url(#clip23)" fill="none" opacity="1" stroke="#000000" stroke-linecap="butt" stroke-linejoin="miter" stroke-miterlimit="2" stroke-opacity="1" stroke-width="0.62" transform="matrix(0.31502,0,0,0.31502,16.129,100)"><text fill="#000000" fill-opacity="1" font-family="Liberation Sans" font-size="36" font-style="normal" font-weight="400" stroke="none" textLength="34" x="0" xml:space="preserve" y="16">Vt</text></g><defs><clipPath id="clip26"><path d="M-15,-512 L420,-512 L420,102 L-15,102 L-15,-512 z"/></clipPath></defs><g clip-path="url(#clip26)" fill="none" opacity="1" stroke="#000000" stroke-linecap="butt" stroke-linejoin="miter" stroke-miterlimit="2" stroke-opacity="1" stroke-width="0.62" transform="matrix(0.31502,0,0,0.31502,16.129,164.516)"><text fill="#000000" fill-opacity="1" font-family="Liberation Sans" font-size="36" font-style="normal" font-weight="400" stroke="none" textLength="92" x="0" xml:space="preserve" y="16">Vstab</text></g><defs><clipPath id="clip29"><path d="M-420,-307 L15,-307 L15,307 L-420,307 L-420,-307 z"/></clipPath></defs><g clip-path="url(#clip29)" fill="none" opacity="1" stroke="#000000" stroke-linecap="butt" stroke-linejoin="miter" stroke-miterlimit="2" stroke-opacity="1" stroke-width="0.62" transform="matrix(0.31502,0,0,0.31502,143.548,100)"><text fill="#000000" fill-opacity="1" font-family="Liberation Sans" font-size="36" font-style="normal" font-weight="400" stroke="none" textLength="54" x="-69.125" xml:space="preserve" y="16">Efd</text></g><defs><clipPath id="clip32"><path d="M-215,-307 L220,-307 L220,307 L-215,307 L-215,-307 z"/></clipPath></defs><g clip-path="url(#clip32)" fill="none" opacity="1" stroke="#0000cc" stroke-linecap="square" stroke-linejoin="bevel" stroke-opacity="1" stroke-width="1" transform="matrix(0.31502,0,0,0.31502,79.0323,100)"><text fill="#0000cc" fill-opacity="1" font-family="Liberation Sans" font-size="40" font-style="normal" font-weight="400" stroke="none" textLength="107" x="-68.25" xml:space="preserve" y="17.9219">DC2A</text></g><defs><clipPath id="clip38"><path d="M-7,-2 L92,-2 L92,122 L-7,122 L-7,-2 z"/></clipPath></defs><g clip-path="url(#clip38)" fill="none" opacity="1" stroke="#000000" stroke-linecap="butt" stroke-linejoin="miter" stroke-miterlimit="2" stroke-opacity="1" stroke-width="0.825956" transform="matrix(1.6129,0,0,1.6129,11.2903,3.22581)"><path d="M0,0 L85,0 L85,120 L0,120 L0,0 z" fill-rule="evenodd" vector-effect="none"/></g></g></svg>
