<?xml version="1.0" encoding="UTF-8"?><svg width="52.9167mm" height="46.0375mm" viewBox="0 0 200 174" xmlns="http://www.w3.org/2000/svg" xmlns:xlink="http://www.w3.org/1999/xlink"><g fill="none" stroke="black" stroke-width="1" fill-rule="evenodd" stroke-linecap="square" stroke-linejoin="bevel"><g clip-path="none" fill="none" opacity="1" stroke="none" stroke-opacity="0" transform="matrix(1,0,0,1,0,0)"><path d="M0,0 L200,0 L200,174 L0,174 L0,0 z" fill-rule="evenodd" vector-effect="none"/></g><defs><clipPath id="clip3"><path d="M-32,-17 L7,-17 L7,17 L-32,17 L-32,-17 z"/></clipPath></defs><g clip-path="url(#clip3)" fill="none" opacity="1" stroke="#000000" stroke-linecap="round" stroke-linejoin="miter" stroke-miterlimit="2" stroke-opacity="1" stroke-width="2" transform="matrix(5.12821,0,0,5.12821,164.103,87.1795)"><path d="M0,-5 L5,0 L0,5" fill-rule="evenodd" vector-effect="none"/></g><defs><clipPath id="clip6"><path d="M-2,-2 L37,-2 L37,32 L-2,32 L-2,-2 z"/></clipPath></defs><g clip-path="url(#clip6)" fill="#ffffff" fill-opacity="1" opacity="1" stroke="none" stroke-opacity="0" transform="matrix(5.12821,0,0,5.12821,10.2564,10.2564)"><path d="M0,0 L30,0 L30,30 L0,30 L0,0 z" fill-rule="evenodd" vector-effect="none"/></g><defs><clipPath id="clip10"><path d="M270,250 L300,250 L300,280 L270,280 L270,250 z"/></clipPath></defs><g clip-path="url(#clip10)" fill="#000000" fill-opacity="1" opacity="1" stroke="none" stroke-opacity="0" transform="matrix(5.12821,0,0,5.12821,-1371.79,-1269.23)"><path d="M272.5,266.5 L273.5,266.5 L273.5,267.5 L272.5,267.5 L272.5,266.5 z" fill-rule="evenodd" vector-effect="none"/></g><defs><clipPath id="clip11"><path d="M270,250 L300,250 L300,280 L270,280 L270,250 z"/></clipPath></defs><g clip-path="url(#clip11)" fill="none" opacity="1" stroke="#000000" stroke-linecap="square" stroke-linejoin="bevel" stroke-opacity="1" stroke-width="1" transform="matrix(5.12821,0,0,5.12821,-1371.79,-1269.23)"><polyline fill="none" points="273,267 275,267" vector-effect="none"/></g><defs><clipPath id="clip12"><path d="M270,250 L300,250 L300,280 L270,280 L270,250 z"/></clipPath></defs><g clip-path="url(#clip12)" fill="none" opacity="1" stroke="#000000" stroke-linecap="square" stroke-linejoin="bevel" stroke-opacity="1" stroke-width="1" transform="matrix(5.12821,0,0,5.12821,-1371.79,-1269.23)"><polyline fill="none" points="275,267 275,277" vector-effect="none"/></g><defs><clipPath id="clip13"><path d="M270,250 L300,250 L300,280 L270,280 L270,250 z"/></clipPath></defs><g clip-path="url(#clip13)" fill="none" opacity="1" stroke="#000000" stroke-linecap="square" stroke-linejoin="bevel" stroke-opacity="1" stroke-width="1" transform="matrix(5.12821,0,0,5.12821,-1371.79,-1269.23)"><polyline fill="none" points="275,277 277,277" vector-effect="none"/></g><defs><clipPath id="clip14"><path d="M270,250 L300,250 L300,280 L270,280 L270,250 z"/></clipPath></defs><g clip-path="url(#clip14)" fill="none" opacity="1" stroke="#000000" stroke-linecap="square" stroke-linejoin="bevel" stroke-opacity="1" stroke-width="1" transform="matrix(5.12821,0,0,5.12821,-1371.79,-1269.23)"><polyline fill="none" points="277,277 277,262" vector-effect="none"/></g><defs><clipPath id="clip15"><path d="M270,250 L300,250 L300,280 L270,280 L270,250 z"/></clipPath></defs><g clip-path="url(#clip15)" fill="none" opacity="1" stroke="#000000" stroke-linecap="square" stroke-linejoin="bevel" stroke-opacity="1" stroke-width="1" transform="matrix(5.12821,0,0,5.12821,-1371.79,-1269.23)"><polyline fill="none" points="277,262 279,262" vector-effect="none"/></g><defs><clipPath id="clip16"><path d="M270,250 L300,250 L300,280 L270,280 L270,250 z"/></clipPath></defs><g clip-path="url(#clip16)" fill="none" opacity="1" stroke="#000000" stroke-linecap="square" stroke-linejoin="bevel" stroke-opacity="1" stroke-width="1" transform="matrix(5.12821,0,0,5.12821,-1371.79,-1269.23)"><polyline fill="none" points="279,262 279,261" vector-effect="none"/></g><defs><clipPath id="clip17"><path d="M270,250 L300,250 L300,280 L270,280 L270,250 z"/></clipPath></defs><g clip-path="url(#clip17)" fill="none" opacity="1" stroke="#000000" stroke-linecap="square" stroke-linejoin="bevel" stroke-opacity="1" stroke-width="1" transform="matrix(5.12821,0,0,5.12821,-1371.79,-1269.23)"><polyline fill="none" points="279,261 281,261" vector-effect="none"/></g><defs><clipPath id="clip18"><path d="M270,250 L300,250 L300,280 L270,280 L270,250 z"/></clipPath></defs><g clip-path="url(#clip18)" fill="none" opacity="1" stroke="#000000" stroke-linecap="square" stroke-linejoin="bevel" stroke-opacity="1" stroke-width="1" transform="matrix(5.12821,0,0,5.12821,-1371.79,-1269.23)"><polyline fill="none" points="281,261 281,273" vector-effect="none"/></g><defs><clipPath id="clip19"><path d="M270,250 L300,250 L300,280 L270,280 L270,250 z"/></clipPath></defs><g clip-path="url(#clip19)" fill="none" opacity="1" stroke="#000000" stroke-linecap="square" stroke-linejoin="bevel" stroke-opacity="1" stroke-width="1" transform="matrix(5.12821,0,0,5.12821,-1371.79,-1269.23)"><polyline fill="none" points="281,273 283,273" vector-effect="none"/></g><defs><clipPath id="clip20"><path d="M270,250 L300,250 L300,280 L270,280 L270,250 z"/></clipPath></defs><g clip-path="url(#clip20)" fill="none" opacity="1" stroke="#000000" stroke-linecap="square" stroke-linejoin="bevel" stroke-opacity="1" stroke-width="1" transform="matrix(5.12821,0,0,5.12821,-1371.79,-1269.23)"><polyline fill="none" points="283,273 283,253" vector-effect="none"/></g><defs><clipPath id="clip21"><path d="M270,250 L300,250 L300,280 L270,280 L270,250 z"/></clipPath></defs><g clip-path="url(#clip21)" fill="none" opacity="1" stroke="#000000" stroke-linecap="square" stroke-linejoin="bevel" stroke-opacity="1" stroke-width="1" transform="matrix(5.12821,0,0,5.12821,-1371.79,-1269.23)"><polyline fill="none" points="283,253 285,253" vector-effect="none"/></g><defs><clipPath id="clip22"><path d="M270,250 L300,250 L300,280 L270,280 L270,250 z"/></clipPath></defs><g clip-path="url(#clip22)" fill="none" opacity="1" stroke="#000000" stroke-linecap="square" stroke-linejoin="bevel" stroke-opacity="1" stroke-width="1" transform="matrix(5.12821,0,0,5.12821,-1371.79,-1269.23)"><polyline fill="none" points="285,253 287,253" vector-effect="none"/></g><defs><clipPath id="clip23"><path d="M270,250 L300,250 L300,280 L270,280 L270,250 z"/></clipPath></defs><g clip-path="url(#clip23)" fill="none" opacity="1" stroke="#000000" stroke-linecap="square" stroke-linejoin="bevel" stroke-opacity="1" stroke-width="1" transform="matrix(5.12821,0,0,5.12821,-1371.79,-1269.23)"><polyline fill="none" points="287,253 287,263" vector-effect="none"/></g><defs><clipPath id="clip24"><path d="M270,250 L300,250 L300,280 L270,280 L270,250 z"/></clipPath></defs><g clip-path="url(#clip24)" fill="none" opacity="1" stroke="#000000" stroke-linecap="square" stroke-linejoin="bevel" stroke-opacity="1" stroke-width="1" transform="matrix(5.12821,0,0,5.12821,-1371.79,-1269.23)"><polyline fill="none" points="287,263 289,263" vector-effect="none"/></g><defs><clipPath id="clip25"><path d="M270,250 L300,250 L300,280 L270,280 L270,250 z"/></clipPath></defs><g clip-path="url(#clip25)" fill="none" opacity="1" stroke="#000000" stroke-linecap="square" stroke-linejoin="bevel" stroke-opacity="1" stroke-width="1" transform="matrix(5.12821,0,0,5.12821,-1371.79,-1269.23)"><polyline fill="none" points="289,263 289,260" vector-effect="none"/></g><defs><clipPath id="clip26"><path d="M270,250 L300,250 L300,280 L270,280 L270,250 z"/></clipPath></defs><g clip-path="url(#clip26)" fill="none" opacity="1" stroke="#000000" stroke-linecap="square" stroke-linejoin="bevel" stroke-opacity="1" stroke-width="1" transform="matrix(5.12821,0,0,5.12821,-1371.79,-1269.23)"><polyline fill="none" points="289,260 291,260" vector-effect="none"/></g><defs><clipPath id="clip27"><path d="M270,250 L300,250 L300,280 L270,280 L270,250 z"/></clipPath></defs><g clip-path="url(#clip27)" fill="none" opacity="1" stroke="#000000" stroke-linecap="square" stroke-linejoin="bevel" stroke-opacity="1" stroke-width="1" transform="matrix(5.12821,0,0,5.12821,-1371.79,-1269.23)"><polyline fill="none" points="291,260 291,262" vector-effect="none"/></g><defs><clipPath id="clip28"><path d="M270,250 L300,250 L300,280 L270,280 L270,250 z"/></clipPath></defs><g clip-path="url(#clip28)" fill="none" opacity="1" stroke="#000000" stroke-linecap="square" stroke-linejoin="bevel" stroke-opacity="1" stroke-width="1" transform="matrix(5.12821,0,0,5.12821,-1371.79,-1269.23)"><polyline fill="none" points="291,262 293,262" vector-effect="none"/></g><defs><clipPath id="clip29"><path d="M270,250 L300,250 L300,280 L270,280 L270,250 z"/></clipPath></defs><g clip-path="url(#clip29)" fill="none" opacity="1" stroke="#000000" stroke-linecap="square" stroke-linejoin="bevel" stroke-opacity="1" stroke-width="1" transform="matrix(5.12821,0,0,5.12821,-1371.79,-1269.23)"><polyline fill="none" points="293,262 293,265" vector-effect="none"/></g><defs><clipPath id="clip30"><path d="M270,250 L300,250 L300,280 L270,280 L270,250 z"/></clipPath></defs><g clip-path="url(#clip30)" fill="none" opacity="1" stroke="#000000" stroke-linecap="square" stroke-linejoin="bevel" stroke-opacity="1" stroke-width="1" transform="matrix(5.12821,0,0,5.12821,-1371.79,-1269.23)"><polyline fill="none" points="293,265 295,265" vector-effect="none"/></g><defs><clipPath id="clip31"><path d="M270,250 L300,250 L300,280 L270,280 L270,250 z"/></clipPath></defs><g clip-path="url(#clip31)" fill="none" opacity="1" stroke="#000000" stroke-linecap="square" stroke-linejoin="bevel" stroke-opacity="1" stroke-width="1" transform="matrix(5.12821,0,0,5.12821,-1371.79,-1269.23)"><polyline fill="none" points="295,265 295,257" vector-effect="none"/></g><defs><clipPath id="clip32"><path d="M270,250 L300,250 L300,280 L270,280 L270,250 z"/></clipPath></defs><g clip-path="url(#clip32)" fill="none" opacity="1" stroke="#000000" stroke-linecap="square" stroke-linejoin="bevel" stroke-opacity="1" stroke-width="1" transform="matrix(5.12821,0,0,5.12821,-1371.79,-1269.23)"><polyline fill="none" points="295,257 297,257" vector-effect="none"/></g><defs><clipPath id="clip37"><path d="M-2,-2 L37,-2 L37,32 L-2,32 L-2,-2 z"/></clipPath></defs><g clip-path="url(#clip37)" fill="none" opacity="1" stroke="#000000" stroke-linecap="butt" stroke-linejoin="miter" stroke-miterlimit="2" stroke-opacity="1" stroke-width="0.520013" transform="matrix(5.12821,0,0,5.12821,10.2564,10.2564)"><path d="M0,0 L30,0 L30,30 L0,30 L0,0 z" fill-rule="evenodd" vector-effect="none"/></g></g></svg>
