<?xml version="1.0" encoding="UTF-8"?><svg width="52.9167mm" height="33.0729mm" viewBox="0 0 200 125" xmlns="http://www.w3.org/2000/svg" xmlns:xlink="http://www.w3.org/1999/xlink"><g fill="none" stroke="black" stroke-width="1" fill-rule="evenodd" stroke-linecap="square" stroke-linejoin="bevel"><g clip-path="none" fill="none" opacity="1" stroke="none" stroke-opacity="0" transform="matrix(1,0,0,1,0,0)"><path d="M0,0 L200,0 L200,125 L0,125 L0,0 z" fill-rule="evenodd" vector-effect="none"/></g><defs><clipPath id="clip3"><path d="M7,20 L-57,20 L-57,-20 L7,-20 L7,20 z"/></clipPath></defs><g clip-path="url(#clip3)" fill="none" opacity="1" stroke="#000000" stroke-linecap="round" stroke-linejoin="miter" stroke-miterlimit="2" stroke-opacity="1" stroke-width="2" transform="matrix(-3.125,0,0,-3.125,21.875,62.5)"><path d="M5,-5 L0,0 L5,5" fill-rule="evenodd" vector-effect="none"/></g><defs><clipPath id="clip6"><path d="M-57,-20 L7,-20 L7,20 L-57,20 L-57,-20 z"/></clipPath></defs><g clip-path="url(#clip6)" fill="none" opacity="1" stroke="#000000" stroke-linecap="round" stroke-linejoin="miter" stroke-miterlimit="2" stroke-opacity="1" stroke-width="2" transform="matrix(3.125,0,0,3.125,178.125,62.5)"><path d="M0,-5 L5,0 L0,5" fill-rule="evenodd" vector-effect="none"/></g><defs><clipPath id="clip9"><path d="M-7,-2 L57,-2 L57,38 L-7,38 L-7,-2 z"/></clipPath></defs><g clip-path="url(#clip9)" fill="#ffffff" fill-opacity="1" opacity="1" stroke="none" stroke-opacity="0" transform="matrix(3.125,0,0,3.125,21.875,6.25)"><path d="M0,0 L50,0 L50,36 L0,36 L0,0 z" fill-rule="evenodd" vector-effect="none"/></g><defs><clipPath id="clip13"><path d="M30,47 L80,47 L80,83 L30,83 L30,47 z"/></clipPath></defs><g clip-path="url(#clip13)" fill="none" opacity="1" stroke="#000000" stroke-linecap="butt" stroke-linejoin="miter" stroke-miterlimit="2" stroke-opacity="1" stroke-width="0.32" transform="matrix(3.125,0,0,3.125,-70.3125,-139.062)"><polyline fill="none" points="46,74 53,74" vector-effect="none"/></g><defs><clipPath id="clip14"><path d="M30,47 L80,47 L80,83 L30,83 L30,47 z"/></clipPath></defs><g clip-path="url(#clip14)" fill="none" opacity="1" stroke="#000000" stroke-linecap="butt" stroke-linejoin="miter" stroke-miterlimit="2" stroke-opacity="1" stroke-width="0.32" transform="matrix(3.125,0,0,3.125,-70.3125,-139.062)"><polyline fill="none" points="53,74 53,56" vector-effect="none"/></g><defs><clipPath id="clip15"><path d="M30,47 L80,47 L80,83 L30,83 L30,47 z"/></clipPath></defs><g clip-path="url(#clip15)" fill="none" opacity="1" stroke="#000000" stroke-linecap="butt" stroke-linejoin="miter" stroke-miterlimit="2" stroke-opacity="1" stroke-width="0.32" transform="matrix(3.125,0,0,3.125,-70.3125,-139.062)"><polyline fill="none" points="53,56 59,56" vector-effect="none"/></g><defs><clipPath id="clip16"><path d="M30,47 L80,47 L80,83 L30,83 L30,47 z"/></clipPath></defs><g clip-path="url(#clip16)" fill="none" opacity="1" stroke="#000000" stroke-linecap="butt" stroke-linejoin="miter" stroke-miterlimit="2" stroke-opacity="1" stroke-width="0.32" transform="matrix(3.125,0,0,3.125,-70.3125,-139.062)"><polyline fill="none" points="46,68 53,62" vector-effect="none"/></g><defs><clipPath id="clip17"><path d="M30,47 L80,47 L80,83 L30,83 L30,47 z"/></clipPath></defs><g clip-path="url(#clip17)" fill="none" opacity="1" stroke="#000000" stroke-linecap="butt" stroke-linejoin="miter" stroke-miterlimit="2" stroke-opacity="1" stroke-width="0.32" transform="matrix(3.125,0,0,3.125,-70.3125,-139.062)"><polyline fill="none" points="53,62 59,68" vector-effect="none"/></g><defs><clipPath id="clip22"><path d="M-7,-2 L57,-2 L57,38 L-7,38 L-7,-2 z"/></clipPath></defs><g clip-path="url(#clip22)" fill="none" opacity="1" stroke="#000000" stroke-linecap="butt" stroke-linejoin="miter" stroke-miterlimit="2" stroke-opacity="1" stroke-width="0.633957" transform="matrix(3.125,0,0,3.125,21.875,6.25)"><path d="M0,0 L50,0 L50,36 L0,36 L0,0 z" fill-rule="evenodd" vector-effect="none"/></g></g></svg>
