<?xml version="1.0" encoding="UTF-8"?><svg width="52.9167mm" height="36.2479mm" viewBox="0 0 200 137" xmlns="http://www.w3.org/2000/svg" xmlns:xlink="http://www.w3.org/1999/xlink"><g fill="none" stroke="black" stroke-width="1" fill-rule="evenodd" stroke-linecap="square" stroke-linejoin="bevel"><g clip-path="none" fill="none" opacity="1" stroke="none" stroke-opacity="0" transform="matrix(1,0,0,1,0,0)"><path d="M0,0 L200,0 L200,137 L0,137 L0,0 z" fill-rule="evenodd" vector-effect="none"/></g><defs><clipPath id="clip3"><path d="M-57,-22 L7,-22 L7,22 L-57,22 L-57,-22 z"/></clipPath></defs><g clip-path="url(#clip3)" fill="none" opacity="1" stroke="#000000" stroke-linecap="round" stroke-linejoin="miter" stroke-miterlimit="2" stroke-opacity="1" stroke-width="2" transform="matrix(3.125,0,0,3.125,178.125,68.75)"><path d="M0,-5 L5,0 L0,5" fill-rule="evenodd" vector-effect="none"/></g><defs><clipPath id="clip6"><path d="M7,32 L-57,32 L-57,-12 L7,-12 L7,32 z"/></clipPath></defs><g clip-path="url(#clip6)" fill="none" opacity="1" stroke="#000000" stroke-linecap="round" stroke-linejoin="miter" stroke-miterlimit="2" stroke-opacity="1" stroke-width="2" transform="matrix(-3.125,0,0,-3.125,21.875,100)"><path d="M5,-5 L0,0 L5,5" fill-rule="evenodd" vector-effect="none"/></g><defs><clipPath id="clip9"><path d="M7,12 L-57,12 L-57,-32 L7,-32 L7,12 z"/></clipPath></defs><g clip-path="url(#clip9)" fill="none" opacity="1" stroke="#000000" stroke-linecap="round" stroke-linejoin="miter" stroke-miterlimit="2" stroke-opacity="1" stroke-width="2" transform="matrix(-3.125,0,0,-3.125,21.875,37.5)"><path d="M5,-5 L0,0 L5,5" fill-rule="evenodd" vector-effect="none"/></g><defs><clipPath id="clip12"><path d="M-7,-2 L57,-2 L57,42 L-7,42 L-7,-2 z"/></clipPath></defs><g clip-path="url(#clip12)" fill="#ffffff" fill-opacity="1" opacity="1" stroke="none" stroke-opacity="0" transform="matrix(3.125,0,0,3.125,21.875,6.25)"><path d="M0,0 L50,0 L50,40 L0,40 L0,0 z" fill-rule="evenodd" vector-effect="none"/></g><defs><clipPath id="clip17"><path d="M-15,-51 L241,-51 L241,154 L-15,154 L-15,-51 z"/></clipPath></defs><g clip-path="url(#clip17)" fill="none" opacity="1" stroke="#000000" stroke-linecap="butt" stroke-linejoin="miter" stroke-miterlimit="2" stroke-opacity="1" stroke-width="0.32" transform="matrix(0.610352,0,0,0.610352,31.25,37.5)"><text fill="#000000" fill-opacity="1" font-family="Liberation Sans" font-size="40" font-style="normal" font-weight="400" stroke="none" textLength="81" x="0" xml:space="preserve" y="17.9219">Freq</text></g><defs><clipPath id="clip20"><path d="M-15,-154 L241,-154 L241,51 L-15,51 L-15,-154 z"/></clipPath></defs><g clip-path="url(#clip20)" fill="none" opacity="1" stroke="#000000" stroke-linecap="butt" stroke-linejoin="miter" stroke-miterlimit="2" stroke-opacity="1" stroke-width="0.32" transform="matrix(0.610352,0,0,0.610352,31.25,100)"><text fill="#000000" fill-opacity="1" font-family="Liberation Sans" font-size="40" font-style="normal" font-weight="400" stroke="none" textLength="31" x="0" xml:space="preserve" y="17.9219">In</text></g><defs><clipPath id="clip22"><path d="M125,75 L175,75 L175,115 L125,115 L125,75 z"/></clipPath></defs><g clip-path="url(#clip22)" fill="none" opacity="1" stroke="#000000" stroke-linecap="butt" stroke-linejoin="miter" stroke-miterlimit="2" stroke-opacity="1" stroke-width="0.32" transform="matrix(3.125,0,0,3.125,-367.188,-226.562)"><polyline fill="none" points="163,87 172,87" vector-effect="none"/></g><defs><clipPath id="clip23"><path d="M125,75 L175,75 L175,115 L125,115 L125,75 z"/></clipPath></defs><g clip-path="url(#clip23)" fill="none" opacity="1" stroke="#000000" stroke-linecap="butt" stroke-linejoin="miter" stroke-miterlimit="2" stroke-opacity="1" stroke-width="0.32" transform="matrix(3.125,0,0,3.125,-367.188,-226.562)"><polyline fill="none" points="165,100 170,90" vector-effect="none"/></g><defs><clipPath id="clip24"><path d="M125,75 L175,75 L175,115 L125,115 L125,75 z"/></clipPath></defs><g clip-path="url(#clip24)" fill="none" opacity="1" stroke="#000000" stroke-linecap="butt" stroke-linejoin="miter" stroke-miterlimit="2" stroke-opacity="1" stroke-width="0.32" transform="matrix(3.125,0,0,3.125,-367.188,-226.562)"><polyline fill="none" points="165,90 170,100" vector-effect="none"/></g><defs><clipPath id="clip29"><path d="M-7,-2 L57,-2 L57,42 L-7,42 L-7,-2 z"/></clipPath></defs><g clip-path="url(#clip29)" fill="none" opacity="1" stroke="#000000" stroke-linecap="butt" stroke-linejoin="miter" stroke-miterlimit="2" stroke-opacity="1" stroke-width="0.633957" transform="matrix(3.125,0,0,3.125,21.875,6.25)"><path d="M0,0 L50,0 L50,40 L0,40 L0,0 z" fill-rule="evenodd" vector-effect="none"/></g></g></svg>
