<?xml version="1.0" encoding="UTF-8"?><svg width="52.9167mm" height="46.0375mm" viewBox="0 0 200 174" xmlns="http://www.w3.org/2000/svg" xmlns:xlink="http://www.w3.org/1999/xlink"><g fill="none" stroke="black" stroke-width="1" fill-rule="evenodd" stroke-linecap="square" stroke-linejoin="bevel"><g clip-path="none" fill="none" opacity="1" stroke="none" stroke-opacity="0" transform="matrix(1,0,0,1,0,0)"><path d="M0,0 L200,0 L200,174 L0,174 L0,0 z" fill-rule="evenodd" vector-effect="none"/></g><defs><clipPath id="clip3"><path d="M-32,-17 L7,-17 L7,17 L-32,17 L-32,-17 z"/></clipPath></defs><g clip-path="url(#clip3)" fill="none" opacity="1" stroke="#000000" stroke-linecap="round" stroke-linejoin="miter" stroke-miterlimit="2" stroke-opacity="1" stroke-width="2" transform="matrix(5.12821,0,0,5.12821,164.103,87.1795)"><path d="M0,-5 L5,0 L0,5" fill-rule="evenodd" vector-effect="none"/></g><defs><clipPath id="clip6"><path d="M-2,-2 L37,-2 L37,32 L-2,32 L-2,-2 z"/></clipPath></defs><g clip-path="url(#clip6)" fill="#ffffff" fill-opacity="1" opacity="1" stroke="none" stroke-opacity="0" transform="matrix(5.12821,0,0,5.12821,10.2564,10.2564)"><path d="M0,0 L30,0 L30,30 L0,30 L0,0 z" fill-rule="evenodd" vector-effect="none"/></g><defs><clipPath id="clip10"><path d="M184,320 L214,320 L214,350 L184,350 L184,320 z"/></clipPath></defs><g clip-path="url(#clip10)" fill="none" opacity="1" stroke="#000000" stroke-linecap="butt" stroke-linejoin="miter" stroke-miterlimit="2" stroke-opacity="1" stroke-width="0.195" transform="matrix(5.12821,0,0,5.12821,-935.897,-1628.21)"><polyline fill="none" points="188,329 193,329" vector-effect="none"/></g><defs><clipPath id="clip11"><path d="M184,320 L214,320 L214,350 L184,350 L184,320 z"/></clipPath></defs><g clip-path="url(#clip11)" fill="none" opacity="1" stroke="#000000" stroke-linecap="butt" stroke-linejoin="miter" stroke-miterlimit="2" stroke-opacity="1" stroke-width="0.195" transform="matrix(5.12821,0,0,5.12821,-935.897,-1628.21)"><polyline fill="none" points="193,329 193,340" vector-effect="none"/></g><defs><clipPath id="clip12"><path d="M184,320 L214,320 L214,350 L184,350 L184,320 z"/></clipPath></defs><g clip-path="url(#clip12)" fill="none" opacity="1" stroke="#000000" stroke-linecap="butt" stroke-linejoin="miter" stroke-miterlimit="2" stroke-opacity="1" stroke-width="0.195" transform="matrix(5.12821,0,0,5.12821,-935.897,-1628.21)"><polyline fill="none" points="193,340 198,340" vector-effect="none"/></g><defs><clipPath id="clip13"><path d="M184,320 L214,320 L214,350 L184,350 L184,320 z"/></clipPath></defs><g clip-path="url(#clip13)" fill="none" opacity="1" stroke="#000000" stroke-linecap="butt" stroke-linejoin="miter" stroke-miterlimit="2" stroke-opacity="1" stroke-width="0.195" transform="matrix(5.12821,0,0,5.12821,-935.897,-1628.21)"><polyline fill="none" points="198,340 198,324" vector-effect="none"/></g><defs><clipPath id="clip14"><path d="M184,320 L214,320 L214,350 L184,350 L184,320 z"/></clipPath></defs><g clip-path="url(#clip14)" fill="none" opacity="1" stroke="#000000" stroke-linecap="butt" stroke-linejoin="miter" stroke-miterlimit="2" stroke-opacity="1" stroke-width="0.195" transform="matrix(5.12821,0,0,5.12821,-935.897,-1628.21)"><polyline fill="none" points="198,324 202,324" vector-effect="none"/></g><defs><clipPath id="clip15"><path d="M184,320 L214,320 L214,350 L184,350 L184,320 z"/></clipPath></defs><g clip-path="url(#clip15)" fill="none" opacity="1" stroke="#000000" stroke-linecap="butt" stroke-linejoin="miter" stroke-miterlimit="2" stroke-opacity="1" stroke-width="0.195" transform="matrix(5.12821,0,0,5.12821,-935.897,-1628.21)"><polyline fill="none" points="202,324 202,334" vector-effect="none"/></g><defs><clipPath id="clip16"><path d="M184,320 L214,320 L214,350 L184,350 L184,320 z"/></clipPath></defs><g clip-path="url(#clip16)" fill="none" opacity="1" stroke="#000000" stroke-linecap="butt" stroke-linejoin="miter" stroke-miterlimit="2" stroke-opacity="1" stroke-width="0.195" transform="matrix(5.12821,0,0,5.12821,-935.897,-1628.21)"><polyline fill="none" points="202,334 207,334" vector-effect="none"/></g><defs><clipPath id="clip17"><path d="M184,320 L214,320 L214,350 L184,350 L184,320 z"/></clipPath></defs><g clip-path="url(#clip17)" fill="none" opacity="1" stroke="#000000" stroke-linecap="butt" stroke-linejoin="miter" stroke-miterlimit="2" stroke-opacity="1" stroke-width="0.195" transform="matrix(5.12821,0,0,5.12821,-935.897,-1628.21)"><polyline fill="none" points="207,334 207,340" vector-effect="none"/></g><defs><clipPath id="clip18"><path d="M184,320 L214,320 L214,350 L184,350 L184,320 z"/></clipPath></defs><g clip-path="url(#clip18)" fill="none" opacity="1" stroke="#000000" stroke-linecap="butt" stroke-linejoin="miter" stroke-miterlimit="2" stroke-opacity="1" stroke-width="0.195" transform="matrix(5.12821,0,0,5.12821,-935.897,-1628.21)"><polyline fill="none" points="207,340 212,340" vector-effect="none"/></g><defs><clipPath id="clip19"><path d="M184,320 L214,320 L214,350 L184,350 L184,320 z"/></clipPath></defs><g clip-path="url(#clip19)" fill="none" opacity="1" stroke="#000000" stroke-linecap="butt" stroke-linejoin="miter" stroke-miterlimit="2" stroke-opacity="1" stroke-width="0.195" transform="matrix(5.12821,0,0,5.12821,-935.897,-1628.21)"><polyline fill="none" points="188,324 188,340" vector-effect="none"/></g><defs><clipPath id="clip24"><path d="M-2,-2 L37,-2 L37,32 L-2,32 L-2,-2 z"/></clipPath></defs><g clip-path="url(#clip24)" fill="none" opacity="1" stroke="#000000" stroke-linecap="butt" stroke-linejoin="miter" stroke-miterlimit="2" stroke-opacity="1" stroke-width="0.520013" transform="matrix(5.12821,0,0,5.12821,10.2564,10.2564)"><path d="M0,0 L30,0 L30,30 L0,30 L0,0 z" fill-rule="evenodd" vector-effect="none"/></g></g></svg>
