<?xml version="1.0" encoding="UTF-8"?><svg width="52.9167mm" height="50.5354mm" viewBox="0 0 200 191" xmlns="http://www.w3.org/2000/svg" xmlns:xlink="http://www.w3.org/1999/xlink"><g fill="none" stroke="black" stroke-width="1" fill-rule="evenodd" stroke-linecap="square" stroke-linejoin="bevel"><g clip-path="none" fill="none" opacity="1" stroke="none" stroke-opacity="0" transform="matrix(1,0,0,1,0,0)"><path d="M0,0 L200,0 L200,191 L0,191 L0,0 z" fill-rule="evenodd" vector-effect="none"/></g><defs><clipPath id="clip3"><path d="M-62,-48 L7,-48 L7,18 L-62,18 L-62,-48 z"/></clipPath></defs><g clip-path="url(#clip3)" fill="none" opacity="1" stroke="#000000" stroke-linecap="round" stroke-linejoin="miter" stroke-miterlimit="2" stroke-opacity="1" stroke-width="2" transform="matrix(2.89855,0,0,2.89855,179.71,139.13)"><path d="M0,-5 L5,0 L0,5" fill-rule="evenodd" vector-effect="none"/></g><defs><clipPath id="clip6"><path d="M-62,-18 L7,-18 L7,48 L-62,48 L-62,-18 z"/></clipPath></defs><g clip-path="url(#clip6)" fill="none" opacity="1" stroke="#000000" stroke-linecap="round" stroke-linejoin="miter" stroke-miterlimit="2" stroke-opacity="1" stroke-width="2" transform="matrix(2.89855,0,0,2.89855,179.71,52.1739)"><path d="M0,-5 L5,0 L0,5" fill-rule="evenodd" vector-effect="none"/></g><defs><clipPath id="clip9"><path d="M7,53 L-62,53 L-62,-13 L7,-13 L7,53 z"/></clipPath></defs><g clip-path="url(#clip9)" fill="none" opacity="1" stroke="#000000" stroke-linecap="round" stroke-linejoin="miter" stroke-miterlimit="2" stroke-opacity="1" stroke-width="2" transform="matrix(-2.89855,0,0,-2.89855,20.2899,153.623)"><path d="M5,-5 L0,0 L5,5" fill-rule="evenodd" vector-effect="none"/></g><defs><clipPath id="clip12"><path d="M7,33 L-62,33 L-62,-33 L7,-33 L7,33 z"/></clipPath></defs><g clip-path="url(#clip12)" fill="none" opacity="1" stroke="#000000" stroke-linecap="round" stroke-linejoin="miter" stroke-miterlimit="2" stroke-opacity="1" stroke-width="2" transform="matrix(-2.89855,0,0,-2.89855,20.2899,95.6522)"><path d="M5,-5 L0,0 L5,5" fill-rule="evenodd" vector-effect="none"/></g><defs><clipPath id="clip15"><path d="M7,13 L-62,13 L-62,-53 L7,-53 L7,13 z"/></clipPath></defs><g clip-path="url(#clip15)" fill="none" opacity="1" stroke="#000000" stroke-linecap="round" stroke-linejoin="miter" stroke-miterlimit="2" stroke-opacity="1" stroke-width="2" transform="matrix(-2.89855,0,0,-2.89855,20.2899,37.6812)"><path d="M5,-5 L0,0 L5,5" fill-rule="evenodd" vector-effect="none"/></g><defs><clipPath id="clip18"><path d="M-7,-2 L62,-2 L62,64 L-7,64 L-7,-2 z"/></clipPath></defs><g clip-path="url(#clip18)" fill="#ffffff" fill-opacity="1" opacity="1" stroke="none" stroke-opacity="0" transform="matrix(2.89855,0,0,2.89855,20.2899,5.7971)"><path d="M0,0 L55,0 L55,62 L0,62 L0,0 z" fill-rule="evenodd" vector-effect="none"/></g><defs><clipPath id="clip23"><path d="M-15,-56 L267,-56 L267,261 L-15,261 L-15,-56 z"/></clipPath></defs><g clip-path="url(#clip23)" fill="none" opacity="1" stroke="#000000" stroke-linecap="butt" stroke-linejoin="miter" stroke-miterlimit="2" stroke-opacity="1" stroke-width="0.345" transform="matrix(0.566123,0,0,0.566123,28.9855,37.6812)"><text fill="#000000" fill-opacity="1" font-family="Liberation Sans" font-size="36" font-style="normal" font-weight="400" stroke="none" textLength="86" x="0" xml:space="preserve" y="16">alpha</text></g><defs><clipPath id="clip26"><path d="M-15,-159 L267,-159 L267,158 L-15,158 L-15,-159 z"/></clipPath></defs><g clip-path="url(#clip26)" fill="none" opacity="1" stroke="#000000" stroke-linecap="butt" stroke-linejoin="miter" stroke-miterlimit="2" stroke-opacity="1" stroke-width="0.345" transform="matrix(0.566123,0,0,0.566123,28.9855,95.6522)"><text fill="#000000" fill-opacity="1" font-family="Liberation Sans" font-size="36" font-style="normal" font-weight="400" stroke="none" textLength="35" x="0" xml:space="preserve" y="16">wt</text></g><defs><clipPath id="clip29"><path d="M-15,-261 L267,-261 L267,56 L-15,56 L-15,-261 z"/></clipPath></defs><g clip-path="url(#clip29)" fill="none" opacity="1" stroke="#000000" stroke-linecap="butt" stroke-linejoin="miter" stroke-miterlimit="2" stroke-opacity="1" stroke-width="0.345" transform="matrix(0.566123,0,0,0.566123,28.9855,153.623)"><text fill="#000000" fill-opacity="1" font-family="Liberation Sans" font-size="36" font-style="normal" font-weight="400" stroke="none" textLength="88" x="0" xml:space="preserve" y="16">Block</text></g><defs><clipPath id="clip32"><path d="M-266,-82 L16,-82 L16,235 L-266,235 L-266,-82 z"/></clipPath></defs><g clip-path="url(#clip32)" fill="none" opacity="1" stroke="#000000" stroke-linecap="butt" stroke-linejoin="miter" stroke-miterlimit="2" stroke-opacity="1" stroke-width="0.345" transform="matrix(0.566123,0,0,0.566123,171.014,52.1739)"><text fill="#000000" fill-opacity="1" font-family="Liberation Sans" font-size="36" font-style="normal" font-weight="400" stroke="none" textLength="47" x="-61.4375" xml:space="preserve" y="16">PY</text></g><defs><clipPath id="clip35"><path d="M-266,-236 L16,-236 L16,81 L-266,81 L-266,-236 z"/></clipPath></defs><g clip-path="url(#clip35)" fill="none" opacity="1" stroke="#000000" stroke-linecap="butt" stroke-linejoin="miter" stroke-miterlimit="2" stroke-opacity="1" stroke-width="0.345" transform="matrix(0.566123,0,0,0.566123,171.014,139.13)"><text fill="#000000" fill-opacity="1" font-family="Liberation Sans" font-size="36" font-style="normal" font-weight="400" stroke="none" textLength="50" x="-63.9688" xml:space="preserve" y="16">PD</text></g><defs><clipPath id="clip37"><path d="M84,59 L139,59 L139,121 L84,121 L84,59 z"/></clipPath></defs><g clip-path="url(#clip37)" fill="none" opacity="1" stroke="#000000" stroke-linecap="butt" stroke-linejoin="miter" stroke-miterlimit="2" stroke-opacity="1" stroke-width="0.345" transform="matrix(2.89855,0,0,2.89855,-224.638,-163.768)"><polyline fill="none" points="127,93 118,93" vector-effect="none"/></g><defs><clipPath id="clip38"><path d="M84,59 L139,59 L139,121 L84,121 L84,59 z"/></clipPath></defs><g clip-path="url(#clip38)" fill="none" opacity="1" stroke="#000000" stroke-linecap="butt" stroke-linejoin="miter" stroke-miterlimit="2" stroke-opacity="1" stroke-width="0.345" transform="matrix(2.89855,0,0,2.89855,-224.638,-163.768)"><polyline fill="none" points="118,93 118,82" vector-effect="none"/></g><defs><clipPath id="clip39"><path d="M84,59 L139,59 L139,121 L84,121 L84,59 z"/></clipPath></defs><g clip-path="url(#clip39)" fill="none" opacity="1" stroke="#000000" stroke-linecap="butt" stroke-linejoin="miter" stroke-miterlimit="2" stroke-opacity="1" stroke-width="0.345" transform="matrix(2.89855,0,0,2.89855,-224.638,-163.768)"><polyline fill="none" points="118,82 111,82" vector-effect="none"/></g><defs><clipPath id="clip40"><path d="M84,59 L139,59 L139,121 L84,121 L84,59 z"/></clipPath></defs><g clip-path="url(#clip40)" fill="none" opacity="1" stroke="#000000" stroke-linecap="butt" stroke-linejoin="miter" stroke-miterlimit="2" stroke-opacity="1" stroke-width="0.345" transform="matrix(2.89855,0,0,2.89855,-224.638,-163.768)"><polyline fill="none" points="111,82 111,93" vector-effect="none"/></g><defs><clipPath id="clip41"><path d="M84,59 L139,59 L139,121 L84,121 L84,59 z"/></clipPath></defs><g clip-path="url(#clip41)" fill="none" opacity="1" stroke="#000000" stroke-linecap="butt" stroke-linejoin="miter" stroke-miterlimit="2" stroke-opacity="1" stroke-width="0.345" transform="matrix(2.89855,0,0,2.89855,-224.638,-163.768)"><polyline fill="none" points="111,93 103,93" vector-effect="none"/></g><defs><clipPath id="clip46"><path d="M-7,-2 L62,-2 L62,64 L-7,64 L-7,-2 z"/></clipPath></defs><g clip-path="url(#clip46)" fill="none" opacity="1" stroke="#000000" stroke-linecap="butt" stroke-linejoin="miter" stroke-miterlimit="2" stroke-opacity="1" stroke-width="0.653323" transform="matrix(2.89855,0,0,2.89855,20.2899,5.7971)"><path d="M0,0 L55,0 L55,62 L0,62 L0,0 z" fill-rule="evenodd" vector-effect="none"/></g></g></svg>
