<?xml version="1.0" encoding="UTF-8"?><svg width="52.9167mm" height="50.5354mm" viewBox="0 0 200 191" xmlns="http://www.w3.org/2000/svg" xmlns:xlink="http://www.w3.org/1999/xlink"><g fill="none" stroke="black" stroke-width="1" fill-rule="evenodd" stroke-linecap="square" stroke-linejoin="bevel"><g clip-path="none" fill="none" opacity="1" stroke="none" stroke-opacity="0" transform="matrix(1,0,0,1,0,0)"><path d="M0,0 L200,0 L200,191 L0,191 L0,0 z" fill-rule="evenodd" vector-effect="none"/></g><defs><clipPath id="clip3"><path d="M-62,-33 L7,-33 L7,33 L-62,33 L-62,-33 z"/></clipPath></defs><g clip-path="url(#clip3)" fill="none" opacity="1" stroke="#000000" stroke-linecap="round" stroke-linejoin="miter" stroke-miterlimit="2" stroke-opacity="1" stroke-width="2" transform="matrix(2.89855,0,0,2.89855,179.71,95.6522)"><path d="M0,-5 L5,0 L0,5" fill-rule="evenodd" vector-effect="none"/></g><defs><clipPath id="clip6"><path d="M7,53 L-62,53 L-62,-13 L7,-13 L7,53 z"/></clipPath></defs><g clip-path="url(#clip6)" fill="none" opacity="1" stroke="#000000" stroke-linecap="round" stroke-linejoin="miter" stroke-miterlimit="2" stroke-opacity="1" stroke-width="2" transform="matrix(-2.89855,0,0,-2.89855,20.2899,153.623)"><path d="M5,-5 L0,0 L5,5" fill-rule="evenodd" vector-effect="none"/></g><defs><clipPath id="clip9"><path d="M7,33 L-62,33 L-62,-33 L7,-33 L7,33 z"/></clipPath></defs><g clip-path="url(#clip9)" fill="none" opacity="1" stroke="#000000" stroke-linecap="round" stroke-linejoin="miter" stroke-miterlimit="2" stroke-opacity="1" stroke-width="2" transform="matrix(-2.89855,0,0,-2.89855,20.2899,95.6522)"><path d="M5,-5 L0,0 L5,5" fill-rule="evenodd" vector-effect="none"/></g><defs><clipPath id="clip12"><path d="M7,13 L-62,13 L-62,-53 L7,-53 L7,13 z"/></clipPath></defs><g clip-path="url(#clip12)" fill="none" opacity="1" stroke="#000000" stroke-linecap="round" stroke-linejoin="miter" stroke-miterlimit="2" stroke-opacity="1" stroke-width="2" transform="matrix(-2.89855,0,0,-2.89855,20.2899,37.6812)"><path d="M5,-5 L0,0 L5,5" fill-rule="evenodd" vector-effect="none"/></g><defs><clipPath id="clip15"><path d="M-7,-2 L62,-2 L62,64 L-7,64 L-7,-2 z"/></clipPath></defs><g clip-path="url(#clip15)" fill="#ffffff" fill-opacity="1" opacity="1" stroke="none" stroke-opacity="0" transform="matrix(2.89855,0,0,2.89855,20.2899,5.7971)"><path d="M0,0 L55,0 L55,62 L0,62 L0,0 z" fill-rule="evenodd" vector-effect="none"/></g><defs><clipPath id="clip20"><path d="M-15,-56 L267,-56 L267,261 L-15,261 L-15,-56 z"/></clipPath></defs><g clip-path="url(#clip20)" fill="none" opacity="1" stroke="#000000" stroke-linecap="butt" stroke-linejoin="miter" stroke-miterlimit="2" stroke-opacity="1" stroke-width="0.345" transform="matrix(0.566123,0,0,0.566123,28.9855,37.6812)"><text fill="#000000" fill-opacity="1" font-family="Liberation Sans" font-size="36" font-style="normal" font-weight="400" stroke="none" textLength="86" x="0" xml:space="preserve" y="16">alpha</text></g><defs><clipPath id="clip23"><path d="M-15,-159 L267,-159 L267,158 L-15,158 L-15,-159 z"/></clipPath></defs><g clip-path="url(#clip23)" fill="none" opacity="1" stroke="#000000" stroke-linecap="butt" stroke-linejoin="miter" stroke-miterlimit="2" stroke-opacity="1" stroke-width="0.345" transform="matrix(0.566123,0,0,0.566123,28.9855,95.6522)"><text fill="#000000" fill-opacity="1" font-family="Liberation Sans" font-size="36" font-style="normal" font-weight="400" stroke="none" textLength="35" x="0" xml:space="preserve" y="16">wt</text></g><defs><clipPath id="clip26"><path d="M-15,-261 L267,-261 L267,56 L-15,56 L-15,-261 z"/></clipPath></defs><g clip-path="url(#clip26)" fill="none" opacity="1" stroke="#000000" stroke-linecap="butt" stroke-linejoin="miter" stroke-miterlimit="2" stroke-opacity="1" stroke-width="0.345" transform="matrix(0.566123,0,0,0.566123,28.9855,153.623)"><text fill="#000000" fill-opacity="1" font-family="Liberation Sans" font-size="36" font-style="normal" font-weight="400" stroke="none" textLength="88" x="0" xml:space="preserve" y="16">Block</text></g><defs><clipPath id="clip29"><path d="M-266,-159 L16,-159 L16,158 L-266,158 L-266,-159 z"/></clipPath></defs><g clip-path="url(#clip29)" fill="none" opacity="1" stroke="#000000" stroke-linecap="butt" stroke-linejoin="miter" stroke-miterlimit="2" stroke-opacity="1" stroke-width="0.345" transform="matrix(0.566123,0,0,0.566123,171.014,95.6522)"><text fill="#000000" fill-opacity="1" font-family="Liberation Sans" font-size="36" font-style="normal" font-weight="400" stroke="none" textLength="24" x="-30.7188" xml:space="preserve" y="16">P</text></g><defs><clipPath id="clip31"><path d="M190,59 L245,59 L245,121 L190,121 L190,59 z"/></clipPath></defs><g clip-path="url(#clip31)" fill="none" opacity="1" stroke="#000000" stroke-linecap="butt" stroke-linejoin="miter" stroke-miterlimit="2" stroke-opacity="1" stroke-width="0.345" transform="matrix(2.89855,0,0,2.89855,-528.986,-163.768)"><polyline fill="none" points="232,93 223,93" vector-effect="none"/></g><defs><clipPath id="clip32"><path d="M190,59 L245,59 L245,121 L190,121 L190,59 z"/></clipPath></defs><g clip-path="url(#clip32)" fill="none" opacity="1" stroke="#000000" stroke-linecap="butt" stroke-linejoin="miter" stroke-miterlimit="2" stroke-opacity="1" stroke-width="0.345" transform="matrix(2.89855,0,0,2.89855,-528.986,-163.768)"><polyline fill="none" points="223,93 223,82" vector-effect="none"/></g><defs><clipPath id="clip33"><path d="M190,59 L245,59 L245,121 L190,121 L190,59 z"/></clipPath></defs><g clip-path="url(#clip33)" fill="none" opacity="1" stroke="#000000" stroke-linecap="butt" stroke-linejoin="miter" stroke-miterlimit="2" stroke-opacity="1" stroke-width="0.345" transform="matrix(2.89855,0,0,2.89855,-528.986,-163.768)"><polyline fill="none" points="223,82 216,82" vector-effect="none"/></g><defs><clipPath id="clip34"><path d="M190,59 L245,59 L245,121 L190,121 L190,59 z"/></clipPath></defs><g clip-path="url(#clip34)" fill="none" opacity="1" stroke="#000000" stroke-linecap="butt" stroke-linejoin="miter" stroke-miterlimit="2" stroke-opacity="1" stroke-width="0.345" transform="matrix(2.89855,0,0,2.89855,-528.986,-163.768)"><polyline fill="none" points="216,82 216,93" vector-effect="none"/></g><defs><clipPath id="clip35"><path d="M190,59 L245,59 L245,121 L190,121 L190,59 z"/></clipPath></defs><g clip-path="url(#clip35)" fill="none" opacity="1" stroke="#000000" stroke-linecap="butt" stroke-linejoin="miter" stroke-miterlimit="2" stroke-opacity="1" stroke-width="0.345" transform="matrix(2.89855,0,0,2.89855,-528.986,-163.768)"><polyline fill="none" points="216,93 208,93" vector-effect="none"/></g><defs><clipPath id="clip40"><path d="M-7,-2 L62,-2 L62,64 L-7,64 L-7,-2 z"/></clipPath></defs><g clip-path="url(#clip40)" fill="none" opacity="1" stroke="#000000" stroke-linecap="butt" stroke-linejoin="miter" stroke-miterlimit="2" stroke-opacity="1" stroke-width="0.653323" transform="matrix(2.89855,0,0,2.89855,20.2899,5.7971)"><path d="M0,0 L55,0 L55,62 L0,62 L0,0 z" fill-rule="evenodd" vector-effect="none"/></g></g></svg>
