<?xml version="1.0" encoding="UTF-8"?><svg width="52.9167mm" height="32.0146mm" viewBox="0 0 200 121" xmlns="http://www.w3.org/2000/svg" xmlns:xlink="http://www.w3.org/1999/xlink"><g fill="none" stroke="black" stroke-width="1" fill-rule="evenodd" stroke-linecap="square" stroke-linejoin="bevel"><g clip-path="none" fill="none" opacity="1" stroke="none" stroke-opacity="0" transform="matrix(1,0,0,1,0,0)"><path d="M0,0 L200,0 L200,121 L0,121 L0,0 z" fill-rule="evenodd" vector-effect="none"/></g><defs><clipPath id="clip3"><path d="M-57,-22 L7,-22 L7,17 L-57,17 L-57,-22 z"/></clipPath></defs><g clip-path="url(#clip3)" fill="none" opacity="1" stroke="#000000" stroke-linecap="round" stroke-linejoin="miter" stroke-miterlimit="2" stroke-opacity="1" stroke-width="2" transform="matrix(3.125,0,0,3.125,178.125,68.75)"><path d="M0,-5 L5,0 L0,5" fill-rule="evenodd" vector-effect="none"/></g><defs><clipPath id="clip6"><path d="M7,27 L-57,27 L-57,-12 L7,-12 L7,27 z"/></clipPath></defs><g clip-path="url(#clip6)" fill="none" opacity="1" stroke="#000000" stroke-linecap="round" stroke-linejoin="miter" stroke-miterlimit="2" stroke-opacity="1" stroke-width="2" transform="matrix(-3.125,0,0,-3.125,21.875,84.375)"><path d="M5,-5 L0,0 L5,5" fill-rule="evenodd" vector-effect="none"/></g><defs><clipPath id="clip9"><path d="M7,12 L-57,12 L-57,-27 L7,-27 L7,12 z"/></clipPath></defs><g clip-path="url(#clip9)" fill="none" opacity="1" stroke="#000000" stroke-linecap="round" stroke-linejoin="miter" stroke-miterlimit="2" stroke-opacity="1" stroke-width="2" transform="matrix(-3.125,0,0,-3.125,21.875,37.5)"><path d="M5,-5 L0,0 L5,5" fill-rule="evenodd" vector-effect="none"/></g><defs><clipPath id="clip12"><path d="M-7,-2 L57,-2 L57,37 L-7,37 L-7,-2 z"/></clipPath></defs><g clip-path="url(#clip12)" fill="#ffffff" fill-opacity="1" opacity="1" stroke="none" stroke-opacity="0" transform="matrix(3.125,0,0,3.125,21.875,6.25)"><path d="M0,0 L50,0 L50,35 L0,35 L0,0 z" fill-rule="evenodd" vector-effect="none"/></g><defs><clipPath id="clip16"><path d="M110,255 L160,255 L160,290 L110,290 L110,255 z"/></clipPath></defs><g clip-path="url(#clip16)" fill="none" opacity="1" stroke="#000000" stroke-linecap="butt" stroke-linejoin="miter" stroke-miterlimit="2" stroke-opacity="1" stroke-width="0.32" transform="matrix(3.125,0,0,3.125,-320.312,-789.062)"><polyline fill="none" points="113,287 157,258" vector-effect="none"/></g><defs><clipPath id="clip18"><path d="M-15,-51 L241,-51 L241,128 L-15,128 L-15,-51 z"/></clipPath></defs><g clip-path="url(#clip18)" fill="none" opacity="1" stroke="#000000" stroke-linecap="butt" stroke-linejoin="miter" stroke-miterlimit="2" stroke-opacity="1" stroke-width="0.32" transform="matrix(0.610352,0,0,0.610352,31.25,37.5)"><text fill="#000000" fill-opacity="1" font-family="Liberation Sans" font-size="40" font-style="normal" font-weight="400" stroke="none" textLength="66" x="0" xml:space="preserve" y="17.9219">dq0</text></g><defs><clipPath id="clip21"><path d="M-15,-128 L241,-128 L241,51 L-15,51 L-15,-128 z"/></clipPath></defs><g clip-path="url(#clip21)" fill="none" opacity="1" stroke="#000000" stroke-linecap="butt" stroke-linejoin="miter" stroke-miterlimit="2" stroke-opacity="1" stroke-width="0.32" transform="matrix(0.610352,0,0,0.610352,31.25,84.375)"><text fill="#000000" fill-opacity="1" font-family="Liberation Sans" font-size="40" font-style="normal" font-weight="400" stroke="none" textLength="40" x="0" xml:space="preserve" y="17.9219">wt</text></g><defs><clipPath id="clip24"><path d="M-241,-102 L15,-102 L15,77 L-241,77 L-241,-102 z"/></clipPath></defs><g clip-path="url(#clip24)" fill="none" opacity="1" stroke="#000000" stroke-linecap="butt" stroke-linejoin="miter" stroke-miterlimit="2" stroke-opacity="1" stroke-width="0.32" transform="matrix(0.610352,0,0,0.610352,168.75,68.75)"><text fill="#000000" fill-opacity="1" font-family="Liberation Sans" font-size="40" font-style="normal" font-weight="400" stroke="none" textLength="64" x="-82.5156" xml:space="preserve" y="17.9219">abc</text></g><defs><clipPath id="clip30"><path d="M-7,-2 L57,-2 L57,37 L-7,37 L-7,-2 z"/></clipPath></defs><g clip-path="url(#clip30)" fill="none" opacity="1" stroke="#000000" stroke-linecap="butt" stroke-linejoin="miter" stroke-miterlimit="2" stroke-opacity="1" stroke-width="0.633957" transform="matrix(3.125,0,0,3.125,21.875,6.25)"><path d="M0,0 L50,0 L50,35 L0,35 L0,0 z" fill-rule="evenodd" vector-effect="none"/></g></g></svg>
