<?xml version="1.0" encoding="UTF-8"?><svg width="52.9167mm" height="44.9792mm" viewBox="0 0 200 170" xmlns="http://www.w3.org/2000/svg" xmlns:xlink="http://www.w3.org/1999/xlink"><g fill="none" stroke="black" stroke-width="1" fill-rule="evenodd" stroke-linecap="square" stroke-linejoin="bevel"><g clip-path="none" fill="none" opacity="1" stroke="none" stroke-opacity="0" transform="matrix(1,0,0,1,0,0)"><path d="M0,0 L200,0 L200,170 L0,170 L0,0 z" fill-rule="evenodd" vector-effect="none"/></g><defs><clipPath id="clip3"><path d="M7,20 L-40,20 L-40,-20 L7,-20 L7,20 z"/></clipPath></defs><g clip-path="url(#clip3)" fill="none" opacity="1" stroke="#000000" stroke-linecap="round" stroke-linejoin="miter" stroke-miterlimit="2" stroke-opacity="1" stroke-width="2" transform="matrix(-4.25532,0,0,-4.25532,29.7872,85.1064)"><path d="M5,-5 L0,0 L5,5" fill-rule="evenodd" vector-effect="none"/></g><defs><clipPath id="clip9"><path d="M0,0 L10,0 L10,10 L0,10 L0,0 z"/></clipPath></defs><g clip-path="url(#clip9)" fill="#ffffff" fill-opacity="1" opacity="1" stroke="none" stroke-opacity="0" transform="matrix(4.25532,0,0,4.25532,157.447,68.0851)"><path d="M0.5,0.809 L8.882,5 L0.5,9.191 L0.5,0.809 z" fill-rule="evenodd" vector-effect="none"/></g><defs><clipPath id="clip11"><path d="M0,0 L10,0 L10,10 L0,10 L0,0 z"/></clipPath></defs><g clip-path="url(#clip11)" fill="#000000" fill-opacity="1" opacity="1" stroke="none" stroke-opacity="0" transform="matrix(4.25532,0,0,4.25532,157.447,68.0851)"><path d="M1,1.618 L7.764,5 L1,8.382 L1,1.618 M0,0 L0,10 L10,5 L0,0" fill-rule="nonzero" vector-effect="none"/></g><defs><clipPath id="clip30"><path d="M-7,-2 L40,-2 L40,38 L-7,38 L-7,-2 z"/></clipPath></defs><g clip-path="url(#clip30)" fill="#ffffff" fill-opacity="1" opacity="1" stroke="none" stroke-opacity="0" transform="matrix(4.25532,0,0,4.25532,29.7872,8.51064)"><path d="M0,0 L30,0 L30,36 L0,36 L0,0 z" fill-rule="evenodd" vector-effect="none"/></g><defs><clipPath id="clip34"><path d="M275,27 L305,27 L305,63 L275,63 L275,27 z"/></clipPath></defs><g clip-path="url(#clip34)" fill="none" opacity="1" stroke="#000000" stroke-linecap="butt" stroke-linejoin="miter" stroke-miterlimit="2" stroke-opacity="1" stroke-width="0.235" transform="matrix(4.25532,0,0,4.25532,-1138.3,-104.255)"><polyline fill="none" points="280,55 297,55" vector-effect="none"/></g><defs><clipPath id="clip35"><path d="M275,27 L305,27 L305,63 L275,63 L275,27 z"/></clipPath></defs><g clip-path="url(#clip35)" fill="#000000" fill-opacity="1" opacity="1" stroke="#000000" stroke-linecap="butt" stroke-linejoin="miter" stroke-miterlimit="2" stroke-opacity="1" stroke-width="0.235" transform="matrix(4.25532,0,0,4.25532,-1140.43,-106.383)"><path d="M294,59 L301,55 L294,52 L294,59 z" fill-rule="evenodd" vector-effect="none"/></g><defs><clipPath id="clip37"><path d="M-15,-92 L139,-92 L139,92 L-15,92 L-15,-92 z"/></clipPath></defs><g clip-path="url(#clip37)" fill="#000000" fill-opacity="1" opacity="1" stroke="#000000" stroke-linecap="butt" stroke-linejoin="miter" stroke-miterlimit="2" stroke-opacity="1" stroke-width="0.235" transform="matrix(0.831117,0,0,0.831117,42.5532,85.1064)"><text fill="#000000" fill-opacity="1" font-family="Liberation Sans" font-size="40" font-style="normal" font-weight="400" stroke="none" textLength="27" x="0" xml:space="preserve" y="17.9219">S</text></g><defs><clipPath id="clip40"><path d="M-138,-92 L16,-92 L16,92 L-138,92 L-138,-92 z"/></clipPath></defs><g clip-path="url(#clip40)" fill="#000000" fill-opacity="1" opacity="1" stroke="#000000" stroke-linecap="butt" stroke-linejoin="miter" stroke-miterlimit="2" stroke-opacity="1" stroke-width="0.235" transform="matrix(0.831117,0,0,0.831117,144.681,85.1064)"><text fill="#000000" fill-opacity="1" font-family="Liberation Sans" font-size="40" font-style="normal" font-weight="400" stroke="none" textLength="54" x="-68.2656" xml:space="preserve" y="17.9219">PS</text></g><defs><clipPath id="clip46"><path d="M-7,-2 L40,-2 L40,38 L-7,38 L-7,-2 z"/></clipPath></defs><g clip-path="url(#clip46)" fill="none" opacity="1" stroke="#000000" stroke-linecap="butt" stroke-linejoin="miter" stroke-miterlimit="2" stroke-opacity="1" stroke-width="0.560308" transform="matrix(4.25532,0,0,4.25532,29.7872,8.51064)"><path d="M0,0 L30,0 L30,36 L0,36 L0,0 z" fill-rule="evenodd" vector-effect="none"/></g></g></svg>
