<?xml version="1.0" encoding="UTF-8"?><svg width="52.9167mm" height="29.3687mm" viewBox="0 0 200 111" xmlns="http://www.w3.org/2000/svg" xmlns:xlink="http://www.w3.org/1999/xlink"><g fill="none" stroke="black" stroke-width="1" fill-rule="evenodd" stroke-linecap="square" stroke-linejoin="bevel"><g clip-path="none" fill="none" opacity="1" stroke="none" stroke-opacity="0" transform="matrix(1,0,0,1,0,0)"><path d="M0,0 L200,0 L200,111 L0,111 L0,0 z" fill-rule="evenodd" vector-effect="none"/></g><defs><clipPath id="clip3"><path d="M-2,-2 L86,-2 L86,47 L-2,47 L-2,-2 z"/></clipPath></defs><g clip-path="url(#clip3)" fill="#ff42d1" fill-opacity="1" opacity="1" stroke="none" stroke-opacity="0" transform="matrix(2.27273,0,0,2.27273,4.54545,4.54545)"><path d="M0,0 L84,0 L84,45 L0,45 L0,0 z" fill-rule="evenodd" vector-effect="none"/></g><defs><clipPath id="clip8"><path d="M-215,-82 L215,-82 L215,148 L-215,148 L-215,-82 z"/></clipPath></defs><g clip-path="url(#clip8)" fill="none" opacity="1" stroke="#000000" stroke-linecap="butt" stroke-linejoin="miter" stroke-miterlimit="2" stroke-opacity="1" stroke-width="0.44" transform="matrix(0.443892,0,0,0.443892,100,40.9091)"><text fill="#000000" fill-opacity="1" font-family="Liberation Serif" font-size="48" font-style="normal" font-weight="700" stroke="none" textLength="148" x="-93.8281" xml:space="preserve" y="21.125">System</text></g><defs><clipPath id="clip11"><path d="M-215,-148 L215,-148 L215,82 L-215,82 L-215,-148 z"/></clipPath></defs><g clip-path="url(#clip11)" fill="none" opacity="1" stroke="#000000" stroke-linecap="butt" stroke-linejoin="miter" stroke-miterlimit="2" stroke-opacity="1" stroke-width="0.44" transform="matrix(0.443892,0,0,0.443892,100,70.4545)"><text fill="#000000" fill-opacity="1" font-family="Liberation Serif" font-size="48" font-style="normal" font-weight="700" stroke="none" textLength="179" x="-116" xml:space="preserve" y="21.125">Initialize</text></g><defs><clipPath id="clip17"><path d="M-2,-2 L86,-2 L86,47 L-2,47 L-2,-2 z"/></clipPath></defs><g clip-path="url(#clip17)" fill="none" opacity="1" stroke="#000000" stroke-linecap="butt" stroke-linejoin="miter" stroke-miterlimit="2" stroke-opacity="1" stroke-width="0.720081" transform="matrix(2.27273,0,0,2.27273,4.54545,4.54545)"><path d="M0,0 L84,0 L84,45 L0,45 L0,0 z" fill-rule="evenodd" vector-effect="none"/></g></g></svg>
