<?xml version="1.0" encoding="UTF-8"?><svg width="52.9167mm" height="44.9792mm" viewBox="0 0 200 170" xmlns="http://www.w3.org/2000/svg" xmlns:xlink="http://www.w3.org/1999/xlink"><g fill="none" stroke="black" stroke-width="1" fill-rule="evenodd" stroke-linecap="square" stroke-linejoin="bevel"><g clip-path="none" fill="none" opacity="1" stroke="none" stroke-opacity="0" transform="matrix(1,0,0,1,0,0)"><path d="M0,0 L200,0 L200,170 L0,170 L0,0 z" fill-rule="evenodd" vector-effect="none"/></g><defs><clipPath id="clip3"><path d="M-27,-12 L7,-12 L7,17 L-27,17 L-27,-12 z"/></clipPath></defs><g clip-path="url(#clip3)" fill="none" opacity="1" stroke="#000000" stroke-linecap="round" stroke-linejoin="miter" stroke-miterlimit="2" stroke-opacity="1" stroke-width="2" transform="matrix(5.88235,0,0,5.88235,158.824,70.5882)"><path d="M0,-5 L5,0 L0,5" fill-rule="evenodd" vector-effect="none"/></g><defs><clipPath id="clip6"><path d="M7,12 L-27,12 L-27,-17 L7,-17 L7,12 z"/></clipPath></defs><g clip-path="url(#clip6)" fill="none" opacity="1" stroke="#000000" stroke-linecap="round" stroke-linejoin="miter" stroke-miterlimit="2" stroke-opacity="1" stroke-width="2" transform="matrix(-5.88235,0,0,-5.88235,41.1765,70.5882)"><path d="M5,-5 L0,0 L5,5" fill-rule="evenodd" vector-effect="none"/></g><defs><clipPath id="clip9"><path d="M-22,17 L-22,-17 L7,-17 L7,17 L-22,17 z"/></clipPath></defs><g clip-path="url(#clip9)" fill="none" opacity="1" stroke="#000000" stroke-linecap="round" stroke-linejoin="miter" stroke-miterlimit="2" stroke-opacity="1" stroke-width="2" transform="matrix(-1.08054e-15,5.88235,-5.88235,-1.08054e-15,100,129.412)"><path d="M5,-5 L0,0 L5,5" fill-rule="evenodd" vector-effect="none"/></g><defs><clipPath id="clip12"><path d="M-7,-2 L27,-2 L27,27 L-7,27 L-7,-2 z"/></clipPath></defs><g clip-path="url(#clip12)" fill="#ffffff" fill-opacity="1" opacity="1" stroke="none" stroke-opacity="0" transform="matrix(5.88235,0,0,5.88235,41.1765,11.7647)"><path d="M20,10 C20,15.5228 15.5228,20 10,20 C4.47715,20 0,15.5228 0,10 C0,4.47715 4.47715,0 10,0 C15.5228,0 20,4.47715 20,10 z" fill-rule="nonzero" vector-effect="none"/></g><defs><clipPath id="clip16"><path d="M20,199 L40,199 L40,219 L20,219 L20,199 z"/></clipPath></defs><g clip-path="url(#clip16)" fill="none" opacity="1" stroke="#000000" stroke-linecap="butt" stroke-linejoin="miter" stroke-miterlimit="2" stroke-opacity="1" stroke-width="0.17" transform="matrix(5.88235,0,0,5.88235,-73.5294,-1161.76)"><polyline fill="none" points="23,210 27,210" vector-effect="none"/></g><defs><clipPath id="clip17"><path d="M20,199 L40,199 L40,219 L20,219 L20,199 z"/></clipPath></defs><g clip-path="url(#clip17)" fill="none" opacity="1" stroke="#000000" stroke-linecap="butt" stroke-linejoin="miter" stroke-miterlimit="2" stroke-opacity="1" stroke-width="0.17" transform="matrix(5.88235,0,0,5.88235,-73.5294,-1161.76)"><polyline fill="none" points="25,208 25,212" vector-effect="none"/></g><defs><clipPath id="clip18"><path d="M20,199 L40,199 L40,219 L20,219 L20,199 z"/></clipPath></defs><g clip-path="url(#clip18)" fill="none" opacity="1" stroke="#000000" stroke-linecap="butt" stroke-linejoin="miter" stroke-miterlimit="2" stroke-opacity="1" stroke-width="0.17" transform="matrix(5.88235,0,0,5.88235,-73.5294,-1161.76)"><polyline fill="none" points="28,215 32,215" vector-effect="none"/></g><defs><clipPath id="clip19"><path d="M20,199 L40,199 L40,219 L20,219 L20,199 z"/></clipPath></defs><g clip-path="url(#clip19)" fill="none" opacity="1" stroke="#000000" stroke-linecap="butt" stroke-linejoin="miter" stroke-miterlimit="2" stroke-opacity="1" stroke-width="0.17" transform="matrix(5.88235,0,0,5.88235,-73.5294,-1161.76)"><polyline fill="none" points="30,213 30,217" vector-effect="none"/></g><defs><clipPath id="clip24"><path d="M-7,-2 L27,-2 L27,27 L-7,27 L-7,-2 z"/></clipPath></defs><g clip-path="url(#clip24)" fill="none" opacity="1" stroke="#000000" stroke-linecap="butt" stroke-linejoin="miter" stroke-miterlimit="2" stroke-opacity="1" stroke-width="0.492243" transform="matrix(5.88235,0,0,5.88235,41.1765,11.7647)"><path d="M20,10 C20,15.5228 15.5228,20 10,20 C4.47715,20 0,15.5228 0,10 C0,4.47715 4.47715,0 10,0 C15.5228,0 20,4.47715 20,10 z" fill-rule="nonzero" vector-effect="none"/></g></g></svg>
