<?xml version="1.0" encoding="UTF-8"?><svg width="52.9167mm" height="30.9562mm" viewBox="0 0 200 117" xmlns="http://www.w3.org/2000/svg" xmlns:xlink="http://www.w3.org/1999/xlink"><g fill="none" stroke="black" stroke-width="1" fill-rule="evenodd" stroke-linecap="square" stroke-linejoin="bevel"><g clip-path="none" fill="none" opacity="1" stroke="none" stroke-opacity="0" transform="matrix(1,0,0,1,0,0)"><path d="M0,0 L200,0 L200,117 L0,117 L0,0 z" fill-rule="evenodd" vector-effect="none"/></g><defs><clipPath id="clip5"><path d="M-2,-17 L102,-17 L102,44 L-2,44 L-2,-17 z"/></clipPath></defs><g clip-path="url(#clip5)" fill="#ffffff" fill-opacity="1" opacity="1" stroke="none" stroke-opacity="0" transform="matrix(1.92308,0,0,1.92308,3.84615,32.6923)"><path d="M0,0 L100,0 L100,42 L0,42 L0,0 z" fill-rule="evenodd" vector-effect="none"/></g><defs><clipPath id="clip13"><path d="M-2,-17 L102,-17 L102,44 L-2,44 L-2,-17 z"/></clipPath></defs><g clip-path="url(#clip13)" fill="none" opacity="1" stroke="#000000" stroke-linecap="butt" stroke-linejoin="miter" stroke-miterlimit="2" stroke-opacity="1" stroke-width="0.769842" transform="matrix(1.92308,0,0,1.92308,3.84615,32.6923)"><path d="M0,0 L100,0 L100,42 L0,42 L0,0 z" fill-rule="evenodd" vector-effect="none"/></g><defs><clipPath id="clip16"><path d="M-2,-17 L102,-17 L102,44 L-2,44 L-2,-17 z"/></clipPath></defs><g clip-path="url(#clip16)" fill="none" opacity="1" stroke="#000000" stroke-linecap="butt" stroke-linejoin="miter" stroke-miterlimit="2" stroke-opacity="1" stroke-width="0.52" transform="matrix(1.92308,0,0,1.92308,3.84615,32.6923)"><polyline fill="none" points="52,0 52,-15" vector-effect="none"/></g><defs><clipPath id="clip19"><path d="M-55,-2 L49,-2 L49,59 L-55,59 L-55,-2 z"/></clipPath></defs><g clip-path="url(#clip19)" fill="#000000" fill-opacity="1" opacity="1" stroke="#000000" stroke-linecap="butt" stroke-linejoin="miter" stroke-miterlimit="2" stroke-opacity="1" stroke-width="0.52" transform="matrix(1.92308,0,0,1.92308,105.769,3.84615)"><path d="M2,3 C2,4.65685 0.656854,6 -1,6 C-2.65685,6 -4,4.65685 -4,3 C-4,1.34315 -2.65685,0 -1,0 C0.656854,0 2,1.34315 2,3 z" fill-rule="evenodd" vector-effect="none"/></g><defs><clipPath id="clip22"><path d="M-39.4766,-19 L64.5234,-19 L64.5234,42 L-39.4766,42 L-39.4766,-19 z"/></clipPath></defs><g clip-path="url(#clip22)" fill="none" opacity="1" stroke="none" stroke-opacity="0" transform="matrix(1.92308,0,0,1.92308,75.9165,36.5385)"><path d="M0,0 L35.0469,0 L35.0469,15.5078 L0,15.5078 L0,0 z" fill-rule="evenodd" vector-effect="none"/></g><defs><clipPath id="clip26"><path d="M0,0 L140,0 L140,62 L0,62 L0,0 z"/></clipPath></defs><g clip-path="url(#clip26)" fill="none" opacity="1" stroke="#14614e" stroke-linecap="square" stroke-linejoin="bevel" stroke-opacity="1" stroke-width="1" transform="matrix(0.480769,0,0,0.480769,75.9165,36.5385)"><text fill="#14614e" fill-opacity="1" font-family="Nimbus Sans L" font-size="40" font-style="normal" font-weight="700" stroke="none" textLength="132.188" x="4" xml:space="preserve" y="44">y = f(u)</text></g></g></svg>
