<?xml version="1.0" encoding="UTF-8"?><svg width="52.9167mm" height="52.9167mm" viewBox="0 0 200 200" xmlns="http://www.w3.org/2000/svg" xmlns:xlink="http://www.w3.org/1999/xlink"><g fill="none" stroke="black" stroke-width="1" fill-rule="evenodd" stroke-linecap="square" stroke-linejoin="bevel"><g clip-path="none" fill="none" opacity="1" stroke="none" stroke-opacity="0" transform="matrix(1,0,0,1,0,0)"><path d="M0,0 L200,0 L200,200 L0,200 L0,0 z" fill-rule="evenodd" vector-effect="none"/></g><defs><clipPath id="clip3"><path d="M-2,-2 L62,-2 L62,62 L-2,62 L-2,-2 z"/></clipPath></defs><g clip-path="url(#clip3)" fill="#e8d152" fill-opacity="1" opacity="1" stroke="none" stroke-opacity="0" transform="matrix(3.125,0,0,3.125,6.25,6.25)"><path d="M0,0 L60,0 L60,60 L0,60 L0,0 z" fill-rule="evenodd" vector-effect="none"/></g><defs><clipPath id="clip7"><path d="M20,20 L80,20 L80,80 L20,80 L20,20 z"/></clipPath></defs><g clip-path="url(#clip7)" fill="none" opacity="1" stroke="#000000" stroke-linecap="butt" stroke-linejoin="miter" stroke-miterlimit="2" stroke-opacity="1" stroke-width="0.32" transform="matrix(3.125,0,0,3.125,-54.6875,-54.6875)"><polyline fill="none" points="49,49 51,51" vector-effect="none"/></g><defs><clipPath id="clip8"><path d="M20,20 L80,20 L80,80 L20,80 L20,20 z"/></clipPath></defs><g clip-path="url(#clip8)" fill="none" opacity="1" stroke="#000000" stroke-linecap="butt" stroke-linejoin="miter" stroke-miterlimit="2" stroke-opacity="1" stroke-width="0.32" transform="matrix(3.125,0,0,3.125,-54.6875,-54.6875)"><polyline fill="none" points="51,51 51,49" vector-effect="none"/></g><defs><clipPath id="clip9"><path d="M20,20 L80,20 L80,80 L20,80 L20,20 z"/></clipPath></defs><g clip-path="url(#clip9)" fill="none" opacity="1" stroke="#000000" stroke-linecap="butt" stroke-linejoin="miter" stroke-miterlimit="2" stroke-opacity="1" stroke-width="0.32" transform="matrix(3.125,0,0,3.125,-54.6875,-54.6875)"><polyline fill="none" points="51,49 49,51" vector-effect="none"/></g><defs><clipPath id="clip10"><path d="M20,20 L80,20 L80,80 L20,80 L20,20 z"/></clipPath></defs><g clip-path="url(#clip10)" fill="none" opacity="1" stroke="#000000" stroke-linecap="butt" stroke-linejoin="miter" stroke-miterlimit="2" stroke-opacity="1" stroke-width="0.32" transform="matrix(3.125,0,0,3.125,-54.6875,-54.6875)"><polyline fill="none" points="49,51 51,49" vector-effect="none"/></g><defs><clipPath id="clip11"><path d="M20,20 L80,20 L80,80 L20,80 L20,20 z"/></clipPath></defs><g clip-path="url(#clip11)" fill="none" opacity="1" stroke="#000000" stroke-linecap="butt" stroke-linejoin="miter" stroke-miterlimit="2" stroke-opacity="1" stroke-width="0.32" transform="matrix(3.125,0,0,3.125,-54.6875,-54.6875)"><polyline fill="none" points="30,55 23,50" vector-effect="none"/></g><defs><clipPath id="clip12"><path d="M20,20 L80,20 L80,80 L20,80 L20,20 z"/></clipPath></defs><g clip-path="url(#clip12)" fill="none" opacity="1" stroke="#000000" stroke-linecap="butt" stroke-linejoin="miter" stroke-miterlimit="2" stroke-opacity="1" stroke-width="0.32" transform="matrix(3.125,0,0,3.125,-54.6875,-54.6875)"><polyline fill="none" points="23,50 30,45" vector-effect="none"/></g><defs><clipPath id="clip13"><path d="M20,20 L80,20 L80,80 L20,80 L20,20 z"/></clipPath></defs><g clip-path="url(#clip13)" fill="none" opacity="1" stroke="#000000" stroke-linecap="butt" stroke-linejoin="miter" stroke-miterlimit="2" stroke-opacity="1" stroke-width="0.32" transform="matrix(3.125,0,0,3.125,-54.6875,-54.6875)"><polyline fill="none" points="30,45 23,50" vector-effect="none"/></g><defs><clipPath id="clip14"><path d="M20,20 L80,20 L80,80 L20,80 L20,20 z"/></clipPath></defs><g clip-path="url(#clip14)" fill="none" opacity="1" stroke="#000000" stroke-linecap="butt" stroke-linejoin="miter" stroke-miterlimit="2" stroke-opacity="1" stroke-width="0.32" transform="matrix(3.125,0,0,3.125,-54.6875,-54.6875)"><polyline fill="none" points="23,50 43,50" vector-effect="none"/></g><defs><clipPath id="clip15"><path d="M20,20 L80,20 L80,80 L20,80 L20,20 z"/></clipPath></defs><g clip-path="url(#clip15)" fill="none" opacity="1" stroke="#000000" stroke-linecap="butt" stroke-linejoin="miter" stroke-miterlimit="2" stroke-opacity="1" stroke-width="0.32" transform="matrix(3.125,0,0,3.125,-54.6875,-54.6875)"><polyline fill="none" points="57,50 77,50" vector-effect="none"/></g><defs><clipPath id="clip16"><path d="M20,20 L80,20 L80,80 L20,80 L20,20 z"/></clipPath></defs><g clip-path="url(#clip16)" fill="none" opacity="1" stroke="#000000" stroke-linecap="butt" stroke-linejoin="miter" stroke-miterlimit="2" stroke-opacity="1" stroke-width="0.32" transform="matrix(3.125,0,0,3.125,-54.6875,-54.6875)"><polyline fill="none" points="77,50 70,55" vector-effect="none"/></g><defs><clipPath id="clip17"><path d="M20,20 L80,20 L80,80 L20,80 L20,20 z"/></clipPath></defs><g clip-path="url(#clip17)" fill="none" opacity="1" stroke="#000000" stroke-linecap="butt" stroke-linejoin="miter" stroke-miterlimit="2" stroke-opacity="1" stroke-width="0.32" transform="matrix(3.125,0,0,3.125,-54.6875,-54.6875)"><polyline fill="none" points="70,55 77,50" vector-effect="none"/></g><defs><clipPath id="clip18"><path d="M20,20 L80,20 L80,80 L20,80 L20,20 z"/></clipPath></defs><g clip-path="url(#clip18)" fill="none" opacity="1" stroke="#000000" stroke-linecap="butt" stroke-linejoin="miter" stroke-miterlimit="2" stroke-opacity="1" stroke-width="0.32" transform="matrix(3.125,0,0,3.125,-54.6875,-54.6875)"><polyline fill="none" points="77,50 70,45" vector-effect="none"/></g><defs><clipPath id="clip19"><path d="M20,20 L80,20 L80,80 L20,80 L20,20 z"/></clipPath></defs><g clip-path="url(#clip19)" fill="none" opacity="1" stroke="#000000" stroke-linecap="butt" stroke-linejoin="miter" stroke-miterlimit="2" stroke-opacity="1" stroke-width="0.32" transform="matrix(3.125,0,0,3.125,-54.6875,-54.6875)"><polyline fill="none" points="45,70 50,77" vector-effect="none"/></g><defs><clipPath id="clip20"><path d="M20,20 L80,20 L80,80 L20,80 L20,20 z"/></clipPath></defs><g clip-path="url(#clip20)" fill="none" opacity="1" stroke="#000000" stroke-linecap="butt" stroke-linejoin="miter" stroke-miterlimit="2" stroke-opacity="1" stroke-width="0.32" transform="matrix(3.125,0,0,3.125,-54.6875,-54.6875)"><polyline fill="none" points="50,77 55,70" vector-effect="none"/></g><defs><clipPath id="clip21"><path d="M20,20 L80,20 L80,80 L20,80 L20,20 z"/></clipPath></defs><g clip-path="url(#clip21)" fill="none" opacity="1" stroke="#000000" stroke-linecap="butt" stroke-linejoin="miter" stroke-miterlimit="2" stroke-opacity="1" stroke-width="0.32" transform="matrix(3.125,0,0,3.125,-54.6875,-54.6875)"><polyline fill="none" points="55,70 50,77" vector-effect="none"/></g><defs><clipPath id="clip22"><path d="M20,20 L80,20 L80,80 L20,80 L20,20 z"/></clipPath></defs><g clip-path="url(#clip22)" fill="none" opacity="1" stroke="#000000" stroke-linecap="butt" stroke-linejoin="miter" stroke-miterlimit="2" stroke-opacity="1" stroke-width="0.32" transform="matrix(3.125,0,0,3.125,-54.6875,-54.6875)"><polyline fill="none" points="50,77 50,57" vector-effect="none"/></g><defs><clipPath id="clip23"><path d="M20,20 L80,20 L80,80 L20,80 L20,20 z"/></clipPath></defs><g clip-path="url(#clip23)" fill="none" opacity="1" stroke="#000000" stroke-linecap="butt" stroke-linejoin="miter" stroke-miterlimit="2" stroke-opacity="1" stroke-width="0.32" transform="matrix(3.125,0,0,3.125,-54.6875,-54.6875)"><polyline fill="none" points="50,43 50,23" vector-effect="none"/></g><defs><clipPath id="clip24"><path d="M20,20 L80,20 L80,80 L20,80 L20,20 z"/></clipPath></defs><g clip-path="url(#clip24)" fill="none" opacity="1" stroke="#000000" stroke-linecap="butt" stroke-linejoin="miter" stroke-miterlimit="2" stroke-opacity="1" stroke-width="0.32" transform="matrix(3.125,0,0,3.125,-54.6875,-54.6875)"><polyline fill="none" points="50,23 45,30" vector-effect="none"/></g><defs><clipPath id="clip25"><path d="M20,20 L80,20 L80,80 L20,80 L20,20 z"/></clipPath></defs><g clip-path="url(#clip25)" fill="none" opacity="1" stroke="#000000" stroke-linecap="butt" stroke-linejoin="miter" stroke-miterlimit="2" stroke-opacity="1" stroke-width="0.32" transform="matrix(3.125,0,0,3.125,-54.6875,-54.6875)"><polyline fill="none" points="45,30 50,23" vector-effect="none"/></g><defs><clipPath id="clip26"><path d="M20,20 L80,20 L80,80 L20,80 L20,20 z"/></clipPath></defs><g clip-path="url(#clip26)" fill="none" opacity="1" stroke="#000000" stroke-linecap="butt" stroke-linejoin="miter" stroke-miterlimit="2" stroke-opacity="1" stroke-width="0.32" transform="matrix(3.125,0,0,3.125,-54.6875,-54.6875)"><polyline fill="none" points="50,23 55,30" vector-effect="none"/></g><defs><clipPath id="clip27"><path d="M20,20 L80,20 L80,80 L20,80 L20,20 z"/></clipPath></defs><g clip-path="url(#clip27)" fill="none" opacity="1" stroke="#000000" stroke-linecap="butt" stroke-linejoin="miter" stroke-miterlimit="2" stroke-opacity="1" stroke-width="0.32" transform="matrix(3.125,0,0,3.125,-54.6875,-54.6875)"><polyline fill="none" points="45,45 31,31" vector-effect="none"/></g><defs><clipPath id="clip28"><path d="M20,20 L80,20 L80,80 L20,80 L20,20 z"/></clipPath></defs><g clip-path="url(#clip28)" fill="none" opacity="1" stroke="#000000" stroke-linecap="butt" stroke-linejoin="miter" stroke-miterlimit="2" stroke-opacity="1" stroke-width="0.32" transform="matrix(3.125,0,0,3.125,-54.6875,-54.6875)"><polyline fill="none" points="31,31 41,32" vector-effect="none"/></g><defs><clipPath id="clip29"><path d="M20,20 L80,20 L80,80 L20,80 L20,20 z"/></clipPath></defs><g clip-path="url(#clip29)" fill="none" opacity="1" stroke="#000000" stroke-linecap="butt" stroke-linejoin="miter" stroke-miterlimit="2" stroke-opacity="1" stroke-width="0.32" transform="matrix(3.125,0,0,3.125,-54.6875,-54.6875)"><polyline fill="none" points="41,32 31,31" vector-effect="none"/></g><defs><clipPath id="clip30"><path d="M20,20 L80,20 L80,80 L20,80 L20,20 z"/></clipPath></defs><g clip-path="url(#clip30)" fill="none" opacity="1" stroke="#000000" stroke-linecap="butt" stroke-linejoin="miter" stroke-miterlimit="2" stroke-opacity="1" stroke-width="0.32" transform="matrix(3.125,0,0,3.125,-54.6875,-54.6875)"><polyline fill="none" points="31,31 32,41" vector-effect="none"/></g><defs><clipPath id="clip31"><path d="M20,20 L80,20 L80,80 L20,80 L20,20 z"/></clipPath></defs><g clip-path="url(#clip31)" fill="none" opacity="1" stroke="#000000" stroke-linecap="butt" stroke-linejoin="miter" stroke-miterlimit="2" stroke-opacity="1" stroke-width="0.32" transform="matrix(3.125,0,0,3.125,-54.6875,-54.6875)"><polyline fill="none" points="45,55 31,69" vector-effect="none"/></g><defs><clipPath id="clip32"><path d="M20,20 L80,20 L80,80 L20,80 L20,20 z"/></clipPath></defs><g clip-path="url(#clip32)" fill="none" opacity="1" stroke="#000000" stroke-linecap="butt" stroke-linejoin="miter" stroke-miterlimit="2" stroke-opacity="1" stroke-width="0.32" transform="matrix(3.125,0,0,3.125,-54.6875,-54.6875)"><polyline fill="none" points="31,69 41,68" vector-effect="none"/></g><defs><clipPath id="clip33"><path d="M20,20 L80,20 L80,80 L20,80 L20,20 z"/></clipPath></defs><g clip-path="url(#clip33)" fill="none" opacity="1" stroke="#000000" stroke-linecap="butt" stroke-linejoin="miter" stroke-miterlimit="2" stroke-opacity="1" stroke-width="0.32" transform="matrix(3.125,0,0,3.125,-54.6875,-54.6875)"><polyline fill="none" points="41,68 31,69" vector-effect="none"/></g><defs><clipPath id="clip34"><path d="M20,20 L80,20 L80,80 L20,80 L20,20 z"/></clipPath></defs><g clip-path="url(#clip34)" fill="none" opacity="1" stroke="#000000" stroke-linecap="butt" stroke-linejoin="miter" stroke-miterlimit="2" stroke-opacity="1" stroke-width="0.32" transform="matrix(3.125,0,0,3.125,-54.6875,-54.6875)"><polyline fill="none" points="31,69 32,59" vector-effect="none"/></g><defs><clipPath id="clip35"><path d="M20,20 L80,20 L80,80 L20,80 L20,20 z"/></clipPath></defs><g clip-path="url(#clip35)" fill="none" opacity="1" stroke="#000000" stroke-linecap="butt" stroke-linejoin="miter" stroke-miterlimit="2" stroke-opacity="1" stroke-width="0.32" transform="matrix(3.125,0,0,3.125,-54.6875,-54.6875)"><polyline fill="none" points="55,45 69,31" vector-effect="none"/></g><defs><clipPath id="clip36"><path d="M20,20 L80,20 L80,80 L20,80 L20,20 z"/></clipPath></defs><g clip-path="url(#clip36)" fill="none" opacity="1" stroke="#000000" stroke-linecap="butt" stroke-linejoin="miter" stroke-miterlimit="2" stroke-opacity="1" stroke-width="0.32" transform="matrix(3.125,0,0,3.125,-54.6875,-54.6875)"><polyline fill="none" points="69,31 68,41" vector-effect="none"/></g><defs><clipPath id="clip37"><path d="M20,20 L80,20 L80,80 L20,80 L20,20 z"/></clipPath></defs><g clip-path="url(#clip37)" fill="none" opacity="1" stroke="#000000" stroke-linecap="butt" stroke-linejoin="miter" stroke-miterlimit="2" stroke-opacity="1" stroke-width="0.32" transform="matrix(3.125,0,0,3.125,-54.6875,-54.6875)"><polyline fill="none" points="68,41 69,31" vector-effect="none"/></g><defs><clipPath id="clip38"><path d="M20,20 L80,20 L80,80 L20,80 L20,20 z"/></clipPath></defs><g clip-path="url(#clip38)" fill="none" opacity="1" stroke="#000000" stroke-linecap="butt" stroke-linejoin="miter" stroke-miterlimit="2" stroke-opacity="1" stroke-width="0.32" transform="matrix(3.125,0,0,3.125,-54.6875,-54.6875)"><polyline fill="none" points="69,31 59,32" vector-effect="none"/></g><defs><clipPath id="clip39"><path d="M20,20 L80,20 L80,80 L20,80 L20,20 z"/></clipPath></defs><g clip-path="url(#clip39)" fill="none" opacity="1" stroke="#000000" stroke-linecap="butt" stroke-linejoin="miter" stroke-miterlimit="2" stroke-opacity="1" stroke-width="0.32" transform="matrix(3.125,0,0,3.125,-54.6875,-54.6875)"><polyline fill="none" points="55,55 69,69" vector-effect="none"/></g><defs><clipPath id="clip40"><path d="M20,20 L80,20 L80,80 L20,80 L20,20 z"/></clipPath></defs><g clip-path="url(#clip40)" fill="none" opacity="1" stroke="#000000" stroke-linecap="butt" stroke-linejoin="miter" stroke-miterlimit="2" stroke-opacity="1" stroke-width="0.32" transform="matrix(3.125,0,0,3.125,-54.6875,-54.6875)"><polyline fill="none" points="69,69 68,59" vector-effect="none"/></g><defs><clipPath id="clip41"><path d="M20,20 L80,20 L80,80 L20,80 L20,20 z"/></clipPath></defs><g clip-path="url(#clip41)" fill="none" opacity="1" stroke="#000000" stroke-linecap="butt" stroke-linejoin="miter" stroke-miterlimit="2" stroke-opacity="1" stroke-width="0.32" transform="matrix(3.125,0,0,3.125,-54.6875,-54.6875)"><polyline fill="none" points="68,59 69,69" vector-effect="none"/></g><defs><clipPath id="clip42"><path d="M20,20 L80,20 L80,80 L20,80 L20,20 z"/></clipPath></defs><g clip-path="url(#clip42)" fill="none" opacity="1" stroke="#000000" stroke-linecap="butt" stroke-linejoin="miter" stroke-miterlimit="2" stroke-opacity="1" stroke-width="0.32" transform="matrix(3.125,0,0,3.125,-54.6875,-54.6875)"><polyline fill="none" points="69,69 59,68" vector-effect="none"/></g><defs><clipPath id="clip47"><path d="M-2,-2 L62,-2 L62,62 L-2,62 L-2,-2 z"/></clipPath></defs><g clip-path="url(#clip47)" fill="none" opacity="1" stroke="#000000" stroke-linecap="butt" stroke-linejoin="miter" stroke-miterlimit="2" stroke-opacity="1" stroke-width="0.633957" transform="matrix(3.125,0,0,3.125,6.25,6.25)"><path d="M0,0 L60,0 L60,60 L0,60 L0,0 z" fill-rule="evenodd" vector-effect="none"/></g></g></svg>
