<?xml version="1.0" encoding="UTF-8"?><svg width="52.9167mm" height="52.9167mm" viewBox="0 0 200 200" xmlns="http://www.w3.org/2000/svg" xmlns:xlink="http://www.w3.org/1999/xlink"><g fill="none" stroke="black" stroke-width="1" fill-rule="evenodd" stroke-linecap="square" stroke-linejoin="bevel"><g clip-path="none" fill="none" opacity="1" stroke="none" stroke-opacity="0" transform="matrix(1,0,0,1,0,0)"><path d="M0,0 L200,0 L200,200 L0,200 L0,0 z" fill-rule="evenodd" vector-effect="none"/></g><defs><clipPath id="clip3"><path d="M-2,-2 L62,-2 L62,62 L-2,62 L-2,-2 z"/></clipPath></defs><g clip-path="url(#clip3)" fill="#e8d152" fill-opacity="1" opacity="1" stroke="none" stroke-opacity="0" transform="matrix(3.125,0,0,3.125,6.25,6.25)"><path d="M0,0 L60,0 L60,60 L0,60 L0,0 z" fill-rule="evenodd" vector-effect="none"/></g><defs><clipPath id="clip7"><path d="M120,20 L180,20 L180,80 L120,80 L120,20 z"/></clipPath></defs><g clip-path="url(#clip7)" fill="none" opacity="1" stroke="#000000" stroke-linecap="butt" stroke-linejoin="miter" stroke-miterlimit="2" stroke-opacity="1" stroke-width="0.32" transform="matrix(3.125,0,0,3.125,-367.188,-54.6875)"><polyline fill="none" points="149,49 151,51" vector-effect="none"/></g><defs><clipPath id="clip8"><path d="M120,20 L180,20 L180,80 L120,80 L120,20 z"/></clipPath></defs><g clip-path="url(#clip8)" fill="none" opacity="1" stroke="#000000" stroke-linecap="butt" stroke-linejoin="miter" stroke-miterlimit="2" stroke-opacity="1" stroke-width="0.32" transform="matrix(3.125,0,0,3.125,-367.188,-54.6875)"><polyline fill="none" points="151,51 151,49" vector-effect="none"/></g><defs><clipPath id="clip9"><path d="M120,20 L180,20 L180,80 L120,80 L120,20 z"/></clipPath></defs><g clip-path="url(#clip9)" fill="none" opacity="1" stroke="#000000" stroke-linecap="butt" stroke-linejoin="miter" stroke-miterlimit="2" stroke-opacity="1" stroke-width="0.32" transform="matrix(3.125,0,0,3.125,-367.188,-54.6875)"><polyline fill="none" points="151,49 149,51" vector-effect="none"/></g><defs><clipPath id="clip10"><path d="M120,20 L180,20 L180,80 L120,80 L120,20 z"/></clipPath></defs><g clip-path="url(#clip10)" fill="none" opacity="1" stroke="#000000" stroke-linecap="butt" stroke-linejoin="miter" stroke-miterlimit="2" stroke-opacity="1" stroke-width="0.32" transform="matrix(3.125,0,0,3.125,-367.188,-54.6875)"><polyline fill="none" points="149,51 151,49" vector-effect="none"/></g><defs><clipPath id="clip11"><path d="M120,20 L180,20 L180,80 L120,80 L120,20 z"/></clipPath></defs><g clip-path="url(#clip11)" fill="none" opacity="1" stroke="#000000" stroke-linecap="butt" stroke-linejoin="miter" stroke-miterlimit="2" stroke-opacity="1" stroke-width="0.32" transform="matrix(3.125,0,0,3.125,-367.188,-54.6875)"><polyline fill="none" points="169,31 155,45" vector-effect="none"/></g><defs><clipPath id="clip12"><path d="M120,20 L180,20 L180,80 L120,80 L120,20 z"/></clipPath></defs><g clip-path="url(#clip12)" fill="none" opacity="1" stroke="#000000" stroke-linecap="butt" stroke-linejoin="miter" stroke-miterlimit="2" stroke-opacity="1" stroke-width="0.32" transform="matrix(3.125,0,0,3.125,-367.188,-54.6875)"><polyline fill="none" points="155,45 165,42" vector-effect="none"/></g><defs><clipPath id="clip13"><path d="M120,20 L180,20 L180,80 L120,80 L120,20 z"/></clipPath></defs><g clip-path="url(#clip13)" fill="none" opacity="1" stroke="#000000" stroke-linecap="butt" stroke-linejoin="miter" stroke-miterlimit="2" stroke-opacity="1" stroke-width="0.32" transform="matrix(3.125,0,0,3.125,-367.188,-54.6875)"><polyline fill="none" points="165,42 155,45" vector-effect="none"/></g><defs><clipPath id="clip14"><path d="M120,20 L180,20 L180,80 L120,80 L120,20 z"/></clipPath></defs><g clip-path="url(#clip14)" fill="none" opacity="1" stroke="#000000" stroke-linecap="butt" stroke-linejoin="miter" stroke-miterlimit="2" stroke-opacity="1" stroke-width="0.32" transform="matrix(3.125,0,0,3.125,-367.188,-54.6875)"><polyline fill="none" points="155,45 158,35" vector-effect="none"/></g><defs><clipPath id="clip15"><path d="M120,20 L180,20 L180,80 L120,80 L120,20 z"/></clipPath></defs><g clip-path="url(#clip15)" fill="none" opacity="1" stroke="#000000" stroke-linecap="butt" stroke-linejoin="miter" stroke-miterlimit="2" stroke-opacity="1" stroke-width="0.32" transform="matrix(3.125,0,0,3.125,-367.188,-54.6875)"><polyline fill="none" points="169,69 155,55" vector-effect="none"/></g><defs><clipPath id="clip16"><path d="M120,20 L180,20 L180,80 L120,80 L120,20 z"/></clipPath></defs><g clip-path="url(#clip16)" fill="none" opacity="1" stroke="#000000" stroke-linecap="butt" stroke-linejoin="miter" stroke-miterlimit="2" stroke-opacity="1" stroke-width="0.32" transform="matrix(3.125,0,0,3.125,-367.188,-54.6875)"><polyline fill="none" points="155,55 165,58" vector-effect="none"/></g><defs><clipPath id="clip17"><path d="M120,20 L180,20 L180,80 L120,80 L120,20 z"/></clipPath></defs><g clip-path="url(#clip17)" fill="none" opacity="1" stroke="#000000" stroke-linecap="butt" stroke-linejoin="miter" stroke-miterlimit="2" stroke-opacity="1" stroke-width="0.32" transform="matrix(3.125,0,0,3.125,-367.188,-54.6875)"><polyline fill="none" points="165,58 155,55" vector-effect="none"/></g><defs><clipPath id="clip18"><path d="M120,20 L180,20 L180,80 L120,80 L120,20 z"/></clipPath></defs><g clip-path="url(#clip18)" fill="none" opacity="1" stroke="#000000" stroke-linecap="butt" stroke-linejoin="miter" stroke-miterlimit="2" stroke-opacity="1" stroke-width="0.32" transform="matrix(3.125,0,0,3.125,-367.188,-54.6875)"><polyline fill="none" points="155,55 158,65" vector-effect="none"/></g><defs><clipPath id="clip19"><path d="M120,20 L180,20 L180,80 L120,80 L120,20 z"/></clipPath></defs><g clip-path="url(#clip19)" fill="none" opacity="1" stroke="#000000" stroke-linecap="butt" stroke-linejoin="miter" stroke-miterlimit="2" stroke-opacity="1" stroke-width="0.32" transform="matrix(3.125,0,0,3.125,-367.188,-54.6875)"><polyline fill="none" points="131,31 145,45" vector-effect="none"/></g><defs><clipPath id="clip20"><path d="M120,20 L180,20 L180,80 L120,80 L120,20 z"/></clipPath></defs><g clip-path="url(#clip20)" fill="none" opacity="1" stroke="#000000" stroke-linecap="butt" stroke-linejoin="miter" stroke-miterlimit="2" stroke-opacity="1" stroke-width="0.32" transform="matrix(3.125,0,0,3.125,-367.188,-54.6875)"><polyline fill="none" points="145,45 135,42" vector-effect="none"/></g><defs><clipPath id="clip21"><path d="M120,20 L180,20 L180,80 L120,80 L120,20 z"/></clipPath></defs><g clip-path="url(#clip21)" fill="none" opacity="1" stroke="#000000" stroke-linecap="butt" stroke-linejoin="miter" stroke-miterlimit="2" stroke-opacity="1" stroke-width="0.32" transform="matrix(3.125,0,0,3.125,-367.188,-54.6875)"><polyline fill="none" points="135,42 145,45" vector-effect="none"/></g><defs><clipPath id="clip22"><path d="M120,20 L180,20 L180,80 L120,80 L120,20 z"/></clipPath></defs><g clip-path="url(#clip22)" fill="none" opacity="1" stroke="#000000" stroke-linecap="butt" stroke-linejoin="miter" stroke-miterlimit="2" stroke-opacity="1" stroke-width="0.32" transform="matrix(3.125,0,0,3.125,-367.188,-54.6875)"><polyline fill="none" points="145,45 142,35" vector-effect="none"/></g><defs><clipPath id="clip23"><path d="M120,20 L180,20 L180,80 L120,80 L120,20 z"/></clipPath></defs><g clip-path="url(#clip23)" fill="none" opacity="1" stroke="#000000" stroke-linecap="butt" stroke-linejoin="miter" stroke-miterlimit="2" stroke-opacity="1" stroke-width="0.32" transform="matrix(3.125,0,0,3.125,-367.188,-54.6875)"><polyline fill="none" points="131,69 145,55" vector-effect="none"/></g><defs><clipPath id="clip24"><path d="M120,20 L180,20 L180,80 L120,80 L120,20 z"/></clipPath></defs><g clip-path="url(#clip24)" fill="none" opacity="1" stroke="#000000" stroke-linecap="butt" stroke-linejoin="miter" stroke-miterlimit="2" stroke-opacity="1" stroke-width="0.32" transform="matrix(3.125,0,0,3.125,-367.188,-54.6875)"><polyline fill="none" points="145,55 135,58" vector-effect="none"/></g><defs><clipPath id="clip25"><path d="M120,20 L180,20 L180,80 L120,80 L120,20 z"/></clipPath></defs><g clip-path="url(#clip25)" fill="none" opacity="1" stroke="#000000" stroke-linecap="butt" stroke-linejoin="miter" stroke-miterlimit="2" stroke-opacity="1" stroke-width="0.32" transform="matrix(3.125,0,0,3.125,-367.188,-54.6875)"><polyline fill="none" points="135,58 145,55" vector-effect="none"/></g><defs><clipPath id="clip26"><path d="M120,20 L180,20 L180,80 L120,80 L120,20 z"/></clipPath></defs><g clip-path="url(#clip26)" fill="none" opacity="1" stroke="#000000" stroke-linecap="butt" stroke-linejoin="miter" stroke-miterlimit="2" stroke-opacity="1" stroke-width="0.32" transform="matrix(3.125,0,0,3.125,-367.188,-54.6875)"><polyline fill="none" points="145,55 142,65" vector-effect="none"/></g><defs><clipPath id="clip27"><path d="M120,20 L180,20 L180,80 L120,80 L120,20 z"/></clipPath></defs><g clip-path="url(#clip27)" fill="none" opacity="1" stroke="#000000" stroke-linecap="butt" stroke-linejoin="miter" stroke-miterlimit="2" stroke-opacity="1" stroke-width="0.32" transform="matrix(3.125,0,0,3.125,-367.188,-54.6875)"><polyline fill="none" points="150,77 150,57" vector-effect="none"/></g><defs><clipPath id="clip28"><path d="M120,20 L180,20 L180,80 L120,80 L120,20 z"/></clipPath></defs><g clip-path="url(#clip28)" fill="none" opacity="1" stroke="#000000" stroke-linecap="butt" stroke-linejoin="miter" stroke-miterlimit="2" stroke-opacity="1" stroke-width="0.32" transform="matrix(3.125,0,0,3.125,-367.188,-54.6875)"><polyline fill="none" points="150,57 154,64" vector-effect="none"/></g><defs><clipPath id="clip29"><path d="M120,20 L180,20 L180,80 L120,80 L120,20 z"/></clipPath></defs><g clip-path="url(#clip29)" fill="none" opacity="1" stroke="#000000" stroke-linecap="butt" stroke-linejoin="miter" stroke-miterlimit="2" stroke-opacity="1" stroke-width="0.32" transform="matrix(3.125,0,0,3.125,-367.188,-54.6875)"><polyline fill="none" points="154,64 150,57" vector-effect="none"/></g><defs><clipPath id="clip30"><path d="M120,20 L180,20 L180,80 L120,80 L120,20 z"/></clipPath></defs><g clip-path="url(#clip30)" fill="none" opacity="1" stroke="#000000" stroke-linecap="butt" stroke-linejoin="miter" stroke-miterlimit="2" stroke-opacity="1" stroke-width="0.32" transform="matrix(3.125,0,0,3.125,-367.188,-54.6875)"><polyline fill="none" points="150,57 146,64" vector-effect="none"/></g><defs><clipPath id="clip31"><path d="M120,20 L180,20 L180,80 L120,80 L120,20 z"/></clipPath></defs><g clip-path="url(#clip31)" fill="none" opacity="1" stroke="#000000" stroke-linecap="butt" stroke-linejoin="miter" stroke-miterlimit="2" stroke-opacity="1" stroke-width="0.32" transform="matrix(3.125,0,0,3.125,-367.188,-54.6875)"><polyline fill="none" points="150,23 150,43" vector-effect="none"/></g><defs><clipPath id="clip32"><path d="M120,20 L180,20 L180,80 L120,80 L120,20 z"/></clipPath></defs><g clip-path="url(#clip32)" fill="none" opacity="1" stroke="#000000" stroke-linecap="butt" stroke-linejoin="miter" stroke-miterlimit="2" stroke-opacity="1" stroke-width="0.32" transform="matrix(3.125,0,0,3.125,-367.188,-54.6875)"><polyline fill="none" points="150,43 154,37" vector-effect="none"/></g><defs><clipPath id="clip33"><path d="M120,20 L180,20 L180,80 L120,80 L120,20 z"/></clipPath></defs><g clip-path="url(#clip33)" fill="none" opacity="1" stroke="#000000" stroke-linecap="butt" stroke-linejoin="miter" stroke-miterlimit="2" stroke-opacity="1" stroke-width="0.32" transform="matrix(3.125,0,0,3.125,-367.188,-54.6875)"><polyline fill="none" points="154,37 150,43" vector-effect="none"/></g><defs><clipPath id="clip34"><path d="M120,20 L180,20 L180,80 L120,80 L120,20 z"/></clipPath></defs><g clip-path="url(#clip34)" fill="none" opacity="1" stroke="#000000" stroke-linecap="butt" stroke-linejoin="miter" stroke-miterlimit="2" stroke-opacity="1" stroke-width="0.32" transform="matrix(3.125,0,0,3.125,-367.188,-54.6875)"><polyline fill="none" points="150,43 146,37" vector-effect="none"/></g><defs><clipPath id="clip35"><path d="M120,20 L180,20 L180,80 L120,80 L120,20 z"/></clipPath></defs><g clip-path="url(#clip35)" fill="none" opacity="1" stroke="#000000" stroke-linecap="butt" stroke-linejoin="miter" stroke-miterlimit="2" stroke-opacity="1" stroke-width="0.32" transform="matrix(3.125,0,0,3.125,-367.188,-54.6875)"><polyline fill="none" points="177,50 157,50" vector-effect="none"/></g><defs><clipPath id="clip36"><path d="M120,20 L180,20 L180,80 L120,80 L120,20 z"/></clipPath></defs><g clip-path="url(#clip36)" fill="none" opacity="1" stroke="#000000" stroke-linecap="butt" stroke-linejoin="miter" stroke-miterlimit="2" stroke-opacity="1" stroke-width="0.32" transform="matrix(3.125,0,0,3.125,-367.188,-54.6875)"><polyline fill="none" points="157,50 164,46" vector-effect="none"/></g><defs><clipPath id="clip37"><path d="M120,20 L180,20 L180,80 L120,80 L120,20 z"/></clipPath></defs><g clip-path="url(#clip37)" fill="none" opacity="1" stroke="#000000" stroke-linecap="butt" stroke-linejoin="miter" stroke-miterlimit="2" stroke-opacity="1" stroke-width="0.32" transform="matrix(3.125,0,0,3.125,-367.188,-54.6875)"><polyline fill="none" points="164,46 157,50" vector-effect="none"/></g><defs><clipPath id="clip38"><path d="M120,20 L180,20 L180,80 L120,80 L120,20 z"/></clipPath></defs><g clip-path="url(#clip38)" fill="none" opacity="1" stroke="#000000" stroke-linecap="butt" stroke-linejoin="miter" stroke-miterlimit="2" stroke-opacity="1" stroke-width="0.32" transform="matrix(3.125,0,0,3.125,-367.188,-54.6875)"><polyline fill="none" points="157,50 164,54" vector-effect="none"/></g><defs><clipPath id="clip39"><path d="M120,20 L180,20 L180,80 L120,80 L120,20 z"/></clipPath></defs><g clip-path="url(#clip39)" fill="none" opacity="1" stroke="#000000" stroke-linecap="butt" stroke-linejoin="miter" stroke-miterlimit="2" stroke-opacity="1" stroke-width="0.32" transform="matrix(3.125,0,0,3.125,-367.188,-54.6875)"><polyline fill="none" points="123,50 143,50" vector-effect="none"/></g><defs><clipPath id="clip40"><path d="M120,20 L180,20 L180,80 L120,80 L120,20 z"/></clipPath></defs><g clip-path="url(#clip40)" fill="none" opacity="1" stroke="#000000" stroke-linecap="butt" stroke-linejoin="miter" stroke-miterlimit="2" stroke-opacity="1" stroke-width="0.32" transform="matrix(3.125,0,0,3.125,-367.188,-54.6875)"><polyline fill="none" points="143,50 137,46" vector-effect="none"/></g><defs><clipPath id="clip41"><path d="M120,20 L180,20 L180,80 L120,80 L120,20 z"/></clipPath></defs><g clip-path="url(#clip41)" fill="none" opacity="1" stroke="#000000" stroke-linecap="butt" stroke-linejoin="miter" stroke-miterlimit="2" stroke-opacity="1" stroke-width="0.32" transform="matrix(3.125,0,0,3.125,-367.188,-54.6875)"><polyline fill="none" points="137,46 143,50" vector-effect="none"/></g><defs><clipPath id="clip42"><path d="M120,20 L180,20 L180,80 L120,80 L120,20 z"/></clipPath></defs><g clip-path="url(#clip42)" fill="none" opacity="1" stroke="#000000" stroke-linecap="butt" stroke-linejoin="miter" stroke-miterlimit="2" stroke-opacity="1" stroke-width="0.32" transform="matrix(3.125,0,0,3.125,-367.188,-54.6875)"><polyline fill="none" points="143,50 137,54" vector-effect="none"/></g><defs><clipPath id="clip47"><path d="M-2,-2 L62,-2 L62,62 L-2,62 L-2,-2 z"/></clipPath></defs><g clip-path="url(#clip47)" fill="none" opacity="1" stroke="#000000" stroke-linecap="butt" stroke-linejoin="miter" stroke-miterlimit="2" stroke-opacity="1" stroke-width="0.633957" transform="matrix(3.125,0,0,3.125,6.25,6.25)"><path d="M0,0 L60,0 L60,60 L0,60 L0,0 z" fill-rule="evenodd" vector-effect="none"/></g></g></svg>
