<?xml version="1.0" encoding="UTF-8"?><svg width="52.9167mm" height="52.9167mm" viewBox="0 0 200 200" xmlns="http://www.w3.org/2000/svg" xmlns:xlink="http://www.w3.org/1999/xlink"><g fill="none" stroke="black" stroke-width="1" fill-rule="evenodd" stroke-linecap="square" stroke-linejoin="bevel"><g clip-path="none" fill="none" opacity="1" stroke="none" stroke-opacity="0" transform="matrix(1,0,0,1,0,0)"><path d="M0,0 L200,0 L200,200 L0,200 L0,0 z" fill-rule="evenodd" vector-effect="none"/></g><defs><clipPath id="clip3"><path d="M-2,-2 L62,-2 L62,62 L-2,62 L-2,-2 z"/></clipPath></defs><g clip-path="url(#clip3)" fill="#e8d152" fill-opacity="1" opacity="1" stroke="none" stroke-opacity="0" transform="matrix(3.125,0,0,3.125,6.25,6.25)"><path d="M0,0 L60,0 L60,60 L0,60 L0,0 z" fill-rule="evenodd" vector-effect="none"/></g><defs><clipPath id="clip7"><path d="M20,120 L80,120 L80,180 L20,180 L20,120 z"/></clipPath></defs><g clip-path="url(#clip7)" fill="none" opacity="1" stroke="#000000" stroke-linecap="butt" stroke-linejoin="miter" stroke-miterlimit="2" stroke-opacity="1" stroke-width="0.32" transform="matrix(3.125,0,0,3.125,-54.6875,-367.188)"><polyline fill="none" points="34,131 66,156" vector-effect="none"/></g><defs><clipPath id="clip8"><path d="M20,120 L80,120 L80,180 L20,180 L20,120 z"/></clipPath></defs><g clip-path="url(#clip8)" fill="none" opacity="1" stroke="#000000" stroke-linecap="butt" stroke-linejoin="miter" stroke-miterlimit="2" stroke-opacity="1" stroke-width="0.32" transform="matrix(3.125,0,0,3.125,-54.6875,-367.188)"><polyline fill="none" points="34,144 66,169" vector-effect="none"/></g><defs><clipPath id="clip9"><path d="M20,120 L80,120 L80,180 L20,180 L20,120 z"/></clipPath></defs><g clip-path="url(#clip9)" fill="none" opacity="1" stroke="#000000" stroke-linecap="butt" stroke-linejoin="miter" stroke-miterlimit="2" stroke-opacity="1" stroke-width="0.32" transform="matrix(3.125,0,0,3.125,-54.6875,-367.188)"><polyline fill="none" points="34,156 66,144" vector-effect="none"/></g><defs><clipPath id="clip10"><path d="M20,120 L80,120 L80,180 L20,180 L20,120 z"/></clipPath></defs><g clip-path="url(#clip10)" fill="none" opacity="1" stroke="#000000" stroke-linecap="butt" stroke-linejoin="miter" stroke-miterlimit="2" stroke-opacity="1" stroke-width="0.32" transform="matrix(3.125,0,0,3.125,-54.6875,-367.188)"><polyline fill="none" points="34,169 66,131" vector-effect="none"/></g><defs><clipPath id="clip12"><path d="M-26,-195 L281,-195 L281,112 L-26,112 L-26,-195 z"/></clipPath></defs><g clip-path="url(#clip12)" fill="none" opacity="1" stroke="#000000" stroke-linecap="butt" stroke-linejoin="miter" stroke-miterlimit="2" stroke-opacity="1" stroke-width="0.32" transform="matrix(0.610352,0,0,0.610352,21.875,125)"><text fill="#000000" fill-opacity="1" font-family="Liberation Sans" font-size="48" font-style="normal" font-weight="400" stroke="none" textLength="27" x="0" xml:space="preserve" y="21.125">2</text></g><defs><clipPath id="clip15"><path d="M-26,-266 L281,-266 L281,41 L-26,41 L-26,-266 z"/></clipPath></defs><g clip-path="url(#clip15)" fill="none" opacity="1" stroke="#000000" stroke-linecap="butt" stroke-linejoin="miter" stroke-miterlimit="2" stroke-opacity="1" stroke-width="0.32" transform="matrix(0.610352,0,0,0.610352,21.875,168.75)"><text fill="#000000" fill-opacity="1" font-family="Liberation Sans" font-size="48" font-style="normal" font-weight="400" stroke="none" textLength="27" x="0" xml:space="preserve" y="21.125">3</text></g><defs><clipPath id="clip18"><path d="M-26,-123 L281,-123 L281,184 L-26,184 L-26,-123 z"/></clipPath></defs><g clip-path="url(#clip18)" fill="none" opacity="1" stroke="#000000" stroke-linecap="butt" stroke-linejoin="miter" stroke-miterlimit="2" stroke-opacity="1" stroke-width="0.32" transform="matrix(0.610352,0,0,0.610352,21.875,81.25)"><text fill="#000000" fill-opacity="1" font-family="Liberation Sans" font-size="48" font-style="normal" font-weight="400" stroke="none" textLength="27" x="0" xml:space="preserve" y="21.125">1</text></g><defs><clipPath id="clip21"><path d="M-26,-51 L281,-51 L281,256 L-26,256 L-26,-51 z"/></clipPath></defs><g clip-path="url(#clip21)" fill="none" opacity="1" stroke="#000000" stroke-linecap="butt" stroke-linejoin="miter" stroke-miterlimit="2" stroke-opacity="1" stroke-width="0.32" transform="matrix(0.610352,0,0,0.610352,21.875,37.5)"><text fill="#000000" fill-opacity="1" font-family="Liberation Sans" font-size="48" font-style="normal" font-weight="400" stroke="none" textLength="27" x="0" xml:space="preserve" y="21.125">0</text></g><defs><clipPath id="clip24"><path d="M-256,-51 L51,-51 L51,256 L-256,256 L-256,-51 z"/></clipPath></defs><g clip-path="url(#clip24)" fill="none" opacity="1" stroke="#000000" stroke-linecap="butt" stroke-linejoin="miter" stroke-miterlimit="2" stroke-opacity="1" stroke-width="0.32" transform="matrix(0.610352,0,0,0.610352,162.5,37.5)"><text fill="#000000" fill-opacity="1" font-family="Liberation Sans" font-size="48" font-style="normal" font-weight="400" stroke="none" textLength="27" x="0" xml:space="preserve" y="21.125">3</text></g><defs><clipPath id="clip27"><path d="M-256,-123 L51,-123 L51,184 L-256,184 L-256,-123 z"/></clipPath></defs><g clip-path="url(#clip27)" fill="none" opacity="1" stroke="#000000" stroke-linecap="butt" stroke-linejoin="miter" stroke-miterlimit="2" stroke-opacity="1" stroke-width="0.32" transform="matrix(0.610352,0,0,0.610352,162.5,81.25)"><text fill="#000000" fill-opacity="1" font-family="Liberation Sans" font-size="48" font-style="normal" font-weight="400" stroke="none" textLength="27" x="0" xml:space="preserve" y="21.125">2</text></g><defs><clipPath id="clip30"><path d="M-256,-195 L51,-195 L51,112 L-256,112 L-256,-195 z"/></clipPath></defs><g clip-path="url(#clip30)" fill="none" opacity="1" stroke="#000000" stroke-linecap="butt" stroke-linejoin="miter" stroke-miterlimit="2" stroke-opacity="1" stroke-width="0.32" transform="matrix(0.610352,0,0,0.610352,162.5,125)"><text fill="#000000" fill-opacity="1" font-family="Liberation Sans" font-size="48" font-style="normal" font-weight="400" stroke="none" textLength="27" x="0" xml:space="preserve" y="21.125">0</text></g><defs><clipPath id="clip33"><path d="M-256,-266 L51,-266 L51,41 L-256,41 L-256,-266 z"/></clipPath></defs><g clip-path="url(#clip33)" fill="none" opacity="1" stroke="#000000" stroke-linecap="butt" stroke-linejoin="miter" stroke-miterlimit="2" stroke-opacity="1" stroke-width="0.32" transform="matrix(0.610352,0,0,0.610352,162.5,168.75)"><text fill="#000000" fill-opacity="1" font-family="Liberation Sans" font-size="48" font-style="normal" font-weight="400" stroke="none" textLength="27" x="0" xml:space="preserve" y="21.125">1</text></g><defs><clipPath id="clip39"><path d="M-2,-2 L62,-2 L62,62 L-2,62 L-2,-2 z"/></clipPath></defs><g clip-path="url(#clip39)" fill="none" opacity="1" stroke="#000000" stroke-linecap="butt" stroke-linejoin="miter" stroke-miterlimit="2" stroke-opacity="1" stroke-width="0.633957" transform="matrix(3.125,0,0,3.125,6.25,6.25)"><path d="M0,0 L60,0 L60,60 L0,60 L0,0 z" fill-rule="evenodd" vector-effect="none"/></g></g></svg>
