<?xml version="1.0" encoding="UTF-8"?><svg width="52.9167mm" height="52.9167mm" viewBox="0 0 200 200" xmlns="http://www.w3.org/2000/svg" xmlns:xlink="http://www.w3.org/1999/xlink"><g fill="none" stroke="black" stroke-width="1" fill-rule="evenodd" stroke-linecap="square" stroke-linejoin="bevel"><g clip-path="none" fill="none" opacity="1" stroke="none" stroke-opacity="0" transform="matrix(1,0,0,1,0,0)"><path d="M0,0 L200,0 L200,200 L0,200 L0,0 z" fill-rule="evenodd" vector-effect="none"/></g><defs><clipPath id="clip3"><path d="M-2,-2 L62,-2 L62,62 L-2,62 L-2,-2 z"/></clipPath></defs><g clip-path="url(#clip3)" fill="#e8d152" fill-opacity="1" opacity="1" stroke="none" stroke-opacity="0" transform="matrix(3.125,0,0,3.125,6.25,6.25)"><path d="M0,0 L60,0 L60,60 L0,60 L0,0 z" fill-rule="evenodd" vector-effect="none"/></g><defs><clipPath id="clip7"><path d="M320,220 L380,220 L380,280 L320,280 L320,220 z"/></clipPath></defs><g clip-path="url(#clip7)" fill="none" opacity="1" stroke="#000000" stroke-linecap="butt" stroke-linejoin="miter" stroke-miterlimit="2" stroke-opacity="1" stroke-width="0.32" transform="matrix(3.125,0,0,3.125,-992.188,-679.688)"><polyline fill="none" points="324,233 325,233" vector-effect="none"/></g><defs><clipPath id="clip8"><path d="M320,220 L380,220 L380,280 L320,280 L320,220 z"/></clipPath></defs><g clip-path="url(#clip8)" fill="none" opacity="1" stroke="#000000" stroke-linecap="butt" stroke-linejoin="miter" stroke-miterlimit="2" stroke-opacity="1" stroke-width="0.32" transform="matrix(3.125,0,0,3.125,-992.188,-679.688)"><polyline fill="none" points="325,233 326,234" vector-effect="none"/></g><defs><clipPath id="clip9"><path d="M320,220 L380,220 L380,280 L320,280 L320,220 z"/></clipPath></defs><g clip-path="url(#clip9)" fill="none" opacity="1" stroke="#000000" stroke-linecap="butt" stroke-linejoin="miter" stroke-miterlimit="2" stroke-opacity="1" stroke-width="0.32" transform="matrix(3.125,0,0,3.125,-992.188,-679.688)"><polyline fill="none" points="326,234 327,235" vector-effect="none"/></g><defs><clipPath id="clip10"><path d="M320,220 L380,220 L380,280 L320,280 L320,220 z"/></clipPath></defs><g clip-path="url(#clip10)" fill="none" opacity="1" stroke="#000000" stroke-linecap="butt" stroke-linejoin="miter" stroke-miterlimit="2" stroke-opacity="1" stroke-width="0.32" transform="matrix(3.125,0,0,3.125,-992.188,-679.688)"><polyline fill="none" points="327,235 329,235" vector-effect="none"/></g><defs><clipPath id="clip11"><path d="M320,220 L380,220 L380,280 L320,280 L320,220 z"/></clipPath></defs><g clip-path="url(#clip11)" fill="none" opacity="1" stroke="#000000" stroke-linecap="butt" stroke-linejoin="miter" stroke-miterlimit="2" stroke-opacity="1" stroke-width="0.32" transform="matrix(3.125,0,0,3.125,-992.188,-679.688)"><polyline fill="none" points="329,235 330,236" vector-effect="none"/></g><defs><clipPath id="clip12"><path d="M320,220 L380,220 L380,280 L320,280 L320,220 z"/></clipPath></defs><g clip-path="url(#clip12)" fill="none" opacity="1" stroke="#000000" stroke-linecap="butt" stroke-linejoin="miter" stroke-miterlimit="2" stroke-opacity="1" stroke-width="0.32" transform="matrix(3.125,0,0,3.125,-992.188,-679.688)"><polyline fill="none" points="330,236 331,236" vector-effect="none"/></g><defs><clipPath id="clip13"><path d="M320,220 L380,220 L380,280 L320,280 L320,220 z"/></clipPath></defs><g clip-path="url(#clip13)" fill="none" opacity="1" stroke="#000000" stroke-linecap="butt" stroke-linejoin="miter" stroke-miterlimit="2" stroke-opacity="1" stroke-width="0.32" transform="matrix(3.125,0,0,3.125,-992.188,-679.688)"><polyline fill="none" points="331,236 332,235" vector-effect="none"/></g><defs><clipPath id="clip14"><path d="M320,220 L380,220 L380,280 L320,280 L320,220 z"/></clipPath></defs><g clip-path="url(#clip14)" fill="none" opacity="1" stroke="#000000" stroke-linecap="butt" stroke-linejoin="miter" stroke-miterlimit="2" stroke-opacity="1" stroke-width="0.32" transform="matrix(3.125,0,0,3.125,-992.188,-679.688)"><polyline fill="none" points="332,235 333,235" vector-effect="none"/></g><defs><clipPath id="clip15"><path d="M320,220 L380,220 L380,280 L320,280 L320,220 z"/></clipPath></defs><g clip-path="url(#clip15)" fill="none" opacity="1" stroke="#000000" stroke-linecap="butt" stroke-linejoin="miter" stroke-miterlimit="2" stroke-opacity="1" stroke-width="0.32" transform="matrix(3.125,0,0,3.125,-992.188,-679.688)"><polyline fill="none" points="333,235 334,234" vector-effect="none"/></g><defs><clipPath id="clip16"><path d="M320,220 L380,220 L380,280 L320,280 L320,220 z"/></clipPath></defs><g clip-path="url(#clip16)" fill="none" opacity="1" stroke="#000000" stroke-linecap="butt" stroke-linejoin="miter" stroke-miterlimit="2" stroke-opacity="1" stroke-width="0.32" transform="matrix(3.125,0,0,3.125,-992.188,-679.688)"><polyline fill="none" points="334,234 335,233" vector-effect="none"/></g><defs><clipPath id="clip17"><path d="M320,220 L380,220 L380,280 L320,280 L320,220 z"/></clipPath></defs><g clip-path="url(#clip17)" fill="none" opacity="1" stroke="#000000" stroke-linecap="butt" stroke-linejoin="miter" stroke-miterlimit="2" stroke-opacity="1" stroke-width="0.32" transform="matrix(3.125,0,0,3.125,-992.188,-679.688)"><polyline fill="none" points="335,233 336,231" vector-effect="none"/></g><defs><clipPath id="clip18"><path d="M320,220 L380,220 L380,280 L320,280 L320,220 z"/></clipPath></defs><g clip-path="url(#clip18)" fill="none" opacity="1" stroke="#000000" stroke-linecap="butt" stroke-linejoin="miter" stroke-miterlimit="2" stroke-opacity="1" stroke-width="0.32" transform="matrix(3.125,0,0,3.125,-992.188,-679.688)"><polyline fill="none" points="336,231 337,230" vector-effect="none"/></g><defs><clipPath id="clip19"><path d="M320,220 L380,220 L380,280 L320,280 L320,220 z"/></clipPath></defs><g clip-path="url(#clip19)" fill="none" opacity="1" stroke="#000000" stroke-linecap="butt" stroke-linejoin="miter" stroke-miterlimit="2" stroke-opacity="1" stroke-width="0.32" transform="matrix(3.125,0,0,3.125,-992.188,-679.688)"><polyline fill="none" points="337,230 338,230" vector-effect="none"/></g><defs><clipPath id="clip20"><path d="M320,220 L380,220 L380,280 L320,280 L320,220 z"/></clipPath></defs><g clip-path="url(#clip20)" fill="none" opacity="1" stroke="#000000" stroke-linecap="butt" stroke-linejoin="miter" stroke-miterlimit="2" stroke-opacity="1" stroke-width="0.32" transform="matrix(3.125,0,0,3.125,-992.188,-679.688)"><polyline fill="none" points="338,230 340,230" vector-effect="none"/></g><defs><clipPath id="clip21"><path d="M320,220 L380,220 L380,280 L320,280 L320,220 z"/></clipPath></defs><g clip-path="url(#clip21)" fill="none" opacity="1" stroke="#000000" stroke-linecap="butt" stroke-linejoin="miter" stroke-miterlimit="2" stroke-opacity="1" stroke-width="0.32" transform="matrix(3.125,0,0,3.125,-992.188,-679.688)"><polyline fill="none" points="340,230 341,231" vector-effect="none"/></g><defs><clipPath id="clip22"><path d="M320,220 L380,220 L380,280 L320,280 L320,220 z"/></clipPath></defs><g clip-path="url(#clip22)" fill="none" opacity="1" stroke="#000000" stroke-linecap="butt" stroke-linejoin="miter" stroke-miterlimit="2" stroke-opacity="1" stroke-width="0.32" transform="matrix(3.125,0,0,3.125,-992.188,-679.688)"><polyline fill="none" points="341,231 342,233" vector-effect="none"/></g><defs><clipPath id="clip23"><path d="M320,220 L380,220 L380,280 L320,280 L320,220 z"/></clipPath></defs><g clip-path="url(#clip23)" fill="none" opacity="1" stroke="#000000" stroke-linecap="butt" stroke-linejoin="miter" stroke-miterlimit="2" stroke-opacity="1" stroke-width="0.32" transform="matrix(3.125,0,0,3.125,-992.188,-679.688)"><polyline fill="none" points="342,233 343,235" vector-effect="none"/></g><defs><clipPath id="clip24"><path d="M320,220 L380,220 L380,280 L320,280 L320,220 z"/></clipPath></defs><g clip-path="url(#clip24)" fill="none" opacity="1" stroke="#000000" stroke-linecap="butt" stroke-linejoin="miter" stroke-miterlimit="2" stroke-opacity="1" stroke-width="0.32" transform="matrix(3.125,0,0,3.125,-992.188,-679.688)"><polyline fill="none" points="343,235 344,239" vector-effect="none"/></g><defs><clipPath id="clip25"><path d="M320,220 L380,220 L380,280 L320,280 L320,220 z"/></clipPath></defs><g clip-path="url(#clip25)" fill="none" opacity="1" stroke="#000000" stroke-linecap="butt" stroke-linejoin="miter" stroke-miterlimit="2" stroke-opacity="1" stroke-width="0.32" transform="matrix(3.125,0,0,3.125,-992.188,-679.688)"><polyline fill="none" points="344,239 345,242" vector-effect="none"/></g><defs><clipPath id="clip26"><path d="M320,220 L380,220 L380,280 L320,280 L320,220 z"/></clipPath></defs><g clip-path="url(#clip26)" fill="none" opacity="1" stroke="#000000" stroke-linecap="butt" stroke-linejoin="miter" stroke-miterlimit="2" stroke-opacity="1" stroke-width="0.32" transform="matrix(3.125,0,0,3.125,-992.188,-679.688)"><polyline fill="none" points="345,242 346,246" vector-effect="none"/></g><defs><clipPath id="clip27"><path d="M320,220 L380,220 L380,280 L320,280 L320,220 z"/></clipPath></defs><g clip-path="url(#clip27)" fill="none" opacity="1" stroke="#000000" stroke-linecap="butt" stroke-linejoin="miter" stroke-miterlimit="2" stroke-opacity="1" stroke-width="0.32" transform="matrix(3.125,0,0,3.125,-992.188,-679.688)"><polyline fill="none" points="346,246 347,250" vector-effect="none"/></g><defs><clipPath id="clip28"><path d="M320,220 L380,220 L380,280 L320,280 L320,220 z"/></clipPath></defs><g clip-path="url(#clip28)" fill="none" opacity="1" stroke="#000000" stroke-linecap="butt" stroke-linejoin="miter" stroke-miterlimit="2" stroke-opacity="1" stroke-width="0.32" transform="matrix(3.125,0,0,3.125,-992.188,-679.688)"><polyline fill="none" points="347,250 348,253" vector-effect="none"/></g><defs><clipPath id="clip29"><path d="M320,220 L380,220 L380,280 L320,280 L320,220 z"/></clipPath></defs><g clip-path="url(#clip29)" fill="none" opacity="1" stroke="#000000" stroke-linecap="butt" stroke-linejoin="miter" stroke-miterlimit="2" stroke-opacity="1" stroke-width="0.32" transform="matrix(3.125,0,0,3.125,-992.188,-679.688)"><polyline fill="none" points="348,253 349,255" vector-effect="none"/></g><defs><clipPath id="clip30"><path d="M320,220 L380,220 L380,280 L320,280 L320,220 z"/></clipPath></defs><g clip-path="url(#clip30)" fill="none" opacity="1" stroke="#000000" stroke-linecap="butt" stroke-linejoin="miter" stroke-miterlimit="2" stroke-opacity="1" stroke-width="0.32" transform="matrix(3.125,0,0,3.125,-992.188,-679.688)"><polyline fill="none" points="349,255 351,255" vector-effect="none"/></g><defs><clipPath id="clip31"><path d="M320,220 L380,220 L380,280 L320,280 L320,220 z"/></clipPath></defs><g clip-path="url(#clip31)" fill="none" opacity="1" stroke="#000000" stroke-linecap="butt" stroke-linejoin="miter" stroke-miterlimit="2" stroke-opacity="1" stroke-width="0.32" transform="matrix(3.125,0,0,3.125,-992.188,-679.688)"><polyline fill="none" points="351,255 352,255" vector-effect="none"/></g><defs><clipPath id="clip32"><path d="M320,220 L380,220 L380,280 L320,280 L320,220 z"/></clipPath></defs><g clip-path="url(#clip32)" fill="none" opacity="1" stroke="#000000" stroke-linecap="butt" stroke-linejoin="miter" stroke-miterlimit="2" stroke-opacity="1" stroke-width="0.32" transform="matrix(3.125,0,0,3.125,-992.188,-679.688)"><polyline fill="none" points="352,255 353,253" vector-effect="none"/></g><defs><clipPath id="clip33"><path d="M320,220 L380,220 L380,280 L320,280 L320,220 z"/></clipPath></defs><g clip-path="url(#clip33)" fill="none" opacity="1" stroke="#000000" stroke-linecap="butt" stroke-linejoin="miter" stroke-miterlimit="2" stroke-opacity="1" stroke-width="0.32" transform="matrix(3.125,0,0,3.125,-992.188,-679.688)"><polyline fill="none" points="353,253 354,250" vector-effect="none"/></g><defs><clipPath id="clip34"><path d="M320,220 L380,220 L380,280 L320,280 L320,220 z"/></clipPath></defs><g clip-path="url(#clip34)" fill="none" opacity="1" stroke="#000000" stroke-linecap="butt" stroke-linejoin="miter" stroke-miterlimit="2" stroke-opacity="1" stroke-width="0.32" transform="matrix(3.125,0,0,3.125,-992.188,-679.688)"><polyline fill="none" points="354,250 355,246" vector-effect="none"/></g><defs><clipPath id="clip35"><path d="M320,220 L380,220 L380,280 L320,280 L320,220 z"/></clipPath></defs><g clip-path="url(#clip35)" fill="none" opacity="1" stroke="#000000" stroke-linecap="butt" stroke-linejoin="miter" stroke-miterlimit="2" stroke-opacity="1" stroke-width="0.32" transform="matrix(3.125,0,0,3.125,-992.188,-679.688)"><polyline fill="none" points="355,246 356,242" vector-effect="none"/></g><defs><clipPath id="clip36"><path d="M320,220 L380,220 L380,280 L320,280 L320,220 z"/></clipPath></defs><g clip-path="url(#clip36)" fill="none" opacity="1" stroke="#000000" stroke-linecap="butt" stroke-linejoin="miter" stroke-miterlimit="2" stroke-opacity="1" stroke-width="0.32" transform="matrix(3.125,0,0,3.125,-992.188,-679.688)"><polyline fill="none" points="356,242 357,239" vector-effect="none"/></g><defs><clipPath id="clip37"><path d="M320,220 L380,220 L380,280 L320,280 L320,220 z"/></clipPath></defs><g clip-path="url(#clip37)" fill="none" opacity="1" stroke="#000000" stroke-linecap="butt" stroke-linejoin="miter" stroke-miterlimit="2" stroke-opacity="1" stroke-width="0.32" transform="matrix(3.125,0,0,3.125,-992.188,-679.688)"><polyline fill="none" points="357,239 358,235" vector-effect="none"/></g><defs><clipPath id="clip38"><path d="M320,220 L380,220 L380,280 L320,280 L320,220 z"/></clipPath></defs><g clip-path="url(#clip38)" fill="none" opacity="1" stroke="#000000" stroke-linecap="butt" stroke-linejoin="miter" stroke-miterlimit="2" stroke-opacity="1" stroke-width="0.32" transform="matrix(3.125,0,0,3.125,-992.188,-679.688)"><polyline fill="none" points="358,235 359,233" vector-effect="none"/></g><defs><clipPath id="clip39"><path d="M320,220 L380,220 L380,280 L320,280 L320,220 z"/></clipPath></defs><g clip-path="url(#clip39)" fill="none" opacity="1" stroke="#000000" stroke-linecap="butt" stroke-linejoin="miter" stroke-miterlimit="2" stroke-opacity="1" stroke-width="0.32" transform="matrix(3.125,0,0,3.125,-992.188,-679.688)"><polyline fill="none" points="359,233 360,231" vector-effect="none"/></g><defs><clipPath id="clip40"><path d="M320,220 L380,220 L380,280 L320,280 L320,220 z"/></clipPath></defs><g clip-path="url(#clip40)" fill="none" opacity="1" stroke="#000000" stroke-linecap="butt" stroke-linejoin="miter" stroke-miterlimit="2" stroke-opacity="1" stroke-width="0.32" transform="matrix(3.125,0,0,3.125,-992.188,-679.688)"><polyline fill="none" points="360,231 362,230" vector-effect="none"/></g><defs><clipPath id="clip41"><path d="M320,220 L380,220 L380,280 L320,280 L320,220 z"/></clipPath></defs><g clip-path="url(#clip41)" fill="none" opacity="1" stroke="#000000" stroke-linecap="butt" stroke-linejoin="miter" stroke-miterlimit="2" stroke-opacity="1" stroke-width="0.32" transform="matrix(3.125,0,0,3.125,-992.188,-679.688)"><polyline fill="none" points="362,230 363,230" vector-effect="none"/></g><defs><clipPath id="clip42"><path d="M320,220 L380,220 L380,280 L320,280 L320,220 z"/></clipPath></defs><g clip-path="url(#clip42)" fill="none" opacity="1" stroke="#000000" stroke-linecap="butt" stroke-linejoin="miter" stroke-miterlimit="2" stroke-opacity="1" stroke-width="0.32" transform="matrix(3.125,0,0,3.125,-992.188,-679.688)"><polyline fill="none" points="363,230 364,230" vector-effect="none"/></g><defs><clipPath id="clip43"><path d="M320,220 L380,220 L380,280 L320,280 L320,220 z"/></clipPath></defs><g clip-path="url(#clip43)" fill="none" opacity="1" stroke="#000000" stroke-linecap="butt" stroke-linejoin="miter" stroke-miterlimit="2" stroke-opacity="1" stroke-width="0.32" transform="matrix(3.125,0,0,3.125,-992.188,-679.688)"><polyline fill="none" points="364,230 365,231" vector-effect="none"/></g><defs><clipPath id="clip44"><path d="M320,220 L380,220 L380,280 L320,280 L320,220 z"/></clipPath></defs><g clip-path="url(#clip44)" fill="none" opacity="1" stroke="#000000" stroke-linecap="butt" stroke-linejoin="miter" stroke-miterlimit="2" stroke-opacity="1" stroke-width="0.32" transform="matrix(3.125,0,0,3.125,-992.188,-679.688)"><polyline fill="none" points="365,231 366,233" vector-effect="none"/></g><defs><clipPath id="clip45"><path d="M320,220 L380,220 L380,280 L320,280 L320,220 z"/></clipPath></defs><g clip-path="url(#clip45)" fill="none" opacity="1" stroke="#000000" stroke-linecap="butt" stroke-linejoin="miter" stroke-miterlimit="2" stroke-opacity="1" stroke-width="0.32" transform="matrix(3.125,0,0,3.125,-992.188,-679.688)"><polyline fill="none" points="366,233 367,234" vector-effect="none"/></g><defs><clipPath id="clip46"><path d="M320,220 L380,220 L380,280 L320,280 L320,220 z"/></clipPath></defs><g clip-path="url(#clip46)" fill="none" opacity="1" stroke="#000000" stroke-linecap="butt" stroke-linejoin="miter" stroke-miterlimit="2" stroke-opacity="1" stroke-width="0.32" transform="matrix(3.125,0,0,3.125,-992.188,-679.688)"><polyline fill="none" points="367,234 368,235" vector-effect="none"/></g><defs><clipPath id="clip47"><path d="M320,220 L380,220 L380,280 L320,280 L320,220 z"/></clipPath></defs><g clip-path="url(#clip47)" fill="none" opacity="1" stroke="#000000" stroke-linecap="butt" stroke-linejoin="miter" stroke-miterlimit="2" stroke-opacity="1" stroke-width="0.32" transform="matrix(3.125,0,0,3.125,-992.188,-679.688)"><polyline fill="none" points="368,235 369,235" vector-effect="none"/></g><defs><clipPath id="clip48"><path d="M320,220 L380,220 L380,280 L320,280 L320,220 z"/></clipPath></defs><g clip-path="url(#clip48)" fill="none" opacity="1" stroke="#000000" stroke-linecap="butt" stroke-linejoin="miter" stroke-miterlimit="2" stroke-opacity="1" stroke-width="0.32" transform="matrix(3.125,0,0,3.125,-992.188,-679.688)"><polyline fill="none" points="369,235 370,236" vector-effect="none"/></g><defs><clipPath id="clip49"><path d="M320,220 L380,220 L380,280 L320,280 L320,220 z"/></clipPath></defs><g clip-path="url(#clip49)" fill="none" opacity="1" stroke="#000000" stroke-linecap="butt" stroke-linejoin="miter" stroke-miterlimit="2" stroke-opacity="1" stroke-width="0.32" transform="matrix(3.125,0,0,3.125,-992.188,-679.688)"><polyline fill="none" points="370,236 371,236" vector-effect="none"/></g><defs><clipPath id="clip50"><path d="M320,220 L380,220 L380,280 L320,280 L320,220 z"/></clipPath></defs><g clip-path="url(#clip50)" fill="none" opacity="1" stroke="#000000" stroke-linecap="butt" stroke-linejoin="miter" stroke-miterlimit="2" stroke-opacity="1" stroke-width="0.32" transform="matrix(3.125,0,0,3.125,-992.188,-679.688)"><polyline fill="none" points="371,236 373,235" vector-effect="none"/></g><defs><clipPath id="clip51"><path d="M320,220 L380,220 L380,280 L320,280 L320,220 z"/></clipPath></defs><g clip-path="url(#clip51)" fill="none" opacity="1" stroke="#000000" stroke-linecap="butt" stroke-linejoin="miter" stroke-miterlimit="2" stroke-opacity="1" stroke-width="0.32" transform="matrix(3.125,0,0,3.125,-992.188,-679.688)"><polyline fill="none" points="373,235 374,235" vector-effect="none"/></g><defs><clipPath id="clip52"><path d="M320,220 L380,220 L380,280 L320,280 L320,220 z"/></clipPath></defs><g clip-path="url(#clip52)" fill="none" opacity="1" stroke="#000000" stroke-linecap="butt" stroke-linejoin="miter" stroke-miterlimit="2" stroke-opacity="1" stroke-width="0.32" transform="matrix(3.125,0,0,3.125,-992.188,-679.688)"><polyline fill="none" points="374,235 375,234" vector-effect="none"/></g><defs><clipPath id="clip53"><path d="M320,220 L380,220 L380,280 L320,280 L320,220 z"/></clipPath></defs><g clip-path="url(#clip53)" fill="none" opacity="1" stroke="#000000" stroke-linecap="butt" stroke-linejoin="miter" stroke-miterlimit="2" stroke-opacity="1" stroke-width="0.32" transform="matrix(3.125,0,0,3.125,-992.188,-679.688)"><polyline fill="none" points="375,234 376,233" vector-effect="none"/></g><defs><clipPath id="clip54"><path d="M320,220 L380,220 L380,280 L320,280 L320,220 z"/></clipPath></defs><g clip-path="url(#clip54)" fill="none" opacity="1" stroke="#000000" stroke-linecap="butt" stroke-linejoin="miter" stroke-miterlimit="2" stroke-opacity="1" stroke-width="0.32" transform="matrix(3.125,0,0,3.125,-992.188,-679.688)"><polyline fill="none" points="376,233 377,233" vector-effect="none"/></g><defs><clipPath id="clip56"><path d="M-72,-271 L235,-271 L235,36 L-72,36 L-72,-271 z"/></clipPath></defs><g clip-path="url(#clip56)" fill="none" opacity="1" stroke="#000000" stroke-linecap="butt" stroke-linejoin="miter" stroke-miterlimit="2" stroke-opacity="1" stroke-width="0.32" transform="matrix(0.610352,0,0,0.610352,50,171.875)"><text fill="#000000" fill-opacity="1" font-family="Liberation Sans" font-size="48" font-style="normal" font-weight="400" stroke="none" textLength="35" x="0" xml:space="preserve" y="1.28125">H</text></g><defs><clipPath id="clip59"><path d="M-118,-241 L189,-241 L189,66 L-118,66 L-118,-241 z"/></clipPath></defs><g clip-path="url(#clip59)" fill="none" opacity="1" stroke="#000000" stroke-linecap="butt" stroke-linejoin="miter" stroke-miterlimit="2" stroke-opacity="1" stroke-width="0.32" transform="matrix(0.610352,0,0,0.610352,78.125,153.125)"><text fill="#000000" fill-opacity="1" font-family="Liberation Sans" font-size="36" font-style="normal" font-weight="400" stroke="none" textLength="32" x="0" xml:space="preserve" y="1.28125">-1</text></g><defs><clipPath id="clip62"><path d="M-159,-271 L148,-271 L148,36 L-159,36 L-159,-271 z"/></clipPath></defs><g clip-path="url(#clip62)" fill="none" opacity="1" stroke="#000000" stroke-linecap="butt" stroke-linejoin="miter" stroke-miterlimit="2" stroke-opacity="1" stroke-width="0.32" transform="matrix(0.610352,0,0,0.610352,103.125,171.875)"><text fill="#000000" fill-opacity="1" font-family="Liberation Sans" font-size="48" font-style="normal" font-weight="400" stroke="none" textLength="56" x="0" xml:space="preserve" y="1.28125">(z)</text></g><defs><clipPath id="clip68"><path d="M-2,-2 L62,-2 L62,62 L-2,62 L-2,-2 z"/></clipPath></defs><g clip-path="url(#clip68)" fill="none" opacity="1" stroke="#000000" stroke-linecap="butt" stroke-linejoin="miter" stroke-miterlimit="2" stroke-opacity="1" stroke-width="0.633957" transform="matrix(3.125,0,0,3.125,6.25,6.25)"><path d="M0,0 L60,0 L60,60 L0,60 L0,0 z" fill-rule="evenodd" vector-effect="none"/></g></g></svg>
