<?xml version="1.0" encoding="UTF-8"?><svg width="52.9167mm" height="52.9167mm" viewBox="0 0 200 200" xmlns="http://www.w3.org/2000/svg" xmlns:xlink="http://www.w3.org/1999/xlink"><g fill="none" stroke="black" stroke-width="1" fill-rule="evenodd" stroke-linecap="square" stroke-linejoin="bevel"><g clip-path="none" fill="none" opacity="1" stroke="none" stroke-opacity="0" transform="matrix(1,0,0,1,0,0)"><path d="M0,0 L200,0 L200,200 L0,200 L0,0 z" fill-rule="evenodd" vector-effect="none"/></g><defs><clipPath id="clip3"><path d="M-2,-2 L62,-2 L62,62 L-2,62 L-2,-2 z"/></clipPath></defs><g clip-path="url(#clip3)" fill="#e8d152" fill-opacity="1" opacity="1" stroke="none" stroke-opacity="0" transform="matrix(3.125,0,0,3.125,6.25,6.25)"><path d="M0,0 L60,0 L60,60 L0,60 L0,0 z" fill-rule="evenodd" vector-effect="none"/></g><defs><clipPath id="clip7"><path d="M220,320 L280,320 L280,380 L220,380 L220,320 z"/></clipPath></defs><g clip-path="url(#clip7)" fill="none" opacity="1" stroke="#000000" stroke-linecap="butt" stroke-linejoin="miter" stroke-miterlimit="2" stroke-opacity="1" stroke-width="0.32" transform="matrix(3.125,0,0,3.125,-679.688,-992.188)"><polyline fill="none" points="247,362 258,362" vector-effect="none"/></g><defs><clipPath id="clip8"><path d="M220,320 L280,320 L280,380 L220,380 L220,320 z"/></clipPath></defs><g clip-path="url(#clip8)" fill="none" opacity="1" stroke="#000000" stroke-linecap="butt" stroke-linejoin="miter" stroke-miterlimit="2" stroke-opacity="1" stroke-width="0.32" transform="matrix(3.125,0,0,3.125,-679.688,-992.188)"><polyline fill="none" points="258,362 255,359" vector-effect="none"/></g><defs><clipPath id="clip9"><path d="M220,320 L280,320 L280,380 L220,380 L220,320 z"/></clipPath></defs><g clip-path="url(#clip9)" fill="none" opacity="1" stroke="#000000" stroke-linecap="butt" stroke-linejoin="miter" stroke-miterlimit="2" stroke-opacity="1" stroke-width="0.32" transform="matrix(3.125,0,0,3.125,-679.688,-992.188)"><polyline fill="none" points="255,359 258,362" vector-effect="none"/></g><defs><clipPath id="clip10"><path d="M220,320 L280,320 L280,380 L220,380 L220,320 z"/></clipPath></defs><g clip-path="url(#clip10)" fill="none" opacity="1" stroke="#000000" stroke-linecap="butt" stroke-linejoin="miter" stroke-miterlimit="2" stroke-opacity="1" stroke-width="0.32" transform="matrix(3.125,0,0,3.125,-679.688,-992.188)"><polyline fill="none" points="258,362 255,365" vector-effect="none"/></g><defs><clipPath id="clip11"><path d="M220,320 L280,320 L280,380 L220,380 L220,320 z"/></clipPath></defs><g clip-path="url(#clip11)" fill="none" opacity="1" stroke="#000000" stroke-linecap="butt" stroke-linejoin="miter" stroke-miterlimit="2" stroke-opacity="1" stroke-width="0.32" transform="matrix(3.125,0,0,3.125,-679.688,-992.188)"><polyline fill="none" points="255,365 258,362" vector-effect="none"/></g><defs><clipPath id="clip12"><path d="M220,320 L280,320 L280,380 L220,380 L220,320 z"/></clipPath></defs><g clip-path="url(#clip12)" fill="none" opacity="1" stroke="#000000" stroke-linecap="butt" stroke-linejoin="miter" stroke-miterlimit="2" stroke-opacity="1" stroke-width="0.32" transform="matrix(3.125,0,0,3.125,-679.688,-992.188)"><polyline fill="none" points="258,362 247,362" vector-effect="none"/></g><defs><clipPath id="clip13"><path d="M220,320 L280,320 L280,380 L220,380 L220,320 z"/></clipPath></defs><g clip-path="url(#clip13)" fill="none" opacity="1" stroke="#000000" stroke-linecap="butt" stroke-linejoin="miter" stroke-miterlimit="2" stroke-opacity="1" stroke-width="0.32" transform="matrix(3.125,0,0,3.125,-679.688,-992.188)"><polyline fill="none" points="247,362 249,359" vector-effect="none"/></g><defs><clipPath id="clip14"><path d="M220,320 L280,320 L280,380 L220,380 L220,320 z"/></clipPath></defs><g clip-path="url(#clip14)" fill="none" opacity="1" stroke="#000000" stroke-linecap="butt" stroke-linejoin="miter" stroke-miterlimit="2" stroke-opacity="1" stroke-width="0.32" transform="matrix(3.125,0,0,3.125,-679.688,-992.188)"><polyline fill="none" points="249,359 247,362" vector-effect="none"/></g><defs><clipPath id="clip15"><path d="M220,320 L280,320 L280,380 L220,380 L220,320 z"/></clipPath></defs><g clip-path="url(#clip15)" fill="none" opacity="1" stroke="#000000" stroke-linecap="butt" stroke-linejoin="miter" stroke-miterlimit="2" stroke-opacity="1" stroke-width="0.32" transform="matrix(3.125,0,0,3.125,-679.688,-992.188)"><polyline fill="none" points="247,362 249,365" vector-effect="none"/></g><defs><clipPath id="clip16"><path d="M220,320 L280,320 L280,380 L220,380 L220,320 z"/></clipPath></defs><g clip-path="url(#clip16)" fill="none" opacity="1" stroke="#000000" stroke-linecap="butt" stroke-linejoin="miter" stroke-miterlimit="2" stroke-opacity="1" stroke-width="0.32" transform="matrix(3.125,0,0,3.125,-679.688,-992.188)"><polyline fill="none" points="251,338 261,338" vector-effect="none"/></g><defs><clipPath id="clip17"><path d="M220,320 L280,320 L280,380 L220,380 L220,320 z"/></clipPath></defs><g clip-path="url(#clip17)" fill="none" opacity="1" stroke="#000000" stroke-linecap="butt" stroke-linejoin="miter" stroke-miterlimit="2" stroke-opacity="1" stroke-width="0.32" transform="matrix(3.125,0,0,3.125,-679.688,-992.188)"><polyline fill="none" points="261,338 259,335" vector-effect="none"/></g><defs><clipPath id="clip18"><path d="M220,320 L280,320 L280,380 L220,380 L220,320 z"/></clipPath></defs><g clip-path="url(#clip18)" fill="none" opacity="1" stroke="#000000" stroke-linecap="butt" stroke-linejoin="miter" stroke-miterlimit="2" stroke-opacity="1" stroke-width="0.32" transform="matrix(3.125,0,0,3.125,-679.688,-992.188)"><polyline fill="none" points="259,335 261,338" vector-effect="none"/></g><defs><clipPath id="clip19"><path d="M220,320 L280,320 L280,380 L220,380 L220,320 z"/></clipPath></defs><g clip-path="url(#clip19)" fill="none" opacity="1" stroke="#000000" stroke-linecap="butt" stroke-linejoin="miter" stroke-miterlimit="2" stroke-opacity="1" stroke-width="0.32" transform="matrix(3.125,0,0,3.125,-679.688,-992.188)"><polyline fill="none" points="261,338 259,340" vector-effect="none"/></g><defs><clipPath id="clip20"><path d="M220,320 L280,320 L280,380 L220,380 L220,320 z"/></clipPath></defs><g clip-path="url(#clip20)" fill="none" opacity="1" stroke="#000000" stroke-linecap="butt" stroke-linejoin="miter" stroke-miterlimit="2" stroke-opacity="1" stroke-width="0.32" transform="matrix(3.125,0,0,3.125,-679.688,-992.188)"><polyline fill="none" points="259,340 261,338" vector-effect="none"/></g><defs><clipPath id="clip21"><path d="M220,320 L280,320 L280,380 L220,380 L220,320 z"/></clipPath></defs><g clip-path="url(#clip21)" fill="none" opacity="1" stroke="#000000" stroke-linecap="butt" stroke-linejoin="miter" stroke-miterlimit="2" stroke-opacity="1" stroke-width="0.32" transform="matrix(3.125,0,0,3.125,-679.688,-992.188)"><polyline fill="none" points="261,338 251,338" vector-effect="none"/></g><defs><clipPath id="clip22"><path d="M220,320 L280,320 L280,380 L220,380 L220,320 z"/></clipPath></defs><g clip-path="url(#clip22)" fill="none" opacity="1" stroke="#000000" stroke-linecap="butt" stroke-linejoin="miter" stroke-miterlimit="2" stroke-opacity="1" stroke-width="0.32" transform="matrix(3.125,0,0,3.125,-679.688,-992.188)"><polyline fill="none" points="251,338 253,335" vector-effect="none"/></g><defs><clipPath id="clip23"><path d="M220,320 L280,320 L280,380 L220,380 L220,320 z"/></clipPath></defs><g clip-path="url(#clip23)" fill="none" opacity="1" stroke="#000000" stroke-linecap="butt" stroke-linejoin="miter" stroke-miterlimit="2" stroke-opacity="1" stroke-width="0.32" transform="matrix(3.125,0,0,3.125,-679.688,-992.188)"><polyline fill="none" points="253,335 251,338" vector-effect="none"/></g><defs><clipPath id="clip24"><path d="M220,320 L280,320 L280,380 L220,380 L220,320 z"/></clipPath></defs><g clip-path="url(#clip24)" fill="none" opacity="1" stroke="#000000" stroke-linecap="butt" stroke-linejoin="miter" stroke-miterlimit="2" stroke-opacity="1" stroke-width="0.32" transform="matrix(3.125,0,0,3.125,-679.688,-992.188)"><polyline fill="none" points="251,338 253,340" vector-effect="none"/></g><defs><clipPath id="clip26"><path d="M-46,-97 L261,-97 L261,210 L-46,210 L-46,-97 z"/></clipPath></defs><g clip-path="url(#clip26)" fill="none" opacity="1" stroke="#000000" stroke-linecap="butt" stroke-linejoin="miter" stroke-miterlimit="2" stroke-opacity="1" stroke-width="0.32" transform="matrix(0.610352,0,0,0.610352,34.375,65.625)"><text fill="#000000" fill-opacity="1" font-family="Liberation Sans" font-size="48" font-style="normal" font-weight="400" stroke="none" textLength="186" x="0" xml:space="preserve" y="21.125">101      5</text></g><defs><clipPath id="clip29"><path d="M-46,-220 L261,-220 L261,87 L-46,87 L-46,-220 z"/></clipPath></defs><g clip-path="url(#clip29)" fill="none" opacity="1" stroke="#000000" stroke-linecap="butt" stroke-linejoin="miter" stroke-miterlimit="2" stroke-opacity="1" stroke-width="0.32" transform="matrix(0.610352,0,0,0.610352,34.375,140.625)"><text fill="#000000" fill-opacity="1" font-family="Liberation Sans" font-size="48" font-style="normal" font-weight="400" stroke="none" textLength="184" x="0" xml:space="preserve" y="21.125">dB      lin</text></g><defs><clipPath id="clip35"><path d="M-2,-2 L62,-2 L62,62 L-2,62 L-2,-2 z"/></clipPath></defs><g clip-path="url(#clip35)" fill="none" opacity="1" stroke="#000000" stroke-linecap="butt" stroke-linejoin="miter" stroke-miterlimit="2" stroke-opacity="1" stroke-width="0.633957" transform="matrix(3.125,0,0,3.125,6.25,6.25)"><path d="M0,0 L60,0 L60,60 L0,60 L0,0 z" fill-rule="evenodd" vector-effect="none"/></g></g></svg>
