<?xml version="1.0" encoding="UTF-8"?><svg width="52.9167mm" height="50.2708mm" viewBox="0 0 200 190" xmlns="http://www.w3.org/2000/svg" xmlns:xlink="http://www.w3.org/1999/xlink"><g fill="none" stroke="black" stroke-width="1" fill-rule="evenodd" stroke-linecap="square" stroke-linejoin="bevel"><g clip-path="none" fill="none" opacity="1" stroke="none" stroke-opacity="0" transform="matrix(1,0,0,1,0,0)"><path d="M0,0 L200,0 L200,190 L0,190 L0,0 z" fill-rule="evenodd" vector-effect="none"/></g><defs><clipPath id="clip3"><path d="M-2,-2 L61,-2 L61,58 L-2,58 L-2,-2 z"/></clipPath></defs><g clip-path="url(#clip3)" fill="#e8d152" fill-opacity="1" opacity="1" stroke="none" stroke-opacity="0" transform="matrix(3.1746,0,0,3.1746,6.34921,6.34921)"><path d="M0,0 L59,0 L59,56 L0,56 L0,0 z" fill-rule="evenodd" vector-effect="none"/></g><defs><clipPath id="clip7"><path d="M182,26 L241,26 L241,82 L182,82 L182,26 z"/></clipPath></defs><g clip-path="url(#clip7)" fill="none" opacity="1" stroke="#000000" stroke-linecap="butt" stroke-linejoin="miter" stroke-miterlimit="2" stroke-opacity="1" stroke-width="0.315" transform="matrix(3.1746,0,0,3.1746,-573.016,-74.6032)"><polyline fill="none" points="187,71 238,71" vector-effect="none"/></g><defs><clipPath id="clip8"><path d="M182,26 L241,26 L241,82 L182,82 L182,26 z"/></clipPath></defs><g clip-path="url(#clip8)" fill="none" opacity="1" stroke="#000000" stroke-linecap="butt" stroke-linejoin="miter" stroke-miterlimit="2" stroke-opacity="1" stroke-width="0.315" transform="matrix(3.1746,0,0,3.1746,-573.016,-74.6032)"><polyline fill="none" points="186,73 189,73" vector-effect="none"/></g><defs><clipPath id="clip9"><path d="M182,26 L241,26 L241,82 L182,82 L182,26 z"/></clipPath></defs><g clip-path="url(#clip9)" fill="none" opacity="1" stroke="#000000" stroke-linecap="butt" stroke-linejoin="miter" stroke-miterlimit="2" stroke-opacity="1" stroke-width="0.315" transform="matrix(3.1746,0,0,3.1746,-573.016,-74.6032)"><polyline fill="none" points="189,73 189,69" vector-effect="none"/></g><defs><clipPath id="clip10"><path d="M182,26 L241,26 L241,82 L182,82 L182,26 z"/></clipPath></defs><g clip-path="url(#clip10)" fill="none" opacity="1" stroke="#000000" stroke-linecap="butt" stroke-linejoin="miter" stroke-miterlimit="2" stroke-opacity="1" stroke-width="0.315" transform="matrix(3.1746,0,0,3.1746,-573.016,-74.6032)"><polyline fill="none" points="189,69 186,69" vector-effect="none"/></g><defs><clipPath id="clip11"><path d="M182,26 L241,26 L241,82 L182,82 L182,26 z"/></clipPath></defs><g clip-path="url(#clip11)" fill="none" opacity="1" stroke="#000000" stroke-linecap="butt" stroke-linejoin="miter" stroke-miterlimit="2" stroke-opacity="1" stroke-width="0.315" transform="matrix(3.1746,0,0,3.1746,-573.016,-74.6032)"><polyline fill="none" points="186,69 186,73" vector-effect="none"/></g><defs><clipPath id="clip12"><path d="M182,26 L241,26 L241,82 L182,82 L182,26 z"/></clipPath></defs><g clip-path="url(#clip12)" fill="#000000" fill-opacity="1" opacity="1" stroke="none" stroke-opacity="0" transform="matrix(3.1746,0,0,3.1746,-573.016,-74.6032)"><path d="M186.5,70.5 L187.5,70.5 L187.5,71.5 L186.5,71.5 L186.5,70.5 z" fill-rule="evenodd" vector-effect="none"/></g><defs><clipPath id="clip13"><path d="M182,26 L241,26 L241,82 L182,82 L182,26 z"/></clipPath></defs><g clip-path="url(#clip13)" fill="none" opacity="1" stroke="#000000" stroke-linecap="square" stroke-linejoin="bevel" stroke-opacity="1" stroke-width="1" transform="matrix(3.1746,0,0,3.1746,-573.016,-74.6032)"><polyline fill="none" points="191,68 194,68" vector-effect="none"/></g><defs><clipPath id="clip14"><path d="M182,26 L241,26 L241,82 L182,82 L182,26 z"/></clipPath></defs><g clip-path="url(#clip14)" fill="none" opacity="1" stroke="#000000" stroke-linecap="square" stroke-linejoin="bevel" stroke-opacity="1" stroke-width="1" transform="matrix(3.1746,0,0,3.1746,-573.016,-74.6032)"><polyline fill="none" points="194,68 194,64" vector-effect="none"/></g><defs><clipPath id="clip15"><path d="M182,26 L241,26 L241,82 L182,82 L182,26 z"/></clipPath></defs><g clip-path="url(#clip15)" fill="none" opacity="1" stroke="#000000" stroke-linecap="square" stroke-linejoin="bevel" stroke-opacity="1" stroke-width="1" transform="matrix(3.1746,0,0,3.1746,-573.016,-74.6032)"><polyline fill="none" points="194,64 191,64" vector-effect="none"/></g><defs><clipPath id="clip16"><path d="M182,26 L241,26 L241,82 L182,82 L182,26 z"/></clipPath></defs><g clip-path="url(#clip16)" fill="none" opacity="1" stroke="#000000" stroke-linecap="square" stroke-linejoin="bevel" stroke-opacity="1" stroke-width="1" transform="matrix(3.1746,0,0,3.1746,-573.016,-74.6032)"><polyline fill="none" points="191,64 191,68" vector-effect="none"/></g><defs><clipPath id="clip17"><path d="M182,26 L241,26 L241,82 L182,82 L182,26 z"/></clipPath></defs><g clip-path="url(#clip17)" fill="none" opacity="1" stroke="#000000" stroke-linecap="square" stroke-linejoin="bevel" stroke-opacity="1" stroke-width="1" transform="matrix(3.1746,0,0,3.1746,-573.016,-74.6032)"><polyline fill="none" points="192,68 192,71" vector-effect="none"/></g><defs><clipPath id="clip18"><path d="M182,26 L241,26 L241,82 L182,82 L182,26 z"/></clipPath></defs><g clip-path="url(#clip18)" fill="none" opacity="1" stroke="#000000" stroke-linecap="square" stroke-linejoin="bevel" stroke-opacity="1" stroke-width="1" transform="matrix(3.1746,0,0,3.1746,-573.016,-74.6032)"><polyline fill="none" points="196,77 199,77" vector-effect="none"/></g><defs><clipPath id="clip19"><path d="M182,26 L241,26 L241,82 L182,82 L182,26 z"/></clipPath></defs><g clip-path="url(#clip19)" fill="none" opacity="1" stroke="#000000" stroke-linecap="square" stroke-linejoin="bevel" stroke-opacity="1" stroke-width="1" transform="matrix(3.1746,0,0,3.1746,-573.016,-74.6032)"><polyline fill="none" points="199,77 199,73" vector-effect="none"/></g><defs><clipPath id="clip20"><path d="M182,26 L241,26 L241,82 L182,82 L182,26 z"/></clipPath></defs><g clip-path="url(#clip20)" fill="none" opacity="1" stroke="#000000" stroke-linecap="square" stroke-linejoin="bevel" stroke-opacity="1" stroke-width="1" transform="matrix(3.1746,0,0,3.1746,-573.016,-74.6032)"><polyline fill="none" points="199,73 196,73" vector-effect="none"/></g><defs><clipPath id="clip21"><path d="M182,26 L241,26 L241,82 L182,82 L182,26 z"/></clipPath></defs><g clip-path="url(#clip21)" fill="none" opacity="1" stroke="#000000" stroke-linecap="square" stroke-linejoin="bevel" stroke-opacity="1" stroke-width="1" transform="matrix(3.1746,0,0,3.1746,-573.016,-74.6032)"><polyline fill="none" points="196,73 196,77" vector-effect="none"/></g><defs><clipPath id="clip22"><path d="M182,26 L241,26 L241,82 L182,82 L182,26 z"/></clipPath></defs><g clip-path="url(#clip22)" fill="none" opacity="1" stroke="#000000" stroke-linecap="square" stroke-linejoin="bevel" stroke-opacity="1" stroke-width="1" transform="matrix(3.1746,0,0,3.1746,-573.016,-74.6032)"><polyline fill="none" points="197,73 197,71" vector-effect="none"/></g><defs><clipPath id="clip23"><path d="M182,26 L241,26 L241,82 L182,82 L182,26 z"/></clipPath></defs><g clip-path="url(#clip23)" fill="none" opacity="1" stroke="#000000" stroke-linecap="square" stroke-linejoin="bevel" stroke-opacity="1" stroke-width="1" transform="matrix(3.1746,0,0,3.1746,-573.016,-74.6032)"><polyline fill="none" points="201,79 204,79" vector-effect="none"/></g><defs><clipPath id="clip24"><path d="M182,26 L241,26 L241,82 L182,82 L182,26 z"/></clipPath></defs><g clip-path="url(#clip24)" fill="none" opacity="1" stroke="#000000" stroke-linecap="square" stroke-linejoin="bevel" stroke-opacity="1" stroke-width="1" transform="matrix(3.1746,0,0,3.1746,-573.016,-74.6032)"><polyline fill="none" points="204,79 204,75" vector-effect="none"/></g><defs><clipPath id="clip25"><path d="M182,26 L241,26 L241,82 L182,82 L182,26 z"/></clipPath></defs><g clip-path="url(#clip25)" fill="none" opacity="1" stroke="#000000" stroke-linecap="square" stroke-linejoin="bevel" stroke-opacity="1" stroke-width="1" transform="matrix(3.1746,0,0,3.1746,-573.016,-74.6032)"><polyline fill="none" points="204,75 201,75" vector-effect="none"/></g><defs><clipPath id="clip26"><path d="M182,26 L241,26 L241,82 L182,82 L182,26 z"/></clipPath></defs><g clip-path="url(#clip26)" fill="none" opacity="1" stroke="#000000" stroke-linecap="square" stroke-linejoin="bevel" stroke-opacity="1" stroke-width="1" transform="matrix(3.1746,0,0,3.1746,-573.016,-74.6032)"><polyline fill="none" points="201,75 201,79" vector-effect="none"/></g><defs><clipPath id="clip27"><path d="M182,26 L241,26 L241,82 L182,82 L182,26 z"/></clipPath></defs><g clip-path="url(#clip27)" fill="none" opacity="1" stroke="#000000" stroke-linecap="square" stroke-linejoin="bevel" stroke-opacity="1" stroke-width="1" transform="matrix(3.1746,0,0,3.1746,-573.016,-74.6032)"><polyline fill="none" points="202,75 202,71" vector-effect="none"/></g><defs><clipPath id="clip28"><path d="M182,26 L241,26 L241,82 L182,82 L182,26 z"/></clipPath></defs><g clip-path="url(#clip28)" fill="none" opacity="1" stroke="#000000" stroke-linecap="square" stroke-linejoin="bevel" stroke-opacity="1" stroke-width="1" transform="matrix(3.1746,0,0,3.1746,-573.016,-74.6032)"><polyline fill="none" points="206,53 209,53" vector-effect="none"/></g><defs><clipPath id="clip29"><path d="M182,26 L241,26 L241,82 L182,82 L182,26 z"/></clipPath></defs><g clip-path="url(#clip29)" fill="none" opacity="1" stroke="#000000" stroke-linecap="square" stroke-linejoin="bevel" stroke-opacity="1" stroke-width="1" transform="matrix(3.1746,0,0,3.1746,-573.016,-74.6032)"><polyline fill="none" points="209,53 209,49" vector-effect="none"/></g><defs><clipPath id="clip30"><path d="M182,26 L241,26 L241,82 L182,82 L182,26 z"/></clipPath></defs><g clip-path="url(#clip30)" fill="none" opacity="1" stroke="#000000" stroke-linecap="square" stroke-linejoin="bevel" stroke-opacity="1" stroke-width="1" transform="matrix(3.1746,0,0,3.1746,-573.016,-74.6032)"><polyline fill="none" points="209,49 206,49" vector-effect="none"/></g><defs><clipPath id="clip31"><path d="M182,26 L241,26 L241,82 L182,82 L182,26 z"/></clipPath></defs><g clip-path="url(#clip31)" fill="none" opacity="1" stroke="#000000" stroke-linecap="square" stroke-linejoin="bevel" stroke-opacity="1" stroke-width="1" transform="matrix(3.1746,0,0,3.1746,-573.016,-74.6032)"><polyline fill="none" points="206,49 206,53" vector-effect="none"/></g><defs><clipPath id="clip32"><path d="M182,26 L241,26 L241,82 L182,82 L182,26 z"/></clipPath></defs><g clip-path="url(#clip32)" fill="none" opacity="1" stroke="#000000" stroke-linecap="square" stroke-linejoin="bevel" stroke-opacity="1" stroke-width="1" transform="matrix(3.1746,0,0,3.1746,-573.016,-74.6032)"><polyline fill="none" points="207,53 207,71" vector-effect="none"/></g><defs><clipPath id="clip33"><path d="M182,26 L241,26 L241,82 L182,82 L182,26 z"/></clipPath></defs><g clip-path="url(#clip33)" fill="none" opacity="1" stroke="#000000" stroke-linecap="square" stroke-linejoin="bevel" stroke-opacity="1" stroke-width="1" transform="matrix(3.1746,0,0,3.1746,-573.016,-74.6032)"><polyline fill="none" points="211,33 214,33" vector-effect="none"/></g><defs><clipPath id="clip34"><path d="M182,26 L241,26 L241,82 L182,82 L182,26 z"/></clipPath></defs><g clip-path="url(#clip34)" fill="none" opacity="1" stroke="#000000" stroke-linecap="square" stroke-linejoin="bevel" stroke-opacity="1" stroke-width="1" transform="matrix(3.1746,0,0,3.1746,-573.016,-74.6032)"><polyline fill="none" points="214,33 214,29" vector-effect="none"/></g><defs><clipPath id="clip35"><path d="M182,26 L241,26 L241,82 L182,82 L182,26 z"/></clipPath></defs><g clip-path="url(#clip35)" fill="none" opacity="1" stroke="#000000" stroke-linecap="square" stroke-linejoin="bevel" stroke-opacity="1" stroke-width="1" transform="matrix(3.1746,0,0,3.1746,-573.016,-74.6032)"><polyline fill="none" points="214,29 211,29" vector-effect="none"/></g><defs><clipPath id="clip36"><path d="M182,26 L241,26 L241,82 L182,82 L182,26 z"/></clipPath></defs><g clip-path="url(#clip36)" fill="none" opacity="1" stroke="#000000" stroke-linecap="square" stroke-linejoin="bevel" stroke-opacity="1" stroke-width="1" transform="matrix(3.1746,0,0,3.1746,-573.016,-74.6032)"><polyline fill="none" points="211,29 211,33" vector-effect="none"/></g><defs><clipPath id="clip37"><path d="M182,26 L241,26 L241,82 L182,82 L182,26 z"/></clipPath></defs><g clip-path="url(#clip37)" fill="none" opacity="1" stroke="#000000" stroke-linecap="square" stroke-linejoin="bevel" stroke-opacity="1" stroke-width="1" transform="matrix(3.1746,0,0,3.1746,-573.016,-74.6032)"><polyline fill="none" points="213,33 213,71" vector-effect="none"/></g><defs><clipPath id="clip38"><path d="M182,26 L241,26 L241,82 L182,82 L182,26 z"/></clipPath></defs><g clip-path="url(#clip38)" fill="none" opacity="1" stroke="#000000" stroke-linecap="square" stroke-linejoin="bevel" stroke-opacity="1" stroke-width="1" transform="matrix(3.1746,0,0,3.1746,-573.016,-74.6032)"><polyline fill="none" points="216,53 219,53" vector-effect="none"/></g><defs><clipPath id="clip39"><path d="M182,26 L241,26 L241,82 L182,82 L182,26 z"/></clipPath></defs><g clip-path="url(#clip39)" fill="none" opacity="1" stroke="#000000" stroke-linecap="square" stroke-linejoin="bevel" stroke-opacity="1" stroke-width="1" transform="matrix(3.1746,0,0,3.1746,-573.016,-74.6032)"><polyline fill="none" points="219,53 219,49" vector-effect="none"/></g><defs><clipPath id="clip40"><path d="M182,26 L241,26 L241,82 L182,82 L182,26 z"/></clipPath></defs><g clip-path="url(#clip40)" fill="none" opacity="1" stroke="#000000" stroke-linecap="square" stroke-linejoin="bevel" stroke-opacity="1" stroke-width="1" transform="matrix(3.1746,0,0,3.1746,-573.016,-74.6032)"><polyline fill="none" points="219,49 216,49" vector-effect="none"/></g><defs><clipPath id="clip41"><path d="M182,26 L241,26 L241,82 L182,82 L182,26 z"/></clipPath></defs><g clip-path="url(#clip41)" fill="none" opacity="1" stroke="#000000" stroke-linecap="square" stroke-linejoin="bevel" stroke-opacity="1" stroke-width="1" transform="matrix(3.1746,0,0,3.1746,-573.016,-74.6032)"><polyline fill="none" points="216,49 216,53" vector-effect="none"/></g><defs><clipPath id="clip42"><path d="M182,26 L241,26 L241,82 L182,82 L182,26 z"/></clipPath></defs><g clip-path="url(#clip42)" fill="none" opacity="1" stroke="#000000" stroke-linecap="square" stroke-linejoin="bevel" stroke-opacity="1" stroke-width="1" transform="matrix(3.1746,0,0,3.1746,-573.016,-74.6032)"><polyline fill="none" points="218,53 218,71" vector-effect="none"/></g><defs><clipPath id="clip43"><path d="M182,26 L241,26 L241,82 L182,82 L182,26 z"/></clipPath></defs><g clip-path="url(#clip43)" fill="none" opacity="1" stroke="#000000" stroke-linecap="square" stroke-linejoin="bevel" stroke-opacity="1" stroke-width="1" transform="matrix(3.1746,0,0,3.1746,-573.016,-74.6032)"><polyline fill="none" points="221,79 224,79" vector-effect="none"/></g><defs><clipPath id="clip44"><path d="M182,26 L241,26 L241,82 L182,82 L182,26 z"/></clipPath></defs><g clip-path="url(#clip44)" fill="none" opacity="1" stroke="#000000" stroke-linecap="square" stroke-linejoin="bevel" stroke-opacity="1" stroke-width="1" transform="matrix(3.1746,0,0,3.1746,-573.016,-74.6032)"><polyline fill="none" points="224,79 224,75" vector-effect="none"/></g><defs><clipPath id="clip45"><path d="M182,26 L241,26 L241,82 L182,82 L182,26 z"/></clipPath></defs><g clip-path="url(#clip45)" fill="none" opacity="1" stroke="#000000" stroke-linecap="square" stroke-linejoin="bevel" stroke-opacity="1" stroke-width="1" transform="matrix(3.1746,0,0,3.1746,-573.016,-74.6032)"><polyline fill="none" points="224,75 221,75" vector-effect="none"/></g><defs><clipPath id="clip46"><path d="M182,26 L241,26 L241,82 L182,82 L182,26 z"/></clipPath></defs><g clip-path="url(#clip46)" fill="none" opacity="1" stroke="#000000" stroke-linecap="square" stroke-linejoin="bevel" stroke-opacity="1" stroke-width="1" transform="matrix(3.1746,0,0,3.1746,-573.016,-74.6032)"><polyline fill="none" points="221,75 221,79" vector-effect="none"/></g><defs><clipPath id="clip47"><path d="M182,26 L241,26 L241,82 L182,82 L182,26 z"/></clipPath></defs><g clip-path="url(#clip47)" fill="none" opacity="1" stroke="#000000" stroke-linecap="square" stroke-linejoin="bevel" stroke-opacity="1" stroke-width="1" transform="matrix(3.1746,0,0,3.1746,-573.016,-74.6032)"><polyline fill="none" points="223,75 223,71" vector-effect="none"/></g><defs><clipPath id="clip48"><path d="M182,26 L241,26 L241,82 L182,82 L182,26 z"/></clipPath></defs><g clip-path="url(#clip48)" fill="none" opacity="1" stroke="#000000" stroke-linecap="square" stroke-linejoin="bevel" stroke-opacity="1" stroke-width="1" transform="matrix(3.1746,0,0,3.1746,-573.016,-74.6032)"><polyline fill="none" points="226,77 229,77" vector-effect="none"/></g><defs><clipPath id="clip49"><path d="M182,26 L241,26 L241,82 L182,82 L182,26 z"/></clipPath></defs><g clip-path="url(#clip49)" fill="none" opacity="1" stroke="#000000" stroke-linecap="square" stroke-linejoin="bevel" stroke-opacity="1" stroke-width="1" transform="matrix(3.1746,0,0,3.1746,-573.016,-74.6032)"><polyline fill="none" points="229,77 229,73" vector-effect="none"/></g><defs><clipPath id="clip50"><path d="M182,26 L241,26 L241,82 L182,82 L182,26 z"/></clipPath></defs><g clip-path="url(#clip50)" fill="none" opacity="1" stroke="#000000" stroke-linecap="square" stroke-linejoin="bevel" stroke-opacity="1" stroke-width="1" transform="matrix(3.1746,0,0,3.1746,-573.016,-74.6032)"><polyline fill="none" points="229,73 226,73" vector-effect="none"/></g><defs><clipPath id="clip51"><path d="M182,26 L241,26 L241,82 L182,82 L182,26 z"/></clipPath></defs><g clip-path="url(#clip51)" fill="none" opacity="1" stroke="#000000" stroke-linecap="square" stroke-linejoin="bevel" stroke-opacity="1" stroke-width="1" transform="matrix(3.1746,0,0,3.1746,-573.016,-74.6032)"><polyline fill="none" points="226,73 226,77" vector-effect="none"/></g><defs><clipPath id="clip52"><path d="M182,26 L241,26 L241,82 L182,82 L182,26 z"/></clipPath></defs><g clip-path="url(#clip52)" fill="none" opacity="1" stroke="#000000" stroke-linecap="square" stroke-linejoin="bevel" stroke-opacity="1" stroke-width="1" transform="matrix(3.1746,0,0,3.1746,-573.016,-74.6032)"><polyline fill="none" points="228,73 228,71" vector-effect="none"/></g><defs><clipPath id="clip53"><path d="M182,26 L241,26 L241,82 L182,82 L182,26 z"/></clipPath></defs><g clip-path="url(#clip53)" fill="none" opacity="1" stroke="#000000" stroke-linecap="square" stroke-linejoin="bevel" stroke-opacity="1" stroke-width="1" transform="matrix(3.1746,0,0,3.1746,-573.016,-74.6032)"><polyline fill="none" points="231,68 234,68" vector-effect="none"/></g><defs><clipPath id="clip54"><path d="M182,26 L241,26 L241,82 L182,82 L182,26 z"/></clipPath></defs><g clip-path="url(#clip54)" fill="none" opacity="1" stroke="#000000" stroke-linecap="square" stroke-linejoin="bevel" stroke-opacity="1" stroke-width="1" transform="matrix(3.1746,0,0,3.1746,-573.016,-74.6032)"><polyline fill="none" points="234,68 234,64" vector-effect="none"/></g><defs><clipPath id="clip55"><path d="M182,26 L241,26 L241,82 L182,82 L182,26 z"/></clipPath></defs><g clip-path="url(#clip55)" fill="none" opacity="1" stroke="#000000" stroke-linecap="square" stroke-linejoin="bevel" stroke-opacity="1" stroke-width="1" transform="matrix(3.1746,0,0,3.1746,-573.016,-74.6032)"><polyline fill="none" points="234,64 231,64" vector-effect="none"/></g><defs><clipPath id="clip56"><path d="M182,26 L241,26 L241,82 L182,82 L182,26 z"/></clipPath></defs><g clip-path="url(#clip56)" fill="none" opacity="1" stroke="#000000" stroke-linecap="square" stroke-linejoin="bevel" stroke-opacity="1" stroke-width="1" transform="matrix(3.1746,0,0,3.1746,-573.016,-74.6032)"><polyline fill="none" points="231,64 231,68" vector-effect="none"/></g><defs><clipPath id="clip57"><path d="M182,26 L241,26 L241,82 L182,82 L182,26 z"/></clipPath></defs><g clip-path="url(#clip57)" fill="none" opacity="1" stroke="#000000" stroke-linecap="square" stroke-linejoin="bevel" stroke-opacity="1" stroke-width="1" transform="matrix(3.1746,0,0,3.1746,-573.016,-74.6032)"><polyline fill="none" points="233,68 233,71" vector-effect="none"/></g><defs><clipPath id="clip58"><path d="M182,26 L241,26 L241,82 L182,82 L182,26 z"/></clipPath></defs><g clip-path="url(#clip58)" fill="none" opacity="1" stroke="#000000" stroke-linecap="square" stroke-linejoin="bevel" stroke-opacity="1" stroke-width="1" transform="matrix(3.1746,0,0,3.1746,-573.016,-74.6032)"><polyline fill="none" points="236,73 239,73" vector-effect="none"/></g><defs><clipPath id="clip59"><path d="M182,26 L241,26 L241,82 L182,82 L182,26 z"/></clipPath></defs><g clip-path="url(#clip59)" fill="none" opacity="1" stroke="#000000" stroke-linecap="square" stroke-linejoin="bevel" stroke-opacity="1" stroke-width="1" transform="matrix(3.1746,0,0,3.1746,-573.016,-74.6032)"><polyline fill="none" points="239,73 239,69" vector-effect="none"/></g><defs><clipPath id="clip60"><path d="M182,26 L241,26 L241,82 L182,82 L182,26 z"/></clipPath></defs><g clip-path="url(#clip60)" fill="none" opacity="1" stroke="#000000" stroke-linecap="square" stroke-linejoin="bevel" stroke-opacity="1" stroke-width="1" transform="matrix(3.1746,0,0,3.1746,-573.016,-74.6032)"><polyline fill="none" points="239,69 236,69" vector-effect="none"/></g><defs><clipPath id="clip61"><path d="M182,26 L241,26 L241,82 L182,82 L182,26 z"/></clipPath></defs><g clip-path="url(#clip61)" fill="none" opacity="1" stroke="#000000" stroke-linecap="square" stroke-linejoin="bevel" stroke-opacity="1" stroke-width="1" transform="matrix(3.1746,0,0,3.1746,-573.016,-74.6032)"><polyline fill="none" points="236,69 236,73" vector-effect="none"/></g><defs><clipPath id="clip62"><path d="M182,26 L241,26 L241,82 L182,82 L182,26 z"/></clipPath></defs><g clip-path="url(#clip62)" fill="#000000" fill-opacity="1" opacity="1" stroke="none" stroke-opacity="0" transform="matrix(3.1746,0,0,3.1746,-573.016,-74.6032)"><path d="M237.5,70.5 L238.5,70.5 L238.5,71.5 L237.5,71.5 L237.5,70.5 z" fill-rule="evenodd" vector-effect="none"/></g><defs><clipPath id="clip67"><path d="M-2,-2 L61,-2 L61,58 L-2,58 L-2,-2 z"/></clipPath></defs><g clip-path="url(#clip67)" fill="none" opacity="1" stroke="#000000" stroke-linecap="butt" stroke-linejoin="miter" stroke-miterlimit="2" stroke-opacity="1" stroke-width="0.629976" transform="matrix(3.1746,0,0,3.1746,6.34921,6.34921)"><path d="M0,0 L59,0 L59,56 L0,56 L0,0 z" fill-rule="evenodd" vector-effect="none"/></g></g></svg>
