<?xml version="1.0" encoding="UTF-8"?><svg width="52.9167mm" height="49.4771mm" viewBox="0 0 200 187" xmlns="http://www.w3.org/2000/svg" xmlns:xlink="http://www.w3.org/1999/xlink"><g fill="none" stroke="black" stroke-width="1" fill-rule="evenodd" stroke-linecap="square" stroke-linejoin="bevel"><g clip-path="none" fill="none" opacity="1" stroke="none" stroke-opacity="0" transform="matrix(1,0,0,1,0,0)"><path d="M0,0 L200,0 L200,187 L0,187 L0,0 z" fill-rule="evenodd" vector-effect="none"/></g><defs><clipPath id="clip3"><path d="M-2,-2 L62,-2 L62,58 L-2,58 L-2,-2 z"/></clipPath></defs><g clip-path="url(#clip3)" fill="#e8d152" fill-opacity="1" opacity="1" stroke="none" stroke-opacity="0" transform="matrix(3.125,0,0,3.125,6.25,6.25)"><path d="M0,0 L60,0 L60,56 L0,56 L0,0 z" fill-rule="evenodd" vector-effect="none"/></g><defs><clipPath id="clip7"><path d="M355,26 L415,26 L415,82 L355,82 L355,26 z"/></clipPath></defs><g clip-path="url(#clip7)" fill="none" opacity="1" stroke="#000000" stroke-linecap="butt" stroke-linejoin="miter" stroke-miterlimit="2" stroke-opacity="1" stroke-width="0.32" transform="matrix(3.125,0,0,3.125,-1101.56,-73.4375)"><polyline fill="none" points="362,52 370,56" vector-effect="none"/></g><defs><clipPath id="clip8"><path d="M355,26 L415,26 L415,82 L355,82 L355,26 z"/></clipPath></defs><g clip-path="url(#clip8)" fill="none" opacity="1" stroke="#000000" stroke-linecap="butt" stroke-linejoin="miter" stroke-miterlimit="2" stroke-opacity="1" stroke-width="0.32" transform="matrix(3.125,0,0,3.125,-1101.56,-73.4375)"><polyline fill="none" points="370,56 362,60" vector-effect="none"/></g><defs><clipPath id="clip9"><path d="M355,26 L415,26 L415,82 L355,82 L355,26 z"/></clipPath></defs><g clip-path="url(#clip9)" fill="none" opacity="1" stroke="#000000" stroke-linecap="butt" stroke-linejoin="miter" stroke-miterlimit="2" stroke-opacity="1" stroke-width="0.32" transform="matrix(3.125,0,0,3.125,-1101.56,-73.4375)"><polyline fill="none" points="362,40 366,40" vector-effect="none"/></g><defs><clipPath id="clip10"><path d="M355,26 L415,26 L415,82 L355,82 L355,26 z"/></clipPath></defs><g clip-path="url(#clip10)" fill="none" opacity="1" stroke="#000000" stroke-linecap="butt" stroke-linejoin="miter" stroke-miterlimit="2" stroke-opacity="1" stroke-width="0.32" transform="matrix(3.125,0,0,3.125,-1101.56,-73.4375)"><polyline fill="none" points="366,40 362,45" vector-effect="none"/></g><defs><clipPath id="clip11"><path d="M355,26 L415,26 L415,82 L355,82 L355,26 z"/></clipPath></defs><g clip-path="url(#clip11)" fill="none" opacity="1" stroke="#000000" stroke-linecap="butt" stroke-linejoin="miter" stroke-miterlimit="2" stroke-opacity="1" stroke-width="0.32" transform="matrix(3.125,0,0,3.125,-1101.56,-73.4375)"><polyline fill="none" points="362,45 366,45" vector-effect="none"/></g><defs><clipPath id="clip12"><path d="M355,26 L415,26 L415,82 L355,82 L355,26 z"/></clipPath></defs><g clip-path="url(#clip12)" fill="none" opacity="1" stroke="#000000" stroke-linecap="butt" stroke-linejoin="miter" stroke-miterlimit="2" stroke-opacity="1" stroke-width="0.32" transform="matrix(3.125,0,0,3.125,-1101.56,-73.4375)"><polyline fill="none" points="369,39 371,39" vector-effect="none"/></g><defs><clipPath id="clip13"><path d="M355,26 L415,26 L415,82 L355,82 L355,26 z"/></clipPath></defs><g clip-path="url(#clip13)" fill="none" opacity="1" stroke="#000000" stroke-linecap="butt" stroke-linejoin="miter" stroke-miterlimit="2" stroke-opacity="1" stroke-width="0.32" transform="matrix(3.125,0,0,3.125,-1101.56,-73.4375)"><polyline fill="none" points="373,35 373,42" vector-effect="none"/></g><defs><clipPath id="clip14"><path d="M355,26 L415,26 L415,82 L355,82 L355,26 z"/></clipPath></defs><g clip-path="url(#clip14)" fill="none" opacity="1" stroke="#000000" stroke-linecap="butt" stroke-linejoin="miter" stroke-miterlimit="2" stroke-opacity="1" stroke-width="0.32" transform="matrix(3.125,0,0,3.125,-1101.56,-73.4375)"><polyline fill="none" points="359,56 379,56" vector-effect="none"/></g><defs><clipPath id="clip15"><path d="M355,26 L415,26 L415,82 L355,82 L355,26 z"/></clipPath></defs><g clip-path="url(#clip15)" fill="none" opacity="1" stroke="#000000" stroke-linecap="butt" stroke-linejoin="miter" stroke-miterlimit="2" stroke-opacity="1" stroke-width="0.32" transform="matrix(3.125,0,0,3.125,-1101.56,-73.4375)"><polyline fill="none" points="379,56 379,42" vector-effect="none"/></g><defs><clipPath id="clip16"><path d="M355,26 L415,26 L415,82 L355,82 L355,26 z"/></clipPath></defs><g clip-path="url(#clip16)" fill="none" opacity="1" stroke="#000000" stroke-linecap="butt" stroke-linejoin="miter" stroke-miterlimit="2" stroke-opacity="1" stroke-width="0.32" transform="matrix(3.125,0,0,3.125,-1101.56,-73.4375)"><polyline fill="none" points="379,42 404,42" vector-effect="none"/></g><defs><clipPath id="clip17"><path d="M355,26 L415,26 L415,82 L355,82 L355,26 z"/></clipPath></defs><g clip-path="url(#clip17)" fill="none" opacity="1" stroke="#000000" stroke-linecap="butt" stroke-linejoin="miter" stroke-miterlimit="2" stroke-opacity="1" stroke-width="0.32" transform="matrix(3.125,0,0,3.125,-1101.56,-73.4375)"><polyline fill="none" points="404,42 404,70" vector-effect="none"/></g><defs><clipPath id="clip18"><path d="M355,26 L415,26 L415,82 L355,82 L355,26 z"/></clipPath></defs><g clip-path="url(#clip18)" fill="none" opacity="1" stroke="#000000" stroke-linecap="butt" stroke-linejoin="miter" stroke-miterlimit="2" stroke-opacity="1" stroke-width="0.32" transform="matrix(3.125,0,0,3.125,-1101.56,-73.4375)"><polyline fill="none" points="404,70 379,70" vector-effect="none"/></g><defs><clipPath id="clip19"><path d="M355,26 L415,26 L415,82 L355,82 L355,26 z"/></clipPath></defs><g clip-path="url(#clip19)" fill="none" opacity="1" stroke="#000000" stroke-linecap="butt" stroke-linejoin="miter" stroke-miterlimit="2" stroke-opacity="1" stroke-width="0.32" transform="matrix(3.125,0,0,3.125,-1101.56,-73.4375)"><polyline fill="none" points="379,70 379,56" vector-effect="none"/></g><defs><clipPath id="clip20"><path d="M355,26 L415,26 L415,82 L355,82 L355,26 z"/></clipPath></defs><g clip-path="url(#clip20)" fill="none" opacity="1" stroke="#000000" stroke-linecap="butt" stroke-linejoin="miter" stroke-miterlimit="2" stroke-opacity="1" stroke-width="0.32" transform="matrix(3.125,0,0,3.125,-1101.56,-73.4375)"><polyline fill="none" points="404,56 411,56" vector-effect="none"/></g><defs><clipPath id="clip21"><path d="M355,26 L415,26 L415,82 L355,82 L355,26 z"/></clipPath></defs><g clip-path="url(#clip21)" fill="none" opacity="1" stroke="#000000" stroke-linecap="butt" stroke-linejoin="miter" stroke-miterlimit="2" stroke-opacity="1" stroke-width="0.32" transform="matrix(3.125,0,0,3.125,-1101.56,-73.4375)"><polyline fill="none" points="380,68 381,68" vector-effect="none"/></g><defs><clipPath id="clip22"><path d="M355,26 L415,26 L415,82 L355,82 L355,26 z"/></clipPath></defs><g clip-path="url(#clip22)" fill="none" opacity="1" stroke="#000000" stroke-linecap="butt" stroke-linejoin="miter" stroke-miterlimit="2" stroke-opacity="1" stroke-width="0.32" transform="matrix(3.125,0,0,3.125,-1101.56,-73.4375)"><polyline fill="none" points="381,68 381,67" vector-effect="none"/></g><defs><clipPath id="clip23"><path d="M355,26 L415,26 L415,82 L355,82 L355,26 z"/></clipPath></defs><g clip-path="url(#clip23)" fill="none" opacity="1" stroke="#000000" stroke-linecap="butt" stroke-linejoin="miter" stroke-miterlimit="2" stroke-opacity="1" stroke-width="0.32" transform="matrix(3.125,0,0,3.125,-1101.56,-73.4375)"><polyline fill="none" points="381,67 382,66" vector-effect="none"/></g><defs><clipPath id="clip24"><path d="M355,26 L415,26 L415,82 L355,82 L355,26 z"/></clipPath></defs><g clip-path="url(#clip24)" fill="none" opacity="1" stroke="#000000" stroke-linecap="butt" stroke-linejoin="miter" stroke-miterlimit="2" stroke-opacity="1" stroke-width="0.32" transform="matrix(3.125,0,0,3.125,-1101.56,-73.4375)"><polyline fill="none" points="382,66 383,65" vector-effect="none"/></g><defs><clipPath id="clip25"><path d="M355,26 L415,26 L415,82 L355,82 L355,26 z"/></clipPath></defs><g clip-path="url(#clip25)" fill="none" opacity="1" stroke="#000000" stroke-linecap="butt" stroke-linejoin="miter" stroke-miterlimit="2" stroke-opacity="1" stroke-width="0.32" transform="matrix(3.125,0,0,3.125,-1101.56,-73.4375)"><polyline fill="none" points="383,65 383,63" vector-effect="none"/></g><defs><clipPath id="clip26"><path d="M355,26 L415,26 L415,82 L355,82 L355,26 z"/></clipPath></defs><g clip-path="url(#clip26)" fill="none" opacity="1" stroke="#000000" stroke-linecap="butt" stroke-linejoin="miter" stroke-miterlimit="2" stroke-opacity="1" stroke-width="0.32" transform="matrix(3.125,0,0,3.125,-1101.56,-73.4375)"><polyline fill="none" points="383,63 384,61" vector-effect="none"/></g><defs><clipPath id="clip27"><path d="M355,26 L415,26 L415,82 L355,82 L355,26 z"/></clipPath></defs><g clip-path="url(#clip27)" fill="none" opacity="1" stroke="#000000" stroke-linecap="butt" stroke-linejoin="miter" stroke-miterlimit="2" stroke-opacity="1" stroke-width="0.32" transform="matrix(3.125,0,0,3.125,-1101.56,-73.4375)"><polyline fill="none" points="384,61 385,58" vector-effect="none"/></g><defs><clipPath id="clip28"><path d="M355,26 L415,26 L415,82 L355,82 L355,26 z"/></clipPath></defs><g clip-path="url(#clip28)" fill="none" opacity="1" stroke="#000000" stroke-linecap="butt" stroke-linejoin="miter" stroke-miterlimit="2" stroke-opacity="1" stroke-width="0.32" transform="matrix(3.125,0,0,3.125,-1101.56,-73.4375)"><polyline fill="none" points="385,58 386,56" vector-effect="none"/></g><defs><clipPath id="clip29"><path d="M355,26 L415,26 L415,82 L355,82 L355,26 z"/></clipPath></defs><g clip-path="url(#clip29)" fill="none" opacity="1" stroke="#000000" stroke-linecap="butt" stroke-linejoin="miter" stroke-miterlimit="2" stroke-opacity="1" stroke-width="0.32" transform="matrix(3.125,0,0,3.125,-1101.56,-73.4375)"><polyline fill="none" points="386,56 386,54" vector-effect="none"/></g><defs><clipPath id="clip30"><path d="M355,26 L415,26 L415,82 L355,82 L355,26 z"/></clipPath></defs><g clip-path="url(#clip30)" fill="none" opacity="1" stroke="#000000" stroke-linecap="butt" stroke-linejoin="miter" stroke-miterlimit="2" stroke-opacity="1" stroke-width="0.32" transform="matrix(3.125,0,0,3.125,-1101.56,-73.4375)"><polyline fill="none" points="386,54 387,51" vector-effect="none"/></g><defs><clipPath id="clip31"><path d="M355,26 L415,26 L415,82 L355,82 L355,26 z"/></clipPath></defs><g clip-path="url(#clip31)" fill="none" opacity="1" stroke="#000000" stroke-linecap="butt" stroke-linejoin="miter" stroke-miterlimit="2" stroke-opacity="1" stroke-width="0.32" transform="matrix(3.125,0,0,3.125,-1101.56,-73.4375)"><polyline fill="none" points="387,51 388,49" vector-effect="none"/></g><defs><clipPath id="clip32"><path d="M355,26 L415,26 L415,82 L355,82 L355,26 z"/></clipPath></defs><g clip-path="url(#clip32)" fill="none" opacity="1" stroke="#000000" stroke-linecap="butt" stroke-linejoin="miter" stroke-miterlimit="2" stroke-opacity="1" stroke-width="0.32" transform="matrix(3.125,0,0,3.125,-1101.56,-73.4375)"><polyline fill="none" points="388,49 389,48" vector-effect="none"/></g><defs><clipPath id="clip33"><path d="M355,26 L415,26 L415,82 L355,82 L355,26 z"/></clipPath></defs><g clip-path="url(#clip33)" fill="none" opacity="1" stroke="#000000" stroke-linecap="butt" stroke-linejoin="miter" stroke-miterlimit="2" stroke-opacity="1" stroke-width="0.32" transform="matrix(3.125,0,0,3.125,-1101.56,-73.4375)"><polyline fill="none" points="389,48 389,46" vector-effect="none"/></g><defs><clipPath id="clip34"><path d="M355,26 L415,26 L415,82 L355,82 L355,26 z"/></clipPath></defs><g clip-path="url(#clip34)" fill="none" opacity="1" stroke="#000000" stroke-linecap="butt" stroke-linejoin="miter" stroke-miterlimit="2" stroke-opacity="1" stroke-width="0.32" transform="matrix(3.125,0,0,3.125,-1101.56,-73.4375)"><polyline fill="none" points="389,46 390,45" vector-effect="none"/></g><defs><clipPath id="clip35"><path d="M355,26 L415,26 L415,82 L355,82 L355,26 z"/></clipPath></defs><g clip-path="url(#clip35)" fill="none" opacity="1" stroke="#000000" stroke-linecap="butt" stroke-linejoin="miter" stroke-miterlimit="2" stroke-opacity="1" stroke-width="0.32" transform="matrix(3.125,0,0,3.125,-1101.56,-73.4375)"><polyline fill="none" points="390,45 391,45" vector-effect="none"/></g><defs><clipPath id="clip36"><path d="M355,26 L415,26 L415,82 L355,82 L355,26 z"/></clipPath></defs><g clip-path="url(#clip36)" fill="none" opacity="1" stroke="#000000" stroke-linecap="butt" stroke-linejoin="miter" stroke-miterlimit="2" stroke-opacity="1" stroke-width="0.32" transform="matrix(3.125,0,0,3.125,-1101.56,-73.4375)"><polyline fill="none" points="391,45 392,45" vector-effect="none"/></g><defs><clipPath id="clip37"><path d="M355,26 L415,26 L415,82 L355,82 L355,26 z"/></clipPath></defs><g clip-path="url(#clip37)" fill="none" opacity="1" stroke="#000000" stroke-linecap="butt" stroke-linejoin="miter" stroke-miterlimit="2" stroke-opacity="1" stroke-width="0.32" transform="matrix(3.125,0,0,3.125,-1101.56,-73.4375)"><polyline fill="none" points="392,45 393,46" vector-effect="none"/></g><defs><clipPath id="clip38"><path d="M355,26 L415,26 L415,82 L355,82 L355,26 z"/></clipPath></defs><g clip-path="url(#clip38)" fill="none" opacity="1" stroke="#000000" stroke-linecap="butt" stroke-linejoin="miter" stroke-miterlimit="2" stroke-opacity="1" stroke-width="0.32" transform="matrix(3.125,0,0,3.125,-1101.56,-73.4375)"><polyline fill="none" points="393,46 394,48" vector-effect="none"/></g><defs><clipPath id="clip39"><path d="M355,26 L415,26 L415,82 L355,82 L355,26 z"/></clipPath></defs><g clip-path="url(#clip39)" fill="none" opacity="1" stroke="#000000" stroke-linecap="butt" stroke-linejoin="miter" stroke-miterlimit="2" stroke-opacity="1" stroke-width="0.32" transform="matrix(3.125,0,0,3.125,-1101.56,-73.4375)"><polyline fill="none" points="394,48 394,49" vector-effect="none"/></g><defs><clipPath id="clip40"><path d="M355,26 L415,26 L415,82 L355,82 L355,26 z"/></clipPath></defs><g clip-path="url(#clip40)" fill="none" opacity="1" stroke="#000000" stroke-linecap="butt" stroke-linejoin="miter" stroke-miterlimit="2" stroke-opacity="1" stroke-width="0.32" transform="matrix(3.125,0,0,3.125,-1101.56,-73.4375)"><polyline fill="none" points="394,49 395,51" vector-effect="none"/></g><defs><clipPath id="clip41"><path d="M355,26 L415,26 L415,82 L355,82 L355,26 z"/></clipPath></defs><g clip-path="url(#clip41)" fill="none" opacity="1" stroke="#000000" stroke-linecap="butt" stroke-linejoin="miter" stroke-miterlimit="2" stroke-opacity="1" stroke-width="0.32" transform="matrix(3.125,0,0,3.125,-1101.56,-73.4375)"><polyline fill="none" points="395,51 396,54" vector-effect="none"/></g><defs><clipPath id="clip42"><path d="M355,26 L415,26 L415,82 L355,82 L355,26 z"/></clipPath></defs><g clip-path="url(#clip42)" fill="none" opacity="1" stroke="#000000" stroke-linecap="butt" stroke-linejoin="miter" stroke-miterlimit="2" stroke-opacity="1" stroke-width="0.32" transform="matrix(3.125,0,0,3.125,-1101.56,-73.4375)"><polyline fill="none" points="396,54 397,56" vector-effect="none"/></g><defs><clipPath id="clip43"><path d="M355,26 L415,26 L415,82 L355,82 L355,26 z"/></clipPath></defs><g clip-path="url(#clip43)" fill="none" opacity="1" stroke="#000000" stroke-linecap="butt" stroke-linejoin="miter" stroke-miterlimit="2" stroke-opacity="1" stroke-width="0.32" transform="matrix(3.125,0,0,3.125,-1101.56,-73.4375)"><polyline fill="none" points="397,56 397,58" vector-effect="none"/></g><defs><clipPath id="clip44"><path d="M355,26 L415,26 L415,82 L355,82 L355,26 z"/></clipPath></defs><g clip-path="url(#clip44)" fill="none" opacity="1" stroke="#000000" stroke-linecap="butt" stroke-linejoin="miter" stroke-miterlimit="2" stroke-opacity="1" stroke-width="0.32" transform="matrix(3.125,0,0,3.125,-1101.56,-73.4375)"><polyline fill="none" points="397,58 398,61" vector-effect="none"/></g><defs><clipPath id="clip45"><path d="M355,26 L415,26 L415,82 L355,82 L355,26 z"/></clipPath></defs><g clip-path="url(#clip45)" fill="none" opacity="1" stroke="#000000" stroke-linecap="butt" stroke-linejoin="miter" stroke-miterlimit="2" stroke-opacity="1" stroke-width="0.32" transform="matrix(3.125,0,0,3.125,-1101.56,-73.4375)"><polyline fill="none" points="398,61 399,63" vector-effect="none"/></g><defs><clipPath id="clip46"><path d="M355,26 L415,26 L415,82 L355,82 L355,26 z"/></clipPath></defs><g clip-path="url(#clip46)" fill="none" opacity="1" stroke="#000000" stroke-linecap="butt" stroke-linejoin="miter" stroke-miterlimit="2" stroke-opacity="1" stroke-width="0.32" transform="matrix(3.125,0,0,3.125,-1101.56,-73.4375)"><polyline fill="none" points="399,63 399,65" vector-effect="none"/></g><defs><clipPath id="clip47"><path d="M355,26 L415,26 L415,82 L355,82 L355,26 z"/></clipPath></defs><g clip-path="url(#clip47)" fill="none" opacity="1" stroke="#000000" stroke-linecap="butt" stroke-linejoin="miter" stroke-miterlimit="2" stroke-opacity="1" stroke-width="0.32" transform="matrix(3.125,0,0,3.125,-1101.56,-73.4375)"><polyline fill="none" points="399,65 400,66" vector-effect="none"/></g><defs><clipPath id="clip48"><path d="M355,26 L415,26 L415,82 L355,82 L355,26 z"/></clipPath></defs><g clip-path="url(#clip48)" fill="none" opacity="1" stroke="#000000" stroke-linecap="butt" stroke-linejoin="miter" stroke-miterlimit="2" stroke-opacity="1" stroke-width="0.32" transform="matrix(3.125,0,0,3.125,-1101.56,-73.4375)"><polyline fill="none" points="400,66 401,67" vector-effect="none"/></g><defs><clipPath id="clip49"><path d="M355,26 L415,26 L415,82 L355,82 L355,26 z"/></clipPath></defs><g clip-path="url(#clip49)" fill="none" opacity="1" stroke="#000000" stroke-linecap="butt" stroke-linejoin="miter" stroke-miterlimit="2" stroke-opacity="1" stroke-width="0.32" transform="matrix(3.125,0,0,3.125,-1101.56,-73.4375)"><polyline fill="none" points="401,67 402,68" vector-effect="none"/></g><defs><clipPath id="clip54"><path d="M-2,-2 L62,-2 L62,58 L-2,58 L-2,-2 z"/></clipPath></defs><g clip-path="url(#clip54)" fill="none" opacity="1" stroke="#000000" stroke-linecap="butt" stroke-linejoin="miter" stroke-miterlimit="2" stroke-opacity="1" stroke-width="0.633957" transform="matrix(3.125,0,0,3.125,6.25,6.25)"><path d="M0,0 L60,0 L60,56 L0,56 L0,0 z" fill-rule="evenodd" vector-effect="none"/></g></g></svg>
