<?xml version="1.0" encoding="UTF-8"?><svg width="52.9167mm" height="49.4771mm" viewBox="0 0 200 187" xmlns="http://www.w3.org/2000/svg" xmlns:xlink="http://www.w3.org/1999/xlink"><g fill="none" stroke="black" stroke-width="1" fill-rule="evenodd" stroke-linecap="square" stroke-linejoin="bevel"><g clip-path="none" fill="none" opacity="1" stroke="none" stroke-opacity="0" transform="matrix(1,0,0,1,0,0)"><path d="M0,0 L200,0 L200,187 L0,187 L0,0 z" fill-rule="evenodd" vector-effect="none"/></g><defs><clipPath id="clip3"><path d="M-2,-2 L60,-2 L60,56 L-2,56 L-2,-2 z"/></clipPath></defs><g clip-path="url(#clip3)" fill="#e8d152" fill-opacity="1" opacity="1" stroke="none" stroke-opacity="0" transform="matrix(3.22581,0,0,3.22581,6.45161,6.45161)"><path d="M0,0 L58,0 L58,54 L0,54 L0,0 z" fill-rule="evenodd" vector-effect="none"/></g><defs><clipPath id="clip7"><path d="M35,21 L93,21 L93,75 L35,75 L35,21 z"/></clipPath></defs><g clip-path="url(#clip7)" fill="none" opacity="1" stroke="#000000" stroke-linecap="butt" stroke-linejoin="miter" stroke-miterlimit="2" stroke-opacity="1" stroke-width="0.31" transform="matrix(3.22581,0,0,3.22581,-104.839,-59.6774)"><polyline fill="none" points="63,47 65,49" vector-effect="none"/></g><defs><clipPath id="clip8"><path d="M35,21 L93,21 L93,75 L35,75 L35,21 z"/></clipPath></defs><g clip-path="url(#clip8)" fill="none" opacity="1" stroke="#000000" stroke-linecap="butt" stroke-linejoin="miter" stroke-miterlimit="2" stroke-opacity="1" stroke-width="0.31" transform="matrix(3.22581,0,0,3.22581,-104.839,-59.6774)"><polyline fill="none" points="65,49 65,47" vector-effect="none"/></g><defs><clipPath id="clip9"><path d="M35,21 L93,21 L93,75 L35,75 L35,21 z"/></clipPath></defs><g clip-path="url(#clip9)" fill="none" opacity="1" stroke="#000000" stroke-linecap="butt" stroke-linejoin="miter" stroke-miterlimit="2" stroke-opacity="1" stroke-width="0.31" transform="matrix(3.22581,0,0,3.22581,-104.839,-59.6774)"><polyline fill="none" points="65,47 63,49" vector-effect="none"/></g><defs><clipPath id="clip10"><path d="M35,21 L93,21 L93,75 L35,75 L35,21 z"/></clipPath></defs><g clip-path="url(#clip10)" fill="none" opacity="1" stroke="#000000" stroke-linecap="butt" stroke-linejoin="miter" stroke-miterlimit="2" stroke-opacity="1" stroke-width="0.31" transform="matrix(3.22581,0,0,3.22581,-104.839,-59.6774)"><polyline fill="none" points="63,49 65,47" vector-effect="none"/></g><defs><clipPath id="clip11"><path d="M35,21 L93,21 L93,75 L35,75 L35,21 z"/></clipPath></defs><g clip-path="url(#clip11)" fill="none" opacity="1" stroke="#000000" stroke-linecap="butt" stroke-linejoin="miter" stroke-miterlimit="2" stroke-opacity="1" stroke-width="0.31" transform="matrix(3.22581,0,0,3.22581,-104.839,-59.6774)"><polyline fill="none" points="45,53 38,48" vector-effect="none"/></g><defs><clipPath id="clip12"><path d="M35,21 L93,21 L93,75 L35,75 L35,21 z"/></clipPath></defs><g clip-path="url(#clip12)" fill="none" opacity="1" stroke="#000000" stroke-linecap="butt" stroke-linejoin="miter" stroke-miterlimit="2" stroke-opacity="1" stroke-width="0.31" transform="matrix(3.22581,0,0,3.22581,-104.839,-59.6774)"><polyline fill="none" points="38,48 45,43" vector-effect="none"/></g><defs><clipPath id="clip13"><path d="M35,21 L93,21 L93,75 L35,75 L35,21 z"/></clipPath></defs><g clip-path="url(#clip13)" fill="none" opacity="1" stroke="#000000" stroke-linecap="butt" stroke-linejoin="miter" stroke-miterlimit="2" stroke-opacity="1" stroke-width="0.31" transform="matrix(3.22581,0,0,3.22581,-104.839,-59.6774)"><polyline fill="none" points="45,43 38,48" vector-effect="none"/></g><defs><clipPath id="clip14"><path d="M35,21 L93,21 L93,75 L35,75 L35,21 z"/></clipPath></defs><g clip-path="url(#clip14)" fill="none" opacity="1" stroke="#000000" stroke-linecap="butt" stroke-linejoin="miter" stroke-miterlimit="2" stroke-opacity="1" stroke-width="0.31" transform="matrix(3.22581,0,0,3.22581,-104.839,-59.6774)"><polyline fill="none" points="38,48 58,48" vector-effect="none"/></g><defs><clipPath id="clip15"><path d="M35,21 L93,21 L93,75 L35,75 L35,21 z"/></clipPath></defs><g clip-path="url(#clip15)" fill="none" opacity="1" stroke="#000000" stroke-linecap="butt" stroke-linejoin="miter" stroke-miterlimit="2" stroke-opacity="1" stroke-width="0.31" transform="matrix(3.22581,0,0,3.22581,-104.839,-59.6774)"><polyline fill="none" points="71,48 90,48" vector-effect="none"/></g><defs><clipPath id="clip16"><path d="M35,21 L93,21 L93,75 L35,75 L35,21 z"/></clipPath></defs><g clip-path="url(#clip16)" fill="none" opacity="1" stroke="#000000" stroke-linecap="butt" stroke-linejoin="miter" stroke-miterlimit="2" stroke-opacity="1" stroke-width="0.31" transform="matrix(3.22581,0,0,3.22581,-104.839,-59.6774)"><polyline fill="none" points="90,48 84,53" vector-effect="none"/></g><defs><clipPath id="clip17"><path d="M35,21 L93,21 L93,75 L35,75 L35,21 z"/></clipPath></defs><g clip-path="url(#clip17)" fill="none" opacity="1" stroke="#000000" stroke-linecap="butt" stroke-linejoin="miter" stroke-miterlimit="2" stroke-opacity="1" stroke-width="0.31" transform="matrix(3.22581,0,0,3.22581,-104.839,-59.6774)"><polyline fill="none" points="84,53 90,48" vector-effect="none"/></g><defs><clipPath id="clip18"><path d="M35,21 L93,21 L93,75 L35,75 L35,21 z"/></clipPath></defs><g clip-path="url(#clip18)" fill="none" opacity="1" stroke="#000000" stroke-linecap="butt" stroke-linejoin="miter" stroke-miterlimit="2" stroke-opacity="1" stroke-width="0.31" transform="matrix(3.22581,0,0,3.22581,-104.839,-59.6774)"><polyline fill="none" points="90,48 84,43" vector-effect="none"/></g><defs><clipPath id="clip19"><path d="M35,21 L93,21 L93,75 L35,75 L35,21 z"/></clipPath></defs><g clip-path="url(#clip19)" fill="none" opacity="1" stroke="#000000" stroke-linecap="butt" stroke-linejoin="miter" stroke-miterlimit="2" stroke-opacity="1" stroke-width="0.31" transform="matrix(3.22581,0,0,3.22581,-104.839,-59.6774)"><polyline fill="none" points="59,66 64,72" vector-effect="none"/></g><defs><clipPath id="clip20"><path d="M35,21 L93,21 L93,75 L35,75 L35,21 z"/></clipPath></defs><g clip-path="url(#clip20)" fill="none" opacity="1" stroke="#000000" stroke-linecap="butt" stroke-linejoin="miter" stroke-miterlimit="2" stroke-opacity="1" stroke-width="0.31" transform="matrix(3.22581,0,0,3.22581,-104.839,-59.6774)"><polyline fill="none" points="64,72 69,66" vector-effect="none"/></g><defs><clipPath id="clip21"><path d="M35,21 L93,21 L93,75 L35,75 L35,21 z"/></clipPath></defs><g clip-path="url(#clip21)" fill="none" opacity="1" stroke="#000000" stroke-linecap="butt" stroke-linejoin="miter" stroke-miterlimit="2" stroke-opacity="1" stroke-width="0.31" transform="matrix(3.22581,0,0,3.22581,-104.839,-59.6774)"><polyline fill="none" points="69,66 64,72" vector-effect="none"/></g><defs><clipPath id="clip22"><path d="M35,21 L93,21 L93,75 L35,75 L35,21 z"/></clipPath></defs><g clip-path="url(#clip22)" fill="none" opacity="1" stroke="#000000" stroke-linecap="butt" stroke-linejoin="miter" stroke-miterlimit="2" stroke-opacity="1" stroke-width="0.31" transform="matrix(3.22581,0,0,3.22581,-104.839,-59.6774)"><polyline fill="none" points="64,72 64,54" vector-effect="none"/></g><defs><clipPath id="clip23"><path d="M35,21 L93,21 L93,75 L35,75 L35,21 z"/></clipPath></defs><g clip-path="url(#clip23)" fill="none" opacity="1" stroke="#000000" stroke-linecap="butt" stroke-linejoin="miter" stroke-miterlimit="2" stroke-opacity="1" stroke-width="0.31" transform="matrix(3.22581,0,0,3.22581,-104.839,-59.6774)"><polyline fill="none" points="64,42 64,24" vector-effect="none"/></g><defs><clipPath id="clip24"><path d="M35,21 L93,21 L93,75 L35,75 L35,21 z"/></clipPath></defs><g clip-path="url(#clip24)" fill="none" opacity="1" stroke="#000000" stroke-linecap="butt" stroke-linejoin="miter" stroke-miterlimit="2" stroke-opacity="1" stroke-width="0.31" transform="matrix(3.22581,0,0,3.22581,-104.839,-59.6774)"><polyline fill="none" points="64,24 59,30" vector-effect="none"/></g><defs><clipPath id="clip25"><path d="M35,21 L93,21 L93,75 L35,75 L35,21 z"/></clipPath></defs><g clip-path="url(#clip25)" fill="none" opacity="1" stroke="#000000" stroke-linecap="butt" stroke-linejoin="miter" stroke-miterlimit="2" stroke-opacity="1" stroke-width="0.31" transform="matrix(3.22581,0,0,3.22581,-104.839,-59.6774)"><polyline fill="none" points="59,30 64,24" vector-effect="none"/></g><defs><clipPath id="clip26"><path d="M35,21 L93,21 L93,75 L35,75 L35,21 z"/></clipPath></defs><g clip-path="url(#clip26)" fill="none" opacity="1" stroke="#000000" stroke-linecap="butt" stroke-linejoin="miter" stroke-miterlimit="2" stroke-opacity="1" stroke-width="0.31" transform="matrix(3.22581,0,0,3.22581,-104.839,-59.6774)"><polyline fill="none" points="64,24 69,30" vector-effect="none"/></g><defs><clipPath id="clip27"><path d="M35,21 L93,21 L93,75 L35,75 L35,21 z"/></clipPath></defs><g clip-path="url(#clip27)" fill="none" opacity="1" stroke="#000000" stroke-linecap="butt" stroke-linejoin="miter" stroke-miterlimit="2" stroke-opacity="1" stroke-width="0.31" transform="matrix(3.22581,0,0,3.22581,-104.839,-59.6774)"><polyline fill="none" points="59,43 46,31" vector-effect="none"/></g><defs><clipPath id="clip28"><path d="M35,21 L93,21 L93,75 L35,75 L35,21 z"/></clipPath></defs><g clip-path="url(#clip28)" fill="none" opacity="1" stroke="#000000" stroke-linecap="butt" stroke-linejoin="miter" stroke-miterlimit="2" stroke-opacity="1" stroke-width="0.31" transform="matrix(3.22581,0,0,3.22581,-104.839,-59.6774)"><polyline fill="none" points="46,31 55,32" vector-effect="none"/></g><defs><clipPath id="clip29"><path d="M35,21 L93,21 L93,75 L35,75 L35,21 z"/></clipPath></defs><g clip-path="url(#clip29)" fill="none" opacity="1" stroke="#000000" stroke-linecap="butt" stroke-linejoin="miter" stroke-miterlimit="2" stroke-opacity="1" stroke-width="0.31" transform="matrix(3.22581,0,0,3.22581,-104.839,-59.6774)"><polyline fill="none" points="55,32 46,31" vector-effect="none"/></g><defs><clipPath id="clip30"><path d="M35,21 L93,21 L93,75 L35,75 L35,21 z"/></clipPath></defs><g clip-path="url(#clip30)" fill="none" opacity="1" stroke="#000000" stroke-linecap="butt" stroke-linejoin="miter" stroke-miterlimit="2" stroke-opacity="1" stroke-width="0.31" transform="matrix(3.22581,0,0,3.22581,-104.839,-59.6774)"><polyline fill="none" points="46,31 47,40" vector-effect="none"/></g><defs><clipPath id="clip31"><path d="M35,21 L93,21 L93,75 L35,75 L35,21 z"/></clipPath></defs><g clip-path="url(#clip31)" fill="none" opacity="1" stroke="#000000" stroke-linecap="butt" stroke-linejoin="miter" stroke-miterlimit="2" stroke-opacity="1" stroke-width="0.31" transform="matrix(3.22581,0,0,3.22581,-104.839,-59.6774)"><polyline fill="none" points="59,53 46,65" vector-effect="none"/></g><defs><clipPath id="clip32"><path d="M35,21 L93,21 L93,75 L35,75 L35,21 z"/></clipPath></defs><g clip-path="url(#clip32)" fill="none" opacity="1" stroke="#000000" stroke-linecap="butt" stroke-linejoin="miter" stroke-miterlimit="2" stroke-opacity="1" stroke-width="0.31" transform="matrix(3.22581,0,0,3.22581,-104.839,-59.6774)"><polyline fill="none" points="46,65 55,64" vector-effect="none"/></g><defs><clipPath id="clip33"><path d="M35,21 L93,21 L93,75 L35,75 L35,21 z"/></clipPath></defs><g clip-path="url(#clip33)" fill="none" opacity="1" stroke="#000000" stroke-linecap="butt" stroke-linejoin="miter" stroke-miterlimit="2" stroke-opacity="1" stroke-width="0.31" transform="matrix(3.22581,0,0,3.22581,-104.839,-59.6774)"><polyline fill="none" points="55,64 46,65" vector-effect="none"/></g><defs><clipPath id="clip34"><path d="M35,21 L93,21 L93,75 L35,75 L35,21 z"/></clipPath></defs><g clip-path="url(#clip34)" fill="none" opacity="1" stroke="#000000" stroke-linecap="butt" stroke-linejoin="miter" stroke-miterlimit="2" stroke-opacity="1" stroke-width="0.31" transform="matrix(3.22581,0,0,3.22581,-104.839,-59.6774)"><polyline fill="none" points="46,65 47,56" vector-effect="none"/></g><defs><clipPath id="clip35"><path d="M35,21 L93,21 L93,75 L35,75 L35,21 z"/></clipPath></defs><g clip-path="url(#clip35)" fill="none" opacity="1" stroke="#000000" stroke-linecap="butt" stroke-linejoin="miter" stroke-miterlimit="2" stroke-opacity="1" stroke-width="0.31" transform="matrix(3.22581,0,0,3.22581,-104.839,-59.6774)"><polyline fill="none" points="69,43 82,31" vector-effect="none"/></g><defs><clipPath id="clip36"><path d="M35,21 L93,21 L93,75 L35,75 L35,21 z"/></clipPath></defs><g clip-path="url(#clip36)" fill="none" opacity="1" stroke="#000000" stroke-linecap="butt" stroke-linejoin="miter" stroke-miterlimit="2" stroke-opacity="1" stroke-width="0.31" transform="matrix(3.22581,0,0,3.22581,-104.839,-59.6774)"><polyline fill="none" points="82,31 81,40" vector-effect="none"/></g><defs><clipPath id="clip37"><path d="M35,21 L93,21 L93,75 L35,75 L35,21 z"/></clipPath></defs><g clip-path="url(#clip37)" fill="none" opacity="1" stroke="#000000" stroke-linecap="butt" stroke-linejoin="miter" stroke-miterlimit="2" stroke-opacity="1" stroke-width="0.31" transform="matrix(3.22581,0,0,3.22581,-104.839,-59.6774)"><polyline fill="none" points="81,40 82,31" vector-effect="none"/></g><defs><clipPath id="clip38"><path d="M35,21 L93,21 L93,75 L35,75 L35,21 z"/></clipPath></defs><g clip-path="url(#clip38)" fill="none" opacity="1" stroke="#000000" stroke-linecap="butt" stroke-linejoin="miter" stroke-miterlimit="2" stroke-opacity="1" stroke-width="0.31" transform="matrix(3.22581,0,0,3.22581,-104.839,-59.6774)"><polyline fill="none" points="82,31 73,32" vector-effect="none"/></g><defs><clipPath id="clip39"><path d="M35,21 L93,21 L93,75 L35,75 L35,21 z"/></clipPath></defs><g clip-path="url(#clip39)" fill="none" opacity="1" stroke="#000000" stroke-linecap="butt" stroke-linejoin="miter" stroke-miterlimit="2" stroke-opacity="1" stroke-width="0.31" transform="matrix(3.22581,0,0,3.22581,-104.839,-59.6774)"><polyline fill="none" points="69,53 82,65" vector-effect="none"/></g><defs><clipPath id="clip40"><path d="M35,21 L93,21 L93,75 L35,75 L35,21 z"/></clipPath></defs><g clip-path="url(#clip40)" fill="none" opacity="1" stroke="#000000" stroke-linecap="butt" stroke-linejoin="miter" stroke-miterlimit="2" stroke-opacity="1" stroke-width="0.31" transform="matrix(3.22581,0,0,3.22581,-104.839,-59.6774)"><polyline fill="none" points="82,65 81,56" vector-effect="none"/></g><defs><clipPath id="clip41"><path d="M35,21 L93,21 L93,75 L35,75 L35,21 z"/></clipPath></defs><g clip-path="url(#clip41)" fill="none" opacity="1" stroke="#000000" stroke-linecap="butt" stroke-linejoin="miter" stroke-miterlimit="2" stroke-opacity="1" stroke-width="0.31" transform="matrix(3.22581,0,0,3.22581,-104.839,-59.6774)"><polyline fill="none" points="81,56 82,65" vector-effect="none"/></g><defs><clipPath id="clip42"><path d="M35,21 L93,21 L93,75 L35,75 L35,21 z"/></clipPath></defs><g clip-path="url(#clip42)" fill="none" opacity="1" stroke="#000000" stroke-linecap="butt" stroke-linejoin="miter" stroke-miterlimit="2" stroke-opacity="1" stroke-width="0.31" transform="matrix(3.22581,0,0,3.22581,-104.839,-59.6774)"><polyline fill="none" points="82,65 73,64" vector-effect="none"/></g><defs><clipPath id="clip47"><path d="M-2,-2 L60,-2 L60,56 L-2,56 L-2,-2 z"/></clipPath></defs><g clip-path="url(#clip47)" fill="none" opacity="1" stroke="#000000" stroke-linecap="butt" stroke-linejoin="miter" stroke-miterlimit="2" stroke-opacity="1" stroke-width="0.625957" transform="matrix(3.22581,0,0,3.22581,6.45161,6.45161)"><path d="M0,0 L58,0 L58,54 L0,54 L0,0 z" fill-rule="evenodd" vector-effect="none"/></g></g></svg>
