<?xml version="1.0" encoding="UTF-8"?><svg width="52.9167mm" height="48.9479mm" viewBox="0 0 200 185" xmlns="http://www.w3.org/2000/svg" xmlns:xlink="http://www.w3.org/1999/xlink"><g fill="none" stroke="black" stroke-width="1" fill-rule="evenodd" stroke-linecap="square" stroke-linejoin="bevel"><g clip-path="none" fill="none" opacity="1" stroke="none" stroke-opacity="0" transform="matrix(1,0,0,1,0,0)"><path d="M0,0 L200,0 L200,185 L0,185 L0,0 z" fill-rule="evenodd" vector-effect="none"/></g><defs><clipPath id="clip3"><path d="M-2,-2 L66,-2 L66,61 L-2,61 L-2,-2 z"/></clipPath></defs><g clip-path="url(#clip3)" fill="#e8d152" fill-opacity="1" opacity="1" stroke="none" stroke-opacity="0" transform="matrix(2.94118,0,0,2.94118,5.88235,5.88235)"><path d="M0,0 L64,0 L64,59 L0,59 L0,0 z" fill-rule="evenodd" vector-effect="none"/></g><defs><clipPath id="clip7"><path d="M208,130 L272,130 L272,189 L208,189 L208,130 z"/></clipPath></defs><g clip-path="url(#clip7)" fill="none" opacity="1" stroke="#000000" stroke-linecap="butt" stroke-linejoin="miter" stroke-miterlimit="2" stroke-opacity="1" stroke-width="0.34" transform="matrix(2.94118,0,0,2.94118,-604.412,-375)"><polyline fill="none" points="231,185 231,181" vector-effect="none"/></g><defs><clipPath id="clip8"><path d="M208,130 L272,130 L272,189 L208,189 L208,130 z"/></clipPath></defs><g clip-path="url(#clip8)" fill="none" opacity="1" stroke="#000000" stroke-linecap="butt" stroke-linejoin="miter" stroke-miterlimit="2" stroke-opacity="1" stroke-width="0.34" transform="matrix(2.94118,0,0,2.94118,-604.412,-375)"><polyline fill="none" points="231,181 231,180" vector-effect="none"/></g><defs><clipPath id="clip9"><path d="M208,130 L272,130 L272,189 L208,189 L208,130 z"/></clipPath></defs><g clip-path="url(#clip9)" fill="none" opacity="1" stroke="#000000" stroke-linecap="butt" stroke-linejoin="miter" stroke-miterlimit="2" stroke-opacity="1" stroke-width="0.34" transform="matrix(2.94118,0,0,2.94118,-604.412,-375)"><polyline fill="none" points="231,180 232,179" vector-effect="none"/></g><defs><clipPath id="clip10"><path d="M208,130 L272,130 L272,189 L208,189 L208,130 z"/></clipPath></defs><g clip-path="url(#clip10)" fill="none" opacity="1" stroke="#000000" stroke-linecap="butt" stroke-linejoin="miter" stroke-miterlimit="2" stroke-opacity="1" stroke-width="0.34" transform="matrix(2.94118,0,0,2.94118,-604.412,-375)"><polyline fill="none" points="232,179 232,178" vector-effect="none"/></g><defs><clipPath id="clip11"><path d="M208,130 L272,130 L272,189 L208,189 L208,130 z"/></clipPath></defs><g clip-path="url(#clip11)" fill="none" opacity="1" stroke="#000000" stroke-linecap="butt" stroke-linejoin="miter" stroke-miterlimit="2" stroke-opacity="1" stroke-width="0.34" transform="matrix(2.94118,0,0,2.94118,-604.412,-375)"><polyline fill="none" points="232,178 232,177" vector-effect="none"/></g><defs><clipPath id="clip12"><path d="M208,130 L272,130 L272,189 L208,189 L208,130 z"/></clipPath></defs><g clip-path="url(#clip12)" fill="none" opacity="1" stroke="#000000" stroke-linecap="butt" stroke-linejoin="miter" stroke-miterlimit="2" stroke-opacity="1" stroke-width="0.34" transform="matrix(2.94118,0,0,2.94118,-604.412,-375)"><polyline fill="none" points="232,177 233,176" vector-effect="none"/></g><defs><clipPath id="clip13"><path d="M208,130 L272,130 L272,189 L208,189 L208,130 z"/></clipPath></defs><g clip-path="url(#clip13)" fill="none" opacity="1" stroke="#000000" stroke-linecap="butt" stroke-linejoin="miter" stroke-miterlimit="2" stroke-opacity="1" stroke-width="0.34" transform="matrix(2.94118,0,0,2.94118,-604.412,-375)"><polyline fill="none" points="233,176 233,175" vector-effect="none"/></g><defs><clipPath id="clip14"><path d="M208,130 L272,130 L272,189 L208,189 L208,130 z"/></clipPath></defs><g clip-path="url(#clip14)" fill="none" opacity="1" stroke="#000000" stroke-linecap="butt" stroke-linejoin="miter" stroke-miterlimit="2" stroke-opacity="1" stroke-width="0.34" transform="matrix(2.94118,0,0,2.94118,-604.412,-375)"><polyline fill="none" points="233,175 234,174" vector-effect="none"/></g><defs><clipPath id="clip15"><path d="M208,130 L272,130 L272,189 L208,189 L208,130 z"/></clipPath></defs><g clip-path="url(#clip15)" fill="none" opacity="1" stroke="#000000" stroke-linecap="butt" stroke-linejoin="miter" stroke-miterlimit="2" stroke-opacity="1" stroke-width="0.34" transform="matrix(2.94118,0,0,2.94118,-604.412,-375)"><polyline fill="none" points="234,174 235,173" vector-effect="none"/></g><defs><clipPath id="clip16"><path d="M208,130 L272,130 L272,189 L208,189 L208,130 z"/></clipPath></defs><g clip-path="url(#clip16)" fill="none" opacity="1" stroke="#000000" stroke-linecap="butt" stroke-linejoin="miter" stroke-miterlimit="2" stroke-opacity="1" stroke-width="0.34" transform="matrix(2.94118,0,0,2.94118,-604.412,-375)"><polyline fill="none" points="235,173 235,172" vector-effect="none"/></g><defs><clipPath id="clip17"><path d="M208,130 L272,130 L272,189 L208,189 L208,130 z"/></clipPath></defs><g clip-path="url(#clip17)" fill="none" opacity="1" stroke="#000000" stroke-linecap="butt" stroke-linejoin="miter" stroke-miterlimit="2" stroke-opacity="1" stroke-width="0.34" transform="matrix(2.94118,0,0,2.94118,-604.412,-375)"><polyline fill="none" points="235,172 236,171" vector-effect="none"/></g><defs><clipPath id="clip18"><path d="M208,130 L272,130 L272,189 L208,189 L208,130 z"/></clipPath></defs><g clip-path="url(#clip18)" fill="none" opacity="1" stroke="#000000" stroke-linecap="butt" stroke-linejoin="miter" stroke-miterlimit="2" stroke-opacity="1" stroke-width="0.34" transform="matrix(2.94118,0,0,2.94118,-604.412,-375)"><polyline fill="none" points="236,171 237,170" vector-effect="none"/></g><defs><clipPath id="clip19"><path d="M208,130 L272,130 L272,189 L208,189 L208,130 z"/></clipPath></defs><g clip-path="url(#clip19)" fill="none" opacity="1" stroke="#000000" stroke-linecap="butt" stroke-linejoin="miter" stroke-miterlimit="2" stroke-opacity="1" stroke-width="0.34" transform="matrix(2.94118,0,0,2.94118,-604.412,-375)"><polyline fill="none" points="237,170 238,168" vector-effect="none"/></g><defs><clipPath id="clip20"><path d="M208,130 L272,130 L272,189 L208,189 L208,130 z"/></clipPath></defs><g clip-path="url(#clip20)" fill="none" opacity="1" stroke="#000000" stroke-linecap="butt" stroke-linejoin="miter" stroke-miterlimit="2" stroke-opacity="1" stroke-width="0.34" transform="matrix(2.94118,0,0,2.94118,-604.412,-375)"><polyline fill="none" points="238,168 239,166" vector-effect="none"/></g><defs><clipPath id="clip21"><path d="M208,130 L272,130 L272,189 L208,189 L208,130 z"/></clipPath></defs><g clip-path="url(#clip21)" fill="none" opacity="1" stroke="#000000" stroke-linecap="butt" stroke-linejoin="miter" stroke-miterlimit="2" stroke-opacity="1" stroke-width="0.34" transform="matrix(2.94118,0,0,2.94118,-604.412,-375)"><polyline fill="none" points="239,166 241,165" vector-effect="none"/></g><defs><clipPath id="clip22"><path d="M208,130 L272,130 L272,189 L208,189 L208,130 z"/></clipPath></defs><g clip-path="url(#clip22)" fill="none" opacity="1" stroke="#000000" stroke-linecap="butt" stroke-linejoin="miter" stroke-miterlimit="2" stroke-opacity="1" stroke-width="0.34" transform="matrix(2.94118,0,0,2.94118,-604.412,-375)"><polyline fill="none" points="241,165 242,164" vector-effect="none"/></g><defs><clipPath id="clip23"><path d="M208,130 L272,130 L272,189 L208,189 L208,130 z"/></clipPath></defs><g clip-path="url(#clip23)" fill="none" opacity="1" stroke="#000000" stroke-linecap="butt" stroke-linejoin="miter" stroke-miterlimit="2" stroke-opacity="1" stroke-width="0.34" transform="matrix(2.94118,0,0,2.94118,-604.412,-375)"><polyline fill="none" points="242,164 244,162" vector-effect="none"/></g><defs><clipPath id="clip24"><path d="M208,130 L272,130 L272,189 L208,189 L208,130 z"/></clipPath></defs><g clip-path="url(#clip24)" fill="none" opacity="1" stroke="#000000" stroke-linecap="butt" stroke-linejoin="miter" stroke-miterlimit="2" stroke-opacity="1" stroke-width="0.34" transform="matrix(2.94118,0,0,2.94118,-604.412,-375)"><polyline fill="none" points="244,162 246,160" vector-effect="none"/></g><defs><clipPath id="clip25"><path d="M208,130 L272,130 L272,189 L208,189 L208,130 z"/></clipPath></defs><g clip-path="url(#clip25)" fill="none" opacity="1" stroke="#000000" stroke-linecap="butt" stroke-linejoin="miter" stroke-miterlimit="2" stroke-opacity="1" stroke-width="0.34" transform="matrix(2.94118,0,0,2.94118,-604.412,-375)"><polyline fill="none" points="246,160 249,158" vector-effect="none"/></g><defs><clipPath id="clip26"><path d="M208,130 L272,130 L272,189 L208,189 L208,130 z"/></clipPath></defs><g clip-path="url(#clip26)" fill="none" opacity="1" stroke="#000000" stroke-linecap="butt" stroke-linejoin="miter" stroke-miterlimit="2" stroke-opacity="1" stroke-width="0.34" transform="matrix(2.94118,0,0,2.94118,-604.412,-375)"><polyline fill="none" points="249,158 252,156" vector-effect="none"/></g><defs><clipPath id="clip27"><path d="M208,130 L272,130 L272,189 L208,189 L208,130 z"/></clipPath></defs><g clip-path="url(#clip27)" fill="none" opacity="1" stroke="#000000" stroke-linecap="butt" stroke-linejoin="miter" stroke-miterlimit="2" stroke-opacity="1" stroke-width="0.34" transform="matrix(2.94118,0,0,2.94118,-604.412,-375)"><polyline fill="none" points="252,156 255,154" vector-effect="none"/></g><defs><clipPath id="clip28"><path d="M208,130 L272,130 L272,189 L208,189 L208,130 z"/></clipPath></defs><g clip-path="url(#clip28)" fill="none" opacity="1" stroke="#000000" stroke-linecap="butt" stroke-linejoin="miter" stroke-miterlimit="2" stroke-opacity="1" stroke-width="0.34" transform="matrix(2.94118,0,0,2.94118,-604.412,-375)"><polyline fill="none" points="255,154 260,151" vector-effect="none"/></g><defs><clipPath id="clip29"><path d="M208,130 L272,130 L272,189 L208,189 L208,130 z"/></clipPath></defs><g clip-path="url(#clip29)" fill="none" opacity="1" stroke="#000000" stroke-linecap="butt" stroke-linejoin="miter" stroke-miterlimit="2" stroke-opacity="1" stroke-width="0.34" transform="matrix(2.94118,0,0,2.94118,-604.412,-375)"><polyline fill="none" points="260,151 266,148" vector-effect="none"/></g><defs><clipPath id="clip30"><path d="M208,130 L272,130 L272,189 L208,189 L208,130 z"/></clipPath></defs><g clip-path="url(#clip30)" fill="none" opacity="1" stroke="#000000" stroke-linecap="butt" stroke-linejoin="miter" stroke-miterlimit="2" stroke-opacity="1" stroke-width="0.34" transform="matrix(2.94118,0,0,2.94118,-604.412,-375)"><polyline fill="none" points="267,160 255,160" vector-effect="none"/></g><defs><clipPath id="clip31"><path d="M208,130 L272,130 L272,189 L208,189 L208,130 z"/></clipPath></defs><g clip-path="url(#clip31)" fill="none" opacity="1" stroke="#000000" stroke-linecap="butt" stroke-linejoin="miter" stroke-miterlimit="2" stroke-opacity="1" stroke-width="0.34" transform="matrix(2.94118,0,0,2.94118,-604.412,-375)"><polyline fill="none" points="255,160 253,178" vector-effect="none"/></g><defs><clipPath id="clip32"><path d="M208,130 L272,130 L272,189 L208,189 L208,130 z"/></clipPath></defs><g clip-path="url(#clip32)" fill="none" opacity="1" stroke="#000000" stroke-linecap="butt" stroke-linejoin="miter" stroke-miterlimit="2" stroke-opacity="1" stroke-width="0.34" transform="matrix(2.94118,0,0,2.94118,-604.412,-375)"><polyline fill="none" points="253,178 250,170" vector-effect="none"/></g><defs><clipPath id="clip33"><path d="M208,130 L272,130 L272,189 L208,189 L208,130 z"/></clipPath></defs><g clip-path="url(#clip33)" fill="none" opacity="1" stroke="#000000" stroke-linecap="butt" stroke-linejoin="miter" stroke-miterlimit="2" stroke-opacity="1" stroke-width="0.34" transform="matrix(2.94118,0,0,2.94118,-604.412,-375)"><polyline fill="none" points="250,170 248,170" vector-effect="none"/></g><defs><clipPath id="clip35"><path d="M-31,-51 L297,-51 L297,251 L-31,251 L-31,-51 z"/></clipPath></defs><g clip-path="url(#clip35)" fill="none" opacity="1" stroke="#000000" stroke-linecap="butt" stroke-linejoin="miter" stroke-miterlimit="2" stroke-opacity="1" stroke-width="0.34" transform="matrix(0.574449,0,0,0.574449,23.5294,35.2941)"><text fill="#000000" fill-opacity="1" font-family="Liberation Sans" font-size="48" font-style="normal" font-weight="400" stroke="none" textLength="147" x="0" xml:space="preserve" y="21.125">A x = b</text></g><defs><clipPath id="clip41"><path d="M-2,-2 L66,-2 L66,61 L-2,61 L-2,-2 z"/></clipPath></defs><g clip-path="url(#clip41)" fill="none" opacity="1" stroke="#000000" stroke-linecap="butt" stroke-linejoin="miter" stroke-miterlimit="2" stroke-opacity="1" stroke-width="0.649519" transform="matrix(2.94118,0,0,2.94118,5.88235,5.88235)"><path d="M0,0 L64,0 L64,59 L0,59 L0,0 z" fill-rule="evenodd" vector-effect="none"/></g></g></svg>
