<?xml version="1.0" encoding="UTF-8"?><svg width="52.9167mm" height="48.6833mm" viewBox="0 0 200 184" xmlns="http://www.w3.org/2000/svg" xmlns:xlink="http://www.w3.org/1999/xlink"><g fill="none" stroke="black" stroke-width="1" fill-rule="evenodd" stroke-linecap="square" stroke-linejoin="bevel"><g clip-path="none" fill="none" opacity="1" stroke="none" stroke-opacity="0" transform="matrix(1,0,0,1,0,0)"><path d="M0,0 L200,0 L200,184 L0,184 L0,0 z" fill-rule="evenodd" vector-effect="none"/></g><defs><clipPath id="clip3"><path d="M-2,-2 L64,-2 L64,59 L-2,59 L-2,-2 z"/></clipPath></defs><g clip-path="url(#clip3)" fill="#e8d152" fill-opacity="1" opacity="1" stroke="none" stroke-opacity="0" transform="matrix(3.0303,0,0,3.0303,6.06061,6.06061)"><path d="M0,0 L62,0 L62,57 L0,57 L0,0 z" fill-rule="evenodd" vector-effect="none"/></g><defs><clipPath id="clip7"><path d="M303,131 L365,131 L365,188 L303,188 L303,131 z"/></clipPath></defs><g clip-path="url(#clip7)" fill="none" opacity="1" stroke="#000000" stroke-linecap="butt" stroke-linejoin="miter" stroke-miterlimit="2" stroke-opacity="1" stroke-width="0.33" transform="matrix(3.0303,0,0,3.0303,-910.606,-389.394)"><polyline fill="none" points="318,137 326,137" vector-effect="none"/></g><defs><clipPath id="clip8"><path d="M303,131 L365,131 L365,188 L303,188 L303,131 z"/></clipPath></defs><g clip-path="url(#clip8)" fill="none" opacity="1" stroke="#000000" stroke-linecap="butt" stroke-linejoin="miter" stroke-miterlimit="2" stroke-opacity="1" stroke-width="0.33" transform="matrix(3.0303,0,0,3.0303,-910.606,-389.394)"><polyline fill="none" points="326,137 326,145" vector-effect="none"/></g><defs><clipPath id="clip9"><path d="M303,131 L365,131 L365,188 L303,188 L303,131 z"/></clipPath></defs><g clip-path="url(#clip9)" fill="none" opacity="1" stroke="#000000" stroke-linecap="butt" stroke-linejoin="miter" stroke-miterlimit="2" stroke-opacity="1" stroke-width="0.33" transform="matrix(3.0303,0,0,3.0303,-910.606,-389.394)"><polyline fill="none" points="323,141 326,145" vector-effect="none"/></g><defs><clipPath id="clip10"><path d="M303,131 L365,131 L365,188 L303,188 L303,131 z"/></clipPath></defs><g clip-path="url(#clip10)" fill="none" opacity="1" stroke="#000000" stroke-linecap="butt" stroke-linejoin="miter" stroke-miterlimit="2" stroke-opacity="1" stroke-width="0.33" transform="matrix(3.0303,0,0,3.0303,-910.606,-389.394)"><polyline fill="none" points="326,145 329,141" vector-effect="none"/></g><defs><clipPath id="clip11"><path d="M303,131 L365,131 L365,188 L303,188 L303,131 z"/></clipPath></defs><g clip-path="url(#clip11)" fill="none" opacity="1" stroke="#000000" stroke-linecap="butt" stroke-linejoin="miter" stroke-miterlimit="2" stroke-opacity="1" stroke-width="0.33" transform="matrix(3.0303,0,0,3.0303,-910.606,-389.394)"><polyline fill="none" points="318,145 334,145" vector-effect="none"/></g><defs><clipPath id="clip12"><path d="M303,131 L365,131 L365,188 L303,188 L303,131 z"/></clipPath></defs><g clip-path="url(#clip12)" fill="none" opacity="1" stroke="#000000" stroke-linecap="butt" stroke-linejoin="miter" stroke-miterlimit="2" stroke-opacity="1" stroke-width="0.33" transform="matrix(3.0303,0,0,3.0303,-910.606,-389.394)"><polyline fill="none" points="334,145 334,154" vector-effect="none"/></g><defs><clipPath id="clip13"><path d="M303,131 L365,131 L365,188 L303,188 L303,131 z"/></clipPath></defs><g clip-path="url(#clip13)" fill="none" opacity="1" stroke="#000000" stroke-linecap="butt" stroke-linejoin="miter" stroke-miterlimit="2" stroke-opacity="1" stroke-width="0.33" transform="matrix(3.0303,0,0,3.0303,-910.606,-389.394)"><polyline fill="none" points="324,169 318,169" vector-effect="none"/></g><defs><clipPath id="clip14"><path d="M303,131 L365,131 L365,188 L303,188 L303,131 z"/></clipPath></defs><g clip-path="url(#clip14)" fill="none" opacity="1" stroke="#000000" stroke-linecap="butt" stroke-linejoin="miter" stroke-miterlimit="2" stroke-opacity="1" stroke-width="0.33" transform="matrix(3.0303,0,0,3.0303,-910.606,-389.394)"><polyline fill="none" points="318,169 318,145" vector-effect="none"/></g><defs><clipPath id="clip15"><path d="M303,131 L365,131 L365,188 L303,188 L303,131 z"/></clipPath></defs><g clip-path="url(#clip15)" fill="none" opacity="1" stroke="#000000" stroke-linecap="butt" stroke-linejoin="miter" stroke-miterlimit="2" stroke-opacity="1" stroke-width="0.33" transform="matrix(3.0303,0,0,3.0303,-910.606,-389.394)"><polyline fill="none" points="322,149 330,149" vector-effect="none"/></g><defs><clipPath id="clip16"><path d="M303,131 L365,131 L365,188 L303,188 L303,131 z"/></clipPath></defs><g clip-path="url(#clip16)" fill="none" opacity="1" stroke="#000000" stroke-linecap="butt" stroke-linejoin="miter" stroke-miterlimit="2" stroke-opacity="1" stroke-width="0.33" transform="matrix(3.0303,0,0,3.0303,-910.606,-389.394)"><polyline fill="none" points="322,153 330,153" vector-effect="none"/></g><defs><clipPath id="clip17"><path d="M303,131 L365,131 L365,188 L303,188 L303,131 z"/></clipPath></defs><g clip-path="url(#clip17)" fill="none" opacity="1" stroke="#000000" stroke-linecap="butt" stroke-linejoin="miter" stroke-miterlimit="2" stroke-opacity="1" stroke-width="0.33" transform="matrix(3.0303,0,0,3.0303,-910.606,-389.394)"><polyline fill="none" points="322,156 330,156" vector-effect="none"/></g><defs><clipPath id="clip18"><path d="M303,131 L365,131 L365,188 L303,188 L303,131 z"/></clipPath></defs><g clip-path="url(#clip18)" fill="none" opacity="1" stroke="#000000" stroke-linecap="butt" stroke-linejoin="miter" stroke-miterlimit="2" stroke-opacity="1" stroke-width="0.33" transform="matrix(3.0303,0,0,3.0303,-910.606,-389.394)"><polyline fill="none" points="322,160 328,160" vector-effect="none"/></g><defs><clipPath id="clip19"><path d="M303,131 L365,131 L365,188 L303,188 L303,131 z"/></clipPath></defs><g clip-path="url(#clip19)" fill="none" opacity="1" stroke="#000000" stroke-linecap="butt" stroke-linejoin="miter" stroke-miterlimit="2" stroke-opacity="1" stroke-width="0.33" transform="matrix(3.0303,0,0,3.0303,-910.606,-389.394)"><polyline fill="none" points="322,164 326,164" vector-effect="none"/></g><defs><clipPath id="clip20"><path d="M303,131 L365,131 L365,188 L303,188 L303,131 z"/></clipPath></defs><g clip-path="url(#clip20)" fill="none" opacity="1" stroke="#000000" stroke-linecap="butt" stroke-linejoin="miter" stroke-miterlimit="2" stroke-opacity="1" stroke-width="0.33" transform="matrix(3.0303,0,0,3.0303,-910.606,-389.394)"><polyline fill="none" points="345,145 349,145" vector-effect="none"/></g><defs><clipPath id="clip21"><path d="M303,131 L365,131 L365,188 L303,188 L303,131 z"/></clipPath></defs><g clip-path="url(#clip21)" fill="none" opacity="1" stroke="#000000" stroke-linecap="butt" stroke-linejoin="miter" stroke-miterlimit="2" stroke-opacity="1" stroke-width="0.33" transform="matrix(3.0303,0,0,3.0303,-910.606,-389.394)"><polyline fill="none" points="349,145 345,149" vector-effect="none"/></g><defs><clipPath id="clip22"><path d="M303,131 L365,131 L365,188 L303,188 L303,131 z"/></clipPath></defs><g clip-path="url(#clip22)" fill="none" opacity="1" stroke="#000000" stroke-linecap="butt" stroke-linejoin="miter" stroke-miterlimit="2" stroke-opacity="1" stroke-width="0.33" transform="matrix(3.0303,0,0,3.0303,-910.606,-389.394)"><polyline fill="none" points="345,149 349,149" vector-effect="none"/></g><defs><clipPath id="clip23"><path d="M303,131 L365,131 L365,188 L303,188 L303,131 z"/></clipPath></defs><g clip-path="url(#clip23)" fill="none" opacity="1" stroke="#000000" stroke-linecap="butt" stroke-linejoin="miter" stroke-miterlimit="2" stroke-opacity="1" stroke-width="0.33" transform="matrix(3.0303,0,0,3.0303,-910.606,-389.394)"><polyline fill="none" points="352,145 354,145" vector-effect="none"/></g><defs><clipPath id="clip24"><path d="M303,131 L365,131 L365,188 L303,188 L303,131 z"/></clipPath></defs><g clip-path="url(#clip24)" fill="none" opacity="1" stroke="#000000" stroke-linecap="butt" stroke-linejoin="miter" stroke-miterlimit="2" stroke-opacity="1" stroke-width="0.33" transform="matrix(3.0303,0,0,3.0303,-910.606,-389.394)"><polyline fill="none" points="356,142 356,147" vector-effect="none"/></g><defs><clipPath id="clip25"><path d="M303,131 L365,131 L365,188 L303,188 L303,131 z"/></clipPath></defs><g clip-path="url(#clip25)" fill="none" opacity="1" stroke="#000000" stroke-linecap="butt" stroke-linejoin="miter" stroke-miterlimit="2" stroke-opacity="1" stroke-width="0.33" transform="matrix(3.0303,0,0,3.0303,-910.606,-389.394)"><polyline fill="none" points="316,183 317,182" vector-effect="none"/></g><defs><clipPath id="clip26"><path d="M303,131 L365,131 L365,188 L303,188 L303,131 z"/></clipPath></defs><g clip-path="url(#clip26)" fill="none" opacity="1" stroke="#000000" stroke-linecap="butt" stroke-linejoin="miter" stroke-miterlimit="2" stroke-opacity="1" stroke-width="0.33" transform="matrix(3.0303,0,0,3.0303,-910.606,-389.394)"><polyline fill="none" points="317,182 318,181" vector-effect="none"/></g><defs><clipPath id="clip27"><path d="M303,131 L365,131 L365,188 L303,188 L303,131 z"/></clipPath></defs><g clip-path="url(#clip27)" fill="none" opacity="1" stroke="#000000" stroke-linecap="butt" stroke-linejoin="miter" stroke-miterlimit="2" stroke-opacity="1" stroke-width="0.33" transform="matrix(3.0303,0,0,3.0303,-910.606,-389.394)"><polyline fill="none" points="318,181 319,180" vector-effect="none"/></g><defs><clipPath id="clip28"><path d="M303,131 L365,131 L365,188 L303,188 L303,131 z"/></clipPath></defs><g clip-path="url(#clip28)" fill="none" opacity="1" stroke="#000000" stroke-linecap="butt" stroke-linejoin="miter" stroke-miterlimit="2" stroke-opacity="1" stroke-width="0.33" transform="matrix(3.0303,0,0,3.0303,-910.606,-389.394)"><polyline fill="none" points="319,180 320,178" vector-effect="none"/></g><defs><clipPath id="clip29"><path d="M303,131 L365,131 L365,188 L303,188 L303,131 z"/></clipPath></defs><g clip-path="url(#clip29)" fill="none" opacity="1" stroke="#000000" stroke-linecap="butt" stroke-linejoin="miter" stroke-miterlimit="2" stroke-opacity="1" stroke-width="0.33" transform="matrix(3.0303,0,0,3.0303,-910.606,-389.394)"><polyline fill="none" points="320,178 322,176" vector-effect="none"/></g><defs><clipPath id="clip30"><path d="M303,131 L365,131 L365,188 L303,188 L303,131 z"/></clipPath></defs><g clip-path="url(#clip30)" fill="none" opacity="1" stroke="#000000" stroke-linecap="butt" stroke-linejoin="miter" stroke-miterlimit="2" stroke-opacity="1" stroke-width="0.33" transform="matrix(3.0303,0,0,3.0303,-910.606,-389.394)"><polyline fill="none" points="322,176 323,173" vector-effect="none"/></g><defs><clipPath id="clip31"><path d="M303,131 L365,131 L365,188 L303,188 L303,131 z"/></clipPath></defs><g clip-path="url(#clip31)" fill="none" opacity="1" stroke="#000000" stroke-linecap="butt" stroke-linejoin="miter" stroke-miterlimit="2" stroke-opacity="1" stroke-width="0.33" transform="matrix(3.0303,0,0,3.0303,-910.606,-389.394)"><polyline fill="none" points="323,173 324,171" vector-effect="none"/></g><defs><clipPath id="clip32"><path d="M303,131 L365,131 L365,188 L303,188 L303,131 z"/></clipPath></defs><g clip-path="url(#clip32)" fill="none" opacity="1" stroke="#000000" stroke-linecap="butt" stroke-linejoin="miter" stroke-miterlimit="2" stroke-opacity="1" stroke-width="0.33" transform="matrix(3.0303,0,0,3.0303,-910.606,-389.394)"><polyline fill="none" points="324,171 325,168" vector-effect="none"/></g><defs><clipPath id="clip33"><path d="M303,131 L365,131 L365,188 L303,188 L303,131 z"/></clipPath></defs><g clip-path="url(#clip33)" fill="none" opacity="1" stroke="#000000" stroke-linecap="butt" stroke-linejoin="miter" stroke-miterlimit="2" stroke-opacity="1" stroke-width="0.33" transform="matrix(3.0303,0,0,3.0303,-910.606,-389.394)"><polyline fill="none" points="325,168 326,165" vector-effect="none"/></g><defs><clipPath id="clip34"><path d="M303,131 L365,131 L365,188 L303,188 L303,131 z"/></clipPath></defs><g clip-path="url(#clip34)" fill="none" opacity="1" stroke="#000000" stroke-linecap="butt" stroke-linejoin="miter" stroke-miterlimit="2" stroke-opacity="1" stroke-width="0.33" transform="matrix(3.0303,0,0,3.0303,-910.606,-389.394)"><polyline fill="none" points="326,165 328,162" vector-effect="none"/></g><defs><clipPath id="clip35"><path d="M303,131 L365,131 L365,188 L303,188 L303,131 z"/></clipPath></defs><g clip-path="url(#clip35)" fill="none" opacity="1" stroke="#000000" stroke-linecap="butt" stroke-linejoin="miter" stroke-miterlimit="2" stroke-opacity="1" stroke-width="0.33" transform="matrix(3.0303,0,0,3.0303,-910.606,-389.394)"><polyline fill="none" points="328,162 329,160" vector-effect="none"/></g><defs><clipPath id="clip36"><path d="M303,131 L365,131 L365,188 L303,188 L303,131 z"/></clipPath></defs><g clip-path="url(#clip36)" fill="none" opacity="1" stroke="#000000" stroke-linecap="butt" stroke-linejoin="miter" stroke-miterlimit="2" stroke-opacity="1" stroke-width="0.33" transform="matrix(3.0303,0,0,3.0303,-910.606,-389.394)"><polyline fill="none" points="329,160 330,158" vector-effect="none"/></g><defs><clipPath id="clip37"><path d="M303,131 L365,131 L365,188 L303,188 L303,131 z"/></clipPath></defs><g clip-path="url(#clip37)" fill="none" opacity="1" stroke="#000000" stroke-linecap="butt" stroke-linejoin="miter" stroke-miterlimit="2" stroke-opacity="1" stroke-width="0.33" transform="matrix(3.0303,0,0,3.0303,-910.606,-389.394)"><polyline fill="none" points="330,158 331,156" vector-effect="none"/></g><defs><clipPath id="clip38"><path d="M303,131 L365,131 L365,188 L303,188 L303,131 z"/></clipPath></defs><g clip-path="url(#clip38)" fill="none" opacity="1" stroke="#000000" stroke-linecap="butt" stroke-linejoin="miter" stroke-miterlimit="2" stroke-opacity="1" stroke-width="0.33" transform="matrix(3.0303,0,0,3.0303,-910.606,-389.394)"><polyline fill="none" points="331,156 332,155" vector-effect="none"/></g><defs><clipPath id="clip39"><path d="M303,131 L365,131 L365,188 L303,188 L303,131 z"/></clipPath></defs><g clip-path="url(#clip39)" fill="none" opacity="1" stroke="#000000" stroke-linecap="butt" stroke-linejoin="miter" stroke-miterlimit="2" stroke-opacity="1" stroke-width="0.33" transform="matrix(3.0303,0,0,3.0303,-910.606,-389.394)"><polyline fill="none" points="332,155 333,154" vector-effect="none"/></g><defs><clipPath id="clip40"><path d="M303,131 L365,131 L365,188 L303,188 L303,131 z"/></clipPath></defs><g clip-path="url(#clip40)" fill="none" opacity="1" stroke="#000000" stroke-linecap="butt" stroke-linejoin="miter" stroke-miterlimit="2" stroke-opacity="1" stroke-width="0.33" transform="matrix(3.0303,0,0,3.0303,-910.606,-389.394)"><polyline fill="none" points="333,154 335,154" vector-effect="none"/></g><defs><clipPath id="clip41"><path d="M303,131 L365,131 L365,188 L303,188 L303,131 z"/></clipPath></defs><g clip-path="url(#clip41)" fill="none" opacity="1" stroke="#000000" stroke-linecap="butt" stroke-linejoin="miter" stroke-miterlimit="2" stroke-opacity="1" stroke-width="0.33" transform="matrix(3.0303,0,0,3.0303,-910.606,-389.394)"><polyline fill="none" points="335,154 336,155" vector-effect="none"/></g><defs><clipPath id="clip42"><path d="M303,131 L365,131 L365,188 L303,188 L303,131 z"/></clipPath></defs><g clip-path="url(#clip42)" fill="none" opacity="1" stroke="#000000" stroke-linecap="butt" stroke-linejoin="miter" stroke-miterlimit="2" stroke-opacity="1" stroke-width="0.33" transform="matrix(3.0303,0,0,3.0303,-910.606,-389.394)"><polyline fill="none" points="336,155 337,156" vector-effect="none"/></g><defs><clipPath id="clip43"><path d="M303,131 L365,131 L365,188 L303,188 L303,131 z"/></clipPath></defs><g clip-path="url(#clip43)" fill="none" opacity="1" stroke="#000000" stroke-linecap="butt" stroke-linejoin="miter" stroke-miterlimit="2" stroke-opacity="1" stroke-width="0.33" transform="matrix(3.0303,0,0,3.0303,-910.606,-389.394)"><polyline fill="none" points="337,156 338,158" vector-effect="none"/></g><defs><clipPath id="clip44"><path d="M303,131 L365,131 L365,188 L303,188 L303,131 z"/></clipPath></defs><g clip-path="url(#clip44)" fill="none" opacity="1" stroke="#000000" stroke-linecap="butt" stroke-linejoin="miter" stroke-miterlimit="2" stroke-opacity="1" stroke-width="0.33" transform="matrix(3.0303,0,0,3.0303,-910.606,-389.394)"><polyline fill="none" points="338,158 339,160" vector-effect="none"/></g><defs><clipPath id="clip45"><path d="M303,131 L365,131 L365,188 L303,188 L303,131 z"/></clipPath></defs><g clip-path="url(#clip45)" fill="none" opacity="1" stroke="#000000" stroke-linecap="butt" stroke-linejoin="miter" stroke-miterlimit="2" stroke-opacity="1" stroke-width="0.33" transform="matrix(3.0303,0,0,3.0303,-910.606,-389.394)"><polyline fill="none" points="339,160 340,162" vector-effect="none"/></g><defs><clipPath id="clip46"><path d="M303,131 L365,131 L365,188 L303,188 L303,131 z"/></clipPath></defs><g clip-path="url(#clip46)" fill="none" opacity="1" stroke="#000000" stroke-linecap="butt" stroke-linejoin="miter" stroke-miterlimit="2" stroke-opacity="1" stroke-width="0.33" transform="matrix(3.0303,0,0,3.0303,-910.606,-389.394)"><polyline fill="none" points="340,162 342,165" vector-effect="none"/></g><defs><clipPath id="clip47"><path d="M303,131 L365,131 L365,188 L303,188 L303,131 z"/></clipPath></defs><g clip-path="url(#clip47)" fill="none" opacity="1" stroke="#000000" stroke-linecap="butt" stroke-linejoin="miter" stroke-miterlimit="2" stroke-opacity="1" stroke-width="0.33" transform="matrix(3.0303,0,0,3.0303,-910.606,-389.394)"><polyline fill="none" points="342,165 343,168" vector-effect="none"/></g><defs><clipPath id="clip48"><path d="M303,131 L365,131 L365,188 L303,188 L303,131 z"/></clipPath></defs><g clip-path="url(#clip48)" fill="none" opacity="1" stroke="#000000" stroke-linecap="butt" stroke-linejoin="miter" stroke-miterlimit="2" stroke-opacity="1" stroke-width="0.33" transform="matrix(3.0303,0,0,3.0303,-910.606,-389.394)"><polyline fill="none" points="343,168 344,171" vector-effect="none"/></g><defs><clipPath id="clip49"><path d="M303,131 L365,131 L365,188 L303,188 L303,131 z"/></clipPath></defs><g clip-path="url(#clip49)" fill="none" opacity="1" stroke="#000000" stroke-linecap="butt" stroke-linejoin="miter" stroke-miterlimit="2" stroke-opacity="1" stroke-width="0.33" transform="matrix(3.0303,0,0,3.0303,-910.606,-389.394)"><polyline fill="none" points="344,171 345,173" vector-effect="none"/></g><defs><clipPath id="clip50"><path d="M303,131 L365,131 L365,188 L303,188 L303,131 z"/></clipPath></defs><g clip-path="url(#clip50)" fill="none" opacity="1" stroke="#000000" stroke-linecap="butt" stroke-linejoin="miter" stroke-miterlimit="2" stroke-opacity="1" stroke-width="0.33" transform="matrix(3.0303,0,0,3.0303,-910.606,-389.394)"><polyline fill="none" points="345,173 346,176" vector-effect="none"/></g><defs><clipPath id="clip51"><path d="M303,131 L365,131 L365,188 L303,188 L303,131 z"/></clipPath></defs><g clip-path="url(#clip51)" fill="none" opacity="1" stroke="#000000" stroke-linecap="butt" stroke-linejoin="miter" stroke-miterlimit="2" stroke-opacity="1" stroke-width="0.33" transform="matrix(3.0303,0,0,3.0303,-910.606,-389.394)"><polyline fill="none" points="346,176 348,178" vector-effect="none"/></g><defs><clipPath id="clip52"><path d="M303,131 L365,131 L365,188 L303,188 L303,131 z"/></clipPath></defs><g clip-path="url(#clip52)" fill="none" opacity="1" stroke="#000000" stroke-linecap="butt" stroke-linejoin="miter" stroke-miterlimit="2" stroke-opacity="1" stroke-width="0.33" transform="matrix(3.0303,0,0,3.0303,-910.606,-389.394)"><polyline fill="none" points="348,178 349,180" vector-effect="none"/></g><defs><clipPath id="clip53"><path d="M303,131 L365,131 L365,188 L303,188 L303,131 z"/></clipPath></defs><g clip-path="url(#clip53)" fill="none" opacity="1" stroke="#000000" stroke-linecap="butt" stroke-linejoin="miter" stroke-miterlimit="2" stroke-opacity="1" stroke-width="0.33" transform="matrix(3.0303,0,0,3.0303,-910.606,-389.394)"><polyline fill="none" points="349,180 350,181" vector-effect="none"/></g><defs><clipPath id="clip54"><path d="M303,131 L365,131 L365,188 L303,188 L303,131 z"/></clipPath></defs><g clip-path="url(#clip54)" fill="none" opacity="1" stroke="#000000" stroke-linecap="butt" stroke-linejoin="miter" stroke-miterlimit="2" stroke-opacity="1" stroke-width="0.33" transform="matrix(3.0303,0,0,3.0303,-910.606,-389.394)"><polyline fill="none" points="350,181 351,182" vector-effect="none"/></g><defs><clipPath id="clip55"><path d="M303,131 L365,131 L365,188 L303,188 L303,131 z"/></clipPath></defs><g clip-path="url(#clip55)" fill="none" opacity="1" stroke="#000000" stroke-linecap="butt" stroke-linejoin="miter" stroke-miterlimit="2" stroke-opacity="1" stroke-width="0.33" transform="matrix(3.0303,0,0,3.0303,-910.606,-389.394)"><polyline fill="none" points="351,182 352,183" vector-effect="none"/></g><defs><clipPath id="clip60"><path d="M-2,-2 L64,-2 L64,59 L-2,59 L-2,-2 z"/></clipPath></defs><g clip-path="url(#clip60)" fill="none" opacity="1" stroke="#000000" stroke-linecap="butt" stroke-linejoin="miter" stroke-miterlimit="2" stroke-opacity="1" stroke-width="0.641809" transform="matrix(3.0303,0,0,3.0303,6.06061,6.06061)"><path d="M0,0 L62,0 L62,57 L0,57 L0,0 z" fill-rule="evenodd" vector-effect="none"/></g></g></svg>
