<?xml version="1.0" encoding="UTF-8"?><svg width="52.9167mm" height="28.0458mm" viewBox="0 0 200 106" xmlns="http://www.w3.org/2000/svg" xmlns:xlink="http://www.w3.org/1999/xlink"><g fill="none" stroke="black" stroke-width="1" fill-rule="evenodd" stroke-linecap="square" stroke-linejoin="bevel"><g clip-path="none" fill="none" opacity="1" stroke="none" stroke-opacity="0" transform="matrix(1,0,0,1,0,0)"><path d="M0,0 L200,0 L200,106 L0,106 L0,0 z" fill-rule="evenodd" vector-effect="none"/></g><defs><clipPath id="clip3"><path d="M-2,-2 L113,-2 L113,59 L-2,59 L-2,-2 z"/></clipPath></defs><g clip-path="url(#clip3)" fill="#61bdfc" fill-opacity="1" opacity="1" stroke="none" stroke-opacity="0" transform="matrix(1.73913,0,0,1.73913,3.47826,3.47826)"><path d="M0,0 L111,0 L111,57 L0,57 L0,0 z" fill-rule="evenodd" vector-effect="none"/></g><defs><clipPath id="clip8"><path d="M-282,-113 L286,-113 L286,179 L-282,179 L-282,-113 z"/></clipPath></defs><g clip-path="url(#clip8)" fill="none" opacity="1" stroke="#000000" stroke-linecap="butt" stroke-linejoin="miter" stroke-miterlimit="2" stroke-opacity="1" stroke-width="0.575" transform="matrix(0.339674,0,0,0.339674,99.1304,41.7391)"><text fill="#000000" fill-opacity="1" font-family="Liberation Sans" font-size="48" font-style="normal" font-weight="700" stroke="none" textLength="313" x="-201.266" xml:space="preserve" y="21.125">Configuration</text></g><defs><clipPath id="clip11"><path d="M-282,-179 L286,-179 L286,113 L-282,113 L-282,-179 z"/></clipPath></defs><g clip-path="url(#clip11)" fill="none" opacity="1" stroke="#000000" stroke-linecap="butt" stroke-linejoin="miter" stroke-miterlimit="2" stroke-opacity="1" stroke-width="0.575" transform="matrix(0.339674,0,0,0.339674,99.1304,64.3478)"><text fill="#000000" fill-opacity="1" font-family="Liberation Sans" font-size="48" font-style="normal" font-weight="700" stroke="none" textLength="184" x="-117.734" xml:space="preserve" y="21.125">Wizards</text></g><defs><clipPath id="clip17"><path d="M-2,-2 L113,-2 L113,59 L-2,59 L-2,-2 z"/></clipPath></defs><g clip-path="url(#clip17)" fill="none" opacity="1" stroke="#000000" stroke-linecap="butt" stroke-linejoin="miter" stroke-miterlimit="2" stroke-opacity="1" stroke-width="0.801433" transform="matrix(1.73913,0,0,1.73913,3.47826,3.47826)"><path d="M0,0 L111,0 L111,57 L0,57 L0,0 z" fill-rule="evenodd" vector-effect="none"/></g></g></svg>
