<?xml version="1.0" encoding="UTF-8"?><svg width="52.9167mm" height="17.1979mm" viewBox="0 0 200 65" xmlns="http://www.w3.org/2000/svg" xmlns:xlink="http://www.w3.org/1999/xlink"><g fill="none" stroke="black" stroke-width="1" fill-rule="evenodd" stroke-linecap="square" stroke-linejoin="bevel"><g clip-path="none" fill="none" opacity="1" stroke="none" stroke-opacity="0" transform="matrix(1,0,0,1,0,0)"><path d="M0,0 L200,0 L200,65 L0,65 L0,0 z" fill-rule="evenodd" vector-effect="none"/></g><defs><clipPath id="clip3"><path d="M-2,-2 L132,-2 L132,42 L-2,42 L-2,-2 z"/></clipPath></defs><g clip-path="url(#clip3)" fill="#61bdfc" fill-opacity="1" opacity="1" stroke="none" stroke-opacity="0" transform="matrix(1.49254,0,0,1.49254,2.98507,2.98507)"><path d="M0,0 L130,0 L130,40 L0,40 L0,0 z" fill-rule="evenodd" vector-effect="none"/></g><defs><clipPath id="clip8"><path d="M-333,-77 L333,-77 L333,128 L-333,128 L-333,-77 z"/></clipPath></defs><g clip-path="url(#clip8)" fill="none" opacity="1" stroke="#000000" stroke-linecap="butt" stroke-linejoin="miter" stroke-miterlimit="2" stroke-opacity="1" stroke-width="0.67" transform="matrix(0.291511,0,0,0.291511,100,25.3731)"><text fill="#000000" fill-opacity="1" font-family="Liberation Sans" font-size="40" font-style="normal" font-weight="400" stroke="none" textLength="288" x="-187.734" xml:space="preserve" y="17.9219">Configure Model</text></g><defs><clipPath id="clip11"><path d="M-333,-128 L333,-128 L333,77 L-333,77 L-333,-128 z"/></clipPath></defs><g clip-path="url(#clip11)" fill="none" opacity="1" stroke="#000000" stroke-linecap="butt" stroke-linejoin="miter" stroke-miterlimit="2" stroke-opacity="1" stroke-width="0.67" transform="matrix(0.291511,0,0,0.291511,100,40.2985)"><text fill="#000000" fill-opacity="1" font-family="Liberation Sans" font-size="40" font-style="normal" font-weight="400" stroke="none" textLength="422" x="-275.891" xml:space="preserve" y="17.9219">(double-click to activate)</text></g><defs><clipPath id="clip17"><path d="M-2,-2 L132,-2 L132,42 L-2,42 L-2,-2 z"/></clipPath></defs><g clip-path="url(#clip17)" fill="none" opacity="1" stroke="#000000" stroke-linecap="butt" stroke-linejoin="miter" stroke-miterlimit="2" stroke-opacity="1" stroke-width="0.851981" transform="matrix(1.49254,0,0,1.49254,2.98507,2.98507)"><path d="M0,0 L130,0 L130,40 L0,40 L0,0 z" fill-rule="evenodd" vector-effect="none"/></g></g></svg>
