<?xml version="1.0" encoding="UTF-8"?><svg width="52.9167mm" height="46.5667mm" viewBox="0 0 200 176" xmlns="http://www.w3.org/2000/svg" xmlns:xlink="http://www.w3.org/1999/xlink"><g fill="none" stroke="black" stroke-width="1" fill-rule="evenodd" stroke-linecap="square" stroke-linejoin="bevel"><g clip-path="none" fill="none" opacity="1" stroke="none" stroke-opacity="0" transform="matrix(1,0,0,1,0,0)"><path d="M0,0 L200,0 L200,176 L0,176 L0,0 z" fill-rule="evenodd" vector-effect="none"/></g><defs><clipPath id="clip3"><path d="M7,26 L-52,26 L-52,-26 L7,-26 L7,26 z"/></clipPath></defs><g clip-path="url(#clip3)" fill="none" opacity="1" stroke="#000000" stroke-linecap="round" stroke-linejoin="miter" stroke-miterlimit="2" stroke-opacity="1" stroke-width="2" transform="matrix(-3.38983,0,0,-3.38983,23.7288,88.1356)"><path d="M5,-5 L0,0 L5,5" fill-rule="evenodd" vector-effect="none"/></g><defs><clipPath id="clip6"><path d="M-52,-26 L7,-26 L7,26 L-52,26 L-52,-26 z"/></clipPath></defs><g clip-path="url(#clip6)" fill="none" opacity="1" stroke="#000000" stroke-linecap="round" stroke-linejoin="miter" stroke-miterlimit="2" stroke-opacity="1" stroke-width="2" transform="matrix(3.38983,0,0,3.38983,176.271,88.1356)"><path d="M0,-5 L5,0 L0,5" fill-rule="evenodd" vector-effect="none"/></g><defs><clipPath id="clip9"><path d="M-7,-2 L52,-2 L52,50 L-7,50 L-7,-2 z"/></clipPath></defs><g clip-path="url(#clip9)" fill="#ffffff" fill-opacity="1" opacity="1" stroke="none" stroke-opacity="0" transform="matrix(3.38983,0,0,3.38983,23.7288,6.77966)"><path d="M0,0 L45,0 L45,48 L0,48 L0,0 z" fill-rule="evenodd" vector-effect="none"/></g><defs><clipPath id="clip13"><path d="M155,26 L200,26 L200,74 L155,74 L155,26 z"/></clipPath></defs><g clip-path="url(#clip13)" fill="none" opacity="1" stroke="#000000" stroke-linecap="butt" stroke-linejoin="miter" stroke-miterlimit="2" stroke-opacity="1" stroke-width="0.295" transform="matrix(3.38983,0,0,3.38983,-500,-79.661)"><polyline fill="none" points="158,71 159,71" vector-effect="none"/></g><defs><clipPath id="clip14"><path d="M155,26 L200,26 L200,74 L155,74 L155,26 z"/></clipPath></defs><g clip-path="url(#clip14)" fill="none" opacity="1" stroke="#000000" stroke-linecap="butt" stroke-linejoin="miter" stroke-miterlimit="2" stroke-opacity="1" stroke-width="0.295" transform="matrix(3.38983,0,0,3.38983,-500,-79.661)"><polyline fill="none" points="159,71 160,71" vector-effect="none"/></g><defs><clipPath id="clip15"><path d="M155,26 L200,26 L200,74 L155,74 L155,26 z"/></clipPath></defs><g clip-path="url(#clip15)" fill="none" opacity="1" stroke="#000000" stroke-linecap="butt" stroke-linejoin="miter" stroke-miterlimit="2" stroke-opacity="1" stroke-width="0.295" transform="matrix(3.38983,0,0,3.38983,-500,-79.661)"><polyline fill="none" points="160,71 161,71" vector-effect="none"/></g><defs><clipPath id="clip16"><path d="M155,26 L200,26 L200,74 L155,74 L155,26 z"/></clipPath></defs><g clip-path="url(#clip16)" fill="none" opacity="1" stroke="#000000" stroke-linecap="butt" stroke-linejoin="miter" stroke-miterlimit="2" stroke-opacity="1" stroke-width="0.295" transform="matrix(3.38983,0,0,3.38983,-500,-79.661)"><polyline fill="none" points="161,71 162,71" vector-effect="none"/></g><defs><clipPath id="clip17"><path d="M155,26 L200,26 L200,74 L155,74 L155,26 z"/></clipPath></defs><g clip-path="url(#clip17)" fill="none" opacity="1" stroke="#000000" stroke-linecap="butt" stroke-linejoin="miter" stroke-miterlimit="2" stroke-opacity="1" stroke-width="0.295" transform="matrix(3.38983,0,0,3.38983,-500,-79.661)"><polyline fill="none" points="162,71 163,71" vector-effect="none"/></g><defs><clipPath id="clip18"><path d="M155,26 L200,26 L200,74 L155,74 L155,26 z"/></clipPath></defs><g clip-path="url(#clip18)" fill="none" opacity="1" stroke="#000000" stroke-linecap="butt" stroke-linejoin="miter" stroke-miterlimit="2" stroke-opacity="1" stroke-width="0.295" transform="matrix(3.38983,0,0,3.38983,-500,-79.661)"><polyline fill="none" points="163,71 164,71" vector-effect="none"/></g><defs><clipPath id="clip19"><path d="M155,26 L200,26 L200,74 L155,74 L155,26 z"/></clipPath></defs><g clip-path="url(#clip19)" fill="none" opacity="1" stroke="#000000" stroke-linecap="butt" stroke-linejoin="miter" stroke-miterlimit="2" stroke-opacity="1" stroke-width="0.295" transform="matrix(3.38983,0,0,3.38983,-500,-79.661)"><polyline fill="none" points="164,71 165,71" vector-effect="none"/></g><defs><clipPath id="clip20"><path d="M155,26 L200,26 L200,74 L155,74 L155,26 z"/></clipPath></defs><g clip-path="url(#clip20)" fill="none" opacity="1" stroke="#000000" stroke-linecap="butt" stroke-linejoin="miter" stroke-miterlimit="2" stroke-opacity="1" stroke-width="0.295" transform="matrix(3.38983,0,0,3.38983,-500,-79.661)"><polyline fill="none" points="165,71 166,71" vector-effect="none"/></g><defs><clipPath id="clip21"><path d="M155,26 L200,26 L200,74 L155,74 L155,26 z"/></clipPath></defs><g clip-path="url(#clip21)" fill="none" opacity="1" stroke="#000000" stroke-linecap="butt" stroke-linejoin="miter" stroke-miterlimit="2" stroke-opacity="1" stroke-width="0.295" transform="matrix(3.38983,0,0,3.38983,-500,-79.661)"><polyline fill="none" points="166,71 167,71" vector-effect="none"/></g><defs><clipPath id="clip22"><path d="M155,26 L200,26 L200,74 L155,74 L155,26 z"/></clipPath></defs><g clip-path="url(#clip22)" fill="none" opacity="1" stroke="#000000" stroke-linecap="butt" stroke-linejoin="miter" stroke-miterlimit="2" stroke-opacity="1" stroke-width="0.295" transform="matrix(3.38983,0,0,3.38983,-500,-79.661)"><polyline fill="none" points="167,71 168,71" vector-effect="none"/></g><defs><clipPath id="clip23"><path d="M155,26 L200,26 L200,74 L155,74 L155,26 z"/></clipPath></defs><g clip-path="url(#clip23)" fill="none" opacity="1" stroke="#000000" stroke-linecap="butt" stroke-linejoin="miter" stroke-miterlimit="2" stroke-opacity="1" stroke-width="0.295" transform="matrix(3.38983,0,0,3.38983,-500,-79.661)"><polyline fill="none" points="168,71 169,71" vector-effect="none"/></g><defs><clipPath id="clip24"><path d="M155,26 L200,26 L200,74 L155,74 L155,26 z"/></clipPath></defs><g clip-path="url(#clip24)" fill="none" opacity="1" stroke="#000000" stroke-linecap="butt" stroke-linejoin="miter" stroke-miterlimit="2" stroke-opacity="1" stroke-width="0.295" transform="matrix(3.38983,0,0,3.38983,-500,-79.661)"><polyline fill="none" points="169,71 170,71" vector-effect="none"/></g><defs><clipPath id="clip25"><path d="M155,26 L200,26 L200,74 L155,74 L155,26 z"/></clipPath></defs><g clip-path="url(#clip25)" fill="none" opacity="1" stroke="#000000" stroke-linecap="butt" stroke-linejoin="miter" stroke-miterlimit="2" stroke-opacity="1" stroke-width="0.295" transform="matrix(3.38983,0,0,3.38983,-500,-79.661)"><polyline fill="none" points="170,71 171,71" vector-effect="none"/></g><defs><clipPath id="clip26"><path d="M155,26 L200,26 L200,74 L155,74 L155,26 z"/></clipPath></defs><g clip-path="url(#clip26)" fill="none" opacity="1" stroke="#000000" stroke-linecap="butt" stroke-linejoin="miter" stroke-miterlimit="2" stroke-opacity="1" stroke-width="0.295" transform="matrix(3.38983,0,0,3.38983,-500,-79.661)"><polyline fill="none" points="171,71 172,71" vector-effect="none"/></g><defs><clipPath id="clip27"><path d="M155,26 L200,26 L200,74 L155,74 L155,26 z"/></clipPath></defs><g clip-path="url(#clip27)" fill="none" opacity="1" stroke="#000000" stroke-linecap="butt" stroke-linejoin="miter" stroke-miterlimit="2" stroke-opacity="1" stroke-width="0.295" transform="matrix(3.38983,0,0,3.38983,-500,-79.661)"><polyline fill="none" points="172,71 173,70" vector-effect="none"/></g><defs><clipPath id="clip28"><path d="M155,26 L200,26 L200,74 L155,74 L155,26 z"/></clipPath></defs><g clip-path="url(#clip28)" fill="none" opacity="1" stroke="#000000" stroke-linecap="butt" stroke-linejoin="miter" stroke-miterlimit="2" stroke-opacity="1" stroke-width="0.295" transform="matrix(3.38983,0,0,3.38983,-500,-79.661)"><polyline fill="none" points="173,70 174,69" vector-effect="none"/></g><defs><clipPath id="clip29"><path d="M155,26 L200,26 L200,74 L155,74 L155,26 z"/></clipPath></defs><g clip-path="url(#clip29)" fill="none" opacity="1" stroke="#000000" stroke-linecap="butt" stroke-linejoin="miter" stroke-miterlimit="2" stroke-opacity="1" stroke-width="0.295" transform="matrix(3.38983,0,0,3.38983,-500,-79.661)"><polyline fill="none" points="174,69 175,66" vector-effect="none"/></g><defs><clipPath id="clip30"><path d="M155,26 L200,26 L200,74 L155,74 L155,26 z"/></clipPath></defs><g clip-path="url(#clip30)" fill="none" opacity="1" stroke="#000000" stroke-linecap="butt" stroke-linejoin="miter" stroke-miterlimit="2" stroke-opacity="1" stroke-width="0.295" transform="matrix(3.38983,0,0,3.38983,-500,-79.661)"><polyline fill="none" points="175,66 176,62" vector-effect="none"/></g><defs><clipPath id="clip31"><path d="M155,26 L200,26 L200,74 L155,74 L155,26 z"/></clipPath></defs><g clip-path="url(#clip31)" fill="none" opacity="1" stroke="#000000" stroke-linecap="butt" stroke-linejoin="miter" stroke-miterlimit="2" stroke-opacity="1" stroke-width="0.295" transform="matrix(3.38983,0,0,3.38983,-500,-79.661)"><polyline fill="none" points="176,62 177,56" vector-effect="none"/></g><defs><clipPath id="clip32"><path d="M155,26 L200,26 L200,74 L155,74 L155,26 z"/></clipPath></defs><g clip-path="url(#clip32)" fill="none" opacity="1" stroke="#000000" stroke-linecap="butt" stroke-linejoin="miter" stroke-miterlimit="2" stroke-opacity="1" stroke-width="0.295" transform="matrix(3.38983,0,0,3.38983,-500,-79.661)"><polyline fill="none" points="177,56 178,50" vector-effect="none"/></g><defs><clipPath id="clip33"><path d="M155,26 L200,26 L200,74 L155,74 L155,26 z"/></clipPath></defs><g clip-path="url(#clip33)" fill="none" opacity="1" stroke="#000000" stroke-linecap="butt" stroke-linejoin="miter" stroke-miterlimit="2" stroke-opacity="1" stroke-width="0.295" transform="matrix(3.38983,0,0,3.38983,-500,-79.661)"><polyline fill="none" points="178,50 178,44" vector-effect="none"/></g><defs><clipPath id="clip34"><path d="M155,26 L200,26 L200,74 L155,74 L155,26 z"/></clipPath></defs><g clip-path="url(#clip34)" fill="none" opacity="1" stroke="#000000" stroke-linecap="butt" stroke-linejoin="miter" stroke-miterlimit="2" stroke-opacity="1" stroke-width="0.295" transform="matrix(3.38983,0,0,3.38983,-500,-79.661)"><polyline fill="none" points="178,44 179,38" vector-effect="none"/></g><defs><clipPath id="clip35"><path d="M155,26 L200,26 L200,74 L155,74 L155,26 z"/></clipPath></defs><g clip-path="url(#clip35)" fill="none" opacity="1" stroke="#000000" stroke-linecap="butt" stroke-linejoin="miter" stroke-miterlimit="2" stroke-opacity="1" stroke-width="0.295" transform="matrix(3.38983,0,0,3.38983,-500,-79.661)"><polyline fill="none" points="179,38 180,34" vector-effect="none"/></g><defs><clipPath id="clip36"><path d="M155,26 L200,26 L200,74 L155,74 L155,26 z"/></clipPath></defs><g clip-path="url(#clip36)" fill="none" opacity="1" stroke="#000000" stroke-linecap="butt" stroke-linejoin="miter" stroke-miterlimit="2" stroke-opacity="1" stroke-width="0.295" transform="matrix(3.38983,0,0,3.38983,-500,-79.661)"><polyline fill="none" points="180,34 181,31" vector-effect="none"/></g><defs><clipPath id="clip37"><path d="M155,26 L200,26 L200,74 L155,74 L155,26 z"/></clipPath></defs><g clip-path="url(#clip37)" fill="none" opacity="1" stroke="#000000" stroke-linecap="butt" stroke-linejoin="miter" stroke-miterlimit="2" stroke-opacity="1" stroke-width="0.295" transform="matrix(3.38983,0,0,3.38983,-500,-79.661)"><polyline fill="none" points="181,31 182,30" vector-effect="none"/></g><defs><clipPath id="clip38"><path d="M155,26 L200,26 L200,74 L155,74 L155,26 z"/></clipPath></defs><g clip-path="url(#clip38)" fill="none" opacity="1" stroke="#000000" stroke-linecap="butt" stroke-linejoin="miter" stroke-miterlimit="2" stroke-opacity="1" stroke-width="0.295" transform="matrix(3.38983,0,0,3.38983,-500,-79.661)"><polyline fill="none" points="182,30 183,29" vector-effect="none"/></g><defs><clipPath id="clip39"><path d="M155,26 L200,26 L200,74 L155,74 L155,26 z"/></clipPath></defs><g clip-path="url(#clip39)" fill="none" opacity="1" stroke="#000000" stroke-linecap="butt" stroke-linejoin="miter" stroke-miterlimit="2" stroke-opacity="1" stroke-width="0.295" transform="matrix(3.38983,0,0,3.38983,-500,-79.661)"><polyline fill="none" points="183,29 184,29" vector-effect="none"/></g><defs><clipPath id="clip40"><path d="M155,26 L200,26 L200,74 L155,74 L155,26 z"/></clipPath></defs><g clip-path="url(#clip40)" fill="none" opacity="1" stroke="#000000" stroke-linecap="butt" stroke-linejoin="miter" stroke-miterlimit="2" stroke-opacity="1" stroke-width="0.295" transform="matrix(3.38983,0,0,3.38983,-500,-79.661)"><polyline fill="none" points="184,29 185,29" vector-effect="none"/></g><defs><clipPath id="clip41"><path d="M155,26 L200,26 L200,74 L155,74 L155,26 z"/></clipPath></defs><g clip-path="url(#clip41)" fill="none" opacity="1" stroke="#000000" stroke-linecap="butt" stroke-linejoin="miter" stroke-miterlimit="2" stroke-opacity="1" stroke-width="0.295" transform="matrix(3.38983,0,0,3.38983,-500,-79.661)"><polyline fill="none" points="185,29 186,29" vector-effect="none"/></g><defs><clipPath id="clip42"><path d="M155,26 L200,26 L200,74 L155,74 L155,26 z"/></clipPath></defs><g clip-path="url(#clip42)" fill="none" opacity="1" stroke="#000000" stroke-linecap="butt" stroke-linejoin="miter" stroke-miterlimit="2" stroke-opacity="1" stroke-width="0.295" transform="matrix(3.38983,0,0,3.38983,-500,-79.661)"><polyline fill="none" points="186,29 187,29" vector-effect="none"/></g><defs><clipPath id="clip43"><path d="M155,26 L200,26 L200,74 L155,74 L155,26 z"/></clipPath></defs><g clip-path="url(#clip43)" fill="none" opacity="1" stroke="#000000" stroke-linecap="butt" stroke-linejoin="miter" stroke-miterlimit="2" stroke-opacity="1" stroke-width="0.295" transform="matrix(3.38983,0,0,3.38983,-500,-79.661)"><polyline fill="none" points="187,29 188,29" vector-effect="none"/></g><defs><clipPath id="clip44"><path d="M155,26 L200,26 L200,74 L155,74 L155,26 z"/></clipPath></defs><g clip-path="url(#clip44)" fill="none" opacity="1" stroke="#000000" stroke-linecap="butt" stroke-linejoin="miter" stroke-miterlimit="2" stroke-opacity="1" stroke-width="0.295" transform="matrix(3.38983,0,0,3.38983,-500,-79.661)"><polyline fill="none" points="188,29 189,29" vector-effect="none"/></g><defs><clipPath id="clip45"><path d="M155,26 L200,26 L200,74 L155,74 L155,26 z"/></clipPath></defs><g clip-path="url(#clip45)" fill="none" opacity="1" stroke="#000000" stroke-linecap="butt" stroke-linejoin="miter" stroke-miterlimit="2" stroke-opacity="1" stroke-width="0.295" transform="matrix(3.38983,0,0,3.38983,-500,-79.661)"><polyline fill="none" points="189,29 190,29" vector-effect="none"/></g><defs><clipPath id="clip46"><path d="M155,26 L200,26 L200,74 L155,74 L155,26 z"/></clipPath></defs><g clip-path="url(#clip46)" fill="none" opacity="1" stroke="#000000" stroke-linecap="butt" stroke-linejoin="miter" stroke-miterlimit="2" stroke-opacity="1" stroke-width="0.295" transform="matrix(3.38983,0,0,3.38983,-500,-79.661)"><polyline fill="none" points="190,29 191,29" vector-effect="none"/></g><defs><clipPath id="clip47"><path d="M155,26 L200,26 L200,74 L155,74 L155,26 z"/></clipPath></defs><g clip-path="url(#clip47)" fill="none" opacity="1" stroke="#000000" stroke-linecap="butt" stroke-linejoin="miter" stroke-miterlimit="2" stroke-opacity="1" stroke-width="0.295" transform="matrix(3.38983,0,0,3.38983,-500,-79.661)"><polyline fill="none" points="191,29 192,29" vector-effect="none"/></g><defs><clipPath id="clip48"><path d="M155,26 L200,26 L200,74 L155,74 L155,26 z"/></clipPath></defs><g clip-path="url(#clip48)" fill="none" opacity="1" stroke="#000000" stroke-linecap="butt" stroke-linejoin="miter" stroke-miterlimit="2" stroke-opacity="1" stroke-width="0.295" transform="matrix(3.38983,0,0,3.38983,-500,-79.661)"><polyline fill="none" points="192,29 193,29" vector-effect="none"/></g><defs><clipPath id="clip49"><path d="M155,26 L200,26 L200,74 L155,74 L155,26 z"/></clipPath></defs><g clip-path="url(#clip49)" fill="none" opacity="1" stroke="#000000" stroke-linecap="butt" stroke-linejoin="miter" stroke-miterlimit="2" stroke-opacity="1" stroke-width="0.295" transform="matrix(3.38983,0,0,3.38983,-500,-79.661)"><polyline fill="none" points="193,29 194,29" vector-effect="none"/></g><defs><clipPath id="clip50"><path d="M155,26 L200,26 L200,74 L155,74 L155,26 z"/></clipPath></defs><g clip-path="url(#clip50)" fill="none" opacity="1" stroke="#000000" stroke-linecap="butt" stroke-linejoin="miter" stroke-miterlimit="2" stroke-opacity="1" stroke-width="0.295" transform="matrix(3.38983,0,0,3.38983,-500,-79.661)"><polyline fill="none" points="194,29 195,29" vector-effect="none"/></g><defs><clipPath id="clip51"><path d="M155,26 L200,26 L200,74 L155,74 L155,26 z"/></clipPath></defs><g clip-path="url(#clip51)" fill="none" opacity="1" stroke="#000000" stroke-linecap="butt" stroke-linejoin="miter" stroke-miterlimit="2" stroke-opacity="1" stroke-width="0.295" transform="matrix(3.38983,0,0,3.38983,-500,-79.661)"><polyline fill="none" points="195,29 196,29" vector-effect="none"/></g><defs><clipPath id="clip52"><path d="M155,26 L200,26 L200,74 L155,74 L155,26 z"/></clipPath></defs><g clip-path="url(#clip52)" fill="none" opacity="1" stroke="#000000" stroke-linecap="butt" stroke-linejoin="miter" stroke-miterlimit="2" stroke-opacity="1" stroke-width="0.295" transform="matrix(3.38983,0,0,3.38983,-500,-79.661)"><polyline fill="none" points="196,29 197,29" vector-effect="none"/></g><defs><clipPath id="clip57"><path d="M-7,-2 L52,-2 L52,50 L-7,50 L-7,-2 z"/></clipPath></defs><g clip-path="url(#clip57)" fill="none" opacity="1" stroke="#000000" stroke-linecap="butt" stroke-linejoin="miter" stroke-miterlimit="2" stroke-opacity="1" stroke-width="0.613661" transform="matrix(3.38983,0,0,3.38983,23.7288,6.77966)"><path d="M0,0 L45,0 L45,48 L0,48 L0,0 z" fill-rule="evenodd" vector-effect="none"/></g></g></svg>
