<?xml version="1.0" encoding="UTF-8"?><svg width="52.9167mm" height="46.5667mm" viewBox="0 0 200 176" xmlns="http://www.w3.org/2000/svg" xmlns:xlink="http://www.w3.org/1999/xlink"><g fill="none" stroke="black" stroke-width="1" fill-rule="evenodd" stroke-linecap="square" stroke-linejoin="bevel"><g clip-path="none" fill="none" opacity="1" stroke="none" stroke-opacity="0" transform="matrix(1,0,0,1,0,0)"><path d="M0,0 L200,0 L200,176 L0,176 L0,0 z" fill-rule="evenodd" vector-effect="none"/></g><defs><clipPath id="clip3"><path d="M-52,-26 L7,-26 L7,26 L-52,26 L-52,-26 z"/></clipPath></defs><g clip-path="url(#clip3)" fill="none" opacity="1" stroke="#000000" stroke-linecap="round" stroke-linejoin="miter" stroke-miterlimit="2" stroke-opacity="1" stroke-width="2" transform="matrix(3.38983,0,0,3.38983,176.271,88.1356)"><path d="M0,-5 L5,0 L0,5" fill-rule="evenodd" vector-effect="none"/></g><defs><clipPath id="clip6"><path d="M7,26 L-52,26 L-52,-26 L7,-26 L7,26 z"/></clipPath></defs><g clip-path="url(#clip6)" fill="none" opacity="1" stroke="#000000" stroke-linecap="round" stroke-linejoin="miter" stroke-miterlimit="2" stroke-opacity="1" stroke-width="2" transform="matrix(-3.38983,0,0,-3.38983,23.7288,88.1356)"><path d="M5,-5 L0,0 L5,5" fill-rule="evenodd" vector-effect="none"/></g><defs><clipPath id="clip9"><path d="M-7,-2 L52,-2 L52,50 L-7,50 L-7,-2 z"/></clipPath></defs><g clip-path="url(#clip9)" fill="#ffffff" fill-opacity="1" opacity="1" stroke="none" stroke-opacity="0" transform="matrix(3.38983,0,0,3.38983,23.7288,6.77966)"><path d="M0,0 L45,0 L45,48 L0,48 L0,0 z" fill-rule="evenodd" vector-effect="none"/></g><defs><clipPath id="clip13"><path d="M260,106 L305,106 L305,154 L260,154 L260,106 z"/></clipPath></defs><g clip-path="url(#clip13)" fill="none" opacity="1" stroke="#000000" stroke-linecap="butt" stroke-linejoin="miter" stroke-miterlimit="2" stroke-opacity="1" stroke-width="0.295" transform="matrix(3.38983,0,0,3.38983,-855.932,-350.847)"><polyline fill="none" points="263,151 264,151" vector-effect="none"/></g><defs><clipPath id="clip14"><path d="M260,106 L305,106 L305,154 L260,154 L260,106 z"/></clipPath></defs><g clip-path="url(#clip14)" fill="none" opacity="1" stroke="#000000" stroke-linecap="butt" stroke-linejoin="miter" stroke-miterlimit="2" stroke-opacity="1" stroke-width="0.295" transform="matrix(3.38983,0,0,3.38983,-855.932,-350.847)"><polyline fill="none" points="264,151 265,151" vector-effect="none"/></g><defs><clipPath id="clip15"><path d="M260,106 L305,106 L305,154 L260,154 L260,106 z"/></clipPath></defs><g clip-path="url(#clip15)" fill="none" opacity="1" stroke="#000000" stroke-linecap="butt" stroke-linejoin="miter" stroke-miterlimit="2" stroke-opacity="1" stroke-width="0.295" transform="matrix(3.38983,0,0,3.38983,-855.932,-350.847)"><polyline fill="none" points="265,151 266,151" vector-effect="none"/></g><defs><clipPath id="clip16"><path d="M260,106 L305,106 L305,154 L260,154 L260,106 z"/></clipPath></defs><g clip-path="url(#clip16)" fill="none" opacity="1" stroke="#000000" stroke-linecap="butt" stroke-linejoin="miter" stroke-miterlimit="2" stroke-opacity="1" stroke-width="0.295" transform="matrix(3.38983,0,0,3.38983,-855.932,-350.847)"><polyline fill="none" points="266,151 267,150" vector-effect="none"/></g><defs><clipPath id="clip17"><path d="M260,106 L305,106 L305,154 L260,154 L260,106 z"/></clipPath></defs><g clip-path="url(#clip17)" fill="none" opacity="1" stroke="#000000" stroke-linecap="butt" stroke-linejoin="miter" stroke-miterlimit="2" stroke-opacity="1" stroke-width="0.295" transform="matrix(3.38983,0,0,3.38983,-855.932,-350.847)"><polyline fill="none" points="267,150 268,150" vector-effect="none"/></g><defs><clipPath id="clip18"><path d="M260,106 L305,106 L305,154 L260,154 L260,106 z"/></clipPath></defs><g clip-path="url(#clip18)" fill="none" opacity="1" stroke="#000000" stroke-linecap="butt" stroke-linejoin="miter" stroke-miterlimit="2" stroke-opacity="1" stroke-width="0.295" transform="matrix(3.38983,0,0,3.38983,-855.932,-350.847)"><polyline fill="none" points="268,150 269,148" vector-effect="none"/></g><defs><clipPath id="clip19"><path d="M260,106 L305,106 L305,154 L260,154 L260,106 z"/></clipPath></defs><g clip-path="url(#clip19)" fill="none" opacity="1" stroke="#000000" stroke-linecap="butt" stroke-linejoin="miter" stroke-miterlimit="2" stroke-opacity="1" stroke-width="0.295" transform="matrix(3.38983,0,0,3.38983,-855.932,-350.847)"><polyline fill="none" points="269,148 270,147" vector-effect="none"/></g><defs><clipPath id="clip20"><path d="M260,106 L305,106 L305,154 L260,154 L260,106 z"/></clipPath></defs><g clip-path="url(#clip20)" fill="none" opacity="1" stroke="#000000" stroke-linecap="butt" stroke-linejoin="miter" stroke-miterlimit="2" stroke-opacity="1" stroke-width="0.295" transform="matrix(3.38983,0,0,3.38983,-855.932,-350.847)"><polyline fill="none" points="270,147 271,143" vector-effect="none"/></g><defs><clipPath id="clip21"><path d="M260,106 L305,106 L305,154 L260,154 L260,106 z"/></clipPath></defs><g clip-path="url(#clip21)" fill="none" opacity="1" stroke="#000000" stroke-linecap="butt" stroke-linejoin="miter" stroke-miterlimit="2" stroke-opacity="1" stroke-width="0.295" transform="matrix(3.38983,0,0,3.38983,-855.932,-350.847)"><polyline fill="none" points="271,143 272,138" vector-effect="none"/></g><defs><clipPath id="clip22"><path d="M260,106 L305,106 L305,154 L260,154 L260,106 z"/></clipPath></defs><g clip-path="url(#clip22)" fill="none" opacity="1" stroke="#000000" stroke-linecap="butt" stroke-linejoin="miter" stroke-miterlimit="2" stroke-opacity="1" stroke-width="0.295" transform="matrix(3.38983,0,0,3.38983,-855.932,-350.847)"><polyline fill="none" points="272,138 273,130" vector-effect="none"/></g><defs><clipPath id="clip23"><path d="M260,106 L305,106 L305,154 L260,154 L260,106 z"/></clipPath></defs><g clip-path="url(#clip23)" fill="none" opacity="1" stroke="#000000" stroke-linecap="butt" stroke-linejoin="miter" stroke-miterlimit="2" stroke-opacity="1" stroke-width="0.295" transform="matrix(3.38983,0,0,3.38983,-855.932,-350.847)"><polyline fill="none" points="273,130 274,122" vector-effect="none"/></g><defs><clipPath id="clip24"><path d="M260,106 L305,106 L305,154 L260,154 L260,106 z"/></clipPath></defs><g clip-path="url(#clip24)" fill="none" opacity="1" stroke="#000000" stroke-linecap="butt" stroke-linejoin="miter" stroke-miterlimit="2" stroke-opacity="1" stroke-width="0.295" transform="matrix(3.38983,0,0,3.38983,-855.932,-350.847)"><polyline fill="none" points="274,122 275,115" vector-effect="none"/></g><defs><clipPath id="clip25"><path d="M260,106 L305,106 L305,154 L260,154 L260,106 z"/></clipPath></defs><g clip-path="url(#clip25)" fill="none" opacity="1" stroke="#000000" stroke-linecap="butt" stroke-linejoin="miter" stroke-miterlimit="2" stroke-opacity="1" stroke-width="0.295" transform="matrix(3.38983,0,0,3.38983,-855.932,-350.847)"><polyline fill="none" points="275,115 276,111" vector-effect="none"/></g><defs><clipPath id="clip26"><path d="M260,106 L305,106 L305,154 L260,154 L260,106 z"/></clipPath></defs><g clip-path="url(#clip26)" fill="none" opacity="1" stroke="#000000" stroke-linecap="butt" stroke-linejoin="miter" stroke-miterlimit="2" stroke-opacity="1" stroke-width="0.295" transform="matrix(3.38983,0,0,3.38983,-855.932,-350.847)"><polyline fill="none" points="276,111 277,110" vector-effect="none"/></g><defs><clipPath id="clip27"><path d="M260,106 L305,106 L305,154 L260,154 L260,106 z"/></clipPath></defs><g clip-path="url(#clip27)" fill="none" opacity="1" stroke="#000000" stroke-linecap="butt" stroke-linejoin="miter" stroke-miterlimit="2" stroke-opacity="1" stroke-width="0.295" transform="matrix(3.38983,0,0,3.38983,-855.932,-350.847)"><polyline fill="none" points="277,110 278,109" vector-effect="none"/></g><defs><clipPath id="clip28"><path d="M260,106 L305,106 L305,154 L260,154 L260,106 z"/></clipPath></defs><g clip-path="url(#clip28)" fill="none" opacity="1" stroke="#000000" stroke-linecap="butt" stroke-linejoin="miter" stroke-miterlimit="2" stroke-opacity="1" stroke-width="0.295" transform="matrix(3.38983,0,0,3.38983,-855.932,-350.847)"><polyline fill="none" points="278,109 279,109" vector-effect="none"/></g><defs><clipPath id="clip29"><path d="M260,106 L305,106 L305,154 L260,154 L260,106 z"/></clipPath></defs><g clip-path="url(#clip29)" fill="none" opacity="1" stroke="#000000" stroke-linecap="butt" stroke-linejoin="miter" stroke-miterlimit="2" stroke-opacity="1" stroke-width="0.295" transform="matrix(3.38983,0,0,3.38983,-855.932,-350.847)"><polyline fill="none" points="279,109 280,109" vector-effect="none"/></g><defs><clipPath id="clip30"><path d="M260,106 L305,106 L305,154 L260,154 L260,106 z"/></clipPath></defs><g clip-path="url(#clip30)" fill="none" opacity="1" stroke="#000000" stroke-linecap="butt" stroke-linejoin="miter" stroke-miterlimit="2" stroke-opacity="1" stroke-width="0.295" transform="matrix(3.38983,0,0,3.38983,-855.932,-350.847)"><polyline fill="none" points="280,109 281,109" vector-effect="none"/></g><defs><clipPath id="clip31"><path d="M260,106 L305,106 L305,154 L260,154 L260,106 z"/></clipPath></defs><g clip-path="url(#clip31)" fill="none" opacity="1" stroke="#000000" stroke-linecap="butt" stroke-linejoin="miter" stroke-miterlimit="2" stroke-opacity="1" stroke-width="0.295" transform="matrix(3.38983,0,0,3.38983,-855.932,-350.847)"><polyline fill="none" points="281,109 282,109" vector-effect="none"/></g><defs><clipPath id="clip32"><path d="M260,106 L305,106 L305,154 L260,154 L260,106 z"/></clipPath></defs><g clip-path="url(#clip32)" fill="none" opacity="1" stroke="#000000" stroke-linecap="butt" stroke-linejoin="miter" stroke-miterlimit="2" stroke-opacity="1" stroke-width="0.295" transform="matrix(3.38983,0,0,3.38983,-855.932,-350.847)"><polyline fill="none" points="282,109 283,109" vector-effect="none"/></g><defs><clipPath id="clip33"><path d="M260,106 L305,106 L305,154 L260,154 L260,106 z"/></clipPath></defs><g clip-path="url(#clip33)" fill="none" opacity="1" stroke="#000000" stroke-linecap="butt" stroke-linejoin="miter" stroke-miterlimit="2" stroke-opacity="1" stroke-width="0.295" transform="matrix(3.38983,0,0,3.38983,-855.932,-350.847)"><polyline fill="none" points="283,109 284,109" vector-effect="none"/></g><defs><clipPath id="clip34"><path d="M260,106 L305,106 L305,154 L260,154 L260,106 z"/></clipPath></defs><g clip-path="url(#clip34)" fill="none" opacity="1" stroke="#000000" stroke-linecap="butt" stroke-linejoin="miter" stroke-miterlimit="2" stroke-opacity="1" stroke-width="0.295" transform="matrix(3.38983,0,0,3.38983,-855.932,-350.847)"><polyline fill="none" points="284,109 285,109" vector-effect="none"/></g><defs><clipPath id="clip35"><path d="M260,106 L305,106 L305,154 L260,154 L260,106 z"/></clipPath></defs><g clip-path="url(#clip35)" fill="none" opacity="1" stroke="#000000" stroke-linecap="butt" stroke-linejoin="miter" stroke-miterlimit="2" stroke-opacity="1" stroke-width="0.295" transform="matrix(3.38983,0,0,3.38983,-855.932,-350.847)"><polyline fill="none" points="285,109 286,109" vector-effect="none"/></g><defs><clipPath id="clip36"><path d="M260,106 L305,106 L305,154 L260,154 L260,106 z"/></clipPath></defs><g clip-path="url(#clip36)" fill="none" opacity="1" stroke="#000000" stroke-linecap="butt" stroke-linejoin="miter" stroke-miterlimit="2" stroke-opacity="1" stroke-width="0.295" transform="matrix(3.38983,0,0,3.38983,-855.932,-350.847)"><polyline fill="none" points="286,109 287,109" vector-effect="none"/></g><defs><clipPath id="clip37"><path d="M260,106 L305,106 L305,154 L260,154 L260,106 z"/></clipPath></defs><g clip-path="url(#clip37)" fill="none" opacity="1" stroke="#000000" stroke-linecap="butt" stroke-linejoin="miter" stroke-miterlimit="2" stroke-opacity="1" stroke-width="0.295" transform="matrix(3.38983,0,0,3.38983,-855.932,-350.847)"><polyline fill="none" points="287,109 288,110" vector-effect="none"/></g><defs><clipPath id="clip38"><path d="M260,106 L305,106 L305,154 L260,154 L260,106 z"/></clipPath></defs><g clip-path="url(#clip38)" fill="none" opacity="1" stroke="#000000" stroke-linecap="butt" stroke-linejoin="miter" stroke-miterlimit="2" stroke-opacity="1" stroke-width="0.295" transform="matrix(3.38983,0,0,3.38983,-855.932,-350.847)"><polyline fill="none" points="288,110 289,111" vector-effect="none"/></g><defs><clipPath id="clip39"><path d="M260,106 L305,106 L305,154 L260,154 L260,106 z"/></clipPath></defs><g clip-path="url(#clip39)" fill="none" opacity="1" stroke="#000000" stroke-linecap="butt" stroke-linejoin="miter" stroke-miterlimit="2" stroke-opacity="1" stroke-width="0.295" transform="matrix(3.38983,0,0,3.38983,-855.932,-350.847)"><polyline fill="none" points="289,111 290,115" vector-effect="none"/></g><defs><clipPath id="clip40"><path d="M260,106 L305,106 L305,154 L260,154 L260,106 z"/></clipPath></defs><g clip-path="url(#clip40)" fill="none" opacity="1" stroke="#000000" stroke-linecap="butt" stroke-linejoin="miter" stroke-miterlimit="2" stroke-opacity="1" stroke-width="0.295" transform="matrix(3.38983,0,0,3.38983,-855.932,-350.847)"><polyline fill="none" points="290,115 291,122" vector-effect="none"/></g><defs><clipPath id="clip41"><path d="M260,106 L305,106 L305,154 L260,154 L260,106 z"/></clipPath></defs><g clip-path="url(#clip41)" fill="none" opacity="1" stroke="#000000" stroke-linecap="butt" stroke-linejoin="miter" stroke-miterlimit="2" stroke-opacity="1" stroke-width="0.295" transform="matrix(3.38983,0,0,3.38983,-855.932,-350.847)"><polyline fill="none" points="291,122 292,130" vector-effect="none"/></g><defs><clipPath id="clip42"><path d="M260,106 L305,106 L305,154 L260,154 L260,106 z"/></clipPath></defs><g clip-path="url(#clip42)" fill="none" opacity="1" stroke="#000000" stroke-linecap="butt" stroke-linejoin="miter" stroke-miterlimit="2" stroke-opacity="1" stroke-width="0.295" transform="matrix(3.38983,0,0,3.38983,-855.932,-350.847)"><polyline fill="none" points="292,130 293,138" vector-effect="none"/></g><defs><clipPath id="clip43"><path d="M260,106 L305,106 L305,154 L260,154 L260,106 z"/></clipPath></defs><g clip-path="url(#clip43)" fill="none" opacity="1" stroke="#000000" stroke-linecap="butt" stroke-linejoin="miter" stroke-miterlimit="2" stroke-opacity="1" stroke-width="0.295" transform="matrix(3.38983,0,0,3.38983,-855.932,-350.847)"><polyline fill="none" points="293,138 294,143" vector-effect="none"/></g><defs><clipPath id="clip44"><path d="M260,106 L305,106 L305,154 L260,154 L260,106 z"/></clipPath></defs><g clip-path="url(#clip44)" fill="none" opacity="1" stroke="#000000" stroke-linecap="butt" stroke-linejoin="miter" stroke-miterlimit="2" stroke-opacity="1" stroke-width="0.295" transform="matrix(3.38983,0,0,3.38983,-855.932,-350.847)"><polyline fill="none" points="294,143 295,147" vector-effect="none"/></g><defs><clipPath id="clip45"><path d="M260,106 L305,106 L305,154 L260,154 L260,106 z"/></clipPath></defs><g clip-path="url(#clip45)" fill="none" opacity="1" stroke="#000000" stroke-linecap="butt" stroke-linejoin="miter" stroke-miterlimit="2" stroke-opacity="1" stroke-width="0.295" transform="matrix(3.38983,0,0,3.38983,-855.932,-350.847)"><polyline fill="none" points="295,147 296,148" vector-effect="none"/></g><defs><clipPath id="clip46"><path d="M260,106 L305,106 L305,154 L260,154 L260,106 z"/></clipPath></defs><g clip-path="url(#clip46)" fill="none" opacity="1" stroke="#000000" stroke-linecap="butt" stroke-linejoin="miter" stroke-miterlimit="2" stroke-opacity="1" stroke-width="0.295" transform="matrix(3.38983,0,0,3.38983,-855.932,-350.847)"><polyline fill="none" points="296,148 297,150" vector-effect="none"/></g><defs><clipPath id="clip47"><path d="M260,106 L305,106 L305,154 L260,154 L260,106 z"/></clipPath></defs><g clip-path="url(#clip47)" fill="none" opacity="1" stroke="#000000" stroke-linecap="butt" stroke-linejoin="miter" stroke-miterlimit="2" stroke-opacity="1" stroke-width="0.295" transform="matrix(3.38983,0,0,3.38983,-855.932,-350.847)"><polyline fill="none" points="297,150 298,150" vector-effect="none"/></g><defs><clipPath id="clip48"><path d="M260,106 L305,106 L305,154 L260,154 L260,106 z"/></clipPath></defs><g clip-path="url(#clip48)" fill="none" opacity="1" stroke="#000000" stroke-linecap="butt" stroke-linejoin="miter" stroke-miterlimit="2" stroke-opacity="1" stroke-width="0.295" transform="matrix(3.38983,0,0,3.38983,-855.932,-350.847)"><polyline fill="none" points="298,150 299,151" vector-effect="none"/></g><defs><clipPath id="clip49"><path d="M260,106 L305,106 L305,154 L260,154 L260,106 z"/></clipPath></defs><g clip-path="url(#clip49)" fill="none" opacity="1" stroke="#000000" stroke-linecap="butt" stroke-linejoin="miter" stroke-miterlimit="2" stroke-opacity="1" stroke-width="0.295" transform="matrix(3.38983,0,0,3.38983,-855.932,-350.847)"><polyline fill="none" points="299,151 300,151" vector-effect="none"/></g><defs><clipPath id="clip50"><path d="M260,106 L305,106 L305,154 L260,154 L260,106 z"/></clipPath></defs><g clip-path="url(#clip50)" fill="none" opacity="1" stroke="#000000" stroke-linecap="butt" stroke-linejoin="miter" stroke-miterlimit="2" stroke-opacity="1" stroke-width="0.295" transform="matrix(3.38983,0,0,3.38983,-855.932,-350.847)"><polyline fill="none" points="300,151 301,151" vector-effect="none"/></g><defs><clipPath id="clip51"><path d="M260,106 L305,106 L305,154 L260,154 L260,106 z"/></clipPath></defs><g clip-path="url(#clip51)" fill="none" opacity="1" stroke="#000000" stroke-linecap="butt" stroke-linejoin="miter" stroke-miterlimit="2" stroke-opacity="1" stroke-width="0.295" transform="matrix(3.38983,0,0,3.38983,-855.932,-350.847)"><polyline fill="none" points="301,151 302,151" vector-effect="none"/></g><defs><clipPath id="clip56"><path d="M-7,-2 L52,-2 L52,50 L-7,50 L-7,-2 z"/></clipPath></defs><g clip-path="url(#clip56)" fill="none" opacity="1" stroke="#000000" stroke-linecap="butt" stroke-linejoin="miter" stroke-miterlimit="2" stroke-opacity="1" stroke-width="0.613661" transform="matrix(3.38983,0,0,3.38983,23.7288,6.77966)"><path d="M0,0 L45,0 L45,48 L0,48 L0,0 z" fill-rule="evenodd" vector-effect="none"/></g></g></svg>
