<?xml version="1.0" encoding="UTF-8"?><svg width="52.9167mm" height="48.4187mm" viewBox="0 0 200 183" xmlns="http://www.w3.org/2000/svg" xmlns:xlink="http://www.w3.org/1999/xlink"><g fill="none" stroke="black" stroke-width="1" fill-rule="evenodd" stroke-linecap="square" stroke-linejoin="bevel"><g clip-path="none" fill="none" opacity="1" stroke="none" stroke-opacity="0" transform="matrix(1,0,0,1,0,0)"><path d="M0,0 L200,0 L200,183 L0,183 L0,0 z" fill-rule="evenodd" vector-effect="none"/></g><defs><clipPath id="clip3"><path d="M-52,-27 L7,-27 L7,27 L-52,27 L-52,-27 z"/></clipPath></defs><g clip-path="url(#clip3)" fill="none" opacity="1" stroke="#000000" stroke-linecap="round" stroke-linejoin="miter" stroke-miterlimit="2" stroke-opacity="1" stroke-width="2" transform="matrix(3.38983,0,0,3.38983,176.271,91.5254)"><path d="M0,-5 L5,0 L0,5" fill-rule="evenodd" vector-effect="none"/></g><defs><clipPath id="clip6"><path d="M7,27 L-52,27 L-52,-27 L7,-27 L7,27 z"/></clipPath></defs><g clip-path="url(#clip6)" fill="none" opacity="1" stroke="#000000" stroke-linecap="round" stroke-linejoin="miter" stroke-miterlimit="2" stroke-opacity="1" stroke-width="2" transform="matrix(-3.38983,0,0,-3.38983,23.7288,91.5254)"><path d="M5,-5 L0,0 L5,5" fill-rule="evenodd" vector-effect="none"/></g><defs><clipPath id="clip9"><path d="M-7,-2 L52,-2 L52,52 L-7,52 L-7,-2 z"/></clipPath></defs><g clip-path="url(#clip9)" fill="#ffffff" fill-opacity="1" opacity="1" stroke="none" stroke-opacity="0" transform="matrix(3.38983,0,0,3.38983,23.7288,6.77966)"><path d="M0,0 L45,0 L45,50 L0,50 L0,0 z" fill-rule="evenodd" vector-effect="none"/></g><defs><clipPath id="clip13"><path d="M50,190 L95,190 L95,240 L50,240 L50,190 z"/></clipPath></defs><g clip-path="url(#clip13)" fill="none" opacity="1" stroke="#000000" stroke-linecap="butt" stroke-linejoin="miter" stroke-miterlimit="2" stroke-opacity="1" stroke-width="0.295" transform="matrix(3.38983,0,0,3.38983,-144.068,-635.593)"><polyline fill="none" points="53,237 54,237" vector-effect="none"/></g><defs><clipPath id="clip14"><path d="M50,190 L95,190 L95,240 L50,240 L50,190 z"/></clipPath></defs><g clip-path="url(#clip14)" fill="none" opacity="1" stroke="#000000" stroke-linecap="butt" stroke-linejoin="miter" stroke-miterlimit="2" stroke-opacity="1" stroke-width="0.295" transform="matrix(3.38983,0,0,3.38983,-144.068,-635.593)"><polyline fill="none" points="54,237 55,237" vector-effect="none"/></g><defs><clipPath id="clip15"><path d="M50,190 L95,190 L95,240 L50,240 L50,190 z"/></clipPath></defs><g clip-path="url(#clip15)" fill="none" opacity="1" stroke="#000000" stroke-linecap="butt" stroke-linejoin="miter" stroke-miterlimit="2" stroke-opacity="1" stroke-width="0.295" transform="matrix(3.38983,0,0,3.38983,-144.068,-635.593)"><polyline fill="none" points="55,237 56,237" vector-effect="none"/></g><defs><clipPath id="clip16"><path d="M50,190 L95,190 L95,240 L50,240 L50,190 z"/></clipPath></defs><g clip-path="url(#clip16)" fill="none" opacity="1" stroke="#000000" stroke-linecap="butt" stroke-linejoin="miter" stroke-miterlimit="2" stroke-opacity="1" stroke-width="0.295" transform="matrix(3.38983,0,0,3.38983,-144.068,-635.593)"><polyline fill="none" points="56,237 57,237" vector-effect="none"/></g><defs><clipPath id="clip17"><path d="M50,190 L95,190 L95,240 L50,240 L50,190 z"/></clipPath></defs><g clip-path="url(#clip17)" fill="none" opacity="1" stroke="#000000" stroke-linecap="butt" stroke-linejoin="miter" stroke-miterlimit="2" stroke-opacity="1" stroke-width="0.295" transform="matrix(3.38983,0,0,3.38983,-144.068,-635.593)"><polyline fill="none" points="57,237 58,237" vector-effect="none"/></g><defs><clipPath id="clip18"><path d="M50,190 L95,190 L95,240 L50,240 L50,190 z"/></clipPath></defs><g clip-path="url(#clip18)" fill="none" opacity="1" stroke="#000000" stroke-linecap="butt" stroke-linejoin="miter" stroke-miterlimit="2" stroke-opacity="1" stroke-width="0.295" transform="matrix(3.38983,0,0,3.38983,-144.068,-635.593)"><polyline fill="none" points="58,237 59,237" vector-effect="none"/></g><defs><clipPath id="clip19"><path d="M50,190 L95,190 L95,240 L50,240 L50,190 z"/></clipPath></defs><g clip-path="url(#clip19)" fill="none" opacity="1" stroke="#000000" stroke-linecap="butt" stroke-linejoin="miter" stroke-miterlimit="2" stroke-opacity="1" stroke-width="0.295" transform="matrix(3.38983,0,0,3.38983,-144.068,-635.593)"><polyline fill="none" points="59,237 60,237" vector-effect="none"/></g><defs><clipPath id="clip20"><path d="M50,190 L95,190 L95,240 L50,240 L50,190 z"/></clipPath></defs><g clip-path="url(#clip20)" fill="none" opacity="1" stroke="#000000" stroke-linecap="butt" stroke-linejoin="miter" stroke-miterlimit="2" stroke-opacity="1" stroke-width="0.295" transform="matrix(3.38983,0,0,3.38983,-144.068,-635.593)"><polyline fill="none" points="60,237 61,235" vector-effect="none"/></g><defs><clipPath id="clip21"><path d="M50,190 L95,190 L95,240 L50,240 L50,190 z"/></clipPath></defs><g clip-path="url(#clip21)" fill="none" opacity="1" stroke="#000000" stroke-linecap="butt" stroke-linejoin="miter" stroke-miterlimit="2" stroke-opacity="1" stroke-width="0.295" transform="matrix(3.38983,0,0,3.38983,-144.068,-635.593)"><polyline fill="none" points="61,235 62,229" vector-effect="none"/></g><defs><clipPath id="clip22"><path d="M50,190 L95,190 L95,240 L50,240 L50,190 z"/></clipPath></defs><g clip-path="url(#clip22)" fill="none" opacity="1" stroke="#000000" stroke-linecap="butt" stroke-linejoin="miter" stroke-miterlimit="2" stroke-opacity="1" stroke-width="0.295" transform="matrix(3.38983,0,0,3.38983,-144.068,-635.593)"><polyline fill="none" points="62,229 63,215" vector-effect="none"/></g><defs><clipPath id="clip23"><path d="M50,190 L95,190 L95,240 L50,240 L50,190 z"/></clipPath></defs><g clip-path="url(#clip23)" fill="none" opacity="1" stroke="#000000" stroke-linecap="butt" stroke-linejoin="miter" stroke-miterlimit="2" stroke-opacity="1" stroke-width="0.295" transform="matrix(3.38983,0,0,3.38983,-144.068,-635.593)"><polyline fill="none" points="63,215 64,201" vector-effect="none"/></g><defs><clipPath id="clip24"><path d="M50,190 L95,190 L95,240 L50,240 L50,190 z"/></clipPath></defs><g clip-path="url(#clip24)" fill="none" opacity="1" stroke="#000000" stroke-linecap="butt" stroke-linejoin="miter" stroke-miterlimit="2" stroke-opacity="1" stroke-width="0.295" transform="matrix(3.38983,0,0,3.38983,-144.068,-635.593)"><polyline fill="none" points="64,201 65,195" vector-effect="none"/></g><defs><clipPath id="clip25"><path d="M50,190 L95,190 L95,240 L50,240 L50,190 z"/></clipPath></defs><g clip-path="url(#clip25)" fill="none" opacity="1" stroke="#000000" stroke-linecap="butt" stroke-linejoin="miter" stroke-miterlimit="2" stroke-opacity="1" stroke-width="0.295" transform="matrix(3.38983,0,0,3.38983,-144.068,-635.593)"><polyline fill="none" points="65,195 66,193" vector-effect="none"/></g><defs><clipPath id="clip26"><path d="M50,190 L95,190 L95,240 L50,240 L50,190 z"/></clipPath></defs><g clip-path="url(#clip26)" fill="none" opacity="1" stroke="#000000" stroke-linecap="butt" stroke-linejoin="miter" stroke-miterlimit="2" stroke-opacity="1" stroke-width="0.295" transform="matrix(3.38983,0,0,3.38983,-144.068,-635.593)"><polyline fill="none" points="66,193 67,193" vector-effect="none"/></g><defs><clipPath id="clip27"><path d="M50,190 L95,190 L95,240 L50,240 L50,190 z"/></clipPath></defs><g clip-path="url(#clip27)" fill="none" opacity="1" stroke="#000000" stroke-linecap="butt" stroke-linejoin="miter" stroke-miterlimit="2" stroke-opacity="1" stroke-width="0.295" transform="matrix(3.38983,0,0,3.38983,-144.068,-635.593)"><polyline fill="none" points="67,193 68,193" vector-effect="none"/></g><defs><clipPath id="clip28"><path d="M50,190 L95,190 L95,240 L50,240 L50,190 z"/></clipPath></defs><g clip-path="url(#clip28)" fill="none" opacity="1" stroke="#000000" stroke-linecap="butt" stroke-linejoin="miter" stroke-miterlimit="2" stroke-opacity="1" stroke-width="0.295" transform="matrix(3.38983,0,0,3.38983,-144.068,-635.593)"><polyline fill="none" points="68,193 69,193" vector-effect="none"/></g><defs><clipPath id="clip29"><path d="M50,190 L95,190 L95,240 L50,240 L50,190 z"/></clipPath></defs><g clip-path="url(#clip29)" fill="none" opacity="1" stroke="#000000" stroke-linecap="butt" stroke-linejoin="miter" stroke-miterlimit="2" stroke-opacity="1" stroke-width="0.295" transform="matrix(3.38983,0,0,3.38983,-144.068,-635.593)"><polyline fill="none" points="69,193 70,193" vector-effect="none"/></g><defs><clipPath id="clip30"><path d="M50,190 L95,190 L95,240 L50,240 L50,190 z"/></clipPath></defs><g clip-path="url(#clip30)" fill="none" opacity="1" stroke="#000000" stroke-linecap="butt" stroke-linejoin="miter" stroke-miterlimit="2" stroke-opacity="1" stroke-width="0.295" transform="matrix(3.38983,0,0,3.38983,-144.068,-635.593)"><polyline fill="none" points="70,193 71,193" vector-effect="none"/></g><defs><clipPath id="clip31"><path d="M50,190 L95,190 L95,240 L50,240 L50,190 z"/></clipPath></defs><g clip-path="url(#clip31)" fill="none" opacity="1" stroke="#000000" stroke-linecap="butt" stroke-linejoin="miter" stroke-miterlimit="2" stroke-opacity="1" stroke-width="0.295" transform="matrix(3.38983,0,0,3.38983,-144.068,-635.593)"><polyline fill="none" points="71,193 72,193" vector-effect="none"/></g><defs><clipPath id="clip32"><path d="M50,190 L95,190 L95,240 L50,240 L50,190 z"/></clipPath></defs><g clip-path="url(#clip32)" fill="none" opacity="1" stroke="#000000" stroke-linecap="butt" stroke-linejoin="miter" stroke-miterlimit="2" stroke-opacity="1" stroke-width="0.295" transform="matrix(3.38983,0,0,3.38983,-144.068,-635.593)"><polyline fill="none" points="72,193 73,193" vector-effect="none"/></g><defs><clipPath id="clip33"><path d="M50,190 L95,190 L95,240 L50,240 L50,190 z"/></clipPath></defs><g clip-path="url(#clip33)" fill="none" opacity="1" stroke="#000000" stroke-linecap="butt" stroke-linejoin="miter" stroke-miterlimit="2" stroke-opacity="1" stroke-width="0.295" transform="matrix(3.38983,0,0,3.38983,-144.068,-635.593)"><polyline fill="none" points="73,193 74,194" vector-effect="none"/></g><defs><clipPath id="clip34"><path d="M50,190 L95,190 L95,240 L50,240 L50,190 z"/></clipPath></defs><g clip-path="url(#clip34)" fill="none" opacity="1" stroke="#000000" stroke-linecap="butt" stroke-linejoin="miter" stroke-miterlimit="2" stroke-opacity="1" stroke-width="0.295" transform="matrix(3.38983,0,0,3.38983,-144.068,-635.593)"><polyline fill="none" points="74,194 75,194" vector-effect="none"/></g><defs><clipPath id="clip35"><path d="M50,190 L95,190 L95,240 L50,240 L50,190 z"/></clipPath></defs><g clip-path="url(#clip35)" fill="none" opacity="1" stroke="#000000" stroke-linecap="butt" stroke-linejoin="miter" stroke-miterlimit="2" stroke-opacity="1" stroke-width="0.295" transform="matrix(3.38983,0,0,3.38983,-144.068,-635.593)"><polyline fill="none" points="75,194 76,195" vector-effect="none"/></g><defs><clipPath id="clip36"><path d="M50,190 L95,190 L95,240 L50,240 L50,190 z"/></clipPath></defs><g clip-path="url(#clip36)" fill="none" opacity="1" stroke="#000000" stroke-linecap="butt" stroke-linejoin="miter" stroke-miterlimit="2" stroke-opacity="1" stroke-width="0.295" transform="matrix(3.38983,0,0,3.38983,-144.068,-635.593)"><polyline fill="none" points="76,195 77,196" vector-effect="none"/></g><defs><clipPath id="clip37"><path d="M50,190 L95,190 L95,240 L50,240 L50,190 z"/></clipPath></defs><g clip-path="url(#clip37)" fill="none" opacity="1" stroke="#000000" stroke-linecap="butt" stroke-linejoin="miter" stroke-miterlimit="2" stroke-opacity="1" stroke-width="0.295" transform="matrix(3.38983,0,0,3.38983,-144.068,-635.593)"><polyline fill="none" points="77,196 78,198" vector-effect="none"/></g><defs><clipPath id="clip38"><path d="M50,190 L95,190 L95,240 L50,240 L50,190 z"/></clipPath></defs><g clip-path="url(#clip38)" fill="none" opacity="1" stroke="#000000" stroke-linecap="butt" stroke-linejoin="miter" stroke-miterlimit="2" stroke-opacity="1" stroke-width="0.295" transform="matrix(3.38983,0,0,3.38983,-144.068,-635.593)"><polyline fill="none" points="78,198 79,201" vector-effect="none"/></g><defs><clipPath id="clip39"><path d="M50,190 L95,190 L95,240 L50,240 L50,190 z"/></clipPath></defs><g clip-path="url(#clip39)" fill="none" opacity="1" stroke="#000000" stroke-linecap="butt" stroke-linejoin="miter" stroke-miterlimit="2" stroke-opacity="1" stroke-width="0.295" transform="matrix(3.38983,0,0,3.38983,-144.068,-635.593)"><polyline fill="none" points="79,201 80,205" vector-effect="none"/></g><defs><clipPath id="clip40"><path d="M50,190 L95,190 L95,240 L50,240 L50,190 z"/></clipPath></defs><g clip-path="url(#clip40)" fill="none" opacity="1" stroke="#000000" stroke-linecap="butt" stroke-linejoin="miter" stroke-miterlimit="2" stroke-opacity="1" stroke-width="0.295" transform="matrix(3.38983,0,0,3.38983,-144.068,-635.593)"><polyline fill="none" points="80,205 81,210" vector-effect="none"/></g><defs><clipPath id="clip41"><path d="M50,190 L95,190 L95,240 L50,240 L50,190 z"/></clipPath></defs><g clip-path="url(#clip41)" fill="none" opacity="1" stroke="#000000" stroke-linecap="butt" stroke-linejoin="miter" stroke-miterlimit="2" stroke-opacity="1" stroke-width="0.295" transform="matrix(3.38983,0,0,3.38983,-144.068,-635.593)"><polyline fill="none" points="81,210 82,215" vector-effect="none"/></g><defs><clipPath id="clip42"><path d="M50,190 L95,190 L95,240 L50,240 L50,190 z"/></clipPath></defs><g clip-path="url(#clip42)" fill="none" opacity="1" stroke="#000000" stroke-linecap="butt" stroke-linejoin="miter" stroke-miterlimit="2" stroke-opacity="1" stroke-width="0.295" transform="matrix(3.38983,0,0,3.38983,-144.068,-635.593)"><polyline fill="none" points="82,215 83,220" vector-effect="none"/></g><defs><clipPath id="clip43"><path d="M50,190 L95,190 L95,240 L50,240 L50,190 z"/></clipPath></defs><g clip-path="url(#clip43)" fill="none" opacity="1" stroke="#000000" stroke-linecap="butt" stroke-linejoin="miter" stroke-miterlimit="2" stroke-opacity="1" stroke-width="0.295" transform="matrix(3.38983,0,0,3.38983,-144.068,-635.593)"><polyline fill="none" points="83,220 84,225" vector-effect="none"/></g><defs><clipPath id="clip44"><path d="M50,190 L95,190 L95,240 L50,240 L50,190 z"/></clipPath></defs><g clip-path="url(#clip44)" fill="none" opacity="1" stroke="#000000" stroke-linecap="butt" stroke-linejoin="miter" stroke-miterlimit="2" stroke-opacity="1" stroke-width="0.295" transform="matrix(3.38983,0,0,3.38983,-144.068,-635.593)"><polyline fill="none" points="84,225 85,229" vector-effect="none"/></g><defs><clipPath id="clip45"><path d="M50,190 L95,190 L95,240 L50,240 L50,190 z"/></clipPath></defs><g clip-path="url(#clip45)" fill="none" opacity="1" stroke="#000000" stroke-linecap="butt" stroke-linejoin="miter" stroke-miterlimit="2" stroke-opacity="1" stroke-width="0.295" transform="matrix(3.38983,0,0,3.38983,-144.068,-635.593)"><polyline fill="none" points="85,229 86,232" vector-effect="none"/></g><defs><clipPath id="clip46"><path d="M50,190 L95,190 L95,240 L50,240 L50,190 z"/></clipPath></defs><g clip-path="url(#clip46)" fill="none" opacity="1" stroke="#000000" stroke-linecap="butt" stroke-linejoin="miter" stroke-miterlimit="2" stroke-opacity="1" stroke-width="0.295" transform="matrix(3.38983,0,0,3.38983,-144.068,-635.593)"><polyline fill="none" points="86,232 87,234" vector-effect="none"/></g><defs><clipPath id="clip47"><path d="M50,190 L95,190 L95,240 L50,240 L50,190 z"/></clipPath></defs><g clip-path="url(#clip47)" fill="none" opacity="1" stroke="#000000" stroke-linecap="butt" stroke-linejoin="miter" stroke-miterlimit="2" stroke-opacity="1" stroke-width="0.295" transform="matrix(3.38983,0,0,3.38983,-144.068,-635.593)"><polyline fill="none" points="87,234 88,235" vector-effect="none"/></g><defs><clipPath id="clip48"><path d="M50,190 L95,190 L95,240 L50,240 L50,190 z"/></clipPath></defs><g clip-path="url(#clip48)" fill="none" opacity="1" stroke="#000000" stroke-linecap="butt" stroke-linejoin="miter" stroke-miterlimit="2" stroke-opacity="1" stroke-width="0.295" transform="matrix(3.38983,0,0,3.38983,-144.068,-635.593)"><polyline fill="none" points="88,235 89,236" vector-effect="none"/></g><defs><clipPath id="clip49"><path d="M50,190 L95,190 L95,240 L50,240 L50,190 z"/></clipPath></defs><g clip-path="url(#clip49)" fill="none" opacity="1" stroke="#000000" stroke-linecap="butt" stroke-linejoin="miter" stroke-miterlimit="2" stroke-opacity="1" stroke-width="0.295" transform="matrix(3.38983,0,0,3.38983,-144.068,-635.593)"><polyline fill="none" points="89,236 90,236" vector-effect="none"/></g><defs><clipPath id="clip50"><path d="M50,190 L95,190 L95,240 L50,240 L50,190 z"/></clipPath></defs><g clip-path="url(#clip50)" fill="none" opacity="1" stroke="#000000" stroke-linecap="butt" stroke-linejoin="miter" stroke-miterlimit="2" stroke-opacity="1" stroke-width="0.295" transform="matrix(3.38983,0,0,3.38983,-144.068,-635.593)"><polyline fill="none" points="90,236 91,237" vector-effect="none"/></g><defs><clipPath id="clip51"><path d="M50,190 L95,190 L95,240 L50,240 L50,190 z"/></clipPath></defs><g clip-path="url(#clip51)" fill="none" opacity="1" stroke="#000000" stroke-linecap="butt" stroke-linejoin="miter" stroke-miterlimit="2" stroke-opacity="1" stroke-width="0.295" transform="matrix(3.38983,0,0,3.38983,-144.068,-635.593)"><polyline fill="none" points="91,237 92,237" vector-effect="none"/></g><defs><clipPath id="clip56"><path d="M-7,-2 L52,-2 L52,52 L-7,52 L-7,-2 z"/></clipPath></defs><g clip-path="url(#clip56)" fill="none" opacity="1" stroke="#000000" stroke-linecap="butt" stroke-linejoin="miter" stroke-miterlimit="2" stroke-opacity="1" stroke-width="0.613661" transform="matrix(3.38983,0,0,3.38983,23.7288,6.77966)"><path d="M0,0 L45,0 L45,50 L0,50 L0,0 z" fill-rule="evenodd" vector-effect="none"/></g></g></svg>
