<?xml version="1.0" encoding="UTF-8"?><svg width="52.9167mm" height="41.0104mm" viewBox="0 0 200 155" xmlns="http://www.w3.org/2000/svg" xmlns:xlink="http://www.w3.org/1999/xlink"><g fill="none" stroke="black" stroke-width="1" fill-rule="evenodd" stroke-linecap="square" stroke-linejoin="bevel"><g clip-path="none" fill="none" opacity="1" stroke="none" stroke-opacity="0" transform="matrix(1,0,0,1,0,0)"><path d="M0,0 L200,0 L200,155 L0,155 L0,0 z" fill-rule="evenodd" vector-effect="none"/></g><defs><clipPath id="clip3"><path d="M7,19 L-42,19 L-42,-19 L7,-19 L7,19 z"/></clipPath></defs><g clip-path="url(#clip3)" fill="none" opacity="1" stroke="#000000" stroke-linecap="round" stroke-linejoin="miter" stroke-miterlimit="2" stroke-opacity="1" stroke-width="2" transform="matrix(-4.08163,0,0,-4.08163,28.5714,77.551)"><path d="M5,-5 L0,0 L5,5" fill-rule="evenodd" vector-effect="none"/></g><defs><clipPath id="clip6"><path d="M-42,-19 L7,-19 L7,19 L-42,19 L-42,-19 z"/></clipPath></defs><g clip-path="url(#clip6)" fill="none" opacity="1" stroke="#000000" stroke-linecap="round" stroke-linejoin="miter" stroke-miterlimit="2" stroke-opacity="1" stroke-width="2" transform="matrix(4.08163,0,0,4.08163,171.429,77.551)"><path d="M0,-5 L5,0 L0,5" fill-rule="evenodd" vector-effect="none"/></g><defs><clipPath id="clip9"><path d="M-7,-2 L42,-2 L42,36 L-7,36 L-7,-2 z"/></clipPath></defs><g clip-path="url(#clip9)" fill="#ffffff" fill-opacity="1" opacity="1" stroke="none" stroke-opacity="0" transform="matrix(4.08163,0,0,4.08163,28.5714,8.16327)"><path d="M0,0 L35,0 L35,34 L0,34 L0,0 z" fill-rule="evenodd" vector-effect="none"/></g><defs><clipPath id="clip14"><path d="M-9,-17 L26,-17 L26,17 L-9,17 L-9,-17 z"/></clipPath></defs><g clip-path="url(#clip14)" fill="none" opacity="1" stroke="#000000" stroke-linecap="butt" stroke-linejoin="miter" stroke-miterlimit="2" stroke-opacity="1" stroke-width="0.245" transform="matrix(4.08163,0,0,4.08163,65.3061,77.551)"><text fill="#000000" fill-opacity="1" font-family="Arial" font-size="10" font-style="normal" font-weight="400" stroke="none" textLength="6.09375" x="0" xml:space="preserve" y="3.5">Z</text></g><defs><clipPath id="clip17"><path d="M-15,-13 L20,-13 L20,21 L-15,21 L-15,-13 z"/></clipPath></defs><g clip-path="url(#clip17)" fill="none" opacity="1" stroke="#000000" stroke-linecap="butt" stroke-linejoin="miter" stroke-miterlimit="2" stroke-opacity="1" stroke-width="0.245" transform="matrix(4.08163,0,0,4.08163,89.7959,61.2245)"><text fill="#000000" fill-opacity="1" font-family="Arial" font-size="10" font-style="normal" font-weight="400" stroke="none" textLength="8.875" x="0" xml:space="preserve" y="3.5">-1</text></g><defs><clipPath id="clip23"><path d="M-7,-2 L42,-2 L42,36 L-7,36 L-7,-2 z"/></clipPath></defs><g clip-path="url(#clip23)" fill="none" opacity="1" stroke="#000000" stroke-linecap="butt" stroke-linejoin="miter" stroke-miterlimit="2" stroke-opacity="1" stroke-width="0.569727" transform="matrix(4.08163,0,0,4.08163,28.5714,8.16327)"><path d="M0,0 L35,0 L35,34 L0,34 L0,0 z" fill-rule="evenodd" vector-effect="none"/></g></g></svg>
