<?xml version="1.0" encoding="UTF-8"?><svg width="52.9167mm" height="36.2479mm" viewBox="0 0 200 137" xmlns="http://www.w3.org/2000/svg" xmlns:xlink="http://www.w3.org/1999/xlink"><g fill="none" stroke="black" stroke-width="1" fill-rule="evenodd" stroke-linecap="square" stroke-linejoin="bevel"><g clip-path="none" fill="none" opacity="1" stroke="none" stroke-opacity="0" transform="matrix(1,0,0,1,0,0)"><path d="M0,0 L200,0 L200,137 L0,137 L0,0 z" fill-rule="evenodd" vector-effect="none"/></g><defs><clipPath id="clip3"><path d="M-67,-28 L7,-28 L7,23 L-67,23 L-67,-28 z"/></clipPath></defs><g clip-path="url(#clip3)" fill="none" opacity="1" stroke="#000000" stroke-linecap="round" stroke-linejoin="miter" stroke-miterlimit="2" stroke-opacity="1" stroke-width="2" transform="matrix(2.7027,0,0,2.7027,181.081,75.6757)"><path d="M0,-5 L5,0 L0,5" fill-rule="evenodd" vector-effect="none"/></g><defs><clipPath id="clip6"><path d="M7,38 L-67,38 L-67,-13 L7,-13 L7,38 z"/></clipPath></defs><g clip-path="url(#clip6)" fill="none" opacity="1" stroke="#000000" stroke-linecap="round" stroke-linejoin="miter" stroke-miterlimit="2" stroke-opacity="1" stroke-width="2" transform="matrix(-2.7027,0,0,-2.7027,18.9189,102.703)"><path d="M5,-5 L0,0 L5,5" fill-rule="evenodd" vector-effect="none"/></g><defs><clipPath id="clip9"><path d="M7,13 L-67,13 L-67,-38 L7,-38 L7,13 z"/></clipPath></defs><g clip-path="url(#clip9)" fill="none" opacity="1" stroke="#000000" stroke-linecap="round" stroke-linejoin="miter" stroke-miterlimit="2" stroke-opacity="1" stroke-width="2" transform="matrix(-2.7027,0,0,-2.7027,18.9189,35.1351)"><path d="M5,-5 L0,0 L5,5" fill-rule="evenodd" vector-effect="none"/></g><defs><clipPath id="clip12"><path d="M-7,-2 L67,-2 L67,49 L-7,49 L-7,-2 z"/></clipPath></defs><g clip-path="url(#clip12)" fill="#ffffff" fill-opacity="1" opacity="1" stroke="none" stroke-opacity="0" transform="matrix(2.7027,0,0,2.7027,18.9189,5.40541)"><path d="M0,0 L60,0 L60,47 L0,47 L0,0 z" fill-rule="evenodd" vector-effect="none"/></g><defs><clipPath id="clip17"><path d="M-3,-11 L57,-11 L57,36 L-3,36 L-3,-11 z"/></clipPath></defs><g clip-path="url(#clip17)" fill="none" opacity="1" stroke="#000000" stroke-linecap="butt" stroke-linejoin="miter" stroke-miterlimit="2" stroke-opacity="1" stroke-width="0.37" transform="matrix(2.7027,0,0,2.7027,27.027,35.1351)"><text fill="#000000" fill-opacity="1" font-family="Arial" font-size="10" font-style="normal" font-weight="400" stroke="none" textLength="5.54688" x="0" xml:space="preserve" y="3.5">u</text></g><defs><clipPath id="clip20"><path d="M-22,-23 L38,-23 L38,24 L-22,24 L-22,-23 z"/></clipPath></defs><g clip-path="url(#clip20)" fill="none" opacity="1" stroke="#000000" stroke-linecap="butt" stroke-linejoin="miter" stroke-miterlimit="2" stroke-opacity="1" stroke-width="0.37" transform="matrix(2.7027,0,0,2.7027,78.3784,67.5676)"><text fill="#000000" fill-opacity="1" font-family="Arial" font-size="10" font-style="normal" font-weight="400" stroke="none" textLength="6.09375" x="0" xml:space="preserve" y="3.5">Z</text></g><defs><clipPath id="clip23"><path d="M-28,-19 L32,-19 L32,28 L-28,28 L-28,-19 z"/></clipPath></defs><g clip-path="url(#clip23)" fill="none" opacity="1" stroke="#000000" stroke-linecap="butt" stroke-linejoin="miter" stroke-miterlimit="2" stroke-opacity="1" stroke-width="0.37" transform="matrix(2.7027,0,0,2.7027,94.5946,56.7568)"><text fill="#000000" fill-opacity="1" font-family="Arial" font-size="10" font-style="normal" font-weight="400" stroke="none" textLength="8.875" x="0" xml:space="preserve" y="3.5">-1</text></g><defs><clipPath id="clip25"><path d="M165,139 L225,139 L225,186 L165,186 L165,139 z"/></clipPath></defs><g clip-path="url(#clip25)" fill="none" opacity="1" stroke="#000000" stroke-linecap="butt" stroke-linejoin="miter" stroke-miterlimit="2" stroke-opacity="1" stroke-width="0.37" transform="matrix(2.7027,0,0,2.7027,-425.676,-368.919)"><polyline fill="none" points="167,178 173,178" vector-effect="none"/></g><defs><clipPath id="clip26"><path d="M165,139 L225,139 L225,186 L165,186 L165,139 z"/></clipPath></defs><g clip-path="url(#clip26)" fill="none" opacity="1" stroke="#000000" stroke-linecap="butt" stroke-linejoin="miter" stroke-miterlimit="2" stroke-opacity="1" stroke-width="0.37" transform="matrix(2.7027,0,0,2.7027,-425.676,-368.919)"><polyline fill="none" points="168,178 168,172" vector-effect="none"/></g><defs><clipPath id="clip27"><path d="M165,139 L225,139 L225,186 L165,186 L165,139 z"/></clipPath></defs><g clip-path="url(#clip27)" fill="none" opacity="1" stroke="#000000" stroke-linecap="butt" stroke-linejoin="miter" stroke-miterlimit="2" stroke-opacity="1" stroke-width="0.37" transform="matrix(2.7027,0,0,2.7027,-425.676,-368.919)"><polyline fill="none" points="170,178 170,172" vector-effect="none"/></g><defs><clipPath id="clip28"><path d="M165,139 L225,139 L225,186 L165,186 L165,139 z"/></clipPath></defs><g clip-path="url(#clip28)" fill="none" opacity="1" stroke="#000000" stroke-linecap="butt" stroke-linejoin="miter" stroke-miterlimit="2" stroke-opacity="1" stroke-width="0.37" transform="matrix(2.7027,0,0,2.7027,-425.676,-368.919)"><polyline fill="none" points="172,178 172,172" vector-effect="none"/></g><defs><clipPath id="clip33"><path d="M-7,-2 L67,-2 L67,49 L-7,49 L-7,-2 z"/></clipPath></defs><g clip-path="url(#clip33)" fill="none" opacity="1" stroke="#000000" stroke-linecap="butt" stroke-linejoin="miter" stroke-miterlimit="2" stroke-opacity="1" stroke-width="0.671863" transform="matrix(2.7027,0,0,2.7027,18.9189,5.40541)"><path d="M0,0 L60,0 L60,47 L0,47 L0,0 z" fill-rule="evenodd" vector-effect="none"/></g></g></svg>
