<?xml version="1.0" encoding="UTF-8"?><svg width="47.0958mm" height="52.9167mm" viewBox="0 0 178 200" xmlns="http://www.w3.org/2000/svg" xmlns:xlink="http://www.w3.org/1999/xlink"><g fill="none" stroke="black" stroke-width="1" fill-rule="evenodd" stroke-linecap="square" stroke-linejoin="bevel"><g clip-path="none" fill="none" opacity="1" stroke="none" stroke-opacity="0" transform="matrix(1,0,0,1,0,0)"><path d="M0,0 L178,0 L178,200 L0,200 L0,0 z" fill-rule="evenodd" vector-effect="none"/></g><defs><clipPath id="clip3"><path d="M-102,-91 L7,-91 L7,31 L-102,31 L-102,-91 z"/></clipPath></defs><g clip-path="url(#clip3)" fill="none" opacity="1" stroke="#000000" stroke-linecap="round" stroke-linejoin="miter" stroke-miterlimit="2" stroke-opacity="1" stroke-width="2" transform="matrix(1.63934,0,0,1.63934,167.213,149.18)"><path d="M0,-5 L5,0 L0,5" fill-rule="evenodd" vector-effect="none"/></g><defs><clipPath id="clip6"><path d="M7,106 L-102,106 L-102,-16 L7,-16 L7,106 z"/></clipPath></defs><g clip-path="url(#clip6)" fill="none" opacity="1" stroke="#000000" stroke-linecap="round" stroke-linejoin="miter" stroke-miterlimit="2" stroke-opacity="1" stroke-width="2" transform="matrix(-1.63934,0,0,-1.63934,11.4754,173.77)"><path d="M5,-5 L0,0 L5,5" fill-rule="evenodd" vector-effect="none"/></g><defs><clipPath id="clip9"><path d="M7,76 L-102,76 L-102,-46 L7,-46 L7,76 z"/></clipPath></defs><g clip-path="url(#clip9)" fill="none" opacity="1" stroke="#000000" stroke-linecap="round" stroke-linejoin="miter" stroke-miterlimit="2" stroke-opacity="1" stroke-width="2" transform="matrix(-1.63934,0,0,-1.63934,11.4754,124.59)"><path d="M5,-5 L0,0 L5,5" fill-rule="evenodd" vector-effect="none"/></g><defs><clipPath id="clip12"><path d="M-102,-31 L7,-31 L7,91 L-102,91 L-102,-31 z"/></clipPath></defs><g clip-path="url(#clip12)" fill="none" opacity="1" stroke="#000000" stroke-linecap="round" stroke-linejoin="miter" stroke-miterlimit="2" stroke-opacity="1" stroke-width="2" transform="matrix(1.63934,0,0,1.63934,167.213,50.8197)"><path d="M0,-5 L5,0 L0,5" fill-rule="evenodd" vector-effect="none"/></g><defs><clipPath id="clip15"><path d="M7,46 L-102,46 L-102,-76 L7,-76 L7,46 z"/></clipPath></defs><g clip-path="url(#clip15)" fill="none" opacity="1" stroke="#000000" stroke-linecap="round" stroke-linejoin="miter" stroke-miterlimit="2" stroke-opacity="1" stroke-width="2" transform="matrix(-1.63934,0,0,-1.63934,11.4754,75.4098)"><path d="M5,-5 L0,0 L5,5" fill-rule="evenodd" vector-effect="none"/></g><defs><clipPath id="clip18"><path d="M7,16 L-102,16 L-102,-106 L7,-106 L7,16 z"/></clipPath></defs><g clip-path="url(#clip18)" fill="none" opacity="1" stroke="#000000" stroke-linecap="round" stroke-linejoin="miter" stroke-miterlimit="2" stroke-opacity="1" stroke-width="2" transform="matrix(-1.63934,0,0,-1.63934,11.4754,26.2295)"><path d="M5,-5 L0,0 L5,5" fill-rule="evenodd" vector-effect="none"/></g><defs><clipPath id="clip21"><path d="M-7,-2 L102,-2 L102,120 L-7,120 L-7,-2 z"/></clipPath></defs><g clip-path="url(#clip21)" fill="#ffffff" fill-opacity="1" opacity="1" stroke="none" stroke-opacity="0" transform="matrix(1.63934,0,0,1.63934,11.4754,3.27869)"><path d="M0,0 L95,0 L95,118 L0,118 L0,0 z" fill-rule="evenodd" vector-effect="none"/></g><defs><clipPath id="clip26"><path d="M-3,-14 L92,-14 L92,104 L-3,104 L-3,-14 z"/></clipPath></defs><g clip-path="url(#clip26)" fill="none" opacity="1" stroke="#000000" stroke-linecap="butt" stroke-linejoin="miter" stroke-miterlimit="2" stroke-opacity="1" stroke-width="0.61" transform="matrix(1.63934,0,0,1.63934,16.3934,26.2295)"><text fill="#000000" fill-opacity="1" font-family="Arial" font-size="9" font-style="normal" font-weight="400" stroke="none" textLength="26.4531" x="0" xml:space="preserve" y="3">wr_din</text></g><defs><clipPath id="clip29"><path d="M-3,-44 L92,-44 L92,74 L-3,74 L-3,-44 z"/></clipPath></defs><g clip-path="url(#clip29)" fill="none" opacity="1" stroke="#000000" stroke-linecap="butt" stroke-linejoin="miter" stroke-miterlimit="2" stroke-opacity="1" stroke-width="0.61" transform="matrix(1.63934,0,0,1.63934,16.3934,75.4098)"><text fill="#000000" fill-opacity="1" font-family="Arial" font-size="9" font-style="normal" font-weight="400" stroke="none" textLength="32.4531" x="0" xml:space="preserve" y="3">wr_addr</text></g><defs><clipPath id="clip32"><path d="M-3,-74 L92,-74 L92,44 L-3,44 L-3,-74 z"/></clipPath></defs><g clip-path="url(#clip32)" fill="none" opacity="1" stroke="#000000" stroke-linecap="butt" stroke-linejoin="miter" stroke-miterlimit="2" stroke-opacity="1" stroke-width="0.61" transform="matrix(1.63934,0,0,1.63934,16.3934,124.59)"><text fill="#000000" fill-opacity="1" font-family="Arial" font-size="9" font-style="normal" font-weight="400" stroke="none" textLength="24.4688" x="0" xml:space="preserve" y="3">wr_en</text></g><defs><clipPath id="clip35"><path d="M-3,-104 L92,-104 L92,14 L-3,14 L-3,-104 z"/></clipPath></defs><g clip-path="url(#clip35)" fill="none" opacity="1" stroke="#000000" stroke-linecap="butt" stroke-linejoin="miter" stroke-miterlimit="2" stroke-opacity="1" stroke-width="0.61" transform="matrix(1.63934,0,0,1.63934,16.3934,173.77)"><text fill="#000000" fill-opacity="1" font-family="Arial" font-size="9" font-style="normal" font-weight="400" stroke="none" textLength="30.9688" x="0" xml:space="preserve" y="3">rd_addr</text></g><defs><clipPath id="clip38"><path d="M-92,-29 L3,-29 L3,89 L-92,89 L-92,-29 z"/></clipPath></defs><g clip-path="url(#clip38)" fill="none" opacity="1" stroke="#000000" stroke-linecap="butt" stroke-linejoin="miter" stroke-miterlimit="2" stroke-opacity="1" stroke-width="0.61" transform="matrix(1.63934,0,0,1.63934,162.295,50.8197)"><text fill="#000000" fill-opacity="1" font-family="Arial" font-size="9" font-style="normal" font-weight="400" stroke="none" textLength="31.9688" x="-31.9688" xml:space="preserve" y="3">wr_dout</text></g><defs><clipPath id="clip41"><path d="M-92,-89 L3,-89 L3,29 L-92,29 L-92,-89 z"/></clipPath></defs><g clip-path="url(#clip41)" fill="none" opacity="1" stroke="#000000" stroke-linecap="butt" stroke-linejoin="miter" stroke-miterlimit="2" stroke-opacity="1" stroke-width="0.61" transform="matrix(1.63934,0,0,1.63934,162.295,149.18)"><text fill="#000000" fill-opacity="1" font-family="Arial" font-size="9" font-style="normal" font-weight="400" stroke="none" textLength="30.4844" x="-30.4844" xml:space="preserve" y="3">rd_dout</text></g><defs><clipPath id="clip47"><path d="M-7,-2 L102,-2 L102,120 L-7,120 L-7,-2 z"/></clipPath></defs><g clip-path="url(#clip47)" fill="none" opacity="1" stroke="#000000" stroke-linecap="butt" stroke-linejoin="miter" stroke-miterlimit="2" stroke-opacity="1" stroke-width="0.820601" transform="matrix(1.63934,0,0,1.63934,11.4754,3.27869)"><path d="M0,0 L95,0 L95,118 L0,118 L0,0 z" fill-rule="evenodd" vector-effect="none"/></g></g></svg>
