<?xml version="1.0" encoding="UTF-8"?><svg width="52.9167mm" height="37.8354mm" viewBox="0 0 200 143" xmlns="http://www.w3.org/2000/svg" xmlns:xlink="http://www.w3.org/1999/xlink"><g fill="none" stroke="black" stroke-width="1" fill-rule="evenodd" stroke-linecap="square" stroke-linejoin="bevel"><g clip-path="none" fill="none" opacity="1" stroke="none" stroke-opacity="0" transform="matrix(1,0,0,1,0,0)"><path d="M0,0 L200,0 L200,143 L0,143 L0,0 z" fill-rule="evenodd" vector-effect="none"/></g><defs><clipPath id="clip3"><path d="M-107,-41 L7,-41 L7,41 L-107,41 L-107,-41 z"/></clipPath></defs><g clip-path="url(#clip3)" fill="none" opacity="1" stroke="#000000" stroke-linecap="round" stroke-linejoin="miter" stroke-miterlimit="2" stroke-opacity="1" stroke-width="2" transform="matrix(1.75439,0,0,1.75439,187.719,71.9298)"><path d="M0,-5 L5,0 L0,5" fill-rule="evenodd" vector-effect="none"/></g><defs><clipPath id="clip6"><path d="M7,41 L-107,41 L-107,-41 L7,-41 L7,41 z"/></clipPath></defs><g clip-path="url(#clip6)" fill="none" opacity="1" stroke="#000000" stroke-linecap="round" stroke-linejoin="miter" stroke-miterlimit="2" stroke-opacity="1" stroke-width="2" transform="matrix(-1.75439,0,0,-1.75439,12.2807,71.9298)"><path d="M5,-5 L0,0 L5,5" fill-rule="evenodd" vector-effect="none"/></g><defs><clipPath id="clip9"><path d="M-7,-2 L107,-2 L107,80 L-7,80 L-7,-2 z"/></clipPath></defs><g clip-path="url(#clip9)" fill="#ffffff" fill-opacity="1" opacity="1" stroke="none" stroke-opacity="0" transform="matrix(1.75439,0,0,1.75439,12.2807,3.50877)"><path d="M0,0 L100,0 L100,78 L0,78 L0,0 z" fill-rule="evenodd" vector-effect="none"/></g><defs><clipPath id="clip14"><path d="M-3,-39 L97,-39 L97,39 L-3,39 L-3,-39 z"/></clipPath></defs><g clip-path="url(#clip14)" fill="none" opacity="1" stroke="#000000" stroke-linecap="butt" stroke-linejoin="miter" stroke-miterlimit="2" stroke-opacity="1" stroke-width="0.57" transform="matrix(1.75439,0,0,1.75439,17.5439,71.9298)"><text fill="#000000" fill-opacity="1" font-family="Arial" font-size="9" font-style="normal" font-weight="400" stroke="none" textLength="6" x="0" xml:space="preserve" y="3">S</text></g><defs><clipPath id="clip17"><path d="M-97,-39 L3,-39 L3,39 L-97,39 L-97,-39 z"/></clipPath></defs><g clip-path="url(#clip17)" fill="none" opacity="1" stroke="#000000" stroke-linecap="butt" stroke-linejoin="miter" stroke-miterlimit="2" stroke-opacity="1" stroke-width="0.57" transform="matrix(1.75439,0,0,1.75439,182.456,71.9298)"><text fill="#000000" fill-opacity="1" font-family="Arial" font-size="9" font-style="normal" font-weight="400" stroke="none" textLength="6" x="-6" xml:space="preserve" y="3">P</text></g><defs><clipPath id="clip23"><path d="M-7,-2 L107,-2 L107,80 L-7,80 L-7,-2 z"/></clipPath></defs><g clip-path="url(#clip23)" fill="none" opacity="1" stroke="#000000" stroke-linecap="butt" stroke-linejoin="miter" stroke-miterlimit="2" stroke-opacity="1" stroke-width="0.798638" transform="matrix(1.75439,0,0,1.75439,12.2807,3.50877)"><path d="M0,0 L100,0 L100,78 L0,78 L0,0 z" fill-rule="evenodd" vector-effect="none"/></g></g></svg>
