<?xml version="1.0" encoding="UTF-8"?><svg width="52.9167mm" height="24.6062mm" viewBox="0 0 200 93" xmlns="http://www.w3.org/2000/svg" xmlns:xlink="http://www.w3.org/1999/xlink"><g fill="none" stroke="black" stroke-width="1" fill-rule="evenodd" stroke-linecap="square" stroke-linejoin="bevel"><g clip-path="none" fill="none" opacity="1" stroke="none" stroke-opacity="0" transform="matrix(1,0,0,1,0,0)"><path d="M0,0 L200,0 L200,93 L0,93 L0,0 z" fill-rule="evenodd" vector-effect="none"/></g><defs><clipPath id="clip3"><path d="M-87,-22 L7,-22 L7,22 L-87,22 L-87,-22 z"/></clipPath></defs><g clip-path="url(#clip3)" fill="none" opacity="1" stroke="#000000" stroke-linecap="round" stroke-linejoin="miter" stroke-miterlimit="2" stroke-opacity="1" stroke-width="2" transform="matrix(2.12766,0,0,2.12766,185.106,46.8085)"><path d="M0,-5 L5,0 L0,5" fill-rule="evenodd" vector-effect="none"/></g><defs><clipPath id="clip6"><path d="M7,22 L-87,22 L-87,-22 L7,-22 L7,22 z"/></clipPath></defs><g clip-path="url(#clip6)" fill="none" opacity="1" stroke="#000000" stroke-linecap="round" stroke-linejoin="miter" stroke-miterlimit="2" stroke-opacity="1" stroke-width="2" transform="matrix(-2.12766,0,0,-2.12766,14.8936,46.8085)"><path d="M5,-5 L0,0 L5,5" fill-rule="evenodd" vector-effect="none"/></g><defs><clipPath id="clip9"><path d="M-7,-2 L87,-2 L87,42 L-7,42 L-7,-2 z"/></clipPath></defs><g clip-path="url(#clip9)" fill="#ffffff" fill-opacity="1" opacity="1" stroke="none" stroke-opacity="0" transform="matrix(2.12766,0,0,2.12766,14.8936,4.25532)"><path d="M0,0 L80,0 L80,40 L0,40 L0,0 z" fill-rule="evenodd" vector-effect="none"/></g><defs><clipPath id="clip14"><path d="M-40,-10 L40,-10 L40,30 L-40,30 L-40,-10 z"/></clipPath></defs><g clip-path="url(#clip14)" fill="none" opacity="1" stroke="#000000" stroke-linecap="butt" stroke-linejoin="miter" stroke-miterlimit="2" stroke-opacity="1" stroke-width="0.47" transform="matrix(2.12766,0,0,2.12766,100,25.5319)"><text fill="#000000" fill-opacity="1" font-family="Arial" font-size="10" font-style="normal" font-weight="400" stroke="none" textLength="63" x="-31.4688" xml:space="preserve" y="3.5">Qy = Qu &gt;&gt; 8</text></g><defs><clipPath id="clip17"><path d="M-40,-20 L40,-20 L40,20 L-40,20 L-40,-20 z"/></clipPath></defs><g clip-path="url(#clip17)" fill="none" opacity="1" stroke="#000000" stroke-linecap="butt" stroke-linejoin="miter" stroke-miterlimit="2" stroke-opacity="1" stroke-width="0.47" transform="matrix(2.12766,0,0,2.12766,100,46.8085)"><text fill="#000000" fill-opacity="1" font-family="Arial" font-size="10" font-style="normal" font-weight="400" stroke="none" textLength="67" x="-32.875" xml:space="preserve" y="3.5">Vy = Vu * 2^-8</text></g><defs><clipPath id="clip20"><path d="M-40,-30 L40,-30 L40,10 L-40,10 L-40,-30 z"/></clipPath></defs><g clip-path="url(#clip20)" fill="none" opacity="1" stroke="#000000" stroke-linecap="butt" stroke-linejoin="miter" stroke-miterlimit="2" stroke-opacity="1" stroke-width="0.47" transform="matrix(2.12766,0,0,2.12766,100,68.0851)"><text fill="#000000" fill-opacity="1" font-family="Arial" font-size="10" font-style="normal" font-weight="400" stroke="none" textLength="36" x="-18.9844" xml:space="preserve" y="3.5">Ey = Eu</text></g><defs><clipPath id="clip26"><path d="M-7,-2 L87,-2 L87,42 L-7,42 L-7,-2 z"/></clipPath></defs><g clip-path="url(#clip26)" fill="none" opacity="1" stroke="#000000" stroke-linecap="butt" stroke-linejoin="miter" stroke-miterlimit="2" stroke-opacity="1" stroke-width="0.739331" transform="matrix(2.12766,0,0,2.12766,14.8936,4.25532)"><path d="M0,0 L80,0 L80,40 L0,40 L0,0 z" fill-rule="evenodd" vector-effect="none"/></g></g></svg>
