<?xml version="1.0" encoding="UTF-8"?><svg width="52.9167mm" height="42.0688mm" viewBox="0 0 200 159" xmlns="http://www.w3.org/2000/svg" xmlns:xlink="http://www.w3.org/1999/xlink"><g fill="none" stroke="black" stroke-width="1" fill-rule="evenodd" stroke-linecap="square" stroke-linejoin="bevel"><g clip-path="none" fill="none" opacity="1" stroke="none" stroke-opacity="0" transform="matrix(1,0,0,1,0,0)"><path d="M0,0 L200,0 L200,159 L0,159 L0,0 z" fill-rule="evenodd" vector-effect="none"/></g><defs><clipPath id="clip3"><path d="M-37,-20 L7,-20 L7,15 L-37,15 L-37,-20 z"/></clipPath></defs><g clip-path="url(#clip3)" fill="none" opacity="1" stroke="#000000" stroke-linecap="round" stroke-linejoin="miter" stroke-miterlimit="2" stroke-opacity="1" stroke-width="2" transform="matrix(4.54545,0,0,4.54545,168.182,90.9091)"><path d="M0,-5 L5,0 L0,5" fill-rule="evenodd" vector-effect="none"/></g><defs><clipPath id="clip6"><path d="M7,25 L-37,25 L-37,-10 L7,-10 L7,25 z"/></clipPath></defs><g clip-path="url(#clip6)" fill="none" opacity="1" stroke="#000000" stroke-linecap="round" stroke-linejoin="miter" stroke-miterlimit="2" stroke-opacity="1" stroke-width="2" transform="matrix(-4.54545,0,0,-4.54545,31.8182,113.636)"><path d="M5,-5 L0,0 L5,5" fill-rule="evenodd" vector-effect="none"/></g><defs><clipPath id="clip9"><path d="M7,10 L-37,10 L-37,-25 L7,-25 L7,10 z"/></clipPath></defs><g clip-path="url(#clip9)" fill="none" opacity="1" stroke="#000000" stroke-linecap="round" stroke-linejoin="miter" stroke-miterlimit="2" stroke-opacity="1" stroke-width="2" transform="matrix(-4.54545,0,0,-4.54545,31.8182,45.4545)"><path d="M5,-5 L0,0 L5,5" fill-rule="evenodd" vector-effect="none"/></g><defs><clipPath id="clip12"><path d="M-7,-2 L37,-2 L37,33 L-7,33 L-7,-2 z"/></clipPath></defs><g clip-path="url(#clip12)" fill="#ffffff" fill-opacity="1" opacity="1" stroke="none" stroke-opacity="0" transform="matrix(4.54545,0,0,4.54545,31.8182,9.09091)"><path d="M0,0 L30,0 L30,31 L0,31 L0,0 z" fill-rule="evenodd" vector-effect="none"/></g><defs><clipPath id="clip16"><path d="M130,327 L160,327 L160,358 L130,358 L130,327 z"/></clipPath></defs><g clip-path="url(#clip16)" fill="none" opacity="1" stroke="#000000" stroke-linecap="butt" stroke-linejoin="miter" stroke-miterlimit="2" stroke-opacity="1" stroke-width="0.22" transform="matrix(4.54545,0,0,4.54545,-556.818,-1475)"><polyline fill="none" points="134,343 135,340" vector-effect="none"/></g><defs><clipPath id="clip17"><path d="M130,327 L160,327 L160,358 L130,358 L130,327 z"/></clipPath></defs><g clip-path="url(#clip17)" fill="none" opacity="1" stroke="#000000" stroke-linecap="butt" stroke-linejoin="miter" stroke-miterlimit="2" stroke-opacity="1" stroke-width="0.22" transform="matrix(4.54545,0,0,4.54545,-556.818,-1475)"><polyline fill="none" points="135,340 136,337" vector-effect="none"/></g><defs><clipPath id="clip18"><path d="M130,327 L160,327 L160,358 L130,358 L130,327 z"/></clipPath></defs><g clip-path="url(#clip18)" fill="none" opacity="1" stroke="#000000" stroke-linecap="butt" stroke-linejoin="miter" stroke-miterlimit="2" stroke-opacity="1" stroke-width="0.22" transform="matrix(4.54545,0,0,4.54545,-556.818,-1475)"><polyline fill="none" points="136,337 137,334" vector-effect="none"/></g><defs><clipPath id="clip19"><path d="M130,327 L160,327 L160,358 L130,358 L130,327 z"/></clipPath></defs><g clip-path="url(#clip19)" fill="none" opacity="1" stroke="#000000" stroke-linecap="butt" stroke-linejoin="miter" stroke-miterlimit="2" stroke-opacity="1" stroke-width="0.22" transform="matrix(4.54545,0,0,4.54545,-556.818,-1475)"><polyline fill="none" points="137,334 137,333" vector-effect="none"/></g><defs><clipPath id="clip20"><path d="M130,327 L160,327 L160,358 L130,358 L130,327 z"/></clipPath></defs><g clip-path="url(#clip20)" fill="none" opacity="1" stroke="#000000" stroke-linecap="butt" stroke-linejoin="miter" stroke-miterlimit="2" stroke-opacity="1" stroke-width="0.22" transform="matrix(4.54545,0,0,4.54545,-556.818,-1475)"><polyline fill="none" points="137,333 138,332" vector-effect="none"/></g><defs><clipPath id="clip21"><path d="M130,327 L160,327 L160,358 L130,358 L130,327 z"/></clipPath></defs><g clip-path="url(#clip21)" fill="none" opacity="1" stroke="#000000" stroke-linecap="butt" stroke-linejoin="miter" stroke-miterlimit="2" stroke-opacity="1" stroke-width="0.22" transform="matrix(4.54545,0,0,4.54545,-556.818,-1475)"><polyline fill="none" points="138,332 139,332" vector-effect="none"/></g><defs><clipPath id="clip22"><path d="M130,327 L160,327 L160,358 L130,358 L130,327 z"/></clipPath></defs><g clip-path="url(#clip22)" fill="none" opacity="1" stroke="#000000" stroke-linecap="butt" stroke-linejoin="miter" stroke-miterlimit="2" stroke-opacity="1" stroke-width="0.22" transform="matrix(4.54545,0,0,4.54545,-556.818,-1475)"><polyline fill="none" points="139,332 140,333" vector-effect="none"/></g><defs><clipPath id="clip23"><path d="M130,327 L160,327 L160,358 L130,358 L130,327 z"/></clipPath></defs><g clip-path="url(#clip23)" fill="none" opacity="1" stroke="#000000" stroke-linecap="butt" stroke-linejoin="miter" stroke-miterlimit="2" stroke-opacity="1" stroke-width="0.22" transform="matrix(4.54545,0,0,4.54545,-556.818,-1475)"><polyline fill="none" points="140,333 141,336" vector-effect="none"/></g><defs><clipPath id="clip24"><path d="M130,327 L160,327 L160,358 L130,358 L130,327 z"/></clipPath></defs><g clip-path="url(#clip24)" fill="none" opacity="1" stroke="#000000" stroke-linecap="butt" stroke-linejoin="miter" stroke-miterlimit="2" stroke-opacity="1" stroke-width="0.22" transform="matrix(4.54545,0,0,4.54545,-556.818,-1475)"><polyline fill="none" points="141,336 142,338" vector-effect="none"/></g><defs><clipPath id="clip25"><path d="M130,327 L160,327 L160,358 L130,358 L130,327 z"/></clipPath></defs><g clip-path="url(#clip25)" fill="none" opacity="1" stroke="#000000" stroke-linecap="butt" stroke-linejoin="miter" stroke-miterlimit="2" stroke-opacity="1" stroke-width="0.22" transform="matrix(4.54545,0,0,4.54545,-556.818,-1475)"><polyline fill="none" points="142,338 143,341" vector-effect="none"/></g><defs><clipPath id="clip26"><path d="M130,327 L160,327 L160,358 L130,358 L130,327 z"/></clipPath></defs><g clip-path="url(#clip26)" fill="none" opacity="1" stroke="#000000" stroke-linecap="butt" stroke-linejoin="miter" stroke-miterlimit="2" stroke-opacity="1" stroke-width="0.22" transform="matrix(4.54545,0,0,4.54545,-556.818,-1475)"><polyline fill="none" points="143,341 144,345" vector-effect="none"/></g><defs><clipPath id="clip27"><path d="M130,327 L160,327 L160,358 L130,358 L130,327 z"/></clipPath></defs><g clip-path="url(#clip27)" fill="none" opacity="1" stroke="#000000" stroke-linecap="butt" stroke-linejoin="miter" stroke-miterlimit="2" stroke-opacity="1" stroke-width="0.22" transform="matrix(4.54545,0,0,4.54545,-556.818,-1475)"><polyline fill="none" points="144,345 145,348" vector-effect="none"/></g><defs><clipPath id="clip28"><path d="M130,327 L160,327 L160,358 L130,358 L130,327 z"/></clipPath></defs><g clip-path="url(#clip28)" fill="none" opacity="1" stroke="#000000" stroke-linecap="butt" stroke-linejoin="miter" stroke-miterlimit="2" stroke-opacity="1" stroke-width="0.22" transform="matrix(4.54545,0,0,4.54545,-556.818,-1475)"><polyline fill="none" points="145,348 146,351" vector-effect="none"/></g><defs><clipPath id="clip29"><path d="M130,327 L160,327 L160,358 L130,358 L130,327 z"/></clipPath></defs><g clip-path="url(#clip29)" fill="none" opacity="1" stroke="#000000" stroke-linecap="butt" stroke-linejoin="miter" stroke-miterlimit="2" stroke-opacity="1" stroke-width="0.22" transform="matrix(4.54545,0,0,4.54545,-556.818,-1475)"><polyline fill="none" points="146,351 147,353" vector-effect="none"/></g><defs><clipPath id="clip30"><path d="M130,327 L160,327 L160,358 L130,358 L130,327 z"/></clipPath></defs><g clip-path="url(#clip30)" fill="none" opacity="1" stroke="#000000" stroke-linecap="butt" stroke-linejoin="miter" stroke-miterlimit="2" stroke-opacity="1" stroke-width="0.22" transform="matrix(4.54545,0,0,4.54545,-556.818,-1475)"><polyline fill="none" points="147,353 148,354" vector-effect="none"/></g><defs><clipPath id="clip31"><path d="M130,327 L160,327 L160,358 L130,358 L130,327 z"/></clipPath></defs><g clip-path="url(#clip31)" fill="#000000" fill-opacity="1" opacity="1" stroke="none" stroke-opacity="0" transform="matrix(4.54545,0,0,4.54545,-556.818,-1475)"><path d="M147.5,353.5 L148.5,353.5 L148.5,354.5 L147.5,354.5 L147.5,353.5 z" fill-rule="evenodd" vector-effect="none"/></g><defs><clipPath id="clip32"><path d="M130,327 L160,327 L160,358 L130,358 L130,327 z"/></clipPath></defs><g clip-path="url(#clip32)" fill="none" opacity="1" stroke="#000000" stroke-linecap="square" stroke-linejoin="bevel" stroke-opacity="1" stroke-width="1" transform="matrix(4.54545,0,0,4.54545,-556.818,-1475)"><polyline fill="none" points="148,354 149,353" vector-effect="none"/></g><defs><clipPath id="clip33"><path d="M130,327 L160,327 L160,358 L130,358 L130,327 z"/></clipPath></defs><g clip-path="url(#clip33)" fill="none" opacity="1" stroke="#000000" stroke-linecap="square" stroke-linejoin="bevel" stroke-opacity="1" stroke-width="1" transform="matrix(4.54545,0,0,4.54545,-556.818,-1475)"><polyline fill="none" points="149,353 150,352" vector-effect="none"/></g><defs><clipPath id="clip34"><path d="M130,327 L160,327 L160,358 L130,358 L130,327 z"/></clipPath></defs><g clip-path="url(#clip34)" fill="none" opacity="1" stroke="#000000" stroke-linecap="square" stroke-linejoin="bevel" stroke-opacity="1" stroke-width="1" transform="matrix(4.54545,0,0,4.54545,-556.818,-1475)"><polyline fill="none" points="150,352 151,349" vector-effect="none"/></g><defs><clipPath id="clip35"><path d="M130,327 L160,327 L160,358 L130,358 L130,327 z"/></clipPath></defs><g clip-path="url(#clip35)" fill="none" opacity="1" stroke="#000000" stroke-linecap="square" stroke-linejoin="bevel" stroke-opacity="1" stroke-width="1" transform="matrix(4.54545,0,0,4.54545,-556.818,-1475)"><polyline fill="none" points="151,349 152,346" vector-effect="none"/></g><defs><clipPath id="clip36"><path d="M130,327 L160,327 L160,358 L130,358 L130,327 z"/></clipPath></defs><g clip-path="url(#clip36)" fill="none" opacity="1" stroke="#000000" stroke-linecap="square" stroke-linejoin="bevel" stroke-opacity="1" stroke-width="1" transform="matrix(4.54545,0,0,4.54545,-556.818,-1475)"><polyline fill="none" points="152,346 153,343" vector-effect="none"/></g><defs><clipPath id="clip37"><path d="M130,327 L160,327 L160,358 L130,358 L130,327 z"/></clipPath></defs><g clip-path="url(#clip37)" fill="none" opacity="1" stroke="#000000" stroke-linecap="square" stroke-linejoin="bevel" stroke-opacity="1" stroke-width="1" transform="matrix(4.54545,0,0,4.54545,-556.818,-1475)"><polyline fill="none" points="153,343 154,340" vector-effect="none"/></g><defs><clipPath id="clip38"><path d="M130,327 L160,327 L160,358 L130,358 L130,327 z"/></clipPath></defs><g clip-path="url(#clip38)" fill="none" opacity="1" stroke="#000000" stroke-linecap="square" stroke-linejoin="bevel" stroke-opacity="1" stroke-width="1" transform="matrix(4.54545,0,0,4.54545,-556.818,-1475)"><polyline fill="none" points="154,340 155,337" vector-effect="none"/></g><defs><clipPath id="clip39"><path d="M130,327 L160,327 L160,358 L130,358 L130,327 z"/></clipPath></defs><g clip-path="url(#clip39)" fill="none" opacity="1" stroke="#000000" stroke-linecap="square" stroke-linejoin="bevel" stroke-opacity="1" stroke-width="1" transform="matrix(4.54545,0,0,4.54545,-556.818,-1475)"><polyline fill="none" points="155,337 155,336" vector-effect="none"/></g><defs><clipPath id="clip40"><path d="M130,327 L160,327 L160,358 L130,358 L130,327 z"/></clipPath></defs><g clip-path="url(#clip40)" fill="none" opacity="1" stroke="#000000" stroke-linecap="square" stroke-linejoin="bevel" stroke-opacity="1" stroke-width="1" transform="matrix(4.54545,0,0,4.54545,-556.818,-1475)"><polyline fill="none" points="134,343 135,343" vector-effect="none"/></g><defs><clipPath id="clip41"><path d="M130,327 L160,327 L160,358 L130,358 L130,327 z"/></clipPath></defs><g clip-path="url(#clip41)" fill="none" opacity="1" stroke="#000000" stroke-linecap="square" stroke-linejoin="bevel" stroke-opacity="1" stroke-width="1" transform="matrix(4.54545,0,0,4.54545,-556.818,-1475)"><polyline fill="none" points="135,343 136,343" vector-effect="none"/></g><defs><clipPath id="clip42"><path d="M130,327 L160,327 L160,358 L130,358 L130,327 z"/></clipPath></defs><g clip-path="url(#clip42)" fill="none" opacity="1" stroke="#000000" stroke-linecap="square" stroke-linejoin="bevel" stroke-opacity="1" stroke-width="1" transform="matrix(4.54545,0,0,4.54545,-556.818,-1475)"><polyline fill="none" points="136,343 137,343" vector-effect="none"/></g><defs><clipPath id="clip43"><path d="M130,327 L160,327 L160,358 L130,358 L130,327 z"/></clipPath></defs><g clip-path="url(#clip43)" fill="#000000" fill-opacity="1" opacity="1" stroke="none" stroke-opacity="0" transform="matrix(4.54545,0,0,4.54545,-556.818,-1475)"><path d="M136.5,342.5 L137.5,342.5 L137.5,343.5 L136.5,343.5 L136.5,342.5 z" fill-rule="evenodd" vector-effect="none"/></g><defs><clipPath id="clip44"><path d="M130,327 L160,327 L160,358 L130,358 L130,327 z"/></clipPath></defs><g clip-path="url(#clip44)" fill="none" opacity="1" stroke="#000000" stroke-linecap="square" stroke-linejoin="bevel" stroke-opacity="1" stroke-width="1" transform="matrix(4.54545,0,0,4.54545,-556.818,-1475)"><polyline fill="none" points="137,343 138,343" vector-effect="none"/></g><defs><clipPath id="clip45"><path d="M130,327 L160,327 L160,358 L130,358 L130,327 z"/></clipPath></defs><g clip-path="url(#clip45)" fill="none" opacity="1" stroke="#000000" stroke-linecap="square" stroke-linejoin="bevel" stroke-opacity="1" stroke-width="1" transform="matrix(4.54545,0,0,4.54545,-556.818,-1475)"><polyline fill="none" points="138,343 139,343" vector-effect="none"/></g><defs><clipPath id="clip46"><path d="M130,327 L160,327 L160,358 L130,358 L130,327 z"/></clipPath></defs><g clip-path="url(#clip46)" fill="none" opacity="1" stroke="#000000" stroke-linecap="square" stroke-linejoin="bevel" stroke-opacity="1" stroke-width="1" transform="matrix(4.54545,0,0,4.54545,-556.818,-1475)"><polyline fill="none" points="139,343 140,342" vector-effect="none"/></g><defs><clipPath id="clip47"><path d="M130,327 L160,327 L160,358 L130,358 L130,327 z"/></clipPath></defs><g clip-path="url(#clip47)" fill="none" opacity="1" stroke="#000000" stroke-linecap="square" stroke-linejoin="bevel" stroke-opacity="1" stroke-width="1" transform="matrix(4.54545,0,0,4.54545,-556.818,-1475)"><polyline fill="none" points="140,342 141,339" vector-effect="none"/></g><defs><clipPath id="clip48"><path d="M130,327 L160,327 L160,358 L130,358 L130,327 z"/></clipPath></defs><g clip-path="url(#clip48)" fill="none" opacity="1" stroke="#000000" stroke-linecap="square" stroke-linejoin="bevel" stroke-opacity="1" stroke-width="1" transform="matrix(4.54545,0,0,4.54545,-556.818,-1475)"><polyline fill="none" points="141,339 142,336" vector-effect="none"/></g><defs><clipPath id="clip49"><path d="M130,327 L160,327 L160,358 L130,358 L130,327 z"/></clipPath></defs><g clip-path="url(#clip49)" fill="none" opacity="1" stroke="#000000" stroke-linecap="square" stroke-linejoin="bevel" stroke-opacity="1" stroke-width="1" transform="matrix(4.54545,0,0,4.54545,-556.818,-1475)"><polyline fill="none" points="142,336 143,334" vector-effect="none"/></g><defs><clipPath id="clip50"><path d="M130,327 L160,327 L160,358 L130,358 L130,327 z"/></clipPath></defs><g clip-path="url(#clip50)" fill="none" opacity="1" stroke="#000000" stroke-linecap="square" stroke-linejoin="bevel" stroke-opacity="1" stroke-width="1" transform="matrix(4.54545,0,0,4.54545,-556.818,-1475)"><polyline fill="none" points="143,334 144,332" vector-effect="none"/></g><defs><clipPath id="clip51"><path d="M130,327 L160,327 L160,358 L130,358 L130,327 z"/></clipPath></defs><g clip-path="url(#clip51)" fill="none" opacity="1" stroke="#000000" stroke-linecap="square" stroke-linejoin="bevel" stroke-opacity="1" stroke-width="1" transform="matrix(4.54545,0,0,4.54545,-556.818,-1475)"><polyline fill="none" points="144,332 145,332" vector-effect="none"/></g><defs><clipPath id="clip52"><path d="M130,327 L160,327 L160,358 L130,358 L130,327 z"/></clipPath></defs><g clip-path="url(#clip52)" fill="none" opacity="1" stroke="#000000" stroke-linecap="square" stroke-linejoin="bevel" stroke-opacity="1" stroke-width="1" transform="matrix(4.54545,0,0,4.54545,-556.818,-1475)"><polyline fill="none" points="145,332 146,333" vector-effect="none"/></g><defs><clipPath id="clip53"><path d="M130,327 L160,327 L160,358 L130,358 L130,327 z"/></clipPath></defs><g clip-path="url(#clip53)" fill="none" opacity="1" stroke="#000000" stroke-linecap="square" stroke-linejoin="bevel" stroke-opacity="1" stroke-width="1" transform="matrix(4.54545,0,0,4.54545,-556.818,-1475)"><polyline fill="none" points="146,333 147,334" vector-effect="none"/></g><defs><clipPath id="clip54"><path d="M130,327 L160,327 L160,358 L130,358 L130,327 z"/></clipPath></defs><g clip-path="url(#clip54)" fill="none" opacity="1" stroke="#000000" stroke-linecap="square" stroke-linejoin="bevel" stroke-opacity="1" stroke-width="1" transform="matrix(4.54545,0,0,4.54545,-556.818,-1475)"><polyline fill="none" points="147,334 148,336" vector-effect="none"/></g><defs><clipPath id="clip55"><path d="M130,327 L160,327 L160,358 L130,358 L130,327 z"/></clipPath></defs><g clip-path="url(#clip55)" fill="none" opacity="1" stroke="#000000" stroke-linecap="square" stroke-linejoin="bevel" stroke-opacity="1" stroke-width="1" transform="matrix(4.54545,0,0,4.54545,-556.818,-1475)"><polyline fill="none" points="148,336 148,339" vector-effect="none"/></g><defs><clipPath id="clip56"><path d="M130,327 L160,327 L160,358 L130,358 L130,327 z"/></clipPath></defs><g clip-path="url(#clip56)" fill="none" opacity="1" stroke="#000000" stroke-linecap="square" stroke-linejoin="bevel" stroke-opacity="1" stroke-width="1" transform="matrix(4.54545,0,0,4.54545,-556.818,-1475)"><polyline fill="none" points="148,339 149,343" vector-effect="none"/></g><defs><clipPath id="clip57"><path d="M130,327 L160,327 L160,358 L130,358 L130,327 z"/></clipPath></defs><g clip-path="url(#clip57)" fill="none" opacity="1" stroke="#000000" stroke-linecap="square" stroke-linejoin="bevel" stroke-opacity="1" stroke-width="1" transform="matrix(4.54545,0,0,4.54545,-556.818,-1475)"><polyline fill="none" points="149,343 150,346" vector-effect="none"/></g><defs><clipPath id="clip58"><path d="M130,327 L160,327 L160,358 L130,358 L130,327 z"/></clipPath></defs><g clip-path="url(#clip58)" fill="none" opacity="1" stroke="#000000" stroke-linecap="square" stroke-linejoin="bevel" stroke-opacity="1" stroke-width="1" transform="matrix(4.54545,0,0,4.54545,-556.818,-1475)"><polyline fill="none" points="150,346 151,349" vector-effect="none"/></g><defs><clipPath id="clip59"><path d="M130,327 L160,327 L160,358 L130,358 L130,327 z"/></clipPath></defs><g clip-path="url(#clip59)" fill="none" opacity="1" stroke="#000000" stroke-linecap="square" stroke-linejoin="bevel" stroke-opacity="1" stroke-width="1" transform="matrix(4.54545,0,0,4.54545,-556.818,-1475)"><polyline fill="none" points="151,349 152,351" vector-effect="none"/></g><defs><clipPath id="clip60"><path d="M130,327 L160,327 L160,358 L130,358 L130,327 z"/></clipPath></defs><g clip-path="url(#clip60)" fill="none" opacity="1" stroke="#000000" stroke-linecap="square" stroke-linejoin="bevel" stroke-opacity="1" stroke-width="1" transform="matrix(4.54545,0,0,4.54545,-556.818,-1475)"><polyline fill="none" points="152,351 153,353" vector-effect="none"/></g><defs><clipPath id="clip61"><path d="M130,327 L160,327 L160,358 L130,358 L130,327 z"/></clipPath></defs><g clip-path="url(#clip61)" fill="none" opacity="1" stroke="#000000" stroke-linecap="square" stroke-linejoin="bevel" stroke-opacity="1" stroke-width="1" transform="matrix(4.54545,0,0,4.54545,-556.818,-1475)"><polyline fill="none" points="153,353 154,354" vector-effect="none"/></g><defs><clipPath id="clip62"><path d="M130,327 L160,327 L160,358 L130,358 L130,327 z"/></clipPath></defs><g clip-path="url(#clip62)" fill="none" opacity="1" stroke="#000000" stroke-linecap="square" stroke-linejoin="bevel" stroke-opacity="1" stroke-width="1" transform="matrix(4.54545,0,0,4.54545,-556.818,-1475)"><polyline fill="none" points="154,354 155,354" vector-effect="none"/></g><defs><clipPath id="clip63"><path d="M130,327 L160,327 L160,358 L130,358 L130,327 z"/></clipPath></defs><g clip-path="url(#clip63)" fill="#000000" fill-opacity="1" opacity="1" stroke="none" stroke-opacity="0" transform="matrix(4.54545,0,0,4.54545,-556.818,-1475)"><path d="M154.5,353.5 L155.5,353.5 L155.5,354.5 L154.5,354.5 L154.5,353.5 z" fill-rule="evenodd" vector-effect="none"/></g><defs><clipPath id="clip64"><path d="M130,327 L160,327 L160,358 L130,358 L130,327 z"/></clipPath></defs><g clip-path="url(#clip64)" fill="none" opacity="1" stroke="#000000" stroke-linecap="square" stroke-linejoin="bevel" stroke-opacity="1" stroke-width="1" transform="matrix(4.54545,0,0,4.54545,-556.818,-1475)"><polyline fill="none" points="147,339 146,340" vector-effect="none"/></g><defs><clipPath id="clip65"><path d="M130,327 L160,327 L160,358 L130,358 L130,327 z"/></clipPath></defs><g clip-path="url(#clip65)" fill="none" opacity="1" stroke="#000000" stroke-linecap="square" stroke-linejoin="bevel" stroke-opacity="1" stroke-width="1" transform="matrix(4.54545,0,0,4.54545,-556.818,-1475)"><polyline fill="none" points="146,340 146,337" vector-effect="none"/></g><defs><clipPath id="clip66"><path d="M130,327 L160,327 L160,358 L130,358 L130,327 z"/></clipPath></defs><g clip-path="url(#clip66)" fill="none" opacity="1" stroke="#000000" stroke-linecap="square" stroke-linejoin="bevel" stroke-opacity="1" stroke-width="1" transform="matrix(4.54545,0,0,4.54545,-556.818,-1475)"><polyline fill="none" points="146,337 147,339" vector-effect="none"/></g><defs><clipPath id="clip67"><path d="M130,327 L160,327 L160,358 L130,358 L130,327 z"/></clipPath></defs><g clip-path="url(#clip67)" fill="none" opacity="1" stroke="#000000" stroke-linecap="square" stroke-linejoin="bevel" stroke-opacity="1" stroke-width="1" transform="matrix(4.54545,0,0,4.54545,-556.818,-1475)"><polyline fill="none" points="147,339 143,339" vector-effect="none"/></g><defs><clipPath id="clip68"><path d="M130,327 L160,327 L160,358 L130,358 L130,327 z"/></clipPath></defs><g clip-path="url(#clip68)" fill="none" opacity="1" stroke="#000000" stroke-linecap="square" stroke-linejoin="bevel" stroke-opacity="1" stroke-width="1" transform="matrix(4.54545,0,0,4.54545,-556.818,-1475)"><polyline fill="none" points="149,347 149,349" vector-effect="none"/></g><defs><clipPath id="clip69"><path d="M130,327 L160,327 L160,358 L130,358 L130,327 z"/></clipPath></defs><g clip-path="url(#clip69)" fill="none" opacity="1" stroke="#000000" stroke-linecap="square" stroke-linejoin="bevel" stroke-opacity="1" stroke-width="1" transform="matrix(4.54545,0,0,4.54545,-556.818,-1475)"><polyline fill="none" points="149,349 149,346" vector-effect="none"/></g><defs><clipPath id="clip70"><path d="M130,327 L160,327 L160,358 L130,358 L130,327 z"/></clipPath></defs><g clip-path="url(#clip70)" fill="none" opacity="1" stroke="#000000" stroke-linecap="square" stroke-linejoin="bevel" stroke-opacity="1" stroke-width="1" transform="matrix(4.54545,0,0,4.54545,-556.818,-1475)"><polyline fill="none" points="149,346 149,347" vector-effect="none"/></g><defs><clipPath id="clip71"><path d="M130,327 L160,327 L160,358 L130,358 L130,327 z"/></clipPath></defs><g clip-path="url(#clip71)" fill="none" opacity="1" stroke="#000000" stroke-linecap="square" stroke-linejoin="bevel" stroke-opacity="1" stroke-width="1" transform="matrix(4.54545,0,0,4.54545,-556.818,-1475)"><polyline fill="none" points="149,347 146,347" vector-effect="none"/></g><defs><clipPath id="clip73"><path d="M-15,-118 L139,-118 L139,41 L-15,41 L-15,-118 z"/></clipPath></defs><g clip-path="url(#clip73)" fill="none" opacity="1" stroke="#000000" stroke-linecap="square" stroke-linejoin="bevel" stroke-opacity="1" stroke-width="1" transform="matrix(0.887784,0,0,0.887784,45.4545,113.636)"><text fill="#000000" fill-opacity="1" font-family="Liberation Sans" font-size="40" font-style="normal" font-weight="400" stroke="none" textLength="42" x="0" xml:space="preserve" y="17.9219">To</text></g><defs><clipPath id="clip79"><path d="M-7,-2 L37,-2 L37,33 L-7,33 L-7,-2 z"/></clipPath></defs><g clip-path="url(#clip79)" fill="none" opacity="1" stroke="#000000" stroke-linecap="butt" stroke-linejoin="miter" stroke-miterlimit="2" stroke-opacity="1" stroke-width="0.545719" transform="matrix(4.54545,0,0,4.54545,31.8182,9.09091)"><path d="M0,0 L30,0 L30,31 L0,31 L0,0 z" fill-rule="evenodd" vector-effect="none"/></g></g></svg>
