<?xml version="1.0" encoding="UTF-8"?><svg width="52.9167mm" height="38.1mm" viewBox="0 0 200 144" xmlns="http://www.w3.org/2000/svg" xmlns:xlink="http://www.w3.org/1999/xlink"><g fill="none" stroke="black" stroke-width="1" fill-rule="evenodd" stroke-linecap="square" stroke-linejoin="bevel"><g clip-path="none" fill="none" opacity="1" stroke="none" stroke-opacity="0" transform="matrix(1,0,0,1,0,0)"><path d="M0,0 L200,0 L200,144 L0,144 L0,0 z" fill-rule="evenodd" vector-effect="none"/></g><defs><clipPath id="clip3"><path d="M7,25 L-62,25 L-62,-25 L7,-25 L7,25 z"/></clipPath></defs><g clip-path="url(#clip3)" fill="none" opacity="1" stroke="#000000" stroke-linecap="round" stroke-linejoin="miter" stroke-miterlimit="2" stroke-opacity="1" stroke-width="2" transform="matrix(-2.89855,0,0,-2.89855,20.2899,72.4638)"><path d="M5,-5 L0,0 L5,5" fill-rule="evenodd" vector-effect="none"/></g><defs><clipPath id="clip6"><path d="M-7,-2 L62,-2 L62,48 L-7,48 L-7,-2 z"/></clipPath></defs><g clip-path="url(#clip6)" fill="#ffffff" fill-opacity="1" opacity="1" stroke="none" stroke-opacity="0" transform="matrix(2.89855,0,0,2.89855,20.2899,5.7971)"><path d="M0,0 L60,0 L60,46 L0,46 L0,0 z" fill-rule="evenodd" vector-effect="none"/></g><defs><clipPath id="clip10"><path d="M70,12 L130,12 L130,58 L70,58 L70,12 z"/></clipPath></defs><g clip-path="url(#clip10)" fill="none" opacity="1" stroke="#000000" stroke-linecap="butt" stroke-linejoin="miter" stroke-miterlimit="2" stroke-opacity="1" stroke-width="0.345" transform="matrix(2.89855,0,0,2.89855,-181.159,-27.5362)"><path d="M118,34.5 C118,41.9558 113.971,48 109,48 C104.029,48 100,41.9558 100,34.5 C100,27.0442 104.029,21 109,21 C113.971,21 118,27.0442 118,34.5 z" fill-rule="evenodd" vector-effect="none"/></g><defs><clipPath id="clip11"><path d="M70,12 L130,12 L130,58 L70,58 L70,12 z"/></clipPath></defs><g clip-path="url(#clip11)" fill="#000000" fill-opacity="1" opacity="1" stroke="#000000" stroke-linecap="butt" stroke-linejoin="miter" stroke-miterlimit="2" stroke-opacity="1" stroke-width="0.345" transform="matrix(2.89855,0,0,2.89855,-182.609,-28.9855)"><path d="M104,36 L108,43 L114,28 L114,29 L108,44 L104,37 L104,36 z" fill-rule="evenodd" vector-effect="none"/></g><defs><clipPath id="clip12"><path d="M70,12 L130,12 L130,58 L70,58 L70,12 z"/></clipPath></defs><g clip-path="url(#clip12)" fill="#000000" fill-opacity="1" opacity="1" stroke="#000000" stroke-linecap="butt" stroke-linejoin="miter" stroke-miterlimit="2" stroke-opacity="1" stroke-width="0.345" transform="matrix(2.89855,0,0,2.89855,-181.159,-27.5362)"><polyline fill="none" points="104,37 108,43" vector-effect="none"/></g><defs><clipPath id="clip13"><path d="M70,12 L130,12 L130,58 L70,58 L70,12 z"/></clipPath></defs><g clip-path="url(#clip13)" fill="#000000" fill-opacity="1" opacity="1" stroke="#000000" stroke-linecap="butt" stroke-linejoin="miter" stroke-miterlimit="2" stroke-opacity="1" stroke-width="0.345" transform="matrix(2.89855,0,0,2.89855,-181.159,-27.5362)"><polyline fill="none" points="108,43 114,29" vector-effect="none"/></g><defs><clipPath id="clip14"><path d="M70,12 L130,12 L130,58 L70,58 L70,12 z"/></clipPath></defs><g clip-path="url(#clip14)" fill="#000000" fill-opacity="1" opacity="1" stroke="#000000" stroke-linecap="butt" stroke-linejoin="miter" stroke-miterlimit="2" stroke-opacity="1" stroke-width="0.345" transform="matrix(2.89855,0,0,2.89855,-181.159,-27.5362)"><polyline fill="none" points="70,35 100,35" vector-effect="none"/></g><defs><clipPath id="clip19"><path d="M-7,-2 L62,-2 L62,48 L-7,48 L-7,-2 z"/></clipPath></defs><g clip-path="url(#clip19)" fill="none" opacity="1" stroke="#000000" stroke-linecap="butt" stroke-linejoin="miter" stroke-miterlimit="2" stroke-opacity="1" stroke-width="0.653323" transform="matrix(2.89855,0,0,2.89855,20.2899,5.7971)"><path d="M0,0 L60,0 L60,46 L0,46 L0,0 z" fill-rule="evenodd" vector-effect="none"/></g></g></svg>
