<?xml version="1.0" encoding="UTF-8"?><svg width="52.9167mm" height="51.5938mm" viewBox="0 0 200 195" xmlns="http://www.w3.org/2000/svg" xmlns:xlink="http://www.w3.org/1999/xlink"><g fill="none" stroke="black" stroke-width="1" fill-rule="evenodd" stroke-linecap="square" stroke-linejoin="bevel"><g clip-path="none" fill="none" opacity="1" stroke="none" stroke-opacity="0" transform="matrix(1,0,0,1,0,0)"><path d="M0,0 L200,0 L200,195 L0,195 L0,0 z" fill-rule="evenodd" vector-effect="none"/></g><defs><clipPath id="clip3"><path d="M-2,-2 L42,-2 L42,41 L-2,41 L-2,-2 z"/></clipPath></defs><g clip-path="url(#clip3)" fill="#ffffff" fill-opacity="1" opacity="1" stroke="none" stroke-opacity="0" transform="matrix(4.54545,0,0,4.54545,9.09091,9.09091)"><path d="M0,0 L40,0 L40,39 L0,39 L0,0 z" fill-rule="evenodd" vector-effect="none"/></g><defs><clipPath id="clip7"><path d="M52,31 L92,31 L92,70 L52,70 L52,31 z"/></clipPath></defs><g clip-path="url(#clip7)" fill="none" opacity="1" stroke="#000000" stroke-linecap="butt" stroke-linejoin="miter" stroke-miterlimit="2" stroke-opacity="1" stroke-width="0.22" transform="matrix(4.54545,0,0,4.54545,-225,-134.091)"><polyline fill="none" points="83,32 52,32" vector-effect="none"/></g><defs><clipPath id="clip8"><path d="M52,31 L92,31 L92,70 L52,70 L52,31 z"/></clipPath></defs><g clip-path="url(#clip8)" fill="none" opacity="1" stroke="#000000" stroke-linecap="butt" stroke-linejoin="miter" stroke-miterlimit="2" stroke-opacity="1" stroke-width="0.22" transform="matrix(4.54545,0,0,4.54545,-225,-134.091)"><polyline fill="none" points="52,32 52,70" vector-effect="none"/></g><defs><clipPath id="clip9"><path d="M52,31 L92,31 L92,70 L52,70 L52,31 z"/></clipPath></defs><g clip-path="url(#clip9)" fill="none" opacity="1" stroke="#000000" stroke-linecap="butt" stroke-linejoin="miter" stroke-miterlimit="2" stroke-opacity="1" stroke-width="0.22" transform="matrix(4.54545,0,0,4.54545,-225,-134.091)"><polyline fill="none" points="52,70 91,70" vector-effect="none"/></g><defs><clipPath id="clip10"><path d="M52,31 L92,31 L92,70 L52,70 L52,31 z"/></clipPath></defs><g clip-path="url(#clip10)" fill="none" opacity="1" stroke="#000000" stroke-linecap="butt" stroke-linejoin="miter" stroke-miterlimit="2" stroke-opacity="1" stroke-width="0.22" transform="matrix(4.54545,0,0,4.54545,-225,-134.091)"><polyline fill="none" points="91,70 91,40" vector-effect="none"/></g><defs><clipPath id="clip11"><path d="M52,31 L92,31 L92,70 L52,70 L52,31 z"/></clipPath></defs><g clip-path="url(#clip11)" fill="none" opacity="1" stroke="#000000" stroke-linecap="butt" stroke-linejoin="miter" stroke-miterlimit="2" stroke-opacity="1" stroke-width="0.22" transform="matrix(4.54545,0,0,4.54545,-225,-134.091)"><polyline fill="none" points="91,40 83,32" vector-effect="none"/></g><defs><clipPath id="clip12"><path d="M52,31 L92,31 L92,70 L52,70 L52,31 z"/></clipPath></defs><g clip-path="url(#clip12)" fill="none" opacity="1" stroke="#000000" stroke-linecap="butt" stroke-linejoin="miter" stroke-miterlimit="2" stroke-opacity="1" stroke-width="0.22" transform="matrix(4.54545,0,0,4.54545,-225,-134.091)"><polyline fill="none" points="83,32 83,40" vector-effect="none"/></g><defs><clipPath id="clip13"><path d="M52,31 L92,31 L92,70 L52,70 L52,31 z"/></clipPath></defs><g clip-path="url(#clip13)" fill="none" opacity="1" stroke="#000000" stroke-linecap="butt" stroke-linejoin="miter" stroke-miterlimit="2" stroke-opacity="1" stroke-width="0.22" transform="matrix(4.54545,0,0,4.54545,-225,-134.091)"><polyline fill="none" points="83,40 91,40" vector-effect="none"/></g><defs><clipPath id="clip15"><path d="M-20,-16 L20,-16 L20,23 L-20,23 L-20,-16 z"/></clipPath></defs><g clip-path="url(#clip15)" fill="none" opacity="1" stroke="#000000" stroke-linecap="butt" stroke-linejoin="miter" stroke-miterlimit="2" stroke-opacity="1" stroke-width="0.22" transform="matrix(4.54545,0,0,4.54545,100,81.8182)"><text fill="#000000" fill-opacity="1" font-family="Arial" font-size="10" font-style="normal" font-weight="400" stroke="none" textLength="22.2031" x="-11.0938" xml:space="preserve" y="3.5">DOC</text></g><defs><clipPath id="clip18"><path d="M-38,-38 L2,-38 L2,1 L-38,1 L-38,-38 z"/></clipPath></defs><g clip-path="url(#clip18)" fill="none" opacity="1" stroke="#000000" stroke-linecap="butt" stroke-linejoin="miter" stroke-miterlimit="2" stroke-opacity="1" stroke-width="0.22" transform="matrix(4.54545,0,0,4.54545,181.818,181.818)"><text fill="#000000" fill-opacity="1" font-family="Arial" font-size="10" font-style="normal" font-weight="400" stroke="none" textLength="18.2969" x="-18.2969" xml:space="preserve" y="-2">Text</text></g><defs><clipPath id="clip24"><path d="M-2,-2 L42,-2 L42,41 L-2,41 L-2,-2 z"/></clipPath></defs><g clip-path="url(#clip24)" fill="none" opacity="1" stroke="none" stroke-opacity="0" transform="matrix(4.54545,0,0,4.54545,9.09091,9.09091)"><path d="M0,0 L40,0 L40,39 L0,39 L0,0 z" fill-rule="evenodd" vector-effect="none"/></g></g></svg>
