<?xml version="1.0" encoding="UTF-8"?><svg width="52.9167mm" height="24.8708mm" viewBox="0 0 200 94" xmlns="http://www.w3.org/2000/svg" xmlns:xlink="http://www.w3.org/1999/xlink"><g fill="none" stroke="black" stroke-width="1" fill-rule="evenodd" stroke-linecap="square" stroke-linejoin="bevel"><g clip-path="none" fill="none" opacity="1" stroke="none" stroke-opacity="0" transform="matrix(1,0,0,1,0,0)"><path d="M0,0 L200,0 L200,94 L0,94 L0,0 z" fill-rule="evenodd" vector-effect="none"/></g><defs><clipPath id="clip3"><path d="M-2,-2 L102,-2 L102,47 L-2,47 L-2,-2 z"/></clipPath></defs><g clip-path="url(#clip3)" fill="#ffffff" fill-opacity="1" opacity="1" stroke="none" stroke-opacity="0" transform="matrix(1.92308,0,0,1.92308,3.84615,3.84615)"><path d="M0,0 L100,0 L100,45 L0,45 L0,0 z" fill-rule="evenodd" vector-effect="none"/></g><defs><clipPath id="clip6"><path d="M-2,-2 L102,-2 L102,47 L-2,47 L-2,-2 z"/></clipPath></defs><g clip-path="url(#clip6)" fill="#ffffff" fill-opacity="1" opacity="1" stroke="#000000" stroke-linecap="butt" stroke-linejoin="miter" stroke-miterlimit="2" stroke-opacity="1" stroke-width="1" transform="matrix(1.92308,0,0,1.92308,3.84615,3.84615)"><path d="M0,0 L10,0 L0,10 L0,0 z" fill-rule="evenodd" vector-effect="none"/><path d="M100,0 L100,10 L90,0 L100,0 z" fill-rule="evenodd" vector-effect="none"/><path d="M100,45 L90,45 L100,35 L100,45 z" fill-rule="evenodd" vector-effect="none"/><path d="M0,45 L0,35 L10,45 L0,45 z" fill-rule="evenodd" vector-effect="none"/></g><defs><clipPath id="clip7"><path d="M-2,-2 L102,-2 L102,47 L-2,47 L-2,-2 z"/></clipPath></defs><g clip-path="url(#clip7)" fill="none" opacity="1" stroke="#000000" stroke-linecap="butt" stroke-linejoin="miter" stroke-miterlimit="2" stroke-opacity="1" stroke-width="2" transform="matrix(1.92308,0,0,1.92308,3.84615,3.84615)"><path d="M0,0 L100,0 L100,45 L0,45 L0,0 z" fill-rule="evenodd" vector-effect="none"/></g><defs><clipPath id="clip12"><path d="M-50,-10 L50,-10 L50,35 L-50,35 L-50,-10 z"/></clipPath></defs><g clip-path="url(#clip12)" fill="none" opacity="1" stroke="#000000" stroke-linecap="butt" stroke-linejoin="miter" stroke-miterlimit="2" stroke-opacity="1" stroke-width="0.52" transform="matrix(1.92308,0,0,1.92308,100,23.0769)"><text fill="#000000" fill-opacity="1" font-family="Arial" font-size="10" font-style="normal" font-weight="400" stroke="none" textLength="56.5938" x="-28.2969" xml:space="preserve" y="3.5">Model Name</text></g><defs><clipPath id="clip18"><path d="M-2,-2 L102,-2 L102,47 L-2,47 L-2,-2 z"/></clipPath></defs><g clip-path="url(#clip18)" fill="none" opacity="1" stroke="#000000" stroke-linecap="butt" stroke-linejoin="miter" stroke-miterlimit="2" stroke-opacity="1" stroke-width="0.769842" transform="matrix(1.92308,0,0,1.92308,3.84615,3.84615)"><path d="M0,0 L100,0 L100,45 L0,45 L0,0 z" fill-rule="evenodd" vector-effect="none"/></g></g></svg>
