<?xml version="1.0" encoding="UTF-8"?><svg width="52.9167mm" height="44.9792mm" viewBox="0 0 200 170" xmlns="http://www.w3.org/2000/svg" xmlns:xlink="http://www.w3.org/1999/xlink"><g fill="none" stroke="black" stroke-width="1" fill-rule="evenodd" stroke-linecap="square" stroke-linejoin="bevel"><g clip-path="none" fill="none" opacity="1" stroke="none" stroke-opacity="0" transform="matrix(1,0,0,1,0,0)"><path d="M0,0 L200,0 L200,170 L0,170 L0,0 z" fill-rule="evenodd" vector-effect="none"/></g><defs><clipPath id="clip3"><path d="M7,23 L-47,23 L-47,-23 L7,-23 L7,23 z"/></clipPath></defs><g clip-path="url(#clip3)" fill="none" opacity="1" stroke="#000000" stroke-linecap="round" stroke-linejoin="miter" stroke-miterlimit="2" stroke-opacity="1" stroke-width="2" transform="matrix(-3.7037,0,0,-3.7037,25.9259,85.1852)"><path d="M5,-5 L0,0 L5,5" fill-rule="evenodd" vector-effect="none"/></g><defs><clipPath id="clip6"><path d="M-47,-23 L7,-23 L7,23 L-47,23 L-47,-23 z"/></clipPath></defs><g clip-path="url(#clip6)" fill="none" opacity="1" stroke="#000000" stroke-linecap="round" stroke-linejoin="miter" stroke-miterlimit="2" stroke-opacity="1" stroke-width="2" transform="matrix(3.7037,0,0,3.7037,174.074,85.1852)"><path d="M0,-5 L5,0 L0,5" fill-rule="evenodd" vector-effect="none"/></g><defs><clipPath id="clip9"><path d="M-7,-2 L47,-2 L47,44 L-7,44 L-7,-2 z"/></clipPath></defs><g clip-path="url(#clip9)" fill="#ffffff" fill-opacity="1" opacity="1" stroke="none" stroke-opacity="0" transform="matrix(3.7037,0,0,3.7037,25.9259,7.40741)"><path d="M0,0 L40,0 L40,42 L0,42 L0,0 z" fill-rule="evenodd" vector-effect="none"/></g><defs><clipPath id="clip13"><path d="M320,14 L360,14 L360,56 L320,56 L320,14 z"/></clipPath></defs><g clip-path="url(#clip13)" fill="none" opacity="1" stroke="#000000" stroke-linecap="butt" stroke-linejoin="miter" stroke-miterlimit="2" stroke-opacity="1" stroke-width="0.27" transform="matrix(3.7037,0,0,3.7037,-1157.41,-42.5926)"><polyline fill="none" points="324,35 356,35" vector-effect="none"/></g><defs><clipPath id="clip14"><path d="M320,14 L360,14 L360,56 L320,56 L320,14 z"/></clipPath></defs><g clip-path="url(#clip14)" fill="none" opacity="1" stroke="#000000" stroke-linecap="butt" stroke-linejoin="miter" stroke-miterlimit="2" stroke-opacity="1" stroke-width="0.27" transform="matrix(3.7037,0,0,3.7037,-1157.41,-42.5926)"><polyline fill="none" points="324,43 334,43 334,51 324,51 324,43 324,43" vector-effect="none"/></g><defs><clipPath id="clip15"><path d="M320,14 L360,14 L360,56 L320,56 L320,14 z"/></clipPath></defs><g clip-path="url(#clip15)" fill="none" opacity="1" stroke="#000000" stroke-linecap="butt" stroke-linejoin="miter" stroke-miterlimit="2" stroke-opacity="1" stroke-width="0.27" transform="matrix(3.7037,0,0,3.7037,-1157.41,-42.5926)"><polyline fill="none" points="326,43 326,51" vector-effect="none"/></g><defs><clipPath id="clip16"><path d="M320,14 L360,14 L360,56 L320,56 L320,14 z"/></clipPath></defs><g clip-path="url(#clip16)" fill="none" opacity="1" stroke="#000000" stroke-linecap="butt" stroke-linejoin="miter" stroke-miterlimit="2" stroke-opacity="1" stroke-width="0.27" transform="matrix(3.7037,0,0,3.7037,-1157.41,-42.5926)"><polyline fill="none" points="328,43 328,51" vector-effect="none"/></g><defs><clipPath id="clip17"><path d="M320,14 L360,14 L360,56 L320,56 L320,14 z"/></clipPath></defs><g clip-path="url(#clip17)" fill="none" opacity="1" stroke="#000000" stroke-linecap="butt" stroke-linejoin="miter" stroke-miterlimit="2" stroke-opacity="1" stroke-width="0.27" transform="matrix(3.7037,0,0,3.7037,-1157.41,-42.5926)"><polyline fill="none" points="330,43 330,51" vector-effect="none"/></g><defs><clipPath id="clip18"><path d="M320,14 L360,14 L360,56 L320,56 L320,14 z"/></clipPath></defs><g clip-path="url(#clip18)" fill="none" opacity="1" stroke="#000000" stroke-linecap="butt" stroke-linejoin="miter" stroke-miterlimit="2" stroke-opacity="1" stroke-width="0.27" transform="matrix(3.7037,0,0,3.7037,-1157.41,-42.5926)"><polyline fill="none" points="332,43 332,51" vector-effect="none"/></g><defs><clipPath id="clip19"><path d="M320,14 L360,14 L360,56 L320,56 L320,14 z"/></clipPath></defs><g clip-path="url(#clip19)" fill="none" opacity="1" stroke="#000000" stroke-linecap="butt" stroke-linejoin="miter" stroke-miterlimit="2" stroke-opacity="1" stroke-width="0.27" transform="matrix(3.7037,0,0,3.7037,-1157.41,-42.5926)"><polyline fill="none" points="334,26 346,26 346,18 334,18 334,26 334,26" vector-effect="none"/></g><defs><clipPath id="clip20"><path d="M320,14 L360,14 L360,56 L320,56 L320,14 z"/></clipPath></defs><g clip-path="url(#clip20)" fill="none" opacity="1" stroke="#000000" stroke-linecap="butt" stroke-linejoin="miter" stroke-miterlimit="2" stroke-opacity="1" stroke-width="0.27" transform="matrix(3.7037,0,0,3.7037,-1157.41,-42.5926)"><polyline fill="none" points="346,43 356,43 356,51 346,51 346,43 346,43" vector-effect="none"/></g><defs><clipPath id="clip21"><path d="M320,14 L360,14 L360,56 L320,56 L320,14 z"/></clipPath></defs><g clip-path="url(#clip21)" fill="none" opacity="1" stroke="#000000" stroke-linecap="butt" stroke-linejoin="miter" stroke-miterlimit="2" stroke-opacity="1" stroke-width="0.27" transform="matrix(3.7037,0,0,3.7037,-1157.41,-42.5926)"><polyline fill="none" points="348,43 348,51" vector-effect="none"/></g><defs><clipPath id="clip22"><path d="M320,14 L360,14 L360,56 L320,56 L320,14 z"/></clipPath></defs><g clip-path="url(#clip22)" fill="none" opacity="1" stroke="#000000" stroke-linecap="butt" stroke-linejoin="miter" stroke-miterlimit="2" stroke-opacity="1" stroke-width="0.27" transform="matrix(3.7037,0,0,3.7037,-1157.41,-42.5926)"><polyline fill="none" points="350,43 350,51" vector-effect="none"/></g><defs><clipPath id="clip23"><path d="M320,14 L360,14 L360,56 L320,56 L320,14 z"/></clipPath></defs><g clip-path="url(#clip23)" fill="none" opacity="1" stroke="#000000" stroke-linecap="butt" stroke-linejoin="miter" stroke-miterlimit="2" stroke-opacity="1" stroke-width="0.27" transform="matrix(3.7037,0,0,3.7037,-1157.41,-42.5926)"><polyline fill="none" points="352,43 352,51" vector-effect="none"/></g><defs><clipPath id="clip24"><path d="M320,14 L360,14 L360,56 L320,56 L320,14 z"/></clipPath></defs><g clip-path="url(#clip24)" fill="none" opacity="1" stroke="#000000" stroke-linecap="butt" stroke-linejoin="miter" stroke-miterlimit="2" stroke-opacity="1" stroke-width="0.27" transform="matrix(3.7037,0,0,3.7037,-1157.41,-42.5926)"><polyline fill="none" points="354,43 354,51" vector-effect="none"/></g><defs><clipPath id="clip25"><path d="M320,14 L360,14 L360,56 L320,56 L320,14 z"/></clipPath></defs><g clip-path="url(#clip25)" fill="none" opacity="1" stroke="#000000" stroke-linecap="butt" stroke-linejoin="miter" stroke-miterlimit="2" stroke-opacity="1" stroke-width="0.27" transform="matrix(3.7037,0,0,3.7037,-1157.41,-42.5926)"><polyline fill="none" points="334,28 335,30 334,28 333,30 334,28 334,28" vector-effect="none"/></g><defs><clipPath id="clip26"><path d="M320,14 L360,14 L360,56 L320,56 L320,14 z"/></clipPath></defs><g clip-path="url(#clip26)" fill="none" opacity="1" stroke="#000000" stroke-linecap="butt" stroke-linejoin="miter" stroke-miterlimit="2" stroke-opacity="1" stroke-width="0.27" transform="matrix(3.7037,0,0,3.7037,-1157.41,-42.5926)"><polyline fill="none" points="334,41 334,28" vector-effect="none"/></g><defs><clipPath id="clip27"><path d="M320,14 L360,14 L360,56 L320,56 L320,14 z"/></clipPath></defs><g clip-path="url(#clip27)" fill="none" opacity="1" stroke="#000000" stroke-linecap="butt" stroke-linejoin="miter" stroke-miterlimit="2" stroke-opacity="1" stroke-width="0.27" transform="matrix(3.7037,0,0,3.7037,-1157.41,-42.5926)"><polyline fill="none" points="346,41 345,39 346,41 347,39 346,41 346,41" vector-effect="none"/></g><defs><clipPath id="clip28"><path d="M320,14 L360,14 L360,56 L320,56 L320,14 z"/></clipPath></defs><g clip-path="url(#clip28)" fill="none" opacity="1" stroke="#000000" stroke-linecap="butt" stroke-linejoin="miter" stroke-miterlimit="2" stroke-opacity="1" stroke-width="0.27" transform="matrix(3.7037,0,0,3.7037,-1157.41,-42.5926)"><polyline fill="none" points="346,28 346,41" vector-effect="none"/></g><defs><clipPath id="clip33"><path d="M-7,-2 L47,-2 L47,44 L-7,44 L-7,-2 z"/></clipPath></defs><g clip-path="url(#clip33)" fill="none" opacity="1" stroke="#000000" stroke-linecap="butt" stroke-linejoin="miter" stroke-miterlimit="2" stroke-opacity="1" stroke-width="0.592305" transform="matrix(3.7037,0,0,3.7037,25.9259,7.40741)"><path d="M0,0 L40,0 L40,42 L0,42 L0,0 z" fill-rule="evenodd" vector-effect="none"/></g></g></svg>
