<?xml version="1.0" encoding="UTF-8"?><svg width="52.9167mm" height="21.9604mm" viewBox="0 0 200 83" xmlns="http://www.w3.org/2000/svg" xmlns:xlink="http://www.w3.org/1999/xlink"><g fill="none" stroke="black" stroke-width="1" fill-rule="evenodd" stroke-linecap="square" stroke-linejoin="bevel"><g clip-path="none" fill="none" opacity="1" stroke="none" stroke-opacity="0" transform="matrix(1,0,0,1,0,0)"><path d="M0,0 L200,0 L200,83 L0,83 L0,0 z" fill-rule="evenodd" vector-effect="none"/></g><defs><clipPath id="clip3"><path d="M-142,-51 L7,-51 L7,11 L-142,11 L-142,-51 z"/></clipPath></defs><g clip-path="url(#clip3)" fill="none" opacity="1" stroke="#000000" stroke-linecap="round" stroke-linejoin="miter" stroke-miterlimit="2" stroke-opacity="1" stroke-width="2" transform="matrix(1.34228,0,0,1.34228,190.604,68.4564)"><path d="M0,-5 L5,0 L0,5" fill-rule="evenodd" vector-effect="none"/></g><defs><clipPath id="clip6"><path d="M-142,-41 L7,-41 L7,21 L-142,21 L-142,-41 z"/></clipPath></defs><g clip-path="url(#clip6)" fill="none" opacity="1" stroke="#000000" stroke-linecap="round" stroke-linejoin="miter" stroke-miterlimit="2" stroke-opacity="1" stroke-width="2" transform="matrix(1.34228,0,0,1.34228,190.604,55.0336)"><path d="M0,-5 L5,0 L0,5" fill-rule="evenodd" vector-effect="none"/></g><defs><clipPath id="clip9"><path d="M-142,-31 L7,-31 L7,31 L-142,31 L-142,-31 z"/></clipPath></defs><g clip-path="url(#clip9)" fill="none" opacity="1" stroke="#000000" stroke-linecap="round" stroke-linejoin="miter" stroke-miterlimit="2" stroke-opacity="1" stroke-width="2" transform="matrix(1.34228,0,0,1.34228,190.604,41.6107)"><path d="M0,-5 L5,0 L0,5" fill-rule="evenodd" vector-effect="none"/></g><defs><clipPath id="clip12"><path d="M-142,-11 L7,-11 L7,51 L-142,51 L-142,-11 z"/></clipPath></defs><g clip-path="url(#clip12)" fill="none" opacity="1" stroke="#000000" stroke-linecap="round" stroke-linejoin="miter" stroke-miterlimit="2" stroke-opacity="1" stroke-width="2" transform="matrix(1.34228,0,0,1.34228,190.604,14.7651)"><path d="M0,-5 L5,0 L0,5" fill-rule="evenodd" vector-effect="none"/></g><defs><clipPath id="clip15"><path d="M7,31 L-142,31 L-142,-31 L7,-31 L7,31 z"/></clipPath></defs><g clip-path="url(#clip15)" fill="none" opacity="1" stroke="#000000" stroke-linecap="round" stroke-linejoin="miter" stroke-miterlimit="2" stroke-opacity="1" stroke-width="2" transform="matrix(-1.34228,0,0,-1.34228,9.39597,41.6107)"><path d="M5,-5 L0,0 L5,5" fill-rule="evenodd" vector-effect="none"/></g><defs><clipPath id="clip18"><path d="M-142,-21 L7,-21 L7,41 L-142,41 L-142,-21 z"/></clipPath></defs><g clip-path="url(#clip18)" fill="none" opacity="1" stroke="#000000" stroke-linecap="round" stroke-linejoin="miter" stroke-miterlimit="2" stroke-opacity="1" stroke-width="2" transform="matrix(1.34228,0,0,1.34228,190.604,28.1879)"><path d="M0,-5 L5,0 L0,5" fill-rule="evenodd" vector-effect="none"/></g><defs><clipPath id="clip21"><path d="M-7,-2 L142,-2 L142,60 L-7,60 L-7,-2 z"/></clipPath></defs><g clip-path="url(#clip21)" fill="#ffffff" fill-opacity="1" opacity="1" stroke="none" stroke-opacity="0" transform="matrix(1.34228,0,0,1.34228,9.39597,2.68456)"><path d="M0,0 L135,0 L135,58 L0,58 L0,0 z" fill-rule="evenodd" vector-effect="none"/></g><defs><clipPath id="clip26"><path d="M-67,-29 L68,-29 L68,29 L-67,29 L-67,-29 z"/></clipPath></defs><g clip-path="url(#clip26)" fill="none" opacity="1" stroke="#000000" stroke-linecap="butt" stroke-linejoin="miter" stroke-miterlimit="2" stroke-opacity="1" stroke-width="0.745" transform="matrix(1.34228,0,0,1.34228,99.3289,41.6107)"><text fill="#000000" fill-opacity="1" font-family="Arial" font-size="10" font-style="normal" font-weight="400" stroke="none" textLength="128.734" x="-64.3594" xml:space="preserve" y="3.5">W:0, Ts:[-1, 0], C:0, D:[0], F:0</text></g><defs><clipPath id="clip32"><path d="M-7,-2 L142,-2 L142,60 L-7,60 L-7,-2 z"/></clipPath></defs><g clip-path="url(#clip32)" fill="none" opacity="1" stroke="#000000" stroke-linecap="butt" stroke-linejoin="miter" stroke-miterlimit="2" stroke-opacity="1" stroke-width="0.88892" transform="matrix(1.34228,0,0,1.34228,9.39597,2.68456)"><path d="M0,0 L135,0 L135,58 L0,58 L0,0 z" fill-rule="evenodd" vector-effect="none"/></g></g></svg>
