<?xml version="1.0" encoding="UTF-8"?><svg width="52.9167mm" height="34.3958mm" viewBox="0 0 200 130" xmlns="http://www.w3.org/2000/svg" xmlns:xlink="http://www.w3.org/1999/xlink"><g fill="none" stroke="black" stroke-width="1" fill-rule="evenodd" stroke-linecap="square" stroke-linejoin="bevel"><g clip-path="none" fill="none" opacity="1" stroke="none" stroke-opacity="0" transform="matrix(1,0,0,1,0,0)"><path d="M0,0 L200,0 L200,130 L0,130 L0,0 z" fill-rule="evenodd" vector-effect="none"/></g><defs><clipPath id="clip3"><path d="M-42,-16 L7,-16 L7,16 L-42,16 L-42,-16 z"/></clipPath></defs><g clip-path="url(#clip3)" fill="none" opacity="1" stroke="#000000" stroke-linecap="round" stroke-linejoin="miter" stroke-miterlimit="2" stroke-opacity="1" stroke-width="2" transform="matrix(4.08163,0,0,4.08163,171.429,65.3061)"><path d="M0,-5 L5,0 L0,5" fill-rule="evenodd" vector-effect="none"/></g><defs><clipPath id="clip6"><path d="M-2,-2 L47,-2 L47,30 L-2,30 L-2,-2 z"/></clipPath></defs><g clip-path="url(#clip6)" fill="#ffffff" fill-opacity="1" opacity="1" stroke="none" stroke-opacity="0" transform="matrix(4.08163,0,0,4.08163,8.16327,8.16327)"><path d="M0,0 L30,0 L40,14 L30,28 L0,28 L0,0 z" fill-rule="nonzero" vector-effect="none"/></g><defs><clipPath id="clip11"><path d="M-14,-13 L26,-13 L26,15 L-14,15 L-14,-13 z"/></clipPath></defs><g clip-path="url(#clip11)" fill="none" opacity="1" stroke="#000000" stroke-linecap="butt" stroke-linejoin="miter" stroke-miterlimit="2" stroke-opacity="1" stroke-width="0.245" transform="matrix(4.08163,0,0,4.08163,65.3061,61.2245)"><text fill="#000000" fill-opacity="1" font-family="Arial" font-size="10" font-style="normal" font-weight="400" stroke="none" textLength="12.1875" x="-6.09375" xml:space="preserve" y="3.5">[A]</text></g><defs><clipPath id="clip17"><path d="M-2,-2 L47,-2 L47,30 L-2,30 L-2,-2 z"/></clipPath></defs><g clip-path="url(#clip17)" fill="none" opacity="1" stroke="#000000" stroke-linecap="butt" stroke-linejoin="miter" stroke-miterlimit="2" stroke-opacity="1" stroke-width="0.569727" transform="matrix(4.08163,0,0,4.08163,8.16327,8.16327)"><path d="M0,0 L30,0 L40,14 L30,28 L0,28 L0,0 z" fill-rule="nonzero" vector-effect="none"/></g></g></svg>
