<?xml version="1.0" encoding="UTF-8"?><svg width="52.9167mm" height="17.9917mm" viewBox="0 0 200 68" xmlns="http://www.w3.org/2000/svg" xmlns:xlink="http://www.w3.org/1999/xlink"><g fill="none" stroke="black" stroke-width="1" fill-rule="evenodd" stroke-linecap="square" stroke-linejoin="bevel"><g clip-path="none" fill="none" opacity="1" stroke="none" stroke-opacity="0" transform="matrix(1,0,0,1,0,0)"><path d="M0,0 L200,0 L200,68 L0,68 L0,0 z" fill-rule="evenodd" vector-effect="none"/></g><defs><clipPath id="clip3"><path d="M7,17 L-92,17 L-92,-17 L7,-17 L7,17 z"/></clipPath></defs><g clip-path="url(#clip3)" fill="none" opacity="1" stroke="#000000" stroke-linecap="round" stroke-linejoin="miter" stroke-miterlimit="2" stroke-opacity="1" stroke-width="2" transform="matrix(-2.0202,0,0,-2.0202,14.1414,34.3434)"><path d="M5,-5 L0,0 L5,5" fill-rule="evenodd" vector-effect="none"/></g><defs><clipPath id="clip6"><path d="M-7,-2 L92,-2 L92,32 L-7,32 L-7,-2 z"/></clipPath></defs><g clip-path="url(#clip6)" fill="#ffffff" fill-opacity="1" opacity="1" stroke="none" stroke-opacity="0" transform="matrix(2.0202,0,0,2.0202,14.1414,4.0404)"><path d="M0,0 L90,0 L90,30 L0,30 L0,0 z" fill-rule="evenodd" vector-effect="none"/></g><defs><clipPath id="clip14"><path d="M-7,-2 L92,-2 L92,32 L-7,32 L-7,-2 z"/></clipPath></defs><g clip-path="url(#clip14)" fill="none" opacity="1" stroke="#000000" stroke-linecap="butt" stroke-linejoin="miter" stroke-miterlimit="2" stroke-opacity="1" stroke-width="0.754818" transform="matrix(2.0202,0,0,2.0202,14.1414,4.0404)"><path d="M0,0 L90,0 L90,30 L0,30 L0,0 z" fill-rule="evenodd" vector-effect="none"/></g><defs><clipPath id="clip18"><path d="M0,1 L88,1 L88,29 L0,29 L0,1 z"/></clipPath></defs><g clip-path="url(#clip18)" fill="none" opacity="1" stroke="none" stroke-opacity="0" transform="matrix(2.0202,0,0,2.0202,14.1414,4.0404)"><path d="M0,1 L88,1 L88,29 L0,29 L0,1 z" fill-rule="evenodd" vector-effect="none"/></g><defs><clipPath id="clip25"><path d="M0,1 L64,1 L64,21 L0,21 L0,1 z"/></clipPath></defs><g clip-path="url(#clip25)" fill="none" opacity="1" stroke="none" stroke-opacity="0" transform="matrix(2.0202,0,0,2.0202,14.1414,4.0404)"><path d="M0,3 C0,1.34315 1.34315,0 3,0 L60.4688,0 C62.1256,0 63.4688,1.34315 63.4688,3 L63.4688,18 C63.4688,19.6569 62.1256,21 60.4688,21 L3,21 C1.34315,21 0,19.6569 0,18 L0,3 z" fill-rule="evenodd" vector-effect="none"/></g><defs><clipPath id="clip32"><path d="M-2,-2 L60,-2 L60,0 L60,16 L60,18 L-2,18 L-2,16 L-3,16 L-3,0 L-2,0"/></clipPath></defs><g clip-path="url(#clip32)" fill="none" opacity="1" stroke="#000000" stroke-linecap="butt" stroke-linejoin="miter" stroke-miterlimit="2" stroke-opacity="1" stroke-width="0.495" transform="matrix(2.0202,0,0,2.0202,20.202,10.101)"><path d="M0,0 L57.4688,0 L57.4688,15 L0,15 L0,0 z" fill-rule="evenodd" vector-effect="none"/></g><defs><clipPath id="clip35"><path d="M-60,-10 L2,-10 L2,-9 L3,-9 L3,10 L-60,10 L-60,-9"/></clipPath></defs><g clip-path="url(#clip35)" fill="none" opacity="1" stroke="none" stroke-opacity="0" transform="matrix(2.0202,0,0,2.0202,136.301,25.2525)"><path d="M-2,-7.5 L0,-7.5 L0,7.5 L-2,7.5 L-2,-7.5 z" fill-rule="evenodd" vector-effect="none"/></g></g></svg>
