<?xml version="1.0" encoding="UTF-8"?><svg width="52.9167mm" height="47.8896mm" viewBox="0 0 200 181" xmlns="http://www.w3.org/2000/svg" xmlns:xlink="http://www.w3.org/1999/xlink"><g fill="none" stroke="black" stroke-width="1" fill-rule="evenodd" stroke-linecap="square" stroke-linejoin="bevel"><g clip-path="none" fill="none" opacity="1" stroke="none" stroke-opacity="0" transform="matrix(1,0,0,1,0,0)"><path d="M0,0 L200,0 L200,181 L0,181 L0,0 z" fill-rule="evenodd" vector-effect="none"/></g><defs><clipPath id="clip3"><path d="M7,20 L-37,20 L-37,-20 L7,-20 L7,20 z"/></clipPath></defs><g clip-path="url(#clip3)" fill="none" opacity="1" stroke="#000000" stroke-linecap="round" stroke-linejoin="miter" stroke-miterlimit="2" stroke-opacity="1" stroke-width="2" transform="matrix(-4.54545,0,0,-4.54545,31.8182,90.9091)"><path d="M5,-5 L0,0 L5,5" fill-rule="evenodd" vector-effect="none"/></g><defs><clipPath id="clip6"><path d="M-7,-2 L37,-2 L37,38 L-7,38 L-7,-2 z"/></clipPath></defs><g clip-path="url(#clip6)" fill="#ffffff" fill-opacity="1" opacity="1" stroke="none" stroke-opacity="0" transform="matrix(4.54545,0,0,4.54545,31.8182,9.09091)"><path d="M8.75,0 L26.25,0 L35,9 L35,27 L26.25,36 L8.75,36 L0,27 L0,9 L8.75,0 z" fill-rule="nonzero" vector-effect="none"/></g><defs><clipPath id="clip11"><path d="M-17,-18 L18,-18 L18,18 L-17,18 L-17,-18 z"/></clipPath></defs><g clip-path="url(#clip11)" fill="none" opacity="1" stroke="#000000" stroke-linecap="butt" stroke-linejoin="miter" stroke-miterlimit="2" stroke-opacity="1" stroke-width="0.22" transform="matrix(4.54545,0,0,4.54545,109.091,90.9091)"><text fill="#000000" fill-opacity="1" font-family="Arial" font-size="10" font-style="normal" font-weight="400" stroke="none" textLength="26.9844" x="-13.4844" xml:space="preserve" y="3.5">STOP</text></g><defs><clipPath id="clip17"><path d="M-7,-2 L37,-2 L37,38 L-7,38 L-7,-2 z"/></clipPath></defs><g clip-path="url(#clip17)" fill="none" opacity="1" stroke="#000000" stroke-linecap="butt" stroke-linejoin="miter" stroke-miterlimit="2" stroke-opacity="1" stroke-width="0.545719" transform="matrix(4.54545,0,0,4.54545,31.8182,9.09091)"><path d="M8.75,0 L26.25,0 L35,9 L35,27 L26.25,36 L8.75,36 L0,27 L0,9 L8.75,0 z" fill-rule="nonzero" vector-effect="none"/></g></g></svg>
