<?xml version="1.0" encoding="UTF-8"?><svg width="52.9167mm" height="46.0375mm" viewBox="0 0 200 174" xmlns="http://www.w3.org/2000/svg" xmlns:xlink="http://www.w3.org/1999/xlink"><g fill="none" stroke="black" stroke-width="1" fill-rule="evenodd" stroke-linecap="square" stroke-linejoin="bevel"><g clip-path="none" fill="none" opacity="1" stroke="none" stroke-opacity="0" transform="matrix(1,0,0,1,0,0)"><path d="M0,0 L200,0 L200,174 L0,174 L0,0 z" fill-rule="evenodd" vector-effect="none"/></g><defs><clipPath id="clip3"><path d="M-32,-17 L7,-17 L7,17 L-32,17 L-32,-17 z"/></clipPath></defs><g clip-path="url(#clip3)" fill="none" opacity="1" stroke="#000000" stroke-linecap="round" stroke-linejoin="miter" stroke-miterlimit="2" stroke-opacity="1" stroke-width="2" transform="matrix(5.12821,0,0,5.12821,164.103,87.1795)"><path d="M0,-5 L5,0 L0,5" fill-rule="evenodd" vector-effect="none"/></g><defs><clipPath id="clip6"><path d="M-2,-2 L37,-2 L37,32 L-2,32 L-2,-2 z"/></clipPath></defs><g clip-path="url(#clip6)" fill="#ffffff" fill-opacity="1" opacity="1" stroke="none" stroke-opacity="0" transform="matrix(5.12821,0,0,5.12821,10.2564,10.2564)"><path d="M0,0 L30,0 L30,30 L0,30 L0,0 z" fill-rule="evenodd" vector-effect="none"/></g><defs><clipPath id="clip10"><path d="M204,135 L234,135 L234,165 L204,165 L204,135 z"/></clipPath></defs><g clip-path="url(#clip10)" fill="none" opacity="1" stroke="#000000" stroke-linecap="butt" stroke-linejoin="miter" stroke-miterlimit="2" stroke-opacity="1" stroke-width="0.195" transform="matrix(5.12821,0,0,5.12821,-1038.46,-679.487)"><polyline fill="none" points="212,155 214,155" vector-effect="none"/></g><defs><clipPath id="clip11"><path d="M204,135 L234,135 L234,165 L204,165 L204,135 z"/></clipPath></defs><g clip-path="url(#clip11)" fill="none" opacity="1" stroke="#000000" stroke-linecap="butt" stroke-linejoin="miter" stroke-miterlimit="2" stroke-opacity="1" stroke-width="0.195" transform="matrix(5.12821,0,0,5.12821,-1038.46,-679.487)"><polyline fill="none" points="214,155 214,150" vector-effect="none"/></g><defs><clipPath id="clip12"><path d="M204,135 L234,135 L234,165 L204,165 L204,135 z"/></clipPath></defs><g clip-path="url(#clip12)" fill="none" opacity="1" stroke="#000000" stroke-linecap="butt" stroke-linejoin="miter" stroke-miterlimit="2" stroke-opacity="1" stroke-width="0.195" transform="matrix(5.12821,0,0,5.12821,-1038.46,-679.487)"><polyline fill="none" points="214,150 216,150" vector-effect="none"/></g><defs><clipPath id="clip13"><path d="M204,135 L234,135 L234,165 L204,165 L204,135 z"/></clipPath></defs><g clip-path="url(#clip13)" fill="none" opacity="1" stroke="#000000" stroke-linecap="butt" stroke-linejoin="miter" stroke-miterlimit="2" stroke-opacity="1" stroke-width="0.195" transform="matrix(5.12821,0,0,5.12821,-1038.46,-679.487)"><polyline fill="none" points="216,150 216,144" vector-effect="none"/></g><defs><clipPath id="clip14"><path d="M204,135 L234,135 L234,165 L204,165 L204,135 z"/></clipPath></defs><g clip-path="url(#clip14)" fill="none" opacity="1" stroke="#000000" stroke-linecap="butt" stroke-linejoin="miter" stroke-miterlimit="2" stroke-opacity="1" stroke-width="0.195" transform="matrix(5.12821,0,0,5.12821,-1038.46,-679.487)"><polyline fill="none" points="216,144 219,144" vector-effect="none"/></g><defs><clipPath id="clip15"><path d="M204,135 L234,135 L234,165 L204,165 L204,135 z"/></clipPath></defs><g clip-path="url(#clip15)" fill="none" opacity="1" stroke="#000000" stroke-linecap="butt" stroke-linejoin="miter" stroke-miterlimit="2" stroke-opacity="1" stroke-width="0.195" transform="matrix(5.12821,0,0,5.12821,-1038.46,-679.487)"><polyline fill="none" points="219,144 219,139" vector-effect="none"/></g><defs><clipPath id="clip16"><path d="M204,135 L234,135 L234,165 L204,165 L204,135 z"/></clipPath></defs><g clip-path="url(#clip16)" fill="none" opacity="1" stroke="#000000" stroke-linecap="butt" stroke-linejoin="miter" stroke-miterlimit="2" stroke-opacity="1" stroke-width="0.195" transform="matrix(5.12821,0,0,5.12821,-1038.46,-679.487)"><polyline fill="none" points="219,139 221,139" vector-effect="none"/></g><defs><clipPath id="clip17"><path d="M204,135 L234,135 L234,165 L204,165 L204,135 z"/></clipPath></defs><g clip-path="url(#clip17)" fill="none" opacity="1" stroke="#000000" stroke-linecap="butt" stroke-linejoin="miter" stroke-miterlimit="2" stroke-opacity="1" stroke-width="0.195" transform="matrix(5.12821,0,0,5.12821,-1038.46,-679.487)"><polyline fill="none" points="221,139 221,155" vector-effect="none"/></g><defs><clipPath id="clip18"><path d="M204,135 L234,135 L234,165 L204,165 L204,135 z"/></clipPath></defs><g clip-path="url(#clip18)" fill="none" opacity="1" stroke="#000000" stroke-linecap="butt" stroke-linejoin="miter" stroke-miterlimit="2" stroke-opacity="1" stroke-width="0.195" transform="matrix(5.12821,0,0,5.12821,-1038.46,-679.487)"><polyline fill="none" points="221,155 224,155" vector-effect="none"/></g><defs><clipPath id="clip19"><path d="M204,135 L234,135 L234,165 L204,165 L204,135 z"/></clipPath></defs><g clip-path="url(#clip19)" fill="none" opacity="1" stroke="#000000" stroke-linecap="butt" stroke-linejoin="miter" stroke-miterlimit="2" stroke-opacity="1" stroke-width="0.195" transform="matrix(5.12821,0,0,5.12821,-1038.46,-679.487)"><polyline fill="none" points="224,155 224,150" vector-effect="none"/></g><defs><clipPath id="clip20"><path d="M204,135 L234,135 L234,165 L204,165 L204,135 z"/></clipPath></defs><g clip-path="url(#clip20)" fill="none" opacity="1" stroke="#000000" stroke-linecap="butt" stroke-linejoin="miter" stroke-miterlimit="2" stroke-opacity="1" stroke-width="0.195" transform="matrix(5.12821,0,0,5.12821,-1038.46,-679.487)"><polyline fill="none" points="224,150 226,150" vector-effect="none"/></g><defs><clipPath id="clip21"><path d="M204,135 L234,135 L234,165 L204,165 L204,135 z"/></clipPath></defs><g clip-path="url(#clip21)" fill="none" opacity="1" stroke="#000000" stroke-linecap="butt" stroke-linejoin="miter" stroke-miterlimit="2" stroke-opacity="1" stroke-width="0.195" transform="matrix(5.12821,0,0,5.12821,-1038.46,-679.487)"><polyline fill="none" points="226,150 226,144" vector-effect="none"/></g><defs><clipPath id="clip22"><path d="M204,135 L234,135 L234,165 L204,165 L204,135 z"/></clipPath></defs><g clip-path="url(#clip22)" fill="none" opacity="1" stroke="#000000" stroke-linecap="butt" stroke-linejoin="miter" stroke-miterlimit="2" stroke-opacity="1" stroke-width="0.195" transform="matrix(5.12821,0,0,5.12821,-1038.46,-679.487)"><polyline fill="none" points="226,144 228,144" vector-effect="none"/></g><defs><clipPath id="clip23"><path d="M204,135 L234,135 L234,165 L204,165 L204,135 z"/></clipPath></defs><g clip-path="url(#clip23)" fill="none" opacity="1" stroke="#000000" stroke-linecap="butt" stroke-linejoin="miter" stroke-miterlimit="2" stroke-opacity="1" stroke-width="0.195" transform="matrix(5.12821,0,0,5.12821,-1038.46,-679.487)"><polyline fill="none" points="228,144 228,139" vector-effect="none"/></g><defs><clipPath id="clip24"><path d="M204,135 L234,135 L234,165 L204,165 L204,135 z"/></clipPath></defs><g clip-path="url(#clip24)" fill="none" opacity="1" stroke="#000000" stroke-linecap="butt" stroke-linejoin="miter" stroke-miterlimit="2" stroke-opacity="1" stroke-width="0.195" transform="matrix(5.12821,0,0,5.12821,-1038.46,-679.487)"><polyline fill="none" points="228,139 231,139" vector-effect="none"/></g><defs><clipPath id="clip25"><path d="M204,135 L234,135 L234,165 L204,165 L204,135 z"/></clipPath></defs><g clip-path="url(#clip25)" fill="none" opacity="1" stroke="#000000" stroke-linecap="butt" stroke-linejoin="miter" stroke-miterlimit="2" stroke-opacity="1" stroke-width="0.195" transform="matrix(5.12821,0,0,5.12821,-1038.46,-679.487)"><polyline fill="none" points="231,139 231,155" vector-effect="none"/></g><defs><clipPath id="clip27"><path d="M-1,-6 L29,-6 L29,24 L-1,24 L-1,-6 z"/></clipPath></defs><g clip-path="url(#clip27)" fill="none" opacity="1" stroke="#000000" stroke-linecap="butt" stroke-linejoin="miter" stroke-miterlimit="2" stroke-opacity="1" stroke-width="0.195" transform="matrix(5.12821,0,0,5.12821,15.3846,41.0256)"><text fill="#000000" fill-opacity="1" font-family="Arial" font-size="10" font-style="normal" font-weight="400" stroke="none" textLength="12.7656" x="0" xml:space="preserve" y="3.5">lim</text></g><defs><clipPath id="clip33"><path d="M-2,-2 L37,-2 L37,32 L-2,32 L-2,-2 z"/></clipPath></defs><g clip-path="url(#clip33)" fill="none" opacity="1" stroke="#000000" stroke-linecap="butt" stroke-linejoin="miter" stroke-miterlimit="2" stroke-opacity="1" stroke-width="0.520013" transform="matrix(5.12821,0,0,5.12821,10.2564,10.2564)"><path d="M0,0 L30,0 L30,30 L0,30 L0,0 z" fill-rule="evenodd" vector-effect="none"/></g></g></svg>
