<?xml version="1.0" encoding="UTF-8"?><svg width="52.9167mm" height="48.9479mm" viewBox="0 0 200 185" xmlns="http://www.w3.org/2000/svg" xmlns:xlink="http://www.w3.org/1999/xlink"><g fill="none" stroke="black" stroke-width="1" fill-rule="evenodd" stroke-linecap="square" stroke-linejoin="bevel"><g clip-path="none" fill="none" opacity="1" stroke="none" stroke-opacity="0" transform="matrix(1,0,0,1,0,0)"><path d="M0,0 L200,0 L200,185 L0,185 L0,0 z" fill-rule="evenodd" vector-effect="none"/></g><defs><clipPath id="clip3"><path d="M7,107 L-127,107 L-127,-17 L7,-17 L7,107 z"/></clipPath></defs><g clip-path="url(#clip3)" fill="none" opacity="1" stroke="#000000" stroke-linecap="round" stroke-linejoin="miter" stroke-miterlimit="2" stroke-opacity="1" stroke-width="2" transform="matrix(-1.49254,0,0,-1.49254,10.4478,159.701)"><path d="M5,-5 L0,0 L5,5" fill-rule="evenodd" vector-effect="none"/></g><defs><clipPath id="clip6"><path d="M7,47 L-127,47 L-127,-77 L7,-77 L7,47 z"/></clipPath></defs><g clip-path="url(#clip6)" fill="none" opacity="1" stroke="#000000" stroke-linecap="round" stroke-linejoin="miter" stroke-miterlimit="2" stroke-opacity="1" stroke-width="2" transform="matrix(-1.49254,0,0,-1.49254,10.4478,70.1493)"><path d="M5,-5 L0,0 L5,5" fill-rule="evenodd" vector-effect="none"/></g><defs><clipPath id="clip9"><path d="M7,17 L-127,17 L-127,-107 L7,-107 L7,17 z"/></clipPath></defs><g clip-path="url(#clip9)" fill="none" opacity="1" stroke="#000000" stroke-linecap="round" stroke-linejoin="miter" stroke-miterlimit="2" stroke-opacity="1" stroke-width="2" transform="matrix(-1.49254,0,0,-1.49254,10.4478,25.3731)"><path d="M5,-5 L0,0 L5,5" fill-rule="evenodd" vector-effect="none"/></g><defs><clipPath id="clip12"><path d="M7,77 L-127,77 L-127,-47 L7,-47 L7,77 z"/></clipPath></defs><g clip-path="url(#clip12)" fill="none" opacity="1" stroke="#000000" stroke-linecap="round" stroke-linejoin="miter" stroke-miterlimit="2" stroke-opacity="1" stroke-width="2" transform="matrix(-1.49254,0,0,-1.49254,10.4478,114.925)"><path d="M5,-5 L0,0 L5,5" fill-rule="evenodd" vector-effect="none"/></g><defs><clipPath id="clip15"><path d="M-127,-62 L7,-62 L7,62 L-127,62 L-127,-62 z"/></clipPath></defs><g clip-path="url(#clip15)" fill="none" opacity="1" stroke="#000000" stroke-linecap="round" stroke-linejoin="miter" stroke-miterlimit="2" stroke-opacity="1" stroke-width="2" transform="matrix(1.49254,0,0,1.49254,189.552,92.5373)"><path d="M0,-5 L5,0 L0,5" fill-rule="evenodd" vector-effect="none"/></g><defs><clipPath id="clip18"><path d="M-7,-2 L127,-2 L127,122 L-7,122 L-7,-2 z"/></clipPath></defs><g clip-path="url(#clip18)" fill="#ffffff" fill-opacity="1" opacity="1" stroke="none" stroke-opacity="0" transform="matrix(1.49254,0,0,1.49254,10.4478,2.98507)"><path d="M0,0 L120,0 L120,120 L0,120 L0,0 z" fill-rule="evenodd" vector-effect="none"/></g><defs><clipPath id="clip23"><path d="M-307,-282 L307,-282 L307,332 L-307,332 L-307,-282 z"/></clipPath></defs><g clip-path="url(#clip23)" fill="none" opacity="1" stroke="#000000" stroke-linecap="butt" stroke-linejoin="miter" stroke-miterlimit="2" stroke-opacity="1" stroke-width="0.67" transform="matrix(0.291511,0,0,0.291511,100,85.0746)"><text fill="#000000" fill-opacity="1" font-family="Liberation Sans" font-size="40" font-style="normal" font-weight="400" stroke="none" textLength="153" x="-99.5781" xml:space="preserve" y="17.9219">Adaptive</text></g><defs><clipPath id="clip26"><path d="M-307,-333 L307,-333 L307,281 L-307,281 L-307,-333 z"/></clipPath></defs><g clip-path="url(#clip26)" fill="none" opacity="1" stroke="#000000" stroke-linecap="butt" stroke-linejoin="miter" stroke-miterlimit="2" stroke-opacity="1" stroke-width="0.67" transform="matrix(0.291511,0,0,0.291511,100,100)"><text fill="#000000" fill-opacity="1" font-family="Liberation Sans" font-size="40" font-style="normal" font-weight="400" stroke="none" textLength="89" x="-56.8594" xml:space="preserve" y="17.9219">MPC</text></g><defs><clipPath id="clip29"><path d="M-599,-307 L15,-307 L15,307 L-599,307 L-599,-307 z"/></clipPath></defs><g clip-path="url(#clip29)" fill="none" opacity="1" stroke="#000000" stroke-linecap="butt" stroke-linejoin="miter" stroke-miterlimit="2" stroke-opacity="1" stroke-width="0.67" transform="matrix(0.291511,0,0,0.291511,185.075,92.5373)"><text fill="#000000" fill-opacity="1" font-family="Liberation Sans" font-size="40" font-style="normal" font-weight="400" stroke="none" textLength="53" x="-68.2344" xml:space="preserve" y="17.9219">mv</text></g><defs><clipPath id="clip32"><path d="M-15,-77 L599,-77 L599,537 L-15,537 L-15,-77 z"/></clipPath></defs><g clip-path="url(#clip32)" fill="none" opacity="1" stroke="#000000" stroke-linecap="butt" stroke-linejoin="miter" stroke-miterlimit="2" stroke-opacity="1" stroke-width="0.67" transform="matrix(0.291511,0,0,0.291511,14.9254,25.3731)"><text fill="#000000" fill-opacity="1" font-family="Liberation Sans" font-size="40" font-style="normal" font-weight="400" stroke="none" textLength="108" x="0" xml:space="preserve" y="17.9219">model</text></g><defs><clipPath id="clip35"><path d="M-15,-230 L599,-230 L599,384 L-15,384 L-15,-230 z"/></clipPath></defs><g clip-path="url(#clip35)" fill="none" opacity="1" stroke="#000000" stroke-linecap="butt" stroke-linejoin="miter" stroke-miterlimit="2" stroke-opacity="1" stroke-width="0.67" transform="matrix(0.291511,0,0,0.291511,14.9254,70.1493)"><text fill="#000000" fill-opacity="1" font-family="Liberation Sans" font-size="40" font-style="normal" font-weight="400" stroke="none" textLength="56" x="0" xml:space="preserve" y="17.9219">mo</text></g><defs><clipPath id="clip38"><path d="M-15,-384 L599,-384 L599,230 L-15,230 L-15,-384 z"/></clipPath></defs><g clip-path="url(#clip38)" fill="none" opacity="1" stroke="#000000" stroke-linecap="butt" stroke-linejoin="miter" stroke-miterlimit="2" stroke-opacity="1" stroke-width="0.67" transform="matrix(0.291511,0,0,0.291511,14.9254,114.925)"><text fill="#000000" fill-opacity="1" font-family="Liberation Sans" font-size="40" font-style="normal" font-weight="400" stroke="none" textLength="47" x="0" xml:space="preserve" y="17.9219">ref</text></g><defs><clipPath id="clip41"><path d="M-15,-538 L599,-538 L599,76 L-15,76 L-15,-538 z"/></clipPath></defs><g clip-path="url(#clip41)" fill="none" opacity="1" stroke="#000000" stroke-linecap="butt" stroke-linejoin="miter" stroke-miterlimit="2" stroke-opacity="1" stroke-width="0.67" transform="matrix(0.291511,0,0,0.291511,14.9254,159.701)"><text fill="#000000" fill-opacity="1" font-family="Liberation Sans" font-size="40" font-style="normal" font-weight="400" stroke="none" textLength="56" x="0" xml:space="preserve" y="17.9219">md</text></g><defs><clipPath id="clip47"><path d="M-7,-2 L127,-2 L127,122 L-7,122 L-7,-2 z"/></clipPath></defs><g clip-path="url(#clip47)" fill="none" opacity="1" stroke="#000000" stroke-linecap="butt" stroke-linejoin="miter" stroke-miterlimit="2" stroke-opacity="1" stroke-width="0.851981" transform="matrix(1.49254,0,0,1.49254,10.4478,2.98507)"><path d="M0,0 L120,0 L120,120 L0,120 L0,0 z" fill-rule="evenodd" vector-effect="none"/></g></g></svg>
