<?xml version="1.0" encoding="UTF-8"?><svg width="50.2708mm" height="52.9167mm" viewBox="0 0 190 200" xmlns="http://www.w3.org/2000/svg" xmlns:xlink="http://www.w3.org/1999/xlink"><g fill="none" stroke="black" stroke-width="1" fill-rule="evenodd" stroke-linecap="square" stroke-linejoin="bevel"><g clip-path="none" fill="none" opacity="1" stroke="none" stroke-opacity="0" transform="matrix(1,0,0,1,0,0)"><path d="M0,0 L190,0 L190,200 L0,200 L0,0 z" fill-rule="evenodd" vector-effect="none"/></g><defs><clipPath id="clip3"><path d="M-2,-2 L57,-2 L57,60 L-2,60 L-2,-2 z"/></clipPath></defs><g clip-path="url(#clip3)" fill="#ffffff" fill-opacity="1" opacity="1" stroke="none" stroke-opacity="0" transform="matrix(3.22581,0,0,3.22581,6.45161,6.45161)"><path d="M0,0 L55,0 L55,58 L0,58 L0,0 z" fill-rule="evenodd" vector-effect="none"/></g><defs><clipPath id="clip7"><path d="M35,16 L90,16 L90,74 L35,74 L35,16 z"/></clipPath></defs><g clip-path="url(#clip7)" fill="#ff8282" fill-opacity="1" opacity="1" stroke="#ff8282" stroke-linecap="square" stroke-linejoin="bevel" stroke-opacity="1" stroke-width="1" transform="matrix(3.22581,0,0,3.22581,-106.452,-45.1613)"><path d="M35,73 L89,73 L89,16 L35,16 L35,73 z" fill-rule="evenodd" vector-effect="none"/></g><defs><clipPath id="clip8"><path d="M35,16 L90,16 L90,74 L35,74 L35,16 z"/></clipPath></defs><g clip-path="url(#clip8)" fill="#aa5757" fill-opacity="1" opacity="1" stroke="#aa5757" stroke-linecap="square" stroke-linejoin="bevel" stroke-opacity="1" stroke-width="1" transform="matrix(3.22581,0,0,3.22581,-106.452,-45.1613)"><path d="M35,73 L89,73 L89,16 L86,19 L86,70 L38,70 L35,73 z" fill-rule="evenodd" vector-effect="none"/></g><defs><clipPath id="clip9"><path d="M35,16 L90,16 L90,74 L35,74 L35,16 z"/></clipPath></defs><g clip-path="url(#clip9)" fill="#ffacac" fill-opacity="1" opacity="1" stroke="#ffacac" stroke-linecap="square" stroke-linejoin="bevel" stroke-opacity="1" stroke-width="1" transform="matrix(3.22581,0,0,3.22581,-106.452,-45.1613)"><path d="M35,73 L35,16 L89,16 L86,19 L38,19 L38,70 L35,73 z" fill-rule="evenodd" vector-effect="none"/></g><defs><clipPath id="clip10"><path d="M35,16 L90,16 L90,74 L35,74 L35,16 z"/></clipPath></defs><g clip-path="url(#clip10)" fill="#ffacac" fill-opacity="1" opacity="1" stroke="#ffffff" stroke-linecap="square" stroke-linejoin="bevel" stroke-opacity="1" stroke-width="1" transform="matrix(3.22581,0,0,3.22581,-104.839,-43.5484)"><polyline fill="none" points="43,45 81,45" vector-effect="none"/></g><defs><clipPath id="clip11"><path d="M35,16 L90,16 L90,74 L35,74 L35,16 z"/></clipPath></defs><g clip-path="url(#clip11)" fill="#ffacac" fill-opacity="1" opacity="1" stroke="#ffffff" stroke-linecap="square" stroke-linejoin="bevel" stroke-opacity="1" stroke-width="1" transform="matrix(3.22581,0,0,3.22581,-104.839,-43.5484)"><polyline fill="none" points="62,64 62,25" vector-effect="none"/></g><defs><clipPath id="clip12"><path d="M35,16 L90,16 L90,74 L35,74 L35,16 z"/></clipPath></defs><g clip-path="url(#clip12)" fill="#000000" fill-opacity="1" opacity="1" stroke="none" stroke-opacity="0" transform="matrix(3.22581,0,0,3.22581,-104.839,-43.5484)"><path d="M42.5,63.5 L43.5,63.5 L43.5,64.5 L42.5,64.5 L42.5,63.5 z" fill-rule="evenodd" vector-effect="none"/></g><defs><clipPath id="clip13"><path d="M35,16 L90,16 L90,74 L35,74 L35,16 z"/></clipPath></defs><g clip-path="url(#clip13)" fill="#ffacac" fill-opacity="1" opacity="1" stroke="#000000" stroke-linecap="square" stroke-linejoin="bevel" stroke-opacity="1" stroke-width="1" transform="matrix(3.22581,0,0,3.22581,-104.839,-43.5484)"><polyline fill="none" points="43,64 44,64" vector-effect="none"/></g><defs><clipPath id="clip14"><path d="M35,16 L90,16 L90,74 L35,74 L35,16 z"/></clipPath></defs><g clip-path="url(#clip14)" fill="#ffacac" fill-opacity="1" opacity="1" stroke="#000000" stroke-linecap="square" stroke-linejoin="bevel" stroke-opacity="1" stroke-width="1" transform="matrix(3.22581,0,0,3.22581,-104.839,-43.5484)"><polyline fill="none" points="44,64 45,64" vector-effect="none"/></g><defs><clipPath id="clip15"><path d="M35,16 L90,16 L90,74 L35,74 L35,16 z"/></clipPath></defs><g clip-path="url(#clip15)" fill="#ffacac" fill-opacity="1" opacity="1" stroke="#000000" stroke-linecap="square" stroke-linejoin="bevel" stroke-opacity="1" stroke-width="1" transform="matrix(3.22581,0,0,3.22581,-104.839,-43.5484)"><polyline fill="none" points="45,64 46,64" vector-effect="none"/></g><defs><clipPath id="clip16"><path d="M35,16 L90,16 L90,74 L35,74 L35,16 z"/></clipPath></defs><g clip-path="url(#clip16)" fill="#ffacac" fill-opacity="1" opacity="1" stroke="#000000" stroke-linecap="square" stroke-linejoin="bevel" stroke-opacity="1" stroke-width="1" transform="matrix(3.22581,0,0,3.22581,-104.839,-43.5484)"><polyline fill="none" points="46,64 47,64" vector-effect="none"/></g><defs><clipPath id="clip17"><path d="M35,16 L90,16 L90,74 L35,74 L35,16 z"/></clipPath></defs><g clip-path="url(#clip17)" fill="#ffacac" fill-opacity="1" opacity="1" stroke="#000000" stroke-linecap="square" stroke-linejoin="bevel" stroke-opacity="1" stroke-width="1" transform="matrix(3.22581,0,0,3.22581,-104.839,-43.5484)"><polyline fill="none" points="47,64 48,64" vector-effect="none"/></g><defs><clipPath id="clip18"><path d="M35,16 L90,16 L90,74 L35,74 L35,16 z"/></clipPath></defs><g clip-path="url(#clip18)" fill="#ffacac" fill-opacity="1" opacity="1" stroke="#000000" stroke-linecap="square" stroke-linejoin="bevel" stroke-opacity="1" stroke-width="1" transform="matrix(3.22581,0,0,3.22581,-104.839,-43.5484)"><polyline fill="none" points="48,64 48,63" vector-effect="none"/></g><defs><clipPath id="clip19"><path d="M35,16 L90,16 L90,74 L35,74 L35,16 z"/></clipPath></defs><g clip-path="url(#clip19)" fill="#ffacac" fill-opacity="1" opacity="1" stroke="#000000" stroke-linecap="square" stroke-linejoin="bevel" stroke-opacity="1" stroke-width="1" transform="matrix(3.22581,0,0,3.22581,-104.839,-43.5484)"><polyline fill="none" points="48,63 49,63" vector-effect="none"/></g><defs><clipPath id="clip20"><path d="M35,16 L90,16 L90,74 L35,74 L35,16 z"/></clipPath></defs><g clip-path="url(#clip20)" fill="#ffacac" fill-opacity="1" opacity="1" stroke="#000000" stroke-linecap="square" stroke-linejoin="bevel" stroke-opacity="1" stroke-width="1" transform="matrix(3.22581,0,0,3.22581,-104.839,-43.5484)"><polyline fill="none" points="49,63 50,63" vector-effect="none"/></g><defs><clipPath id="clip21"><path d="M35,16 L90,16 L90,74 L35,74 L35,16 z"/></clipPath></defs><g clip-path="url(#clip21)" fill="#ffacac" fill-opacity="1" opacity="1" stroke="#000000" stroke-linecap="square" stroke-linejoin="bevel" stroke-opacity="1" stroke-width="1" transform="matrix(3.22581,0,0,3.22581,-104.839,-43.5484)"><polyline fill="none" points="50,63 51,63" vector-effect="none"/></g><defs><clipPath id="clip22"><path d="M35,16 L90,16 L90,74 L35,74 L35,16 z"/></clipPath></defs><g clip-path="url(#clip22)" fill="#ffacac" fill-opacity="1" opacity="1" stroke="#000000" stroke-linecap="square" stroke-linejoin="bevel" stroke-opacity="1" stroke-width="1" transform="matrix(3.22581,0,0,3.22581,-104.839,-43.5484)"><polyline fill="none" points="51,63 51,62" vector-effect="none"/></g><defs><clipPath id="clip23"><path d="M35,16 L90,16 L90,74 L35,74 L35,16 z"/></clipPath></defs><g clip-path="url(#clip23)" fill="#ffacac" fill-opacity="1" opacity="1" stroke="#000000" stroke-linecap="square" stroke-linejoin="bevel" stroke-opacity="1" stroke-width="1" transform="matrix(3.22581,0,0,3.22581,-104.839,-43.5484)"><polyline fill="none" points="51,62 52,62" vector-effect="none"/></g><defs><clipPath id="clip24"><path d="M35,16 L90,16 L90,74 L35,74 L35,16 z"/></clipPath></defs><g clip-path="url(#clip24)" fill="#ffacac" fill-opacity="1" opacity="1" stroke="#000000" stroke-linecap="square" stroke-linejoin="bevel" stroke-opacity="1" stroke-width="1" transform="matrix(3.22581,0,0,3.22581,-104.839,-43.5484)"><polyline fill="none" points="52,62 53,61" vector-effect="none"/></g><defs><clipPath id="clip25"><path d="M35,16 L90,16 L90,74 L35,74 L35,16 z"/></clipPath></defs><g clip-path="url(#clip25)" fill="#ffacac" fill-opacity="1" opacity="1" stroke="#000000" stroke-linecap="square" stroke-linejoin="bevel" stroke-opacity="1" stroke-width="1" transform="matrix(3.22581,0,0,3.22581,-104.839,-43.5484)"><polyline fill="none" points="53,61 54,60" vector-effect="none"/></g><defs><clipPath id="clip26"><path d="M35,16 L90,16 L90,74 L35,74 L35,16 z"/></clipPath></defs><g clip-path="url(#clip26)" fill="#ffacac" fill-opacity="1" opacity="1" stroke="#000000" stroke-linecap="square" stroke-linejoin="bevel" stroke-opacity="1" stroke-width="1" transform="matrix(3.22581,0,0,3.22581,-104.839,-43.5484)"><polyline fill="none" points="54,60 55,59" vector-effect="none"/></g><defs><clipPath id="clip27"><path d="M35,16 L90,16 L90,74 L35,74 L35,16 z"/></clipPath></defs><g clip-path="url(#clip27)" fill="#ffacac" fill-opacity="1" opacity="1" stroke="#000000" stroke-linecap="square" stroke-linejoin="bevel" stroke-opacity="1" stroke-width="1" transform="matrix(3.22581,0,0,3.22581,-104.839,-43.5484)"><polyline fill="none" points="55,59 56,58" vector-effect="none"/></g><defs><clipPath id="clip28"><path d="M35,16 L90,16 L90,74 L35,74 L35,16 z"/></clipPath></defs><g clip-path="url(#clip28)" fill="#ffacac" fill-opacity="1" opacity="1" stroke="#000000" stroke-linecap="square" stroke-linejoin="bevel" stroke-opacity="1" stroke-width="1" transform="matrix(3.22581,0,0,3.22581,-104.839,-43.5484)"><polyline fill="none" points="56,58 56,57" vector-effect="none"/></g><defs><clipPath id="clip29"><path d="M35,16 L90,16 L90,74 L35,74 L35,16 z"/></clipPath></defs><g clip-path="url(#clip29)" fill="#ffacac" fill-opacity="1" opacity="1" stroke="#000000" stroke-linecap="square" stroke-linejoin="bevel" stroke-opacity="1" stroke-width="1" transform="matrix(3.22581,0,0,3.22581,-104.839,-43.5484)"><polyline fill="none" points="56,57 57,57" vector-effect="none"/></g><defs><clipPath id="clip30"><path d="M35,16 L90,16 L90,74 L35,74 L35,16 z"/></clipPath></defs><g clip-path="url(#clip30)" fill="#ffacac" fill-opacity="1" opacity="1" stroke="#000000" stroke-linecap="square" stroke-linejoin="bevel" stroke-opacity="1" stroke-width="1" transform="matrix(3.22581,0,0,3.22581,-104.839,-43.5484)"><polyline fill="none" points="57,57 57,56" vector-effect="none"/></g><defs><clipPath id="clip31"><path d="M35,16 L90,16 L90,74 L35,74 L35,16 z"/></clipPath></defs><g clip-path="url(#clip31)" fill="#ffacac" fill-opacity="1" opacity="1" stroke="#000000" stroke-linecap="square" stroke-linejoin="bevel" stroke-opacity="1" stroke-width="1" transform="matrix(3.22581,0,0,3.22581,-104.839,-43.5484)"><polyline fill="none" points="57,56 57,55" vector-effect="none"/></g><defs><clipPath id="clip32"><path d="M35,16 L90,16 L90,74 L35,74 L35,16 z"/></clipPath></defs><g clip-path="url(#clip32)" fill="#ffacac" fill-opacity="1" opacity="1" stroke="#000000" stroke-linecap="square" stroke-linejoin="bevel" stroke-opacity="1" stroke-width="1" transform="matrix(3.22581,0,0,3.22581,-104.839,-43.5484)"><polyline fill="none" points="57,55 58,55" vector-effect="none"/></g><defs><clipPath id="clip33"><path d="M35,16 L90,16 L90,74 L35,74 L35,16 z"/></clipPath></defs><g clip-path="url(#clip33)" fill="#ffacac" fill-opacity="1" opacity="1" stroke="#000000" stroke-linecap="square" stroke-linejoin="bevel" stroke-opacity="1" stroke-width="1" transform="matrix(3.22581,0,0,3.22581,-104.839,-43.5484)"><polyline fill="none" points="58,55 58,54" vector-effect="none"/></g><defs><clipPath id="clip34"><path d="M35,16 L90,16 L90,74 L35,74 L35,16 z"/></clipPath></defs><g clip-path="url(#clip34)" fill="#ffacac" fill-opacity="1" opacity="1" stroke="#000000" stroke-linecap="square" stroke-linejoin="bevel" stroke-opacity="1" stroke-width="1" transform="matrix(3.22581,0,0,3.22581,-104.839,-43.5484)"><polyline fill="none" points="58,54 58,53" vector-effect="none"/></g><defs><clipPath id="clip35"><path d="M35,16 L90,16 L90,74 L35,74 L35,16 z"/></clipPath></defs><g clip-path="url(#clip35)" fill="#ffacac" fill-opacity="1" opacity="1" stroke="#000000" stroke-linecap="square" stroke-linejoin="bevel" stroke-opacity="1" stroke-width="1" transform="matrix(3.22581,0,0,3.22581,-104.839,-43.5484)"><polyline fill="none" points="58,53 59,53" vector-effect="none"/></g><defs><clipPath id="clip36"><path d="M35,16 L90,16 L90,74 L35,74 L35,16 z"/></clipPath></defs><g clip-path="url(#clip36)" fill="#ffacac" fill-opacity="1" opacity="1" stroke="#000000" stroke-linecap="square" stroke-linejoin="bevel" stroke-opacity="1" stroke-width="1" transform="matrix(3.22581,0,0,3.22581,-104.839,-43.5484)"><polyline fill="none" points="59,53 59,52" vector-effect="none"/></g><defs><clipPath id="clip37"><path d="M35,16 L90,16 L90,74 L35,74 L35,16 z"/></clipPath></defs><g clip-path="url(#clip37)" fill="#ffacac" fill-opacity="1" opacity="1" stroke="#000000" stroke-linecap="square" stroke-linejoin="bevel" stroke-opacity="1" stroke-width="1" transform="matrix(3.22581,0,0,3.22581,-104.839,-43.5484)"><polyline fill="none" points="59,52 59,51" vector-effect="none"/></g><defs><clipPath id="clip38"><path d="M35,16 L90,16 L90,74 L35,74 L35,16 z"/></clipPath></defs><g clip-path="url(#clip38)" fill="#ffacac" fill-opacity="1" opacity="1" stroke="#000000" stroke-linecap="square" stroke-linejoin="bevel" stroke-opacity="1" stroke-width="1" transform="matrix(3.22581,0,0,3.22581,-104.839,-43.5484)"><polyline fill="none" points="59,51 60,51" vector-effect="none"/></g><defs><clipPath id="clip39"><path d="M35,16 L90,16 L90,74 L35,74 L35,16 z"/></clipPath></defs><g clip-path="url(#clip39)" fill="#ffacac" fill-opacity="1" opacity="1" stroke="#000000" stroke-linecap="square" stroke-linejoin="bevel" stroke-opacity="1" stroke-width="1" transform="matrix(3.22581,0,0,3.22581,-104.839,-43.5484)"><polyline fill="none" points="60,51 60,50" vector-effect="none"/></g><defs><clipPath id="clip40"><path d="M35,16 L90,16 L90,74 L35,74 L35,16 z"/></clipPath></defs><g clip-path="url(#clip40)" fill="#ffacac" fill-opacity="1" opacity="1" stroke="#000000" stroke-linecap="square" stroke-linejoin="bevel" stroke-opacity="1" stroke-width="1" transform="matrix(3.22581,0,0,3.22581,-104.839,-43.5484)"><polyline fill="none" points="60,50 60,49" vector-effect="none"/></g><defs><clipPath id="clip41"><path d="M35,16 L90,16 L90,74 L35,74 L35,16 z"/></clipPath></defs><g clip-path="url(#clip41)" fill="#ffacac" fill-opacity="1" opacity="1" stroke="#000000" stroke-linecap="square" stroke-linejoin="bevel" stroke-opacity="1" stroke-width="1" transform="matrix(3.22581,0,0,3.22581,-104.839,-43.5484)"><polyline fill="none" points="60,49 60,48" vector-effect="none"/></g><defs><clipPath id="clip42"><path d="M35,16 L90,16 L90,74 L35,74 L35,16 z"/></clipPath></defs><g clip-path="url(#clip42)" fill="#ffacac" fill-opacity="1" opacity="1" stroke="#000000" stroke-linecap="square" stroke-linejoin="bevel" stroke-opacity="1" stroke-width="1" transform="matrix(3.22581,0,0,3.22581,-104.839,-43.5484)"><polyline fill="none" points="60,48 61,48" vector-effect="none"/></g><defs><clipPath id="clip43"><path d="M35,16 L90,16 L90,74 L35,74 L35,16 z"/></clipPath></defs><g clip-path="url(#clip43)" fill="#ffacac" fill-opacity="1" opacity="1" stroke="#000000" stroke-linecap="square" stroke-linejoin="bevel" stroke-opacity="1" stroke-width="1" transform="matrix(3.22581,0,0,3.22581,-104.839,-43.5484)"><polyline fill="none" points="61,48 61,47" vector-effect="none"/></g><defs><clipPath id="clip44"><path d="M35,16 L90,16 L90,74 L35,74 L35,16 z"/></clipPath></defs><g clip-path="url(#clip44)" fill="#ffacac" fill-opacity="1" opacity="1" stroke="#000000" stroke-linecap="square" stroke-linejoin="bevel" stroke-opacity="1" stroke-width="1" transform="matrix(3.22581,0,0,3.22581,-104.839,-43.5484)"><polyline fill="none" points="61,47 61,46" vector-effect="none"/></g><defs><clipPath id="clip45"><path d="M35,16 L90,16 L90,74 L35,74 L35,16 z"/></clipPath></defs><g clip-path="url(#clip45)" fill="#ffacac" fill-opacity="1" opacity="1" stroke="#000000" stroke-linecap="square" stroke-linejoin="bevel" stroke-opacity="1" stroke-width="1" transform="matrix(3.22581,0,0,3.22581,-104.839,-43.5484)"><polyline fill="none" points="61,46 62,45" vector-effect="none"/></g><defs><clipPath id="clip46"><path d="M35,16 L90,16 L90,74 L35,74 L35,16 z"/></clipPath></defs><g clip-path="url(#clip46)" fill="#ffacac" fill-opacity="1" opacity="1" stroke="#000000" stroke-linecap="square" stroke-linejoin="bevel" stroke-opacity="1" stroke-width="1" transform="matrix(3.22581,0,0,3.22581,-104.839,-43.5484)"><polyline fill="none" points="62,45 62,44" vector-effect="none"/></g><defs><clipPath id="clip47"><path d="M35,16 L90,16 L90,74 L35,74 L35,16 z"/></clipPath></defs><g clip-path="url(#clip47)" fill="#ffacac" fill-opacity="1" opacity="1" stroke="#000000" stroke-linecap="square" stroke-linejoin="bevel" stroke-opacity="1" stroke-width="1" transform="matrix(3.22581,0,0,3.22581,-104.839,-43.5484)"><polyline fill="none" points="62,44 63,43" vector-effect="none"/></g><defs><clipPath id="clip48"><path d="M35,16 L90,16 L90,74 L35,74 L35,16 z"/></clipPath></defs><g clip-path="url(#clip48)" fill="#ffacac" fill-opacity="1" opacity="1" stroke="#000000" stroke-linecap="square" stroke-linejoin="bevel" stroke-opacity="1" stroke-width="1" transform="matrix(3.22581,0,0,3.22581,-104.839,-43.5484)"><polyline fill="none" points="63,43 63,42" vector-effect="none"/></g><defs><clipPath id="clip49"><path d="M35,16 L90,16 L90,74 L35,74 L35,16 z"/></clipPath></defs><g clip-path="url(#clip49)" fill="#ffacac" fill-opacity="1" opacity="1" stroke="#000000" stroke-linecap="square" stroke-linejoin="bevel" stroke-opacity="1" stroke-width="1" transform="matrix(3.22581,0,0,3.22581,-104.839,-43.5484)"><polyline fill="none" points="63,42 63,41" vector-effect="none"/></g><defs><clipPath id="clip50"><path d="M35,16 L90,16 L90,74 L35,74 L35,16 z"/></clipPath></defs><g clip-path="url(#clip50)" fill="#ffacac" fill-opacity="1" opacity="1" stroke="#000000" stroke-linecap="square" stroke-linejoin="bevel" stroke-opacity="1" stroke-width="1" transform="matrix(3.22581,0,0,3.22581,-104.839,-43.5484)"><polyline fill="none" points="63,41 64,41" vector-effect="none"/></g><defs><clipPath id="clip51"><path d="M35,16 L90,16 L90,74 L35,74 L35,16 z"/></clipPath></defs><g clip-path="url(#clip51)" fill="#ffacac" fill-opacity="1" opacity="1" stroke="#000000" stroke-linecap="square" stroke-linejoin="bevel" stroke-opacity="1" stroke-width="1" transform="matrix(3.22581,0,0,3.22581,-104.839,-43.5484)"><polyline fill="none" points="64,41 64,40" vector-effect="none"/></g><defs><clipPath id="clip52"><path d="M35,16 L90,16 L90,74 L35,74 L35,16 z"/></clipPath></defs><g clip-path="url(#clip52)" fill="#ffacac" fill-opacity="1" opacity="1" stroke="#000000" stroke-linecap="square" stroke-linejoin="bevel" stroke-opacity="1" stroke-width="1" transform="matrix(3.22581,0,0,3.22581,-104.839,-43.5484)"><polyline fill="none" points="64,40 64,39" vector-effect="none"/></g><defs><clipPath id="clip53"><path d="M35,16 L90,16 L90,74 L35,74 L35,16 z"/></clipPath></defs><g clip-path="url(#clip53)" fill="#ffacac" fill-opacity="1" opacity="1" stroke="#000000" stroke-linecap="square" stroke-linejoin="bevel" stroke-opacity="1" stroke-width="1" transform="matrix(3.22581,0,0,3.22581,-104.839,-43.5484)"><polyline fill="none" points="64,39 64,38" vector-effect="none"/></g><defs><clipPath id="clip54"><path d="M35,16 L90,16 L90,74 L35,74 L35,16 z"/></clipPath></defs><g clip-path="url(#clip54)" fill="#ffacac" fill-opacity="1" opacity="1" stroke="#000000" stroke-linecap="square" stroke-linejoin="bevel" stroke-opacity="1" stroke-width="1" transform="matrix(3.22581,0,0,3.22581,-104.839,-43.5484)"><polyline fill="none" points="64,38 65,38" vector-effect="none"/></g><defs><clipPath id="clip55"><path d="M35,16 L90,16 L90,74 L35,74 L35,16 z"/></clipPath></defs><g clip-path="url(#clip55)" fill="#ffacac" fill-opacity="1" opacity="1" stroke="#000000" stroke-linecap="square" stroke-linejoin="bevel" stroke-opacity="1" stroke-width="1" transform="matrix(3.22581,0,0,3.22581,-104.839,-43.5484)"><polyline fill="none" points="65,38 65,37" vector-effect="none"/></g><defs><clipPath id="clip56"><path d="M35,16 L90,16 L90,74 L35,74 L35,16 z"/></clipPath></defs><g clip-path="url(#clip56)" fill="#ffacac" fill-opacity="1" opacity="1" stroke="#000000" stroke-linecap="square" stroke-linejoin="bevel" stroke-opacity="1" stroke-width="1" transform="matrix(3.22581,0,0,3.22581,-104.839,-43.5484)"><polyline fill="none" points="65,37 65,36" vector-effect="none"/></g><defs><clipPath id="clip57"><path d="M35,16 L90,16 L90,74 L35,74 L35,16 z"/></clipPath></defs><g clip-path="url(#clip57)" fill="#ffacac" fill-opacity="1" opacity="1" stroke="#000000" stroke-linecap="square" stroke-linejoin="bevel" stroke-opacity="1" stroke-width="1" transform="matrix(3.22581,0,0,3.22581,-104.839,-43.5484)"><polyline fill="none" points="65,36 66,36" vector-effect="none"/></g><defs><clipPath id="clip58"><path d="M35,16 L90,16 L90,74 L35,74 L35,16 z"/></clipPath></defs><g clip-path="url(#clip58)" fill="#ffacac" fill-opacity="1" opacity="1" stroke="#000000" stroke-linecap="square" stroke-linejoin="bevel" stroke-opacity="1" stroke-width="1" transform="matrix(3.22581,0,0,3.22581,-104.839,-43.5484)"><polyline fill="none" points="66,36 66,35" vector-effect="none"/></g><defs><clipPath id="clip59"><path d="M35,16 L90,16 L90,74 L35,74 L35,16 z"/></clipPath></defs><g clip-path="url(#clip59)" fill="#ffacac" fill-opacity="1" opacity="1" stroke="#000000" stroke-linecap="square" stroke-linejoin="bevel" stroke-opacity="1" stroke-width="1" transform="matrix(3.22581,0,0,3.22581,-104.839,-43.5484)"><polyline fill="none" points="66,35 66,34" vector-effect="none"/></g><defs><clipPath id="clip60"><path d="M35,16 L90,16 L90,74 L35,74 L35,16 z"/></clipPath></defs><g clip-path="url(#clip60)" fill="#ffacac" fill-opacity="1" opacity="1" stroke="#000000" stroke-linecap="square" stroke-linejoin="bevel" stroke-opacity="1" stroke-width="1" transform="matrix(3.22581,0,0,3.22581,-104.839,-43.5484)"><polyline fill="none" points="66,34 67,34" vector-effect="none"/></g><defs><clipPath id="clip61"><path d="M35,16 L90,16 L90,74 L35,74 L35,16 z"/></clipPath></defs><g clip-path="url(#clip61)" fill="#ffacac" fill-opacity="1" opacity="1" stroke="#000000" stroke-linecap="square" stroke-linejoin="bevel" stroke-opacity="1" stroke-width="1" transform="matrix(3.22581,0,0,3.22581,-104.839,-43.5484)"><polyline fill="none" points="67,34 67,33" vector-effect="none"/></g><defs><clipPath id="clip62"><path d="M35,16 L90,16 L90,74 L35,74 L35,16 z"/></clipPath></defs><g clip-path="url(#clip62)" fill="#ffacac" fill-opacity="1" opacity="1" stroke="#000000" stroke-linecap="square" stroke-linejoin="bevel" stroke-opacity="1" stroke-width="1" transform="matrix(3.22581,0,0,3.22581,-104.839,-43.5484)"><polyline fill="none" points="67,33 67,32" vector-effect="none"/></g><defs><clipPath id="clip63"><path d="M35,16 L90,16 L90,74 L35,74 L35,16 z"/></clipPath></defs><g clip-path="url(#clip63)" fill="#ffacac" fill-opacity="1" opacity="1" stroke="#000000" stroke-linecap="square" stroke-linejoin="bevel" stroke-opacity="1" stroke-width="1" transform="matrix(3.22581,0,0,3.22581,-104.839,-43.5484)"><polyline fill="none" points="67,32 68,32" vector-effect="none"/></g><defs><clipPath id="clip64"><path d="M35,16 L90,16 L90,74 L35,74 L35,16 z"/></clipPath></defs><g clip-path="url(#clip64)" fill="#ffacac" fill-opacity="1" opacity="1" stroke="#000000" stroke-linecap="square" stroke-linejoin="bevel" stroke-opacity="1" stroke-width="1" transform="matrix(3.22581,0,0,3.22581,-104.839,-43.5484)"><polyline fill="none" points="68,32 68,31" vector-effect="none"/></g><defs><clipPath id="clip65"><path d="M35,16 L90,16 L90,74 L35,74 L35,16 z"/></clipPath></defs><g clip-path="url(#clip65)" fill="#ffacac" fill-opacity="1" opacity="1" stroke="#000000" stroke-linecap="square" stroke-linejoin="bevel" stroke-opacity="1" stroke-width="1" transform="matrix(3.22581,0,0,3.22581,-104.839,-43.5484)"><polyline fill="none" points="68,31 69,30" vector-effect="none"/></g><defs><clipPath id="clip66"><path d="M35,16 L90,16 L90,74 L35,74 L35,16 z"/></clipPath></defs><g clip-path="url(#clip66)" fill="#ffacac" fill-opacity="1" opacity="1" stroke="#000000" stroke-linecap="square" stroke-linejoin="bevel" stroke-opacity="1" stroke-width="1" transform="matrix(3.22581,0,0,3.22581,-104.839,-43.5484)"><polyline fill="none" points="69,30 70,29" vector-effect="none"/></g><defs><clipPath id="clip67"><path d="M35,16 L90,16 L90,74 L35,74 L35,16 z"/></clipPath></defs><g clip-path="url(#clip67)" fill="#ffacac" fill-opacity="1" opacity="1" stroke="#000000" stroke-linecap="square" stroke-linejoin="bevel" stroke-opacity="1" stroke-width="1" transform="matrix(3.22581,0,0,3.22581,-104.839,-43.5484)"><polyline fill="none" points="70,29 71,28" vector-effect="none"/></g><defs><clipPath id="clip68"><path d="M35,16 L90,16 L90,74 L35,74 L35,16 z"/></clipPath></defs><g clip-path="url(#clip68)" fill="#ffacac" fill-opacity="1" opacity="1" stroke="#000000" stroke-linecap="square" stroke-linejoin="bevel" stroke-opacity="1" stroke-width="1" transform="matrix(3.22581,0,0,3.22581,-104.839,-43.5484)"><polyline fill="none" points="71,28 72,27" vector-effect="none"/></g><defs><clipPath id="clip69"><path d="M35,16 L90,16 L90,74 L35,74 L35,16 z"/></clipPath></defs><g clip-path="url(#clip69)" fill="#ffacac" fill-opacity="1" opacity="1" stroke="#000000" stroke-linecap="square" stroke-linejoin="bevel" stroke-opacity="1" stroke-width="1" transform="matrix(3.22581,0,0,3.22581,-104.839,-43.5484)"><polyline fill="none" points="72,27 73,27" vector-effect="none"/></g><defs><clipPath id="clip70"><path d="M35,16 L90,16 L90,74 L35,74 L35,16 z"/></clipPath></defs><g clip-path="url(#clip70)" fill="#ffacac" fill-opacity="1" opacity="1" stroke="#000000" stroke-linecap="square" stroke-linejoin="bevel" stroke-opacity="1" stroke-width="1" transform="matrix(3.22581,0,0,3.22581,-104.839,-43.5484)"><polyline fill="none" points="73,27 73,26" vector-effect="none"/></g><defs><clipPath id="clip71"><path d="M35,16 L90,16 L90,74 L35,74 L35,16 z"/></clipPath></defs><g clip-path="url(#clip71)" fill="#ffacac" fill-opacity="1" opacity="1" stroke="#000000" stroke-linecap="square" stroke-linejoin="bevel" stroke-opacity="1" stroke-width="1" transform="matrix(3.22581,0,0,3.22581,-104.839,-43.5484)"><polyline fill="none" points="73,26 74,26" vector-effect="none"/></g><defs><clipPath id="clip72"><path d="M35,16 L90,16 L90,74 L35,74 L35,16 z"/></clipPath></defs><g clip-path="url(#clip72)" fill="#ffacac" fill-opacity="1" opacity="1" stroke="#000000" stroke-linecap="square" stroke-linejoin="bevel" stroke-opacity="1" stroke-width="1" transform="matrix(3.22581,0,0,3.22581,-104.839,-43.5484)"><polyline fill="none" points="74,26 75,26" vector-effect="none"/></g><defs><clipPath id="clip73"><path d="M35,16 L90,16 L90,74 L35,74 L35,16 z"/></clipPath></defs><g clip-path="url(#clip73)" fill="#ffacac" fill-opacity="1" opacity="1" stroke="#000000" stroke-linecap="square" stroke-linejoin="bevel" stroke-opacity="1" stroke-width="1" transform="matrix(3.22581,0,0,3.22581,-104.839,-43.5484)"><polyline fill="none" points="75,26 76,26" vector-effect="none"/></g><defs><clipPath id="clip74"><path d="M35,16 L90,16 L90,74 L35,74 L35,16 z"/></clipPath></defs><g clip-path="url(#clip74)" fill="#ffacac" fill-opacity="1" opacity="1" stroke="#000000" stroke-linecap="square" stroke-linejoin="bevel" stroke-opacity="1" stroke-width="1" transform="matrix(3.22581,0,0,3.22581,-104.839,-43.5484)"><polyline fill="none" points="76,26 76,25" vector-effect="none"/></g><defs><clipPath id="clip75"><path d="M35,16 L90,16 L90,74 L35,74 L35,16 z"/></clipPath></defs><g clip-path="url(#clip75)" fill="#ffacac" fill-opacity="1" opacity="1" stroke="#000000" stroke-linecap="square" stroke-linejoin="bevel" stroke-opacity="1" stroke-width="1" transform="matrix(3.22581,0,0,3.22581,-104.839,-43.5484)"><polyline fill="none" points="76,25 77,25" vector-effect="none"/></g><defs><clipPath id="clip76"><path d="M35,16 L90,16 L90,74 L35,74 L35,16 z"/></clipPath></defs><g clip-path="url(#clip76)" fill="#ffacac" fill-opacity="1" opacity="1" stroke="#000000" stroke-linecap="square" stroke-linejoin="bevel" stroke-opacity="1" stroke-width="1" transform="matrix(3.22581,0,0,3.22581,-104.839,-43.5484)"><polyline fill="none" points="77,25 78,25" vector-effect="none"/></g><defs><clipPath id="clip77"><path d="M35,16 L90,16 L90,74 L35,74 L35,16 z"/></clipPath></defs><g clip-path="url(#clip77)" fill="#ffacac" fill-opacity="1" opacity="1" stroke="#000000" stroke-linecap="square" stroke-linejoin="bevel" stroke-opacity="1" stroke-width="1" transform="matrix(3.22581,0,0,3.22581,-104.839,-43.5484)"><polyline fill="none" points="78,25 79,25" vector-effect="none"/></g><defs><clipPath id="clip78"><path d="M35,16 L90,16 L90,74 L35,74 L35,16 z"/></clipPath></defs><g clip-path="url(#clip78)" fill="#ffacac" fill-opacity="1" opacity="1" stroke="#000000" stroke-linecap="square" stroke-linejoin="bevel" stroke-opacity="1" stroke-width="1" transform="matrix(3.22581,0,0,3.22581,-104.839,-43.5484)"><polyline fill="none" points="79,25 80,25" vector-effect="none"/></g><defs><clipPath id="clip79"><path d="M35,16 L90,16 L90,74 L35,74 L35,16 z"/></clipPath></defs><g clip-path="url(#clip79)" fill="#ffacac" fill-opacity="1" opacity="1" stroke="#000000" stroke-linecap="square" stroke-linejoin="bevel" stroke-opacity="1" stroke-width="1" transform="matrix(3.22581,0,0,3.22581,-104.839,-43.5484)"><polyline fill="none" points="80,25 81,25" vector-effect="none"/></g><defs><clipPath id="clip80"><path d="M35,16 L90,16 L90,74 L35,74 L35,16 z"/></clipPath></defs><g clip-path="url(#clip80)" fill="#ffacac" fill-opacity="1" opacity="1" stroke="#000000" stroke-linecap="square" stroke-linejoin="bevel" stroke-opacity="1" stroke-width="1" transform="matrix(3.22581,0,0,3.22581,-104.839,-43.5484)"><polyline fill="none" points="35,73 89,73" vector-effect="none"/></g><defs><clipPath id="clip81"><path d="M35,16 L90,16 L90,74 L35,74 L35,16 z"/></clipPath></defs><g clip-path="url(#clip81)" fill="#ffacac" fill-opacity="1" opacity="1" stroke="#000000" stroke-linecap="square" stroke-linejoin="bevel" stroke-opacity="1" stroke-width="1" transform="matrix(3.22581,0,0,3.22581,-104.839,-43.5484)"><polyline fill="none" points="89,73 89,16" vector-effect="none"/></g><defs><clipPath id="clip82"><path d="M35,16 L90,16 L90,74 L35,74 L35,16 z"/></clipPath></defs><g clip-path="url(#clip82)" fill="#ffacac" fill-opacity="1" opacity="1" stroke="#000000" stroke-linecap="square" stroke-linejoin="bevel" stroke-opacity="1" stroke-width="1" transform="matrix(3.22581,0,0,3.22581,-104.839,-43.5484)"><polyline fill="none" points="89,16 35,16" vector-effect="none"/></g><defs><clipPath id="clip83"><path d="M35,16 L90,16 L90,74 L35,74 L35,16 z"/></clipPath></defs><g clip-path="url(#clip83)" fill="#ffacac" fill-opacity="1" opacity="1" stroke="#000000" stroke-linecap="square" stroke-linejoin="bevel" stroke-opacity="1" stroke-width="1" transform="matrix(3.22581,0,0,3.22581,-104.839,-43.5484)"><polyline fill="none" points="35,16 35,73" vector-effect="none"/></g><defs><clipPath id="clip88"><path d="M-2,-2 L57,-2 L57,60 L-2,60 L-2,-2 z"/></clipPath></defs><g clip-path="url(#clip88)" fill="none" opacity="1" stroke="none" stroke-opacity="0" transform="matrix(3.22581,0,0,3.22581,6.45161,6.45161)"><path d="M0,0 L55,0 L55,58 L0,58 L0,0 z" fill-rule="evenodd" vector-effect="none"/></g></g></svg>
