<?xml version="1.0" encoding="UTF-8"?><svg width="52.9167mm" height="49.4771mm" viewBox="0 0 200 187" xmlns="http://www.w3.org/2000/svg" xmlns:xlink="http://www.w3.org/1999/xlink"><g fill="none" stroke="black" stroke-width="1" fill-rule="evenodd" stroke-linecap="square" stroke-linejoin="bevel"><g clip-path="none" fill="none" opacity="1" stroke="none" stroke-opacity="0" transform="matrix(1,0,0,1,0,0)"><path d="M0,0 L200,0 L200,187 L0,187 L0,0 z" fill-rule="evenodd" vector-effect="none"/></g><defs><clipPath id="clip3"><path d="M-2,-2 L63,-2 L63,59 L-2,59 L-2,-2 z"/></clipPath></defs><g clip-path="url(#clip3)" fill="#ffffff" fill-opacity="1" opacity="1" stroke="none" stroke-opacity="0" transform="matrix(3.07692,0,0,3.07692,6.15385,6.15385)"><path d="M0,0 L61,0 L61,57 L0,57 L0,0 z" fill-rule="evenodd" vector-effect="none"/></g><defs><clipPath id="clip7"><path d="M372,15 L433,15 L433,72 L372,72 L372,15 z"/></clipPath></defs><g clip-path="url(#clip7)" fill="#ff8282" fill-opacity="1" opacity="1" stroke="#ff8282" stroke-linecap="square" stroke-linejoin="bevel" stroke-opacity="1" stroke-width="1" transform="matrix(3.07692,0,0,3.07692,-1138.46,-40)"><path d="M372,71 L432,71 L432,15 L372,15 L372,71 z" fill-rule="evenodd" vector-effect="none"/></g><defs><clipPath id="clip8"><path d="M372,15 L433,15 L433,72 L372,72 L372,15 z"/></clipPath></defs><g clip-path="url(#clip8)" fill="#aa5757" fill-opacity="1" opacity="1" stroke="#aa5757" stroke-linecap="square" stroke-linejoin="bevel" stroke-opacity="1" stroke-width="1" transform="matrix(3.07692,0,0,3.07692,-1138.46,-40)"><path d="M372,71 L432,71 L432,15 L428,18 L428,68 L376,68 L372,71 z" fill-rule="evenodd" vector-effect="none"/></g><defs><clipPath id="clip9"><path d="M372,15 L433,15 L433,72 L372,72 L372,15 z"/></clipPath></defs><g clip-path="url(#clip9)" fill="#ffacac" fill-opacity="1" opacity="1" stroke="#ffacac" stroke-linecap="square" stroke-linejoin="bevel" stroke-opacity="1" stroke-width="1" transform="matrix(3.07692,0,0,3.07692,-1138.46,-40)"><path d="M372,71 L372,15 L432,15 L428,18 L376,18 L376,68 L372,71 z" fill-rule="evenodd" vector-effect="none"/></g><defs><clipPath id="clip10"><path d="M372,15 L433,15 L433,72 L372,72 L372,15 z"/></clipPath></defs><g clip-path="url(#clip10)" fill="#ffacac" fill-opacity="1" opacity="1" stroke="#000000" stroke-linecap="square" stroke-linejoin="bevel" stroke-opacity="1" stroke-width="1" transform="matrix(3.07692,0,0,3.07692,-1136.92,-38.4615)"><polyline fill="none" points="372,71 432,71" vector-effect="none"/></g><defs><clipPath id="clip11"><path d="M372,15 L433,15 L433,72 L372,72 L372,15 z"/></clipPath></defs><g clip-path="url(#clip11)" fill="#ffacac" fill-opacity="1" opacity="1" stroke="#000000" stroke-linecap="square" stroke-linejoin="bevel" stroke-opacity="1" stroke-width="1" transform="matrix(3.07692,0,0,3.07692,-1136.92,-38.4615)"><polyline fill="none" points="432,71 432,15" vector-effect="none"/></g><defs><clipPath id="clip12"><path d="M372,15 L433,15 L433,72 L372,72 L372,15 z"/></clipPath></defs><g clip-path="url(#clip12)" fill="#ffacac" fill-opacity="1" opacity="1" stroke="#000000" stroke-linecap="square" stroke-linejoin="bevel" stroke-opacity="1" stroke-width="1" transform="matrix(3.07692,0,0,3.07692,-1136.92,-38.4615)"><polyline fill="none" points="432,15 372,15" vector-effect="none"/></g><defs><clipPath id="clip13"><path d="M372,15 L433,15 L433,72 L372,72 L372,15 z"/></clipPath></defs><g clip-path="url(#clip13)" fill="#ffacac" fill-opacity="1" opacity="1" stroke="#000000" stroke-linecap="square" stroke-linejoin="bevel" stroke-opacity="1" stroke-width="1" transform="matrix(3.07692,0,0,3.07692,-1136.92,-38.4615)"><polyline fill="none" points="372,15 372,71" vector-effect="none"/></g><defs><clipPath id="clip15"><path d="M-154,-143 L158,-143 L158,149 L-154,149 L-154,-143 z"/></clipPath></defs><g clip-path="url(#clip15)" fill="#ffacac" fill-opacity="1" opacity="1" stroke="#000000" stroke-linecap="square" stroke-linejoin="bevel" stroke-opacity="1" stroke-width="1" transform="matrix(0.600962,0,0,0.600962,98.4615,92.3077)"><text fill="#000000" fill-opacity="1" font-family="Liberation Sans" font-size="40" font-style="normal" font-weight="400" stroke="none" textLength="122" x="-78.9688" xml:space="preserve" y="17.9219">X&lt;=&gt;Y</text></g><defs><clipPath id="clip21"><path d="M-2,-2 L63,-2 L63,59 L-2,59 L-2,-2 z"/></clipPath></defs><g clip-path="url(#clip21)" fill="none" opacity="1" stroke="none" stroke-opacity="0" transform="matrix(3.07692,0,0,3.07692,6.15385,6.15385)"><path d="M0,0 L61,0 L61,57 L0,57 L0,0 z" fill-rule="evenodd" vector-effect="none"/></g></g></svg>
