<?xml version="1.0" encoding="UTF-8"?><svg width="52.9167mm" height="49.4771mm" viewBox="0 0 200 187" xmlns="http://www.w3.org/2000/svg" xmlns:xlink="http://www.w3.org/1999/xlink"><g fill="none" stroke="black" stroke-width="1" fill-rule="evenodd" stroke-linecap="square" stroke-linejoin="bevel"><g clip-path="none" fill="none" opacity="1" stroke="none" stroke-opacity="0" transform="matrix(1,0,0,1,0,0)"><path d="M0,0 L200,0 L200,187 L0,187 L0,0 z" fill-rule="evenodd" vector-effect="none"/></g><defs><clipPath id="clip3"><path d="M-2,-2 L64,-2 L64,60 L-2,60 L-2,-2 z"/></clipPath></defs><g clip-path="url(#clip3)" fill="#ffffff" fill-opacity="1" opacity="1" stroke="none" stroke-opacity="0" transform="matrix(3.0303,0,0,3.0303,6.06061,6.06061)"><path d="M0,0 L62,0 L62,58 L0,58 L0,0 z" fill-rule="evenodd" vector-effect="none"/></g><defs><clipPath id="clip7"><path d="M200,112 L262,112 L262,170 L200,170 L200,112 z"/></clipPath></defs><g clip-path="url(#clip7)" fill="#ff8282" fill-opacity="1" opacity="1" stroke="#ff8282" stroke-linecap="square" stroke-linejoin="bevel" stroke-opacity="1" stroke-width="1" transform="matrix(3.0303,0,0,3.0303,-600,-333.333)"><path d="M200,169 L261,169 L261,112 L200,112 L200,169 z" fill-rule="evenodd" vector-effect="none"/></g><defs><clipPath id="clip8"><path d="M200,112 L262,112 L262,170 L200,170 L200,112 z"/></clipPath></defs><g clip-path="url(#clip8)" fill="#aa5757" fill-opacity="1" opacity="1" stroke="#aa5757" stroke-linecap="square" stroke-linejoin="bevel" stroke-opacity="1" stroke-width="1" transform="matrix(3.0303,0,0,3.0303,-600,-333.333)"><path d="M200,169 L261,169 L261,112 L257,115 L257,166 L204,166 L200,169 z" fill-rule="evenodd" vector-effect="none"/></g><defs><clipPath id="clip9"><path d="M200,112 L262,112 L262,170 L200,170 L200,112 z"/></clipPath></defs><g clip-path="url(#clip9)" fill="#ffacac" fill-opacity="1" opacity="1" stroke="#ffacac" stroke-linecap="square" stroke-linejoin="bevel" stroke-opacity="1" stroke-width="1" transform="matrix(3.0303,0,0,3.0303,-600,-333.333)"><path d="M200,169 L200,112 L261,112 L257,115 L204,115 L204,166 L200,169 z" fill-rule="evenodd" vector-effect="none"/></g><defs><clipPath id="clip10"><path d="M199,112 L261,112 L261,170 L199,170 L199,112 z"/></clipPath></defs><g clip-path="url(#clip10)" fill="#ffacac" fill-opacity="1" opacity="1" stroke="#000000" stroke-linecap="square" stroke-linejoin="bevel" stroke-opacity="1" stroke-width="1" transform="matrix(3.0303,0,0,3.0303,-598.485,-331.818)"><polyline fill="none" points="200,169 261,169" vector-effect="none"/></g><defs><clipPath id="clip11"><path d="M199,112 L261,112 L261,170 L199,170 L199,112 z"/></clipPath></defs><g clip-path="url(#clip11)" fill="#ffacac" fill-opacity="1" opacity="1" stroke="#000000" stroke-linecap="square" stroke-linejoin="bevel" stroke-opacity="1" stroke-width="1" transform="matrix(3.0303,0,0,3.0303,-598.485,-331.818)"><polyline fill="none" points="261,169 261,112" vector-effect="none"/></g><defs><clipPath id="clip12"><path d="M199,112 L261,112 L261,170 L199,170 L199,112 z"/></clipPath></defs><g clip-path="url(#clip12)" fill="#ffacac" fill-opacity="1" opacity="1" stroke="#000000" stroke-linecap="square" stroke-linejoin="bevel" stroke-opacity="1" stroke-width="1" transform="matrix(3.0303,0,0,3.0303,-598.485,-331.818)"><polyline fill="none" points="261,112 200,112" vector-effect="none"/></g><defs><clipPath id="clip13"><path d="M199,112 L261,112 L261,170 L199,170 L199,112 z"/></clipPath></defs><g clip-path="url(#clip13)" fill="#ffacac" fill-opacity="1" opacity="1" stroke="#000000" stroke-linecap="square" stroke-linejoin="bevel" stroke-opacity="1" stroke-width="1" transform="matrix(3.0303,0,0,3.0303,-598.485,-331.818)"><polyline fill="none" points="200,112 200,169" vector-effect="none"/></g><defs><clipPath id="clip15"><path d="M-159,-148 L158,-148 L158,149 L-159,149 L-159,-148 z"/></clipPath></defs><g clip-path="url(#clip15)" fill="#ffacac" fill-opacity="1" opacity="1" stroke="#000000" stroke-linecap="square" stroke-linejoin="bevel" stroke-opacity="1" stroke-width="1" transform="matrix(0.591856,0,0,0.591856,100,93.9394)"><text fill="#000000" fill-opacity="1" font-family="Liberation Sans" font-size="40" font-style="normal" font-weight="400" stroke="none" textLength="126" x="-82.4688" xml:space="preserve" y="17.9219">Control</text></g><defs><clipPath id="clip21"><path d="M-2,-2 L64,-2 L64,60 L-2,60 L-2,-2 z"/></clipPath></defs><g clip-path="url(#clip21)" fill="none" opacity="1" stroke="none" stroke-opacity="0" transform="matrix(3.0303,0,0,3.0303,6.06061,6.06061)"><path d="M0,0 L62,0 L62,58 L0,58 L0,0 z" fill-rule="evenodd" vector-effect="none"/></g></g></svg>
