<?xml version="1.0" encoding="UTF-8"?><svg width="52.9167mm" height="41.0104mm" viewBox="0 0 200 155" xmlns="http://www.w3.org/2000/svg" xmlns:xlink="http://www.w3.org/1999/xlink"><g fill="none" stroke="black" stroke-width="1" fill-rule="evenodd" stroke-linecap="square" stroke-linejoin="bevel"><g clip-path="none" fill="none" opacity="1" stroke="none" stroke-opacity="0" transform="matrix(1,0,0,1,0,0)"><path d="M0,0 L200,0 L200,155 L0,155 L0,0 z" fill-rule="evenodd" vector-effect="none"/></g><defs><clipPath id="clip3"><path d="M-172,-72 L7,-72 L7,67 L-172,67 L-172,-72 z"/></clipPath></defs><g clip-path="url(#clip3)" fill="none" opacity="1" stroke="#000000" stroke-linecap="round" stroke-linejoin="miter" stroke-miterlimit="2" stroke-opacity="1" stroke-width="2" transform="matrix(1.11732,0,0,1.11732,192.179,80.4469)"><path d="M0,-5 L5,0 L0,5" fill-rule="evenodd" vector-effect="none"/></g><defs><clipPath id="clip6"><path d="M7,102 L-172,102 L-172,-37 L7,-37 L7,102 z"/></clipPath></defs><g clip-path="url(#clip6)" fill="none" opacity="1" stroke="#000000" stroke-linecap="round" stroke-linejoin="miter" stroke-miterlimit="2" stroke-opacity="1" stroke-width="2" transform="matrix(-1.11732,0,0,-1.11732,7.82123,113.966)"><path d="M5,-5 L0,0 L5,5" fill-rule="evenodd" vector-effect="none"/></g><defs><clipPath id="clip9"><path d="M7,37 L-172,37 L-172,-102 L7,-102 L7,37 z"/></clipPath></defs><g clip-path="url(#clip9)" fill="none" opacity="1" stroke="#000000" stroke-linecap="round" stroke-linejoin="miter" stroke-miterlimit="2" stroke-opacity="1" stroke-width="2" transform="matrix(-1.11732,0,0,-1.11732,7.82123,41.3408)"><path d="M5,-5 L0,0 L5,5" fill-rule="evenodd" vector-effect="none"/></g><defs><clipPath id="clip12"><path d="M-7,-2 L172,-2 L172,137 L-7,137 L-7,-2 z"/></clipPath></defs><g clip-path="url(#clip12)" fill="#ffffff" fill-opacity="1" opacity="1" stroke="none" stroke-opacity="0" transform="matrix(1.11732,0,0,1.11732,7.82123,2.23464)"><path d="M0,0 L165,0 L165,135 L0,135 L0,0 z" fill-rule="evenodd" vector-effect="none"/></g><defs><clipPath id="clip16"><path d="M450,35 L615,35 L615,170 L450,170 L450,35 z"/></clipPath></defs><g clip-path="url(#clip16)" fill="#7896e6" fill-opacity="1" opacity="1" stroke="#7896e6" stroke-linecap="square" stroke-linejoin="bevel" stroke-opacity="1" stroke-width="1" transform="matrix(1.11732,0,0,1.11732,-494.972,-36.8715)"><path d="M450,169 L614,169 L614,35 L450,35 L450,169 z" fill-rule="evenodd" vector-effect="none"/></g><defs><clipPath id="clip17"><path d="M450,35 L615,35 L615,170 L450,170 L450,35 z"/></clipPath></defs><g clip-path="url(#clip17)" fill="#506499" fill-opacity="1" opacity="1" stroke="#506499" stroke-linecap="square" stroke-linejoin="bevel" stroke-opacity="1" stroke-width="1" transform="matrix(1.11732,0,0,1.11732,-494.972,-36.8715)"><path d="M450,169 L614,169 L614,35 L604,43 L604,161 L460,161 L450,169 z" fill-rule="evenodd" vector-effect="none"/></g><defs><clipPath id="clip18"><path d="M450,35 L615,35 L615,170 L450,170 L450,35 z"/></clipPath></defs><g clip-path="url(#clip18)" fill="#a5b9ee" fill-opacity="1" opacity="1" stroke="#a5b9ee" stroke-linecap="square" stroke-linejoin="bevel" stroke-opacity="1" stroke-width="1" transform="matrix(1.11732,0,0,1.11732,-494.972,-36.8715)"><path d="M450,169 L450,35 L614,35 L604,43 L460,43 L460,161 L450,169 z" fill-rule="evenodd" vector-effect="none"/></g><defs><clipPath id="clip19"><path d="M450,35 L615,35 L615,170 L450,170 L450,35 z"/></clipPath></defs><g clip-path="url(#clip19)" fill="#a5b9ee" fill-opacity="1" opacity="1" stroke="#000000" stroke-linecap="square" stroke-linejoin="bevel" stroke-opacity="1" stroke-width="1" transform="matrix(1.11732,0,0,1.11732,-494.413,-36.3128)"><polyline fill="none" points="438,68 516,68" vector-effect="none"/></g><defs><clipPath id="clip20"><path d="M450,35 L615,35 L615,170 L450,170 L450,35 z"/></clipPath></defs><g clip-path="url(#clip20)" fill="#a5b9ee" fill-opacity="1" opacity="1" stroke="#000000" stroke-linecap="square" stroke-linejoin="bevel" stroke-opacity="1" stroke-width="1" transform="matrix(1.11732,0,0,1.11732,-494.413,-36.3128)"><polyline fill="none" points="516,68 516,56" vector-effect="none"/></g><defs><clipPath id="clip21"><path d="M450,35 L615,35 L615,170 L450,170 L450,35 z"/></clipPath></defs><g clip-path="url(#clip21)" fill="#a5b9ee" fill-opacity="1" opacity="1" stroke="#000000" stroke-linecap="square" stroke-linejoin="bevel" stroke-opacity="1" stroke-width="1" transform="matrix(1.11732,0,0,1.11732,-494.413,-36.3128)"><polyline fill="none" points="516,56 563,56" vector-effect="none"/></g><defs><clipPath id="clip22"><path d="M450,35 L615,35 L615,170 L450,170 L450,35 z"/></clipPath></defs><g clip-path="url(#clip22)" fill="#a5b9ee" fill-opacity="1" opacity="1" stroke="#000000" stroke-linecap="square" stroke-linejoin="bevel" stroke-opacity="1" stroke-width="1" transform="matrix(1.11732,0,0,1.11732,-494.413,-36.3128)"><polyline fill="none" points="563,56 563,84" vector-effect="none"/></g><defs><clipPath id="clip23"><path d="M450,35 L615,35 L615,170 L450,170 L450,35 z"/></clipPath></defs><g clip-path="url(#clip23)" fill="#a5b9ee" fill-opacity="1" opacity="1" stroke="#000000" stroke-linecap="square" stroke-linejoin="bevel" stroke-opacity="1" stroke-width="1" transform="matrix(1.11732,0,0,1.11732,-494.413,-36.3128)"><polyline fill="none" points="563,84 516,84" vector-effect="none"/></g><defs><clipPath id="clip24"><path d="M450,35 L615,35 L615,170 L450,170 L450,35 z"/></clipPath></defs><g clip-path="url(#clip24)" fill="#a5b9ee" fill-opacity="1" opacity="1" stroke="#000000" stroke-linecap="square" stroke-linejoin="bevel" stroke-opacity="1" stroke-width="1" transform="matrix(1.11732,0,0,1.11732,-494.413,-36.3128)"><polyline fill="none" points="516,84 516,68" vector-effect="none"/></g><defs><clipPath id="clip25"><path d="M450,35 L615,35 L615,170 L450,170 L450,35 z"/></clipPath></defs><g clip-path="url(#clip25)" fill="#a5b9ee" fill-opacity="1" opacity="1" stroke="#000000" stroke-linecap="square" stroke-linejoin="bevel" stroke-opacity="1" stroke-width="1" transform="matrix(1.11732,0,0,1.11732,-494.413,-36.3128)"><polyline fill="none" points="563,68 573,68" vector-effect="none"/></g><defs><clipPath id="clip26"><path d="M450,35 L615,35 L615,170 L450,170 L450,35 z"/></clipPath></defs><g clip-path="url(#clip26)" fill="#a5b9ee" fill-opacity="1" opacity="1" stroke="#000000" stroke-linecap="square" stroke-linejoin="bevel" stroke-opacity="1" stroke-width="1" transform="matrix(1.11732,0,0,1.11732,-494.413,-36.3128)"><polyline fill="none" points="573,68 573,104" vector-effect="none"/></g><defs><clipPath id="clip27"><path d="M450,35 L615,35 L615,170 L450,170 L450,35 z"/></clipPath></defs><g clip-path="url(#clip27)" fill="#a5b9ee" fill-opacity="1" opacity="1" stroke="#000000" stroke-linecap="square" stroke-linejoin="bevel" stroke-opacity="1" stroke-width="1" transform="matrix(1.11732,0,0,1.11732,-494.413,-36.3128)"><polyline fill="none" points="438,135 516,135" vector-effect="none"/></g><defs><clipPath id="clip28"><path d="M450,35 L615,35 L615,170 L450,170 L450,35 z"/></clipPath></defs><g clip-path="url(#clip28)" fill="#a5b9ee" fill-opacity="1" opacity="1" stroke="#000000" stroke-linecap="square" stroke-linejoin="bevel" stroke-opacity="1" stroke-width="1" transform="matrix(1.11732,0,0,1.11732,-494.413,-36.3128)"><polyline fill="none" points="573,104 615,104" vector-effect="none"/></g><defs><clipPath id="clip29"><path d="M450,35 L615,35 L615,170 L450,170 L450,35 z"/></clipPath></defs><g clip-path="url(#clip29)" fill="#a5b9ee" fill-opacity="1" opacity="1" stroke="#000000" stroke-linecap="square" stroke-linejoin="bevel" stroke-opacity="1" stroke-width="1" transform="matrix(1.11732,0,0,1.11732,-494.413,-36.3128)"><polyline fill="none" points="516,111 563,111" vector-effect="none"/></g><defs><clipPath id="clip30"><path d="M450,35 L615,35 L615,170 L450,170 L450,35 z"/></clipPath></defs><g clip-path="url(#clip30)" fill="#a5b9ee" fill-opacity="1" opacity="1" stroke="#000000" stroke-linecap="square" stroke-linejoin="bevel" stroke-opacity="1" stroke-width="1" transform="matrix(1.11732,0,0,1.11732,-494.413,-36.3128)"><polyline fill="none" points="563,111 563,147" vector-effect="none"/></g><defs><clipPath id="clip31"><path d="M450,35 L615,35 L615,170 L450,170 L450,35 z"/></clipPath></defs><g clip-path="url(#clip31)" fill="#a5b9ee" fill-opacity="1" opacity="1" stroke="#000000" stroke-linecap="square" stroke-linejoin="bevel" stroke-opacity="1" stroke-width="1" transform="matrix(1.11732,0,0,1.11732,-494.413,-36.3128)"><polyline fill="none" points="563,147 516,147" vector-effect="none"/></g><defs><clipPath id="clip32"><path d="M450,35 L615,35 L615,170 L450,170 L450,35 z"/></clipPath></defs><g clip-path="url(#clip32)" fill="#a5b9ee" fill-opacity="1" opacity="1" stroke="#000000" stroke-linecap="square" stroke-linejoin="bevel" stroke-opacity="1" stroke-width="1" transform="matrix(1.11732,0,0,1.11732,-494.413,-36.3128)"><polyline fill="none" points="516,147 516,111" vector-effect="none"/></g><defs><clipPath id="clip33"><path d="M450,35 L615,35 L615,170 L450,170 L450,35 z"/></clipPath></defs><g clip-path="url(#clip33)" fill="#a5b9ee" fill-opacity="1" opacity="1" stroke="#000000" stroke-linecap="square" stroke-linejoin="bevel" stroke-opacity="1" stroke-width="1" transform="matrix(1.11732,0,0,1.11732,-494.413,-36.3128)"><polyline fill="none" points="537,111 537,84" vector-effect="none"/></g><defs><clipPath id="clip34"><path d="M450,35 L615,35 L615,170 L450,170 L450,35 z"/></clipPath></defs><g clip-path="url(#clip34)" fill="#a5b9ee" fill-opacity="1" opacity="1" stroke="#000000" stroke-linecap="square" stroke-linejoin="bevel" stroke-opacity="1" stroke-width="1" transform="matrix(1.11732,0,0,1.11732,-494.413,-36.3128)"><polyline fill="none" points="532,103 537,111" vector-effect="none"/></g><defs><clipPath id="clip35"><path d="M450,35 L615,35 L615,170 L450,170 L450,35 z"/></clipPath></defs><g clip-path="url(#clip35)" fill="#a5b9ee" fill-opacity="1" opacity="1" stroke="#000000" stroke-linecap="square" stroke-linejoin="bevel" stroke-opacity="1" stroke-width="1" transform="matrix(1.11732,0,0,1.11732,-494.413,-36.3128)"><polyline fill="none" points="537,111 541,103" vector-effect="none"/></g><defs><clipPath id="clip36"><path d="M450,35 L615,35 L615,170 L450,170 L450,35 z"/></clipPath></defs><g clip-path="url(#clip36)" fill="#a5b9ee" fill-opacity="1" opacity="1" stroke="#000000" stroke-linecap="square" stroke-linejoin="bevel" stroke-opacity="1" stroke-width="1" transform="matrix(1.11732,0,0,1.11732,-494.413,-36.3128)"><polyline fill="none" points="516,116 497,116" vector-effect="none"/></g><defs><clipPath id="clip37"><path d="M450,35 L615,35 L615,170 L450,170 L450,35 z"/></clipPath></defs><g clip-path="url(#clip37)" fill="#a5b9ee" fill-opacity="1" opacity="1" stroke="#000000" stroke-linecap="square" stroke-linejoin="bevel" stroke-opacity="1" stroke-width="1" transform="matrix(1.11732,0,0,1.11732,-494.413,-36.3128)"><polyline fill="none" points="497,116 497,79" vector-effect="none"/></g><defs><clipPath id="clip38"><path d="M450,35 L615,35 L615,170 L450,170 L450,35 z"/></clipPath></defs><g clip-path="url(#clip38)" fill="#a5b9ee" fill-opacity="1" opacity="1" stroke="#000000" stroke-linecap="square" stroke-linejoin="bevel" stroke-opacity="1" stroke-width="1" transform="matrix(1.11732,0,0,1.11732,-494.413,-36.3128)"><polyline fill="none" points="497,79 516,79" vector-effect="none"/></g><defs><clipPath id="clip39"><path d="M450,35 L615,35 L615,170 L450,170 L450,35 z"/></clipPath></defs><g clip-path="url(#clip39)" fill="#a5b9ee" fill-opacity="1" opacity="1" stroke="#000000" stroke-linecap="square" stroke-linejoin="bevel" stroke-opacity="1" stroke-width="1" transform="matrix(1.11732,0,0,1.11732,-494.413,-36.3128)"><polyline fill="none" points="506,75 516,79" vector-effect="none"/></g><defs><clipPath id="clip40"><path d="M450,35 L615,35 L615,170 L450,170 L450,35 z"/></clipPath></defs><g clip-path="url(#clip40)" fill="#a5b9ee" fill-opacity="1" opacity="1" stroke="#000000" stroke-linecap="square" stroke-linejoin="bevel" stroke-opacity="1" stroke-width="1" transform="matrix(1.11732,0,0,1.11732,-494.413,-36.3128)"><polyline fill="none" points="516,79 506,82" vector-effect="none"/></g><defs><clipPath id="clip41"><path d="M450,35 L615,35 L615,170 L450,170 L450,35 z"/></clipPath></defs><g clip-path="url(#clip41)" fill="#a5b9ee" fill-opacity="1" opacity="1" stroke="#000000" stroke-linecap="square" stroke-linejoin="bevel" stroke-opacity="1" stroke-width="1" transform="matrix(1.11732,0,0,1.11732,-494.413,-36.3128)"><polyline fill="none" points="450,169 614,169" vector-effect="none"/></g><defs><clipPath id="clip42"><path d="M450,35 L615,35 L615,170 L450,170 L450,35 z"/></clipPath></defs><g clip-path="url(#clip42)" fill="#a5b9ee" fill-opacity="1" opacity="1" stroke="#000000" stroke-linecap="square" stroke-linejoin="bevel" stroke-opacity="1" stroke-width="1" transform="matrix(1.11732,0,0,1.11732,-494.413,-36.3128)"><polyline fill="none" points="614,169 614,35" vector-effect="none"/></g><defs><clipPath id="clip43"><path d="M450,35 L615,35 L615,170 L450,170 L450,35 z"/></clipPath></defs><g clip-path="url(#clip43)" fill="#a5b9ee" fill-opacity="1" opacity="1" stroke="#000000" stroke-linecap="square" stroke-linejoin="bevel" stroke-opacity="1" stroke-width="1" transform="matrix(1.11732,0,0,1.11732,-494.413,-36.3128)"><polyline fill="none" points="614,35 450,35" vector-effect="none"/></g><defs><clipPath id="clip44"><path d="M450,35 L615,35 L615,170 L450,170 L450,35 z"/></clipPath></defs><g clip-path="url(#clip44)" fill="#a5b9ee" fill-opacity="1" opacity="1" stroke="#000000" stroke-linecap="square" stroke-linejoin="bevel" stroke-opacity="1" stroke-width="1" transform="matrix(1.11732,0,0,1.11732,-494.413,-36.3128)"><polyline fill="none" points="450,35 450,169" vector-effect="none"/></g><defs><clipPath id="clip46"><path d="M-20,-481 L825,-481 L825,210 L-20,210 L-20,-481 z"/></clipPath></defs><g clip-path="url(#clip46)" fill="#a5b9ee" fill-opacity="1" opacity="1" stroke="#000000" stroke-linecap="square" stroke-linejoin="bevel" stroke-opacity="1" stroke-width="1" transform="matrix(0.218226,0,0,0.218226,12.2905,107.263)"><text fill="#000000" fill-opacity="1" font-family="Liberation Sans" font-size="40" font-style="normal" font-weight="400" stroke="none" textLength="89" x="0" xml:space="preserve" y="17.9219">Plant</text></g><defs><clipPath id="clip49"><path d="M-20,-548 L825,-548 L825,143 L-20,143 L-20,-548 z"/></clipPath></defs><g clip-path="url(#clip49)" fill="#a5b9ee" fill-opacity="1" opacity="1" stroke="#000000" stroke-linecap="square" stroke-linejoin="bevel" stroke-opacity="1" stroke-width="1" transform="matrix(0.218226,0,0,0.218226,12.2905,121.788)"><text fill="#000000" fill-opacity="1" font-family="Liberation Sans" font-size="40" font-style="normal" font-weight="400" stroke="none" textLength="117" x="0" xml:space="preserve" y="17.9219">Output</text></g><defs><clipPath id="clip52"><path d="M-20,-138 L825,-138 L825,553 L-20,553 L-20,-138 z"/></clipPath></defs><g clip-path="url(#clip52)" fill="#a5b9ee" fill-opacity="1" opacity="1" stroke="#000000" stroke-linecap="square" stroke-linejoin="bevel" stroke-opacity="1" stroke-width="1" transform="matrix(0.218226,0,0,0.218226,12.2905,32.4022)"><text fill="#000000" fill-opacity="1" font-family="Liberation Sans" font-size="40" font-style="normal" font-weight="400" stroke="none" textLength="183" x="0" xml:space="preserve" y="17.9219">Reference</text></g><defs><clipPath id="clip55"><path d="M-650,-328 L195,-328 L195,363 L-650,363 L-650,-328 z"/></clipPath></defs><g clip-path="url(#clip55)" fill="#a5b9ee" fill-opacity="1" opacity="1" stroke="#000000" stroke-linecap="square" stroke-linejoin="bevel" stroke-opacity="1" stroke-width="1" transform="matrix(0.218226,0,0,0.218226,149.721,73.743)"><text fill="#000000" fill-opacity="1" font-family="Liberation Sans" font-size="40" font-style="normal" font-weight="400" stroke="none" textLength="126" x="0" xml:space="preserve" y="17.9219">Control</text></g><defs><clipPath id="clip58"><path d="M-650,-389 L195,-389 L195,302 L-650,302 L-650,-389 z"/></clipPath></defs><g clip-path="url(#clip58)" fill="#a5b9ee" fill-opacity="1" opacity="1" stroke="#000000" stroke-linecap="square" stroke-linejoin="bevel" stroke-opacity="1" stroke-width="1" transform="matrix(0.218226,0,0,0.218226,149.721,87.1508)"><text fill="#000000" fill-opacity="1" font-family="Liberation Sans" font-size="40" font-style="normal" font-weight="400" stroke="none" textLength="108" x="0" xml:space="preserve" y="17.9219">Signal</text></g><defs><clipPath id="clip61"><path d="M-379,-169 L466,-169 L466,522 L-379,522 L-379,-169 z"/></clipPath></defs><g clip-path="url(#clip61)" fill="#a5b9ee" fill-opacity="1" opacity="1" stroke="#000000" stroke-linecap="square" stroke-linejoin="bevel" stroke-opacity="1" stroke-width="1" transform="matrix(0.218226,0,0,0.218226,90.5028,39.1061)"><text fill="#000000" fill-opacity="1" font-family="Liberation Sans" font-size="40" font-style="normal" font-weight="400" stroke="none" textLength="117" x="0" xml:space="preserve" y="17.9219">Optim.</text></g><defs><clipPath id="clip64"><path d="M-379,-451 L466,-451 L466,240 L-379,240 L-379,-451 z"/></clipPath></defs><g clip-path="url(#clip64)" fill="#a5b9ee" fill-opacity="1" opacity="1" stroke="#000000" stroke-linecap="square" stroke-linejoin="bevel" stroke-opacity="1" stroke-width="1" transform="matrix(0.218226,0,0,0.218226,90.5028,100.559)"><text fill="#000000" fill-opacity="1" font-family="Liberation Sans" font-size="40" font-style="normal" font-weight="400" stroke="none" textLength="58" x="0" xml:space="preserve" y="17.9219">NN</text></g><defs><clipPath id="clip67"><path d="M-379,-522 L466,-522 L466,169 L-379,169 L-379,-522 z"/></clipPath></defs><g clip-path="url(#clip67)" fill="#a5b9ee" fill-opacity="1" opacity="1" stroke="#000000" stroke-linecap="square" stroke-linejoin="bevel" stroke-opacity="1" stroke-width="1" transform="matrix(0.218226,0,0,0.218226,90.5028,116.201)"><text fill="#000000" fill-opacity="1" font-family="Liberation Sans" font-size="40" font-style="normal" font-weight="400" stroke="none" textLength="107" x="0" xml:space="preserve" y="17.9219">Model</text></g><defs><clipPath id="clip73"><path d="M-7,-2 L172,-2 L172,137 L-7,137 L-7,-2 z"/></clipPath></defs><g clip-path="url(#clip73)" fill="none" opacity="1" stroke="none" stroke-opacity="0" transform="matrix(1.11732,0,0,1.11732,7.82123,2.23464)"><path d="M0,0 L165,0 L165,135 L0,135 L0,0 z" fill-rule="evenodd" vector-effect="none"/></g></g></svg>
