<?xml version="1.0" encoding="UTF-8"?><svg width="52.9167mm" height="42.8625mm" viewBox="0 0 200 162" xmlns="http://www.w3.org/2000/svg" xmlns:xlink="http://www.w3.org/1999/xlink"><g fill="none" stroke="black" stroke-width="1" fill-rule="evenodd" stroke-linecap="square" stroke-linejoin="bevel"><g clip-path="none" fill="none" opacity="1" stroke="none" stroke-opacity="0" transform="matrix(1,0,0,1,0,0)"><path d="M0,0 L200,0 L200,162 L0,162 L0,0 z" fill-rule="evenodd" vector-effect="none"/></g><defs><clipPath id="clip3"><path d="M-47,-22 L7,-22 L7,22 L-47,22 L-47,-22 z"/></clipPath></defs><g clip-path="url(#clip3)" fill="none" opacity="1" stroke="#000000" stroke-linecap="round" stroke-linejoin="miter" stroke-miterlimit="2" stroke-opacity="1" stroke-width="2" transform="matrix(3.7037,0,0,3.7037,174.074,81.4815)"><path d="M0,-5 L5,0 L0,5" fill-rule="evenodd" vector-effect="none"/></g><defs><clipPath id="clip6"><path d="M7,22 L-47,22 L-47,-22 L7,-22 L7,22 z"/></clipPath></defs><g clip-path="url(#clip6)" fill="none" opacity="1" stroke="#000000" stroke-linecap="round" stroke-linejoin="miter" stroke-miterlimit="2" stroke-opacity="1" stroke-width="2" transform="matrix(-3.7037,0,0,-3.7037,25.9259,81.4815)"><path d="M5,-5 L0,0 L5,5" fill-rule="evenodd" vector-effect="none"/></g><defs><clipPath id="clip9"><path d="M-7,-2 L47,-2 L47,42 L-7,42 L-7,-2 z"/></clipPath></defs><g clip-path="url(#clip9)" fill="#ffffff" fill-opacity="1" opacity="1" stroke="none" stroke-opacity="0" transform="matrix(3.7037,0,0,3.7037,25.9259,7.40741)"><path d="M0,0 L40,0 L40,40 L0,40 L0,0 z" fill-rule="evenodd" vector-effect="none"/></g><defs><clipPath id="clip13"><path d="M80,20 L120,20 L120,60 L80,60 L80,20 z"/></clipPath></defs><g clip-path="url(#clip13)" fill="#7896e6" fill-opacity="1" opacity="1" stroke="#7896e6" stroke-linecap="square" stroke-linejoin="bevel" stroke-opacity="1" stroke-width="1" transform="matrix(3.7037,0,0,3.7037,-270.37,-66.6667)"><path d="M80,59 L119,59 L119,20 L80,20 L80,59 z" fill-rule="evenodd" vector-effect="none"/></g><defs><clipPath id="clip14"><path d="M80,20 L120,20 L120,60 L80,60 L80,20 z"/></clipPath></defs><g clip-path="url(#clip14)" fill="#506499" fill-opacity="1" opacity="1" stroke="#506499" stroke-linecap="square" stroke-linejoin="bevel" stroke-opacity="1" stroke-width="1" transform="matrix(3.7037,0,0,3.7037,-270.37,-66.6667)"><path d="M80,59 L119,59 L119,20 L117,22 L117,57 L82,57 L80,59 z" fill-rule="evenodd" vector-effect="none"/></g><defs><clipPath id="clip15"><path d="M80,20 L120,20 L120,60 L80,60 L80,20 z"/></clipPath></defs><g clip-path="url(#clip15)" fill="#a5b9ee" fill-opacity="1" opacity="1" stroke="#a5b9ee" stroke-linecap="square" stroke-linejoin="bevel" stroke-opacity="1" stroke-width="1" transform="matrix(3.7037,0,0,3.7037,-270.37,-66.6667)"><path d="M80,59 L80,20 L119,20 L117,22 L82,22 L82,57 L80,59 z" fill-rule="evenodd" vector-effect="none"/></g><defs><clipPath id="clip16"><path d="M80,20 L120,20 L120,60 L80,60 L80,20 z"/></clipPath></defs><g clip-path="url(#clip16)" fill="#a5b9ee" fill-opacity="1" opacity="1" stroke="#ffffff" stroke-linecap="square" stroke-linejoin="bevel" stroke-opacity="1" stroke-width="1" transform="matrix(3.7037,0,0,3.7037,-268.519,-64.8148)"><polyline fill="none" points="86,40 113,40" vector-effect="none"/></g><defs><clipPath id="clip17"><path d="M80,20 L120,20 L120,60 L80,60 L80,20 z"/></clipPath></defs><g clip-path="url(#clip17)" fill="#a5b9ee" fill-opacity="1" opacity="1" stroke="#ffffff" stroke-linecap="square" stroke-linejoin="bevel" stroke-opacity="1" stroke-width="1" transform="matrix(3.7037,0,0,3.7037,-268.519,-64.8148)"><polyline fill="none" points="100,53 100,26" vector-effect="none"/></g><defs><clipPath id="clip18"><path d="M80,20 L120,20 L120,60 L80,60 L80,20 z"/></clipPath></defs><g clip-path="url(#clip18)" fill="#000000" fill-opacity="1" opacity="1" stroke="none" stroke-opacity="0" transform="matrix(3.7037,0,0,3.7037,-268.519,-64.8148)"><path d="M85.5,52.5 L86.5,52.5 L86.5,53.5 L85.5,53.5 L85.5,52.5 z" fill-rule="evenodd" vector-effect="none"/></g><defs><clipPath id="clip19"><path d="M80,20 L120,20 L120,60 L80,60 L80,20 z"/></clipPath></defs><g clip-path="url(#clip19)" fill="#a5b9ee" fill-opacity="1" opacity="1" stroke="#000000" stroke-linecap="square" stroke-linejoin="bevel" stroke-opacity="1" stroke-width="1" transform="matrix(3.7037,0,0,3.7037,-268.519,-64.8148)"><polyline fill="none" points="86,53 87,53" vector-effect="none"/></g><defs><clipPath id="clip20"><path d="M80,20 L120,20 L120,60 L80,60 L80,20 z"/></clipPath></defs><g clip-path="url(#clip20)" fill="#a5b9ee" fill-opacity="1" opacity="1" stroke="#000000" stroke-linecap="square" stroke-linejoin="bevel" stroke-opacity="1" stroke-width="1" transform="matrix(3.7037,0,0,3.7037,-268.519,-64.8148)"><polyline fill="none" points="87,53 88,53" vector-effect="none"/></g><defs><clipPath id="clip21"><path d="M80,20 L120,20 L120,60 L80,60 L80,20 z"/></clipPath></defs><g clip-path="url(#clip21)" fill="#a5b9ee" fill-opacity="1" opacity="1" stroke="#000000" stroke-linecap="square" stroke-linejoin="bevel" stroke-opacity="1" stroke-width="1" transform="matrix(3.7037,0,0,3.7037,-268.519,-64.8148)"><polyline fill="none" points="88,53 89,53" vector-effect="none"/></g><defs><clipPath id="clip22"><path d="M80,20 L120,20 L120,60 L80,60 L80,20 z"/></clipPath></defs><g clip-path="url(#clip22)" fill="#a5b9ee" fill-opacity="1" opacity="1" stroke="#000000" stroke-linecap="square" stroke-linejoin="bevel" stroke-opacity="1" stroke-width="1" transform="matrix(3.7037,0,0,3.7037,-268.519,-64.8148)"><polyline fill="none" points="89,53 89,52" vector-effect="none"/></g><defs><clipPath id="clip23"><path d="M80,20 L120,20 L120,60 L80,60 L80,20 z"/></clipPath></defs><g clip-path="url(#clip23)" fill="#a5b9ee" fill-opacity="1" opacity="1" stroke="#000000" stroke-linecap="square" stroke-linejoin="bevel" stroke-opacity="1" stroke-width="1" transform="matrix(3.7037,0,0,3.7037,-268.519,-64.8148)"><polyline fill="none" points="89,52 90,52" vector-effect="none"/></g><defs><clipPath id="clip24"><path d="M80,20 L120,20 L120,60 L80,60 L80,20 z"/></clipPath></defs><g clip-path="url(#clip24)" fill="#a5b9ee" fill-opacity="1" opacity="1" stroke="#000000" stroke-linecap="square" stroke-linejoin="bevel" stroke-opacity="1" stroke-width="1" transform="matrix(3.7037,0,0,3.7037,-268.519,-64.8148)"><polyline fill="none" points="90,52 91,52" vector-effect="none"/></g><defs><clipPath id="clip25"><path d="M80,20 L120,20 L120,60 L80,60 L80,20 z"/></clipPath></defs><g clip-path="url(#clip25)" fill="#a5b9ee" fill-opacity="1" opacity="1" stroke="#000000" stroke-linecap="square" stroke-linejoin="bevel" stroke-opacity="1" stroke-width="1" transform="matrix(3.7037,0,0,3.7037,-268.519,-64.8148)"><polyline fill="none" points="91,52 92,52" vector-effect="none"/></g><defs><clipPath id="clip26"><path d="M80,20 L120,20 L120,60 L80,60 L80,20 z"/></clipPath></defs><g clip-path="url(#clip26)" fill="#a5b9ee" fill-opacity="1" opacity="1" stroke="#000000" stroke-linecap="square" stroke-linejoin="bevel" stroke-opacity="1" stroke-width="1" transform="matrix(3.7037,0,0,3.7037,-268.519,-64.8148)"><polyline fill="none" points="92,52 92,51" vector-effect="none"/></g><defs><clipPath id="clip27"><path d="M80,20 L120,20 L120,60 L80,60 L80,20 z"/></clipPath></defs><g clip-path="url(#clip27)" fill="#a5b9ee" fill-opacity="1" opacity="1" stroke="#000000" stroke-linecap="square" stroke-linejoin="bevel" stroke-opacity="1" stroke-width="1" transform="matrix(3.7037,0,0,3.7037,-268.519,-64.8148)"><polyline fill="none" points="92,51 93,51" vector-effect="none"/></g><defs><clipPath id="clip28"><path d="M80,20 L120,20 L120,60 L80,60 L80,20 z"/></clipPath></defs><g clip-path="url(#clip28)" fill="#a5b9ee" fill-opacity="1" opacity="1" stroke="#000000" stroke-linecap="square" stroke-linejoin="bevel" stroke-opacity="1" stroke-width="1" transform="matrix(3.7037,0,0,3.7037,-268.519,-64.8148)"><polyline fill="none" points="93,51 93,50" vector-effect="none"/></g><defs><clipPath id="clip29"><path d="M80,20 L120,20 L120,60 L80,60 L80,20 z"/></clipPath></defs><g clip-path="url(#clip29)" fill="#a5b9ee" fill-opacity="1" opacity="1" stroke="#000000" stroke-linecap="square" stroke-linejoin="bevel" stroke-opacity="1" stroke-width="1" transform="matrix(3.7037,0,0,3.7037,-268.519,-64.8148)"><polyline fill="none" points="93,50 94,50" vector-effect="none"/></g><defs><clipPath id="clip30"><path d="M80,20 L120,20 L120,60 L80,60 L80,20 z"/></clipPath></defs><g clip-path="url(#clip30)" fill="#a5b9ee" fill-opacity="1" opacity="1" stroke="#000000" stroke-linecap="square" stroke-linejoin="bevel" stroke-opacity="1" stroke-width="1" transform="matrix(3.7037,0,0,3.7037,-268.519,-64.8148)"><polyline fill="none" points="94,50 94,49" vector-effect="none"/></g><defs><clipPath id="clip31"><path d="M80,20 L120,20 L120,60 L80,60 L80,20 z"/></clipPath></defs><g clip-path="url(#clip31)" fill="#a5b9ee" fill-opacity="1" opacity="1" stroke="#000000" stroke-linecap="square" stroke-linejoin="bevel" stroke-opacity="1" stroke-width="1" transform="matrix(3.7037,0,0,3.7037,-268.519,-64.8148)"><polyline fill="none" points="94,49 95,49" vector-effect="none"/></g><defs><clipPath id="clip32"><path d="M80,20 L120,20 L120,60 L80,60 L80,20 z"/></clipPath></defs><g clip-path="url(#clip32)" fill="#a5b9ee" fill-opacity="1" opacity="1" stroke="#000000" stroke-linecap="square" stroke-linejoin="bevel" stroke-opacity="1" stroke-width="1" transform="matrix(3.7037,0,0,3.7037,-268.519,-64.8148)"><polyline fill="none" points="95,49 95,48" vector-effect="none"/></g><defs><clipPath id="clip33"><path d="M80,20 L120,20 L120,60 L80,60 L80,20 z"/></clipPath></defs><g clip-path="url(#clip33)" fill="#a5b9ee" fill-opacity="1" opacity="1" stroke="#000000" stroke-linecap="square" stroke-linejoin="bevel" stroke-opacity="1" stroke-width="1" transform="matrix(3.7037,0,0,3.7037,-268.519,-64.8148)"><polyline fill="none" points="95,48 96,48" vector-effect="none"/></g><defs><clipPath id="clip34"><path d="M80,20 L120,20 L120,60 L80,60 L80,20 z"/></clipPath></defs><g clip-path="url(#clip34)" fill="#a5b9ee" fill-opacity="1" opacity="1" stroke="#000000" stroke-linecap="square" stroke-linejoin="bevel" stroke-opacity="1" stroke-width="1" transform="matrix(3.7037,0,0,3.7037,-268.519,-64.8148)"><polyline fill="none" points="96,48 96,47" vector-effect="none"/></g><defs><clipPath id="clip35"><path d="M80,20 L120,20 L120,60 L80,60 L80,20 z"/></clipPath></defs><g clip-path="url(#clip35)" fill="#a5b9ee" fill-opacity="1" opacity="1" stroke="#000000" stroke-linecap="square" stroke-linejoin="bevel" stroke-opacity="1" stroke-width="1" transform="matrix(3.7037,0,0,3.7037,-268.519,-64.8148)"><polyline fill="none" points="96,47 96,46" vector-effect="none"/></g><defs><clipPath id="clip36"><path d="M80,20 L120,20 L120,60 L80,60 L80,20 z"/></clipPath></defs><g clip-path="url(#clip36)" fill="#a5b9ee" fill-opacity="1" opacity="1" stroke="#000000" stroke-linecap="square" stroke-linejoin="bevel" stroke-opacity="1" stroke-width="1" transform="matrix(3.7037,0,0,3.7037,-268.519,-64.8148)"><polyline fill="none" points="96,46 97,46" vector-effect="none"/></g><defs><clipPath id="clip37"><path d="M80,20 L120,20 L120,60 L80,60 L80,20 z"/></clipPath></defs><g clip-path="url(#clip37)" fill="#a5b9ee" fill-opacity="1" opacity="1" stroke="#000000" stroke-linecap="square" stroke-linejoin="bevel" stroke-opacity="1" stroke-width="1" transform="matrix(3.7037,0,0,3.7037,-268.519,-64.8148)"><polyline fill="none" points="97,46 97,45" vector-effect="none"/></g><defs><clipPath id="clip38"><path d="M80,20 L120,20 L120,60 L80,60 L80,20 z"/></clipPath></defs><g clip-path="url(#clip38)" fill="#a5b9ee" fill-opacity="1" opacity="1" stroke="#000000" stroke-linecap="square" stroke-linejoin="bevel" stroke-opacity="1" stroke-width="1" transform="matrix(3.7037,0,0,3.7037,-268.519,-64.8148)"><polyline fill="none" points="97,45 97,44" vector-effect="none"/></g><defs><clipPath id="clip39"><path d="M80,20 L120,20 L120,60 L80,60 L80,20 z"/></clipPath></defs><g clip-path="url(#clip39)" fill="#a5b9ee" fill-opacity="1" opacity="1" stroke="#000000" stroke-linecap="square" stroke-linejoin="bevel" stroke-opacity="1" stroke-width="1" transform="matrix(3.7037,0,0,3.7037,-268.519,-64.8148)"><polyline fill="none" points="97,44 98,44" vector-effect="none"/></g><defs><clipPath id="clip40"><path d="M80,20 L120,20 L120,60 L80,60 L80,20 z"/></clipPath></defs><g clip-path="url(#clip40)" fill="#a5b9ee" fill-opacity="1" opacity="1" stroke="#000000" stroke-linecap="square" stroke-linejoin="bevel" stroke-opacity="1" stroke-width="1" transform="matrix(3.7037,0,0,3.7037,-268.519,-64.8148)"><polyline fill="none" points="98,44 98,43" vector-effect="none"/></g><defs><clipPath id="clip41"><path d="M80,20 L120,20 L120,60 L80,60 L80,20 z"/></clipPath></defs><g clip-path="url(#clip41)" fill="#a5b9ee" fill-opacity="1" opacity="1" stroke="#000000" stroke-linecap="square" stroke-linejoin="bevel" stroke-opacity="1" stroke-width="1" transform="matrix(3.7037,0,0,3.7037,-268.519,-64.8148)"><polyline fill="none" points="98,43 98,42" vector-effect="none"/></g><defs><clipPath id="clip42"><path d="M80,20 L120,20 L120,60 L80,60 L80,20 z"/></clipPath></defs><g clip-path="url(#clip42)" fill="#a5b9ee" fill-opacity="1" opacity="1" stroke="#000000" stroke-linecap="square" stroke-linejoin="bevel" stroke-opacity="1" stroke-width="1" transform="matrix(3.7037,0,0,3.7037,-268.519,-64.8148)"><polyline fill="none" points="98,42 99,42" vector-effect="none"/></g><defs><clipPath id="clip43"><path d="M80,20 L120,20 L120,60 L80,60 L80,20 z"/></clipPath></defs><g clip-path="url(#clip43)" fill="#a5b9ee" fill-opacity="1" opacity="1" stroke="#000000" stroke-linecap="square" stroke-linejoin="bevel" stroke-opacity="1" stroke-width="1" transform="matrix(3.7037,0,0,3.7037,-268.519,-64.8148)"><polyline fill="none" points="99,42 99,41" vector-effect="none"/></g><defs><clipPath id="clip44"><path d="M80,20 L120,20 L120,60 L80,60 L80,20 z"/></clipPath></defs><g clip-path="url(#clip44)" fill="#a5b9ee" fill-opacity="1" opacity="1" stroke="#000000" stroke-linecap="square" stroke-linejoin="bevel" stroke-opacity="1" stroke-width="1" transform="matrix(3.7037,0,0,3.7037,-268.519,-64.8148)"><polyline fill="none" points="99,41 99,40" vector-effect="none"/></g><defs><clipPath id="clip45"><path d="M80,20 L120,20 L120,60 L80,60 L80,20 z"/></clipPath></defs><g clip-path="url(#clip45)" fill="#a5b9ee" fill-opacity="1" opacity="1" stroke="#000000" stroke-linecap="square" stroke-linejoin="bevel" stroke-opacity="1" stroke-width="1" transform="matrix(3.7037,0,0,3.7037,-268.519,-64.8148)"><polyline fill="none" points="99,40 100,40" vector-effect="none"/></g><defs><clipPath id="clip46"><path d="M80,20 L120,20 L120,60 L80,60 L80,20 z"/></clipPath></defs><g clip-path="url(#clip46)" fill="#a5b9ee" fill-opacity="1" opacity="1" stroke="#000000" stroke-linecap="square" stroke-linejoin="bevel" stroke-opacity="1" stroke-width="1" transform="matrix(3.7037,0,0,3.7037,-268.519,-64.8148)"><polyline fill="none" points="100,40 100,39" vector-effect="none"/></g><defs><clipPath id="clip47"><path d="M80,20 L120,20 L120,60 L80,60 L80,20 z"/></clipPath></defs><g clip-path="url(#clip47)" fill="#a5b9ee" fill-opacity="1" opacity="1" stroke="#000000" stroke-linecap="square" stroke-linejoin="bevel" stroke-opacity="1" stroke-width="1" transform="matrix(3.7037,0,0,3.7037,-268.519,-64.8148)"><polyline fill="none" points="100,39 100,38" vector-effect="none"/></g><defs><clipPath id="clip48"><path d="M80,20 L120,20 L120,60 L80,60 L80,20 z"/></clipPath></defs><g clip-path="url(#clip48)" fill="#a5b9ee" fill-opacity="1" opacity="1" stroke="#000000" stroke-linecap="square" stroke-linejoin="bevel" stroke-opacity="1" stroke-width="1" transform="matrix(3.7037,0,0,3.7037,-268.519,-64.8148)"><polyline fill="none" points="100,38 100,37" vector-effect="none"/></g><defs><clipPath id="clip49"><path d="M80,20 L120,20 L120,60 L80,60 L80,20 z"/></clipPath></defs><g clip-path="url(#clip49)" fill="#a5b9ee" fill-opacity="1" opacity="1" stroke="#000000" stroke-linecap="square" stroke-linejoin="bevel" stroke-opacity="1" stroke-width="1" transform="matrix(3.7037,0,0,3.7037,-268.519,-64.8148)"><polyline fill="none" points="100,37 101,37" vector-effect="none"/></g><defs><clipPath id="clip50"><path d="M80,20 L120,20 L120,60 L80,60 L80,20 z"/></clipPath></defs><g clip-path="url(#clip50)" fill="#a5b9ee" fill-opacity="1" opacity="1" stroke="#000000" stroke-linecap="square" stroke-linejoin="bevel" stroke-opacity="1" stroke-width="1" transform="matrix(3.7037,0,0,3.7037,-268.519,-64.8148)"><polyline fill="none" points="101,37 101,36" vector-effect="none"/></g><defs><clipPath id="clip51"><path d="M80,20 L120,20 L120,60 L80,60 L80,20 z"/></clipPath></defs><g clip-path="url(#clip51)" fill="#a5b9ee" fill-opacity="1" opacity="1" stroke="#000000" stroke-linecap="square" stroke-linejoin="bevel" stroke-opacity="1" stroke-width="1" transform="matrix(3.7037,0,0,3.7037,-268.519,-64.8148)"><polyline fill="none" points="101,36 101,35" vector-effect="none"/></g><defs><clipPath id="clip52"><path d="M80,20 L120,20 L120,60 L80,60 L80,20 z"/></clipPath></defs><g clip-path="url(#clip52)" fill="#a5b9ee" fill-opacity="1" opacity="1" stroke="#000000" stroke-linecap="square" stroke-linejoin="bevel" stroke-opacity="1" stroke-width="1" transform="matrix(3.7037,0,0,3.7037,-268.519,-64.8148)"><polyline fill="none" points="101,35 102,35" vector-effect="none"/></g><defs><clipPath id="clip53"><path d="M80,20 L120,20 L120,60 L80,60 L80,20 z"/></clipPath></defs><g clip-path="url(#clip53)" fill="#a5b9ee" fill-opacity="1" opacity="1" stroke="#000000" stroke-linecap="square" stroke-linejoin="bevel" stroke-opacity="1" stroke-width="1" transform="matrix(3.7037,0,0,3.7037,-268.519,-64.8148)"><polyline fill="none" points="102,35 102,34" vector-effect="none"/></g><defs><clipPath id="clip54"><path d="M80,20 L120,20 L120,60 L80,60 L80,20 z"/></clipPath></defs><g clip-path="url(#clip54)" fill="#a5b9ee" fill-opacity="1" opacity="1" stroke="#000000" stroke-linecap="square" stroke-linejoin="bevel" stroke-opacity="1" stroke-width="1" transform="matrix(3.7037,0,0,3.7037,-268.519,-64.8148)"><polyline fill="none" points="102,34 102,33" vector-effect="none"/></g><defs><clipPath id="clip55"><path d="M80,20 L120,20 L120,60 L80,60 L80,20 z"/></clipPath></defs><g clip-path="url(#clip55)" fill="#a5b9ee" fill-opacity="1" opacity="1" stroke="#000000" stroke-linecap="square" stroke-linejoin="bevel" stroke-opacity="1" stroke-width="1" transform="matrix(3.7037,0,0,3.7037,-268.519,-64.8148)"><polyline fill="none" points="102,33 103,33" vector-effect="none"/></g><defs><clipPath id="clip56"><path d="M80,20 L120,20 L120,60 L80,60 L80,20 z"/></clipPath></defs><g clip-path="url(#clip56)" fill="#a5b9ee" fill-opacity="1" opacity="1" stroke="#000000" stroke-linecap="square" stroke-linejoin="bevel" stroke-opacity="1" stroke-width="1" transform="matrix(3.7037,0,0,3.7037,-268.519,-64.8148)"><polyline fill="none" points="103,33 103,32" vector-effect="none"/></g><defs><clipPath id="clip57"><path d="M80,20 L120,20 L120,60 L80,60 L80,20 z"/></clipPath></defs><g clip-path="url(#clip57)" fill="#a5b9ee" fill-opacity="1" opacity="1" stroke="#000000" stroke-linecap="square" stroke-linejoin="bevel" stroke-opacity="1" stroke-width="1" transform="matrix(3.7037,0,0,3.7037,-268.519,-64.8148)"><polyline fill="none" points="103,32 103,31" vector-effect="none"/></g><defs><clipPath id="clip58"><path d="M80,20 L120,20 L120,60 L80,60 L80,20 z"/></clipPath></defs><g clip-path="url(#clip58)" fill="#a5b9ee" fill-opacity="1" opacity="1" stroke="#000000" stroke-linecap="square" stroke-linejoin="bevel" stroke-opacity="1" stroke-width="1" transform="matrix(3.7037,0,0,3.7037,-268.519,-64.8148)"><polyline fill="none" points="103,31 104,31" vector-effect="none"/></g><defs><clipPath id="clip59"><path d="M80,20 L120,20 L120,60 L80,60 L80,20 z"/></clipPath></defs><g clip-path="url(#clip59)" fill="#a5b9ee" fill-opacity="1" opacity="1" stroke="#000000" stroke-linecap="square" stroke-linejoin="bevel" stroke-opacity="1" stroke-width="1" transform="matrix(3.7037,0,0,3.7037,-268.519,-64.8148)"><polyline fill="none" points="104,31 104,30" vector-effect="none"/></g><defs><clipPath id="clip60"><path d="M80,20 L120,20 L120,60 L80,60 L80,20 z"/></clipPath></defs><g clip-path="url(#clip60)" fill="#a5b9ee" fill-opacity="1" opacity="1" stroke="#000000" stroke-linecap="square" stroke-linejoin="bevel" stroke-opacity="1" stroke-width="1" transform="matrix(3.7037,0,0,3.7037,-268.519,-64.8148)"><polyline fill="none" points="104,30 105,30" vector-effect="none"/></g><defs><clipPath id="clip61"><path d="M80,20 L120,20 L120,60 L80,60 L80,20 z"/></clipPath></defs><g clip-path="url(#clip61)" fill="#a5b9ee" fill-opacity="1" opacity="1" stroke="#000000" stroke-linecap="square" stroke-linejoin="bevel" stroke-opacity="1" stroke-width="1" transform="matrix(3.7037,0,0,3.7037,-268.519,-64.8148)"><polyline fill="none" points="105,30 105,29" vector-effect="none"/></g><defs><clipPath id="clip62"><path d="M80,20 L120,20 L120,60 L80,60 L80,20 z"/></clipPath></defs><g clip-path="url(#clip62)" fill="#a5b9ee" fill-opacity="1" opacity="1" stroke="#000000" stroke-linecap="square" stroke-linejoin="bevel" stroke-opacity="1" stroke-width="1" transform="matrix(3.7037,0,0,3.7037,-268.519,-64.8148)"><polyline fill="none" points="105,29 106,29" vector-effect="none"/></g><defs><clipPath id="clip63"><path d="M80,20 L120,20 L120,60 L80,60 L80,20 z"/></clipPath></defs><g clip-path="url(#clip63)" fill="#a5b9ee" fill-opacity="1" opacity="1" stroke="#000000" stroke-linecap="square" stroke-linejoin="bevel" stroke-opacity="1" stroke-width="1" transform="matrix(3.7037,0,0,3.7037,-268.519,-64.8148)"><polyline fill="none" points="106,29 106,28" vector-effect="none"/></g><defs><clipPath id="clip64"><path d="M80,20 L120,20 L120,60 L80,60 L80,20 z"/></clipPath></defs><g clip-path="url(#clip64)" fill="#a5b9ee" fill-opacity="1" opacity="1" stroke="#000000" stroke-linecap="square" stroke-linejoin="bevel" stroke-opacity="1" stroke-width="1" transform="matrix(3.7037,0,0,3.7037,-268.519,-64.8148)"><polyline fill="none" points="106,28 107,28" vector-effect="none"/></g><defs><clipPath id="clip65"><path d="M80,20 L120,20 L120,60 L80,60 L80,20 z"/></clipPath></defs><g clip-path="url(#clip65)" fill="#a5b9ee" fill-opacity="1" opacity="1" stroke="#000000" stroke-linecap="square" stroke-linejoin="bevel" stroke-opacity="1" stroke-width="1" transform="matrix(3.7037,0,0,3.7037,-268.519,-64.8148)"><polyline fill="none" points="107,28 107,27" vector-effect="none"/></g><defs><clipPath id="clip66"><path d="M80,20 L120,20 L120,60 L80,60 L80,20 z"/></clipPath></defs><g clip-path="url(#clip66)" fill="#a5b9ee" fill-opacity="1" opacity="1" stroke="#000000" stroke-linecap="square" stroke-linejoin="bevel" stroke-opacity="1" stroke-width="1" transform="matrix(3.7037,0,0,3.7037,-268.519,-64.8148)"><polyline fill="none" points="107,27 108,27" vector-effect="none"/></g><defs><clipPath id="clip67"><path d="M80,20 L120,20 L120,60 L80,60 L80,20 z"/></clipPath></defs><g clip-path="url(#clip67)" fill="#a5b9ee" fill-opacity="1" opacity="1" stroke="#000000" stroke-linecap="square" stroke-linejoin="bevel" stroke-opacity="1" stroke-width="1" transform="matrix(3.7037,0,0,3.7037,-268.519,-64.8148)"><polyline fill="none" points="108,27 109,27" vector-effect="none"/></g><defs><clipPath id="clip68"><path d="M80,20 L120,20 L120,60 L80,60 L80,20 z"/></clipPath></defs><g clip-path="url(#clip68)" fill="#a5b9ee" fill-opacity="1" opacity="1" stroke="#000000" stroke-linecap="square" stroke-linejoin="bevel" stroke-opacity="1" stroke-width="1" transform="matrix(3.7037,0,0,3.7037,-268.519,-64.8148)"><polyline fill="none" points="109,27 110,27" vector-effect="none"/></g><defs><clipPath id="clip69"><path d="M80,20 L120,20 L120,60 L80,60 L80,20 z"/></clipPath></defs><g clip-path="url(#clip69)" fill="#a5b9ee" fill-opacity="1" opacity="1" stroke="#000000" stroke-linecap="square" stroke-linejoin="bevel" stroke-opacity="1" stroke-width="1" transform="matrix(3.7037,0,0,3.7037,-268.519,-64.8148)"><polyline fill="none" points="110,27 110,26" vector-effect="none"/></g><defs><clipPath id="clip70"><path d="M80,20 L120,20 L120,60 L80,60 L80,20 z"/></clipPath></defs><g clip-path="url(#clip70)" fill="#a5b9ee" fill-opacity="1" opacity="1" stroke="#000000" stroke-linecap="square" stroke-linejoin="bevel" stroke-opacity="1" stroke-width="1" transform="matrix(3.7037,0,0,3.7037,-268.519,-64.8148)"><polyline fill="none" points="110,26 111,26" vector-effect="none"/></g><defs><clipPath id="clip71"><path d="M80,20 L120,20 L120,60 L80,60 L80,20 z"/></clipPath></defs><g clip-path="url(#clip71)" fill="#a5b9ee" fill-opacity="1" opacity="1" stroke="#000000" stroke-linecap="square" stroke-linejoin="bevel" stroke-opacity="1" stroke-width="1" transform="matrix(3.7037,0,0,3.7037,-268.519,-64.8148)"><polyline fill="none" points="111,26 112,26" vector-effect="none"/></g><defs><clipPath id="clip72"><path d="M80,20 L120,20 L120,60 L80,60 L80,20 z"/></clipPath></defs><g clip-path="url(#clip72)" fill="#a5b9ee" fill-opacity="1" opacity="1" stroke="#000000" stroke-linecap="square" stroke-linejoin="bevel" stroke-opacity="1" stroke-width="1" transform="matrix(3.7037,0,0,3.7037,-268.519,-64.8148)"><polyline fill="none" points="112,26 113,26" vector-effect="none"/></g><defs><clipPath id="clip73"><path d="M80,20 L120,20 L120,60 L80,60 L80,20 z"/></clipPath></defs><g clip-path="url(#clip73)" fill="#a5b9ee" fill-opacity="1" opacity="1" stroke="#000000" stroke-linecap="square" stroke-linejoin="bevel" stroke-opacity="1" stroke-width="1" transform="matrix(3.7037,0,0,3.7037,-268.519,-64.8148)"><polyline fill="none" points="80,59 119,59" vector-effect="none"/></g><defs><clipPath id="clip74"><path d="M80,20 L120,20 L120,60 L80,60 L80,20 z"/></clipPath></defs><g clip-path="url(#clip74)" fill="#a5b9ee" fill-opacity="1" opacity="1" stroke="#000000" stroke-linecap="square" stroke-linejoin="bevel" stroke-opacity="1" stroke-width="1" transform="matrix(3.7037,0,0,3.7037,-268.519,-64.8148)"><polyline fill="none" points="119,59 119,20" vector-effect="none"/></g><defs><clipPath id="clip75"><path d="M80,20 L120,20 L120,60 L80,60 L80,20 z"/></clipPath></defs><g clip-path="url(#clip75)" fill="#a5b9ee" fill-opacity="1" opacity="1" stroke="#000000" stroke-linecap="square" stroke-linejoin="bevel" stroke-opacity="1" stroke-width="1" transform="matrix(3.7037,0,0,3.7037,-268.519,-64.8148)"><polyline fill="none" points="119,20 80,20" vector-effect="none"/></g><defs><clipPath id="clip76"><path d="M80,20 L120,20 L120,60 L80,60 L80,20 z"/></clipPath></defs><g clip-path="url(#clip76)" fill="#a5b9ee" fill-opacity="1" opacity="1" stroke="#000000" stroke-linecap="square" stroke-linejoin="bevel" stroke-opacity="1" stroke-width="1" transform="matrix(3.7037,0,0,3.7037,-268.519,-64.8148)"><polyline fill="none" points="80,20 80,59" vector-effect="none"/></g><defs><clipPath id="clip77"><path d="M80,20 L120,20 L120,60 L80,60 L80,20 z"/></clipPath></defs><g clip-path="url(#clip77)" fill="#a5b9ee" fill-opacity="1" opacity="1" stroke="#000000" stroke-linecap="square" stroke-linejoin="bevel" stroke-opacity="1" stroke-width="1" transform="matrix(3.7037,0,0,3.7037,-268.519,-64.8148)"><polyline fill="none" points="88,32 84,32" vector-effect="none"/></g><defs><clipPath id="clip78"><path d="M80,20 L120,20 L120,60 L80,60 L80,20 z"/></clipPath></defs><g clip-path="url(#clip78)" fill="#a5b9ee" fill-opacity="1" opacity="1" stroke="#000000" stroke-linecap="square" stroke-linejoin="bevel" stroke-opacity="1" stroke-width="1" transform="matrix(3.7037,0,0,3.7037,-268.519,-64.8148)"><polyline fill="none" points="84,32 84,28" vector-effect="none"/></g><defs><clipPath id="clip79"><path d="M80,20 L120,20 L120,60 L80,60 L80,20 z"/></clipPath></defs><g clip-path="url(#clip79)" fill="#a5b9ee" fill-opacity="1" opacity="1" stroke="#000000" stroke-linecap="square" stroke-linejoin="bevel" stroke-opacity="1" stroke-width="1" transform="matrix(3.7037,0,0,3.7037,-268.519,-64.8148)"><polyline fill="none" points="84,28 88,28" vector-effect="none"/></g><defs><clipPath id="clip80"><path d="M80,20 L120,20 L120,60 L80,60 L80,20 z"/></clipPath></defs><g clip-path="url(#clip80)" fill="#a5b9ee" fill-opacity="1" opacity="1" stroke="#000000" stroke-linecap="square" stroke-linejoin="bevel" stroke-opacity="1" stroke-width="1" transform="matrix(3.7037,0,0,3.7037,-268.519,-64.8148)"><polyline fill="none" points="88,28 84,28" vector-effect="none"/></g><defs><clipPath id="clip81"><path d="M80,20 L120,20 L120,60 L80,60 L80,20 z"/></clipPath></defs><g clip-path="url(#clip81)" fill="#a5b9ee" fill-opacity="1" opacity="1" stroke="#000000" stroke-linecap="square" stroke-linejoin="bevel" stroke-opacity="1" stroke-width="1" transform="matrix(3.7037,0,0,3.7037,-268.519,-64.8148)"><polyline fill="none" points="84,28 84,24" vector-effect="none"/></g><defs><clipPath id="clip82"><path d="M80,20 L120,20 L120,60 L80,60 L80,20 z"/></clipPath></defs><g clip-path="url(#clip82)" fill="#a5b9ee" fill-opacity="1" opacity="1" stroke="#000000" stroke-linecap="square" stroke-linejoin="bevel" stroke-opacity="1" stroke-width="1" transform="matrix(3.7037,0,0,3.7037,-268.519,-64.8148)"><polyline fill="none" points="84,24 88,24" vector-effect="none"/></g><defs><clipPath id="clip87"><path d="M-7,-2 L47,-2 L47,42 L-7,42 L-7,-2 z"/></clipPath></defs><g clip-path="url(#clip87)" fill="none" opacity="1" stroke="none" stroke-opacity="0" transform="matrix(3.7037,0,0,3.7037,25.9259,7.40741)"><path d="M0,0 L40,0 L40,40 L0,40 L0,0 z" fill-rule="evenodd" vector-effect="none"/></g></g></svg>
