<?xml version="1.0" encoding="UTF-8"?><svg width="52.9167mm" height="42.8625mm" viewBox="0 0 200 162" xmlns="http://www.w3.org/2000/svg" xmlns:xlink="http://www.w3.org/1999/xlink"><g fill="none" stroke="black" stroke-width="1" fill-rule="evenodd" stroke-linecap="square" stroke-linejoin="bevel"><g clip-path="none" fill="none" opacity="1" stroke="none" stroke-opacity="0" transform="matrix(1,0,0,1,0,0)"><path d="M0,0 L200,0 L200,162 L0,162 L0,0 z" fill-rule="evenodd" vector-effect="none"/></g><defs><clipPath id="clip3"><path d="M-47,-22 L7,-22 L7,22 L-47,22 L-47,-22 z"/></clipPath></defs><g clip-path="url(#clip3)" fill="none" opacity="1" stroke="#000000" stroke-linecap="round" stroke-linejoin="miter" stroke-miterlimit="2" stroke-opacity="1" stroke-width="2" transform="matrix(3.7037,0,0,3.7037,174.074,81.4815)"><path d="M0,-5 L5,0 L0,5" fill-rule="evenodd" vector-effect="none"/></g><defs><clipPath id="clip6"><path d="M7,22 L-47,22 L-47,-22 L7,-22 L7,22 z"/></clipPath></defs><g clip-path="url(#clip6)" fill="none" opacity="1" stroke="#000000" stroke-linecap="round" stroke-linejoin="miter" stroke-miterlimit="2" stroke-opacity="1" stroke-width="2" transform="matrix(-3.7037,0,0,-3.7037,25.9259,81.4815)"><path d="M5,-5 L0,0 L5,5" fill-rule="evenodd" vector-effect="none"/></g><defs><clipPath id="clip9"><path d="M-7,-2 L47,-2 L47,42 L-7,42 L-7,-2 z"/></clipPath></defs><g clip-path="url(#clip9)" fill="#ffffff" fill-opacity="1" opacity="1" stroke="none" stroke-opacity="0" transform="matrix(3.7037,0,0,3.7037,25.9259,7.40741)"><path d="M0,0 L40,0 L40,40 L0,40 L0,0 z" fill-rule="evenodd" vector-effect="none"/></g><defs><clipPath id="clip13"><path d="M140,20 L180,20 L180,60 L140,60 L140,20 z"/></clipPath></defs><g clip-path="url(#clip13)" fill="#7896e6" fill-opacity="1" opacity="1" stroke="#7896e6" stroke-linecap="square" stroke-linejoin="bevel" stroke-opacity="1" stroke-width="1" transform="matrix(3.7037,0,0,3.7037,-492.593,-66.6667)"><path d="M140,59 L179,59 L179,20 L140,20 L140,59 z" fill-rule="evenodd" vector-effect="none"/></g><defs><clipPath id="clip14"><path d="M140,20 L180,20 L180,60 L140,60 L140,20 z"/></clipPath></defs><g clip-path="url(#clip14)" fill="#506499" fill-opacity="1" opacity="1" stroke="#506499" stroke-linecap="square" stroke-linejoin="bevel" stroke-opacity="1" stroke-width="1" transform="matrix(3.7037,0,0,3.7037,-492.593,-66.6667)"><path d="M140,59 L179,59 L179,20 L177,22 L177,57 L142,57 L140,59 z" fill-rule="evenodd" vector-effect="none"/></g><defs><clipPath id="clip15"><path d="M140,20 L180,20 L180,60 L140,60 L140,20 z"/></clipPath></defs><g clip-path="url(#clip15)" fill="#a5b9ee" fill-opacity="1" opacity="1" stroke="#a5b9ee" stroke-linecap="square" stroke-linejoin="bevel" stroke-opacity="1" stroke-width="1" transform="matrix(3.7037,0,0,3.7037,-492.593,-66.6667)"><path d="M140,59 L140,20 L179,20 L177,22 L142,22 L142,57 L140,59 z" fill-rule="evenodd" vector-effect="none"/></g><defs><clipPath id="clip16"><path d="M140,20 L180,20 L180,60 L140,60 L140,20 z"/></clipPath></defs><g clip-path="url(#clip16)" fill="#a5b9ee" fill-opacity="1" opacity="1" stroke="#ffffff" stroke-linecap="square" stroke-linejoin="bevel" stroke-opacity="1" stroke-width="1" transform="matrix(3.7037,0,0,3.7037,-490.741,-64.8148)"><polyline fill="none" points="146,40 173,40" vector-effect="none"/></g><defs><clipPath id="clip17"><path d="M140,20 L180,20 L180,60 L140,60 L140,20 z"/></clipPath></defs><g clip-path="url(#clip17)" fill="#a5b9ee" fill-opacity="1" opacity="1" stroke="#ffffff" stroke-linecap="square" stroke-linejoin="bevel" stroke-opacity="1" stroke-width="1" transform="matrix(3.7037,0,0,3.7037,-490.741,-64.8148)"><polyline fill="none" points="160,53 160,26" vector-effect="none"/></g><defs><clipPath id="clip18"><path d="M140,20 L180,20 L180,60 L140,60 L140,20 z"/></clipPath></defs><g clip-path="url(#clip18)" fill="#000000" fill-opacity="1" opacity="1" stroke="none" stroke-opacity="0" transform="matrix(3.7037,0,0,3.7037,-490.741,-64.8148)"><path d="M145.5,52.5 L146.5,52.5 L146.5,53.5 L145.5,53.5 L145.5,52.5 z" fill-rule="evenodd" vector-effect="none"/></g><defs><clipPath id="clip19"><path d="M140,20 L180,20 L180,60 L140,60 L140,20 z"/></clipPath></defs><g clip-path="url(#clip19)" fill="#a5b9ee" fill-opacity="1" opacity="1" stroke="#000000" stroke-linecap="square" stroke-linejoin="bevel" stroke-opacity="1" stroke-width="1" transform="matrix(3.7037,0,0,3.7037,-490.741,-64.8148)"><polyline fill="none" points="146,53 147,53" vector-effect="none"/></g><defs><clipPath id="clip20"><path d="M140,20 L180,20 L180,60 L140,60 L140,20 z"/></clipPath></defs><g clip-path="url(#clip20)" fill="#a5b9ee" fill-opacity="1" opacity="1" stroke="#000000" stroke-linecap="square" stroke-linejoin="bevel" stroke-opacity="1" stroke-width="1" transform="matrix(3.7037,0,0,3.7037,-490.741,-64.8148)"><polyline fill="none" points="147,53 148,53" vector-effect="none"/></g><defs><clipPath id="clip21"><path d="M140,20 L180,20 L180,60 L140,60 L140,20 z"/></clipPath></defs><g clip-path="url(#clip21)" fill="#a5b9ee" fill-opacity="1" opacity="1" stroke="#000000" stroke-linecap="square" stroke-linejoin="bevel" stroke-opacity="1" stroke-width="1" transform="matrix(3.7037,0,0,3.7037,-490.741,-64.8148)"><polyline fill="none" points="148,53 149,53" vector-effect="none"/></g><defs><clipPath id="clip22"><path d="M140,20 L180,20 L180,60 L140,60 L140,20 z"/></clipPath></defs><g clip-path="url(#clip22)" fill="#a5b9ee" fill-opacity="1" opacity="1" stroke="#000000" stroke-linecap="square" stroke-linejoin="bevel" stroke-opacity="1" stroke-width="1" transform="matrix(3.7037,0,0,3.7037,-490.741,-64.8148)"><polyline fill="none" points="149,53 149,52" vector-effect="none"/></g><defs><clipPath id="clip23"><path d="M140,20 L180,20 L180,60 L140,60 L140,20 z"/></clipPath></defs><g clip-path="url(#clip23)" fill="#a5b9ee" fill-opacity="1" opacity="1" stroke="#000000" stroke-linecap="square" stroke-linejoin="bevel" stroke-opacity="1" stroke-width="1" transform="matrix(3.7037,0,0,3.7037,-490.741,-64.8148)"><polyline fill="none" points="149,52 150,52" vector-effect="none"/></g><defs><clipPath id="clip24"><path d="M140,20 L180,20 L180,60 L140,60 L140,20 z"/></clipPath></defs><g clip-path="url(#clip24)" fill="#a5b9ee" fill-opacity="1" opacity="1" stroke="#000000" stroke-linecap="square" stroke-linejoin="bevel" stroke-opacity="1" stroke-width="1" transform="matrix(3.7037,0,0,3.7037,-490.741,-64.8148)"><polyline fill="none" points="150,52 151,52" vector-effect="none"/></g><defs><clipPath id="clip25"><path d="M140,20 L180,20 L180,60 L140,60 L140,20 z"/></clipPath></defs><g clip-path="url(#clip25)" fill="#a5b9ee" fill-opacity="1" opacity="1" stroke="#000000" stroke-linecap="square" stroke-linejoin="bevel" stroke-opacity="1" stroke-width="1" transform="matrix(3.7037,0,0,3.7037,-490.741,-64.8148)"><polyline fill="none" points="151,52 152,52" vector-effect="none"/></g><defs><clipPath id="clip26"><path d="M140,20 L180,20 L180,60 L140,60 L140,20 z"/></clipPath></defs><g clip-path="url(#clip26)" fill="#a5b9ee" fill-opacity="1" opacity="1" stroke="#000000" stroke-linecap="square" stroke-linejoin="bevel" stroke-opacity="1" stroke-width="1" transform="matrix(3.7037,0,0,3.7037,-490.741,-64.8148)"><polyline fill="none" points="152,52 152,51" vector-effect="none"/></g><defs><clipPath id="clip27"><path d="M140,20 L180,20 L180,60 L140,60 L140,20 z"/></clipPath></defs><g clip-path="url(#clip27)" fill="#a5b9ee" fill-opacity="1" opacity="1" stroke="#000000" stroke-linecap="square" stroke-linejoin="bevel" stroke-opacity="1" stroke-width="1" transform="matrix(3.7037,0,0,3.7037,-490.741,-64.8148)"><polyline fill="none" points="152,51 153,51" vector-effect="none"/></g><defs><clipPath id="clip28"><path d="M140,20 L180,20 L180,60 L140,60 L140,20 z"/></clipPath></defs><g clip-path="url(#clip28)" fill="#a5b9ee" fill-opacity="1" opacity="1" stroke="#000000" stroke-linecap="square" stroke-linejoin="bevel" stroke-opacity="1" stroke-width="1" transform="matrix(3.7037,0,0,3.7037,-490.741,-64.8148)"><polyline fill="none" points="153,51 153,50" vector-effect="none"/></g><defs><clipPath id="clip29"><path d="M140,20 L180,20 L180,60 L140,60 L140,20 z"/></clipPath></defs><g clip-path="url(#clip29)" fill="#a5b9ee" fill-opacity="1" opacity="1" stroke="#000000" stroke-linecap="square" stroke-linejoin="bevel" stroke-opacity="1" stroke-width="1" transform="matrix(3.7037,0,0,3.7037,-490.741,-64.8148)"><polyline fill="none" points="153,50 154,50" vector-effect="none"/></g><defs><clipPath id="clip30"><path d="M140,20 L180,20 L180,60 L140,60 L140,20 z"/></clipPath></defs><g clip-path="url(#clip30)" fill="#a5b9ee" fill-opacity="1" opacity="1" stroke="#000000" stroke-linecap="square" stroke-linejoin="bevel" stroke-opacity="1" stroke-width="1" transform="matrix(3.7037,0,0,3.7037,-490.741,-64.8148)"><polyline fill="none" points="154,50 154,49" vector-effect="none"/></g><defs><clipPath id="clip31"><path d="M140,20 L180,20 L180,60 L140,60 L140,20 z"/></clipPath></defs><g clip-path="url(#clip31)" fill="#a5b9ee" fill-opacity="1" opacity="1" stroke="#000000" stroke-linecap="square" stroke-linejoin="bevel" stroke-opacity="1" stroke-width="1" transform="matrix(3.7037,0,0,3.7037,-490.741,-64.8148)"><polyline fill="none" points="154,49 155,49" vector-effect="none"/></g><defs><clipPath id="clip32"><path d="M140,20 L180,20 L180,60 L140,60 L140,20 z"/></clipPath></defs><g clip-path="url(#clip32)" fill="#a5b9ee" fill-opacity="1" opacity="1" stroke="#000000" stroke-linecap="square" stroke-linejoin="bevel" stroke-opacity="1" stroke-width="1" transform="matrix(3.7037,0,0,3.7037,-490.741,-64.8148)"><polyline fill="none" points="155,49 155,48" vector-effect="none"/></g><defs><clipPath id="clip33"><path d="M140,20 L180,20 L180,60 L140,60 L140,20 z"/></clipPath></defs><g clip-path="url(#clip33)" fill="#a5b9ee" fill-opacity="1" opacity="1" stroke="#000000" stroke-linecap="square" stroke-linejoin="bevel" stroke-opacity="1" stroke-width="1" transform="matrix(3.7037,0,0,3.7037,-490.741,-64.8148)"><polyline fill="none" points="155,48 156,48" vector-effect="none"/></g><defs><clipPath id="clip34"><path d="M140,20 L180,20 L180,60 L140,60 L140,20 z"/></clipPath></defs><g clip-path="url(#clip34)" fill="#a5b9ee" fill-opacity="1" opacity="1" stroke="#000000" stroke-linecap="square" stroke-linejoin="bevel" stroke-opacity="1" stroke-width="1" transform="matrix(3.7037,0,0,3.7037,-490.741,-64.8148)"><polyline fill="none" points="156,48 156,47" vector-effect="none"/></g><defs><clipPath id="clip35"><path d="M140,20 L180,20 L180,60 L140,60 L140,20 z"/></clipPath></defs><g clip-path="url(#clip35)" fill="#a5b9ee" fill-opacity="1" opacity="1" stroke="#000000" stroke-linecap="square" stroke-linejoin="bevel" stroke-opacity="1" stroke-width="1" transform="matrix(3.7037,0,0,3.7037,-490.741,-64.8148)"><polyline fill="none" points="156,47 156,46" vector-effect="none"/></g><defs><clipPath id="clip36"><path d="M140,20 L180,20 L180,60 L140,60 L140,20 z"/></clipPath></defs><g clip-path="url(#clip36)" fill="#a5b9ee" fill-opacity="1" opacity="1" stroke="#000000" stroke-linecap="square" stroke-linejoin="bevel" stroke-opacity="1" stroke-width="1" transform="matrix(3.7037,0,0,3.7037,-490.741,-64.8148)"><polyline fill="none" points="156,46 157,46" vector-effect="none"/></g><defs><clipPath id="clip37"><path d="M140,20 L180,20 L180,60 L140,60 L140,20 z"/></clipPath></defs><g clip-path="url(#clip37)" fill="#a5b9ee" fill-opacity="1" opacity="1" stroke="#000000" stroke-linecap="square" stroke-linejoin="bevel" stroke-opacity="1" stroke-width="1" transform="matrix(3.7037,0,0,3.7037,-490.741,-64.8148)"><polyline fill="none" points="157,46 157,45" vector-effect="none"/></g><defs><clipPath id="clip38"><path d="M140,20 L180,20 L180,60 L140,60 L140,20 z"/></clipPath></defs><g clip-path="url(#clip38)" fill="#a5b9ee" fill-opacity="1" opacity="1" stroke="#000000" stroke-linecap="square" stroke-linejoin="bevel" stroke-opacity="1" stroke-width="1" transform="matrix(3.7037,0,0,3.7037,-490.741,-64.8148)"><polyline fill="none" points="157,45 157,44" vector-effect="none"/></g><defs><clipPath id="clip39"><path d="M140,20 L180,20 L180,60 L140,60 L140,20 z"/></clipPath></defs><g clip-path="url(#clip39)" fill="#a5b9ee" fill-opacity="1" opacity="1" stroke="#000000" stroke-linecap="square" stroke-linejoin="bevel" stroke-opacity="1" stroke-width="1" transform="matrix(3.7037,0,0,3.7037,-490.741,-64.8148)"><polyline fill="none" points="157,44 158,44" vector-effect="none"/></g><defs><clipPath id="clip40"><path d="M140,20 L180,20 L180,60 L140,60 L140,20 z"/></clipPath></defs><g clip-path="url(#clip40)" fill="#a5b9ee" fill-opacity="1" opacity="1" stroke="#000000" stroke-linecap="square" stroke-linejoin="bevel" stroke-opacity="1" stroke-width="1" transform="matrix(3.7037,0,0,3.7037,-490.741,-64.8148)"><polyline fill="none" points="158,44 158,43" vector-effect="none"/></g><defs><clipPath id="clip41"><path d="M140,20 L180,20 L180,60 L140,60 L140,20 z"/></clipPath></defs><g clip-path="url(#clip41)" fill="#a5b9ee" fill-opacity="1" opacity="1" stroke="#000000" stroke-linecap="square" stroke-linejoin="bevel" stroke-opacity="1" stroke-width="1" transform="matrix(3.7037,0,0,3.7037,-490.741,-64.8148)"><polyline fill="none" points="158,43 158,42" vector-effect="none"/></g><defs><clipPath id="clip42"><path d="M140,20 L180,20 L180,60 L140,60 L140,20 z"/></clipPath></defs><g clip-path="url(#clip42)" fill="#a5b9ee" fill-opacity="1" opacity="1" stroke="#000000" stroke-linecap="square" stroke-linejoin="bevel" stroke-opacity="1" stroke-width="1" transform="matrix(3.7037,0,0,3.7037,-490.741,-64.8148)"><polyline fill="none" points="158,42 159,42" vector-effect="none"/></g><defs><clipPath id="clip43"><path d="M140,20 L180,20 L180,60 L140,60 L140,20 z"/></clipPath></defs><g clip-path="url(#clip43)" fill="#a5b9ee" fill-opacity="1" opacity="1" stroke="#000000" stroke-linecap="square" stroke-linejoin="bevel" stroke-opacity="1" stroke-width="1" transform="matrix(3.7037,0,0,3.7037,-490.741,-64.8148)"><polyline fill="none" points="159,42 159,41" vector-effect="none"/></g><defs><clipPath id="clip44"><path d="M140,20 L180,20 L180,60 L140,60 L140,20 z"/></clipPath></defs><g clip-path="url(#clip44)" fill="#a5b9ee" fill-opacity="1" opacity="1" stroke="#000000" stroke-linecap="square" stroke-linejoin="bevel" stroke-opacity="1" stroke-width="1" transform="matrix(3.7037,0,0,3.7037,-490.741,-64.8148)"><polyline fill="none" points="159,41 159,40" vector-effect="none"/></g><defs><clipPath id="clip45"><path d="M140,20 L180,20 L180,60 L140,60 L140,20 z"/></clipPath></defs><g clip-path="url(#clip45)" fill="#a5b9ee" fill-opacity="1" opacity="1" stroke="#000000" stroke-linecap="square" stroke-linejoin="bevel" stroke-opacity="1" stroke-width="1" transform="matrix(3.7037,0,0,3.7037,-490.741,-64.8148)"><polyline fill="none" points="159,40 160,40" vector-effect="none"/></g><defs><clipPath id="clip46"><path d="M140,20 L180,20 L180,60 L140,60 L140,20 z"/></clipPath></defs><g clip-path="url(#clip46)" fill="#a5b9ee" fill-opacity="1" opacity="1" stroke="#000000" stroke-linecap="square" stroke-linejoin="bevel" stroke-opacity="1" stroke-width="1" transform="matrix(3.7037,0,0,3.7037,-490.741,-64.8148)"><polyline fill="none" points="160,40 160,39" vector-effect="none"/></g><defs><clipPath id="clip47"><path d="M140,20 L180,20 L180,60 L140,60 L140,20 z"/></clipPath></defs><g clip-path="url(#clip47)" fill="#a5b9ee" fill-opacity="1" opacity="1" stroke="#000000" stroke-linecap="square" stroke-linejoin="bevel" stroke-opacity="1" stroke-width="1" transform="matrix(3.7037,0,0,3.7037,-490.741,-64.8148)"><polyline fill="none" points="160,39 160,38" vector-effect="none"/></g><defs><clipPath id="clip48"><path d="M140,20 L180,20 L180,60 L140,60 L140,20 z"/></clipPath></defs><g clip-path="url(#clip48)" fill="#a5b9ee" fill-opacity="1" opacity="1" stroke="#000000" stroke-linecap="square" stroke-linejoin="bevel" stroke-opacity="1" stroke-width="1" transform="matrix(3.7037,0,0,3.7037,-490.741,-64.8148)"><polyline fill="none" points="160,38 160,37" vector-effect="none"/></g><defs><clipPath id="clip49"><path d="M140,20 L180,20 L180,60 L140,60 L140,20 z"/></clipPath></defs><g clip-path="url(#clip49)" fill="#a5b9ee" fill-opacity="1" opacity="1" stroke="#000000" stroke-linecap="square" stroke-linejoin="bevel" stroke-opacity="1" stroke-width="1" transform="matrix(3.7037,0,0,3.7037,-490.741,-64.8148)"><polyline fill="none" points="160,37 161,37" vector-effect="none"/></g><defs><clipPath id="clip50"><path d="M140,20 L180,20 L180,60 L140,60 L140,20 z"/></clipPath></defs><g clip-path="url(#clip50)" fill="#a5b9ee" fill-opacity="1" opacity="1" stroke="#000000" stroke-linecap="square" stroke-linejoin="bevel" stroke-opacity="1" stroke-width="1" transform="matrix(3.7037,0,0,3.7037,-490.741,-64.8148)"><polyline fill="none" points="161,37 161,36" vector-effect="none"/></g><defs><clipPath id="clip51"><path d="M140,20 L180,20 L180,60 L140,60 L140,20 z"/></clipPath></defs><g clip-path="url(#clip51)" fill="#a5b9ee" fill-opacity="1" opacity="1" stroke="#000000" stroke-linecap="square" stroke-linejoin="bevel" stroke-opacity="1" stroke-width="1" transform="matrix(3.7037,0,0,3.7037,-490.741,-64.8148)"><polyline fill="none" points="161,36 161,35" vector-effect="none"/></g><defs><clipPath id="clip52"><path d="M140,20 L180,20 L180,60 L140,60 L140,20 z"/></clipPath></defs><g clip-path="url(#clip52)" fill="#a5b9ee" fill-opacity="1" opacity="1" stroke="#000000" stroke-linecap="square" stroke-linejoin="bevel" stroke-opacity="1" stroke-width="1" transform="matrix(3.7037,0,0,3.7037,-490.741,-64.8148)"><polyline fill="none" points="161,35 162,35" vector-effect="none"/></g><defs><clipPath id="clip53"><path d="M140,20 L180,20 L180,60 L140,60 L140,20 z"/></clipPath></defs><g clip-path="url(#clip53)" fill="#a5b9ee" fill-opacity="1" opacity="1" stroke="#000000" stroke-linecap="square" stroke-linejoin="bevel" stroke-opacity="1" stroke-width="1" transform="matrix(3.7037,0,0,3.7037,-490.741,-64.8148)"><polyline fill="none" points="162,35 162,34" vector-effect="none"/></g><defs><clipPath id="clip54"><path d="M140,20 L180,20 L180,60 L140,60 L140,20 z"/></clipPath></defs><g clip-path="url(#clip54)" fill="#a5b9ee" fill-opacity="1" opacity="1" stroke="#000000" stroke-linecap="square" stroke-linejoin="bevel" stroke-opacity="1" stroke-width="1" transform="matrix(3.7037,0,0,3.7037,-490.741,-64.8148)"><polyline fill="none" points="162,34 162,33" vector-effect="none"/></g><defs><clipPath id="clip55"><path d="M140,20 L180,20 L180,60 L140,60 L140,20 z"/></clipPath></defs><g clip-path="url(#clip55)" fill="#a5b9ee" fill-opacity="1" opacity="1" stroke="#000000" stroke-linecap="square" stroke-linejoin="bevel" stroke-opacity="1" stroke-width="1" transform="matrix(3.7037,0,0,3.7037,-490.741,-64.8148)"><polyline fill="none" points="162,33 163,33" vector-effect="none"/></g><defs><clipPath id="clip56"><path d="M140,20 L180,20 L180,60 L140,60 L140,20 z"/></clipPath></defs><g clip-path="url(#clip56)" fill="#a5b9ee" fill-opacity="1" opacity="1" stroke="#000000" stroke-linecap="square" stroke-linejoin="bevel" stroke-opacity="1" stroke-width="1" transform="matrix(3.7037,0,0,3.7037,-490.741,-64.8148)"><polyline fill="none" points="163,33 163,32" vector-effect="none"/></g><defs><clipPath id="clip57"><path d="M140,20 L180,20 L180,60 L140,60 L140,20 z"/></clipPath></defs><g clip-path="url(#clip57)" fill="#a5b9ee" fill-opacity="1" opacity="1" stroke="#000000" stroke-linecap="square" stroke-linejoin="bevel" stroke-opacity="1" stroke-width="1" transform="matrix(3.7037,0,0,3.7037,-490.741,-64.8148)"><polyline fill="none" points="163,32 163,31" vector-effect="none"/></g><defs><clipPath id="clip58"><path d="M140,20 L180,20 L180,60 L140,60 L140,20 z"/></clipPath></defs><g clip-path="url(#clip58)" fill="#a5b9ee" fill-opacity="1" opacity="1" stroke="#000000" stroke-linecap="square" stroke-linejoin="bevel" stroke-opacity="1" stroke-width="1" transform="matrix(3.7037,0,0,3.7037,-490.741,-64.8148)"><polyline fill="none" points="163,31 164,31" vector-effect="none"/></g><defs><clipPath id="clip59"><path d="M140,20 L180,20 L180,60 L140,60 L140,20 z"/></clipPath></defs><g clip-path="url(#clip59)" fill="#a5b9ee" fill-opacity="1" opacity="1" stroke="#000000" stroke-linecap="square" stroke-linejoin="bevel" stroke-opacity="1" stroke-width="1" transform="matrix(3.7037,0,0,3.7037,-490.741,-64.8148)"><polyline fill="none" points="164,31 164,30" vector-effect="none"/></g><defs><clipPath id="clip60"><path d="M140,20 L180,20 L180,60 L140,60 L140,20 z"/></clipPath></defs><g clip-path="url(#clip60)" fill="#a5b9ee" fill-opacity="1" opacity="1" stroke="#000000" stroke-linecap="square" stroke-linejoin="bevel" stroke-opacity="1" stroke-width="1" transform="matrix(3.7037,0,0,3.7037,-490.741,-64.8148)"><polyline fill="none" points="164,30 165,30" vector-effect="none"/></g><defs><clipPath id="clip61"><path d="M140,20 L180,20 L180,60 L140,60 L140,20 z"/></clipPath></defs><g clip-path="url(#clip61)" fill="#a5b9ee" fill-opacity="1" opacity="1" stroke="#000000" stroke-linecap="square" stroke-linejoin="bevel" stroke-opacity="1" stroke-width="1" transform="matrix(3.7037,0,0,3.7037,-490.741,-64.8148)"><polyline fill="none" points="165,30 165,29" vector-effect="none"/></g><defs><clipPath id="clip62"><path d="M140,20 L180,20 L180,60 L140,60 L140,20 z"/></clipPath></defs><g clip-path="url(#clip62)" fill="#a5b9ee" fill-opacity="1" opacity="1" stroke="#000000" stroke-linecap="square" stroke-linejoin="bevel" stroke-opacity="1" stroke-width="1" transform="matrix(3.7037,0,0,3.7037,-490.741,-64.8148)"><polyline fill="none" points="165,29 166,29" vector-effect="none"/></g><defs><clipPath id="clip63"><path d="M140,20 L180,20 L180,60 L140,60 L140,20 z"/></clipPath></defs><g clip-path="url(#clip63)" fill="#a5b9ee" fill-opacity="1" opacity="1" stroke="#000000" stroke-linecap="square" stroke-linejoin="bevel" stroke-opacity="1" stroke-width="1" transform="matrix(3.7037,0,0,3.7037,-490.741,-64.8148)"><polyline fill="none" points="166,29 166,28" vector-effect="none"/></g><defs><clipPath id="clip64"><path d="M140,20 L180,20 L180,60 L140,60 L140,20 z"/></clipPath></defs><g clip-path="url(#clip64)" fill="#a5b9ee" fill-opacity="1" opacity="1" stroke="#000000" stroke-linecap="square" stroke-linejoin="bevel" stroke-opacity="1" stroke-width="1" transform="matrix(3.7037,0,0,3.7037,-490.741,-64.8148)"><polyline fill="none" points="166,28 167,28" vector-effect="none"/></g><defs><clipPath id="clip65"><path d="M140,20 L180,20 L180,60 L140,60 L140,20 z"/></clipPath></defs><g clip-path="url(#clip65)" fill="#a5b9ee" fill-opacity="1" opacity="1" stroke="#000000" stroke-linecap="square" stroke-linejoin="bevel" stroke-opacity="1" stroke-width="1" transform="matrix(3.7037,0,0,3.7037,-490.741,-64.8148)"><polyline fill="none" points="167,28 167,27" vector-effect="none"/></g><defs><clipPath id="clip66"><path d="M140,20 L180,20 L180,60 L140,60 L140,20 z"/></clipPath></defs><g clip-path="url(#clip66)" fill="#a5b9ee" fill-opacity="1" opacity="1" stroke="#000000" stroke-linecap="square" stroke-linejoin="bevel" stroke-opacity="1" stroke-width="1" transform="matrix(3.7037,0,0,3.7037,-490.741,-64.8148)"><polyline fill="none" points="167,27 168,27" vector-effect="none"/></g><defs><clipPath id="clip67"><path d="M140,20 L180,20 L180,60 L140,60 L140,20 z"/></clipPath></defs><g clip-path="url(#clip67)" fill="#a5b9ee" fill-opacity="1" opacity="1" stroke="#000000" stroke-linecap="square" stroke-linejoin="bevel" stroke-opacity="1" stroke-width="1" transform="matrix(3.7037,0,0,3.7037,-490.741,-64.8148)"><polyline fill="none" points="168,27 169,27" vector-effect="none"/></g><defs><clipPath id="clip68"><path d="M140,20 L180,20 L180,60 L140,60 L140,20 z"/></clipPath></defs><g clip-path="url(#clip68)" fill="#a5b9ee" fill-opacity="1" opacity="1" stroke="#000000" stroke-linecap="square" stroke-linejoin="bevel" stroke-opacity="1" stroke-width="1" transform="matrix(3.7037,0,0,3.7037,-490.741,-64.8148)"><polyline fill="none" points="169,27 170,27" vector-effect="none"/></g><defs><clipPath id="clip69"><path d="M140,20 L180,20 L180,60 L140,60 L140,20 z"/></clipPath></defs><g clip-path="url(#clip69)" fill="#a5b9ee" fill-opacity="1" opacity="1" stroke="#000000" stroke-linecap="square" stroke-linejoin="bevel" stroke-opacity="1" stroke-width="1" transform="matrix(3.7037,0,0,3.7037,-490.741,-64.8148)"><polyline fill="none" points="170,27 170,26" vector-effect="none"/></g><defs><clipPath id="clip70"><path d="M140,20 L180,20 L180,60 L140,60 L140,20 z"/></clipPath></defs><g clip-path="url(#clip70)" fill="#a5b9ee" fill-opacity="1" opacity="1" stroke="#000000" stroke-linecap="square" stroke-linejoin="bevel" stroke-opacity="1" stroke-width="1" transform="matrix(3.7037,0,0,3.7037,-490.741,-64.8148)"><polyline fill="none" points="170,26 171,26" vector-effect="none"/></g><defs><clipPath id="clip71"><path d="M140,20 L180,20 L180,60 L140,60 L140,20 z"/></clipPath></defs><g clip-path="url(#clip71)" fill="#a5b9ee" fill-opacity="1" opacity="1" stroke="#000000" stroke-linecap="square" stroke-linejoin="bevel" stroke-opacity="1" stroke-width="1" transform="matrix(3.7037,0,0,3.7037,-490.741,-64.8148)"><polyline fill="none" points="171,26 172,26" vector-effect="none"/></g><defs><clipPath id="clip72"><path d="M140,20 L180,20 L180,60 L140,60 L140,20 z"/></clipPath></defs><g clip-path="url(#clip72)" fill="#a5b9ee" fill-opacity="1" opacity="1" stroke="#000000" stroke-linecap="square" stroke-linejoin="bevel" stroke-opacity="1" stroke-width="1" transform="matrix(3.7037,0,0,3.7037,-490.741,-64.8148)"><polyline fill="none" points="172,26 173,26" vector-effect="none"/></g><defs><clipPath id="clip73"><path d="M140,20 L180,20 L180,60 L140,60 L140,20 z"/></clipPath></defs><g clip-path="url(#clip73)" fill="#a5b9ee" fill-opacity="1" opacity="1" stroke="#000000" stroke-linecap="square" stroke-linejoin="bevel" stroke-opacity="1" stroke-width="1" transform="matrix(3.7037,0,0,3.7037,-490.741,-64.8148)"><polyline fill="none" points="140,59 179,59" vector-effect="none"/></g><defs><clipPath id="clip74"><path d="M140,20 L180,20 L180,60 L140,60 L140,20 z"/></clipPath></defs><g clip-path="url(#clip74)" fill="#a5b9ee" fill-opacity="1" opacity="1" stroke="#000000" stroke-linecap="square" stroke-linejoin="bevel" stroke-opacity="1" stroke-width="1" transform="matrix(3.7037,0,0,3.7037,-490.741,-64.8148)"><polyline fill="none" points="179,59 179,20" vector-effect="none"/></g><defs><clipPath id="clip75"><path d="M140,20 L180,20 L180,60 L140,60 L140,20 z"/></clipPath></defs><g clip-path="url(#clip75)" fill="#a5b9ee" fill-opacity="1" opacity="1" stroke="#000000" stroke-linecap="square" stroke-linejoin="bevel" stroke-opacity="1" stroke-width="1" transform="matrix(3.7037,0,0,3.7037,-490.741,-64.8148)"><polyline fill="none" points="179,20 140,20" vector-effect="none"/></g><defs><clipPath id="clip76"><path d="M140,20 L180,20 L180,60 L140,60 L140,20 z"/></clipPath></defs><g clip-path="url(#clip76)" fill="#a5b9ee" fill-opacity="1" opacity="1" stroke="#000000" stroke-linecap="square" stroke-linejoin="bevel" stroke-opacity="1" stroke-width="1" transform="matrix(3.7037,0,0,3.7037,-490.741,-64.8148)"><polyline fill="none" points="140,20 140,59" vector-effect="none"/></g><defs><clipPath id="clip77"><path d="M140,20 L180,20 L180,60 L140,60 L140,20 z"/></clipPath></defs><g clip-path="url(#clip77)" fill="#a5b9ee" fill-opacity="1" opacity="1" stroke="#000000" stroke-linecap="square" stroke-linejoin="bevel" stroke-opacity="1" stroke-width="1" transform="matrix(3.7037,0,0,3.7037,-490.741,-64.8148)"><polyline fill="none" points="148,32 144,32" vector-effect="none"/></g><defs><clipPath id="clip78"><path d="M140,20 L180,20 L180,60 L140,60 L140,20 z"/></clipPath></defs><g clip-path="url(#clip78)" fill="#a5b9ee" fill-opacity="1" opacity="1" stroke="#000000" stroke-linecap="square" stroke-linejoin="bevel" stroke-opacity="1" stroke-width="1" transform="matrix(3.7037,0,0,3.7037,-490.741,-64.8148)"><polyline fill="none" points="144,32 144,28" vector-effect="none"/></g><defs><clipPath id="clip79"><path d="M140,20 L180,20 L180,60 L140,60 L140,20 z"/></clipPath></defs><g clip-path="url(#clip79)" fill="#a5b9ee" fill-opacity="1" opacity="1" stroke="#000000" stroke-linecap="square" stroke-linejoin="bevel" stroke-opacity="1" stroke-width="1" transform="matrix(3.7037,0,0,3.7037,-490.741,-64.8148)"><polyline fill="none" points="144,28 148,28" vector-effect="none"/></g><defs><clipPath id="clip80"><path d="M140,20 L180,20 L180,60 L140,60 L140,20 z"/></clipPath></defs><g clip-path="url(#clip80)" fill="#a5b9ee" fill-opacity="1" opacity="1" stroke="#000000" stroke-linecap="square" stroke-linejoin="bevel" stroke-opacity="1" stroke-width="1" transform="matrix(3.7037,0,0,3.7037,-490.741,-64.8148)"><polyline fill="none" points="148,28 144,28" vector-effect="none"/></g><defs><clipPath id="clip81"><path d="M140,20 L180,20 L180,60 L140,60 L140,20 z"/></clipPath></defs><g clip-path="url(#clip81)" fill="#a5b9ee" fill-opacity="1" opacity="1" stroke="#000000" stroke-linecap="square" stroke-linejoin="bevel" stroke-opacity="1" stroke-width="1" transform="matrix(3.7037,0,0,3.7037,-490.741,-64.8148)"><polyline fill="none" points="144,28 144,24" vector-effect="none"/></g><defs><clipPath id="clip82"><path d="M140,20 L180,20 L180,60 L140,60 L140,20 z"/></clipPath></defs><g clip-path="url(#clip82)" fill="#a5b9ee" fill-opacity="1" opacity="1" stroke="#000000" stroke-linecap="square" stroke-linejoin="bevel" stroke-opacity="1" stroke-width="1" transform="matrix(3.7037,0,0,3.7037,-490.741,-64.8148)"><polyline fill="none" points="144,24 148,24" vector-effect="none"/></g><defs><clipPath id="clip83"><path d="M140,20 L180,20 L180,60 L140,60 L140,20 z"/></clipPath></defs><g clip-path="url(#clip83)" fill="#a5b9ee" fill-opacity="1" opacity="1" stroke="#000000" stroke-linecap="square" stroke-linejoin="bevel" stroke-opacity="1" stroke-width="1" transform="matrix(3.7037,0,0,3.7037,-490.741,-64.8148)"><polyline fill="none" points="150,26 151,24" vector-effect="none"/></g><defs><clipPath id="clip84"><path d="M140,20 L180,20 L180,60 L140,60 L140,20 z"/></clipPath></defs><g clip-path="url(#clip84)" fill="#a5b9ee" fill-opacity="1" opacity="1" stroke="#000000" stroke-linecap="square" stroke-linejoin="bevel" stroke-opacity="1" stroke-width="1" transform="matrix(3.7037,0,0,3.7037,-490.741,-64.8148)"><polyline fill="none" points="151,24 152,24" vector-effect="none"/></g><defs><clipPath id="clip85"><path d="M140,20 L180,20 L180,60 L140,60 L140,20 z"/></clipPath></defs><g clip-path="url(#clip85)" fill="#a5b9ee" fill-opacity="1" opacity="1" stroke="#000000" stroke-linecap="square" stroke-linejoin="bevel" stroke-opacity="1" stroke-width="1" transform="matrix(3.7037,0,0,3.7037,-490.741,-64.8148)"><polyline fill="none" points="152,24 154,26" vector-effect="none"/></g><defs><clipPath id="clip86"><path d="M140,20 L180,20 L180,60 L140,60 L140,20 z"/></clipPath></defs><g clip-path="url(#clip86)" fill="#a5b9ee" fill-opacity="1" opacity="1" stroke="#000000" stroke-linecap="square" stroke-linejoin="bevel" stroke-opacity="1" stroke-width="1" transform="matrix(3.7037,0,0,3.7037,-490.741,-64.8148)"><polyline fill="none" points="154,26 154,28" vector-effect="none"/></g><defs><clipPath id="clip87"><path d="M140,20 L180,20 L180,60 L140,60 L140,20 z"/></clipPath></defs><g clip-path="url(#clip87)" fill="#a5b9ee" fill-opacity="1" opacity="1" stroke="#000000" stroke-linecap="square" stroke-linejoin="bevel" stroke-opacity="1" stroke-width="1" transform="matrix(3.7037,0,0,3.7037,-490.741,-64.8148)"><polyline fill="none" points="154,28 152,28" vector-effect="none"/></g><defs><clipPath id="clip88"><path d="M140,20 L180,20 L180,60 L140,60 L140,20 z"/></clipPath></defs><g clip-path="url(#clip88)" fill="#a5b9ee" fill-opacity="1" opacity="1" stroke="#000000" stroke-linecap="square" stroke-linejoin="bevel" stroke-opacity="1" stroke-width="1" transform="matrix(3.7037,0,0,3.7037,-490.741,-64.8148)"><polyline fill="none" points="152,28 150,32" vector-effect="none"/></g><defs><clipPath id="clip89"><path d="M140,20 L180,20 L180,60 L140,60 L140,20 z"/></clipPath></defs><g clip-path="url(#clip89)" fill="#a5b9ee" fill-opacity="1" opacity="1" stroke="#000000" stroke-linecap="square" stroke-linejoin="bevel" stroke-opacity="1" stroke-width="1" transform="matrix(3.7037,0,0,3.7037,-490.741,-64.8148)"><polyline fill="none" points="150,32 154,32" vector-effect="none"/></g><defs><clipPath id="clip94"><path d="M-7,-2 L47,-2 L47,42 L-7,42 L-7,-2 z"/></clipPath></defs><g clip-path="url(#clip94)" fill="none" opacity="1" stroke="none" stroke-opacity="0" transform="matrix(3.7037,0,0,3.7037,25.9259,7.40741)"><path d="M0,0 L40,0 L40,40 L0,40 L0,0 z" fill-rule="evenodd" vector-effect="none"/></g></g></svg>
