<?xml version="1.0" encoding="UTF-8"?><svg width="52.9167mm" height="42.8625mm" viewBox="0 0 200 162" xmlns="http://www.w3.org/2000/svg" xmlns:xlink="http://www.w3.org/1999/xlink"><g fill="none" stroke="black" stroke-width="1" fill-rule="evenodd" stroke-linecap="square" stroke-linejoin="bevel"><g clip-path="none" fill="none" opacity="1" stroke="none" stroke-opacity="0" transform="matrix(1,0,0,1,0,0)"><path d="M0,0 L200,0 L200,162 L0,162 L0,0 z" fill-rule="evenodd" vector-effect="none"/></g><defs><clipPath id="clip3"><path d="M7,22 L-47,22 L-47,-22 L7,-22 L7,22 z"/></clipPath></defs><g clip-path="url(#clip3)" fill="none" opacity="1" stroke="#000000" stroke-linecap="round" stroke-linejoin="miter" stroke-miterlimit="2" stroke-opacity="1" stroke-width="2" transform="matrix(-3.7037,0,0,-3.7037,25.9259,81.4815)"><path d="M5,-5 L0,0 L5,5" fill-rule="evenodd" vector-effect="none"/></g><defs><clipPath id="clip6"><path d="M-47,-22 L7,-22 L7,22 L-47,22 L-47,-22 z"/></clipPath></defs><g clip-path="url(#clip6)" fill="none" opacity="1" stroke="#000000" stroke-linecap="round" stroke-linejoin="miter" stroke-miterlimit="2" stroke-opacity="1" stroke-width="2" transform="matrix(3.7037,0,0,3.7037,174.074,81.4815)"><path d="M0,-5 L5,0 L0,5" fill-rule="evenodd" vector-effect="none"/></g><defs><clipPath id="clip9"><path d="M-7,-2 L47,-2 L47,42 L-7,42 L-7,-2 z"/></clipPath></defs><g clip-path="url(#clip9)" fill="#ffffff" fill-opacity="1" opacity="1" stroke="none" stroke-opacity="0" transform="matrix(3.7037,0,0,3.7037,25.9259,7.40741)"><path d="M0,0 L40,0 L40,40 L0,40 L0,0 z" fill-rule="evenodd" vector-effect="none"/></g><defs><clipPath id="clip13"><path d="M440,20 L480,20 L480,60 L440,60 L440,20 z"/></clipPath></defs><g clip-path="url(#clip13)" fill="#7896e6" fill-opacity="1" opacity="1" stroke="#7896e6" stroke-linecap="square" stroke-linejoin="bevel" stroke-opacity="1" stroke-width="1" transform="matrix(3.7037,0,0,3.7037,-1603.7,-66.6667)"><path d="M440,59 L479,59 L479,20 L440,20 L440,59 z" fill-rule="evenodd" vector-effect="none"/></g><defs><clipPath id="clip14"><path d="M440,20 L480,20 L480,60 L440,60 L440,20 z"/></clipPath></defs><g clip-path="url(#clip14)" fill="#506499" fill-opacity="1" opacity="1" stroke="#506499" stroke-linecap="square" stroke-linejoin="bevel" stroke-opacity="1" stroke-width="1" transform="matrix(3.7037,0,0,3.7037,-1603.7,-66.6667)"><path d="M440,59 L479,59 L479,20 L477,22 L477,57 L442,57 L440,59 z" fill-rule="evenodd" vector-effect="none"/></g><defs><clipPath id="clip15"><path d="M440,20 L480,20 L480,60 L440,60 L440,20 z"/></clipPath></defs><g clip-path="url(#clip15)" fill="#a5b9ee" fill-opacity="1" opacity="1" stroke="#a5b9ee" stroke-linecap="square" stroke-linejoin="bevel" stroke-opacity="1" stroke-width="1" transform="matrix(3.7037,0,0,3.7037,-1603.7,-66.6667)"><path d="M440,59 L440,20 L479,20 L477,22 L442,22 L442,57 L440,59 z" fill-rule="evenodd" vector-effect="none"/></g><defs><clipPath id="clip16"><path d="M440,20 L480,20 L480,60 L440,60 L440,20 z"/></clipPath></defs><g clip-path="url(#clip16)" fill="#a5b9ee" fill-opacity="1" opacity="1" stroke="#ffffff" stroke-linecap="square" stroke-linejoin="bevel" stroke-opacity="1" stroke-width="1" transform="matrix(3.7037,0,0,3.7037,-1601.85,-64.8148)"><polyline fill="none" points="446,53 473,53" vector-effect="none"/></g><defs><clipPath id="clip17"><path d="M440,20 L480,20 L480,60 L440,60 L440,20 z"/></clipPath></defs><g clip-path="url(#clip17)" fill="#a5b9ee" fill-opacity="1" opacity="1" stroke="#ffffff" stroke-linecap="square" stroke-linejoin="bevel" stroke-opacity="1" stroke-width="1" transform="matrix(3.7037,0,0,3.7037,-1601.85,-64.8148)"><polyline fill="none" points="454,53 454,26" vector-effect="none"/></g><defs><clipPath id="clip18"><path d="M440,20 L480,20 L480,60 L440,60 L440,20 z"/></clipPath></defs><g clip-path="url(#clip18)" fill="#a5b9ee" fill-opacity="1" opacity="1" stroke="#000000" stroke-linecap="square" stroke-linejoin="bevel" stroke-opacity="1" stroke-width="1" transform="matrix(3.7037,0,0,3.7037,-1601.85,-64.8148)"><polyline fill="none" points="446,53 453,53" vector-effect="none"/></g><defs><clipPath id="clip19"><path d="M440,20 L480,20 L480,60 L440,60 L440,20 z"/></clipPath></defs><g clip-path="url(#clip19)" fill="#a5b9ee" fill-opacity="1" opacity="1" stroke="#000000" stroke-linecap="square" stroke-linejoin="bevel" stroke-opacity="1" stroke-width="1" transform="matrix(3.7037,0,0,3.7037,-1601.85,-64.8148)"><polyline fill="none" points="453,53 473,26" vector-effect="none"/></g><defs><clipPath id="clip20"><path d="M440,20 L480,20 L480,60 L440,60 L440,20 z"/></clipPath></defs><g clip-path="url(#clip20)" fill="#a5b9ee" fill-opacity="1" opacity="1" stroke="#000000" stroke-linecap="square" stroke-linejoin="bevel" stroke-opacity="1" stroke-width="1" transform="matrix(3.7037,0,0,3.7037,-1601.85,-64.8148)"><polyline fill="none" points="440,59 479,59" vector-effect="none"/></g><defs><clipPath id="clip21"><path d="M440,20 L480,20 L480,60 L440,60 L440,20 z"/></clipPath></defs><g clip-path="url(#clip21)" fill="#a5b9ee" fill-opacity="1" opacity="1" stroke="#000000" stroke-linecap="square" stroke-linejoin="bevel" stroke-opacity="1" stroke-width="1" transform="matrix(3.7037,0,0,3.7037,-1601.85,-64.8148)"><polyline fill="none" points="479,59 479,20" vector-effect="none"/></g><defs><clipPath id="clip22"><path d="M440,20 L480,20 L480,60 L440,60 L440,20 z"/></clipPath></defs><g clip-path="url(#clip22)" fill="#a5b9ee" fill-opacity="1" opacity="1" stroke="#000000" stroke-linecap="square" stroke-linejoin="bevel" stroke-opacity="1" stroke-width="1" transform="matrix(3.7037,0,0,3.7037,-1601.85,-64.8148)"><polyline fill="none" points="479,20 440,20" vector-effect="none"/></g><defs><clipPath id="clip23"><path d="M440,20 L480,20 L480,60 L440,60 L440,20 z"/></clipPath></defs><g clip-path="url(#clip23)" fill="#a5b9ee" fill-opacity="1" opacity="1" stroke="#000000" stroke-linecap="square" stroke-linejoin="bevel" stroke-opacity="1" stroke-width="1" transform="matrix(3.7037,0,0,3.7037,-1601.85,-64.8148)"><polyline fill="none" points="440,20 440,59" vector-effect="none"/></g><defs><clipPath id="clip28"><path d="M-7,-2 L47,-2 L47,42 L-7,42 L-7,-2 z"/></clipPath></defs><g clip-path="url(#clip28)" fill="none" opacity="1" stroke="none" stroke-opacity="0" transform="matrix(3.7037,0,0,3.7037,25.9259,7.40741)"><path d="M0,0 L40,0 L40,40 L0,40 L0,0 z" fill-rule="evenodd" vector-effect="none"/></g></g></svg>
