<?xml version="1.0" encoding="UTF-8"?><svg width="52.9167mm" height="42.8625mm" viewBox="0 0 200 162" xmlns="http://www.w3.org/2000/svg" xmlns:xlink="http://www.w3.org/1999/xlink"><g fill="none" stroke="black" stroke-width="1" fill-rule="evenodd" stroke-linecap="square" stroke-linejoin="bevel"><g clip-path="none" fill="none" opacity="1" stroke="none" stroke-opacity="0" transform="matrix(1,0,0,1,0,0)"><path d="M0,0 L200,0 L200,162 L0,162 L0,0 z" fill-rule="evenodd" vector-effect="none"/></g><defs><clipPath id="clip3"><path d="M7,22 L-47,22 L-47,-22 L7,-22 L7,22 z"/></clipPath></defs><g clip-path="url(#clip3)" fill="none" opacity="1" stroke="#000000" stroke-linecap="round" stroke-linejoin="miter" stroke-miterlimit="2" stroke-opacity="1" stroke-width="2" transform="matrix(-3.7037,0,0,-3.7037,25.9259,81.4815)"><path d="M5,-5 L0,0 L5,5" fill-rule="evenodd" vector-effect="none"/></g><defs><clipPath id="clip6"><path d="M-47,-22 L7,-22 L7,22 L-47,22 L-47,-22 z"/></clipPath></defs><g clip-path="url(#clip6)" fill="none" opacity="1" stroke="#000000" stroke-linecap="round" stroke-linejoin="miter" stroke-miterlimit="2" stroke-opacity="1" stroke-width="2" transform="matrix(3.7037,0,0,3.7037,174.074,81.4815)"><path d="M0,-5 L5,0 L0,5" fill-rule="evenodd" vector-effect="none"/></g><defs><clipPath id="clip9"><path d="M-7,-2 L47,-2 L47,42 L-7,42 L-7,-2 z"/></clipPath></defs><g clip-path="url(#clip9)" fill="#ffffff" fill-opacity="1" opacity="1" stroke="none" stroke-opacity="0" transform="matrix(3.7037,0,0,3.7037,25.9259,7.40741)"><path d="M0,0 L40,0 L40,40 L0,40 L0,0 z" fill-rule="evenodd" vector-effect="none"/></g><defs><clipPath id="clip13"><path d="M80,90 L120,90 L120,130 L80,130 L80,90 z"/></clipPath></defs><g clip-path="url(#clip13)" fill="#7896e6" fill-opacity="1" opacity="1" stroke="#7896e6" stroke-linecap="square" stroke-linejoin="bevel" stroke-opacity="1" stroke-width="1" transform="matrix(3.7037,0,0,3.7037,-270.37,-325.926)"><path d="M80,129 L119,129 L119,90 L80,90 L80,129 z" fill-rule="evenodd" vector-effect="none"/></g><defs><clipPath id="clip14"><path d="M80,90 L120,90 L120,130 L80,130 L80,90 z"/></clipPath></defs><g clip-path="url(#clip14)" fill="#506499" fill-opacity="1" opacity="1" stroke="#506499" stroke-linecap="square" stroke-linejoin="bevel" stroke-opacity="1" stroke-width="1" transform="matrix(3.7037,0,0,3.7037,-270.37,-325.926)"><path d="M80,129 L119,129 L119,90 L117,92 L117,127 L82,127 L80,129 z" fill-rule="evenodd" vector-effect="none"/></g><defs><clipPath id="clip15"><path d="M80,90 L120,90 L120,130 L80,130 L80,90 z"/></clipPath></defs><g clip-path="url(#clip15)" fill="#a5b9ee" fill-opacity="1" opacity="1" stroke="#a5b9ee" stroke-linecap="square" stroke-linejoin="bevel" stroke-opacity="1" stroke-width="1" transform="matrix(3.7037,0,0,3.7037,-270.37,-325.926)"><path d="M80,129 L80,90 L119,90 L117,92 L82,92 L82,127 L80,129 z" fill-rule="evenodd" vector-effect="none"/></g><defs><clipPath id="clip16"><path d="M80,90 L120,90 L120,130 L80,130 L80,90 z"/></clipPath></defs><g clip-path="url(#clip16)" fill="#a5b9ee" fill-opacity="1" opacity="1" stroke="#ffffff" stroke-linecap="square" stroke-linejoin="bevel" stroke-opacity="1" stroke-width="1" transform="matrix(3.7037,0,0,3.7037,-268.519,-324.074)"><polyline fill="none" points="86,123 113,123" vector-effect="none"/></g><defs><clipPath id="clip17"><path d="M80,90 L120,90 L120,130 L80,130 L80,90 z"/></clipPath></defs><g clip-path="url(#clip17)" fill="#a5b9ee" fill-opacity="1" opacity="1" stroke="#ffffff" stroke-linecap="square" stroke-linejoin="bevel" stroke-opacity="1" stroke-width="1" transform="matrix(3.7037,0,0,3.7037,-268.519,-324.074)"><polyline fill="none" points="100,123 100,96" vector-effect="none"/></g><defs><clipPath id="clip18"><path d="M80,90 L120,90 L120,130 L80,130 L80,90 z"/></clipPath></defs><g clip-path="url(#clip18)" fill="#a5b9ee" fill-opacity="1" opacity="1" stroke="#000000" stroke-linecap="square" stroke-linejoin="bevel" stroke-opacity="1" stroke-width="1" transform="matrix(3.7037,0,0,3.7037,-268.519,-324.074)"><polyline fill="none" points="86,125 87,124" vector-effect="none"/></g><defs><clipPath id="clip19"><path d="M80,90 L120,90 L120,130 L80,130 L80,90 z"/></clipPath></defs><g clip-path="url(#clip19)" fill="#a5b9ee" fill-opacity="1" opacity="1" stroke="#000000" stroke-linecap="square" stroke-linejoin="bevel" stroke-opacity="1" stroke-width="1" transform="matrix(3.7037,0,0,3.7037,-268.519,-324.074)"><polyline fill="none" points="87,124 89,123" vector-effect="none"/></g><defs><clipPath id="clip20"><path d="M80,90 L120,90 L120,130 L80,130 L80,90 z"/></clipPath></defs><g clip-path="url(#clip20)" fill="#a5b9ee" fill-opacity="1" opacity="1" stroke="#000000" stroke-linecap="square" stroke-linejoin="bevel" stroke-opacity="1" stroke-width="1" transform="matrix(3.7037,0,0,3.7037,-268.519,-324.074)"><polyline fill="none" points="89,123 90,121" vector-effect="none"/></g><defs><clipPath id="clip21"><path d="M80,90 L120,90 L120,130 L80,130 L80,90 z"/></clipPath></defs><g clip-path="url(#clip21)" fill="#a5b9ee" fill-opacity="1" opacity="1" stroke="#000000" stroke-linecap="square" stroke-linejoin="bevel" stroke-opacity="1" stroke-width="1" transform="matrix(3.7037,0,0,3.7037,-268.519,-324.074)"><polyline fill="none" points="90,121 91,118" vector-effect="none"/></g><defs><clipPath id="clip22"><path d="M80,90 L120,90 L120,130 L80,130 L80,90 z"/></clipPath></defs><g clip-path="url(#clip22)" fill="#a5b9ee" fill-opacity="1" opacity="1" stroke="#000000" stroke-linecap="square" stroke-linejoin="bevel" stroke-opacity="1" stroke-width="1" transform="matrix(3.7037,0,0,3.7037,-268.519,-324.074)"><polyline fill="none" points="91,118 93,114" vector-effect="none"/></g><defs><clipPath id="clip23"><path d="M80,90 L120,90 L120,130 L80,130 L80,90 z"/></clipPath></defs><g clip-path="url(#clip23)" fill="#a5b9ee" fill-opacity="1" opacity="1" stroke="#000000" stroke-linecap="square" stroke-linejoin="bevel" stroke-opacity="1" stroke-width="1" transform="matrix(3.7037,0,0,3.7037,-268.519,-324.074)"><polyline fill="none" points="93,114 94,109" vector-effect="none"/></g><defs><clipPath id="clip24"><path d="M80,90 L120,90 L120,130 L80,130 L80,90 z"/></clipPath></defs><g clip-path="url(#clip24)" fill="#a5b9ee" fill-opacity="1" opacity="1" stroke="#000000" stroke-linecap="square" stroke-linejoin="bevel" stroke-opacity="1" stroke-width="1" transform="matrix(3.7037,0,0,3.7037,-268.519,-324.074)"><polyline fill="none" points="94,109 95,103" vector-effect="none"/></g><defs><clipPath id="clip25"><path d="M80,90 L120,90 L120,130 L80,130 L80,90 z"/></clipPath></defs><g clip-path="url(#clip25)" fill="#a5b9ee" fill-opacity="1" opacity="1" stroke="#000000" stroke-linecap="square" stroke-linejoin="bevel" stroke-opacity="1" stroke-width="1" transform="matrix(3.7037,0,0,3.7037,-268.519,-324.074)"><polyline fill="none" points="95,103 97,99" vector-effect="none"/></g><defs><clipPath id="clip26"><path d="M80,90 L120,90 L120,130 L80,130 L80,90 z"/></clipPath></defs><g clip-path="url(#clip26)" fill="#a5b9ee" fill-opacity="1" opacity="1" stroke="#000000" stroke-linecap="square" stroke-linejoin="bevel" stroke-opacity="1" stroke-width="1" transform="matrix(3.7037,0,0,3.7037,-268.519,-324.074)"><polyline fill="none" points="97,99 98,95" vector-effect="none"/></g><defs><clipPath id="clip27"><path d="M80,90 L120,90 L120,130 L80,130 L80,90 z"/></clipPath></defs><g clip-path="url(#clip27)" fill="#a5b9ee" fill-opacity="1" opacity="1" stroke="#000000" stroke-linecap="square" stroke-linejoin="bevel" stroke-opacity="1" stroke-width="1" transform="matrix(3.7037,0,0,3.7037,-268.519,-324.074)"><polyline fill="none" points="98,95 100,94" vector-effect="none"/></g><defs><clipPath id="clip28"><path d="M80,90 L120,90 L120,130 L80,130 L80,90 z"/></clipPath></defs><g clip-path="url(#clip28)" fill="#a5b9ee" fill-opacity="1" opacity="1" stroke="#000000" stroke-linecap="square" stroke-linejoin="bevel" stroke-opacity="1" stroke-width="1" transform="matrix(3.7037,0,0,3.7037,-268.519,-324.074)"><polyline fill="none" points="100,94 101,95" vector-effect="none"/></g><defs><clipPath id="clip29"><path d="M80,90 L120,90 L120,130 L80,130 L80,90 z"/></clipPath></defs><g clip-path="url(#clip29)" fill="#a5b9ee" fill-opacity="1" opacity="1" stroke="#000000" stroke-linecap="square" stroke-linejoin="bevel" stroke-opacity="1" stroke-width="1" transform="matrix(3.7037,0,0,3.7037,-268.519,-324.074)"><polyline fill="none" points="101,95 102,99" vector-effect="none"/></g><defs><clipPath id="clip30"><path d="M80,90 L120,90 L120,130 L80,130 L80,90 z"/></clipPath></defs><g clip-path="url(#clip30)" fill="#a5b9ee" fill-opacity="1" opacity="1" stroke="#000000" stroke-linecap="square" stroke-linejoin="bevel" stroke-opacity="1" stroke-width="1" transform="matrix(3.7037,0,0,3.7037,-268.519,-324.074)"><polyline fill="none" points="102,99 104,103" vector-effect="none"/></g><defs><clipPath id="clip31"><path d="M80,90 L120,90 L120,130 L80,130 L80,90 z"/></clipPath></defs><g clip-path="url(#clip31)" fill="#a5b9ee" fill-opacity="1" opacity="1" stroke="#000000" stroke-linecap="square" stroke-linejoin="bevel" stroke-opacity="1" stroke-width="1" transform="matrix(3.7037,0,0,3.7037,-268.519,-324.074)"><polyline fill="none" points="104,103 105,109" vector-effect="none"/></g><defs><clipPath id="clip32"><path d="M80,90 L120,90 L120,130 L80,130 L80,90 z"/></clipPath></defs><g clip-path="url(#clip32)" fill="#a5b9ee" fill-opacity="1" opacity="1" stroke="#000000" stroke-linecap="square" stroke-linejoin="bevel" stroke-opacity="1" stroke-width="1" transform="matrix(3.7037,0,0,3.7037,-268.519,-324.074)"><polyline fill="none" points="105,109 106,114" vector-effect="none"/></g><defs><clipPath id="clip33"><path d="M80,90 L120,90 L120,130 L80,130 L80,90 z"/></clipPath></defs><g clip-path="url(#clip33)" fill="#a5b9ee" fill-opacity="1" opacity="1" stroke="#000000" stroke-linecap="square" stroke-linejoin="bevel" stroke-opacity="1" stroke-width="1" transform="matrix(3.7037,0,0,3.7037,-268.519,-324.074)"><polyline fill="none" points="106,114 108,118" vector-effect="none"/></g><defs><clipPath id="clip34"><path d="M80,90 L120,90 L120,130 L80,130 L80,90 z"/></clipPath></defs><g clip-path="url(#clip34)" fill="#a5b9ee" fill-opacity="1" opacity="1" stroke="#000000" stroke-linecap="square" stroke-linejoin="bevel" stroke-opacity="1" stroke-width="1" transform="matrix(3.7037,0,0,3.7037,-268.519,-324.074)"><polyline fill="none" points="108,118 109,121" vector-effect="none"/></g><defs><clipPath id="clip35"><path d="M80,90 L120,90 L120,130 L80,130 L80,90 z"/></clipPath></defs><g clip-path="url(#clip35)" fill="#a5b9ee" fill-opacity="1" opacity="1" stroke="#000000" stroke-linecap="square" stroke-linejoin="bevel" stroke-opacity="1" stroke-width="1" transform="matrix(3.7037,0,0,3.7037,-268.519,-324.074)"><polyline fill="none" points="109,121 110,123" vector-effect="none"/></g><defs><clipPath id="clip36"><path d="M80,90 L120,90 L120,130 L80,130 L80,90 z"/></clipPath></defs><g clip-path="url(#clip36)" fill="#a5b9ee" fill-opacity="1" opacity="1" stroke="#000000" stroke-linecap="square" stroke-linejoin="bevel" stroke-opacity="1" stroke-width="1" transform="matrix(3.7037,0,0,3.7037,-268.519,-324.074)"><polyline fill="none" points="110,123 112,124" vector-effect="none"/></g><defs><clipPath id="clip37"><path d="M80,90 L120,90 L120,130 L80,130 L80,90 z"/></clipPath></defs><g clip-path="url(#clip37)" fill="#a5b9ee" fill-opacity="1" opacity="1" stroke="#000000" stroke-linecap="square" stroke-linejoin="bevel" stroke-opacity="1" stroke-width="1" transform="matrix(3.7037,0,0,3.7037,-268.519,-324.074)"><polyline fill="none" points="112,124 113,125" vector-effect="none"/></g><defs><clipPath id="clip38"><path d="M80,90 L120,90 L120,130 L80,130 L80,90 z"/></clipPath></defs><g clip-path="url(#clip38)" fill="#a5b9ee" fill-opacity="1" opacity="1" stroke="#000000" stroke-linecap="square" stroke-linejoin="bevel" stroke-opacity="1" stroke-width="1" transform="matrix(3.7037,0,0,3.7037,-268.519,-324.074)"><polyline fill="none" points="80,129 119,129" vector-effect="none"/></g><defs><clipPath id="clip39"><path d="M80,90 L120,90 L120,130 L80,130 L80,90 z"/></clipPath></defs><g clip-path="url(#clip39)" fill="#a5b9ee" fill-opacity="1" opacity="1" stroke="#000000" stroke-linecap="square" stroke-linejoin="bevel" stroke-opacity="1" stroke-width="1" transform="matrix(3.7037,0,0,3.7037,-268.519,-324.074)"><polyline fill="none" points="119,129 119,90" vector-effect="none"/></g><defs><clipPath id="clip40"><path d="M80,90 L120,90 L120,130 L80,130 L80,90 z"/></clipPath></defs><g clip-path="url(#clip40)" fill="#a5b9ee" fill-opacity="1" opacity="1" stroke="#000000" stroke-linecap="square" stroke-linejoin="bevel" stroke-opacity="1" stroke-width="1" transform="matrix(3.7037,0,0,3.7037,-268.519,-324.074)"><polyline fill="none" points="119,90 80,90" vector-effect="none"/></g><defs><clipPath id="clip41"><path d="M80,90 L120,90 L120,130 L80,130 L80,90 z"/></clipPath></defs><g clip-path="url(#clip41)" fill="#a5b9ee" fill-opacity="1" opacity="1" stroke="#000000" stroke-linecap="square" stroke-linejoin="bevel" stroke-opacity="1" stroke-width="1" transform="matrix(3.7037,0,0,3.7037,-268.519,-324.074)"><polyline fill="none" points="80,90 80,129" vector-effect="none"/></g><defs><clipPath id="clip46"><path d="M-7,-2 L47,-2 L47,42 L-7,42 L-7,-2 z"/></clipPath></defs><g clip-path="url(#clip46)" fill="none" opacity="1" stroke="none" stroke-opacity="0" transform="matrix(3.7037,0,0,3.7037,25.9259,7.40741)"><path d="M0,0 L40,0 L40,40 L0,40 L0,0 z" fill-rule="evenodd" vector-effect="none"/></g></g></svg>
