<?xml version="1.0" encoding="UTF-8"?><svg width="52.9167mm" height="43.1271mm" viewBox="0 0 200 163" xmlns="http://www.w3.org/2000/svg" xmlns:xlink="http://www.w3.org/1999/xlink"><g fill="none" stroke="black" stroke-width="1" fill-rule="evenodd" stroke-linecap="square" stroke-linejoin="bevel"><g clip-path="none" fill="none" opacity="1" stroke="none" stroke-opacity="0" transform="matrix(1,0,0,1,0,0)"><path d="M0,0 L200,0 L200,163 L0,163 L0,0 z" fill-rule="evenodd" vector-effect="none"/></g><defs><clipPath id="clip3"><path d="M-42,-20 L7,-20 L7,20 L-42,20 L-42,-20 z"/></clipPath></defs><g clip-path="url(#clip3)" fill="none" opacity="1" stroke="#000000" stroke-linecap="round" stroke-linejoin="miter" stroke-miterlimit="2" stroke-opacity="1" stroke-width="2" transform="matrix(4.08163,0,0,4.08163,171.429,81.6327)"><path d="M0,-5 L5,0 L0,5" fill-rule="evenodd" vector-effect="none"/></g><defs><clipPath id="clip6"><path d="M7,30 L-42,30 L-42,-10 L7,-10 L7,30 z"/></clipPath></defs><g clip-path="url(#clip6)" fill="none" opacity="1" stroke="#000000" stroke-linecap="round" stroke-linejoin="miter" stroke-miterlimit="2" stroke-opacity="1" stroke-width="2" transform="matrix(-4.08163,0,0,-4.08163,28.5714,122.449)"><path d="M5,-5 L0,0 L5,5" fill-rule="evenodd" vector-effect="none"/></g><defs><clipPath id="clip9"><path d="M7,10 L-42,10 L-42,-30 L7,-30 L7,10 z"/></clipPath></defs><g clip-path="url(#clip9)" fill="none" opacity="1" stroke="#000000" stroke-linecap="round" stroke-linejoin="miter" stroke-miterlimit="2" stroke-opacity="1" stroke-width="2" transform="matrix(-4.08163,0,0,-4.08163,28.5714,40.8163)"><path d="M5,-5 L0,0 L5,5" fill-rule="evenodd" vector-effect="none"/></g><defs><clipPath id="clip12"><path d="M-7,-2 L42,-2 L42,38 L-7,38 L-7,-2 z"/></clipPath></defs><g clip-path="url(#clip12)" fill="#ffffff" fill-opacity="1" opacity="1" stroke="none" stroke-opacity="0" transform="matrix(4.08163,0,0,4.08163,28.5714,8.16327)"><path d="M0,0 L35,0 L35,36 L0,36 L0,0 z" fill-rule="evenodd" vector-effect="none"/></g><defs><clipPath id="clip16"><path d="M30,22 L65,22 L65,58 L30,58 L30,22 z"/></clipPath></defs><g clip-path="url(#clip16)" fill="#7896e6" fill-opacity="1" opacity="1" stroke="#7896e6" stroke-linecap="square" stroke-linejoin="bevel" stroke-opacity="1" stroke-width="1" transform="matrix(4.08163,0,0,4.08163,-93.8776,-81.6327)"><path d="M30,57 L64,57 L64,22 L30,22 L30,57 z" fill-rule="evenodd" vector-effect="none"/></g><defs><clipPath id="clip17"><path d="M30,22 L65,22 L65,58 L30,58 L30,22 z"/></clipPath></defs><g clip-path="url(#clip17)" fill="#506499" fill-opacity="1" opacity="1" stroke="#506499" stroke-linecap="square" stroke-linejoin="bevel" stroke-opacity="1" stroke-width="1" transform="matrix(4.08163,0,0,4.08163,-93.8776,-81.6327)"><path d="M30,57 L64,57 L64,22 L62,24 L62,55 L32,55 L30,57 z" fill-rule="evenodd" vector-effect="none"/></g><defs><clipPath id="clip18"><path d="M30,22 L65,22 L65,58 L30,58 L30,22 z"/></clipPath></defs><g clip-path="url(#clip18)" fill="#a5b9ee" fill-opacity="1" opacity="1" stroke="#a5b9ee" stroke-linecap="square" stroke-linejoin="bevel" stroke-opacity="1" stroke-width="1" transform="matrix(4.08163,0,0,4.08163,-93.8776,-81.6327)"><path d="M30,57 L30,22 L64,22 L62,24 L32,24 L32,55 L30,57 z" fill-rule="evenodd" vector-effect="none"/></g><defs><clipPath id="clip19"><path d="M30,21 L65,21 L65,57 L30,57 L30,21 z"/></clipPath></defs><g clip-path="url(#clip19)" fill="#a5b9ee" fill-opacity="1" opacity="1" stroke="#000000" stroke-linecap="square" stroke-linejoin="bevel" stroke-opacity="1" stroke-width="1" transform="matrix(4.08163,0,0,4.08163,-91.8367,-79.5918)"><polyline fill="none" points="30,57 64,57" vector-effect="none"/></g><defs><clipPath id="clip20"><path d="M30,21 L65,21 L65,57 L30,57 L30,21 z"/></clipPath></defs><g clip-path="url(#clip20)" fill="#a5b9ee" fill-opacity="1" opacity="1" stroke="#000000" stroke-linecap="square" stroke-linejoin="bevel" stroke-opacity="1" stroke-width="1" transform="matrix(4.08163,0,0,4.08163,-91.8367,-79.5918)"><polyline fill="none" points="64,57 64,22" vector-effect="none"/></g><defs><clipPath id="clip21"><path d="M30,21 L65,21 L65,57 L30,57 L30,21 z"/></clipPath></defs><g clip-path="url(#clip21)" fill="#a5b9ee" fill-opacity="1" opacity="1" stroke="#000000" stroke-linecap="square" stroke-linejoin="bevel" stroke-opacity="1" stroke-width="1" transform="matrix(4.08163,0,0,4.08163,-91.8367,-79.5918)"><polyline fill="none" points="64,22 30,22" vector-effect="none"/></g><defs><clipPath id="clip22"><path d="M30,21 L65,21 L65,57 L30,57 L30,21 z"/></clipPath></defs><g clip-path="url(#clip22)" fill="#a5b9ee" fill-opacity="1" opacity="1" stroke="#000000" stroke-linecap="square" stroke-linejoin="bevel" stroke-opacity="1" stroke-width="1" transform="matrix(4.08163,0,0,4.08163,-91.8367,-79.5918)"><polyline fill="none" points="30,22 30,57" vector-effect="none"/></g><defs><clipPath id="clip24"><path d="M-15,-41 L164,-41 L164,143 L-15,143 L-15,-41 z"/></clipPath></defs><g clip-path="url(#clip24)" fill="#a5b9ee" fill-opacity="1" opacity="1" stroke="#000000" stroke-linecap="square" stroke-linejoin="bevel" stroke-opacity="1" stroke-width="1" transform="matrix(0.797194,0,0,0.797194,40.8163,40.8163)"><text fill="#000000" fill-opacity="1" font-family="Liberation Sans" font-size="40" font-style="normal" font-weight="400" stroke="none" textLength="29" x="0" xml:space="preserve" y="17.9219">w</text></g><defs><clipPath id="clip27"><path d="M-15,-143 L164,-143 L164,41 L-15,41 L-15,-143 z"/></clipPath></defs><g clip-path="url(#clip27)" fill="#a5b9ee" fill-opacity="1" opacity="1" stroke="#000000" stroke-linecap="square" stroke-linejoin="bevel" stroke-opacity="1" stroke-width="1" transform="matrix(0.797194,0,0,0.797194,40.8163,122.449)"><text fill="#000000" fill-opacity="1" font-family="Liberation Sans" font-size="40" font-style="normal" font-weight="400" stroke="none" textLength="22" x="0" xml:space="preserve" y="17.9219">p</text></g><defs><clipPath id="clip30"><path d="M-164,-92 L15,-92 L15,92 L-164,92 L-164,-92 z"/></clipPath></defs><g clip-path="url(#clip30)" fill="#a5b9ee" fill-opacity="1" opacity="1" stroke="#000000" stroke-linecap="square" stroke-linejoin="bevel" stroke-opacity="1" stroke-width="1" transform="matrix(0.797194,0,0,0.797194,159.184,81.6327)"><text fill="#000000" fill-opacity="1" font-family="Liberation Sans" font-size="40" font-style="normal" font-weight="400" stroke="none" textLength="20" x="-25.5938" xml:space="preserve" y="17.9219">z</text></g><defs><clipPath id="clip36"><path d="M-7,-2 L42,-2 L42,38 L-7,38 L-7,-2 z"/></clipPath></defs><g clip-path="url(#clip36)" fill="none" opacity="1" stroke="none" stroke-opacity="0" transform="matrix(4.08163,0,0,4.08163,28.5714,8.16327)"><path d="M0,0 L35,0 L35,36 L0,36 L0,0 z" fill-rule="evenodd" vector-effect="none"/></g></g></svg>
