<?xml version="1.0" encoding="UTF-8"?><svg width="52.9167mm" height="23.2833mm" viewBox="0 0 200 88" xmlns="http://www.w3.org/2000/svg" xmlns:xlink="http://www.w3.org/1999/xlink"><g fill="none" stroke="black" stroke-width="1" fill-rule="evenodd" stroke-linecap="square" stroke-linejoin="bevel"><g clip-path="none" fill="none" opacity="1" stroke="none" stroke-opacity="0" transform="matrix(1,0,0,1,0,0)"><path d="M0,0 L200,0 L200,88 L0,88 L0,0 z" fill-rule="evenodd" vector-effect="none"/></g><defs><clipPath id="clip3"><path d="M-2,-2 L102,-2 L102,44 L-2,44 L-2,-2 z"/></clipPath></defs><g clip-path="url(#clip3)" fill="#e8d152" fill-opacity="1" opacity="1" stroke="none" stroke-opacity="0" transform="matrix(1.92308,0,0,1.92308,3.84615,3.84615)"><path d="M0,0 L100,0 L100,42 L0,42 L0,0 z" fill-rule="evenodd" vector-effect="none"/></g><defs><clipPath id="clip7"><path d="M20,19 L120,19 L120,61 L20,61 L20,19 z"/></clipPath></defs><g clip-path="url(#clip7)" fill="none" opacity="1" stroke="#000000" stroke-linecap="butt" stroke-linejoin="miter" stroke-miterlimit="2" stroke-opacity="1" stroke-width="0.52" transform="matrix(1.92308,0,0,1.92308,-33.6538,-31.7308)"><polyline fill="none" points="23,42 30,42" vector-effect="none"/></g><defs><clipPath id="clip8"><path d="M20,19 L120,19 L120,61 L20,61 L20,19 z"/></clipPath></defs><g clip-path="url(#clip8)" fill="none" opacity="1" stroke="#000000" stroke-linecap="butt" stroke-linejoin="miter" stroke-miterlimit="2" stroke-opacity="1" stroke-width="0.52" transform="matrix(1.92308,0,0,1.92308,-33.6538,-31.7308)"><polyline fill="none" points="43,42 42,37" vector-effect="none"/></g><defs><clipPath id="clip9"><path d="M20,19 L120,19 L120,61 L20,61 L20,19 z"/></clipPath></defs><g clip-path="url(#clip9)" fill="none" opacity="1" stroke="#000000" stroke-linecap="butt" stroke-linejoin="miter" stroke-miterlimit="2" stroke-opacity="1" stroke-width="0.52" transform="matrix(1.92308,0,0,1.92308,-33.6538,-31.7308)"><polyline fill="none" points="42,37 38,34" vector-effect="none"/></g><defs><clipPath id="clip10"><path d="M20,19 L120,19 L120,61 L20,61 L20,19 z"/></clipPath></defs><g clip-path="url(#clip10)" fill="none" opacity="1" stroke="#000000" stroke-linecap="butt" stroke-linejoin="miter" stroke-miterlimit="2" stroke-opacity="1" stroke-width="0.52" transform="matrix(1.92308,0,0,1.92308,-33.6538,-31.7308)"><polyline fill="none" points="38,34 33,35" vector-effect="none"/></g><defs><clipPath id="clip11"><path d="M20,19 L120,19 L120,61 L20,61 L20,19 z"/></clipPath></defs><g clip-path="url(#clip11)" fill="none" opacity="1" stroke="#000000" stroke-linecap="butt" stroke-linejoin="miter" stroke-miterlimit="2" stroke-opacity="1" stroke-width="0.52" transform="matrix(1.92308,0,0,1.92308,-33.6538,-31.7308)"><polyline fill="none" points="33,35 30,39" vector-effect="none"/></g><defs><clipPath id="clip12"><path d="M20,19 L120,19 L120,61 L20,61 L20,19 z"/></clipPath></defs><g clip-path="url(#clip12)" fill="none" opacity="1" stroke="#000000" stroke-linecap="butt" stroke-linejoin="miter" stroke-miterlimit="2" stroke-opacity="1" stroke-width="0.52" transform="matrix(1.92308,0,0,1.92308,-33.6538,-31.7308)"><polyline fill="none" points="30,39 30,45" vector-effect="none"/></g><defs><clipPath id="clip13"><path d="M20,19 L120,19 L120,61 L20,61 L20,19 z"/></clipPath></defs><g clip-path="url(#clip13)" fill="none" opacity="1" stroke="#000000" stroke-linecap="butt" stroke-linejoin="miter" stroke-miterlimit="2" stroke-opacity="1" stroke-width="0.52" transform="matrix(1.92308,0,0,1.92308,-33.6538,-31.7308)"><polyline fill="none" points="30,45 33,49" vector-effect="none"/></g><defs><clipPath id="clip14"><path d="M20,19 L120,19 L120,61 L20,61 L20,19 z"/></clipPath></defs><g clip-path="url(#clip14)" fill="none" opacity="1" stroke="#000000" stroke-linecap="butt" stroke-linejoin="miter" stroke-miterlimit="2" stroke-opacity="1" stroke-width="0.52" transform="matrix(1.92308,0,0,1.92308,-33.6538,-31.7308)"><polyline fill="none" points="33,49 38,50" vector-effect="none"/></g><defs><clipPath id="clip15"><path d="M20,19 L120,19 L120,61 L20,61 L20,19 z"/></clipPath></defs><g clip-path="url(#clip15)" fill="none" opacity="1" stroke="#000000" stroke-linecap="butt" stroke-linejoin="miter" stroke-miterlimit="2" stroke-opacity="1" stroke-width="0.52" transform="matrix(1.92308,0,0,1.92308,-33.6538,-31.7308)"><polyline fill="none" points="38,50 42,47" vector-effect="none"/></g><defs><clipPath id="clip16"><path d="M20,19 L120,19 L120,61 L20,61 L20,19 z"/></clipPath></defs><g clip-path="url(#clip16)" fill="none" opacity="1" stroke="#000000" stroke-linecap="butt" stroke-linejoin="miter" stroke-miterlimit="2" stroke-opacity="1" stroke-width="0.52" transform="matrix(1.92308,0,0,1.92308,-33.6538,-31.7308)"><polyline fill="none" points="42,47 43,42" vector-effect="none"/></g><defs><clipPath id="clip17"><path d="M20,19 L120,19 L120,61 L20,61 L20,19 z"/></clipPath></defs><g clip-path="url(#clip17)" fill="none" opacity="1" stroke="#000000" stroke-linecap="butt" stroke-linejoin="miter" stroke-miterlimit="2" stroke-opacity="1" stroke-width="0.52" transform="matrix(1.92308,0,0,1.92308,-33.6538,-31.7308)"><polyline fill="none" points="36,58 36,50" vector-effect="none"/></g><defs><clipPath id="clip18"><path d="M20,19 L120,19 L120,61 L20,61 L20,19 z"/></clipPath></defs><g clip-path="url(#clip18)" fill="none" opacity="1" stroke="#000000" stroke-linecap="butt" stroke-linejoin="miter" stroke-miterlimit="2" stroke-opacity="1" stroke-width="0.52" transform="matrix(1.92308,0,0,1.92308,-33.6538,-31.7308)"><polyline fill="none" points="43,22 50,30" vector-effect="none"/></g><defs><clipPath id="clip19"><path d="M20,19 L120,19 L120,61 L20,61 L20,19 z"/></clipPath></defs><g clip-path="url(#clip19)" fill="none" opacity="1" stroke="#000000" stroke-linecap="butt" stroke-linejoin="miter" stroke-miterlimit="2" stroke-opacity="1" stroke-width="0.52" transform="matrix(1.92308,0,0,1.92308,-33.6538,-31.7308)"><polyline fill="none" points="50,30 57,22" vector-effect="none"/></g><defs><clipPath id="clip20"><path d="M20,19 L120,19 L120,61 L20,61 L20,19 z"/></clipPath></defs><g clip-path="url(#clip20)" fill="none" opacity="1" stroke="#000000" stroke-linecap="butt" stroke-linejoin="miter" stroke-miterlimit="2" stroke-opacity="1" stroke-width="0.52" transform="matrix(1.92308,0,0,1.92308,-33.6538,-31.7308)"><polyline fill="none" points="57,22 43,22" vector-effect="none"/></g><defs><clipPath id="clip21"><path d="M20,19 L120,19 L120,61 L20,61 L20,19 z"/></clipPath></defs><g clip-path="url(#clip21)" fill="none" opacity="1" stroke="#000000" stroke-linecap="butt" stroke-linejoin="miter" stroke-miterlimit="2" stroke-opacity="1" stroke-width="0.52" transform="matrix(1.92308,0,0,1.92308,-33.6538,-31.7308)"><polyline fill="none" points="63,22 70,30" vector-effect="none"/></g><defs><clipPath id="clip22"><path d="M20,19 L120,19 L120,61 L20,61 L20,19 z"/></clipPath></defs><g clip-path="url(#clip22)" fill="none" opacity="1" stroke="#000000" stroke-linecap="butt" stroke-linejoin="miter" stroke-miterlimit="2" stroke-opacity="1" stroke-width="0.52" transform="matrix(1.92308,0,0,1.92308,-33.6538,-31.7308)"><polyline fill="none" points="70,30 77,22" vector-effect="none"/></g><defs><clipPath id="clip23"><path d="M20,19 L120,19 L120,61 L20,61 L20,19 z"/></clipPath></defs><g clip-path="url(#clip23)" fill="none" opacity="1" stroke="#000000" stroke-linecap="butt" stroke-linejoin="miter" stroke-miterlimit="2" stroke-opacity="1" stroke-width="0.52" transform="matrix(1.92308,0,0,1.92308,-33.6538,-31.7308)"><polyline fill="none" points="77,22 63,22" vector-effect="none"/></g><defs><clipPath id="clip24"><path d="M20,19 L120,19 L120,61 L20,61 L20,19 z"/></clipPath></defs><g clip-path="url(#clip24)" fill="none" opacity="1" stroke="#000000" stroke-linecap="butt" stroke-linejoin="miter" stroke-miterlimit="2" stroke-opacity="1" stroke-width="0.52" transform="matrix(1.92308,0,0,1.92308,-33.6538,-31.7308)"><polyline fill="none" points="83,22 90,30" vector-effect="none"/></g><defs><clipPath id="clip25"><path d="M20,19 L120,19 L120,61 L20,61 L20,19 z"/></clipPath></defs><g clip-path="url(#clip25)" fill="none" opacity="1" stroke="#000000" stroke-linecap="butt" stroke-linejoin="miter" stroke-miterlimit="2" stroke-opacity="1" stroke-width="0.52" transform="matrix(1.92308,0,0,1.92308,-33.6538,-31.7308)"><polyline fill="none" points="90,30 97,22" vector-effect="none"/></g><defs><clipPath id="clip26"><path d="M20,19 L120,19 L120,61 L20,61 L20,19 z"/></clipPath></defs><g clip-path="url(#clip26)" fill="none" opacity="1" stroke="#000000" stroke-linecap="butt" stroke-linejoin="miter" stroke-miterlimit="2" stroke-opacity="1" stroke-width="0.52" transform="matrix(1.92308,0,0,1.92308,-33.6538,-31.7308)"><polyline fill="none" points="97,22 83,22" vector-effect="none"/></g><defs><clipPath id="clip27"><path d="M20,19 L120,19 L120,61 L20,61 L20,19 z"/></clipPath></defs><g clip-path="url(#clip27)" fill="none" opacity="1" stroke="#000000" stroke-linecap="butt" stroke-linejoin="miter" stroke-miterlimit="2" stroke-opacity="1" stroke-width="0.52" transform="matrix(1.92308,0,0,1.92308,-33.6538,-31.7308)"><polyline fill="none" points="104,22 110,30" vector-effect="none"/></g><defs><clipPath id="clip28"><path d="M20,19 L120,19 L120,61 L20,61 L20,19 z"/></clipPath></defs><g clip-path="url(#clip28)" fill="none" opacity="1" stroke="#000000" stroke-linecap="butt" stroke-linejoin="miter" stroke-miterlimit="2" stroke-opacity="1" stroke-width="0.52" transform="matrix(1.92308,0,0,1.92308,-33.6538,-31.7308)"><polyline fill="none" points="110,30 117,22" vector-effect="none"/></g><defs><clipPath id="clip29"><path d="M20,19 L120,19 L120,61 L20,61 L20,19 z"/></clipPath></defs><g clip-path="url(#clip29)" fill="none" opacity="1" stroke="#000000" stroke-linecap="butt" stroke-linejoin="miter" stroke-miterlimit="2" stroke-opacity="1" stroke-width="0.52" transform="matrix(1.92308,0,0,1.92308,-33.6538,-31.7308)"><polyline fill="none" points="117,22 104,22" vector-effect="none"/></g><defs><clipPath id="clip30"><path d="M20,19 L120,19 L120,61 L20,61 L20,19 z"/></clipPath></defs><g clip-path="url(#clip30)" fill="none" opacity="1" stroke="#000000" stroke-linecap="butt" stroke-linejoin="miter" stroke-miterlimit="2" stroke-opacity="1" stroke-width="0.52" transform="matrix(1.92308,0,0,1.92308,-33.6538,-31.7308)"><polyline fill="none" points="50,34 110,34" vector-effect="none"/></g><defs><clipPath id="clip31"><path d="M20,19 L120,19 L120,61 L20,61 L20,19 z"/></clipPath></defs><g clip-path="url(#clip31)" fill="none" opacity="1" stroke="#000000" stroke-linecap="butt" stroke-linejoin="miter" stroke-miterlimit="2" stroke-opacity="1" stroke-width="0.52" transform="matrix(1.92308,0,0,1.92308,-33.6538,-31.7308)"><polyline fill="none" points="50,34 50,22" vector-effect="none"/></g><defs><clipPath id="clip32"><path d="M20,19 L120,19 L120,61 L20,61 L20,19 z"/></clipPath></defs><g clip-path="url(#clip32)" fill="none" opacity="1" stroke="#000000" stroke-linecap="butt" stroke-linejoin="miter" stroke-miterlimit="2" stroke-opacity="1" stroke-width="0.52" transform="matrix(1.92308,0,0,1.92308,-33.6538,-31.7308)"><polyline fill="none" points="70,34 70,22" vector-effect="none"/></g><defs><clipPath id="clip33"><path d="M20,19 L120,19 L120,61 L20,61 L20,19 z"/></clipPath></defs><g clip-path="url(#clip33)" fill="none" opacity="1" stroke="#000000" stroke-linecap="butt" stroke-linejoin="miter" stroke-miterlimit="2" stroke-opacity="1" stroke-width="0.52" transform="matrix(1.92308,0,0,1.92308,-33.6538,-31.7308)"><polyline fill="none" points="90,34 90,22" vector-effect="none"/></g><defs><clipPath id="clip34"><path d="M20,19 L120,19 L120,61 L20,61 L20,19 z"/></clipPath></defs><g clip-path="url(#clip34)" fill="none" opacity="1" stroke="#000000" stroke-linecap="butt" stroke-linejoin="miter" stroke-miterlimit="2" stroke-opacity="1" stroke-width="0.52" transform="matrix(1.92308,0,0,1.92308,-33.6538,-31.7308)"><polyline fill="none" points="110,34 110,22" vector-effect="none"/></g><defs><clipPath id="clip35"><path d="M20,19 L120,19 L120,61 L20,61 L20,19 z"/></clipPath></defs><g clip-path="url(#clip35)" fill="none" opacity="1" stroke="#000000" stroke-linecap="butt" stroke-linejoin="miter" stroke-miterlimit="2" stroke-opacity="1" stroke-width="0.52" transform="matrix(1.92308,0,0,1.92308,-33.6538,-31.7308)"><polyline fill="none" points="43,42 80,42" vector-effect="none"/></g><defs><clipPath id="clip36"><path d="M20,19 L120,19 L120,61 L20,61 L20,19 z"/></clipPath></defs><g clip-path="url(#clip36)" fill="none" opacity="1" stroke="#000000" stroke-linecap="butt" stroke-linejoin="miter" stroke-miterlimit="2" stroke-opacity="1" stroke-width="0.52" transform="matrix(1.92308,0,0,1.92308,-33.6538,-31.7308)"><polyline fill="none" points="80,42 80,34" vector-effect="none"/></g><defs><clipPath id="clip37"><path d="M20,19 L120,19 L120,61 L20,61 L20,19 z"/></clipPath></defs><g clip-path="url(#clip37)" fill="none" opacity="1" stroke="#000000" stroke-linecap="butt" stroke-linejoin="miter" stroke-miterlimit="2" stroke-opacity="1" stroke-width="0.52" transform="matrix(1.92308,0,0,1.92308,-33.6538,-31.7308)"><polyline fill="none" points="32,48 41,36" vector-effect="none"/></g><defs><clipPath id="clip38"><path d="M20,19 L120,19 L120,61 L20,61 L20,19 z"/></clipPath></defs><g clip-path="url(#clip38)" fill="none" opacity="1" stroke="#000000" stroke-linecap="butt" stroke-linejoin="miter" stroke-miterlimit="2" stroke-opacity="1" stroke-width="0.52" transform="matrix(1.92308,0,0,1.92308,-33.6538,-31.7308)"><polyline fill="none" points="32,36 41,48" vector-effect="none"/></g><defs><clipPath id="clip43"><path d="M-2,-2 L102,-2 L102,44 L-2,44 L-2,-2 z"/></clipPath></defs><g clip-path="url(#clip43)" fill="none" opacity="1" stroke="#000000" stroke-linecap="butt" stroke-linejoin="miter" stroke-miterlimit="2" stroke-opacity="1" stroke-width="0.769842" transform="matrix(1.92308,0,0,1.92308,3.84615,3.84615)"><path d="M0,0 L100,0 L100,42 L0,42 L0,0 z" fill-rule="evenodd" vector-effect="none"/></g></g></svg>
