<?xml version="1.0" encoding="UTF-8"?><svg width="52.9167mm" height="26.4583mm" viewBox="0 0 200 100" xmlns="http://www.w3.org/2000/svg" xmlns:xlink="http://www.w3.org/1999/xlink"><g fill="none" stroke="black" stroke-width="1" fill-rule="evenodd" stroke-linecap="square" stroke-linejoin="bevel"><g clip-path="none" fill="none" opacity="1" stroke="none" stroke-opacity="0" transform="matrix(1,0,0,1,0,0)"><path d="M0,0 L200,0 L200,100 L0,100 L0,0 z" fill-rule="evenodd" vector-effect="none"/></g><defs><clipPath id="clip3"><path d="M-132,-50 L7,-50 L7,20 L-132,20 L-132,-50 z"/></clipPath></defs><g clip-path="url(#clip3)" fill="none" opacity="1" stroke="#000000" stroke-linecap="round" stroke-linejoin="miter" stroke-miterlimit="2" stroke-opacity="1" stroke-width="2" transform="matrix(1.43885,0,0,1.43885,189.928,71.9424)"><path d="M0,-5 L5,0 L0,5" fill-rule="evenodd" vector-effect="none"/></g><defs><clipPath id="clip6"><path d="M-132,-20 L7,-20 L7,50 L-132,50 L-132,-20 z"/></clipPath></defs><g clip-path="url(#clip6)" fill="none" opacity="1" stroke="#000000" stroke-linecap="round" stroke-linejoin="miter" stroke-miterlimit="2" stroke-opacity="1" stroke-width="2" transform="matrix(1.43885,0,0,1.43885,189.928,28.777)"><path d="M0,-5 L5,0 L0,5" fill-rule="evenodd" vector-effect="none"/></g><defs><clipPath id="clip9"><path d="M-2,-2 L137,-2 L137,68 L-2,68 L-2,-2 z"/></clipPath></defs><g clip-path="url(#clip9)" fill="#ffffff" fill-opacity="1" opacity="1" stroke="none" stroke-opacity="0" transform="matrix(1.43885,0,0,1.43885,2.8777,2.8777)"><path d="M0,0 L130,0 L130,66 L0,66 L0,0 z" fill-rule="evenodd" vector-effect="none"/></g><defs><clipPath id="clip13"><path d="M35,152 L165,152 L165,218 L35,218 L35,152 z"/></clipPath></defs><g clip-path="url(#clip13)" fill="#ffffff" fill-opacity="1" opacity="1" stroke="none" stroke-opacity="0" transform="matrix(1.43885,0,0,1.43885,-46.7626,-215.108)"><path d="M161.5,154.5 L162.5,154.5 L162.5,155.5 L161.5,155.5 L161.5,154.5 z" fill-rule="evenodd" vector-effect="none"/></g><defs><clipPath id="clip14"><path d="M35,152 L165,152 L165,218 L35,218 L35,152 z"/></clipPath></defs><g clip-path="url(#clip14)" fill="#ffffff" fill-opacity="1" opacity="1" stroke="none" stroke-opacity="0" transform="matrix(1.43885,0,0,1.43885,-46.7626,-215.108)"><path d="M37.5,214.5 L38.5,214.5 L38.5,215.5 L37.5,215.5 L37.5,214.5 z" fill-rule="evenodd" vector-effect="none"/></g><defs><clipPath id="clip16"><path d="M-128,-41 L538,-41 L538,297 L-128,297 L-128,-41 z"/></clipPath></defs><g clip-path="url(#clip16)" fill="none" opacity="1" stroke="#0000cc" stroke-linecap="square" stroke-linejoin="bevel" stroke-opacity="1" stroke-width="1" transform="matrix(0.281025,0,0,0.281025,38.8489,14.3885)"><text fill="#0000cc" fill-opacity="1" font-family="Liberation Sans" font-size="40" font-style="normal" font-weight="400" stroke="none" textLength="87" x="-110.906" xml:space="preserve" y="17.9219">ROS</text></g><defs><clipPath id="clip19"><path d="M-328,-302 L338,-302 L338,36 L-328,36 L-328,-302 z"/></clipPath></defs><g clip-path="url(#clip19)" fill="none" opacity="1" stroke="#000000" stroke-linecap="square" stroke-linejoin="bevel" stroke-opacity="1" stroke-width="1" transform="matrix(0.281025,0,0,0.281025,94.964,87.7698)"><text fill="#000000" fill-opacity="1" font-family="Liberation Sans" font-size="40" font-style="normal" font-weight="400" stroke="none" textLength="199" x="-127.969" xml:space="preserve" y="17.9219">/my_param</text></g><defs><clipPath id="clip22"><path d="M-343,-138 L323,-138 L323,200 L-343,200 L-343,-138 z"/></clipPath></defs><g clip-path="url(#clip22)" fill="none" opacity="1" stroke="#000000" stroke-linecap="square" stroke-linejoin="bevel" stroke-opacity="1" stroke-width="1" transform="matrix(0.281025,0,0,0.281025,99.2806,41.7266)"><text fill="#000000" fill-opacity="1" font-family="Liberation Sans" font-size="40" font-style="normal" font-weight="400" stroke="none" textLength="261" x="-167.812" xml:space="preserve" y="17.9219">Get Parameter</text></g><defs><clipPath id="clip25"><path d="M-650,-92 L16,-92 L16,246 L-650,246 L-650,-92 z"/></clipPath></defs><g clip-path="url(#clip25)" fill="none" opacity="1" stroke="#000000" stroke-linecap="square" stroke-linejoin="bevel" stroke-opacity="1" stroke-width="1" transform="matrix(0.281025,0,0,0.281025,185.612,28.777)"><text fill="#000000" fill-opacity="1" font-family="Liberation Sans" font-size="40" font-style="normal" font-weight="400" stroke="none" textLength="97" x="-127.031" xml:space="preserve" y="17.9219">Value</text></g><defs><clipPath id="clip28"><path d="M-650,-246 L16,-246 L16,92 L-650,92 L-650,-246 z"/></clipPath></defs><g clip-path="url(#clip28)" fill="none" opacity="1" stroke="#000000" stroke-linecap="square" stroke-linejoin="bevel" stroke-opacity="1" stroke-width="1" transform="matrix(0.281025,0,0,0.281025,185.612,71.9424)"><text fill="#000000" fill-opacity="1" font-family="Liberation Sans" font-size="40" font-style="normal" font-weight="400" stroke="none" textLength="183" x="-236.047" xml:space="preserve" y="17.9219">ErrorCode</text></g><defs><clipPath id="clip34"><path d="M-2,-2 L137,-2 L137,68 L-2,68 L-2,-2 z"/></clipPath></defs><g clip-path="url(#clip34)" fill="none" opacity="1" stroke="#000000" stroke-linecap="butt" stroke-linejoin="miter" stroke-miterlimit="2" stroke-opacity="1" stroke-width="0.864558" transform="matrix(1.43885,0,0,1.43885,2.8777,2.8777)"><path d="M0,0 L130,0 L130,66 L0,66 L0,0 z" fill-rule="evenodd" vector-effect="none"/></g></g></svg>
