<?xml version="1.0" encoding="UTF-8"?><svg width="52.9167mm" height="26.4583mm" viewBox="0 0 200 100" xmlns="http://www.w3.org/2000/svg" xmlns:xlink="http://www.w3.org/1999/xlink"><g fill="none" stroke="black" stroke-width="1" fill-rule="evenodd" stroke-linecap="square" stroke-linejoin="bevel"><g clip-path="none" fill="none" opacity="1" stroke="none" stroke-opacity="0" transform="matrix(1,0,0,1,0,0)"><path d="M0,0 L200,0 L200,100 L0,100 L0,0 z" fill-rule="evenodd" vector-effect="none"/></g><defs><clipPath id="clip3"><path d="M7,35 L-132,35 L-132,-35 L7,-35 L7,35 z"/></clipPath></defs><g clip-path="url(#clip3)" fill="none" opacity="1" stroke="#000000" stroke-linecap="round" stroke-linejoin="miter" stroke-miterlimit="2" stroke-opacity="1" stroke-width="2" transform="matrix(-1.43885,0,0,-1.43885,10.0719,50.3597)"><path d="M5,-5 L0,0 L5,5" fill-rule="evenodd" vector-effect="none"/></g><defs><clipPath id="clip6"><path d="M-7,-2 L132,-2 L132,68 L-7,68 L-7,-2 z"/></clipPath></defs><g clip-path="url(#clip6)" fill="#ffffff" fill-opacity="1" opacity="1" stroke="none" stroke-opacity="0" transform="matrix(1.43885,0,0,1.43885,10.0719,2.8777)"><path d="M0,0 L130,0 L130,66 L0,66 L0,0 z" fill-rule="evenodd" vector-effect="none"/></g><defs><clipPath id="clip10"><path d="M200,152 L330,152 L330,218 L200,218 L200,152 z"/></clipPath></defs><g clip-path="url(#clip10)" fill="#ffffff" fill-opacity="1" opacity="1" stroke="none" stroke-opacity="0" transform="matrix(1.43885,0,0,1.43885,-276.978,-215.108)"><path d="M326.5,154.5 L327.5,154.5 L327.5,155.5 L326.5,155.5 L326.5,154.5 z" fill-rule="evenodd" vector-effect="none"/></g><defs><clipPath id="clip11"><path d="M200,152 L330,152 L330,218 L200,218 L200,152 z"/></clipPath></defs><g clip-path="url(#clip11)" fill="#ffffff" fill-opacity="1" opacity="1" stroke="none" stroke-opacity="0" transform="matrix(1.43885,0,0,1.43885,-276.978,-215.108)"><path d="M202.5,214.5 L203.5,214.5 L203.5,215.5 L202.5,215.5 L202.5,214.5 z" fill-rule="evenodd" vector-effect="none"/></g><defs><clipPath id="clip13"><path d="M-128,-41 L538,-41 L538,297 L-128,297 L-128,-41 z"/></clipPath></defs><g clip-path="url(#clip13)" fill="none" opacity="1" stroke="#0000cc" stroke-linecap="square" stroke-linejoin="bevel" stroke-opacity="1" stroke-width="1" transform="matrix(0.281025,0,0,0.281025,46.0432,14.3885)"><text fill="#0000cc" fill-opacity="1" font-family="Liberation Sans" font-size="40" font-style="normal" font-weight="400" stroke="none" textLength="87" x="-110.906" xml:space="preserve" y="17.9219">ROS</text></g><defs><clipPath id="clip16"><path d="M-328,-302 L338,-302 L338,36 L-328,36 L-328,-302 z"/></clipPath></defs><g clip-path="url(#clip16)" fill="none" opacity="1" stroke="#000000" stroke-linecap="square" stroke-linejoin="bevel" stroke-opacity="1" stroke-width="1" transform="matrix(0.281025,0,0,0.281025,102.158,87.7698)"><text fill="#000000" fill-opacity="1" font-family="Liberation Sans" font-size="40" font-style="normal" font-weight="400" stroke="none" textLength="199" x="-127.969" xml:space="preserve" y="17.9219">/my_param</text></g><defs><clipPath id="clip19"><path d="M-343,-138 L323,-138 L323,200 L-343,200 L-343,-138 z"/></clipPath></defs><g clip-path="url(#clip19)" fill="none" opacity="1" stroke="#000000" stroke-linecap="square" stroke-linejoin="bevel" stroke-opacity="1" stroke-width="1" transform="matrix(0.281025,0,0,0.281025,106.475,41.7266)"><text fill="#000000" fill-opacity="1" font-family="Liberation Sans" font-size="40" font-style="normal" font-weight="400" stroke="none" textLength="257" x="-164.969" xml:space="preserve" y="17.9219">Set Parameter</text></g><defs><clipPath id="clip22"><path d="M-15,-169 L651,-169 L651,169 L-15,169 L-15,-169 z"/></clipPath></defs><g clip-path="url(#clip22)" fill="none" opacity="1" stroke="#000000" stroke-linecap="square" stroke-linejoin="bevel" stroke-opacity="1" stroke-width="1" transform="matrix(0.281025,0,0,0.281025,14.3885,50.3597)"><text fill="#000000" fill-opacity="1" font-family="Liberation Sans" font-size="40" font-style="normal" font-weight="400" stroke="none" textLength="97" x="0" xml:space="preserve" y="17.9219">Value</text></g><defs><clipPath id="clip28"><path d="M-7,-2 L132,-2 L132,68 L-7,68 L-7,-2 z"/></clipPath></defs><g clip-path="url(#clip28)" fill="none" opacity="1" stroke="#000000" stroke-linecap="butt" stroke-linejoin="miter" stroke-miterlimit="2" stroke-opacity="1" stroke-width="0.864558" transform="matrix(1.43885,0,0,1.43885,10.0719,2.8777)"><path d="M0,0 L130,0 L130,66 L0,66 L0,0 z" fill-rule="evenodd" vector-effect="none"/></g></g></svg>
