<?xml version="1.0" encoding="UTF-8"?><svg width="52.9167mm" height="34.1313mm" viewBox="0 0 200 129" xmlns="http://www.w3.org/2000/svg" xmlns:xlink="http://www.w3.org/1999/xlink"><g fill="none" stroke="black" stroke-width="1" fill-rule="evenodd" stroke-linecap="square" stroke-linejoin="bevel"><g clip-path="none" fill="none" opacity="1" stroke="none" stroke-opacity="0" transform="matrix(1,0,0,1,0,0)"><path d="M0,0 L200,0 L200,129 L0,129 L0,0 z" fill-rule="evenodd" vector-effect="none"/></g><defs><clipPath id="clip3"><path d="M7,24 L-67,24 L-67,-24 L7,-24 L7,24 z"/></clipPath></defs><g clip-path="url(#clip3)" fill="none" opacity="1" stroke="#000000" stroke-linecap="round" stroke-linejoin="miter" stroke-miterlimit="2" stroke-opacity="1" stroke-width="2" transform="matrix(-2.7027,0,0,-2.7027,18.9189,64.8649)"><path d="M5,-5 L0,0 L5,5" fill-rule="evenodd" vector-effect="none"/></g><defs><clipPath id="clip6"><path d="M-7,-2 L67,-2 L67,46 L-7,46 L-7,-2 z"/></clipPath></defs><g clip-path="url(#clip6)" fill="#ffffff" fill-opacity="1" opacity="1" stroke="none" stroke-opacity="0" transform="matrix(2.7027,0,0,2.7027,18.9189,5.40541)"><path d="M0,0 L65,0 L65,44 L0,44 L0,0 z" fill-rule="evenodd" vector-effect="none"/></g><defs><clipPath id="clip10"><path d="M65,93 L130,93 L130,137 L65,137 L65,93 z"/></clipPath></defs><g clip-path="url(#clip10)" fill="none" opacity="1" stroke="#000000" stroke-linecap="butt" stroke-linejoin="miter" stroke-miterlimit="2" stroke-opacity="1" stroke-width="0.37" transform="matrix(2.7027,0,0,2.7027,-155.405,-244.595)"><polyline fill="none" points="71,132 124,132" vector-effect="none"/></g><defs><clipPath id="clip11"><path d="M65,93 L130,93 L130,137 L65,137 L65,93 z"/></clipPath></defs><g clip-path="url(#clip11)" fill="none" opacity="1" stroke="#000000" stroke-linecap="butt" stroke-linejoin="miter" stroke-miterlimit="2" stroke-opacity="1" stroke-width="0.37" transform="matrix(2.7027,0,0,2.7027,-155.405,-244.595)"><polyline fill="none" points="124,132 124,117" vector-effect="none"/></g><defs><clipPath id="clip12"><path d="M65,93 L130,93 L130,137 L65,137 L65,93 z"/></clipPath></defs><g clip-path="url(#clip12)" fill="none" opacity="1" stroke="#000000" stroke-linecap="butt" stroke-linejoin="miter" stroke-miterlimit="2" stroke-opacity="1" stroke-width="0.37" transform="matrix(2.7027,0,0,2.7027,-155.405,-244.595)"><polyline fill="none" points="124,117 71,117" vector-effect="none"/></g><defs><clipPath id="clip13"><path d="M65,93 L130,93 L130,137 L65,137 L65,93 z"/></clipPath></defs><g clip-path="url(#clip13)" fill="none" opacity="1" stroke="#000000" stroke-linecap="butt" stroke-linejoin="miter" stroke-miterlimit="2" stroke-opacity="1" stroke-width="0.37" transform="matrix(2.7027,0,0,2.7027,-155.405,-244.595)"><polyline fill="none" points="71,117 71,132" vector-effect="none"/></g><defs><clipPath id="clip14"><path d="M65,93 L130,93 L130,137 L65,137 L65,93 z"/></clipPath></defs><g clip-path="url(#clip14)" fill="none" opacity="1" stroke="#000000" stroke-linecap="butt" stroke-linejoin="miter" stroke-miterlimit="2" stroke-opacity="1" stroke-width="0.37" transform="matrix(2.7027,0,0,2.7027,-155.405,-244.595)"><polyline fill="none" points="71,125 83,132" vector-effect="none"/></g><defs><clipPath id="clip15"><path d="M65,93 L130,93 L130,137 L65,137 L65,93 z"/></clipPath></defs><g clip-path="url(#clip15)" fill="none" opacity="1" stroke="#000000" stroke-linecap="butt" stroke-linejoin="miter" stroke-miterlimit="2" stroke-opacity="1" stroke-width="0.37" transform="matrix(2.7027,0,0,2.7027,-155.405,-244.595)"><polyline fill="none" points="83,132 100,121" vector-effect="none"/></g><defs><clipPath id="clip16"><path d="M65,93 L130,93 L130,137 L65,137 L65,93 z"/></clipPath></defs><g clip-path="url(#clip16)" fill="none" opacity="1" stroke="#000000" stroke-linecap="butt" stroke-linejoin="miter" stroke-miterlimit="2" stroke-opacity="1" stroke-width="0.37" transform="matrix(2.7027,0,0,2.7027,-155.405,-244.595)"><polyline fill="none" points="100,121 112,128" vector-effect="none"/></g><defs><clipPath id="clip17"><path d="M65,93 L130,93 L130,137 L65,137 L65,93 z"/></clipPath></defs><g clip-path="url(#clip17)" fill="none" opacity="1" stroke="#000000" stroke-linecap="butt" stroke-linejoin="miter" stroke-miterlimit="2" stroke-opacity="1" stroke-width="0.37" transform="matrix(2.7027,0,0,2.7027,-155.405,-244.595)"><polyline fill="none" points="112,128 124,117" vector-effect="none"/></g><defs><clipPath id="clip18"><path d="M65,93 L130,93 L130,137 L65,137 L65,93 z"/></clipPath></defs><g clip-path="url(#clip18)" fill="none" opacity="1" stroke="#000000" stroke-linecap="butt" stroke-linejoin="miter" stroke-miterlimit="2" stroke-opacity="1" stroke-width="0.37" transform="matrix(2.7027,0,0,2.7027,-155.405,-244.595)"><polyline fill="none" points="71,113 124,113" vector-effect="none"/></g><defs><clipPath id="clip19"><path d="M65,93 L130,93 L130,137 L65,137 L65,93 z"/></clipPath></defs><g clip-path="url(#clip19)" fill="none" opacity="1" stroke="#000000" stroke-linecap="butt" stroke-linejoin="miter" stroke-miterlimit="2" stroke-opacity="1" stroke-width="0.37" transform="matrix(2.7027,0,0,2.7027,-155.405,-244.595)"><polyline fill="none" points="124,113 124,98" vector-effect="none"/></g><defs><clipPath id="clip20"><path d="M65,93 L130,93 L130,137 L65,137 L65,93 z"/></clipPath></defs><g clip-path="url(#clip20)" fill="none" opacity="1" stroke="#000000" stroke-linecap="butt" stroke-linejoin="miter" stroke-miterlimit="2" stroke-opacity="1" stroke-width="0.37" transform="matrix(2.7027,0,0,2.7027,-155.405,-244.595)"><polyline fill="none" points="124,98 71,98" vector-effect="none"/></g><defs><clipPath id="clip21"><path d="M65,93 L130,93 L130,137 L65,137 L65,93 z"/></clipPath></defs><g clip-path="url(#clip21)" fill="none" opacity="1" stroke="#000000" stroke-linecap="butt" stroke-linejoin="miter" stroke-miterlimit="2" stroke-opacity="1" stroke-width="0.37" transform="matrix(2.7027,0,0,2.7027,-155.405,-244.595)"><polyline fill="none" points="71,98 71,113" vector-effect="none"/></g><defs><clipPath id="clip22"><path d="M65,93 L130,93 L130,137 L65,137 L65,93 z"/></clipPath></defs><g clip-path="url(#clip22)" fill="none" opacity="1" stroke="#000000" stroke-linecap="butt" stroke-linejoin="miter" stroke-miterlimit="2" stroke-opacity="1" stroke-width="0.37" transform="matrix(2.7027,0,0,2.7027,-155.405,-244.595)"><polyline fill="none" points="71,113 83,109" vector-effect="none"/></g><defs><clipPath id="clip23"><path d="M65,93 L130,93 L130,137 L65,137 L65,93 z"/></clipPath></defs><g clip-path="url(#clip23)" fill="none" opacity="1" stroke="#000000" stroke-linecap="butt" stroke-linejoin="miter" stroke-miterlimit="2" stroke-opacity="1" stroke-width="0.37" transform="matrix(2.7027,0,0,2.7027,-155.405,-244.595)"><polyline fill="none" points="83,109 100,113" vector-effect="none"/></g><defs><clipPath id="clip24"><path d="M65,93 L130,93 L130,137 L65,137 L65,93 z"/></clipPath></defs><g clip-path="url(#clip24)" fill="none" opacity="1" stroke="#000000" stroke-linecap="butt" stroke-linejoin="miter" stroke-miterlimit="2" stroke-opacity="1" stroke-width="0.37" transform="matrix(2.7027,0,0,2.7027,-155.405,-244.595)"><polyline fill="none" points="100,113 112,102" vector-effect="none"/></g><defs><clipPath id="clip25"><path d="M65,93 L130,93 L130,137 L65,137 L65,93 z"/></clipPath></defs><g clip-path="url(#clip25)" fill="none" opacity="1" stroke="#000000" stroke-linecap="butt" stroke-linejoin="miter" stroke-miterlimit="2" stroke-opacity="1" stroke-width="0.37" transform="matrix(2.7027,0,0,2.7027,-155.405,-244.595)"><polyline fill="none" points="112,102 124,98" vector-effect="none"/></g><defs><clipPath id="clip30"><path d="M-7,-2 L67,-2 L67,46 L-7,46 L-7,-2 z"/></clipPath></defs><g clip-path="url(#clip30)" fill="none" opacity="1" stroke="#000000" stroke-linecap="butt" stroke-linejoin="miter" stroke-miterlimit="2" stroke-opacity="1" stroke-width="1.34373" transform="matrix(2.7027,0,0,2.7027,18.9189,5.40541)"><path d="M0,0 L65,0 L65,44 L0,44 L0,0 z" fill-rule="evenodd" vector-effect="none"/></g></g></svg>
