<?xml version="1.0" encoding="UTF-8"?><svg width="52.9167mm" height="35.9833mm" viewBox="0 0 200 136" xmlns="http://www.w3.org/2000/svg" xmlns:xlink="http://www.w3.org/1999/xlink"><g fill="none" stroke="black" stroke-width="1" fill-rule="evenodd" stroke-linecap="square" stroke-linejoin="bevel"><g clip-path="none" fill="none" opacity="1" stroke="none" stroke-opacity="0" transform="matrix(1,0,0,1,0,0)"><path d="M0,0 L200,0 L200,136 L0,136 L0,0 z" fill-rule="evenodd" vector-effect="none"/></g><defs><clipPath id="clip3"><path d="M-72,-27 L7,-27 L7,27 L-72,27 L-72,-27 z"/></clipPath></defs><g clip-path="url(#clip3)" fill="none" opacity="1" stroke="#000000" stroke-linecap="round" stroke-linejoin="miter" stroke-miterlimit="2" stroke-opacity="1" stroke-width="2" transform="matrix(2.53165,0,0,2.53165,182.278,68.3544)"><path d="M0,-5 L5,0 L0,5" fill-rule="evenodd" vector-effect="none"/></g><defs><clipPath id="clip6"><path d="M-2,-2 L77,-2 L77,52 L-2,52 L-2,-2 z"/></clipPath></defs><g clip-path="url(#clip6)" fill="#ffffff" fill-opacity="1" opacity="1" stroke="none" stroke-opacity="0" transform="matrix(2.53165,0,0,2.53165,5.06329,5.06329)"><path d="M0,0 L70,0 L70,50 L0,50 L0,0 z" fill-rule="evenodd" vector-effect="none"/></g><defs><clipPath id="clip10"><path d="M55,70 L125,70 L125,120 L55,120 L55,70 z"/></clipPath></defs><g clip-path="url(#clip10)" fill="none" opacity="1" stroke="#000000" stroke-linecap="butt" stroke-linejoin="miter" stroke-miterlimit="2" stroke-opacity="1" stroke-width="0.395" transform="matrix(2.53165,0,0,2.53165,-132.911,-170.886)"><polyline fill="none" points="63,114 63,76" vector-effect="none"/></g><defs><clipPath id="clip11"><path d="M55,70 L125,70 L125,120 L55,120 L55,70 z"/></clipPath></defs><g clip-path="url(#clip11)" fill="none" opacity="1" stroke="#000000" stroke-linecap="butt" stroke-linejoin="miter" stroke-miterlimit="2" stroke-opacity="1" stroke-width="0.395" transform="matrix(2.53165,0,0,2.53165,-132.911,-170.886)"><polyline fill="none" points="63,114 115,114" vector-effect="none"/></g><defs><clipPath id="clip12"><path d="M55,70 L125,70 L125,120 L55,120 L55,70 z"/></clipPath></defs><g clip-path="url(#clip12)" fill="none" opacity="1" stroke="#000000" stroke-linecap="butt" stroke-linejoin="miter" stroke-miterlimit="2" stroke-opacity="1" stroke-width="0.395" transform="matrix(2.53165,0,0,2.53165,-132.911,-170.886)"><polyline fill="none" points="69,110 69,100" vector-effect="none"/></g><defs><clipPath id="clip13"><path d="M55,70 L125,70 L125,120 L55,120 L55,70 z"/></clipPath></defs><g clip-path="url(#clip13)" fill="none" opacity="1" stroke="#000000" stroke-linecap="butt" stroke-linejoin="miter" stroke-miterlimit="2" stroke-opacity="1" stroke-width="0.395" transform="matrix(2.53165,0,0,2.53165,-132.911,-170.886)"><polyline fill="none" points="69,100 70,110" vector-effect="none"/></g><defs><clipPath id="clip14"><path d="M55,70 L125,70 L125,120 L55,120 L55,70 z"/></clipPath></defs><g clip-path="url(#clip14)" fill="none" opacity="1" stroke="#000000" stroke-linecap="butt" stroke-linejoin="miter" stroke-miterlimit="2" stroke-opacity="1" stroke-width="0.395" transform="matrix(2.53165,0,0,2.53165,-132.911,-170.886)"><polyline fill="none" points="70,110 71,95" vector-effect="none"/></g><defs><clipPath id="clip15"><path d="M55,70 L125,70 L125,120 L55,120 L55,70 z"/></clipPath></defs><g clip-path="url(#clip15)" fill="none" opacity="1" stroke="#000000" stroke-linecap="butt" stroke-linejoin="miter" stroke-miterlimit="2" stroke-opacity="1" stroke-width="0.395" transform="matrix(2.53165,0,0,2.53165,-132.911,-170.886)"><polyline fill="none" points="71,95 72,95" vector-effect="none"/></g><defs><clipPath id="clip16"><path d="M55,70 L125,70 L125,120 L55,120 L55,70 z"/></clipPath></defs><g clip-path="url(#clip16)" fill="none" opacity="1" stroke="#000000" stroke-linecap="butt" stroke-linejoin="miter" stroke-miterlimit="2" stroke-opacity="1" stroke-width="0.395" transform="matrix(2.53165,0,0,2.53165,-132.911,-170.886)"><polyline fill="none" points="72,95 73,106" vector-effect="none"/></g><defs><clipPath id="clip17"><path d="M55,70 L125,70 L125,120 L55,120 L55,70 z"/></clipPath></defs><g clip-path="url(#clip17)" fill="none" opacity="1" stroke="#000000" stroke-linecap="butt" stroke-linejoin="miter" stroke-miterlimit="2" stroke-opacity="1" stroke-width="0.395" transform="matrix(2.53165,0,0,2.53165,-132.911,-170.886)"><polyline fill="none" points="73,106 74,87" vector-effect="none"/></g><defs><clipPath id="clip18"><path d="M55,70 L125,70 L125,120 L55,120 L55,70 z"/></clipPath></defs><g clip-path="url(#clip18)" fill="none" opacity="1" stroke="#000000" stroke-linecap="butt" stroke-linejoin="miter" stroke-miterlimit="2" stroke-opacity="1" stroke-width="0.395" transform="matrix(2.53165,0,0,2.53165,-132.911,-170.886)"><polyline fill="none" points="74,87 75,87" vector-effect="none"/></g><defs><clipPath id="clip19"><path d="M55,70 L125,70 L125,120 L55,120 L55,70 z"/></clipPath></defs><g clip-path="url(#clip19)" fill="none" opacity="1" stroke="#000000" stroke-linecap="butt" stroke-linejoin="miter" stroke-miterlimit="2" stroke-opacity="1" stroke-width="0.395" transform="matrix(2.53165,0,0,2.53165,-132.911,-170.886)"><polyline fill="none" points="75,87 76,97" vector-effect="none"/></g><defs><clipPath id="clip20"><path d="M55,70 L125,70 L125,120 L55,120 L55,70 z"/></clipPath></defs><g clip-path="url(#clip20)" fill="none" opacity="1" stroke="#000000" stroke-linecap="butt" stroke-linejoin="miter" stroke-miterlimit="2" stroke-opacity="1" stroke-width="0.395" transform="matrix(2.53165,0,0,2.53165,-132.911,-170.886)"><polyline fill="none" points="76,97 77,94" vector-effect="none"/></g><defs><clipPath id="clip21"><path d="M55,70 L125,70 L125,120 L55,120 L55,70 z"/></clipPath></defs><g clip-path="url(#clip21)" fill="none" opacity="1" stroke="#000000" stroke-linecap="butt" stroke-linejoin="miter" stroke-miterlimit="2" stroke-opacity="1" stroke-width="0.395" transform="matrix(2.53165,0,0,2.53165,-132.911,-170.886)"><polyline fill="none" points="77,94 78,95" vector-effect="none"/></g><defs><clipPath id="clip22"><path d="M55,70 L125,70 L125,120 L55,120 L55,70 z"/></clipPath></defs><g clip-path="url(#clip22)" fill="none" opacity="1" stroke="#000000" stroke-linecap="butt" stroke-linejoin="miter" stroke-miterlimit="2" stroke-opacity="1" stroke-width="0.395" transform="matrix(2.53165,0,0,2.53165,-132.911,-170.886)"><polyline fill="none" points="78,95 79,98" vector-effect="none"/></g><defs><clipPath id="clip23"><path d="M55,70 L125,70 L125,120 L55,120 L55,70 z"/></clipPath></defs><g clip-path="url(#clip23)" fill="none" opacity="1" stroke="#000000" stroke-linecap="butt" stroke-linejoin="miter" stroke-miterlimit="2" stroke-opacity="1" stroke-width="0.395" transform="matrix(2.53165,0,0,2.53165,-132.911,-170.886)"><polyline fill="none" points="79,98 80,91" vector-effect="none"/></g><defs><clipPath id="clip24"><path d="M55,70 L125,70 L125,120 L55,120 L55,70 z"/></clipPath></defs><g clip-path="url(#clip24)" fill="none" opacity="1" stroke="#000000" stroke-linecap="butt" stroke-linejoin="miter" stroke-miterlimit="2" stroke-opacity="1" stroke-width="0.395" transform="matrix(2.53165,0,0,2.53165,-132.911,-170.886)"><polyline fill="none" points="80,91 81,101" vector-effect="none"/></g><defs><clipPath id="clip25"><path d="M55,70 L125,70 L125,120 L55,120 L55,70 z"/></clipPath></defs><g clip-path="url(#clip25)" fill="none" opacity="1" stroke="#000000" stroke-linecap="butt" stroke-linejoin="miter" stroke-miterlimit="2" stroke-opacity="1" stroke-width="0.395" transform="matrix(2.53165,0,0,2.53165,-132.911,-170.886)"><polyline fill="none" points="81,101 82,80" vector-effect="none"/></g><defs><clipPath id="clip26"><path d="M55,70 L125,70 L125,120 L55,120 L55,70 z"/></clipPath></defs><g clip-path="url(#clip26)" fill="none" opacity="1" stroke="#000000" stroke-linecap="butt" stroke-linejoin="miter" stroke-miterlimit="2" stroke-opacity="1" stroke-width="0.395" transform="matrix(2.53165,0,0,2.53165,-132.911,-170.886)"><polyline fill="none" points="82,80 83,98" vector-effect="none"/></g><defs><clipPath id="clip27"><path d="M55,70 L125,70 L125,120 L55,120 L55,70 z"/></clipPath></defs><g clip-path="url(#clip27)" fill="none" opacity="1" stroke="#000000" stroke-linecap="butt" stroke-linejoin="miter" stroke-miterlimit="2" stroke-opacity="1" stroke-width="0.395" transform="matrix(2.53165,0,0,2.53165,-132.911,-170.886)"><polyline fill="none" points="83,98 84,95" vector-effect="none"/></g><defs><clipPath id="clip28"><path d="M55,70 L125,70 L125,120 L55,120 L55,70 z"/></clipPath></defs><g clip-path="url(#clip28)" fill="none" opacity="1" stroke="#000000" stroke-linecap="butt" stroke-linejoin="miter" stroke-miterlimit="2" stroke-opacity="1" stroke-width="0.395" transform="matrix(2.53165,0,0,2.53165,-132.911,-170.886)"><polyline fill="none" points="84,95 85,88" vector-effect="none"/></g><defs><clipPath id="clip29"><path d="M55,70 L125,70 L125,120 L55,120 L55,70 z"/></clipPath></defs><g clip-path="url(#clip29)" fill="none" opacity="1" stroke="#000000" stroke-linecap="butt" stroke-linejoin="miter" stroke-miterlimit="2" stroke-opacity="1" stroke-width="0.395" transform="matrix(2.53165,0,0,2.53165,-132.911,-170.886)"><polyline fill="none" points="85,88 86,96" vector-effect="none"/></g><defs><clipPath id="clip30"><path d="M55,70 L125,70 L125,120 L55,120 L55,70 z"/></clipPath></defs><g clip-path="url(#clip30)" fill="none" opacity="1" stroke="#000000" stroke-linecap="butt" stroke-linejoin="miter" stroke-miterlimit="2" stroke-opacity="1" stroke-width="0.395" transform="matrix(2.53165,0,0,2.53165,-132.911,-170.886)"><polyline fill="none" points="86,96 87,97" vector-effect="none"/></g><defs><clipPath id="clip31"><path d="M55,70 L125,70 L125,120 L55,120 L55,70 z"/></clipPath></defs><g clip-path="url(#clip31)" fill="none" opacity="1" stroke="#000000" stroke-linecap="butt" stroke-linejoin="miter" stroke-miterlimit="2" stroke-opacity="1" stroke-width="0.395" transform="matrix(2.53165,0,0,2.53165,-132.911,-170.886)"><polyline fill="none" points="87,97 88,103" vector-effect="none"/></g><defs><clipPath id="clip32"><path d="M55,70 L125,70 L125,120 L55,120 L55,70 z"/></clipPath></defs><g clip-path="url(#clip32)" fill="none" opacity="1" stroke="#000000" stroke-linecap="butt" stroke-linejoin="miter" stroke-miterlimit="2" stroke-opacity="1" stroke-width="0.395" transform="matrix(2.53165,0,0,2.53165,-132.911,-170.886)"><polyline fill="none" points="88,103 89,95" vector-effect="none"/></g><defs><clipPath id="clip33"><path d="M55,70 L125,70 L125,120 L55,120 L55,70 z"/></clipPath></defs><g clip-path="url(#clip33)" fill="none" opacity="1" stroke="#000000" stroke-linecap="butt" stroke-linejoin="miter" stroke-miterlimit="2" stroke-opacity="1" stroke-width="0.395" transform="matrix(2.53165,0,0,2.53165,-132.911,-170.886)"><polyline fill="none" points="89,95 90,107" vector-effect="none"/></g><defs><clipPath id="clip34"><path d="M55,70 L125,70 L125,120 L55,120 L55,70 z"/></clipPath></defs><g clip-path="url(#clip34)" fill="none" opacity="1" stroke="#000000" stroke-linecap="butt" stroke-linejoin="miter" stroke-miterlimit="2" stroke-opacity="1" stroke-width="0.395" transform="matrix(2.53165,0,0,2.53165,-132.911,-170.886)"><polyline fill="none" points="90,107 91,91" vector-effect="none"/></g><defs><clipPath id="clip35"><path d="M55,70 L125,70 L125,120 L55,120 L55,70 z"/></clipPath></defs><g clip-path="url(#clip35)" fill="none" opacity="1" stroke="#000000" stroke-linecap="butt" stroke-linejoin="miter" stroke-miterlimit="2" stroke-opacity="1" stroke-width="0.395" transform="matrix(2.53165,0,0,2.53165,-132.911,-170.886)"><polyline fill="none" points="91,91 92,83" vector-effect="none"/></g><defs><clipPath id="clip36"><path d="M55,70 L125,70 L125,120 L55,120 L55,70 z"/></clipPath></defs><g clip-path="url(#clip36)" fill="none" opacity="1" stroke="#000000" stroke-linecap="butt" stroke-linejoin="miter" stroke-miterlimit="2" stroke-opacity="1" stroke-width="0.395" transform="matrix(2.53165,0,0,2.53165,-132.911,-170.886)"><polyline fill="none" points="92,83 93,102" vector-effect="none"/></g><defs><clipPath id="clip37"><path d="M55,70 L125,70 L125,120 L55,120 L55,70 z"/></clipPath></defs><g clip-path="url(#clip37)" fill="none" opacity="1" stroke="#000000" stroke-linecap="butt" stroke-linejoin="miter" stroke-miterlimit="2" stroke-opacity="1" stroke-width="0.395" transform="matrix(2.53165,0,0,2.53165,-132.911,-170.886)"><polyline fill="none" points="93,102 94,90" vector-effect="none"/></g><defs><clipPath id="clip38"><path d="M55,70 L125,70 L125,120 L55,120 L55,70 z"/></clipPath></defs><g clip-path="url(#clip38)" fill="none" opacity="1" stroke="#000000" stroke-linecap="butt" stroke-linejoin="miter" stroke-miterlimit="2" stroke-opacity="1" stroke-width="0.395" transform="matrix(2.53165,0,0,2.53165,-132.911,-170.886)"><polyline fill="none" points="94,90 95,87" vector-effect="none"/></g><defs><clipPath id="clip39"><path d="M55,70 L125,70 L125,120 L55,120 L55,70 z"/></clipPath></defs><g clip-path="url(#clip39)" fill="none" opacity="1" stroke="#000000" stroke-linecap="butt" stroke-linejoin="miter" stroke-miterlimit="2" stroke-opacity="1" stroke-width="0.395" transform="matrix(2.53165,0,0,2.53165,-132.911,-170.886)"><polyline fill="none" points="95,87 96,109" vector-effect="none"/></g><defs><clipPath id="clip40"><path d="M55,70 L125,70 L125,120 L55,120 L55,70 z"/></clipPath></defs><g clip-path="url(#clip40)" fill="none" opacity="1" stroke="#000000" stroke-linecap="butt" stroke-linejoin="miter" stroke-miterlimit="2" stroke-opacity="1" stroke-width="0.395" transform="matrix(2.53165,0,0,2.53165,-132.911,-170.886)"><polyline fill="none" points="96,109 97,108" vector-effect="none"/></g><defs><clipPath id="clip41"><path d="M55,70 L125,70 L125,120 L55,120 L55,70 z"/></clipPath></defs><g clip-path="url(#clip41)" fill="none" opacity="1" stroke="#000000" stroke-linecap="butt" stroke-linejoin="miter" stroke-miterlimit="2" stroke-opacity="1" stroke-width="0.395" transform="matrix(2.53165,0,0,2.53165,-132.911,-170.886)"><polyline fill="none" points="97,108 98,92" vector-effect="none"/></g><defs><clipPath id="clip42"><path d="M55,70 L125,70 L125,120 L55,120 L55,70 z"/></clipPath></defs><g clip-path="url(#clip42)" fill="none" opacity="1" stroke="#000000" stroke-linecap="butt" stroke-linejoin="miter" stroke-miterlimit="2" stroke-opacity="1" stroke-width="0.395" transform="matrix(2.53165,0,0,2.53165,-132.911,-170.886)"><polyline fill="none" points="98,92 99,99" vector-effect="none"/></g><defs><clipPath id="clip47"><path d="M-2,-2 L77,-2 L77,52 L-2,52 L-2,-2 z"/></clipPath></defs><g clip-path="url(#clip47)" fill="none" opacity="1" stroke="#000000" stroke-linecap="butt" stroke-linejoin="miter" stroke-miterlimit="2" stroke-opacity="1" stroke-width="0.689666" transform="matrix(2.53165,0,0,2.53165,5.06329,5.06329)"><path d="M0,0 L70,0 L70,50 L0,50 L0,0 z" fill-rule="evenodd" vector-effect="none"/></g></g></svg>
