<?xml version="1.0" encoding="UTF-8"?><svg width="52.9167mm" height="30.9562mm" viewBox="0 0 200 117" xmlns="http://www.w3.org/2000/svg" xmlns:xlink="http://www.w3.org/1999/xlink"><g fill="none" stroke="black" stroke-width="1" fill-rule="evenodd" stroke-linecap="square" stroke-linejoin="bevel"><g clip-path="none" fill="none" opacity="1" stroke="none" stroke-opacity="0" transform="matrix(1,0,0,1,0,0)"><path d="M0,0 L200,0 L200,117 L0,117 L0,0 z" fill-rule="evenodd" vector-effect="none"/></g><defs><clipPath id="clip3"><path d="M7,15 L-87,15 L-87,-40 L7,-40 L7,15 z"/></clipPath></defs><g clip-path="url(#clip3)" fill="none" opacity="1" stroke="#000000" stroke-linecap="round" stroke-linejoin="miter" stroke-miterlimit="2" stroke-opacity="1" stroke-width="2" transform="matrix(-2.12766,0,0,-2.12766,14.8936,31.9149)"><path d="M5,-5 L0,0 L5,5" fill-rule="evenodd" vector-effect="none"/></g><defs><clipPath id="clip6"><path d="M7,40 L-87,40 L-87,-15 L7,-15 L7,40 z"/></clipPath></defs><g clip-path="url(#clip6)" fill="none" opacity="1" stroke="#000000" stroke-linecap="round" stroke-linejoin="miter" stroke-miterlimit="2" stroke-opacity="1" stroke-width="2" transform="matrix(-2.12766,0,0,-2.12766,14.8936,85.1064)"><path d="M5,-5 L0,0 L5,5" fill-rule="evenodd" vector-effect="none"/></g><defs><clipPath id="clip9"><path d="M-7,-2 L87,-2 L87,53 L-7,53 L-7,-2 z"/></clipPath></defs><g clip-path="url(#clip9)" fill="#ffffff" fill-opacity="1" opacity="1" stroke="none" stroke-opacity="0" transform="matrix(2.12766,0,0,2.12766,14.8936,4.25532)"><path d="M0,0 L85,0 L85,51 L0,51 L0,0 z" fill-rule="evenodd" vector-effect="none"/></g><defs><clipPath id="clip14"><path d="M-343,-210 L92,-210 L92,51 L-343,51 L-343,-210 z"/></clipPath></defs><g clip-path="url(#clip14)" fill="none" opacity="1" stroke="#000000" stroke-linecap="butt" stroke-linejoin="miter" stroke-miterlimit="2" stroke-opacity="1" stroke-width="0.47" transform="matrix(0.415559,0,0,0.415559,157.447,91.4894)"><text fill="#000000" fill-opacity="1" font-family="Liberation Sans" font-size="40" font-style="normal" font-weight="400" stroke="none" textLength="56" x="0" xml:space="preserve" y="17.9219">VR</text></g><defs><clipPath id="clip16"><path d="M540,22 L625,22 L625,73 L540,73 L540,22 z"/></clipPath></defs><g clip-path="url(#clip16)" fill="none" opacity="1" stroke="#000000" stroke-linecap="butt" stroke-linejoin="miter" stroke-miterlimit="2" stroke-opacity="1" stroke-width="0.47" transform="matrix(2.12766,0,0,2.12766,-1132.98,-41.4894)"><polyline fill="none" points="579,54 586,52" vector-effect="none"/></g><defs><clipPath id="clip17"><path d="M540,22 L625,22 L625,73 L540,73 L540,22 z"/></clipPath></defs><g clip-path="url(#clip17)" fill="none" opacity="1" stroke="#000000" stroke-linecap="butt" stroke-linejoin="miter" stroke-miterlimit="2" stroke-opacity="1" stroke-width="0.47" transform="matrix(2.12766,0,0,2.12766,-1132.98,-41.4894)"><polyline fill="none" points="586,52 594,49" vector-effect="none"/></g><defs><clipPath id="clip18"><path d="M540,22 L625,22 L625,73 L540,73 L540,22 z"/></clipPath></defs><g clip-path="url(#clip18)" fill="none" opacity="1" stroke="#000000" stroke-linecap="butt" stroke-linejoin="miter" stroke-miterlimit="2" stroke-opacity="1" stroke-width="0.47" transform="matrix(2.12766,0,0,2.12766,-1132.98,-41.4894)"><polyline fill="none" points="594,49 602,44" vector-effect="none"/></g><defs><clipPath id="clip19"><path d="M540,22 L625,22 L625,73 L540,73 L540,22 z"/></clipPath></defs><g clip-path="url(#clip19)" fill="none" opacity="1" stroke="#000000" stroke-linecap="butt" stroke-linejoin="miter" stroke-miterlimit="2" stroke-opacity="1" stroke-width="0.47" transform="matrix(2.12766,0,0,2.12766,-1132.98,-41.4894)"><polyline fill="none" points="602,44 610,38" vector-effect="none"/></g><defs><clipPath id="clip20"><path d="M540,22 L625,22 L625,73 L540,73 L540,22 z"/></clipPath></defs><g clip-path="url(#clip20)" fill="none" opacity="1" stroke="#000000" stroke-linecap="butt" stroke-linejoin="miter" stroke-miterlimit="2" stroke-opacity="1" stroke-width="0.47" transform="matrix(2.12766,0,0,2.12766,-1132.98,-41.4894)"><polyline fill="none" points="610,38 618,30" vector-effect="none"/></g><defs><clipPath id="clip22"><path d="M-236,-154 L199,-154 L199,107 L-236,107 L-236,-154 z"/></clipPath></defs><g clip-path="url(#clip22)" fill="none" opacity="1" stroke="#000000" stroke-linecap="butt" stroke-linejoin="miter" stroke-miterlimit="2" stroke-opacity="1" stroke-width="0.47" transform="matrix(0.415559,0,0,0.415559,112.766,68.0851)"><text fill="#000000" fill-opacity="1" font-family="Liberation Sans" font-size="40" font-style="normal" font-weight="400" stroke="none" textLength="22" x="0" xml:space="preserve" y="17.9219">o</text></g><defs><clipPath id="clip25"><path d="M-297,-123 L138,-123 L138,138 L-297,138 L-297,-123 z"/></clipPath></defs><g clip-path="url(#clip25)" fill="none" opacity="1" stroke="#000000" stroke-linecap="butt" stroke-linejoin="miter" stroke-miterlimit="2" stroke-opacity="1" stroke-width="0.47" transform="matrix(0.415559,0,0,0.415559,138.298,55.3191)"><text fill="#000000" fill-opacity="1" font-family="Liberation Sans" font-size="40" font-style="normal" font-weight="400" stroke="none" textLength="22" x="0" xml:space="preserve" y="17.9219">o</text></g><defs><clipPath id="clip28"><path d="M-364,-67 L71,-67 L71,194 L-364,194 L-364,-67 z"/></clipPath></defs><g clip-path="url(#clip28)" fill="none" opacity="1" stroke="#000000" stroke-linecap="butt" stroke-linejoin="miter" stroke-miterlimit="2" stroke-opacity="1" stroke-width="0.47" transform="matrix(0.415559,0,0,0.415559,165.957,31.9149)"><text fill="#000000" fill-opacity="1" font-family="Liberation Sans" font-size="40" font-style="normal" font-weight="400" stroke="none" textLength="22" x="0" xml:space="preserve" y="17.9219">o</text></g><defs><clipPath id="clip31"><path d="M-15,-67 L420,-67 L420,194 L-15,194 L-15,-67 z"/></clipPath></defs><g clip-path="url(#clip31)" fill="none" opacity="1" stroke="#000000" stroke-linecap="butt" stroke-linejoin="miter" stroke-miterlimit="2" stroke-opacity="1" stroke-width="0.47" transform="matrix(0.415559,0,0,0.415559,21.2766,31.9149)"><text fill="#000000" fill-opacity="1" font-family="Liberation Sans" font-size="40" font-style="normal" font-weight="400" stroke="none" textLength="138" x="0" xml:space="preserve" y="17.9219">Position</text></g><defs><clipPath id="clip34"><path d="M-15,-195 L420,-195 L420,66 L-15,66 L-15,-195 z"/></clipPath></defs><g clip-path="url(#clip34)" fill="none" opacity="1" stroke="#000000" stroke-linecap="butt" stroke-linejoin="miter" stroke-miterlimit="2" stroke-opacity="1" stroke-width="0.47" transform="matrix(0.415559,0,0,0.415559,21.2766,85.1064)"><text fill="#000000" fill-opacity="1" font-family="Liberation Sans" font-size="40" font-style="normal" font-weight="400" stroke="none" textLength="94" x="0" xml:space="preserve" y="17.9219">Color</text></g><defs><clipPath id="clip40"><path d="M-7,-2 L87,-2 L87,53 L-7,53 L-7,-2 z"/></clipPath></defs><g clip-path="url(#clip40)" fill="none" opacity="1" stroke="#000000" stroke-linecap="butt" stroke-linejoin="miter" stroke-miterlimit="2" stroke-opacity="1" stroke-width="0.739331" transform="matrix(2.12766,0,0,2.12766,14.8936,4.25532)"><path d="M0,0 L85,0 L85,51 L0,51 L0,0 z" fill-rule="evenodd" vector-effect="none"/></g></g></svg>
