<?xml version="1.0" encoding="UTF-8"?><svg width="52.9167mm" height="28.575mm" viewBox="0 0 200 108" xmlns="http://www.w3.org/2000/svg" xmlns:xlink="http://www.w3.org/1999/xlink"><g fill="none" stroke="black" stroke-width="1" fill-rule="evenodd" stroke-linecap="square" stroke-linejoin="bevel"><g clip-path="none" fill="none" opacity="1" stroke="none" stroke-opacity="0" transform="matrix(1,0,0,1,0,0)"><path d="M0,0 L200,0 L200,108 L0,108 L0,0 z" fill-rule="evenodd" vector-effect="none"/></g><defs><clipPath id="clip3"><path d="M-102,-32 L7,-32 L7,27 L-102,27 L-102,-32 z"/></clipPath></defs><g clip-path="url(#clip3)" fill="none" opacity="1" stroke="#000000" stroke-linecap="round" stroke-linejoin="miter" stroke-miterlimit="2" stroke-opacity="1" stroke-width="2" transform="matrix(1.83486,0,0,1.83486,187.156,58.7156)"><path d="M0,-5 L5,0 L0,5" fill-rule="evenodd" vector-effect="none"/></g><defs><clipPath id="clip6"><path d="M7,42 L-102,42 L-102,-17 L7,-17 L7,42 z"/></clipPath></defs><g clip-path="url(#clip6)" fill="none" opacity="1" stroke="#000000" stroke-linecap="round" stroke-linejoin="miter" stroke-miterlimit="2" stroke-opacity="1" stroke-width="2" transform="matrix(-1.83486,0,0,-1.83486,12.844,77.0642)"><path d="M5,-5 L0,0 L5,5" fill-rule="evenodd" vector-effect="none"/></g><defs><clipPath id="clip9"><path d="M7,17 L-102,17 L-102,-42 L7,-42 L7,17 z"/></clipPath></defs><g clip-path="url(#clip9)" fill="none" opacity="1" stroke="#000000" stroke-linecap="round" stroke-linejoin="miter" stroke-miterlimit="2" stroke-opacity="1" stroke-width="2" transform="matrix(-1.83486,0,0,-1.83486,12.844,31.1927)"><path d="M5,-5 L0,0 L5,5" fill-rule="evenodd" vector-effect="none"/></g><defs><clipPath id="clip12"><path d="M-7,-2 L102,-2 L102,57 L-7,57 L-7,-2 z"/></clipPath></defs><g clip-path="url(#clip12)" fill="#ffffff" fill-opacity="1" opacity="1" stroke="none" stroke-opacity="0" transform="matrix(1.83486,0,0,1.83486,12.844,3.66972)"><path d="M0,0 L95,0 L95,55 L0,55 L0,0 z" fill-rule="evenodd" vector-effect="none"/></g><defs><clipPath id="clip17"><path d="M-46,-230 L440,-230 L440,52 L-46,52 L-46,-230 z"/></clipPath></defs><g clip-path="url(#clip17)" fill="none" opacity="1" stroke="#000000" stroke-linecap="butt" stroke-linejoin="miter" stroke-miterlimit="2" stroke-opacity="1" stroke-width="0.545" transform="matrix(0.358372,0,0,0.358372,29.3578,86.2385)"><text fill="#000000" fill-opacity="1" font-family="Liberation Sans" font-size="40" font-style="normal" font-weight="400" stroke="none" textLength="56" x="0" xml:space="preserve" y="17.9219">VR</text></g><defs><clipPath id="clip19"><path d="M40,109 L135,109 L135,164 L40,164 L40,109 z"/></clipPath></defs><g clip-path="url(#clip19)" fill="none" opacity="1" stroke="#000000" stroke-linecap="butt" stroke-linejoin="miter" stroke-miterlimit="2" stroke-opacity="1" stroke-width="0.545" transform="matrix(1.83486,0,0,1.83486,-59.633,-197.248)"><polyline fill="none" points="85,123 91,119" vector-effect="none"/></g><defs><clipPath id="clip20"><path d="M40,109 L135,109 L135,164 L40,164 L40,109 z"/></clipPath></defs><g clip-path="url(#clip20)" fill="none" opacity="1" stroke="#000000" stroke-linecap="butt" stroke-linejoin="miter" stroke-miterlimit="2" stroke-opacity="1" stroke-width="0.545" transform="matrix(1.83486,0,0,1.83486,-59.633,-197.248)"><polyline fill="none" points="91,119 96,118" vector-effect="none"/></g><defs><clipPath id="clip21"><path d="M40,109 L135,109 L135,164 L40,164 L40,109 z"/></clipPath></defs><g clip-path="url(#clip21)" fill="none" opacity="1" stroke="#000000" stroke-linecap="butt" stroke-linejoin="miter" stroke-miterlimit="2" stroke-opacity="1" stroke-width="0.545" transform="matrix(1.83486,0,0,1.83486,-59.633,-197.248)"><polyline fill="none" points="96,118 104,124" vector-effect="none"/></g><defs><clipPath id="clip22"><path d="M40,109 L135,109 L135,164 L40,164 L40,109 z"/></clipPath></defs><g clip-path="url(#clip22)" fill="none" opacity="1" stroke="#000000" stroke-linecap="butt" stroke-linejoin="miter" stroke-miterlimit="2" stroke-opacity="1" stroke-width="0.545" transform="matrix(1.83486,0,0,1.83486,-59.633,-197.248)"><polyline fill="none" points="104,124 98,127" vector-effect="none"/></g><defs><clipPath id="clip23"><path d="M40,109 L135,109 L135,164 L40,164 L40,109 z"/></clipPath></defs><g clip-path="url(#clip23)" fill="none" opacity="1" stroke="#000000" stroke-linecap="butt" stroke-linejoin="miter" stroke-miterlimit="2" stroke-opacity="1" stroke-width="0.545" transform="matrix(1.83486,0,0,1.83486,-59.633,-197.248)"><polyline fill="none" points="98,127 104,124" vector-effect="none"/></g><defs><clipPath id="clip24"><path d="M40,109 L135,109 L135,164 L40,164 L40,109 z"/></clipPath></defs><g clip-path="url(#clip24)" fill="none" opacity="1" stroke="#000000" stroke-linecap="butt" stroke-linejoin="miter" stroke-miterlimit="2" stroke-opacity="1" stroke-width="0.545" transform="matrix(1.83486,0,0,1.83486,-59.633,-197.248)"><polyline fill="none" points="104,124 101,118" vector-effect="none"/></g><defs><clipPath id="clip25"><path d="M40,109 L135,109 L135,164 L40,164 L40,109 z"/></clipPath></defs><g clip-path="url(#clip25)" fill="none" opacity="1" stroke="#000000" stroke-linecap="butt" stroke-linejoin="miter" stroke-miterlimit="2" stroke-opacity="1" stroke-width="0.545" transform="matrix(1.83486,0,0,1.83486,-59.633,-197.248)"><polyline fill="none" points="70,128 105,157" vector-effect="none"/></g><defs><clipPath id="clip26"><path d="M40,109 L135,109 L135,164 L40,164 L40,109 z"/></clipPath></defs><g clip-path="url(#clip26)" fill="none" opacity="1" stroke="#000000" stroke-linecap="butt" stroke-linejoin="miter" stroke-miterlimit="2" stroke-opacity="1" stroke-width="0.545" transform="matrix(1.83486,0,0,1.83486,-59.633,-197.248)"><polyline fill="none" points="92,145 114,118" vector-effect="none"/></g><defs><clipPath id="clip27"><path d="M40,109 L135,109 L135,164 L40,164 L40,109 z"/></clipPath></defs><g clip-path="url(#clip27)" fill="none" opacity="1" stroke="#000000" stroke-linecap="butt" stroke-linejoin="miter" stroke-miterlimit="2" stroke-opacity="1" stroke-width="0.545" transform="matrix(1.83486,0,0,1.83486,-59.633,-197.248)"><polyline fill="none" points="92,145 79,118" vector-effect="none"/></g><defs><clipPath id="clip32"><path d="M-7,-2 L102,-2 L102,57 L-7,57 L-7,-2 z"/></clipPath></defs><g clip-path="url(#clip32)" fill="none" opacity="1" stroke="#000000" stroke-linecap="butt" stroke-linejoin="miter" stroke-miterlimit="2" stroke-opacity="1" stroke-width="0.784438" transform="matrix(1.83486,0,0,1.83486,12.844,3.66972)"><path d="M0,0 L95,0 L95,55 L0,55 L0,0 z" fill-rule="evenodd" vector-effect="none"/></g></g></svg>
