<?xml version="1.0" encoding="UTF-8"?><svg width="52.9167mm" height="27.7812mm" viewBox="0 0 200 105" xmlns="http://www.w3.org/2000/svg" xmlns:xlink="http://www.w3.org/1999/xlink"><g fill="none" stroke="black" stroke-width="1" fill-rule="evenodd" stroke-linecap="square" stroke-linejoin="bevel"><g clip-path="none" fill="none" opacity="1" stroke="none" stroke-opacity="0" transform="matrix(1,0,0,1,0,0)"><path d="M0,0 L200,0 L200,105 L0,105 L0,0 z" fill-rule="evenodd" vector-effect="none"/></g><defs><clipPath id="clip3"><path d="M-2,-2 L108,-2 L108,56 L-2,56 L-2,-2 z"/></clipPath></defs><g clip-path="url(#clip3)" fill="#e8d152" fill-opacity="1" opacity="1" stroke="none" stroke-opacity="0" transform="matrix(1.81818,0,0,1.81818,3.63636,3.63636)"><path d="M0,0 L106,0 L106,54 L0,54 L0,0 z" fill-rule="evenodd" vector-effect="none"/></g><defs><clipPath id="clip8"><path d="M-271,-72 L272,-72 L272,204 L-271,204 L-271,-72 z"/></clipPath></defs><g clip-path="url(#clip8)" fill="none" opacity="1" stroke="#000000" stroke-linecap="butt" stroke-linejoin="miter" stroke-miterlimit="2" stroke-opacity="1" stroke-width="0.55" transform="matrix(0.355114,0,0,0.355114,100,29.0909)"><text fill="#000000" fill-opacity="1" font-family="Liberation Sans" font-size="48" font-style="normal" font-weight="700" stroke="none" textLength="385" x="-245.953" xml:space="preserve" y="21.125">Create Your Own</text></g><defs><clipPath id="clip11"><path d="M-271,-138 L272,-138 L272,138 L-271,138 L-271,-138 z"/></clipPath></defs><g clip-path="url(#clip11)" fill="none" opacity="1" stroke="#000000" stroke-linecap="butt" stroke-linejoin="miter" stroke-miterlimit="2" stroke-opacity="1" stroke-width="0.55" transform="matrix(0.355114,0,0,0.355114,100,52.7273)"><text fill="#000000" fill-opacity="1" font-family="Liberation Sans" font-size="48" font-style="normal" font-weight="700" stroke="none" textLength="334" x="-215" xml:space="preserve" y="21.125">Asynchronous</text></g><defs><clipPath id="clip14"><path d="M-271,-205 L272,-205 L272,71 L-271,71 L-271,-205 z"/></clipPath></defs><g clip-path="url(#clip14)" fill="none" opacity="1" stroke="#000000" stroke-linecap="butt" stroke-linejoin="miter" stroke-miterlimit="2" stroke-opacity="1" stroke-width="0.55" transform="matrix(0.355114,0,0,0.355114,100,76.3636)"><text fill="#000000" fill-opacity="1" font-family="Liberation Sans" font-size="48" font-style="normal" font-weight="700" stroke="none" textLength="373" x="-238.875" xml:space="preserve" y="21.125">Interrupt Library</text></g><defs><clipPath id="clip20"><path d="M-2,-2 L108,-2 L108,56 L-2,56 L-2,-2 z"/></clipPath></defs><g clip-path="url(#clip20)" fill="none" opacity="1" stroke="#000000" stroke-linecap="butt" stroke-linejoin="miter" stroke-miterlimit="2" stroke-opacity="1" stroke-width="0.787309" transform="matrix(1.81818,0,0,1.81818,3.63636,3.63636)"><path d="M0,0 L106,0 L106,54 L0,54 L0,0 z" fill-rule="evenodd" vector-effect="none"/></g></g></svg>
