<?xml version="1.0" encoding="UTF-8"?><svg width="52.9167mm" height="23.8125mm" viewBox="0 0 200 90" xmlns="http://www.w3.org/2000/svg" xmlns:xlink="http://www.w3.org/1999/xlink"><g fill="none" stroke="black" stroke-width="1" fill-rule="evenodd" stroke-linecap="square" stroke-linejoin="bevel"><g clip-path="none" fill="none" opacity="1" stroke="none" stroke-opacity="0" transform="matrix(1,0,0,1,0,0)"><path d="M0,0 L200,0 L200,90 L0,90 L0,0 z" fill-rule="evenodd" vector-effect="none"/></g><defs><clipPath id="clip3"><path d="M-117,-28 L7,-28 L7,28 L-117,28 L-117,-28 z"/></clipPath></defs><g clip-path="url(#clip3)" fill="none" opacity="1" stroke="#000000" stroke-linecap="round" stroke-linejoin="miter" stroke-miterlimit="2" stroke-opacity="1" stroke-width="2" transform="matrix(1.6129,0,0,1.6129,188.71,45.1613)"><path d="M0,-5 L5,0 L0,5" fill-rule="evenodd" vector-effect="none"/></g><defs><clipPath id="clip6"><path d="M7,28 L-117,28 L-117,-28 L7,-28 L7,28 z"/></clipPath></defs><g clip-path="url(#clip6)" fill="none" opacity="1" stroke="#000000" stroke-linecap="round" stroke-linejoin="miter" stroke-miterlimit="2" stroke-opacity="1" stroke-width="2" transform="matrix(-1.6129,0,0,-1.6129,11.2903,45.1613)"><path d="M5,-5 L0,0 L5,5" fill-rule="evenodd" vector-effect="none"/></g><defs><clipPath id="clip9"><path d="M-7,-2 L117,-2 L117,54 L-7,54 L-7,-2 z"/></clipPath></defs><g clip-path="url(#clip9)" fill="#6b963d" fill-opacity="1" opacity="1" stroke="none" stroke-opacity="0" transform="matrix(1.6129,0,0,1.6129,11.2903,3.22581)"><path d="M0,0 L110,0 L110,52 L0,52 L0,0 z" fill-rule="evenodd" vector-effect="none"/></g><defs><clipPath id="clip14"><path d="M-282,-133 L281,-133 L281,133 L-282,133 L-282,-133 z"/></clipPath></defs><g clip-path="url(#clip14)" fill="none" opacity="1" stroke="#000000" stroke-linecap="butt" stroke-linejoin="miter" stroke-miterlimit="2" stroke-opacity="1" stroke-width="0.62" transform="matrix(0.31502,0,0,0.31502,100,45.1613)"><text fill="#000000" fill-opacity="1" font-family="Liberation Sans" font-size="48" font-style="normal" font-weight="700" stroke="none" textLength="211" x="-134.812" xml:space="preserve" y="21.125">model_sf</text></g><defs><clipPath id="clip20"><path d="M-7,-2 L117,-2 L117,54 L-7,54 L-7,-2 z"/></clipPath></defs><g clip-path="url(#clip20)" fill="none" opacity="1" stroke="#000000" stroke-linecap="butt" stroke-linejoin="miter" stroke-miterlimit="2" stroke-opacity="1" stroke-width="0.825956" transform="matrix(1.6129,0,0,1.6129,11.2903,3.22581)"><path d="M0,0 L110,0 L110,52 L0,52 L0,0 z" fill-rule="evenodd" vector-effect="none"/></g></g></svg>
