<?xml version="1.0" encoding="UTF-8"?><svg width="52.9167mm" height="28.3104mm" viewBox="0 0 200 107" xmlns="http://www.w3.org/2000/svg" xmlns:xlink="http://www.w3.org/1999/xlink"><g fill="none" stroke="black" stroke-width="1" fill-rule="evenodd" stroke-linecap="square" stroke-linejoin="bevel"><g clip-path="none" fill="none" opacity="1" stroke="none" stroke-opacity="0" transform="matrix(1,0,0,1,0,0)"><path d="M0,0 L200,0 L200,107 L0,107 L0,0 z" fill-rule="evenodd" vector-effect="none"/></g><defs><clipPath id="clip3"><path d="M-82,-24 L7,-24 L7,24 L-82,24 L-82,-24 z"/></clipPath></defs><g clip-path="url(#clip3)" fill="none" opacity="1" stroke="#000000" stroke-linecap="round" stroke-linejoin="miter" stroke-miterlimit="2" stroke-opacity="1" stroke-width="2" transform="matrix(2.24719,0,0,2.24719,184.27,53.9326)"><path d="M0,-5 L5,0 L0,5" fill-rule="evenodd" vector-effect="none"/></g><defs><clipPath id="clip6"><path d="M7,34 L-82,34 L-82,-14 L7,-14 L7,34 z"/></clipPath></defs><g clip-path="url(#clip6)" fill="none" opacity="1" stroke="#000000" stroke-linecap="round" stroke-linejoin="miter" stroke-miterlimit="2" stroke-opacity="1" stroke-width="2" transform="matrix(-2.24719,0,0,-2.24719,15.7303,76.4045)"><path d="M5,-5 L0,0 L5,5" fill-rule="evenodd" vector-effect="none"/></g><defs><clipPath id="clip9"><path d="M7,14 L-82,14 L-82,-34 L7,-34 L7,14 z"/></clipPath></defs><g clip-path="url(#clip9)" fill="none" opacity="1" stroke="#000000" stroke-linecap="round" stroke-linejoin="miter" stroke-miterlimit="2" stroke-opacity="1" stroke-width="2" transform="matrix(-2.24719,0,0,-2.24719,15.7303,31.4607)"><path d="M5,-5 L0,0 L5,5" fill-rule="evenodd" vector-effect="none"/></g><defs><clipPath id="clip12"><path d="M-7,-2 L82,-2 L82,46 L-7,46 L-7,-2 z"/></clipPath></defs><g clip-path="url(#clip12)" fill="#ffffff" fill-opacity="1" opacity="1" stroke="none" stroke-opacity="0" transform="matrix(2.24719,0,0,2.24719,15.7303,4.49438)"><path d="M0,0 L75,0 L75,44 L0,44 L0,0 z" fill-rule="evenodd" vector-effect="none"/></g><defs><clipPath id="clip17"><path d="M-15,-61 L369,-61 L369,164 L-15,164 L-15,-61 z"/></clipPath></defs><g clip-path="url(#clip17)" fill="none" opacity="1" stroke="#000000" stroke-linecap="butt" stroke-linejoin="miter" stroke-miterlimit="2" stroke-opacity="1" stroke-width="0.445" transform="matrix(0.438904,0,0,0.438904,22.4719,31.4607)"><text fill="#000000" fill-opacity="1" font-family="Liberation Sans" font-size="36" font-style="normal" font-weight="400" stroke="none" textLength="23" x="0" xml:space="preserve" y="16">A</text></g><defs><clipPath id="clip20"><path d="M-15,-164 L369,-164 L369,61 L-15,61 L-15,-164 z"/></clipPath></defs><g clip-path="url(#clip20)" fill="none" opacity="1" stroke="#000000" stroke-linecap="butt" stroke-linejoin="miter" stroke-miterlimit="2" stroke-opacity="1" stroke-width="0.445" transform="matrix(0.438904,0,0,0.438904,22.4719,76.4045)"><text fill="#000000" fill-opacity="1" font-family="Liberation Sans" font-size="36" font-style="normal" font-weight="400" stroke="none" textLength="24" x="0" xml:space="preserve" y="16">B</text></g><defs><clipPath id="clip23"><path d="M-369,-113 L15,-113 L15,112 L-369,112 L-369,-113 z"/></clipPath></defs><g clip-path="url(#clip23)" fill="none" opacity="1" stroke="#000000" stroke-linecap="butt" stroke-linejoin="miter" stroke-miterlimit="2" stroke-opacity="1" stroke-width="0.445" transform="matrix(0.438904,0,0,0.438904,177.528,53.9326)"><text fill="#000000" fill-opacity="1" font-family="Liberation Sans" font-size="36" font-style="normal" font-weight="400" stroke="none" textLength="128" x="-165.172" xml:space="preserve" y="16">A ==&gt; B</text></g><defs><clipPath id="clip32"><path d="M-7,-2 L82,-2 L82,46 L-7,46 L-7,-2 z"/></clipPath></defs><g clip-path="url(#clip32)" fill="none" opacity="1" stroke="#000000" stroke-linecap="butt" stroke-linejoin="miter" stroke-miterlimit="2" stroke-opacity="1" stroke-width="0.723343" transform="matrix(2.24719,0,0,2.24719,15.7303,4.49438)"><path d="M0,0 L75,0 L75,44 L0,44 L0,0 z" fill-rule="evenodd" vector-effect="none"/></g></g></svg>
