<?xml version="1.0" encoding="UTF-8"?><svg width="52.9167mm" height="35.7188mm" viewBox="0 0 200 135" xmlns="http://www.w3.org/2000/svg" xmlns:xlink="http://www.w3.org/1999/xlink"><g fill="none" stroke="black" stroke-width="1" fill-rule="evenodd" stroke-linecap="square" stroke-linejoin="bevel"><g clip-path="none" fill="none" opacity="1" stroke="none" stroke-opacity="0" transform="matrix(1,0,0,1,0,0)"><path d="M0,0 L200,0 L200,135 L0,135 L0,0 z" fill-rule="evenodd" vector-effect="none"/></g><defs><clipPath id="clip3"><path d="M7,40 L-67,40 L-67,-10 L7,-10 L7,40 z"/></clipPath></defs><g clip-path="url(#clip3)" fill="none" opacity="1" stroke="#000000" stroke-linecap="round" stroke-linejoin="miter" stroke-miterlimit="2" stroke-opacity="1" stroke-width="2" transform="matrix(-2.7027,0,0,-2.7027,18.9189,108.108)"><path d="M5,-5 L0,0 L5,5" fill-rule="evenodd" vector-effect="none"/></g><defs><clipPath id="clip6"><path d="M7,25 L-67,25 L-67,-25 L7,-25 L7,25 z"/></clipPath></defs><g clip-path="url(#clip6)" fill="none" opacity="1" stroke="#000000" stroke-linecap="round" stroke-linejoin="miter" stroke-miterlimit="2" stroke-opacity="1" stroke-width="2" transform="matrix(-2.7027,0,0,-2.7027,18.9189,67.5676)"><path d="M5,-5 L0,0 L5,5" fill-rule="evenodd" vector-effect="none"/></g><defs><clipPath id="clip9"><path d="M-67,-25 L7,-25 L7,25 L-67,25 L-67,-25 z"/></clipPath></defs><g clip-path="url(#clip9)" fill="none" opacity="1" stroke="#000000" stroke-linecap="round" stroke-linejoin="miter" stroke-miterlimit="2" stroke-opacity="1" stroke-width="2" transform="matrix(2.7027,0,0,2.7027,181.081,67.5676)"><path d="M0,-5 L5,0 L0,5" fill-rule="evenodd" vector-effect="none"/></g><defs><clipPath id="clip12"><path d="M7,10 L-67,10 L-67,-40 L7,-40 L7,10 z"/></clipPath></defs><g clip-path="url(#clip12)" fill="none" opacity="1" stroke="#000000" stroke-linecap="round" stroke-linejoin="miter" stroke-miterlimit="2" stroke-opacity="1" stroke-width="2" transform="matrix(-2.7027,0,0,-2.7027,18.9189,27.027)"><path d="M5,-5 L0,0 L5,5" fill-rule="evenodd" vector-effect="none"/></g><defs><clipPath id="clip15"><path d="M-7,-2 L67,-2 L67,48 L-7,48 L-7,-2 z"/></clipPath></defs><g clip-path="url(#clip15)" fill="#ffffff" fill-opacity="1" opacity="1" stroke="none" stroke-opacity="0" transform="matrix(2.7027,0,0,2.7027,18.9189,5.40541)"><path d="M0,0 L60,0 L60,46 L0,46 L0,0 z" fill-rule="evenodd" vector-effect="none"/></g><defs><clipPath id="clip20"><path d="M-15,-195 L292,-195 L292,41 L-15,41 L-15,-195 z"/></clipPath></defs><g clip-path="url(#clip20)" fill="none" opacity="1" stroke="#000000" stroke-linecap="butt" stroke-linejoin="miter" stroke-miterlimit="2" stroke-opacity="1" stroke-width="0.37" transform="matrix(0.527872,0,0,0.527872,27.027,108.108)"><text fill="#000000" fill-opacity="1" font-family="Liberation Sans" font-size="40" font-style="normal" font-weight="400" stroke="none" textLength="40" x="0" xml:space="preserve" y="17.9219">x0</text></g><defs><clipPath id="clip23"><path d="M-15,-41 L292,-41 L292,195 L-15,195 L-15,-41 z"/></clipPath></defs><g clip-path="url(#clip23)" fill="none" opacity="1" stroke="#000000" stroke-linecap="butt" stroke-linejoin="miter" stroke-miterlimit="2" stroke-opacity="1" stroke-width="0.37" transform="matrix(0.527872,0,0,0.527872,27.027,27.027)"><text fill="#000000" fill-opacity="1" font-family="Liberation Sans" font-size="40" font-style="normal" font-weight="400" stroke="none" textLength="21" x="0" xml:space="preserve" y="17.9219">u</text></g><defs><clipPath id="clip26"><path d="M-113,-118 L194,-118 L194,118 L-113,118 L-113,-118 z"/></clipPath></defs><g clip-path="url(#clip26)" fill="none" opacity="1" stroke="#000000" stroke-linecap="butt" stroke-linejoin="miter" stroke-miterlimit="2" stroke-opacity="1" stroke-width="0.37" transform="matrix(0.527872,0,0,0.527872,78.3784,67.5676)"><text fill="#000000" fill-opacity="1" font-family="Liberation Sans" font-size="40" font-style="normal" font-weight="400" stroke="none" textLength="24" x="0" xml:space="preserve" y="17.9219">Z</text></g><defs><clipPath id="clip29"><path d="M-143,-97 L164,-97 L164,139 L-143,139 L-143,-97 z"/></clipPath></defs><g clip-path="url(#clip29)" fill="none" opacity="1" stroke="#000000" stroke-linecap="butt" stroke-linejoin="miter" stroke-miterlimit="2" stroke-opacity="1" stroke-width="0.37" transform="matrix(0.527872,0,0,0.527872,94.5946,56.7568)"><text fill="#000000" fill-opacity="1" font-family="Liberation Sans" font-size="40" font-style="normal" font-weight="400" stroke="none" textLength="35" x="0" xml:space="preserve" y="17.9219">-1</text></g><defs><clipPath id="clip31"><path d="M40,102 L100,102 L100,148 L40,148 L40,102 z"/></clipPath></defs><g clip-path="url(#clip31)" fill="none" opacity="1" stroke="#000000" stroke-linecap="butt" stroke-linejoin="miter" stroke-miterlimit="2" stroke-opacity="1" stroke-width="0.37" transform="matrix(2.7027,0,0,2.7027,-87.8378,-268.919)"><polyline fill="none" points="42,128 45,128" vector-effect="none"/></g><defs><clipPath id="clip32"><path d="M40,102 L100,102 L100,148 L40,148 L40,102 z"/></clipPath></defs><g clip-path="url(#clip32)" fill="none" opacity="1" stroke="#000000" stroke-linecap="butt" stroke-linejoin="miter" stroke-miterlimit="2" stroke-opacity="1" stroke-width="0.37" transform="matrix(2.7027,0,0,2.7027,-87.8378,-268.919)"><polyline fill="none" points="45,128 45,122" vector-effect="none"/></g><defs><clipPath id="clip33"><path d="M40,102 L100,102 L100,148 L40,148 L40,102 z"/></clipPath></defs><g clip-path="url(#clip33)" fill="none" opacity="1" stroke="#000000" stroke-linecap="butt" stroke-linejoin="miter" stroke-miterlimit="2" stroke-opacity="1" stroke-width="0.37" transform="matrix(2.7027,0,0,2.7027,-87.8378,-268.919)"><polyline fill="none" points="45,122 48,122" vector-effect="none"/></g><defs><clipPath id="clip34"><path d="M40,102 L100,102 L100,148 L40,148 L40,102 z"/></clipPath></defs><g clip-path="url(#clip34)" fill="none" opacity="1" stroke="#000000" stroke-linecap="butt" stroke-linejoin="miter" stroke-miterlimit="2" stroke-opacity="1" stroke-width="0.37" transform="matrix(2.7027,0,0,2.7027,-87.8378,-268.919)"><polyline fill="none" points="45,123 43,126" vector-effect="none"/></g><defs><clipPath id="clip35"><path d="M40,102 L100,102 L100,148 L40,148 L40,102 z"/></clipPath></defs><g clip-path="url(#clip35)" fill="none" opacity="1" stroke="#000000" stroke-linecap="butt" stroke-linejoin="miter" stroke-miterlimit="2" stroke-opacity="1" stroke-width="0.37" transform="matrix(2.7027,0,0,2.7027,-87.8378,-268.919)"><polyline fill="none" points="45,123 47,126" vector-effect="none"/></g><defs><clipPath id="clip40"><path d="M-7,-2 L67,-2 L67,48 L-7,48 L-7,-2 z"/></clipPath></defs><g clip-path="url(#clip40)" fill="none" opacity="1" stroke="#000000" stroke-linecap="butt" stroke-linejoin="miter" stroke-miterlimit="2" stroke-opacity="1" stroke-width="0.671863" transform="matrix(2.7027,0,0,2.7027,18.9189,5.40541)"><path d="M0,0 L60,0 L60,46 L0,46 L0,0 z" fill-rule="evenodd" vector-effect="none"/></g></g></svg>
