<?xml version="1.0" encoding="UTF-8"?><svg width="52.9167mm" height="39.4229mm" viewBox="0 0 200 149" xmlns="http://www.w3.org/2000/svg" xmlns:xlink="http://www.w3.org/1999/xlink"><g fill="none" stroke="black" stroke-width="1" fill-rule="evenodd" stroke-linecap="square" stroke-linejoin="bevel"><g clip-path="none" fill="none" opacity="1" stroke="none" stroke-opacity="0" transform="matrix(1,0,0,1,0,0)"><path d="M0,0 L200,0 L200,149 L0,149 L0,0 z" fill-rule="evenodd" vector-effect="none"/></g><defs><clipPath id="clip3"><path d="M-2,-2 L57,-2 L57,42 L-2,42 L-2,-2 z"/></clipPath></defs><g clip-path="url(#clip3)" fill="#ffffff" fill-opacity="1" opacity="1" stroke="none" stroke-opacity="0" transform="matrix(3.38983,0,0,3.38983,6.77966,6.77966)"><path d="M0,0 L55,0 L55,40 L0,40 L0,0 z" fill-rule="evenodd" vector-effect="none"/></g><defs><clipPath id="clip8"><path d="M-138,-77 L144,-77 L144,128 L-138,128 L-138,-77 z"/></clipPath></defs><g clip-path="url(#clip8)" fill="none" opacity="1" stroke="#000000" stroke-linecap="butt" stroke-linejoin="miter" stroke-miterlimit="2" stroke-opacity="1" stroke-width="0.295" transform="matrix(0.662076,0,0,0.662076,98.3051,57.6271)"><text fill="#000000" fill-opacity="1" font-family="Liberation Sans" font-size="40" font-style="normal" font-weight="400" stroke="none" textLength="181" x="-117.359" xml:space="preserve" y="17.9219">Real-Time</text></g><defs><clipPath id="clip11"><path d="M-138,-128 L144,-128 L144,77 L-138,77 L-138,-128 z"/></clipPath></defs><g clip-path="url(#clip11)" fill="none" opacity="1" stroke="#000000" stroke-linecap="butt" stroke-linejoin="miter" stroke-miterlimit="2" stroke-opacity="1" stroke-width="0.295" transform="matrix(0.662076,0,0,0.662076,98.3051,91.5254)"><text fill="#000000" fill-opacity="1" font-family="Liberation Sans" font-size="40" font-style="normal" font-weight="400" stroke="none" textLength="87" x="-56.8906" xml:space="preserve" y="17.9219">Sync</text></g><defs><clipPath id="clip17"><path d="M-2,-2 L57,-2 L57,42 L-2,42 L-2,-2 z"/></clipPath></defs><g clip-path="url(#clip17)" fill="none" opacity="1" stroke="#000000" stroke-linecap="butt" stroke-linejoin="miter" stroke-miterlimit="2" stroke-opacity="1" stroke-width="0.613661" transform="matrix(3.38983,0,0,3.38983,6.77966,6.77966)"><path d="M0,0 L55,0 L55,40 L0,40 L0,0 z" fill-rule="evenodd" vector-effect="none"/></g></g></svg>
