<?xml version="1.0" encoding="UTF-8"?><svg width="52.9167mm" height="52.9167mm" viewBox="0 0 200 200" xmlns="http://www.w3.org/2000/svg" xmlns:xlink="http://www.w3.org/1999/xlink"><g fill="none" stroke="black" stroke-width="1" fill-rule="evenodd" stroke-linecap="square" stroke-linejoin="bevel"><g clip-path="none" fill="none" opacity="1" stroke="none" stroke-opacity="0" transform="matrix(1,0,0,1,0,0)"><path d="M0,0 L200,0 L200,200 L0,200 L0,0 z" fill-rule="evenodd" vector-effect="none"/></g><defs><clipPath id="clip3"><path d="M-2,-2 L52,-2 L52,52 L-2,52 L-2,-2 z"/></clipPath></defs><g clip-path="url(#clip3)" fill="#ffffff" fill-opacity="1" opacity="1" stroke="none" stroke-opacity="0" transform="matrix(3.7037,0,0,3.7037,7.40741,7.40741)"><path d="M0,0 L50,0 L50,50 L0,50 L0,0 z" fill-rule="evenodd" vector-effect="none"/></g><defs><clipPath id="clip7"><path d="M87,22 L137,22 L137,72 L87,72 L87,22 z"/></clipPath></defs><g clip-path="url(#clip7)" fill="none" opacity="1" stroke="#000000" stroke-linecap="butt" stroke-linejoin="miter" stroke-miterlimit="2" stroke-opacity="1" stroke-width="0.27" transform="matrix(3.7037,0,0,3.7037,-312.963,-72.2222)"><polyline fill="none" points="90,64 134,64" vector-effect="none"/></g><defs><clipPath id="clip8"><path d="M87,22 L137,22 L137,72 L87,72 L87,22 z"/></clipPath></defs><g clip-path="url(#clip8)" fill="none" opacity="1" stroke="#000000" stroke-linecap="butt" stroke-linejoin="miter" stroke-miterlimit="2" stroke-opacity="1" stroke-width="0.27" transform="matrix(3.7037,0,0,3.7037,-312.963,-72.2222)"><polyline fill="none" points="96,69 96,25" vector-effect="none"/></g><defs><clipPath id="clip9"><path d="M87,22 L137,22 L137,72 L87,72 L87,22 z"/></clipPath></defs><g clip-path="url(#clip9)" fill="none" opacity="1" stroke="#000000" stroke-linecap="butt" stroke-linejoin="miter" stroke-miterlimit="2" stroke-opacity="1" stroke-width="0.27" transform="matrix(3.7037,0,0,3.7037,-312.963,-72.2222)"><polyline fill="none" points="96,58 101,58" vector-effect="none"/></g><defs><clipPath id="clip10"><path d="M87,22 L137,22 L137,72 L87,72 L87,22 z"/></clipPath></defs><g clip-path="url(#clip10)" fill="none" opacity="1" stroke="#000000" stroke-linecap="butt" stroke-linejoin="miter" stroke-miterlimit="2" stroke-opacity="1" stroke-width="0.27" transform="matrix(3.7037,0,0,3.7037,-312.963,-72.2222)"><polyline fill="none" points="101,58 101,45" vector-effect="none"/></g><defs><clipPath id="clip11"><path d="M87,22 L137,22 L137,72 L87,72 L87,22 z"/></clipPath></defs><g clip-path="url(#clip11)" fill="none" opacity="1" stroke="#000000" stroke-linecap="butt" stroke-linejoin="miter" stroke-miterlimit="2" stroke-opacity="1" stroke-width="0.27" transform="matrix(3.7037,0,0,3.7037,-312.963,-72.2222)"><polyline fill="none" points="101,45 107,45" vector-effect="none"/></g><defs><clipPath id="clip12"><path d="M87,22 L137,22 L137,72 L87,72 L87,22 z"/></clipPath></defs><g clip-path="url(#clip12)" fill="none" opacity="1" stroke="#000000" stroke-linecap="butt" stroke-linejoin="miter" stroke-miterlimit="2" stroke-opacity="1" stroke-width="0.27" transform="matrix(3.7037,0,0,3.7037,-312.963,-72.2222)"><polyline fill="none" points="107,45 107,33" vector-effect="none"/></g><defs><clipPath id="clip13"><path d="M87,22 L137,22 L137,72 L87,72 L87,22 z"/></clipPath></defs><g clip-path="url(#clip13)" fill="none" opacity="1" stroke="#000000" stroke-linecap="butt" stroke-linejoin="miter" stroke-miterlimit="2" stroke-opacity="1" stroke-width="0.27" transform="matrix(3.7037,0,0,3.7037,-312.963,-72.2222)"><polyline fill="none" points="107,33 112,33" vector-effect="none"/></g><defs><clipPath id="clip14"><path d="M87,22 L137,22 L137,72 L87,72 L87,22 z"/></clipPath></defs><g clip-path="url(#clip14)" fill="none" opacity="1" stroke="#000000" stroke-linecap="butt" stroke-linejoin="miter" stroke-miterlimit="2" stroke-opacity="1" stroke-width="0.27" transform="matrix(3.7037,0,0,3.7037,-312.963,-72.2222)"><polyline fill="none" points="112,33 112,38" vector-effect="none"/></g><defs><clipPath id="clip15"><path d="M87,22 L137,22 L137,72 L87,72 L87,22 z"/></clipPath></defs><g clip-path="url(#clip15)" fill="none" opacity="1" stroke="#000000" stroke-linecap="butt" stroke-linejoin="miter" stroke-miterlimit="2" stroke-opacity="1" stroke-width="0.27" transform="matrix(3.7037,0,0,3.7037,-312.963,-72.2222)"><polyline fill="none" points="112,38 118,38" vector-effect="none"/></g><defs><clipPath id="clip16"><path d="M87,22 L137,22 L137,72 L87,72 L87,22 z"/></clipPath></defs><g clip-path="url(#clip16)" fill="none" opacity="1" stroke="#000000" stroke-linecap="butt" stroke-linejoin="miter" stroke-miterlimit="2" stroke-opacity="1" stroke-width="0.27" transform="matrix(3.7037,0,0,3.7037,-312.963,-72.2222)"><polyline fill="none" points="118,38 118,43" vector-effect="none"/></g><defs><clipPath id="clip17"><path d="M87,22 L137,22 L137,72 L87,72 L87,22 z"/></clipPath></defs><g clip-path="url(#clip17)" fill="none" opacity="1" stroke="#000000" stroke-linecap="butt" stroke-linejoin="miter" stroke-miterlimit="2" stroke-opacity="1" stroke-width="0.27" transform="matrix(3.7037,0,0,3.7037,-312.963,-72.2222)"><polyline fill="none" points="118,43 123,43" vector-effect="none"/></g><defs><clipPath id="clip18"><path d="M87,22 L137,22 L137,72 L87,72 L87,22 z"/></clipPath></defs><g clip-path="url(#clip18)" fill="none" opacity="1" stroke="#000000" stroke-linecap="butt" stroke-linejoin="miter" stroke-miterlimit="2" stroke-opacity="1" stroke-width="0.27" transform="matrix(3.7037,0,0,3.7037,-312.963,-72.2222)"><polyline fill="none" points="123,43 123,46" vector-effect="none"/></g><defs><clipPath id="clip19"><path d="M87,22 L137,22 L137,72 L87,72 L87,22 z"/></clipPath></defs><g clip-path="url(#clip19)" fill="none" opacity="1" stroke="#000000" stroke-linecap="butt" stroke-linejoin="miter" stroke-miterlimit="2" stroke-opacity="1" stroke-width="0.27" transform="matrix(3.7037,0,0,3.7037,-312.963,-72.2222)"><polyline fill="none" points="123,46 129,46" vector-effect="none"/></g><defs><clipPath id="clip20"><path d="M87,22 L137,22 L137,72 L87,72 L87,22 z"/></clipPath></defs><g clip-path="url(#clip20)" fill="none" opacity="1" stroke="#000000" stroke-linecap="butt" stroke-linejoin="miter" stroke-miterlimit="2" stroke-opacity="1" stroke-width="0.27" transform="matrix(3.7037,0,0,3.7037,-312.963,-72.2222)"><polyline fill="none" points="129,46 129,48" vector-effect="none"/></g><defs><clipPath id="clip21"><path d="M87,22 L137,22 L137,72 L87,72 L87,22 z"/></clipPath></defs><g clip-path="url(#clip21)" fill="none" opacity="1" stroke="#000000" stroke-linecap="butt" stroke-linejoin="miter" stroke-miterlimit="2" stroke-opacity="1" stroke-width="0.27" transform="matrix(3.7037,0,0,3.7037,-312.963,-72.2222)"><polyline fill="none" points="129,48 134,48" vector-effect="none"/></g><defs><clipPath id="clip26"><path d="M-2,-2 L52,-2 L52,52 L-2,52 L-2,-2 z"/></clipPath></defs><g clip-path="url(#clip26)" fill="none" opacity="1" stroke="#000000" stroke-linecap="butt" stroke-linejoin="miter" stroke-miterlimit="2" stroke-opacity="1" stroke-width="0.592305" transform="matrix(3.7037,0,0,3.7037,7.40741,7.40741)"><path d="M0,0 L50,0 L50,50 L0,50 L0,0 z" fill-rule="evenodd" vector-effect="none"/></g></g></svg>
