<?xml version="1.0" encoding="UTF-8"?><svg width="52.9167mm" height="52.9167mm" viewBox="0 0 200 200" xmlns="http://www.w3.org/2000/svg" xmlns:xlink="http://www.w3.org/1999/xlink"><g fill="none" stroke="black" stroke-width="1" fill-rule="evenodd" stroke-linecap="square" stroke-linejoin="bevel"><g clip-path="none" fill="none" opacity="1" stroke="none" stroke-opacity="0" transform="matrix(1,0,0,1,0,0)"><path d="M0,0 L200,0 L200,200 L0,200 L0,0 z" fill-rule="evenodd" vector-effect="none"/></g><defs><clipPath id="clip3"><path d="M-2,-2 L52,-2 L52,52 L-2,52 L-2,-2 z"/></clipPath></defs><g clip-path="url(#clip3)" fill="#ffffff" fill-opacity="1" opacity="1" stroke="none" stroke-opacity="0" transform="matrix(3.7037,0,0,3.7037,7.40741,7.40741)"><path d="M0,0 L50,0 L50,50 L0,50 L0,0 z" fill-rule="evenodd" vector-effect="none"/></g><defs><clipPath id="clip7"><path d="M414,22 L464,22 L464,72 L414,72 L414,22 z"/></clipPath></defs><g clip-path="url(#clip7)" fill="none" opacity="1" stroke="#000000" stroke-linecap="butt" stroke-linejoin="miter" stroke-miterlimit="2" stroke-opacity="1" stroke-width="0.27" transform="matrix(3.7037,0,0,3.7037,-1524.07,-72.2222)"><polyline fill="none" points="438,46 440,48" vector-effect="none"/></g><defs><clipPath id="clip8"><path d="M414,22 L464,22 L464,72 L414,72 L414,22 z"/></clipPath></defs><g clip-path="url(#clip8)" fill="none" opacity="1" stroke="#000000" stroke-linecap="butt" stroke-linejoin="miter" stroke-miterlimit="2" stroke-opacity="1" stroke-width="0.27" transform="matrix(3.7037,0,0,3.7037,-1524.07,-72.2222)"><polyline fill="none" points="440,48 440,46" vector-effect="none"/></g><defs><clipPath id="clip9"><path d="M414,22 L464,22 L464,72 L414,72 L414,22 z"/></clipPath></defs><g clip-path="url(#clip9)" fill="none" opacity="1" stroke="#000000" stroke-linecap="butt" stroke-linejoin="miter" stroke-miterlimit="2" stroke-opacity="1" stroke-width="0.27" transform="matrix(3.7037,0,0,3.7037,-1524.07,-72.2222)"><polyline fill="none" points="440,46 438,48" vector-effect="none"/></g><defs><clipPath id="clip10"><path d="M414,22 L464,22 L464,72 L414,72 L414,22 z"/></clipPath></defs><g clip-path="url(#clip10)" fill="none" opacity="1" stroke="#000000" stroke-linecap="butt" stroke-linejoin="miter" stroke-miterlimit="2" stroke-opacity="1" stroke-width="0.27" transform="matrix(3.7037,0,0,3.7037,-1524.07,-72.2222)"><polyline fill="none" points="438,48 440,46" vector-effect="none"/></g><defs><clipPath id="clip11"><path d="M414,22 L464,22 L464,72 L414,72 L414,22 z"/></clipPath></defs><g clip-path="url(#clip11)" fill="none" opacity="1" stroke="#000000" stroke-linecap="butt" stroke-linejoin="miter" stroke-miterlimit="2" stroke-opacity="1" stroke-width="0.27" transform="matrix(3.7037,0,0,3.7037,-1524.07,-72.2222)"><polyline fill="none" points="443,43 454,32" vector-effect="none"/></g><defs><clipPath id="clip12"><path d="M414,22 L464,22 L464,72 L414,72 L414,22 z"/></clipPath></defs><g clip-path="url(#clip12)" fill="none" opacity="1" stroke="#000000" stroke-linecap="butt" stroke-linejoin="miter" stroke-miterlimit="2" stroke-opacity="1" stroke-width="0.27" transform="matrix(3.7037,0,0,3.7037,-1524.07,-72.2222)"><polyline fill="none" points="454,32 451,40" vector-effect="none"/></g><defs><clipPath id="clip13"><path d="M414,22 L464,22 L464,72 L414,72 L414,22 z"/></clipPath></defs><g clip-path="url(#clip13)" fill="none" opacity="1" stroke="#000000" stroke-linecap="butt" stroke-linejoin="miter" stroke-miterlimit="2" stroke-opacity="1" stroke-width="0.27" transform="matrix(3.7037,0,0,3.7037,-1524.07,-72.2222)"><polyline fill="none" points="451,40 454,32" vector-effect="none"/></g><defs><clipPath id="clip14"><path d="M414,22 L464,22 L464,72 L414,72 L414,22 z"/></clipPath></defs><g clip-path="url(#clip14)" fill="none" opacity="1" stroke="#000000" stroke-linecap="butt" stroke-linejoin="miter" stroke-miterlimit="2" stroke-opacity="1" stroke-width="0.27" transform="matrix(3.7037,0,0,3.7037,-1524.07,-72.2222)"><polyline fill="none" points="454,32 446,35" vector-effect="none"/></g><defs><clipPath id="clip15"><path d="M414,22 L464,22 L464,72 L414,72 L414,22 z"/></clipPath></defs><g clip-path="url(#clip15)" fill="none" opacity="1" stroke="#000000" stroke-linecap="butt" stroke-linejoin="miter" stroke-miterlimit="2" stroke-opacity="1" stroke-width="0.27" transform="matrix(3.7037,0,0,3.7037,-1524.07,-72.2222)"><polyline fill="none" points="443,51 454,62" vector-effect="none"/></g><defs><clipPath id="clip16"><path d="M414,22 L464,22 L464,72 L414,72 L414,22 z"/></clipPath></defs><g clip-path="url(#clip16)" fill="none" opacity="1" stroke="#000000" stroke-linecap="butt" stroke-linejoin="miter" stroke-miterlimit="2" stroke-opacity="1" stroke-width="0.27" transform="matrix(3.7037,0,0,3.7037,-1524.07,-72.2222)"><polyline fill="none" points="454,62 451,54" vector-effect="none"/></g><defs><clipPath id="clip17"><path d="M414,22 L464,22 L464,72 L414,72 L414,22 z"/></clipPath></defs><g clip-path="url(#clip17)" fill="none" opacity="1" stroke="#000000" stroke-linecap="butt" stroke-linejoin="miter" stroke-miterlimit="2" stroke-opacity="1" stroke-width="0.27" transform="matrix(3.7037,0,0,3.7037,-1524.07,-72.2222)"><polyline fill="none" points="451,54 454,62" vector-effect="none"/></g><defs><clipPath id="clip18"><path d="M414,22 L464,22 L464,72 L414,72 L414,22 z"/></clipPath></defs><g clip-path="url(#clip18)" fill="none" opacity="1" stroke="#000000" stroke-linecap="butt" stroke-linejoin="miter" stroke-miterlimit="2" stroke-opacity="1" stroke-width="0.27" transform="matrix(3.7037,0,0,3.7037,-1524.07,-72.2222)"><polyline fill="none" points="454,62 446,59" vector-effect="none"/></g><defs><clipPath id="clip19"><path d="M414,22 L464,22 L464,72 L414,72 L414,22 z"/></clipPath></defs><g clip-path="url(#clip19)" fill="none" opacity="1" stroke="#000000" stroke-linecap="butt" stroke-linejoin="miter" stroke-miterlimit="2" stroke-opacity="1" stroke-width="0.27" transform="matrix(3.7037,0,0,3.7037,-1524.07,-72.2222)"><polyline fill="none" points="435,43 424,32" vector-effect="none"/></g><defs><clipPath id="clip20"><path d="M414,22 L464,22 L464,72 L414,72 L414,22 z"/></clipPath></defs><g clip-path="url(#clip20)" fill="none" opacity="1" stroke="#000000" stroke-linecap="butt" stroke-linejoin="miter" stroke-miterlimit="2" stroke-opacity="1" stroke-width="0.27" transform="matrix(3.7037,0,0,3.7037,-1524.07,-72.2222)"><polyline fill="none" points="424,32 427,40" vector-effect="none"/></g><defs><clipPath id="clip21"><path d="M414,22 L464,22 L464,72 L414,72 L414,22 z"/></clipPath></defs><g clip-path="url(#clip21)" fill="none" opacity="1" stroke="#000000" stroke-linecap="butt" stroke-linejoin="miter" stroke-miterlimit="2" stroke-opacity="1" stroke-width="0.27" transform="matrix(3.7037,0,0,3.7037,-1524.07,-72.2222)"><polyline fill="none" points="427,40 424,32" vector-effect="none"/></g><defs><clipPath id="clip22"><path d="M414,22 L464,22 L464,72 L414,72 L414,22 z"/></clipPath></defs><g clip-path="url(#clip22)" fill="none" opacity="1" stroke="#000000" stroke-linecap="butt" stroke-linejoin="miter" stroke-miterlimit="2" stroke-opacity="1" stroke-width="0.27" transform="matrix(3.7037,0,0,3.7037,-1524.07,-72.2222)"><polyline fill="none" points="424,32 432,35" vector-effect="none"/></g><defs><clipPath id="clip23"><path d="M414,22 L464,22 L464,72 L414,72 L414,22 z"/></clipPath></defs><g clip-path="url(#clip23)" fill="none" opacity="1" stroke="#000000" stroke-linecap="butt" stroke-linejoin="miter" stroke-miterlimit="2" stroke-opacity="1" stroke-width="0.27" transform="matrix(3.7037,0,0,3.7037,-1524.07,-72.2222)"><polyline fill="none" points="435,51 424,62" vector-effect="none"/></g><defs><clipPath id="clip24"><path d="M414,22 L464,22 L464,72 L414,72 L414,22 z"/></clipPath></defs><g clip-path="url(#clip24)" fill="none" opacity="1" stroke="#000000" stroke-linecap="butt" stroke-linejoin="miter" stroke-miterlimit="2" stroke-opacity="1" stroke-width="0.27" transform="matrix(3.7037,0,0,3.7037,-1524.07,-72.2222)"><polyline fill="none" points="424,62 427,54" vector-effect="none"/></g><defs><clipPath id="clip25"><path d="M414,22 L464,22 L464,72 L414,72 L414,22 z"/></clipPath></defs><g clip-path="url(#clip25)" fill="none" opacity="1" stroke="#000000" stroke-linecap="butt" stroke-linejoin="miter" stroke-miterlimit="2" stroke-opacity="1" stroke-width="0.27" transform="matrix(3.7037,0,0,3.7037,-1524.07,-72.2222)"><polyline fill="none" points="427,54 424,62" vector-effect="none"/></g><defs><clipPath id="clip26"><path d="M414,22 L464,22 L464,72 L414,72 L414,22 z"/></clipPath></defs><g clip-path="url(#clip26)" fill="none" opacity="1" stroke="#000000" stroke-linecap="butt" stroke-linejoin="miter" stroke-miterlimit="2" stroke-opacity="1" stroke-width="0.27" transform="matrix(3.7037,0,0,3.7037,-1524.07,-72.2222)"><polyline fill="none" points="424,62 432,59" vector-effect="none"/></g><defs><clipPath id="clip27"><path d="M414,22 L464,22 L464,72 L414,72 L414,22 z"/></clipPath></defs><g clip-path="url(#clip27)" fill="none" opacity="1" stroke="#000000" stroke-linecap="butt" stroke-linejoin="miter" stroke-miterlimit="2" stroke-opacity="1" stroke-width="0.27" transform="matrix(3.7037,0,0,3.7037,-1524.07,-72.2222)"><polyline fill="none" points="439,53 439,69" vector-effect="none"/></g><defs><clipPath id="clip28"><path d="M414,22 L464,22 L464,72 L414,72 L414,22 z"/></clipPath></defs><g clip-path="url(#clip28)" fill="none" opacity="1" stroke="#000000" stroke-linecap="butt" stroke-linejoin="miter" stroke-miterlimit="2" stroke-opacity="1" stroke-width="0.27" transform="matrix(3.7037,0,0,3.7037,-1524.07,-72.2222)"><polyline fill="none" points="439,69 442,58" vector-effect="none"/></g><defs><clipPath id="clip29"><path d="M414,22 L464,22 L464,72 L414,72 L414,22 z"/></clipPath></defs><g clip-path="url(#clip29)" fill="none" opacity="1" stroke="#000000" stroke-linecap="butt" stroke-linejoin="miter" stroke-miterlimit="2" stroke-opacity="1" stroke-width="0.27" transform="matrix(3.7037,0,0,3.7037,-1524.07,-72.2222)"><polyline fill="none" points="442,58 439,69" vector-effect="none"/></g><defs><clipPath id="clip30"><path d="M414,22 L464,22 L464,72 L414,72 L414,22 z"/></clipPath></defs><g clip-path="url(#clip30)" fill="none" opacity="1" stroke="#000000" stroke-linecap="butt" stroke-linejoin="miter" stroke-miterlimit="2" stroke-opacity="1" stroke-width="0.27" transform="matrix(3.7037,0,0,3.7037,-1524.07,-72.2222)"><polyline fill="none" points="439,69 436,58" vector-effect="none"/></g><defs><clipPath id="clip31"><path d="M414,22 L464,22 L464,72 L414,72 L414,22 z"/></clipPath></defs><g clip-path="url(#clip31)" fill="none" opacity="1" stroke="#000000" stroke-linecap="butt" stroke-linejoin="miter" stroke-miterlimit="2" stroke-opacity="1" stroke-width="0.27" transform="matrix(3.7037,0,0,3.7037,-1524.07,-72.2222)"><polyline fill="none" points="439,42 439,25" vector-effect="none"/></g><defs><clipPath id="clip32"><path d="M414,22 L464,22 L464,72 L414,72 L414,22 z"/></clipPath></defs><g clip-path="url(#clip32)" fill="none" opacity="1" stroke="#000000" stroke-linecap="butt" stroke-linejoin="miter" stroke-miterlimit="2" stroke-opacity="1" stroke-width="0.27" transform="matrix(3.7037,0,0,3.7037,-1524.07,-72.2222)"><polyline fill="none" points="439,25 442,36" vector-effect="none"/></g><defs><clipPath id="clip33"><path d="M414,22 L464,22 L464,72 L414,72 L414,22 z"/></clipPath></defs><g clip-path="url(#clip33)" fill="none" opacity="1" stroke="#000000" stroke-linecap="butt" stroke-linejoin="miter" stroke-miterlimit="2" stroke-opacity="1" stroke-width="0.27" transform="matrix(3.7037,0,0,3.7037,-1524.07,-72.2222)"><polyline fill="none" points="442,36 439,25" vector-effect="none"/></g><defs><clipPath id="clip34"><path d="M414,22 L464,22 L464,72 L414,72 L414,22 z"/></clipPath></defs><g clip-path="url(#clip34)" fill="none" opacity="1" stroke="#000000" stroke-linecap="butt" stroke-linejoin="miter" stroke-miterlimit="2" stroke-opacity="1" stroke-width="0.27" transform="matrix(3.7037,0,0,3.7037,-1524.07,-72.2222)"><polyline fill="none" points="439,25 436,36" vector-effect="none"/></g><defs><clipPath id="clip35"><path d="M414,22 L464,22 L464,72 L414,72 L414,22 z"/></clipPath></defs><g clip-path="url(#clip35)" fill="none" opacity="1" stroke="#000000" stroke-linecap="butt" stroke-linejoin="miter" stroke-miterlimit="2" stroke-opacity="1" stroke-width="0.27" transform="matrix(3.7037,0,0,3.7037,-1524.07,-72.2222)"><polyline fill="none" points="445,47 461,47" vector-effect="none"/></g><defs><clipPath id="clip36"><path d="M414,22 L464,22 L464,72 L414,72 L414,22 z"/></clipPath></defs><g clip-path="url(#clip36)" fill="none" opacity="1" stroke="#000000" stroke-linecap="butt" stroke-linejoin="miter" stroke-miterlimit="2" stroke-opacity="1" stroke-width="0.27" transform="matrix(3.7037,0,0,3.7037,-1524.07,-72.2222)"><polyline fill="none" points="461,47 450,44" vector-effect="none"/></g><defs><clipPath id="clip37"><path d="M414,22 L464,22 L464,72 L414,72 L414,22 z"/></clipPath></defs><g clip-path="url(#clip37)" fill="none" opacity="1" stroke="#000000" stroke-linecap="butt" stroke-linejoin="miter" stroke-miterlimit="2" stroke-opacity="1" stroke-width="0.27" transform="matrix(3.7037,0,0,3.7037,-1524.07,-72.2222)"><polyline fill="none" points="450,44 461,47" vector-effect="none"/></g><defs><clipPath id="clip38"><path d="M414,22 L464,22 L464,72 L414,72 L414,22 z"/></clipPath></defs><g clip-path="url(#clip38)" fill="none" opacity="1" stroke="#000000" stroke-linecap="butt" stroke-linejoin="miter" stroke-miterlimit="2" stroke-opacity="1" stroke-width="0.27" transform="matrix(3.7037,0,0,3.7037,-1524.07,-72.2222)"><polyline fill="none" points="461,47 450,50" vector-effect="none"/></g><defs><clipPath id="clip39"><path d="M414,22 L464,22 L464,72 L414,72 L414,22 z"/></clipPath></defs><g clip-path="url(#clip39)" fill="none" opacity="1" stroke="#000000" stroke-linecap="butt" stroke-linejoin="miter" stroke-miterlimit="2" stroke-opacity="1" stroke-width="0.27" transform="matrix(3.7037,0,0,3.7037,-1524.07,-72.2222)"><polyline fill="none" points="434,47 417,47" vector-effect="none"/></g><defs><clipPath id="clip40"><path d="M414,22 L464,22 L464,72 L414,72 L414,22 z"/></clipPath></defs><g clip-path="url(#clip40)" fill="none" opacity="1" stroke="#000000" stroke-linecap="butt" stroke-linejoin="miter" stroke-miterlimit="2" stroke-opacity="1" stroke-width="0.27" transform="matrix(3.7037,0,0,3.7037,-1524.07,-72.2222)"><polyline fill="none" points="417,47 428,44" vector-effect="none"/></g><defs><clipPath id="clip41"><path d="M414,22 L464,22 L464,72 L414,72 L414,22 z"/></clipPath></defs><g clip-path="url(#clip41)" fill="none" opacity="1" stroke="#000000" stroke-linecap="butt" stroke-linejoin="miter" stroke-miterlimit="2" stroke-opacity="1" stroke-width="0.27" transform="matrix(3.7037,0,0,3.7037,-1524.07,-72.2222)"><polyline fill="none" points="428,44 417,47" vector-effect="none"/></g><defs><clipPath id="clip42"><path d="M414,22 L464,22 L464,72 L414,72 L414,22 z"/></clipPath></defs><g clip-path="url(#clip42)" fill="none" opacity="1" stroke="#000000" stroke-linecap="butt" stroke-linejoin="miter" stroke-miterlimit="2" stroke-opacity="1" stroke-width="0.27" transform="matrix(3.7037,0,0,3.7037,-1524.07,-72.2222)"><polyline fill="none" points="417,47 428,50" vector-effect="none"/></g><defs><clipPath id="clip47"><path d="M-2,-2 L52,-2 L52,52 L-2,52 L-2,-2 z"/></clipPath></defs><g clip-path="url(#clip47)" fill="none" opacity="1" stroke="#000000" stroke-linecap="butt" stroke-linejoin="miter" stroke-miterlimit="2" stroke-opacity="1" stroke-width="0.592305" transform="matrix(3.7037,0,0,3.7037,7.40741,7.40741)"><path d="M0,0 L50,0 L50,50 L0,50 L0,0 z" fill-rule="evenodd" vector-effect="none"/></g></g></svg>
