<?xml version="1.0" encoding="UTF-8"?><svg width="52.9167mm" height="46.0375mm" viewBox="0 0 200 174" xmlns="http://www.w3.org/2000/svg" xmlns:xlink="http://www.w3.org/1999/xlink"><g fill="none" stroke="black" stroke-width="1" fill-rule="evenodd" stroke-linecap="square" stroke-linejoin="bevel"><g clip-path="none" fill="none" opacity="1" stroke="none" stroke-opacity="0" transform="matrix(1,0,0,1,0,0)"><path d="M0,0 L200,0 L200,174 L0,174 L0,0 z" fill-rule="evenodd" vector-effect="none"/></g><defs><clipPath id="clip3"><path d="M7,17 L-32,17 L-32,-17 L7,-17 L7,17 z"/></clipPath></defs><g clip-path="url(#clip3)" fill="none" opacity="1" stroke="#000000" stroke-linecap="round" stroke-linejoin="miter" stroke-miterlimit="2" stroke-opacity="1" stroke-width="2" transform="matrix(-5.12821,0,0,-5.12821,35.8974,87.1795)"><path d="M5,-5 L0,0 L5,5" fill-rule="evenodd" vector-effect="none"/></g><defs><clipPath id="clip6"><path d="M-7,-2 L32,-2 L32,32 L-7,32 L-7,-2 z"/></clipPath></defs><g clip-path="url(#clip6)" fill="#ffffff" fill-opacity="1" opacity="1" stroke="none" stroke-opacity="0" transform="matrix(5.12821,0,0,5.12821,35.8974,10.2564)"><path d="M0,0 L30,0 L30,30 L0,30 L0,0 z" fill-rule="evenodd" vector-effect="none"/></g><defs><clipPath id="clip10"><path d="M114,15 L144,15 L144,45 L114,45 L114,15 z"/></clipPath></defs><g clip-path="url(#clip10)" fill="none" opacity="1" stroke="#000000" stroke-linecap="butt" stroke-linejoin="miter" stroke-miterlimit="2" stroke-opacity="1" stroke-width="0.195" transform="matrix(5.12821,0,0,5.12821,-551.282,-64.1026)"><polyline fill="none" points="121,20 140,20" vector-effect="none"/></g><defs><clipPath id="clip11"><path d="M114,15 L144,15 L144,45 L114,45 L114,15 z"/></clipPath></defs><g clip-path="url(#clip11)" fill="none" opacity="1" stroke="#000000" stroke-linecap="butt" stroke-linejoin="miter" stroke-miterlimit="2" stroke-opacity="1" stroke-width="0.195" transform="matrix(5.12821,0,0,5.12821,-551.282,-64.1026)"><polyline fill="none" points="140,20 140,32" vector-effect="none"/></g><defs><clipPath id="clip12"><path d="M114,15 L144,15 L144,45 L114,45 L114,15 z"/></clipPath></defs><g clip-path="url(#clip12)" fill="none" opacity="1" stroke="#000000" stroke-linecap="butt" stroke-linejoin="miter" stroke-miterlimit="2" stroke-opacity="1" stroke-width="0.195" transform="matrix(5.12821,0,0,5.12821,-551.282,-64.1026)"><polyline fill="none" points="140,32 121,32" vector-effect="none"/></g><defs><clipPath id="clip13"><path d="M114,15 L144,15 L144,45 L114,45 L114,15 z"/></clipPath></defs><g clip-path="url(#clip13)" fill="none" opacity="1" stroke="#000000" stroke-linecap="butt" stroke-linejoin="miter" stroke-miterlimit="2" stroke-opacity="1" stroke-width="0.195" transform="matrix(5.12821,0,0,5.12821,-551.282,-64.1026)"><polyline fill="none" points="121,32 121,20" vector-effect="none"/></g><defs><clipPath id="clip14"><path d="M114,15 L144,15 L144,45 L114,45 L114,15 z"/></clipPath></defs><g clip-path="url(#clip14)" fill="none" opacity="1" stroke="#000000" stroke-linecap="butt" stroke-linejoin="miter" stroke-miterlimit="2" stroke-opacity="1" stroke-width="0.195" transform="matrix(5.12821,0,0,5.12821,-551.282,-64.1026)"><polyline fill="none" points="138,26 136,27" vector-effect="none"/></g><defs><clipPath id="clip15"><path d="M114,15 L144,15 L144,45 L114,45 L114,15 z"/></clipPath></defs><g clip-path="url(#clip15)" fill="none" opacity="1" stroke="#000000" stroke-linecap="butt" stroke-linejoin="miter" stroke-miterlimit="2" stroke-opacity="1" stroke-width="0.195" transform="matrix(5.12821,0,0,5.12821,-551.282,-64.1026)"><polyline fill="none" points="136,27 134,28" vector-effect="none"/></g><defs><clipPath id="clip16"><path d="M114,15 L144,15 L144,45 L114,45 L114,15 z"/></clipPath></defs><g clip-path="url(#clip16)" fill="none" opacity="1" stroke="#000000" stroke-linecap="butt" stroke-linejoin="miter" stroke-miterlimit="2" stroke-opacity="1" stroke-width="0.195" transform="matrix(5.12821,0,0,5.12821,-551.282,-64.1026)"><polyline fill="none" points="134,28 132,27" vector-effect="none"/></g><defs><clipPath id="clip17"><path d="M114,15 L144,15 L144,45 L114,45 L114,15 z"/></clipPath></defs><g clip-path="url(#clip17)" fill="none" opacity="1" stroke="#000000" stroke-linecap="butt" stroke-linejoin="miter" stroke-miterlimit="2" stroke-opacity="1" stroke-width="0.195" transform="matrix(5.12821,0,0,5.12821,-551.282,-64.1026)"><polyline fill="none" points="132,27 130,26" vector-effect="none"/></g><defs><clipPath id="clip18"><path d="M114,15 L144,15 L144,45 L114,45 L114,15 z"/></clipPath></defs><g clip-path="url(#clip18)" fill="none" opacity="1" stroke="#000000" stroke-linecap="butt" stroke-linejoin="miter" stroke-miterlimit="2" stroke-opacity="1" stroke-width="0.195" transform="matrix(5.12821,0,0,5.12821,-551.282,-64.1026)"><polyline fill="none" points="130,26 129,26" vector-effect="none"/></g><defs><clipPath id="clip19"><path d="M114,15 L144,15 L144,45 L114,45 L114,15 z"/></clipPath></defs><g clip-path="url(#clip19)" fill="none" opacity="1" stroke="#000000" stroke-linecap="butt" stroke-linejoin="miter" stroke-miterlimit="2" stroke-opacity="1" stroke-width="0.195" transform="matrix(5.12821,0,0,5.12821,-551.282,-64.1026)"><polyline fill="none" points="129,26 126,26" vector-effect="none"/></g><defs><clipPath id="clip20"><path d="M114,15 L144,15 L144,45 L114,45 L114,15 z"/></clipPath></defs><g clip-path="url(#clip20)" fill="none" opacity="1" stroke="#000000" stroke-linecap="butt" stroke-linejoin="miter" stroke-miterlimit="2" stroke-opacity="1" stroke-width="0.195" transform="matrix(5.12821,0,0,5.12821,-551.282,-64.1026)"><polyline fill="none" points="126,26 125,25" vector-effect="none"/></g><defs><clipPath id="clip21"><path d="M114,15 L144,15 L144,45 L114,45 L114,15 z"/></clipPath></defs><g clip-path="url(#clip21)" fill="none" opacity="1" stroke="#000000" stroke-linecap="butt" stroke-linejoin="miter" stroke-miterlimit="2" stroke-opacity="1" stroke-width="0.195" transform="matrix(5.12821,0,0,5.12821,-551.282,-64.1026)"><polyline fill="none" points="125,25 124,29" vector-effect="none"/></g><defs><clipPath id="clip22"><path d="M114,15 L144,15 L144,45 L114,45 L114,15 z"/></clipPath></defs><g clip-path="url(#clip22)" fill="none" opacity="1" stroke="#000000" stroke-linecap="butt" stroke-linejoin="miter" stroke-miterlimit="2" stroke-opacity="1" stroke-width="0.195" transform="matrix(5.12821,0,0,5.12821,-551.282,-64.1026)"><polyline fill="none" points="124,29 123,30" vector-effect="none"/></g><defs><clipPath id="clip27"><path d="M-7,-2 L32,-2 L32,32 L-7,32 L-7,-2 z"/></clipPath></defs><g clip-path="url(#clip27)" fill="none" opacity="1" stroke="#000000" stroke-linecap="butt" stroke-linejoin="miter" stroke-miterlimit="2" stroke-opacity="1" stroke-width="1.04003" transform="matrix(5.12821,0,0,5.12821,35.8974,10.2564)"><path d="M0,0 L30,0 L30,30 L0,30 L0,0 z" fill-rule="evenodd" vector-effect="none"/></g></g></svg>
