<?xml version="1.0" encoding="UTF-8"?><svg width="52.9167mm" height="34.3958mm" viewBox="0 0 200 130" xmlns="http://www.w3.org/2000/svg" xmlns:xlink="http://www.w3.org/1999/xlink"><g fill="none" stroke="black" stroke-width="1" fill-rule="evenodd" stroke-linecap="square" stroke-linejoin="bevel"><g clip-path="none" fill="none" opacity="1" stroke="none" stroke-opacity="0" transform="matrix(1,0,0,1,0,0)"><path d="M0,0 L200,0 L200,130 L0,130 L0,0 z" fill-rule="evenodd" vector-effect="none"/></g><defs><clipPath id="clip3"><path d="M-42,-16 L7,-16 L7,16 L-42,16 L-42,-16 z"/></clipPath></defs><g clip-path="url(#clip3)" fill="none" opacity="1" stroke="#000000" stroke-linecap="round" stroke-linejoin="miter" stroke-miterlimit="2" stroke-opacity="1" stroke-width="2" transform="matrix(4.08163,0,0,4.08163,171.429,65.3061)"><path d="M0,-5 L5,0 L0,5" fill-rule="evenodd" vector-effect="none"/></g><defs><clipPath id="clip6"><path d="M-2,-2 L47,-2 L47,30 L-2,30 L-2,-2 z"/></clipPath></defs><g clip-path="url(#clip6)" fill="#ffffff" fill-opacity="1" opacity="1" stroke="none" stroke-opacity="0" transform="matrix(4.08163,0,0,4.08163,8.16327,8.16327)"><path d="M0,0 L40,0 L40,28 L0,28 L0,0 z" fill-rule="evenodd" vector-effect="none"/></g><defs><clipPath id="clip10"><path d="M15,41 L55,41 L55,69 L15,69 L15,41 z"/></clipPath></defs><g clip-path="url(#clip10)" fill="none" opacity="1" stroke="#000000" stroke-linecap="butt" stroke-linejoin="miter" stroke-miterlimit="2" stroke-opacity="1" stroke-width="0.245" transform="matrix(4.08163,0,0,4.08163,-51.0204,-157.143)"><polyline fill="none" points="49,62 44,62" vector-effect="none"/></g><defs><clipPath id="clip11"><path d="M15,41 L55,41 L55,69 L15,69 L15,41 z"/></clipPath></defs><g clip-path="url(#clip11)" fill="none" opacity="1" stroke="#000000" stroke-linecap="butt" stroke-linejoin="miter" stroke-miterlimit="2" stroke-opacity="1" stroke-width="0.245" transform="matrix(4.08163,0,0,4.08163,-51.0204,-157.143)"><polyline fill="none" points="44,62 44,48" vector-effect="none"/></g><defs><clipPath id="clip12"><path d="M15,41 L55,41 L55,69 L15,69 L15,41 z"/></clipPath></defs><g clip-path="url(#clip12)" fill="none" opacity="1" stroke="#000000" stroke-linecap="butt" stroke-linejoin="miter" stroke-miterlimit="2" stroke-opacity="1" stroke-width="0.245" transform="matrix(4.08163,0,0,4.08163,-51.0204,-157.143)"><polyline fill="none" points="44,48 38,48" vector-effect="none"/></g><defs><clipPath id="clip13"><path d="M15,41 L55,41 L55,69 L15,69 L15,41 z"/></clipPath></defs><g clip-path="url(#clip13)" fill="none" opacity="1" stroke="#000000" stroke-linecap="butt" stroke-linejoin="miter" stroke-miterlimit="2" stroke-opacity="1" stroke-width="0.245" transform="matrix(4.08163,0,0,4.08163,-51.0204,-157.143)"><polyline fill="none" points="38,48 38,62" vector-effect="none"/></g><defs><clipPath id="clip14"><path d="M15,41 L55,41 L55,69 L15,69 L15,41 z"/></clipPath></defs><g clip-path="url(#clip14)" fill="none" opacity="1" stroke="#000000" stroke-linecap="butt" stroke-linejoin="miter" stroke-miterlimit="2" stroke-opacity="1" stroke-width="0.245" transform="matrix(4.08163,0,0,4.08163,-51.0204,-157.143)"><polyline fill="none" points="38,62 30,62" vector-effect="none"/></g><defs><clipPath id="clip15"><path d="M15,41 L55,41 L55,69 L15,69 L15,41 z"/></clipPath></defs><g clip-path="url(#clip15)" fill="none" opacity="1" stroke="#000000" stroke-linecap="butt" stroke-linejoin="miter" stroke-miterlimit="2" stroke-opacity="1" stroke-width="0.245" transform="matrix(4.08163,0,0,4.08163,-51.0204,-157.143)"><polyline fill="none" points="30,62 30,48" vector-effect="none"/></g><defs><clipPath id="clip16"><path d="M15,41 L55,41 L55,69 L15,69 L15,41 z"/></clipPath></defs><g clip-path="url(#clip16)" fill="none" opacity="1" stroke="#000000" stroke-linecap="butt" stroke-linejoin="miter" stroke-miterlimit="2" stroke-opacity="1" stroke-width="0.245" transform="matrix(4.08163,0,0,4.08163,-51.0204,-157.143)"><polyline fill="none" points="30,48 25,48" vector-effect="none"/></g><defs><clipPath id="clip17"><path d="M15,41 L55,41 L55,69 L15,69 L15,41 z"/></clipPath></defs><g clip-path="url(#clip17)" fill="none" opacity="1" stroke="#000000" stroke-linecap="butt" stroke-linejoin="miter" stroke-miterlimit="2" stroke-opacity="1" stroke-width="0.245" transform="matrix(4.08163,0,0,4.08163,-51.0204,-157.143)"><polyline fill="none" points="25,48 25,62" vector-effect="none"/></g><defs><clipPath id="clip18"><path d="M15,41 L55,41 L55,69 L15,69 L15,41 z"/></clipPath></defs><g clip-path="url(#clip18)" fill="none" opacity="1" stroke="#000000" stroke-linecap="butt" stroke-linejoin="miter" stroke-miterlimit="2" stroke-opacity="1" stroke-width="0.245" transform="matrix(4.08163,0,0,4.08163,-51.0204,-157.143)"><polyline fill="none" points="25,62 21,62" vector-effect="none"/></g><defs><clipPath id="clip23"><path d="M-2,-2 L47,-2 L47,30 L-2,30 L-2,-2 z"/></clipPath></defs><g clip-path="url(#clip23)" fill="none" opacity="1" stroke="#000000" stroke-linecap="butt" stroke-linejoin="miter" stroke-miterlimit="2" stroke-opacity="1" stroke-width="0.569727" transform="matrix(4.08163,0,0,4.08163,8.16327,8.16327)"><path d="M0,0 L40,0 L40,28 L0,28 L0,0 z" fill-rule="evenodd" vector-effect="none"/></g></g></svg>
