<?xml version="1.0" encoding="UTF-8"?><svg width="52.9167mm" height="42.0688mm" viewBox="0 0 200 159" xmlns="http://www.w3.org/2000/svg" xmlns:xlink="http://www.w3.org/1999/xlink"><g fill="none" stroke="black" stroke-width="1" fill-rule="evenodd" stroke-linecap="square" stroke-linejoin="bevel"><g clip-path="none" fill="none" opacity="1" stroke="none" stroke-opacity="0" transform="matrix(1,0,0,1,0,0)"><path d="M0,0 L200,0 L200,159 L0,159 L0,0 z" fill-rule="evenodd" vector-effect="none"/></g><defs><clipPath id="clip3"><path d="M-37,-25 L7,-25 L7,10 L-37,10 L-37,-25 z"/></clipPath></defs><g clip-path="url(#clip3)" fill="none" opacity="1" stroke="#000000" stroke-linecap="round" stroke-linejoin="miter" stroke-miterlimit="2" stroke-opacity="1" stroke-width="2" transform="matrix(4.54545,0,0,4.54545,168.182,113.636)"><path d="M0,-5 L5,0 L0,5" fill-rule="evenodd" vector-effect="none"/></g><defs><clipPath id="clip6"><path d="M-37,-10 L7,-10 L7,25 L-37,25 L-37,-10 z"/></clipPath></defs><g clip-path="url(#clip6)" fill="none" opacity="1" stroke="#000000" stroke-linecap="round" stroke-linejoin="miter" stroke-miterlimit="2" stroke-opacity="1" stroke-width="2" transform="matrix(4.54545,0,0,4.54545,168.182,45.4545)"><path d="M0,-5 L5,0 L0,5" fill-rule="evenodd" vector-effect="none"/></g><defs><clipPath id="clip9"><path d="M7,25 L-37,25 L-37,-10 L7,-10 L7,25 z"/></clipPath></defs><g clip-path="url(#clip9)" fill="none" opacity="1" stroke="#000000" stroke-linecap="round" stroke-linejoin="miter" stroke-miterlimit="2" stroke-opacity="1" stroke-width="2" transform="matrix(-4.54545,0,0,-4.54545,31.8182,113.636)"><path d="M5,-5 L0,0 L5,5" fill-rule="evenodd" vector-effect="none"/></g><defs><clipPath id="clip12"><path d="M7,10 L-37,10 L-37,-25 L7,-25 L7,10 z"/></clipPath></defs><g clip-path="url(#clip12)" fill="none" opacity="1" stroke="#000000" stroke-linecap="round" stroke-linejoin="miter" stroke-miterlimit="2" stroke-opacity="1" stroke-width="2" transform="matrix(-4.54545,0,0,-4.54545,31.8182,45.4545)"><path d="M5,-5 L0,0 L5,5" fill-rule="evenodd" vector-effect="none"/></g><defs><clipPath id="clip15"><path d="M-7,-2 L37,-2 L37,33 L-7,33 L-7,-2 z"/></clipPath></defs><g clip-path="url(#clip15)" fill="#ffffff" fill-opacity="1" opacity="1" stroke="none" stroke-opacity="0" transform="matrix(4.54545,0,0,4.54545,31.8182,9.09091)"><path d="M0,0 L30,0 L30,31 L0,31 L0,0 z" fill-rule="evenodd" vector-effect="none"/></g><defs><clipPath id="clip19"><path d="M20,17 L50,17 L50,48 L20,48 L20,17 z"/></clipPath></defs><g clip-path="url(#clip19)" fill="none" opacity="1" stroke="#000000" stroke-linecap="butt" stroke-linejoin="miter" stroke-miterlimit="2" stroke-opacity="1" stroke-width="0.22" transform="matrix(4.54545,0,0,4.54545,-56.8182,-65.9091)"><polyline fill="none" points="29,24 28,21" vector-effect="none"/></g><defs><clipPath id="clip20"><path d="M20,17 L50,17 L50,48 L20,48 L20,17 z"/></clipPath></defs><g clip-path="url(#clip20)" fill="none" opacity="1" stroke="#000000" stroke-linecap="butt" stroke-linejoin="miter" stroke-miterlimit="2" stroke-opacity="1" stroke-width="0.22" transform="matrix(4.54545,0,0,4.54545,-56.8182,-65.9091)"><polyline fill="none" points="28,21 27,24" vector-effect="none"/></g><defs><clipPath id="clip21"><path d="M20,17 L50,17 L50,48 L20,48 L20,17 z"/></clipPath></defs><g clip-path="url(#clip21)" fill="none" opacity="1" stroke="#000000" stroke-linecap="butt" stroke-linejoin="miter" stroke-miterlimit="2" stroke-opacity="1" stroke-width="0.22" transform="matrix(4.54545,0,0,4.54545,-56.8182,-65.9091)"><polyline fill="none" points="27,24 28,21" vector-effect="none"/></g><defs><clipPath id="clip22"><path d="M20,17 L50,17 L50,48 L20,48 L20,17 z"/></clipPath></defs><g clip-path="url(#clip22)" fill="none" opacity="1" stroke="#000000" stroke-linecap="butt" stroke-linejoin="miter" stroke-miterlimit="2" stroke-opacity="1" stroke-width="0.22" transform="matrix(4.54545,0,0,4.54545,-56.8182,-65.9091)"><polyline fill="none" points="28,21 28,40" vector-effect="none"/></g><defs><clipPath id="clip23"><path d="M20,17 L50,17 L50,48 L20,48 L20,17 z"/></clipPath></defs><g clip-path="url(#clip23)" fill="none" opacity="1" stroke="#000000" stroke-linecap="butt" stroke-linejoin="miter" stroke-miterlimit="2" stroke-opacity="1" stroke-width="0.22" transform="matrix(4.54545,0,0,4.54545,-56.8182,-65.9091)"><polyline fill="none" points="40,30 28,40" vector-effect="none"/></g><defs><clipPath id="clip24"><path d="M20,17 L50,17 L50,48 L20,48 L20,17 z"/></clipPath></defs><g clip-path="url(#clip24)" fill="none" opacity="1" stroke="#000000" stroke-linecap="butt" stroke-linejoin="miter" stroke-miterlimit="2" stroke-opacity="1" stroke-width="0.22" transform="matrix(4.54545,0,0,4.54545,-56.8182,-65.9091)"><polyline fill="none" points="28,40 46,40" vector-effect="none"/></g><defs><clipPath id="clip25"><path d="M20,17 L50,17 L50,48 L20,48 L20,17 z"/></clipPath></defs><g clip-path="url(#clip25)" fill="none" opacity="1" stroke="#000000" stroke-linecap="butt" stroke-linejoin="miter" stroke-miterlimit="2" stroke-opacity="1" stroke-width="0.22" transform="matrix(4.54545,0,0,4.54545,-56.8182,-65.9091)"><polyline fill="none" points="46,40 44,41" vector-effect="none"/></g><defs><clipPath id="clip26"><path d="M20,17 L50,17 L50,48 L20,48 L20,17 z"/></clipPath></defs><g clip-path="url(#clip26)" fill="none" opacity="1" stroke="#000000" stroke-linecap="butt" stroke-linejoin="miter" stroke-miterlimit="2" stroke-opacity="1" stroke-width="0.22" transform="matrix(4.54545,0,0,4.54545,-56.8182,-65.9091)"><polyline fill="none" points="44,41 46,40" vector-effect="none"/></g><defs><clipPath id="clip27"><path d="M20,17 L50,17 L50,48 L20,48 L20,17 z"/></clipPath></defs><g clip-path="url(#clip27)" fill="none" opacity="1" stroke="#000000" stroke-linecap="butt" stroke-linejoin="miter" stroke-miterlimit="2" stroke-opacity="1" stroke-width="0.22" transform="matrix(4.54545,0,0,4.54545,-56.8182,-65.9091)"><polyline fill="none" points="46,40 43,39" vector-effect="none"/></g><defs><clipPath id="clip28"><path d="M20,17 L50,17 L50,48 L20,48 L20,17 z"/></clipPath></defs><g clip-path="url(#clip28)" fill="none" opacity="1" stroke="#000000" stroke-linecap="butt" stroke-linejoin="miter" stroke-miterlimit="2" stroke-opacity="1" stroke-width="0.22" transform="matrix(4.54545,0,0,4.54545,-56.8182,-65.9091)"><polyline fill="none" points="40,34 40,32" vector-effect="none"/></g><defs><clipPath id="clip29"><path d="M20,17 L50,17 L50,48 L20,48 L20,17 z"/></clipPath></defs><g clip-path="url(#clip29)" fill="none" opacity="1" stroke="#000000" stroke-linecap="butt" stroke-linejoin="miter" stroke-miterlimit="2" stroke-opacity="1" stroke-width="0.22" transform="matrix(4.54545,0,0,4.54545,-56.8182,-65.9091)"><polyline fill="none" points="40,38 40,35" vector-effect="none"/></g><defs><clipPath id="clip30"><path d="M20,17 L50,17 L50,48 L20,48 L20,17 z"/></clipPath></defs><g clip-path="url(#clip30)" fill="none" opacity="1" stroke="#000000" stroke-linecap="butt" stroke-linejoin="miter" stroke-miterlimit="2" stroke-opacity="1" stroke-width="0.22" transform="matrix(4.54545,0,0,4.54545,-56.8182,-65.9091)"><polyline fill="none" points="40,40 40,39" vector-effect="none"/></g><defs><clipPath id="clip31"><path d="M20,17 L50,17 L50,48 L20,48 L20,17 z"/></clipPath></defs><g clip-path="url(#clip31)" fill="none" opacity="1" stroke="#000000" stroke-linecap="butt" stroke-linejoin="miter" stroke-miterlimit="2" stroke-opacity="1" stroke-width="0.22" transform="matrix(4.54545,0,0,4.54545,-56.8182,-65.9091)"><polyline fill="none" points="36,30 39,30" vector-effect="none"/></g><defs><clipPath id="clip32"><path d="M20,17 L50,17 L50,48 L20,48 L20,17 z"/></clipPath></defs><g clip-path="url(#clip32)" fill="none" opacity="1" stroke="#000000" stroke-linecap="butt" stroke-linejoin="miter" stroke-miterlimit="2" stroke-opacity="1" stroke-width="0.22" transform="matrix(4.54545,0,0,4.54545,-56.8182,-65.9091)"><polyline fill="none" points="33,30 35,30" vector-effect="none"/></g><defs><clipPath id="clip33"><path d="M20,17 L50,17 L50,48 L20,48 L20,17 z"/></clipPath></defs><g clip-path="url(#clip33)" fill="none" opacity="1" stroke="#000000" stroke-linecap="butt" stroke-linejoin="miter" stroke-miterlimit="2" stroke-opacity="1" stroke-width="0.22" transform="matrix(4.54545,0,0,4.54545,-56.8182,-65.9091)"><polyline fill="none" points="29,30 31,30" vector-effect="none"/></g><defs><clipPath id="clip34"><path d="M20,17 L50,17 L50,48 L20,48 L20,17 z"/></clipPath></defs><g clip-path="url(#clip34)" fill="#000000" fill-opacity="1" opacity="1" stroke="none" stroke-opacity="0" transform="matrix(4.54545,0,0,4.54545,-56.8182,-65.9091)"><path d="M27.5,29.5 L28.5,29.5 L28.5,30.5 L27.5,30.5 L27.5,29.5 z" fill-rule="evenodd" vector-effect="none"/></g><defs><clipPath id="clip35"><path d="M20,17 L50,17 L50,48 L20,48 L20,17 z"/></clipPath></defs><g clip-path="url(#clip35)" fill="none" opacity="1" stroke="#000000" stroke-linecap="square" stroke-linejoin="bevel" stroke-opacity="1" stroke-width="1" transform="matrix(4.54545,0,0,4.54545,-56.8182,-65.9091)"><polyline fill="none" points="40,31 40,30" vector-effect="none"/></g><defs><clipPath id="clip36"><path d="M20,17 L50,17 L50,48 L20,48 L20,17 z"/></clipPath></defs><g clip-path="url(#clip36)" fill="none" opacity="1" stroke="#000000" stroke-linecap="square" stroke-linejoin="bevel" stroke-opacity="1" stroke-width="1" transform="matrix(4.54545,0,0,4.54545,-56.8182,-65.9091)"><polyline fill="none" points="40,30 39,30" vector-effect="none"/></g><defs><clipPath id="clip41"><path d="M-7,-2 L37,-2 L37,33 L-7,33 L-7,-2 z"/></clipPath></defs><g clip-path="url(#clip41)" fill="none" opacity="1" stroke="#000000" stroke-linecap="butt" stroke-linejoin="miter" stroke-miterlimit="2" stroke-opacity="1" stroke-width="0.545719" transform="matrix(4.54545,0,0,4.54545,31.8182,9.09091)"><path d="M0,0 L30,0 L30,31 L0,31 L0,0 z" fill-rule="evenodd" vector-effect="none"/></g></g></svg>
