<?xml version="1.0" encoding="UTF-8"?><svg width="52.9167mm" height="28.575mm" viewBox="0 0 200 108" xmlns="http://www.w3.org/2000/svg" xmlns:xlink="http://www.w3.org/1999/xlink"><g fill="none" stroke="black" stroke-width="1" fill-rule="evenodd" stroke-linecap="square" stroke-linejoin="bevel"><g clip-path="none" fill="none" opacity="1" stroke="none" stroke-opacity="0" transform="matrix(1,0,0,1,0,0)"><path d="M0,0 L200,0 L200,108 L0,108 L0,0 z" fill-rule="evenodd" vector-effect="none"/></g><defs><clipPath id="clip3"><path d="M-67,-20 L7,-20 L7,20 L-67,20 L-67,-20 z"/></clipPath></defs><g clip-path="url(#clip3)" fill="none" opacity="1" stroke="#000000" stroke-linecap="round" stroke-linejoin="miter" stroke-miterlimit="2" stroke-opacity="1" stroke-width="2" transform="matrix(2.7027,0,0,2.7027,181.081,54.0541)"><path d="M0,-5 L5,0 L0,5" fill-rule="evenodd" vector-effect="none"/></g><defs><clipPath id="clip6"><path d="M7,20 L-67,20 L-67,-20 L7,-20 L7,20 z"/></clipPath></defs><g clip-path="url(#clip6)" fill="none" opacity="1" stroke="#000000" stroke-linecap="round" stroke-linejoin="miter" stroke-miterlimit="2" stroke-opacity="1" stroke-width="2" transform="matrix(-2.7027,0,0,-2.7027,18.9189,54.0541)"><path d="M5,-5 L0,0 L5,5" fill-rule="evenodd" vector-effect="none"/></g><defs><clipPath id="clip9"><path d="M-7,-2 L67,-2 L67,38 L-7,38 L-7,-2 z"/></clipPath></defs><g clip-path="url(#clip9)" fill="#ffffff" fill-opacity="1" opacity="1" stroke="none" stroke-opacity="0" transform="matrix(2.7027,0,0,2.7027,18.9189,5.40541)"><path d="M0,0 L60,0 L60,36 L0,36 L0,0 z" fill-rule="evenodd" vector-effect="none"/></g><defs><clipPath id="clip14"><path d="M-133,-72 L174,-72 L174,112 L-133,112 L-133,-72 z"/></clipPath></defs><g clip-path="url(#clip14)" fill="none" opacity="1" stroke="#000000" stroke-linecap="butt" stroke-linejoin="miter" stroke-miterlimit="2" stroke-opacity="1" stroke-width="0.37" transform="matrix(0.527872,0,0,0.527872,89.1892,43.2432)"><text fill="#000000" fill-opacity="1" font-family="Liberation Sans" font-size="40" font-style="normal" font-weight="400" stroke="none" textLength="18" x="0" xml:space="preserve" y="1.28125">1</text></g><defs><clipPath id="clip17"><path d="M-67,-148 L240,-148 L240,36 L-67,36 L-67,-148 z"/></clipPath></defs><g clip-path="url(#clip17)" fill="none" opacity="1" stroke="#000000" stroke-linecap="butt" stroke-linejoin="miter" stroke-miterlimit="2" stroke-opacity="1" stroke-width="0.37" transform="matrix(0.527872,0,0,0.527872,54.0541,83.7838)"><text fill="#000000" fill-opacity="1" font-family="Liberation Sans" font-size="40" font-style="normal" font-weight="400" stroke="none" textLength="116" x="0" xml:space="preserve" y="1.28125">1+0.5z</text></g><defs><clipPath id="clip20"><path d="M-230,-138 L77,-138 L77,46 L-230,46 L-230,-138 z"/></clipPath></defs><g clip-path="url(#clip20)" fill="none" opacity="1" stroke="#000000" stroke-linecap="butt" stroke-linejoin="miter" stroke-miterlimit="2" stroke-opacity="1" stroke-width="0.37" transform="matrix(0.527872,0,0,0.527872,140.541,78.3784)"><text fill="#000000" fill-opacity="1" font-family="Liberation Sans" font-size="40" font-style="normal" font-weight="400" stroke="none" textLength="35" x="0" xml:space="preserve" y="1.28125">-1</text></g><defs><clipPath id="clip22"><path d="M135,177 L195,177 L195,213 L135,213 L135,177 z"/></clipPath></defs><g clip-path="url(#clip22)" fill="none" opacity="1" stroke="#000000" stroke-linecap="butt" stroke-linejoin="miter" stroke-miterlimit="2" stroke-opacity="1" stroke-width="0.37" transform="matrix(2.7027,0,0,2.7027,-344.595,-471.622)"><polyline fill="none" points="148,195 182,195" vector-effect="none"/></g><defs><clipPath id="clip27"><path d="M-7,-2 L67,-2 L67,38 L-7,38 L-7,-2 z"/></clipPath></defs><g clip-path="url(#clip27)" fill="none" opacity="1" stroke="#000000" stroke-linecap="butt" stroke-linejoin="miter" stroke-miterlimit="2" stroke-opacity="1" stroke-width="0.671863" transform="matrix(2.7027,0,0,2.7027,18.9189,5.40541)"><path d="M0,0 L60,0 L60,36 L0,36 L0,0 z" fill-rule="evenodd" vector-effect="none"/></g></g></svg>
