<?xml version="1.0" encoding="UTF-8"?><svg width="52.9167mm" height="40.7458mm" viewBox="0 0 200 154" xmlns="http://www.w3.org/2000/svg" xmlns:xlink="http://www.w3.org/1999/xlink"><g fill="none" stroke="black" stroke-width="1" fill-rule="evenodd" stroke-linecap="square" stroke-linejoin="bevel"><g clip-path="none" fill="none" opacity="1" stroke="none" stroke-opacity="0" transform="matrix(1,0,0,1,0,0)"><path d="M0,0 L200,0 L200,154 L0,154 L0,0 z" fill-rule="evenodd" vector-effect="none"/></g><defs><clipPath id="clip3"><path d="M-37,-17 L7,-17 L7,17 L-37,17 L-37,-17 z"/></clipPath></defs><g clip-path="url(#clip3)" fill="none" opacity="1" stroke="#000000" stroke-linecap="round" stroke-linejoin="miter" stroke-miterlimit="2" stroke-opacity="1" stroke-width="2" transform="matrix(4.54545,0,0,4.54545,168.182,77.2727)"><path d="M0,-5 L5,0 L0,5" fill-rule="evenodd" vector-effect="none"/></g><defs><clipPath id="clip6"><path d="M-37,-27 L7,-27 L7,7 L-37,7 L-37,-27 z"/></clipPath></defs><g clip-path="url(#clip6)" fill="none" opacity="1" stroke="#000000" stroke-linecap="round" stroke-linejoin="miter" stroke-miterlimit="2" stroke-opacity="1" stroke-width="2" transform="matrix(4.54545,0,0,4.54545,168.182,122.727)"><path d="M0,-5 L5,0 L0,5" fill-rule="evenodd" vector-effect="none"/></g><defs><clipPath id="clip9"><path d="M-37,-7 L7,-7 L7,27 L-37,27 L-37,-7 z"/></clipPath></defs><g clip-path="url(#clip9)" fill="none" opacity="1" stroke="#000000" stroke-linecap="round" stroke-linejoin="miter" stroke-miterlimit="2" stroke-opacity="1" stroke-width="2" transform="matrix(4.54545,0,0,4.54545,168.182,31.8182)"><path d="M0,-5 L5,0 L0,5" fill-rule="evenodd" vector-effect="none"/></g><defs><clipPath id="clip12"><path d="M7,27 L-37,27 L-37,-7 L7,-7 L7,27 z"/></clipPath></defs><g clip-path="url(#clip12)" fill="none" opacity="1" stroke="#000000" stroke-linecap="round" stroke-linejoin="miter" stroke-miterlimit="2" stroke-opacity="1" stroke-width="2" transform="matrix(-4.54545,0,0,-4.54545,31.8182,122.727)"><path d="M5,-5 L0,0 L5,5" fill-rule="evenodd" vector-effect="none"/></g><defs><clipPath id="clip15"><path d="M7,17 L-37,17 L-37,-17 L7,-17 L7,17 z"/></clipPath></defs><g clip-path="url(#clip15)" fill="none" opacity="1" stroke="#000000" stroke-linecap="round" stroke-linejoin="miter" stroke-miterlimit="2" stroke-opacity="1" stroke-width="2" transform="matrix(-4.54545,0,0,-4.54545,31.8182,77.2727)"><path d="M5,-5 L0,0 L5,5" fill-rule="evenodd" vector-effect="none"/></g><defs><clipPath id="clip18"><path d="M7,7 L-37,7 L-37,-27 L7,-27 L7,7 z"/></clipPath></defs><g clip-path="url(#clip18)" fill="none" opacity="1" stroke="#000000" stroke-linecap="round" stroke-linejoin="miter" stroke-miterlimit="2" stroke-opacity="1" stroke-width="2" transform="matrix(-4.54545,0,0,-4.54545,31.8182,31.8182)"><path d="M5,-5 L0,0 L5,5" fill-rule="evenodd" vector-effect="none"/></g><defs><clipPath id="clip21"><path d="M-7,-2 L37,-2 L37,32 L-7,32 L-7,-2 z"/></clipPath></defs><g clip-path="url(#clip21)" fill="#ffffff" fill-opacity="1" opacity="1" stroke="none" stroke-opacity="0" transform="matrix(4.54545,0,0,4.54545,31.8182,9.09091)"><path d="M0,0 L30,0 L30,30 L0,30 L0,0 z" fill-rule="evenodd" vector-effect="none"/></g><defs><clipPath id="clip25"><path d="M20,90 L50,90 L50,120 L20,120 L20,90 z"/></clipPath></defs><g clip-path="url(#clip25)" fill="none" opacity="1" stroke="#000000" stroke-linecap="butt" stroke-linejoin="miter" stroke-miterlimit="2" stroke-opacity="1" stroke-width="0.22" transform="matrix(4.54545,0,0,4.54545,-56.8182,-397.727)"><polyline fill="none" points="34,97 33,94" vector-effect="none"/></g><defs><clipPath id="clip26"><path d="M20,90 L50,90 L50,120 L20,120 L20,90 z"/></clipPath></defs><g clip-path="url(#clip26)" fill="none" opacity="1" stroke="#000000" stroke-linecap="butt" stroke-linejoin="miter" stroke-miterlimit="2" stroke-opacity="1" stroke-width="0.22" transform="matrix(4.54545,0,0,4.54545,-56.8182,-397.727)"><polyline fill="none" points="33,94 31,97" vector-effect="none"/></g><defs><clipPath id="clip27"><path d="M20,90 L50,90 L50,120 L20,120 L20,90 z"/></clipPath></defs><g clip-path="url(#clip27)" fill="none" opacity="1" stroke="#000000" stroke-linecap="butt" stroke-linejoin="miter" stroke-miterlimit="2" stroke-opacity="1" stroke-width="0.22" transform="matrix(4.54545,0,0,4.54545,-56.8182,-397.727)"><polyline fill="none" points="31,97 33,94" vector-effect="none"/></g><defs><clipPath id="clip28"><path d="M20,90 L50,90 L50,120 L20,120 L20,90 z"/></clipPath></defs><g clip-path="url(#clip28)" fill="none" opacity="1" stroke="#000000" stroke-linecap="butt" stroke-linejoin="miter" stroke-miterlimit="2" stroke-opacity="1" stroke-width="0.22" transform="matrix(4.54545,0,0,4.54545,-56.8182,-397.727)"><polyline fill="none" points="33,94 33,107" vector-effect="none"/></g><defs><clipPath id="clip29"><path d="M20,90 L50,90 L50,120 L20,120 L20,90 z"/></clipPath></defs><g clip-path="url(#clip29)" fill="none" opacity="1" stroke="#000000" stroke-linecap="butt" stroke-linejoin="miter" stroke-miterlimit="2" stroke-opacity="1" stroke-width="0.22" transform="matrix(4.54545,0,0,4.54545,-56.8182,-397.727)"><polyline fill="none" points="43,109 46,107" vector-effect="none"/></g><defs><clipPath id="clip30"><path d="M20,90 L50,90 L50,120 L20,120 L20,90 z"/></clipPath></defs><g clip-path="url(#clip30)" fill="none" opacity="1" stroke="#000000" stroke-linecap="butt" stroke-linejoin="miter" stroke-miterlimit="2" stroke-opacity="1" stroke-width="0.22" transform="matrix(4.54545,0,0,4.54545,-56.8182,-397.727)"><polyline fill="none" points="46,107 43,106" vector-effect="none"/></g><defs><clipPath id="clip31"><path d="M20,90 L50,90 L50,120 L20,120 L20,90 z"/></clipPath></defs><g clip-path="url(#clip31)" fill="none" opacity="1" stroke="#000000" stroke-linecap="butt" stroke-linejoin="miter" stroke-miterlimit="2" stroke-opacity="1" stroke-width="0.22" transform="matrix(4.54545,0,0,4.54545,-56.8182,-397.727)"><polyline fill="none" points="43,106 46,107" vector-effect="none"/></g><defs><clipPath id="clip32"><path d="M20,90 L50,90 L50,120 L20,120 L20,90 z"/></clipPath></defs><g clip-path="url(#clip32)" fill="none" opacity="1" stroke="#000000" stroke-linecap="butt" stroke-linejoin="miter" stroke-miterlimit="2" stroke-opacity="1" stroke-width="0.22" transform="matrix(4.54545,0,0,4.54545,-56.8182,-397.727)"><polyline fill="none" points="46,107 33,107" vector-effect="none"/></g><defs><clipPath id="clip33"><path d="M20,90 L50,90 L50,120 L20,120 L20,90 z"/></clipPath></defs><g clip-path="url(#clip33)" fill="none" opacity="1" stroke="#000000" stroke-linecap="butt" stroke-linejoin="miter" stroke-miterlimit="2" stroke-opacity="1" stroke-width="0.22" transform="matrix(4.54545,0,0,4.54545,-56.8182,-397.727)"><polyline fill="none" points="37,100 33,107" vector-effect="none"/></g><defs><clipPath id="clip34"><path d="M20,90 L50,90 L50,120 L20,120 L20,90 z"/></clipPath></defs><g clip-path="url(#clip34)" fill="none" opacity="1" stroke="#000000" stroke-linecap="butt" stroke-linejoin="miter" stroke-miterlimit="2" stroke-opacity="1" stroke-width="0.22" transform="matrix(4.54545,0,0,4.54545,-56.8182,-397.727)"><polyline fill="none" points="33,107 25,115" vector-effect="none"/></g><defs><clipPath id="clip35"><path d="M20,90 L50,90 L50,120 L20,120 L20,90 z"/></clipPath></defs><g clip-path="url(#clip35)" fill="none" opacity="1" stroke="#000000" stroke-linecap="butt" stroke-linejoin="miter" stroke-miterlimit="2" stroke-opacity="1" stroke-width="0.22" transform="matrix(4.54545,0,0,4.54545,-56.8182,-397.727)"><polyline fill="none" points="25,115 28,114" vector-effect="none"/></g><defs><clipPath id="clip36"><path d="M20,90 L50,90 L50,120 L20,120 L20,90 z"/></clipPath></defs><g clip-path="url(#clip36)" fill="none" opacity="1" stroke="#000000" stroke-linecap="butt" stroke-linejoin="miter" stroke-miterlimit="2" stroke-opacity="1" stroke-width="0.22" transform="matrix(4.54545,0,0,4.54545,-56.8182,-397.727)"><polyline fill="none" points="28,114 25,115" vector-effect="none"/></g><defs><clipPath id="clip37"><path d="M20,90 L50,90 L50,120 L20,120 L20,90 z"/></clipPath></defs><g clip-path="url(#clip37)" fill="none" opacity="1" stroke="#000000" stroke-linecap="butt" stroke-linejoin="miter" stroke-miterlimit="2" stroke-opacity="1" stroke-width="0.22" transform="matrix(4.54545,0,0,4.54545,-56.8182,-397.727)"><polyline fill="none" points="25,115 26,112" vector-effect="none"/></g><defs><clipPath id="clip38"><path d="M20,90 L50,90 L50,120 L20,120 L20,90 z"/></clipPath></defs><g clip-path="url(#clip38)" fill="none" opacity="1" stroke="#000000" stroke-linecap="butt" stroke-linejoin="miter" stroke-miterlimit="2" stroke-opacity="1" stroke-width="0.22" transform="matrix(4.54545,0,0,4.54545,-56.8182,-397.727)"><polyline fill="none" points="36,100 34,100" vector-effect="none"/></g><defs><clipPath id="clip39"><path d="M20,90 L50,90 L50,120 L20,120 L20,90 z"/></clipPath></defs><g clip-path="url(#clip39)" fill="none" opacity="1" stroke="#000000" stroke-linecap="butt" stroke-linejoin="miter" stroke-miterlimit="2" stroke-opacity="1" stroke-width="0.22" transform="matrix(4.54545,0,0,4.54545,-56.8182,-397.727)"><polyline fill="none" points="37,105 37,103" vector-effect="none"/></g><defs><clipPath id="clip40"><path d="M20,90 L50,90 L50,120 L20,120 L20,90 z"/></clipPath></defs><g clip-path="url(#clip40)" fill="none" opacity="1" stroke="#000000" stroke-linecap="butt" stroke-linejoin="miter" stroke-miterlimit="2" stroke-opacity="1" stroke-width="0.22" transform="matrix(4.54545,0,0,4.54545,-56.8182,-397.727)"><polyline fill="none" points="37,110 37,107" vector-effect="none"/></g><defs><clipPath id="clip41"><path d="M20,90 L50,90 L50,120 L20,120 L20,90 z"/></clipPath></defs><g clip-path="url(#clip41)" fill="none" opacity="1" stroke="#000000" stroke-linecap="butt" stroke-linejoin="miter" stroke-miterlimit="2" stroke-opacity="1" stroke-width="0.22" transform="matrix(4.54545,0,0,4.54545,-56.8182,-397.727)"><polyline fill="none" points="35,112 37,112" vector-effect="none"/></g><defs><clipPath id="clip42"><path d="M20,90 L50,90 L50,120 L20,120 L20,90 z"/></clipPath></defs><g clip-path="url(#clip42)" fill="none" opacity="1" stroke="#000000" stroke-linecap="butt" stroke-linejoin="miter" stroke-miterlimit="2" stroke-opacity="1" stroke-width="0.22" transform="matrix(4.54545,0,0,4.54545,-56.8182,-397.727)"><polyline fill="none" points="30,112 33,112" vector-effect="none"/></g><defs><clipPath id="clip43"><path d="M20,90 L50,90 L50,120 L20,120 L20,90 z"/></clipPath></defs><g clip-path="url(#clip43)" fill="none" opacity="1" stroke="#000000" stroke-linecap="butt" stroke-linejoin="miter" stroke-miterlimit="2" stroke-opacity="1" stroke-width="0.22" transform="matrix(4.54545,0,0,4.54545,-56.8182,-397.727)"><polyline fill="none" points="34,109 36,111" vector-effect="none"/></g><defs><clipPath id="clip44"><path d="M20,90 L50,90 L50,120 L20,120 L20,90 z"/></clipPath></defs><g clip-path="url(#clip44)" fill="none" opacity="1" stroke="#000000" stroke-linecap="butt" stroke-linejoin="miter" stroke-miterlimit="2" stroke-opacity="1" stroke-width="0.22" transform="matrix(4.54545,0,0,4.54545,-56.8182,-397.727)"><polyline fill="none" points="41,109 39,111" vector-effect="none"/></g><defs><clipPath id="clip49"><path d="M-7,-2 L37,-2 L37,32 L-7,32 L-7,-2 z"/></clipPath></defs><g clip-path="url(#clip49)" fill="none" opacity="1" stroke="#000000" stroke-linecap="butt" stroke-linejoin="miter" stroke-miterlimit="2" stroke-opacity="1" stroke-width="0.545719" transform="matrix(4.54545,0,0,4.54545,31.8182,9.09091)"><path d="M0,0 L30,0 L30,30 L0,30 L0,0 z" fill-rule="evenodd" vector-effect="none"/></g></g></svg>
