<?xml version="1.0" encoding="UTF-8"?><svg width="52.9167mm" height="37.0417mm" viewBox="0 0 200 140" xmlns="http://www.w3.org/2000/svg" xmlns:xlink="http://www.w3.org/1999/xlink"><g fill="none" stroke="black" stroke-width="1" fill-rule="evenodd" stroke-linecap="square" stroke-linejoin="bevel"><g clip-path="none" fill="none" opacity="1" stroke="none" stroke-opacity="0" transform="matrix(1,0,0,1,0,0)"><path d="M0,0 L200,0 L200,140 L0,140 L0,0 z" fill-rule="evenodd" vector-effect="none"/></g><defs><clipPath id="clip3"><path d="M-97,-19 L7,-19 L7,54 L-97,54 L-97,-19 z"/></clipPath></defs><g clip-path="url(#clip3)" fill="none" opacity="1" stroke="#000000" stroke-linecap="round" stroke-linejoin="miter" stroke-miterlimit="2" stroke-opacity="1" stroke-width="2" transform="matrix(1.92308,0,0,1.92308,186.538,36.5385)"><path d="M0,-5 L5,0 L0,5" fill-rule="evenodd" vector-effect="none"/></g><defs><clipPath id="clip6"><path d="M-97,-54 L7,-54 L7,19 L-97,19 L-97,-54 z"/></clipPath></defs><g clip-path="url(#clip6)" fill="none" opacity="1" stroke="#000000" stroke-linecap="round" stroke-linejoin="miter" stroke-miterlimit="2" stroke-opacity="1" stroke-width="2" transform="matrix(1.92308,0,0,1.92308,186.538,103.846)"><path d="M0,-5 L5,0 L0,5" fill-rule="evenodd" vector-effect="none"/></g><defs><clipPath id="clip9"><path d="M-2,-2 L102,-2 L102,71 L-2,71 L-2,-2 z"/></clipPath></defs><g clip-path="url(#clip9)" fill="#ffffff" fill-opacity="1" opacity="1" stroke="none" stroke-opacity="0" transform="matrix(1.92308,0,0,1.92308,3.84615,3.84615)"><path d="M0,0 L95,0 L95,69 L0,69 L0,0 z" fill-rule="evenodd" vector-effect="none"/></g><defs><clipPath id="clip14"><path d="M-241,-174 L245,-174 L245,179 L-241,179 L-241,-174 z"/></clipPath></defs><g clip-path="url(#clip14)" fill="none" opacity="1" stroke="#000000" stroke-linecap="butt" stroke-linejoin="miter" stroke-miterlimit="2" stroke-opacity="1" stroke-width="0.52" transform="matrix(0.375601,0,0,0.375601,94.2308,69.2308)"><text fill="#000000" fill-opacity="1" font-family="Liberation Sans" font-size="40" font-style="normal" font-weight="400" stroke="none" textLength="188" x="-122.312" xml:space="preserve" y="17.9219">iddata(1,1)</text></g><defs><clipPath id="clip17"><path d="M-471,-87 L15,-87 L15,266 L-471,266 L-471,-87 z"/></clipPath></defs><g clip-path="url(#clip17)" fill="none" opacity="1" stroke="#000000" stroke-linecap="butt" stroke-linejoin="miter" stroke-miterlimit="2" stroke-opacity="1" stroke-width="0.52" transform="matrix(0.375601,0,0,0.375601,180.769,36.5385)"><text fill="#000000" fill-opacity="1" font-family="Liberation Sans" font-size="40" font-style="normal" font-weight="400" stroke="none" textLength="85" x="-113.812" xml:space="preserve" y="17.9219">Input</text></g><defs><clipPath id="clip20"><path d="M-471,-266 L15,-266 L15,87 L-471,87 L-471,-266 z"/></clipPath></defs><g clip-path="url(#clip20)" fill="none" opacity="1" stroke="#000000" stroke-linecap="butt" stroke-linejoin="miter" stroke-miterlimit="2" stroke-opacity="1" stroke-width="0.52" transform="matrix(0.375601,0,0,0.375601,180.769,103.846)"><text fill="#000000" fill-opacity="1" font-family="Liberation Sans" font-size="40" font-style="normal" font-weight="400" stroke="none" textLength="117" x="-153.625" xml:space="preserve" y="17.9219">Output</text></g><defs><clipPath id="clip26"><path d="M-2,-2 L102,-2 L102,71 L-2,71 L-2,-2 z"/></clipPath></defs><g clip-path="url(#clip26)" fill="none" opacity="1" stroke="#000000" stroke-linecap="butt" stroke-linejoin="miter" stroke-miterlimit="2" stroke-opacity="1" stroke-width="0.769842" transform="matrix(1.92308,0,0,1.92308,3.84615,3.84615)"><path d="M0,0 L95,0 L95,69 L0,69 L0,0 z" fill-rule="evenodd" vector-effect="none"/></g></g></svg>
