<?xml version="1.0" encoding="UTF-8"?><svg width="52.9167mm" height="28.3104mm" viewBox="0 0 200 107" xmlns="http://www.w3.org/2000/svg" xmlns:xlink="http://www.w3.org/1999/xlink"><g fill="none" stroke="black" stroke-width="1" fill-rule="evenodd" stroke-linecap="square" stroke-linejoin="bevel"><g clip-path="none" fill="none" opacity="1" stroke="none" stroke-opacity="0" transform="matrix(1,0,0,1,0,0)"><path d="M0,0 L200,0 L200,107 L0,107 L0,0 z" fill-rule="evenodd" vector-effect="none"/></g><defs><clipPath id="clip3"><path d="M7,28 L-97,28 L-97,-28 L7,-28 L7,28 z"/></clipPath></defs><g clip-path="url(#clip3)" fill="none" opacity="1" stroke="#000000" stroke-linecap="round" stroke-linejoin="miter" stroke-miterlimit="2" stroke-opacity="1" stroke-width="2" transform="matrix(-1.92308,0,0,-1.92308,13.4615,53.8462)"><path d="M5,-5 L0,0 L5,5" fill-rule="evenodd" vector-effect="none"/></g><defs><clipPath id="clip6"><path d="M-97,-28 L7,-28 L7,28 L-97,28 L-97,-28 z"/></clipPath></defs><g clip-path="url(#clip6)" fill="none" opacity="1" stroke="#000000" stroke-linecap="round" stroke-linejoin="miter" stroke-miterlimit="2" stroke-opacity="1" stroke-width="2" transform="matrix(1.92308,0,0,1.92308,186.538,53.8462)"><path d="M0,-5 L5,0 L0,5" fill-rule="evenodd" vector-effect="none"/></g><defs><clipPath id="clip9"><path d="M-7,-2 L97,-2 L97,54 L-7,54 L-7,-2 z"/></clipPath></defs><g clip-path="url(#clip9)" fill="#ffffff" fill-opacity="1" opacity="1" stroke="none" stroke-opacity="0" transform="matrix(1.92308,0,0,1.92308,13.4615,3.84615)"><path d="M0,0 L90,0 L90,52 L0,52 L0,0 z" fill-rule="evenodd" vector-effect="none"/></g><defs><clipPath id="clip14"><path d="M-15,-133 L446,-133 L446,133 L-15,133 L-15,-133 z"/></clipPath></defs><g clip-path="url(#clip14)" fill="none" opacity="1" stroke="#000000" stroke-linecap="butt" stroke-linejoin="miter" stroke-miterlimit="2" stroke-opacity="1" stroke-width="0.52" transform="matrix(0.375601,0,0,0.375601,19.2308,53.8462)"><text fill="#000000" fill-opacity="1" font-family="Liberation Sans" font-size="40" font-style="normal" font-weight="400" stroke="none" textLength="21" x="0" xml:space="preserve" y="17.9219">u</text></g><defs><clipPath id="clip17"><path d="M-445,-133 L16,-133 L16,133 L-445,133 L-445,-133 z"/></clipPath></defs><g clip-path="url(#clip17)" fill="none" opacity="1" stroke="#000000" stroke-linecap="butt" stroke-linejoin="miter" stroke-miterlimit="2" stroke-opacity="1" stroke-width="0.52" transform="matrix(0.375601,0,0,0.375601,180.769,53.8462)"><text fill="#000000" fill-opacity="1" font-family="Liberation Sans" font-size="40" font-style="normal" font-weight="400" stroke="none" textLength="19" x="-25.5938" xml:space="preserve" y="17.9219">y</text></g><defs><clipPath id="clip20"><path d="M-230,-133 L231,-133 L231,133 L-230,133 L-230,-133 z"/></clipPath></defs><g clip-path="url(#clip20)" fill="none" opacity="1" stroke="#000000" stroke-linecap="butt" stroke-linejoin="miter" stroke-miterlimit="2" stroke-opacity="1" stroke-width="0.52" transform="matrix(0.375601,0,0,0.375601,100,53.8462)"><text fill="#000000" fill-opacity="1" font-family="Liberation Sans" font-size="40" font-style="normal" font-weight="400" stroke="none" textLength="173" x="-110.219" xml:space="preserve" y="17.9219">ARX-&gt;SS</text></g><defs><clipPath id="clip26"><path d="M-7,-2 L97,-2 L97,54 L-7,54 L-7,-2 z"/></clipPath></defs><g clip-path="url(#clip26)" fill="none" opacity="1" stroke="#000000" stroke-linecap="butt" stroke-linejoin="miter" stroke-miterlimit="2" stroke-opacity="1" stroke-width="0.769842" transform="matrix(1.92308,0,0,1.92308,13.4615,3.84615)"><path d="M0,0 L90,0 L90,52 L0,52 L0,0 z" fill-rule="evenodd" vector-effect="none"/></g></g></svg>
