<?xml version="1.0" encoding="UTF-8"?><svg width="52.9167mm" height="36.7771mm" viewBox="0 0 200 139" xmlns="http://www.w3.org/2000/svg" xmlns:xlink="http://www.w3.org/1999/xlink"><g fill="none" stroke="black" stroke-width="1" fill-rule="evenodd" stroke-linecap="square" stroke-linejoin="bevel"><g clip-path="none" fill="none" opacity="1" stroke="none" stroke-opacity="0" transform="matrix(1,0,0,1,0,0)"><path d="M0,0 L200,0 L200,139 L0,139 L0,0 z" fill-rule="evenodd" vector-effect="none"/></g><defs><clipPath id="clip3"><path d="M-122,-25 L7,-25 L7,65 L-122,65 L-122,-25 z"/></clipPath></defs><g clip-path="url(#clip3)" fill="none" opacity="1" stroke="#000000" stroke-linecap="round" stroke-linejoin="miter" stroke-miterlimit="2" stroke-opacity="1" stroke-width="2" transform="matrix(1.55039,0,0,1.55039,189.147,38.7597)"><path d="M0,-5 L5,0 L0,5" fill-rule="evenodd" vector-effect="none"/></g><defs><clipPath id="clip6"><path d="M7,75 L-122,75 L-122,-15 L7,-15 L7,75 z"/></clipPath></defs><g clip-path="url(#clip6)" fill="none" opacity="1" stroke="#000000" stroke-linecap="round" stroke-linejoin="miter" stroke-miterlimit="2" stroke-opacity="1" stroke-width="2" transform="matrix(-1.55039,0,0,-1.55039,10.8527,116.279)"><path d="M5,-5 L0,0 L5,5" fill-rule="evenodd" vector-effect="none"/></g><defs><clipPath id="clip9"><path d="M-122,-70 L7,-70 L7,20 L-122,20 L-122,-70 z"/></clipPath></defs><g clip-path="url(#clip9)" fill="none" opacity="1" stroke="#000000" stroke-linecap="round" stroke-linejoin="miter" stroke-miterlimit="2" stroke-opacity="1" stroke-width="2" transform="matrix(1.55039,0,0,1.55039,189.147,108.527)"><path d="M0,-5 L5,0 L0,5" fill-rule="evenodd" vector-effect="none"/></g><defs><clipPath id="clip12"><path d="M7,55 L-122,55 L-122,-35 L7,-35 L7,55 z"/></clipPath></defs><g clip-path="url(#clip12)" fill="none" opacity="1" stroke="#000000" stroke-linecap="round" stroke-linejoin="miter" stroke-miterlimit="2" stroke-opacity="1" stroke-width="2" transform="matrix(-1.55039,0,0,-1.55039,10.8527,85.2713)"><path d="M5,-5 L0,0 L5,5" fill-rule="evenodd" vector-effect="none"/></g><defs><clipPath id="clip15"><path d="M7,15 L-122,15 L-122,-75 L7,-75 L7,15 z"/></clipPath></defs><g clip-path="url(#clip15)" fill="none" opacity="1" stroke="#000000" stroke-linecap="round" stroke-linejoin="miter" stroke-miterlimit="2" stroke-opacity="1" stroke-width="2" transform="matrix(-1.55039,0,0,-1.55039,10.8527,23.2558)"><path d="M5,-5 L0,0 L5,5" fill-rule="evenodd" vector-effect="none"/></g><defs><clipPath id="clip18"><path d="M7,35 L-122,35 L-122,-55 L7,-55 L7,35 z"/></clipPath></defs><g clip-path="url(#clip18)" fill="none" opacity="1" stroke="#000000" stroke-linecap="round" stroke-linejoin="miter" stroke-miterlimit="2" stroke-opacity="1" stroke-width="2" transform="matrix(-1.55039,0,0,-1.55039,10.8527,54.2636)"><path d="M5,-5 L0,0 L5,5" fill-rule="evenodd" vector-effect="none"/></g><defs><clipPath id="clip21"><path d="M-7,-2 L122,-2 L122,88 L-7,88 L-7,-2 z"/></clipPath></defs><g clip-path="url(#clip21)" fill="#ffffff" fill-opacity="1" opacity="1" stroke="none" stroke-opacity="0" transform="matrix(1.55039,0,0,1.55039,10.8527,3.10078)"><path d="M0,0 L115,0 L115,86 L0,86 L0,0 z" fill-rule="evenodd" vector-effect="none"/></g><defs><clipPath id="clip26"><path d="M-15,-72 L574,-72 L574,368 L-15,368 L-15,-72 z"/></clipPath></defs><g clip-path="url(#clip26)" fill="none" opacity="1" stroke="#000000" stroke-linecap="butt" stroke-linejoin="miter" stroke-miterlimit="2" stroke-opacity="1" stroke-width="0.645" transform="matrix(0.30281,0,0,0.30281,15.5039,24.8062)"><text fill="#000000" fill-opacity="1" font-family="Liberation Sans" font-size="40" font-style="normal" font-weight="400" stroke="none" textLength="85" x="0" xml:space="preserve" y="1.28125">Coef</text></g><defs><clipPath id="clip29"><path d="M-128,-97 L461,-97 L461,343 L-128,343 L-128,-97 z"/></clipPath></defs><g clip-path="url(#clip29)" fill="none" opacity="1" stroke="#000000" stroke-linecap="butt" stroke-linejoin="miter" stroke-miterlimit="2" stroke-opacity="1" stroke-width="0.645" transform="matrix(0.30281,0,0,0.30281,49.6124,32.5581)"><text fill="#000000" fill-opacity="1" font-family="Liberation Sans" font-size="32" font-style="normal" font-weight="400" stroke="none" textLength="66" x="0" xml:space="preserve" y="1.28125">body</text></g><defs><clipPath id="clip32"><path d="M-15,-174 L574,-174 L574,266 L-15,266 L-15,-174 z"/></clipPath></defs><g clip-path="url(#clip32)" fill="none" opacity="1" stroke="#000000" stroke-linecap="butt" stroke-linejoin="miter" stroke-miterlimit="2" stroke-opacity="1" stroke-width="0.645" transform="matrix(0.30281,0,0,0.30281,15.5039,55.814)"><text fill="#000000" fill-opacity="1" font-family="Liberation Sans" font-size="40" font-style="normal" font-weight="400" stroke="none" textLength="22" x="0" xml:space="preserve" y="1.28125">q</text></g><defs><clipPath id="clip35"><path d="M-46,-200 L543,-200 L543,240 L-46,240 L-46,-200 z"/></clipPath></defs><g clip-path="url(#clip35)" fill="none" opacity="1" stroke="#000000" stroke-linecap="butt" stroke-linejoin="miter" stroke-miterlimit="2" stroke-opacity="1" stroke-width="0.645" transform="matrix(0.30281,0,0,0.30281,24.8062,63.5659)"><text fill="#000000" fill-opacity="1" font-family="Liberation Sans" font-size="32" font-style="normal" font-weight="400" stroke="none" textLength="45" x="0" xml:space="preserve" y="1.28125">bar</text></g><defs><clipPath id="clip38"><path d="M-15,-292 L574,-292 L574,148 L-15,148 L-15,-292 z"/></clipPath></defs><g clip-path="url(#clip38)" fill="none" opacity="1" stroke="#000000" stroke-linecap="butt" stroke-linejoin="miter" stroke-miterlimit="2" stroke-opacity="1" stroke-width="0.645" transform="matrix(0.30281,0,0,0.30281,15.5039,91.4729)"><text fill="#000000" fill-opacity="1" font-family="Liberation Sans" font-size="40" font-style="normal" font-weight="400" stroke="none" textLength="60" x="0" xml:space="preserve" y="1.28125">CG</text></g><defs><clipPath id="clip41"><path d="M-15,-394 L574,-394 L574,46 L-15,46 L-15,-394 z"/></clipPath></defs><g clip-path="url(#clip41)" fill="none" opacity="1" stroke="#000000" stroke-linecap="butt" stroke-linejoin="miter" stroke-miterlimit="2" stroke-opacity="1" stroke-width="0.645" transform="matrix(0.30281,0,0,0.30281,15.5039,122.481)"><text fill="#000000" fill-opacity="1" font-family="Liberation Sans" font-size="40" font-style="normal" font-weight="400" stroke="none" textLength="56" x="0" xml:space="preserve" y="1.28125">CP</text></g><defs><clipPath id="clip44"><path d="M-466,-123 L123,-123 L123,317 L-466,317 L-466,-123 z"/></clipPath></defs><g clip-path="url(#clip44)" fill="none" opacity="1" stroke="#000000" stroke-linecap="butt" stroke-linejoin="miter" stroke-miterlimit="2" stroke-opacity="1" stroke-width="0.645" transform="matrix(0.30281,0,0,0.30281,151.938,40.3101)"><text fill="#000000" fill-opacity="1" font-family="Liberation Sans" font-size="40" font-style="normal" font-weight="400" stroke="none" textLength="24" x="0" xml:space="preserve" y="1.28125">F</text></g><defs><clipPath id="clip47"><path d="M-497,-148 L92,-148 L92,292 L-497,292 L-497,-148 z"/></clipPath></defs><g clip-path="url(#clip47)" fill="none" opacity="1" stroke="#000000" stroke-linecap="butt" stroke-linejoin="miter" stroke-miterlimit="2" stroke-opacity="1" stroke-width="0.645" transform="matrix(0.30281,0,0,0.30281,161.24,48.062)"><text fill="#000000" fill-opacity="1" font-family="Liberation Sans" font-size="32" font-style="normal" font-weight="400" stroke="none" textLength="66" x="0" xml:space="preserve" y="1.28125">body</text></g><defs><clipPath id="clip50"><path d="M-451,-353 L138,-353 L138,87 L-451,87 L-451,-353 z"/></clipPath></defs><g clip-path="url(#clip50)" fill="none" opacity="1" stroke="#000000" stroke-linecap="butt" stroke-linejoin="miter" stroke-miterlimit="2" stroke-opacity="1" stroke-width="0.645" transform="matrix(0.30281,0,0,0.30281,147.287,110.078)"><text fill="#000000" fill-opacity="1" font-family="Liberation Sans" font-size="40" font-style="normal" font-weight="400" stroke="none" textLength="33" x="0" xml:space="preserve" y="1.28125">M</text></g><defs><clipPath id="clip53"><path d="M-497,-379 L92,-379 L92,61 L-497,61 L-497,-379 z"/></clipPath></defs><g clip-path="url(#clip53)" fill="none" opacity="1" stroke="#000000" stroke-linecap="butt" stroke-linejoin="miter" stroke-miterlimit="2" stroke-opacity="1" stroke-width="0.645" transform="matrix(0.30281,0,0,0.30281,161.24,117.829)"><text fill="#000000" fill-opacity="1" font-family="Liberation Sans" font-size="32" font-style="normal" font-weight="400" stroke="none" textLength="66" x="0" xml:space="preserve" y="1.28125">body</text></g><defs><clipPath id="clip59"><path d="M-7,-2 L122,-2 L122,88 L-7,88 L-7,-2 z"/></clipPath></defs><g clip-path="url(#clip59)" fill="none" opacity="1" stroke="#000000" stroke-linecap="butt" stroke-linejoin="miter" stroke-miterlimit="2" stroke-opacity="1" stroke-width="0.83912" transform="matrix(1.55039,0,0,1.55039,10.8527,3.10078)"><path d="M0,0 L115,0 L115,86 L0,86 L0,0 z" fill-rule="evenodd" vector-effect="none"/></g></g></svg>
