<?xml version="1.0" encoding="UTF-8"?><svg width="52.9167mm" height="49.4771mm" viewBox="0 0 200 187" xmlns="http://www.w3.org/2000/svg" xmlns:xlink="http://www.w3.org/1999/xlink"><g fill="none" stroke="black" stroke-width="1" fill-rule="evenodd" stroke-linecap="square" stroke-linejoin="bevel"><g clip-path="none" fill="none" opacity="1" stroke="none" stroke-opacity="0" transform="matrix(1,0,0,1,0,0)"><path d="M0,0 L200,0 L200,187 L0,187 L0,0 z" fill-rule="evenodd" vector-effect="none"/></g><defs><clipPath id="clip3"><path d="M-72,-62 L7,-62 L7,12 L-72,12 L-72,-62 z"/></clipPath></defs><g clip-path="url(#clip3)" fill="none" opacity="1" stroke="#000000" stroke-linecap="round" stroke-linejoin="miter" stroke-miterlimit="2" stroke-opacity="1" stroke-width="2" transform="matrix(2.53165,0,0,2.53165,182.278,156.962)"><path d="M0,-5 L5,0 L0,5" fill-rule="evenodd" vector-effect="none"/></g><defs><clipPath id="clip6"><path d="M-72,-12 L7,-12 L7,62 L-72,62 L-72,-12 z"/></clipPath></defs><g clip-path="url(#clip6)" fill="none" opacity="1" stroke="#000000" stroke-linecap="round" stroke-linejoin="miter" stroke-miterlimit="2" stroke-opacity="1" stroke-width="2" transform="matrix(2.53165,0,0,2.53165,182.278,30.3797)"><path d="M0,-5 L5,0 L0,5" fill-rule="evenodd" vector-effect="none"/></g><defs><clipPath id="clip9"><path d="M-72,-37 L7,-37 L7,37 L-72,37 L-72,-37 z"/></clipPath></defs><g clip-path="url(#clip9)" fill="none" opacity="1" stroke="#000000" stroke-linecap="round" stroke-linejoin="miter" stroke-miterlimit="2" stroke-opacity="1" stroke-width="2" transform="matrix(2.53165,0,0,2.53165,182.278,93.6709)"><path d="M0,-5 L5,0 L0,5" fill-rule="evenodd" vector-effect="none"/></g><defs><clipPath id="clip12"><path d="M-2,-2 L77,-2 L77,72 L-2,72 L-2,-2 z"/></clipPath></defs><g clip-path="url(#clip12)" fill="#ffffff" fill-opacity="1" opacity="1" stroke="none" stroke-opacity="0" transform="matrix(2.53165,0,0,2.53165,5.06329,5.06329)"><path d="M0,0 L70,0 L70,70 L0,70 L0,0 z" fill-rule="evenodd" vector-effect="none"/></g><defs><clipPath id="clip17"><path d="M-343,-51 L15,-51 L15,307 L-343,307 L-343,-51 z"/></clipPath></defs><g clip-path="url(#clip17)" fill="none" opacity="1" stroke="#000000" stroke-linecap="butt" stroke-linejoin="miter" stroke-miterlimit="2" stroke-opacity="1" stroke-width="0.395" transform="matrix(0.494462,0,0,0.494462,174.684,30.3797)"><text fill="#000000" fill-opacity="1" font-family="Liberation Sans" font-size="40" font-style="normal" font-weight="400" stroke="none" textLength="117" x="-153.656" xml:space="preserve" y="17.9219">analog</text></g><defs><clipPath id="clip20"><path d="M-343,-179 L15,-179 L15,179 L-343,179 L-343,-179 z"/></clipPath></defs><g clip-path="url(#clip20)" fill="none" opacity="1" stroke="#000000" stroke-linecap="butt" stroke-linejoin="miter" stroke-miterlimit="2" stroke-opacity="1" stroke-width="0.395" transform="matrix(0.494462,0,0,0.494462,174.684,93.6709)"><text fill="#000000" fill-opacity="1" font-family="Liberation Sans" font-size="40" font-style="normal" font-weight="400" stroke="none" textLength="127" x="-167.875" xml:space="preserve" y="17.9219">buttons</text></g><defs><clipPath id="clip23"><path d="M-343,-307 L15,-307 L15,51 L-343,51 L-343,-307 z"/></clipPath></defs><g clip-path="url(#clip23)" fill="none" opacity="1" stroke="#000000" stroke-linecap="butt" stroke-linejoin="miter" stroke-miterlimit="2" stroke-opacity="1" stroke-width="0.395" transform="matrix(0.494462,0,0,0.494462,174.684,156.962)"><text fill="#000000" fill-opacity="1" font-family="Liberation Sans" font-size="40" font-style="normal" font-weight="400" stroke="none" textLength="85" x="-108.094" xml:space="preserve" y="17.9219">POV</text></g><defs><clipPath id="clip29"><path d="M-2,-2 L77,-2 L77,72 L-2,72 L-2,-2 z"/></clipPath></defs><g clip-path="url(#clip29)" fill="none" opacity="1" stroke="#000000" stroke-linecap="butt" stroke-linejoin="miter" stroke-miterlimit="2" stroke-opacity="1" stroke-width="0.689666" transform="matrix(2.53165,0,0,2.53165,5.06329,5.06329)"><path d="M0,0 L70,0 L70,70 L0,70 L0,0 z" fill-rule="evenodd" vector-effect="none"/></g></g></svg>
