<?xml version="1.0" encoding="UTF-8"?><svg width="44.45mm" height="52.9167mm" viewBox="0 0 168 200" xmlns="http://www.w3.org/2000/svg" xmlns:xlink="http://www.w3.org/1999/xlink"><g fill="none" stroke="black" stroke-width="1" fill-rule="evenodd" stroke-linecap="square" stroke-linejoin="bevel"><g clip-path="none" fill="none" opacity="1" stroke="none" stroke-opacity="0" transform="matrix(1,0,0,1,0,0)"><path d="M0,0 L168,0 L168,200 L0,200 L0,0 z" fill-rule="evenodd" vector-effect="none"/></g><defs><clipPath id="clip3"><path d="M-102,-117 L7,-117 L7,12 L-102,12 L-102,-117 z"/></clipPath></defs><g clip-path="url(#clip3)" fill="none" opacity="1" stroke="#000000" stroke-linecap="round" stroke-linejoin="miter" stroke-miterlimit="2" stroke-opacity="1" stroke-width="2" transform="matrix(1.55039,0,0,1.55039,158.14,181.395)"><path d="M0,-5 L5,0 L0,5" fill-rule="evenodd" vector-effect="none"/></g><defs><clipPath id="clip6"><path d="M-102,-72 L7,-72 L7,57 L-102,57 L-102,-72 z"/></clipPath></defs><g clip-path="url(#clip6)" fill="none" opacity="1" stroke="#000000" stroke-linecap="round" stroke-linejoin="miter" stroke-miterlimit="2" stroke-opacity="1" stroke-width="2" transform="matrix(1.55039,0,0,1.55039,158.14,111.628)"><path d="M0,-5 L5,0 L0,5" fill-rule="evenodd" vector-effect="none"/></g><defs><clipPath id="clip9"><path d="M-102,-102 L7,-102 L7,27 L-102,27 L-102,-102 z"/></clipPath></defs><g clip-path="url(#clip9)" fill="none" opacity="1" stroke="#000000" stroke-linecap="round" stroke-linejoin="miter" stroke-miterlimit="2" stroke-opacity="1" stroke-width="2" transform="matrix(1.55039,0,0,1.55039,158.14,158.14)"><path d="M0,-5 L5,0 L0,5" fill-rule="evenodd" vector-effect="none"/></g><defs><clipPath id="clip12"><path d="M-102,-42 L7,-42 L7,87 L-102,87 L-102,-42 z"/></clipPath></defs><g clip-path="url(#clip12)" fill="none" opacity="1" stroke="#000000" stroke-linecap="round" stroke-linejoin="miter" stroke-miterlimit="2" stroke-opacity="1" stroke-width="2" transform="matrix(1.55039,0,0,1.55039,158.14,65.1163)"><path d="M0,-5 L5,0 L0,5" fill-rule="evenodd" vector-effect="none"/></g><defs><clipPath id="clip15"><path d="M-102,-87 L7,-87 L7,42 L-102,42 L-102,-87 z"/></clipPath></defs><g clip-path="url(#clip15)" fill="none" opacity="1" stroke="#000000" stroke-linecap="round" stroke-linejoin="miter" stroke-miterlimit="2" stroke-opacity="1" stroke-width="2" transform="matrix(1.55039,0,0,1.55039,158.14,134.884)"><path d="M0,-5 L5,0 L0,5" fill-rule="evenodd" vector-effect="none"/></g><defs><clipPath id="clip18"><path d="M-102,-27 L7,-27 L7,102 L-102,102 L-102,-27 z"/></clipPath></defs><g clip-path="url(#clip18)" fill="none" opacity="1" stroke="#000000" stroke-linecap="round" stroke-linejoin="miter" stroke-miterlimit="2" stroke-opacity="1" stroke-width="2" transform="matrix(1.55039,0,0,1.55039,158.14,41.8605)"><path d="M0,-5 L5,0 L0,5" fill-rule="evenodd" vector-effect="none"/></g><defs><clipPath id="clip21"><path d="M-102,-12 L7,-12 L7,117 L-102,117 L-102,-12 z"/></clipPath></defs><g clip-path="url(#clip21)" fill="none" opacity="1" stroke="#000000" stroke-linecap="round" stroke-linejoin="miter" stroke-miterlimit="2" stroke-opacity="1" stroke-width="2" transform="matrix(1.55039,0,0,1.55039,158.14,18.6047)"><path d="M0,-5 L5,0 L0,5" fill-rule="evenodd" vector-effect="none"/></g><defs><clipPath id="clip24"><path d="M-102,-57 L7,-57 L7,72 L-102,72 L-102,-57 z"/></clipPath></defs><g clip-path="url(#clip24)" fill="none" opacity="1" stroke="#000000" stroke-linecap="round" stroke-linejoin="miter" stroke-miterlimit="2" stroke-opacity="1" stroke-width="2" transform="matrix(1.55039,0,0,1.55039,158.14,88.3721)"><path d="M0,-5 L5,0 L0,5" fill-rule="evenodd" vector-effect="none"/></g><defs><clipPath id="clip27"><path d="M7,67 L-102,67 L-102,-62 L7,-62 L7,67 z"/></clipPath></defs><g clip-path="url(#clip27)" fill="none" opacity="1" stroke="#000000" stroke-linecap="round" stroke-linejoin="miter" stroke-miterlimit="2" stroke-opacity="1" stroke-width="2" transform="matrix(-1.55039,0,0,-1.55039,10.8527,103.876)"><path d="M5,-5 L0,0 L5,5" fill-rule="evenodd" vector-effect="none"/></g><defs><clipPath id="clip30"><path d="M-7,-2 L102,-2 L102,127 L-7,127 L-7,-2 z"/></clipPath></defs><g clip-path="url(#clip30)" fill="#ffffff" fill-opacity="1" opacity="1" stroke="none" stroke-opacity="0" transform="matrix(1.55039,0,0,1.55039,10.8527,3.10078)"><path d="M0,0 L95,0 L95,125 L0,125 L0,0 z" fill-rule="evenodd" vector-effect="none"/></g><defs><clipPath id="clip35"><path d="M-15,-333 L471,-333 L471,307 L-15,307 L-15,-333 z"/></clipPath></defs><g clip-path="url(#clip35)" fill="none" opacity="1" stroke="#000000" stroke-linecap="butt" stroke-linejoin="miter" stroke-miterlimit="2" stroke-opacity="1" stroke-width="0.645" transform="matrix(0.30281,0,0,0.30281,15.5039,103.876)"><text fill="#000000" fill-opacity="1" font-family="Liberation Sans" font-size="40" font-style="normal" font-weight="400" stroke="none" textLength="117" x="0" xml:space="preserve" y="17.9219">packet</text></g><defs><clipPath id="clip38"><path d="M-471,-51 L15,-51 L15,589 L-471,589 L-471,-51 z"/></clipPath></defs><g clip-path="url(#clip38)" fill="none" opacity="1" stroke="#000000" stroke-linecap="butt" stroke-linejoin="miter" stroke-miterlimit="2" stroke-opacity="1" stroke-width="0.645" transform="matrix(0.30281,0,0,0.30281,153.488,18.6047)"><text fill="#000000" fill-opacity="1" font-family="Liberation Sans" font-size="40" font-style="normal" font-weight="400" stroke="none" textLength="262" x="-341.406" xml:space="preserve" y="17.9219">wind_speed_kt</text></g><defs><clipPath id="clip41"><path d="M-471,-128 L15,-128 L15,512 L-471,512 L-471,-128 z"/></clipPath></defs><g clip-path="url(#clip41)" fill="none" opacity="1" stroke="#000000" stroke-linecap="butt" stroke-linejoin="miter" stroke-miterlimit="2" stroke-opacity="1" stroke-width="0.645" transform="matrix(0.30281,0,0,0.30281,153.488,41.8605)"><text fill="#000000" fill-opacity="1" font-family="Liberation Sans" font-size="40" font-style="normal" font-weight="400" stroke="none" textLength="233" x="-304.391" xml:space="preserve" y="17.9219">wind_dir_deg</text></g><defs><clipPath id="clip44"><path d="M-471,-205 L15,-205 L15,435 L-471,435 L-471,-205 z"/></clipPath></defs><g clip-path="url(#clip44)" fill="none" opacity="1" stroke="#000000" stroke-linecap="butt" stroke-linejoin="miter" stroke-miterlimit="2" stroke-opacity="1" stroke-width="0.645" transform="matrix(0.30281,0,0,0.30281,153.488,65.1163)"><text fill="#000000" fill-opacity="1" font-family="Liberation Sans" font-size="40" font-style="normal" font-weight="400" stroke="none" textLength="293" x="-384.031" xml:space="preserve" y="17.9219">turbulence_norm</text></g><defs><clipPath id="clip47"><path d="M-471,-282 L15,-282 L15,358 L-471,358 L-471,-282 z"/></clipPath></defs><g clip-path="url(#clip47)" fill="none" opacity="1" stroke="#000000" stroke-linecap="butt" stroke-linejoin="miter" stroke-miterlimit="2" stroke-opacity="1" stroke-width="0.645" transform="matrix(0.30281,0,0,0.30281,153.488,88.3721)"><text fill="#000000" fill-opacity="1" font-family="Liberation Sans" font-size="40" font-style="normal" font-weight="400" stroke="none" textLength="131" x="-167.828" xml:space="preserve" y="17.9219">temp_c</text></g><defs><clipPath id="clip50"><path d="M-471,-358 L15,-358 L15,282 L-471,282 L-471,-358 z"/></clipPath></defs><g clip-path="url(#clip50)" fill="none" opacity="1" stroke="#000000" stroke-linecap="butt" stroke-linejoin="miter" stroke-miterlimit="2" stroke-opacity="1" stroke-width="0.645" transform="matrix(0.30281,0,0,0.30281,153.488,111.628)"><text fill="#000000" fill-opacity="1" font-family="Liberation Sans" font-size="40" font-style="normal" font-weight="400" stroke="none" textLength="189" x="-250.359" xml:space="preserve" y="17.9219">press_inhg</text></g><defs><clipPath id="clip53"><path d="M-471,-435 L15,-435 L15,205 L-471,205 L-471,-435 z"/></clipPath></defs><g clip-path="url(#clip53)" fill="none" opacity="1" stroke="#000000" stroke-linecap="butt" stroke-linejoin="miter" stroke-miterlimit="2" stroke-opacity="1" stroke-width="0.645" transform="matrix(0.30281,0,0,0.30281,153.488,134.884)"><text fill="#000000" fill-opacity="1" font-family="Liberation Sans" font-size="40" font-style="normal" font-weight="400" stroke="none" textLength="142" x="-187.797" xml:space="preserve" y="17.9219">hground</text></g><defs><clipPath id="clip56"><path d="M-471,-512 L15,-512 L15,128 L-471,128 L-471,-512 z"/></clipPath></defs><g clip-path="url(#clip56)" fill="none" opacity="1" stroke="#000000" stroke-linecap="butt" stroke-linejoin="miter" stroke-miterlimit="2" stroke-opacity="1" stroke-width="0.645" transform="matrix(0.30281,0,0,0.30281,153.488,158.14)"><text fill="#000000" fill-opacity="1" font-family="Liberation Sans" font-size="40" font-style="normal" font-weight="400" stroke="none" textLength="132" x="-170.656" xml:space="preserve" y="17.9219">magvar</text></g><defs><clipPath id="clip59"><path d="M-471,-589 L15,-589 L15,51 L-471,51 L-471,-589 z"/></clipPath></defs><g clip-path="url(#clip59)" fill="none" opacity="1" stroke="#000000" stroke-linecap="butt" stroke-linejoin="miter" stroke-miterlimit="2" stroke-opacity="1" stroke-width="0.645" transform="matrix(0.30281,0,0,0.30281,153.488,181.395)"><text fill="#000000" fill-opacity="1" font-family="Liberation Sans" font-size="40" font-style="normal" font-weight="400" stroke="none" textLength="79" x="-105.234" xml:space="preserve" y="17.9219">icing</text></g><defs><clipPath id="clip65"><path d="M-7,-2 L102,-2 L102,127 L-7,127 L-7,-2 z"/></clipPath></defs><g clip-path="url(#clip65)" fill="none" opacity="1" stroke="#000000" stroke-linecap="butt" stroke-linejoin="miter" stroke-miterlimit="2" stroke-opacity="1" stroke-width="0.83912" transform="matrix(1.55039,0,0,1.55039,10.8527,3.10078)"><path d="M0,0 L95,0 L95,125 L0,125 L0,0 z" fill-rule="evenodd" vector-effect="none"/></g></g></svg>
