<?xml version="1.0" encoding="UTF-8"?><svg width="50.2708mm" height="52.9167mm" viewBox="0 0 190 200" xmlns="http://www.w3.org/2000/svg" xmlns:xlink="http://www.w3.org/1999/xlink"><g fill="none" stroke="black" stroke-width="1" fill-rule="evenodd" stroke-linecap="square" stroke-linejoin="bevel"><g clip-path="none" fill="none" opacity="1" stroke="none" stroke-opacity="0" transform="matrix(1,0,0,1,0,0)"><path d="M0,0 L190,0 L190,200 L0,200 L0,0 z" fill-rule="evenodd" vector-effect="none"/></g><defs><clipPath id="clip3"><path d="M7,74 L-77,74 L-77,-14 L7,-14 L7,74 z"/></clipPath></defs><g clip-path="url(#clip3)" fill="none" opacity="1" stroke="#000000" stroke-linecap="round" stroke-linejoin="miter" stroke-miterlimit="2" stroke-opacity="1" stroke-width="2" transform="matrix(-2.27273,0,0,-2.27273,15.9091,168.182)"><path d="M5,-5 L0,0 L5,5" fill-rule="evenodd" vector-effect="none"/></g><defs><clipPath id="clip6"><path d="M7,44 L-77,44 L-77,-44 L7,-44 L7,44 z"/></clipPath></defs><g clip-path="url(#clip6)" fill="none" opacity="1" stroke="#000000" stroke-linecap="round" stroke-linejoin="miter" stroke-miterlimit="2" stroke-opacity="1" stroke-width="2" transform="matrix(-2.27273,0,0,-2.27273,15.9091,100)"><path d="M5,-5 L0,0 L5,5" fill-rule="evenodd" vector-effect="none"/></g><defs><clipPath id="clip9"><path d="M7,14 L-77,14 L-77,-74 L7,-74 L7,14 z"/></clipPath></defs><g clip-path="url(#clip9)" fill="none" opacity="1" stroke="#000000" stroke-linecap="round" stroke-linejoin="miter" stroke-miterlimit="2" stroke-opacity="1" stroke-width="2" transform="matrix(-2.27273,0,0,-2.27273,15.9091,31.8182)"><path d="M5,-5 L0,0 L5,5" fill-rule="evenodd" vector-effect="none"/></g><defs><clipPath id="clip12"><path d="M-7,-2 L77,-2 L77,86 L-7,86 L-7,-2 z"/></clipPath></defs><g clip-path="url(#clip12)" fill="#ffffff" fill-opacity="1" opacity="1" stroke="none" stroke-opacity="0" transform="matrix(2.27273,0,0,2.27273,15.9091,4.54545)"><path d="M0,0 L75,0 L75,84 L0,84 L0,0 z" fill-rule="evenodd" vector-effect="none"/></g><defs><clipPath id="clip17"><path d="M-15,-67 L369,-67 L369,363 L-15,363 L-15,-67 z"/></clipPath></defs><g clip-path="url(#clip17)" fill="none" opacity="1" stroke="#000000" stroke-linecap="butt" stroke-linejoin="miter" stroke-miterlimit="2" stroke-opacity="1" stroke-width="0.44" transform="matrix(0.443892,0,0,0.443892,22.7273,34.0909)"><text fill="#000000" fill-opacity="1" font-family="Liberation Sans" font-size="40" font-style="normal" font-weight="400" stroke="none" textLength="18" x="0" xml:space="preserve" y="1.28125">x</text></g><defs><clipPath id="clip20"><path d="M-41,-92 L343,-92 L343,338 L-41,338 L-41,-92 z"/></clipPath></defs><g clip-path="url(#clip20)" fill="none" opacity="1" stroke="#000000" stroke-linecap="butt" stroke-linejoin="miter" stroke-miterlimit="2" stroke-opacity="1" stroke-width="0.44" transform="matrix(0.443892,0,0,0.443892,34.0909,45.4545)"><text fill="#000000" fill-opacity="1" font-family="Liberation Sans" font-size="32" font-style="normal" font-weight="400" stroke="none" textLength="9" x="0" xml:space="preserve" y="1.28125">t</text></g><defs><clipPath id="clip23"><path d="M-51,-67 L333,-67 L333,363 L-51,363 L-51,-67 z"/></clipPath></defs><g clip-path="url(#clip23)" fill="none" opacity="1" stroke="#000000" stroke-linecap="butt" stroke-linejoin="miter" stroke-miterlimit="2" stroke-opacity="1" stroke-width="0.44" transform="matrix(0.443892,0,0,0.443892,38.6364,34.0909)"><text fill="#000000" fill-opacity="1" font-family="Liberation Sans" font-size="40" font-style="normal" font-weight="400" stroke="none" textLength="31" x="0" xml:space="preserve" y="1.28125">,z</text></g><defs><clipPath id="clip26"><path d="M-92,-92 L292,-92 L292,338 L-92,338 L-92,-92 z"/></clipPath></defs><g clip-path="url(#clip26)" fill="none" opacity="1" stroke="#000000" stroke-linecap="butt" stroke-linejoin="miter" stroke-miterlimit="2" stroke-opacity="1" stroke-width="0.44" transform="matrix(0.443892,0,0,0.443892,56.8182,45.4545)"><text fill="#000000" fill-opacity="1" font-family="Liberation Sans" font-size="32" font-style="normal" font-weight="400" stroke="none" textLength="9" x="0" xml:space="preserve" y="1.28125">t</text></g><defs><clipPath id="clip29"><path d="M-15,-220 L369,-220 L369,210 L-15,210 L-15,-220 z"/></clipPath></defs><g clip-path="url(#clip29)" fill="none" opacity="1" stroke="#000000" stroke-linecap="butt" stroke-linejoin="miter" stroke-miterlimit="2" stroke-opacity="1" stroke-width="0.44" transform="matrix(0.443892,0,0,0.443892,22.7273,102.273)"><text fill="#000000" fill-opacity="1" font-family="Liberation Sans" font-size="40" font-style="normal" font-weight="400" stroke="none" textLength="18" x="0" xml:space="preserve" y="1.28125">x</text></g><defs><clipPath id="clip32"><path d="M-41,-246 L343,-246 L343,184 L-41,184 L-41,-246 z"/></clipPath></defs><g clip-path="url(#clip32)" fill="none" opacity="1" stroke="#000000" stroke-linecap="butt" stroke-linejoin="miter" stroke-miterlimit="2" stroke-opacity="1" stroke-width="0.44" transform="matrix(0.443892,0,0,0.443892,34.0909,113.636)"><text fill="#000000" fill-opacity="1" font-family="Liberation Sans" font-size="32" font-style="normal" font-weight="400" stroke="none" textLength="17" x="0" xml:space="preserve" y="1.28125">e</text></g><defs><clipPath id="clip35"><path d="M-61,-220 L323,-220 L323,210 L-61,210 L-61,-220 z"/></clipPath></defs><g clip-path="url(#clip35)" fill="none" opacity="1" stroke="#000000" stroke-linecap="butt" stroke-linejoin="miter" stroke-miterlimit="2" stroke-opacity="1" stroke-width="0.44" transform="matrix(0.443892,0,0,0.443892,43.1818,102.273)"><text fill="#000000" fill-opacity="1" font-family="Liberation Sans" font-size="40" font-style="normal" font-weight="400" stroke="none" textLength="31" x="0" xml:space="preserve" y="1.28125">,z</text></g><defs><clipPath id="clip38"><path d="M-102,-246 L282,-246 L282,184 L-102,184 L-102,-246 z"/></clipPath></defs><g clip-path="url(#clip38)" fill="none" opacity="1" stroke="#000000" stroke-linecap="butt" stroke-linejoin="miter" stroke-miterlimit="2" stroke-opacity="1" stroke-width="0.44" transform="matrix(0.443892,0,0,0.443892,61.3636,113.636)"><text fill="#000000" fill-opacity="1" font-family="Liberation Sans" font-size="32" font-style="normal" font-weight="400" stroke="none" textLength="17" x="0" xml:space="preserve" y="1.28125">e</text></g><defs><clipPath id="clip41"><path d="M-15,-389 L369,-389 L369,41 L-15,41 L-15,-389 z"/></clipPath></defs><g clip-path="url(#clip41)" fill="none" opacity="1" stroke="#000000" stroke-linecap="butt" stroke-linejoin="miter" stroke-miterlimit="2" stroke-opacity="1" stroke-width="0.44" transform="matrix(0.443892,0,0,0.443892,22.7273,177.273)"><text fill="#000000" fill-opacity="1" font-family="Liberation Sans" font-size="40" font-style="normal" font-weight="400" stroke="none" textLength="22" x="0" xml:space="preserve" y="1.28125">θ</text></g><defs><clipPath id="clip43"><path d="M70,53 L145,53 L145,137 L70,137 L70,53 z"/></clipPath></defs><g clip-path="url(#clip43)" fill="#000000" fill-opacity="1" opacity="1" stroke="#000000" stroke-linecap="butt" stroke-linejoin="miter" stroke-miterlimit="2" stroke-opacity="1" stroke-width="0.44" transform="matrix(2.27273,0,0,2.27273,-143.182,-115.909)"><path d="M98,89 L98,91 L96,91 L96,95 L98,95 L98,100 L103,100 L98,109 L100,109 L106,100 L108,100 L114,109 L116,109 L111,100 L116,100 L116,95 L120,100 L120,89 L116,94 L116,89 L113,89 L116,87 L118,83 L116,79 L113,78 L109,79 L107,83 L109,87 L113,89 L113,88 L111,87 L113,86 L114,87 L115,86 L114,85 L115,84 L116,85 L115,86 L114,87 L113,88 L113,89 L101,89 L105,87 L107,83 L105,79 L101,78 L98,79 L96,83 L98,87 L101,89 L101,88 L100,87 L101,86 L103,87 L104,86 L103,85 L104,84 L105,85 L104,86 L103,87 L101,88 L101,89 L98,89 z" fill-rule="evenodd" vector-effect="none"/></g><defs><clipPath id="clip48"><path d="M-7,-2 L77,-2 L77,86 L-7,86 L-7,-2 z"/></clipPath></defs><g clip-path="url(#clip48)" fill="none" opacity="1" stroke="#000000" stroke-linecap="butt" stroke-linejoin="miter" stroke-miterlimit="2" stroke-opacity="1" stroke-width="1.44016" transform="matrix(2.27273,0,0,2.27273,15.9091,4.54545)"><path d="M0,0 L75,0 L75,84 L0,84 L0,0 z" fill-rule="evenodd" vector-effect="none"/></g></g></svg>
