<?xml version="1.0" encoding="UTF-8"?><svg width="52.9167mm" height="51.0646mm" viewBox="0 0 200 193" xmlns="http://www.w3.org/2000/svg" xmlns:xlink="http://www.w3.org/1999/xlink"><g fill="none" stroke="black" stroke-width="1" fill-rule="evenodd" stroke-linecap="square" stroke-linejoin="bevel"><g clip-path="none" fill="none" opacity="1" stroke="none" stroke-opacity="0" transform="matrix(1,0,0,1,0,0)"><path d="M0,0 L200,0 L200,193 L0,193 L0,0 z" fill-rule="evenodd" vector-effect="none"/></g><defs><clipPath id="clip3"><path d="M7,63 L-82,63 L-82,-23 L7,-23 L7,63 z"/></clipPath></defs><g clip-path="url(#clip3)" fill="none" opacity="1" stroke="#000000" stroke-linecap="round" stroke-linejoin="miter" stroke-miterlimit="2" stroke-opacity="1" stroke-width="2" transform="matrix(-2.24719,0,0,-2.24719,15.7303,141.573)"><path d="M5,-5 L0,0 L5,5" fill-rule="evenodd" vector-effect="none"/></g><defs><clipPath id="clip6"><path d="M7,23 L-82,23 L-82,-63 L7,-63 L7,23 z"/></clipPath></defs><g clip-path="url(#clip6)" fill="none" opacity="1" stroke="#000000" stroke-linecap="round" stroke-linejoin="miter" stroke-miterlimit="2" stroke-opacity="1" stroke-width="2" transform="matrix(-2.24719,0,0,-2.24719,15.7303,51.6854)"><path d="M5,-5 L0,0 L5,5" fill-rule="evenodd" vector-effect="none"/></g><defs><clipPath id="clip9"><path d="M-7,-2 L82,-2 L82,84 L-7,84 L-7,-2 z"/></clipPath></defs><g clip-path="url(#clip9)" fill="#ffffff" fill-opacity="1" opacity="1" stroke="none" stroke-opacity="0" transform="matrix(2.24719,0,0,2.24719,15.7303,4.49438)"><path d="M0,0 L80,0 L80,82 L0,82 L0,0 z" fill-rule="evenodd" vector-effect="none"/></g><defs><clipPath id="clip14"><path d="M-15,-113 L395,-113 L395,307 L-15,307 L-15,-113 z"/></clipPath></defs><g clip-path="url(#clip14)" fill="none" opacity="1" stroke="#000000" stroke-linecap="butt" stroke-linejoin="miter" stroke-miterlimit="2" stroke-opacity="1" stroke-width="0.445" transform="matrix(0.438904,0,0,0.438904,22.4719,53.9326)"><text fill="#000000" fill-opacity="1" font-family="Liberation Sans" font-size="40" font-style="normal" font-weight="400" stroke="none" textLength="18" x="0" xml:space="preserve" y="1.28125">x</text></g><defs><clipPath id="clip17"><path d="M-41,-138 L369,-138 L369,282 L-41,282 L-41,-138 z"/></clipPath></defs><g clip-path="url(#clip17)" fill="none" opacity="1" stroke="#000000" stroke-linecap="butt" stroke-linejoin="miter" stroke-miterlimit="2" stroke-opacity="1" stroke-width="0.445" transform="matrix(0.438904,0,0,0.438904,33.7079,65.1685)"><text fill="#000000" fill-opacity="1" font-family="Liberation Sans" font-size="32" font-style="normal" font-weight="400" stroke="none" textLength="17" x="0" xml:space="preserve" y="1.28125">e</text></g><defs><clipPath id="clip20"><path d="M-15,-333 L395,-333 L395,87 L-15,87 L-15,-333 z"/></clipPath></defs><g clip-path="url(#clip20)" fill="none" opacity="1" stroke="#000000" stroke-linecap="butt" stroke-linejoin="miter" stroke-miterlimit="2" stroke-opacity="1" stroke-width="0.445" transform="matrix(0.438904,0,0,0.438904,22.4719,150.562)"><text fill="#000000" fill-opacity="1" font-family="Liberation Sans" font-size="40" font-style="normal" font-weight="400" stroke="none" textLength="99" x="0" xml:space="preserve" y="1.28125">φ θ ψ</text></g><defs><clipPath id="clip22"><path d="M185,54 L265,54 L265,136 L185,136 L185,54 z"/></clipPath></defs><g clip-path="url(#clip22)" fill="#000000" fill-opacity="1" opacity="1" stroke="#000000" stroke-linecap="butt" stroke-linejoin="miter" stroke-miterlimit="2" stroke-opacity="1" stroke-width="0.445" transform="matrix(2.24719,0,0,2.24719,-400,-116.854)"><path d="M215,89 L215,91 L213,91 L213,95 L215,95 L215,100 L220,100 L215,110 L217,110 L223,100 L226,100 L232,110 L234,110 L229,100 L234,100 L234,95 L239,100 L239,89 L234,94 L234,89 L230,89 L235,87 L236,83 L235,78 L230,77 L226,78 L225,83 L226,87 L230,89 L230,87 L229,86 L230,85 L232,86 L233,86 L232,84 L233,83 L234,84 L233,86 L232,86 L230,87 L230,89 L219,89 L223,87 L225,83 L223,78 L219,77 L214,78 L213,83 L214,87 L219,89 L219,87 L217,86 L219,85 L220,86 L221,86 L220,84 L221,83 L222,84 L221,86 L220,86 L219,87 L219,89 L215,89 z" fill-rule="evenodd" vector-effect="none"/></g><defs><clipPath id="clip27"><path d="M-7,-2 L82,-2 L82,84 L-7,84 L-7,-2 z"/></clipPath></defs><g clip-path="url(#clip27)" fill="none" opacity="1" stroke="#000000" stroke-linecap="butt" stroke-linejoin="miter" stroke-miterlimit="2" stroke-opacity="1" stroke-width="1.44669" transform="matrix(2.24719,0,0,2.24719,15.7303,4.49438)"><path d="M0,0 L80,0 L80,82 L0,82 L0,0 z" fill-rule="evenodd" vector-effect="none"/></g></g></svg>
