<?xml version="1.0" encoding="UTF-8"?><svg width="52.9167mm" height="17.7271mm" viewBox="0 0 200 67" xmlns="http://www.w3.org/2000/svg" xmlns:xlink="http://www.w3.org/1999/xlink"><g fill="none" stroke="black" stroke-width="1" fill-rule="evenodd" stroke-linecap="square" stroke-linejoin="bevel"><g clip-path="none" fill="none" opacity="1" stroke="none" stroke-opacity="0" transform="matrix(1,0,0,1,0,0)"><path d="M0,0 L200,0 L200,67 L0,67 L0,0 z" fill-rule="evenodd" vector-effect="none"/></g><defs><clipPath id="clip3"><path d="M-117,-21 L7,-21 L7,21 L-117,21 L-117,-21 z"/></clipPath></defs><g clip-path="url(#clip3)" fill="none" opacity="1" stroke="#000000" stroke-linecap="round" stroke-linejoin="miter" stroke-miterlimit="2" stroke-opacity="1" stroke-width="2" transform="matrix(1.6129,0,0,1.6129,188.71,33.871)"><path d="M0,-5 L5,0 L0,5" fill-rule="evenodd" vector-effect="none"/></g><defs><clipPath id="clip6"><path d="M7,21 L-117,21 L-117,-21 L7,-21 L7,21 z"/></clipPath></defs><g clip-path="url(#clip6)" fill="none" opacity="1" stroke="#000000" stroke-linecap="round" stroke-linejoin="miter" stroke-miterlimit="2" stroke-opacity="1" stroke-width="2" transform="matrix(-1.6129,0,0,-1.6129,11.2903,33.871)"><path d="M5,-5 L0,0 L5,5" fill-rule="evenodd" vector-effect="none"/></g><defs><clipPath id="clip9"><path d="M-7,-2 L117,-2 L117,40 L-7,40 L-7,-2 z"/></clipPath></defs><g clip-path="url(#clip9)" fill="#ffffff" fill-opacity="1" opacity="1" stroke="none" stroke-opacity="0" transform="matrix(1.6129,0,0,1.6129,11.2903,3.22581)"><path d="M0,0 L110,0 L110,38 L0,38 L0,0 z" fill-rule="evenodd" vector-effect="none"/></g><defs><clipPath id="clip14"><path d="M-282,-72 L281,-72 L281,123 L-282,123 L-282,-72 z"/></clipPath></defs><g clip-path="url(#clip14)" fill="none" opacity="1" stroke="#000000" stroke-linecap="butt" stroke-linejoin="miter" stroke-miterlimit="2" stroke-opacity="1" stroke-width="0.62" transform="matrix(0.31502,0,0,0.31502,100,25.8065)"><text fill="#000000" fill-opacity="1" font-family="Liberation Sans" font-size="40" font-style="normal" font-weight="400" stroke="none" textLength="343" x="-226.859" xml:space="preserve" y="17.9219">x(n+1)=Ax(n)+Bu(n)</text></g><defs><clipPath id="clip17"><path d="M-282,-123 L281,-123 L281,72 L-282,72 L-282,-123 z"/></clipPath></defs><g clip-path="url(#clip17)" fill="none" opacity="1" stroke="#000000" stroke-linecap="butt" stroke-linejoin="miter" stroke-miterlimit="2" stroke-opacity="1" stroke-width="0.62" transform="matrix(0.31502,0,0,0.31502,100,41.9355)"><text fill="#000000" fill-opacity="1" font-family="Liberation Sans" font-size="40" font-style="normal" font-weight="400" stroke="none" textLength="303" x="-200.5" xml:space="preserve" y="17.9219">y(n)=Cx(n)+Du(n)</text></g><defs><clipPath id="clip23"><path d="M-7,-2 L117,-2 L117,40 L-7,40 L-7,-2 z"/></clipPath></defs><g clip-path="url(#clip23)" fill="none" opacity="1" stroke="#000000" stroke-linecap="butt" stroke-linejoin="miter" stroke-miterlimit="2" stroke-opacity="1" stroke-width="0.825956" transform="matrix(1.6129,0,0,1.6129,11.2903,3.22581)"><path d="M0,0 L110,0 L110,38 L0,38 L0,0 z" fill-rule="evenodd" vector-effect="none"/></g></g></svg>
