<?xml version="1.0" encoding="UTF-8"?><svg width="52.9167mm" height="52.9167mm" viewBox="0 0 200 200" xmlns="http://www.w3.org/2000/svg" xmlns:xlink="http://www.w3.org/1999/xlink"><g fill="none" stroke="black" stroke-width="1" fill-rule="evenodd" stroke-linecap="square" stroke-linejoin="bevel"><g clip-path="none" fill="none" opacity="1" stroke="none" stroke-opacity="0" transform="matrix(1,0,0,1,0,0)"><path d="M0,0 L200,0 L200,200 L0,200 L0,0 z" fill-rule="evenodd" vector-effect="none"/></g><defs><clipPath id="clip3"><path d="M7,62 L-77,62 L-77,-22 L7,-22 L7,62 z"/></clipPath></defs><g clip-path="url(#clip3)" fill="none" opacity="1" stroke="#000000" stroke-linecap="round" stroke-linejoin="miter" stroke-miterlimit="2" stroke-opacity="1" stroke-width="2" transform="matrix(-2.38095,0,0,-2.38095,16.6667,147.619)"><path d="M5,-5 L0,0 L5,5" fill-rule="evenodd" vector-effect="none"/></g><defs><clipPath id="clip6"><path d="M7,22 L-77,22 L-77,-62 L7,-62 L7,22 z"/></clipPath></defs><g clip-path="url(#clip6)" fill="none" opacity="1" stroke="#000000" stroke-linecap="round" stroke-linejoin="miter" stroke-miterlimit="2" stroke-opacity="1" stroke-width="2" transform="matrix(-2.38095,0,0,-2.38095,16.6667,52.381)"><path d="M5,-5 L0,0 L5,5" fill-rule="evenodd" vector-effect="none"/></g><defs><clipPath id="clip9"><path d="M-7,-2 L77,-2 L77,82 L-7,82 L-7,-2 z"/></clipPath></defs><g clip-path="url(#clip9)" fill="#ffffff" fill-opacity="1" opacity="1" stroke="none" stroke-opacity="0" transform="matrix(2.38095,0,0,2.38095,16.6667,4.7619)"><path d="M0,0 L75,0 L75,80 L0,80 L0,0 z" fill-rule="evenodd" vector-effect="none"/></g><defs><clipPath id="clip14"><path d="M-15,-108 L369,-108 L369,302 L-15,302 L-15,-108 z"/></clipPath></defs><g clip-path="url(#clip14)" fill="none" opacity="1" stroke="#000000" stroke-linecap="butt" stroke-linejoin="miter" stroke-miterlimit="2" stroke-opacity="1" stroke-width="0.42" transform="matrix(0.46503,0,0,0.46503,23.8095,54.7619)"><text fill="#000000" fill-opacity="1" font-family="Liberation Sans" font-size="40" font-style="normal" font-weight="400" stroke="none" textLength="60" x="0" xml:space="preserve" y="1.28125">1.X</text></g><defs><clipPath id="clip17"><path d="M-97,-133 L287,-133 L287,277 L-97,277 L-97,-133 z"/></clipPath></defs><g clip-path="url(#clip17)" fill="none" opacity="1" stroke="#000000" stroke-linecap="butt" stroke-linejoin="miter" stroke-miterlimit="2" stroke-opacity="1" stroke-width="0.42" transform="matrix(0.46503,0,0,0.46503,61.9048,66.6667)"><text fill="#000000" fill-opacity="1" font-family="Liberation Sans" font-size="32" font-style="normal" font-weight="400" stroke="none" textLength="17" x="0" xml:space="preserve" y="1.28125">e</text></g><defs><clipPath id="clip20"><path d="M-15,-328 L369,-328 L369,82 L-15,82 L-15,-328 z"/></clipPath></defs><g clip-path="url(#clip20)" fill="none" opacity="1" stroke="#000000" stroke-linecap="butt" stroke-linejoin="miter" stroke-miterlimit="2" stroke-opacity="1" stroke-width="0.42" transform="matrix(0.46503,0,0,0.46503,23.8095,157.143)"><text fill="#000000" fill-opacity="1" font-family="Liberation Sans" font-size="40" font-style="normal" font-weight="400" stroke="none" textLength="132" x="0" xml:space="preserve" y="1.28125">1.φ θ ψ</text></g><defs><clipPath id="clip22"><path d="M295,55 L370,55 L370,135 L295,135 L295,55 z"/></clipPath></defs><g clip-path="url(#clip22)" fill="#000000" fill-opacity="1" opacity="1" stroke="#000000" stroke-linecap="butt" stroke-linejoin="miter" stroke-miterlimit="2" stroke-opacity="1" stroke-width="0.42" transform="matrix(2.38095,0,0,2.38095,-685.714,-126.19)"><path d="M338,89 L338,91 L336,91 L336,95 L338,95 L338,100 L342,100 L338,109 L340,109 L346,100 L348,100 L353,109 L356,109 L351,100 L356,100 L356,95 L360,100 L360,89 L356,94 L356,89 L352,89 L356,87 L358,83 L356,79 L352,78 L348,79 L347,83 L348,87 L352,89 L352,88 L351,87 L352,86 L353,87 L355,86 L353,85 L355,84 L356,85 L355,86 L353,87 L352,88 L352,89 L341,89 L345,87 L347,83 L345,79 L341,78 L337,79 L336,83 L337,87 L341,89 L341,88 L340,87 L341,86 L342,87 L343,86 L342,85 L343,84 L345,85 L343,86 L342,87 L341,88 L341,89 L338,89 z" fill-rule="evenodd" vector-effect="none"/></g><defs><clipPath id="clip27"><path d="M-7,-2 L77,-2 L77,82 L-7,82 L-7,-2 z"/></clipPath></defs><g clip-path="url(#clip27)" fill="none" opacity="1" stroke="#000000" stroke-linecap="butt" stroke-linejoin="miter" stroke-miterlimit="2" stroke-opacity="1" stroke-width="0.706805" transform="matrix(2.38095,0,0,2.38095,16.6667,4.7619)"><path d="M0,0 L75,0 L75,80 L0,80 L0,0 z" fill-rule="evenodd" vector-effect="none"/></g></g></svg>
