<?xml version="1.0" encoding="UTF-8"?><svg width="52.9167mm" height="30.9562mm" viewBox="0 0 200 117" xmlns="http://www.w3.org/2000/svg" xmlns:xlink="http://www.w3.org/1999/xlink"><g fill="none" stroke="black" stroke-width="1" fill-rule="evenodd" stroke-linecap="square" stroke-linejoin="bevel"><g clip-path="none" fill="none" opacity="1" stroke="none" stroke-opacity="0" transform="matrix(1,0,0,1,0,0)"><path d="M0,0 L200,0 L200,117 L0,117 L0,0 z" fill-rule="evenodd" vector-effect="none"/></g><defs><clipPath id="clip3"><path d="M-122,-68 L7,-68 L7,8 L-122,8 L-122,-68 z"/></clipPath></defs><g clip-path="url(#clip3)" fill="none" opacity="1" stroke="#000000" stroke-linecap="round" stroke-linejoin="miter" stroke-miterlimit="2" stroke-opacity="1" stroke-width="2" transform="matrix(1.55039,0,0,1.55039,189.147,105.426)"><path d="M0,-5 L5,0 L0,5" fill-rule="evenodd" vector-effect="none"/></g><defs><clipPath id="clip6"><path d="M-122,-48 L7,-48 L7,28 L-122,28 L-122,-48 z"/></clipPath></defs><g clip-path="url(#clip6)" fill="none" opacity="1" stroke="#000000" stroke-linecap="round" stroke-linejoin="miter" stroke-miterlimit="2" stroke-opacity="1" stroke-width="2" transform="matrix(1.55039,0,0,1.55039,189.147,74.4186)"><path d="M0,-5 L5,0 L0,5" fill-rule="evenodd" vector-effect="none"/></g><defs><clipPath id="clip9"><path d="M-122,-28 L7,-28 L7,48 L-122,48 L-122,-28 z"/></clipPath></defs><g clip-path="url(#clip9)" fill="none" opacity="1" stroke="#000000" stroke-linecap="round" stroke-linejoin="miter" stroke-miterlimit="2" stroke-opacity="1" stroke-width="2" transform="matrix(1.55039,0,0,1.55039,189.147,43.4109)"><path d="M0,-5 L5,0 L0,5" fill-rule="evenodd" vector-effect="none"/></g><defs><clipPath id="clip12"><path d="M-122,-8 L7,-8 L7,68 L-122,68 L-122,-8 z"/></clipPath></defs><g clip-path="url(#clip12)" fill="none" opacity="1" stroke="#000000" stroke-linecap="round" stroke-linejoin="miter" stroke-miterlimit="2" stroke-opacity="1" stroke-width="2" transform="matrix(1.55039,0,0,1.55039,189.147,12.4031)"><path d="M0,-5 L5,0 L0,5" fill-rule="evenodd" vector-effect="none"/></g><defs><clipPath id="clip15"><path d="M7,38 L-122,38 L-122,-38 L7,-38 L7,38 z"/></clipPath></defs><g clip-path="url(#clip15)" fill="none" opacity="1" stroke="#000000" stroke-linecap="round" stroke-linejoin="miter" stroke-miterlimit="2" stroke-opacity="1" stroke-width="2" transform="matrix(-1.55039,0,0,-1.55039,10.8527,58.9147)"><path d="M5,-5 L0,0 L5,5" fill-rule="evenodd" vector-effect="none"/></g><defs><clipPath id="clip18"><path d="M-7,-2 L122,-2 L122,74 L-7,74 L-7,-2 z"/></clipPath></defs><g clip-path="url(#clip18)" fill="#ffffff" fill-opacity="1" opacity="1" stroke="none" stroke-opacity="0" transform="matrix(1.55039,0,0,1.55039,10.8527,3.10078)"><path d="M0,0 L115,0 L115,72 L0,72 L0,0 z" fill-rule="evenodd" vector-effect="none"/></g><defs><clipPath id="clip23"><path d="M-15,-205 L574,-205 L574,164 L-15,164 L-15,-205 z"/></clipPath></defs><g clip-path="url(#clip23)" fill="none" opacity="1" stroke="#000000" stroke-linecap="butt" stroke-linejoin="miter" stroke-miterlimit="2" stroke-opacity="1" stroke-width="0.645" transform="matrix(0.30281,0,0,0.30281,15.5039,65.1163)"><text fill="#000000" fill-opacity="1" font-family="Liberation Sans" font-size="40" font-style="normal" font-weight="400" stroke="none" textLength="92" x="0" xml:space="preserve" y="1.28125">h (m)</text></g><defs><clipPath id="clip26"><path d="M-456,-51 L133,-51 L133,318 L-456,318 L-456,-51 z"/></clipPath></defs><g clip-path="url(#clip26)" fill="none" opacity="1" stroke="#000000" stroke-linecap="butt" stroke-linejoin="miter" stroke-miterlimit="2" stroke-opacity="1" stroke-width="0.645" transform="matrix(0.30281,0,0,0.30281,148.837,18.6047)"><text fill="#000000" fill-opacity="1" font-family="Liberation Sans" font-size="40" font-style="normal" font-weight="400" stroke="none" textLength="87" x="0" xml:space="preserve" y="1.28125">T (K)</text></g><defs><clipPath id="clip29"><path d="M-415,-154 L174,-154 L174,215 L-415,215 L-415,-154 z"/></clipPath></defs><g clip-path="url(#clip29)" fill="none" opacity="1" stroke="#000000" stroke-linecap="butt" stroke-linejoin="miter" stroke-miterlimit="2" stroke-opacity="1" stroke-width="0.645" transform="matrix(0.30281,0,0,0.30281,136.434,49.6124)"><text fill="#000000" fill-opacity="1" font-family="Liberation Sans" font-size="40" font-style="normal" font-weight="400" stroke="none" textLength="123" x="0" xml:space="preserve" y="1.28125">a (m/s)</text></g><defs><clipPath id="clip32"><path d="M-425,-256 L164,-256 L164,113 L-425,113 L-425,-256 z"/></clipPath></defs><g clip-path="url(#clip32)" fill="none" opacity="1" stroke="#000000" stroke-linecap="butt" stroke-linejoin="miter" stroke-miterlimit="2" stroke-opacity="1" stroke-width="0.645" transform="matrix(0.30281,0,0,0.30281,139.535,80.6202)"><text fill="#000000" fill-opacity="1" font-family="Liberation Sans" font-size="40" font-style="normal" font-weight="400" stroke="none" textLength="112" x="0" xml:space="preserve" y="1.28125">P (Pa)</text></g><defs><clipPath id="clip35"><path d="M-364,-364 L225,-364 L225,5 L-364,5 L-364,-364 z"/></clipPath></defs><g clip-path="url(#clip35)" fill="none" opacity="1" stroke="#000000" stroke-linecap="butt" stroke-linejoin="miter" stroke-miterlimit="2" stroke-opacity="1" stroke-width="0.645" transform="matrix(0.30281,0,0,0.30281,120.93,113.178)"><text fill="#000000" fill-opacity="1" font-family="Liberation Sans" font-size="40" font-style="normal" font-weight="400" stroke="none" textLength="47" x="0" xml:space="preserve" y="1.28125">ρ (</text></g><defs><clipPath id="clip37"><path d="M-364,-364 L225,-364 L225,5 L-364,5 L-364,-364 z"/></clipPath></defs><g clip-path="url(#clip37)" fill="none" opacity="1" stroke="#000000" stroke-linecap="butt" stroke-linejoin="miter" stroke-miterlimit="2" stroke-opacity="1" stroke-width="0.645" transform="matrix(0.30281,0,0,0.30281,120.93,113.178)"><text fill="#000000" fill-opacity="1" font-family="Liberation Sans" font-size="40" font-style="normal" font-weight="400" stroke="none" textLength="87" x="60.375" xml:space="preserve" y="1.28125">kg/m</text></g><defs><clipPath id="clip40"><path d="M-538,-338 L51,-338 L51,31 L-538,31 L-538,-338 z"/></clipPath></defs><g clip-path="url(#clip40)" fill="none" opacity="1" stroke="#000000" stroke-linecap="butt" stroke-linejoin="miter" stroke-miterlimit="2" stroke-opacity="1" stroke-width="0.645" transform="matrix(0.30281,0,0,0.30281,173.643,105.426)"><text fill="#000000" fill-opacity="1" font-family="Liberation Sans" font-size="32" font-style="normal" font-weight="400" stroke="none" textLength="18" x="0" xml:space="preserve" y="1.28125">3</text></g><defs><clipPath id="clip43"><path d="M-558,-364 L31,-364 L31,5 L-558,5 L-558,-364 z"/></clipPath></defs><g clip-path="url(#clip43)" fill="none" opacity="1" stroke="#000000" stroke-linecap="butt" stroke-linejoin="miter" stroke-miterlimit="2" stroke-opacity="1" stroke-width="0.645" transform="matrix(0.30281,0,0,0.30281,179.845,113.178)"><text fill="#000000" fill-opacity="1" font-family="Liberation Sans" font-size="40" font-style="normal" font-weight="400" stroke="none" textLength="13" x="0" xml:space="preserve" y="1.28125">)</text></g><defs><clipPath id="clip45"><path d="M35,139 L150,139 L150,211 L35,211 L35,139 z"/></clipPath></defs><g clip-path="url(#clip45)" fill="none" opacity="1" stroke="#000000" stroke-linecap="butt" stroke-linejoin="miter" stroke-miterlimit="2" stroke-opacity="1" stroke-width="0.645" transform="matrix(1.55039,0,0,1.55039,-42.6357,-211.628)"><polyline fill="none" points="79,178 93,178" vector-effect="none"/></g><defs><clipPath id="clip46"><path d="M35,139 L150,139 L150,211 L35,211 L35,139 z"/></clipPath></defs><g clip-path="url(#clip46)" fill="none" opacity="1" stroke="#000000" stroke-linecap="butt" stroke-linejoin="miter" stroke-miterlimit="2" stroke-opacity="1" stroke-width="0.645" transform="matrix(1.55039,0,0,1.55039,-42.6357,-211.628)"><polyline fill="none" points="93,178 93,177" vector-effect="none"/></g><defs><clipPath id="clip47"><path d="M35,139 L150,139 L150,211 L35,211 L35,139 z"/></clipPath></defs><g clip-path="url(#clip47)" fill="none" opacity="1" stroke="#000000" stroke-linecap="butt" stroke-linejoin="miter" stroke-miterlimit="2" stroke-opacity="1" stroke-width="0.645" transform="matrix(1.55039,0,0,1.55039,-42.6357,-211.628)"><polyline fill="none" points="93,177 91,177" vector-effect="none"/></g><defs><clipPath id="clip48"><path d="M35,139 L150,139 L150,211 L35,211 L35,139 z"/></clipPath></defs><g clip-path="url(#clip48)" fill="none" opacity="1" stroke="#000000" stroke-linecap="butt" stroke-linejoin="miter" stroke-miterlimit="2" stroke-opacity="1" stroke-width="0.645" transform="matrix(1.55039,0,0,1.55039,-42.6357,-211.628)"><polyline fill="none" points="91,177 91,175" vector-effect="none"/></g><defs><clipPath id="clip49"><path d="M35,139 L150,139 L150,211 L35,211 L35,139 z"/></clipPath></defs><g clip-path="url(#clip49)" fill="none" opacity="1" stroke="#000000" stroke-linecap="butt" stroke-linejoin="miter" stroke-miterlimit="2" stroke-opacity="1" stroke-width="0.645" transform="matrix(1.55039,0,0,1.55039,-42.6357,-211.628)"><polyline fill="none" points="91,175 90,175" vector-effect="none"/></g><defs><clipPath id="clip50"><path d="M35,139 L150,139 L150,211 L35,211 L35,139 z"/></clipPath></defs><g clip-path="url(#clip50)" fill="none" opacity="1" stroke="#000000" stroke-linecap="butt" stroke-linejoin="miter" stroke-miterlimit="2" stroke-opacity="1" stroke-width="0.645" transform="matrix(1.55039,0,0,1.55039,-42.6357,-211.628)"><polyline fill="none" points="90,175 90,174" vector-effect="none"/></g><defs><clipPath id="clip51"><path d="M35,139 L150,139 L150,211 L35,211 L35,139 z"/></clipPath></defs><g clip-path="url(#clip51)" fill="none" opacity="1" stroke="#000000" stroke-linecap="butt" stroke-linejoin="miter" stroke-miterlimit="2" stroke-opacity="1" stroke-width="0.645" transform="matrix(1.55039,0,0,1.55039,-42.6357,-211.628)"><polyline fill="none" points="90,174 89,174" vector-effect="none"/></g><defs><clipPath id="clip52"><path d="M35,139 L150,139 L150,211 L35,211 L35,139 z"/></clipPath></defs><g clip-path="url(#clip52)" fill="none" opacity="1" stroke="#000000" stroke-linecap="butt" stroke-linejoin="miter" stroke-miterlimit="2" stroke-opacity="1" stroke-width="0.645" transform="matrix(1.55039,0,0,1.55039,-42.6357,-211.628)"><polyline fill="none" points="89,174 89,172" vector-effect="none"/></g><defs><clipPath id="clip53"><path d="M35,139 L150,139 L150,211 L35,211 L35,139 z"/></clipPath></defs><g clip-path="url(#clip53)" fill="none" opacity="1" stroke="#000000" stroke-linecap="butt" stroke-linejoin="miter" stroke-miterlimit="2" stroke-opacity="1" stroke-width="0.645" transform="matrix(1.55039,0,0,1.55039,-42.6357,-211.628)"><polyline fill="none" points="89,172 88,172" vector-effect="none"/></g><defs><clipPath id="clip54"><path d="M35,139 L150,139 L150,211 L35,211 L35,139 z"/></clipPath></defs><g clip-path="url(#clip54)" fill="none" opacity="1" stroke="#000000" stroke-linecap="butt" stroke-linejoin="miter" stroke-miterlimit="2" stroke-opacity="1" stroke-width="0.645" transform="matrix(1.55039,0,0,1.55039,-42.6357,-211.628)"><polyline fill="none" points="88,172 86,172" vector-effect="none"/></g><defs><clipPath id="clip55"><path d="M35,139 L150,139 L150,211 L35,211 L35,139 z"/></clipPath></defs><g clip-path="url(#clip55)" fill="none" opacity="1" stroke="#000000" stroke-linecap="butt" stroke-linejoin="miter" stroke-miterlimit="2" stroke-opacity="1" stroke-width="0.645" transform="matrix(1.55039,0,0,1.55039,-42.6357,-211.628)"><polyline fill="none" points="86,172 86,173" vector-effect="none"/></g><defs><clipPath id="clip56"><path d="M35,139 L150,139 L150,211 L35,211 L35,139 z"/></clipPath></defs><g clip-path="url(#clip56)" fill="none" opacity="1" stroke="#000000" stroke-linecap="butt" stroke-linejoin="miter" stroke-miterlimit="2" stroke-opacity="1" stroke-width="0.645" transform="matrix(1.55039,0,0,1.55039,-42.6357,-211.628)"><polyline fill="none" points="86,173 85,173" vector-effect="none"/></g><defs><clipPath id="clip57"><path d="M35,139 L150,139 L150,211 L35,211 L35,139 z"/></clipPath></defs><g clip-path="url(#clip57)" fill="none" opacity="1" stroke="#000000" stroke-linecap="butt" stroke-linejoin="miter" stroke-miterlimit="2" stroke-opacity="1" stroke-width="0.645" transform="matrix(1.55039,0,0,1.55039,-42.6357,-211.628)"><polyline fill="none" points="85,173 85,174" vector-effect="none"/></g><defs><clipPath id="clip58"><path d="M35,139 L150,139 L150,211 L35,211 L35,139 z"/></clipPath></defs><g clip-path="url(#clip58)" fill="none" opacity="1" stroke="#000000" stroke-linecap="butt" stroke-linejoin="miter" stroke-miterlimit="2" stroke-opacity="1" stroke-width="0.645" transform="matrix(1.55039,0,0,1.55039,-42.6357,-211.628)"><polyline fill="none" points="85,174 84,174" vector-effect="none"/></g><defs><clipPath id="clip59"><path d="M35,139 L150,139 L150,211 L35,211 L35,139 z"/></clipPath></defs><g clip-path="url(#clip59)" fill="none" opacity="1" stroke="#000000" stroke-linecap="butt" stroke-linejoin="miter" stroke-miterlimit="2" stroke-opacity="1" stroke-width="0.645" transform="matrix(1.55039,0,0,1.55039,-42.6357,-211.628)"><polyline fill="none" points="84,174 82,174" vector-effect="none"/></g><defs><clipPath id="clip60"><path d="M35,139 L150,139 L150,211 L35,211 L35,139 z"/></clipPath></defs><g clip-path="url(#clip60)" fill="none" opacity="1" stroke="#000000" stroke-linecap="butt" stroke-linejoin="miter" stroke-miterlimit="2" stroke-opacity="1" stroke-width="0.645" transform="matrix(1.55039,0,0,1.55039,-42.6357,-211.628)"><polyline fill="none" points="82,174 82,176" vector-effect="none"/></g><defs><clipPath id="clip61"><path d="M35,139 L150,139 L150,211 L35,211 L35,139 z"/></clipPath></defs><g clip-path="url(#clip61)" fill="none" opacity="1" stroke="#000000" stroke-linecap="butt" stroke-linejoin="miter" stroke-miterlimit="2" stroke-opacity="1" stroke-width="0.645" transform="matrix(1.55039,0,0,1.55039,-42.6357,-211.628)"><polyline fill="none" points="82,176 81,176" vector-effect="none"/></g><defs><clipPath id="clip62"><path d="M35,139 L150,139 L150,211 L35,211 L35,139 z"/></clipPath></defs><g clip-path="url(#clip62)" fill="none" opacity="1" stroke="#000000" stroke-linecap="butt" stroke-linejoin="miter" stroke-miterlimit="2" stroke-opacity="1" stroke-width="0.645" transform="matrix(1.55039,0,0,1.55039,-42.6357,-211.628)"><polyline fill="none" points="81,176 81,177" vector-effect="none"/></g><defs><clipPath id="clip63"><path d="M35,139 L150,139 L150,211 L35,211 L35,139 z"/></clipPath></defs><g clip-path="url(#clip63)" fill="none" opacity="1" stroke="#000000" stroke-linecap="butt" stroke-linejoin="miter" stroke-miterlimit="2" stroke-opacity="1" stroke-width="0.645" transform="matrix(1.55039,0,0,1.55039,-42.6357,-211.628)"><polyline fill="none" points="81,177 79,177" vector-effect="none"/></g><defs><clipPath id="clip64"><path d="M35,139 L150,139 L150,211 L35,211 L35,139 z"/></clipPath></defs><g clip-path="url(#clip64)" fill="none" opacity="1" stroke="#000000" stroke-linecap="butt" stroke-linejoin="miter" stroke-miterlimit="2" stroke-opacity="1" stroke-width="0.645" transform="matrix(1.55039,0,0,1.55039,-42.6357,-211.628)"><polyline fill="none" points="79,177 79,178" vector-effect="none"/></g><defs><clipPath id="clip65"><path d="M35,139 L150,139 L150,211 L35,211 L35,139 z"/></clipPath></defs><g clip-path="url(#clip65)" fill="none" opacity="1" stroke="#000000" stroke-linecap="butt" stroke-linejoin="miter" stroke-miterlimit="2" stroke-opacity="1" stroke-width="0.645" transform="matrix(1.55039,0,0,1.55039,-42.6357,-211.628)"><polyline fill="none" points="96,172 103,172" vector-effect="none"/></g><defs><clipPath id="clip66"><path d="M35,139 L150,139 L150,211 L35,211 L35,139 z"/></clipPath></defs><g clip-path="url(#clip66)" fill="none" opacity="1" stroke="#000000" stroke-linecap="butt" stroke-linejoin="miter" stroke-miterlimit="2" stroke-opacity="1" stroke-width="0.645" transform="matrix(1.55039,0,0,1.55039,-42.6357,-211.628)"><polyline fill="none" points="103,172 103,171" vector-effect="none"/></g><defs><clipPath id="clip67"><path d="M35,139 L150,139 L150,211 L35,211 L35,139 z"/></clipPath></defs><g clip-path="url(#clip67)" fill="none" opacity="1" stroke="#000000" stroke-linecap="butt" stroke-linejoin="miter" stroke-miterlimit="2" stroke-opacity="1" stroke-width="0.645" transform="matrix(1.55039,0,0,1.55039,-42.6357,-211.628)"><polyline fill="none" points="103,171 102,171" vector-effect="none"/></g><defs><clipPath id="clip68"><path d="M35,139 L150,139 L150,211 L35,211 L35,139 z"/></clipPath></defs><g clip-path="url(#clip68)" fill="none" opacity="1" stroke="#000000" stroke-linecap="butt" stroke-linejoin="miter" stroke-miterlimit="2" stroke-opacity="1" stroke-width="0.645" transform="matrix(1.55039,0,0,1.55039,-42.6357,-211.628)"><polyline fill="none" points="102,171 102,170" vector-effect="none"/></g><defs><clipPath id="clip69"><path d="M35,139 L150,139 L150,211 L35,211 L35,139 z"/></clipPath></defs><g clip-path="url(#clip69)" fill="none" opacity="1" stroke="#000000" stroke-linecap="butt" stroke-linejoin="miter" stroke-miterlimit="2" stroke-opacity="1" stroke-width="0.645" transform="matrix(1.55039,0,0,1.55039,-42.6357,-211.628)"><polyline fill="none" points="102,170 101,170" vector-effect="none"/></g><defs><clipPath id="clip70"><path d="M35,139 L150,139 L150,211 L35,211 L35,139 z"/></clipPath></defs><g clip-path="url(#clip70)" fill="none" opacity="1" stroke="#000000" stroke-linecap="butt" stroke-linejoin="miter" stroke-miterlimit="2" stroke-opacity="1" stroke-width="0.645" transform="matrix(1.55039,0,0,1.55039,-42.6357,-211.628)"><polyline fill="none" points="101,170 101,169" vector-effect="none"/></g><defs><clipPath id="clip71"><path d="M35,139 L150,139 L150,211 L35,211 L35,139 z"/></clipPath></defs><g clip-path="url(#clip71)" fill="none" opacity="1" stroke="#000000" stroke-linecap="butt" stroke-linejoin="miter" stroke-miterlimit="2" stroke-opacity="1" stroke-width="0.645" transform="matrix(1.55039,0,0,1.55039,-42.6357,-211.628)"><polyline fill="none" points="101,169 100,169" vector-effect="none"/></g><defs><clipPath id="clip72"><path d="M35,139 L150,139 L150,211 L35,211 L35,139 z"/></clipPath></defs><g clip-path="url(#clip72)" fill="none" opacity="1" stroke="#000000" stroke-linecap="butt" stroke-linejoin="miter" stroke-miterlimit="2" stroke-opacity="1" stroke-width="0.645" transform="matrix(1.55039,0,0,1.55039,-42.6357,-211.628)"><polyline fill="none" points="100,169 99,169" vector-effect="none"/></g><defs><clipPath id="clip73"><path d="M35,139 L150,139 L150,211 L35,211 L35,139 z"/></clipPath></defs><g clip-path="url(#clip73)" fill="none" opacity="1" stroke="#000000" stroke-linecap="butt" stroke-linejoin="miter" stroke-miterlimit="2" stroke-opacity="1" stroke-width="0.645" transform="matrix(1.55039,0,0,1.55039,-42.6357,-211.628)"><polyline fill="none" points="99,169 99,170" vector-effect="none"/></g><defs><clipPath id="clip74"><path d="M35,139 L150,139 L150,211 L35,211 L35,139 z"/></clipPath></defs><g clip-path="url(#clip74)" fill="none" opacity="1" stroke="#000000" stroke-linecap="butt" stroke-linejoin="miter" stroke-miterlimit="2" stroke-opacity="1" stroke-width="0.645" transform="matrix(1.55039,0,0,1.55039,-42.6357,-211.628)"><polyline fill="none" points="99,170 98,170" vector-effect="none"/></g><defs><clipPath id="clip75"><path d="M35,139 L150,139 L150,211 L35,211 L35,139 z"/></clipPath></defs><g clip-path="url(#clip75)" fill="none" opacity="1" stroke="#000000" stroke-linecap="butt" stroke-linejoin="miter" stroke-miterlimit="2" stroke-opacity="1" stroke-width="0.645" transform="matrix(1.55039,0,0,1.55039,-42.6357,-211.628)"><polyline fill="none" points="98,170 98,171" vector-effect="none"/></g><defs><clipPath id="clip76"><path d="M35,139 L150,139 L150,211 L35,211 L35,139 z"/></clipPath></defs><g clip-path="url(#clip76)" fill="none" opacity="1" stroke="#000000" stroke-linecap="butt" stroke-linejoin="miter" stroke-miterlimit="2" stroke-opacity="1" stroke-width="0.645" transform="matrix(1.55039,0,0,1.55039,-42.6357,-211.628)"><polyline fill="none" points="98,171 97,171" vector-effect="none"/></g><defs><clipPath id="clip77"><path d="M35,139 L150,139 L150,211 L35,211 L35,139 z"/></clipPath></defs><g clip-path="url(#clip77)" fill="none" opacity="1" stroke="#000000" stroke-linecap="butt" stroke-linejoin="miter" stroke-miterlimit="2" stroke-opacity="1" stroke-width="0.645" transform="matrix(1.55039,0,0,1.55039,-42.6357,-211.628)"><polyline fill="none" points="97,171 96,171" vector-effect="none"/></g><defs><clipPath id="clip78"><path d="M35,139 L150,139 L150,211 L35,211 L35,139 z"/></clipPath></defs><g clip-path="url(#clip78)" fill="none" opacity="1" stroke="#000000" stroke-linecap="butt" stroke-linejoin="miter" stroke-miterlimit="2" stroke-opacity="1" stroke-width="0.645" transform="matrix(1.55039,0,0,1.55039,-42.6357,-211.628)"><polyline fill="none" points="96,171 96,172" vector-effect="none"/></g><defs><clipPath id="clip79"><path d="M35,139 L150,139 L150,211 L35,211 L35,139 z"/></clipPath></defs><g clip-path="url(#clip79)" fill="none" opacity="1" stroke="#000000" stroke-linecap="butt" stroke-linejoin="miter" stroke-miterlimit="2" stroke-opacity="1" stroke-width="0.645" transform="matrix(1.55039,0,0,1.55039,-42.6357,-211.628)"><polyline fill="none" points="109,181 99,181" vector-effect="none"/></g><defs><clipPath id="clip80"><path d="M35,139 L150,139 L150,211 L35,211 L35,139 z"/></clipPath></defs><g clip-path="url(#clip80)" fill="none" opacity="1" stroke="#000000" stroke-linecap="butt" stroke-linejoin="miter" stroke-miterlimit="2" stroke-opacity="1" stroke-width="0.645" transform="matrix(1.55039,0,0,1.55039,-42.6357,-211.628)"><polyline fill="none" points="99,181 99,180" vector-effect="none"/></g><defs><clipPath id="clip81"><path d="M35,139 L150,139 L150,211 L35,211 L35,139 z"/></clipPath></defs><g clip-path="url(#clip81)" fill="none" opacity="1" stroke="#000000" stroke-linecap="butt" stroke-linejoin="miter" stroke-miterlimit="2" stroke-opacity="1" stroke-width="0.645" transform="matrix(1.55039,0,0,1.55039,-42.6357,-211.628)"><polyline fill="none" points="99,180 100,180" vector-effect="none"/></g><defs><clipPath id="clip82"><path d="M35,139 L150,139 L150,211 L35,211 L35,139 z"/></clipPath></defs><g clip-path="url(#clip82)" fill="none" opacity="1" stroke="#000000" stroke-linecap="butt" stroke-linejoin="miter" stroke-miterlimit="2" stroke-opacity="1" stroke-width="0.645" transform="matrix(1.55039,0,0,1.55039,-42.6357,-211.628)"><polyline fill="none" points="100,180 100,179" vector-effect="none"/></g><defs><clipPath id="clip83"><path d="M35,139 L150,139 L150,211 L35,211 L35,139 z"/></clipPath></defs><g clip-path="url(#clip83)" fill="none" opacity="1" stroke="#000000" stroke-linecap="butt" stroke-linejoin="miter" stroke-miterlimit="2" stroke-opacity="1" stroke-width="0.645" transform="matrix(1.55039,0,0,1.55039,-42.6357,-211.628)"><polyline fill="none" points="100,179 101,179" vector-effect="none"/></g><defs><clipPath id="clip84"><path d="M35,139 L150,139 L150,211 L35,211 L35,139 z"/></clipPath></defs><g clip-path="url(#clip84)" fill="none" opacity="1" stroke="#000000" stroke-linecap="butt" stroke-linejoin="miter" stroke-miterlimit="2" stroke-opacity="1" stroke-width="0.645" transform="matrix(1.55039,0,0,1.55039,-42.6357,-211.628)"><polyline fill="none" points="101,179 101,178" vector-effect="none"/></g><defs><clipPath id="clip85"><path d="M35,139 L150,139 L150,211 L35,211 L35,139 z"/></clipPath></defs><g clip-path="url(#clip85)" fill="none" opacity="1" stroke="#000000" stroke-linecap="butt" stroke-linejoin="miter" stroke-miterlimit="2" stroke-opacity="1" stroke-width="0.645" transform="matrix(1.55039,0,0,1.55039,-42.6357,-211.628)"><polyline fill="none" points="101,178 102,178" vector-effect="none"/></g><defs><clipPath id="clip86"><path d="M35,139 L150,139 L150,211 L35,211 L35,139 z"/></clipPath></defs><g clip-path="url(#clip86)" fill="none" opacity="1" stroke="#000000" stroke-linecap="butt" stroke-linejoin="miter" stroke-miterlimit="2" stroke-opacity="1" stroke-width="0.645" transform="matrix(1.55039,0,0,1.55039,-42.6357,-211.628)"><polyline fill="none" points="102,178 102,177" vector-effect="none"/></g><defs><clipPath id="clip87"><path d="M35,139 L150,139 L150,211 L35,211 L35,139 z"/></clipPath></defs><g clip-path="url(#clip87)" fill="none" opacity="1" stroke="#000000" stroke-linecap="butt" stroke-linejoin="miter" stroke-miterlimit="2" stroke-opacity="1" stroke-width="0.645" transform="matrix(1.55039,0,0,1.55039,-42.6357,-211.628)"><polyline fill="none" points="102,177 103,177" vector-effect="none"/></g><defs><clipPath id="clip88"><path d="M35,139 L150,139 L150,211 L35,211 L35,139 z"/></clipPath></defs><g clip-path="url(#clip88)" fill="none" opacity="1" stroke="#000000" stroke-linecap="butt" stroke-linejoin="miter" stroke-miterlimit="2" stroke-opacity="1" stroke-width="0.645" transform="matrix(1.55039,0,0,1.55039,-42.6357,-211.628)"><polyline fill="none" points="103,177 103,176" vector-effect="none"/></g><defs><clipPath id="clip89"><path d="M35,139 L150,139 L150,211 L35,211 L35,139 z"/></clipPath></defs><g clip-path="url(#clip89)" fill="none" opacity="1" stroke="#000000" stroke-linecap="butt" stroke-linejoin="miter" stroke-miterlimit="2" stroke-opacity="1" stroke-width="0.645" transform="matrix(1.55039,0,0,1.55039,-42.6357,-211.628)"><polyline fill="none" points="103,176 104,176" vector-effect="none"/></g><defs><clipPath id="clip90"><path d="M35,139 L150,139 L150,211 L35,211 L35,139 z"/></clipPath></defs><g clip-path="url(#clip90)" fill="none" opacity="1" stroke="#000000" stroke-linecap="butt" stroke-linejoin="miter" stroke-miterlimit="2" stroke-opacity="1" stroke-width="0.645" transform="matrix(1.55039,0,0,1.55039,-42.6357,-211.628)"><polyline fill="none" points="104,176 104,177" vector-effect="none"/></g><defs><clipPath id="clip91"><path d="M35,139 L150,139 L150,211 L35,211 L35,139 z"/></clipPath></defs><g clip-path="url(#clip91)" fill="none" opacity="1" stroke="#000000" stroke-linecap="butt" stroke-linejoin="miter" stroke-miterlimit="2" stroke-opacity="1" stroke-width="0.645" transform="matrix(1.55039,0,0,1.55039,-42.6357,-211.628)"><polyline fill="none" points="104,177 105,177" vector-effect="none"/></g><defs><clipPath id="clip92"><path d="M35,139 L150,139 L150,211 L35,211 L35,139 z"/></clipPath></defs><g clip-path="url(#clip92)" fill="none" opacity="1" stroke="#000000" stroke-linecap="butt" stroke-linejoin="miter" stroke-miterlimit="2" stroke-opacity="1" stroke-width="0.645" transform="matrix(1.55039,0,0,1.55039,-42.6357,-211.628)"><polyline fill="none" points="105,177 105,178" vector-effect="none"/></g><defs><clipPath id="clip93"><path d="M35,139 L150,139 L150,211 L35,211 L35,139 z"/></clipPath></defs><g clip-path="url(#clip93)" fill="none" opacity="1" stroke="#000000" stroke-linecap="butt" stroke-linejoin="miter" stroke-miterlimit="2" stroke-opacity="1" stroke-width="0.645" transform="matrix(1.55039,0,0,1.55039,-42.6357,-211.628)"><polyline fill="none" points="105,178 106,178" vector-effect="none"/></g><defs><clipPath id="clip94"><path d="M35,139 L150,139 L150,211 L35,211 L35,139 z"/></clipPath></defs><g clip-path="url(#clip94)" fill="none" opacity="1" stroke="#000000" stroke-linecap="butt" stroke-linejoin="miter" stroke-miterlimit="2" stroke-opacity="1" stroke-width="0.645" transform="matrix(1.55039,0,0,1.55039,-42.6357,-211.628)"><polyline fill="none" points="106,178 107,178" vector-effect="none"/></g><defs><clipPath id="clip95"><path d="M35,139 L150,139 L150,211 L35,211 L35,139 z"/></clipPath></defs><g clip-path="url(#clip95)" fill="none" opacity="1" stroke="#000000" stroke-linecap="butt" stroke-linejoin="miter" stroke-miterlimit="2" stroke-opacity="1" stroke-width="0.645" transform="matrix(1.55039,0,0,1.55039,-42.6357,-211.628)"><polyline fill="none" points="107,178 107,180" vector-effect="none"/></g><defs><clipPath id="clip96"><path d="M35,139 L150,139 L150,211 L35,211 L35,139 z"/></clipPath></defs><g clip-path="url(#clip96)" fill="none" opacity="1" stroke="#000000" stroke-linecap="butt" stroke-linejoin="miter" stroke-miterlimit="2" stroke-opacity="1" stroke-width="0.645" transform="matrix(1.55039,0,0,1.55039,-42.6357,-211.628)"><polyline fill="none" points="107,180 108,180" vector-effect="none"/></g><defs><clipPath id="clip97"><path d="M35,139 L150,139 L150,211 L35,211 L35,139 z"/></clipPath></defs><g clip-path="url(#clip97)" fill="none" opacity="1" stroke="#000000" stroke-linecap="butt" stroke-linejoin="miter" stroke-miterlimit="2" stroke-opacity="1" stroke-width="0.645" transform="matrix(1.55039,0,0,1.55039,-42.6357,-211.628)"><polyline fill="none" points="108,180 109,180" vector-effect="none"/></g><defs><clipPath id="clip98"><path d="M35,139 L150,139 L150,211 L35,211 L35,139 z"/></clipPath></defs><g clip-path="url(#clip98)" fill="none" opacity="1" stroke="#000000" stroke-linecap="butt" stroke-linejoin="miter" stroke-miterlimit="2" stroke-opacity="1" stroke-width="0.645" transform="matrix(1.55039,0,0,1.55039,-42.6357,-211.628)"><polyline fill="none" points="109,180 109,181" vector-effect="none"/></g><defs><clipPath id="clip99"><path d="M35,139 L150,139 L150,211 L35,211 L35,139 z"/></clipPath></defs><g clip-path="url(#clip99)" fill="none" opacity="1" stroke="#000000" stroke-linecap="butt" stroke-linejoin="miter" stroke-miterlimit="2" stroke-opacity="1" stroke-width="0.645" transform="matrix(1.55039,0,0,1.55039,-42.6357,-211.628)"><polyline fill="none" points="110,173 97,173" vector-effect="none"/></g><defs><clipPath id="clip100"><path d="M35,139 L150,139 L150,211 L35,211 L35,139 z"/></clipPath></defs><g clip-path="url(#clip100)" fill="none" opacity="1" stroke="#000000" stroke-linecap="butt" stroke-linejoin="miter" stroke-miterlimit="2" stroke-opacity="1" stroke-width="0.645" transform="matrix(1.55039,0,0,1.55039,-42.6357,-211.628)"><polyline fill="none" points="97,173 96,173" vector-effect="none"/></g><defs><clipPath id="clip101"><path d="M35,139 L150,139 L150,211 L35,211 L35,139 z"/></clipPath></defs><g clip-path="url(#clip101)" fill="none" opacity="1" stroke="#000000" stroke-linecap="butt" stroke-linejoin="miter" stroke-miterlimit="2" stroke-opacity="1" stroke-width="0.645" transform="matrix(1.55039,0,0,1.55039,-42.6357,-211.628)"><polyline fill="none" points="95,173 89,173" vector-effect="none"/></g><defs><clipPath id="clip102"><path d="M35,139 L150,139 L150,211 L35,211 L35,139 z"/></clipPath></defs><g clip-path="url(#clip102)" fill="none" opacity="1" stroke="#000000" stroke-linecap="butt" stroke-linejoin="miter" stroke-miterlimit="2" stroke-opacity="1" stroke-width="0.645" transform="matrix(1.55039,0,0,1.55039,-42.6357,-211.628)"><polyline fill="none" points="85,173 75,173" vector-effect="none"/></g><defs><clipPath id="clip103"><path d="M35,139 L150,139 L150,211 L35,211 L35,139 z"/></clipPath></defs><g clip-path="url(#clip103)" fill="none" opacity="1" stroke="#000000" stroke-linecap="butt" stroke-linejoin="miter" stroke-miterlimit="2" stroke-opacity="1" stroke-width="0.645" transform="matrix(1.55039,0,0,1.55039,-42.6357,-211.628)"><polyline fill="none" points="75,175 82,175" vector-effect="none"/></g><defs><clipPath id="clip104"><path d="M35,139 L150,139 L150,211 L35,211 L35,139 z"/></clipPath></defs><g clip-path="url(#clip104)" fill="none" opacity="1" stroke="#000000" stroke-linecap="butt" stroke-linejoin="miter" stroke-miterlimit="2" stroke-opacity="1" stroke-width="0.645" transform="matrix(1.55039,0,0,1.55039,-42.6357,-211.628)"><polyline fill="none" points="91,175 103,175" vector-effect="none"/></g><defs><clipPath id="clip105"><path d="M35,139 L150,139 L150,211 L35,211 L35,139 z"/></clipPath></defs><g clip-path="url(#clip105)" fill="none" opacity="1" stroke="#000000" stroke-linecap="butt" stroke-linejoin="miter" stroke-miterlimit="2" stroke-opacity="1" stroke-width="0.645" transform="matrix(1.55039,0,0,1.55039,-42.6357,-211.628)"><polyline fill="none" points="103,175 104,175" vector-effect="none"/></g><defs><clipPath id="clip106"><path d="M35,139 L150,139 L150,211 L35,211 L35,139 z"/></clipPath></defs><g clip-path="url(#clip106)" fill="none" opacity="1" stroke="#000000" stroke-linecap="butt" stroke-linejoin="miter" stroke-miterlimit="2" stroke-opacity="1" stroke-width="0.645" transform="matrix(1.55039,0,0,1.55039,-42.6357,-211.628)"><polyline fill="none" points="105,175 110,175" vector-effect="none"/></g><defs><clipPath id="clip107"><path d="M35,139 L150,139 L150,211 L35,211 L35,139 z"/></clipPath></defs><g clip-path="url(#clip107)" fill="none" opacity="1" stroke="#000000" stroke-linecap="butt" stroke-linejoin="miter" stroke-miterlimit="2" stroke-opacity="1" stroke-width="0.645" transform="matrix(1.55039,0,0,1.55039,-42.6357,-211.628)"><polyline fill="none" points="110,178 105,178" vector-effect="none"/></g><defs><clipPath id="clip108"><path d="M35,139 L150,139 L150,211 L35,211 L35,139 z"/></clipPath></defs><g clip-path="url(#clip108)" fill="none" opacity="1" stroke="#000000" stroke-linecap="butt" stroke-linejoin="miter" stroke-miterlimit="2" stroke-opacity="1" stroke-width="0.645" transform="matrix(1.55039,0,0,1.55039,-42.6357,-211.628)"><polyline fill="none" points="102,178 93,178" vector-effect="none"/></g><defs><clipPath id="clip109"><path d="M35,139 L150,139 L150,211 L35,211 L35,139 z"/></clipPath></defs><g clip-path="url(#clip109)" fill="none" opacity="1" stroke="#000000" stroke-linecap="butt" stroke-linejoin="miter" stroke-miterlimit="2" stroke-opacity="1" stroke-width="0.645" transform="matrix(1.55039,0,0,1.55039,-42.6357,-211.628)"><polyline fill="none" points="79,178 75,178" vector-effect="none"/></g><defs><clipPath id="clip110"><path d="M35,139 L150,139 L150,211 L35,211 L35,139 z"/></clipPath></defs><g clip-path="url(#clip110)" fill="none" opacity="1" stroke="#000000" stroke-linecap="butt" stroke-linejoin="miter" stroke-miterlimit="2" stroke-opacity="1" stroke-width="0.645" transform="matrix(1.55039,0,0,1.55039,-42.6357,-211.628)"><polyline fill="none" points="75,180 76,180" vector-effect="none"/></g><defs><clipPath id="clip111"><path d="M35,139 L150,139 L150,211 L35,211 L35,139 z"/></clipPath></defs><g clip-path="url(#clip111)" fill="#000000" fill-opacity="1" opacity="1" stroke="none" stroke-opacity="0" transform="matrix(1.55039,0,0,1.55039,-42.6357,-211.628)"><path d="M76.5,179.5 L77.5,179.5 L77.5,180.5 L76.5,180.5 L76.5,179.5 z" fill-rule="evenodd" vector-effect="none"/></g><defs><clipPath id="clip112"><path d="M35,139 L150,139 L150,211 L35,211 L35,139 z"/></clipPath></defs><g clip-path="url(#clip112)" fill="none" opacity="1" stroke="#000000" stroke-linecap="square" stroke-linejoin="bevel" stroke-opacity="1" stroke-width="1" transform="matrix(1.55039,0,0,1.55039,-42.6357,-211.628)"><polyline fill="none" points="78,180 100,180" vector-effect="none"/></g><defs><clipPath id="clip113"><path d="M35,139 L150,139 L150,211 L35,211 L35,139 z"/></clipPath></defs><g clip-path="url(#clip113)" fill="none" opacity="1" stroke="#000000" stroke-linecap="square" stroke-linejoin="bevel" stroke-opacity="1" stroke-width="1" transform="matrix(1.55039,0,0,1.55039,-42.6357,-211.628)"><polyline fill="none" points="90,184 91,184" vector-effect="none"/></g><defs><clipPath id="clip114"><path d="M35,139 L150,139 L150,211 L35,211 L35,139 z"/></clipPath></defs><g clip-path="url(#clip114)" fill="none" opacity="1" stroke="#000000" stroke-linecap="square" stroke-linejoin="bevel" stroke-opacity="1" stroke-width="1" transform="matrix(1.55039,0,0,1.55039,-42.6357,-211.628)"><polyline fill="none" points="92,184 93,184" vector-effect="none"/></g><defs><clipPath id="clip115"><path d="M35,139 L150,139 L150,211 L35,211 L35,139 z"/></clipPath></defs><g clip-path="url(#clip115)" fill="none" opacity="1" stroke="#000000" stroke-linecap="square" stroke-linejoin="bevel" stroke-opacity="1" stroke-width="1" transform="matrix(1.55039,0,0,1.55039,-42.6357,-211.628)"><polyline fill="none" points="93,184 95,184" vector-effect="none"/></g><defs><clipPath id="clip116"><path d="M35,139 L150,139 L150,211 L35,211 L35,139 z"/></clipPath></defs><g clip-path="url(#clip116)" fill="none" opacity="1" stroke="#000000" stroke-linecap="square" stroke-linejoin="bevel" stroke-opacity="1" stroke-width="1" transform="matrix(1.55039,0,0,1.55039,-42.6357,-211.628)"><polyline fill="none" points="96,184 103,184" vector-effect="none"/></g><defs><clipPath id="clip118"><path d="M-292,-261 L297,-261 L297,108 L-292,108 L-292,-261 z"/></clipPath></defs><g clip-path="url(#clip118)" fill="none" opacity="1" stroke="#000000" stroke-linecap="square" stroke-linejoin="bevel" stroke-opacity="1" stroke-width="1" transform="matrix(0.30281,0,0,0.30281,99.2248,82.1705)"><text fill="#000000" fill-opacity="1" font-family="Liberation Sans" font-size="40" font-style="normal" font-weight="400" stroke="none" textLength="141" x="-89.5938" xml:space="preserve" y="17.9219">COESA</text></g><defs><clipPath id="clip124"><path d="M-7,-2 L122,-2 L122,74 L-7,74 L-7,-2 z"/></clipPath></defs><g clip-path="url(#clip124)" fill="none" opacity="1" stroke="#000000" stroke-linecap="butt" stroke-linejoin="miter" stroke-miterlimit="2" stroke-opacity="1" stroke-width="0.83912" transform="matrix(1.55039,0,0,1.55039,10.8527,3.10078)"><path d="M0,0 L115,0 L115,72 L0,72 L0,0 z" fill-rule="evenodd" vector-effect="none"/></g></g></svg>
