<?xml version="1.0" encoding="UTF-8"?><svg width="52.9167mm" height="26.4583mm" viewBox="0 0 200 100" xmlns="http://www.w3.org/2000/svg" xmlns:xlink="http://www.w3.org/1999/xlink"><g fill="none" stroke="black" stroke-width="1" fill-rule="evenodd" stroke-linecap="square" stroke-linejoin="bevel"><g clip-path="none" fill="none" opacity="1" stroke="none" stroke-opacity="0" transform="matrix(1,0,0,1,0,0)"><path d="M0,0 L200,0 L200,100 L0,100 L0,0 z" fill-rule="evenodd" vector-effect="none"/></g><defs><clipPath id="clip3"><path d="M-102,-15 L7,-15 L7,40 L-102,40 L-102,-15 z"/></clipPath></defs><g clip-path="url(#clip3)" fill="none" opacity="1" stroke="#000000" stroke-linecap="round" stroke-linejoin="miter" stroke-miterlimit="2" stroke-opacity="1" stroke-width="2" transform="matrix(1.83486,0,0,1.83486,187.156,27.5229)"><path d="M0,-5 L5,0 L0,5" fill-rule="evenodd" vector-effect="none"/></g><defs><clipPath id="clip6"><path d="M-102,-40 L7,-40 L7,15 L-102,15 L-102,-40 z"/></clipPath></defs><g clip-path="url(#clip6)" fill="none" opacity="1" stroke="#000000" stroke-linecap="round" stroke-linejoin="miter" stroke-miterlimit="2" stroke-opacity="1" stroke-width="2" transform="matrix(1.83486,0,0,1.83486,187.156,73.3945)"><path d="M0,-5 L5,0 L0,5" fill-rule="evenodd" vector-effect="none"/></g><defs><clipPath id="clip9"><path d="M7,30 L-102,30 L-102,-25 L7,-25 L7,30 z"/></clipPath></defs><g clip-path="url(#clip9)" fill="none" opacity="1" stroke="#000000" stroke-linecap="round" stroke-linejoin="miter" stroke-miterlimit="2" stroke-opacity="1" stroke-width="2" transform="matrix(-1.83486,0,0,-1.83486,12.844,55.0459)"><path d="M5,-5 L0,0 L5,5" fill-rule="evenodd" vector-effect="none"/></g><defs><clipPath id="clip12"><path d="M-7,-2 L102,-2 L102,53 L-7,53 L-7,-2 z"/></clipPath></defs><g clip-path="url(#clip12)" fill="#ffffff" fill-opacity="1" opacity="1" stroke="none" stroke-opacity="0" transform="matrix(1.83486,0,0,1.83486,12.844,3.66972)"><path d="M0,0 L95,0 L95,51 L0,51 L0,0 z" fill-rule="evenodd" vector-effect="none"/></g><defs><clipPath id="clip17"><path d="M-220,-87 L266,-87 L266,174 L-220,174 L-220,-87 z"/></clipPath></defs><g clip-path="url(#clip17)" fill="none" opacity="1" stroke="#000000" stroke-linecap="butt" stroke-linejoin="miter" stroke-miterlimit="2" stroke-opacity="1" stroke-width="0.545" transform="matrix(0.358372,0,0,0.358372,91.7431,34.8624)"><text fill="#000000" fill-opacity="1" font-family="Liberation Sans" font-size="40" font-style="normal" font-weight="400" stroke="none" textLength="123" x="0" xml:space="preserve" y="1.28125">φ θ ψ (</text></g><defs><clipPath id="clip19"><path d="M-220,-87 L266,-87 L266,174 L-220,174 L-220,-87 z"/></clipPath></defs><g clip-path="url(#clip19)" fill="none" opacity="1" stroke="#000000" stroke-linecap="butt" stroke-linejoin="miter" stroke-miterlimit="2" stroke-opacity="1" stroke-width="0.545" transform="matrix(0.358372,0,0,0.358372,91.7431,34.8624)"><text fill="#000000" fill-opacity="1" font-family="Liberation Sans" font-size="40" font-style="normal" font-weight="400" stroke="none" textLength="70" x="157.859" xml:space="preserve" y="1.28125">rad)</text></g><defs><clipPath id="clip22"><path d="M-205,-215 L281,-215 L281,46 L-205,46 L-205,-215 z"/></clipPath></defs><g clip-path="url(#clip22)" fill="none" opacity="1" stroke="#000000" stroke-linecap="butt" stroke-linejoin="miter" stroke-miterlimit="2" stroke-opacity="1" stroke-width="0.545" transform="matrix(0.358372,0,0,0.358372,86.2385,80.7339)"><text fill="#000000" fill-opacity="1" font-family="Liberation Sans" font-size="40" font-style="normal" font-weight="400" stroke="none" textLength="55" x="0" xml:space="preserve" y="1.28125">ω (</text></g><defs><clipPath id="clip24"><path d="M-205,-215 L281,-215 L281,46 L-205,46 L-205,-215 z"/></clipPath></defs><g clip-path="url(#clip24)" fill="none" opacity="1" stroke="#000000" stroke-linecap="butt" stroke-linejoin="miter" stroke-miterlimit="2" stroke-opacity="1" stroke-width="0.545" transform="matrix(0.358372,0,0,0.358372,86.2385,80.7339)"><text fill="#000000" fill-opacity="1" font-family="Liberation Sans" font-size="40" font-style="normal" font-weight="400" stroke="none" textLength="144" x="71.2188" xml:space="preserve" y="1.28125">rad/day)</text></g><defs><clipPath id="clip27"><path d="M-15,-148 L471,-148 L471,113 L-15,113 L-15,-148 z"/></clipPath></defs><g clip-path="url(#clip27)" fill="none" opacity="1" stroke="#000000" stroke-linecap="butt" stroke-linejoin="miter" stroke-miterlimit="2" stroke-opacity="1" stroke-width="0.545" transform="matrix(0.358372,0,0,0.358372,18.3486,56.8807)"><text fill="#000000" fill-opacity="1" font-family="Liberation Sans" font-size="40" font-style="normal" font-weight="400" stroke="none" textLength="24" x="0" xml:space="preserve" y="1.28125">T</text></g><defs><clipPath id="clip30"><path d="M-51,-174 L435,-174 L435,87 L-51,87 L-51,-174 z"/></clipPath></defs><g clip-path="url(#clip30)" fill="none" opacity="1" stroke="#000000" stroke-linecap="butt" stroke-linejoin="miter" stroke-miterlimit="2" stroke-opacity="1" stroke-width="0.545" transform="matrix(0.358372,0,0,0.358372,31.1927,66.055)"><text fill="#000000" fill-opacity="1" font-family="Liberation Sans" font-size="32" font-style="normal" font-weight="400" stroke="none" textLength="39" x="0" xml:space="preserve" y="1.28125">JD</text></g><defs><clipPath id="clip36"><path d="M-7,-2 L102,-2 L102,53 L-7,53 L-7,-2 z"/></clipPath></defs><g clip-path="url(#clip36)" fill="none" opacity="1" stroke="#000000" stroke-linecap="butt" stroke-linejoin="miter" stroke-miterlimit="2" stroke-opacity="1" stroke-width="0.784438" transform="matrix(1.83486,0,0,1.83486,12.844,3.66972)"><path d="M0,0 L95,0 L95,51 L0,51 L0,0 z" fill-rule="evenodd" vector-effect="none"/></g></g></svg>
