<?xml version="1.0" encoding="UTF-8"?><svg width="52.9167mm" height="17.9917mm" viewBox="0 0 200 68" xmlns="http://www.w3.org/2000/svg" xmlns:xlink="http://www.w3.org/1999/xlink"><g fill="none" stroke="black" stroke-width="1" fill-rule="evenodd" stroke-linecap="square" stroke-linejoin="bevel"><g clip-path="none" fill="none" opacity="1" stroke="none" stroke-opacity="0" transform="matrix(1,0,0,1,0,0)"><path d="M0,0 L200,0 L200,68 L0,68 L0,0 z" fill-rule="evenodd" vector-effect="none"/></g><defs><clipPath id="clip3"><path d="M-232,-41 L7,-41 L7,41 L-232,41 L-232,-41 z"/></clipPath></defs><g clip-path="url(#clip3)" fill="none" opacity="1" stroke="#000000" stroke-linecap="round" stroke-linejoin="miter" stroke-miterlimit="2" stroke-opacity="1" stroke-width="2" transform="matrix(0.83682,0,0,0.83682,194.142,34.3096)"><path d="M0,-5 L5,0 L0,5" fill-rule="evenodd" vector-effect="none"/></g><defs><clipPath id="clip6"><path d="M7,41 L-232,41 L-232,-41 L7,-41 L7,41 z"/></clipPath></defs><g clip-path="url(#clip6)" fill="none" opacity="1" stroke="#000000" stroke-linecap="round" stroke-linejoin="miter" stroke-miterlimit="2" stroke-opacity="1" stroke-width="2" transform="matrix(-0.83682,0,0,-0.83682,5.85774,34.3096)"><path d="M5,-5 L0,0 L5,5" fill-rule="evenodd" vector-effect="none"/></g><defs><clipPath id="clip9"><path d="M-7,-2 L232,-2 L232,80 L-7,80 L-7,-2 z"/></clipPath></defs><g clip-path="url(#clip9)" fill="#ffffff" fill-opacity="1" opacity="1" stroke="none" stroke-opacity="0" transform="matrix(0.83682,0,0,0.83682,5.85774,1.67364)"><path d="M0,0 L225,0 L225,78 L0,78 L0,0 z" fill-rule="evenodd" vector-effect="none"/></g><defs><clipPath id="clip14"><path d="M-15,-205 L1137,-205 L1137,194 L-15,194 L-15,-205 z"/></clipPath></defs><g clip-path="url(#clip14)" fill="none" opacity="1" stroke="#000000" stroke-linecap="butt" stroke-linejoin="miter" stroke-miterlimit="2" stroke-opacity="1" stroke-width="1.195" transform="matrix(0.163441,0,0,0.163441,8.3682,35.1464)"><text fill="#000000" fill-opacity="1" font-family="Liberation Sans" font-size="40" font-style="normal" font-weight="400" stroke="none" textLength="27" x="0" xml:space="preserve" y="1.28125">X</text></g><defs><clipPath id="clip17"><path d="M-51,-230 L1101,-230 L1101,169 L-51,169 L-51,-230 z"/></clipPath></defs><g clip-path="url(#clip17)" fill="none" opacity="1" stroke="#000000" stroke-linecap="butt" stroke-linejoin="miter" stroke-miterlimit="2" stroke-opacity="1" stroke-width="1.195" transform="matrix(0.163441,0,0,0.163441,14.2259,39.3305)"><text fill="#000000" fill-opacity="1" font-family="Liberation Sans" font-size="32" font-style="normal" font-weight="400" stroke="none" textLength="60" x="0" xml:space="preserve" y="1.28125">ecef</text></g><defs><clipPath id="clip23"><path d="M-1019,-205 L133,-205 L133,194 L-1019,194 L-1019,-205 z"/></clipPath></defs><g clip-path="url(#clip23)" fill="none" opacity="1" stroke="#000000" stroke-linecap="butt" stroke-linejoin="miter" stroke-miterlimit="2" stroke-opacity="1" stroke-width="1.195" transform="matrix(0.163441,0,0,0.163441,172.385,35.1464)"><text fill="#000000" fill-opacity="1" font-family="Liberation Sans" font-size="40" font-style="normal" font-weight="400" stroke="none" textLength="22" x="0" xml:space="preserve" y="1.28125">g</text></g><defs><clipPath id="clip26"><path d="M-1050,-230 L102,-230 L102,169 L-1050,169 L-1050,-230 z"/></clipPath></defs><g clip-path="url(#clip26)" fill="none" opacity="1" stroke="#000000" stroke-linecap="butt" stroke-linejoin="miter" stroke-miterlimit="2" stroke-opacity="1" stroke-width="1.195" transform="matrix(0.163441,0,0,0.163441,177.406,39.3305)"><text fill="#000000" fill-opacity="1" font-family="Liberation Sans" font-size="32" font-style="normal" font-weight="400" stroke="none" textLength="60" x="0" xml:space="preserve" y="1.28125">ecef</text></g><defs><clipPath id="clip32"><path d="M-573,-174 L579,-174 L579,225 L-573,225 L-573,-174 z"/></clipPath></defs><g clip-path="url(#clip32)" fill="none" opacity="1" stroke="#000000" stroke-linecap="butt" stroke-linejoin="miter" stroke-miterlimit="2" stroke-opacity="1" stroke-width="1.195" transform="matrix(0.163441,0,0,0.163441,99.5816,30.1255)"><text fill="#000000" fill-opacity="1" font-family="Liberation Sans" font-size="40" font-style="normal" font-weight="400" stroke="none" textLength="303" x="-195.609" xml:space="preserve" y="17.9219">Centrifugal Effect</text></g><defs><clipPath id="clip35"><path d="M-573,-225 L579,-225 L579,174 L-573,174 L-573,-225 z"/></clipPath></defs><g clip-path="url(#clip35)" fill="none" opacity="1" stroke="#000000" stroke-linecap="butt" stroke-linejoin="miter" stroke-miterlimit="2" stroke-opacity="1" stroke-width="1.195" transform="matrix(0.163441,0,0,0.163441,99.5816,38.4937)"><text fill="#000000" fill-opacity="1" font-family="Liberation Sans" font-size="40" font-style="normal" font-weight="400" stroke="none" textLength="120" x="-78.1875" xml:space="preserve" y="17.9219">(Earth)</text></g><defs><clipPath id="clip41"><path d="M-7,-2 L232,-2 L232,80 L-7,80 L-7,-2 z"/></clipPath></defs><g clip-path="url(#clip41)" fill="none" opacity="1" stroke="#000000" stroke-linecap="butt" stroke-linejoin="miter" stroke-miterlimit="2" stroke-opacity="1" stroke-width="1" transform="matrix(0.83682,0,0,0.83682,5.85774,1.67364)"><path d="M0,0 L225,0 L225,78 L0,78 L0,0 z" fill-rule="evenodd" vector-effect="none"/></g></g></svg>
