<?xml version="1.0" encoding="UTF-8"?><svg width="52.9167mm" height="22.7542mm" viewBox="0 0 200 86" xmlns="http://www.w3.org/2000/svg" xmlns:xlink="http://www.w3.org/1999/xlink"><g fill="none" stroke="black" stroke-width="1" fill-rule="evenodd" stroke-linecap="square" stroke-linejoin="bevel"><g clip-path="none" fill="none" opacity="1" stroke="none" stroke-opacity="0" transform="matrix(1,0,0,1,0,0)"><path d="M0,0 L200,0 L200,86 L0,86 L0,0 z" fill-rule="evenodd" vector-effect="none"/></g><defs><clipPath id="clip3"><path d="M-187,-62 L7,-62 L7,22 L-187,22 L-187,-62 z"/></clipPath></defs><g clip-path="url(#clip3)" fill="none" opacity="1" stroke="#000000" stroke-linecap="round" stroke-linejoin="miter" stroke-miterlimit="2" stroke-opacity="1" stroke-width="2" transform="matrix(1.03093,0,0,1.03093,192.784,63.9175)"><path d="M0,-5 L5,0 L0,5" fill-rule="evenodd" vector-effect="none"/></g><defs><clipPath id="clip6"><path d="M-187,-22 L7,-22 L7,62 L-187,62 L-187,-22 z"/></clipPath></defs><g clip-path="url(#clip6)" fill="none" opacity="1" stroke="#000000" stroke-linecap="round" stroke-linejoin="miter" stroke-miterlimit="2" stroke-opacity="1" stroke-width="2" transform="matrix(1.03093,0,0,1.03093,192.784,22.6804)"><path d="M0,-5 L5,0 L0,5" fill-rule="evenodd" vector-effect="none"/></g><defs><clipPath id="clip9"><path d="M7,67 L-187,67 L-187,-17 L7,-17 L7,67 z"/></clipPath></defs><g clip-path="url(#clip9)" fill="none" opacity="1" stroke="#000000" stroke-linecap="round" stroke-linejoin="miter" stroke-miterlimit="2" stroke-opacity="1" stroke-width="2" transform="matrix(-1.03093,0,0,-1.03093,7.21649,69.0722)"><path d="M5,-5 L0,0 L5,5" fill-rule="evenodd" vector-effect="none"/></g><defs><clipPath id="clip12"><path d="M7,42 L-187,42 L-187,-42 L7,-42 L7,42 z"/></clipPath></defs><g clip-path="url(#clip12)" fill="none" opacity="1" stroke="#000000" stroke-linecap="round" stroke-linejoin="miter" stroke-miterlimit="2" stroke-opacity="1" stroke-width="2" transform="matrix(-1.03093,0,0,-1.03093,7.21649,43.299)"><path d="M5,-5 L0,0 L5,5" fill-rule="evenodd" vector-effect="none"/></g><defs><clipPath id="clip15"><path d="M7,17 L-187,17 L-187,-67 L7,-67 L7,17 z"/></clipPath></defs><g clip-path="url(#clip15)" fill="none" opacity="1" stroke="#000000" stroke-linecap="round" stroke-linejoin="miter" stroke-miterlimit="2" stroke-opacity="1" stroke-width="2" transform="matrix(-1.03093,0,0,-1.03093,7.21649,17.5258)"><path d="M5,-5 L0,0 L5,5" fill-rule="evenodd" vector-effect="none"/></g><defs><clipPath id="clip18"><path d="M-7,-2 L187,-2 L187,82 L-7,82 L-7,-2 z"/></clipPath></defs><g clip-path="url(#clip18)" fill="#ffffff" fill-opacity="1" opacity="1" stroke="none" stroke-opacity="0" transform="matrix(1.03093,0,0,1.03093,7.21649,2.06186)"><path d="M0,0 L180,0 L180,80 L0,80 L0,0 z" fill-rule="evenodd" vector-effect="none"/></g><defs><clipPath id="clip23"><path d="M-15,-97 L907,-97 L907,313 L-15,313 L-15,-97 z"/></clipPath></defs><g clip-path="url(#clip23)" fill="none" opacity="1" stroke="#000000" stroke-linecap="butt" stroke-linejoin="miter" stroke-miterlimit="2" stroke-opacity="1" stroke-width="0.97" transform="matrix(0.201353,0,0,0.201353,10.3093,21.6495)"><text fill="#000000" fill-opacity="1" font-family="Liberation Sans" font-size="40" font-style="normal" font-weight="400" stroke="none" textLength="92" x="0" xml:space="preserve" y="1.28125">h (m)</text></g><defs><clipPath id="clip26"><path d="M-15,-225 L907,-225 L907,185 L-15,185 L-15,-225 z"/></clipPath></defs><g clip-path="url(#clip26)" fill="none" opacity="1" stroke="#000000" stroke-linecap="butt" stroke-linejoin="miter" stroke-miterlimit="2" stroke-opacity="1" stroke-width="0.97" transform="matrix(0.201353,0,0,0.201353,10.3093,47.4227)"><text fill="#000000" fill-opacity="1" font-family="Liberation Sans" font-size="40" font-style="normal" font-weight="400" stroke="none" textLength="128" x="0" xml:space="preserve" y="1.28125">V (m/s)</text></g><defs><clipPath id="clip29"><path d="M-15,-353 L907,-353 L907,57 L-15,57 L-15,-353 z"/></clipPath></defs><g clip-path="url(#clip29)" fill="none" opacity="1" stroke="#000000" stroke-linecap="butt" stroke-linejoin="miter" stroke-miterlimit="2" stroke-opacity="1" stroke-width="0.97" transform="matrix(0.201353,0,0,0.201353,10.3093,73.1959)"><text fill="#000000" fill-opacity="1" font-family="Liberation Sans" font-size="40" font-style="normal" font-weight="400" stroke="none" textLength="91" x="0" xml:space="preserve" y="1.28125">DCM</text></g><defs><clipPath id="clip32"><path d="M-655,-108 L267,-108 L267,302 L-655,302 L-655,-108 z"/></clipPath></defs><g clip-path="url(#clip32)" fill="none" opacity="1" stroke="#000000" stroke-linecap="butt" stroke-linejoin="miter" stroke-miterlimit="2" stroke-opacity="1" stroke-width="0.97" transform="matrix(0.201353,0,0,0.201353,139.175,23.7113)"><text fill="#000000" fill-opacity="1" font-family="Liberation Sans" font-size="40" font-style="normal" font-weight="400" stroke="none" textLength="27" x="0" xml:space="preserve" y="1.28125">V</text></g><defs><clipPath id="clip35"><path d="M-691,-133 L231,-133 L231,277 L-691,277 L-691,-133 z"/></clipPath></defs><g clip-path="url(#clip35)" fill="none" opacity="1" stroke="#000000" stroke-linecap="butt" stroke-linejoin="miter" stroke-miterlimit="2" stroke-opacity="1" stroke-width="0.97" transform="matrix(0.201353,0,0,0.201353,146.392,28.866)"><text fill="#000000" fill-opacity="1" font-family="Liberation Sans" font-size="32" font-style="normal" font-weight="400" stroke="none" textLength="74" x="0" xml:space="preserve" y="1.28125">Wind</text></g><defs><clipPath id="clip38"><path d="M-778,-108 L144,-108 L144,302 L-778,302 L-778,-108 z"/></clipPath></defs><g clip-path="url(#clip38)" fill="none" opacity="1" stroke="#000000" stroke-linecap="butt" stroke-linejoin="miter" stroke-miterlimit="2" stroke-opacity="1" stroke-width="0.97" transform="matrix(0.201353,0,0,0.201353,163.918,23.7113)"><text fill="#000000" fill-opacity="1" font-family="Liberation Sans" font-size="40" font-style="normal" font-weight="400" stroke="none" textLength="101" x="0" xml:space="preserve" y="1.28125"> (m/s)</text></g><defs><clipPath id="clip41"><path d="M-630,-312 L292,-312 L292,98 L-630,98 L-630,-312 z"/></clipPath></defs><g clip-path="url(#clip41)" fill="none" opacity="1" stroke="#000000" stroke-linecap="butt" stroke-linejoin="miter" stroke-miterlimit="2" stroke-opacity="1" stroke-width="0.97" transform="matrix(0.201353,0,0,0.201353,134.021,64.9485)"><text fill="#000000" fill-opacity="1" font-family="Liberation Sans" font-size="40" font-style="normal" font-weight="400" stroke="none" textLength="31" x="0" xml:space="preserve" y="1.28125">ω</text></g><defs><clipPath id="clip44"><path d="M-671,-338 L251,-338 L251,72 L-671,72 L-671,-338 z"/></clipPath></defs><g clip-path="url(#clip44)" fill="none" opacity="1" stroke="#000000" stroke-linecap="butt" stroke-linejoin="miter" stroke-miterlimit="2" stroke-opacity="1" stroke-width="0.97" transform="matrix(0.201353,0,0,0.201353,142.268,70.1031)"><text fill="#000000" fill-opacity="1" font-family="Liberation Sans" font-size="32" font-style="normal" font-weight="400" stroke="none" textLength="65" x="0" xml:space="preserve" y="1.28125">wind</text></g><defs><clipPath id="clip47"><path d="M-748,-312 L174,-312 L174,98 L-748,98 L-748,-312 z"/></clipPath></defs><g clip-path="url(#clip47)" fill="none" opacity="1" stroke="#000000" stroke-linecap="butt" stroke-linejoin="miter" stroke-miterlimit="2" stroke-opacity="1" stroke-width="0.97" transform="matrix(0.201353,0,0,0.201353,157.732,64.9485)"><text fill="#000000" fill-opacity="1" font-family="Liberation Sans" font-size="40" font-style="normal" font-weight="400" stroke="none" textLength="124" x="0" xml:space="preserve" y="1.28125"> (rad/s)</text></g><defs><clipPath id="clip49"><path d="M40,35 L220,35 L220,115 L40,115 L40,35 z"/></clipPath></defs><g clip-path="url(#clip49)" fill="none" opacity="1" stroke="#000000" stroke-linecap="butt" stroke-linejoin="miter" stroke-miterlimit="2" stroke-opacity="1" stroke-width="0.97" transform="matrix(1.03093,0,0,1.03093,-33.5052,-33.5052)"><polyline fill="none" points="115,49 115,86" vector-effect="none"/></g><defs><clipPath id="clip50"><path d="M40,35 L220,35 L220,115 L40,115 L40,35 z"/></clipPath></defs><g clip-path="url(#clip50)" fill="none" opacity="1" stroke="#000000" stroke-linecap="butt" stroke-linejoin="miter" stroke-miterlimit="2" stroke-opacity="1" stroke-width="0.97" transform="matrix(1.03093,0,0,1.03093,-33.5052,-33.5052)"><polyline fill="none" points="115,86 122,86" vector-effect="none"/></g><defs><clipPath id="clip51"><path d="M40,35 L220,35 L220,115 L40,115 L40,35 z"/></clipPath></defs><g clip-path="url(#clip51)" fill="none" opacity="1" stroke="#000000" stroke-linecap="butt" stroke-linejoin="miter" stroke-miterlimit="2" stroke-opacity="1" stroke-width="0.97" transform="matrix(1.03093,0,0,1.03093,-33.5052,-33.5052)"><polyline fill="none" points="122,86 126,85" vector-effect="none"/></g><defs><clipPath id="clip52"><path d="M40,35 L220,35 L220,115 L40,115 L40,35 z"/></clipPath></defs><g clip-path="url(#clip52)" fill="none" opacity="1" stroke="#000000" stroke-linecap="butt" stroke-linejoin="miter" stroke-miterlimit="2" stroke-opacity="1" stroke-width="0.97" transform="matrix(1.03093,0,0,1.03093,-33.5052,-33.5052)"><polyline fill="none" points="126,85 130,82" vector-effect="none"/></g><defs><clipPath id="clip53"><path d="M40,35 L220,35 L220,115 L40,115 L40,35 z"/></clipPath></defs><g clip-path="url(#clip53)" fill="none" opacity="1" stroke="#000000" stroke-linecap="butt" stroke-linejoin="miter" stroke-miterlimit="2" stroke-opacity="1" stroke-width="0.97" transform="matrix(1.03093,0,0,1.03093,-33.5052,-33.5052)"><polyline fill="none" points="130,82 134,79" vector-effect="none"/></g><defs><clipPath id="clip54"><path d="M40,35 L220,35 L220,115 L40,115 L40,35 z"/></clipPath></defs><g clip-path="url(#clip54)" fill="none" opacity="1" stroke="#000000" stroke-linecap="butt" stroke-linejoin="miter" stroke-miterlimit="2" stroke-opacity="1" stroke-width="0.97" transform="matrix(1.03093,0,0,1.03093,-33.5052,-33.5052)"><polyline fill="none" points="134,79 138,74" vector-effect="none"/></g><defs><clipPath id="clip55"><path d="M40,35 L220,35 L220,115 L40,115 L40,35 z"/></clipPath></defs><g clip-path="url(#clip55)" fill="none" opacity="1" stroke="#000000" stroke-linecap="butt" stroke-linejoin="miter" stroke-miterlimit="2" stroke-opacity="1" stroke-width="0.97" transform="matrix(1.03093,0,0,1.03093,-33.5052,-33.5052)"><polyline fill="none" points="138,74 142,64" vector-effect="none"/></g><defs><clipPath id="clip56"><path d="M40,35 L220,35 L220,115 L40,115 L40,35 z"/></clipPath></defs><g clip-path="url(#clip56)" fill="none" opacity="1" stroke="#000000" stroke-linecap="butt" stroke-linejoin="miter" stroke-miterlimit="2" stroke-opacity="1" stroke-width="0.97" transform="matrix(1.03093,0,0,1.03093,-33.5052,-33.5052)"><polyline fill="none" points="142,64 145,49" vector-effect="none"/></g><defs><clipPath id="clip57"><path d="M40,35 L220,35 L220,115 L40,115 L40,35 z"/></clipPath></defs><g clip-path="url(#clip57)" fill="none" opacity="1" stroke="#000000" stroke-linecap="butt" stroke-linejoin="miter" stroke-miterlimit="2" stroke-opacity="1" stroke-width="0.97" transform="matrix(1.03093,0,0,1.03093,-33.5052,-33.5052)"><polyline fill="none" points="116,52 142,52" vector-effect="none"/></g><defs><clipPath id="clip58"><path d="M40,35 L220,35 L220,115 L40,115 L40,35 z"/></clipPath></defs><g clip-path="url(#clip58)" fill="none" opacity="1" stroke="#000000" stroke-linecap="butt" stroke-linejoin="miter" stroke-miterlimit="2" stroke-opacity="1" stroke-width="0.97" transform="matrix(1.03093,0,0,1.03093,-33.5052,-33.5052)"><polyline fill="none" points="142,52 139,51" vector-effect="none"/></g><defs><clipPath id="clip59"><path d="M40,35 L220,35 L220,115 L40,115 L40,35 z"/></clipPath></defs><g clip-path="url(#clip59)" fill="none" opacity="1" stroke="#000000" stroke-linecap="butt" stroke-linejoin="miter" stroke-miterlimit="2" stroke-opacity="1" stroke-width="0.97" transform="matrix(1.03093,0,0,1.03093,-33.5052,-33.5052)"><polyline fill="none" points="139,51 139,54" vector-effect="none"/></g><defs><clipPath id="clip60"><path d="M40,35 L220,35 L220,115 L40,115 L40,35 z"/></clipPath></defs><g clip-path="url(#clip60)" fill="none" opacity="1" stroke="#000000" stroke-linecap="butt" stroke-linejoin="miter" stroke-miterlimit="2" stroke-opacity="1" stroke-width="0.97" transform="matrix(1.03093,0,0,1.03093,-33.5052,-33.5052)"><polyline fill="none" points="139,54 142,52" vector-effect="none"/></g><defs><clipPath id="clip61"><path d="M40,35 L220,35 L220,115 L40,115 L40,35 z"/></clipPath></defs><g clip-path="url(#clip61)" fill="none" opacity="1" stroke="#000000" stroke-linecap="butt" stroke-linejoin="miter" stroke-miterlimit="2" stroke-opacity="1" stroke-width="0.97" transform="matrix(1.03093,0,0,1.03093,-33.5052,-33.5052)"><polyline fill="none" points="116,61 139,61" vector-effect="none"/></g><defs><clipPath id="clip62"><path d="M40,35 L220,35 L220,115 L40,115 L40,35 z"/></clipPath></defs><g clip-path="url(#clip62)" fill="none" opacity="1" stroke="#000000" stroke-linecap="butt" stroke-linejoin="miter" stroke-miterlimit="2" stroke-opacity="1" stroke-width="0.97" transform="matrix(1.03093,0,0,1.03093,-33.5052,-33.5052)"><polyline fill="none" points="139,61 137,59" vector-effect="none"/></g><defs><clipPath id="clip63"><path d="M40,35 L220,35 L220,115 L40,115 L40,35 z"/></clipPath></defs><g clip-path="url(#clip63)" fill="none" opacity="1" stroke="#000000" stroke-linecap="butt" stroke-linejoin="miter" stroke-miterlimit="2" stroke-opacity="1" stroke-width="0.97" transform="matrix(1.03093,0,0,1.03093,-33.5052,-33.5052)"><polyline fill="none" points="137,59 137,62" vector-effect="none"/></g><defs><clipPath id="clip64"><path d="M40,35 L220,35 L220,115 L40,115 L40,35 z"/></clipPath></defs><g clip-path="url(#clip64)" fill="none" opacity="1" stroke="#000000" stroke-linecap="butt" stroke-linejoin="miter" stroke-miterlimit="2" stroke-opacity="1" stroke-width="0.97" transform="matrix(1.03093,0,0,1.03093,-33.5052,-33.5052)"><polyline fill="none" points="137,62 139,61" vector-effect="none"/></g><defs><clipPath id="clip65"><path d="M40,35 L220,35 L220,115 L40,115 L40,35 z"/></clipPath></defs><g clip-path="url(#clip65)" fill="none" opacity="1" stroke="#000000" stroke-linecap="butt" stroke-linejoin="miter" stroke-miterlimit="2" stroke-opacity="1" stroke-width="0.97" transform="matrix(1.03093,0,0,1.03093,-33.5052,-33.5052)"><polyline fill="none" points="116,70 136,70" vector-effect="none"/></g><defs><clipPath id="clip66"><path d="M40,35 L220,35 L220,115 L40,115 L40,35 z"/></clipPath></defs><g clip-path="url(#clip66)" fill="none" opacity="1" stroke="#000000" stroke-linecap="butt" stroke-linejoin="miter" stroke-miterlimit="2" stroke-opacity="1" stroke-width="0.97" transform="matrix(1.03093,0,0,1.03093,-33.5052,-33.5052)"><polyline fill="none" points="136,70 134,68" vector-effect="none"/></g><defs><clipPath id="clip67"><path d="M40,35 L220,35 L220,115 L40,115 L40,35 z"/></clipPath></defs><g clip-path="url(#clip67)" fill="none" opacity="1" stroke="#000000" stroke-linecap="butt" stroke-linejoin="miter" stroke-miterlimit="2" stroke-opacity="1" stroke-width="0.97" transform="matrix(1.03093,0,0,1.03093,-33.5052,-33.5052)"><polyline fill="none" points="134,68 134,71" vector-effect="none"/></g><defs><clipPath id="clip68"><path d="M40,35 L220,35 L220,115 L40,115 L40,35 z"/></clipPath></defs><g clip-path="url(#clip68)" fill="none" opacity="1" stroke="#000000" stroke-linecap="butt" stroke-linejoin="miter" stroke-miterlimit="2" stroke-opacity="1" stroke-width="0.97" transform="matrix(1.03093,0,0,1.03093,-33.5052,-33.5052)"><polyline fill="none" points="134,71 136,70" vector-effect="none"/></g><defs><clipPath id="clip69"><path d="M40,35 L220,35 L220,115 L40,115 L40,35 z"/></clipPath></defs><g clip-path="url(#clip69)" fill="none" opacity="1" stroke="#000000" stroke-linecap="butt" stroke-linejoin="miter" stroke-miterlimit="2" stroke-opacity="1" stroke-width="0.97" transform="matrix(1.03093,0,0,1.03093,-33.5052,-33.5052)"><polyline fill="none" points="116,79 130,79" vector-effect="none"/></g><defs><clipPath id="clip70"><path d="M40,35 L220,35 L220,115 L40,115 L40,35 z"/></clipPath></defs><g clip-path="url(#clip70)" fill="none" opacity="1" stroke="#000000" stroke-linecap="butt" stroke-linejoin="miter" stroke-miterlimit="2" stroke-opacity="1" stroke-width="0.97" transform="matrix(1.03093,0,0,1.03093,-33.5052,-33.5052)"><polyline fill="none" points="130,79 128,77" vector-effect="none"/></g><defs><clipPath id="clip71"><path d="M40,35 L220,35 L220,115 L40,115 L40,35 z"/></clipPath></defs><g clip-path="url(#clip71)" fill="none" opacity="1" stroke="#000000" stroke-linecap="butt" stroke-linejoin="miter" stroke-miterlimit="2" stroke-opacity="1" stroke-width="0.97" transform="matrix(1.03093,0,0,1.03093,-33.5052,-33.5052)"><polyline fill="none" points="128,77 128,80" vector-effect="none"/></g><defs><clipPath id="clip72"><path d="M40,35 L220,35 L220,115 L40,115 L40,35 z"/></clipPath></defs><g clip-path="url(#clip72)" fill="none" opacity="1" stroke="#000000" stroke-linecap="butt" stroke-linejoin="miter" stroke-miterlimit="2" stroke-opacity="1" stroke-width="0.97" transform="matrix(1.03093,0,0,1.03093,-33.5052,-33.5052)"><polyline fill="none" points="128,80 130,79" vector-effect="none"/></g><defs><clipPath id="clip73"><path d="M40,35 L220,35 L220,115 L40,115 L40,35 z"/></clipPath></defs><g clip-path="url(#clip73)" fill="none" opacity="1" stroke="#000000" stroke-linecap="butt" stroke-linejoin="miter" stroke-miterlimit="2" stroke-opacity="1" stroke-width="0.97" transform="matrix(1.03093,0,0,1.03093,-33.5052,-33.5052)"><polyline fill="none" points="111,86 149,86" vector-effect="none"/></g><defs><clipPath id="clip75"><path d="M-456,-292 L466,-292 L466,118 L-456,118 L-456,-292 z"/></clipPath></defs><g clip-path="url(#clip75)" fill="none" opacity="1" stroke="#000000" stroke-linecap="butt" stroke-linejoin="miter" stroke-miterlimit="2" stroke-opacity="1" stroke-width="0.97" transform="matrix(0.201353,0,0,0.201353,98.9691,60.8247)"><text fill="#000000" fill-opacity="1" font-family="Liberation Sans" font-size="40" font-style="normal" font-weight="400" stroke="none" textLength="126" x="-82.4688" xml:space="preserve" y="46.0781">Dryden</text></g><defs><clipPath id="clip78"><path d="M-456,-343 L466,-343 L466,67 L-456,67 L-456,-343 z"/></clipPath></defs><g clip-path="url(#clip78)" fill="none" opacity="1" stroke="#000000" stroke-linecap="butt" stroke-linejoin="miter" stroke-miterlimit="2" stroke-opacity="1" stroke-width="0.97" transform="matrix(0.201353,0,0,0.201353,98.9691,71.134)"><text fill="#000000" fill-opacity="1" font-family="Liberation Sans" font-size="40" font-style="normal" font-weight="400" stroke="none" textLength="108" x="-70.3594" xml:space="preserve" y="46.0781">(+q -r)</text></g><defs><clipPath id="clip81"><path d="M-456,-67 L466,-67 L466,343 L-456,343 L-456,-67 z"/></clipPath></defs><g clip-path="url(#clip81)" fill="none" opacity="1" stroke="#000000" stroke-linecap="butt" stroke-linejoin="miter" stroke-miterlimit="2" stroke-opacity="1" stroke-width="0.97" transform="matrix(0.201353,0,0,0.201353,98.9691,15.4639)"><text fill="#000000" fill-opacity="1" font-family="Liberation Sans" font-size="40" font-style="normal" font-weight="400" stroke="none" textLength="195" x="-129.438" xml:space="preserve" y="-10.2344">Continuous</text></g><defs><clipPath id="clip87"><path d="M-7,-2 L187,-2 L187,82 L-7,82 L-7,-2 z"/></clipPath></defs><g clip-path="url(#clip87)" fill="none" opacity="1" stroke="#000000" stroke-linecap="butt" stroke-linejoin="miter" stroke-miterlimit="2" stroke-opacity="1" stroke-width="0.98789" transform="matrix(1.03093,0,0,1.03093,7.21649,2.06186)"><path d="M0,0 L180,0 L180,80 L0,80 L0,0 z" fill-rule="evenodd" vector-effect="none"/></g></g></svg>
