<?xml version="1.0" encoding="UTF-8"?><svg width="52.9167mm" height="22.225mm" viewBox="0 0 200 84" xmlns="http://www.w3.org/2000/svg" xmlns:xlink="http://www.w3.org/1999/xlink"><g fill="none" stroke="black" stroke-width="1" fill-rule="evenodd" stroke-linecap="square" stroke-linejoin="bevel"><g clip-path="none" fill="none" opacity="1" stroke="none" stroke-opacity="0" transform="matrix(1,0,0,1,0,0)"><path d="M0,0 L200,0 L200,84 L0,84 L0,0 z" fill-rule="evenodd" vector-effect="none"/></g><defs><clipPath id="clip3"><path d="M-187,-61 L7,-61 L7,21 L-187,21 L-187,-61 z"/></clipPath></defs><g clip-path="url(#clip3)" fill="none" opacity="1" stroke="#000000" stroke-linecap="round" stroke-linejoin="miter" stroke-miterlimit="2" stroke-opacity="1" stroke-width="2" transform="matrix(1.03093,0,0,1.03093,192.784,62.8866)"><path d="M0,-5 L5,0 L0,5" fill-rule="evenodd" vector-effect="none"/></g><defs><clipPath id="clip6"><path d="M7,66 L-187,66 L-187,-16 L7,-16 L7,66 z"/></clipPath></defs><g clip-path="url(#clip6)" fill="none" opacity="1" stroke="#000000" stroke-linecap="round" stroke-linejoin="miter" stroke-miterlimit="2" stroke-opacity="1" stroke-width="2" transform="matrix(-1.03093,0,0,-1.03093,7.21649,68.0412)"><path d="M5,-5 L0,0 L5,5" fill-rule="evenodd" vector-effect="none"/></g><defs><clipPath id="clip9"><path d="M7,41 L-187,41 L-187,-41 L7,-41 L7,41 z"/></clipPath></defs><g clip-path="url(#clip9)" fill="none" opacity="1" stroke="#000000" stroke-linecap="round" stroke-linejoin="miter" stroke-miterlimit="2" stroke-opacity="1" stroke-width="2" transform="matrix(-1.03093,0,0,-1.03093,7.21649,42.268)"><path d="M5,-5 L0,0 L5,5" fill-rule="evenodd" vector-effect="none"/></g><defs><clipPath id="clip12"><path d="M7,16 L-187,16 L-187,-66 L7,-66 L7,16 z"/></clipPath></defs><g clip-path="url(#clip12)" fill="none" opacity="1" stroke="#000000" stroke-linecap="round" stroke-linejoin="miter" stroke-miterlimit="2" stroke-opacity="1" stroke-width="2" transform="matrix(-1.03093,0,0,-1.03093,7.21649,16.4948)"><path d="M5,-5 L0,0 L5,5" fill-rule="evenodd" vector-effect="none"/></g><defs><clipPath id="clip15"><path d="M-187,-21 L7,-21 L7,61 L-187,61 L-187,-21 z"/></clipPath></defs><g clip-path="url(#clip15)" fill="none" opacity="1" stroke="#000000" stroke-linecap="round" stroke-linejoin="miter" stroke-miterlimit="2" stroke-opacity="1" stroke-width="2" transform="matrix(1.03093,0,0,1.03093,192.784,21.6495)"><path d="M0,-5 L5,0 L0,5" fill-rule="evenodd" vector-effect="none"/></g><defs><clipPath id="clip18"><path d="M-7,-2 L187,-2 L187,80 L-7,80 L-7,-2 z"/></clipPath></defs><g clip-path="url(#clip18)" fill="#ffffff" fill-opacity="1" opacity="1" stroke="none" stroke-opacity="0" transform="matrix(1.03093,0,0,1.03093,7.21649,2.06186)"><path d="M0,0 L180,0 L180,78 L0,78 L0,0 z" fill-rule="evenodd" vector-effect="none"/></g><defs><clipPath id="clip23"><path d="M-15,-92 L907,-92 L907,307 L-15,307 L-15,-92 z"/></clipPath></defs><g clip-path="url(#clip23)" fill="none" opacity="1" stroke="#000000" stroke-linecap="butt" stroke-linejoin="miter" stroke-miterlimit="2" stroke-opacity="1" stroke-width="0.97" transform="matrix(0.201353,0,0,0.201353,10.3093,20.6186)"><text fill="#000000" fill-opacity="1" font-family="Liberation Sans" font-size="40" font-style="normal" font-weight="400" stroke="none" textLength="92" x="0" xml:space="preserve" y="1.28125">h (m)</text></g><defs><clipPath id="clip26"><path d="M-15,-220 L907,-220 L907,179 L-15,179 L-15,-220 z"/></clipPath></defs><g clip-path="url(#clip26)" fill="none" opacity="1" stroke="#000000" stroke-linecap="butt" stroke-linejoin="miter" stroke-miterlimit="2" stroke-opacity="1" stroke-width="0.97" transform="matrix(0.201353,0,0,0.201353,10.3093,46.3918)"><text fill="#000000" fill-opacity="1" font-family="Liberation Sans" font-size="40" font-style="normal" font-weight="400" stroke="none" textLength="128" x="0" xml:space="preserve" y="1.28125">V (m/s)</text></g><defs><clipPath id="clip29"><path d="M-15,-348 L907,-348 L907,51 L-15,51 L-15,-348 z"/></clipPath></defs><g clip-path="url(#clip29)" fill="none" opacity="1" stroke="#000000" stroke-linecap="butt" stroke-linejoin="miter" stroke-miterlimit="2" stroke-opacity="1" stroke-width="0.97" transform="matrix(0.201353,0,0,0.201353,10.3093,72.1649)"><text fill="#000000" fill-opacity="1" font-family="Liberation Sans" font-size="40" font-style="normal" font-weight="400" stroke="none" textLength="91" x="0" xml:space="preserve" y="1.28125">DCM</text></g><defs><clipPath id="clip32"><path d="M-655,-102 L267,-102 L267,297 L-655,297 L-655,-102 z"/></clipPath></defs><g clip-path="url(#clip32)" fill="none" opacity="1" stroke="#000000" stroke-linecap="butt" stroke-linejoin="miter" stroke-miterlimit="2" stroke-opacity="1" stroke-width="0.97" transform="matrix(0.201353,0,0,0.201353,139.175,22.6804)"><text fill="#000000" fill-opacity="1" font-family="Liberation Sans" font-size="40" font-style="normal" font-weight="400" stroke="none" textLength="27" x="0" xml:space="preserve" y="1.28125">V</text></g><defs><clipPath id="clip35"><path d="M-691,-128 L231,-128 L231,271 L-691,271 L-691,-128 z"/></clipPath></defs><g clip-path="url(#clip35)" fill="none" opacity="1" stroke="#000000" stroke-linecap="butt" stroke-linejoin="miter" stroke-miterlimit="2" stroke-opacity="1" stroke-width="0.97" transform="matrix(0.201353,0,0,0.201353,146.392,27.8351)"><text fill="#000000" fill-opacity="1" font-family="Liberation Sans" font-size="32" font-style="normal" font-weight="400" stroke="none" textLength="74" x="0" xml:space="preserve" y="1.28125">Wind</text></g><defs><clipPath id="clip38"><path d="M-778,-102 L144,-102 L144,297 L-778,297 L-778,-102 z"/></clipPath></defs><g clip-path="url(#clip38)" fill="none" opacity="1" stroke="#000000" stroke-linecap="butt" stroke-linejoin="miter" stroke-miterlimit="2" stroke-opacity="1" stroke-width="0.97" transform="matrix(0.201353,0,0,0.201353,163.918,22.6804)"><text fill="#000000" fill-opacity="1" font-family="Liberation Sans" font-size="40" font-style="normal" font-weight="400" stroke="none" textLength="101" x="0" xml:space="preserve" y="1.28125"> (m/s)</text></g><defs><clipPath id="clip41"><path d="M-630,-307 L292,-307 L292,92 L-630,92 L-630,-307 z"/></clipPath></defs><g clip-path="url(#clip41)" fill="none" opacity="1" stroke="#000000" stroke-linecap="butt" stroke-linejoin="miter" stroke-miterlimit="2" stroke-opacity="1" stroke-width="0.97" transform="matrix(0.201353,0,0,0.201353,134.021,63.9175)"><text fill="#000000" fill-opacity="1" font-family="Liberation Sans" font-size="40" font-style="normal" font-weight="400" stroke="none" textLength="31" x="0" xml:space="preserve" y="1.28125">ω</text></g><defs><clipPath id="clip44"><path d="M-671,-333 L251,-333 L251,66 L-671,66 L-671,-333 z"/></clipPath></defs><g clip-path="url(#clip44)" fill="none" opacity="1" stroke="#000000" stroke-linecap="butt" stroke-linejoin="miter" stroke-miterlimit="2" stroke-opacity="1" stroke-width="0.97" transform="matrix(0.201353,0,0,0.201353,142.268,69.0722)"><text fill="#000000" fill-opacity="1" font-family="Liberation Sans" font-size="32" font-style="normal" font-weight="400" stroke="none" textLength="65" x="0" xml:space="preserve" y="1.28125">wind</text></g><defs><clipPath id="clip47"><path d="M-748,-307 L174,-307 L174,92 L-748,92 L-748,-307 z"/></clipPath></defs><g clip-path="url(#clip47)" fill="none" opacity="1" stroke="#000000" stroke-linecap="butt" stroke-linejoin="miter" stroke-miterlimit="2" stroke-opacity="1" stroke-width="0.97" transform="matrix(0.201353,0,0,0.201353,157.732,63.9175)"><text fill="#000000" fill-opacity="1" font-family="Liberation Sans" font-size="40" font-style="normal" font-weight="400" stroke="none" textLength="124" x="0" xml:space="preserve" y="1.28125"> (rad/s)</text></g><defs><clipPath id="clip49"><path d="M40,265 L220,265 L220,343 L40,343 L40,265 z"/></clipPath></defs><g clip-path="url(#clip49)" fill="none" opacity="1" stroke="#000000" stroke-linecap="butt" stroke-linejoin="miter" stroke-miterlimit="2" stroke-opacity="1" stroke-width="0.97" transform="matrix(1.03093,0,0,1.03093,-33.5052,-271.649)"><polyline fill="none" points="115,280 115,316" vector-effect="none"/></g><defs><clipPath id="clip50"><path d="M40,265 L220,265 L220,343 L40,343 L40,265 z"/></clipPath></defs><g clip-path="url(#clip50)" fill="none" opacity="1" stroke="#000000" stroke-linecap="butt" stroke-linejoin="miter" stroke-miterlimit="2" stroke-opacity="1" stroke-width="0.97" transform="matrix(1.03093,0,0,1.03093,-33.5052,-271.649)"><polyline fill="none" points="115,316 122,315" vector-effect="none"/></g><defs><clipPath id="clip51"><path d="M40,265 L220,265 L220,343 L40,343 L40,265 z"/></clipPath></defs><g clip-path="url(#clip51)" fill="none" opacity="1" stroke="#000000" stroke-linecap="butt" stroke-linejoin="miter" stroke-miterlimit="2" stroke-opacity="1" stroke-width="0.97" transform="matrix(1.03093,0,0,1.03093,-33.5052,-271.649)"><polyline fill="none" points="122,315 126,314" vector-effect="none"/></g><defs><clipPath id="clip52"><path d="M40,265 L220,265 L220,343 L40,343 L40,265 z"/></clipPath></defs><g clip-path="url(#clip52)" fill="none" opacity="1" stroke="#000000" stroke-linecap="butt" stroke-linejoin="miter" stroke-miterlimit="2" stroke-opacity="1" stroke-width="0.97" transform="matrix(1.03093,0,0,1.03093,-33.5052,-271.649)"><polyline fill="none" points="126,314 130,312" vector-effect="none"/></g><defs><clipPath id="clip53"><path d="M40,265 L220,265 L220,343 L40,343 L40,265 z"/></clipPath></defs><g clip-path="url(#clip53)" fill="none" opacity="1" stroke="#000000" stroke-linecap="butt" stroke-linejoin="miter" stroke-miterlimit="2" stroke-opacity="1" stroke-width="0.97" transform="matrix(1.03093,0,0,1.03093,-33.5052,-271.649)"><polyline fill="none" points="130,312 134,309" vector-effect="none"/></g><defs><clipPath id="clip54"><path d="M40,265 L220,265 L220,343 L40,343 L40,265 z"/></clipPath></defs><g clip-path="url(#clip54)" fill="none" opacity="1" stroke="#000000" stroke-linecap="butt" stroke-linejoin="miter" stroke-miterlimit="2" stroke-opacity="1" stroke-width="0.97" transform="matrix(1.03093,0,0,1.03093,-33.5052,-271.649)"><polyline fill="none" points="134,309 138,304" vector-effect="none"/></g><defs><clipPath id="clip55"><path d="M40,265 L220,265 L220,343 L40,343 L40,265 z"/></clipPath></defs><g clip-path="url(#clip55)" fill="none" opacity="1" stroke="#000000" stroke-linecap="butt" stroke-linejoin="miter" stroke-miterlimit="2" stroke-opacity="1" stroke-width="0.97" transform="matrix(1.03093,0,0,1.03093,-33.5052,-271.649)"><polyline fill="none" points="138,304 141,294" vector-effect="none"/></g><defs><clipPath id="clip56"><path d="M40,265 L220,265 L220,343 L40,343 L40,265 z"/></clipPath></defs><g clip-path="url(#clip56)" fill="none" opacity="1" stroke="#000000" stroke-linecap="butt" stroke-linejoin="miter" stroke-miterlimit="2" stroke-opacity="1" stroke-width="0.97" transform="matrix(1.03093,0,0,1.03093,-33.5052,-271.649)"><polyline fill="none" points="141,294 145,280" vector-effect="none"/></g><defs><clipPath id="clip57"><path d="M40,265 L220,265 L220,343 L40,343 L40,265 z"/></clipPath></defs><g clip-path="url(#clip57)" fill="none" opacity="1" stroke="#000000" stroke-linecap="butt" stroke-linejoin="miter" stroke-miterlimit="2" stroke-opacity="1" stroke-width="0.97" transform="matrix(1.03093,0,0,1.03093,-33.5052,-271.649)"><polyline fill="none" points="116,283 141,283" vector-effect="none"/></g><defs><clipPath id="clip58"><path d="M40,265 L220,265 L220,343 L40,343 L40,265 z"/></clipPath></defs><g clip-path="url(#clip58)" fill="none" opacity="1" stroke="#000000" stroke-linecap="butt" stroke-linejoin="miter" stroke-miterlimit="2" stroke-opacity="1" stroke-width="0.97" transform="matrix(1.03093,0,0,1.03093,-33.5052,-271.649)"><polyline fill="none" points="141,283 139,281" vector-effect="none"/></g><defs><clipPath id="clip59"><path d="M40,265 L220,265 L220,343 L40,343 L40,265 z"/></clipPath></defs><g clip-path="url(#clip59)" fill="none" opacity="1" stroke="#000000" stroke-linecap="butt" stroke-linejoin="miter" stroke-miterlimit="2" stroke-opacity="1" stroke-width="0.97" transform="matrix(1.03093,0,0,1.03093,-33.5052,-271.649)"><polyline fill="none" points="139,281 139,284" vector-effect="none"/></g><defs><clipPath id="clip60"><path d="M40,265 L220,265 L220,343 L40,343 L40,265 z"/></clipPath></defs><g clip-path="url(#clip60)" fill="none" opacity="1" stroke="#000000" stroke-linecap="butt" stroke-linejoin="miter" stroke-miterlimit="2" stroke-opacity="1" stroke-width="0.97" transform="matrix(1.03093,0,0,1.03093,-33.5052,-271.649)"><polyline fill="none" points="139,284 141,283" vector-effect="none"/></g><defs><clipPath id="clip61"><path d="M40,265 L220,265 L220,343 L40,343 L40,265 z"/></clipPath></defs><g clip-path="url(#clip61)" fill="none" opacity="1" stroke="#000000" stroke-linecap="butt" stroke-linejoin="miter" stroke-miterlimit="2" stroke-opacity="1" stroke-width="0.97" transform="matrix(1.03093,0,0,1.03093,-33.5052,-271.649)"><polyline fill="none" points="116,291 139,291" vector-effect="none"/></g><defs><clipPath id="clip62"><path d="M40,265 L220,265 L220,343 L40,343 L40,265 z"/></clipPath></defs><g clip-path="url(#clip62)" fill="none" opacity="1" stroke="#000000" stroke-linecap="butt" stroke-linejoin="miter" stroke-miterlimit="2" stroke-opacity="1" stroke-width="0.97" transform="matrix(1.03093,0,0,1.03093,-33.5052,-271.649)"><polyline fill="none" points="139,291 137,290" vector-effect="none"/></g><defs><clipPath id="clip63"><path d="M40,265 L220,265 L220,343 L40,343 L40,265 z"/></clipPath></defs><g clip-path="url(#clip63)" fill="none" opacity="1" stroke="#000000" stroke-linecap="butt" stroke-linejoin="miter" stroke-miterlimit="2" stroke-opacity="1" stroke-width="0.97" transform="matrix(1.03093,0,0,1.03093,-33.5052,-271.649)"><polyline fill="none" points="137,290 137,293" vector-effect="none"/></g><defs><clipPath id="clip64"><path d="M40,265 L220,265 L220,343 L40,343 L40,265 z"/></clipPath></defs><g clip-path="url(#clip64)" fill="none" opacity="1" stroke="#000000" stroke-linecap="butt" stroke-linejoin="miter" stroke-miterlimit="2" stroke-opacity="1" stroke-width="0.97" transform="matrix(1.03093,0,0,1.03093,-33.5052,-271.649)"><polyline fill="none" points="137,293 139,291" vector-effect="none"/></g><defs><clipPath id="clip65"><path d="M40,265 L220,265 L220,343 L40,343 L40,265 z"/></clipPath></defs><g clip-path="url(#clip65)" fill="none" opacity="1" stroke="#000000" stroke-linecap="butt" stroke-linejoin="miter" stroke-miterlimit="2" stroke-opacity="1" stroke-width="0.97" transform="matrix(1.03093,0,0,1.03093,-33.5052,-271.649)"><polyline fill="none" points="116,300 136,300" vector-effect="none"/></g><defs><clipPath id="clip66"><path d="M40,265 L220,265 L220,343 L40,343 L40,265 z"/></clipPath></defs><g clip-path="url(#clip66)" fill="none" opacity="1" stroke="#000000" stroke-linecap="butt" stroke-linejoin="miter" stroke-miterlimit="2" stroke-opacity="1" stroke-width="0.97" transform="matrix(1.03093,0,0,1.03093,-33.5052,-271.649)"><polyline fill="none" points="136,300 134,299" vector-effect="none"/></g><defs><clipPath id="clip67"><path d="M40,265 L220,265 L220,343 L40,343 L40,265 z"/></clipPath></defs><g clip-path="url(#clip67)" fill="none" opacity="1" stroke="#000000" stroke-linecap="butt" stroke-linejoin="miter" stroke-miterlimit="2" stroke-opacity="1" stroke-width="0.97" transform="matrix(1.03093,0,0,1.03093,-33.5052,-271.649)"><polyline fill="none" points="134,299 134,301" vector-effect="none"/></g><defs><clipPath id="clip68"><path d="M40,265 L220,265 L220,343 L40,343 L40,265 z"/></clipPath></defs><g clip-path="url(#clip68)" fill="none" opacity="1" stroke="#000000" stroke-linecap="butt" stroke-linejoin="miter" stroke-miterlimit="2" stroke-opacity="1" stroke-width="0.97" transform="matrix(1.03093,0,0,1.03093,-33.5052,-271.649)"><polyline fill="none" points="134,301 136,300" vector-effect="none"/></g><defs><clipPath id="clip69"><path d="M40,265 L220,265 L220,343 L40,343 L40,265 z"/></clipPath></defs><g clip-path="url(#clip69)" fill="none" opacity="1" stroke="#000000" stroke-linecap="butt" stroke-linejoin="miter" stroke-miterlimit="2" stroke-opacity="1" stroke-width="0.97" transform="matrix(1.03093,0,0,1.03093,-33.5052,-271.649)"><polyline fill="none" points="116,309 130,309" vector-effect="none"/></g><defs><clipPath id="clip70"><path d="M40,265 L220,265 L220,343 L40,343 L40,265 z"/></clipPath></defs><g clip-path="url(#clip70)" fill="none" opacity="1" stroke="#000000" stroke-linecap="butt" stroke-linejoin="miter" stroke-miterlimit="2" stroke-opacity="1" stroke-width="0.97" transform="matrix(1.03093,0,0,1.03093,-33.5052,-271.649)"><polyline fill="none" points="130,309 128,307" vector-effect="none"/></g><defs><clipPath id="clip71"><path d="M40,265 L220,265 L220,343 L40,343 L40,265 z"/></clipPath></defs><g clip-path="url(#clip71)" fill="none" opacity="1" stroke="#000000" stroke-linecap="butt" stroke-linejoin="miter" stroke-miterlimit="2" stroke-opacity="1" stroke-width="0.97" transform="matrix(1.03093,0,0,1.03093,-33.5052,-271.649)"><polyline fill="none" points="128,307 128,310" vector-effect="none"/></g><defs><clipPath id="clip72"><path d="M40,265 L220,265 L220,343 L40,343 L40,265 z"/></clipPath></defs><g clip-path="url(#clip72)" fill="none" opacity="1" stroke="#000000" stroke-linecap="butt" stroke-linejoin="miter" stroke-miterlimit="2" stroke-opacity="1" stroke-width="0.97" transform="matrix(1.03093,0,0,1.03093,-33.5052,-271.649)"><polyline fill="none" points="128,310 130,309" vector-effect="none"/></g><defs><clipPath id="clip73"><path d="M40,265 L220,265 L220,343 L40,343 L40,265 z"/></clipPath></defs><g clip-path="url(#clip73)" fill="none" opacity="1" stroke="#000000" stroke-linecap="butt" stroke-linejoin="miter" stroke-miterlimit="2" stroke-opacity="1" stroke-width="0.97" transform="matrix(1.03093,0,0,1.03093,-33.5052,-271.649)"><polyline fill="none" points="111,316 149,316" vector-effect="none"/></g><defs><clipPath id="clip75"><path d="M-456,-282 L466,-282 L466,117 L-456,117 L-456,-282 z"/></clipPath></defs><g clip-path="url(#clip75)" fill="none" opacity="1" stroke="#000000" stroke-linecap="butt" stroke-linejoin="miter" stroke-miterlimit="2" stroke-opacity="1" stroke-width="0.97" transform="matrix(0.201353,0,0,0.201353,98.9691,58.7629)"><text fill="#000000" fill-opacity="1" font-family="Liberation Sans" font-size="40" font-style="normal" font-weight="400" stroke="none" textLength="126" x="-82.4688" xml:space="preserve" y="46.0781">Dryden</text></g><defs><clipPath id="clip78"><path d="M-456,-333 L466,-333 L466,66 L-456,66 L-456,-333 z"/></clipPath></defs><g clip-path="url(#clip78)" fill="none" opacity="1" stroke="#000000" stroke-linecap="butt" stroke-linejoin="miter" stroke-miterlimit="2" stroke-opacity="1" stroke-width="0.97" transform="matrix(0.201353,0,0,0.201353,98.9691,69.0722)"><text fill="#000000" fill-opacity="1" font-family="Liberation Sans" font-size="40" font-style="normal" font-weight="400" stroke="none" textLength="108" x="-70.3594" xml:space="preserve" y="46.0781">(-q +r)</text></g><defs><clipPath id="clip81"><path d="M-456,-67 L466,-67 L466,332 L-456,332 L-456,-67 z"/></clipPath></defs><g clip-path="url(#clip81)" fill="none" opacity="1" stroke="#000000" stroke-linecap="butt" stroke-linejoin="miter" stroke-miterlimit="2" stroke-opacity="1" stroke-width="0.97" transform="matrix(0.201353,0,0,0.201353,98.9691,15.4639)"><text fill="#000000" fill-opacity="1" font-family="Liberation Sans" font-size="40" font-style="normal" font-weight="400" stroke="none" textLength="195" x="-129.438" xml:space="preserve" y="-10.2344">Continuous</text></g><defs><clipPath id="clip87"><path d="M-7,-2 L187,-2 L187,80 L-7,80 L-7,-2 z"/></clipPath></defs><g clip-path="url(#clip87)" fill="none" opacity="1" stroke="#000000" stroke-linecap="butt" stroke-linejoin="miter" stroke-miterlimit="2" stroke-opacity="1" stroke-width="0.98789" transform="matrix(1.03093,0,0,1.03093,7.21649,2.06186)"><path d="M0,0 L180,0 L180,78 L0,78 L0,0 z" fill-rule="evenodd" vector-effect="none"/></g></g></svg>
