<?xml version="1.0" encoding="UTF-8"?><svg width="52.9167mm" height="22.7542mm" viewBox="0 0 200 86" xmlns="http://www.w3.org/2000/svg" xmlns:xlink="http://www.w3.org/1999/xlink"><g fill="none" stroke="black" stroke-width="1" fill-rule="evenodd" stroke-linecap="square" stroke-linejoin="bevel"><g clip-path="none" fill="none" opacity="1" stroke="none" stroke-opacity="0" transform="matrix(1,0,0,1,0,0)"><path d="M0,0 L200,0 L200,86 L0,86 L0,0 z" fill-rule="evenodd" vector-effect="none"/></g><defs><clipPath id="clip3"><path d="M-187,-42 L7,-42 L7,42 L-187,42 L-187,-42 z"/></clipPath></defs><g clip-path="url(#clip3)" fill="none" opacity="1" stroke="#000000" stroke-linecap="round" stroke-linejoin="miter" stroke-miterlimit="2" stroke-opacity="1" stroke-width="2" transform="matrix(1.03093,0,0,1.03093,192.784,43.299)"><path d="M0,-5 L5,0 L0,5" fill-rule="evenodd" vector-effect="none"/></g><defs><clipPath id="clip6"><path d="M7,67 L-187,67 L-187,-17 L7,-17 L7,67 z"/></clipPath></defs><g clip-path="url(#clip6)" fill="none" opacity="1" stroke="#000000" stroke-linecap="round" stroke-linejoin="miter" stroke-miterlimit="2" stroke-opacity="1" stroke-width="2" transform="matrix(-1.03093,0,0,-1.03093,7.21649,69.0722)"><path d="M5,-5 L0,0 L5,5" fill-rule="evenodd" vector-effect="none"/></g><defs><clipPath id="clip9"><path d="M7,42 L-187,42 L-187,-42 L7,-42 L7,42 z"/></clipPath></defs><g clip-path="url(#clip9)" fill="none" opacity="1" stroke="#000000" stroke-linecap="round" stroke-linejoin="miter" stroke-miterlimit="2" stroke-opacity="1" stroke-width="2" transform="matrix(-1.03093,0,0,-1.03093,7.21649,43.299)"><path d="M5,-5 L0,0 L5,5" fill-rule="evenodd" vector-effect="none"/></g><defs><clipPath id="clip12"><path d="M7,17 L-187,17 L-187,-67 L7,-67 L7,17 z"/></clipPath></defs><g clip-path="url(#clip12)" fill="none" opacity="1" stroke="#000000" stroke-linecap="round" stroke-linejoin="miter" stroke-miterlimit="2" stroke-opacity="1" stroke-width="2" transform="matrix(-1.03093,0,0,-1.03093,7.21649,17.5258)"><path d="M5,-5 L0,0 L5,5" fill-rule="evenodd" vector-effect="none"/></g><defs><clipPath id="clip15"><path d="M-7,-2 L187,-2 L187,82 L-7,82 L-7,-2 z"/></clipPath></defs><g clip-path="url(#clip15)" fill="#ffffff" fill-opacity="1" opacity="1" stroke="none" stroke-opacity="0" transform="matrix(1.03093,0,0,1.03093,7.21649,2.06186)"><path d="M0,0 L180,0 L180,80 L0,80 L0,0 z" fill-rule="evenodd" vector-effect="none"/></g><defs><clipPath id="clip20"><path d="M-461,-364 L461,-364 L461,46 L-461,46 L-461,-364 z"/></clipPath></defs><g clip-path="url(#clip20)" fill="none" opacity="1" stroke="#000000" stroke-linecap="butt" stroke-linejoin="miter" stroke-miterlimit="2" stroke-opacity="1" stroke-width="0.97" transform="matrix(0.201353,0,0,0.201353,100,75.2577)"><text fill="#000000" fill-opacity="1" font-family="Liberation Sans" font-size="40" font-style="normal" font-weight="400" stroke="none" textLength="146" x="-92.4062" xml:space="preserve" y="-10.2344">HWM07</text></g><defs><clipPath id="clip22"><path d="M255,504 L435,504 L435,584 L255,584 L255,504 z"/></clipPath></defs><g clip-path="url(#clip22)" fill="none" opacity="1" stroke="#000000" stroke-linecap="butt" stroke-linejoin="miter" stroke-miterlimit="2" stroke-opacity="1" stroke-width="0.97" transform="matrix(1.03093,0,0,1.03093,-255.155,-518.041)"><polyline fill="none" points="327,517 327,563" vector-effect="none"/></g><defs><clipPath id="clip23"><path d="M255,504 L435,504 L435,584 L255,584 L255,504 z"/></clipPath></defs><g clip-path="url(#clip23)" fill="none" opacity="1" stroke="#000000" stroke-linecap="butt" stroke-linejoin="miter" stroke-miterlimit="2" stroke-opacity="1" stroke-width="0.97" transform="matrix(1.03093,0,0,1.03093,-255.155,-518.041)"><polyline fill="none" points="327,563 321,563" vector-effect="none"/></g><defs><clipPath id="clip24"><path d="M255,504 L435,504 L435,584 L255,584 L255,504 z"/></clipPath></defs><g clip-path="url(#clip24)" fill="none" opacity="1" stroke="#000000" stroke-linecap="butt" stroke-linejoin="miter" stroke-miterlimit="2" stroke-opacity="1" stroke-width="0.97" transform="matrix(1.03093,0,0,1.03093,-255.155,-518.041)"><polyline fill="none" points="321,563 363,563" vector-effect="none"/></g><defs><clipPath id="clip25"><path d="M255,504 L435,504 L435,584 L255,584 L255,504 z"/></clipPath></defs><g clip-path="url(#clip25)" fill="none" opacity="1" stroke="#000000" stroke-linecap="butt" stroke-linejoin="miter" stroke-miterlimit="2" stroke-opacity="1" stroke-width="0.97" transform="matrix(1.03093,0,0,1.03093,-255.155,-518.041)"><polyline fill="none" points="329,525 354,525" vector-effect="none"/></g><defs><clipPath id="clip26"><path d="M255,504 L435,504 L435,584 L255,584 L255,504 z"/></clipPath></defs><g clip-path="url(#clip26)" fill="none" opacity="1" stroke="#000000" stroke-linecap="butt" stroke-linejoin="miter" stroke-miterlimit="2" stroke-opacity="1" stroke-width="0.97" transform="matrix(1.03093,0,0,1.03093,-255.155,-518.041)"><polyline fill="none" points="354,525 351,527" vector-effect="none"/></g><defs><clipPath id="clip27"><path d="M255,504 L435,504 L435,584 L255,584 L255,504 z"/></clipPath></defs><g clip-path="url(#clip27)" fill="none" opacity="1" stroke="#000000" stroke-linecap="butt" stroke-linejoin="miter" stroke-miterlimit="2" stroke-opacity="1" stroke-width="0.97" transform="matrix(1.03093,0,0,1.03093,-255.155,-518.041)"><polyline fill="none" points="351,527 351,524" vector-effect="none"/></g><defs><clipPath id="clip28"><path d="M255,504 L435,504 L435,584 L255,584 L255,504 z"/></clipPath></defs><g clip-path="url(#clip28)" fill="none" opacity="1" stroke="#000000" stroke-linecap="butt" stroke-linejoin="miter" stroke-miterlimit="2" stroke-opacity="1" stroke-width="0.97" transform="matrix(1.03093,0,0,1.03093,-255.155,-518.041)"><polyline fill="none" points="351,524 354,525" vector-effect="none"/></g><defs><clipPath id="clip29"><path d="M255,504 L435,504 L435,584 L255,584 L255,504 z"/></clipPath></defs><g clip-path="url(#clip29)" fill="none" opacity="1" stroke="#000000" stroke-linecap="butt" stroke-linejoin="miter" stroke-miterlimit="2" stroke-opacity="1" stroke-width="0.97" transform="matrix(1.03093,0,0,1.03093,-255.155,-518.041)"><polyline fill="none" points="329,534 353,534" vector-effect="none"/></g><defs><clipPath id="clip30"><path d="M255,504 L435,504 L435,584 L255,584 L255,504 z"/></clipPath></defs><g clip-path="url(#clip30)" fill="none" opacity="1" stroke="#000000" stroke-linecap="butt" stroke-linejoin="miter" stroke-miterlimit="2" stroke-opacity="1" stroke-width="0.97" transform="matrix(1.03093,0,0,1.03093,-255.155,-518.041)"><polyline fill="none" points="353,534 349,535" vector-effect="none"/></g><defs><clipPath id="clip31"><path d="M255,504 L435,504 L435,584 L255,584 L255,504 z"/></clipPath></defs><g clip-path="url(#clip31)" fill="none" opacity="1" stroke="#000000" stroke-linecap="butt" stroke-linejoin="miter" stroke-miterlimit="2" stroke-opacity="1" stroke-width="0.97" transform="matrix(1.03093,0,0,1.03093,-255.155,-518.041)"><polyline fill="none" points="349,535 349,533" vector-effect="none"/></g><defs><clipPath id="clip32"><path d="M255,504 L435,504 L435,584 L255,584 L255,504 z"/></clipPath></defs><g clip-path="url(#clip32)" fill="none" opacity="1" stroke="#000000" stroke-linecap="butt" stroke-linejoin="miter" stroke-miterlimit="2" stroke-opacity="1" stroke-width="0.97" transform="matrix(1.03093,0,0,1.03093,-255.155,-518.041)"><polyline fill="none" points="349,533 353,534" vector-effect="none"/></g><defs><clipPath id="clip33"><path d="M255,504 L435,504 L435,584 L255,584 L255,504 z"/></clipPath></defs><g clip-path="url(#clip33)" fill="none" opacity="1" stroke="#000000" stroke-linecap="butt" stroke-linejoin="miter" stroke-miterlimit="2" stroke-opacity="1" stroke-width="0.97" transform="matrix(1.03093,0,0,1.03093,-255.155,-518.041)"><polyline fill="none" points="329,543 349,543" vector-effect="none"/></g><defs><clipPath id="clip34"><path d="M255,504 L435,504 L435,584 L255,584 L255,504 z"/></clipPath></defs><g clip-path="url(#clip34)" fill="none" opacity="1" stroke="#000000" stroke-linecap="butt" stroke-linejoin="miter" stroke-miterlimit="2" stroke-opacity="1" stroke-width="0.97" transform="matrix(1.03093,0,0,1.03093,-255.155,-518.041)"><polyline fill="none" points="349,543 346,544" vector-effect="none"/></g><defs><clipPath id="clip35"><path d="M255,504 L435,504 L435,584 L255,584 L255,504 z"/></clipPath></defs><g clip-path="url(#clip35)" fill="none" opacity="1" stroke="#000000" stroke-linecap="butt" stroke-linejoin="miter" stroke-miterlimit="2" stroke-opacity="1" stroke-width="0.97" transform="matrix(1.03093,0,0,1.03093,-255.155,-518.041)"><polyline fill="none" points="346,544 346,541" vector-effect="none"/></g><defs><clipPath id="clip36"><path d="M255,504 L435,504 L435,584 L255,584 L255,504 z"/></clipPath></defs><g clip-path="url(#clip36)" fill="none" opacity="1" stroke="#000000" stroke-linecap="butt" stroke-linejoin="miter" stroke-miterlimit="2" stroke-opacity="1" stroke-width="0.97" transform="matrix(1.03093,0,0,1.03093,-255.155,-518.041)"><polyline fill="none" points="346,541 349,543" vector-effect="none"/></g><defs><clipPath id="clip37"><path d="M255,504 L435,504 L435,584 L255,584 L255,504 z"/></clipPath></defs><g clip-path="url(#clip37)" fill="none" opacity="1" stroke="#000000" stroke-linecap="butt" stroke-linejoin="miter" stroke-miterlimit="2" stroke-opacity="1" stroke-width="0.97" transform="matrix(1.03093,0,0,1.03093,-255.155,-518.041)"><polyline fill="none" points="329,551 345,551" vector-effect="none"/></g><defs><clipPath id="clip38"><path d="M255,504 L435,504 L435,584 L255,584 L255,504 z"/></clipPath></defs><g clip-path="url(#clip38)" fill="none" opacity="1" stroke="#000000" stroke-linecap="butt" stroke-linejoin="miter" stroke-miterlimit="2" stroke-opacity="1" stroke-width="0.97" transform="matrix(1.03093,0,0,1.03093,-255.155,-518.041)"><polyline fill="none" points="345,551 341,552" vector-effect="none"/></g><defs><clipPath id="clip39"><path d="M255,504 L435,504 L435,584 L255,584 L255,504 z"/></clipPath></defs><g clip-path="url(#clip39)" fill="none" opacity="1" stroke="#000000" stroke-linecap="butt" stroke-linejoin="miter" stroke-miterlimit="2" stroke-opacity="1" stroke-width="0.97" transform="matrix(1.03093,0,0,1.03093,-255.155,-518.041)"><polyline fill="none" points="341,552 341,550" vector-effect="none"/></g><defs><clipPath id="clip40"><path d="M255,504 L435,504 L435,584 L255,584 L255,504 z"/></clipPath></defs><g clip-path="url(#clip40)" fill="none" opacity="1" stroke="#000000" stroke-linecap="butt" stroke-linejoin="miter" stroke-miterlimit="2" stroke-opacity="1" stroke-width="0.97" transform="matrix(1.03093,0,0,1.03093,-255.155,-518.041)"><polyline fill="none" points="341,550 345,551" vector-effect="none"/></g><defs><clipPath id="clip41"><path d="M255,504 L435,504 L435,584 L255,584 L255,504 z"/></clipPath></defs><g clip-path="url(#clip41)" fill="none" opacity="1" stroke="#000000" stroke-linecap="butt" stroke-linejoin="miter" stroke-miterlimit="2" stroke-opacity="1" stroke-width="0.97" transform="matrix(1.03093,0,0,1.03093,-255.155,-518.041)"><polyline fill="none" points="330,563 339,557" vector-effect="none"/></g><defs><clipPath id="clip42"><path d="M255,504 L435,504 L435,584 L255,584 L255,504 z"/></clipPath></defs><g clip-path="url(#clip42)" fill="none" opacity="1" stroke="#000000" stroke-linecap="butt" stroke-linejoin="miter" stroke-miterlimit="2" stroke-opacity="1" stroke-width="0.97" transform="matrix(1.03093,0,0,1.03093,-255.155,-518.041)"><polyline fill="none" points="339,557 347,551" vector-effect="none"/></g><defs><clipPath id="clip43"><path d="M255,504 L435,504 L435,584 L255,584 L255,504 z"/></clipPath></defs><g clip-path="url(#clip43)" fill="none" opacity="1" stroke="#000000" stroke-linecap="butt" stroke-linejoin="miter" stroke-miterlimit="2" stroke-opacity="1" stroke-width="0.97" transform="matrix(1.03093,0,0,1.03093,-255.155,-518.041)"><polyline fill="none" points="347,551 352,543" vector-effect="none"/></g><defs><clipPath id="clip44"><path d="M255,504 L435,504 L435,584 L255,584 L255,504 z"/></clipPath></defs><g clip-path="url(#clip44)" fill="none" opacity="1" stroke="#000000" stroke-linecap="butt" stroke-linejoin="miter" stroke-miterlimit="2" stroke-opacity="1" stroke-width="0.97" transform="matrix(1.03093,0,0,1.03093,-255.155,-518.041)"><polyline fill="none" points="352,543 354,534" vector-effect="none"/></g><defs><clipPath id="clip45"><path d="M255,504 L435,504 L435,584 L255,584 L255,504 z"/></clipPath></defs><g clip-path="url(#clip45)" fill="none" opacity="1" stroke="#000000" stroke-linecap="butt" stroke-linejoin="miter" stroke-miterlimit="2" stroke-opacity="1" stroke-width="0.97" transform="matrix(1.03093,0,0,1.03093,-255.155,-518.041)"><polyline fill="none" points="354,534 355,525" vector-effect="none"/></g><defs><clipPath id="clip46"><path d="M255,504 L435,504 L435,584 L255,584 L255,504 z"/></clipPath></defs><g clip-path="url(#clip46)" fill="none" opacity="1" stroke="#000000" stroke-linecap="butt" stroke-linejoin="miter" stroke-miterlimit="2" stroke-opacity="1" stroke-width="0.97" transform="matrix(1.03093,0,0,1.03093,-255.155,-518.041)"><polyline fill="none" points="355,525 355,523" vector-effect="none"/></g><defs><clipPath id="clip48"><path d="M-15,-97 L907,-97 L907,313 L-15,313 L-15,-97 z"/></clipPath></defs><g clip-path="url(#clip48)" fill="none" opacity="1" stroke="#000000" stroke-linecap="butt" stroke-linejoin="miter" stroke-miterlimit="2" stroke-opacity="1" stroke-width="0.97" transform="matrix(0.201353,0,0,0.201353,10.3093,21.6495)"><text fill="#000000" fill-opacity="1" font-family="Liberation Sans" font-size="40" font-style="normal" font-weight="400" stroke="none" textLength="18" x="0" xml:space="preserve" y="1.28125">μ</text></g><defs><clipPath id="clip50"><path d="M-15,-97 L907,-97 L907,313 L-15,313 L-15,-97 z"/></clipPath></defs><g clip-path="url(#clip50)" fill="none" opacity="1" stroke="#000000" stroke-linecap="butt" stroke-linejoin="miter" stroke-miterlimit="2" stroke-opacity="1" stroke-width="0.97" transform="matrix(0.201353,0,0,0.201353,10.3093,21.6495)"><text fill="#000000" fill-opacity="1" font-family="Liberation Sans" font-size="40" font-style="normal" font-weight="400" stroke="none" textLength="40" x="43.7188" xml:space="preserve" y="1.28125">l h</text></g><defs><clipPath id="clip53"><path d="M-15,-205 L907,-205 L907,205 L-15,205 L-15,-205 z"/></clipPath></defs><g clip-path="url(#clip53)" fill="none" opacity="1" stroke="#000000" stroke-linecap="butt" stroke-linejoin="miter" stroke-miterlimit="2" stroke-opacity="1" stroke-width="0.97" transform="matrix(0.201353,0,0,0.201353,10.3093,43.299)"><text fill="#000000" fill-opacity="1" font-family="Liberation Sans" font-size="40" font-style="normal" font-weight="400" stroke="none" textLength="63" x="0" xml:space="preserve" y="17.9219">day</text></g><defs><clipPath id="clip56"><path d="M-15,-333 L907,-333 L907,77 L-15,77 L-15,-333 z"/></clipPath></defs><g clip-path="url(#clip56)" fill="none" opacity="1" stroke="#000000" stroke-linecap="butt" stroke-linejoin="miter" stroke-miterlimit="2" stroke-opacity="1" stroke-width="0.97" transform="matrix(0.201353,0,0,0.201353,10.3093,69.0722)"><text fill="#000000" fill-opacity="1" font-family="Liberation Sans" font-size="40" font-style="normal" font-weight="400" stroke="none" textLength="61" x="0" xml:space="preserve" y="17.9219">sec</text></g><defs><clipPath id="clip59"><path d="M-681,-210 L241,-210 L241,200 L-681,200 L-681,-210 z"/></clipPath></defs><g clip-path="url(#clip59)" fill="none" opacity="1" stroke="#000000" stroke-linecap="butt" stroke-linejoin="miter" stroke-miterlimit="2" stroke-opacity="1" stroke-width="0.97" transform="matrix(0.201353,0,0,0.201353,144.33,44.3299)"><text fill="#000000" fill-opacity="1" font-family="Liberation Sans" font-size="40" font-style="normal" font-weight="400" stroke="none" textLength="27" x="0" xml:space="preserve" y="1.28125">V</text></g><defs><clipPath id="clip62"><path d="M-717,-236 L205,-236 L205,174 L-717,174 L-717,-236 z"/></clipPath></defs><g clip-path="url(#clip62)" fill="none" opacity="1" stroke="#000000" stroke-linecap="butt" stroke-linejoin="miter" stroke-miterlimit="2" stroke-opacity="1" stroke-width="0.97" transform="matrix(0.201353,0,0,0.201353,151.546,49.4845)"><text fill="#000000" fill-opacity="1" font-family="Liberation Sans" font-size="32" font-style="normal" font-weight="400" stroke="none" textLength="65" x="0" xml:space="preserve" y="1.28125">wind</text></g><defs><clipPath id="clip65"><path d="M-794,-210 L128,-210 L128,200 L-794,200 L-794,-210 z"/></clipPath></defs><g clip-path="url(#clip65)" fill="none" opacity="1" stroke="#000000" stroke-linecap="butt" stroke-linejoin="miter" stroke-miterlimit="2" stroke-opacity="1" stroke-width="0.97" transform="matrix(0.201353,0,0,0.201353,167.01,44.3299)"><text fill="#000000" fill-opacity="1" font-family="Liberation Sans" font-size="40" font-style="normal" font-weight="400" stroke="none" textLength="90" x="0" xml:space="preserve" y="1.28125">(m/s)</text></g><defs><clipPath id="clip71"><path d="M-7,-2 L187,-2 L187,82 L-7,82 L-7,-2 z"/></clipPath></defs><g clip-path="url(#clip71)" fill="none" opacity="1" stroke="#000000" stroke-linecap="butt" stroke-linejoin="miter" stroke-miterlimit="2" stroke-opacity="1" stroke-width="0.98789" transform="matrix(1.03093,0,0,1.03093,7.21649,2.06186)"><path d="M0,0 L180,0 L180,80 L0,80 L0,0 z" fill-rule="evenodd" vector-effect="none"/></g></g></svg>
