<?xml version="1.0" encoding="UTF-8"?><svg width="52.9167mm" height="38.8937mm" viewBox="0 0 200 147" xmlns="http://www.w3.org/2000/svg" xmlns:xlink="http://www.w3.org/1999/xlink"><g fill="none" stroke="black" stroke-width="1" fill-rule="evenodd" stroke-linecap="square" stroke-linejoin="bevel"><g clip-path="none" fill="none" opacity="1" stroke="none" stroke-opacity="0" transform="matrix(1,0,0,1,0,0)"><path d="M0,0 L200,0 L200,147 L0,147 L0,0 z" fill-rule="evenodd" vector-effect="none"/></g><defs><clipPath id="clip3"><path d="M-177,-58 L7,-58 L7,78 L-177,78 L-177,-58 z"/></clipPath></defs><g clip-path="url(#clip3)" fill="none" opacity="1" stroke="#000000" stroke-linecap="round" stroke-linejoin="miter" stroke-miterlimit="2" stroke-opacity="1" stroke-width="2" transform="matrix(1.08696,0,0,1.08696,192.391,63.0435)"><path d="M0,-5 L5,0 L0,5" fill-rule="evenodd" vector-effect="none"/></g><defs><clipPath id="clip6"><path d="M-177,-118 L7,-118 L7,18 L-177,18 L-177,-118 z"/></clipPath></defs><g clip-path="url(#clip6)" fill="none" opacity="1" stroke="#000000" stroke-linecap="round" stroke-linejoin="miter" stroke-miterlimit="2" stroke-opacity="1" stroke-width="2" transform="matrix(1.08696,0,0,1.08696,192.391,128.261)"><path d="M0,-5 L5,0 L0,5" fill-rule="evenodd" vector-effect="none"/></g><defs><clipPath id="clip9"><path d="M7,113 L-177,113 L-177,-23 L7,-23 L7,113 z"/></clipPath></defs><g clip-path="url(#clip9)" fill="none" opacity="1" stroke="#000000" stroke-linecap="round" stroke-linejoin="miter" stroke-miterlimit="2" stroke-opacity="1" stroke-width="2" transform="matrix(-1.08696,0,0,-1.08696,7.6087,122.826)"><path d="M5,-5 L0,0 L5,5" fill-rule="evenodd" vector-effect="none"/></g><defs><clipPath id="clip12"><path d="M-177,-98 L7,-98 L7,38 L-177,38 L-177,-98 z"/></clipPath></defs><g clip-path="url(#clip12)" fill="none" opacity="1" stroke="#000000" stroke-linecap="round" stroke-linejoin="miter" stroke-miterlimit="2" stroke-opacity="1" stroke-width="2" transform="matrix(1.08696,0,0,1.08696,192.391,106.522)"><path d="M0,-5 L5,0 L0,5" fill-rule="evenodd" vector-effect="none"/></g><defs><clipPath id="clip15"><path d="M-177,-78 L7,-78 L7,58 L-177,58 L-177,-78 z"/></clipPath></defs><g clip-path="url(#clip15)" fill="none" opacity="1" stroke="#000000" stroke-linecap="round" stroke-linejoin="miter" stroke-miterlimit="2" stroke-opacity="1" stroke-width="2" transform="matrix(1.08696,0,0,1.08696,192.391,84.7826)"><path d="M0,-5 L5,0 L0,5" fill-rule="evenodd" vector-effect="none"/></g><defs><clipPath id="clip18"><path d="M-177,-18 L7,-18 L7,118 L-177,118 L-177,-18 z"/></clipPath></defs><g clip-path="url(#clip18)" fill="none" opacity="1" stroke="#000000" stroke-linecap="round" stroke-linejoin="miter" stroke-miterlimit="2" stroke-opacity="1" stroke-width="2" transform="matrix(1.08696,0,0,1.08696,192.391,19.5652)"><path d="M0,-5 L5,0 L0,5" fill-rule="evenodd" vector-effect="none"/></g><defs><clipPath id="clip21"><path d="M-177,-38 L7,-38 L7,98 L-177,98 L-177,-38 z"/></clipPath></defs><g clip-path="url(#clip21)" fill="none" opacity="1" stroke="#000000" stroke-linecap="round" stroke-linejoin="miter" stroke-miterlimit="2" stroke-opacity="1" stroke-width="2" transform="matrix(1.08696,0,0,1.08696,192.391,41.3043)"><path d="M0,-5 L5,0 L0,5" fill-rule="evenodd" vector-effect="none"/></g><defs><clipPath id="clip24"><path d="M7,68 L-177,68 L-177,-68 L7,-68 L7,68 z"/></clipPath></defs><g clip-path="url(#clip24)" fill="none" opacity="1" stroke="#000000" stroke-linecap="round" stroke-linejoin="miter" stroke-miterlimit="2" stroke-opacity="1" stroke-width="2" transform="matrix(-1.08696,0,0,-1.08696,7.6087,73.913)"><path d="M5,-5 L0,0 L5,5" fill-rule="evenodd" vector-effect="none"/></g><defs><clipPath id="clip27"><path d="M7,23 L-177,23 L-177,-113 L7,-113 L7,23 z"/></clipPath></defs><g clip-path="url(#clip27)" fill="none" opacity="1" stroke="#000000" stroke-linecap="round" stroke-linejoin="miter" stroke-miterlimit="2" stroke-opacity="1" stroke-width="2" transform="matrix(-1.08696,0,0,-1.08696,7.6087,25)"><path d="M5,-5 L0,0 L5,5" fill-rule="evenodd" vector-effect="none"/></g><defs><clipPath id="clip30"><path d="M-7,-2 L177,-2 L177,134 L-7,134 L-7,-2 z"/></clipPath></defs><g clip-path="url(#clip30)" fill="#ffffff" fill-opacity="1" opacity="1" stroke="none" stroke-opacity="0" transform="matrix(1.08696,0,0,1.08696,7.6087,2.17391)"><path d="M0,0 L170,0 L170,132 L0,132 L0,0 z" fill-rule="evenodd" vector-effect="none"/></g><defs><clipPath id="clip35"><path d="M-15,-113 L855,-113 L855,563 L-15,563 L-15,-113 z"/></clipPath></defs><g clip-path="url(#clip35)" fill="none" opacity="1" stroke="#000000" stroke-linecap="butt" stroke-linejoin="miter" stroke-miterlimit="2" stroke-opacity="1" stroke-width="0.92" transform="matrix(0.212296,0,0,0.212296,10.8696,26.087)"><text fill="#000000" fill-opacity="1" font-family="Liberation Sans" font-size="40" font-style="normal" font-weight="400" stroke="none" textLength="24" x="0" xml:space="preserve" y="1.28125">F</text></g><defs><clipPath id="clip38"><path d="M-46,-138 L824,-138 L824,538 L-46,538 L-46,-138 z"/></clipPath></defs><g clip-path="url(#clip38)" fill="none" opacity="1" stroke="#000000" stroke-linecap="butt" stroke-linejoin="miter" stroke-miterlimit="2" stroke-opacity="1" stroke-width="0.92" transform="matrix(0.212296,0,0,0.212296,17.3913,31.5217)"><text fill="#000000" fill-opacity="1" font-family="Liberation Sans" font-size="32" font-style="normal" font-weight="400" stroke="none" textLength="14" x="0" xml:space="preserve" y="1.28125">x</text></g><defs><clipPath id="clip41"><path d="M-61,-113 L809,-113 L809,563 L-61,563 L-61,-113 z"/></clipPath></defs><g clip-path="url(#clip41)" fill="none" opacity="1" stroke="#000000" stroke-linecap="butt" stroke-linejoin="miter" stroke-miterlimit="2" stroke-opacity="1" stroke-width="0.92" transform="matrix(0.212296,0,0,0.212296,20.6522,26.087)"><text fill="#000000" fill-opacity="1" font-family="Liberation Sans" font-size="40" font-style="normal" font-weight="400" stroke="none" textLength="66" x="0" xml:space="preserve" y="1.28125"> (N)</text></g><defs><clipPath id="clip44"><path d="M-15,-343 L855,-343 L855,333 L-15,333 L-15,-343 z"/></clipPath></defs><g clip-path="url(#clip44)" fill="none" opacity="1" stroke="#000000" stroke-linecap="butt" stroke-linejoin="miter" stroke-miterlimit="2" stroke-opacity="1" stroke-width="0.92" transform="matrix(0.212296,0,0,0.212296,10.8696,75)"><text fill="#000000" fill-opacity="1" font-family="Liberation Sans" font-size="40" font-style="normal" font-weight="400" stroke="none" textLength="24" x="0" xml:space="preserve" y="1.28125">F</text></g><defs><clipPath id="clip47"><path d="M-46,-369 L824,-369 L824,307 L-46,307 L-46,-369 z"/></clipPath></defs><g clip-path="url(#clip47)" fill="none" opacity="1" stroke="#000000" stroke-linecap="butt" stroke-linejoin="miter" stroke-miterlimit="2" stroke-opacity="1" stroke-width="0.92" transform="matrix(0.212296,0,0,0.212296,17.3913,80.4348)"><text fill="#000000" fill-opacity="1" font-family="Liberation Sans" font-size="32" font-style="normal" font-weight="400" stroke="none" textLength="15" x="0" xml:space="preserve" y="1.28125">z</text></g><defs><clipPath id="clip50"><path d="M-67,-343 L803,-343 L803,333 L-67,333 L-67,-343 z"/></clipPath></defs><g clip-path="url(#clip50)" fill="none" opacity="1" stroke="#000000" stroke-linecap="butt" stroke-linejoin="miter" stroke-miterlimit="2" stroke-opacity="1" stroke-width="0.92" transform="matrix(0.212296,0,0,0.212296,21.7391,75)"><text fill="#000000" fill-opacity="1" font-family="Liberation Sans" font-size="40" font-style="normal" font-weight="400" stroke="none" textLength="66" x="0" xml:space="preserve" y="1.28125"> (N)</text></g><defs><clipPath id="clip53"><path d="M-15,-589 L855,-589 L855,87 L-15,87 L-15,-589 z"/></clipPath></defs><g clip-path="url(#clip53)" fill="none" opacity="1" stroke="#000000" stroke-linecap="butt" stroke-linejoin="miter" stroke-miterlimit="2" stroke-opacity="1" stroke-width="0.92" transform="matrix(0.212296,0,0,0.212296,10.8696,127.174)"><text fill="#000000" fill-opacity="1" font-family="Liberation Sans" font-size="40" font-style="normal" font-weight="400" stroke="none" textLength="33" x="0" xml:space="preserve" y="1.28125">M</text></g><defs><clipPath id="clip56"><path d="M-61,-589 L809,-589 L809,87 L-61,87 L-61,-589 z"/></clipPath></defs><g clip-path="url(#clip56)" fill="none" opacity="1" stroke="#000000" stroke-linecap="butt" stroke-linejoin="miter" stroke-miterlimit="2" stroke-opacity="1" stroke-width="0.92" transform="matrix(0.212296,0,0,0.212296,20.6522,127.174)"><text fill="#000000" fill-opacity="1" font-family="Liberation Sans" font-size="40" font-style="normal" font-weight="400" stroke="none" textLength="113" x="0" xml:space="preserve" y="1.28125"> (N-m)</text></g><defs><clipPath id="clip59"><path d="M-701,-102 L169,-102 L169,574 L-701,574 L-701,-102 z"/></clipPath></defs><g clip-path="url(#clip59)" fill="none" opacity="1" stroke="#000000" stroke-linecap="butt" stroke-linejoin="miter" stroke-miterlimit="2" stroke-opacity="1" stroke-width="0.92" transform="matrix(0.212296,0,0,0.212296,156.522,23.913)"><text fill="#000000" fill-opacity="1" font-family="Liberation Sans" font-size="40" font-style="normal" font-weight="400" stroke="none" textLength="46" x="0" xml:space="preserve" y="1.28125">θ (</text></g><defs><clipPath id="clip61"><path d="M-701,-102 L169,-102 L169,574 L-701,574 L-701,-102 z"/></clipPath></defs><g clip-path="url(#clip61)" fill="none" opacity="1" stroke="#000000" stroke-linecap="butt" stroke-linejoin="miter" stroke-miterlimit="2" stroke-opacity="1" stroke-width="0.92" transform="matrix(0.212296,0,0,0.212296,156.522,23.913)"><text fill="#000000" fill-opacity="1" font-family="Liberation Sans" font-size="40" font-style="normal" font-weight="400" stroke="none" textLength="70" x="59.7188" xml:space="preserve" y="1.28125">rad)</text></g><defs><clipPath id="clip64"><path d="M-640,-189 L230,-189 L230,487 L-640,487 L-640,-189 z"/></clipPath></defs><g clip-path="url(#clip64)" fill="none" opacity="1" stroke="#000000" stroke-linecap="butt" stroke-linejoin="miter" stroke-miterlimit="2" stroke-opacity="1" stroke-width="0.92" transform="matrix(0.212296,0,0,0.212296,143.478,42.3913)"><text fill="#000000" fill-opacity="1" font-family="Liberation Sans" font-size="40" font-style="normal" font-weight="400" stroke="none" textLength="31" x="0" xml:space="preserve" y="1.28125">ω</text></g><defs><clipPath id="clip67"><path d="M-681,-215 L189,-215 L189,461 L-681,461 L-681,-215 z"/></clipPath></defs><g clip-path="url(#clip67)" fill="none" opacity="1" stroke="#000000" stroke-linecap="butt" stroke-linejoin="miter" stroke-miterlimit="2" stroke-opacity="1" stroke-width="0.92" transform="matrix(0.212296,0,0,0.212296,152.174,47.8261)"><text fill="#000000" fill-opacity="1" font-family="Liberation Sans" font-size="32" font-style="normal" font-weight="400" stroke="none" textLength="15" x="0" xml:space="preserve" y="1.28125">y</text></g><defs><clipPath id="clip70"><path d="M-696,-189 L174,-189 L174,487 L-696,487 L-696,-189 z"/></clipPath></defs><g clip-path="url(#clip70)" fill="none" opacity="1" stroke="#000000" stroke-linecap="butt" stroke-linejoin="miter" stroke-miterlimit="2" stroke-opacity="1" stroke-width="0.92" transform="matrix(0.212296,0,0,0.212296,155.435,42.3913)"><text fill="#000000" fill-opacity="1" font-family="Liberation Sans" font-size="40" font-style="normal" font-weight="400" stroke="none" textLength="124" x="0" xml:space="preserve" y="1.28125"> (rad/s)</text></g><defs><clipPath id="clip73"><path d="M-707,-292 L163,-292 L163,384 L-707,384 L-707,-292 z"/></clipPath></defs><g clip-path="url(#clip73)" fill="none" opacity="1" stroke="#000000" stroke-linecap="butt" stroke-linejoin="miter" stroke-miterlimit="2" stroke-opacity="1" stroke-width="0.92" transform="matrix(0.212296,0,0,0.212296,157.609,64.1304)"><text fill="#000000" fill-opacity="1" font-family="Liberation Sans" font-size="40" font-style="normal" font-weight="400" stroke="none" textLength="22" x="0" xml:space="preserve" y="1.28125">d</text></g><defs><clipPath id="clip75"><path d="M-707,-292 L163,-292 L163,384 L-707,384 L-707,-292 z"/></clipPath></defs><g clip-path="url(#clip75)" fill="none" opacity="1" stroke="#000000" stroke-linecap="butt" stroke-linejoin="miter" stroke-miterlimit="2" stroke-opacity="1" stroke-width="0.92" transform="matrix(0.212296,0,0,0.212296,157.609,64.1304)"><text fill="#000000" fill-opacity="1" font-family="Liberation Sans" font-size="40" font-style="normal" font-weight="400" stroke="none" textLength="31" x="28.4531" xml:space="preserve" y="1.28125">ω</text></g><defs><clipPath id="clip78"><path d="M-778,-317 L92,-317 L92,359 L-778,359 L-778,-317 z"/></clipPath></defs><g clip-path="url(#clip78)" fill="none" opacity="1" stroke="#000000" stroke-linecap="butt" stroke-linejoin="miter" stroke-miterlimit="2" stroke-opacity="1" stroke-width="0.92" transform="matrix(0.212296,0,0,0.212296,172.826,69.5652)"><text fill="#000000" fill-opacity="1" font-family="Liberation Sans" font-size="32" font-style="normal" font-weight="400" stroke="none" textLength="15" x="0" xml:space="preserve" y="1.28125">y</text></g><defs><clipPath id="clip81"><path d="M-794,-292 L76,-292 L76,384 L-794,384 L-794,-292 z"/></clipPath></defs><g clip-path="url(#clip81)" fill="none" opacity="1" stroke="#000000" stroke-linecap="butt" stroke-linejoin="miter" stroke-miterlimit="2" stroke-opacity="1" stroke-width="0.92" transform="matrix(0.212296,0,0,0.212296,176.087,64.1304)"><text fill="#000000" fill-opacity="1" font-family="Liberation Sans" font-size="40" font-style="normal" font-weight="400" stroke="none" textLength="44" x="0" xml:space="preserve" y="1.28125">/dt</text></g><defs><clipPath id="clip84"><path d="M-640,-394 L230,-394 L230,282 L-640,282 L-640,-394 z"/></clipPath></defs><g clip-path="url(#clip84)" fill="none" opacity="1" stroke="#000000" stroke-linecap="butt" stroke-linejoin="miter" stroke-miterlimit="2" stroke-opacity="1" stroke-width="0.92" transform="matrix(0.212296,0,0,0.212296,143.478,85.8696)"><text fill="#000000" fill-opacity="1" font-family="Liberation Sans" font-size="40" font-style="normal" font-weight="400" stroke="none" textLength="27" x="0" xml:space="preserve" y="1.28125">X</text></g><defs><clipPath id="clip87"><path d="M-676,-420 L194,-420 L194,256 L-676,256 L-676,-420 z"/></clipPath></defs><g clip-path="url(#clip87)" fill="none" opacity="1" stroke="#000000" stroke-linecap="butt" stroke-linejoin="miter" stroke-miterlimit="2" stroke-opacity="1" stroke-width="0.92" transform="matrix(0.212296,0,0,0.212296,151.087,91.3043)"><text fill="#000000" fill-opacity="1" font-family="Liberation Sans" font-size="32" font-style="normal" font-weight="400" stroke="none" textLength="17" x="0" xml:space="preserve" y="1.28125">e</text></g><defs><clipPath id="clip90"><path d="M-696,-394 L174,-394 L174,282 L-696,282 L-696,-394 z"/></clipPath></defs><g clip-path="url(#clip90)" fill="none" opacity="1" stroke="#000000" stroke-linecap="butt" stroke-linejoin="miter" stroke-miterlimit="2" stroke-opacity="1" stroke-width="0.92" transform="matrix(0.212296,0,0,0.212296,155.435,85.8696)"><text fill="#000000" fill-opacity="1" font-family="Liberation Sans" font-size="40" font-style="normal" font-weight="400" stroke="none" textLength="35" x="0" xml:space="preserve" y="1.28125"> Z</text></g><defs><clipPath id="clip93"><path d="M-742,-420 L128,-420 L128,256 L-742,256 L-742,-420 z"/></clipPath></defs><g clip-path="url(#clip93)" fill="none" opacity="1" stroke="#000000" stroke-linecap="butt" stroke-linejoin="miter" stroke-miterlimit="2" stroke-opacity="1" stroke-width="0.92" transform="matrix(0.212296,0,0,0.212296,165.217,91.3043)"><text fill="#000000" fill-opacity="1" font-family="Liberation Sans" font-size="32" font-style="normal" font-weight="400" stroke="none" textLength="17" x="0" xml:space="preserve" y="1.28125">e</text></g><defs><clipPath id="clip96"><path d="M-763,-394 L107,-394 L107,282 L-763,282 L-763,-394 z"/></clipPath></defs><g clip-path="url(#clip96)" fill="none" opacity="1" stroke="#000000" stroke-linecap="butt" stroke-linejoin="miter" stroke-miterlimit="2" stroke-opacity="1" stroke-width="0.92" transform="matrix(0.212296,0,0,0.212296,169.565,85.8696)"><text fill="#000000" fill-opacity="1" font-family="Liberation Sans" font-size="40" font-style="normal" font-weight="400" stroke="none" textLength="71" x="0" xml:space="preserve" y="1.28125"> (m)</text></g><defs><clipPath id="clip99"><path d="M-640,-512 L230,-512 L230,164 L-640,164 L-640,-512 z"/></clipPath></defs><g clip-path="url(#clip99)" fill="none" opacity="1" stroke="#000000" stroke-linecap="butt" stroke-linejoin="miter" stroke-miterlimit="2" stroke-opacity="1" stroke-width="0.92" transform="matrix(0.212296,0,0,0.212296,143.478,110.87)"><text fill="#000000" fill-opacity="1" font-family="Liberation Sans" font-size="40" font-style="normal" font-weight="400" stroke="none" textLength="170" x="0" xml:space="preserve" y="1.28125">U w (m/s)</text></g><defs><clipPath id="clip102"><path d="M-584,-609 L286,-609 L286,67 L-584,67 L-584,-609 z"/></clipPath></defs><g clip-path="url(#clip102)" fill="none" opacity="1" stroke="#000000" stroke-linecap="butt" stroke-linejoin="miter" stroke-miterlimit="2" stroke-opacity="1" stroke-width="0.92" transform="matrix(0.212296,0,0,0.212296,131.522,131.522)"><text fill="#000000" fill-opacity="1" font-family="Liberation Sans" font-size="40" font-style="normal" font-weight="400" stroke="none" textLength="27" x="0" xml:space="preserve" y="1.28125">A</text></g><defs><clipPath id="clip105"><path d="M-620,-635 L250,-635 L250,41 L-620,41 L-620,-635 z"/></clipPath></defs><g clip-path="url(#clip105)" fill="none" opacity="1" stroke="#000000" stroke-linecap="butt" stroke-linejoin="miter" stroke-miterlimit="2" stroke-opacity="1" stroke-width="0.92" transform="matrix(0.212296,0,0,0.212296,139.13,136.957)"><text fill="#000000" fill-opacity="1" font-family="Liberation Sans" font-size="32" font-style="normal" font-weight="400" stroke="none" textLength="14" x="0" xml:space="preserve" y="1.28125">x</text></g><defs><clipPath id="clip108"><path d="M-635,-609 L235,-609 L235,67 L-635,67 L-635,-609 z"/></clipPath></defs><g clip-path="url(#clip108)" fill="none" opacity="1" stroke="#000000" stroke-linecap="butt" stroke-linejoin="miter" stroke-miterlimit="2" stroke-opacity="1" stroke-width="0.92" transform="matrix(0.212296,0,0,0.212296,142.391,131.522)"><text fill="#000000" fill-opacity="1" font-family="Liberation Sans" font-size="40" font-style="normal" font-weight="400" stroke="none" textLength="36" x="0" xml:space="preserve" y="1.28125"> A</text></g><defs><clipPath id="clip111"><path d="M-681,-635 L189,-635 L189,41 L-681,41 L-681,-635 z"/></clipPath></defs><g clip-path="url(#clip111)" fill="none" opacity="1" stroke="#000000" stroke-linecap="butt" stroke-linejoin="miter" stroke-miterlimit="2" stroke-opacity="1" stroke-width="0.92" transform="matrix(0.212296,0,0,0.212296,152.174,136.957)"><text fill="#000000" fill-opacity="1" font-family="Liberation Sans" font-size="32" font-style="normal" font-weight="400" stroke="none" textLength="15" x="0" xml:space="preserve" y="1.28125">z</text></g><defs><clipPath id="clip114"><path d="M-701,-609 L169,-609 L169,67 L-701,67 L-701,-609 z"/></clipPath></defs><g clip-path="url(#clip114)" fill="none" opacity="1" stroke="#000000" stroke-linecap="butt" stroke-linejoin="miter" stroke-miterlimit="2" stroke-opacity="1" stroke-width="0.92" transform="matrix(0.212296,0,0,0.212296,156.522,131.522)"><text fill="#000000" fill-opacity="1" font-family="Liberation Sans" font-size="40" font-style="normal" font-weight="400" stroke="none" textLength="88" x="0" xml:space="preserve" y="1.28125"> (m/s</text></g><defs><clipPath id="clip117"><path d="M-814,-584 L56,-584 L56,92 L-814,92 L-814,-584 z"/></clipPath></defs><g clip-path="url(#clip117)" fill="none" opacity="1" stroke="#000000" stroke-linecap="butt" stroke-linejoin="miter" stroke-miterlimit="2" stroke-opacity="1" stroke-width="0.92" transform="matrix(0.212296,0,0,0.212296,180.435,126.087)"><text fill="#000000" fill-opacity="1" font-family="Liberation Sans" font-size="32" font-style="normal" font-weight="400" stroke="none" textLength="18" x="0" xml:space="preserve" y="1.28125">2</text></g><defs><clipPath id="clip120"><path d="M-835,-609 L35,-609 L35,67 L-835,67 L-835,-609 z"/></clipPath></defs><g clip-path="url(#clip120)" fill="none" opacity="1" stroke="#000000" stroke-linecap="butt" stroke-linejoin="miter" stroke-miterlimit="2" stroke-opacity="1" stroke-width="0.92" transform="matrix(0.212296,0,0,0.212296,184.783,131.522)"><text fill="#000000" fill-opacity="1" font-family="Liberation Sans" font-size="40" font-style="normal" font-weight="400" stroke="none" textLength="13" x="0" xml:space="preserve" y="1.28125">)</text></g><defs><clipPath id="clip122"><path d="M35,29 L205,29 L205,161 L35,161 L35,29 z"/></clipPath></defs><g clip-path="url(#clip122)" fill="none" opacity="1" stroke="#000000" stroke-linecap="butt" stroke-linejoin="miter" stroke-miterlimit="2" stroke-opacity="1" stroke-width="0.92" transform="matrix(1.08696,0,0,1.08696,-29.8913,-28.8043)"><polyline fill="none" points="120,86 120,118" vector-effect="none"/></g><defs><clipPath id="clip123"><path d="M35,29 L205,29 L205,161 L35,161 L35,29 z"/></clipPath></defs><g clip-path="url(#clip123)" fill="none" opacity="1" stroke="#000000" stroke-linecap="butt" stroke-linejoin="miter" stroke-miterlimit="2" stroke-opacity="1" stroke-width="0.92" transform="matrix(1.08696,0,0,1.08696,-29.8913,-28.8043)"><polyline fill="none" points="120,118 123,115" vector-effect="none"/></g><defs><clipPath id="clip124"><path d="M35,29 L205,29 L205,161 L35,161 L35,29 z"/></clipPath></defs><g clip-path="url(#clip124)" fill="none" opacity="1" stroke="#000000" stroke-linecap="butt" stroke-linejoin="miter" stroke-miterlimit="2" stroke-opacity="1" stroke-width="0.92" transform="matrix(1.08696,0,0,1.08696,-29.8913,-28.8043)"><polyline fill="none" points="123,115 117,115" vector-effect="none"/></g><defs><clipPath id="clip125"><path d="M35,29 L205,29 L205,161 L35,161 L35,29 z"/></clipPath></defs><g clip-path="url(#clip125)" fill="none" opacity="1" stroke="#000000" stroke-linecap="butt" stroke-linejoin="miter" stroke-miterlimit="2" stroke-opacity="1" stroke-width="0.92" transform="matrix(1.08696,0,0,1.08696,-29.8913,-28.8043)"><polyline fill="none" points="117,115 120,118" vector-effect="none"/></g><defs><clipPath id="clip126"><path d="M35,29 L205,29 L205,161 L35,161 L35,29 z"/></clipPath></defs><g clip-path="url(#clip126)" fill="none" opacity="1" stroke="#000000" stroke-linecap="butt" stroke-linejoin="miter" stroke-miterlimit="2" stroke-opacity="1" stroke-width="0.92" transform="matrix(1.08696,0,0,1.08696,-29.8913,-28.8043)"><polyline fill="none" points="120,86 152,86" vector-effect="none"/></g><defs><clipPath id="clip127"><path d="M35,29 L205,29 L205,161 L35,161 L35,29 z"/></clipPath></defs><g clip-path="url(#clip127)" fill="none" opacity="1" stroke="#000000" stroke-linecap="butt" stroke-linejoin="miter" stroke-miterlimit="2" stroke-opacity="1" stroke-width="0.92" transform="matrix(1.08696,0,0,1.08696,-29.8913,-28.8043)"><polyline fill="none" points="152,86 149,89" vector-effect="none"/></g><defs><clipPath id="clip128"><path d="M35,29 L205,29 L205,161 L35,161 L35,29 z"/></clipPath></defs><g clip-path="url(#clip128)" fill="none" opacity="1" stroke="#000000" stroke-linecap="butt" stroke-linejoin="miter" stroke-miterlimit="2" stroke-opacity="1" stroke-width="0.92" transform="matrix(1.08696,0,0,1.08696,-29.8913,-28.8043)"><polyline fill="none" points="149,89 149,84" vector-effect="none"/></g><defs><clipPath id="clip129"><path d="M35,29 L205,29 L205,161 L35,161 L35,29 z"/></clipPath></defs><g clip-path="url(#clip129)" fill="none" opacity="1" stroke="#000000" stroke-linecap="butt" stroke-linejoin="miter" stroke-miterlimit="2" stroke-opacity="1" stroke-width="0.92" transform="matrix(1.08696,0,0,1.08696,-29.8913,-28.8043)"><polyline fill="none" points="149,84 152,86" vector-effect="none"/></g><defs><clipPath id="clip130"><path d="M35,29 L205,29 L205,161 L35,161 L35,29 z"/></clipPath></defs><g clip-path="url(#clip130)" fill="none" opacity="1" stroke="#000000" stroke-linecap="butt" stroke-linejoin="miter" stroke-miterlimit="2" stroke-opacity="1" stroke-width="0.92" transform="matrix(1.08696,0,0,1.08696,-29.8913,-28.8043)"><polyline fill="none" points="114,85 115,90" vector-effect="none"/></g><defs><clipPath id="clip131"><path d="M35,29 L205,29 L205,161 L35,161 L35,29 z"/></clipPath></defs><g clip-path="url(#clip131)" fill="none" opacity="1" stroke="#000000" stroke-linecap="butt" stroke-linejoin="miter" stroke-miterlimit="2" stroke-opacity="1" stroke-width="0.92" transform="matrix(1.08696,0,0,1.08696,-29.8913,-28.8043)"><polyline fill="none" points="115,90 120,92" vector-effect="none"/></g><defs><clipPath id="clip132"><path d="M35,29 L205,29 L205,161 L35,161 L35,29 z"/></clipPath></defs><g clip-path="url(#clip132)" fill="none" opacity="1" stroke="#000000" stroke-linecap="butt" stroke-linejoin="miter" stroke-miterlimit="2" stroke-opacity="1" stroke-width="0.92" transform="matrix(1.08696,0,0,1.08696,-29.8913,-28.8043)"><polyline fill="none" points="120,92 124,90" vector-effect="none"/></g><defs><clipPath id="clip133"><path d="M35,29 L205,29 L205,161 L35,161 L35,29 z"/></clipPath></defs><g clip-path="url(#clip133)" fill="none" opacity="1" stroke="#000000" stroke-linecap="butt" stroke-linejoin="miter" stroke-miterlimit="2" stroke-opacity="1" stroke-width="0.92" transform="matrix(1.08696,0,0,1.08696,-29.8913,-28.8043)"><polyline fill="none" points="124,90 125,85" vector-effect="none"/></g><defs><clipPath id="clip134"><path d="M35,29 L205,29 L205,161 L35,161 L35,29 z"/></clipPath></defs><g clip-path="url(#clip134)" fill="none" opacity="1" stroke="#000000" stroke-linecap="butt" stroke-linejoin="miter" stroke-miterlimit="2" stroke-opacity="1" stroke-width="0.92" transform="matrix(1.08696,0,0,1.08696,-29.8913,-28.8043)"><polyline fill="none" points="125,85 123,82" vector-effect="none"/></g><defs><clipPath id="clip135"><path d="M35,29 L205,29 L205,161 L35,161 L35,29 z"/></clipPath></defs><g clip-path="url(#clip135)" fill="none" opacity="1" stroke="#000000" stroke-linecap="butt" stroke-linejoin="miter" stroke-miterlimit="2" stroke-opacity="1" stroke-width="0.92" transform="matrix(1.08696,0,0,1.08696,-29.8913,-28.8043)"><polyline fill="none" points="123,82 120,81" vector-effect="none"/></g><defs><clipPath id="clip136"><path d="M35,29 L205,29 L205,161 L35,161 L35,29 z"/></clipPath></defs><g clip-path="url(#clip136)" fill="none" opacity="1" stroke="#000000" stroke-linecap="butt" stroke-linejoin="miter" stroke-miterlimit="2" stroke-opacity="1" stroke-width="0.92" transform="matrix(1.08696,0,0,1.08696,-29.8913,-28.8043)"><polyline fill="none" points="120,81 120,82" vector-effect="none"/></g><defs><clipPath id="clip137"><path d="M35,29 L205,29 L205,161 L35,161 L35,29 z"/></clipPath></defs><g clip-path="url(#clip137)" fill="none" opacity="1" stroke="#000000" stroke-linecap="butt" stroke-linejoin="miter" stroke-miterlimit="2" stroke-opacity="1" stroke-width="0.92" transform="matrix(1.08696,0,0,1.08696,-29.8913,-28.8043)"><polyline fill="none" points="120,82 123,81" vector-effect="none"/></g><defs><clipPath id="clip138"><path d="M35,29 L205,29 L205,161 L35,161 L35,29 z"/></clipPath></defs><g clip-path="url(#clip138)" fill="none" opacity="1" stroke="#000000" stroke-linecap="butt" stroke-linejoin="miter" stroke-miterlimit="2" stroke-opacity="1" stroke-width="0.92" transform="matrix(1.08696,0,0,1.08696,-29.8913,-28.8043)"><polyline fill="none" points="123,81 120,81" vector-effect="none"/></g><defs><clipPath id="clip139"><path d="M35,29 L205,29 L205,161 L35,161 L35,29 z"/></clipPath></defs><g clip-path="url(#clip139)" fill="#000000" fill-opacity="1" opacity="1" stroke="#000000" stroke-linecap="butt" stroke-linejoin="miter" stroke-miterlimit="2" stroke-opacity="1" stroke-width="0.92" transform="matrix(1.08696,0,0,1.08696,-30.4348,-29.3478)"><path d="M123,85 L122,83 L120,82 L117,83 L116,85 L117,88 L120,89 L122,88 L123,85 z" fill-rule="evenodd" vector-effect="none"/></g><defs><clipPath id="clip141"><path d="M-430,-184 L440,-184 L440,492 L-430,492 L-430,-184 z"/></clipPath></defs><g clip-path="url(#clip141)" fill="#000000" fill-opacity="1" opacity="1" stroke="#000000" stroke-linecap="butt" stroke-linejoin="miter" stroke-miterlimit="2" stroke-opacity="1" stroke-width="0.92" transform="matrix(0.212296,0,0,0.212296,98.913,41.3043)"><text fill="#000000" fill-opacity="1" font-family="Liberation Sans" font-size="40" font-style="normal" font-weight="400" stroke="none" textLength="90" x="-58.3125" xml:space="preserve" y="17.9219">Body</text></g><defs><clipPath id="clip144"><path d="M-430,-236 L440,-236 L440,440 L-430,440 L-430,-236 z"/></clipPath></defs><g clip-path="url(#clip144)" fill="#000000" fill-opacity="1" opacity="1" stroke="#000000" stroke-linecap="butt" stroke-linejoin="miter" stroke-miterlimit="2" stroke-opacity="1" stroke-width="0.92" transform="matrix(0.212296,0,0,0.212296,98.913,52.1739)"><text fill="#000000" fill-opacity="1" font-family="Liberation Sans" font-size="40" font-style="normal" font-weight="400" stroke="none" textLength="94" x="-62.5469" xml:space="preserve" y="17.9219">Fixed</text></g><defs><clipPath id="clip147"><path d="M-430,-497 L440,-497 L440,179 L-430,179 L-430,-497 z"/></clipPath></defs><g clip-path="url(#clip147)" fill="#000000" fill-opacity="1" opacity="1" stroke="#000000" stroke-linecap="butt" stroke-linejoin="miter" stroke-miterlimit="2" stroke-opacity="1" stroke-width="0.92" transform="matrix(0.212296,0,0,0.212296,98.913,107.609)"><text fill="#000000" fill-opacity="1" font-family="Liberation Sans" font-size="40" font-style="normal" font-weight="400" stroke="none" textLength="93" x="-61.125" xml:space="preserve" y="17.9219">Mass</text></g><defs><clipPath id="clip153"><path d="M-7,-2 L177,-2 L177,134 L-7,134 L-7,-2 z"/></clipPath></defs><g clip-path="url(#clip153)" fill="none" opacity="1" stroke="#000000" stroke-linecap="butt" stroke-linejoin="miter" stroke-miterlimit="2" stroke-opacity="1" stroke-width="0.967197" transform="matrix(1.08696,0,0,1.08696,7.6087,2.17391)"><path d="M0,0 L170,0 L170,132 L0,132 L0,0 z" fill-rule="evenodd" vector-effect="none"/></g></g></svg>
