<?xml version="1.0" encoding="UTF-8"?><svg width="52.9167mm" height="38.8937mm" viewBox="0 0 200 147" xmlns="http://www.w3.org/2000/svg" xmlns:xlink="http://www.w3.org/1999/xlink"><g fill="none" stroke="black" stroke-width="1" fill-rule="evenodd" stroke-linecap="square" stroke-linejoin="bevel"><g clip-path="none" fill="none" opacity="1" stroke="none" stroke-opacity="0" transform="matrix(1,0,0,1,0,0)"><path d="M0,0 L200,0 L200,147 L0,147 L0,0 z" fill-rule="evenodd" vector-effect="none"/></g><defs><clipPath id="clip3"><path d="M-177,-128 L7,-128 L7,8 L-177,8 L-177,-128 z"/></clipPath></defs><g clip-path="url(#clip3)" fill="none" opacity="1" stroke="#000000" stroke-linecap="round" stroke-linejoin="miter" stroke-miterlimit="2" stroke-opacity="1" stroke-width="2" transform="matrix(1.08696,0,0,1.08696,192.391,139.13)"><path d="M0,-5 L5,0 L0,5" fill-rule="evenodd" vector-effect="none"/></g><defs><clipPath id="clip6"><path d="M-177,-108 L7,-108 L7,28 L-177,28 L-177,-108 z"/></clipPath></defs><g clip-path="url(#clip6)" fill="none" opacity="1" stroke="#000000" stroke-linecap="round" stroke-linejoin="miter" stroke-miterlimit="2" stroke-opacity="1" stroke-width="2" transform="matrix(1.08696,0,0,1.08696,192.391,117.391)"><path d="M0,-5 L5,0 L0,5" fill-rule="evenodd" vector-effect="none"/></g><defs><clipPath id="clip9"><path d="M-177,-88 L7,-88 L7,48 L-177,48 L-177,-88 z"/></clipPath></defs><g clip-path="url(#clip9)" fill="none" opacity="1" stroke="#000000" stroke-linecap="round" stroke-linejoin="miter" stroke-miterlimit="2" stroke-opacity="1" stroke-width="2" transform="matrix(1.08696,0,0,1.08696,192.391,95.6522)"><path d="M0,-5 L5,0 L0,5" fill-rule="evenodd" vector-effect="none"/></g><defs><clipPath id="clip12"><path d="M7,88 L-177,88 L-177,-48 L7,-48 L7,88 z"/></clipPath></defs><g clip-path="url(#clip12)" fill="none" opacity="1" stroke="#000000" stroke-linecap="round" stroke-linejoin="miter" stroke-miterlimit="2" stroke-opacity="1" stroke-width="2" transform="matrix(-1.08696,0,0,-1.08696,7.6087,95.6522)"><path d="M5,-5 L0,0 L5,5" fill-rule="evenodd" vector-effect="none"/></g><defs><clipPath id="clip15"><path d="M-177,-68 L7,-68 L7,68 L-177,68 L-177,-68 z"/></clipPath></defs><g clip-path="url(#clip15)" fill="none" opacity="1" stroke="#000000" stroke-linecap="round" stroke-linejoin="miter" stroke-miterlimit="2" stroke-opacity="1" stroke-width="2" transform="matrix(1.08696,0,0,1.08696,192.391,73.913)"><path d="M0,-5 L5,0 L0,5" fill-rule="evenodd" vector-effect="none"/></g><defs><clipPath id="clip18"><path d="M-177,-28 L7,-28 L7,108 L-177,108 L-177,-28 z"/></clipPath></defs><g clip-path="url(#clip18)" fill="none" opacity="1" stroke="#000000" stroke-linecap="round" stroke-linejoin="miter" stroke-miterlimit="2" stroke-opacity="1" stroke-width="2" transform="matrix(1.08696,0,0,1.08696,192.391,30.4348)"><path d="M0,-5 L5,0 L0,5" fill-rule="evenodd" vector-effect="none"/></g><defs><clipPath id="clip21"><path d="M7,123 L-177,123 L-177,-13 L7,-13 L7,123 z"/></clipPath></defs><g clip-path="url(#clip21)" fill="none" opacity="1" stroke="#000000" stroke-linecap="round" stroke-linejoin="miter" stroke-miterlimit="2" stroke-opacity="1" stroke-width="2" transform="matrix(-1.08696,0,0,-1.08696,7.6087,133.696)"><path d="M5,-5 L0,0 L5,5" fill-rule="evenodd" vector-effect="none"/></g><defs><clipPath id="clip24"><path d="M-177,-8 L7,-8 L7,128 L-177,128 L-177,-8 z"/></clipPath></defs><g clip-path="url(#clip24)" fill="none" opacity="1" stroke="#000000" stroke-linecap="round" stroke-linejoin="miter" stroke-miterlimit="2" stroke-opacity="1" stroke-width="2" transform="matrix(1.08696,0,0,1.08696,192.391,8.69565)"><path d="M0,-5 L5,0 L0,5" fill-rule="evenodd" vector-effect="none"/></g><defs><clipPath id="clip27"><path d="M-177,-48 L7,-48 L7,88 L-177,88 L-177,-48 z"/></clipPath></defs><g clip-path="url(#clip27)" fill="none" opacity="1" stroke="#000000" stroke-linecap="round" stroke-linejoin="miter" stroke-miterlimit="2" stroke-opacity="1" stroke-width="2" transform="matrix(1.08696,0,0,1.08696,192.391,52.1739)"><path d="M0,-5 L5,0 L0,5" fill-rule="evenodd" vector-effect="none"/></g><defs><clipPath id="clip30"><path d="M7,53 L-177,53 L-177,-83 L7,-83 L7,53 z"/></clipPath></defs><g clip-path="url(#clip30)" fill="none" opacity="1" stroke="#000000" stroke-linecap="round" stroke-linejoin="miter" stroke-miterlimit="2" stroke-opacity="1" stroke-width="2" transform="matrix(-1.08696,0,0,-1.08696,7.6087,57.6087)"><path d="M5,-5 L0,0 L5,5" fill-rule="evenodd" vector-effect="none"/></g><defs><clipPath id="clip33"><path d="M7,18 L-177,18 L-177,-118 L7,-118 L7,18 z"/></clipPath></defs><g clip-path="url(#clip33)" fill="none" opacity="1" stroke="#000000" stroke-linecap="round" stroke-linejoin="miter" stroke-miterlimit="2" stroke-opacity="1" stroke-width="2" transform="matrix(-1.08696,0,0,-1.08696,7.6087,19.5652)"><path d="M5,-5 L0,0 L5,5" fill-rule="evenodd" vector-effect="none"/></g><defs><clipPath id="clip36"><path d="M-7,-2 L177,-2 L177,134 L-7,134 L-7,-2 z"/></clipPath></defs><g clip-path="url(#clip36)" fill="#ffffff" fill-opacity="1" opacity="1" stroke="none" stroke-opacity="0" transform="matrix(1.08696,0,0,1.08696,7.6087,2.17391)"><path d="M0,0 L170,0 L170,132 L0,132 L0,0 z" fill-rule="evenodd" vector-effect="none"/></g><defs><clipPath id="clip41"><path d="M-15,-87 L855,-87 L855,589 L-15,589 L-15,-87 z"/></clipPath></defs><g clip-path="url(#clip41)" fill="none" opacity="1" stroke="#000000" stroke-linecap="butt" stroke-linejoin="miter" stroke-miterlimit="2" stroke-opacity="1" stroke-width="0.92" transform="matrix(0.212296,0,0,0.212296,10.8696,20.6522)"><text fill="#000000" fill-opacity="1" font-family="Liberation Sans" font-size="40" font-style="normal" font-weight="400" stroke="none" textLength="24" x="0" xml:space="preserve" y="1.28125">F</text></g><defs><clipPath id="clip44"><path d="M-46,-113 L824,-113 L824,563 L-46,563 L-46,-113 z"/></clipPath></defs><g clip-path="url(#clip44)" fill="none" opacity="1" stroke="#000000" stroke-linecap="butt" stroke-linejoin="miter" stroke-miterlimit="2" stroke-opacity="1" stroke-width="0.92" transform="matrix(0.212296,0,0,0.212296,17.3913,26.087)"><text fill="#000000" fill-opacity="1" font-family="Liberation Sans" font-size="32" font-style="normal" font-weight="400" stroke="none" textLength="14" x="0" xml:space="preserve" y="1.28125">x</text></g><defs><clipPath id="clip47"><path d="M-61,-87 L809,-87 L809,589 L-61,589 L-61,-87 z"/></clipPath></defs><g clip-path="url(#clip47)" fill="none" opacity="1" stroke="#000000" stroke-linecap="butt" stroke-linejoin="miter" stroke-miterlimit="2" stroke-opacity="1" stroke-width="0.92" transform="matrix(0.212296,0,0,0.212296,20.6522,20.6522)"><text fill="#000000" fill-opacity="1" font-family="Liberation Sans" font-size="40" font-style="normal" font-weight="400" stroke="none" textLength="66" x="0" xml:space="preserve" y="1.28125"> (N)</text></g><defs><clipPath id="clip50"><path d="M-15,-266 L855,-266 L855,410 L-15,410 L-15,-266 z"/></clipPath></defs><g clip-path="url(#clip50)" fill="none" opacity="1" stroke="#000000" stroke-linecap="butt" stroke-linejoin="miter" stroke-miterlimit="2" stroke-opacity="1" stroke-width="0.92" transform="matrix(0.212296,0,0,0.212296,10.8696,58.6957)"><text fill="#000000" fill-opacity="1" font-family="Liberation Sans" font-size="40" font-style="normal" font-weight="400" stroke="none" textLength="24" x="0" xml:space="preserve" y="1.28125">F</text></g><defs><clipPath id="clip53"><path d="M-46,-292 L824,-292 L824,384 L-46,384 L-46,-292 z"/></clipPath></defs><g clip-path="url(#clip53)" fill="none" opacity="1" stroke="#000000" stroke-linecap="butt" stroke-linejoin="miter" stroke-miterlimit="2" stroke-opacity="1" stroke-width="0.92" transform="matrix(0.212296,0,0,0.212296,17.3913,64.1304)"><text fill="#000000" fill-opacity="1" font-family="Liberation Sans" font-size="32" font-style="normal" font-weight="400" stroke="none" textLength="15" x="0" xml:space="preserve" y="1.28125">z</text></g><defs><clipPath id="clip56"><path d="M-67,-266 L803,-266 L803,410 L-67,410 L-67,-266 z"/></clipPath></defs><g clip-path="url(#clip56)" fill="none" opacity="1" stroke="#000000" stroke-linecap="butt" stroke-linejoin="miter" stroke-miterlimit="2" stroke-opacity="1" stroke-width="0.92" transform="matrix(0.212296,0,0,0.212296,21.7391,58.6957)"><text fill="#000000" fill-opacity="1" font-family="Liberation Sans" font-size="40" font-style="normal" font-weight="400" stroke="none" textLength="66" x="0" xml:space="preserve" y="1.28125"> (N)</text></g><defs><clipPath id="clip59"><path d="M-15,-461 L855,-461 L855,215 L-15,215 L-15,-461 z"/></clipPath></defs><g clip-path="url(#clip59)" fill="none" opacity="1" stroke="#000000" stroke-linecap="butt" stroke-linejoin="miter" stroke-miterlimit="2" stroke-opacity="1" stroke-width="0.92" transform="matrix(0.212296,0,0,0.212296,10.8696,100)"><text fill="#000000" fill-opacity="1" font-family="Liberation Sans" font-size="40" font-style="normal" font-weight="400" stroke="none" textLength="33" x="0" xml:space="preserve" y="1.28125">M</text></g><defs><clipPath id="clip62"><path d="M-61,-461 L809,-461 L809,215 L-61,215 L-61,-461 z"/></clipPath></defs><g clip-path="url(#clip62)" fill="none" opacity="1" stroke="#000000" stroke-linecap="butt" stroke-linejoin="miter" stroke-miterlimit="2" stroke-opacity="1" stroke-width="0.92" transform="matrix(0.212296,0,0,0.212296,20.6522,100)"><text fill="#000000" fill-opacity="1" font-family="Liberation Sans" font-size="40" font-style="normal" font-weight="400" stroke="none" textLength="113" x="0" xml:space="preserve" y="1.28125"> (N-m)</text></g><defs><clipPath id="clip65"><path d="M-15,-640 L855,-640 L855,36 L-15,36 L-15,-640 z"/></clipPath></defs><g clip-path="url(#clip65)" fill="none" opacity="1" stroke="#000000" stroke-linecap="butt" stroke-linejoin="miter" stroke-miterlimit="2" stroke-opacity="1" stroke-width="0.92" transform="matrix(0.212296,0,0,0.212296,10.8696,138.043)"><text fill="#000000" fill-opacity="1" font-family="Liberation Sans" font-size="40" font-style="normal" font-weight="400" stroke="none" textLength="209" x="0" xml:space="preserve" y="1.28125">dm/dt (kg/s)</text></g><defs><clipPath id="clip68"><path d="M-701,-51 L169,-51 L169,625 L-701,625 L-701,-51 z"/></clipPath></defs><g clip-path="url(#clip68)" fill="none" opacity="1" stroke="#000000" stroke-linecap="butt" stroke-linejoin="miter" stroke-miterlimit="2" stroke-opacity="1" stroke-width="0.92" transform="matrix(0.212296,0,0,0.212296,156.522,13.0435)"><text fill="#000000" fill-opacity="1" font-family="Liberation Sans" font-size="40" font-style="normal" font-weight="400" stroke="none" textLength="46" x="0" xml:space="preserve" y="1.28125">θ (</text></g><defs><clipPath id="clip70"><path d="M-701,-51 L169,-51 L169,625 L-701,625 L-701,-51 z"/></clipPath></defs><g clip-path="url(#clip70)" fill="none" opacity="1" stroke="#000000" stroke-linecap="butt" stroke-linejoin="miter" stroke-miterlimit="2" stroke-opacity="1" stroke-width="0.92" transform="matrix(0.212296,0,0,0.212296,156.522,13.0435)"><text fill="#000000" fill-opacity="1" font-family="Liberation Sans" font-size="40" font-style="normal" font-weight="400" stroke="none" textLength="70" x="59.7188" xml:space="preserve" y="1.28125">rad)</text></g><defs><clipPath id="clip73"><path d="M-640,-138 L230,-138 L230,538 L-640,538 L-640,-138 z"/></clipPath></defs><g clip-path="url(#clip73)" fill="none" opacity="1" stroke="#000000" stroke-linecap="butt" stroke-linejoin="miter" stroke-miterlimit="2" stroke-opacity="1" stroke-width="0.92" transform="matrix(0.212296,0,0,0.212296,143.478,31.5217)"><text fill="#000000" fill-opacity="1" font-family="Liberation Sans" font-size="40" font-style="normal" font-weight="400" stroke="none" textLength="31" x="0" xml:space="preserve" y="1.28125">ω</text></g><defs><clipPath id="clip76"><path d="M-681,-164 L189,-164 L189,512 L-681,512 L-681,-164 z"/></clipPath></defs><g clip-path="url(#clip76)" fill="none" opacity="1" stroke="#000000" stroke-linecap="butt" stroke-linejoin="miter" stroke-miterlimit="2" stroke-opacity="1" stroke-width="0.92" transform="matrix(0.212296,0,0,0.212296,152.174,36.9565)"><text fill="#000000" fill-opacity="1" font-family="Liberation Sans" font-size="32" font-style="normal" font-weight="400" stroke="none" textLength="15" x="0" xml:space="preserve" y="1.28125">y</text></g><defs><clipPath id="clip79"><path d="M-696,-138 L174,-138 L174,538 L-696,538 L-696,-138 z"/></clipPath></defs><g clip-path="url(#clip79)" fill="none" opacity="1" stroke="#000000" stroke-linecap="butt" stroke-linejoin="miter" stroke-miterlimit="2" stroke-opacity="1" stroke-width="0.92" transform="matrix(0.212296,0,0,0.212296,155.435,31.5217)"><text fill="#000000" fill-opacity="1" font-family="Liberation Sans" font-size="40" font-style="normal" font-weight="400" stroke="none" textLength="124" x="0" xml:space="preserve" y="1.28125"> (rad/s)</text></g><defs><clipPath id="clip82"><path d="M-707,-241 L163,-241 L163,435 L-707,435 L-707,-241 z"/></clipPath></defs><g clip-path="url(#clip82)" fill="none" opacity="1" stroke="#000000" stroke-linecap="butt" stroke-linejoin="miter" stroke-miterlimit="2" stroke-opacity="1" stroke-width="0.92" transform="matrix(0.212296,0,0,0.212296,157.609,53.2609)"><text fill="#000000" fill-opacity="1" font-family="Liberation Sans" font-size="40" font-style="normal" font-weight="400" stroke="none" textLength="22" x="0" xml:space="preserve" y="1.28125">d</text></g><defs><clipPath id="clip84"><path d="M-707,-241 L163,-241 L163,435 L-707,435 L-707,-241 z"/></clipPath></defs><g clip-path="url(#clip84)" fill="none" opacity="1" stroke="#000000" stroke-linecap="butt" stroke-linejoin="miter" stroke-miterlimit="2" stroke-opacity="1" stroke-width="0.92" transform="matrix(0.212296,0,0,0.212296,157.609,53.2609)"><text fill="#000000" fill-opacity="1" font-family="Liberation Sans" font-size="40" font-style="normal" font-weight="400" stroke="none" textLength="31" x="28.4531" xml:space="preserve" y="1.28125">ω</text></g><defs><clipPath id="clip87"><path d="M-778,-266 L92,-266 L92,410 L-778,410 L-778,-266 z"/></clipPath></defs><g clip-path="url(#clip87)" fill="none" opacity="1" stroke="#000000" stroke-linecap="butt" stroke-linejoin="miter" stroke-miterlimit="2" stroke-opacity="1" stroke-width="0.92" transform="matrix(0.212296,0,0,0.212296,172.826,58.6957)"><text fill="#000000" fill-opacity="1" font-family="Liberation Sans" font-size="32" font-style="normal" font-weight="400" stroke="none" textLength="15" x="0" xml:space="preserve" y="1.28125">y</text></g><defs><clipPath id="clip90"><path d="M-794,-241 L76,-241 L76,435 L-794,435 L-794,-241 z"/></clipPath></defs><g clip-path="url(#clip90)" fill="none" opacity="1" stroke="#000000" stroke-linecap="butt" stroke-linejoin="miter" stroke-miterlimit="2" stroke-opacity="1" stroke-width="0.92" transform="matrix(0.212296,0,0,0.212296,176.087,53.2609)"><text fill="#000000" fill-opacity="1" font-family="Liberation Sans" font-size="40" font-style="normal" font-weight="400" stroke="none" textLength="44" x="0" xml:space="preserve" y="1.28125">/dt</text></g><defs><clipPath id="clip93"><path d="M-640,-343 L230,-343 L230,333 L-640,333 L-640,-343 z"/></clipPath></defs><g clip-path="url(#clip93)" fill="none" opacity="1" stroke="#000000" stroke-linecap="butt" stroke-linejoin="miter" stroke-miterlimit="2" stroke-opacity="1" stroke-width="0.92" transform="matrix(0.212296,0,0,0.212296,143.478,75)"><text fill="#000000" fill-opacity="1" font-family="Liberation Sans" font-size="40" font-style="normal" font-weight="400" stroke="none" textLength="27" x="0" xml:space="preserve" y="1.28125">X</text></g><defs><clipPath id="clip96"><path d="M-676,-369 L194,-369 L194,307 L-676,307 L-676,-369 z"/></clipPath></defs><g clip-path="url(#clip96)" fill="none" opacity="1" stroke="#000000" stroke-linecap="butt" stroke-linejoin="miter" stroke-miterlimit="2" stroke-opacity="1" stroke-width="0.92" transform="matrix(0.212296,0,0,0.212296,151.087,80.4348)"><text fill="#000000" fill-opacity="1" font-family="Liberation Sans" font-size="32" font-style="normal" font-weight="400" stroke="none" textLength="17" x="0" xml:space="preserve" y="1.28125">e</text></g><defs><clipPath id="clip99"><path d="M-696,-343 L174,-343 L174,333 L-696,333 L-696,-343 z"/></clipPath></defs><g clip-path="url(#clip99)" fill="none" opacity="1" stroke="#000000" stroke-linecap="butt" stroke-linejoin="miter" stroke-miterlimit="2" stroke-opacity="1" stroke-width="0.92" transform="matrix(0.212296,0,0,0.212296,155.435,75)"><text fill="#000000" fill-opacity="1" font-family="Liberation Sans" font-size="40" font-style="normal" font-weight="400" stroke="none" textLength="35" x="0" xml:space="preserve" y="1.28125"> Z</text></g><defs><clipPath id="clip102"><path d="M-742,-369 L128,-369 L128,307 L-742,307 L-742,-369 z"/></clipPath></defs><g clip-path="url(#clip102)" fill="none" opacity="1" stroke="#000000" stroke-linecap="butt" stroke-linejoin="miter" stroke-miterlimit="2" stroke-opacity="1" stroke-width="0.92" transform="matrix(0.212296,0,0,0.212296,165.217,80.4348)"><text fill="#000000" fill-opacity="1" font-family="Liberation Sans" font-size="32" font-style="normal" font-weight="400" stroke="none" textLength="17" x="0" xml:space="preserve" y="1.28125">e</text></g><defs><clipPath id="clip105"><path d="M-763,-343 L107,-343 L107,333 L-763,333 L-763,-343 z"/></clipPath></defs><g clip-path="url(#clip105)" fill="none" opacity="1" stroke="#000000" stroke-linecap="butt" stroke-linejoin="miter" stroke-miterlimit="2" stroke-opacity="1" stroke-width="0.92" transform="matrix(0.212296,0,0,0.212296,169.565,75)"><text fill="#000000" fill-opacity="1" font-family="Liberation Sans" font-size="40" font-style="normal" font-weight="400" stroke="none" textLength="71" x="0" xml:space="preserve" y="1.28125"> (m)</text></g><defs><clipPath id="clip108"><path d="M-640,-461 L230,-461 L230,215 L-640,215 L-640,-461 z"/></clipPath></defs><g clip-path="url(#clip108)" fill="none" opacity="1" stroke="#000000" stroke-linecap="butt" stroke-linejoin="miter" stroke-miterlimit="2" stroke-opacity="1" stroke-width="0.92" transform="matrix(0.212296,0,0,0.212296,143.478,100)"><text fill="#000000" fill-opacity="1" font-family="Liberation Sans" font-size="40" font-style="normal" font-weight="400" stroke="none" textLength="170" x="0" xml:space="preserve" y="1.28125">U w (m/s)</text></g><defs><clipPath id="clip111"><path d="M-584,-558 L286,-558 L286,118 L-584,118 L-584,-558 z"/></clipPath></defs><g clip-path="url(#clip111)" fill="none" opacity="1" stroke="#000000" stroke-linecap="butt" stroke-linejoin="miter" stroke-miterlimit="2" stroke-opacity="1" stroke-width="0.92" transform="matrix(0.212296,0,0,0.212296,131.522,120.652)"><text fill="#000000" fill-opacity="1" font-family="Liberation Sans" font-size="40" font-style="normal" font-weight="400" stroke="none" textLength="27" x="0" xml:space="preserve" y="1.28125">A</text></g><defs><clipPath id="clip114"><path d="M-620,-584 L250,-584 L250,92 L-620,92 L-620,-584 z"/></clipPath></defs><g clip-path="url(#clip114)" fill="none" opacity="1" stroke="#000000" stroke-linecap="butt" stroke-linejoin="miter" stroke-miterlimit="2" stroke-opacity="1" stroke-width="0.92" transform="matrix(0.212296,0,0,0.212296,139.13,126.087)"><text fill="#000000" fill-opacity="1" font-family="Liberation Sans" font-size="32" font-style="normal" font-weight="400" stroke="none" textLength="14" x="0" xml:space="preserve" y="1.28125">x</text></g><defs><clipPath id="clip117"><path d="M-635,-558 L235,-558 L235,118 L-635,118 L-635,-558 z"/></clipPath></defs><g clip-path="url(#clip117)" fill="none" opacity="1" stroke="#000000" stroke-linecap="butt" stroke-linejoin="miter" stroke-miterlimit="2" stroke-opacity="1" stroke-width="0.92" transform="matrix(0.212296,0,0,0.212296,142.391,120.652)"><text fill="#000000" fill-opacity="1" font-family="Liberation Sans" font-size="40" font-style="normal" font-weight="400" stroke="none" textLength="36" x="0" xml:space="preserve" y="1.28125"> A</text></g><defs><clipPath id="clip120"><path d="M-681,-584 L189,-584 L189,92 L-681,92 L-681,-584 z"/></clipPath></defs><g clip-path="url(#clip120)" fill="none" opacity="1" stroke="#000000" stroke-linecap="butt" stroke-linejoin="miter" stroke-miterlimit="2" stroke-opacity="1" stroke-width="0.92" transform="matrix(0.212296,0,0,0.212296,152.174,126.087)"><text fill="#000000" fill-opacity="1" font-family="Liberation Sans" font-size="32" font-style="normal" font-weight="400" stroke="none" textLength="15" x="0" xml:space="preserve" y="1.28125">z</text></g><defs><clipPath id="clip123"><path d="M-701,-558 L169,-558 L169,118 L-701,118 L-701,-558 z"/></clipPath></defs><g clip-path="url(#clip123)" fill="none" opacity="1" stroke="#000000" stroke-linecap="butt" stroke-linejoin="miter" stroke-miterlimit="2" stroke-opacity="1" stroke-width="0.92" transform="matrix(0.212296,0,0,0.212296,156.522,120.652)"><text fill="#000000" fill-opacity="1" font-family="Liberation Sans" font-size="40" font-style="normal" font-weight="400" stroke="none" textLength="88" x="0" xml:space="preserve" y="1.28125"> (m/s</text></g><defs><clipPath id="clip126"><path d="M-814,-532 L56,-532 L56,144 L-814,144 L-814,-532 z"/></clipPath></defs><g clip-path="url(#clip126)" fill="none" opacity="1" stroke="#000000" stroke-linecap="butt" stroke-linejoin="miter" stroke-miterlimit="2" stroke-opacity="1" stroke-width="0.92" transform="matrix(0.212296,0,0,0.212296,180.435,115.217)"><text fill="#000000" fill-opacity="1" font-family="Liberation Sans" font-size="32" font-style="normal" font-weight="400" stroke="none" textLength="18" x="0" xml:space="preserve" y="1.28125">2</text></g><defs><clipPath id="clip129"><path d="M-835,-558 L35,-558 L35,118 L-835,118 L-835,-558 z"/></clipPath></defs><g clip-path="url(#clip129)" fill="none" opacity="1" stroke="#000000" stroke-linecap="butt" stroke-linejoin="miter" stroke-miterlimit="2" stroke-opacity="1" stroke-width="0.92" transform="matrix(0.212296,0,0,0.212296,184.783,120.652)"><text fill="#000000" fill-opacity="1" font-family="Liberation Sans" font-size="40" font-style="normal" font-weight="400" stroke="none" textLength="13" x="0" xml:space="preserve" y="1.28125">)</text></g><defs><clipPath id="clip132"><path d="M-748,-666 L122,-666 L122,10 L-748,10 L-748,-666 z"/></clipPath></defs><g clip-path="url(#clip132)" fill="none" opacity="1" stroke="#000000" stroke-linecap="butt" stroke-linejoin="miter" stroke-miterlimit="2" stroke-opacity="1" stroke-width="0.92" transform="matrix(0.212296,0,0,0.212296,166.304,143.478)"><text fill="#000000" fill-opacity="1" font-family="Liberation Sans" font-size="40" font-style="normal" font-weight="400" stroke="none" textLength="75" x="0" xml:space="preserve" y="1.28125">Fuel</text></g><defs><clipPath id="clip134"><path d="M240,29 L410,29 L410,161 L240,161 L240,29 z"/></clipPath></defs><g clip-path="url(#clip134)" fill="none" opacity="1" stroke="#000000" stroke-linecap="butt" stroke-linejoin="miter" stroke-miterlimit="2" stroke-opacity="1" stroke-width="0.92" transform="matrix(1.08696,0,0,1.08696,-252.717,-28.8043)"><polyline fill="none" points="325,86 325,118" vector-effect="none"/></g><defs><clipPath id="clip135"><path d="M240,29 L410,29 L410,161 L240,161 L240,29 z"/></clipPath></defs><g clip-path="url(#clip135)" fill="none" opacity="1" stroke="#000000" stroke-linecap="butt" stroke-linejoin="miter" stroke-miterlimit="2" stroke-opacity="1" stroke-width="0.92" transform="matrix(1.08696,0,0,1.08696,-252.717,-28.8043)"><polyline fill="none" points="325,118 328,115" vector-effect="none"/></g><defs><clipPath id="clip136"><path d="M240,29 L410,29 L410,161 L240,161 L240,29 z"/></clipPath></defs><g clip-path="url(#clip136)" fill="none" opacity="1" stroke="#000000" stroke-linecap="butt" stroke-linejoin="miter" stroke-miterlimit="2" stroke-opacity="1" stroke-width="0.92" transform="matrix(1.08696,0,0,1.08696,-252.717,-28.8043)"><polyline fill="none" points="328,115 322,115" vector-effect="none"/></g><defs><clipPath id="clip137"><path d="M240,29 L410,29 L410,161 L240,161 L240,29 z"/></clipPath></defs><g clip-path="url(#clip137)" fill="none" opacity="1" stroke="#000000" stroke-linecap="butt" stroke-linejoin="miter" stroke-miterlimit="2" stroke-opacity="1" stroke-width="0.92" transform="matrix(1.08696,0,0,1.08696,-252.717,-28.8043)"><polyline fill="none" points="322,115 325,118" vector-effect="none"/></g><defs><clipPath id="clip138"><path d="M240,29 L410,29 L410,161 L240,161 L240,29 z"/></clipPath></defs><g clip-path="url(#clip138)" fill="none" opacity="1" stroke="#000000" stroke-linecap="butt" stroke-linejoin="miter" stroke-miterlimit="2" stroke-opacity="1" stroke-width="0.92" transform="matrix(1.08696,0,0,1.08696,-252.717,-28.8043)"><polyline fill="none" points="325,86 357,86" vector-effect="none"/></g><defs><clipPath id="clip139"><path d="M240,29 L410,29 L410,161 L240,161 L240,29 z"/></clipPath></defs><g clip-path="url(#clip139)" fill="none" opacity="1" stroke="#000000" stroke-linecap="butt" stroke-linejoin="miter" stroke-miterlimit="2" stroke-opacity="1" stroke-width="0.92" transform="matrix(1.08696,0,0,1.08696,-252.717,-28.8043)"><polyline fill="none" points="357,86 354,89" vector-effect="none"/></g><defs><clipPath id="clip140"><path d="M240,29 L410,29 L410,161 L240,161 L240,29 z"/></clipPath></defs><g clip-path="url(#clip140)" fill="none" opacity="1" stroke="#000000" stroke-linecap="butt" stroke-linejoin="miter" stroke-miterlimit="2" stroke-opacity="1" stroke-width="0.92" transform="matrix(1.08696,0,0,1.08696,-252.717,-28.8043)"><polyline fill="none" points="354,89 354,84" vector-effect="none"/></g><defs><clipPath id="clip141"><path d="M240,29 L410,29 L410,161 L240,161 L240,29 z"/></clipPath></defs><g clip-path="url(#clip141)" fill="none" opacity="1" stroke="#000000" stroke-linecap="butt" stroke-linejoin="miter" stroke-miterlimit="2" stroke-opacity="1" stroke-width="0.92" transform="matrix(1.08696,0,0,1.08696,-252.717,-28.8043)"><polyline fill="none" points="354,84 357,86" vector-effect="none"/></g><defs><clipPath id="clip142"><path d="M240,29 L410,29 L410,161 L240,161 L240,29 z"/></clipPath></defs><g clip-path="url(#clip142)" fill="none" opacity="1" stroke="#000000" stroke-linecap="butt" stroke-linejoin="miter" stroke-miterlimit="2" stroke-opacity="1" stroke-width="0.92" transform="matrix(1.08696,0,0,1.08696,-252.717,-28.8043)"><polyline fill="none" points="319,85 320,90" vector-effect="none"/></g><defs><clipPath id="clip143"><path d="M240,29 L410,29 L410,161 L240,161 L240,29 z"/></clipPath></defs><g clip-path="url(#clip143)" fill="none" opacity="1" stroke="#000000" stroke-linecap="butt" stroke-linejoin="miter" stroke-miterlimit="2" stroke-opacity="1" stroke-width="0.92" transform="matrix(1.08696,0,0,1.08696,-252.717,-28.8043)"><polyline fill="none" points="320,90 325,92" vector-effect="none"/></g><defs><clipPath id="clip144"><path d="M240,29 L410,29 L410,161 L240,161 L240,29 z"/></clipPath></defs><g clip-path="url(#clip144)" fill="none" opacity="1" stroke="#000000" stroke-linecap="butt" stroke-linejoin="miter" stroke-miterlimit="2" stroke-opacity="1" stroke-width="0.92" transform="matrix(1.08696,0,0,1.08696,-252.717,-28.8043)"><polyline fill="none" points="325,92 329,90" vector-effect="none"/></g><defs><clipPath id="clip145"><path d="M240,29 L410,29 L410,161 L240,161 L240,29 z"/></clipPath></defs><g clip-path="url(#clip145)" fill="none" opacity="1" stroke="#000000" stroke-linecap="butt" stroke-linejoin="miter" stroke-miterlimit="2" stroke-opacity="1" stroke-width="0.92" transform="matrix(1.08696,0,0,1.08696,-252.717,-28.8043)"><polyline fill="none" points="329,90 330,85" vector-effect="none"/></g><defs><clipPath id="clip146"><path d="M240,29 L410,29 L410,161 L240,161 L240,29 z"/></clipPath></defs><g clip-path="url(#clip146)" fill="none" opacity="1" stroke="#000000" stroke-linecap="butt" stroke-linejoin="miter" stroke-miterlimit="2" stroke-opacity="1" stroke-width="0.92" transform="matrix(1.08696,0,0,1.08696,-252.717,-28.8043)"><polyline fill="none" points="330,85 328,82" vector-effect="none"/></g><defs><clipPath id="clip147"><path d="M240,29 L410,29 L410,161 L240,161 L240,29 z"/></clipPath></defs><g clip-path="url(#clip147)" fill="none" opacity="1" stroke="#000000" stroke-linecap="butt" stroke-linejoin="miter" stroke-miterlimit="2" stroke-opacity="1" stroke-width="0.92" transform="matrix(1.08696,0,0,1.08696,-252.717,-28.8043)"><polyline fill="none" points="328,82 325,81" vector-effect="none"/></g><defs><clipPath id="clip148"><path d="M240,29 L410,29 L410,161 L240,161 L240,29 z"/></clipPath></defs><g clip-path="url(#clip148)" fill="none" opacity="1" stroke="#000000" stroke-linecap="butt" stroke-linejoin="miter" stroke-miterlimit="2" stroke-opacity="1" stroke-width="0.92" transform="matrix(1.08696,0,0,1.08696,-252.717,-28.8043)"><polyline fill="none" points="325,81 325,82" vector-effect="none"/></g><defs><clipPath id="clip149"><path d="M240,29 L410,29 L410,161 L240,161 L240,29 z"/></clipPath></defs><g clip-path="url(#clip149)" fill="none" opacity="1" stroke="#000000" stroke-linecap="butt" stroke-linejoin="miter" stroke-miterlimit="2" stroke-opacity="1" stroke-width="0.92" transform="matrix(1.08696,0,0,1.08696,-252.717,-28.8043)"><polyline fill="none" points="325,82 328,81" vector-effect="none"/></g><defs><clipPath id="clip150"><path d="M240,29 L410,29 L410,161 L240,161 L240,29 z"/></clipPath></defs><g clip-path="url(#clip150)" fill="none" opacity="1" stroke="#000000" stroke-linecap="butt" stroke-linejoin="miter" stroke-miterlimit="2" stroke-opacity="1" stroke-width="0.92" transform="matrix(1.08696,0,0,1.08696,-252.717,-28.8043)"><polyline fill="none" points="328,81 325,81" vector-effect="none"/></g><defs><clipPath id="clip151"><path d="M240,29 L410,29 L410,161 L240,161 L240,29 z"/></clipPath></defs><g clip-path="url(#clip151)" fill="#000000" fill-opacity="1" opacity="1" stroke="#000000" stroke-linecap="butt" stroke-linejoin="miter" stroke-miterlimit="2" stroke-opacity="1" stroke-width="0.92" transform="matrix(1.08696,0,0,1.08696,-253.261,-29.3478)"><path d="M328,85 L327,83 L325,82 L322,83 L321,85 L322,88 L325,89 L327,88 L328,85 z" fill-rule="evenodd" vector-effect="none"/></g><defs><clipPath id="clip153"><path d="M-430,-184 L440,-184 L440,492 L-430,492 L-430,-184 z"/></clipPath></defs><g clip-path="url(#clip153)" fill="#000000" fill-opacity="1" opacity="1" stroke="#000000" stroke-linecap="butt" stroke-linejoin="miter" stroke-miterlimit="2" stroke-opacity="1" stroke-width="0.92" transform="matrix(0.212296,0,0,0.212296,98.913,41.3043)"><text fill="#000000" fill-opacity="1" font-family="Liberation Sans" font-size="40" font-style="normal" font-weight="400" stroke="none" textLength="90" x="-58.3125" xml:space="preserve" y="17.9219">Body</text></g><defs><clipPath id="clip156"><path d="M-430,-236 L440,-236 L440,440 L-430,440 L-430,-236 z"/></clipPath></defs><g clip-path="url(#clip156)" fill="#000000" fill-opacity="1" opacity="1" stroke="#000000" stroke-linecap="butt" stroke-linejoin="miter" stroke-miterlimit="2" stroke-opacity="1" stroke-width="0.92" transform="matrix(0.212296,0,0,0.212296,98.913,52.1739)"><text fill="#000000" fill-opacity="1" font-family="Liberation Sans" font-size="40" font-style="normal" font-weight="400" stroke="none" textLength="273" x="-177.25" xml:space="preserve" y="17.9219">Simple Variable</text></g><defs><clipPath id="clip159"><path d="M-430,-497 L440,-497 L440,179 L-430,179 L-430,-497 z"/></clipPath></defs><g clip-path="url(#clip159)" fill="#000000" fill-opacity="1" opacity="1" stroke="#000000" stroke-linecap="butt" stroke-linejoin="miter" stroke-miterlimit="2" stroke-opacity="1" stroke-width="0.92" transform="matrix(0.212296,0,0,0.212296,98.913,107.609)"><text fill="#000000" fill-opacity="1" font-family="Liberation Sans" font-size="40" font-style="normal" font-weight="400" stroke="none" textLength="93" x="-61.125" xml:space="preserve" y="17.9219">Mass</text></g><defs><clipPath id="clip165"><path d="M-7,-2 L177,-2 L177,134 L-7,134 L-7,-2 z"/></clipPath></defs><g clip-path="url(#clip165)" fill="none" opacity="1" stroke="#000000" stroke-linecap="butt" stroke-linejoin="miter" stroke-miterlimit="2" stroke-opacity="1" stroke-width="0.967197" transform="matrix(1.08696,0,0,1.08696,7.6087,2.17391)"><path d="M0,0 L170,0 L170,132 L0,132 L0,0 z" fill-rule="evenodd" vector-effect="none"/></g></g></svg>
