<?xml version="1.0" encoding="UTF-8"?><svg width="52.9167mm" height="51.3292mm" viewBox="0 0 200 194" xmlns="http://www.w3.org/2000/svg" xmlns:xlink="http://www.w3.org/1999/xlink"><g fill="none" stroke="black" stroke-width="1" fill-rule="evenodd" stroke-linecap="square" stroke-linejoin="bevel"><g clip-path="none" fill="none" opacity="1" stroke="none" stroke-opacity="0" transform="matrix(1,0,0,1,0,0)"><path d="M0,0 L200,0 L200,194 L0,194 L0,0 z" fill-rule="evenodd" vector-effect="none"/></g><defs><clipPath id="clip3"><path d="M-207,-194 L7,-194 L7,14 L-207,14 L-207,-194 z"/></clipPath></defs><g clip-path="url(#clip3)" fill="none" opacity="1" stroke="#000000" stroke-linecap="round" stroke-linejoin="miter" stroke-miterlimit="2" stroke-opacity="1" stroke-width="2" transform="matrix(0.934579,0,0,0.934579,193.458,181.308)"><path d="M0,-5 L5,0 L0,5" fill-rule="evenodd" vector-effect="none"/></g><defs><clipPath id="clip6"><path d="M-207,-174 L7,-174 L7,34 L-207,34 L-207,-174 z"/></clipPath></defs><g clip-path="url(#clip6)" fill="none" opacity="1" stroke="#000000" stroke-linecap="round" stroke-linejoin="miter" stroke-miterlimit="2" stroke-opacity="1" stroke-width="2" transform="matrix(0.934579,0,0,0.934579,193.458,162.617)"><path d="M0,-5 L5,0 L0,5" fill-rule="evenodd" vector-effect="none"/></g><defs><clipPath id="clip9"><path d="M-207,-134 L7,-134 L7,74 L-207,74 L-207,-134 z"/></clipPath></defs><g clip-path="url(#clip9)" fill="none" opacity="1" stroke="#000000" stroke-linecap="round" stroke-linejoin="miter" stroke-miterlimit="2" stroke-opacity="1" stroke-width="2" transform="matrix(0.934579,0,0,0.934579,193.458,125.234)"><path d="M0,-5 L5,0 L0,5" fill-rule="evenodd" vector-effect="none"/></g><defs><clipPath id="clip12"><path d="M-207,-114 L7,-114 L7,94 L-207,94 L-207,-114 z"/></clipPath></defs><g clip-path="url(#clip12)" fill="none" opacity="1" stroke="#000000" stroke-linecap="round" stroke-linejoin="miter" stroke-miterlimit="2" stroke-opacity="1" stroke-width="2" transform="matrix(0.934579,0,0,0.934579,193.458,106.542)"><path d="M0,-5 L5,0 L0,5" fill-rule="evenodd" vector-effect="none"/></g><defs><clipPath id="clip15"><path d="M-207,-94 L7,-94 L7,114 L-207,114 L-207,-94 z"/></clipPath></defs><g clip-path="url(#clip15)" fill="none" opacity="1" stroke="#000000" stroke-linecap="round" stroke-linejoin="miter" stroke-miterlimit="2" stroke-opacity="1" stroke-width="2" transform="matrix(0.934579,0,0,0.934579,193.458,87.8505)"><path d="M0,-5 L5,0 L0,5" fill-rule="evenodd" vector-effect="none"/></g><defs><clipPath id="clip18"><path d="M-207,-154 L7,-154 L7,54 L-207,54 L-207,-154 z"/></clipPath></defs><g clip-path="url(#clip18)" fill="none" opacity="1" stroke="#000000" stroke-linecap="round" stroke-linejoin="miter" stroke-miterlimit="2" stroke-opacity="1" stroke-width="2" transform="matrix(0.934579,0,0,0.934579,193.458,143.925)"><path d="M0,-5 L5,0 L0,5" fill-rule="evenodd" vector-effect="none"/></g><defs><clipPath id="clip21"><path d="M-207,-54 L7,-54 L7,154 L-207,154 L-207,-54 z"/></clipPath></defs><g clip-path="url(#clip21)" fill="none" opacity="1" stroke="#000000" stroke-linecap="round" stroke-linejoin="miter" stroke-miterlimit="2" stroke-opacity="1" stroke-width="2" transform="matrix(0.934579,0,0,0.934579,193.458,50.4673)"><path d="M0,-5 L5,0 L0,5" fill-rule="evenodd" vector-effect="none"/></g><defs><clipPath id="clip24"><path d="M-207,-34 L7,-34 L7,174 L-207,174 L-207,-34 z"/></clipPath></defs><g clip-path="url(#clip24)" fill="none" opacity="1" stroke="#000000" stroke-linecap="round" stroke-linejoin="miter" stroke-miterlimit="2" stroke-opacity="1" stroke-width="2" transform="matrix(0.934579,0,0,0.934579,193.458,31.7757)"><path d="M0,-5 L5,0 L0,5" fill-rule="evenodd" vector-effect="none"/></g><defs><clipPath id="clip27"><path d="M-207,-14 L7,-14 L7,194 L-207,194 L-207,-14 z"/></clipPath></defs><g clip-path="url(#clip27)" fill="none" opacity="1" stroke="#000000" stroke-linecap="round" stroke-linejoin="miter" stroke-miterlimit="2" stroke-opacity="1" stroke-width="2" transform="matrix(0.934579,0,0,0.934579,193.458,13.0841)"><path d="M0,-5 L5,0 L0,5" fill-rule="evenodd" vector-effect="none"/></g><defs><clipPath id="clip30"><path d="M7,54 L-207,54 L-207,-154 L7,-154 L7,54 z"/></clipPath></defs><g clip-path="url(#clip30)" fill="none" opacity="1" stroke="#000000" stroke-linecap="round" stroke-linejoin="miter" stroke-miterlimit="2" stroke-opacity="1" stroke-width="2" transform="matrix(-0.934579,0,0,-0.934579,6.54206,50.4673)"><path d="M5,-5 L0,0 L5,5" fill-rule="evenodd" vector-effect="none"/></g><defs><clipPath id="clip33"><path d="M7,154 L-207,154 L-207,-54 L7,-54 L7,154 z"/></clipPath></defs><g clip-path="url(#clip33)" fill="none" opacity="1" stroke="#000000" stroke-linecap="round" stroke-linejoin="miter" stroke-miterlimit="2" stroke-opacity="1" stroke-width="2" transform="matrix(-0.934579,0,0,-0.934579,6.54206,143.925)"><path d="M5,-5 L0,0 L5,5" fill-rule="evenodd" vector-effect="none"/></g><defs><clipPath id="clip36"><path d="M-207,-74 L7,-74 L7,134 L-207,134 L-207,-74 z"/></clipPath></defs><g clip-path="url(#clip36)" fill="none" opacity="1" stroke="#000000" stroke-linecap="round" stroke-linejoin="miter" stroke-miterlimit="2" stroke-opacity="1" stroke-width="2" transform="matrix(0.934579,0,0,0.934579,193.458,69.1589)"><path d="M0,-5 L5,0 L0,5" fill-rule="evenodd" vector-effect="none"/></g><defs><clipPath id="clip39"><path d="M-7,-2 L207,-2 L207,206 L-7,206 L-7,-2 z"/></clipPath></defs><g clip-path="url(#clip39)" fill="#ffffff" fill-opacity="1" opacity="1" stroke="none" stroke-opacity="0" transform="matrix(0.934579,0,0,0.934579,6.54206,1.86916)"><path d="M0,0 L200,0 L200,204 L0,204 L0,0 z" fill-rule="evenodd" vector-effect="none"/></g><defs><clipPath id="clip44"><path d="M-15,-271 L1009,-271 L1009,773 L-15,773 L-15,-271 z"/></clipPath></defs><g clip-path="url(#clip44)" fill="none" opacity="1" stroke="#000000" stroke-linecap="butt" stroke-linejoin="miter" stroke-miterlimit="2" stroke-opacity="1" stroke-width="1.07" transform="matrix(0.182535,0,0,0.182535,9.34579,51.4019)"><text fill="#000000" fill-opacity="1" font-family="Liberation Sans" font-size="40" font-style="normal" font-weight="400" stroke="none" textLength="24" x="0" xml:space="preserve" y="1.28125">F</text></g><defs><clipPath id="clip47"><path d="M-46,-297 L978,-297 L978,747 L-46,747 L-46,-297 z"/></clipPath></defs><g clip-path="url(#clip47)" fill="none" opacity="1" stroke="#000000" stroke-linecap="butt" stroke-linejoin="miter" stroke-miterlimit="2" stroke-opacity="1" stroke-width="1.07" transform="matrix(0.182535,0,0,0.182535,14.9533,56.0748)"><text fill="#000000" fill-opacity="1" font-family="Liberation Sans" font-size="32" font-style="normal" font-weight="400" stroke="none" textLength="44" x="0" xml:space="preserve" y="1.28125">xyz</text></g><defs><clipPath id="clip50"><path d="M-97,-271 L927,-271 L927,773 L-97,773 L-97,-271 z"/></clipPath></defs><g clip-path="url(#clip50)" fill="none" opacity="1" stroke="#000000" stroke-linecap="butt" stroke-linejoin="miter" stroke-miterlimit="2" stroke-opacity="1" stroke-width="1.07" transform="matrix(0.182535,0,0,0.182535,24.2991,51.4019)"><text fill="#000000" fill-opacity="1" font-family="Liberation Sans" font-size="40" font-style="normal" font-weight="400" stroke="none" textLength="66" x="0" xml:space="preserve" y="1.28125"> (N)</text></g><defs><clipPath id="clip53"><path d="M-15,-783 L1009,-783 L1009,261 L-15,261 L-15,-783 z"/></clipPath></defs><g clip-path="url(#clip53)" fill="none" opacity="1" stroke="#000000" stroke-linecap="butt" stroke-linejoin="miter" stroke-miterlimit="2" stroke-opacity="1" stroke-width="1.07" transform="matrix(0.182535,0,0,0.182535,9.34579,144.86)"><text fill="#000000" fill-opacity="1" font-family="Liberation Sans" font-size="40" font-style="normal" font-weight="400" stroke="none" textLength="33" x="0" xml:space="preserve" y="1.28125">M</text></g><defs><clipPath id="clip56"><path d="M-61,-809 L963,-809 L963,235 L-61,235 L-61,-809 z"/></clipPath></defs><g clip-path="url(#clip56)" fill="none" opacity="1" stroke="#000000" stroke-linecap="butt" stroke-linejoin="miter" stroke-miterlimit="2" stroke-opacity="1" stroke-width="1.07" transform="matrix(0.182535,0,0,0.182535,17.757,149.533)"><text fill="#000000" fill-opacity="1" font-family="Liberation Sans" font-size="32" font-style="normal" font-weight="400" stroke="none" textLength="44" x="0" xml:space="preserve" y="1.28125">xyz</text></g><defs><clipPath id="clip59"><path d="M-113,-783 L911,-783 L911,261 L-113,261 L-113,-783 z"/></clipPath></defs><g clip-path="url(#clip59)" fill="none" opacity="1" stroke="#000000" stroke-linecap="butt" stroke-linejoin="miter" stroke-miterlimit="2" stroke-opacity="1" stroke-width="1.07" transform="matrix(0.182535,0,0,0.182535,27.1028,144.86)"><text fill="#000000" fill-opacity="1" font-family="Liberation Sans" font-size="40" font-style="normal" font-weight="400" stroke="none" textLength="113" x="0" xml:space="preserve" y="1.28125"> (N-m)</text></g><defs><clipPath id="clip62"><path d="M-824,-67 L200,-67 L200,977 L-824,977 L-824,-67 z"/></clipPath></defs><g clip-path="url(#clip62)" fill="none" opacity="1" stroke="#000000" stroke-linecap="butt" stroke-linejoin="miter" stroke-miterlimit="2" stroke-opacity="1" stroke-width="1.07" transform="matrix(0.182535,0,0,0.182535,157.009,14.0187)"><text fill="#000000" fill-opacity="1" font-family="Liberation Sans" font-size="40" font-style="normal" font-weight="400" stroke="none" textLength="27" x="0" xml:space="preserve" y="1.28125">V</text></g><defs><clipPath id="clip65"><path d="M-860,-92 L164,-92 L164,952 L-860,952 L-860,-92 z"/></clipPath></defs><g clip-path="url(#clip65)" fill="none" opacity="1" stroke="#000000" stroke-linecap="butt" stroke-linejoin="miter" stroke-miterlimit="2" stroke-opacity="1" stroke-width="1.07" transform="matrix(0.182535,0,0,0.182535,163.551,18.6916)"><text fill="#000000" fill-opacity="1" font-family="Liberation Sans" font-size="32" font-style="normal" font-weight="400" stroke="none" textLength="17" x="0" xml:space="preserve" y="1.28125">e</text></g><defs><clipPath id="clip68"><path d="M-881,-67 L143,-67 L143,977 L-881,977 L-881,-67 z"/></clipPath></defs><g clip-path="url(#clip68)" fill="none" opacity="1" stroke="#000000" stroke-linecap="butt" stroke-linejoin="miter" stroke-miterlimit="2" stroke-opacity="1" stroke-width="1.07" transform="matrix(0.182535,0,0,0.182535,167.29,14.0187)"><text fill="#000000" fill-opacity="1" font-family="Liberation Sans" font-size="40" font-style="normal" font-weight="400" stroke="none" textLength="101" x="0" xml:space="preserve" y="1.28125"> (m/s)</text></g><defs><clipPath id="clip71"><path d="M-860,-169 L164,-169 L164,875 L-860,875 L-860,-169 z"/></clipPath></defs><g clip-path="url(#clip71)" fill="none" opacity="1" stroke="#000000" stroke-linecap="butt" stroke-linejoin="miter" stroke-miterlimit="2" stroke-opacity="1" stroke-width="1.07" transform="matrix(0.182535,0,0,0.182535,163.551,32.7103)"><text fill="#000000" fill-opacity="1" font-family="Liberation Sans" font-size="40" font-style="normal" font-weight="400" stroke="none" textLength="27" x="0" xml:space="preserve" y="1.28125">X</text></g><defs><clipPath id="clip74"><path d="M-896,-195 L128,-195 L128,849 L-896,849 L-896,-195 z"/></clipPath></defs><g clip-path="url(#clip74)" fill="none" opacity="1" stroke="#000000" stroke-linecap="butt" stroke-linejoin="miter" stroke-miterlimit="2" stroke-opacity="1" stroke-width="1.07" transform="matrix(0.182535,0,0,0.182535,170.093,37.3832)"><text fill="#000000" fill-opacity="1" font-family="Liberation Sans" font-size="32" font-style="normal" font-weight="400" stroke="none" textLength="17" x="0" xml:space="preserve" y="1.28125">e</text></g><defs><clipPath id="clip77"><path d="M-916,-169 L108,-169 L108,875 L-916,875 L-916,-169 z"/></clipPath></defs><g clip-path="url(#clip77)" fill="none" opacity="1" stroke="#000000" stroke-linecap="butt" stroke-linejoin="miter" stroke-miterlimit="2" stroke-opacity="1" stroke-width="1.07" transform="matrix(0.182535,0,0,0.182535,173.832,32.7103)"><text fill="#000000" fill-opacity="1" font-family="Liberation Sans" font-size="40" font-style="normal" font-weight="400" stroke="none" textLength="71" x="0" xml:space="preserve" y="1.28125"> (m)</text></g><defs><clipPath id="clip80"><path d="M-773,-287 L251,-287 L251,757 L-773,757 L-773,-287 z"/></clipPath></defs><g clip-path="url(#clip80)" fill="none" opacity="1" stroke="#000000" stroke-linecap="butt" stroke-linejoin="miter" stroke-miterlimit="2" stroke-opacity="1" stroke-width="1.07" transform="matrix(0.182535,0,0,0.182535,147.664,54.2056)"><text fill="#000000" fill-opacity="1" font-family="Liberation Sans" font-size="40" font-style="normal" font-weight="400" stroke="none" textLength="110" x="0" xml:space="preserve" y="1.28125">μ γ χ (</text></g><defs><clipPath id="clip82"><path d="M-773,-287 L251,-287 L251,757 L-773,757 L-773,-287 z"/></clipPath></defs><g clip-path="url(#clip82)" fill="none" opacity="1" stroke="#000000" stroke-linecap="butt" stroke-linejoin="miter" stroke-miterlimit="2" stroke-opacity="1" stroke-width="1.07" transform="matrix(0.182535,0,0,0.182535,147.664,54.2056)"><text fill="#000000" fill-opacity="1" font-family="Liberation Sans" font-size="40" font-style="normal" font-weight="400" stroke="none" textLength="70" x="141.656" xml:space="preserve" y="1.28125">rad)</text></g><defs><clipPath id="clip85"><path d="M-829,-374 L195,-374 L195,670 L-829,670 L-829,-374 z"/></clipPath></defs><g clip-path="url(#clip85)" fill="none" opacity="1" stroke="#000000" stroke-linecap="butt" stroke-linejoin="miter" stroke-miterlimit="2" stroke-opacity="1" stroke-width="1.07" transform="matrix(0.182535,0,0,0.182535,157.944,70.0935)"><text fill="#000000" fill-opacity="1" font-family="Liberation Sans" font-size="40" font-style="normal" font-weight="400" stroke="none" textLength="91" x="0" xml:space="preserve" y="1.28125">DCM</text></g><defs><clipPath id="clip88"><path d="M-947,-399 L77,-399 L77,645 L-947,645 L-947,-399 z"/></clipPath></defs><g clip-path="url(#clip88)" fill="none" opacity="1" stroke="#000000" stroke-linecap="butt" stroke-linejoin="miter" stroke-miterlimit="2" stroke-opacity="1" stroke-width="1.07" transform="matrix(0.182535,0,0,0.182535,179.439,74.7664)"><text fill="#000000" fill-opacity="1" font-family="Liberation Sans" font-size="32" font-style="normal" font-weight="400" stroke="none" textLength="40" x="0" xml:space="preserve" y="1.28125">we</text></g><defs><clipPath id="clip94"><path d="M-819,-476 L205,-476 L205,568 L-819,568 L-819,-476 z"/></clipPath></defs><g clip-path="url(#clip94)" fill="none" opacity="1" stroke="#000000" stroke-linecap="butt" stroke-linejoin="miter" stroke-miterlimit="2" stroke-opacity="1" stroke-width="1.07" transform="matrix(0.182535,0,0,0.182535,156.075,88.785)"><text fill="#000000" fill-opacity="1" font-family="Liberation Sans" font-size="40" font-style="normal" font-weight="400" stroke="none" textLength="27" x="0" xml:space="preserve" y="1.28125">V</text></g><defs><clipPath id="clip97"><path d="M-855,-502 L169,-502 L169,542 L-855,542 L-855,-502 z"/></clipPath></defs><g clip-path="url(#clip97)" fill="none" opacity="1" stroke="#000000" stroke-linecap="butt" stroke-linejoin="miter" stroke-miterlimit="2" stroke-opacity="1" stroke-width="1.07" transform="matrix(0.182535,0,0,0.182535,162.617,93.4579)"><text fill="#000000" fill-opacity="1" font-family="Liberation Sans" font-size="32" font-style="normal" font-weight="400" stroke="none" textLength="23" x="0" xml:space="preserve" y="1.28125">w</text></g><defs><clipPath id="clip100"><path d="M-881,-476 L143,-476 L143,568 L-881,568 L-881,-476 z"/></clipPath></defs><g clip-path="url(#clip100)" fill="none" opacity="1" stroke="#000000" stroke-linecap="butt" stroke-linejoin="miter" stroke-miterlimit="2" stroke-opacity="1" stroke-width="1.07" transform="matrix(0.182535,0,0,0.182535,167.29,88.785)"><text fill="#000000" fill-opacity="1" font-family="Liberation Sans" font-size="40" font-style="normal" font-weight="400" stroke="none" textLength="101" x="0" xml:space="preserve" y="1.28125"> (m/s)</text></g><defs><clipPath id="clip103"><path d="M-814,-594 L210,-594 L210,450 L-814,450 L-814,-594 z"/></clipPath></defs><g clip-path="url(#clip103)" fill="none" opacity="1" stroke="#000000" stroke-linecap="butt" stroke-linejoin="miter" stroke-miterlimit="2" stroke-opacity="1" stroke-width="1.07" transform="matrix(0.182535,0,0,0.182535,155.14,110.28)"><text fill="#000000" fill-opacity="1" font-family="Liberation Sans" font-size="40" font-style="normal" font-weight="400" stroke="none" textLength="81" x="0" xml:space="preserve" y="1.28125">α β (</text></g><defs><clipPath id="clip105"><path d="M-814,-594 L210,-594 L210,450 L-814,450 L-814,-594 z"/></clipPath></defs><g clip-path="url(#clip105)" fill="none" opacity="1" stroke="#000000" stroke-linecap="butt" stroke-linejoin="miter" stroke-miterlimit="2" stroke-opacity="1" stroke-width="1.07" transform="matrix(0.182535,0,0,0.182535,155.14,110.28)"><text fill="#000000" fill-opacity="1" font-family="Liberation Sans" font-size="40" font-style="normal" font-weight="400" stroke="none" textLength="70" x="104.516" xml:space="preserve" y="1.28125">rad)</text></g><defs><clipPath id="clip108"><path d="M-753,-696 L271,-696 L271,348 L-753,348 L-753,-696 z"/></clipPath></defs><g clip-path="url(#clip108)" fill="none" opacity="1" stroke="#000000" stroke-linecap="butt" stroke-linejoin="miter" stroke-miterlimit="2" stroke-opacity="1" stroke-width="1.07" transform="matrix(0.182535,0,0,0.182535,143.925,128.972)"><text fill="#000000" fill-opacity="1" font-family="Liberation Sans" font-size="40" font-style="normal" font-weight="400" stroke="none" textLength="22" x="0" xml:space="preserve" y="1.28125">d</text></g><defs><clipPath id="clip110"><path d="M-753,-696 L271,-696 L271,348 L-753,348 L-753,-696 z"/></clipPath></defs><g clip-path="url(#clip110)" fill="none" opacity="1" stroke="#000000" stroke-linecap="butt" stroke-linejoin="miter" stroke-miterlimit="2" stroke-opacity="1" stroke-width="1.07" transform="matrix(0.182535,0,0,0.182535,143.925,128.972)"><text fill="#000000" fill-opacity="1" font-family="Liberation Sans" font-size="40" font-style="normal" font-weight="400" stroke="none" textLength="34" x="28.4531" xml:space="preserve" y="1.28125">α/</text></g><defs><clipPath id="clip112"><path d="M-753,-696 L271,-696 L271,348 L-753,348 L-753,-696 z"/></clipPath></defs><g clip-path="url(#clip112)" fill="none" opacity="1" stroke="#000000" stroke-linecap="butt" stroke-linejoin="miter" stroke-miterlimit="2" stroke-opacity="1" stroke-width="1.07" transform="matrix(0.182535,0,0,0.182535,143.925,128.972)"><text fill="#000000" fill-opacity="1" font-family="Liberation Sans" font-size="40" font-style="normal" font-weight="400" stroke="none" textLength="66" x="72.2656" xml:space="preserve" y="1.28125">dt d</text></g><defs><clipPath id="clip114"><path d="M-753,-696 L271,-696 L271,348 L-753,348 L-753,-696 z"/></clipPath></defs><g clip-path="url(#clip114)" fill="none" opacity="1" stroke="#000000" stroke-linecap="butt" stroke-linejoin="miter" stroke-miterlimit="2" stroke-opacity="1" stroke-width="1.07" transform="matrix(0.182535,0,0,0.182535,143.925,128.972)"><text fill="#000000" fill-opacity="1" font-family="Liberation Sans" font-size="40" font-style="normal" font-weight="400" stroke="none" textLength="34" x="157.625" xml:space="preserve" y="1.28125">β/</text></g><defs><clipPath id="clip116"><path d="M-753,-696 L271,-696 L271,348 L-753,348 L-753,-696 z"/></clipPath></defs><g clip-path="url(#clip116)" fill="none" opacity="1" stroke="#000000" stroke-linecap="butt" stroke-linejoin="miter" stroke-miterlimit="2" stroke-opacity="1" stroke-width="1.07" transform="matrix(0.182535,0,0,0.182535,143.925,128.972)"><text fill="#000000" fill-opacity="1" font-family="Liberation Sans" font-size="40" font-style="normal" font-weight="400" stroke="none" textLength="33" x="201.297" xml:space="preserve" y="1.28125">dt</text></g><defs><clipPath id="clip119"><path d="M-788,-783 L236,-783 L236,261 L-788,261 L-788,-783 z"/></clipPath></defs><g clip-path="url(#clip119)" fill="none" opacity="1" stroke="#000000" stroke-linecap="butt" stroke-linejoin="miter" stroke-miterlimit="2" stroke-opacity="1" stroke-width="1.07" transform="matrix(0.182535,0,0,0.182535,150.467,144.86)"><text fill="#000000" fill-opacity="1" font-family="Liberation Sans" font-size="40" font-style="normal" font-weight="400" stroke="none" textLength="31" x="0" xml:space="preserve" y="1.28125">ω</text></g><defs><clipPath id="clip122"><path d="M-829,-809 L195,-809 L195,235 L-829,235 L-829,-809 z"/></clipPath></defs><g clip-path="url(#clip122)" fill="none" opacity="1" stroke="#000000" stroke-linecap="butt" stroke-linejoin="miter" stroke-miterlimit="2" stroke-opacity="1" stroke-width="1.07" transform="matrix(0.182535,0,0,0.182535,157.944,149.533)"><text fill="#000000" fill-opacity="1" font-family="Liberation Sans" font-size="32" font-style="normal" font-weight="400" stroke="none" textLength="17" x="0" xml:space="preserve" y="1.28125">b</text></g><defs><clipPath id="clip125"><path d="M-850,-783 L174,-783 L174,261 L-850,261 L-850,-783 z"/></clipPath></defs><g clip-path="url(#clip125)" fill="none" opacity="1" stroke="#000000" stroke-linecap="butt" stroke-linejoin="miter" stroke-miterlimit="2" stroke-opacity="1" stroke-width="1.07" transform="matrix(0.182535,0,0,0.182535,161.682,144.86)"><text fill="#000000" fill-opacity="1" font-family="Liberation Sans" font-size="40" font-style="normal" font-weight="400" stroke="none" textLength="124" x="0" xml:space="preserve" y="1.28125"> (rad/s)</text></g><defs><clipPath id="clip128"><path d="M-855,-886 L169,-886 L169,158 L-855,158 L-855,-886 z"/></clipPath></defs><g clip-path="url(#clip128)" fill="none" opacity="1" stroke="#000000" stroke-linecap="butt" stroke-linejoin="miter" stroke-miterlimit="2" stroke-opacity="1" stroke-width="1.07" transform="matrix(0.182535,0,0,0.182535,162.617,163.551)"><text fill="#000000" fill-opacity="1" font-family="Liberation Sans" font-size="40" font-style="normal" font-weight="400" stroke="none" textLength="22" x="0" xml:space="preserve" y="1.28125">d</text></g><defs><clipPath id="clip130"><path d="M-855,-886 L169,-886 L169,158 L-855,158 L-855,-886 z"/></clipPath></defs><g clip-path="url(#clip130)" fill="none" opacity="1" stroke="#000000" stroke-linecap="butt" stroke-linejoin="miter" stroke-miterlimit="2" stroke-opacity="1" stroke-width="1.07" transform="matrix(0.182535,0,0,0.182535,162.617,163.551)"><text fill="#000000" fill-opacity="1" font-family="Liberation Sans" font-size="40" font-style="normal" font-weight="400" stroke="none" textLength="31" x="28.4531" xml:space="preserve" y="1.28125">ω</text></g><defs><clipPath id="clip133"><path d="M-927,-911 L97,-911 L97,133 L-927,133 L-927,-911 z"/></clipPath></defs><g clip-path="url(#clip133)" fill="none" opacity="1" stroke="#000000" stroke-linecap="butt" stroke-linejoin="miter" stroke-miterlimit="2" stroke-opacity="1" stroke-width="1.07" transform="matrix(0.182535,0,0,0.182535,175.701,168.224)"><text fill="#000000" fill-opacity="1" font-family="Liberation Sans" font-size="32" font-style="normal" font-weight="400" stroke="none" textLength="17" x="0" xml:space="preserve" y="1.28125">b</text></g><defs><clipPath id="clip136"><path d="M-947,-886 L77,-886 L77,158 L-947,158 L-947,-886 z"/></clipPath></defs><g clip-path="url(#clip136)" fill="none" opacity="1" stroke="#000000" stroke-linecap="butt" stroke-linejoin="miter" stroke-miterlimit="2" stroke-opacity="1" stroke-width="1.07" transform="matrix(0.182535,0,0,0.182535,179.439,163.551)"><text fill="#000000" fill-opacity="1" font-family="Liberation Sans" font-size="40" font-style="normal" font-weight="400" stroke="none" textLength="44" x="0" xml:space="preserve" y="1.28125">/dt</text></g><defs><clipPath id="clip139"><path d="M-804,-998 L220,-998 L220,46 L-804,46 L-804,-998 z"/></clipPath></defs><g clip-path="url(#clip139)" fill="none" opacity="1" stroke="#000000" stroke-linecap="butt" stroke-linejoin="miter" stroke-miterlimit="2" stroke-opacity="1" stroke-width="1.07" transform="matrix(0.182535,0,0,0.182535,153.271,184.112)"><text fill="#000000" fill-opacity="1" font-family="Liberation Sans" font-size="40" font-style="normal" font-weight="400" stroke="none" textLength="27" x="0" xml:space="preserve" y="1.28125">A</text></g><defs><clipPath id="clip142"><path d="M-840,-1024 L184,-1024 L184,20 L-840,20 L-840,-1024 z"/></clipPath></defs><g clip-path="url(#clip142)" fill="none" opacity="1" stroke="#000000" stroke-linecap="butt" stroke-linejoin="miter" stroke-miterlimit="2" stroke-opacity="1" stroke-width="1.07" transform="matrix(0.182535,0,0,0.182535,159.813,188.785)"><text fill="#000000" fill-opacity="1" font-family="Liberation Sans" font-size="32" font-style="normal" font-weight="400" stroke="none" textLength="17" x="0" xml:space="preserve" y="1.28125">b</text></g><defs><clipPath id="clip145"><path d="M-860,-998 L164,-998 L164,46 L-860,46 L-860,-998 z"/></clipPath></defs><g clip-path="url(#clip145)" fill="none" opacity="1" stroke="#000000" stroke-linecap="butt" stroke-linejoin="miter" stroke-miterlimit="2" stroke-opacity="1" stroke-width="1.07" transform="matrix(0.182535,0,0,0.182535,163.551,184.112)"><text fill="#000000" fill-opacity="1" font-family="Liberation Sans" font-size="40" font-style="normal" font-weight="400" stroke="none" textLength="88" x="0" xml:space="preserve" y="1.28125"> (m/s</text></g><defs><clipPath id="clip148"><path d="M-973,-973 L51,-973 L51,71 L-973,71 L-973,-973 z"/></clipPath></defs><g clip-path="url(#clip148)" fill="none" opacity="1" stroke="#000000" stroke-linecap="butt" stroke-linejoin="miter" stroke-miterlimit="2" stroke-opacity="1" stroke-width="1.07" transform="matrix(0.182535,0,0,0.182535,184.112,179.439)"><text fill="#000000" fill-opacity="1" font-family="Liberation Sans" font-size="32" font-style="normal" font-weight="400" stroke="none" textLength="18" x="0" xml:space="preserve" y="1.28125">2</text></g><defs><clipPath id="clip151"><path d="M-993,-998 L31,-998 L31,46 L-993,46 L-993,-998 z"/></clipPath></defs><g clip-path="url(#clip151)" fill="none" opacity="1" stroke="#000000" stroke-linecap="butt" stroke-linejoin="miter" stroke-miterlimit="2" stroke-opacity="1" stroke-width="1.07" transform="matrix(0.182535,0,0,0.182535,187.85,184.112)"><text fill="#000000" fill-opacity="1" font-family="Liberation Sans" font-size="40" font-style="normal" font-weight="400" stroke="none" textLength="13" x="0" xml:space="preserve" y="1.28125">)</text></g><defs><clipPath id="clip154"><path d="M-507,-266 L517,-266 L517,778 L-507,778 L-507,-266 z"/></clipPath></defs><g clip-path="url(#clip154)" fill="none" opacity="1" stroke="#000000" stroke-linecap="butt" stroke-linejoin="miter" stroke-miterlimit="2" stroke-opacity="1" stroke-width="1.07" transform="matrix(0.182535,0,0,0.182535,99.0654,50.4673)"><text fill="#000000" fill-opacity="1" font-family="Liberation Sans" font-size="40" font-style="normal" font-weight="400" stroke="none" textLength="91" x="-58.2969" xml:space="preserve" y="17.9219">Wind</text></g><defs><clipPath id="clip157"><path d="M-507,-317 L517,-317 L517,727 L-507,727 L-507,-317 z"/></clipPath></defs><g clip-path="url(#clip157)" fill="none" opacity="1" stroke="#000000" stroke-linecap="butt" stroke-linejoin="miter" stroke-miterlimit="2" stroke-opacity="1" stroke-width="1.07" transform="matrix(0.182535,0,0,0.182535,99.0654,59.8131)"><text fill="#000000" fill-opacity="1" font-family="Liberation Sans" font-size="40" font-style="normal" font-weight="400" stroke="none" textLength="192" x="-126.594" xml:space="preserve" y="17.9219">Quaternion</text></g><defs><clipPath id="clip160"><path d="M-507,-696 L517,-696 L517,348 L-507,348 L-507,-696 z"/></clipPath></defs><g clip-path="url(#clip160)" fill="none" opacity="1" stroke="#000000" stroke-linecap="butt" stroke-linejoin="miter" stroke-miterlimit="2" stroke-opacity="1" stroke-width="1.07" transform="matrix(0.182535,0,0,0.182535,99.0654,128.972)"><text fill="#000000" fill-opacity="1" font-family="Liberation Sans" font-size="40" font-style="normal" font-weight="400" stroke="none" textLength="94" x="-62.5469" xml:space="preserve" y="17.9219">Fixed</text></g><defs><clipPath id="clip163"><path d="M-507,-748 L517,-748 L517,296 L-507,296 L-507,-748 z"/></clipPath></defs><g clip-path="url(#clip163)" fill="none" opacity="1" stroke="#000000" stroke-linecap="butt" stroke-linejoin="miter" stroke-miterlimit="2" stroke-opacity="1" stroke-width="1.07" transform="matrix(0.182535,0,0,0.182535,99.0654,138.318)"><text fill="#000000" fill-opacity="1" font-family="Liberation Sans" font-size="40" font-style="normal" font-weight="400" stroke="none" textLength="93" x="-61.125" xml:space="preserve" y="17.9219">Mass</text></g><defs><clipPath id="clip165"><path d="M680,28 L880,28 L880,232 L680,232 L680,28 z"/></clipPath></defs><g clip-path="url(#clip165)" fill="none" opacity="1" stroke="#000000" stroke-linecap="butt" stroke-linejoin="miter" stroke-miterlimit="2" stroke-opacity="1" stroke-width="1.07" transform="matrix(0.934579,0,0,0.934579,-628.505,-23.8318)"><polyline fill="none" points="745,141 746,135" vector-effect="none"/></g><defs><clipPath id="clip166"><path d="M680,28 L880,28 L880,232 L680,232 L680,28 z"/></clipPath></defs><g clip-path="url(#clip166)" fill="none" opacity="1" stroke="#000000" stroke-linecap="butt" stroke-linejoin="miter" stroke-miterlimit="2" stroke-opacity="1" stroke-width="1.07" transform="matrix(0.934579,0,0,0.934579,-628.505,-23.8318)"><polyline fill="none" points="746,135 751,140" vector-effect="none"/></g><defs><clipPath id="clip167"><path d="M680,28 L880,28 L880,232 L680,232 L680,28 z"/></clipPath></defs><g clip-path="url(#clip167)" fill="none" opacity="1" stroke="#000000" stroke-linecap="butt" stroke-linejoin="miter" stroke-miterlimit="2" stroke-opacity="1" stroke-width="1.07" transform="matrix(0.934579,0,0,0.934579,-628.505,-23.8318)"><polyline fill="none" points="751,140 745,141" vector-effect="none"/></g><defs><clipPath id="clip168"><path d="M680,28 L880,28 L880,232 L680,232 L680,28 z"/></clipPath></defs><g clip-path="url(#clip168)" fill="none" opacity="1" stroke="#000000" stroke-linecap="butt" stroke-linejoin="miter" stroke-miterlimit="2" stroke-opacity="1" stroke-width="1.07" transform="matrix(0.934579,0,0,0.934579,-628.505,-23.8318)"><polyline fill="none" points="745,141 780,106" vector-effect="none"/></g><defs><clipPath id="clip169"><path d="M680,28 L880,28 L880,232 L680,232 L680,28 z"/></clipPath></defs><g clip-path="url(#clip169)" fill="none" opacity="1" stroke="#000000" stroke-linecap="butt" stroke-linejoin="miter" stroke-miterlimit="2" stroke-opacity="1" stroke-width="1.07" transform="matrix(0.934579,0,0,0.934579,-628.505,-23.8318)"><polyline fill="none" points="780,106 780,155" vector-effect="none"/></g><defs><clipPath id="clip170"><path d="M680,28 L880,28 L880,232 L680,232 L680,28 z"/></clipPath></defs><g clip-path="url(#clip170)" fill="none" opacity="1" stroke="#000000" stroke-linecap="butt" stroke-linejoin="miter" stroke-miterlimit="2" stroke-opacity="1" stroke-width="1.07" transform="matrix(0.934579,0,0,0.934579,-628.505,-23.8318)"><polyline fill="none" points="780,155 784,150" vector-effect="none"/></g><defs><clipPath id="clip171"><path d="M680,28 L880,28 L880,232 L680,232 L680,28 z"/></clipPath></defs><g clip-path="url(#clip171)" fill="none" opacity="1" stroke="#000000" stroke-linecap="butt" stroke-linejoin="miter" stroke-miterlimit="2" stroke-opacity="1" stroke-width="1.07" transform="matrix(0.934579,0,0,0.934579,-628.505,-23.8318)"><polyline fill="none" points="784,150 776,150" vector-effect="none"/></g><defs><clipPath id="clip172"><path d="M680,28 L880,28 L880,232 L680,232 L680,28 z"/></clipPath></defs><g clip-path="url(#clip172)" fill="none" opacity="1" stroke="#000000" stroke-linecap="butt" stroke-linejoin="miter" stroke-miterlimit="2" stroke-opacity="1" stroke-width="1.07" transform="matrix(0.934579,0,0,0.934579,-628.505,-23.8318)"><polyline fill="none" points="776,150 780,155" vector-effect="none"/></g><defs><clipPath id="clip173"><path d="M680,28 L880,28 L880,232 L680,232 L680,28 z"/></clipPath></defs><g clip-path="url(#clip173)" fill="none" opacity="1" stroke="#000000" stroke-linecap="butt" stroke-linejoin="miter" stroke-miterlimit="2" stroke-opacity="1" stroke-width="1.07" transform="matrix(0.934579,0,0,0.934579,-628.505,-23.8318)"><polyline fill="none" points="780,106 829,106" vector-effect="none"/></g><defs><clipPath id="clip174"><path d="M680,28 L880,28 L880,232 L680,232 L680,28 z"/></clipPath></defs><g clip-path="url(#clip174)" fill="none" opacity="1" stroke="#000000" stroke-linecap="butt" stroke-linejoin="miter" stroke-miterlimit="2" stroke-opacity="1" stroke-width="1.07" transform="matrix(0.934579,0,0,0.934579,-628.505,-23.8318)"><polyline fill="none" points="829,106 824,110" vector-effect="none"/></g><defs><clipPath id="clip175"><path d="M680,28 L880,28 L880,232 L680,232 L680,28 z"/></clipPath></defs><g clip-path="url(#clip175)" fill="none" opacity="1" stroke="#000000" stroke-linecap="butt" stroke-linejoin="miter" stroke-miterlimit="2" stroke-opacity="1" stroke-width="1.07" transform="matrix(0.934579,0,0,0.934579,-628.505,-23.8318)"><polyline fill="none" points="824,110 824,102" vector-effect="none"/></g><defs><clipPath id="clip176"><path d="M680,28 L880,28 L880,232 L680,232 L680,28 z"/></clipPath></defs><g clip-path="url(#clip176)" fill="none" opacity="1" stroke="#000000" stroke-linecap="butt" stroke-linejoin="miter" stroke-miterlimit="2" stroke-opacity="1" stroke-width="1.07" transform="matrix(0.934579,0,0,0.934579,-628.505,-23.8318)"><polyline fill="none" points="824,102 829,106" vector-effect="none"/></g><defs><clipPath id="clip177"><path d="M680,28 L880,28 L880,232 L680,232 L680,28 z"/></clipPath></defs><g clip-path="url(#clip177)" fill="none" opacity="1" stroke="#000000" stroke-linecap="butt" stroke-linejoin="miter" stroke-miterlimit="2" stroke-opacity="1" stroke-width="1.07" transform="matrix(0.934579,0,0,0.934579,-628.505,-23.8318)"><polyline fill="none" points="775,131 772,131" vector-effect="none"/></g><defs><clipPath id="clip178"><path d="M680,28 L880,28 L880,232 L680,232 L680,28 z"/></clipPath></defs><g clip-path="url(#clip178)" fill="none" opacity="1" stroke="#000000" stroke-linecap="butt" stroke-linejoin="miter" stroke-miterlimit="2" stroke-opacity="1" stroke-width="1.07" transform="matrix(0.934579,0,0,0.934579,-628.505,-23.8318)"><polyline fill="none" points="772,131 775,133" vector-effect="none"/></g><defs><clipPath id="clip179"><path d="M680,28 L880,28 L880,232 L680,232 L680,28 z"/></clipPath></defs><g clip-path="url(#clip179)" fill="none" opacity="1" stroke="#000000" stroke-linecap="butt" stroke-linejoin="miter" stroke-miterlimit="2" stroke-opacity="1" stroke-width="1.07" transform="matrix(0.934579,0,0,0.934579,-628.505,-23.8318)"><polyline fill="none" points="775,133 775,131" vector-effect="none"/></g><defs><clipPath id="clip180"><path d="M680,28 L880,28 L880,232 L680,232 L680,28 z"/></clipPath></defs><g clip-path="url(#clip180)" fill="none" opacity="1" stroke="#000000" stroke-linecap="butt" stroke-linejoin="miter" stroke-miterlimit="2" stroke-opacity="1" stroke-width="1.07" transform="matrix(0.934579,0,0,0.934579,-628.505,-23.8318)"><polyline fill="none" points="775,131 772,135" vector-effect="none"/></g><defs><clipPath id="clip181"><path d="M680,28 L880,28 L880,232 L680,232 L680,28 z"/></clipPath></defs><g clip-path="url(#clip181)" fill="none" opacity="1" stroke="#000000" stroke-linecap="butt" stroke-linejoin="miter" stroke-miterlimit="2" stroke-opacity="1" stroke-width="1.07" transform="matrix(0.934579,0,0,0.934579,-628.505,-23.8318)"><polyline fill="none" points="772,135 775,140" vector-effect="none"/></g><defs><clipPath id="clip182"><path d="M680,28 L880,28 L880,232 L680,232 L680,28 z"/></clipPath></defs><g clip-path="url(#clip182)" fill="none" opacity="1" stroke="#000000" stroke-linecap="butt" stroke-linejoin="miter" stroke-miterlimit="2" stroke-opacity="1" stroke-width="1.07" transform="matrix(0.934579,0,0,0.934579,-628.505,-23.8318)"><polyline fill="none" points="775,140 780,141" vector-effect="none"/></g><defs><clipPath id="clip183"><path d="M680,28 L880,28 L880,232 L680,232 L680,28 z"/></clipPath></defs><g clip-path="url(#clip183)" fill="none" opacity="1" stroke="#000000" stroke-linecap="butt" stroke-linejoin="miter" stroke-miterlimit="2" stroke-opacity="1" stroke-width="1.07" transform="matrix(0.934579,0,0,0.934579,-628.505,-23.8318)"><polyline fill="none" points="780,141 785,140" vector-effect="none"/></g><defs><clipPath id="clip184"><path d="M680,28 L880,28 L880,232 L680,232 L680,28 z"/></clipPath></defs><g clip-path="url(#clip184)" fill="none" opacity="1" stroke="#000000" stroke-linecap="butt" stroke-linejoin="miter" stroke-miterlimit="2" stroke-opacity="1" stroke-width="1.07" transform="matrix(0.934579,0,0,0.934579,-628.505,-23.8318)"><polyline fill="none" points="785,140 788,135" vector-effect="none"/></g><defs><clipPath id="clip185"><path d="M680,28 L880,28 L880,232 L680,232 L680,28 z"/></clipPath></defs><g clip-path="url(#clip185)" fill="none" opacity="1" stroke="#000000" stroke-linecap="butt" stroke-linejoin="miter" stroke-miterlimit="2" stroke-opacity="1" stroke-width="1.07" transform="matrix(0.934579,0,0,0.934579,-628.505,-23.8318)"><polyline fill="none" points="788,135 785,131" vector-effect="none"/></g><defs><clipPath id="clip186"><path d="M680,28 L880,28 L880,232 L680,232 L680,28 z"/></clipPath></defs><g clip-path="url(#clip186)" fill="none" opacity="1" stroke="#000000" stroke-linecap="butt" stroke-linejoin="miter" stroke-miterlimit="2" stroke-opacity="1" stroke-width="1.07" transform="matrix(0.934579,0,0,0.934579,-628.505,-23.8318)"><polyline fill="none" points="804,111 804,115" vector-effect="none"/></g><defs><clipPath id="clip187"><path d="M680,28 L880,28 L880,232 L680,232 L680,28 z"/></clipPath></defs><g clip-path="url(#clip187)" fill="none" opacity="1" stroke="#000000" stroke-linecap="butt" stroke-linejoin="miter" stroke-miterlimit="2" stroke-opacity="1" stroke-width="1.07" transform="matrix(0.934579,0,0,0.934579,-628.505,-23.8318)"><polyline fill="none" points="804,115 801,111" vector-effect="none"/></g><defs><clipPath id="clip188"><path d="M680,28 L880,28 L880,232 L680,232 L680,28 z"/></clipPath></defs><g clip-path="url(#clip188)" fill="none" opacity="1" stroke="#000000" stroke-linecap="butt" stroke-linejoin="miter" stroke-miterlimit="2" stroke-opacity="1" stroke-width="1.07" transform="matrix(0.934579,0,0,0.934579,-628.505,-23.8318)"><polyline fill="none" points="801,111 804,111" vector-effect="none"/></g><defs><clipPath id="clip189"><path d="M680,28 L880,28 L880,232 L680,232 L680,28 z"/></clipPath></defs><g clip-path="url(#clip189)" fill="none" opacity="1" stroke="#000000" stroke-linecap="butt" stroke-linejoin="miter" stroke-miterlimit="2" stroke-opacity="1" stroke-width="1.07" transform="matrix(0.934579,0,0,0.934579,-628.505,-23.8318)"><polyline fill="none" points="804,111 800,114" vector-effect="none"/></g><defs><clipPath id="clip190"><path d="M680,28 L880,28 L880,232 L680,232 L680,28 z"/></clipPath></defs><g clip-path="url(#clip190)" fill="none" opacity="1" stroke="#000000" stroke-linecap="butt" stroke-linejoin="miter" stroke-miterlimit="2" stroke-opacity="1" stroke-width="1.07" transform="matrix(0.934579,0,0,0.934579,-628.505,-23.8318)"><polyline fill="none" points="800,114 795,111" vector-effect="none"/></g><defs><clipPath id="clip191"><path d="M680,28 L880,28 L880,232 L680,232 L680,28 z"/></clipPath></defs><g clip-path="url(#clip191)" fill="none" opacity="1" stroke="#000000" stroke-linecap="butt" stroke-linejoin="miter" stroke-miterlimit="2" stroke-opacity="1" stroke-width="1.07" transform="matrix(0.934579,0,0,0.934579,-628.505,-23.8318)"><polyline fill="none" points="795,111 794,106" vector-effect="none"/></g><defs><clipPath id="clip192"><path d="M680,28 L880,28 L880,232 L680,232 L680,28 z"/></clipPath></defs><g clip-path="url(#clip192)" fill="none" opacity="1" stroke="#000000" stroke-linecap="butt" stroke-linejoin="miter" stroke-miterlimit="2" stroke-opacity="1" stroke-width="1.07" transform="matrix(0.934579,0,0,0.934579,-628.505,-23.8318)"><polyline fill="none" points="794,106 795,101" vector-effect="none"/></g><defs><clipPath id="clip193"><path d="M680,28 L880,28 L880,232 L680,232 L680,28 z"/></clipPath></defs><g clip-path="url(#clip193)" fill="none" opacity="1" stroke="#000000" stroke-linecap="butt" stroke-linejoin="miter" stroke-miterlimit="2" stroke-opacity="1" stroke-width="1.07" transform="matrix(0.934579,0,0,0.934579,-628.505,-23.8318)"><polyline fill="none" points="795,101 799,98" vector-effect="none"/></g><defs><clipPath id="clip194"><path d="M680,28 L880,28 L880,232 L680,232 L680,28 z"/></clipPath></defs><g clip-path="url(#clip194)" fill="none" opacity="1" stroke="#000000" stroke-linecap="butt" stroke-linejoin="miter" stroke-miterlimit="2" stroke-opacity="1" stroke-width="1.07" transform="matrix(0.934579,0,0,0.934579,-628.505,-23.8318)"><polyline fill="none" points="799,98 804,101" vector-effect="none"/></g><defs><clipPath id="clip195"><path d="M680,28 L880,28 L880,232 L680,232 L680,28 z"/></clipPath></defs><g clip-path="url(#clip195)" fill="none" opacity="1" stroke="#000000" stroke-linecap="butt" stroke-linejoin="miter" stroke-miterlimit="2" stroke-opacity="1" stroke-width="1.07" transform="matrix(0.934579,0,0,0.934579,-628.505,-23.8318)"><polyline fill="none" points="753,124 756,129" vector-effect="none"/></g><defs><clipPath id="clip196"><path d="M680,28 L880,28 L880,232 L680,232 L680,28 z"/></clipPath></defs><g clip-path="url(#clip196)" fill="none" opacity="1" stroke="#000000" stroke-linecap="butt" stroke-linejoin="miter" stroke-miterlimit="2" stroke-opacity="1" stroke-width="1.07" transform="matrix(0.934579,0,0,0.934579,-628.505,-23.8318)"><polyline fill="none" points="756,129 761,130" vector-effect="none"/></g><defs><clipPath id="clip197"><path d="M680,28 L880,28 L880,232 L680,232 L680,28 z"/></clipPath></defs><g clip-path="url(#clip197)" fill="none" opacity="1" stroke="#000000" stroke-linecap="butt" stroke-linejoin="miter" stroke-miterlimit="2" stroke-opacity="1" stroke-width="1.07" transform="matrix(0.934579,0,0,0.934579,-628.505,-23.8318)"><polyline fill="none" points="761,130 765,129" vector-effect="none"/></g><defs><clipPath id="clip198"><path d="M680,28 L880,28 L880,232 L680,232 L680,28 z"/></clipPath></defs><g clip-path="url(#clip198)" fill="none" opacity="1" stroke="#000000" stroke-linecap="butt" stroke-linejoin="miter" stroke-miterlimit="2" stroke-opacity="1" stroke-width="1.07" transform="matrix(0.934579,0,0,0.934579,-628.505,-23.8318)"><polyline fill="none" points="765,129 768,124" vector-effect="none"/></g><defs><clipPath id="clip199"><path d="M680,28 L880,28 L880,232 L680,232 L680,28 z"/></clipPath></defs><g clip-path="url(#clip199)" fill="none" opacity="1" stroke="#000000" stroke-linecap="butt" stroke-linejoin="miter" stroke-miterlimit="2" stroke-opacity="1" stroke-width="1.07" transform="matrix(0.934579,0,0,0.934579,-628.505,-23.8318)"><polyline fill="none" points="768,124 765,119" vector-effect="none"/></g><defs><clipPath id="clip200"><path d="M680,28 L880,28 L880,232 L680,232 L680,28 z"/></clipPath></defs><g clip-path="url(#clip200)" fill="none" opacity="1" stroke="#000000" stroke-linecap="butt" stroke-linejoin="miter" stroke-miterlimit="2" stroke-opacity="1" stroke-width="1.07" transform="matrix(0.934579,0,0,0.934579,-628.505,-23.8318)"><polyline fill="none" points="765,119 761,118" vector-effect="none"/></g><defs><clipPath id="clip201"><path d="M680,28 L880,28 L880,232 L680,232 L680,28 z"/></clipPath></defs><g clip-path="url(#clip201)" fill="none" opacity="1" stroke="#000000" stroke-linecap="butt" stroke-linejoin="miter" stroke-miterlimit="2" stroke-opacity="1" stroke-width="1.07" transform="matrix(0.934579,0,0,0.934579,-628.505,-23.8318)"><polyline fill="none" points="761,118 761,122" vector-effect="none"/></g><defs><clipPath id="clip202"><path d="M680,28 L880,28 L880,232 L680,232 L680,28 z"/></clipPath></defs><g clip-path="url(#clip202)" fill="none" opacity="1" stroke="#000000" stroke-linecap="butt" stroke-linejoin="miter" stroke-miterlimit="2" stroke-opacity="1" stroke-width="1.07" transform="matrix(0.934579,0,0,0.934579,-628.505,-23.8318)"><polyline fill="none" points="761,122 764,117" vector-effect="none"/></g><defs><clipPath id="clip203"><path d="M680,28 L880,28 L880,232 L680,232 L680,28 z"/></clipPath></defs><g clip-path="url(#clip203)" fill="none" opacity="1" stroke="#000000" stroke-linecap="butt" stroke-linejoin="miter" stroke-miterlimit="2" stroke-opacity="1" stroke-width="1.07" transform="matrix(0.934579,0,0,0.934579,-628.505,-23.8318)"><polyline fill="none" points="764,117 761,118" vector-effect="none"/></g><defs><clipPath id="clip204"><path d="M680,28 L880,28 L880,232 L680,232 L680,28 z"/></clipPath></defs><g clip-path="url(#clip204)" fill="#000000" fill-opacity="1" opacity="1" stroke="#000000" stroke-linecap="butt" stroke-linejoin="miter" stroke-miterlimit="2" stroke-opacity="1" stroke-width="1.07" transform="matrix(0.934579,0,0,0.934579,-628.972,-24.2991)"><path d="M784,107 L783,104 L780,102 L776,104 L775,107 L776,111 L780,112 L783,111 L784,107 z" fill-rule="evenodd" vector-effect="none"/></g><defs><clipPath id="clip209"><path d="M-7,-2 L207,-2 L207,206 L-7,206 L-7,-2 z"/></clipPath></defs><g clip-path="url(#clip209)" fill="none" opacity="1" stroke="#000000" stroke-linecap="butt" stroke-linejoin="miter" stroke-miterlimit="2" stroke-opacity="1" stroke-width="1" transform="matrix(0.934579,0,0,0.934579,6.54206,1.86916)"><path d="M0,0 L200,0 L200,204 L0,204 L0,0 z" fill-rule="evenodd" vector-effect="none"/></g></g></svg>
