<?xml version="1.0" encoding="UTF-8"?><svg width="44.1854mm" height="52.9167mm" viewBox="0 0 167 200" xmlns="http://www.w3.org/2000/svg" xmlns:xlink="http://www.w3.org/1999/xlink"><g fill="none" stroke="black" stroke-width="1" fill-rule="evenodd" stroke-linecap="square" stroke-linejoin="bevel"><g clip-path="none" fill="none" opacity="1" stroke="none" stroke-opacity="0" transform="matrix(1,0,0,1,0,0)"><path d="M0,0 L167,0 L167,200 L0,200 L0,0 z" fill-rule="evenodd" vector-effect="none"/></g><defs><clipPath id="clip3"><path d="M-107,-103 L7,-103 L7,33 L-107,33 L-107,-103 z"/></clipPath></defs><g clip-path="url(#clip3)" fill="none" opacity="1" stroke="#000000" stroke-linecap="round" stroke-linejoin="miter" stroke-miterlimit="2" stroke-opacity="1" stroke-width="2" transform="matrix(1.47059,0,0,1.47059,157.353,151.471)"><path d="M0,-5 L5,0 L0,5" fill-rule="evenodd" vector-effect="none"/></g><defs><clipPath id="clip6"><path d="M-107,-38 L7,-38 L7,98 L-107,98 L-107,-38 z"/></clipPath></defs><g clip-path="url(#clip6)" fill="none" opacity="1" stroke="#000000" stroke-linecap="round" stroke-linejoin="miter" stroke-miterlimit="2" stroke-opacity="1" stroke-width="2" transform="matrix(1.47059,0,0,1.47059,157.353,55.8824)"><path d="M0,-5 L5,0 L0,5" fill-rule="evenodd" vector-effect="none"/></g><defs><clipPath id="clip9"><path d="M7,128 L-107,128 L-107,-8 L7,-8 L7,128 z"/></clipPath></defs><g clip-path="url(#clip9)" fill="none" opacity="1" stroke="#000000" stroke-linecap="round" stroke-linejoin="miter" stroke-miterlimit="2" stroke-opacity="1" stroke-width="2" transform="matrix(-1.47059,0,0,-1.47059,10.2941,188.235)"><path d="M5,-5 L0,0 L5,5" fill-rule="evenodd" vector-effect="none"/></g><defs><clipPath id="clip12"><path d="M7,8 L-107,8 L-107,-128 L7,-128 L7,8 z"/></clipPath></defs><g clip-path="url(#clip12)" fill="none" opacity="1" stroke="#000000" stroke-linecap="round" stroke-linejoin="miter" stroke-miterlimit="2" stroke-opacity="1" stroke-width="2" transform="matrix(-1.47059,0,0,-1.47059,10.2941,11.7647)"><path d="M5,-5 L0,0 L5,5" fill-rule="evenodd" vector-effect="none"/></g><defs><clipPath id="clip15"><path d="M7,88 L-107,88 L-107,-48 L7,-48 L7,88 z"/></clipPath></defs><g clip-path="url(#clip15)" fill="none" opacity="1" stroke="#000000" stroke-linecap="round" stroke-linejoin="miter" stroke-miterlimit="2" stroke-opacity="1" stroke-width="2" transform="matrix(-1.47059,0,0,-1.47059,10.2941,129.412)"><path d="M5,-5 L0,0 L5,5" fill-rule="evenodd" vector-effect="none"/></g><defs><clipPath id="clip18"><path d="M7,108 L-107,108 L-107,-28 L7,-28 L7,108 z"/></clipPath></defs><g clip-path="url(#clip18)" fill="none" opacity="1" stroke="#000000" stroke-linecap="round" stroke-linejoin="miter" stroke-miterlimit="2" stroke-opacity="1" stroke-width="2" transform="matrix(-1.47059,0,0,-1.47059,10.2941,158.824)"><path d="M5,-5 L0,0 L5,5" fill-rule="evenodd" vector-effect="none"/></g><defs><clipPath id="clip21"><path d="M7,68 L-107,68 L-107,-68 L7,-68 L7,68 z"/></clipPath></defs><g clip-path="url(#clip21)" fill="none" opacity="1" stroke="#000000" stroke-linecap="round" stroke-linejoin="miter" stroke-miterlimit="2" stroke-opacity="1" stroke-width="2" transform="matrix(-1.47059,0,0,-1.47059,10.2941,100)"><path d="M5,-5 L0,0 L5,5" fill-rule="evenodd" vector-effect="none"/></g><defs><clipPath id="clip24"><path d="M7,48 L-107,48 L-107,-88 L7,-88 L7,48 z"/></clipPath></defs><g clip-path="url(#clip24)" fill="none" opacity="1" stroke="#000000" stroke-linecap="round" stroke-linejoin="miter" stroke-miterlimit="2" stroke-opacity="1" stroke-width="2" transform="matrix(-1.47059,0,0,-1.47059,10.2941,70.5882)"><path d="M5,-5 L0,0 L5,5" fill-rule="evenodd" vector-effect="none"/></g><defs><clipPath id="clip27"><path d="M7,28 L-107,28 L-107,-108 L7,-108 L7,28 z"/></clipPath></defs><g clip-path="url(#clip27)" fill="none" opacity="1" stroke="#000000" stroke-linecap="round" stroke-linejoin="miter" stroke-miterlimit="2" stroke-opacity="1" stroke-width="2" transform="matrix(-1.47059,0,0,-1.47059,10.2941,41.1765)"><path d="M5,-5 L0,0 L5,5" fill-rule="evenodd" vector-effect="none"/></g><defs><clipPath id="clip30"><path d="M-7,-2 L107,-2 L107,134 L-7,134 L-7,-2 z"/></clipPath></defs><g clip-path="url(#clip30)" fill="#ffffff" fill-opacity="1" opacity="1" stroke="none" stroke-opacity="0" transform="matrix(1.47059,0,0,1.47059,10.2941,2.94118)"><path d="M0,0 L100,0 L100,132 L0,132 L0,0 z" fill-rule="evenodd" vector-effect="none"/></g><defs><clipPath id="clip35"><path d="M-15,-51 L497,-51 L497,625 L-15,625 L-15,-51 z"/></clipPath></defs><g clip-path="url(#clip35)" fill="none" opacity="1" stroke="#000000" stroke-linecap="butt" stroke-linejoin="miter" stroke-miterlimit="2" stroke-opacity="1" stroke-width="0.68" transform="matrix(0.287224,0,0,0.287224,14.7059,17.6471)"><text fill="#000000" fill-opacity="1" font-family="Liberation Sans" font-size="40" font-style="normal" font-weight="400" stroke="none" textLength="53" x="0" xml:space="preserve" y="1.28125">Lift</text></g><defs><clipPath id="clip38"><path d="M-15,-154 L497,-154 L497,522 L-15,522 L-15,-154 z"/></clipPath></defs><g clip-path="url(#clip38)" fill="none" opacity="1" stroke="#000000" stroke-linecap="butt" stroke-linejoin="miter" stroke-miterlimit="2" stroke-opacity="1" stroke-width="0.68" transform="matrix(0.287224,0,0,0.287224,14.7059,47.0588)"><text fill="#000000" fill-opacity="1" font-family="Liberation Sans" font-size="40" font-style="normal" font-weight="400" stroke="none" textLength="86" x="0" xml:space="preserve" y="1.28125">Drag</text></g><defs><clipPath id="clip41"><path d="M-15,-256 L497,-256 L497,420 L-15,420 L-15,-256 z"/></clipPath></defs><g clip-path="url(#clip41)" fill="none" opacity="1" stroke="#000000" stroke-linecap="butt" stroke-linejoin="miter" stroke-miterlimit="2" stroke-opacity="1" stroke-width="0.68" transform="matrix(0.287224,0,0,0.287224,14.7059,76.4706)"><text fill="#000000" fill-opacity="1" font-family="Liberation Sans" font-size="40" font-style="normal" font-weight="400" stroke="none" textLength="123" x="0" xml:space="preserve" y="1.28125">Weight</text></g><defs><clipPath id="clip44"><path d="M-15,-358 L497,-358 L497,318 L-15,318 L-15,-358 z"/></clipPath></defs><g clip-path="url(#clip44)" fill="none" opacity="1" stroke="#000000" stroke-linecap="butt" stroke-linejoin="miter" stroke-miterlimit="2" stroke-opacity="1" stroke-width="0.68" transform="matrix(0.287224,0,0,0.287224,14.7059,105.882)"><text fill="#000000" fill-opacity="1" font-family="Liberation Sans" font-size="40" font-style="normal" font-weight="400" stroke="none" textLength="109" x="0" xml:space="preserve" y="1.28125">Thrust</text></g><defs><clipPath id="clip47"><path d="M-15,-461 L497,-461 L497,215 L-15,215 L-15,-461 z"/></clipPath></defs><g clip-path="url(#clip47)" fill="none" opacity="1" stroke="#000000" stroke-linecap="butt" stroke-linejoin="miter" stroke-miterlimit="2" stroke-opacity="1" stroke-width="0.68" transform="matrix(0.287224,0,0,0.287224,14.7059,135.294)"><text fill="#000000" fill-opacity="1" font-family="Liberation Sans" font-size="40" font-style="normal" font-weight="400" stroke="none" textLength="20" x="0" xml:space="preserve" y="1.28125">γ</text></g><defs><clipPath id="clip50"><path d="M-15,-563 L497,-563 L497,113 L-15,113 L-15,-563 z"/></clipPath></defs><g clip-path="url(#clip50)" fill="none" opacity="1" stroke="#000000" stroke-linecap="butt" stroke-linejoin="miter" stroke-miterlimit="2" stroke-opacity="1" stroke-width="0.68" transform="matrix(0.287224,0,0,0.287224,14.7059,164.706)"><text fill="#000000" fill-opacity="1" font-family="Liberation Sans" font-size="40" font-style="normal" font-weight="400" stroke="none" textLength="23" x="0" xml:space="preserve" y="1.28125">μ</text></g><defs><clipPath id="clip53"><path d="M-15,-666 L497,-666 L497,10 L-15,10 L-15,-666 z"/></clipPath></defs><g clip-path="url(#clip53)" fill="none" opacity="1" stroke="#000000" stroke-linecap="butt" stroke-linejoin="miter" stroke-miterlimit="2" stroke-opacity="1" stroke-width="0.68" transform="matrix(0.287224,0,0,0.287224,14.7059,194.118)"><text fill="#000000" fill-opacity="1" font-family="Liberation Sans" font-size="40" font-style="normal" font-weight="400" stroke="none" textLength="23" x="0" xml:space="preserve" y="1.28125">α</text></g><defs><clipPath id="clip56"><path d="M-451,-189 L61,-189 L61,487 L-451,487 L-451,-189 z"/></clipPath></defs><g clip-path="url(#clip56)" fill="none" opacity="1" stroke="#000000" stroke-linecap="butt" stroke-linejoin="miter" stroke-miterlimit="2" stroke-opacity="1" stroke-width="0.68" transform="matrix(0.287224,0,0,0.287224,139.706,57.3529)"><text fill="#000000" fill-opacity="1" font-family="Liberation Sans" font-size="40" font-style="normal" font-weight="400" stroke="none" textLength="24" x="0" xml:space="preserve" y="1.28125">F</text></g><defs><clipPath id="clip59"><path d="M-481,-215 L31,-215 L31,461 L-481,461 L-481,-215 z"/></clipPath></defs><g clip-path="url(#clip59)" fill="none" opacity="1" stroke="#000000" stroke-linecap="butt" stroke-linejoin="miter" stroke-miterlimit="2" stroke-opacity="1" stroke-width="0.68" transform="matrix(0.287224,0,0,0.287224,148.529,64.7059)"><text fill="#000000" fill-opacity="1" font-family="Liberation Sans" font-size="32" font-style="normal" font-weight="400" stroke="none" textLength="14" x="0" xml:space="preserve" y="1.28125">x</text></g><defs><clipPath id="clip62"><path d="M-445,-522 L67,-522 L67,154 L-445,154 L-445,-522 z"/></clipPath></defs><g clip-path="url(#clip62)" fill="none" opacity="1" stroke="#000000" stroke-linecap="butt" stroke-linejoin="miter" stroke-miterlimit="2" stroke-opacity="1" stroke-width="0.68" transform="matrix(0.287224,0,0,0.287224,138.235,152.941)"><text fill="#000000" fill-opacity="1" font-family="Liberation Sans" font-size="40" font-style="normal" font-weight="400" stroke="none" textLength="24" x="0" xml:space="preserve" y="1.28125">F</text></g><defs><clipPath id="clip65"><path d="M-476,-548 L36,-548 L36,128 L-476,128 L-476,-548 z"/></clipPath></defs><g clip-path="url(#clip65)" fill="none" opacity="1" stroke="#000000" stroke-linecap="butt" stroke-linejoin="miter" stroke-miterlimit="2" stroke-opacity="1" stroke-width="0.68" transform="matrix(0.287224,0,0,0.287224,147.059,160.294)"><text fill="#000000" fill-opacity="1" font-family="Liberation Sans" font-size="32" font-style="normal" font-weight="400" stroke="none" textLength="15" x="0" xml:space="preserve" y="1.28125">z</text></g><defs><clipPath id="clip71"><path d="M-7,-2 L107,-2 L107,134 L-7,134 L-7,-2 z"/></clipPath></defs><g clip-path="url(#clip71)" fill="none" opacity="1" stroke="#000000" stroke-linecap="butt" stroke-linejoin="miter" stroke-miterlimit="2" stroke-opacity="1" stroke-width="0.857045" transform="matrix(1.47059,0,0,1.47059,10.2941,2.94118)"><path d="M0,0 L100,0 L100,132 L0,132 L0,0 z" fill-rule="evenodd" vector-effect="none"/></g></g></svg>
