<?xml version="1.0" encoding="UTF-8"?><svg width="52.9167mm" height="38.8937mm" viewBox="0 0 200 147" xmlns="http://www.w3.org/2000/svg" xmlns:xlink="http://www.w3.org/1999/xlink"><g fill="none" stroke="black" stroke-width="1" fill-rule="evenodd" stroke-linecap="square" stroke-linejoin="bevel"><g clip-path="none" fill="none" opacity="1" stroke="none" stroke-opacity="0" transform="matrix(1,0,0,1,0,0)"><path d="M0,0 L200,0 L200,147 L0,147 L0,0 z" fill-rule="evenodd" vector-effect="none"/></g><defs><clipPath id="clip3"><path d="M-177,-118 L7,-118 L7,18 L-177,18 L-177,-118 z"/></clipPath></defs><g clip-path="url(#clip3)" fill="none" opacity="1" stroke="#000000" stroke-linecap="round" stroke-linejoin="miter" stroke-miterlimit="2" stroke-opacity="1" stroke-width="2" transform="matrix(1.08696,0,0,1.08696,192.391,128.261)"><path d="M0,-5 L5,0 L0,5" fill-rule="evenodd" vector-effect="none"/></g><defs><clipPath id="clip6"><path d="M-177,-78 L7,-78 L7,58 L-177,58 L-177,-78 z"/></clipPath></defs><g clip-path="url(#clip6)" fill="none" opacity="1" stroke="#000000" stroke-linecap="round" stroke-linejoin="miter" stroke-miterlimit="2" stroke-opacity="1" stroke-width="2" transform="matrix(1.08696,0,0,1.08696,192.391,84.7826)"><path d="M0,-5 L5,0 L0,5" fill-rule="evenodd" vector-effect="none"/></g><defs><clipPath id="clip9"><path d="M-177,-58 L7,-58 L7,78 L-177,78 L-177,-58 z"/></clipPath></defs><g clip-path="url(#clip9)" fill="none" opacity="1" stroke="#000000" stroke-linecap="round" stroke-linejoin="miter" stroke-miterlimit="2" stroke-opacity="1" stroke-width="2" transform="matrix(1.08696,0,0,1.08696,192.391,63.0435)"><path d="M0,-5 L5,0 L0,5" fill-rule="evenodd" vector-effect="none"/></g><defs><clipPath id="clip12"><path d="M7,113 L-177,113 L-177,-23 L7,-23 L7,113 z"/></clipPath></defs><g clip-path="url(#clip12)" fill="none" opacity="1" stroke="#000000" stroke-linecap="round" stroke-linejoin="miter" stroke-miterlimit="2" stroke-opacity="1" stroke-width="2" transform="matrix(-1.08696,0,0,-1.08696,7.6087,122.826)"><path d="M5,-5 L0,0 L5,5" fill-rule="evenodd" vector-effect="none"/></g><defs><clipPath id="clip15"><path d="M-177,-98 L7,-98 L7,38 L-177,38 L-177,-98 z"/></clipPath></defs><g clip-path="url(#clip15)" fill="none" opacity="1" stroke="#000000" stroke-linecap="round" stroke-linejoin="miter" stroke-miterlimit="2" stroke-opacity="1" stroke-width="2" transform="matrix(1.08696,0,0,1.08696,192.391,106.522)"><path d="M0,-5 L5,0 L0,5" fill-rule="evenodd" vector-effect="none"/></g><defs><clipPath id="clip18"><path d="M-177,-38 L7,-38 L7,98 L-177,98 L-177,-38 z"/></clipPath></defs><g clip-path="url(#clip18)" fill="none" opacity="1" stroke="#000000" stroke-linecap="round" stroke-linejoin="miter" stroke-miterlimit="2" stroke-opacity="1" stroke-width="2" transform="matrix(1.08696,0,0,1.08696,192.391,41.3043)"><path d="M0,-5 L5,0 L0,5" fill-rule="evenodd" vector-effect="none"/></g><defs><clipPath id="clip21"><path d="M-177,-18 L7,-18 L7,118 L-177,118 L-177,-18 z"/></clipPath></defs><g clip-path="url(#clip21)" fill="none" opacity="1" stroke="#000000" stroke-linecap="round" stroke-linejoin="miter" stroke-miterlimit="2" stroke-opacity="1" stroke-width="2" transform="matrix(1.08696,0,0,1.08696,192.391,19.5652)"><path d="M0,-5 L5,0 L0,5" fill-rule="evenodd" vector-effect="none"/></g><defs><clipPath id="clip24"><path d="M7,68 L-177,68 L-177,-68 L7,-68 L7,68 z"/></clipPath></defs><g clip-path="url(#clip24)" fill="none" opacity="1" stroke="#000000" stroke-linecap="round" stroke-linejoin="miter" stroke-miterlimit="2" stroke-opacity="1" stroke-width="2" transform="matrix(-1.08696,0,0,-1.08696,7.6087,73.913)"><path d="M5,-5 L0,0 L5,5" fill-rule="evenodd" vector-effect="none"/></g><defs><clipPath id="clip27"><path d="M7,23 L-177,23 L-177,-113 L7,-113 L7,23 z"/></clipPath></defs><g clip-path="url(#clip27)" fill="none" opacity="1" stroke="#000000" stroke-linecap="round" stroke-linejoin="miter" stroke-miterlimit="2" stroke-opacity="1" stroke-width="2" transform="matrix(-1.08696,0,0,-1.08696,7.6087,25)"><path d="M5,-5 L0,0 L5,5" fill-rule="evenodd" vector-effect="none"/></g><defs><clipPath id="clip30"><path d="M-7,-2 L177,-2 L177,134 L-7,134 L-7,-2 z"/></clipPath></defs><g clip-path="url(#clip30)" fill="#ffffff" fill-opacity="1" opacity="1" stroke="none" stroke-opacity="0" transform="matrix(1.08696,0,0,1.08696,7.6087,2.17391)"><path d="M0,0 L170,0 L170,132 L0,132 L0,0 z" fill-rule="evenodd" vector-effect="none"/></g><defs><clipPath id="clip35"><path d="M-15,-113 L855,-113 L855,563 L-15,563 L-15,-113 z"/></clipPath></defs><g clip-path="url(#clip35)" fill="none" opacity="1" stroke="#000000" stroke-linecap="butt" stroke-linejoin="miter" stroke-miterlimit="2" stroke-opacity="1" stroke-width="0.92" transform="matrix(0.212296,0,0,0.212296,10.8696,26.087)"><text fill="#000000" fill-opacity="1" font-family="Liberation Sans" font-size="40" font-style="normal" font-weight="400" stroke="none" textLength="24" x="0" xml:space="preserve" y="1.28125">F</text></g><defs><clipPath id="clip38"><path d="M-46,-138 L824,-138 L824,538 L-46,538 L-46,-138 z"/></clipPath></defs><g clip-path="url(#clip38)" fill="none" opacity="1" stroke="#000000" stroke-linecap="butt" stroke-linejoin="miter" stroke-miterlimit="2" stroke-opacity="1" stroke-width="0.92" transform="matrix(0.212296,0,0,0.212296,17.3913,31.5217)"><text fill="#000000" fill-opacity="1" font-family="Liberation Sans" font-size="32" font-style="normal" font-weight="400" stroke="none" textLength="14" x="0" xml:space="preserve" y="1.28125">x</text></g><defs><clipPath id="clip41"><path d="M-61,-113 L809,-113 L809,563 L-61,563 L-61,-113 z"/></clipPath></defs><g clip-path="url(#clip41)" fill="none" opacity="1" stroke="#000000" stroke-linecap="butt" stroke-linejoin="miter" stroke-miterlimit="2" stroke-opacity="1" stroke-width="0.92" transform="matrix(0.212296,0,0,0.212296,20.6522,26.087)"><text fill="#000000" fill-opacity="1" font-family="Liberation Sans" font-size="40" font-style="normal" font-weight="400" stroke="none" textLength="66" x="0" xml:space="preserve" y="1.28125"> (N)</text></g><defs><clipPath id="clip44"><path d="M-15,-343 L855,-343 L855,333 L-15,333 L-15,-343 z"/></clipPath></defs><g clip-path="url(#clip44)" fill="none" opacity="1" stroke="#000000" stroke-linecap="butt" stroke-linejoin="miter" stroke-miterlimit="2" stroke-opacity="1" stroke-width="0.92" transform="matrix(0.212296,0,0,0.212296,10.8696,75)"><text fill="#000000" fill-opacity="1" font-family="Liberation Sans" font-size="40" font-style="normal" font-weight="400" stroke="none" textLength="24" x="0" xml:space="preserve" y="1.28125">F</text></g><defs><clipPath id="clip47"><path d="M-46,-369 L824,-369 L824,307 L-46,307 L-46,-369 z"/></clipPath></defs><g clip-path="url(#clip47)" fill="none" opacity="1" stroke="#000000" stroke-linecap="butt" stroke-linejoin="miter" stroke-miterlimit="2" stroke-opacity="1" stroke-width="0.92" transform="matrix(0.212296,0,0,0.212296,17.3913,80.4348)"><text fill="#000000" fill-opacity="1" font-family="Liberation Sans" font-size="32" font-style="normal" font-weight="400" stroke="none" textLength="15" x="0" xml:space="preserve" y="1.28125">y</text></g><defs><clipPath id="clip50"><path d="M-61,-343 L809,-343 L809,333 L-61,333 L-61,-343 z"/></clipPath></defs><g clip-path="url(#clip50)" fill="none" opacity="1" stroke="#000000" stroke-linecap="butt" stroke-linejoin="miter" stroke-miterlimit="2" stroke-opacity="1" stroke-width="0.92" transform="matrix(0.212296,0,0,0.212296,20.6522,75)"><text fill="#000000" fill-opacity="1" font-family="Liberation Sans" font-size="40" font-style="normal" font-weight="400" stroke="none" textLength="66" x="0" xml:space="preserve" y="1.28125"> (N)</text></g><defs><clipPath id="clip53"><path d="M-15,-573 L855,-573 L855,103 L-15,103 L-15,-573 z"/></clipPath></defs><g clip-path="url(#clip53)" fill="none" opacity="1" stroke="#000000" stroke-linecap="butt" stroke-linejoin="miter" stroke-miterlimit="2" stroke-opacity="1" stroke-width="0.92" transform="matrix(0.212296,0,0,0.212296,10.8696,123.913)"><text fill="#000000" fill-opacity="1" font-family="Liberation Sans" font-size="40" font-style="normal" font-weight="400" stroke="none" textLength="24" x="0" xml:space="preserve" y="1.28125">F</text></g><defs><clipPath id="clip56"><path d="M-46,-599 L824,-599 L824,77 L-46,77 L-46,-599 z"/></clipPath></defs><g clip-path="url(#clip56)" fill="none" opacity="1" stroke="#000000" stroke-linecap="butt" stroke-linejoin="miter" stroke-miterlimit="2" stroke-opacity="1" stroke-width="0.92" transform="matrix(0.212296,0,0,0.212296,17.3913,129.348)"><text fill="#000000" fill-opacity="1" font-family="Liberation Sans" font-size="32" font-style="normal" font-weight="400" stroke="none" textLength="15" x="0" xml:space="preserve" y="1.28125">z</text></g><defs><clipPath id="clip59"><path d="M-67,-573 L803,-573 L803,103 L-67,103 L-67,-573 z"/></clipPath></defs><g clip-path="url(#clip59)" fill="none" opacity="1" stroke="#000000" stroke-linecap="butt" stroke-linejoin="miter" stroke-miterlimit="2" stroke-opacity="1" stroke-width="0.92" transform="matrix(0.212296,0,0,0.212296,21.7391,123.913)"><text fill="#000000" fill-opacity="1" font-family="Liberation Sans" font-size="40" font-style="normal" font-weight="400" stroke="none" textLength="66" x="0" xml:space="preserve" y="1.28125"> (N)</text></g><defs><clipPath id="clip62"><path d="M-707,-102 L163,-102 L163,574 L-707,574 L-707,-102 z"/></clipPath></defs><g clip-path="url(#clip62)" fill="none" opacity="1" stroke="#000000" stroke-linecap="butt" stroke-linejoin="miter" stroke-miterlimit="2" stroke-opacity="1" stroke-width="0.92" transform="matrix(0.212296,0,0,0.212296,157.609,23.913)"><text fill="#000000" fill-opacity="1" font-family="Liberation Sans" font-size="40" font-style="normal" font-weight="400" stroke="none" textLength="44" x="0" xml:space="preserve" y="1.28125">γ (</text></g><defs><clipPath id="clip64"><path d="M-707,-102 L163,-102 L163,574 L-707,574 L-707,-102 z"/></clipPath></defs><g clip-path="url(#clip64)" fill="none" opacity="1" stroke="#000000" stroke-linecap="butt" stroke-linejoin="miter" stroke-miterlimit="2" stroke-opacity="1" stroke-width="0.92" transform="matrix(0.212296,0,0,0.212296,157.609,23.913)"><text fill="#000000" fill-opacity="1" font-family="Liberation Sans" font-size="40" font-style="normal" font-weight="400" stroke="none" textLength="70" x="56.8594" xml:space="preserve" y="1.28125">rad)</text></g><defs><clipPath id="clip67"><path d="M-707,-205 L163,-205 L163,471 L-707,471 L-707,-205 z"/></clipPath></defs><g clip-path="url(#clip67)" fill="none" opacity="1" stroke="#000000" stroke-linecap="butt" stroke-linejoin="miter" stroke-miterlimit="2" stroke-opacity="1" stroke-width="0.92" transform="matrix(0.212296,0,0,0.212296,157.609,45.6522)"><text fill="#000000" fill-opacity="1" font-family="Liberation Sans" font-size="40" font-style="normal" font-weight="400" stroke="none" textLength="45" x="0" xml:space="preserve" y="1.28125">χ (</text></g><defs><clipPath id="clip69"><path d="M-707,-205 L163,-205 L163,471 L-707,471 L-707,-205 z"/></clipPath></defs><g clip-path="url(#clip69)" fill="none" opacity="1" stroke="#000000" stroke-linecap="butt" stroke-linejoin="miter" stroke-miterlimit="2" stroke-opacity="1" stroke-width="0.92" transform="matrix(0.212296,0,0,0.212296,157.609,45.6522)"><text fill="#000000" fill-opacity="1" font-family="Liberation Sans" font-size="40" font-style="normal" font-weight="400" stroke="none" textLength="70" x="58.1094" xml:space="preserve" y="1.28125">rad)</text></g><defs><clipPath id="clip72"><path d="M-691,-307 L179,-307 L179,369 L-691,369 L-691,-307 z"/></clipPath></defs><g clip-path="url(#clip72)" fill="none" opacity="1" stroke="#000000" stroke-linecap="butt" stroke-linejoin="miter" stroke-miterlimit="2" stroke-opacity="1" stroke-width="0.92" transform="matrix(0.212296,0,0,0.212296,154.348,67.3913)"><text fill="#000000" fill-opacity="1" font-family="Liberation Sans" font-size="40" font-style="normal" font-weight="400" stroke="none" textLength="128" x="0" xml:space="preserve" y="1.28125">V (m/s)</text></g><defs><clipPath id="clip75"><path d="M-650,-394 L220,-394 L220,282 L-650,282 L-650,-394 z"/></clipPath></defs><g clip-path="url(#clip75)" fill="none" opacity="1" stroke="#000000" stroke-linecap="butt" stroke-linejoin="miter" stroke-miterlimit="2" stroke-opacity="1" stroke-width="0.92" transform="matrix(0.212296,0,0,0.212296,145.652,85.8696)"><text fill="#000000" fill-opacity="1" font-family="Liberation Sans" font-size="40" font-style="normal" font-weight="400" stroke="none" textLength="27" x="0" xml:space="preserve" y="1.28125">X</text></g><defs><clipPath id="clip78"><path d="M-686,-420 L184,-420 L184,256 L-686,256 L-686,-420 z"/></clipPath></defs><g clip-path="url(#clip78)" fill="none" opacity="1" stroke="#000000" stroke-linecap="butt" stroke-linejoin="miter" stroke-miterlimit="2" stroke-opacity="1" stroke-width="0.92" transform="matrix(0.212296,0,0,0.212296,153.261,91.3043)"><text fill="#000000" fill-opacity="1" font-family="Liberation Sans" font-size="32" font-style="normal" font-weight="400" stroke="none" textLength="63" x="0" xml:space="preserve" y="1.28125">East</text></g><defs><clipPath id="clip81"><path d="M-763,-394 L107,-394 L107,282 L-763,282 L-763,-394 z"/></clipPath></defs><g clip-path="url(#clip81)" fill="none" opacity="1" stroke="#000000" stroke-linecap="butt" stroke-linejoin="miter" stroke-miterlimit="2" stroke-opacity="1" stroke-width="0.92" transform="matrix(0.212296,0,0,0.212296,169.565,85.8696)"><text fill="#000000" fill-opacity="1" font-family="Liberation Sans" font-size="40" font-style="normal" font-weight="400" stroke="none" textLength="71" x="0" xml:space="preserve" y="1.28125"> (m)</text></g><defs><clipPath id="clip84"><path d="M-630,-497 L240,-497 L240,179 L-630,179 L-630,-497 z"/></clipPath></defs><g clip-path="url(#clip84)" fill="none" opacity="1" stroke="#000000" stroke-linecap="butt" stroke-linejoin="miter" stroke-miterlimit="2" stroke-opacity="1" stroke-width="0.92" transform="matrix(0.212296,0,0,0.212296,141.304,107.609)"><text fill="#000000" fill-opacity="1" font-family="Liberation Sans" font-size="40" font-style="normal" font-weight="400" stroke="none" textLength="27" x="0" xml:space="preserve" y="1.28125">X</text></g><defs><clipPath id="clip87"><path d="M-666,-522 L204,-522 L204,154 L-666,154 L-666,-522 z"/></clipPath></defs><g clip-path="url(#clip87)" fill="none" opacity="1" stroke="#000000" stroke-linecap="butt" stroke-linejoin="miter" stroke-miterlimit="2" stroke-opacity="1" stroke-width="0.92" transform="matrix(0.212296,0,0,0.212296,148.913,113.043)"><text fill="#000000" fill-opacity="1" font-family="Liberation Sans" font-size="32" font-style="normal" font-weight="400" stroke="none" textLength="78" x="0" xml:space="preserve" y="1.28125">North</text></g><defs><clipPath id="clip90"><path d="M-763,-497 L107,-497 L107,179 L-763,179 L-763,-497 z"/></clipPath></defs><g clip-path="url(#clip90)" fill="none" opacity="1" stroke="#000000" stroke-linecap="butt" stroke-linejoin="miter" stroke-miterlimit="2" stroke-opacity="1" stroke-width="0.92" transform="matrix(0.212296,0,0,0.212296,169.565,107.609)"><text fill="#000000" fill-opacity="1" font-family="Liberation Sans" font-size="40" font-style="normal" font-weight="400" stroke="none" textLength="71" x="0" xml:space="preserve" y="1.28125"> (m)</text></g><defs><clipPath id="clip93"><path d="M-676,-599 L194,-599 L194,77 L-676,77 L-676,-599 z"/></clipPath></defs><g clip-path="url(#clip93)" fill="none" opacity="1" stroke="#000000" stroke-linecap="butt" stroke-linejoin="miter" stroke-miterlimit="2" stroke-opacity="1" stroke-width="0.92" transform="matrix(0.212296,0,0,0.212296,151.087,129.348)"><text fill="#000000" fill-opacity="1" font-family="Liberation Sans" font-size="40" font-style="normal" font-weight="400" stroke="none" textLength="27" x="0" xml:space="preserve" y="1.28125">X</text></g><defs><clipPath id="clip96"><path d="M-712,-625 L158,-625 L158,51 L-712,51 L-712,-625 z"/></clipPath></defs><g clip-path="url(#clip96)" fill="none" opacity="1" stroke="#000000" stroke-linecap="butt" stroke-linejoin="miter" stroke-miterlimit="2" stroke-opacity="1" stroke-width="0.92" transform="matrix(0.212296,0,0,0.212296,158.696,134.783)"><text fill="#000000" fill-opacity="1" font-family="Liberation Sans" font-size="32" font-style="normal" font-weight="400" stroke="none" textLength="40" x="0" xml:space="preserve" y="1.28125">Up</text></g><defs><clipPath id="clip99"><path d="M-763,-599 L107,-599 L107,77 L-763,77 L-763,-599 z"/></clipPath></defs><g clip-path="url(#clip99)" fill="none" opacity="1" stroke="#000000" stroke-linecap="butt" stroke-linejoin="miter" stroke-miterlimit="2" stroke-opacity="1" stroke-width="0.92" transform="matrix(0.212296,0,0,0.212296,169.565,129.348)"><text fill="#000000" fill-opacity="1" font-family="Liberation Sans" font-size="40" font-style="normal" font-weight="400" stroke="none" textLength="71" x="0" xml:space="preserve" y="1.28125"> (m)</text></g><defs><clipPath id="clip102"><path d="M-430,-128 L440,-128 L440,548 L-430,548 L-430,-128 z"/></clipPath></defs><g clip-path="url(#clip102)" fill="none" opacity="1" stroke="#000000" stroke-linecap="butt" stroke-linejoin="miter" stroke-miterlimit="2" stroke-opacity="1" stroke-width="0.92" transform="matrix(0.212296,0,0,0.212296,98.913,29.3478)"><text fill="#000000" fill-opacity="1" font-family="Liberation Sans" font-size="40" font-style="normal" font-weight="400" stroke="none" textLength="166" x="-108.078" xml:space="preserve" y="17.9219">6th Order</text></g><defs><clipPath id="clip105"><path d="M-430,-179 L440,-179 L440,497 L-430,497 L-430,-179 z"/></clipPath></defs><g clip-path="url(#clip105)" fill="none" opacity="1" stroke="#000000" stroke-linecap="butt" stroke-linejoin="miter" stroke-miterlimit="2" stroke-opacity="1" stroke-width="0.92" transform="matrix(0.212296,0,0,0.212296,98.913,40.2174)"><text fill="#000000" fill-opacity="1" font-family="Liberation Sans" font-size="40" font-style="normal" font-weight="400" stroke="none" textLength="193" x="-126.578" xml:space="preserve" y="17.9219">Point Mass</text></g><defs><clipPath id="clip108"><path d="M-430,-451 L440,-451 L440,225 L-430,225 L-430,-451 z"/></clipPath></defs><g clip-path="url(#clip108)" fill="none" opacity="1" stroke="#000000" stroke-linecap="butt" stroke-linejoin="miter" stroke-miterlimit="2" stroke-opacity="1" stroke-width="0.92" transform="matrix(0.212296,0,0,0.212296,98.913,97.8261)"><text fill="#000000" fill-opacity="1" font-family="Liberation Sans" font-size="40" font-style="normal" font-weight="400" stroke="none" textLength="214" x="-139.391" xml:space="preserve" y="17.9219">Coordinated</text></g><defs><clipPath id="clip111"><path d="M-430,-502 L440,-502 L440,174 L-430,174 L-430,-502 z"/></clipPath></defs><g clip-path="url(#clip111)" fill="none" opacity="1" stroke="#000000" stroke-linecap="butt" stroke-linejoin="miter" stroke-miterlimit="2" stroke-opacity="1" stroke-width="0.92" transform="matrix(0.212296,0,0,0.212296,98.913,108.696)"><text fill="#000000" fill-opacity="1" font-family="Liberation Sans" font-size="40" font-style="normal" font-weight="400" stroke="none" textLength="94" x="-62.5469" xml:space="preserve" y="17.9219">Flight</text></g><defs><clipPath id="clip113"><path d="M160,219 L330,219 L330,351 L160,351 L160,219 z"/></clipPath></defs><g clip-path="url(#clip113)" fill="none" opacity="1" stroke="#000000" stroke-linecap="butt" stroke-linejoin="miter" stroke-miterlimit="2" stroke-opacity="1" stroke-width="0.92" transform="matrix(1.08696,0,0,1.08696,-165.761,-235.326)"><polyline fill="none" points="232,298 232,260" vector-effect="none"/></g><defs><clipPath id="clip114"><path d="M160,219 L330,219 L330,351 L160,351 L160,219 z"/></clipPath></defs><g clip-path="url(#clip114)" fill="none" opacity="1" stroke="#000000" stroke-linecap="butt" stroke-linejoin="miter" stroke-miterlimit="2" stroke-opacity="1" stroke-width="0.92" transform="matrix(1.08696,0,0,1.08696,-165.761,-235.326)"><polyline fill="none" points="232,260 235,263" vector-effect="none"/></g><defs><clipPath id="clip115"><path d="M160,219 L330,219 L330,351 L160,351 L160,219 z"/></clipPath></defs><g clip-path="url(#clip115)" fill="none" opacity="1" stroke="#000000" stroke-linecap="butt" stroke-linejoin="miter" stroke-miterlimit="2" stroke-opacity="1" stroke-width="0.92" transform="matrix(1.08696,0,0,1.08696,-165.761,-235.326)"><polyline fill="none" points="235,263 230,263" vector-effect="none"/></g><defs><clipPath id="clip116"><path d="M160,219 L330,219 L330,351 L160,351 L160,219 z"/></clipPath></defs><g clip-path="url(#clip116)" fill="none" opacity="1" stroke="#000000" stroke-linecap="butt" stroke-linejoin="miter" stroke-miterlimit="2" stroke-opacity="1" stroke-width="0.92" transform="matrix(1.08696,0,0,1.08696,-165.761,-235.326)"><polyline fill="none" points="230,263 232,260" vector-effect="none"/></g><defs><clipPath id="clip117"><path d="M160,219 L330,219 L330,351 L160,351 L160,219 z"/></clipPath></defs><g clip-path="url(#clip117)" fill="none" opacity="1" stroke="#000000" stroke-linecap="butt" stroke-linejoin="miter" stroke-miterlimit="2" stroke-opacity="1" stroke-width="0.92" transform="matrix(1.08696,0,0,1.08696,-165.761,-235.326)"><polyline fill="none" points="232,298 264,298" vector-effect="none"/></g><defs><clipPath id="clip118"><path d="M160,219 L330,219 L330,351 L160,351 L160,219 z"/></clipPath></defs><g clip-path="url(#clip118)" fill="none" opacity="1" stroke="#000000" stroke-linecap="butt" stroke-linejoin="miter" stroke-miterlimit="2" stroke-opacity="1" stroke-width="0.92" transform="matrix(1.08696,0,0,1.08696,-165.761,-235.326)"><polyline fill="none" points="264,298 261,300" vector-effect="none"/></g><defs><clipPath id="clip119"><path d="M160,219 L330,219 L330,351 L160,351 L160,219 z"/></clipPath></defs><g clip-path="url(#clip119)" fill="none" opacity="1" stroke="#000000" stroke-linecap="butt" stroke-linejoin="miter" stroke-miterlimit="2" stroke-opacity="1" stroke-width="0.92" transform="matrix(1.08696,0,0,1.08696,-165.761,-235.326)"><polyline fill="none" points="261,300 261,295" vector-effect="none"/></g><defs><clipPath id="clip120"><path d="M160,219 L330,219 L330,351 L160,351 L160,219 z"/></clipPath></defs><g clip-path="url(#clip120)" fill="none" opacity="1" stroke="#000000" stroke-linecap="butt" stroke-linejoin="miter" stroke-miterlimit="2" stroke-opacity="1" stroke-width="0.92" transform="matrix(1.08696,0,0,1.08696,-165.761,-235.326)"><polyline fill="none" points="261,295 264,298" vector-effect="none"/></g><defs><clipPath id="clip121"><path d="M160,219 L330,219 L330,351 L160,351 L160,219 z"/></clipPath></defs><g clip-path="url(#clip121)" fill="none" opacity="1" stroke="#000000" stroke-linecap="butt" stroke-linejoin="miter" stroke-miterlimit="2" stroke-opacity="1" stroke-width="0.92" transform="matrix(1.08696,0,0,1.08696,-165.761,-235.326)"><polyline fill="none" points="232,298 248,276" vector-effect="none"/></g><defs><clipPath id="clip122"><path d="M160,219 L330,219 L330,351 L160,351 L160,219 z"/></clipPath></defs><g clip-path="url(#clip122)" fill="none" opacity="1" stroke="#000000" stroke-linecap="butt" stroke-linejoin="miter" stroke-miterlimit="2" stroke-opacity="1" stroke-width="0.92" transform="matrix(1.08696,0,0,1.08696,-165.761,-235.326)"><polyline fill="none" points="248,276 247,280" vector-effect="none"/></g><defs><clipPath id="clip123"><path d="M160,219 L330,219 L330,351 L160,351 L160,219 z"/></clipPath></defs><g clip-path="url(#clip123)" fill="none" opacity="1" stroke="#000000" stroke-linecap="butt" stroke-linejoin="miter" stroke-miterlimit="2" stroke-opacity="1" stroke-width="0.92" transform="matrix(1.08696,0,0,1.08696,-165.761,-235.326)"><polyline fill="none" points="247,280 244,277" vector-effect="none"/></g><defs><clipPath id="clip124"><path d="M160,219 L330,219 L330,351 L160,351 L160,219 z"/></clipPath></defs><g clip-path="url(#clip124)" fill="none" opacity="1" stroke="#000000" stroke-linecap="butt" stroke-linejoin="miter" stroke-miterlimit="2" stroke-opacity="1" stroke-width="0.92" transform="matrix(1.08696,0,0,1.08696,-165.761,-235.326)"><polyline fill="none" points="244,277 248,276" vector-effect="none"/></g><defs><clipPath id="clip125"><path d="M160,219 L330,219 L330,351 L160,351 L160,219 z"/></clipPath></defs><g clip-path="url(#clip125)" fill="#000000" fill-opacity="1" opacity="1" stroke="#000000" stroke-linecap="butt" stroke-linejoin="miter" stroke-miterlimit="2" stroke-opacity="1" stroke-width="0.92" transform="matrix(1.08696,0,0,1.08696,-166.304,-235.87)"><path d="M235,299 L234,297 L231,296 L229,297 L228,299 L229,301 L231,302 L234,301 L235,299 z" fill-rule="evenodd" vector-effect="none"/></g><defs><clipPath id="clip130"><path d="M-7,-2 L177,-2 L177,134 L-7,134 L-7,-2 z"/></clipPath></defs><g clip-path="url(#clip130)" fill="none" opacity="1" stroke="#000000" stroke-linecap="butt" stroke-linejoin="miter" stroke-miterlimit="2" stroke-opacity="1" stroke-width="0.967197" transform="matrix(1.08696,0,0,1.08696,7.6087,2.17391)"><path d="M0,0 L170,0 L170,132 L0,132 L0,0 z" fill-rule="evenodd" vector-effect="none"/></g></g></svg>
