<?xml version="1.0" encoding="UTF-8"?><svg width="52.9167mm" height="43.1271mm" viewBox="0 0 200 163" xmlns="http://www.w3.org/2000/svg" xmlns:xlink="http://www.w3.org/1999/xlink"><g fill="none" stroke="black" stroke-width="1" fill-rule="evenodd" stroke-linecap="square" stroke-linejoin="bevel"><g clip-path="none" fill="none" opacity="1" stroke="none" stroke-opacity="0" transform="matrix(1,0,0,1,0,0)"><path d="M0,0 L200,0 L200,163 L0,163 L0,0 z" fill-rule="evenodd" vector-effect="none"/></g><defs><clipPath id="clip3"><path d="M-42,-20 L7,-20 L7,20 L-42,20 L-42,-20 z"/></clipPath></defs><g clip-path="url(#clip3)" fill="none" opacity="1" stroke="#000000" stroke-linecap="round" stroke-linejoin="miter" stroke-miterlimit="2" stroke-opacity="1" stroke-width="2" transform="matrix(4.08163,0,0,4.08163,171.429,81.6327)"><path d="M0,-5 L5,0 L0,5" fill-rule="evenodd" vector-effect="none"/></g><defs><clipPath id="clip6"><path d="M7,20 L-42,20 L-42,-20 L7,-20 L7,20 z"/></clipPath></defs><g clip-path="url(#clip6)" fill="none" opacity="1" stroke="#000000" stroke-linecap="round" stroke-linejoin="miter" stroke-miterlimit="2" stroke-opacity="1" stroke-width="2" transform="matrix(-4.08163,0,0,-4.08163,28.5714,81.6327)"><path d="M5,-5 L0,0 L5,5" fill-rule="evenodd" vector-effect="none"/></g><defs><clipPath id="clip9"><path d="M-7,-2 L42,-2 L42,38 L-7,38 L-7,-2 z"/></clipPath></defs><g clip-path="url(#clip9)" fill="#ffffff" fill-opacity="1" opacity="1" stroke="none" stroke-opacity="0" transform="matrix(4.08163,0,0,4.08163,28.5714,8.16327)"><path d="M0,0 L35,0 L35,36 L0,36 L0,0 z" fill-rule="evenodd" vector-effect="none"/></g><defs><clipPath id="clip14"><path d="M-87,-41 L92,-41 L92,143 L-87,143 L-87,-41 z"/></clipPath></defs><g clip-path="url(#clip14)" fill="none" opacity="1" stroke="#000000" stroke-linecap="butt" stroke-linejoin="miter" stroke-miterlimit="2" stroke-opacity="1" stroke-width="0.245" transform="matrix(0.797194,0,0,0.797194,97.9592,40.8163)"><text fill="#000000" fill-opacity="1" font-family="Liberation Sans" font-size="40" font-style="normal" font-weight="400" stroke="none" textLength="33" x="-21.3281" xml:space="preserve" y="17.9219"> 4</text></g><defs><clipPath id="clip17"><path d="M-87,-92 L92,-92 L92,92 L-87,92 L-87,-92 z"/></clipPath></defs><g clip-path="url(#clip17)" fill="none" opacity="1" stroke="#000000" stroke-linecap="butt" stroke-linejoin="miter" stroke-miterlimit="2" stroke-opacity="1" stroke-width="0.245" transform="matrix(0.797194,0,0,0.797194,97.9592,81.6327)"><text fill="#000000" fill-opacity="1" font-family="Liberation Sans" font-size="40" font-style="normal" font-weight="400" stroke="none" textLength="119" x="-78.2188" xml:space="preserve" y="17.9219">Delays</text></g><defs><clipPath id="clip23"><path d="M-7,-2 L42,-2 L42,38 L-7,38 L-7,-2 z"/></clipPath></defs><g clip-path="url(#clip23)" fill="none" opacity="1" stroke="#000000" stroke-linecap="butt" stroke-linejoin="miter" stroke-miterlimit="2" stroke-opacity="1" stroke-width="0.569727" transform="matrix(4.08163,0,0,4.08163,28.5714,8.16327)"><path d="M0,0 L35,0 L35,36 L0,36 L0,0 z" fill-rule="evenodd" vector-effect="none"/></g></g></svg>
