<?xml version="1.0" encoding="UTF-8"?><svg width="52.9167mm" height="26.4583mm" viewBox="0 0 200 100" xmlns="http://www.w3.org/2000/svg" xmlns:xlink="http://www.w3.org/1999/xlink"><g fill="none" stroke="black" stroke-width="1" fill-rule="evenodd" stroke-linecap="square" stroke-linejoin="bevel"><g clip-path="none" fill="none" opacity="1" stroke="none" stroke-opacity="0" transform="matrix(1,0,0,1,0,0)"><path d="M0,0 L200,0 L200,100 L0,100 L0,0 z" fill-rule="evenodd" vector-effect="none"/></g><defs><clipPath id="clip3"><path d="M7,50 L-112,50 L-112,-10 L7,-10 L7,50 z"/></clipPath></defs><g clip-path="url(#clip3)" fill="none" opacity="1" stroke="#000000" stroke-linecap="round" stroke-linejoin="miter" stroke-miterlimit="2" stroke-opacity="1" stroke-width="2" transform="matrix(-1.68067,0,0,-1.68067,11.7647,84.0336)"><path d="M5,-5 L0,0 L5,5" fill-rule="evenodd" vector-effect="none"/></g><defs><clipPath id="clip6"><path d="M7,30 L-112,30 L-112,-30 L7,-30 L7,30 z"/></clipPath></defs><g clip-path="url(#clip6)" fill="none" opacity="1" stroke="#000000" stroke-linecap="round" stroke-linejoin="miter" stroke-miterlimit="2" stroke-opacity="1" stroke-width="2" transform="matrix(-1.68067,0,0,-1.68067,11.7647,50.4202)"><path d="M5,-5 L0,0 L5,5" fill-rule="evenodd" vector-effect="none"/></g><defs><clipPath id="clip9"><path d="M-112,-30 L7,-30 L7,30 L-112,30 L-112,-30 z"/></clipPath></defs><g clip-path="url(#clip9)" fill="none" opacity="1" stroke="#000000" stroke-linecap="round" stroke-linejoin="miter" stroke-miterlimit="2" stroke-opacity="1" stroke-width="2" transform="matrix(1.68067,0,0,1.68067,188.235,50.4202)"><path d="M0,-5 L5,0 L0,5" fill-rule="evenodd" vector-effect="none"/></g><defs><clipPath id="clip12"><path d="M7,10 L-112,10 L-112,-50 L7,-50 L7,10 z"/></clipPath></defs><g clip-path="url(#clip12)" fill="none" opacity="1" stroke="#000000" stroke-linecap="round" stroke-linejoin="miter" stroke-miterlimit="2" stroke-opacity="1" stroke-width="2" transform="matrix(-1.68067,0,0,-1.68067,11.7647,16.8067)"><path d="M5,-5 L0,0 L5,5" fill-rule="evenodd" vector-effect="none"/></g><defs><clipPath id="clip15"><path d="M-7,-2 L112,-2 L112,58 L-7,58 L-7,-2 z"/></clipPath></defs><g clip-path="url(#clip15)" fill="#ffffff" fill-opacity="1" opacity="1" stroke="none" stroke-opacity="0" transform="matrix(1.68067,0,0,1.68067,11.7647,3.36134)"><path d="M0,0 L105,0 L105,56 L0,56 L0,0 z" fill-rule="evenodd" vector-effect="none"/></g><defs><clipPath id="clip20"><path d="M-15,-61 L523,-61 L523,226 L-15,226 L-15,-61 z"/></clipPath></defs><g clip-path="url(#clip20)" fill="none" opacity="1" stroke="#000000" stroke-linecap="butt" stroke-linejoin="miter" stroke-miterlimit="2" stroke-opacity="1" stroke-width="0.595" transform="matrix(0.328256,0,0,0.328256,16.8067,23.5294)"><text fill="#000000" fill-opacity="1" font-family="Liberation Sans" font-size="40" font-style="normal" font-weight="400" stroke="none" textLength="57" x="0" xml:space="preserve" y="1.28125">α β</text></g><defs><clipPath id="clip23"><path d="M-15,-164 L523,-164 L523,123 L-15,123 L-15,-164 z"/></clipPath></defs><g clip-path="url(#clip23)" fill="none" opacity="1" stroke="#000000" stroke-linecap="butt" stroke-linejoin="miter" stroke-miterlimit="2" stroke-opacity="1" stroke-width="0.595" transform="matrix(0.328256,0,0,0.328256,16.8067,57.1429)"><text fill="#000000" fill-opacity="1" font-family="Liberation Sans" font-size="40" font-style="normal" font-weight="400" stroke="none" textLength="22" x="0" xml:space="preserve" y="1.28125">d</text></g><defs><clipPath id="clip25"><path d="M-15,-164 L523,-164 L523,123 L-15,123 L-15,-164 z"/></clipPath></defs><g clip-path="url(#clip25)" fill="none" opacity="1" stroke="#000000" stroke-linecap="butt" stroke-linejoin="miter" stroke-miterlimit="2" stroke-opacity="1" stroke-width="0.595" transform="matrix(0.328256,0,0,0.328256,16.8067,57.1429)"><text fill="#000000" fill-opacity="1" font-family="Liberation Sans" font-size="40" font-style="normal" font-weight="400" stroke="none" textLength="34" x="28.4531" xml:space="preserve" y="1.28125">α/</text></g><defs><clipPath id="clip27"><path d="M-15,-164 L523,-164 L523,123 L-15,123 L-15,-164 z"/></clipPath></defs><g clip-path="url(#clip27)" fill="none" opacity="1" stroke="#000000" stroke-linecap="butt" stroke-linejoin="miter" stroke-miterlimit="2" stroke-opacity="1" stroke-width="0.595" transform="matrix(0.328256,0,0,0.328256,16.8067,57.1429)"><text fill="#000000" fill-opacity="1" font-family="Liberation Sans" font-size="40" font-style="normal" font-weight="400" stroke="none" textLength="66" x="72.2656" xml:space="preserve" y="1.28125">dt d</text></g><defs><clipPath id="clip29"><path d="M-15,-164 L523,-164 L523,123 L-15,123 L-15,-164 z"/></clipPath></defs><g clip-path="url(#clip29)" fill="none" opacity="1" stroke="#000000" stroke-linecap="butt" stroke-linejoin="miter" stroke-miterlimit="2" stroke-opacity="1" stroke-width="0.595" transform="matrix(0.328256,0,0,0.328256,16.8067,57.1429)"><text fill="#000000" fill-opacity="1" font-family="Liberation Sans" font-size="40" font-style="normal" font-weight="400" stroke="none" textLength="34" x="157.625" xml:space="preserve" y="1.28125">β/</text></g><defs><clipPath id="clip31"><path d="M-15,-164 L523,-164 L523,123 L-15,123 L-15,-164 z"/></clipPath></defs><g clip-path="url(#clip31)" fill="none" opacity="1" stroke="#000000" stroke-linecap="butt" stroke-linejoin="miter" stroke-miterlimit="2" stroke-opacity="1" stroke-width="0.595" transform="matrix(0.328256,0,0,0.328256,16.8067,57.1429)"><text fill="#000000" fill-opacity="1" font-family="Liberation Sans" font-size="40" font-style="normal" font-weight="400" stroke="none" textLength="33" x="201.297" xml:space="preserve" y="1.28125">dt</text></g><defs><clipPath id="clip34"><path d="M-15,-266 L523,-266 L523,21 L-15,21 L-15,-266 z"/></clipPath></defs><g clip-path="url(#clip34)" fill="none" opacity="1" stroke="#000000" stroke-linecap="butt" stroke-linejoin="miter" stroke-miterlimit="2" stroke-opacity="1" stroke-width="0.595" transform="matrix(0.328256,0,0,0.328256,16.8067,90.7563)"><text fill="#000000" fill-opacity="1" font-family="Liberation Sans" font-size="40" font-style="normal" font-weight="400" stroke="none" textLength="31" x="0" xml:space="preserve" y="1.28125">ω</text></g><defs><clipPath id="clip37"><path d="M-456,-148 L82,-148 L82,139 L-456,139 L-456,-148 z"/></clipPath></defs><g clip-path="url(#clip37)" fill="none" opacity="1" stroke="#000000" stroke-linecap="butt" stroke-linejoin="miter" stroke-miterlimit="2" stroke-opacity="1" stroke-width="0.595" transform="matrix(0.328256,0,0,0.328256,161.345,52.1008)"><text fill="#000000" fill-opacity="1" font-family="Liberation Sans" font-size="40" font-style="normal" font-weight="400" stroke="none" textLength="31" x="0" xml:space="preserve" y="1.28125">ω</text></g><defs><clipPath id="clip40"><path d="M-497,-174 L41,-174 L41,113 L-497,113 L-497,-174 z"/></clipPath></defs><g clip-path="url(#clip40)" fill="none" opacity="1" stroke="#000000" stroke-linecap="butt" stroke-linejoin="miter" stroke-miterlimit="2" stroke-opacity="1" stroke-width="0.595" transform="matrix(0.328256,0,0,0.328256,174.79,60.5042)"><text fill="#000000" fill-opacity="1" font-family="Liberation Sans" font-size="32" font-style="normal" font-weight="400" stroke="none" textLength="23" x="0" xml:space="preserve" y="1.28125">w</text></g><defs><clipPath id="clip46"><path d="M-7,-2 L112,-2 L112,58 L-7,58 L-7,-2 z"/></clipPath></defs><g clip-path="url(#clip46)" fill="none" opacity="1" stroke="#000000" stroke-linecap="butt" stroke-linejoin="miter" stroke-miterlimit="2" stroke-opacity="1" stroke-width="0.812469" transform="matrix(1.68067,0,0,1.68067,11.7647,3.36134)"><path d="M0,0 L105,0 L105,56 L0,56 L0,0 z" fill-rule="evenodd" vector-effect="none"/></g></g></svg>
