<?xml version="1.0" encoding="UTF-8"?><svg width="52.9167mm" height="43.3917mm" viewBox="0 0 200 164" xmlns="http://www.w3.org/2000/svg" xmlns:xlink="http://www.w3.org/1999/xlink"><g fill="none" stroke="black" stroke-width="1" fill-rule="evenodd" stroke-linecap="square" stroke-linejoin="bevel"><g clip-path="none" fill="none" opacity="1" stroke="none" stroke-opacity="0" transform="matrix(1,0,0,1,0,0)"><path d="M0,0 L200,0 L200,164 L0,164 L0,0 z" fill-rule="evenodd" vector-effect="none"/></g><defs><clipPath id="clip3"><path d="M-107,-37 L7,-37 L7,57 L-107,57 L-107,-37 z"/></clipPath></defs><g clip-path="url(#clip3)" fill="none" opacity="1" stroke="#000000" stroke-linecap="round" stroke-linejoin="miter" stroke-miterlimit="2" stroke-opacity="1" stroke-width="2" transform="matrix(1.75439,0,0,1.75439,187.719,64.9123)"><path d="M0,-5 L5,0 L0,5" fill-rule="evenodd" vector-effect="none"/></g><defs><clipPath id="clip6"><path d="M-107,-57 L7,-57 L7,37 L-107,37 L-107,-57 z"/></clipPath></defs><g clip-path="url(#clip6)" fill="none" opacity="1" stroke="#000000" stroke-linecap="round" stroke-linejoin="miter" stroke-miterlimit="2" stroke-opacity="1" stroke-width="2" transform="matrix(1.75439,0,0,1.75439,187.719,100)"><path d="M0,-5 L5,0 L0,5" fill-rule="evenodd" vector-effect="none"/></g><defs><clipPath id="clip9"><path d="M-107,-17 L7,-17 L7,77 L-107,77 L-107,-17 z"/></clipPath></defs><g clip-path="url(#clip9)" fill="none" opacity="1" stroke="#000000" stroke-linecap="round" stroke-linejoin="miter" stroke-miterlimit="2" stroke-opacity="1" stroke-width="2" transform="matrix(1.75439,0,0,1.75439,187.719,29.8246)"><path d="M0,-5 L5,0 L0,5" fill-rule="evenodd" vector-effect="none"/></g><defs><clipPath id="clip12"><path d="M7,87 L-107,87 L-107,-7 L7,-7 L7,87 z"/></clipPath></defs><g clip-path="url(#clip12)" fill="none" opacity="1" stroke="#000000" stroke-linecap="round" stroke-linejoin="miter" stroke-miterlimit="2" stroke-opacity="1" stroke-width="2" transform="matrix(-1.75439,0,0,-1.75439,12.2807,152.632)"><path d="M5,-5 L0,0 L5,5" fill-rule="evenodd" vector-effect="none"/></g><defs><clipPath id="clip15"><path d="M7,67 L-107,67 L-107,-27 L7,-27 L7,67 z"/></clipPath></defs><g clip-path="url(#clip15)" fill="none" opacity="1" stroke="#000000" stroke-linecap="round" stroke-linejoin="miter" stroke-miterlimit="2" stroke-opacity="1" stroke-width="2" transform="matrix(-1.75439,0,0,-1.75439,12.2807,117.544)"><path d="M5,-5 L0,0 L5,5" fill-rule="evenodd" vector-effect="none"/></g><defs><clipPath id="clip18"><path d="M-107,-77 L7,-77 L7,17 L-107,17 L-107,-77 z"/></clipPath></defs><g clip-path="url(#clip18)" fill="none" opacity="1" stroke="#000000" stroke-linecap="round" stroke-linejoin="miter" stroke-miterlimit="2" stroke-opacity="1" stroke-width="2" transform="matrix(1.75439,0,0,1.75439,187.719,135.088)"><path d="M0,-5 L5,0 L0,5" fill-rule="evenodd" vector-effect="none"/></g><defs><clipPath id="clip21"><path d="M7,47 L-107,47 L-107,-47 L7,-47 L7,47 z"/></clipPath></defs><g clip-path="url(#clip21)" fill="none" opacity="1" stroke="#000000" stroke-linecap="round" stroke-linejoin="miter" stroke-miterlimit="2" stroke-opacity="1" stroke-width="2" transform="matrix(-1.75439,0,0,-1.75439,12.2807,82.4561)"><path d="M5,-5 L0,0 L5,5" fill-rule="evenodd" vector-effect="none"/></g><defs><clipPath id="clip24"><path d="M7,27 L-107,27 L-107,-67 L7,-67 L7,27 z"/></clipPath></defs><g clip-path="url(#clip24)" fill="none" opacity="1" stroke="#000000" stroke-linecap="round" stroke-linejoin="miter" stroke-miterlimit="2" stroke-opacity="1" stroke-width="2" transform="matrix(-1.75439,0,0,-1.75439,12.2807,47.3684)"><path d="M5,-5 L0,0 L5,5" fill-rule="evenodd" vector-effect="none"/></g><defs><clipPath id="clip27"><path d="M7,7 L-107,7 L-107,-87 L7,-87 L7,7 z"/></clipPath></defs><g clip-path="url(#clip27)" fill="none" opacity="1" stroke="#000000" stroke-linecap="round" stroke-linejoin="miter" stroke-miterlimit="2" stroke-opacity="1" stroke-width="2" transform="matrix(-1.75439,0,0,-1.75439,12.2807,12.2807)"><path d="M5,-5 L0,0 L5,5" fill-rule="evenodd" vector-effect="none"/></g><defs><clipPath id="clip30"><path d="M-7,-2 L107,-2 L107,92 L-7,92 L-7,-2 z"/></clipPath></defs><g clip-path="url(#clip30)" fill="#ffffff" fill-opacity="1" opacity="1" stroke="none" stroke-opacity="0" transform="matrix(1.75439,0,0,1.75439,12.2807,3.50877)"><path d="M0,0 L100,0 L100,90 L0,90 L0,0 z" fill-rule="evenodd" vector-effect="none"/></g><defs><clipPath id="clip35"><path d="M-15,-46 L497,-46 L497,415 L-15,415 L-15,-46 z"/></clipPath></defs><g clip-path="url(#clip35)" fill="none" opacity="1" stroke="#000000" stroke-linecap="butt" stroke-linejoin="miter" stroke-miterlimit="2" stroke-opacity="1" stroke-width="0.57" transform="matrix(0.342654,0,0,0.342654,17.5439,19.2982)"><text fill="#000000" fill-opacity="1" font-family="Liberation Sans" font-size="40" font-style="normal" font-weight="400" stroke="none" textLength="96" x="0" xml:space="preserve" y="1.28125">Mach</text></g><defs><clipPath id="clip38"><path d="M-15,-148 L497,-148 L497,313 L-15,313 L-15,-148 z"/></clipPath></defs><g clip-path="url(#clip38)" fill="none" opacity="1" stroke="#000000" stroke-linecap="butt" stroke-linejoin="miter" stroke-miterlimit="2" stroke-opacity="1" stroke-width="0.57" transform="matrix(0.342654,0,0,0.342654,17.5439,54.386)"><text fill="#000000" fill-opacity="1" font-family="Liberation Sans" font-size="40" font-style="normal" font-weight="400" stroke="none" textLength="20" x="0" xml:space="preserve" y="1.28125">γ</text></g><defs><clipPath id="clip41"><path d="M-15,-236 L497,-236 L497,225 L-15,225 L-15,-236 z"/></clipPath></defs><g clip-path="url(#clip41)" fill="none" opacity="1" stroke="#000000" stroke-linecap="butt" stroke-linejoin="miter" stroke-miterlimit="2" stroke-opacity="1" stroke-width="0.57" transform="matrix(0.342654,0,0,0.342654,17.5439,84.2105)"><text fill="#000000" fill-opacity="1" font-family="Liberation Sans" font-size="40" font-style="normal" font-weight="400" stroke="none" textLength="24" x="0" xml:space="preserve" y="1.28125">T</text></g><defs><clipPath id="clip44"><path d="M-51,-261 L461,-261 L461,200 L-51,200 L-51,-261 z"/></clipPath></defs><g clip-path="url(#clip44)" fill="none" opacity="1" stroke="#000000" stroke-linecap="butt" stroke-linejoin="miter" stroke-miterlimit="2" stroke-opacity="1" stroke-width="0.57" transform="matrix(0.342654,0,0,0.342654,29.8246,92.9825)"><text fill="#000000" fill-opacity="1" font-family="Liberation Sans" font-size="32" font-style="normal" font-weight="400" stroke="none" textLength="17" x="0" xml:space="preserve" y="1.28125">o</text></g><defs><clipPath id="clip47"><path d="M-72,-236 L440,-236 L440,225 L-72,225 L-72,-236 z"/></clipPath></defs><g clip-path="url(#clip47)" fill="none" opacity="1" stroke="#000000" stroke-linecap="butt" stroke-linejoin="miter" stroke-miterlimit="2" stroke-opacity="1" stroke-width="0.57" transform="matrix(0.342654,0,0,0.342654,36.8421,84.2105)"><text fill="#000000" fill-opacity="1" font-family="Liberation Sans" font-size="40" font-style="normal" font-weight="400" stroke="none" textLength="64" x="0" xml:space="preserve" y="1.28125"> (K)</text></g><defs><clipPath id="clip50"><path d="M-15,-338 L497,-338 L497,123 L-15,123 L-15,-338 z"/></clipPath></defs><g clip-path="url(#clip50)" fill="none" opacity="1" stroke="#000000" stroke-linecap="butt" stroke-linejoin="miter" stroke-miterlimit="2" stroke-opacity="1" stroke-width="0.57" transform="matrix(0.342654,0,0,0.342654,17.5439,119.298)"><text fill="#000000" fill-opacity="1" font-family="Liberation Sans" font-size="40" font-style="normal" font-weight="400" stroke="none" textLength="27" x="0" xml:space="preserve" y="1.28125">P</text></g><defs><clipPath id="clip53"><path d="M-51,-364 L461,-364 L461,97 L-51,97 L-51,-364 z"/></clipPath></defs><g clip-path="url(#clip53)" fill="none" opacity="1" stroke="#000000" stroke-linecap="butt" stroke-linejoin="miter" stroke-miterlimit="2" stroke-opacity="1" stroke-width="0.57" transform="matrix(0.342654,0,0,0.342654,29.8246,128.07)"><text fill="#000000" fill-opacity="1" font-family="Liberation Sans" font-size="32" font-style="normal" font-weight="400" stroke="none" textLength="17" x="0" xml:space="preserve" y="1.28125">o</text></g><defs><clipPath id="clip56"><path d="M-72,-338 L440,-338 L440,123 L-72,123 L-72,-338 z"/></clipPath></defs><g clip-path="url(#clip56)" fill="none" opacity="1" stroke="#000000" stroke-linecap="butt" stroke-linejoin="miter" stroke-miterlimit="2" stroke-opacity="1" stroke-width="0.57" transform="matrix(0.342654,0,0,0.342654,36.8421,119.298)"><text fill="#000000" fill-opacity="1" font-family="Liberation Sans" font-size="40" font-style="normal" font-weight="400" stroke="none" textLength="86" x="0" xml:space="preserve" y="1.28125"> (Pa)</text></g><defs><clipPath id="clip59"><path d="M-15,-451 L497,-451 L497,10 L-15,10 L-15,-451 z"/></clipPath></defs><g clip-path="url(#clip59)" fill="none" opacity="1" stroke="#000000" stroke-linecap="butt" stroke-linejoin="miter" stroke-miterlimit="2" stroke-opacity="1" stroke-width="0.57" transform="matrix(0.342654,0,0,0.342654,17.5439,157.895)"><text fill="#000000" fill-opacity="1" font-family="Liberation Sans" font-size="40" font-style="normal" font-weight="400" stroke="none" textLength="23" x="0" xml:space="preserve" y="1.28125">ρ</text></g><defs><clipPath id="clip62"><path d="M-46,-456 L466,-456 L466,5 L-46,5 L-46,-456 z"/></clipPath></defs><g clip-path="url(#clip62)" fill="none" opacity="1" stroke="#000000" stroke-linecap="butt" stroke-linejoin="miter" stroke-miterlimit="2" stroke-opacity="1" stroke-width="0.57" transform="matrix(0.342654,0,0,0.342654,28.0702,159.649)"><text fill="#000000" fill-opacity="1" font-family="Liberation Sans" font-size="32" font-style="normal" font-weight="400" stroke="none" textLength="17" x="0" xml:space="preserve" y="1.28125">o</text></g><defs><clipPath id="clip65"><path d="M-67,-451 L445,-451 L445,10 L-67,10 L-67,-451 z"/></clipPath></defs><g clip-path="url(#clip65)" fill="none" opacity="1" stroke="#000000" stroke-linecap="butt" stroke-linejoin="miter" stroke-miterlimit="2" stroke-opacity="1" stroke-width="0.57" transform="matrix(0.342654,0,0,0.342654,35.0877,157.895)"><text fill="#000000" fill-opacity="1" font-family="Liberation Sans" font-size="40" font-style="normal" font-weight="400" stroke="none" textLength="111" x="0" xml:space="preserve" y="1.28125"> (kg/m</text></g><defs><clipPath id="clip68"><path d="M-210,-425 L302,-425 L302,36 L-210,36 L-210,-425 z"/></clipPath></defs><g clip-path="url(#clip68)" fill="none" opacity="1" stroke="#000000" stroke-linecap="butt" stroke-linejoin="miter" stroke-miterlimit="2" stroke-opacity="1" stroke-width="0.57" transform="matrix(0.342654,0,0,0.342654,84.2105,149.123)"><text fill="#000000" fill-opacity="1" font-family="Liberation Sans" font-size="32" font-style="normal" font-weight="400" stroke="none" textLength="18" x="0" xml:space="preserve" y="1.28125">3</text></g><defs><clipPath id="clip71"><path d="M-230,-451 L282,-451 L282,10 L-230,10 L-230,-451 z"/></clipPath></defs><g clip-path="url(#clip71)" fill="none" opacity="1" stroke="#000000" stroke-linecap="butt" stroke-linejoin="miter" stroke-miterlimit="2" stroke-opacity="1" stroke-width="0.57" transform="matrix(0.342654,0,0,0.342654,91.2281,157.895)"><text fill="#000000" fill-opacity="1" font-family="Liberation Sans" font-size="40" font-style="normal" font-weight="400" stroke="none" textLength="13" x="0" xml:space="preserve" y="1.28125">)</text></g><defs><clipPath id="clip74"><path d="M-466,-97 L46,-97 L46,364 L-466,364 L-466,-97 z"/></clipPath></defs><g clip-path="url(#clip74)" fill="none" opacity="1" stroke="#000000" stroke-linecap="butt" stroke-linejoin="miter" stroke-miterlimit="2" stroke-opacity="1" stroke-width="0.57" transform="matrix(0.342654,0,0,0.342654,171.93,36.8421)"><text fill="#000000" fill-opacity="1" font-family="Liberation Sans" font-size="40" font-style="normal" font-weight="400" stroke="none" textLength="22" x="0" xml:space="preserve" y="1.28125">θ</text></g><defs><clipPath id="clip77"><path d="M-353,-200 L159,-200 L159,261 L-353,261 L-353,-200 z"/></clipPath></defs><g clip-path="url(#clip77)" fill="none" opacity="1" stroke="#000000" stroke-linecap="butt" stroke-linejoin="miter" stroke-miterlimit="2" stroke-opacity="1" stroke-width="0.57" transform="matrix(0.342654,0,0,0.342654,133.333,71.9298)"><text fill="#000000" fill-opacity="1" font-family="Liberation Sans" font-size="40" font-style="normal" font-weight="400" stroke="none" textLength="78" x="0" xml:space="preserve" y="1.28125">sqrt(</text></g><defs><clipPath id="clip79"><path d="M-353,-200 L159,-200 L159,261 L-353,261 L-353,-200 z"/></clipPath></defs><g clip-path="url(#clip79)" fill="none" opacity="1" stroke="#000000" stroke-linecap="butt" stroke-linejoin="miter" stroke-miterlimit="2" stroke-opacity="1" stroke-width="0.57" transform="matrix(0.342654,0,0,0.342654,133.333,71.9298)"><text fill="#000000" fill-opacity="1" font-family="Liberation Sans" font-size="40" font-style="normal" font-weight="400" stroke="none" textLength="35" x="102.359" xml:space="preserve" y="1.28125">θ)</text></g><defs><clipPath id="clip82"><path d="M-466,-302 L46,-302 L46,159 L-466,159 L-466,-302 z"/></clipPath></defs><g clip-path="url(#clip82)" fill="none" opacity="1" stroke="#000000" stroke-linecap="butt" stroke-linejoin="miter" stroke-miterlimit="2" stroke-opacity="1" stroke-width="0.57" transform="matrix(0.342654,0,0,0.342654,171.93,107.018)"><text fill="#000000" fill-opacity="1" font-family="Liberation Sans" font-size="40" font-style="normal" font-weight="400" stroke="none" textLength="22" x="0" xml:space="preserve" y="1.28125">δ</text></g><defs><clipPath id="clip85"><path d="M-466,-404 L46,-404 L46,57 L-466,57 L-466,-404 z"/></clipPath></defs><g clip-path="url(#clip85)" fill="none" opacity="1" stroke="#000000" stroke-linecap="butt" stroke-linejoin="miter" stroke-miterlimit="2" stroke-opacity="1" stroke-width="0.57" transform="matrix(0.342654,0,0,0.342654,171.93,142.105)"><text fill="#000000" fill-opacity="1" font-family="Liberation Sans" font-size="40" font-style="normal" font-weight="400" stroke="none" textLength="25" x="0" xml:space="preserve" y="1.28125">σ</text></g><defs><clipPath id="clip91"><path d="M-7,-2 L107,-2 L107,92 L-7,92 L-7,-2 z"/></clipPath></defs><g clip-path="url(#clip91)" fill="none" opacity="1" stroke="#000000" stroke-linecap="butt" stroke-linejoin="miter" stroke-miterlimit="2" stroke-opacity="1" stroke-width="0.798638" transform="matrix(1.75439,0,0,1.75439,12.2807,3.50877)"><path d="M0,0 L100,0 L100,90 L0,90 L0,0 z" fill-rule="evenodd" vector-effect="none"/></g></g></svg>
