<?xml version="1.0" encoding="UTF-8"?><svg width="52.9167mm" height="26.9875mm" viewBox="0 0 200 102" xmlns="http://www.w3.org/2000/svg" xmlns:xlink="http://www.w3.org/1999/xlink"><g fill="none" stroke="black" stroke-width="1" fill-rule="evenodd" stroke-linecap="square" stroke-linejoin="bevel"><g clip-path="none" fill="none" opacity="1" stroke="none" stroke-opacity="0" transform="matrix(1,0,0,1,0,0)"><path d="M0,0 L200,0 L200,102 L0,102 L0,0 z" fill-rule="evenodd" vector-effect="none"/></g><defs><clipPath id="clip3"><path d="M7,43 L-102,43 L-102,-13 L7,-13 L7,43 z"/></clipPath></defs><g clip-path="url(#clip3)" fill="none" opacity="1" stroke="#000000" stroke-linecap="round" stroke-linejoin="miter" stroke-miterlimit="2" stroke-opacity="1" stroke-width="2" transform="matrix(-1.83486,0,0,-1.83486,12.844,78.8991)"><path d="M5,-5 L0,0 L5,5" fill-rule="evenodd" vector-effect="none"/></g><defs><clipPath id="clip6"><path d="M7,28 L-102,28 L-102,-28 L7,-28 L7,28 z"/></clipPath></defs><g clip-path="url(#clip6)" fill="none" opacity="1" stroke="#000000" stroke-linecap="round" stroke-linejoin="miter" stroke-miterlimit="2" stroke-opacity="1" stroke-width="2" transform="matrix(-1.83486,0,0,-1.83486,12.844,51.3761)"><path d="M5,-5 L0,0 L5,5" fill-rule="evenodd" vector-effect="none"/></g><defs><clipPath id="clip9"><path d="M-102,-28 L7,-28 L7,28 L-102,28 L-102,-28 z"/></clipPath></defs><g clip-path="url(#clip9)" fill="none" opacity="1" stroke="#000000" stroke-linecap="round" stroke-linejoin="miter" stroke-miterlimit="2" stroke-opacity="1" stroke-width="2" transform="matrix(1.83486,0,0,1.83486,187.156,51.3761)"><path d="M0,-5 L5,0 L0,5" fill-rule="evenodd" vector-effect="none"/></g><defs><clipPath id="clip12"><path d="M7,13 L-102,13 L-102,-43 L7,-43 L7,13 z"/></clipPath></defs><g clip-path="url(#clip12)" fill="none" opacity="1" stroke="#000000" stroke-linecap="round" stroke-linejoin="miter" stroke-miterlimit="2" stroke-opacity="1" stroke-width="2" transform="matrix(-1.83486,0,0,-1.83486,12.844,23.8532)"><path d="M5,-5 L0,0 L5,5" fill-rule="evenodd" vector-effect="none"/></g><defs><clipPath id="clip15"><path d="M-7,-2 L102,-2 L102,54 L-7,54 L-7,-2 z"/></clipPath></defs><g clip-path="url(#clip15)" fill="#ffffff" fill-opacity="1" opacity="1" stroke="none" stroke-opacity="0" transform="matrix(1.83486,0,0,1.83486,12.844,3.66972)"><path d="M0,0 L95,0 L95,52 L0,52 L0,0 z" fill-rule="evenodd" vector-effect="none"/></g><defs><clipPath id="clip20"><path d="M-15,-56 L471,-56 L471,210 L-15,210 L-15,-56 z"/></clipPath></defs><g clip-path="url(#clip20)" fill="none" opacity="1" stroke="#000000" stroke-linecap="butt" stroke-linejoin="miter" stroke-miterlimit="2" stroke-opacity="1" stroke-width="0.545" transform="matrix(0.358372,0,0,0.358372,18.3486,23.8532)"><text fill="#000000" fill-opacity="1" font-family="Liberation Sans" font-size="40" font-style="normal" font-weight="400" stroke="none" textLength="19" x="0" xml:space="preserve" y="17.9219">y</text></g><defs><clipPath id="clip23"><path d="M-15,-133 L471,-133 L471,133 L-15,133 L-15,-133 z"/></clipPath></defs><g clip-path="url(#clip23)" fill="none" opacity="1" stroke="#000000" stroke-linecap="butt" stroke-linejoin="miter" stroke-miterlimit="2" stroke-opacity="1" stroke-width="0.545" transform="matrix(0.358372,0,0,0.358372,18.3486,51.3761)"><text fill="#000000" fill-opacity="1" font-family="Liberation Sans" font-size="40" font-style="normal" font-weight="400" stroke="none" textLength="41" x="0" xml:space="preserve" y="17.9219">v1</text></g><defs><clipPath id="clip26"><path d="M-15,-210 L471,-210 L471,56 L-15,56 L-15,-210 z"/></clipPath></defs><g clip-path="url(#clip26)" fill="none" opacity="1" stroke="#000000" stroke-linecap="butt" stroke-linejoin="miter" stroke-miterlimit="2" stroke-opacity="1" stroke-width="0.545" transform="matrix(0.358372,0,0,0.358372,18.3486,78.8991)"><text fill="#000000" fill-opacity="1" font-family="Liberation Sans" font-size="40" font-style="normal" font-weight="400" stroke="none" textLength="41" x="0" xml:space="preserve" y="17.9219">v2</text></g><defs><clipPath id="clip29"><path d="M-471,-133 L15,-133 L15,133 L-471,133 L-471,-133 z"/></clipPath></defs><g clip-path="url(#clip29)" fill="none" opacity="1" stroke="#000000" stroke-linecap="butt" stroke-linejoin="miter" stroke-miterlimit="2" stroke-opacity="1" stroke-width="0.545" transform="matrix(0.358372,0,0,0.358372,181.651,51.3761)"><text fill="#000000" fill-opacity="1" font-family="Liberation Sans" font-size="40" font-style="normal" font-weight="400" stroke="none" textLength="21" x="-28.4531" xml:space="preserve" y="17.9219">u</text></g><defs><clipPath id="clip35"><path d="M-7,-2 L102,-2 L102,54 L-7,54 L-7,-2 z"/></clipPath></defs><g clip-path="url(#clip35)" fill="none" opacity="1" stroke="#000000" stroke-linecap="butt" stroke-linejoin="miter" stroke-miterlimit="2" stroke-opacity="1" stroke-width="0.784438" transform="matrix(1.83486,0,0,1.83486,12.844,3.66972)"><path d="M0,0 L95,0 L95,52 L0,52 L0,0 z" fill-rule="evenodd" vector-effect="none"/></g></g></svg>
