<?xml version="1.0" encoding="UTF-8"?><svg width="52.9167mm" height="34.1313mm" viewBox="0 0 200 129" xmlns="http://www.w3.org/2000/svg" xmlns:xlink="http://www.w3.org/1999/xlink"><g fill="none" stroke="black" stroke-width="1" fill-rule="evenodd" stroke-linecap="square" stroke-linejoin="bevel"><g clip-path="none" fill="none" opacity="1" stroke="none" stroke-opacity="0" transform="matrix(1,0,0,1,0,0)"><path d="M0,0 L200,0 L200,129 L0,129 L0,0 z" fill-rule="evenodd" vector-effect="none"/></g><defs><clipPath id="clip3"><path d="M7,52 L-92,52 L-92,-12 L7,-12 L7,52 z"/></clipPath></defs><g clip-path="url(#clip3)" fill="none" opacity="1" stroke="#000000" stroke-linecap="round" stroke-linejoin="miter" stroke-miterlimit="2" stroke-opacity="1" stroke-width="2" transform="matrix(-2.0202,0,0,-2.0202,14.1414,105.051)"><path d="M5,-5 L0,0 L5,5" fill-rule="evenodd" vector-effect="none"/></g><defs><clipPath id="clip6"><path d="M7,42 L-92,42 L-92,-22 L7,-22 L7,42 z"/></clipPath></defs><g clip-path="url(#clip6)" fill="none" opacity="1" stroke="#000000" stroke-linecap="round" stroke-linejoin="miter" stroke-miterlimit="2" stroke-opacity="1" stroke-width="2" transform="matrix(-2.0202,0,0,-2.0202,14.1414,84.8485)"><path d="M5,-5 L0,0 L5,5" fill-rule="evenodd" vector-effect="none"/></g><defs><clipPath id="clip9"><path d="M7,32 L-92,32 L-92,-32 L7,-32 L7,32 z"/></clipPath></defs><g clip-path="url(#clip9)" fill="none" opacity="1" stroke="#000000" stroke-linecap="round" stroke-linejoin="miter" stroke-miterlimit="2" stroke-opacity="1" stroke-width="2" transform="matrix(-2.0202,0,0,-2.0202,14.1414,64.6465)"><path d="M5,-5 L0,0 L5,5" fill-rule="evenodd" vector-effect="none"/></g><defs><clipPath id="clip12"><path d="M7,22 L-92,22 L-92,-42 L7,-42 L7,22 z"/></clipPath></defs><g clip-path="url(#clip12)" fill="none" opacity="1" stroke="#000000" stroke-linecap="round" stroke-linejoin="miter" stroke-miterlimit="2" stroke-opacity="1" stroke-width="2" transform="matrix(-2.0202,0,0,-2.0202,14.1414,44.4444)"><path d="M5,-5 L0,0 L5,5" fill-rule="evenodd" vector-effect="none"/></g><defs><clipPath id="clip15"><path d="M7,12 L-92,12 L-92,-52 L7,-52 L7,12 z"/></clipPath></defs><g clip-path="url(#clip15)" fill="none" opacity="1" stroke="#000000" stroke-linecap="round" stroke-linejoin="miter" stroke-miterlimit="2" stroke-opacity="1" stroke-width="2" transform="matrix(-2.0202,0,0,-2.0202,14.1414,24.2424)"><path d="M5,-5 L0,0 L5,5" fill-rule="evenodd" vector-effect="none"/></g><defs><clipPath id="clip18"><path d="M-92,-32 L7,-32 L7,32 L-92,32 L-92,-32 z"/></clipPath></defs><g clip-path="url(#clip18)" fill="none" opacity="1" stroke="#000000" stroke-linecap="round" stroke-linejoin="miter" stroke-miterlimit="2" stroke-opacity="1" stroke-width="2" transform="matrix(2.0202,0,0,2.0202,185.859,64.6465)"><path d="M0,-5 L5,0 L0,5" fill-rule="evenodd" vector-effect="none"/></g><defs><clipPath id="clip21"><path d="M-7,-2 L92,-2 L92,62 L-7,62 L-7,-2 z"/></clipPath></defs><g clip-path="url(#clip21)" fill="#ffffff" fill-opacity="1" opacity="1" stroke="none" stroke-opacity="0" transform="matrix(2.0202,0,0,2.0202,14.1414,4.0404)"><path d="M0,0 L85,0 L85,60 L0,60 L0,0 z" fill-rule="evenodd" vector-effect="none"/></g><defs><clipPath id="clip26"><path d="M-15,-51 L420,-51 L420,256 L-15,256 L-15,-51 z"/></clipPath></defs><g clip-path="url(#clip26)" fill="none" opacity="1" stroke="#000000" stroke-linecap="butt" stroke-linejoin="miter" stroke-miterlimit="2" stroke-opacity="1" stroke-width="0.495" transform="matrix(0.394571,0,0,0.394571,20.202,24.2424)"><text fill="#000000" fill-opacity="1" font-family="Liberation Sans" font-size="36" font-style="normal" font-weight="400" stroke="none" textLength="17" x="0" xml:space="preserve" y="16">y</text></g><defs><clipPath id="clip29"><path d="M-15,-102 L420,-102 L420,205 L-15,205 L-15,-102 z"/></clipPath></defs><g clip-path="url(#clip29)" fill="none" opacity="1" stroke="#000000" stroke-linecap="butt" stroke-linejoin="miter" stroke-miterlimit="2" stroke-opacity="1" stroke-width="0.495" transform="matrix(0.394571,0,0,0.394571,20.202,44.4444)"><text fill="#000000" fill-opacity="1" font-family="Liberation Sans" font-size="36" font-style="normal" font-weight="400" stroke="none" textLength="37" x="0" xml:space="preserve" y="16">v1</text></g><defs><clipPath id="clip32"><path d="M-15,-154 L420,-154 L420,153 L-15,153 L-15,-154 z"/></clipPath></defs><g clip-path="url(#clip32)" fill="none" opacity="1" stroke="#000000" stroke-linecap="butt" stroke-linejoin="miter" stroke-miterlimit="2" stroke-opacity="1" stroke-width="0.495" transform="matrix(0.394571,0,0,0.394571,20.202,64.6465)"><text fill="#000000" fill-opacity="1" font-family="Liberation Sans" font-size="36" font-style="normal" font-weight="400" stroke="none" textLength="37" x="0" xml:space="preserve" y="16">v2</text></g><defs><clipPath id="clip35"><path d="M-15,-205 L420,-205 L420,102 L-15,102 L-15,-205 z"/></clipPath></defs><g clip-path="url(#clip35)" fill="none" opacity="1" stroke="#000000" stroke-linecap="butt" stroke-linejoin="miter" stroke-miterlimit="2" stroke-opacity="1" stroke-width="0.495" transform="matrix(0.394571,0,0,0.394571,20.202,84.8485)"><text fill="#000000" fill-opacity="1" font-family="Liberation Sans" font-size="36" font-style="normal" font-weight="400" stroke="none" textLength="37" x="0" xml:space="preserve" y="16">v3</text></g><defs><clipPath id="clip38"><path d="M-15,-256 L420,-256 L420,51 L-15,51 L-15,-256 z"/></clipPath></defs><g clip-path="url(#clip38)" fill="none" opacity="1" stroke="#000000" stroke-linecap="butt" stroke-linejoin="miter" stroke-miterlimit="2" stroke-opacity="1" stroke-width="0.495" transform="matrix(0.394571,0,0,0.394571,20.202,105.051)"><text fill="#000000" fill-opacity="1" font-family="Liberation Sans" font-size="36" font-style="normal" font-weight="400" stroke="none" textLength="128" x="0" xml:space="preserve" y="16">u_meas</text></g><defs><clipPath id="clip41"><path d="M-420,-154 L15,-154 L15,153 L-420,153 L-420,-154 z"/></clipPath></defs><g clip-path="url(#clip41)" fill="none" opacity="1" stroke="#000000" stroke-linecap="butt" stroke-linejoin="miter" stroke-miterlimit="2" stroke-opacity="1" stroke-width="0.495" transform="matrix(0.394571,0,0,0.394571,179.798,64.6465)"><text fill="#000000" fill-opacity="1" font-family="Liberation Sans" font-size="36" font-style="normal" font-weight="400" stroke="none" textLength="110" x="-140.859" xml:space="preserve" y="16">u_dem</text></g><defs><clipPath id="clip47"><path d="M-7,-2 L92,-2 L92,62 L-7,62 L-7,-2 z"/></clipPath></defs><g clip-path="url(#clip47)" fill="none" opacity="1" stroke="#000000" stroke-linecap="butt" stroke-linejoin="miter" stroke-miterlimit="2" stroke-opacity="1" stroke-width="0.754818" transform="matrix(2.0202,0,0,2.0202,14.1414,4.0404)"><path d="M0,0 L85,0 L85,60 L0,60 L0,0 z" fill-rule="evenodd" vector-effect="none"/></g></g></svg>
