<?xml version="1.0" encoding="UTF-8"?><svg width="52.9167mm" height="33.8667mm" viewBox="0 0 200 128" xmlns="http://www.w3.org/2000/svg" xmlns:xlink="http://www.w3.org/1999/xlink"><g fill="none" stroke="black" stroke-width="1" fill-rule="evenodd" stroke-linecap="square" stroke-linejoin="bevel"><g clip-path="none" fill="none" opacity="1" stroke="none" stroke-opacity="0" transform="matrix(1,0,0,1,0,0)"><path d="M0,0 L200,0 L200,128 L0,128 L0,0 z" fill-rule="evenodd" vector-effect="none"/></g><defs><clipPath id="clip3"><path d="M7,55 L-102,55 L-102,-15 L7,-15 L7,55 z"/></clipPath></defs><g clip-path="url(#clip3)" fill="none" opacity="1" stroke="#000000" stroke-linecap="round" stroke-linejoin="miter" stroke-miterlimit="2" stroke-opacity="1" stroke-width="2" transform="matrix(-1.83486,0,0,-1.83486,12.844,100.917)"><path d="M5,-5 L0,0 L5,5" fill-rule="evenodd" vector-effect="none"/></g><defs><clipPath id="clip6"><path d="M-102,-35 L7,-35 L7,35 L-102,35 L-102,-35 z"/></clipPath></defs><g clip-path="url(#clip6)" fill="none" opacity="1" stroke="#000000" stroke-linecap="round" stroke-linejoin="miter" stroke-miterlimit="2" stroke-opacity="1" stroke-width="2" transform="matrix(1.83486,0,0,1.83486,187.156,64.2202)"><path d="M0,-5 L5,0 L0,5" fill-rule="evenodd" vector-effect="none"/></g><defs><clipPath id="clip9"><path d="M7,35 L-102,35 L-102,-35 L7,-35 L7,35 z"/></clipPath></defs><g clip-path="url(#clip9)" fill="none" opacity="1" stroke="#000000" stroke-linecap="round" stroke-linejoin="miter" stroke-miterlimit="2" stroke-opacity="1" stroke-width="2" transform="matrix(-1.83486,0,0,-1.83486,12.844,64.2202)"><path d="M5,-5 L0,0 L5,5" fill-rule="evenodd" vector-effect="none"/></g><defs><clipPath id="clip12"><path d="M7,15 L-102,15 L-102,-55 L7,-55 L7,15 z"/></clipPath></defs><g clip-path="url(#clip12)" fill="none" opacity="1" stroke="#000000" stroke-linecap="round" stroke-linejoin="miter" stroke-miterlimit="2" stroke-opacity="1" stroke-width="2" transform="matrix(-1.83486,0,0,-1.83486,12.844,27.5229)"><path d="M5,-5 L0,0 L5,5" fill-rule="evenodd" vector-effect="none"/></g><defs><clipPath id="clip15"><path d="M-7,-2 L102,-2 L102,68 L-7,68 L-7,-2 z"/></clipPath></defs><g clip-path="url(#clip15)" fill="#ffffff" fill-opacity="1" opacity="1" stroke="none" stroke-opacity="0" transform="matrix(1.83486,0,0,1.83486,12.844,3.66972)"><path d="M0,0 L95,0 L95,66 L0,66 L0,0 z" fill-rule="evenodd" vector-effect="none"/></g><defs><clipPath id="clip20"><path d="M-15,-87 L471,-87 L471,251 L-15,251 L-15,-87 z"/></clipPath></defs><g clip-path="url(#clip20)" fill="none" opacity="1" stroke="#000000" stroke-linecap="butt" stroke-linejoin="miter" stroke-miterlimit="2" stroke-opacity="1" stroke-width="0.545" transform="matrix(0.358372,0,0,0.358372,18.3486,34.8624)"><text fill="#000000" fill-opacity="1" font-family="Liberation Sans" font-size="40" font-style="normal" font-weight="400" stroke="none" textLength="24" x="0" xml:space="preserve" y="1.28125">F</text></g><defs><clipPath id="clip23"><path d="M-15,-189 L471,-189 L471,149 L-15,149 L-15,-189 z"/></clipPath></defs><g clip-path="url(#clip23)" fill="none" opacity="1" stroke="#000000" stroke-linecap="butt" stroke-linejoin="miter" stroke-miterlimit="2" stroke-opacity="1" stroke-width="0.545" transform="matrix(0.358372,0,0,0.358372,18.3486,71.5596)"><text fill="#000000" fill-opacity="1" font-family="Liberation Sans" font-size="40" font-style="normal" font-weight="400" stroke="none" textLength="60" x="0" xml:space="preserve" y="1.28125">CG</text></g><defs><clipPath id="clip26"><path d="M-15,-292 L471,-292 L471,46 L-15,46 L-15,-292 z"/></clipPath></defs><g clip-path="url(#clip26)" fill="none" opacity="1" stroke="#000000" stroke-linecap="butt" stroke-linejoin="miter" stroke-miterlimit="2" stroke-opacity="1" stroke-width="0.545" transform="matrix(0.358372,0,0,0.358372,18.3486,108.257)"><text fill="#000000" fill-opacity="1" font-family="Liberation Sans" font-size="40" font-style="normal" font-weight="400" stroke="none" textLength="56" x="0" xml:space="preserve" y="1.28125">CP</text></g><defs><clipPath id="clip29"><path d="M-425,-189 L61,-189 L61,149 L-425,149 L-425,-189 z"/></clipPath></defs><g clip-path="url(#clip29)" fill="none" opacity="1" stroke="#000000" stroke-linecap="butt" stroke-linejoin="miter" stroke-miterlimit="2" stroke-opacity="1" stroke-width="0.545" transform="matrix(0.358372,0,0,0.358372,165.138,71.5596)"><text fill="#000000" fill-opacity="1" font-family="Liberation Sans" font-size="40" font-style="normal" font-weight="400" stroke="none" textLength="33" x="0" xml:space="preserve" y="1.28125">M</text></g><defs><clipPath id="clip31"><path d="M55,152 L150,152 L150,218 L55,218 L55,152 z"/></clipPath></defs><g clip-path="url(#clip31)" fill="#000000" fill-opacity="1" opacity="1" stroke="#000000" stroke-linecap="butt" stroke-linejoin="miter" stroke-miterlimit="2" stroke-opacity="1" stroke-width="0.545" transform="matrix(1.83486,0,0,1.83486,-88.0734,-275.229)"><path d="M102,196 L99,196 L96,195 L94,193 L92,190 L91,188 L90,185 L91,181 L92,179 L94,176 L96,174 L99,173 L102,173 L105,173 L108,174 L110,176 L112,179 L113,181 L114,185 L113,188 L112,190 L110,193 L108,195 L105,196 L102,196 z" fill-rule="evenodd" vector-effect="none"/></g><defs><clipPath id="clip32"><path d="M55,152 L150,152 L150,218 L55,218 L55,152 z"/></clipPath></defs><g clip-path="url(#clip32)" fill="#ffffff" fill-opacity="1" opacity="1" stroke="#ffffff" stroke-linecap="square" stroke-linejoin="bevel" stroke-opacity="1" stroke-width="1" transform="matrix(1.83486,0,0,1.83486,-88.0734,-275.229)"><path d="M102,184 L112,184 L112,182 L111,179 L109,177 L107,175 L105,174 L102,174 L102,184 L102,195 L99,195 L97,194 L95,192 L93,190 L92,187 L92,184 L102,184 z" fill-rule="evenodd" vector-effect="none"/></g><defs><clipPath id="clip33"><path d="M54,152 L149,152 L149,218 L54,218 L54,152 z"/></clipPath></defs><g clip-path="url(#clip33)" fill="#ffffff" fill-opacity="1" opacity="1" stroke="#000000" stroke-linecap="square" stroke-linejoin="bevel" stroke-opacity="1" stroke-width="1" transform="matrix(1.83486,0,0,1.83486,-87.156,-274.312)"><polyline fill="none" points="91,185 84,185" vector-effect="none"/></g><defs><clipPath id="clip34"><path d="M54,152 L149,152 L149,218 L54,218 L54,152 z"/></clipPath></defs><g clip-path="url(#clip34)" fill="#ffffff" fill-opacity="1" opacity="1" stroke="#000000" stroke-linecap="square" stroke-linejoin="bevel" stroke-opacity="1" stroke-width="1" transform="matrix(1.83486,0,0,1.83486,-87.156,-274.312)"><polyline fill="none" points="84,185 85,190" vector-effect="none"/></g><defs><clipPath id="clip35"><path d="M54,152 L149,152 L149,218 L54,218 L54,152 z"/></clipPath></defs><g clip-path="url(#clip35)" fill="#ffffff" fill-opacity="1" opacity="1" stroke="#000000" stroke-linecap="square" stroke-linejoin="bevel" stroke-opacity="1" stroke-width="1" transform="matrix(1.83486,0,0,1.83486,-87.156,-274.312)"><polyline fill="none" points="85,190 86,194" vector-effect="none"/></g><defs><clipPath id="clip36"><path d="M54,152 L149,152 L149,218 L54,218 L54,152 z"/></clipPath></defs><g clip-path="url(#clip36)" fill="#ffffff" fill-opacity="1" opacity="1" stroke="#000000" stroke-linecap="square" stroke-linejoin="bevel" stroke-opacity="1" stroke-width="1" transform="matrix(1.83486,0,0,1.83486,-87.156,-274.312)"><polyline fill="none" points="86,194 89,198" vector-effect="none"/></g><defs><clipPath id="clip37"><path d="M54,152 L149,152 L149,218 L54,218 L54,152 z"/></clipPath></defs><g clip-path="url(#clip37)" fill="#ffffff" fill-opacity="1" opacity="1" stroke="#000000" stroke-linecap="square" stroke-linejoin="bevel" stroke-opacity="1" stroke-width="1" transform="matrix(1.83486,0,0,1.83486,-87.156,-274.312)"><polyline fill="none" points="89,198 93,201" vector-effect="none"/></g><defs><clipPath id="clip38"><path d="M54,152 L149,152 L149,218 L54,218 L54,152 z"/></clipPath></defs><g clip-path="url(#clip38)" fill="#ffffff" fill-opacity="1" opacity="1" stroke="#000000" stroke-linecap="square" stroke-linejoin="bevel" stroke-opacity="1" stroke-width="1" transform="matrix(1.83486,0,0,1.83486,-87.156,-274.312)"><polyline fill="none" points="93,201 89,201" vector-effect="none"/></g><defs><clipPath id="clip39"><path d="M54,152 L149,152 L149,218 L54,218 L54,152 z"/></clipPath></defs><g clip-path="url(#clip39)" fill="#ffffff" fill-opacity="1" opacity="1" stroke="#000000" stroke-linecap="square" stroke-linejoin="bevel" stroke-opacity="1" stroke-width="1" transform="matrix(1.83486,0,0,1.83486,-87.156,-274.312)"><polyline fill="none" points="89,201 93,198" vector-effect="none"/></g><defs><clipPath id="clip40"><path d="M54,152 L149,152 L149,218 L54,218 L54,152 z"/></clipPath></defs><g clip-path="url(#clip40)" fill="#ffffff" fill-opacity="1" opacity="1" stroke="#000000" stroke-linecap="square" stroke-linejoin="bevel" stroke-opacity="1" stroke-width="1" transform="matrix(1.83486,0,0,1.83486,-87.156,-274.312)"><polyline fill="none" points="93,198 93,201" vector-effect="none"/></g><defs><clipPath id="clip41"><path d="M54,152 L149,152 L149,218 L54,218 L54,152 z"/></clipPath></defs><g clip-path="url(#clip41)" fill="#ffffff" fill-opacity="1" opacity="1" stroke="#000000" stroke-linecap="square" stroke-linejoin="bevel" stroke-opacity="1" stroke-width="1" transform="matrix(1.83486,0,0,1.83486,-87.156,-274.312)"><polyline fill="none" points="114,185 121,185" vector-effect="none"/></g><defs><clipPath id="clip42"><path d="M54,152 L149,152 L149,218 L54,218 L54,152 z"/></clipPath></defs><g clip-path="url(#clip42)" fill="#ffffff" fill-opacity="1" opacity="1" stroke="#000000" stroke-linecap="square" stroke-linejoin="bevel" stroke-opacity="1" stroke-width="1" transform="matrix(1.83486,0,0,1.83486,-87.156,-274.312)"><polyline fill="none" points="121,185 120,180" vector-effect="none"/></g><defs><clipPath id="clip43"><path d="M54,152 L149,152 L149,218 L54,218 L54,152 z"/></clipPath></defs><g clip-path="url(#clip43)" fill="#ffffff" fill-opacity="1" opacity="1" stroke="#000000" stroke-linecap="square" stroke-linejoin="bevel" stroke-opacity="1" stroke-width="1" transform="matrix(1.83486,0,0,1.83486,-87.156,-274.312)"><polyline fill="none" points="120,180 119,176" vector-effect="none"/></g><defs><clipPath id="clip44"><path d="M54,152 L149,152 L149,218 L54,218 L54,152 z"/></clipPath></defs><g clip-path="url(#clip44)" fill="#ffffff" fill-opacity="1" opacity="1" stroke="#000000" stroke-linecap="square" stroke-linejoin="bevel" stroke-opacity="1" stroke-width="1" transform="matrix(1.83486,0,0,1.83486,-87.156,-274.312)"><polyline fill="none" points="119,176 116,172" vector-effect="none"/></g><defs><clipPath id="clip45"><path d="M54,152 L149,152 L149,218 L54,218 L54,152 z"/></clipPath></defs><g clip-path="url(#clip45)" fill="#ffffff" fill-opacity="1" opacity="1" stroke="#000000" stroke-linecap="square" stroke-linejoin="bevel" stroke-opacity="1" stroke-width="1" transform="matrix(1.83486,0,0,1.83486,-87.156,-274.312)"><polyline fill="none" points="116,172 112,169" vector-effect="none"/></g><defs><clipPath id="clip46"><path d="M54,152 L149,152 L149,218 L54,218 L54,152 z"/></clipPath></defs><g clip-path="url(#clip46)" fill="#ffffff" fill-opacity="1" opacity="1" stroke="#000000" stroke-linecap="square" stroke-linejoin="bevel" stroke-opacity="1" stroke-width="1" transform="matrix(1.83486,0,0,1.83486,-87.156,-274.312)"><polyline fill="none" points="112,169 116,169" vector-effect="none"/></g><defs><clipPath id="clip47"><path d="M54,152 L149,152 L149,218 L54,218 L54,152 z"/></clipPath></defs><g clip-path="url(#clip47)" fill="#ffffff" fill-opacity="1" opacity="1" stroke="#000000" stroke-linecap="square" stroke-linejoin="bevel" stroke-opacity="1" stroke-width="1" transform="matrix(1.83486,0,0,1.83486,-87.156,-274.312)"><polyline fill="none" points="116,169 112,172" vector-effect="none"/></g><defs><clipPath id="clip48"><path d="M54,152 L149,152 L149,218 L54,218 L54,152 z"/></clipPath></defs><g clip-path="url(#clip48)" fill="#ffffff" fill-opacity="1" opacity="1" stroke="#000000" stroke-linecap="square" stroke-linejoin="bevel" stroke-opacity="1" stroke-width="1" transform="matrix(1.83486,0,0,1.83486,-87.156,-274.312)"><polyline fill="none" points="112,172 112,169" vector-effect="none"/></g><defs><clipPath id="clip53"><path d="M-7,-2 L102,-2 L102,68 L-7,68 L-7,-2 z"/></clipPath></defs><g clip-path="url(#clip53)" fill="none" opacity="1" stroke="#000000" stroke-linecap="butt" stroke-linejoin="miter" stroke-miterlimit="2" stroke-opacity="1" stroke-width="0.784438" transform="matrix(1.83486,0,0,1.83486,12.844,3.66972)"><path d="M0,0 L95,0 L95,66 L0,66 L0,0 z" fill-rule="evenodd" vector-effect="none"/></g></g></svg>
