<?xml version="1.0" encoding="UTF-8"?><svg width="52.9167mm" height="21.1667mm" viewBox="0 0 200 80" xmlns="http://www.w3.org/2000/svg" xmlns:xlink="http://www.w3.org/1999/xlink"><g fill="none" stroke="black" stroke-width="1" fill-rule="evenodd" stroke-linecap="square" stroke-linejoin="bevel"><g clip-path="none" fill="none" opacity="1" stroke="none" stroke-opacity="0" transform="matrix(1,0,0,1,0,0)"><path d="M0,0 L200,0 L200,80 L0,80 L0,0 z" fill-rule="evenodd" vector-effect="none"/></g><defs><clipPath id="clip3"><path d="M7,23 L-107,23 L-107,-23 L7,-23 L7,23 z"/></clipPath></defs><g clip-path="url(#clip3)" fill="none" opacity="1" stroke="#000000" stroke-linecap="round" stroke-linejoin="miter" stroke-miterlimit="2" stroke-opacity="1" stroke-width="2" transform="matrix(-1.75439,0,0,-1.75439,12.2807,40.3509)"><path d="M5,-5 L0,0 L5,5" fill-rule="evenodd" vector-effect="none"/></g><defs><clipPath id="clip6"><path d="M-107,-23 L7,-23 L7,23 L-107,23 L-107,-23 z"/></clipPath></defs><g clip-path="url(#clip6)" fill="none" opacity="1" stroke="#000000" stroke-linecap="round" stroke-linejoin="miter" stroke-miterlimit="2" stroke-opacity="1" stroke-width="2" transform="matrix(1.75439,0,0,1.75439,187.719,40.3509)"><path d="M0,-5 L5,0 L0,5" fill-rule="evenodd" vector-effect="none"/></g><defs><clipPath id="clip9"><path d="M-7,-2 L107,-2 L107,44 L-7,44 L-7,-2 z"/></clipPath></defs><g clip-path="url(#clip9)" fill="#ffffff" fill-opacity="1" opacity="1" stroke="none" stroke-opacity="0" transform="matrix(1.75439,0,0,1.75439,12.2807,3.50877)"><path d="M0,0 L100,0 L100,42 L0,42 L0,0 z" fill-rule="evenodd" vector-effect="none"/></g><defs><clipPath id="clip14"><path d="M-15,-113 L497,-113 L497,102 L-15,102 L-15,-113 z"/></clipPath></defs><g clip-path="url(#clip14)" fill="none" opacity="1" stroke="#000000" stroke-linecap="butt" stroke-linejoin="miter" stroke-miterlimit="2" stroke-opacity="1" stroke-width="0.57" transform="matrix(0.342654,0,0,0.342654,17.5439,42.1053)"><text fill="#000000" fill-opacity="1" font-family="Liberation Sans" font-size="40" font-style="normal" font-weight="400" stroke="none" textLength="40" x="0" xml:space="preserve" y="1.28125">[R</text></g><defs><clipPath id="clip17"><path d="M-67,-138 L445,-138 L445,77 L-67,77 L-67,-138 z"/></clipPath></defs><g clip-path="url(#clip17)" fill="none" opacity="1" stroke="#000000" stroke-linecap="butt" stroke-linejoin="miter" stroke-miterlimit="2" stroke-opacity="1" stroke-width="0.57" transform="matrix(0.342654,0,0,0.342654,35.0877,50.8772)"><text fill="#000000" fill-opacity="1" font-family="Liberation Sans" font-size="32" font-style="normal" font-weight="400" stroke="none" textLength="18" x="0" xml:space="preserve" y="1.28125">1</text></g><defs><clipPath id="clip20"><path d="M-87,-113 L425,-113 L425,102 L-87,102 L-87,-113 z"/></clipPath></defs><g clip-path="url(#clip20)" fill="none" opacity="1" stroke="#000000" stroke-linecap="butt" stroke-linejoin="miter" stroke-miterlimit="2" stroke-opacity="1" stroke-width="0.57" transform="matrix(0.342654,0,0,0.342654,42.1053,42.1053)"><text fill="#000000" fill-opacity="1" font-family="Liberation Sans" font-size="40" font-style="normal" font-weight="400" stroke="none" textLength="40" x="0" xml:space="preserve" y="1.28125">,R</text></g><defs><clipPath id="clip23"><path d="M-138,-138 L374,-138 L374,77 L-138,77 L-138,-138 z"/></clipPath></defs><g clip-path="url(#clip23)" fill="none" opacity="1" stroke="#000000" stroke-linecap="butt" stroke-linejoin="miter" stroke-miterlimit="2" stroke-opacity="1" stroke-width="0.57" transform="matrix(0.342654,0,0,0.342654,59.6491,50.8772)"><text fill="#000000" fill-opacity="1" font-family="Liberation Sans" font-size="32" font-style="normal" font-weight="400" stroke="none" textLength="18" x="0" xml:space="preserve" y="1.28125">2</text></g><defs><clipPath id="clip26"><path d="M-159,-113 L353,-113 L353,102 L-159,102 L-159,-113 z"/></clipPath></defs><g clip-path="url(#clip26)" fill="none" opacity="1" stroke="#000000" stroke-linecap="butt" stroke-linejoin="miter" stroke-miterlimit="2" stroke-opacity="1" stroke-width="0.57" transform="matrix(0.342654,0,0,0.342654,66.6667,42.1053)"><text fill="#000000" fill-opacity="1" font-family="Liberation Sans" font-size="40" font-style="normal" font-weight="400" stroke="none" textLength="40" x="0" xml:space="preserve" y="1.28125">,R</text></g><defs><clipPath id="clip29"><path d="M-210,-138 L302,-138 L302,77 L-210,77 L-210,-138 z"/></clipPath></defs><g clip-path="url(#clip29)" fill="none" opacity="1" stroke="#000000" stroke-linecap="butt" stroke-linejoin="miter" stroke-miterlimit="2" stroke-opacity="1" stroke-width="0.57" transform="matrix(0.342654,0,0,0.342654,84.2105,50.8772)"><text fill="#000000" fill-opacity="1" font-family="Liberation Sans" font-size="32" font-style="normal" font-weight="400" stroke="none" textLength="18" x="0" xml:space="preserve" y="1.28125">3</text></g><defs><clipPath id="clip32"><path d="M-230,-113 L282,-113 L282,102 L-230,102 L-230,-113 z"/></clipPath></defs><g clip-path="url(#clip32)" fill="none" opacity="1" stroke="#000000" stroke-linecap="butt" stroke-linejoin="miter" stroke-miterlimit="2" stroke-opacity="1" stroke-width="0.57" transform="matrix(0.342654,0,0,0.342654,91.2281,42.1053)"><text fill="#000000" fill-opacity="1" font-family="Liberation Sans" font-size="40" font-style="normal" font-weight="400" stroke="none" textLength="11" x="0" xml:space="preserve" y="1.28125">]</text></g><defs><clipPath id="clip35"><path d="M-338,-113 L174,-113 L174,102 L-338,102 L-338,-113 z"/></clipPath></defs><g clip-path="url(#clip35)" fill="none" opacity="1" stroke="#000000" stroke-linecap="butt" stroke-linejoin="miter" stroke-miterlimit="2" stroke-opacity="1" stroke-width="0.57" transform="matrix(0.342654,0,0,0.342654,128.07,42.1053)"><text fill="#000000" fill-opacity="1" font-family="Liberation Sans" font-size="40" font-style="normal" font-weight="400" stroke="none" textLength="91" x="0" xml:space="preserve" y="1.28125">DCM</text></g><defs><clipPath id="clip38"><path d="M-456,-138 L56,-138 L56,77 L-456,77 L-456,-138 z"/></clipPath></defs><g clip-path="url(#clip38)" fill="none" opacity="1" stroke="#000000" stroke-linecap="butt" stroke-linejoin="miter" stroke-miterlimit="2" stroke-opacity="1" stroke-width="0.57" transform="matrix(0.342654,0,0,0.342654,168.421,50.8772)"><text fill="#000000" fill-opacity="1" font-family="Liberation Sans" font-size="32" font-style="normal" font-weight="400" stroke="none" textLength="34" x="0" xml:space="preserve" y="1.28125">be</text></g><defs><clipPath id="clip44"><path d="M-7,-2 L107,-2 L107,44 L-7,44 L-7,-2 z"/></clipPath></defs><g clip-path="url(#clip44)" fill="none" opacity="1" stroke="#000000" stroke-linecap="butt" stroke-linejoin="miter" stroke-miterlimit="2" stroke-opacity="1" stroke-width="0.798638" transform="matrix(1.75439,0,0,1.75439,12.2807,3.50877)"><path d="M0,0 L100,0 L100,42 L0,42 L0,0 z" fill-rule="evenodd" vector-effect="none"/></g></g></svg>
