<?xml version="1.0" encoding="UTF-8"?><svg width="52.9167mm" height="47.3604mm" viewBox="0 0 200 179" xmlns="http://www.w3.org/2000/svg" xmlns:xlink="http://www.w3.org/1999/xlink"><g fill="none" stroke="black" stroke-width="1" fill-rule="evenodd" stroke-linecap="square" stroke-linejoin="bevel"><g clip-path="none" fill="none" opacity="1" stroke="none" stroke-opacity="0" transform="matrix(1,0,0,1,0,0)"><path d="M0,0 L200,0 L200,179 L0,179 L0,0 z" fill-rule="evenodd" vector-effect="none"/></g><defs><clipPath id="clip3"><path d="M-52,-29 L7,-29 L7,24 L-52,24 L-52,-29 z"/></clipPath></defs><g clip-path="url(#clip3)" fill="none" opacity="1" stroke="#000000" stroke-linecap="round" stroke-linejoin="miter" stroke-miterlimit="2" stroke-opacity="1" stroke-width="2" transform="matrix(3.38983,0,0,3.38983,176.271,98.3051)"><path d="M0,-5 L5,0 L0,5" fill-rule="evenodd" vector-effect="none"/></g><defs><clipPath id="clip6"><path d="M7,39 L-52,39 L-52,-14 L7,-14 L7,39 z"/></clipPath></defs><g clip-path="url(#clip6)" fill="none" opacity="1" stroke="#000000" stroke-linecap="round" stroke-linejoin="miter" stroke-miterlimit="2" stroke-opacity="1" stroke-width="2" transform="matrix(-3.38983,0,0,-3.38983,23.7288,132.203)"><path d="M5,-5 L0,0 L5,5" fill-rule="evenodd" vector-effect="none"/></g><defs><clipPath id="clip9"><path d="M7,14 L-52,14 L-52,-39 L7,-39 L7,14 z"/></clipPath></defs><g clip-path="url(#clip9)" fill="none" opacity="1" stroke="#000000" stroke-linecap="round" stroke-linejoin="miter" stroke-miterlimit="2" stroke-opacity="1" stroke-width="2" transform="matrix(-3.38983,0,0,-3.38983,23.7288,47.4576)"><path d="M5,-5 L0,0 L5,5" fill-rule="evenodd" vector-effect="none"/></g><defs><clipPath id="clip12"><path d="M-7,-2 L52,-2 L52,51 L-7,51 L-7,-2 z"/></clipPath></defs><g clip-path="url(#clip12)" fill="#ffffff" fill-opacity="1" opacity="1" stroke="none" stroke-opacity="0" transform="matrix(3.38983,0,0,3.38983,23.7288,6.77966)"><path d="M0,0 L45,0 L45,49 L0,49 L0,0 z" fill-rule="evenodd" vector-effect="none"/></g><defs><clipPath id="clip17"><path d="M-15,-82 L215,-82 L215,169 L-15,169 L-15,-82 z"/></clipPath></defs><g clip-path="url(#clip17)" fill="none" opacity="1" stroke="#000000" stroke-linecap="butt" stroke-linejoin="miter" stroke-miterlimit="2" stroke-opacity="1" stroke-width="0.295" transform="matrix(0.662076,0,0,0.662076,33.8983,61.0169)"><text fill="#000000" fill-opacity="1" font-family="Liberation Sans" font-size="40" font-style="normal" font-weight="400" stroke="none" textLength="18" x="0" xml:space="preserve" y="1.28125">μ</text></g><defs><clipPath id="clip19"><path d="M-15,-82 L215,-82 L215,169 L-15,169 L-15,-82 z"/></clipPath></defs><g clip-path="url(#clip19)" fill="none" opacity="1" stroke="#000000" stroke-linecap="butt" stroke-linejoin="miter" stroke-miterlimit="2" stroke-opacity="1" stroke-width="0.295" transform="matrix(0.662076,0,0,0.662076,33.8983,61.0169)"><text fill="#000000" fill-opacity="1" font-family="Liberation Sans" font-size="40" font-style="normal" font-weight="400" stroke="none" textLength="8" x="43.7188" xml:space="preserve" y="1.28125">l</text></g><defs><clipPath id="clip22"><path d="M-15,-210 L215,-210 L215,41 L-15,41 L-15,-210 z"/></clipPath></defs><g clip-path="url(#clip22)" fill="none" opacity="1" stroke="#000000" stroke-linecap="butt" stroke-linejoin="miter" stroke-miterlimit="2" stroke-opacity="1" stroke-width="0.295" transform="matrix(0.662076,0,0,0.662076,33.8983,145.763)"><text fill="#000000" fill-opacity="1" font-family="Liberation Sans" font-size="40" font-style="normal" font-weight="400" stroke="none" textLength="21" x="0" xml:space="preserve" y="1.28125">h</text></g><defs><clipPath id="clip25"><path d="M-169,-143 L61,-143 L61,108 L-169,108 L-169,-143 z"/></clipPath></defs><g clip-path="url(#clip25)" fill="none" opacity="1" stroke="#000000" stroke-linecap="butt" stroke-linejoin="miter" stroke-miterlimit="2" stroke-opacity="1" stroke-width="0.295" transform="matrix(0.662076,0,0,0.662076,135.593,101.695)"><text fill="#000000" fill-opacity="1" font-family="Liberation Sans" font-size="40" font-style="normal" font-weight="400" stroke="none" textLength="27" x="0" xml:space="preserve" y="1.28125">X</text></g><defs><clipPath id="clip28"><path d="M-205,-169 L25,-169 L25,82 L-205,82 L-205,-169 z"/></clipPath></defs><g clip-path="url(#clip28)" fill="none" opacity="1" stroke="#000000" stroke-linecap="butt" stroke-linejoin="miter" stroke-miterlimit="2" stroke-opacity="1" stroke-width="0.295" transform="matrix(0.662076,0,0,0.662076,159.322,118.644)"><text fill="#000000" fill-opacity="1" font-family="Liberation Sans" font-size="32" font-style="normal" font-weight="400" stroke="none" textLength="10" x="0" xml:space="preserve" y="1.28125">f</text></g><defs><clipPath id="clip34"><path d="M-7,-2 L52,-2 L52,51 L-7,51 L-7,-2 z"/></clipPath></defs><g clip-path="url(#clip34)" fill="none" opacity="1" stroke="#000000" stroke-linecap="butt" stroke-linejoin="miter" stroke-miterlimit="2" stroke-opacity="1" stroke-width="0.613661" transform="matrix(3.38983,0,0,3.38983,23.7288,6.77966)"><path d="M0,0 L45,0 L45,49 L0,49 L0,0 z" fill-rule="evenodd" vector-effect="none"/></g></g></svg>
